G75*
G70*
%OFA0B0*%
%FSLAX24Y24*%
%IPPOS*%
%LPD*%
%AMOC8*
5,1,8,0,0,1.08239X$1,22.5*
%
%ADD10C,0.0000*%
%ADD11C,0.0550*%
%ADD12OC8,0.0515*%
%ADD13R,0.0515X0.0515*%
%ADD14R,0.0394X0.0433*%
%ADD15R,0.0433X0.0394*%
%ADD16C,0.0200*%
%ADD17C,0.0400*%
D10*
X000100Y000250D02*
X000100Y020120D01*
X019592Y020120D01*
X019592Y000250D01*
X000100Y000250D01*
X006960Y004250D02*
X006962Y004300D01*
X006968Y004350D01*
X006978Y004399D01*
X006991Y004448D01*
X007009Y004495D01*
X007030Y004541D01*
X007054Y004584D01*
X007082Y004626D01*
X007113Y004666D01*
X007147Y004703D01*
X007184Y004737D01*
X007224Y004768D01*
X007266Y004796D01*
X007309Y004820D01*
X007355Y004841D01*
X007402Y004859D01*
X007451Y004872D01*
X007500Y004882D01*
X007550Y004888D01*
X007600Y004890D01*
X007650Y004888D01*
X007700Y004882D01*
X007749Y004872D01*
X007798Y004859D01*
X007845Y004841D01*
X007891Y004820D01*
X007934Y004796D01*
X007976Y004768D01*
X008016Y004737D01*
X008053Y004703D01*
X008087Y004666D01*
X008118Y004626D01*
X008146Y004584D01*
X008170Y004541D01*
X008191Y004495D01*
X008209Y004448D01*
X008222Y004399D01*
X008232Y004350D01*
X008238Y004300D01*
X008240Y004250D01*
X008238Y004200D01*
X008232Y004150D01*
X008222Y004101D01*
X008209Y004052D01*
X008191Y004005D01*
X008170Y003959D01*
X008146Y003916D01*
X008118Y003874D01*
X008087Y003834D01*
X008053Y003797D01*
X008016Y003763D01*
X007976Y003732D01*
X007934Y003704D01*
X007891Y003680D01*
X007845Y003659D01*
X007798Y003641D01*
X007749Y003628D01*
X007700Y003618D01*
X007650Y003612D01*
X007600Y003610D01*
X007550Y003612D01*
X007500Y003618D01*
X007451Y003628D01*
X007402Y003641D01*
X007355Y003659D01*
X007309Y003680D01*
X007266Y003704D01*
X007224Y003732D01*
X007184Y003763D01*
X007147Y003797D01*
X007113Y003834D01*
X007082Y003874D01*
X007054Y003916D01*
X007030Y003959D01*
X007009Y004005D01*
X006991Y004052D01*
X006978Y004101D01*
X006968Y004150D01*
X006962Y004200D01*
X006960Y004250D01*
X016960Y004250D02*
X016962Y004300D01*
X016968Y004350D01*
X016978Y004399D01*
X016991Y004448D01*
X017009Y004495D01*
X017030Y004541D01*
X017054Y004584D01*
X017082Y004626D01*
X017113Y004666D01*
X017147Y004703D01*
X017184Y004737D01*
X017224Y004768D01*
X017266Y004796D01*
X017309Y004820D01*
X017355Y004841D01*
X017402Y004859D01*
X017451Y004872D01*
X017500Y004882D01*
X017550Y004888D01*
X017600Y004890D01*
X017650Y004888D01*
X017700Y004882D01*
X017749Y004872D01*
X017798Y004859D01*
X017845Y004841D01*
X017891Y004820D01*
X017934Y004796D01*
X017976Y004768D01*
X018016Y004737D01*
X018053Y004703D01*
X018087Y004666D01*
X018118Y004626D01*
X018146Y004584D01*
X018170Y004541D01*
X018191Y004495D01*
X018209Y004448D01*
X018222Y004399D01*
X018232Y004350D01*
X018238Y004300D01*
X018240Y004250D01*
X018238Y004200D01*
X018232Y004150D01*
X018222Y004101D01*
X018209Y004052D01*
X018191Y004005D01*
X018170Y003959D01*
X018146Y003916D01*
X018118Y003874D01*
X018087Y003834D01*
X018053Y003797D01*
X018016Y003763D01*
X017976Y003732D01*
X017934Y003704D01*
X017891Y003680D01*
X017845Y003659D01*
X017798Y003641D01*
X017749Y003628D01*
X017700Y003618D01*
X017650Y003612D01*
X017600Y003610D01*
X017550Y003612D01*
X017500Y003618D01*
X017451Y003628D01*
X017402Y003641D01*
X017355Y003659D01*
X017309Y003680D01*
X017266Y003704D01*
X017224Y003732D01*
X017184Y003763D01*
X017147Y003797D01*
X017113Y003834D01*
X017082Y003874D01*
X017054Y003916D01*
X017030Y003959D01*
X017009Y004005D01*
X016991Y004052D01*
X016978Y004101D01*
X016968Y004150D01*
X016962Y004200D01*
X016960Y004250D01*
X011460Y016250D02*
X011462Y016300D01*
X011468Y016350D01*
X011478Y016399D01*
X011491Y016448D01*
X011509Y016495D01*
X011530Y016541D01*
X011554Y016584D01*
X011582Y016626D01*
X011613Y016666D01*
X011647Y016703D01*
X011684Y016737D01*
X011724Y016768D01*
X011766Y016796D01*
X011809Y016820D01*
X011855Y016841D01*
X011902Y016859D01*
X011951Y016872D01*
X012000Y016882D01*
X012050Y016888D01*
X012100Y016890D01*
X012150Y016888D01*
X012200Y016882D01*
X012249Y016872D01*
X012298Y016859D01*
X012345Y016841D01*
X012391Y016820D01*
X012434Y016796D01*
X012476Y016768D01*
X012516Y016737D01*
X012553Y016703D01*
X012587Y016666D01*
X012618Y016626D01*
X012646Y016584D01*
X012670Y016541D01*
X012691Y016495D01*
X012709Y016448D01*
X012722Y016399D01*
X012732Y016350D01*
X012738Y016300D01*
X012740Y016250D01*
X012738Y016200D01*
X012732Y016150D01*
X012722Y016101D01*
X012709Y016052D01*
X012691Y016005D01*
X012670Y015959D01*
X012646Y015916D01*
X012618Y015874D01*
X012587Y015834D01*
X012553Y015797D01*
X012516Y015763D01*
X012476Y015732D01*
X012434Y015704D01*
X012391Y015680D01*
X012345Y015659D01*
X012298Y015641D01*
X012249Y015628D01*
X012200Y015618D01*
X012150Y015612D01*
X012100Y015610D01*
X012050Y015612D01*
X012000Y015618D01*
X011951Y015628D01*
X011902Y015641D01*
X011855Y015659D01*
X011809Y015680D01*
X011766Y015704D01*
X011724Y015732D01*
X011684Y015763D01*
X011647Y015797D01*
X011613Y015834D01*
X011582Y015874D01*
X011554Y015916D01*
X011530Y015959D01*
X011509Y016005D01*
X011491Y016052D01*
X011478Y016101D01*
X011468Y016150D01*
X011462Y016200D01*
X011460Y016250D01*
X001460Y016250D02*
X001462Y016300D01*
X001468Y016350D01*
X001478Y016399D01*
X001491Y016448D01*
X001509Y016495D01*
X001530Y016541D01*
X001554Y016584D01*
X001582Y016626D01*
X001613Y016666D01*
X001647Y016703D01*
X001684Y016737D01*
X001724Y016768D01*
X001766Y016796D01*
X001809Y016820D01*
X001855Y016841D01*
X001902Y016859D01*
X001951Y016872D01*
X002000Y016882D01*
X002050Y016888D01*
X002100Y016890D01*
X002150Y016888D01*
X002200Y016882D01*
X002249Y016872D01*
X002298Y016859D01*
X002345Y016841D01*
X002391Y016820D01*
X002434Y016796D01*
X002476Y016768D01*
X002516Y016737D01*
X002553Y016703D01*
X002587Y016666D01*
X002618Y016626D01*
X002646Y016584D01*
X002670Y016541D01*
X002691Y016495D01*
X002709Y016448D01*
X002722Y016399D01*
X002732Y016350D01*
X002738Y016300D01*
X002740Y016250D01*
X002738Y016200D01*
X002732Y016150D01*
X002722Y016101D01*
X002709Y016052D01*
X002691Y016005D01*
X002670Y015959D01*
X002646Y015916D01*
X002618Y015874D01*
X002587Y015834D01*
X002553Y015797D01*
X002516Y015763D01*
X002476Y015732D01*
X002434Y015704D01*
X002391Y015680D01*
X002345Y015659D01*
X002298Y015641D01*
X002249Y015628D01*
X002200Y015618D01*
X002150Y015612D01*
X002100Y015610D01*
X002050Y015612D01*
X002000Y015618D01*
X001951Y015628D01*
X001902Y015641D01*
X001855Y015659D01*
X001809Y015680D01*
X001766Y015704D01*
X001724Y015732D01*
X001684Y015763D01*
X001647Y015797D01*
X001613Y015834D01*
X001582Y015874D01*
X001554Y015916D01*
X001530Y015959D01*
X001509Y016005D01*
X001491Y016052D01*
X001478Y016101D01*
X001468Y016150D01*
X001462Y016200D01*
X001460Y016250D01*
D11*
X003100Y013750D03*
X004100Y013750D03*
X005100Y013750D03*
X006100Y013750D03*
X005600Y012750D03*
X004600Y012750D03*
X003600Y012750D03*
X002600Y012750D03*
X008100Y012750D03*
X009100Y012750D03*
X010100Y012750D03*
X011100Y012750D03*
X010600Y013750D03*
X009600Y013750D03*
X008600Y013750D03*
X011600Y013750D03*
X011600Y007750D03*
X010600Y007750D03*
X009600Y007750D03*
X008600Y007750D03*
X008100Y006750D03*
X009100Y006750D03*
X010100Y006750D03*
X011100Y006750D03*
X013600Y006750D03*
X014600Y006750D03*
X014100Y007750D03*
X015100Y007750D03*
X016100Y007750D03*
X017100Y007750D03*
X016600Y006750D03*
X015600Y006750D03*
D12*
X017600Y013750D03*
X017600Y014750D03*
X017600Y015750D03*
X017600Y016750D03*
X017600Y017750D03*
X017600Y018750D03*
X014600Y018750D03*
X014600Y017750D03*
X014600Y016750D03*
X014600Y015750D03*
X014600Y014750D03*
X005100Y006750D03*
X005100Y005750D03*
X005100Y004750D03*
X005100Y003750D03*
X005100Y002750D03*
X005100Y001750D03*
X002100Y002750D03*
X002100Y003750D03*
X002100Y004750D03*
X002100Y005750D03*
X002100Y006750D03*
D13*
X002100Y001750D03*
X014600Y013750D03*
D14*
X016265Y013250D03*
X016935Y013250D03*
X016935Y019250D03*
X016265Y019250D03*
D15*
X013600Y018085D03*
X013600Y017415D03*
X013600Y015085D03*
X013600Y014415D03*
D16*
X013600Y014250D01*
X001600Y014250D01*
X001600Y003250D01*
X002100Y002750D01*
X004100Y000750D01*
X010100Y000750D01*
X010100Y006750D01*
X010100Y007250D02*
X010100Y008250D01*
X008600Y008250D01*
X008600Y007750D01*
X008600Y005250D01*
X009100Y004750D01*
X009100Y002750D01*
X005100Y002750D01*
X004600Y002250D02*
X005100Y001750D01*
X004600Y002250D02*
X004600Y003750D01*
X004600Y004250D01*
X005600Y004250D01*
X005600Y008750D01*
X011600Y008750D01*
X012100Y008250D01*
X012100Y007750D01*
X014100Y007750D01*
X015100Y007750D02*
X013600Y009250D01*
X005100Y009250D01*
X005100Y006750D01*
X004600Y006250D02*
X005100Y005750D01*
X004600Y006250D02*
X004600Y009750D01*
X011600Y009750D01*
X015100Y013250D01*
X015100Y014250D01*
X017600Y016750D01*
X017100Y017250D01*
X017100Y018250D01*
X016100Y019250D01*
X016265Y019250D01*
X016935Y019250D02*
X017100Y019250D01*
X017600Y018750D01*
X017600Y015750D02*
X017100Y015250D01*
X017100Y014250D01*
X016100Y013250D01*
X016265Y013250D01*
X016935Y013250D02*
X017100Y013250D01*
X015600Y011750D01*
X015600Y007250D01*
X010100Y007250D01*
X009600Y007750D02*
X009600Y006250D01*
X009100Y005750D01*
X011100Y006750D02*
X012100Y005750D01*
X012100Y003250D01*
X016100Y003250D01*
X016100Y006250D01*
X016600Y006750D01*
X015600Y006750D02*
X012600Y003750D01*
X005100Y004750D02*
X002600Y004750D01*
X002600Y006250D01*
X002100Y006750D01*
X002100Y003750D02*
X004600Y003750D01*
X014600Y013750D02*
X014600Y014250D01*
X013600Y014250D01*
X013600Y015085D02*
X013600Y015250D01*
X014600Y015250D01*
X014600Y015750D01*
X014600Y016750D02*
X014600Y017250D01*
X013600Y017250D01*
X013600Y017415D01*
X013600Y018085D02*
X013600Y018250D01*
X014600Y018250D01*
X014600Y018750D01*
X017600Y013750D02*
X017100Y013250D01*
D17*
X009100Y005750D03*
X012600Y003750D03*
M02*
