G75*
G70*
%OFA0B0*%
%FSLAX24Y24*%
%IPPOS*%
%LPD*%
%AMOC8*
5,1,8,0,0,1.08239X$1,22.5*
%
%ADD10C,0.0000*%
%ADD11C,0.0060*%
%ADD12C,0.0100*%
%ADD13C,0.0050*%
%ADD14C,0.0040*%
D10*
X000100Y000250D02*
X000100Y020120D01*
X019592Y020120D01*
X019592Y000250D01*
X000100Y000250D01*
X006960Y004250D02*
X006962Y004300D01*
X006968Y004350D01*
X006978Y004399D01*
X006991Y004448D01*
X007009Y004495D01*
X007030Y004541D01*
X007054Y004584D01*
X007082Y004626D01*
X007113Y004666D01*
X007147Y004703D01*
X007184Y004737D01*
X007224Y004768D01*
X007266Y004796D01*
X007309Y004820D01*
X007355Y004841D01*
X007402Y004859D01*
X007451Y004872D01*
X007500Y004882D01*
X007550Y004888D01*
X007600Y004890D01*
X007650Y004888D01*
X007700Y004882D01*
X007749Y004872D01*
X007798Y004859D01*
X007845Y004841D01*
X007891Y004820D01*
X007934Y004796D01*
X007976Y004768D01*
X008016Y004737D01*
X008053Y004703D01*
X008087Y004666D01*
X008118Y004626D01*
X008146Y004584D01*
X008170Y004541D01*
X008191Y004495D01*
X008209Y004448D01*
X008222Y004399D01*
X008232Y004350D01*
X008238Y004300D01*
X008240Y004250D01*
X008238Y004200D01*
X008232Y004150D01*
X008222Y004101D01*
X008209Y004052D01*
X008191Y004005D01*
X008170Y003959D01*
X008146Y003916D01*
X008118Y003874D01*
X008087Y003834D01*
X008053Y003797D01*
X008016Y003763D01*
X007976Y003732D01*
X007934Y003704D01*
X007891Y003680D01*
X007845Y003659D01*
X007798Y003641D01*
X007749Y003628D01*
X007700Y003618D01*
X007650Y003612D01*
X007600Y003610D01*
X007550Y003612D01*
X007500Y003618D01*
X007451Y003628D01*
X007402Y003641D01*
X007355Y003659D01*
X007309Y003680D01*
X007266Y003704D01*
X007224Y003732D01*
X007184Y003763D01*
X007147Y003797D01*
X007113Y003834D01*
X007082Y003874D01*
X007054Y003916D01*
X007030Y003959D01*
X007009Y004005D01*
X006991Y004052D01*
X006978Y004101D01*
X006968Y004150D01*
X006962Y004200D01*
X006960Y004250D01*
X016960Y004250D02*
X016962Y004300D01*
X016968Y004350D01*
X016978Y004399D01*
X016991Y004448D01*
X017009Y004495D01*
X017030Y004541D01*
X017054Y004584D01*
X017082Y004626D01*
X017113Y004666D01*
X017147Y004703D01*
X017184Y004737D01*
X017224Y004768D01*
X017266Y004796D01*
X017309Y004820D01*
X017355Y004841D01*
X017402Y004859D01*
X017451Y004872D01*
X017500Y004882D01*
X017550Y004888D01*
X017600Y004890D01*
X017650Y004888D01*
X017700Y004882D01*
X017749Y004872D01*
X017798Y004859D01*
X017845Y004841D01*
X017891Y004820D01*
X017934Y004796D01*
X017976Y004768D01*
X018016Y004737D01*
X018053Y004703D01*
X018087Y004666D01*
X018118Y004626D01*
X018146Y004584D01*
X018170Y004541D01*
X018191Y004495D01*
X018209Y004448D01*
X018222Y004399D01*
X018232Y004350D01*
X018238Y004300D01*
X018240Y004250D01*
X018238Y004200D01*
X018232Y004150D01*
X018222Y004101D01*
X018209Y004052D01*
X018191Y004005D01*
X018170Y003959D01*
X018146Y003916D01*
X018118Y003874D01*
X018087Y003834D01*
X018053Y003797D01*
X018016Y003763D01*
X017976Y003732D01*
X017934Y003704D01*
X017891Y003680D01*
X017845Y003659D01*
X017798Y003641D01*
X017749Y003628D01*
X017700Y003618D01*
X017650Y003612D01*
X017600Y003610D01*
X017550Y003612D01*
X017500Y003618D01*
X017451Y003628D01*
X017402Y003641D01*
X017355Y003659D01*
X017309Y003680D01*
X017266Y003704D01*
X017224Y003732D01*
X017184Y003763D01*
X017147Y003797D01*
X017113Y003834D01*
X017082Y003874D01*
X017054Y003916D01*
X017030Y003959D01*
X017009Y004005D01*
X016991Y004052D01*
X016978Y004101D01*
X016968Y004150D01*
X016962Y004200D01*
X016960Y004250D01*
X011460Y016250D02*
X011462Y016300D01*
X011468Y016350D01*
X011478Y016399D01*
X011491Y016448D01*
X011509Y016495D01*
X011530Y016541D01*
X011554Y016584D01*
X011582Y016626D01*
X011613Y016666D01*
X011647Y016703D01*
X011684Y016737D01*
X011724Y016768D01*
X011766Y016796D01*
X011809Y016820D01*
X011855Y016841D01*
X011902Y016859D01*
X011951Y016872D01*
X012000Y016882D01*
X012050Y016888D01*
X012100Y016890D01*
X012150Y016888D01*
X012200Y016882D01*
X012249Y016872D01*
X012298Y016859D01*
X012345Y016841D01*
X012391Y016820D01*
X012434Y016796D01*
X012476Y016768D01*
X012516Y016737D01*
X012553Y016703D01*
X012587Y016666D01*
X012618Y016626D01*
X012646Y016584D01*
X012670Y016541D01*
X012691Y016495D01*
X012709Y016448D01*
X012722Y016399D01*
X012732Y016350D01*
X012738Y016300D01*
X012740Y016250D01*
X012738Y016200D01*
X012732Y016150D01*
X012722Y016101D01*
X012709Y016052D01*
X012691Y016005D01*
X012670Y015959D01*
X012646Y015916D01*
X012618Y015874D01*
X012587Y015834D01*
X012553Y015797D01*
X012516Y015763D01*
X012476Y015732D01*
X012434Y015704D01*
X012391Y015680D01*
X012345Y015659D01*
X012298Y015641D01*
X012249Y015628D01*
X012200Y015618D01*
X012150Y015612D01*
X012100Y015610D01*
X012050Y015612D01*
X012000Y015618D01*
X011951Y015628D01*
X011902Y015641D01*
X011855Y015659D01*
X011809Y015680D01*
X011766Y015704D01*
X011724Y015732D01*
X011684Y015763D01*
X011647Y015797D01*
X011613Y015834D01*
X011582Y015874D01*
X011554Y015916D01*
X011530Y015959D01*
X011509Y016005D01*
X011491Y016052D01*
X011478Y016101D01*
X011468Y016150D01*
X011462Y016200D01*
X011460Y016250D01*
X001460Y016250D02*
X001462Y016300D01*
X001468Y016350D01*
X001478Y016399D01*
X001491Y016448D01*
X001509Y016495D01*
X001530Y016541D01*
X001554Y016584D01*
X001582Y016626D01*
X001613Y016666D01*
X001647Y016703D01*
X001684Y016737D01*
X001724Y016768D01*
X001766Y016796D01*
X001809Y016820D01*
X001855Y016841D01*
X001902Y016859D01*
X001951Y016872D01*
X002000Y016882D01*
X002050Y016888D01*
X002100Y016890D01*
X002150Y016888D01*
X002200Y016882D01*
X002249Y016872D01*
X002298Y016859D01*
X002345Y016841D01*
X002391Y016820D01*
X002434Y016796D01*
X002476Y016768D01*
X002516Y016737D01*
X002553Y016703D01*
X002587Y016666D01*
X002618Y016626D01*
X002646Y016584D01*
X002670Y016541D01*
X002691Y016495D01*
X002709Y016448D01*
X002722Y016399D01*
X002732Y016350D01*
X002738Y016300D01*
X002740Y016250D01*
X002738Y016200D01*
X002732Y016150D01*
X002722Y016101D01*
X002709Y016052D01*
X002691Y016005D01*
X002670Y015959D01*
X002646Y015916D01*
X002618Y015874D01*
X002587Y015834D01*
X002553Y015797D01*
X002516Y015763D01*
X002476Y015732D01*
X002434Y015704D01*
X002391Y015680D01*
X002345Y015659D01*
X002298Y015641D01*
X002249Y015628D01*
X002200Y015618D01*
X002150Y015612D01*
X002100Y015610D01*
X002050Y015612D01*
X002000Y015618D01*
X001951Y015628D01*
X001902Y015641D01*
X001855Y015659D01*
X001809Y015680D01*
X001766Y015704D01*
X001724Y015732D01*
X001684Y015763D01*
X001647Y015797D01*
X001613Y015834D01*
X001582Y015874D01*
X001554Y015916D01*
X001530Y015959D01*
X001509Y016005D01*
X001491Y016052D01*
X001478Y016101D01*
X001468Y016150D01*
X001462Y016200D01*
X001460Y016250D01*
D11*
X002080Y015270D02*
X006620Y015270D01*
X006620Y020330D01*
X007580Y020330D02*
X007580Y015270D01*
X012120Y015270D01*
X012120Y020330D01*
X011000Y020350D02*
X011000Y015320D01*
X012929Y016854D02*
X012929Y017068D01*
X012929Y016961D02*
X013463Y016961D01*
X013570Y016854D01*
X013570Y016748D01*
X013463Y016641D01*
X013570Y017285D02*
X013143Y017712D01*
X013036Y017712D01*
X012929Y017606D01*
X012929Y017392D01*
X013036Y017285D01*
X013570Y017285D02*
X013570Y017712D01*
X018130Y017600D02*
X018557Y017600D01*
X018557Y017280D02*
X018557Y017921D01*
X018775Y017921D02*
X018988Y017921D01*
X018881Y017921D02*
X018881Y017280D01*
X018775Y017280D02*
X018988Y017280D01*
X018130Y017280D02*
X018130Y017921D01*
X018130Y015421D02*
X018130Y014780D01*
X018557Y014780D01*
X018775Y014887D02*
X018775Y015314D01*
X018881Y015421D01*
X019095Y015421D01*
X019202Y015314D01*
X019202Y014887D01*
X019095Y014780D01*
X018881Y014780D01*
X018775Y014887D01*
X015198Y011008D02*
X015198Y010280D01*
X014955Y010280D02*
X015441Y010280D01*
X014955Y010765D02*
X015198Y011008D01*
X014716Y010765D02*
X014473Y010280D01*
X014230Y010765D01*
X013266Y010644D02*
X013144Y010523D01*
X012780Y010523D01*
X012780Y010280D02*
X012780Y011008D01*
X013144Y011008D01*
X013266Y010887D01*
X013266Y010644D01*
X012541Y010644D02*
X012055Y010644D01*
X012055Y010765D02*
X012055Y010280D01*
X012055Y010765D02*
X012298Y011008D01*
X012541Y010765D01*
X012541Y010280D01*
X011816Y011008D02*
X011330Y011008D01*
X011573Y011008D02*
X011573Y010280D01*
X010366Y010280D02*
X009880Y010280D01*
X010123Y010280D02*
X010123Y011008D01*
X009880Y010765D01*
X009641Y011008D02*
X009155Y011008D01*
X009155Y010280D01*
X009641Y010280D01*
X009398Y010644D02*
X009155Y010644D01*
X008191Y010644D02*
X008191Y010280D01*
X007948Y010280D02*
X007948Y010644D01*
X008069Y010765D01*
X008191Y010644D01*
X007948Y010644D02*
X007827Y010765D01*
X007705Y010765D01*
X007705Y010280D01*
X007466Y010401D02*
X007466Y010644D01*
X007344Y010765D01*
X007102Y010765D01*
X006980Y010644D01*
X006980Y010401D01*
X007102Y010280D01*
X007344Y010280D01*
X007466Y010401D01*
X006740Y010280D02*
X006376Y010280D01*
X006255Y010401D01*
X006255Y010644D01*
X006376Y010765D01*
X006740Y010765D01*
X006015Y010644D02*
X006015Y010401D01*
X005894Y010280D01*
X005651Y010280D01*
X005530Y010401D01*
X005530Y010644D01*
X005651Y010765D01*
X005894Y010765D01*
X006015Y010644D01*
X005290Y010644D02*
X005290Y010280D01*
X005048Y010280D02*
X005048Y010644D01*
X005169Y010765D01*
X005290Y010644D01*
X005048Y010644D02*
X004926Y010765D01*
X004805Y010765D01*
X004805Y010280D01*
X004565Y010401D02*
X004444Y010523D01*
X004201Y010523D01*
X004080Y010644D01*
X004201Y010765D01*
X004565Y010765D01*
X004565Y010401D02*
X004444Y010280D01*
X004080Y010280D01*
X003840Y010280D02*
X003476Y010280D01*
X003355Y010401D01*
X003355Y010765D01*
X003115Y010765D02*
X002751Y010765D01*
X002630Y010644D01*
X002751Y010523D01*
X002994Y010523D01*
X003115Y010401D01*
X002994Y010280D01*
X002630Y010280D01*
X003598Y010037D02*
X003719Y010037D01*
X003840Y010159D01*
X003840Y010765D01*
X003200Y015330D02*
X003200Y020350D01*
X002080Y020330D02*
X002080Y015270D01*
X005500Y015320D02*
X005500Y020350D01*
X008700Y020350D02*
X008700Y015330D01*
X001057Y005921D02*
X000630Y005280D01*
X001057Y005280D02*
X000630Y005921D01*
X000630Y003207D02*
X001057Y003207D01*
X001057Y002994D02*
X000630Y002994D01*
X006129Y002950D02*
X006663Y002950D01*
X006770Y002844D01*
X006770Y002737D01*
X006663Y002630D01*
X006129Y002844D02*
X006129Y003057D01*
X006343Y003275D02*
X006129Y003488D01*
X006770Y003488D01*
X006770Y003275D02*
X006770Y003702D01*
X007580Y005230D02*
X007580Y000170D01*
X008700Y000150D02*
X008700Y005180D01*
X007580Y005230D02*
X012120Y005230D01*
X012120Y000170D01*
X013080Y000170D02*
X013080Y005230D01*
X017620Y005230D01*
X017620Y000170D01*
X017497Y001280D02*
X017497Y001707D01*
X017711Y001921D01*
X017924Y001707D01*
X017924Y001280D01*
X017924Y001600D02*
X017497Y001600D01*
X017280Y001494D02*
X017280Y001387D01*
X017173Y001280D01*
X016960Y001280D01*
X016853Y001387D01*
X016635Y001280D02*
X016208Y001280D01*
X016422Y001280D02*
X016422Y001921D01*
X016208Y001707D01*
X015991Y001600D02*
X015564Y001600D01*
X015884Y001921D01*
X015884Y001280D01*
X015346Y001387D02*
X015239Y001280D01*
X015026Y001280D01*
X014919Y001387D01*
X014919Y001600D02*
X015133Y001707D01*
X015239Y001707D01*
X015346Y001600D01*
X015346Y001387D01*
X014919Y001600D02*
X014919Y001921D01*
X015346Y001921D01*
X014702Y001921D02*
X014275Y001921D01*
X014275Y001600D01*
X014488Y001707D01*
X014595Y001707D01*
X014702Y001600D01*
X014702Y001387D01*
X014595Y001280D01*
X014381Y001280D01*
X014275Y001387D01*
X014057Y001387D02*
X014057Y001814D01*
X013950Y001921D01*
X013630Y001921D01*
X013630Y001280D01*
X013950Y001280D01*
X014057Y001387D01*
X014200Y000150D02*
X014200Y005180D01*
X016500Y005170D02*
X016500Y000150D01*
X017280Y001494D02*
X017173Y001600D01*
X017066Y001600D01*
X017173Y001600D02*
X017280Y001707D01*
X017280Y001814D01*
X017173Y001921D01*
X016960Y001921D01*
X016853Y001814D01*
X011000Y000150D02*
X011000Y005170D01*
D12*
X011500Y006750D02*
X012420Y006750D01*
X013180Y006750D01*
X012850Y006750D02*
X012420Y006750D01*
X017000Y006750D02*
X018280Y006750D01*
X018280Y008150D01*
X006920Y008150D01*
X006920Y006750D01*
X007680Y006750D01*
X006920Y006750D02*
X006920Y000150D01*
X008700Y000150D01*
X011000Y000150D01*
X014200Y000150D01*
X016500Y000150D01*
X018280Y000150D01*
X018280Y006750D01*
X012780Y012350D02*
X001420Y012350D01*
X001420Y013750D01*
X002700Y013750D01*
X001420Y013750D02*
X001420Y020350D01*
X003200Y020350D01*
X005500Y020350D01*
X008700Y020350D01*
X011000Y020350D01*
X012780Y020350D01*
X012780Y013750D01*
X012020Y013750D01*
X012780Y013750D02*
X012780Y012350D01*
X008200Y013750D02*
X007280Y013750D01*
X006520Y013750D01*
X006850Y013750D02*
X007280Y013750D01*
D13*
X005050Y006750D02*
X002150Y006750D01*
X002150Y001750D01*
X005050Y001750D01*
X005050Y006750D01*
X004025Y005550D02*
X003175Y005550D01*
X003175Y002950D01*
X004025Y002950D01*
X004025Y005550D01*
X014650Y013750D02*
X017550Y013750D01*
X017550Y018750D01*
X014650Y018750D01*
X014650Y013750D01*
X015675Y014950D02*
X016525Y014950D01*
X016525Y017550D01*
X015675Y017550D01*
X015675Y014950D01*
D14*
X015640Y013480D02*
X015486Y013480D01*
X015410Y013404D01*
X015256Y013404D02*
X015256Y013250D01*
X015179Y013173D01*
X014949Y013173D01*
X014949Y013020D02*
X014949Y013480D01*
X015179Y013480D01*
X015256Y013404D01*
X015103Y013173D02*
X015256Y013020D01*
X015410Y013020D02*
X015717Y013327D01*
X015717Y013404D01*
X015640Y013480D01*
X015717Y013020D02*
X015410Y013020D01*
X013830Y013020D02*
X013370Y013020D01*
X013370Y013250D01*
X013446Y013327D01*
X013600Y013327D01*
X013677Y013250D01*
X013677Y013020D01*
X013677Y013173D02*
X013830Y013327D01*
X013830Y013711D02*
X013370Y013711D01*
X013600Y013480D01*
X013600Y013787D01*
X013677Y016020D02*
X013677Y016250D01*
X013600Y016327D01*
X013446Y016327D01*
X013370Y016250D01*
X013370Y016020D01*
X013830Y016020D01*
X013677Y016173D02*
X013830Y016327D01*
X013753Y016480D02*
X013830Y016557D01*
X013830Y016711D01*
X013753Y016787D01*
X013677Y016787D01*
X013600Y016711D01*
X013600Y016634D01*
X013600Y016711D02*
X013523Y016787D01*
X013446Y016787D01*
X013370Y016711D01*
X013370Y016557D01*
X013446Y016480D01*
X014870Y019020D02*
X014870Y019480D01*
X015100Y019480D01*
X015177Y019404D01*
X015177Y019250D01*
X015100Y019173D01*
X014870Y019173D01*
X015023Y019173D02*
X015177Y019020D01*
X015330Y019020D02*
X015637Y019020D01*
X015484Y019020D02*
X015484Y019480D01*
X015330Y019327D01*
X017816Y013230D02*
X017739Y013154D01*
X017739Y013077D01*
X017816Y013000D01*
X017969Y013000D01*
X018046Y012923D01*
X018046Y012847D01*
X017969Y012770D01*
X017816Y012770D01*
X017739Y012847D01*
X017816Y013230D02*
X017969Y013230D01*
X018046Y013154D01*
X018199Y013230D02*
X018199Y012770D01*
X018353Y012923D01*
X018506Y012770D01*
X018506Y013230D01*
X018660Y013154D02*
X018736Y013230D01*
X018890Y013230D01*
X018967Y013154D01*
X018967Y013077D01*
X018660Y012770D01*
X018967Y012770D01*
X004967Y000770D02*
X004660Y000770D01*
X004813Y000770D02*
X004813Y001230D01*
X004660Y001077D01*
X004506Y001230D02*
X004506Y000770D01*
X004353Y000923D01*
X004199Y000770D01*
X004199Y001230D01*
X004046Y001154D02*
X003969Y001230D01*
X003816Y001230D01*
X003739Y001154D01*
X003739Y001077D01*
X003816Y001000D01*
X003969Y001000D01*
X004046Y000923D01*
X004046Y000847D01*
X003969Y000770D01*
X003816Y000770D01*
X003739Y000847D01*
M02*
