999
dxfrw 0.6.3
  0
SECTION
  2
HEADER
  9
$ACADVER
  1
AC1021
  9
$DWGCODEPAGE
  3
ANSI_1252
  9
$INSBASE
 10
0
 20
0
 30
0
  9
$EXTMIN
 10
-5.551115123125783e-17
 20
-5.551115123125783e-17
 30
0
  9
$EXTMAX
 10
128.4
 20
50.8
 30
0
  9
$LIMMIN
 10
0
 20
0
  9
$LIMMAX
 10
420
 20
297
  9
$ORTHOMODE
 70
    0
  9
$REGENMODE
 70
    1
  9
$FILLMODE
 70
    1
  9
$QTEXTMODE
 70
    0
  9
$MIRRTEXT
 70
    0
  9
$LTSCALE
 40
1
  9
$ATTMODE
 70
    0
  9
$TEXTSIZE
 40
2.5
  9
$TRACEWID
 40
15.68
  9
$TEXTSTYLE
  7
STANDARD
  9
$CLAYER
  8
0
  9
$CELTYPE
  6
BYLAYER
  9
$CECOLOR
 62
  256
  9
$CELTSCALE
 40
1
  9
$DISPSILH
 70
    0
  9
$DIMSCALE
 40
2.5
  9
$DIMASZ
 40
2.5
  9
$DIMEXO
 40
0.625
  9
$DIMDLI
 40
3.75
  9
$DIMRND
 40
0
  9
$DIMDLE
 40
0
  9
$DIMEXE
 40
1.25
  9
$DIMTP
 40
0
  9
$DIMTM
 40
0
  9
$DIMTXT
 40
2.5
  9
$DIMCEN
 40
2.5
  9
$DIMTSZ
 40
0
  9
$DIMTOL
 70
    0
  9
$DIMLIM
 70
    0
  9
$DIMTIH
 70
    0
  9
$DIMTOH
 70
    0
  9
$DIMSE1
 70
    0
  9
$DIMSE2
 70
    0
  9
$DIMTAD
 70
    1
  9
$DIMZIN
 70
    8
  9
$DIMBLK
  1

  9
$DIMASO
 70
    1
  9
$DIMSHO
 70
    1
  9
$DIMPOST
  1

  9
$DIMAPOST
  1

  9
$DIMALT
 70
    0
  9
$DIMALTD
 70
    3
  9
$DIMALTF
 40
0.03937
  9
$DIMLFAC
 40
1
  9
$DIMTOFL
 70
    1
  9
$DIMTVP
 40
0
  9
$DIMTIX
 70
    0
  9
$DIMSOXD
 70
    0
  9
$DIMSAH
 70
    0
  9
$DIMBLK1
  1

  9
$DIMBLK2
  1

  9
$DIMSTYLE
  2
STANDARD
  9
$DIMCLRD
 70
    0
  9
$DIMCLRE
 70
    0
  9
$DIMCLRT
 70
    0
  9
$DIMTFAC
 40
1
  9
$DIMGAP
 40
0.625
  9
$DIMJUST
 70
    0
  9
$DIMSD1
 70
    0
  9
$DIMSD2
 70
    0
  9
$DIMTOLJ
 70
    0
  9
$DIMTZIN
 70
    8
  9
$DIMALTZ
 70
    0
  9
$DIMALTTZ
 70
    0
  9
$DIMUPT
 70
    0
  9
$DIMDEC
 70
    2
  9
$DIMTDEC
 70
    2
  9
$DIMALTU
 70
    2
  9
$DIMALTTD
 70
    3
  9
$DIMTXSTY
  7
STANDARD
  9
$DIMAUNIT
 70
    0
  9
$DIMADEC
 70
    0
  9
$DIMALTRND
 40
0
  9
$DIMAZIN
 70
    0
  9
$DIMDSEP
 70
   44
  9
$DIMATFIT
 70
    3
  9
$DIMFRAC
 70
    0
  9
$DIMLDRBLK
  1
STANDARD
  9
$DIMLUNIT
 70
    2
  9
$DIMLWD
 70
   -2
  9
$DIMLWE
 70
   -2
  9
$DIMTMOVE
 70
    0
  9
$DIMFXL
 40
1
  9
$DIMFXLON
 70
    0
  9
$DIMJOGANG
 40
0.7854
  9
$DIMTFILL
 70
    0
  9
$DIMTFILLCLR
 70
    0
  9
$DIMARCSYM
 70
    0
  9
$DIMLTYPE
  6

  9
$DIMLTEX1
  6

  9
$DIMLTEX2
  6

  9
$LUNITS
 70
    2
  9
$LUPREC
 70
    4
  9
$SKETCHINC
 40
1
  9
$FILLETRAD
 40
0
  9
$AUNITS
 70
    0
  9
$AUPREC
 70
    2
  9
$MENU
  1
.
  9
$ELEVATION
 40
0
  9
$PELEVATION
 40
0
  9
$THICKNESS
 40
0
  9
$LIMCHECK
 70
    0
  9
$CHAMFERA
 40
0
  9
$CHAMFERB
 40
0
  9
$CHAMFERC
 40
0
  9
$CHAMFERD
 40
0
  9
$SKPOLY
 70
    0
  9
$USRTIMER
 70
    1
  9
$ANGBASE
 50
0
  9
$ANGDIR
 70
    0
  9
$PDMODE
 70
   34
  9
$PDSIZE
 40
0
  9
$PLINEWID
 40
0
  9
$SPLFRAME
 70
    0
  9
$SPLINETYPE
 70
    2
  9
$SPLINESEGS
 70
    8
  9
$HANDSEED
  5
20000
  9
$SURFTAB1
 70
    6
  9
$SURFTAB2
 70
    6
  9
$SURFTYPE
 70
    6
  9
$SURFU
 70
    6
  9
$SURFV
 70
    6
  9
$UCSBASE
  2

  9
$UCSNAME
  2

  9
$UCSORG
 10
0
 20
0
 30
0
  9
$UCSXDIR
 10
1
 20
0
 30
0
  9
$UCSYDIR
 10
0
 20
1
 30
0
  9
$UCSORTHOREF
  2

  9
$UCSORTHOVIEW
 70
    0
  9
$UCSORGTOP
 10
0
 20
0
 30
0
  9
$UCSORGBOTTOM
 10
0
 20
0
 30
0
  9
$UCSORGLEFT
 10
0
 20
0
 30
0
  9
$UCSORGRIGHT
 10
0
 20
0
 30
0
  9
$UCSORGFRONT
 10
0
 20
0
 30
0
  9
$UCSORGBACK
 10
0
 20
0
 30
0
  9
$PUCSBASE
  2

  9
$PUCSNAME
  2

  9
$PUCSORG
 10
0
 20
0
 30
0
  9
$PUCSXDIR
 10
1
 20
0
 30
0
  9
$PUCSYDIR
 10
0
 20
1
 30
0
  9
$PUCSORTHOREF
  2

  9
$PUCSORTHOVIEW
 70
    0
  9
$PUCSORGTOP
 10
0
 20
0
 30
0
  9
$PUCSORGBOTTOM
 10
0
 20
0
 30
0
  9
$PUCSORGLEFT
 10
0
 20
0
 30
0
  9
$PUCSORGRIGHT
 10
0
 20
0
 30
0
  9
$PUCSORGFRONT
 10
0
 20
0
 30
0
  9
$PUCSORGBACK
 10
0
 20
0
 30
0
  9
$USERI1
 70
    0
  9
$USERI2
 70
    0
  9
$USERI3
 70
    0
  9
$USERI4
 70
    0
  9
$USERI5
 70
    0
  9
$USERR1
 40
0
  9
$USERR2
 40
0
  9
$USERR3
 40
0
  9
$USERR4
 40
0
  9
$USERR5
 40
0
  9
$WORLDVIEW
 70
    1
  9
$SHADEDGE
 70
    3
  9
$SHADEDIF
 70
   70
  9
$TILEMODE
 70
    1
  9
$MAXACTVP
 70
   64
  9
$PINSBASE
 10
0
 20
0
 30
0
  9
$PLIMCHECK
 70
    0
  9
$PEXTMIN
 10
0
 20
0
 30
0
  9
$PEXTMAX
 10
0
 20
0
 30
0
  9
$GRIDMODE
 70
    1
  9
$SNAPSTYLE
 70
    0
  9
$PLIMMIN
 10
0
 20
0
  9
$PLIMMAX
 10
297
 20
210
  9
$UNITMODE
 70
    0
  9
$VISRETAIN
 70
    1
  9
$PLINEGEN
 70
    0
  9
$PSLTSCALE
 70
    1
  9
$TREEDEPTH
 70
 3020
  9
$CMLSTYLE
  2
Standard
  9
$CMLJUST
 70
    0
  9
$CMLSCALE
 40
20
  9
$PROXYGRAPHICS
 70
    1
  9
$MEASUREMENT
 70
    1
  9
$CELWEIGHT
370
   -1
  9
$ENDCAPS
280
    0
  9
$JOINSTYLE
280
    0
  9
$LWDISPLAY
290
    0
  9
$INSUNITS
 70
    4
  9
$HYPERLINKBASE
  1

  9
$STYLESHEET
  1

  9
$XEDIT
290
    1
  9
$CEPSNTYPE
380
    0
  9
$PSTYLEMODE
290
    1
  9
$EXTNAMES
290
    1
  9
$PSVPSCALE
 40
1
  9
$OLESTARTUP
290
    0
  9
$SORTENTS
280
  127
  9
$INDEXCTL
280
    0
  9
$HIDETEXT
280
    1
  9
$XCLIPFRAME
290
    0
  9
$HALOGAP
280
    0
  9
$OBSCOLOR
 70
  257
  9
$OBSLTYPE
280
    0
  9
$INTERSECTIONDISPLAY
280
    0
  9
$INTERSECTIONCOLOR
 70
  257
  9
$DIMASSOC
280
    1
  9
$PROJECTNAME
  1

  9
$CAMERADISPLAY
290
    0
  9
$LENSLENGTH
 40
50
  9
$CAMERAHEIGHT
 40
0
  9
$STEPSPERSEC
 40
2
  9
$STEPSIZE
 40
50
  9
$3DDWFPREC
 40
2
  9
$PSOLWIDTH
 40
5
  9
$PSOLHEIGHT
 40
80
  9
$LOFTANG1
 40
1.570796326794897
  9
$LOFTANG2
 40
1.570796326794897
  9
$LOFTMAG1
 40
0
  9
$LOFTMAG2
 40
0
  9
$LOFTPARAM
 70
    7
  9
$LOFTNORMALS
280
    1
  9
$LATITUDE
 40
1
  9
$LONGITUDE
 40
1
  9
$NORTHDIRECTION
 40
0
  9
$TIMEZONE
 70
-8000
  9
$LIGHTGLYPHDISPLAY
280
    1
  9
$TILEMODELIGHTSYNCH
280
    1
  9
$SOLIDHIST
280
    1
  9
$SHOWHIST
280
    1
  9
$DWFFRAME
280
    2
  9
$DGNFRAME
280
    0
  9
$REALWORLDSCALE
290
    1
  9
$INTERFERECOLOR
 62
    1
  9
$CSHADOW
280
    0
  9
$SHADOWPLANELOCATION
 40
0
  0
ENDSEC
  0
SECTION
  2
CLASSES
  0
ENDSEC
  0
SECTION
  2
TABLES
  0
TABLE
  2
VPORT
  5
8
330
0
100
AcDbSymbolTable
 70
    1
  0
VPORT
  5
31
330
2
100
AcDbSymbolTableRecord
100
AcDbViewportTableRecord
  2
*ACTIVE
 70
    0
 10
0
 20
0
 11
1
 21
1
 12
71.91853480147044
 22
79.75657811178046
 13
0
 23
0
 14
10
 24
10
 15
10
 25
10
 16
0
 26
0
 36
1
 17
0
 27
0
 37
0
 40
227.9614123074895
 41
0.8068241469816273
 42
50
 43
0
 44
0
 50
0
 51
0
 71
    0
 72
  100
 73
    1
 74
    3
 75
    0
 76
    1
 77
    0
 78
    0
281
    0
 65
    1
110
0
120
0
130
0
111
1
121
0
131
0
112
0
122
1
132
0
 79
    0
146
0
348
10020
 60
    7
 61
    5
292
1
282
    1
141
0
142
0
 63
  250
421
3358443
  0
ENDTAB
  0
TABLE
  2
LTYPE
  5
5
330
0
100
AcDbSymbolTable
 70
    4
  0
LTYPE
  5
14
330
5
100
AcDbSymbolTableRecord
100
AcDbLinetypeTableRecord
  2
ByBlock
 70
    0
  3

 72
   65
 73
    0
 40
0
  0
LTYPE
  5
15
330
5
100
AcDbSymbolTableRecord
100
AcDbLinetypeTableRecord
  2
ByLayer
 70
    0
  3

 72
   65
 73
    0
 40
0
  0
LTYPE
  5
16
330
5
100
AcDbSymbolTableRecord
100
AcDbLinetypeTableRecord
  2
Continuous
 70
    0
  3
Solid line
 72
   65
 73
    0
 40
0
  0
LTYPE
  5
32
330
5
100
AcDbSymbolTableRecord
100
AcDbLinetypeTableRecord
  2
DOT
 70
    0
  3
Dot . . . . . . . . . . . . . . . . . . . . . .
 72
   65
 73
    2
 40
6.35
 49
0
 74
    0
 49
-6.35
 74
    0
  0
LTYPE
  5
33
330
5
100
AcDbSymbolTableRecord
100
AcDbLinetypeTableRecord
  2
DOTTINY
 70
    0
  3
Dot (.15x) .....................................
 72
   65
 73
    2
 40
0.9525
 49
0
 74
    0
 49
-0.9525
 74
    0
  0
LTYPE
  5
34
330
5
100
AcDbSymbolTableRecord
100
AcDbLinetypeTableRecord
  2
DOT2
 70
    0
  3
Dot (.5x) .....................................
 72
   65
 73
    2
 40
3.175
 49
0
 74
    0
 49
-3.175
 74
    0
  0
LTYPE
  5
35
330
5
100
AcDbSymbolTableRecord
100
AcDbLinetypeTableRecord
  2
DOTX2
 70
    0
  3
Dot (2x) .  .  .  .  .  .  .  .  .  .  .  .  .
 72
   65
 73
    2
 40
12.7
 49
0
 74
    0
 49
-12.7
 74
    0
  0
LTYPE
  5
36
330
5
100
AcDbSymbolTableRecord
100
AcDbLinetypeTableRecord
  2
DASHED
 70
    0
  3
Dashed _ _ _ _ _ _ _ _ _ _ _ _ _ _ _ _ _
 72
   65
 73
    2
 40
19.05
 49
12.7
 74
    0
 49
-6.35
 74
    0
  0
LTYPE
  5
37
330
5
100
AcDbSymbolTableRecord
100
AcDbLinetypeTableRecord
  2
DASHEDTINY
 70
    0
  3
Dashed (.15x) _ _ _ _ _ _ _ _ _ _ _ _ _ _ _ _ _
 72
   65
 73
    2
 40
2.8575
 49
1.905
 74
    0
 49
-0.9525
 74
    0
  0
LTYPE
  5
38
330
5
100
AcDbSymbolTableRecord
100
AcDbLinetypeTableRecord
  2
DASHED2
 70
    0
  3
Dashed (.5x) _ _ _ _ _ _ _ _ _ _ _ _ _ _ _ _ _
 72
   65
 73
    2
 40
9.524999999999999
 49
6.35
 74
    0
 49
-3.175
 74
    0
  0
LTYPE
  5
39
330
5
100
AcDbSymbolTableRecord
100
AcDbLinetypeTableRecord
  2
DASHEDX2
 70
    0
  3
Dashed (2x) ____  ____  ____  ____  ____  ___
 72
   65
 73
    2
 40
38.09999999999999
 49
25.4
 74
    0
 49
-12.7
 74
    0
  0
LTYPE
  5
3A
330
5
100
AcDbSymbolTableRecord
100
AcDbLinetypeTableRecord
  2
DASHDOT
 70
    0
  3
Dash dot __ . __ . __ . __ . __ . __ . __ . __
 72
   65
 73
    4
 40
25.4
 49
12.7
 74
    0
 49
-6.35
 74
    0
 49
0
 74
    0
 49
-6.35
 74
    0
  0
LTYPE
  5
3B
330
5
100
AcDbSymbolTableRecord
100
AcDbLinetypeTableRecord
  2
DASHDOTTINY
 70
    0
  3
Dash dot (.15x) _._._._._._._._._._._._._._._.
 72
   65
 73
    4
 40
3.81
 49
1.905
 74
    0
 49
-0.9525
 74
    0
 49
0
 74
    0
 49
-0.9525
 74
    0
  0
LTYPE
  5
3C
330
5
100
AcDbSymbolTableRecord
100
AcDbLinetypeTableRecord
  2
DASHDOT2
 70
    0
  3
Dash dot (.5x) _._._._._._._._._._._._._._._.
 72
   65
 73
    4
 40
12.7
 49
6.35
 74
    0
 49
-3.175
 74
    0
 49
0
 74
    0
 49
-3.175
 74
    0
  0
LTYPE
  5
3D
330
5
100
AcDbSymbolTableRecord
100
AcDbLinetypeTableRecord
  2
DASHDOTX2
 70
    0
  3
Dash dot (2x) ____  .  ____  .  ____  .  ___
 72
   65
 73
    4
 40
50.8
 49
25.4
 74
    0
 49
-12.7
 74
    0
 49
0
 74
    0
 49
-12.7
 74
    0
  0
LTYPE
  5
3E
330
5
100
AcDbSymbolTableRecord
100
AcDbLinetypeTableRecord
  2
DIVIDE
 70
    0
  3
Divide ____ . . ____ . . ____ . . ____ . . ____
 72
   65
 73
    6
 40
31.75
 49
12.7
 74
    0
 49
-6.35
 74
    0
 49
0
 74
    0
 49
-6.35
 74
    0
 49
0
 74
    0
 49
-6.35
 74
    0
  0
LTYPE
  5
3F
330
5
100
AcDbSymbolTableRecord
100
AcDbLinetypeTableRecord
  2
DIVIDETINY
 70
    0
  3
Divide (.15x) __..__..__..__..__..__..__..__.._
 72
   65
 73
    6
 40
4.7625
 49
1.905
 74
    0
 49
-0.9525
 74
    0
 49
0
 74
    0
 49
-0.9525
 74
    0
 49
0
 74
    0
 49
-0.9525
 74
    0
  0
LTYPE
  5
40
330
5
100
AcDbSymbolTableRecord
100
AcDbLinetypeTableRecord
  2
DIVIDE2
 70
    0
  3
Divide (.5x) __..__..__..__..__..__..__..__.._
 72
   65
 73
    6
 40
15.875
 49
6.35
 74
    0
 49
-3.175
 74
    0
 49
0
 74
    0
 49
-3.175
 74
    0
 49
0
 74
    0
 49
-3.175
 74
    0
  0
LTYPE
  5
41
330
5
100
AcDbSymbolTableRecord
100
AcDbLinetypeTableRecord
  2
DIVIDEX2
 70
    0
  3
Divide (2x) ________  .  .  ________  .  .  _
 72
   65
 73
    6
 40
63.5
 49
25.4
 74
    0
 49
-12.7
 74
    0
 49
0
 74
    0
 49
-12.7
 74
    0
 49
0
 74
    0
 49
-12.7
 74
    0
  0
LTYPE
  5
42
330
5
100
AcDbSymbolTableRecord
100
AcDbLinetypeTableRecord
  2
BORDER
 70
    0
  3
Border __ __ . __ __ . __ __ . __ __ . __ __ .
 72
   65
 73
    6
 40
44.45
 49
12.7
 74
    0
 49
-6.35
 74
    0
 49
12.7
 74
    0
 49
-6.35
 74
    0
 49
0
 74
    0
 49
-6.35
 74
    0
  0
LTYPE
  5
43
330
5
100
AcDbSymbolTableRecord
100
AcDbLinetypeTableRecord
  2
BORDERTINY
 70
    0
  3
Border (.15x) __.__.__.__.__.__.__.__.__.__.__.
 72
   65
 73
    6
 40
6.6675
 49
1.905
 74
    0
 49
-0.9525
 74
    0
 49
1.905
 74
    0
 49
-0.9525
 74
    0
 49
0
 74
    0
 49
-0.9525
 74
    0
  0
LTYPE
  5
44
330
5
100
AcDbSymbolTableRecord
100
AcDbLinetypeTableRecord
  2
BORDER2
 70
    0
  3
Border (.5x) __.__.__.__.__.__.__.__.__.__.__.
 72
   65
 73
    6
 40
22.225
 49
6.35
 74
    0
 49
-3.175
 74
    0
 49
6.35
 74
    0
 49
-3.175
 74
    0
 49
0
 74
    0
 49
-3.175
 74
    0
  0
LTYPE
  5
45
330
5
100
AcDbSymbolTableRecord
100
AcDbLinetypeTableRecord
  2
BORDERX2
 70
    0
  3
Border (2x) ____  ____  .  ____  ____  .  ___
 72
   65
 73
    6
 40
88.89999999999999
 49
25.4
 74
    0
 49
-12.7
 74
    0
 49
25.4
 74
    0
 49
-12.7
 74
    0
 49
0
 74
    0
 49
-12.7
 74
    0
  0
LTYPE
  5
46
330
5
100
AcDbSymbolTableRecord
100
AcDbLinetypeTableRecord
  2
CENTER
 70
    0
  3
Center ____ _ ____ _ ____ _ ____ _ ____ _ ____
 72
   65
 73
    4
 40
50.8
 49
31.75
 74
    0
 49
-6.35
 74
    0
 49
6.35
 74
    0
 49
-6.35
 74
    0
  0
LTYPE
  5
47
330
5
100
AcDbSymbolTableRecord
100
AcDbLinetypeTableRecord
  2
CENTERTINY
 70
    0
  3
Center (.15x) ___ _ ___ _ ___ _ ___ _ ___ _ ___
 72
   65
 73
    4
 40
7.619999999999999
 49
4.7625
 74
    0
 49
-0.9525
 74
    0
 49
0.9525
 74
    0
 49
-0.9525
 74
    0
  0
LTYPE
  5
48
330
5
100
AcDbSymbolTableRecord
100
AcDbLinetypeTableRecord
  2
CENTER2
 70
    0
  3
Center (.5x) ___ _ ___ _ ___ _ ___ _ ___ _ ___
 72
   65
 73
    4
 40
28.575
 49
19.05
 74
    0
 49
-3.175
 74
    0
 49
3.175
 74
    0
 49
-3.175
 74
    0
  0
LTYPE
  5
49
330
5
100
AcDbSymbolTableRecord
100
AcDbLinetypeTableRecord
  2
CENTERX2
 70
    0
  3
Center (2x) ________  __  ________  __  _____
 72
   65
 73
    4
 40
101.6
 49
63.5
 74
    0
 49
-12.7
 74
    0
 49
12.7
 74
    0
 49
-12.7
 74
    0
  0
ENDTAB
  0
TABLE
  2
LAYER
  5
2
330
0
100
AcDbSymbolTable
 70
    1
  0
LAYER
  5
10
330
2
100
AcDbSymbolTableRecord
100
AcDbLayerTableRecord
  2
0
 70
    0
 62
    7
  6
CONTINUOUS
370
    0
390
F
  0
LAYER
  5
4A
330
2
100
AcDbSymbolTableRecord
100
AcDbLayerTableRecord
  2
02___PRT_ALL_AXES
 70
    0
 62
    7
  6
CONTINUOUS
370
   -3
390
F
  0
LAYER
  5
4B
330
2
100
AcDbSymbolTableRecord
100
AcDbLayerTableRecord
  2
DEFAULT_1
 70
    0
 62
    7
  6
CENTER
370
   -3
390
F
  0
LAYER
  5
4C
330
2
100
AcDbSymbolTableRecord
100
AcDbLayerTableRecord
  2
DRILLS
 70
    0
 62
    4
  6
CONTINUOUS
370
    0
390
F
  0
LAYER
  5
4D
330
2
100
AcDbSymbolTableRecord
100
AcDbLayerTableRecord
  2
ECAD_SMA_EL
 70
    0
 62
    7
  6
CONTINUOUS
370
   -3
390
F
  0
LAYER
  5
4E
330
2
100
AcDbSymbolTableRecord
100
AcDbLayerTableRecord
  2
LABELS
 70
    0
 62
    7
  6
CONTINUOUS
370
   -3
390
F
  0
LAYER
  5
4F
330
2
100
AcDbSymbolTableRecord
100
AcDbLayerTableRecord
  2
LAYER_FEATURE
 70
    0
 62
    7
  6
CONTINUOUS
370
   -3
390
F
  0
LAYER
  5
50
330
2
100
AcDbSymbolTableRecord
100
AcDbLayerTableRecord
  2
MOUNTING_CLEARANCE
 70
    0
 62
    7
  6
CONTINUOUS
370
   -3
390
F
  0
LAYER
  5
51
330
2
100
AcDbSymbolTableRecord
100
AcDbLayerTableRecord
  2
PCB_TOP
 70
    0
 62
    2
  6
CONTINUOUS
370
    0
390
F
  0
ENDTAB
  0
TABLE
  2
STYLE
  5
3
330
0
100
AcDbSymbolTable
 70
    3
  0
STYLE
  5
52
330
2
100
AcDbSymbolTableRecord
100
AcDbTextStyleTableRecord
  2
standard
 70
    0
 40
0
 41
1
 50
0
 71
    0
 42
1
  3
standard
  4

  0
ENDTAB
  0
TABLE
  2
VIEW
  5
6
330
0
100
AcDbSymbolTable
 70
    0
  0
ENDTAB
  0
TABLE
  2
UCS
  5
7
330
0
100
AcDbSymbolTable
 70
    0
  0
ENDTAB
  0
TABLE
  2
APPID
  5
9
330
0
100
AcDbSymbolTable
 70
    1
  0
APPID
  5
12
330
9
100
AcDbSymbolTableRecord
100
AcDbRegAppTableRecord
  2
ACAD
 70
    0
  0
APPID
  5
53
330
9
100
AcDbSymbolTableRecord
100
AcDbRegAppTableRecord
  2
LibreCad
 70
    0
  0
ENDTAB
  0
TABLE
  2
DIMSTYLE
  5
A
330
0
100
AcDbSymbolTable
 70
    1
100
AcDbDimStyleTable
 71
    1
  0
DIMSTYLE
105
54
330
A
100
AcDbSymbolTableRecord
100
AcDbDimStyleTableRecord
  2
Standard
 70
    0
 40
2.5
 41
2.5
 42
0.625
 43
0.38
 44
1.25
 45
0
 46
0
 47
0
 48
0
 49
1
140
2.5
141
0.09
142
0
143
25.4
144
1
145
0
146
1
147
0.625
148
0
 71
    0
 72
    0
 73
    0
 74
    1
 75
    0
 76
    0
 77
    0
 78
    8
 79
    0
170
    0
171
    2
172
    0
173
    0
174
    0
175
    0
176
    0
177
    0
178
    0
179
    0
271
    2
272
    4
273
    2
274
    2
275
    0
276
    0
277
    2
278
   44
279
    0
280
    0
281
    0
282
    0
283
    1
284
    0
285
    0
286
    0
288
    0
289
    3
340
STANDARD
341

371
   -2
372
   -2
  0
ENDTAB
  0
TABLE
  2
BLOCK_RECORD
  5
1
330
0
100
AcDbSymbolTable
 70
    2
  0
BLOCK_RECORD
  5
1F
330
1
100
AcDbSymbolTableRecord
100
AcDbBlockTableRecord
  2
*Model_Space
 70
    0
280
    1
281
    0
  0
BLOCK_RECORD
  5
1E
330
1
100
AcDbSymbolTableRecord
100
AcDbBlockTableRecord
  2
*Paper_Space
 70
    0
280
    1
281
    0
  0
BLOCK_RECORD
  5
55
330
1
100
AcDbSymbolTableRecord
100
AcDbBlockTableRecord
  2
fischer-bgt-tfp-kn1
 70
    0
280
    1
281
    0
  0
BLOCK_RECORD
  5
58
330
1
100
AcDbSymbolTableRecord
100
AcDbBlockTableRecord
  2
b210-usb-side
 70
    0
280
    1
281
    0
  0
BLOCK_RECORD
  5
5B
330
1
100
AcDbSymbolTableRecord
100
AcDbBlockTableRecord
  2
sma
 70
    0
280
    1
281
    0
  0
ENDTAB
  0
ENDSEC
  0
SECTION
  2
BLOCKS
  0
BLOCK
  5
20
330
1F
100
AcDbEntity
  8
0
100
AcDbBlockBegin
  2
*Model_Space
 70
    0
 10
0
 20
0
 30
0
  3
*Model_Space
  1

  0
ENDBLK
  5
21
330
1F
100
AcDbEntity
  8
0
100
AcDbBlockEnd
  0
BLOCK
  5
1C
330
1B
100
AcDbEntity
  8
0
100
AcDbBlockBegin
  2
*Paper_Space
 70
    0
 10
0
 20
0
 30
0
  3
*Paper_Space
  1

  0
ENDBLK
  5
1D
330
1F
100
AcDbEntity
  8
0
100
AcDbBlockEnd
  0
BLOCK
  5
56
330
55
100
AcDbEntity
  8
0
100
AcDbBlockBegin
  2
fischer-bgt-tfp-kn1
 70
    0
 10
0
 20
0
  3
fischer-bgt-tfp-kn1
  1

  0
LINE
  5
5E
100
AcDbEntity
  8
0
  6
ByLayer
 62
  256
370
   -1
100
AcDbLine
 10
1.3
 20
1.649999999999999
 11
-1.300000000000001
 21
1.649999999999999
  0
LINE
  5
5F
100
AcDbEntity
  8
0
  6
ByLayer
 62
  256
370
   -1
100
AcDbLine
 10
1.3
 20
-1.649999999999999
 11
-1.300000000000001
 21
-1.649999999999999
  0
ARC
  5
60
100
AcDbEntity
  8
0
  6
ByLayer
 62
  256
370
   -1
100
AcDbCircle
 10
-1.300000000000001
 20
0
 40
1.65
100
AcDbArc
 50
89.99999977330249
 51
270
  0
ARC
  5
61
100
AcDbEntity
  8
0
  6
ByLayer
 62
  256
370
   -1
100
AcDbCircle
 10
1.3
 20
0
 40
1.65
100
AcDbArc
 50
270
 51
90
  0
ENDBLK
  5
57
330
55
100
AcDbEntity
  8
0
100
AcDbBlockEnd
  0
BLOCK
  5
59
330
58
100
AcDbEntity
  8
0
100
AcDbBlockBegin
  2
b210-usb-side
 70
    0
 10
0
 20
0
  3
b210-usb-side
  1

  0
LINE
  5
62
100
AcDbEntity
  8
0
  6
CONTINUOUS
 62
    7
370
   -1
100
AcDbLine
 10
99.9489999999997
 20
-1.574799999999946
 11
99.9489999999997
 21
-6.217248937900877e-15
  0
LINE
  5
63
100
AcDbEntity
  8
0
  6
CONTINUOUS
 62
    7
370
   -1
100
AcDbLine
 10
95.73340000093995
 20
0.4000000001002433
 11
95.73340000093995
 21
-5.773159728050814e-15
  0
LINE
  5
64
100
AcDbEntity
  8
0
  6
CONTINUOUS
 62
    7
370
   -1
100
AcDbLine
 10
94.43339999997976
 20
4.399999998560227
 11
94.43339999997976
 21
0.4000000001002433
  0
LINE
  5
65
100
AcDbEntity
  8
0
  6
CONTINUOUS
 62
    7
370
   -1
100
AcDbLine
 10
93.93339999922006
 20
-5.773159728050814e-15
 11
93.93339999922006
 21
10.99999999894025
  0
LINE
  5
66
100
AcDbEntity
  8
0
  6
CONTINUOUS
 62
    6
370
   -1
100
AcDbLine
 10
93.48469999999988
 20
-5.773159728050814e-15
 11
93.48469999999988
 21
0.1999999987802794
  0
LINE
  5
67
100
AcDbEntity
  8
0
  6
CONTINUOUS
 62
    9
370
   -1
100
AcDbLine
 10
92.93340000023998
 20
1.200000000300031
 11
92.93340000023998
 21
10.19999999874011
  0
LINE
  5
68
100
AcDbEntity
  8
0
  6
CONTINUOUS
 62
    6
370
   -1
100
AcDbLine
 10
92.27819999999988
 20
-5.773159728050814e-15
 11
92.27819999999988
 21
0.1999999987802794
  0
LINE
  5
69
100
AcDbEntity
  8
0
  6
CONTINUOUS
 62
    6
370
   -1
100
AcDbLine
 10
90.93199999999996
 20
0.1999999987802794
 11
90.93199999999996
 21
-5.773159728050814e-15
  0
LINE
  5
6A
100
AcDbEntity
  8
0
  6
CONTINUOUS
 62
    6
370
   -1
100
AcDbLine
 10
90.51289999999976
 20
-2.717799999999988
 11
90.51289999999976
 21
-1.574799999999945
  0
LINE
  5
6B
100
AcDbEntity
  8
0
  6
CONTINUOUS
 62
    6
370
   -1
100
AcDbLine
 10
90.51289999999976
 20
-5.329070518200751e-15
 11
90.51289999999976
 21
0.1999999987802794
  0
LINE
  5
6C
100
AcDbEntity
  8
0
  6
CONTINUOUS
 62
    6
370
   -1
100
AcDbLine
 10
90.3351
 20
0.1999999987802799
 11
90.3351
 21
-5.329070518200751e-15
  0
LINE
  5
6D
100
AcDbEntity
  8
0
  6
CONTINUOUS
 62
    6
370
   -1
100
AcDbLine
 10
90.3351
 20
-1.574799999999945
 11
90.3351
 21
-2.717799999999988
  0
LINE
  5
6E
100
AcDbEntity
  8
0
  6
CONTINUOUS
 62
    7
370
   -1
100
AcDbLine
 10
90.28339999925987
 20
-5.329070518200751e-15
 11
90.28339999925987
 21
0.1999999987802799
  0
LINE
  5
6F
100
AcDbEntity
  8
0
  6
CONTINUOUS
 62
    7
370
   -1
100
AcDbLine
 10
90.18340000113974
 20
-5.329070518200751e-15
 11
90.18340000113974
 21
0.1999999987802799
  0
LINE
  5
70
100
AcDbEntity
  8
0
  6
CENTER
 62
    7
370
   -1
100
AcDbLine
 10
89.43340000000002
 20
6.699999998500141
 11
89.43340000000002
 21
3.524899998700073
  0
LINE
  5
71
100
AcDbEntity
  8
0
  6
CENTER
 62
    7
370
   -1
100
AcDbLine
 10
89.43340000000002
 20
6.699999998500141
 11
89.43340000000002
 21
9.875100000840243
  0
LINE
  5
72
100
AcDbEntity
  8
0
  6
CONTINUOUS
 62
    7
370
   -1
100
AcDbLine
 10
88.68340000139997
 20
0.1999999987802799
 11
88.68340000139997
 21
-5.329070518200751e-15
  0
LINE
  5
73
100
AcDbEntity
  8
0
  6
CONTINUOUS
 62
    7
370
   -1
100
AcDbLine
 10
88.58340000073981
 20
-5.329070518200751e-15
 11
88.58340000073981
 21
0.1999999987802799
  0
LINE
  5
74
100
AcDbEntity
  8
0
  6
CONTINUOUS
 62
    6
370
   -1
100
AcDbLine
 10
88.56979999999986
 20
0.1999999987802799
 11
88.56979999999986
 21
-5.329070518200751e-15
  0
LINE
  5
75
100
AcDbEntity
  8
0
  6
CONTINUOUS
 62
    7
370
   -1
100
AcDbLine
 10
88.07450000000003
 20
-3.58139999999978
 11
88.07450000000003
 21
-1.574799999999945
  0
LINE
  5
76
100
AcDbEntity
  8
0
  6
CONTINUOUS
 62
    6
370
   -1
100
AcDbLine
 10
87.36329999999988
 20
0.1999999987802799
 11
87.36329999999988
 21
-5.329070518200751e-15
  0
LINE
  5
77
100
AcDbEntity
  8
0
  6
CONTINUOUS
 62
    7
370
   -1
100
AcDbLine
 10
87.05849999999987
 20
0.1999999987802799
 11
87.05849999999987
 21
0.08129295908006817
  0
LINE
  5
78
100
AcDbEntity
  8
0
  6
CONTINUOUS
 62
    7
370
   -1
100
AcDbLine
 10
87.05849999999987
 20
-3.58139999999978
 11
87.05849999999987
 21
-1.727199999999959
  0
LINE
  5
79
100
AcDbEntity
  8
0
  6
CONTINUOUS
 62
    9
370
   -1
100
AcDbLine
 10
85.9333999997597
 20
10.19999999874011
 11
85.9333999997597
 21
1.200000000300031
  0
LINE
  5
7A
100
AcDbEntity
  8
0
  6
CONTINUOUS
 62
    7
370
   -1
100
AcDbLine
 10
84.93340000077998
 20
-5.329070518200751e-15
 11
84.93340000077998
 21
10.99999999894025
  0
LINE
  5
7B
100
AcDbEntity
  8
0
  6
CONTINUOUS
 62
    7
370
   -1
100
AcDbLine
 10
84.73339999946002
 20
0.4000000001002437
 11
84.73339999946002
 21
1.600000000399925
  0
LINE
  5
7C
100
AcDbEntity
  8
0
  6
CONTINUOUS
 62
    7
370
   -1
100
AcDbLine
 10
84.73339999946002
 20
2.299999999940278
 11
84.73339999946002
 21
3.200000000800225
  0
LINE
  5
7D
100
AcDbEntity
  8
0
  6
CONTINUOUS
 62
    6
370
   -1
100
AcDbLine
 10
86.08956836915972
 20
0.2002628024200934
 11
86.06789999999982
 21
0.02378809821997585
  0
LINE
  5
7E
100
AcDbEntity
  8
0
  6
CONTINUOUS
 62
    7
370
   -1
100
AcDbLine
 10
7.901340001199898
 20
-4.440892098500626e-16
 11
7.658099999999749
 21
0.2432399986600866
  0
LINE
  5
7F
100
AcDbEntity
  8
0
  6
CONTINUOUS
 62
    7
370
   -1
100
AcDbLine
 10
84.43340000001993
 20
1.600000000399925
 11
84.43340000001993
 21
2.299999999940278
  0
LINE
  5
80
100
AcDbEntity
  8
0
  6
CONTINUOUS
 62
    7
370
   -1
100
AcDbLine
 10
84.43340000001993
 20
3.299999998919981
 11
84.43340000001993
 21
3.999999998459964
  0
LINE
  5
81
100
AcDbEntity
  8
0
  6
CONTINUOUS
 62
    7
370
   -1
100
AcDbLine
 10
83.13340000159977
 20
0.4000000001002437
 11
83.13340000159977
 21
-4.884981308350689e-15
  0
LINE
  5
82
100
AcDbEntity
  8
0
  6
CONTINUOUS
 62
    7
370
   -1
100
AcDbLine
 10
77.61749999455986
 20
6.099999999619963
 11
77.68749999425974
 21
5.820000000820055
  0
LINE
  5
83
100
AcDbEntity
  8
0
  6
CONTINUOUS
 62
    7
370
   -1
100
AcDbLine
 10
79.66749999411975
 20
6.399999999060053
 11
79.66749999411975
 21
1.699999998520051
  0
LINE
  5
84
100
AcDbEntity
  8
0
  6
CONTINUOUS
 62
    7
370
   -1
100
AcDbLine
 10
79.56549999999983
 20
-3.58139999999978
 11
79.56549999999983
 21
-1.727199999999959
  0
LINE
  5
85
100
AcDbEntity
  8
0
  6
CONTINUOUS
 62
    7
370
   -1
100
AcDbLine
 10
79.56549999999983
 20
-4.884981308350689e-15
 11
79.56549999999983
 21
1.016000000000157
  0
LINE
  5
86
100
AcDbEntity
  8
0
  6
CONTINUOUS
 62
    7
370
   -1
100
AcDbLine
 10
78.54950000000002
 20
-3.58139999999978
 11
78.54950000000002
 21
-1.574799999999944
  0
LINE
  5
87
100
AcDbEntity
  8
0
  6
CONTINUOUS
 62
    7
370
   -1
100
AcDbLine
 10
78.54950000000002
 20
-4.884981308350689e-15
 11
78.54950000000002
 21
1.699999998520051
  0
LINE
  5
88
100
AcDbEntity
  8
0
  6
CONTINUOUS
 62
    7
370
   -1
100
AcDbLine
 10
78.51749999287976
 20
-4.884981308350689e-15
 11
78.51749999287976
 21
1.699999998520051
  0
LINE
  5
89
100
AcDbEntity
  8
0
  6
CONTINUOUS
 62
    7
370
   -1
100
AcDbLine
 10
77.76749999427972
 20
-1.574799999999944
 11
77.76749999427972
 21
-1.899999999840039
  0
LINE
  5
8A
100
AcDbEntity
  8
0
  6
CONTINUOUS
 62
    7
370
   -1
100
AcDbLine
 10
77.66749999361991
 20
5.800000000180229
 11
77.66749999361991
 21
2.499999998720194
  0
LINE
  5
8B
100
AcDbEntity
  8
0
  6
CONTINUOUS
 62
    7
370
   -1
100
AcDbLine
 10
77.61749999455986
 20
-2.500000001259897
 11
77.76749999427972
 21
-1.899999999840039
  0
LINE
  5
8C
100
AcDbEntity
  8
0
  6
CONTINUOUS
 62
    7
370
   -1
100
AcDbLine
 10
77.41749999323989
 20
-2.500000001259897
 11
77.26749999352002
 21
-1.899999999840039
  0
LINE
  5
8D
100
AcDbEntity
  8
0
  6
CONTINUOUS
 62
    7
370
   -1
100
AcDbLine
 10
77.53349999999986
 20
8.381999999999943
 11
77.53349999999986
 21
6.399999999060053
  0
LINE
  5
8E
100
AcDbEntity
  8
0
  6
CONTINUOUS
 62
    7
370
   -1
100
AcDbLine
 10
77.53349999999986
 20
-2.500000001259897
 11
77.53349999999986
 21
-2.717799999999988
  0
LINE
  5
8F
100
AcDbEntity
  8
0
  6
CONTINUOUS
 62
    7
370
   -1
100
AcDbLine
 10
77.26749999352002
 20
-1.899999999840039
 11
77.26749999352002
 21
-1.574799999999944
  0
LINE
  5
90
100
AcDbEntity
  8
0
  6
CONTINUOUS
 62
    7
370
   -1
100
AcDbLine
 10
77.26749999352002
 20
2.499999998720194
 11
77.26749999352002
 21
5.50000000074014
  0
LINE
  5
91
100
AcDbEntity
  8
0
  6
CONTINUOUS
 62
    7
370
   -1
100
AcDbLine
 10
77.02549999999997
 20
-2.717799999999988
 11
77.02549999999997
 21
-1.574799999999944
  0
LINE
  5
92
100
AcDbEntity
  8
0
  6
CONTINUOUS
 62
    7
370
   -1
100
AcDbLine
 10
77.02549999999997
 20
6.158000005539999
 11
77.02549999999997
 21
8.381999999999943
  0
LINE
  5
93
100
AcDbEntity
  8
0
  6
CONTINUOUS
 62
    7
370
   -1
100
AcDbLine
 10
76.66749999463984
 20
2.499999998720194
 11
76.66749999463984
 21
5.800000000180229
  0
LINE
  5
94
100
AcDbEntity
  8
0
  6
CONTINUOUS
 62
    7
370
   -1
100
AcDbLine
 10
76.58100000000002
 20
-1.574799999999944
 11
76.58100000000002
 21
-4.884981308350689e-15
  0
LINE
  5
95
100
AcDbEntity
  8
0
  6
CONTINUOUS
 62
    7
370
   -1
100
AcDbLine
 10
76.3674999926597
 20
5.800000000180229
 11
76.3674999926597
 21
2.499999998720194
  0
LINE
  5
96
100
AcDbEntity
  8
0
  6
CONTINUOUS
 62
    7
370
   -1
100
AcDbLine
 10
75.76749999377989
 20
-1.574799999999944
 11
75.76749999377989
 21
-1.899999999840039
  0
LINE
  5
97
100
AcDbEntity
  8
0
  6
CONTINUOUS
 62
    7
370
   -1
100
AcDbLine
 10
75.65389999999992
 20
4.343400000000154
 11
75.65389999999992
 21
-3.581399999999779
  0
LINE
  5
98
100
AcDbEntity
  8
0
  6
CONTINUOUS
 62
    7
370
   -1
100
AcDbLine
 10
74.99350000000001
 20
8.381999999999943
 11
74.99350000000001
 21
6.399999999060053
  0
LINE
  5
99
100
AcDbEntity
  8
0
  6
CONTINUOUS
 62
    7
370
   -1
100
AcDbLine
 10
74.48549999999975
 20
6.399999999060053
 11
74.48549999999975
 21
8.381999999999943
  0
LINE
  5
9A
100
AcDbEntity
  8
0
  6
CONTINUOUS
 62
    7
370
   -1
100
AcDbLine
 10
75.65389999999992
 20
-2.354399974959922
 11
75.76749999377989
 21
-1.899999999840039
  0
LINE
  5
9B
100
AcDbEntity
  8
0
  6
CONTINUOUS
 62
    7
370
   -1
100
AcDbLine
 10
77.41749999323989
 20
6.099999999619963
 11
77.26749999352002
 21
5.50000000074014
  0
LINE
  5
9C
100
AcDbEntity
  8
0
  6
CONTINUOUS
 62
    6
370
   -1
100
AcDbLine
 10
87.34930743971998
 20
-5.329070518200751e-15
 11
87.36329999999988
 21
0.01234027757993239
  0
LINE
  5
9D
100
AcDbEntity
  8
0
  6
CONTINUOUS
 62
    6
370
   -1
100
AcDbLine
 10
87.30727779047979
 20
0.1999999987802799
 11
87.2101031257999
 21
0.1143000000001795
  0
LINE
  5
9E
100
AcDbEntity
  8
0
  6
CONTINUOUS
 62
    7
370
   -1
100
AcDbLine
 10
20.60134000119989
 20
-1.332267629550188e-15
 11
20.40133999987992
 21
0.1999999987802838
  0
LINE
  5
9F
100
AcDbEntity
  8
0
  6
CONTINUOUS
 62
    7
370
   -1
100
AcDbLine
 10
23.14134000119975
 20
-1.332267629550188e-15
 11
22.94133999987977
 21
0.1999999987802838
  0
LINE
  5
A0
100
AcDbEntity
  8
0
  6
CONTINUOUS
 62
    7
370
   -1
100
AcDbLine
 10
73.36749999317981
 20
6.399999999060053
 11
73.36749999317981
 21
4.343400000000154
  0
LINE
  5
A1
100
AcDbEntity
  8
0
  6
CENTER
 62
    7
370
   -1
100
AcDbLine
 10
70.89139999999992
 20
0.38100000000001
 11
70.89139999999992
 21
-5.969
  0
LINE
  5
A2
100
AcDbEntity
  8
0
  6
CENTER
 62
    7
370
   -1
100
AcDbLine
 10
70.89139999999992
 20
0.38100000000001
 11
70.89139999999992
 21
6.731000000000004
  0
LINE
  5
A3
100
AcDbEntity
  8
0
  6
CONTINUOUS
 62
    7
370
   -1
100
AcDbLine
 10
25.68134000119996
 20
-1.77635683940025e-15
 11
25.43809999999982
 21
0.2432399986600853
  0
LINE
  5
A4
100
AcDbEntity
  8
0
  6
CONTINUOUS
 62
    7
370
   -1
100
AcDbLine
 10
66.12889999999992
 20
-3.581399999999779
 11
66.12889999999992
 21
4.343400000000154
  0
LINE
  5
A5
100
AcDbEntity
  8
0
  6
CONTINUOUS
 62
    7
370
   -1
100
AcDbLine
 10
65.21449999999989
 20
-1.574799999999943
 11
65.21449999999989
 21
-3.996802888650564e-15
  0
LINE
  5
A6
100
AcDbEntity
  8
0
  6
CONTINUOUS
 62
    7
370
   -1
100
AcDbLine
 10
64.52755599924004
 20
2.540000000000215
 11
64.52755599924004
 21
4.189999999460209
  0
LINE
  5
A7
100
AcDbEntity
  8
0
  6
CONTINUOUS
 62
    7
370
   -1
100
AcDbLine
 10
64.45255599937975
 20
0.1999999987802812
 11
64.45255599937975
 21
-3.996802888650564e-15
  0
LINE
  5
A8
100
AcDbEntity
  8
0
  6
CONTINUOUS
 62
    7
370
   -1
100
AcDbLine
 10
78.26749999503978
 20
6.399999999060053
 11
77.66749999361991
 21
5.800000000180229
  0
LINE
  5
A9
100
AcDbEntity
  8
0
  6
CONTINUOUS
 62
    7
370
   -1
100
AcDbLine
 10
76.66749999463984
 20
5.800000000180229
 11
77.26749999352002
 21
6.399999999060053
  0
LINE
  5
AA
100
AcDbEntity
  8
0
  6
CONTINUOUS
 62
    7
370
   -1
100
AcDbLine
 10
63.22255600065985
 20
-3.996802888650564e-15
 11
63.22255600065985
 21
2.540000000000215
  0
LINE
  5
AB
100
AcDbEntity
  8
0
  6
CONTINUOUS
 62
    6
370
   -1
100
AcDbLine
 10
46.03112765815992
 20
-4.101496706819776
 11
45.78538204601979
 21
-3.929423776899927
  0
LINE
  5
AC
100
AcDbEntity
  8
0
  6
CONTINUOUS
 62
    9
370
   -1
100
AcDbLine
 10
46.54734645045987
 20
-3.364259867860045
 11
46.30160083831973
 21
-3.192186937939854
  0
LINE
  5
AD
100
AcDbEntity
  8
0
  6
CONTINUOUS
 62
    7
370
   -1
100
AcDbLine
 10
59.24549999999989
 20
-3.581399999999777
 11
59.24549999999989
 21
-1.727199999999957
  0
LINE
  5
AE
100
AcDbEntity
  8
0
  6
CONTINUOUS
 62
    7
370
   -1
100
AcDbLine
 10
59.24549999999989
 20
-3.552713678800501e-15
 11
59.24549999999989
 21
1.016000000000158
  0
LINE
  5
AF
100
AcDbEntity
  8
0
  6
CONTINUOUS
 62
    7
370
   -1
100
AcDbLine
 10
58.22949999999975
 20
-3.581399999999777
 11
58.22949999999975
 21
-1.574799999999943
  0
LINE
  5
B0
100
AcDbEntity
  8
0
  6
CONTINUOUS
 62
    7
370
   -1
100
AcDbLine
 10
58.22949999999975
 20
-3.552713678800501e-15
 11
58.22949999999975
 21
4.343400000000155
  0
LINE
  5
B1
100
AcDbEntity
  8
0
  6
CONTINUOUS
 62
    6
370
   -1
100
AcDbLine
 10
57.98538204525974
 20
0.5499999998201126
 11
57.98538204525974
 21
12.07000000016026
  0
LINE
  5
B2
100
AcDbEntity
  8
0
  6
CONTINUOUS
 62
    6
370
   -1
100
AcDbLine
 10
57.68538204582002
 20
-3.552713678800501e-15
 11
57.68538204582002
 21
12.21999999988013
  0
LINE
  5
B3
100
AcDbEntity
  8
0
  6
CONTINUOUS
 62
    6
370
   -1
100
AcDbLine
 10
57.38538204637992
 20
-3.552713678800501e-15
 11
57.38538204637992
 21
0.3004385863202792
  0
LINE
  5
B4
100
AcDbEntity
  8
0
  6
CONTINUOUS
 62
    6
370
   -1
100
AcDbLine
 10
57.38538204637992
 20
0.8200000008399648
 11
57.38538204637992
 21
1.719999999160233
  0
LINE
  5
B5
100
AcDbEntity
  8
0
  6
CONTINUOUS
 62
    7
370
   -1
100
AcDbLine
 10
57.33538204731985
 20
12.25000000084004
 11
57.33538204731985
 21
12.21999999988013
  0
LINE
  5
B6
100
AcDbEntity
  8
0
  6
CONTINUOUS
 62
    7
370
   -1
100
AcDbLine
 10
57.33538204731985
 20
-3.552713678800501e-15
 11
57.33538204731985
 21
0.2796881960202278
  0
LINE
  5
B7
100
AcDbEntity
  8
0
  6
CONTINUOUS
 62
    7
370
   -1
100
AcDbLine
 10
57.33538204731985
 20
0.6580092224601195
 11
57.33538204731985
 21
1.719999999160233
  0
LINE
  5
B8
100
AcDbEntity
  8
0
  6
CONTINUOUS
 62
    6
370
   -1
100
AcDbLine
 10
57.08538204693983
 20
0.2199999994201072
 11
57.08538204693983
 21
1.619999998500074
  0
LINE
  5
B9
100
AcDbEntity
  8
0
  6
CONTINUOUS
 62
    9
370
   -1
100
AcDbLine
 10
57.08538204693983
 20
1.719999999160233
 11
57.08538204693983
 21
12.21999999988013
  0
LINE
  5
BA
100
AcDbEntity
  8
0
  6
CONTINUOUS
 62
    9
370
   -1
100
AcDbLine
 10
57.08538204693983
 20
12.49999999868002
 11
57.08538204693983
 21
12.51999999932022
  0
LINE
  5
BB
100
AcDbEntity
  8
0
  6
CONTINUOUS
 62
    7
370
   -1
100
AcDbLine
 10
57.03538204533973
 20
12.25000000084004
 11
57.03538204533973
 21
12.21999999988013
  0
LINE
  5
BC
100
AcDbEntity
  8
0
  6
CONTINUOUS
 62
    7
370
   -1
100
AcDbLine
 10
57.03538204533973
 20
1.619999998500074
 11
57.03538204533973
 21
1.719999999160233
  0
LINE
  5
BD
100
AcDbEntity
  8
0
  6
CONTINUOUS
 62
    9
370
   -1
100
AcDbLine
 10
57.02255023965976
 20
6.644999999280042
 11
57.02255023965976
 21
2.97499999868003
  0
LINE
  5
BE
100
AcDbEntity
  8
0
  6
CONTINUOUS
 62
    7
370
   -1
100
AcDbLine
 10
56.0953820457398
 20
-2.800000000699985
 11
56.18538204607988
 21
-2.400000000599737
  0
LINE
  5
BF
100
AcDbEntity
  8
0
  6
CONTINUOUS
 62
    6
370
   -1
100
AcDbLine
 10
56.93782891811988
 20
-1.574799999999943
 11
56.64464961115996
 21
-2.082601453280025
  0
LINE
  5
C0
100
AcDbEntity
  8
0
  6
CONTINUOUS
 62
    6
370
   -1
100
AcDbLine
 10
56.38484199006005
 20
-1.932601453559801
 11
56.59141875495973
 21
-1.574799999999943
  0
LINE
  5
C1
100
AcDbEntity
  8
0
  6
CONTINUOUS
 62
    6
370
   -1
100
AcDbLine
 10
57.58538204515985
 20
-3.929423776899927
 11
57.33963643301972
 21
-4.101496706819776
  0
LINE
  5
C2
100
AcDbEntity
  8
0
  6
CONTINUOUS
 62
    9
370
   -1
100
AcDbLine
 10
57.06916325285991
 20
-3.192186937939855
 11
56.82341764071978
 21
-3.364259867860047
  0
LINE
  5
C3
100
AcDbEntity
  8
0
  6
CONTINUOUS
 62
    6
370
   -1
100
AcDbLine
 10
93.93339999922006
 20
0.09896165627991982
 11
93.75727288893982
 21
0.07733596674008814
  0
LINE
  5
C4
100
AcDbEntity
  8
0
  6
CONTINUOUS
 62
    7
370
   -1
100
AcDbLine
 10
88.07450000000003
 20
-3.58139999999978
 11
78.54950000000002
 21
-3.58139999999978
  0
LINE
  5
C5
100
AcDbEntity
  8
0
  6
CONTINUOUS
 62
    7
370
   -1
100
AcDbLine
 10
75.65389999999992
 20
-3.581399999999779
 11
58.22949999999975
 21
-3.581399999999777
  0
LINE
  5
C6
100
AcDbEntity
  8
0
  6
CONTINUOUS
 62
    7
370
   -1
100
AcDbLine
 10
42.27829999999974
 20
-3.581399999999777
 11
29.40049999999997
 21
-3.581399999999777
  0
LINE
  5
C7
100
AcDbEntity
  8
0
  6
CONTINUOUS
 62
    7
370
   -1
100
AcDbLine
 10
22.03449999999981
 20
-3.581399999999776
 11
9.461499999999702
 21
-3.581399999999776
  0
LINE
  5
C8
100
AcDbEntity
  8
0
  6
CONTINUOUS
 62
    7
370
   -1
100
AcDbLine
 10
47.27538204543983
 20
-2.800000000699984
 11
47.59538204551976
 21
-2.800000000699984
  0
LINE
  5
C9
100
AcDbEntity
  8
0
  6
CONTINUOUS
 62
    7
370
   -1
100
AcDbLine
 10
49.02538204555999
 20
-2.800000000699984
 11
49.34538204563991
 21
-2.800000000699984
  0
LINE
  5
CA
100
AcDbEntity
  8
0
  6
CONTINUOUS
 62
    7
370
   -1
100
AcDbLine
 10
51.52538204681989
 20
-2.800000000699984
 11
51.8453820468998
 21
-2.800000000699984
  0
LINE
  5
CB
100
AcDbEntity
  8
0
  6
CONTINUOUS
 62
    7
370
   -1
100
AcDbLine
 10
54.02538204553973
 20
-2.800000000699984
 11
54.34538204562
 21
-2.800000000699984
  0
LINE
  5
CC
100
AcDbEntity
  8
0
  6
CONTINUOUS
 62
    7
370
   -1
100
AcDbLine
 10
55.7753820456599
 20
-2.800000000699985
 11
56.0953820457398
 21
-2.800000000699985
  0
LINE
  5
CD
100
AcDbEntity
  8
0
  6
CONTINUOUS
 62
    7
370
   -1
100
AcDbLine
 10
50.27538204745979
 20
-2.790000000379893
 11
50.59538204500001
 21
-2.790000000379893
  0
LINE
  5
CE
100
AcDbEntity
  8
0
  6
CONTINUOUS
 62
    7
370
   -1
100
AcDbLine
 10
52.77538204617998
 20
-2.790000000379893
 11
53.0953820462599
 21
-2.790000000379893
  0
LINE
  5
CF
100
AcDbEntity
  8
0
  6
CONTINUOUS
 62
    6
370
   -1
100
AcDbLine
 10
90.3351
 20
-2.717799999999988
 11
90.51289999999976
 21
-2.717799999999988
  0
LINE
  5
D0
100
AcDbEntity
  8
0
  6
CONTINUOUS
 62
    7
370
   -1
100
AcDbLine
 10
77.53349999999986
 20
-2.717799999999988
 11
77.02549999999997
 21
-2.717799999999988
  0
LINE
  5
D1
100
AcDbEntity
  8
0
  6
CONTINUOUS
 62
    7
370
   -1
100
AcDbLine
 10
26.4159999999998
 20
-2.566000001340044
 11
25.78100000000001
 21
-2.566000001340044
  0
LINE
  5
D2
100
AcDbEntity
  8
0
  6
CONTINUOUS
 62
    7
370
   -1
100
AcDbLine
 10
23.87599999999995
 20
-2.566000001340044
 11
23.2409999999998
 21
-2.566000001340044
  0
LINE
  5
D3
100
AcDbEntity
  8
0
  6
CONTINUOUS
 62
    7
370
   -1
100
AcDbLine
 10
21.33599999999973
 20
-2.566000001340044
 11
20.70099999999994
 21
-2.566000001340044
  0
LINE
  5
D4
100
AcDbEntity
  8
0
  6
CONTINUOUS
 62
    7
370
   -1
100
AcDbLine
 10
8.635999999999726
 20
-2.566000001340044
 11
8.000999999999948
 21
-2.566000001340044
  0
LINE
  5
D5
100
AcDbEntity
  8
0
  6
CONTINUOUS
 62
    7
370
   -1
100
AcDbLine
 10
77.41749999323989
 20
-2.500000001259897
 11
77.61749999455986
 21
-2.500000001259897
  0
LINE
  5
D6
100
AcDbEntity
  8
0
  6
CONTINUOUS
 62
    7
370
   -1
100
AcDbLine
 10
58.22949999999975
 20
-2.235199999999852
 11
59.24549999999989
 21
-2.235199999999852
  0
LINE
  5
D7
100
AcDbEntity
  8
0
  6
CONTINUOUS
 62
    7
370
   -1
100
AcDbLine
 10
78.54950000000002
 20
-2.235199999999855
 11
79.56549999999983
 21
-2.235199999999855
  0
LINE
  5
D8
100
AcDbEntity
  8
0
  6
CONTINUOUS
 62
    7
370
   -1
100
AcDbLine
 10
88.07450000000003
 20
-2.235199999999855
 11
87.05849999999987
 21
-2.235199999999855
  0
LINE
  5
D9
100
AcDbEntity
  8
0
  6
CONTINUOUS
 62
    7
370
   -1
100
AcDbLine
 10
42.27829999999974
 20
-2.235199999999852
 11
41.26229999999994
 21
-2.235199999999852
  0
LINE
  5
DA
100
AcDbEntity
  8
0
  6
CONTINUOUS
 62
    7
370
   -1
100
AcDbLine
 10
22.03449999999981
 20
-2.235199999999851
 11
21.33599999999973
 21
-2.235199999999851
  0
LINE
  5
DB
100
AcDbEntity
  8
0
  6
CONTINUOUS
 62
    7
370
   -1
100
AcDbLine
 10
75.65389999999992
 20
-1.899999999840039
 11
75.76749999377989
 21
-1.899999999840039
  0
LINE
  5
DC
100
AcDbEntity
  8
0
  6
CONTINUOUS
 62
    7
370
   -1
100
AcDbLine
 10
77.26749999352002
 20
-1.899999999840039
 11
77.76749999427972
 21
-1.899999999840039
  0
LINE
  5
DD
100
AcDbEntity
  8
0
  6
CONTINUOUS
 62
    7
370
   -1
100
AcDbLine
 10
58.22949999999975
 20
-1.727199999999957
 11
59.24549999999989
 21
-1.727199999999957
  0
LINE
  5
DE
100
AcDbEntity
  8
0
  6
CONTINUOUS
 62
    7
370
   -1
100
AcDbLine
 10
78.54950000000002
 20
-1.727199999999959
 11
79.56549999999983
 21
-1.727199999999959
  0
LINE
  5
DF
100
AcDbEntity
  8
0
  6
CONTINUOUS
 62
    7
370
   -1
100
AcDbLine
 10
88.07450000000003
 20
-1.727199999999959
 11
87.05849999999987
 21
-1.727199999999959
  0
LINE
  5
E0
100
AcDbEntity
  8
0
  6
CONTINUOUS
 62
    7
370
   -1
100
AcDbLine
 10
42.27829999999974
 20
-1.727199999999956
 11
41.26229999999994
 21
-1.727199999999956
  0
LINE
  5
E1
100
AcDbEntity
  8
0
  6
CONTINUOUS
 62
    7
370
   -1
100
AcDbLine
 10
22.03449999999981
 20
-1.727199999999955
 11
21.33599999999973
 21
-1.727199999999955
  0
LINE
  5
E2
100
AcDbEntity
  8
0
  6
CONTINUOUS
 62
    7
370
   -1
100
AcDbLine
 10
0
 20
-1.574799999999938
 11
9.461499999999702
 21
-1.57479999999994
  0
LINE
  5
E3
100
AcDbEntity
  8
0
  6
CONTINUOUS
 62
    7
370
   -1
100
AcDbLine
 10
18.98649999999969
 20
-1.57479999999994
 11
29.40049999999997
 21
-1.574799999999941
  0
LINE
  5
E4
100
AcDbEntity
  8
0
  6
CONTINUOUS
 62
    7
370
   -1
100
AcDbLine
 10
38.92549999999997
 20
-1.574799999999942
 11
66.12889999999992
 21
-1.574799999999943
  0
LINE
  5
E5
100
AcDbEntity
  8
0
  6
CONTINUOUS
 62
    7
370
   -1
100
AcDbLine
 10
75.65389999999992
 20
-1.574799999999944
 11
99.9489999999997
 21
-1.574799999999946
  0
LINE
  5
E6
100
AcDbEntity
  8
0
  6
CONTINUOUS
 62
    7
370
   -1
100
AcDbLine
 10
46.03538204639982
 20
0.9000000008599445
 11
46.28538204677986
 21
0.6500000004802731
  0
LINE
  5
E7
100
AcDbEntity
  8
0
  6
CONTINUOUS
 62
    6
370
   -1
100
AcDbLine
 10
46.72611448002004
 20
-2.082601453280023
 11
46.43293517559981
 21
-1.574799999999942
  0
LINE
  5
E8
100
AcDbEntity
  8
0
  6
CONTINUOUS
 62
    6
370
   -1
100
AcDbLine
 10
46.7793453362199
 20
-1.574799999999942
 11
46.98592210111994
 21
-1.932601453559801
  0
LINE
  5
E9
100
AcDbEntity
  8
0
  6
CONTINUOUS
 62
    7
370
   -1
100
AcDbLine
 10
55.68538204531981
 20
-2.400000000599737
 11
55.7753820456599
 21
-2.800000000699985
  0
LINE
  5
EA
100
AcDbEntity
  8
0
  6
CONTINUOUS
 62
    7
370
   -1
100
AcDbLine
 10
53.60556255243988
 20
3.947460695359976
 11
53.60546360927989
 21
4.09999999912014
  0
LINE
  5
EB
100
AcDbEntity
  8
0
  6
CONTINUOUS
 62
    7
370
   -1
100
AcDbLine
 10
56.7353820459
 20
2.669999999080243
 11
56.7353820459
 21
2.97499999868003
  0
LINE
  5
EC
100
AcDbEntity
  8
0
  6
CONTINUOUS
 62
    7
370
   -1
100
AcDbLine
 10
56.7353820459
 20
6.644999999280042
 11
56.7353820459
 21
6.94999999888017
  0
LINE
  5
ED
100
AcDbEntity
  8
0
  6
CONTINUOUS
 62
    7
370
   -1
100
AcDbLine
 10
56.68538204683993
 20
-3.552713678800501e-15
 11
56.68538204683993
 21
0.2199999994201072
  0
LINE
  5
EE
100
AcDbEntity
  8
0
  6
CONTINUOUS
 62
    9
370
   -1
100
AcDbLine
 10
56.53173664673999
 20
2.97499999868003
 11
56.53173664673999
 21
6.644999999280042
  0
LINE
  5
EF
100
AcDbEntity
  8
0
  6
CONTINUOUS
 62
    6
370
   -1
100
AcDbLine
 10
56.26038204593981
 20
8.169999999820046
 11
56.26038204593981
 21
6.94999999888017
  0
LINE
  5
F0
100
AcDbEntity
  8
0
  6
CONTINUOUS
 62
    7
370
   -1
100
AcDbLine
 10
56.21038204687974
 20
7.274999999120137
 11
56.21038204687974
 21
7.952598999520017
  0
LINE
  5
F1
100
AcDbEntity
  8
0
  6
CONTINUOUS
 62
    7
370
   -1
100
AcDbLine
 10
56.18538204607988
 20
-2.400000000599737
 11
56.18538204607988
 21
-1.574799999999943
  0
LINE
  5
F2
100
AcDbEntity
  8
0
  6
CONTINUOUS
 62
    7
370
   -1
100
AcDbLine
 10
56.18538204607988
 20
-3.552713678800501e-15
 11
56.18538204607988
 21
0.2199999994201072
  0
LINE
  5
F3
100
AcDbEntity
  8
0
  6
CONTINUOUS
 62
    6
370
   -1
100
AcDbLine
 10
55.96038204649972
 20
2.669999999080243
 11
55.96038204649972
 21
1.719999999160233
  0
LINE
  5
F4
100
AcDbEntity
  8
0
  6
CONTINUOUS
 62
    7
370
   -1
100
AcDbLine
 10
55.91038204744002
 20
2.179999998639925
 11
55.91038204744002
 21
2.805000000860016
  0
LINE
  5
F5
100
AcDbEntity
  8
0
  6
CONTINUOUS
 62
    7
370
   -1
100
AcDbLine
 10
55.91038204744002
 20
6.974999999680048
 11
55.91038204744002
 21
7.952598999520017
  0
LINE
  5
F6
100
AcDbEntity
  8
0
  6
CONTINUOUS
 62
    9
370
   -1
100
AcDbLine
 10
55.77807760287999
 20
6.644999999280042
 11
55.77807760287999
 21
2.97499999868003
  0
LINE
  5
F7
100
AcDbEntity
  8
0
  6
CONTINUOUS
 62
    6
370
   -1
100
AcDbLine
 10
55.75878614540004
 20
2.97499999868003
 11
55.75878614540004
 21
6.644999999280042
  0
LINE
  5
F8
100
AcDbEntity
  8
0
  6
CONTINUOUS
 62
    7
370
   -1
100
AcDbLine
 10
55.68538204531981
 20
0.2199999994201072
 11
55.68538204531981
 21
-3.552713678800501e-15
  0
LINE
  5
F9
100
AcDbEntity
  8
0
  6
CONTINUOUS
 62
    7
370
   -1
100
AcDbLine
 10
55.68538204531981
 20
-1.574799999999943
 11
55.68538204531981
 21
-2.400000000599737
  0
LINE
  5
FA
100
AcDbEntity
  8
0
  6
CONTINUOUS
 62
    9
370
   -1
100
AcDbLine
 10
55.53038204543991
 20
1.799999999180212
 11
55.53038204543991
 21
1.619999998500074
  0
LINE
  5
FB
100
AcDbEntity
  8
0
  6
CONTINUOUS
 62
    7
370
   -1
100
AcDbLine
 10
55.38538204587972
 20
-3.552713678800501e-15
 11
55.38538204587972
 21
0.2199999994201072
  0
LINE
  5
FC
100
AcDbEntity
  8
0
  6
CONTINUOUS
 62
    6
370
   -1
100
AcDbLine
 10
55.33038204665998
 20
12.21999999988013
 11
55.33038204665998
 21
9.070000000679993
  0
LINE
  5
FD
100
AcDbEntity
  8
0
  6
CONTINUOUS
 62
    7
370
   -1
100
AcDbLine
 10
55.28538204521992
 20
5.934999999419954
 11
55.28538204521992
 21
6.290000000620207
  0
LINE
  5
FE
100
AcDbEntity
  8
0
  6
CONTINUOUS
 62
    7
370
   -1
100
AcDbLine
 10
55.28038204505988
 20
9.164264069200183
 11
55.28038204505988
 21
12.25000000084004
  0
LINE
  5
FF
100
AcDbEntity
  8
0
  6
CONTINUOUS
 62
    9
370
   -1
100
AcDbLine
 10
55.18538204709981
 20
0.2199999994201072
 11
55.18538204709981
 21
-3.552713678800501e-15
  0
LINE
  5
100
100
AcDbEntity
  8
0
  6
CONTINUOUS
 62
    7
370
   -1
100
AcDbLine
 10
54.98038204561978
 20
9.039999999720077
 11
54.98038204561978
 21
12.55000000028013
  0
LINE
  5
101
100
AcDbEntity
  8
0
  6
CONTINUOUS
 62
    7
370
   -1
100
AcDbLine
 10
54.83538204605998
 20
5.934999999419954
 11
54.83538204605998
 21
6.290000000620207
  0
LINE
  5
102
100
AcDbEntity
  8
0
  6
CONTINUOUS
 62
    9
370
   -1
100
AcDbLine
 10
54.58538204567995
 20
-3.552713678800501e-15
 11
54.58538204567995
 21
0.2199999994201072
  0
LINE
  5
103
100
AcDbEntity
  8
0
  6
CONTINUOUS
 62
    7
370
   -1
100
AcDbLine
 10
54.48538204501978
 20
4.09999999912014
 11
54.48538204501978
 21
7.279999999280175
  0
LINE
  5
104
100
AcDbEntity
  8
0
  6
CONTINUOUS
 62
    6
370
   -1
100
AcDbLine
 10
54.48538204501978
 20
12.51999999932022
 11
54.48538204501978
 21
13.11450417226015
  0
LINE
  5
105
100
AcDbEntity
  8
0
  6
CONTINUOUS
 62
    7
370
   -1
100
AcDbLine
 10
54.48038204739977
 20
11.60000000036012
 11
54.48038204739977
 21
10.49000000040014
  0
LINE
  5
106
100
AcDbEntity
  8
0
  6
CONTINUOUS
 62
    7
370
   -1
100
AcDbLine
 10
54.43538204595971
 20
-2.400000000599737
 11
54.43538204595971
 21
-1.574799999999943
  0
LINE
  5
107
100
AcDbEntity
  8
0
  6
CONTINUOUS
 62
    7
370
   -1
100
AcDbLine
 10
54.38538204690002
 20
0.2199999994201072
 11
54.38538204690002
 21
-3.108624468950438e-15
  0
LINE
  5
108
100
AcDbEntity
  8
0
  6
CONTINUOUS
 62
    7
370
   -1
100
AcDbLine
 10
54.13038204635993
 20
10.83999999890029
 11
54.13038204635993
 21
11.75000000007998
  0
LINE
  5
109
100
AcDbEntity
  8
0
  6
CONTINUOUS
 62
    7
370
   -1
100
AcDbLine
 10
54.10538204555971
 20
4.479999998580208
 11
54.10538204555971
 21
6.899999999820107
  0
LINE
  5
10A
100
AcDbEntity
  8
0
  6
CONTINUOUS
 62
    7
370
   -1
100
AcDbLine
 10
53.95996304505982
 20
10.49000000040014
 11
53.95996304505982
 21
10.43999999880004
  0
LINE
  5
10B
100
AcDbEntity
  8
0
  6
CONTINUOUS
 62
    7
370
   -1
100
AcDbLine
 10
53.93538204520001
 20
0.2199999994201072
 11
53.93538204520001
 21
-3.108624468950438e-15
  0
LINE
  5
10C
100
AcDbEntity
  8
0
  6
CONTINUOUS
 62
    7
370
   -1
100
AcDbLine
 10
53.93538204520001
 20
-1.574799999999943
 11
53.93538204520001
 21
-2.400000000599735
  0
LINE
  5
10D
100
AcDbEntity
  8
0
  6
CONTINUOUS
 62
    7
370
   -1
100
AcDbLine
 10
53.68538204736004
 20
3.905000000500263
 11
53.68538204736004
 21
4.09999999912014
  0
LINE
  5
10E
100
AcDbEntity
  8
0
  6
CONTINUOUS
 62
    7
370
   -1
100
AcDbLine
 10
53.68538204736004
 20
7.279999999280175
 11
53.68538204736004
 21
7.475000000440101
  0
LINE
  5
10F
100
AcDbEntity
  8
0
  6
CONTINUOUS
 62
    9
370
   -1
100
AcDbLine
 10
53.6578050031999
 20
3.932466183819966
 11
53.6578050031999
 21
4.09999999912014
  0
LINE
  5
110
100
AcDbEntity
  8
0
  6
CONTINUOUS
 62
    9
370
   -1
100
AcDbLine
 10
53.65780507178005
 20
7.279999999280175
 11
53.65780507178005
 21
7.467533914280136
  0
LINE
  5
111
100
AcDbEntity
  8
0
  6
CONTINUOUS
 62
    7
370
   -1
100
AcDbLine
 10
53.53538204509977
 20
3.030000000440179
 11
53.53538204509977
 21
3.905000000500263
  0
LINE
  5
112
100
AcDbEntity
  8
0
  6
CONTINUOUS
 62
    7
370
   -1
100
AcDbLine
 10
53.53538204509977
 20
7.475000000440101
 11
53.53538204509977
 21
8.350000000500184
  0
LINE
  5
113
100
AcDbEntity
  8
0
  6
CONTINUOUS
 62
    9
370
   -1
100
AcDbLine
 10
53.48845314987969
 20
3.970741636860052
 11
53.48845314987969
 21
4.09999999912014
  0
LINE
  5
114
100
AcDbEntity
  8
0
  6
CONTINUOUS
 62
    9
370
   -1
100
AcDbLine
 10
53.48845304065992
 20
7.279999999280175
 11
53.48845304065992
 21
7.429258336779991
  0
LINE
  5
115
100
AcDbEntity
  8
0
  6
CONTINUOUS
 62
    7
370
   -1
100
AcDbLine
 10
53.43538204698001
 20
3.510023333000259
 11
53.43538204698001
 21
4.09999999912014
  0
LINE
  5
116
100
AcDbEntity
  8
0
  6
CONTINUOUS
 62
    7
370
   -1
100
AcDbLine
 10
53.43538204698001
 20
7.279999999280175
 11
53.43538204698001
 21
7.889976666040237
  0
LINE
  5
117
100
AcDbEntity
  8
0
  6
CONTINUOUS
 62
    7
370
   -1
100
AcDbLine
 10
53.40996304523971
 20
10.43999999880004
 11
53.40996304523971
 21
10.49000000040014
  0
LINE
  5
118
100
AcDbEntity
  8
0
  6
CONTINUOUS
 62
    7
370
   -1
100
AcDbLine
 10
53.39266886341974
 20
7.496607335940137
 11
53.39266886341974
 21
7.279999999280175
  0
LINE
  5
119
100
AcDbEntity
  8
0
  6
CONTINUOUS
 62
    9
370
   -1
100
AcDbLine
 10
53.39254710090006
 20
4.09999999912014
 11
53.39254710090006
 21
3.903450968800268
  0
LINE
  5
11A
100
AcDbEntity
  8
0
  6
CONTINUOUS
 62
    9
370
   -1
100
AcDbLine
 10
53.60545128265974
 20
7.279999999280175
 11
53.60555338811984
 21
7.452537863500094
  0
LINE
  5
11B
100
AcDbEntity
  8
0
  6
CONTINUOUS
 62
    7
370
   -1
100
AcDbLine
 10
54.34538204562
 20
-2.800000000699984
 11
54.43538204595971
 21
-2.400000000599737
  0
LINE
  5
11C
100
AcDbEntity
  8
0
  6
CONTINUOUS
 62
    7
370
   -1
100
AcDbLine
 10
53.0953820462599
 20
-2.790000000379893
 11
53.23538204566003
 21
-2.39000000028
  0
LINE
  5
11D
100
AcDbEntity
  8
0
  6
CONTINUOUS
 62
    7
370
   -1
100
AcDbLine
 10
57.33538204731985
 20
0.9000000008599436
 11
57.08538204693983
 21
0.6500000004802722
  0
LINE
  5
11E
100
AcDbEntity
  8
0
  6
CONTINUOUS
 62
    7
370
   -1
100
AcDbLine
 10
0
 20
0
 11
9.461499999999702
 21
-4.440892098500626e-16
  0
LINE
  5
11F
100
AcDbEntity
  8
0
  6
CONTINUOUS
 62
    7
370
   -1
100
AcDbLine
 10
18.98649999999969
 20
-1.332267629550188e-15
 11
29.40049999999997
 21
-1.77635683940025e-15
  0
LINE
  5
120
100
AcDbEntity
  8
0
  6
CONTINUOUS
 62
    7
370
   -1
100
AcDbLine
 10
38.92549999999997
 20
-2.220446049250313e-15
 11
66.12889999999992
 21
-3.996802888650564e-15
  0
LINE
  5
121
100
AcDbEntity
  8
0
  6
CONTINUOUS
 62
    7
370
   -1
100
AcDbLine
 10
75.65389999999992
 20
-4.440892098500626e-15
 11
99.9489999999997
 21
-6.217248937900877e-15
  0
LINE
  5
122
100
AcDbEntity
  8
0
  6
CONTINUOUS
 62
    6
370
   -1
100
AcDbLine
 10
90.93199999999996
 20
0.07619999999999427
 11
90.51289999999976
 21
0.07619999999999472
  0
LINE
  5
123
100
AcDbEntity
  8
0
  6
CONTINUOUS
 62
    6
370
   -1
100
AcDbLine
 10
90.3351
 20
0.07619999999999472
 11
90.28339999925987
 21
0.07619999999999472
  0
LINE
  5
124
100
AcDbEntity
  8
0
  6
CONTINUOUS
 62
    6
370
   -1
100
AcDbLine
 10
92.27819999999988
 20
0.1270000000002312
 11
91.74479999999987
 21
0.1270000000002312
  0
LINE
  5
125
100
AcDbEntity
  8
0
  6
CONTINUOUS
 62
    6
370
   -1
100
AcDbLine
 10
88.58340000073981
 20
0.1270000000002316
 11
88.56979999999986
 21
0.1270000000002316
  0
LINE
  5
126
100
AcDbEntity
  8
0
  6
CONTINUOUS
 62
    7
370
   -1
100
AcDbLine
 10
19.78855600065999
 20
0.1999999987802838
 11
20.63855599991984
 21
0.1999999987802838
  0
LINE
  5
127
100
AcDbEntity
  8
0
  6
CONTINUOUS
 62
    7
370
   -1
100
AcDbLine
 10
21.39855600138003
 20
0.1999999987802838
 11
23.17855599991969
 21
0.1999999987802838
  0
LINE
  5
128
100
AcDbEntity
  8
0
  6
CONTINUOUS
 62
    7
370
   -1
100
AcDbLine
 10
23.93855600137988
 20
0.1999999987802838
 11
24.78855600063973
 21
0.1999999987802838
  0
LINE
  5
129
100
AcDbEntity
  8
0
  6
CONTINUOUS
 62
    7
370
   -1
100
AcDbLine
 10
63.22255600065985
 20
0.1999999987802812
 11
66.12889999999992
 21
0.1999999987802812
  0
LINE
  5
12A
100
AcDbEntity
  8
0
  6
CONTINUOUS
 62
    7
370
   -1
100
AcDbLine
 10
93.73340000043977
 20
0.1999999987802794
 11
85.13339999955991
 21
0.1999999987802799
  0
LINE
  5
12B
100
AcDbEntity
  8
0
  6
CONTINUOUS
 62
    6
370
   -1
100
AcDbLine
 10
57.08538204693983
 20
0.2199999994201072
 11
46.28538204677986
 21
0.2199999994201081
  0
LINE
  5
12C
100
AcDbEntity
  8
0
  6
CONTINUOUS
 62
    7
370
   -1
100
AcDbLine
 10
26.75889999999999
 20
0.2432399986600853
 11
25.43809999999982
 21
0.2432399986600853
  0
LINE
  5
12D
100
AcDbEntity
  8
0
  6
CONTINUOUS
 62
    7
370
   -1
100
AcDbLine
 10
19.13889999999971
 20
0.2432399986600857
 11
18.98649999999969
 21
0.2432399986600857
  0
LINE
  5
12E
100
AcDbEntity
  8
0
  6
CONTINUOUS
 62
    7
370
   -1
100
AcDbLine
 10
8.978899999999925
 20
0.2432399986600866
 11
7.658099999999749
 21
0.2432399986600866
  0
LINE
  5
12F
100
AcDbEntity
  8
0
  6
CENTER
 62
    7
370
   -1
100
AcDbLine
 10
14.22399999999969
 20
0.3810000000000136
 11
20.5739999999997
 21
0.3810000000000131
  0
LINE
  5
130
100
AcDbEntity
  8
0
  6
CENTER
 62
    7
370
   -1
100
AcDbLine
 10
34.16299999999997
 20
0.3810000000000122
 11
40.51299999999997
 21
0.3810000000000118
  0
LINE
  5
131
100
AcDbEntity
  8
0
  6
CENTER
 62
    7
370
   -1
100
AcDbLine
 10
70.89139999999992
 20
0.38100000000001
 11
77.24139999999991
 21
0.3810000000000096
  0
LINE
  5
132
100
AcDbEntity
  8
0
  6
CENTER
 62
    7
370
   -1
100
AcDbLine
 10
70.89139999999992
 20
0.38100000000001
 11
64.54139999999992
 21
0.3810000000000104
  0
LINE
  5
133
100
AcDbEntity
  8
0
  6
CENTER
 62
    7
370
   -1
100
AcDbLine
 10
34.16299999999997
 20
0.3810000000000122
 11
27.81299999999997
 21
0.3810000000000127
  0
LINE
  5
134
100
AcDbEntity
  8
0
  6
CENTER
 62
    7
370
   -1
100
AcDbLine
 10
14.22399999999969
 20
0.3810000000000136
 11
7.873999999999697
 21
0.381000000000014
  0
LINE
  5
135
100
AcDbEntity
  8
0
  6
CONTINUOUS
 62
    7
370
   -1
100
AcDbLine
 10
83.13340000159977
 20
0.4000000001002437
 11
84.93340000077998
 21
0.4000000001002437
  0
LINE
  5
136
100
AcDbEntity
  8
0
  6
CONTINUOUS
 62
    7
370
   -1
100
AcDbLine
 10
94.43339999997976
 20
0.4000000001002433
 11
95.73340000093995
 21
0.4000000001002433
  0
LINE
  5
137
100
AcDbEntity
  8
0
  6
CONTINUOUS
 62
    7
370
   -1
100
AcDbLine
 10
58.22949999999975
 20
0.5080000000002478
 11
59.24549999999989
 21
0.5080000000002478
  0
LINE
  5
138
100
AcDbEntity
  8
0
  6
CONTINUOUS
 62
    7
370
   -1
100
AcDbLine
 10
78.54950000000002
 20
0.5080000000002465
 11
79.56549999999983
 21
0.5080000000002465
  0
LINE
  5
139
100
AcDbEntity
  8
0
  6
CONTINUOUS
 62
    7
370
   -1
100
AcDbLine
 10
42.27829999999974
 20
0.5080000000002487
 11
41.26229999999994
 21
0.5080000000002487
  0
LINE
  5
13A
100
AcDbEntity
  8
0
  6
CONTINUOUS
 62
    6
370
   -1
100
AcDbLine
 10
57.98538204525974
 20
0.5499999998201126
 11
57.68538204582002
 21
0.5499999998201126
  0
LINE
  5
13B
100
AcDbEntity
  8
0
  6
CONTINUOUS
 62
    6
370
   -1
100
AcDbLine
 10
45.68538204535999
 20
0.5499999998201135
 11
45.3853820459199
 21
0.5499999998201135
  0
LINE
  5
13C
100
AcDbEntity
  8
0
  6
CONTINUOUS
 62
    7
370
   -1
100
AcDbLine
 10
57.31945059073976
 20
0.6350000000001437
 11
57.08538204693983
 21
0.6350000000001437
  0
LINE
  5
13D
100
AcDbEntity
  8
0
  6
CONTINUOUS
 62
    7
370
   -1
100
AcDbLine
 10
46.28538204677986
 20
0.6350000000001446
 11
46.05131064293978
 21
0.6350000000001446
  0
LINE
  5
13E
100
AcDbEntity
  8
0
  6
CONTINUOUS
 62
    9
370
   -1
100
AcDbLine
 10
46.28538204677986
 20
0.8200000008399657
 11
57.08538204693983
 21
0.8200000008399648
  0
LINE
  5
13F
100
AcDbEntity
  8
0
  6
CONTINUOUS
 62
    7
370
   -1
100
AcDbLine
 10
23.17855599991969
 20
0.9499999999200086
 11
21.39855600138003
 21
0.9499999999200086
  0
LINE
  5
140
100
AcDbEntity
  8
0
  6
CONTINUOUS
 62
    7
370
   -1
100
AcDbLine
 10
58.22949999999975
 20
1.016000000000158
 11
59.24549999999989
 21
1.016000000000158
  0
LINE
  5
141
100
AcDbEntity
  8
0
  6
CONTINUOUS
 62
    7
370
   -1
100
AcDbLine
 10
78.54950000000002
 20
1.016000000000157
 11
79.56549999999983
 21
1.016000000000157
  0
LINE
  5
142
100
AcDbEntity
  8
0
  6
CONTINUOUS
 62
    7
370
   -1
100
AcDbLine
 10
42.27829999999974
 20
1.016000000000159
 11
41.26229999999994
 21
1.016000000000159
  0
LINE
  5
143
100
AcDbEntity
  8
0
  6
CONTINUOUS
 62
    7
370
   -1
100
AcDbLine
 10
84.73339999946002
 20
1.200000000300032
 11
84.93340000077998
 21
1.200000000300032
  0
LINE
  5
144
100
AcDbEntity
  8
0
  6
CONTINUOUS
 62
    9
370
   -1
100
AcDbLine
 10
85.9333999997597
 20
1.200000000300031
 11
92.93340000023998
 21
1.200000000300031
  0
LINE
  5
145
100
AcDbEntity
  8
0
  6
CONTINUOUS
 62
    7
370
   -1
100
AcDbLine
 10
45.98538204733976
 20
1.219999998400181
 11
46.03538204639982
 21
1.219999998400181
  0
LINE
  5
146
100
AcDbEntity
  8
0
  6
CONTINUOUS
 62
    7
370
   -1
100
AcDbLine
 10
57.33538204731985
 20
1.21999999840018
 11
57.38538204637992
 21
1.21999999840018
  0
LINE
  5
147
100
AcDbEntity
  8
0
  6
CONTINUOUS
 62
    7
370
   -1
100
AcDbLine
 10
94.43339999997976
 20
1.399999999079961
 11
93.93339999922006
 21
1.399999999079961
  0
LINE
  5
148
100
AcDbEntity
  8
0
  6
CONTINUOUS
 62
    9
370
   -1
100
AcDbLine
 10
45.3853820459199
 20
1.549999998800186
 11
45.68538204535999
 21
1.549999998800186
  0
LINE
  5
149
100
AcDbEntity
  8
0
  6
CONTINUOUS
 62
    9
370
   -1
100
AcDbLine
 10
57.68538204582002
 20
1.549999998800185
 11
57.98538204525974
 21
1.549999998800185
  0
LINE
  5
14A
100
AcDbEntity
  8
0
  6
CONTINUOUS
 62
    7
370
   -1
100
AcDbLine
 10
84.93340000077998
 20
1.600000000399925
 11
84.43340000001993
 21
1.600000000399925
  0
LINE
  5
14B
100
AcDbEntity
  8
0
  6
CONTINUOUS
 62
    6
370
   -1
100
AcDbLine
 10
46.28538204677986
 20
1.619999998500074
 11
57.08538204693983
 21
1.619999998500074
  0
LINE
  5
14C
100
AcDbEntity
  8
0
  6
CONTINUOUS
 62
    7
370
   -1
100
AcDbLine
 10
75.65389999999992
 20
1.699999998520051
 11
79.66749999411975
 21
1.699999998520051
  0
LINE
  5
14D
100
AcDbEntity
  8
0
  6
CONTINUOUS
 62
    6
370
   -1
100
AcDbLine
 10
45.68538204535999
 20
1.719999999160234
 11
47.41038204721997
 21
1.719999999160234
  0
LINE
  5
14E
100
AcDbEntity
  8
0
  6
CONTINUOUS
 62
    6
370
   -1
100
AcDbLine
 10
55.96038204649972
 20
1.719999999160233
 11
57.68538204582002
 21
1.719999999160233
  0
LINE
  5
14F
100
AcDbEntity
  8
0
  6
CONTINUOUS
 62
    7
370
   -1
100
AcDbLine
 10
47.84038204573973
 20
1.799999999180213
 11
55.53038204543991
 21
1.799999999180212
  0
LINE
  5
150
100
AcDbEntity
  8
0
  6
CONTINUOUS
 62
    9
370
   -1
100
AcDbLine
 10
55.96038204649972
 20
2.179999998639925
 11
55.91038204744002
 21
2.179999998639925
  0
LINE
  5
151
100
AcDbEntity
  8
0
  6
CONTINUOUS
 62
    9
370
   -1
100
AcDbLine
 10
47.46038204628002
 20
2.179999998639925
 11
47.41038204721997
 21
2.179999998639925
  0
LINE
  5
152
100
AcDbEntity
  8
0
  6
CONTINUOUS
 62
    7
370
   -1
100
AcDbLine
 10
27.36850000000001
 20
2.259999998660261
 11
24.78855600063973
 21
2.259999998660261
  0
LINE
  5
153
100
AcDbEntity
  8
0
  6
CONTINUOUS
 62
    7
370
   -1
100
AcDbLine
 10
19.78855600065999
 20
2.259999998660261
 11
18.98649999999969
 21
2.259999998660261
  0
LINE
  5
154
100
AcDbEntity
  8
0
  6
CONTINUOUS
 62
    7
370
   -1
100
AcDbLine
 10
9.461499999999702
 20
2.259999998660262
 11
7.048499999999734
 21
2.259999998660262
  0
LINE
  5
155
100
AcDbEntity
  8
0
  6
CONTINUOUS
 62
    7
370
   -1
100
AcDbLine
 10
84.43340000001993
 20
2.299999999940278
 11
84.93340000077998
 21
2.299999999940278
  0
LINE
  5
156
100
AcDbEntity
  8
0
  6
CONTINUOUS
 62
    7
370
   -1
100
AcDbLine
 10
84.73339999946002
 20
2.400000000600082
 11
84.93340000077998
 21
2.400000000600082
  0
LINE
  5
157
100
AcDbEntity
  8
0
  6
CONTINUOUS
 62
    7
370
   -1
100
AcDbLine
 10
50.13538204551996
 20
-2.39000000028
 11
50.27538204745979
 21
-2.790000000379893
  0
LINE
  5
158
100
AcDbEntity
  8
0
  6
CONTINUOUS
 62
    7
370
   -1
100
AcDbLine
 10
53.93538204520001
 20
-2.400000000599735
 11
54.02538204553973
 21
-2.800000000699984
  0
LINE
  5
159
100
AcDbEntity
  8
0
  6
CONTINUOUS
 62
    7
370
   -1
100
AcDbLine
 10
51.43538204647982
 20
-2.400000000599735
 11
51.52538204681989
 21
-2.800000000699984
  0
LINE
  5
15A
100
AcDbEntity
  8
0
  6
CONTINUOUS
 62
    9
370
   -1
100
AcDbLine
 10
52.26520970355989
 20
7.452537863500094
 11
52.26531174551992
 21
7.279999999280175
  0
LINE
  5
15B
100
AcDbEntity
  8
0
  6
CONTINUOUS
 62
    7
370
   -1
100
AcDbLine
 10
51.10556255372003
 20
3.947460695359976
 11
51.10546360802002
 21
4.09999999912014
  0
LINE
  5
15C
100
AcDbEntity
  8
0
  6
CONTINUOUS
 62
    9
370
   -1
100
AcDbLine
 10
53.2482168942598
 20
3.972285304079958
 11
53.2482168942598
 21
4.09999999912014
  0
LINE
  5
15D
100
AcDbEntity
  8
0
  6
CONTINUOUS
 62
    7
370
   -1
100
AcDbLine
 10
53.2480844713597
 20
7.279999999280175
 11
53.2480844713597
 21
7.427651253379945
  0
LINE
  5
15E
100
AcDbEntity
  8
0
  6
CONTINUOUS
 62
    7
370
   -1
100
AcDbLine
 10
53.23538204566003
 20
-2.39000000028
 11
53.23538204566003
 21
-1.574799999999943
  0
LINE
  5
15F
100
AcDbEntity
  8
0
  6
CONTINUOUS
 62
    7
370
   -1
100
AcDbLine
 10
53.23538204566003
 20
-3.108624468950438e-15
 11
53.23538204566003
 21
0.2199999994201076
  0
LINE
  5
160
100
AcDbEntity
  8
0
  6
CONTINUOUS
 62
    7
370
   -1
100
AcDbLine
 10
53.20538204723979
 20
7.378818277640161
 11
53.20538204723979
 21
7.279999999280175
  0
LINE
  5
161
100
AcDbEntity
  8
0
  6
CONTINUOUS
 62
    7
370
   -1
100
AcDbLine
 10
53.20538204723979
 20
4.09999999912014
 11
53.20538204723979
 21
4.021236191700023
  0
LINE
  5
162
100
AcDbEntity
  8
0
  6
CONTINUOUS
 62
    7
370
   -1
100
AcDbLine
 10
52.95996304607975
 20
10.49000000040014
 11
52.95996304607975
 21
10.43999999880004
  0
LINE
  5
163
100
AcDbEntity
  8
0
  6
CONTINUOUS
 62
    7
370
   -1
100
AcDbLine
 10
52.66538204519973
 20
4.021236191700023
 11
52.66538204519973
 21
4.09999999912014
  0
LINE
  5
164
100
AcDbEntity
  8
0
  6
CONTINUOUS
 62
    7
370
   -1
100
AcDbLine
 10
52.66538204519973
 20
7.279999999280175
 11
52.66538204519973
 21
7.378690988080006
  0
LINE
  5
165
100
AcDbEntity
  8
0
  6
CONTINUOUS
 62
    7
370
   -1
100
AcDbLine
 10
52.63538204677985
 20
-2.39000000028
 11
52.63538204677985
 21
-1.574799999999943
  0
LINE
  5
166
100
AcDbEntity
  8
0
  6
CONTINUOUS
 62
    7
370
   -1
100
AcDbLine
 10
52.63538204677985
 20
-3.108624468950438e-15
 11
52.63538204677985
 21
0.2199999994201076
  0
LINE
  5
167
100
AcDbEntity
  8
0
  6
CONTINUOUS
 62
    7
370
   -1
100
AcDbLine
 10
52.62267862286005
 20
7.427651250840267
 11
52.62267862286005
 21
7.279999999280175
  0
LINE
  5
168
100
AcDbEntity
  8
0
  6
CONTINUOUS
 62
    9
370
   -1
100
AcDbLine
 10
52.62263564098001
 20
4.09999999912014
 11
52.62263564098001
 21
3.972327960839959
  0
LINE
  5
169
100
AcDbEntity
  8
0
  6
CONTINUOUS
 62
    9
370
   -1
100
AcDbLine
 10
52.47821587393976
 20
3.903450910379956
 11
52.47821587393976
 21
4.09999999912014
  0
LINE
  5
16A
100
AcDbEntity
  8
0
  6
CONTINUOUS
 62
    7
370
   -1
100
AcDbLine
 10
52.47809422825998
 20
7.279999999280175
 11
52.47809422825998
 21
7.496607335940137
  0
LINE
  5
16B
100
AcDbEntity
  8
0
  6
CONTINUOUS
 62
    7
370
   -1
100
AcDbLine
 10
52.43538204545989
 20
3.510023333000259
 11
52.43538204545989
 21
4.09999999912014
  0
LINE
  5
16C
100
AcDbEntity
  8
0
  6
CONTINUOUS
 62
    7
370
   -1
100
AcDbLine
 10
52.43538204545989
 20
7.279999999280175
 11
52.43538204545989
 21
7.889976666040237
  0
LINE
  5
16D
100
AcDbEntity
  8
0
  6
CONTINUOUS
 62
    7
370
   -1
100
AcDbLine
 10
52.40996304626
 20
10.43999999880004
 11
52.40996304626
 21
10.49000000040014
  0
LINE
  5
16E
100
AcDbEntity
  8
0
  6
CONTINUOUS
 62
    9
370
   -1
100
AcDbLine
 10
52.38230990877979
 20
4.09999999912014
 11
52.38230990877979
 21
3.970741743540156
  0
LINE
  5
16F
100
AcDbEntity
  8
0
  6
CONTINUOUS
 62
    7
370
   -1
100
AcDbLine
 10
52.33538204733976
 20
8.350000000500184
 11
52.33538204733976
 21
7.475000000440101
  0
LINE
  5
170
100
AcDbEntity
  8
0
  6
CONTINUOUS
 62
    7
370
   -1
100
AcDbLine
 10
52.33538204733976
 20
3.030000000440179
 11
52.33538204733976
 21
3.905000000500263
  0
LINE
  5
171
100
AcDbEntity
  8
0
  6
CONTINUOUS
 62
    9
370
   -1
100
AcDbLine
 10
52.21295943468003
 20
4.09999999912014
 11
52.21295943468003
 21
3.932466839140116
  0
LINE
  5
172
100
AcDbEntity
  8
0
  6
CONTINUOUS
 62
    7
370
   -1
100
AcDbLine
 10
52.18538204507986
 20
7.475000000440101
 11
52.18538204507986
 21
7.279999999280175
  0
LINE
  5
173
100
AcDbEntity
  8
0
  6
CONTINUOUS
 62
    7
370
   -1
100
AcDbLine
 10
52.18538204507986
 20
4.09999999912014
 11
52.18538204507986
 21
3.905000000500263
  0
LINE
  5
174
100
AcDbEntity
  8
0
  6
CONTINUOUS
 62
    7
370
   -1
100
AcDbLine
 10
51.95996304709968
 20
10.49000000040014
 11
51.95996304709968
 21
10.43999999880004
  0
LINE
  5
175
100
AcDbEntity
  8
0
  6
CONTINUOUS
 62
    7
370
   -1
100
AcDbLine
 10
51.93538204723987
 20
-2.400000000599735
 11
51.93538204723987
 21
-1.574799999999942
  0
LINE
  5
176
100
AcDbEntity
  8
0
  6
CONTINUOUS
 62
    7
370
   -1
100
AcDbLine
 10
51.93538204723987
 20
-3.108624468950438e-15
 11
51.93538204723987
 21
0.2199999994201076
  0
LINE
  5
177
100
AcDbEntity
  8
0
  6
CENTER
 62
    7
370
   -1
100
AcDbLine
 10
51.68538204685984
 20
6.814504171320205
 11
51.68538204685984
 21
-4.232000466639749
  0
LINE
  5
178
100
AcDbEntity
  8
0
  6
CENTER
 62
    7
370
   -1
100
AcDbLine
 10
51.68538204685984
 20
6.814504171320205
 11
51.68538204685984
 21
15.66298133336012
  0
LINE
  5
179
100
AcDbEntity
  8
0
  6
CONTINUOUS
 62
    7
370
   -1
100
AcDbLine
 10
51.43538204647982
 20
0.2199999994201076
 11
51.43538204647982
 21
-3.108624468950438e-15
  0
LINE
  5
17A
100
AcDbEntity
  8
0
  6
CONTINUOUS
 62
    7
370
   -1
100
AcDbLine
 10
51.43538204647982
 20
-1.574799999999942
 11
51.43538204647982
 21
-2.400000000599735
  0
LINE
  5
17B
100
AcDbEntity
  8
0
  6
CONTINUOUS
 62
    7
370
   -1
100
AcDbLine
 10
51.40996304727993
 20
10.43999999880004
 11
51.40996304727993
 21
10.49000000040014
  0
LINE
  5
17C
100
AcDbEntity
  8
0
  6
CONTINUOUS
 62
    7
370
   -1
100
AcDbLine
 10
51.18538204609979
 20
3.905000000500263
 11
51.18538204609979
 21
4.09999999912014
  0
LINE
  5
17D
100
AcDbEntity
  8
0
  6
CONTINUOUS
 62
    7
370
   -1
100
AcDbLine
 10
51.18538204609979
 20
7.279999999280175
 11
51.18538204609979
 21
7.475000000440101
  0
LINE
  5
17E
100
AcDbEntity
  8
0
  6
CONTINUOUS
 62
    9
370
   -1
100
AcDbLine
 10
51.15780507305983
 20
7.279999999280175
 11
51.15780507305983
 21
7.467533914280136
  0
LINE
  5
17F
100
AcDbEntity
  8
0
  6
CONTINUOUS
 62
    9
370
   -1
100
AcDbLine
 10
51.1578050044797
 20
3.932466183819966
 11
51.1578050044797
 21
4.09999999912014
  0
LINE
  5
180
100
AcDbEntity
  8
0
  6
CONTINUOUS
 62
    7
370
   -1
100
AcDbLine
 10
51.03538204637992
 20
3.030000000440179
 11
51.03538204637992
 21
3.905000000500263
  0
LINE
  5
181
100
AcDbEntity
  8
0
  6
CONTINUOUS
 62
    7
370
   -1
100
AcDbLine
 10
51.03538204637992
 20
7.475000000440101
 11
51.03538204637992
 21
8.350000000500184
  0
LINE
  5
182
100
AcDbEntity
  8
0
  6
CONTINUOUS
 62
    9
370
   -1
100
AcDbLine
 10
50.9884531486198
 20
3.970741636860052
 11
50.9884531486198
 21
4.09999999912014
  0
LINE
  5
183
100
AcDbEntity
  8
0
  6
CONTINUOUS
 62
    9
370
   -1
100
AcDbLine
 10
50.98845303940003
 20
7.279999999280175
 11
50.98845303940003
 21
7.429258336779991
  0
LINE
  5
184
100
AcDbEntity
  8
0
  6
CONTINUOUS
 62
    7
370
   -1
100
AcDbLine
 10
50.95996304557994
 20
10.49000000040014
 11
50.95996304557994
 21
10.43999999880004
  0
LINE
  5
185
100
AcDbEntity
  8
0
  6
CONTINUOUS
 62
    7
370
   -1
100
AcDbLine
 10
50.93538204571975
 20
3.510023333000259
 11
50.93538204571975
 21
4.09999999912014
  0
LINE
  5
186
100
AcDbEntity
  8
0
  6
CONTINUOUS
 62
    7
370
   -1
100
AcDbLine
 10
50.93538204571975
 20
7.279999999280175
 11
50.93538204571975
 21
7.889976666040237
  0
LINE
  5
187
100
AcDbEntity
  8
0
  6
CONTINUOUS
 62
    7
370
   -1
100
AcDbLine
 10
50.89266886215985
 20
7.496607335940137
 11
50.89266886215985
 21
7.279999999280175
  0
LINE
  5
188
100
AcDbEntity
  8
0
  6
CONTINUOUS
 62
    9
370
   -1
100
AcDbLine
 10
50.8925470996398
 20
4.09999999912014
 11
50.8925470996398
 21
3.903450968800268
  0
LINE
  5
189
100
AcDbEntity
  8
0
  6
CONTINUOUS
 62
    9
370
   -1
100
AcDbLine
 10
50.74821689299991
 20
3.972285304079958
 11
50.74821689299991
 21
4.099999999120141
  0
LINE
  5
18A
100
AcDbEntity
  8
0
  6
CONTINUOUS
 62
    7
370
   -1
100
AcDbLine
 10
50.74808447263986
 20
7.279999999280176
 11
50.74808447263986
 21
7.427651253379946
  0
LINE
  5
18B
100
AcDbEntity
  8
0
  6
CONTINUOUS
 62
    7
370
   -1
100
AcDbLine
 10
50.73538204693983
 20
-2.39000000028
 11
50.73538204693983
 21
-1.574799999999942
  0
LINE
  5
18C
100
AcDbEntity
  8
0
  6
CONTINUOUS
 62
    7
370
   -1
100
AcDbLine
 10
50.73538204693983
 20
-3.108624468950438e-15
 11
50.73538204693983
 21
0.2199999994201076
  0
LINE
  5
18D
100
AcDbEntity
  8
0
  6
CONTINUOUS
 62
    7
370
   -1
100
AcDbLine
 10
50.70538204597992
 20
7.378818277640161
 11
50.70538204597992
 21
7.279999999280176
  0
LINE
  5
18E
100
AcDbEntity
  8
0
  6
CONTINUOUS
 62
    7
370
   -1
100
AcDbLine
 10
50.70538204597992
 20
4.099999999120141
 11
50.70538204597992
 21
4.021236191700024
  0
LINE
  5
18F
100
AcDbEntity
  8
0
  6
CONTINUOUS
 62
    7
370
   -1
100
AcDbLine
 10
50.40996304575981
 20
10.43999999880004
 11
50.40996304575981
 21
10.49000000040014
  0
LINE
  5
190
100
AcDbEntity
  8
0
  6
CONTINUOUS
 62
    7
370
   -1
100
AcDbLine
 10
50.16538204647988
 20
4.021236191700024
 11
50.16538204647988
 21
4.099999999120141
  0
LINE
  5
191
100
AcDbEntity
  8
0
  6
CONTINUOUS
 62
    7
370
   -1
100
AcDbLine
 10
50.16538204647988
 20
7.279999999280176
 11
50.16538204647988
 21
7.378690988080007
  0
LINE
  5
192
100
AcDbEntity
  8
0
  6
CONTINUOUS
 62
    7
370
   -1
100
AcDbLine
 10
50.13538204551996
 20
-2.39000000028
 11
50.13538204551996
 21
-1.574799999999942
  0
LINE
  5
193
100
AcDbEntity
  8
0
  6
CONTINUOUS
 62
    7
370
   -1
100
AcDbLine
 10
50.13538204551996
 20
-3.108624468950438e-15
 11
50.13538204551996
 21
0.2199999994201076
  0
LINE
  5
194
100
AcDbEntity
  8
0
  6
CONTINUOUS
 62
    7
370
   -1
100
AcDbLine
 10
50.1226786215998
 20
7.427651250840268
 11
50.1226786215998
 21
7.279999999280176
  0
LINE
  5
195
100
AcDbEntity
  8
0
  6
CONTINUOUS
 62
    9
370
   -1
100
AcDbLine
 10
50.12263563971976
 20
4.099999999120141
 11
50.12263563971976
 21
3.972327960839959
  0
LINE
  5
196
100
AcDbEntity
  8
0
  6
CONTINUOUS
 62
    9
370
   -1
100
AcDbLine
 10
49.9782158752199
 20
3.903450910379956
 11
49.9782158752199
 21
4.099999999120141
  0
LINE
  5
197
100
AcDbEntity
  8
0
  6
CONTINUOUS
 62
    7
370
   -1
100
AcDbLine
 10
49.97809422953976
 20
7.279999999280176
 11
49.97809422953976
 21
7.496607335940138
  0
LINE
  5
198
100
AcDbEntity
  8
0
  6
CONTINUOUS
 62
    7
370
   -1
100
AcDbLine
 10
49.95996304659985
 20
10.49000000040014
 11
49.95996304659985
 21
10.43999999880004
  0
LINE
  5
199
100
AcDbEntity
  8
0
  6
CONTINUOUS
 62
    7
370
   -1
100
AcDbLine
 10
49.93538204673969
 20
3.510023333000259
 11
49.93538204673969
 21
4.099999999120141
  0
LINE
  5
19A
100
AcDbEntity
  8
0
  6
CONTINUOUS
 62
    7
370
   -1
100
AcDbLine
 10
49.93538204673969
 20
7.279999999280176
 11
49.93538204673969
 21
7.889976666040238
  0
LINE
  5
19B
100
AcDbEntity
  8
0
  6
CONTINUOUS
 62
    9
370
   -1
100
AcDbLine
 10
49.8823099075199
 20
4.099999999120141
 11
49.8823099075199
 21
3.970741743540156
  0
LINE
  5
19C
100
AcDbEntity
  8
0
  6
CONTINUOUS
 62
    7
370
   -1
100
AcDbLine
 10
49.83538204607987
 20
8.350000000500184
 11
49.83538204607987
 21
7.475000000440102
  0
LINE
  5
19D
100
AcDbEntity
  8
0
  6
CONTINUOUS
 62
    7
370
   -1
100
AcDbLine
 10
49.83538204607987
 20
3.030000000440179
 11
49.83538204607987
 21
3.905000000500263
  0
LINE
  5
19E
100
AcDbEntity
  8
0
  6
CONTINUOUS
 62
    7
370
   -1
100
AcDbLine
 10
52.21294528941988
 20
7.279999999280175
 11
52.21295902827998
 21
7.467533871100084
  0
LINE
  5
19F
100
AcDbEntity
  8
0
  6
CONTINUOUS
 62
    7
370
   -1
100
AcDbLine
 10
52.38222936538008
 20
7.279999999280175
 11
52.38231172487971
 21
7.429257943080184
  0
LINE
  5
1A0
100
AcDbEntity
  8
0
  6
CONTINUOUS
 62
    7
370
   -1
100
AcDbLine
 10
49.88222936411982
 20
7.279999999280176
 11
49.88231172615987
 21
7.429257943080185
  0
LINE
  5
1A1
100
AcDbEntity
  8
0
  6
CONTINUOUS
 62
    7
370
   -1
100
AcDbLine
 10
52.26529961955973
 20
4.09999999912014
 11
52.26520054431994
 21
3.947460644560149
  0
LINE
  5
1A2
100
AcDbEntity
  8
0
  6
CONTINUOUS
 62
    9
370
   -1
100
AcDbLine
 10
51.1054512839399
 20
7.279999999280175
 11
51.10555338939999
 21
7.452537863500094
  0
LINE
  5
1A3
100
AcDbEntity
  8
0
  6
CONTINUOUS
 62
    7
370
   -1
100
AcDbLine
 10
51.8453820468998
 20
-2.800000000699984
 11
51.93538204723987
 21
-2.400000000599735
  0
LINE
  5
1A4
100
AcDbEntity
  8
0
  6
CONTINUOUS
 62
    7
370
   -1
100
AcDbLine
 10
49.34538204563991
 20
-2.800000000699984
 11
49.43538204597998
 21
-2.400000000599735
  0
LINE
  5
1A5
100
AcDbEntity
  8
0
  6
CONTINUOUS
 62
    7
370
   -1
100
AcDbLine
 10
50.59538204500001
 20
-2.790000000379893
 11
50.73538204693983
 21
-2.39000000028
  0
LINE
  5
1A6
100
AcDbEntity
  8
0
  6
CONTINUOUS
 62
    6
370
   -1
100
AcDbLine
 10
46.94842341563979
 20
-2.791462600959764
 11
46.03112765815992
 21
-4.101496706819776
  0
LINE
  5
1A7
100
AcDbEntity
  8
0
  6
CONTINUOUS
 62
    6
370
   -1
100
AcDbLine
 10
46.70267780095999
 20
-2.619389671039914
 11
45.78538204601979
 21
-3.929423776899927
  0
LINE
  5
1A8
100
AcDbEntity
  8
0
  6
CONTINUOUS
 62
    7
370
   -1
100
AcDbLine
 10
55.91038204744002
 20
6.974999999680048
 11
56.21038204687974
 21
7.274999999120137
  0
LINE
  5
1A9
100
AcDbEntity
  8
0
  6
CONTINUOUS
 62
    7
370
   -1
100
AcDbLine
 10
77.66749999361991
 20
2.499999998720194
 11
76.3674999926597
 21
2.499999998720194
  0
LINE
  5
1AA
100
AcDbEntity
  8
0
  6
CONTINUOUS
 62
    7
370
   -1
100
AcDbLine
 10
19.78855600065999
 20
2.540000000000218
 11
24.78855600063973
 21
2.540000000000218
  0
LINE
  5
1AB
100
AcDbEntity
  8
0
  6
CONTINUOUS
 62
    7
370
   -1
100
AcDbLine
 10
63.22255600065985
 20
2.540000000000215
 11
66.12889999999992
 21
2.540000000000215
  0
LINE
  5
1AC
100
AcDbEntity
  8
0
  6
CONTINUOUS
 62
    6
370
   -1
100
AcDbLine
 10
56.73288204581979
 20
2.669999999080243
 11
55.96038204649972
 21
2.669999999080243
  0
LINE
  5
1AD
100
AcDbEntity
  8
0
  6
CONTINUOUS
 62
    6
370
   -1
100
AcDbLine
 10
47.41038204721997
 20
2.669999999080244
 11
46.63788204535986
 21
2.669999999080244
  0
LINE
  5
1AE
100
AcDbEntity
  8
0
  6
CONTINUOUS
 62
    7
370
   -1
100
AcDbLine
 10
46.63538204528
 20
2.805000000860017
 11
47.46038204628002
 21
2.805000000860016
  0
LINE
  5
1AF
100
AcDbEntity
  8
0
  6
CONTINUOUS
 62
    7
370
   -1
100
AcDbLine
 10
55.91038204744002
 20
2.805000000860016
 11
56.7353820459
 21
2.805000000860016
  0
LINE
  5
1B0
100
AcDbEntity
  8
0
  6
CONTINUOUS
 62
    6
370
   -1
100
AcDbLine
 10
46.34821385405991
 20
2.974999998680031
 11
47.61197626175986
 21
2.97499999868003
  0
LINE
  5
1B1
100
AcDbEntity
  8
0
  6
CONTINUOUS
 62
    6
370
   -1
100
AcDbLine
 10
55.75878782941977
 20
2.97499999868003
 11
57.02255023965976
 21
2.97499999868003
  0
LINE
  5
1B2
100
AcDbEntity
  8
0
  6
CONTINUOUS
 62
    7
370
   -1
100
AcDbLine
 10
49.83538204607987
 20
3.030000000440179
 11
51.03538204637992
 21
3.030000000440179
  0
LINE
  5
1B3
100
AcDbEntity
  8
0
  6
CONTINUOUS
 62
    7
370
   -1
100
AcDbLine
 10
53.53538204509977
 20
3.030000000440179
 11
52.33538204733976
 21
3.030000000440179
  0
LINE
  5
1B4
100
AcDbEntity
  8
0
  6
CONTINUOUS
 62
    7
370
   -1
100
AcDbLine
 10
84.73339999946002
 20
3.200000000800225
 11
84.93340000077998
 21
3.200000000800225
  0
LINE
  5
1B5
100
AcDbEntity
  8
0
  6
CONTINUOUS
 62
    7
370
   -1
100
AcDbLine
 10
84.93340000077998
 20
3.299999998919981
 11
84.43340000001993
 21
3.299999998919981
  0
LINE
  5
1B6
100
AcDbEntity
  8
0
  6
CONTINUOUS
 62
    7
370
   -1
100
AcDbLine
 10
53.43538204698001
 20
3.510000000560052
 11
52.43538204545989
 21
3.510000000560052
  0
LINE
  5
1B7
100
AcDbEntity
  8
0
  6
CONTINUOUS
 62
    7
370
   -1
100
AcDbLine
 10
50.93538204571975
 20
3.510000000560052
 11
49.93538204673969
 21
3.510000000560052
  0
LINE
  5
1B8
100
AcDbEntity
  8
0
  6
CONTINUOUS
 62
    9
370
   -1
100
AcDbLine
 10
53.43538204698001
 20
3.603961875120231
 11
52.43538204545989
 21
3.603961875120231
  0
LINE
  5
1B9
100
AcDbEntity
  8
0
  6
CONTINUOUS
 62
    9
370
   -1
100
AcDbLine
 10
50.93538204571975
 20
3.603961875120231
 11
49.93538204673969
 21
3.603961875120231
  0
LINE
  5
1BA
100
AcDbEntity
  8
0
  6
CONTINUOUS
 62
    7
370
   -1
100
AcDbLine
 10
53.53538204509977
 20
3.634999999480041
 11
53.43538204698001
 21
3.634999999480041
  0
LINE
  5
1BB
100
AcDbEntity
  8
0
  6
CONTINUOUS
 62
    7
370
   -1
100
AcDbLine
 10
52.43538204545989
 20
3.634999999480041
 11
52.33538204733976
 21
3.634999999480041
  0
LINE
  5
1BC
100
AcDbEntity
  8
0
  6
CONTINUOUS
 62
    7
370
   -1
100
AcDbLine
 10
51.03538204637992
 20
3.634999999480041
 11
50.93538204571975
 21
3.634999999480041
  0
LINE
  5
1BD
100
AcDbEntity
  8
0
  6
CONTINUOUS
 62
    7
370
   -1
100
AcDbLine
 10
49.93538204673969
 20
3.634999999480041
 11
49.83538204607987
 21
3.634999999480041
  0
LINE
  5
1BE
100
AcDbEntity
  8
0
  6
CONTINUOUS
 62
    7
370
   -1
100
AcDbLine
 10
49.68538204636002
 20
3.905000000500263
 11
49.83538204607987
 21
3.905000000500263
  0
LINE
  5
1BF
100
AcDbEntity
  8
0
  6
CONTINUOUS
 62
    7
370
   -1
100
AcDbLine
 10
51.03538204637992
 20
3.905000000500263
 11
51.18538204609979
 21
3.905000000500263
  0
LINE
  5
1C0
100
AcDbEntity
  8
0
  6
CONTINUOUS
 62
    7
370
   -1
100
AcDbLine
 10
52.18538204507986
 20
3.905000000500263
 11
52.33538204733976
 21
3.905000000500263
  0
LINE
  5
1C1
100
AcDbEntity
  8
0
  6
CONTINUOUS
 62
    7
370
   -1
100
AcDbLine
 10
53.53538204509977
 20
3.905000000500263
 11
53.68538204736004
 21
3.905000000500263
  0
LINE
  5
1C2
100
AcDbEntity
  8
0
  6
CONTINUOUS
 62
    7
370
   -1
100
AcDbLine
 10
53.68538204736004
 20
3.92499999860004
 11
53.43538204698001
 21
3.92499999860004
  0
LINE
  5
1C3
100
AcDbEntity
  8
0
  6
CONTINUOUS
 62
    7
370
   -1
100
AcDbLine
 10
52.43538204545989
 20
3.92499999860004
 11
52.18538204507986
 21
3.92499999860004
  0
LINE
  5
1C4
100
AcDbEntity
  8
0
  6
CONTINUOUS
 62
    7
370
   -1
100
AcDbLine
 10
51.18538204609979
 20
3.92499999860004
 11
50.93538204571975
 21
3.92499999860004
  0
LINE
  5
1C5
100
AcDbEntity
  8
0
  6
CONTINUOUS
 62
    7
370
   -1
100
AcDbLine
 10
49.93538204673969
 20
3.92499999860004
 11
49.68538204636002
 21
3.92499999860004
  0
LINE
  5
1C6
100
AcDbEntity
  8
0
  6
CONTINUOUS
 62
    7
370
   -1
100
AcDbLine
 10
84.43340000001993
 20
3.999999998459964
 11
84.93340000077998
 21
3.999999998459964
  0
LINE
  5
1C7
100
AcDbEntity
  8
0
  6
CONTINUOUS
 62
    7
370
   -1
100
AcDbLine
 10
54.48538204501978
 20
4.09999999912014
 11
48.88538204615986
 21
4.099999999120141
  0
LINE
  5
1C8
100
AcDbEntity
  8
0
  6
CONTINUOUS
 62
    7
370
   -1
100
AcDbLine
 10
21.09355599923984
 20
4.189999999460212
 11
23.48355599951984
 21
4.189999999460211
  0
LINE
  5
1C9
100
AcDbEntity
  8
0
  6
CONTINUOUS
 62
    7
370
   -1
100
AcDbLine
 10
64.52755599924004
 20
4.189999999460209
 11
66.12889999999992
 21
4.189999999460208
  0
LINE
  5
1CA
100
AcDbEntity
  8
0
  6
CONTINUOUS
 62
    7
370
   -1
100
AcDbLine
 10
9.461499999999702
 20
4.343400000000158
 11
18.98649999999969
 21
4.343400000000158
  0
LINE
  5
1CB
100
AcDbEntity
  8
0
  6
CONTINUOUS
 62
    7
370
   -1
100
AcDbLine
 10
84.93340000077998
 20
4.343400000000154
 11
79.66749999411975
 21
4.343400000000154
  0
LINE
  5
1CC
100
AcDbEntity
  8
0
  6
CONTINUOUS
 62
    7
370
   -1
100
AcDbLine
 10
75.65389999999992
 20
4.343400000000154
 11
58.22949999999975
 21
4.343400000000155
  0
LINE
  5
1CD
100
AcDbEntity
  8
0
  6
CONTINUOUS
 62
    7
370
   -1
100
AcDbLine
 10
42.27829999999974
 20
4.343400000000156
 11
29.40049999999997
 21
4.343400000000157
  0
LINE
  5
1CE
100
AcDbEntity
  8
0
  6
CONTINUOUS
 62
    7
370
   -1
100
AcDbLine
 10
94.43339999997976
 20
4.399999998560227
 11
93.93339999922006
 21
4.399999998560228
  0
LINE
  5
1CF
100
AcDbEntity
  8
0
  6
CONTINUOUS
 62
    7
370
   -1
100
AcDbLine
 10
54.10538204555971
 20
4.479999998580208
 11
49.26538204561993
 21
4.479999998580209
  0
LINE
  5
1D0
100
AcDbEntity
  8
0
  6
CONTINUOUS
 62
    7
370
   -1
100
AcDbLine
 10
27.36850000000001
 20
4.799999998660125
 11
7.048499999999734
 21
4.799999998660127
  0
LINE
  5
1D1
100
AcDbEntity
  8
0
  6
CONTINUOUS
 62
    7
370
   -1
100
AcDbLine
 10
26.75889990601976
 20
4.802539998660206
 11
25.43810009398005
 21
4.802539998660206
  0
LINE
  5
1D2
100
AcDbEntity
  8
0
  6
CONTINUOUS
 62
    7
370
   -1
100
AcDbLine
 10
24.2188999060199
 20
4.802539998660206
 11
22.89810009397983
 21
4.802539998660206
  0
LINE
  5
1D3
100
AcDbEntity
  8
0
  6
CONTINUOUS
 62
    7
370
   -1
100
AcDbLine
 10
21.67889990601968
 20
4.802539998660207
 11
20.35810009397998
 21
4.802539998660207
  0
LINE
  5
1D4
100
AcDbEntity
  8
0
  6
CONTINUOUS
 62
    7
370
   -1
100
AcDbLine
 10
19.13889990601983
 20
4.802539998660207
 11
17.81810009397977
 21
4.802539998660207
  0
LINE
  5
1D5
100
AcDbEntity
  8
0
  6
CONTINUOUS
 62
    7
370
   -1
100
AcDbLine
 10
16.59889990601998
 20
4.802539998660207
 11
15.27810009397992
 21
4.802539998660207
  0
LINE
  5
1D6
100
AcDbEntity
  8
0
  6
CONTINUOUS
 62
    7
370
   -1
100
AcDbLine
 10
14.05889990601976
 20
4.802539998660207
 11
12.73810009398005
 21
4.802539998660207
  0
LINE
  5
1D7
100
AcDbEntity
  8
0
  6
CONTINUOUS
 62
    7
370
   -1
100
AcDbLine
 10
11.51889990601991
 20
4.802539998660207
 11
10.19810009397985
 21
4.802539998660207
  0
LINE
  5
1D8
100
AcDbEntity
  8
0
  6
CONTINUOUS
 62
    7
370
   -1
100
AcDbLine
 10
8.978899906019691
 20
4.802539998660207
 11
7.658100093979982
 21
4.802539998660207
  0
LINE
  5
1D9
100
AcDbEntity
  8
0
  6
CONTINUOUS
 62
    7
370
   -1
100
AcDbLine
 10
47.61197794832
 20
5.090000000320157
 11
48.88538204615986
 21
5.090000000320157
  0
LINE
  5
1DA
100
AcDbEntity
  8
0
  6
CONTINUOUS
 62
    7
370
   -1
100
AcDbLine
 10
55.75878614540004
 20
5.090000000320156
 11
54.48538204501978
 21
5.090000000320156
  0
LINE
  5
1DB
100
AcDbEntity
  8
0
  6
CONTINUOUS
 62
    7
370
   -1
100
AcDbLine
 10
77.66749999361991
 20
5.50000000074014
 11
77.26749999352002
 21
5.50000000074014
  0
LINE
  5
1DC
100
AcDbEntity
  8
0
  6
CONTINUOUS
 62
    7
370
   -1
100
AcDbLine
 10
76.66749999463984
 20
5.800000000180229
 11
77.34249999337996
 21
5.800000000180229
  0
LINE
  5
1DD
100
AcDbEntity
  8
0
  6
CONTINUOUS
 62
    6
370
   -1
100
AcDbLine
 10
87.09072711359997
 20
0.07733596674008858
 11
86.08956836915972
 21
0.2002628024200934
  0
LINE
  5
1DE
100
AcDbEntity
  8
0
  6
CONTINUOUS
 62
    7
370
   -1
100
AcDbLine
 10
50.89254605823999
 20
3.903451464100084
 11
50.74822040074005
 21
3.972283630220045
  0
LINE
  5
1DF
100
AcDbEntity
  8
0
  6
CONTINUOUS
 62
    7
370
   -1
100
AcDbLine
 10
53.39254605949988
 20
3.903451464100084
 11
53.24822040199994
 21
3.972283630220045
  0
LINE
  5
1E0
100
AcDbEntity
  8
0
  6
CONTINUOUS
 62
    7
370
   -1
100
AcDbLine
 10
47.46038204628002
 20
6.974999999680048
 11
47.16038204683993
 21
7.274999999120138
  0
LINE
  5
1E1
100
AcDbEntity
  8
0
  6
CONTINUOUS
 62
    9
370
   -1
100
AcDbLine
 10
47.37088299235985
 20
8.422097689680282
 11
47.57168118359981
 21
8.221299137760024
  0
LINE
  5
1E2
100
AcDbEntity
  8
0
  6
CONTINUOUS
 62
    7
370
   -1
100
AcDbLine
 10
48.88538204615986
 20
7.279999999280176
 11
49.26538204561993
 21
6.899999999820108
  0
LINE
  5
1E3
100
AcDbEntity
  8
0
  6
CONTINUOUS
 62
    6
370
   -1
100
AcDbLine
 10
57.33963643301972
 20
-4.101496706819776
 11
56.42234067553984
 21
-2.791462600959766
  0
LINE
  5
1E4
100
AcDbEntity
  8
0
  6
CONTINUOUS
 62
    6
370
   -1
100
AcDbLine
 10
57.58538204515985
 20
-3.929423776899927
 11
56.66808629022002
 21
-2.619389671039915
  0
LINE
  5
1E5
100
AcDbEntity
  8
0
  6
CONTINUOUS
 62
    7
370
   -1
100
AcDbLine
 10
52.63538204677985
 20
-2.39000000028
 11
52.77538204617998
 21
-2.790000000379893
  0
LINE
  5
1E6
100
AcDbEntity
  8
0
  6
CONTINUOUS
 62
    7
370
   -1
100
AcDbLine
 10
48.93538204521992
 20
-2.400000000599735
 11
49.02538204555999
 21
-2.800000000699984
  0
LINE
  5
1E7
100
AcDbEntity
  8
0
  6
CONTINUOUS
 62
    9
370
   -1
100
AcDbLine
 10
49.76520970483968
 20
7.452537863500095
 11
49.76531174679972
 21
7.279999999280176
  0
LINE
  5
1E8
100
AcDbEntity
  8
0
  6
CONTINUOUS
 62
    9
370
   -1
100
AcDbLine
 10
49.71295943595982
 20
4.099999999120141
 11
49.71295943595982
 21
3.932466839140116
  0
LINE
  5
1E9
100
AcDbEntity
  8
0
  6
CONTINUOUS
 62
    7
370
   -1
100
AcDbLine
 10
49.68538204636002
 20
7.475000000440102
 11
49.68538204636002
 21
7.279999999280176
  0
LINE
  5
1EA
100
AcDbEntity
  8
0
  6
CONTINUOUS
 62
    7
370
   -1
100
AcDbLine
 10
49.68538204636002
 20
4.099999999120141
 11
49.68538204636002
 21
3.905000000500263
  0
LINE
  5
1EB
100
AcDbEntity
  8
0
  6
CONTINUOUS
 62
    7
370
   -1
100
AcDbLine
 10
49.43538204597998
 20
-2.400000000599735
 11
49.43538204597998
 21
-1.574799999999942
  0
LINE
  5
1EC
100
AcDbEntity
  8
0
  6
CONTINUOUS
 62
    7
370
   -1
100
AcDbLine
 10
49.43538204597998
 20
-3.108624468950438e-15
 11
49.43538204597998
 21
0.2199999994201076
  0
LINE
  5
1ED
100
AcDbEntity
  8
0
  6
CONTINUOUS
 62
    7
370
   -1
100
AcDbLine
 10
49.40996304677974
 20
10.43999999880004
 11
49.40996304677974
 21
10.49000000040014
  0
LINE
  5
1EE
100
AcDbEntity
  8
0
  6
CONTINUOUS
 62
    7
370
   -1
100
AcDbLine
 10
49.26538204561993
 20
6.899999999820108
 11
49.26538204561993
 21
4.479999998580209
  0
LINE
  5
1EF
100
AcDbEntity
  8
0
  6
CONTINUOUS
 62
    7
370
   -1
100
AcDbLine
 10
49.24038204735974
 20
11.75000000007998
 11
49.24038204735974
 21
10.83999999890029
  0
LINE
  5
1F0
100
AcDbEntity
  8
0
  6
CONTINUOUS
 62
    7
370
   -1
100
AcDbLine
 10
48.98538204682004
 20
-3.108624468950438e-15
 11
48.98538204682004
 21
0.2199999994201076
  0
LINE
  5
1F1
100
AcDbEntity
  8
0
  6
CONTINUOUS
 62
    7
370
   -1
100
AcDbLine
 10
48.93538204521992
 20
-1.574799999999942
 11
48.93538204521992
 21
-2.400000000599735
  0
LINE
  5
1F2
100
AcDbEntity
  8
0
  6
CONTINUOUS
 62
    7
370
   -1
100
AcDbLine
 10
48.89038204631991
 20
11.60000000036012
 11
48.89038204631991
 21
10.49000000040014
  0
LINE
  5
1F3
100
AcDbEntity
  8
0
  6
CONTINUOUS
 62
    6
370
   -1
100
AcDbLine
 10
48.88538204615986
 20
13.11450417226015
 11
48.88538204615986
 21
12.51999999932022
  0
LINE
  5
1F4
100
AcDbEntity
  8
0
  6
CONTINUOUS
 62
    7
370
   -1
100
AcDbLine
 10
48.88538204615986
 20
4.099999999120141
 11
48.88538204615986
 21
7.279999999280176
  0
LINE
  5
1F5
100
AcDbEntity
  8
0
  6
CONTINUOUS
 62
    9
370
   -1
100
AcDbLine
 10
48.78538204549969
 20
0.2199999994201076
 11
48.78538204549969
 21
-3.108624468950438e-15
  0
LINE
  5
1F6
100
AcDbEntity
  8
0
  6
CONTINUOUS
 62
    7
370
   -1
100
AcDbLine
 10
48.53538204512003
 20
5.934999999419955
 11
48.53538204512003
 21
6.290000000620208
  0
LINE
  5
1F7
100
AcDbEntity
  8
0
  6
CONTINUOUS
 62
    7
370
   -1
100
AcDbLine
 10
48.39038204555986
 20
12.55000000028013
 11
48.39038204555986
 21
9.039999999720077
  0
LINE
  5
1F8
100
AcDbEntity
  8
0
  6
CONTINUOUS
 62
    9
370
   -1
100
AcDbLine
 10
48.18538204661988
 20
-3.108624468950438e-15
 11
48.18538204661988
 21
0.2199999994201076
  0
LINE
  5
1F9
100
AcDbEntity
  8
0
  6
CONTINUOUS
 62
    7
370
   -1
100
AcDbLine
 10
48.09038204611976
 20
12.25000000084004
 11
48.09038204611976
 21
9.164264069200183
  0
LINE
  5
1FA
100
AcDbEntity
  8
0
  6
CONTINUOUS
 62
    7
370
   -1
100
AcDbLine
 10
48.08538204595972
 20
5.934999999419955
 11
48.08538204595972
 21
6.290000000620208
  0
LINE
  5
1FB
100
AcDbEntity
  8
0
  6
CONTINUOUS
 62
    6
370
   -1
100
AcDbLine
 10
48.04038204706006
 20
9.070000000679993
 11
48.04038204706006
 21
12.21999999988013
  0
LINE
  5
1FC
100
AcDbEntity
  8
0
  6
CONTINUOUS
 62
    7
370
   -1
100
AcDbLine
 10
47.98538204529991
 20
0.2199999994201076
 11
47.98538204529991
 21
-3.108624468950438e-15
  0
LINE
  5
1FD
100
AcDbEntity
  8
0
  6
CONTINUOUS
 62
    9
370
   -1
100
AcDbLine
 10
47.84038204573973
 20
1.619999998500074
 11
47.84038204573973
 21
1.799999999180213
  0
LINE
  5
1FE
100
AcDbEntity
  8
0
  6
CONTINUOUS
 62
    7
370
   -1
100
AcDbLine
 10
47.68538204585982
 20
-2.400000000599735
 11
47.68538204585982
 21
-1.574799999999942
  0
LINE
  5
1FF
100
AcDbEntity
  8
0
  6
CONTINUOUS
 62
    7
370
   -1
100
AcDbLine
 10
47.68538204585982
 20
-3.108624468950438e-15
 11
47.68538204585982
 21
0.2199999994201076
  0
LINE
  5
200
100
AcDbEntity
  8
0
  6
CONTINUOUS
 62
    6
370
   -1
100
AcDbLine
 10
47.61197794832
 20
6.644999999280043
 11
47.61197794832
 21
2.97499999868003
  0
LINE
  5
201
100
AcDbEntity
  8
0
  6
CONTINUOUS
 62
    9
370
   -1
100
AcDbLine
 10
47.59268649084007
 20
2.97499999868003
 11
47.59268649084007
 21
6.644999999280043
  0
LINE
  5
202
100
AcDbEntity
  8
0
  6
CONTINUOUS
 62
    7
370
   -1
100
AcDbLine
 10
47.46038204628002
 20
7.952598999520018
 11
47.46038204628002
 21
6.974999999680048
  0
LINE
  5
203
100
AcDbEntity
  8
0
  6
CONTINUOUS
 62
    7
370
   -1
100
AcDbLine
 10
47.46038204628002
 20
2.805000000860016
 11
47.46038204628002
 21
2.179999998639925
  0
LINE
  5
204
100
AcDbEntity
  8
0
  6
CONTINUOUS
 62
    6
370
   -1
100
AcDbLine
 10
47.41038204721997
 20
1.719999999160234
 11
47.41038204721997
 21
2.669999999080244
  0
LINE
  5
205
100
AcDbEntity
  8
0
  6
CONTINUOUS
 62
    7
370
   -1
100
AcDbLine
 10
47.18538204509976
 20
0.2199999994201076
 11
47.18538204509976
 21
-3.108624468950438e-15
  0
LINE
  5
206
100
AcDbEntity
  8
0
  6
CONTINUOUS
 62
    7
370
   -1
100
AcDbLine
 10
47.18538204509976
 20
-1.574799999999942
 11
47.18538204509976
 21
-2.400000000599735
  0
LINE
  5
207
100
AcDbEntity
  8
0
  6
CONTINUOUS
 62
    7
370
   -1
100
AcDbLine
 10
47.16038204683993
 20
7.952598999520018
 11
47.16038204683993
 21
7.274999999120138
  0
LINE
  5
208
100
AcDbEntity
  8
0
  6
CONTINUOUS
 62
    6
370
   -1
100
AcDbLine
 10
47.11038204523983
 20
6.949999998880171
 11
47.11038204523983
 21
8.169999999820046
  0
LINE
  5
209
100
AcDbEntity
  8
0
  6
CONTINUOUS
 62
    9
370
   -1
100
AcDbLine
 10
46.83902744444002
 20
6.644999999280043
 11
46.83902744444002
 21
2.974999998680031
  0
LINE
  5
20A
100
AcDbEntity
  8
0
  6
CONTINUOUS
 62
    7
370
   -1
100
AcDbLine
 10
46.68538204687975
 20
-2.664535259100376e-15
 11
46.68538204687975
 21
0.2199999994201081
  0
LINE
  5
20B
100
AcDbEntity
  8
0
  6
CONTINUOUS
 62
    7
370
   -1
100
AcDbLine
 10
46.63538204528
 20
6.949999998880171
 11
46.63538204528
 21
6.644999999280043
  0
LINE
  5
20C
100
AcDbEntity
  8
0
  6
CONTINUOUS
 62
    7
370
   -1
100
AcDbLine
 10
46.63538204528
 20
2.974999998680031
 11
46.63538204528
 21
2.669999999080244
  0
LINE
  5
20D
100
AcDbEntity
  8
0
  6
CONTINUOUS
 62
    7
370
   -1
100
AcDbLine
 10
49.71294529070005
 20
7.279999999280176
 11
49.71295902955978
 21
7.467533871100085
  0
LINE
  5
20E
100
AcDbEntity
  8
0
  6
CONTINUOUS
 62
    7
370
   -1
100
AcDbLine
 10
49.7652996208399
 20
4.099999999120141
 11
49.76520054305968
 21
3.947460644560149
  0
LINE
  5
20F
100
AcDbEntity
  8
0
  6
CONTINUOUS
 62
    7
370
   -1
100
AcDbLine
 10
47.59538204551976
 20
-2.800000000699984
 11
47.68538204585982
 21
-2.400000000599735
  0
LINE
  5
210
100
AcDbEntity
  8
0
  6
CONTINUOUS
 62
    9
370
   -1
100
AcDbLine
 10
55.79908287201992
 20
8.221299173319945
 11
55.99988119025998
 21
8.422097603320193
  0
LINE
  5
211
100
AcDbEntity
  8
0
  6
CONTINUOUS
 62
    7
370
   -1
100
AcDbLine
 10
54.10538204555971
 20
6.899999999820107
 11
54.48538204501978
 21
7.279999999280175
  0
LINE
  5
212
100
AcDbEntity
  8
0
  6
CONTINUOUS
 62
    7
370
   -1
100
AcDbLine
 10
46.18538204611968
 20
0.7499999986000434
 11
46.28538204677986
 21
0.849999999260203
  0
LINE
  5
213
100
AcDbEntity
  8
0
  6
CONTINUOUS
 62
    7
370
   -1
100
AcDbLine
 10
57.18538204505995
 20
12.40000000056027
 11
57.03538204533973
 21
12.25000000084004
  0
LINE
  5
214
100
AcDbEntity
  8
0
  6
CONTINUOUS
 62
    7
370
   -1
100
AcDbLine
 10
49.26538204561993
 20
4.479999998580209
 11
48.88538204615986
 21
4.099999999120141
  0
LINE
  5
215
100
AcDbEntity
  8
0
  6
CONTINUOUS
 62
    7
370
   -1
100
AcDbLine
 10
47.46038204628002
 20
2.805000000860016
 11
47.32538204703994
 21
2.669999999080244
  0
LINE
  5
216
100
AcDbEntity
  8
0
  6
CONTINUOUS
 62
    7
370
   -1
100
AcDbLine
 10
52.62263576797976
 20
3.972328021799964
 11
52.47821678325974
 21
3.903451344720122
  0
LINE
  5
217
100
AcDbEntity
  8
0
  6
CONTINUOUS
 62
    7
370
   -1
100
AcDbLine
 10
50.12263577179996
 20
3.972328021799964
 11
49.9782167845399
 21
3.903451344720122
  0
LINE
  5
218
100
AcDbEntity
  8
0
  6
CONTINUOUS
 62
    7
370
   -1
100
AcDbLine
 10
53.39266886341974
 20
7.496607335940137
 11
53.2480844713597
 21
7.427651253379945
  0
LINE
  5
219
100
AcDbEntity
  8
0
  6
CONTINUOUS
 62
    7
370
   -1
100
AcDbLine
 10
55.75878614540004
 20
5.934999999419954
 11
54.48538204501978
 21
5.934999999419954
  0
LINE
  5
21A
100
AcDbEntity
  8
0
  6
CONTINUOUS
 62
    7
370
   -1
100
AcDbLine
 10
48.88538204615986
 20
5.934999999419955
 11
47.61197794832
 21
5.934999999419955
  0
LINE
  5
21B
100
AcDbEntity
  8
0
  6
CONTINUOUS
 62
    7
370
   -1
100
AcDbLine
 10
77.61749999455986
 20
6.099999999619963
 11
77.41749999323989
 21
6.099999999619963
  0
LINE
  5
21C
100
AcDbEntity
  8
0
  6
CONTINUOUS
 62
    7
370
   -1
100
AcDbLine
 10
55.75878614540004
 20
6.290000000620207
 11
54.48538204501978
 21
6.290000000620207
  0
LINE
  5
21D
100
AcDbEntity
  8
0
  6
CONTINUOUS
 62
    7
370
   -1
100
AcDbLine
 10
48.88538204615986
 20
6.290000000620208
 11
47.61197794832
 21
6.290000000620208
  0
LINE
  5
21E
100
AcDbEntity
  8
0
  6
CONTINUOUS
 62
    7
370
   -1
100
AcDbLine
 10
73.36749999317981
 20
6.399999999060053
 11
75.76749999377989
 21
6.399999999060053
  0
LINE
  5
21F
100
AcDbEntity
  8
0
  6
CONTINUOUS
 62
    7
370
   -1
100
AcDbLine
 10
77.26749999352002
 20
6.399999999060053
 11
79.66749999411975
 21
6.399999999060053
  0
LINE
  5
220
100
AcDbEntity
  8
0
  6
CONTINUOUS
 62
    6
370
   -1
100
AcDbLine
 10
57.02255023965976
 20
6.644999999280042
 11
55.75878782941977
 21
6.644999999280042
  0
LINE
  5
221
100
AcDbEntity
  8
0
  6
CONTINUOUS
 62
    6
370
   -1
100
AcDbLine
 10
47.61197626175986
 20
6.644999999280043
 11
46.34821385405991
 21
6.644999999280043
  0
LINE
  5
222
100
AcDbEntity
  8
0
  6
CENTER
 62
    7
370
   -1
100
AcDbLine
 10
89.43340000000002
 20
6.699999998500141
 11
92.60849999979972
 21
6.699999998500141
  0
LINE
  5
223
100
AcDbEntity
  8
0
  6
CENTER
 62
    7
370
   -1
100
AcDbLine
 10
89.43340000000002
 20
6.699999998500141
 11
86.25830000019995
 21
6.699999998500141
  0
LINE
  5
224
100
AcDbEntity
  8
0
  6
CENTER
 62
    7
370
   -1
100
AcDbLine
 10
51.68538204685984
 20
6.814504171320205
 11
60.14441036880007
 21
6.814504171320205
  0
LINE
  5
225
100
AcDbEntity
  8
0
  6
CENTER
 62
    7
370
   -1
100
AcDbLine
 10
51.68538204685984
 20
6.814504171320205
 11
42.44835736879993
 21
6.814504171320206
  0
LINE
  5
226
100
AcDbEntity
  8
0
  6
CONTINUOUS
 62
    7
370
   -1
100
AcDbLine
 10
49.26538204561993
 20
6.899999999820108
 11
54.10538204555971
 21
6.899999999820107
  0
LINE
  5
227
100
AcDbEntity
  8
0
  6
CONTINUOUS
 62
    6
370
   -1
100
AcDbLine
 10
46.63788204535986
 20
6.949999998880171
 11
47.11038204523983
 21
6.949999998880171
  0
LINE
  5
228
100
AcDbEntity
  8
0
  6
CONTINUOUS
 62
    6
370
   -1
100
AcDbLine
 10
56.26038204593981
 20
6.94999999888017
 11
56.73288204581979
 21
6.94999999888017
  0
LINE
  5
229
100
AcDbEntity
  8
0
  6
CONTINUOUS
 62
    7
370
   -1
100
AcDbLine
 10
56.26038204593981
 20
6.974999999680048
 11
55.91038204744002
 21
6.974999999680048
  0
LINE
  5
22A
100
AcDbEntity
  8
0
  6
CONTINUOUS
 62
    7
370
   -1
100
AcDbLine
 10
47.46038204628002
 20
6.974999999680048
 11
47.11038204523983
 21
6.974999999680048
  0
LINE
  5
22B
100
AcDbEntity
  8
0
  6
CONTINUOUS
 62
    7
370
   -1
100
AcDbLine
 10
56.26038204593981
 20
7.274999999120137
 11
56.21038204687974
 21
7.274999999120137
  0
LINE
  5
22C
100
AcDbEntity
  8
0
  6
CONTINUOUS
 62
    7
370
   -1
100
AcDbLine
 10
47.16038204683993
 20
7.274999999120138
 11
47.11038204523983
 21
7.274999999120138
  0
LINE
  5
22D
100
AcDbEntity
  8
0
  6
CONTINUOUS
 62
    7
370
   -1
100
AcDbLine
 10
54.48538204501978
 20
7.279999999280175
 11
48.88538204615986
 21
7.279999999280176
  0
LINE
  5
22E
100
AcDbEntity
  8
0
  6
CONTINUOUS
 62
    7
370
   -1
100
AcDbLine
 10
53.68538204736004
 20
7.475000000440101
 11
53.43538204698001
 21
7.475000000440101
  0
LINE
  5
22F
100
AcDbEntity
  8
0
  6
CONTINUOUS
 62
    7
370
   -1
100
AcDbLine
 10
52.43538204545989
 20
7.475000000440101
 11
52.18538204507986
 21
7.475000000440101
  0
LINE
  5
230
100
AcDbEntity
  8
0
  6
CONTINUOUS
 62
    7
370
   -1
100
AcDbLine
 10
51.18538204609979
 20
7.475000000440101
 11
50.93538204571975
 21
7.475000000440101
  0
LINE
  5
231
100
AcDbEntity
  8
0
  6
CONTINUOUS
 62
    7
370
   -1
100
AcDbLine
 10
49.93538204673969
 20
7.475000000440102
 11
49.68538204636002
 21
7.475000000440102
  0
LINE
  5
232
100
AcDbEntity
  8
0
  6
CONTINUOUS
 62
    9
370
   -1
100
AcDbLine
 10
49.93538204673969
 20
7.796037773400156
 11
50.93538204571975
 21
7.796037773400155
  0
LINE
  5
233
100
AcDbEntity
  8
0
  6
CONTINUOUS
 62
    9
370
   -1
100
AcDbLine
 10
52.43538204545989
 20
7.796037773400155
 11
53.43538204698001
 21
7.796037773400155
  0
LINE
  5
234
100
AcDbEntity
  8
0
  6
CONTINUOUS
 62
    7
370
   -1
100
AcDbLine
 10
49.93538204673969
 20
7.88999999848009
 11
50.93538204571975
 21
7.889999998480089
  0
LINE
  5
235
100
AcDbEntity
  8
0
  6
CONTINUOUS
 62
    7
370
   -1
100
AcDbLine
 10
52.43538204545989
 20
7.889999998480089
 11
53.43538204698001
 21
7.889999998480089
  0
LINE
  5
236
100
AcDbEntity
  8
0
  6
CONTINUOUS
 62
    9
370
   -1
100
AcDbLine
 10
47.16038204683993
 20
7.952598999520018
 11
47.46038204628002
 21
7.952598999520018
  0
LINE
  5
237
100
AcDbEntity
  8
0
  6
CONTINUOUS
 62
    9
370
   -1
100
AcDbLine
 10
55.91038204744002
 20
7.952598999520017
 11
56.21038204687974
 21
7.952598999520017
  0
LINE
  5
238
100
AcDbEntity
  8
0
  6
CONTINUOUS
 62
    7
370
   -1
100
AcDbLine
 10
53.53538204509977
 20
8.350000000500184
 11
52.33538204733976
 21
8.350000000500184
  0
LINE
  5
239
100
AcDbEntity
  8
0
  6
CONTINUOUS
 62
    7
370
   -1
100
AcDbLine
 10
51.03538204637992
 20
8.350000000500184
 11
49.83538204607987
 21
8.350000000500184
  0
LINE
  5
23A
100
AcDbEntity
  8
0
  6
CONTINUOUS
 62
    7
370
   -1
100
AcDbLine
 10
74.48549999999975
 20
8.381999999999943
 11
74.99350000000001
 21
8.381999999999943
  0
LINE
  5
23B
100
AcDbEntity
  8
0
  6
CONTINUOUS
 62
    7
370
   -1
100
AcDbLine
 10
77.02549999999997
 20
8.381999999999943
 11
77.53349999999986
 21
8.381999999999943
  0
LINE
  5
23C
100
AcDbEntity
  8
0
  6
CONTINUOUS
 62
    7
370
   -1
100
AcDbLine
 10
48.39038204555986
 20
9.039999999720077
 11
48.09038204611976
 21
9.164264069200183
  0
LINE
  5
23D
100
AcDbEntity
  8
0
  6
CONTINUOUS
 62
    7
370
   -1
100
AcDbLine
 10
50.1226786215998
 20
7.427651250840268
 11
49.97809422953976
 21
7.496607335940138
  0
LINE
  5
23E
100
AcDbEntity
  8
0
  6
CONTINUOUS
 62
    7
370
   -1
100
AcDbLine
 10
52.62267862286005
 20
7.427651250840267
 11
52.47809422825998
 21
7.496607335940137
  0
LINE
  5
23F
100
AcDbEntity
  8
0
  6
CONTINUOUS
 62
    7
370
   -1
100
AcDbLine
 10
57.08538204693983
 20
0.8499999992602021
 11
57.18538204505995
 21
0.7499999986000425
  0
LINE
  5
240
100
AcDbEntity
  8
0
  6
CONTINUOUS
 62
    7
370
   -1
100
AcDbLine
 10
46.18538204611968
 20
12.40000000056027
 11
46.33538204583991
 21
12.25000000084004
  0
LINE
  5
241
100
AcDbEntity
  8
0
  6
CONTINUOUS
 62
    7
370
   -1
100
AcDbLine
 10
54.48538204501978
 20
4.09999999912014
 11
54.10538204555971
 21
4.479999998580208
  0
LINE
  5
242
100
AcDbEntity
  8
0
  6
CONTINUOUS
 62
    7
370
   -1
100
AcDbLine
 10
55.91038204744002
 20
2.805000000860016
 11
56.04538204667975
 21
2.669999999080243
  0
LINE
  5
243
100
AcDbEntity
  8
0
  6
CONTINUOUS
 62
    7
370
   -1
100
AcDbLine
 10
49.24038204735974
 20
11.75000000007998
 11
49.03682865461973
 21
11.95355339027996
  0
LINE
  5
244
100
AcDbEntity
  8
0
  6
CONTINUOUS
 62
    7
370
   -1
100
AcDbLine
 10
47.18538204509976
 20
-2.400000000599735
 11
47.27538204543983
 21
-2.800000000699984
  0
LINE
  5
245
100
AcDbEntity
  8
0
  6
CONTINUOUS
 62
    9
370
   -1
100
AcDbLine
 10
46.34821385405991
 20
2.974999998680031
 11
46.34821385405991
 21
6.644999999280043
  0
LINE
  5
246
100
AcDbEntity
  8
0
  6
CONTINUOUS
 62
    7
370
   -1
100
AcDbLine
 10
46.33538204583991
 20
12.25000000084004
 11
46.33538204583991
 21
12.21999999988013
  0
LINE
  5
247
100
AcDbEntity
  8
0
  6
CONTINUOUS
 62
    7
370
   -1
100
AcDbLine
 10
46.33538204583991
 20
1.619999998500074
 11
46.33538204583991
 21
1.719999999160234
  0
LINE
  5
248
100
AcDbEntity
  8
0
  6
CONTINUOUS
 62
    9
370
   -1
100
AcDbLine
 10
46.28538204677986
 20
12.51999999932022
 11
46.28538204677986
 21
12.49999999868002
  0
LINE
  5
249
100
AcDbEntity
  8
0
  6
CONTINUOUS
 62
    9
370
   -1
100
AcDbLine
 10
46.28538204677986
 20
12.21999999988013
 11
46.28538204677986
 21
1.719999999160234
  0
LINE
  5
24A
100
AcDbEntity
  8
0
  6
CONTINUOUS
 62
    6
370
   -1
100
AcDbLine
 10
46.28538204677986
 20
0.2199999994201081
 11
46.28538204677986
 21
1.619999998500074
  0
LINE
  5
24B
100
AcDbEntity
  8
0
  6
CONTINUOUS
 62
    7
370
   -1
100
AcDbLine
 10
46.03538204639982
 20
-2.664535259100376e-15
 11
46.03538204639982
 21
0.2796870327000365
  0
LINE
  5
24C
100
AcDbEntity
  8
0
  6
CONTINUOUS
 62
    7
370
   -1
100
AcDbLine
 10
46.03538204639982
 20
0.6580134972802485
 11
46.03538204639982
 21
1.719999999160234
  0
LINE
  5
24D
100
AcDbEntity
  8
0
  6
CONTINUOUS
 62
    7
370
   -1
100
AcDbLine
 10
46.03538204639982
 20
12.21999999988013
 11
46.03538204639982
 21
12.25000000084004
  0
LINE
  5
24E
100
AcDbEntity
  8
0
  6
CONTINUOUS
 62
    6
370
   -1
100
AcDbLine
 10
45.98538204733976
 20
1.719999999160234
 11
45.98538204733976
 21
0.8200000008399657
  0
LINE
  5
24F
100
AcDbEntity
  8
0
  6
CONTINUOUS
 62
    6
370
   -1
100
AcDbLine
 10
45.98538204733976
 20
0.3004359244000598
 11
45.98538204733976
 21
-2.664535259100376e-15
  0
LINE
  5
250
100
AcDbEntity
  8
0
  6
CONTINUOUS
 62
    6
370
   -1
100
AcDbLine
 10
45.68538204535999
 20
-2.664535259100376e-15
 11
45.68538204535999
 21
12.21999999988013
  0
LINE
  5
251
100
AcDbEntity
  8
0
  6
CONTINUOUS
 62
    6
370
   -1
100
AcDbLine
 10
45.3853820459199
 20
0.5499999998201135
 11
45.3853820459199
 21
12.07000000016026
  0
LINE
  5
252
100
AcDbEntity
  8
0
  6
CONTINUOUS
 62
    7
370
   -1
100
AcDbLine
 10
54.33393543655993
 20
11.95355339027996
 11
54.13038204635993
 21
11.75000000007998
  0
LINE
  5
253
100
AcDbEntity
  8
0
  6
CONTINUOUS
 62
    7
370
   -1
100
AcDbLine
 10
47.57168118359981
 20
8.221299137760024
 11
48.39038204555986
 21
9.039999999720077
  0
LINE
  5
254
100
AcDbEntity
  8
0
  6
CONTINUOUS
 62
    7
370
   -1
100
AcDbLine
 10
48.09038204611976
 20
9.164264069200183
 11
48.04038204706006
 21
9.11426407014012
  0
LINE
  5
255
100
AcDbEntity
  8
0
  6
CONTINUOUS
 62
    7
370
   -1
100
AcDbLine
 10
48.89038204631991
 20
10.49000000040014
 11
49.24038204735974
 21
10.83999999890029
  0
LINE
  5
256
100
AcDbEntity
  8
0
  6
CONTINUOUS
 62
    6
370
   -1
100
AcDbLine
 10
48.04038204706006
 20
9.070000000679993
 11
47.11038204523983
 21
8.169999999820046
  0
LINE
  5
257
100
AcDbEntity
  8
0
  6
CONTINUOUS
 62
    7
370
   -1
100
AcDbLine
 10
50.89266886215985
 20
7.496607335940137
 11
50.74808447263986
 21
7.427651253379946
  0
LINE
  5
258
100
AcDbEntity
  8
0
  6
CONTINUOUS
 62
    7
370
   -1
100
AcDbLine
 10
54.98038204561978
 20
9.039999999720077
 11
55.28038204505988
 21
9.164264069200183
  0
LINE
  5
259
100
AcDbEntity
  8
0
  6
CONTINUOUS
 62
    7
370
   -1
100
AcDbLine
 10
48.39038204555986
 20
9.550000000800221
 11
54.98038204561978
 21
9.550000000800221
  0
LINE
  5
25A
100
AcDbEntity
  8
0
  6
CONTINUOUS
 62
    9
370
   -1
100
AcDbLine
 10
92.93340000023998
 20
10.19999999874011
 11
85.9333999997597
 21
10.19999999874011
  0
LINE
  5
25B
100
AcDbEntity
  8
0
  6
CONTINUOUS
 62
    7
370
   -1
100
AcDbLine
 10
49.40996304677974
 20
10.43999999880004
 11
49.95996304659985
 21
10.43999999880004
  0
LINE
  5
25C
100
AcDbEntity
  8
0
  6
CONTINUOUS
 62
    7
370
   -1
100
AcDbLine
 10
50.40996304575981
 20
10.43999999880004
 11
50.95996304557994
 21
10.43999999880004
  0
LINE
  5
25D
100
AcDbEntity
  8
0
  6
CONTINUOUS
 62
    7
370
   -1
100
AcDbLine
 10
51.40996304727993
 20
10.43999999880004
 11
51.95996304709968
 21
10.43999999880004
  0
LINE
  5
25E
100
AcDbEntity
  8
0
  6
CONTINUOUS
 62
    7
370
   -1
100
AcDbLine
 10
52.40996304626
 20
10.43999999880004
 11
52.95996304607975
 21
10.43999999880004
  0
LINE
  5
25F
100
AcDbEntity
  8
0
  6
CONTINUOUS
 62
    7
370
   -1
100
AcDbLine
 10
53.40996304523971
 20
10.43999999880004
 11
53.95996304505982
 21
10.43999999880004
  0
LINE
  5
260
100
AcDbEntity
  8
0
  6
CONTINUOUS
 62
    7
370
   -1
100
AcDbLine
 10
54.48038204739977
 20
10.49000000040014
 11
48.89038204631991
 21
10.49000000040014
  0
LINE
  5
261
100
AcDbEntity
  8
0
  6
CONTINUOUS
 62
    7
370
   -1
100
AcDbLine
 10
49.24038204735974
 20
10.83999999890029
 11
54.13038204635993
 21
10.83999999890029
  0
LINE
  5
262
100
AcDbEntity
  8
0
  6
CONTINUOUS
 62
    9
370
   -1
100
AcDbLine
 10
57.98538204525974
 20
11.06999999864014
 11
57.68538204582002
 21
11.06999999864014
  0
LINE
  5
263
100
AcDbEntity
  8
0
  6
CONTINUOUS
 62
    9
370
   -1
100
AcDbLine
 10
45.68538204535999
 20
11.06999999864014
 11
45.3853820459199
 21
11.06999999864014
  0
LINE
  5
264
100
AcDbEntity
  8
0
  6
CONTINUOUS
 62
    7
370
   -1
100
AcDbLine
 10
85.13339999955991
 20
11.20000000026023
 11
93.73340000043977
 21
11.20000000026023
  0
LINE
  5
265
100
AcDbEntity
  8
0
  6
CONTINUOUS
 62
    7
370
   -1
100
AcDbLine
 10
54.13038204635993
 20
11.75000000007998
 11
49.24038204735974
 21
11.75000000007998
  0
LINE
  5
266
100
AcDbEntity
  8
0
  6
CONTINUOUS
 62
    6
370
   -1
100
AcDbLine
 10
45.3853820459199
 20
12.07000000016026
 11
45.68538204535999
 21
12.07000000016026
  0
LINE
  5
267
100
AcDbEntity
  8
0
  6
CONTINUOUS
 62
    6
370
   -1
100
AcDbLine
 10
57.68538204582002
 20
12.07000000016026
 11
57.98538204525974
 21
12.07000000016026
  0
LINE
  5
268
100
AcDbEntity
  8
0
  6
CONTINUOUS
 62
    7
370
   -1
100
AcDbLine
 10
53.98038204663972
 20
12.09999999858013
 11
49.39038204707997
 21
12.09999999858013
  0
LINE
  5
269
100
AcDbEntity
  8
0
  6
CONTINUOUS
 62
    6
370
   -1
100
AcDbLine
 10
57.68538204582002
 20
12.21999999988013
 11
55.33038204665998
 21
12.21999999988013
  0
LINE
  5
26A
100
AcDbEntity
  8
0
  6
CONTINUOUS
 62
    6
370
   -1
100
AcDbLine
 10
48.04038204706006
 20
12.21999999988013
 11
45.68538204535999
 21
12.21999999988013
  0
LINE
  5
26B
100
AcDbEntity
  8
0
  6
CONTINUOUS
 62
    7
370
   -1
100
AcDbLine
 10
46.33538204583991
 20
12.25000000084004
 11
48.09038204611976
 21
12.25000000084004
  0
LINE
  5
26C
100
AcDbEntity
  8
0
  6
CONTINUOUS
 62
    7
370
   -1
100
AcDbLine
 10
55.28038204505988
 20
12.25000000084004
 11
57.03538204533973
 21
12.25000000084004
  0
LINE
  5
26D
100
AcDbEntity
  8
0
  6
CONTINUOUS
 62
    6
370
   -1
100
AcDbLine
 10
46.28538204677986
 20
12.51999999932022
 11
46.30538204741968
 21
12.51999999932022
  0
LINE
  5
26E
100
AcDbEntity
  8
0
  6
CONTINUOUS
 62
    6
370
   -1
100
AcDbLine
 10
57.0653820463
 20
12.51999999932022
 11
57.08538204693983
 21
12.51999999932022
  0
LINE
  5
26F
100
AcDbEntity
  8
0
  6
CONTINUOUS
 62
    6
370
   -1
100
AcDbLine
 10
54.98038204561978
 20
12.51999999932022
 11
48.39038204555986
 21
12.51999999932022
  0
LINE
  5
270
100
AcDbEntity
  8
0
  6
CONTINUOUS
 62
    7
370
   -1
100
AcDbLine
 10
46.33538204583991
 20
12.55000000028013
 11
48.39038204555986
 21
12.55000000028013
  0
LINE
  5
271
100
AcDbEntity
  8
0
  6
CONTINUOUS
 62
    7
370
   -1
100
AcDbLine
 10
54.98038204561978
 20
12.55000000028013
 11
57.03538204533973
 21
12.55000000028013
  0
LINE
  5
272
100
AcDbEntity
  8
0
  6
CONTINUOUS
 62
    6
370
   -1
100
AcDbLine
 10
56.26038204593981
 20
8.169999999820046
 11
55.33038204665998
 21
9.070000000679993
  0
LINE
  5
273
100
AcDbEntity
  8
0
  6
CONTINUOUS
 62
    7
370
   -1
100
AcDbLine
 10
54.98038204561978
 20
9.039999999720077
 11
55.79908287201992
 21
8.221299173319945
  0
LINE
  5
274
100
AcDbEntity
  8
0
  6
CONTINUOUS
 62
    7
370
   -1
100
AcDbLine
 10
55.33038204665998
 20
9.11426407014012
 11
55.28038204505988
 21
9.164264069200183
  0
LINE
  5
275
100
AcDbEntity
  8
0
  6
CONTINUOUS
 62
    7
370
   -1
100
AcDbLine
 10
54.48038204739977
 20
10.49000000040014
 11
54.13038204635993
 21
10.83999999890029
  0
LINE
  5
276
100
AcDbEntity
  8
0
  6
CONTINUOUS
 62
    7
370
   -1
100
AcDbLine
 10
54.98038204561978
 20
12.55000000028013
 11
55.28038204505988
 21
12.25000000084004
  0
LINE
  5
277
100
AcDbEntity
  8
0
  6
CONTINUOUS
 62
    7
370
   -1
100
AcDbLine
 10
42.27829999999974
 20
-3.581399999999777
 11
42.27829999999974
 21
-1.574799999999942
  0
LINE
  5
278
100
AcDbEntity
  8
0
  6
CONTINUOUS
 62
    7
370
   -1
100
AcDbLine
 10
42.27829999999974
 20
-2.664535259100376e-15
 11
42.27829999999974
 21
4.343400000000156
  0
LINE
  5
279
100
AcDbEntity
  8
0
  6
CONTINUOUS
 62
    7
370
   -1
100
AcDbLine
 10
41.26229999999994
 20
-3.581399999999777
 11
41.26229999999994
 21
-1.727199999999956
  0
LINE
  5
27A
100
AcDbEntity
  8
0
  6
CONTINUOUS
 62
    7
370
   -1
100
AcDbLine
 10
41.26229999999994
 20
-2.664535259100376e-15
 11
41.26229999999994
 21
1.016000000000159
  0
LINE
  5
27B
100
AcDbEntity
  8
0
  6
CONTINUOUS
 62
    7
370
   -1
100
AcDbLine
 10
39.86529999999976
 20
-1.574799999999942
 11
39.86529999999976
 21
-2.220446049250313e-15
  0
LINE
  5
27C
100
AcDbEntity
  8
0
  6
CONTINUOUS
 62
    7
370
   -1
100
AcDbLine
 10
48.39038204555986
 20
12.55000000028013
 11
48.09038204611976
 21
12.25000000084004
  0
LINE
  5
27D
100
AcDbEntity
  8
0
  6
CONTINUOUS
 62
    7
370
   -1
100
AcDbLine
 10
46.33538204583991
 20
12.55000000028013
 11
46.03538204639982
 21
12.25000000084004
  0
LINE
  5
27E
100
AcDbEntity
  8
0
  6
CONTINUOUS
 62
    6
370
   -1
100
AcDbLine
 10
57.08538204693983
 20
12.81999999875994
 11
54.48538204501978
 21
12.81999999875994
  0
LINE
  5
27F
100
AcDbEntity
  8
0
  6
CONTINUOUS
 62
    6
370
   -1
100
AcDbLine
 10
48.88538204615986
 20
12.81999999875994
 11
46.28538204677986
 21
12.81999999875994
  0
LINE
  5
280
100
AcDbEntity
  8
0
  6
CONTINUOUS
 62
    6
370
   -1
100
AcDbLine
 10
54.48538204501978
 20
12.88950417267999
 11
48.88538204615986
 21
12.88950417267999
  0
LINE
  5
281
100
AcDbEntity
  8
0
  6
CONTINUOUS
 62
    6
370
   -1
100
AcDbLine
 10
54.48538204501978
 20
13.11450417226015
 11
48.88538204615986
 21
13.11450417226015
  0
LINE
  5
282
100
AcDbEntity
  8
0
  6
CONTINUOUS
 62
    7
370
   -1
100
AcDbLine
 10
57.03538204533973
 20
12.55000000028013
 11
57.33538204731985
 21
12.25000000084004
  0
LINE
  5
283
100
AcDbEntity
  8
0
  6
CONTINUOUS
 62
    7
370
   -1
100
AcDbLine
 10
38.92549999999997
 20
4.343400000000156
 11
38.92549999999997
 21
-3.581399999999777
  0
LINE
  5
284
100
AcDbEntity
  8
0
  6
CENTER
 62
    7
370
   -1
100
AcDbLine
 10
34.16299999999997
 20
0.3810000000000122
 11
34.16299999999997
 21
-5.968999999999997
  0
LINE
  5
285
100
AcDbEntity
  8
0
  6
CENTER
 62
    7
370
   -1
100
AcDbLine
 10
34.16299999999997
 20
0.3810000000000122
 11
34.16299999999997
 21
6.731000000000007
  0
LINE
  5
286
100
AcDbEntity
  8
0
  6
CONTINUOUS
 62
    7
370
   -1
100
AcDbLine
 10
26.5156600013399
 20
-1.77635683940025e-15
 11
26.75889999999999
 21
0.2432399986600853
  0
LINE
  5
287
100
AcDbEntity
  8
0
  6
CONTINUOUS
 62
    7
370
   -1
100
AcDbLine
 10
23.97566000134005
 20
-1.332267629550188e-15
 11
24.17566000011996
 21
0.1999999987802838
  0
LINE
  5
288
100
AcDbEntity
  8
0
  6
CONTINUOUS
 62
    7
370
   -1
100
AcDbLine
 10
78.51749999287976
 20
0.03200000712025508
 11
78.54950000000002
 21
-4.884981308350689e-15
  0
LINE
  5
289
100
AcDbEntity
  8
0
  6
CONTINUOUS
 62
    7
370
   -1
100
AcDbLine
 10
76.3674999926597
 20
5.800000000180229
 11
75.76749999377989
 21
6.399999999060053
  0
LINE
  5
28A
100
AcDbEntity
  8
0
  6
CONTINUOUS
 62
    7
370
   -1
100
AcDbLine
 10
29.40049999999997
 20
-3.581399999999777
 11
29.40049999999997
 21
4.343400000000157
  0
LINE
  5
28B
100
AcDbEntity
  8
0
  6
CONTINUOUS
 62
    7
370
   -1
100
AcDbLine
 10
21.43566000133983
 20
-1.332267629550188e-15
 11
21.63566000011974
 21
0.1999999987802838
  0
LINE
  5
28C
100
AcDbEntity
  8
0
  6
CONTINUOUS
 62
    7
370
   -1
100
AcDbLine
 10
18.98649999999969
 20
0.09083999866008563
 11
19.13889999999971
 21
0.2432399986600857
  0
LINE
  5
28D
100
AcDbEntity
  8
0
  6
CONTINUOUS
 62
    7
370
   -1
100
AcDbLine
 10
28.48609999999994
 20
-1.574799999999941
 11
28.48609999999994
 21
-1.77635683940025e-15
  0
LINE
  5
28E
100
AcDbEntity
  8
0
  6
CONTINUOUS
 62
    7
370
   -1
100
AcDbLine
 10
27.36850000000001
 20
2.259999998660261
 11
27.36850000000001
 21
4.799999998660125
  0
LINE
  5
28F
100
AcDbEntity
  8
0
  6
CONTINUOUS
 62
    7
370
   -1
100
AcDbLine
 10
27.11449999999989
 20
2.259999998660261
 11
27.11449999999989
 21
4.799999998660125
  0
LINE
  5
290
100
AcDbEntity
  8
0
  6
CONTINUOUS
 62
    7
370
   -1
100
AcDbLine
 10
26.75889999999999
 20
0.2432399986600853
 11
26.75889999999999
 21
2.259999998660261
  0
LINE
  5
291
100
AcDbEntity
  8
0
  6
CONTINUOUS
 62
    7
370
   -1
100
AcDbLine
 10
26.4159999999998
 20
0.03185280649993949
 11
26.4159999999998
 21
-1.77635683940025e-15
  0
LINE
  5
292
100
AcDbEntity
  8
0
  6
CONTINUOUS
 62
    7
370
   -1
100
AcDbLine
 10
26.4159999999998
 20
-1.574799999999941
 11
26.4159999999998
 21
-2.566000001340044
  0
LINE
  5
293
100
AcDbEntity
  8
0
  6
CONTINUOUS
 62
    9
370
   -1
100
AcDbLine
 10
26.09849999999972
 20
2.259999998660261
 11
26.09849999999972
 21
-1.77635683940025e-15
  0
LINE
  5
294
100
AcDbEntity
  8
0
  6
CONTINUOUS
 62
    7
370
   -1
100
AcDbLine
 10
25.78100000000001
 20
0.03185280649993949
 11
25.78100000000001
 21
-1.77635683940025e-15
  0
LINE
  5
295
100
AcDbEntity
  8
0
  6
CONTINUOUS
 62
    7
370
   -1
100
AcDbLine
 10
25.78100000000001
 20
-1.574799999999941
 11
25.78100000000001
 21
-2.566000001340044
  0
LINE
  5
296
100
AcDbEntity
  8
0
  6
CONTINUOUS
 62
    6
370
   -1
100
AcDbLine
 10
93.48469999999988
 20
0.01234027757993195
 11
93.49869256027976
 21
-5.773159728050814e-15
  0
LINE
  5
297
100
AcDbEntity
  8
0
  6
CONTINUOUS
 62
    6
370
   -1
100
AcDbLine
 10
93.63789687419984
 20
0.114300000000179
 11
93.54072220951996
 21
0.1999999987802794
  0
LINE
  5
298
100
AcDbEntity
  8
0
  6
CONTINUOUS
 62
    7
370
   -1
100
AcDbLine
 10
25.43809999999982
 20
0.2432399986600853
 11
25.43809999999982
 21
2.259999998660261
  0
LINE
  5
299
100
AcDbEntity
  8
0
  6
CONTINUOUS
 62
    7
370
   -1
100
AcDbLine
 10
25.08249999999992
 20
4.799999998660125
 11
25.08249999999992
 21
2.259999998660261
  0
LINE
  5
29A
100
AcDbEntity
  8
0
  6
CONTINUOUS
 62
    7
370
   -1
100
AcDbLine
 10
24.82849999999979
 20
4.799999998660125
 11
24.82849999999979
 21
2.259999998660261
  0
LINE
  5
29B
100
AcDbEntity
  8
0
  6
CONTINUOUS
 62
    7
370
   -1
100
AcDbLine
 10
24.78855600063973
 20
0.1999999987802838
 11
24.78855600063973
 21
2.540000000000218
  0
LINE
  5
29C
100
AcDbEntity
  8
0
  6
CONTINUOUS
 62
    7
370
   -1
100
AcDbLine
 10
24.57450000000003
 20
4.799999998660125
 11
24.57450000000003
 21
2.540000000000218
  0
LINE
  5
29D
100
AcDbEntity
  8
0
  6
CONTINUOUS
 62
    7
370
   -1
100
AcDbLine
 10
23.93855600137988
 20
0.1999999987802838
 11
23.93855600137988
 21
-1.332267629550188e-15
  0
LINE
  5
29E
100
AcDbEntity
  8
0
  6
CONTINUOUS
 62
    7
370
   -1
100
AcDbLine
 10
23.87599999999995
 20
-1.574799999999941
 11
23.87599999999995
 21
-2.566000001340044
  0
LINE
  5
29F
100
AcDbEntity
  8
0
  6
CONTINUOUS
 62
    7
370
   -1
100
AcDbLine
 10
23.48355599951984
 20
2.540000000000218
 11
23.48355599951984
 21
4.189999999460211
  0
LINE
  5
2A0
100
AcDbEntity
  8
0
  6
CONTINUOUS
 62
    7
370
   -1
100
AcDbLine
 10
23.2409999999998
 20
-1.574799999999941
 11
23.2409999999998
 21
-2.566000001340044
  0
LINE
  5
2A1
100
AcDbEntity
  8
0
  6
CONTINUOUS
 62
    7
370
   -1
100
AcDbLine
 10
23.17855599991969
 20
0.9499999999200086
 11
23.17855599991969
 21
-1.332267629550188e-15
  0
LINE
  5
2A2
100
AcDbEntity
  8
0
  6
CONTINUOUS
 62
    7
370
   -1
100
AcDbLine
 10
22.54250000000008
 20
4.799999998660125
 11
22.54250000000008
 21
4.189999999460211
  0
LINE
  5
2A3
100
AcDbEntity
  8
0
  6
CONTINUOUS
 62
    7
370
   -1
100
AcDbLine
 10
22.28849999999994
 20
4.799999998660125
 11
22.28849999999994
 21
4.189999999460211
  0
LINE
  5
2A4
100
AcDbEntity
  8
0
  6
CONTINUOUS
 62
    7
370
   -1
100
AcDbLine
 10
8.735660001339824
 20
-4.440892098500626e-16
 11
8.978899999999925
 21
0.2432399986600866
  0
LINE
  5
2A5
100
AcDbEntity
  8
0
  6
CONTINUOUS
 62
    7
370
   -1
100
AcDbLine
 10
22.03449999999981
 20
4.799999998660125
 11
22.03449999999981
 21
4.189999999460211
  0
LINE
  5
2A6
100
AcDbEntity
  8
0
  6
CONTINUOUS
 62
    7
370
   -1
100
AcDbLine
 10
22.03449999999981
 20
0.1999999987802838
 11
22.03449999999981
 21
-1.332267629550188e-15
  0
LINE
  5
2A7
100
AcDbEntity
  8
0
  6
CONTINUOUS
 62
    7
370
   -1
100
AcDbLine
 10
22.03449999999981
 20
-3.581399999999776
 11
22.03449999999981
 21
-1.574799999999941
  0
LINE
  5
2A8
100
AcDbEntity
  8
0
  6
CONTINUOUS
 62
    7
370
   -1
100
AcDbLine
 10
21.39855600138003
 20
-1.332267629550188e-15
 11
21.39855600138003
 21
0.9499999999200086
  0
LINE
  5
2A9
100
AcDbEntity
  8
0
  6
CONTINUOUS
 62
    7
370
   -1
100
AcDbLine
 10
21.33599999999973
 20
-1.574799999999941
 11
21.33599999999973
 21
-2.566000001340044
  0
LINE
  5
2AA
100
AcDbEntity
  8
0
  6
CONTINUOUS
 62
    7
370
   -1
100
AcDbLine
 10
21.09355599923984
 20
2.540000000000218
 11
21.09355599923984
 21
4.189999999460212
  0
LINE
  5
2AB
100
AcDbEntity
  8
0
  6
CONTINUOUS
 62
    7
370
   -1
100
AcDbLine
 10
21.01850000000002
 20
-3.581399999999776
 11
21.01850000000002
 21
-2.566000001340044
  0
LINE
  5
2AC
100
AcDbEntity
  8
0
  6
CONTINUOUS
 62
    7
370
   -1
100
AcDbLine
 10
20.70099999999994
 20
-1.574799999999941
 11
20.70099999999994
 21
-2.566000001340044
  0
LINE
  5
2AD
100
AcDbEntity
  8
0
  6
CONTINUOUS
 62
    7
370
   -1
100
AcDbLine
 10
20.63855599991984
 20
0.1999999987802838
 11
20.63855599991984
 21
-1.332267629550188e-15
  0
LINE
  5
2AE
100
AcDbEntity
  8
0
  6
CONTINUOUS
 62
    7
370
   -1
100
AcDbLine
 10
20.00249999999986
 20
4.799999998660126
 11
20.00249999999986
 21
2.540000000000218
  0
LINE
  5
2AF
100
AcDbEntity
  8
0
  6
CONTINUOUS
 62
    7
370
   -1
100
AcDbLine
 10
19.91359999999979
 20
-1.57479999999994
 11
19.91359999999979
 21
-1.332267629550188e-15
  0
LINE
  5
2B0
100
AcDbEntity
  8
0
  6
CONTINUOUS
 62
    7
370
   -1
100
AcDbLine
 10
19.78855600065999
 20
0.1999999987802838
 11
19.78855600065999
 21
2.540000000000218
  0
LINE
  5
2B1
100
AcDbEntity
  8
0
  6
CONTINUOUS
 62
    7
370
   -1
100
AcDbLine
 10
19.74849999999972
 20
4.799999998660126
 11
19.74849999999972
 21
2.259999998660261
  0
LINE
  5
2B2
100
AcDbEntity
  8
0
  6
CONTINUOUS
 62
    7
370
   -1
100
AcDbLine
 10
19.49449999999996
 20
4.799999998660126
 11
19.49449999999996
 21
2.259999998660261
  0
LINE
  5
2B3
100
AcDbEntity
  8
0
  6
CONTINUOUS
 62
    7
370
   -1
100
AcDbLine
 10
19.13889999999971
 20
0.2432399986600857
 11
19.13889999999971
 21
2.259999998660261
  0
LINE
  5
2B4
100
AcDbEntity
  8
0
  6
CONTINUOUS
 62
    7
370
   -1
100
AcDbLine
 10
18.98649999999969
 20
4.343400000000158
 11
18.98649999999969
 21
-3.581399999999776
  0
LINE
  5
2B5
100
AcDbEntity
  8
0
  6
CONTINUOUS
 62
    7
370
   -1
100
AcDbLine
 10
17.46250000000001
 20
4.799999998660126
 11
17.46250000000001
 21
4.343400000000158
  0
LINE
  5
2B6
100
AcDbEntity
  8
0
  6
CONTINUOUS
 62
    7
370
   -1
100
AcDbLine
 10
17.20849999999987
 20
4.799999998660126
 11
17.20849999999987
 21
4.343400000000158
  0
LINE
  5
2B7
100
AcDbEntity
  8
0
  6
CONTINUOUS
 62
    7
370
   -1
100
AcDbLine
 10
16.95449999999974
 20
4.799999998660126
 11
16.95449999999974
 21
4.343400000000158
  0
LINE
  5
2B8
100
AcDbEntity
  8
0
  6
CONTINUOUS
 62
    7
370
   -1
100
AcDbLine
 10
14.92249999999979
 20
4.799999998660126
 11
14.92249999999979
 21
4.343400000000158
  0
LINE
  5
2B9
100
AcDbEntity
  8
0
  6
CONTINUOUS
 62
    7
370
   -1
100
AcDbLine
 10
14.66850000000001
 20
4.799999998660126
 11
14.66850000000001
 21
4.343400000000158
  0
LINE
  5
2BA
100
AcDbEntity
  8
0
  6
CONTINUOUS
 62
    7
370
   -1
100
AcDbLine
 10
14.41449999999989
 20
4.799999998660126
 11
14.41449999999989
 21
4.343400000000158
  0
LINE
  5
2BB
100
AcDbEntity
  8
0
  6
CENTER
 62
    7
370
   -1
100
AcDbLine
 10
14.22399999999969
 20
0.3810000000000136
 11
14.22399999999969
 21
-5.968999999999995
  0
LINE
  5
2BC
100
AcDbEntity
  8
0
  6
CENTER
 62
    7
370
   -1
100
AcDbLine
 10
14.22399999999969
 20
0.3810000000000136
 11
14.22399999999969
 21
6.731000000000008
  0
LINE
  5
2BD
100
AcDbEntity
  8
0
  6
CONTINUOUS
 62
    7
370
   -1
100
AcDbLine
 10
12.38249999999994
 20
4.799999998660126
 11
12.38249999999994
 21
4.343400000000158
  0
LINE
  5
2BE
100
AcDbEntity
  8
0
  6
CONTINUOUS
 62
    7
370
   -1
100
AcDbLine
 10
12.1284999999998
 20
4.799999998660126
 11
12.1284999999998
 21
4.343400000000158
  0
LINE
  5
2BF
100
AcDbEntity
  8
0
  6
CONTINUOUS
 62
    7
370
   -1
100
AcDbLine
 10
11.87450000000003
 20
4.799999998660126
 11
11.87450000000003
 21
4.343400000000158
  0
LINE
  5
2C0
100
AcDbEntity
  8
0
  6
CONTINUOUS
 62
    7
370
   -1
100
AcDbLine
 10
9.842500000000072
 20
4.343400000000158
 11
9.842500000000072
 21
4.799999998660126
  0
LINE
  5
2C1
100
AcDbEntity
  8
0
  6
CONTINUOUS
 62
    7
370
   -1
100
AcDbLine
 10
9.588499999999939
 20
4.343400000000158
 11
9.588499999999939
 21
4.799999998660126
  0
LINE
  5
2C2
100
AcDbEntity
  8
0
  6
CONTINUOUS
 62
    7
370
   -1
100
AcDbLine
 10
9.461499999999702
 20
-3.581399999999776
 11
9.461499999999702
 21
4.343400000000158
  0
LINE
  5
2C3
100
AcDbEntity
  8
0
  6
CONTINUOUS
 62
    7
370
   -1
100
AcDbLine
 10
9.334499999999821
 20
4.799999998660126
 11
9.334499999999821
 21
2.259999998660262
  0
LINE
  5
2C4
100
AcDbEntity
  8
0
  6
CONTINUOUS
 62
    7
370
   -1
100
AcDbLine
 10
8.978899999999925
 20
0.2432399986600866
 11
8.978899999999925
 21
2.259999998660262
  0
LINE
  5
2C5
100
AcDbEntity
  8
0
  6
CONTINUOUS
 62
    7
370
   -1
100
AcDbLine
 10
8.635999999999726
 20
0.03185280649994082
 11
8.635999999999726
 21
-4.440892098500626e-16
  0
LINE
  5
2C6
100
AcDbEntity
  8
0
  6
CONTINUOUS
 62
    7
370
   -1
100
AcDbLine
 10
8.635999999999726
 20
-1.57479999999994
 11
8.635999999999726
 21
-2.566000001340044
  0
LINE
  5
2C7
100
AcDbEntity
  8
0
  6
CONTINUOUS
 62
    7
370
   -1
100
AcDbLine
 10
8.547100000000029
 20
-1.57479999999994
 11
8.547100000000029
 21
-4.440892098500626e-16
  0
LINE
  5
2C8
100
AcDbEntity
  8
0
  6
CONTINUOUS
 62
    9
370
   -1
100
AcDbLine
 10
8.318500000000014
 20
2.259999998660262
 11
8.318500000000014
 21
-4.440892098500626e-16
  0
LINE
  5
2C9
100
AcDbEntity
  8
0
  6
CONTINUOUS
 62
    7
370
   -1
100
AcDbLine
 10
8.000999999999948
 20
0.03185280649994082
 11
8.000999999999948
 21
-4.440892098500626e-16
  0
LINE
  5
2CA
100
AcDbEntity
  8
0
  6
CONTINUOUS
 62
    7
370
   -1
100
AcDbLine
 10
8.000999999999948
 20
-1.57479999999994
 11
8.000999999999948
 21
-2.566000001340044
  0
LINE
  5
2CB
100
AcDbEntity
  8
0
  6
CONTINUOUS
 62
    7
370
   -1
100
AcDbLine
 10
7.658099999999749
 20
0.2432399986600866
 11
7.658099999999749
 21
2.259999998660262
  0
LINE
  5
2CC
100
AcDbEntity
  8
0
  6
CONTINUOUS
 62
    7
370
   -1
100
AcDbLine
 10
7.302499999999853
 20
2.259999998660262
 11
7.302499999999853
 21
4.799999998660126
  0
LINE
  5
2CD
100
AcDbEntity
  8
0
  6
CONTINUOUS
 62
    7
370
   -1
100
AcDbLine
 10
7.048499999999734
 20
2.259999998660262
 11
7.048499999999734
 21
4.799999998660127
  0
LINE
  5
2CE
100
AcDbEntity
  8
0
  6
CONTINUOUS
 62
    7
370
   -1
100
AcDbLine
 10
0
 20
-1.574799999999938
 11
0
 21
0
  0
ARC
  5
2CF
100
AcDbEntity
  8
0
  6
CONTINUOUS
 62
    6
370
   -1
100
AcDbCircle
 10
87.10929999999975
 20
0.2285999999999948
 40
0.1524
100
AcDbArc
 50
263
 51
311.4096221086
  0
ARC
  5
2D0
100
AcDbEntity
  8
0
  6
CONTINUOUS
 62
    6
370
   -1
100
AcDbCircle
 10
93.73869999999999
 20
0.2285999999999944
 40
0.1524
100
AcDbArc
 50
228.5903778914
 51
276.9999999999999
  0
ARC
  5
2D1
100
AcDbEntity
  8
0
  6
CONTINUOUS
 62
    6
370
   -1
100
AcDbCircle
 10
57.07766231383994
 20
-2.332601453660049
 40
0.8000000001999999
100
AcDbArc
 50
150.0000000185
 51
214.9999997667
  0
ARC
  5
2D2
100
AcDbEntity
  8
0
  6
CONTINUOUS
 62
    6
370
   -1
100
AcDbCircle
 10
57.07766231383994
 20
-2.332601453660049
 40
0.50000000076
100
AcDbArc
 50
149.9999999316
 51
214.9999998564
  0
ARC
  5
2D3
100
AcDbEntity
  8
0
  6
CONTINUOUS
 62
    7
370
   -1
100
AcDbCircle
 10
83.31200000000003
 20
0.3810000000000091
 40
1.9685
100
AcDbArc
 50
55.15984716269999
 51
191.1699890111
  0
ARC
  5
2D4
100
AcDbEntity
  8
0
  6
CONTINUOUS
 62
    7
370
   -1
100
AcDbCircle
 10
83.31200000000003
 20
0.3810000000000091
 40
1.9685
100
AcDbArc
 50
348.8300109889
 51
354.6791531258
  0
ARC
  5
2D5
100
AcDbEntity
  8
0
  6
CONTINUOUS
 62
    7
370
   -1
100
AcDbCircle
 10
83.31200000000003
 20
0.3810000000000091
 40
0.3809999999999999
100
AcDbArc
 50
2.976629157300003
 51
241.6743321676
  0
ARC
  5
2D6
100
AcDbEntity
  8
0
  6
CONTINUOUS
 62
    7
370
   -1
100
AcDbCircle
 10
85.13339999955991
 20
0.4000000001002437
 40
0.19999999878
100
AcDbArc
 50
180
 51
270
  0
ARC
  5
2D7
100
AcDbEntity
  8
0
  6
CONTINUOUS
 62
    7
370
   -1
100
AcDbCircle
 10
93.73340000043977
 20
0.4000000001002433
 40
0.19999999878
100
AcDbArc
 50
270
 51
360
  0
ARC
  5
2D8
100
AcDbEntity
  8
0
  6
CONTINUOUS
 62
    6
370
   -1
100
AcDbCircle
 10
91.74479999999987
 20
0.254000000000127
 40
0.127
100
AcDbArc
 50
205.3511677882
 51
270
  0
CIRCLE
  5
2D9
100
AcDbEntity
  8
0
  6
CONTINUOUS
 62
    7
370
   -1
100
AcDbCircle
 10
70.89139999999992
 20
0.38100000000001
 40
3.175
  0
ARC
  5
2DA
100
AcDbEntity
  8
0
  6
CONTINUOUS
 62
    7
370
   -1
100
AcDbCircle
 10
71.02622421345994
 20
0.6112032937202896
 40
2.79510722664
100
AcDbArc
 50
149.7298027046
 51
152.8936167049
  0
ARC
  5
2DB
100
AcDbEntity
  8
0
  6
CONTINUOUS
 62
    7
370
   -1
100
AcDbCircle
 10
70.89097651850003
 20
0.3810183184802538
 40
2.7739345588
100
AcDbArc
 50
65.62299827760002
 51
151.3556527925
  0
ARC
  5
2DC
100
AcDbEntity
  8
0
  6
CONTINUOUS
 62
    7
370
   -1
100
AcDbCircle
 10
71.00600330394006
 20
0.6215585841600939
 40
2.77238901452
100
AcDbArc
 50
152.8937065696
 51
156.8664470722
  0
CIRCLE
  5
2DD
100
AcDbEntity
  8
0
  6
CONTINUOUS
 62
    7
370
   -1
100
AcDbCircle
 10
70.89139999999992
 20
0.38100000000001
 40
2.54
  0
CIRCLE
  5
2DE
100
AcDbEntity
  8
0
  6
CONTINUOUS
 62
    7
370
   -1
100
AcDbCircle
 10
70.89139999999992
 20
0.38100000000001
 40
2.3114
  0
CIRCLE
  5
2DF
100
AcDbEntity
  8
0
  6
CONTINUOUS
 62
    7
370
   -1
100
AcDbCircle
 10
70.89139999999992
 20
0.38100000000001
 40
1.7526
  0
CIRCLE
  5
2E0
100
AcDbEntity
  8
0
  6
CONTINUOUS
 62
    7
370
   -1
100
AcDbCircle
 10
70.89139999999992
 20
0.38100000000001
 40
0.635
  0
CIRCLE
  5
2E1
100
AcDbEntity
  8
0
  6
CONTINUOUS
 62
    7
370
   -1
100
AcDbCircle
 10
70.89139999999992
 20
0.38100000000001
 40
0.4698999999999999
  0
ARC
  5
2E2
100
AcDbEntity
  8
0
  6
CONTINUOUS
 62
    7
370
   -1
100
AcDbCircle
 10
62.99199999999973
 20
0.3810000000000104
 40
1.9685
100
AcDbArc
 50
83.26028092590002
 51
190.5882352941
  0
ARC
  5
2E3
100
AcDbEntity
  8
0
  6
CONTINUOUS
 62
    7
370
   -1
100
AcDbCircle
 10
62.99199999999973
 20
0.3810000000000104
 40
1.9685
100
AcDbArc
 50
348.8300109889
 51
354.6791531258
  0
ARC
  5
2E4
100
AcDbEntity
  8
0
  6
CONTINUOUS
 62
    6
370
   -1
100
AcDbCircle
 10
57.08538204693983
 20
0.8200000008399648
 40
0.59999999888
100
AcDbArc
 50
270
 51
360
  0
ARC
  5
2E5
100
AcDbEntity
  8
0
  6
CONTINUOUS
 62
    7
370
   -1
100
AcDbCircle
 10
62.99199999999973
 20
0.3810000000000104
 40
0.3809999999999999
100
AcDbArc
 50
52.6065013443
 51
307.3934986557
  0
ARC
  5
2E6
100
AcDbEntity
  8
0
  6
CONTINUOUS
 62
    6
370
   -1
100
AcDbCircle
 10
57.08538204693983
 20
0.8200000008399648
 40
0.29999999944
100
AcDbArc
 50
270
 51
360
  0
ARC
  5
2E7
100
AcDbEntity
  8
0
  6
CONTINUOUS
 62
    7
370
   -1
100
AcDbCircle
 10
55.53038204543991
 20
2.179999998639925
 40
0.6799999989
100
AcDbArc
 50
304.0819673088
 51
317.1367075432
  0
ARC
  5
2E8
100
AcDbEntity
  8
0
  6
CONTINUOUS
 62
    7
370
   -1
100
AcDbCircle
 10
55.53038204543991
 20
2.179999998639925
 40
0.37999999946
100
AcDbArc
 50
270
 51
360
  0
ARC
  5
2E9
100
AcDbEntity
  8
0
  6
CONTINUOUS
 62
    7
370
   -1
100
AcDbCircle
 10
56.73147885075997
 20
2.823478208760132
 40
0.154187652
100
AcDbArc
 50
318.6883544787
 51
332.6669525197
  0
ARC
  5
2EA
100
AcDbEntity
  8
0
  6
CONTINUOUS
 62
    7
370
   -1
100
AcDbCircle
 10
56.73148313573991
 20
2.821544087659955
 40
0.15417160174
100
AcDbArc
 50
26.8136668693
 51
41.08631487149999
  0
ARC
  5
2EB
100
AcDbEntity
  8
0
  6
CONTINUOUS
 62
    7
370
   -1
100
AcDbCircle
 10
56.73160016115989
 20
2.822739312599989
 40
0.15378328146
100
AcDbArc
 50
339.3832579304
 51
358.8983469585
  0
ARC
  5
2EC
100
AcDbEntity
  8
0
  6
CONTINUOUS
 62
    7
370
   -1
100
AcDbCircle
 10
56.73288204581979
 20
2.822499998879959
 40
0.1524999998
100
AcDbArc
 50
270
 51
90
  0
ARC
  5
2ED
100
AcDbEntity
  8
0
  6
CONTINUOUS
 62
    7
370
   -1
100
AcDbCircle
 10
56.73324516929996
 20
2.823176614239994
 40
0.15176210694
100
AcDbArc
 50
48.24600124289997
 51
62.87317791340001
  0
ARC
  5
2EE
100
AcDbEntity
  8
0
  6
CONTINUOUS
 62
    7
370
   -1
100
AcDbCircle
 10
56.73332914423992
 20
2.821676314980163
 40
0.15159599856
100
AcDbArc
 50
297.0808040755
 51
311.4796032271
  0
ARC
  5
2EF
100
AcDbEntity
  8
0
  6
CONTINUOUS
 62
    7
370
   -1
100
AcDbCircle
 10
56.73399138573971
 20
2.822904811380194
 40
0.1513192554
100
AcDbArc
 50
22.25193639749999
 51
26.78225111100002
  0
ARC
  5
2F0
100
AcDbEntity
  8
0
  6
CONTINUOUS
 62
    7
370
   -1
100
AcDbCircle
 10
56.73401161937986
 20
2.822077533380149
 40
0.15129454374
100
AcDbArc
 50
332.6977579718
 51
337.2714703409
  0
ARC
  5
2F1
100
AcDbEntity
  8
0
  6
CONTINUOUS
 62
    7
370
   -1
100
AcDbCircle
 10
56.73462255795982
 20
2.821799880900283
 40
0.15062377546
100
AcDbArc
 50
337.2790953287
 51
339.3128997411
  0
ARC
  5
2F2
100
AcDbEntity
  8
0
  6
CONTINUOUS
 62
    7
370
   -1
100
AcDbCircle
 10
56.73463985027982
 20
2.823190652820028
 40
0.15061084432
100
AcDbArc
 50
20.40659580160003
 51
22.24471110539999
  0
ARC
  5
2F3
100
AcDbEntity
  8
0
  6
CONTINUOUS
 62
    7
370
   -1
100
AcDbCircle
 10
56.73575343707972
 20
2.827694819580099
 40
0.14659733444
100
AcDbArc
 50
62.94049092109999
 51
69.61042817619999
  0
ARC
  5
2F4
100
AcDbEntity
  8
0
  6
CONTINUOUS
 62
    7
370
   -1
100
AcDbCircle
 10
56.7359429159998
 20
2.816943893659964
 40
0.14619260576
100
AcDbArc
 50
290.2845486861
 51
297.0130836099
  0
ARC
  5
2F5
100
AcDbEntity
  8
0
  6
CONTINUOUS
 62
    6
370
   -1
100
AcDbCircle
 10
46.29310177987975
 20
-2.332601453660049
 40
0.8000000001999999
100
AcDbArc
 50
325.0000002671
 51
29.99999998150003
  0
ARC
  5
2F6
100
AcDbEntity
  8
0
  6
CONTINUOUS
 62
    6
370
   -1
100
AcDbCircle
 10
46.29310177987975
 20
-2.332601453660049
 40
0.50000000076
100
AcDbArc
 50
325.0000001883
 51
30.00000006840001
  0
ARC
  5
2F7
100
AcDbEntity
  8
0
  6
CONTINUOUS
 62
    6
370
   -1
100
AcDbCircle
 10
46.28538204677986
 20
0.8200000008399657
 40
0.59999999888
100
AcDbArc
 50
180
 51
270
  0
ARC
  5
2F8
100
AcDbEntity
  8
0
  6
CONTINUOUS
 62
    6
370
   -1
100
AcDbCircle
 10
46.28538204677986
 20
0.8200000008399657
 40
0.29999999944
100
AcDbArc
 50
180
 51
270
  0
CIRCLE
  5
2F9
100
AcDbEntity
  8
0
  6
CONTINUOUS
 62
    7
370
   -1
100
AcDbCircle
 10
34.16299999999997
 20
0.3810000000000122
 40
3.175
  0
ARC
  5
2FA
100
AcDbEntity
  8
0
  6
CONTINUOUS
 62
    7
370
   -1
100
AcDbCircle
 10
34.29782421346
 20
0.6112032937202918
 40
2.79510722664
100
AcDbArc
 50
149.7298027046
 51
152.8936167049
  0
ARC
  5
2FB
100
AcDbEntity
  8
0
  6
CONTINUOUS
 62
    7
370
   -1
100
AcDbCircle
 10
34.16257651849972
 20
0.381018318480256
 40
2.7739345588
100
AcDbArc
 50
65.62299827760002
 51
151.3556527926
  0
ARC
  5
2FC
100
AcDbEntity
  8
0
  6
CONTINUOUS
 62
    7
370
   -1
100
AcDbCircle
 10
34.27760330393976
 20
0.6215585841600961
 40
2.77238901452
100
AcDbArc
 50
152.8937065696
 51
156.8664470722
  0
CIRCLE
  5
2FD
100
AcDbEntity
  8
0
  6
CONTINUOUS
 62
    7
370
   -1
100
AcDbCircle
 10
34.16299999999997
 20
0.3810000000000122
 40
2.54
  0
CIRCLE
  5
2FE
100
AcDbEntity
  8
0
  6
CONTINUOUS
 62
    7
370
   -1
100
AcDbCircle
 10
34.16299999999997
 20
0.3810000000000122
 40
2.3114
  0
ARC
  5
2FF
100
AcDbEntity
  8
0
  6
CONTINUOUS
 62
    7
370
   -1
100
AcDbCircle
 10
37.51579999999974
 20
0.3810000000000122
 40
1.9685
100
AcDbArc
 50
348.8300109889
 51
44.12376066590002
  0
CIRCLE
  5
300
100
AcDbEntity
  8
0
  6
CONTINUOUS
 62
    7
370
   -1
100
AcDbCircle
 10
34.16299999999997
 20
0.3810000000000122
 40
1.7526
  0
CIRCLE
  5
301
100
AcDbEntity
  8
0
  6
CONTINUOUS
 62
    7
370
   -1
100
AcDbCircle
 10
34.16299999999997
 20
0.3810000000000122
 40
0.635
  0
CIRCLE
  5
302
100
AcDbEntity
  8
0
  6
CONTINUOUS
 62
    7
370
   -1
100
AcDbCircle
 10
34.16299999999997
 20
0.3810000000000122
 40
0.4698999999999999
  0
ARC
  5
303
100
AcDbEntity
  8
0
  6
CONTINUOUS
 62
    7
370
   -1
100
AcDbCircle
 10
47.84038204573973
 20
2.179999998639925
 40
0.6799999989
100
AcDbArc
 50
222.8632924568
 51
235.9180326912
  0
ARC
  5
304
100
AcDbEntity
  8
0
  6
CONTINUOUS
 62
    7
370
   -1
100
AcDbCircle
 10
47.84038204573973
 20
2.179999998639925
 40
0.37999999946
100
AcDbArc
 50
180
 51
270
  0
ARC
  5
305
100
AcDbEntity
  8
0
  6
CONTINUOUS
 62
    7
370
   -1
100
AcDbCircle
 10
46.63928524042004
 20
2.821521789000141
 40
0.154187652
100
AcDbArc
 50
138.6883544787
 51
152.6669525196
  0
ARC
  5
306
100
AcDbEntity
  8
0
  6
CONTINUOUS
 62
    7
370
   -1
100
AcDbCircle
 10
46.63928095797978
 20
2.823455912639997
 40
0.15417160174
100
AcDbArc
 50
206.8136668695
 51
221.0863148715
  0
ARC
  5
307
100
AcDbEntity
  8
0
  6
CONTINUOUS
 62
    7
370
   -1
100
AcDbCircle
 10
46.63916393001975
 20
2.822260685160285
 40
0.15378328146
100
AcDbArc
 50
159.3832579304
 51
178.898346959
  0
ARC
  5
308
100
AcDbEntity
  8
0
  6
CONTINUOUS
 62
    7
370
   -1
100
AcDbCircle
 10
46.63788204535986
 20
2.82249999887996
 40
0.1524999998
100
AcDbArc
 50
90
 51
270
  0
ARC
  5
309
100
AcDbEntity
  8
0
  6
CONTINUOUS
 62
    7
370
   -1
100
AcDbCircle
 10
46.63751892188003
 20
2.82182338352028
 40
0.15176210694
100
AcDbArc
 50
228.2460012427
 51
242.8731779133
  0
ARC
  5
30A
100
AcDbEntity
  8
0
  6
CONTINUOUS
 62
    7
370
   -1
100
AcDbCircle
 10
46.63743494694009
 20
2.823323682780111
 40
0.15159599856
100
AcDbArc
 50
117.0808040755
 51
131.4796032272
  0
ARC
  5
30B
100
AcDbEntity
  8
0
  6
CONTINUOUS
 62
    7
370
   -1
100
AcDbCircle
 10
46.63677270543992
 20
2.822095186380079
 40
0.1513192554
100
AcDbArc
 50
202.2519363969
 51
206.782251111
  0
ARC
  5
30C
100
AcDbEntity
  8
0
  6
CONTINUOUS
 62
    7
370
   -1
100
AcDbCircle
 10
46.63675247179978
 20
2.822922466920173
 40
0.15129454374
100
AcDbArc
 50
152.6977579718
 51
157.2714703409
  0
ARC
  5
30D
100
AcDbEntity
  8
0
  6
CONTINUOUS
 62
    7
370
   -1
100
AcDbCircle
 10
46.63614153321981
 20
2.823200119400039
 40
0.15062377546
100
AcDbArc
 50
157.2790953287
 51
159.3128997411
  0
ARC
  5
30E
100
AcDbEntity
  8
0
  6
CONTINUOUS
 62
    7
370
   -1
100
AcDbCircle
 10
46.63612424343988
 20
2.821809347480294
 40
0.15061084432
100
AcDbArc
 50
200.4065958007
 51
202.2447111057
  0
ARC
  5
30F
100
AcDbEntity
  8
0
  6
CONTINUOUS
 62
    7
370
   -1
100
AcDbCircle
 10
46.63501065663996
 20
2.817305178180175
 40
0.14659733444
100
AcDbArc
 50
242.9404909205
 51
249.6104281768
  0
ARC
  5
310
100
AcDbEntity
  8
0
  6
CONTINUOUS
 62
    7
370
   -1
100
AcDbCircle
 10
46.6348211777199
 20
2.828056104099955
 40
0.14619260576
100
AcDbArc
 50
110.2845486858
 51
117.01308361
  0
CIRCLE
  5
311
100
AcDbEntity
  8
0
  6
CONTINUOUS
 62
    7
370
   -1
100
AcDbCircle
 10
14.22399999999969
 20
0.3810000000000136
 40
3.175
  0
ARC
  5
312
100
AcDbEntity
  8
0
  6
CONTINUOUS
 62
    7
370
   -1
100
AcDbCircle
 10
14.35882421345973
 20
0.6112032937202931
 40
2.79510722664
100
AcDbArc
 50
149.7298027046
 51
152.8936167049
  0
ARC
  5
313
100
AcDbEntity
  8
0
  6
CONTINUOUS
 62
    7
370
   -1
100
AcDbCircle
 10
14.22357651849981
 20
0.3810183184802574
 40
2.7739345588
100
AcDbArc
 50
65.62299827760002
 51
151.3556527926
  0
ARC
  5
314
100
AcDbEntity
  8
0
  6
CONTINUOUS
 62
    7
370
   -1
100
AcDbCircle
 10
14.33860330393985
 20
0.6215585841600975
 40
2.77238901452
100
AcDbArc
 50
152.8937065697
 51
156.8664470721
  0
CIRCLE
  5
315
100
AcDbEntity
  8
0
  6
CONTINUOUS
 62
    7
370
   -1
100
AcDbCircle
 10
14.22399999999969
 20
0.3810000000000136
 40
2.54
  0
CIRCLE
  5
316
100
AcDbEntity
  8
0
  6
CONTINUOUS
 62
    7
370
   -1
100
AcDbCircle
 10
14.22399999999969
 20
0.3810000000000136
 40
2.3114
  0
ARC
  5
317
100
AcDbEntity
  8
0
  6
CONTINUOUS
 62
    7
370
   -1
100
AcDbCircle
 10
17.27199999999981
 20
0.3810000000000136
 40
1.9685
100
AcDbArc
 50
348.8300109889
 51
17.84451132700001
  0
CIRCLE
  5
318
100
AcDbEntity
  8
0
  6
CONTINUOUS
 62
    7
370
   -1
100
AcDbCircle
 10
14.22399999999969
 20
0.3810000000000136
 40
1.7526
  0
ARC
  5
319
100
AcDbEntity
  8
0
  6
CONTINUOUS
 62
    7
370
   -1
100
AcDbCircle
 10
25.4763557527999
 20
1.360688053320216
 40
1.62749329568
100
AcDbArc
 50
305.0757658028
 51
305.2648447987
  0
ARC
  5
31A
100
AcDbEntity
  8
0
  6
CONTINUOUS
 62
    7
370
   -1
100
AcDbCircle
 10
7.718605416199807
 20
1.329088200340081
 40
1.58884627874
100
AcDbArc
 50
304.7463223819
 51
305.267647352
  0
ARC
  5
31B
100
AcDbEntity
  8
0
  6
CONTINUOUS
 62
    7
370
   -1
100
AcDbCircle
 10
8.819436386999953
 20
1.186828291819935
 40
1.41555872082
100
AcDbArc
 50
234.6779282006
 51
236.974462286
  0
ARC
  5
31C
100
AcDbEntity
  8
0
  6
CONTINUOUS
 62
    7
370
   -1
100
AcDbCircle
 10
26.59939854354
 20
1.18677234324022
 40
1.41549119238
100
AcDbArc
 50
234.6778686327
 51
236.9743291256
  0
CIRCLE
  5
31D
100
AcDbEntity
  8
0
  6
CONTINUOUS
 62
    7
370
   -1
100
AcDbCircle
 10
14.22399999999969
 20
0.3810000000000136
 40
0.635
  0
CIRCLE
  5
31E
100
AcDbEntity
  8
0
  6
CONTINUOUS
 62
    7
370
   -1
100
AcDbCircle
 10
14.22399999999969
 20
0.3810000000000136
 40
0.4698999999999999
  0
CIRCLE
  5
31F
100
AcDbEntity
  8
0
  6
CONTINUOUS
 62
    7
370
   -1
100
AcDbCircle
 10
89.43340000000002
 20
6.699999998500141
 40
3.24999999986
  0
CIRCLE
  5
320
100
AcDbEntity
  8
0
  6
CONTINUOUS
 62
    7
370
   -1
100
AcDbCircle
 10
89.43340000000002
 20
6.699999998500141
 40
0.9999999989799999
  0
ARC
  5
321
100
AcDbEntity
  8
0
  6
CONTINUOUS
 62
    7
370
   -1
100
AcDbCircle
 10
53.87927765143981
 20
5.630507689940227
 40
1.70515897982
100
AcDbArc
 50
256.749951793
 51
260.7628184426
  0
ARC
  5
322
100
AcDbEntity
  8
0
  6
CONTINUOUS
 62
    7
370
   -1
100
AcDbCircle
 10
51.37927765017993
 20
5.630507689940227
 40
1.70515897982
100
AcDbArc
 50
256.749951793
 51
260.7628184426
  0
ARC
  5
323
100
AcDbEntity
  8
0
  6
CONTINUOUS
 62
    7
370
   -1
100
AcDbCircle
 10
51.99148446741988
 20
5.630500781140025
 40
1.70515236566
100
AcDbArc
 50
279.2372509835
 51
283.2501329767
  0
ARC
  5
324
100
AcDbEntity
  8
0
  6
CONTINUOUS
 62
    7
370
   -1
100
AcDbCircle
 10
55.53038204543991
 20
7.952598999520017
 40
0.6799999989
100
AcDbArc
 50
359.9999999897
 51
33.53441958169999
  0
ARC
  5
325
100
AcDbEntity
  8
0
  6
CONTINUOUS
 62
    7
370
   -1
100
AcDbCircle
 10
55.53038204543991
 20
7.952598999520017
 40
0.37999999946
100
AcDbArc
 50
360
 51
44.99995191599999
  0
ARC
  5
326
100
AcDbEntity
  8
0
  6
CONTINUOUS
 62
    7
370
   -1
100
AcDbCircle
 10
56.73147885584005
 20
6.798478208960272
 40
0.15418764692
100
AcDbArc
 50
318.688351904
 51
332.66695272
  0
ARC
  5
327
100
AcDbEntity
  8
0
  6
CONTINUOUS
 62
    7
370
   -1
100
AcDbCircle
 10
56.73148314082
 20
6.796544085320061
 40
0.15417159666
100
AcDbArc
 50
26.81366435720005
 51
41.08631932209997
  0
ARC
  5
328
100
AcDbEntity
  8
0
  6
CONTINUOUS
 62
    7
370
   -1
100
AcDbCircle
 10
56.73160016623999
 20
6.797739312800143
 40
0.15378327638
100
AcDbArc
 50
339.3832573676
 51
358.8983459612
  0
ARC
  5
329
100
AcDbEntity
  8
0
  6
CONTINUOUS
 62
    7
370
   -1
100
AcDbCircle
 10
56.73288204581979
 20
6.797499999080099
 40
0.1524999998
100
AcDbArc
 50
270
 51
90
  0
ARC
  5
32A
100
AcDbEntity
  8
0
  6
CONTINUOUS
 62
    7
370
   -1
100
AcDbCircle
 10
56.7332451743797
 20
6.798176614440134
 40
0.15176209932
100
AcDbArc
 50
48.2459978093
 51
62.87319033550002
  0
ARC
  5
32B
100
AcDbEntity
  8
0
  6
CONTINUOUS
 62
    7
370
   -1
100
AcDbCircle
 10
56.73332914932001
 20
6.796676315179948
 40
0.15159599348
100
AcDbArc
 50
297.0807955514
 51
311.4796045066
  0
ARC
  5
32C
100
AcDbEntity
  8
0
  6
CONTINUOUS
 62
    7
370
   -1
100
AcDbCircle
 10
56.73399139335986
 20
6.797904811579979
 40
0.15131925032
100
AcDbArc
 50
22.25193683939999
 51
26.78224854420003
  0
ARC
  5
32D
100
AcDbEntity
  8
0
  6
CONTINUOUS
 62
    7
370
   -1
100
AcDbCircle
 10
56.73401162445995
 20
6.797077531040255
 40
0.15129453866
100
AcDbArc
 50
332.6977581934
 51
337.2714698517
  0
ARC
  5
32E
100
AcDbEntity
  8
0
  6
CONTINUOUS
 62
    7
370
   -1
100
AcDbCircle
 10
56.73462256303992
 20
6.796799878560019
 40
0.15062377038
100
AcDbArc
 50
337.279094835
 51
339.3128991887
  0
ARC
  5
32F
100
AcDbEntity
  8
0
  6
CONTINUOUS
 62
    7
370
   -1
100
AcDbCircle
 10
56.7346398553599
 20
6.798190650480134
 40
0.15061083924
100
AcDbArc
 50
20.40659724779998
 51
22.24471155959999
  0
ARC
  5
330
100
AcDbEntity
  8
0
  6
CONTINUOUS
 62
    7
370
   -1
100
AcDbCircle
 10
56.73575344469987
 20
6.802694827400028
 40
0.1465973192
100
AcDbArc
 50
62.94050361500004
 51
69.61042436870002
  0
ARC
  5
331
100
AcDbEntity
  8
0
  6
CONTINUOUS
 62
    7
370
   -1
100
AcDbCircle
 10
56.73594292361993
 20
6.791943888780022
 40
0.1461925956
100
AcDbArc
 50
290.2845506779
 51
297.0130749087
  0
ARC
  5
332
100
AcDbEntity
  8
0
  6
CONTINUOUS
 62
    7
370
   -1
100
AcDbCircle
 10
93.73340000043977
 20
10.99999999894025
 40
0.19999999878
100
AcDbArc
 50
360
 51
90
  0
ARC
  5
333
100
AcDbEntity
  8
0
  6
CONTINUOUS
 62
    7
370
   -1
100
AcDbCircle
 10
85.13339999955991
 20
10.99999999894025
 40
0.19999999878
100
AcDbArc
 50
90
 51
180
  0
ARC
  5
334
100
AcDbEntity
  8
0
  6
CONTINUOUS
 62
    6
370
   -1
100
AcDbCircle
 10
57.08538204693983
 20
12.21999999988013
 40
0.59999999888
100
AcDbArc
 50
360
 51
90
  0
ARC
  5
335
100
AcDbEntity
  8
0
  6
CONTINUOUS
 62
    7
370
   -1
100
AcDbCircle
 10
53.98038204663972
 20
11.60000000036012
 40
0.50000000076
100
AcDbArc
 50
360
 51
90
  0
ARC
  5
336
100
AcDbEntity
  8
0
  6
CONTINUOUS
 62
    6
370
   -1
100
AcDbCircle
 10
57.08538204693983
 20
12.21999999988013
 40
0.29999999944
100
AcDbArc
 50
360
 51
90
  0
ARC
  5
337
100
AcDbEntity
  8
0
  6
CONTINUOUS
 62
    7
370
   -1
100
AcDbCircle
 10
49.49148446870002
 20
5.630500781140026
 40
1.70515236566
100
AcDbArc
 50
279.2372509835
 51
283.2501329767
  0
ARC
  5
338
100
AcDbEntity
  8
0
  6
CONTINUOUS
 62
    7
370
   -1
100
AcDbCircle
 10
47.84038204573973
 20
7.952598999520018
 40
0.6799999989
100
AcDbArc
 50
146.4655778563
 51
180
  0
ARC
  5
339
100
AcDbEntity
  8
0
  6
CONTINUOUS
 62
    6
370
   -1
100
AcDbCircle
 10
46.28538204677986
 20
12.21999999988013
 40
0.59999999888
100
AcDbArc
 50
90
 51
180
  0
ARC
  5
33A
100
AcDbEntity
  8
0
  6
CONTINUOUS
 62
    7
370
   -1
100
AcDbCircle
 10
49.39038204707997
 20
11.60000000036012
 40
0.50000000076
100
AcDbArc
 50
90
 51
180
  0
ARC
  5
33B
100
AcDbEntity
  8
0
  6
CONTINUOUS
 62
    7
370
   -1
100
AcDbCircle
 10
47.84038204573973
 20
7.952598999520018
 40
0.37999999946
100
AcDbArc
 50
135.0000577861
 51
180
  0
ARC
  5
33C
100
AcDbEntity
  8
0
  6
CONTINUOUS
 62
    6
370
   -1
100
AcDbCircle
 10
46.28538204677986
 20
12.21999999988013
 40
0.29999999944
100
AcDbArc
 50
90
 51
180
  0
ARC
  5
33D
100
AcDbEntity
  8
0
  6
CONTINUOUS
 62
    7
370
   -1
100
AcDbCircle
 10
46.63928523533994
 20
6.796521789200296
 40
0.15418764692
100
AcDbArc
 50
138.6883498611
 51
152.6669548559
  0
ARC
  5
33E
100
AcDbEntity
  8
0
  6
CONTINUOUS
 62
    7
370
   -1
100
AcDbCircle
 10
46.63928095036
 20
6.798455910300103
 40
0.15417159666
100
AcDbArc
 50
206.8136666305
 51
221.0863173531
  0
ARC
  5
33F
100
AcDbEntity
  8
0
  6
CONTINUOUS
 62
    7
370
   -1
100
AcDbCircle
 10
46.63916392494001
 20
6.79726068536007
 40
0.15378327638
100
AcDbArc
 50
159.3832564421
 51
178.8983479538
  0
ARC
  5
340
100
AcDbEntity
  8
0
  6
CONTINUOUS
 62
    7
370
   -1
100
AcDbCircle
 10
46.63788204535986
 20
6.7974999990801
 40
0.1524999998
100
AcDbArc
 50
90
 51
270
  0
ARC
  5
341
100
AcDbEntity
  8
0
  6
CONTINUOUS
 62
    7
370
   -1
100
AcDbCircle
 10
46.63751891679995
 20
6.796823383720064
 40
0.15176209932
100
AcDbArc
 50
228.2459999188
 51
242.8731861692
  0
ARC
  5
342
100
AcDbEntity
  8
0
  6
CONTINUOUS
 62
    7
370
   -1
100
AcDbCircle
 10
46.63743494185999
 20
6.798323682980265
 40
0.15159599348
100
AcDbArc
 50
117.0807912293
 51
131.479606572
  0
ARC
  5
343
100
AcDbEntity
  8
0
  6
CONTINUOUS
 62
    7
370
   -1
100
AcDbCircle
 10
46.63677270035983
 20
6.797095186580219
 40
0.15131925032
100
AcDbArc
 50
202.2519368544
 51
206.7822508512
  0
ARC
  5
344
100
AcDbEntity
  8
0
  6
CONTINUOUS
 62
    7
370
   -1
100
AcDbCircle
 10
46.63675246672005
 20
6.797922467119958
 40
0.15129453866
100
AcDbArc
 50
152.6977603627
 51
157.2714698654
  0
ARC
  5
345
100
AcDbEntity
  8
0
  6
CONTINUOUS
 62
    7
370
   -1
100
AcDbCircle
 10
46.63614152813972
 20
6.798200117060145
 40
0.15062377038
100
AcDbArc
 50
157.2790948419
 51
159.3128982351
  0
ARC
  5
346
100
AcDbEntity
  8
0
  6
CONTINUOUS
 62
    7
370
   -1
100
AcDbCircle
 10
46.63612423835978
 20
6.796809345140031
 40
0.15061083924
100
AcDbArc
 50
200.4065963218
 51
202.2447115656
  0
ARC
  5
347
100
AcDbEntity
  8
0
  6
CONTINUOUS
 62
    7
370
   -1
100
AcDbCircle
 10
46.63501064901982
 20
6.792305173300233
 40
0.14659732174
100
AcDbArc
 50
242.9404993523
 51
249.6104261954
  0
ARC
  5
348
100
AcDbEntity
  8
0
  6
CONTINUOUS
 62
    7
370
   -1
100
AcDbCircle
 10
46.63482116755971
 20
6.803056111920239
 40
0.14619259306
100
AcDbArc
 50
110.284552506
 51
117.0130704873
  0
LINE
  5
349
100
AcDbEntity
  8
0
  6
CONTINUOUS
 62
    7
370
   -1
100
AcDbLine
 10
53.67144676154005
 20
3.92499999860004
 11
53.6578050031999
 21
3.932466183819966
  0
SPLINE
  5
34A
100
AcDbEntity
  8
0
  6
CONTINUOUS
 62
    7
370
   -1
100
AcDbSpline
210
0
220
0
230
0
 70
    8
 71
    3
 72
   11
 73
    7
 74
    0
 42
1e-07
 43
1e-07
 40
0
 40
0
 40
0
 40
0
 40
0.1986463567
 40
0.4219722225
 40
0.6864697282
 40
1
 40
1
 40
1
 40
1
 10
52.66538204519973
 20
4.021236067239965
 30
0
 10
52.66537203505975
 20
4.016725194880049
 30
0
 10
52.66322648943986
 20
4.007077939600091
 30
0
 10
52.65442375113972
 20
3.993911722600157
 30
0
 10
52.64053968441986
 20
3.981912930240096
 30
0
 10
52.62906002234007
 20
3.975397032680146
 30
0
 10
52.62263576797976
 20
3.972328021799964
 30
0
  0
SPLINE
  5
34B
100
AcDbEntity
  8
0
  6
CONTINUOUS
 62
    7
370
   -1
100
AcDbSpline
210
0
220
0
230
0
 70
    8
 71
    3
 72
   12
 73
    8
 74
    0
 42
1e-07
 43
1e-07
 40
0
 40
0
 40
0
 40
0
 40
0.3421890562
 40
0.5529342312
 40
0.7258351794
 40
0.8696294523
 40
1
 40
1
 40
1
 40
1
 10
52.38230973605997
 20
3.970741743540156
 30
0
 10
52.39003835407995
 20
3.972562420620005
 30
0
 10
52.40242092773997
 20
3.97613310690009
 30
0
 10
52.41773084123999
 20
3.983308439259926
 30
0
 10
52.42767838801993
 20
3.990639265340076
 30
0
 10
52.43396635867984
 20
3.999165562739958
 30
0
 10
52.43538135711988
 20
4.005603942040036
 30
0
 10
52.43538133425983
 20
4.008629069339971
 30
0
  0
LINE
  5
34C
100
AcDbEntity
  8
0
  6
CONTINUOUS
 62
    7
370
   -1
100
AcDbLine
 10
53.6055627708798
 20
3.947460695359976
 11
53.65780490667998
 21
3.932466181280287
  0
SPLINE
  5
34D
100
AcDbEntity
  8
0
  6
CONTINUOUS
 62
    7
370
   -1
100
AcDbSpline
210
0
220
0
230
0
 70
    8
 71
    3
 72
   11
 73
    7
 74
    0
 42
1e-07
 43
1e-07
 40
0
 40
0
 40
0
 40
0
 40
0.3136013961
 40
0.5781258049
 40
0.8014230438
 40
1
 40
1
 40
1
 40
1
 10
53.24822040199994
 20
3.972283630220045
 30
0
 10
53.24178308187999
 20
3.975353674880264
 30
0
 10
53.2302800009999
 20
3.981872704260152
 30
0
 10
53.2163659572
 20
3.993881110519976
 30
0
 10
53.20754304368002
 20
4.007060619339963
 30
0
 10
53.20539206753995
 20
4.016720046300204
 30
0
 10
53.20538204723979
 20
4.021236067239965
 30
0
  0
SPLINE
  5
34E
100
AcDbEntity
  8
0
  6
CONTINUOUS
 62
    7
370
   -1
100
AcDbSpline
210
0
220
0
230
0
 70
    8
 71
    3
 72
   11
 73
    7
 74
    0
 42
1e-07
 43
1e-07
 40
0
 40
0
 40
0
 40
0
 40
0.1985777853
 40
0.4218270298
 40
0.6863362595
 40
1
 40
1
 40
1
 40
1
 10
53.43538204698001
 20
3.854426637080135
 30
0
 10
53.43538209015968
 20
3.858947301140088
 30
0
 10
53.43324788817975
 20
3.868620847960014
 30
0
 10
53.42442991241982
 20
3.881823005959941
 30
0
 10
53.41050654173988
 20
3.893850177740046
 30
0
 10
53.39899121551997
 20
3.900377645000003
 30
0
 10
53.39254605949988
 20
3.903451464100084
 30
0
  0
SPLINE
  5
34F
100
AcDbEntity
  8
0
  6
CONTINUOUS
 62
    7
370
   -1
100
AcDbSpline
210
0
220
0
230
0
 70
    8
 71
    3
 72
   11
 73
    7
 74
    0
 42
1e-07
 43
1e-07
 40
0
 40
0
 40
0
 40
0
 40
0.3136619177
 40
0.5781722799
 40
0.8014228967
 40
1
 40
1
 40
1
 40
1
 10
52.47821678325974
 20
3.903451344720122
 30
0
 10
52.47177204633989
 20
3.900377718660235
 30
0
 10
52.46025741100004
 20
3.893850657799956
 30
0
 10
52.44633470580007
 20
3.881824385180007
 30
0
 10
52.43751676306
 20
3.868623334619994
 30
0
 10
52.43538216483984
 20
3.858950445660252
 30
0
 10
52.43538204545989
 20
3.854430063540275
 30
0
  0
LINE
  5
350
100
AcDbEntity
  8
0
  6
CONTINUOUS
 62
    7
370
   -1
100
AcDbLine
 10
52.19931719882
 20
3.92499999860004
 11
52.21295943468003
 21
3.932466839140116
  0
LINE
  5
351
100
AcDbEntity
  8
0
  6
CONTINUOUS
 62
    7
370
   -1
100
AcDbLine
 10
52.21295854059994
 20
3.932466839140116
 11
52.26520032588
 21
3.947460644560149
  0
SPLINE
  5
352
100
AcDbEntity
  8
0
  6
CONTINUOUS
 62
    7
370
   -1
100
AcDbSpline
210
0
220
0
230
0
 70
    8
 71
    3
 72
   10
 73
    6
 74
    0
 42
1e-07
 43
1e-07
 40
0
 40
0
 40
0
 40
0
 40
0.1757150078
 40
0.5114816709
 40
1
 40
1
 40
1
 40
1
 10
53.43538204698001
 20
4.00851603934019
 30
0
 10
53.43540261081991
 20
4.004464561540015
 30
0
 10
53.43924654775999
 20
3.992549777140138
 30
0
 10
53.45935743972007
 20
3.978780206000235
 30
0
 10
53.47748947863974
 20
3.973324453640114
 30
0
 10
53.48845332005985
 20
3.970741634320003
 30
0
  0
LINE
  5
353
100
AcDbEntity
  8
0
  6
CONTINUOUS
 62
    7
370
   -1
100
AcDbLine
 10
51.17144676027981
 20
3.92499999860004
 11
51.1578050044797
 21
3.932466183819966
  0
SPLINE
  5
354
100
AcDbEntity
  8
0
  6
CONTINUOUS
 62
    7
370
   -1
100
AcDbSpline
210
0
220
0
230
0
 70
    8
 71
    3
 72
   11
 73
    7
 74
    0
 42
1e-07
 43
1e-07
 40
0
 40
0
 40
0
 40
0
 40
0.1986463585
 40
0.421972224
 40
0.6864697278
 40
1
 40
1
 40
1
 40
1
 10
50.16538204647988
 20
4.021236067239966
 30
0
 10
50.16537203633992
 20
4.01672519488005
 30
0
 10
50.16322649072002
 20
4.007077939600092
 30
0
 10
50.15442375241987
 20
3.993911722600157
 30
0
 10
50.14053968570002
 20
3.981912932780145
 30
0
 10
50.12906002615992
 20
3.975397035220194
 30
0
 10
50.12263577179996
 20
3.972328021799964
 30
0
  0
SPLINE
  5
355
100
AcDbEntity
  8
0
  6
CONTINUOUS
 62
    7
370
   -1
100
AcDbSpline
210
0
220
0
230
0
 70
    8
 71
    3
 72
   12
 73
    8
 74
    0
 42
1e-07
 43
1e-07
 40
0
 40
0
 40
0
 40
0
 40
0.3421890562
 40
0.5529342312
 40
0.7258351794
 40
0.8696294523
 40
1
 40
1
 40
1
 40
1
 10
49.88230973733975
 20
3.970741743540156
 30
0
 10
49.89003835282007
 20
3.972562420620005
 30
0
 10
49.90242092648008
 20
3.97613310690009
 30
0
 10
49.91773084251977
 20
3.983308439259926
 30
0
 10
49.92767838929973
 20
3.990639265340076
 30
0
 10
49.93396635741995
 20
3.999165562739958
 30
0
 10
49.93538135585999
 20
4.005603942040037
 30
0
 10
49.93538133299994
 20
4.008629069339972
 30
0
  0
LINE
  5
356
100
AcDbEntity
  8
0
  6
CONTINUOUS
 62
    7
370
   -1
100
AcDbLine
 10
51.10556276961991
 20
3.947460695359976
 11
51.15780490795977
 21
3.932466181280287
  0
SPLINE
  5
357
100
AcDbEntity
  8
0
  6
CONTINUOUS
 62
    7
370
   -1
100
AcDbSpline
210
0
220
0
230
0
 70
    8
 71
    3
 72
   11
 73
    7
 74
    0
 42
1e-07
 43
1e-07
 40
0
 40
0
 40
0
 40
0
 40
0.3136013961
 40
0.5781258049
 40
0.8014230438
 40
1
 40
1
 40
1
 40
1
 10
50.74822040074005
 20
3.972283630220045
 30
0
 10
50.7417830831598
 20
3.975353674880264
 30
0
 10
50.73028000227968
 20
3.981872704260152
 30
0
 10
50.71636595593975
 20
3.993881110519976
 30
0
 10
50.70754304495982
 20
4.007060619339964
 30
0
 10
50.70539206881975
 20
4.016720046300205
 30
0
 10
50.70538204597992
 20
4.021236067239966
 30
0
  0
SPLINE
  5
358
100
AcDbEntity
  8
0
  6
CONTINUOUS
 62
    7
370
   -1
100
AcDbSpline
210
0
220
0
230
0
 70
    8
 71
    3
 72
   11
 73
    7
 74
    0
 42
1e-07
 43
1e-07
 40
0
 40
0
 40
0
 40
0
 40
0.1985777853
 40
0.4218270298
 40
0.6863362595
 40
1
 40
1
 40
1
 40
1
 10
50.93538204571975
 20
3.854426637080135
 30
0
 10
50.9353820888998
 20
3.858947301140088
 30
0
 10
50.93324788691986
 20
3.868620847960014
 30
0
 10
50.92442991115993
 20
3.881823005959941
 30
0
 10
50.91050654302003
 20
3.893850177740046
 30
0
 10
50.89899121425972
 20
3.900377645000003
 30
0
 10
50.89254605823999
 20
3.903451464100084
 30
0
  0
SPLINE
  5
359
100
AcDbEntity
  8
0
  6
CONTINUOUS
 62
    7
370
   -1
100
AcDbSpline
210
0
220
0
230
0
 70
    8
 71
    3
 72
   11
 73
    7
 74
    0
 42
1e-07
 43
1e-07
 40
0
 40
0
 40
0
 40
0
 40
0.3136619177
 40
0.5781722799
 40
0.8014228967
 40
1
 40
1
 40
1
 40
1
 10
49.9782167845399
 20
3.903451344720122
 30
0
 10
49.97177204761969
 20
3.900377718660235
 30
0
 10
49.96025741227984
 20
3.893850657799956
 30
0
 10
49.94633470453982
 20
3.881824385180007
 30
0
 10
49.9375167643398
 20
3.868623334619994
 30
0
 10
49.93538216612001
 20
3.858950445660252
 30
0
 10
49.93538204673969
 20
3.854430063540275
 30
0
  0
LINE
  5
35A
100
AcDbEntity
  8
0
  6
CONTINUOUS
 62
    7
370
   -1
100
AcDbLine
 10
49.6993172000998
 20
3.92499999860004
 11
49.71295943595982
 21
3.932466839140116
  0
LINE
  5
35B
100
AcDbEntity
  8
0
  6
CONTINUOUS
 62
    7
370
   -1
100
AcDbLine
 10
49.71295854187974
 20
3.932466839140116
 11
49.76520032461977
 21
3.947460644560149
  0
SPLINE
  5
35C
100
AcDbEntity
  8
0
  6
CONTINUOUS
 62
    7
370
   -1
100
AcDbSpline
210
0
220
0
230
0
 70
    8
 71
    3
 72
   10
 73
    6
 74
    0
 42
1e-07
 43
1e-07
 40
0
 40
0
 40
0
 40
0
 40
0.1757150078
 40
0.5114816709
 40
1
 40
1
 40
1
 40
1
 10
50.93538204571975
 20
4.00851603934019
 30
0
 10
50.93540260956001
 20
4.004464561540015
 30
0
 10
50.93924654903979
 20
3.992549777140138
 30
0
 10
50.95935744099985
 20
3.978780206000235
 30
0
 10
50.97748947991988
 20
3.973324453640114
 30
0
 10
50.98845332134
 20
3.970741634320003
 30
0
  0
SPLINE
  5
35D
100
AcDbEntity
  8
0
  6
CONTINUOUS
 62
    7
370
   -1
100
AcDbSpline
210
0
220
0
230
0
 70
    8
 71
    3
 72
   10
 73
    6
 74
    0
 42
1e-07
 43
1e-07
 40
0
 40
0
 40
0
 40
0
 40
0.315692259
 40
0.5820399703
 40
1
 40
1
 40
1
 40
1
 10
50.74808366999999
 20
7.427650869839963
 30
0
 10
50.74166827262
 20
7.424583532820063
 30
0
 10
50.73019269231978
 20
7.418012903340096
 30
0
 10
50.71302834259987
 20
7.403488505160181
 30
0
 10
50.70541858895983
 20
7.388233844280092
 30
0
 10
50.70538204597992
 20
7.378819367300122
 30
0
  0
LINE
  5
35E
100
AcDbEntity
  8
0
  6
CONTINUOUS
 62
    7
370
   -1
100
AcDbLine
 10
51.16234207186001
 20
7.47167982673994
 11
51.15780507305983
 21
7.467533914280136
  0
SPLINE
  5
35F
100
AcDbEntity
  8
0
  6
CONTINUOUS
 62
    7
370
   -1
100
AcDbSpline
210
0
220
0
230
0
 70
    8
 71
    3
 72
   10
 73
    6
 74
    0
 42
1e-07
 43
1e-07
 40
0
 40
0
 40
0
 40
0
 40
0.4178332608
 40
0.6841723579
 40
1
 40
1
 40
1
 40
1
 10
50.93538204571975
 20
7.545573694700177
 30
0
 10
50.93538217779994
 20
7.536143274140098
 30
0
 10
50.92779212185988
 20
7.520831686780166
 30
0
 10
50.91060095989972
 20
7.506268655200227
 30
0
 10
50.89910053078002
 20
7.499681899260136
 30
0
 10
50.89266939810004
 20
7.496607592480014
 30
0
  0
LINE
  5
360
100
AcDbEntity
  8
0
  6
CONTINUOUS
 62
    7
370
   -1
100
AcDbLine
 10
51.15780453457997
 20
7.467533914280136
 11
51.10555345290004
 21
7.452537863500094
  0
SPLINE
  5
361
100
AcDbEntity
  8
0
  6
CONTINUOUS
 62
    7
370
   -1
100
AcDbSpline
210
0
220
0
230
0
 70
    8
 71
    3
 72
   12
 73
    8
 74
    0
 42
1e-07
 43
1e-07
 40
0
 40
0
 40
0
 40
0
 40
0.3421425698
 40
0.552892546
 40
0.7258233688
 40
0.8696452019000001
 40
1
 40
1
 40
1
 40
1
 10
50.98845315623994
 20
7.429258283440131
 30
0
 10
50.98072914831992
 20
7.427438683320002
 30
0
 10
50.96835322183978
 20
7.423870199220229
 30
0
 10
50.95304952117984
 20
7.41670088158018
 30
0
 10
50.94310271607976
 20
7.409376753480085
 30
0
 10
50.93680994989982
 20
7.400859722000245
 30
0
 10
50.93538638149988
 20
7.39442643286004
 30
0
 10
50.93538204571975
 20
7.391403065780121
 30
0
  0
SPLINE
  5
362
100
AcDbEntity
  8
0
  6
CONTINUOUS
 62
    7
370
   -1
100
AcDbSpline
210
0
220
0
230
0
 70
    8
 71
    3
 72
   10
 73
    6
 74
    0
 42
1e-07
 43
1e-07
 40
0
 40
0
 40
0
 40
0
 40
0.417843207
 40
0.6841801177
 40
1
 40
1
 40
1
 40
1
 10
50.16538204647988
 20
7.378689398040149
 30
0
 10
50.1653821226798
 20
7.388118561300158
 30
0
 10
50.15779469817976
 20
7.403428281759983
 30
0
 10
50.14060707952004
 20
7.417990216060201
 30
0
 10
50.12910918278004
 20
7.424576667200253
 30
0
 10
50.12267943185982
 20
7.427650864760236
 30
0
  0
LINE
  5
363
100
AcDbEntity
  8
0
  6
CONTINUOUS
 62
    7
370
   -1
100
AcDbLine
 10
49.71295902955978
 20
7.467533871100085
 11
49.69931717723976
 21
7.475000000440102
  0
LINE
  5
364
100
AcDbEntity
  8
0
  6
CONTINUOUS
 62
    7
370
   -1
100
AcDbLine
 10
49.76520964133998
 20
7.45253784826019
 11
49.71295857489996
 21
7.467533772040125
  0
SPLINE
  5
365
100
AcDbEntity
  8
0
  6
CONTINUOUS
 62
    7
370
   -1
100
AcDbSpline
210
0
220
0
230
0
 70
    8
 71
    3
 72
   10
 73
    6
 74
    0
 42
1e-07
 43
1e-07
 40
0
 40
0
 40
0
 40
0
 40
0.3157458872
 40
0.5820931139
 40
1
 40
1
 40
1
 40
1
 10
49.97809353357998
 20
7.49660766867994
 30
0
 10
49.97167166682004
 20
7.49967754570005
 30
0
 10
49.96018570046
 20
7.506254151800204
 30
0
 10
49.94300943560005
 20
7.52079282223998
 30
0
 10
49.93540549347978
 20
7.53606906296005
 30
0
 10
49.93538204673969
 20
7.545489961060196
 30
0
  0
SPLINE
  5
366
100
AcDbEntity
  8
0
  6
CONTINUOUS
 62
    7
370
   -1
100
AcDbSpline
210
0
220
0
230
0
 70
    8
 71
    3
 72
   10
 73
    6
 74
    0
 42
1e-07
 43
1e-07
 40
0
 40
0
 40
0
 40
0
 40
0.1757404377
 40
0.5113552272
 40
1
 40
1
 40
1
 40
1
 10
49.93538204673969
 20
7.391403065780122
 30
0
 10
49.93537622759979
 20
7.395459618500252
 30
0
 10
49.93156963373981
 20
7.407401502160082
 30
0
 10
49.9114409465398
 20
7.42121165742017
 30
0
 10
49.89329070343976
 20
7.426671547440148
 30
0
 10
49.88231202587981
 20
7.429257943080185
 30
0
  0
SPLINE
  5
367
100
AcDbEntity
  8
0
  6
CONTINUOUS
 62
    7
370
   -1
100
AcDbSpline
210
0
220
0
230
0
 70
    8
 71
    3
 72
   10
 73
    6
 74
    0
 42
1e-07
 43
1e-07
 40
0
 40
0
 40
0
 40
0
 40
0.315692259
 40
0.5820399703
 40
1
 40
1
 40
1
 40
1
 10
53.24808366871983
 20
7.427650869839962
 30
0
 10
53.24166827387988
 20
7.424583532820062
 30
0
 10
53.23019269103997
 20
7.418012903340095
 30
0
 10
53.21302834132007
 20
7.40348850516018
 30
0
 10
53.20541859021971
 20
7.388233844280091
 30
0
 10
53.20538204723979
 20
7.378819367300121
 30
0
  0
LINE
  5
368
100
AcDbEntity
  8
0
  6
CONTINUOUS
 62
    7
370
   -1
100
AcDbLine
 10
53.6623420731199
 20
7.47167982673994
 11
53.65780507178005
 21
7.467533914280136
  0
SPLINE
  5
369
100
AcDbEntity
  8
0
  6
CONTINUOUS
 62
    7
370
   -1
100
AcDbSpline
210
0
220
0
230
0
 70
    8
 71
    3
 72
   10
 73
    6
 74
    0
 42
1e-07
 43
1e-07
 40
0
 40
0
 40
0
 40
0
 40
0.4178332608
 40
0.6841723579
 40
1
 40
1
 40
1
 40
1
 10
53.43538204698001
 20
7.545573694700177
 30
0
 10
53.43538217651979
 20
7.536143274140098
 30
0
 10
53.42779212311976
 20
7.520831686780166
 30
0
 10
53.41060095861992
 20
7.506268655200227
 30
0
 10
53.39910053203991
 20
7.499681899260136
 30
0
 10
53.39266939681988
 20
7.496607592480014
 30
0
  0
LINE
  5
36A
100
AcDbEntity
  8
0
  6
CONTINUOUS
 62
    7
370
   -1
100
AcDbLine
 10
53.65780453583986
 20
7.467533914280136
 11
53.60555345161988
 21
7.452537863500094
  0
SPLINE
  5
36B
100
AcDbEntity
  8
0
  6
CONTINUOUS
 62
    7
370
   -1
100
AcDbSpline
210
0
220
0
230
0
 70
    8
 71
    3
 72
   12
 73
    8
 74
    0
 42
1e-07
 43
1e-07
 40
0
 40
0
 40
0
 40
0
 40
0.3421381165
 40
0.5528814183
 40
0.7258058066999999
 40
0.8696352914
 40
1
 40
1
 40
1
 40
1
 10
53.48845315749983
 20
7.429258283440131
 30
0
 10
53.48072915973999
 20
7.427438683320002
 30
0
 10
53.46835333739992
 20
7.42387030335993
 30
0
 10
53.45304946909985
 20
7.416702014420178
 30
0
 10
53.44310208996001
 20
7.409378419720223
 30
0
 10
53.43680986225993
 20
7.400860428120208
 30
0
 10
53.43538638275977
 20
7.394426697020062
 30
0
 10
53.43538204698001
 20
7.391403065780121
 30
0
  0
SPLINE
  5
36C
100
AcDbEntity
  8
0
  6
CONTINUOUS
 62
    7
370
   -1
100
AcDbSpline
210
0
220
0
230
0
 70
    8
 71
    3
 72
   10
 73
    6
 74
    0
 42
1e-07
 43
1e-07
 40
0
 40
0
 40
0
 40
0
 40
0.417843207
 40
0.6841801177
 40
1
 40
1
 40
1
 40
1
 10
52.66538204519973
 20
7.378689398040148
 30
0
 10
52.6653821214
 20
7.388118561300157
 30
0
 10
52.65779469944002
 20
7.403428281759982
 30
0
 10
52.64060708077993
 20
7.4179902160602
 30
0
 10
52.6291091814999
 20
7.424576667200252
 30
0
 10
52.62267943311971
 20
7.427650864760235
 30
0
  0
LINE
  5
36D
100
AcDbEntity
  8
0
  6
CONTINUOUS
 62
    7
370
   -1
100
AcDbLine
 10
52.21295902827998
 20
7.467533871100084
 11
52.19931717850001
 21
7.475000000440101
  0
LINE
  5
36E
100
AcDbEntity
  8
0
  6
CONTINUOUS
 62
    7
370
   -1
100
AcDbLine
 10
52.26520964005982
 20
7.452537848260189
 11
52.21295857615986
 21
7.467533772040124
  0
SPLINE
  5
36F
100
AcDbEntity
  8
0
  6
CONTINUOUS
 62
    7
370
   -1
100
AcDbSpline
210
0
220
0
230
0
 70
    8
 71
    3
 72
   10
 73
    6
 74
    0
 42
1e-07
 43
1e-07
 40
0
 40
0
 40
0
 40
0
 40
0.3157458872
 40
0.5820931139
 40
1
 40
1
 40
1
 40
1
 10
52.47809353229982
 20
7.496607668679939
 30
0
 10
52.47167166807995
 20
7.499677545700049
 30
0
 10
52.46018569917985
 20
7.506254151800203
 30
0
 10
52.44300943685994
 20
7.520792822239979
 30
0
 10
52.43540549474002
 20
7.536069062960049
 30
0
 10
52.43538204545989
 20
7.545489961060195
 30
0
  0
SPLINE
  5
370
100
AcDbEntity
  8
0
  6
CONTINUOUS
 62
    7
370
   -1
100
AcDbSpline
210
0
220
0
230
0
 70
    8
 71
    3
 72
   10
 73
    6
 74
    0
 42
1e-07
 43
1e-07
 40
0
 40
0
 40
0
 40
0
 40
0.1757404988
 40
0.511355246
 40
1
 40
1
 40
1
 40
1
 10
52.43538204545989
 20
7.391403065780121
 30
0
 10
52.43537622886004
 20
7.395459621039944
 30
0
 10
52.43156963753974
 20
7.407401507240163
 30
0
 10
52.41144094271996
 20
7.421211657420169
 30
0
 10
52.39329070470001
 20
7.426671547440147
 30
0
 10
52.3823120271397
 20
7.429257943080184
 30
0
  0
SPLINE
  5
371
100
AcDbEntity
  8
0
  6
CONTINUOUS
 62
    7
370
   -1
100
AcDbSpline
210
0
220
0
230
0
 70
    8
 71
    3
 72
   31
 73
   27
 74
    0
 42
1e-07
 43
1e-07
 40
0
 40
0
 40
0
 40
0
 40
0.0624749771
 40
0.124951179
 40
0.187424693
 40
0.2498975277
 40
0.3123717078
 40
0.3748466417
 40
0.4061114151
 40
0.4373756953
 40
0.4686392401
 40
0.4999026178
 40
0.5311665928
 40
0.562431138
 40
0.5936958517000001
 40
0.6249604313
 40
0.6562244906
 40
0.6874880273
 40
0.7187510488
 40
0.7500137602
 40
0.8124810487
 40
0.8749490958
 40
0.9062089567
 40
0.9374739539
 40
0.96874866
 40
1
 40
1
 40
1
 40
1
 10
34.16299999999997
 20
-2.588225341699813
 30
0
 10
34.32531990903976
 20
-2.584302395519958
 30
0
 10
34.64995227983999
 20
-2.549683064199984
 30
0
 10
35.12127976491987
 20
-2.418582137680008
 30
0
 10
35.56468771985993
 20
-2.211550931219807
 30
0
 10
35.96770022092002
 20
-1.933971275559971
 30
0
 10
36.31897246985995
 20
-1.593323005880011
 30
0
 10
36.56037721946002
 20
-1.264310196799843
 30
0
 10
36.71819170697972
 20
-0.9799801939598352
 30
0
 10
36.81827323147977
 20
-0.7573813071798154
 30
0
 10
36.89916736229992
 20
-0.5271354354398481
 30
0
 10
36.96032128621976
 20
-0.2908736219598209
 30
0
 10
37.00119550723978
 20
-0.05027018901995728
 30
0
 10
37.02151103683972
 20
0.1929384914399868
 30
0
 10
37.02101447699978
 20
0.4369965656801447
 30
0
 10
36.99972435193992
 20
0.6801244182599766
 30
0
 10
36.95769462903986
 20
0.920535822120113
 30
0
 10
36.89524755301973
 20
1.156461624080135
 30
0
 10
36.81273558951973
 20
1.386156171040282
 30
0
 10
36.67691600847978
 20
1.681615529320167
 30
0
 10
36.46000065871993
 20
2.027304578860251
 30
0
 10
36.18658270669981
 20
2.330305423200057
 30
0
 10
35.93914114925981
 20
2.541304546540272
 30
0
 10
35.74030527312001
 20
2.682910316160116
 30
0
 10
35.52987724083972
 20
2.806520637900048
 30
0
 10
35.38288852542
 20
2.876384762839974
 30
0
 10
35.30806758793977
 20
2.907983168020249
 30
0
  0
SPLINE
  5
372
100
AcDbEntity
  8
0
  6
CONTINUOUS
 62
    7
370
   -1
100
AcDbSpline
210
0
220
0
230
0
 70
    8
 71
    3
 72
   40
 73
   36
 74
    0
 42
1e-07
 43
1e-07
 40
0
 40
0
 40
0
 40
0
 40
0.031241567
 40
0.0625012204
 40
0.0937514958
 40
0.1249990259
 40
0.1562494528
 40
0.1875002893
 40
0.2187508509
 40
0.2500014098
 40
0.2812517859
 40
0.3125016964
 40
0.3437512275
 40
0.3750009816
 40
0.4062510444
 40
0.4375017651
 40
0.4687525408
 40
0.5000032632
 40
0.5312535362
 40
0.5625032323
 40
0.5937524574
 40
0.6250015741
 40
0.6562512605
 40
0.6875011234
 40
0.7187511901
 40
0.7500009417
 40
0.7812502322
 40
0.8124990148
 40
0.8437479384
 40
0.8593768086
 40
0.87500544
 40
0.9062522405
 40
0.9375008145
 40
0.9687593893000001
 40
1
 40
1
 40
1
 40
1
 10
33.30370683923982
 20
3.437507854460063
 30
0
 10
33.21597939213981
 20
3.410691365040007
 30
0
 10
33.04271438941987
 20
3.349375465320035
 30
0
 10
32.79183091353998
 20
3.23527079894009
 30
0
 10
32.55180606211979
 20
3.099722517839977
 30
0
 10
32.32453417477989
 20
2.943791082180111
 30
0
 10
32.11173821987982
 20
2.768611536679996
 30
0
 10
31.9150837439998
 20
2.575473474899963
 30
0
 10
31.73611241029973
 20
2.365840648040189
 30
0
 10
31.57626692607996
 20
2.141283822580148
 30
0
 10
31.43678715423983
 20
1.903540945259946
 30
0
 10
31.31884882013969
 20
1.654410526580177
 30
0
 10
31.22336825926001
 20
1.395840380780283
 30
0
 10
31.15118424309985
 20
1.129821829760116
 30
0
 10
31.10288005471978
 20
0.8584447982203027
 30
0
 10
31.07890703941992
 20
0.5838414688401041
 30
0
 10
31.07950578091987
 20
0.3081916467600774
 30
0
 10
31.10470662967985
 20
0.03369464939997435
 30
0
 10
31.15439099310006
 20
-0.2374399213599521
 30
0
 10
31.2281644701398
 20
-0.5030308227398326
 30
0
 10
31.32553087179998
 20
-0.7609065223798428
 30
0
 10
31.44570416968001
 20
-1.008977278459741
 30
0
 10
31.58779058095979
 20
-1.245185777339773
 30
0
 10
31.7506525945798
 20
-1.467583889819922
 30
0
 10
31.93300064237985
 20
-1.674310141339918
 30
0
 10
32.13337893605999
 20
-1.863609409679969
 30
0
 10
32.35014401688
 20
-2.033901263659944
 30
0
 10
32.58154100138002
 20
-2.183684659800067
 30
0
 10
32.7850096952798
 20
-2.290392813159985
 30
0
 10
32.95308641525968
 20
-2.364262322519723
 30
0
 10
33.12436404323982
 20
-2.430354115660025
 30
0
 10
33.34389516373984
 20
-2.498098757919922
 30
0
 10
33.61367858404
 20
-2.554799538599926
 30
0
 10
33.88751482579977
 20
-2.58634027307973
 30
0
 10
34.07129502973996
 20
-2.590441666959879
 30
0
 10
34.16299999999997
 20
-2.588225341699813
 30
0
  0
SPLINE
  5
373
100
AcDbEntity
  8
0
  6
CONTINUOUS
 62
    7
370
   -1
100
AcDbSpline
210
0
220
0
230
0
 70
    8
 71
    3
 72
   21
 73
   17
 74
    0
 42
1e-07
 43
1e-07
 40
0
 40
0
 40
0
 40
0
 40
0.124969576
 40
0.2499240359
 40
0.3124491811
 40
0.3749729952
 40
0.4374929857
 40
0.5000079246
 40
0.5625202805
 40
0.6250278243
 40
0.6875319481
 40
0.7500322104
 40
0.8125293959
 40
0.8750164543
 40
0.9374999271
 40
1
 40
1
 40
1
 40
1
 10
35.47273449761992
 20
3.273269099880193
 30
0
 10
35.31100361965969
 20
3.330672543620194
 30
0
 10
34.97759064411978
 20
3.419268048419963
 30
0
 10
34.54835831488
 20
3.459878759680206
 30
0
 10
34.20486101355993
 20
3.449113114460145
 30
0
 10
33.94867885891991
 20
3.419387550340102
 30
0
 10
33.69597773364004
 20
3.367979794380017
 30
0
 10
33.44859821315976
 20
3.295177491420146
 30
0
 10
33.20843892207995
 20
3.201297021320256
 30
0
 10
32.97733567079983
 20
3.086945360259987
 30
0
 10
32.75715503673975
 20
2.952782390079987
 30
0
 10
32.54966565491992
 20
2.799736889720092
 30
0
 10
32.35664369654001
 20
2.628835539880269
 30
0
 10
32.17971432725973
 20
2.441340100800074
 30
0
 10
32.02048137673989
 20
2.238614697260145
 30
0
 10
31.92707174135997
 20
2.094283870860023
 30
0
 10
31.88380786801967
 20
2.020156630240022
 30
0
  0
SPLINE
  5
374
100
AcDbEntity
  8
0
  6
CONTINUOUS
 62
    7
370
   -1
100
AcDbSpline
210
0
220
0
230
0
 70
    8
 71
    3
 72
   31
 73
   27
 74
    0
 42
1e-07
 43
1e-07
 40
0
 40
0
 40
0
 40
0
 40
0.0624749771
 40
0.124951179
 40
0.187424693
 40
0.2498975277
 40
0.3123717078
 40
0.3748466417
 40
0.4061114151
 40
0.4373756953
 40
0.4686392401
 40
0.4999026178
 40
0.5311665928
 40
0.562431138
 40
0.5936958517000001
 40
0.6249604313
 40
0.6562244906
 40
0.6874880273
 40
0.7187510488
 40
0.7500137602
 40
0.8124810487
 40
0.8749490958
 40
0.9062089567
 40
0.9374739539
 40
0.96874866
 40
1
 40
1
 40
1
 40
1
 10
70.89139999999992
 20
-2.588225341699816
 30
0
 10
71.0537199090397
 20
-2.58430239551996
 30
0
 10
71.37835227983993
 20
-2.549683064199987
 30
0
 10
71.84967976491981
 20
-2.418582137680009
 30
0
 10
72.29308771985988
 20
-2.211550931219809
 30
0
 10
72.69610022091997
 20
-1.933971275559974
 30
0
 10
73.04737246985989
 20
-1.593323005880014
 30
0
 10
73.28877721945997
 20
-1.264310196799845
 30
0
 10
73.44659170698003
 20
-0.9799801939598369
 30
0
 10
73.54667323147972
 20
-0.7573813071798172
 30
0
 10
73.62756736229986
 20
-0.5271354354398499
 30
0
 10
73.6887212862197
 20
-0.2908736219598227
 30
0
 10
73.72959550723972
 20
-0.05027018901995906
 30
0
 10
73.74991103684003
 20
0.1929384914399845
 30
0
 10
73.74941447699973
 20
0.4369965656801424
 30
0
 10
73.72812435193987
 20
0.6801244182599744
 30
0
 10
73.6860946290398
 20
0.9205358221201108
 30
0
 10
73.62364755301968
 20
1.156461624080133
 30
0
 10
73.54113558952004
 20
1.386156171040279
 30
0
 10
73.40531600847973
 20
1.681615529320164
 30
0
 10
73.18840065871987
 20
2.027304578860249
 30
0
 10
72.91498270669976
 20
2.330305423200055
 30
0
 10
72.66754114925976
 20
2.54130454654027
 30
0
 10
72.46870527311995
 20
2.682910316160114
 30
0
 10
72.25827724083967
 20
2.806520637900046
 30
0
 10
72.11128852541995
 20
2.876384762839971
 30
0
 10
72.03646758793971
 20
2.907983168020247
 30
0
  0
SPLINE
  5
375
100
AcDbEntity
  8
0
  6
CONTINUOUS
 62
    7
370
   -1
100
AcDbSpline
210
0
220
0
230
0
 70
    8
 71
    3
 72
   40
 73
   36
 74
    0
 42
1e-07
 43
1e-07
 40
0
 40
0
 40
0
 40
0
 40
0.031241567
 40
0.0625012204
 40
0.0937514958
 40
0.1249990259
 40
0.1562494528
 40
0.1875002893
 40
0.2187508509
 40
0.2500014098
 40
0.2812517859
 40
0.3125016964
 40
0.3437512275
 40
0.3750009816
 40
0.4062510444
 40
0.4375017651
 40
0.4687525408
 40
0.5000032632
 40
0.5312535362
 40
0.5625032323
 40
0.5937524574
 40
0.6250015741
 40
0.6562512605
 40
0.6875011234
 40
0.7187511901
 40
0.7500009417
 40
0.7812502322
 40
0.8124990148
 40
0.8437479384
 40
0.8593768086
 40
0.87500544
 40
0.9062522405
 40
0.9375008145
 40
0.9687593893000001
 40
1
 40
1
 40
1
 40
1
 10
70.03210683923976
 20
3.437507854460061
 30
0
 10
69.94437939213975
 20
3.410691365040004
 30
0
 10
69.77111438941982
 20
3.349375465320032
 30
0
 10
69.52023091353992
 20
3.235270798940088
 30
0
 10
69.28020606211973
 20
3.099722517839974
 30
0
 10
69.05293417477984
 20
2.943791082180108
 30
0
 10
68.84013821987976
 20
2.768611536679994
 30
0
 10
68.64348374399975
 20
2.575473474899961
 30
0
 10
68.46451241030003
 20
2.365840648040187
 30
0
 10
68.3046669260799
 20
2.141283822580145
 30
0
 10
68.16518715423977
 20
1.903540945259944
 30
0
 10
68.04724882014
 20
1.654410526580175
 30
0
 10
67.95176825925995
 20
1.395840380780281
 30
0
 10
67.8795842430998
 20
1.129821829760114
 30
0
 10
67.83128005471973
 20
0.8584447982203005
 30
0
 10
67.80730703941987
 20
0.5838414688401019
 30
0
 10
67.80790578091982
 20
0.3081916467600752
 30
0
 10
67.8331066296798
 20
0.03369464939997213
 30
0
 10
67.8827909931
 20
-0.2374399213599547
 30
0
 10
67.95656447013974
 20
-0.5030308227398352
 30
0
 10
68.05393087179993
 20
-0.7609065223798455
 30
0
 10
68.17410416967996
 20
-1.008977278459743
 30
0
 10
68.31619058095973
 20
-1.245185777339775
 30
0
 10
68.47905259457976
 20
-1.467583889819924
 30
0
 10
68.6614006423798
 20
-1.67431014133992
 30
0
 10
68.86177893605993
 20
-1.863609409679971
 30
0
 10
69.07854401687995
 20
-2.033901263659947
 30
0
 10
69.30994100137997
 20
-2.183684659800069
 30
0
 10
69.51340969527975
 20
-2.290392813159987
 30
0
 10
69.68148641525998
 20
-2.364262322519726
 30
0
 10
69.85276404323976
 20
-2.430354115660028
 30
0
 10
70.0722951637398
 20
-2.498098757919924
 30
0
 10
70.34207858403995
 20
-2.554799538599927
 30
0
 10
70.61591482579971
 20
-2.586340273079732
 30
0
 10
70.79969502973991
 20
-2.59044166695988
 30
0
 10
70.89139999999992
 20
-2.588225341699816
 30
0
  0
SPLINE
  5
376
100
AcDbEntity
  8
0
  6
CONTINUOUS
 62
    7
370
   -1
100
AcDbSpline
210
0
220
0
230
0
 70
    8
 71
    3
 72
   21
 73
   17
 74
    0
 42
1e-07
 43
1e-07
 40
0
 40
0
 40
0
 40
0
 40
0.124969576
 40
0.2499240359
 40
0.3124491811
 40
0.3749729952
 40
0.4374929857
 40
0.5000079246
 40
0.5625202805
 40
0.6250278243
 40
0.6875319481
 40
0.7500322104
 40
0.8125293959
 40
0.8750164543
 40
0.9374999271
 40
1
 40
1
 40
1
 40
1
 10
72.20113449761986
 20
3.273269099880191
 30
0
 10
72.03940361965999
 20
3.330672543620191
 30
0
 10
71.70599064411972
 20
3.419268048419961
 30
0
 10
71.27675831487994
 20
3.459878759680204
 30
0
 10
70.93326101355987
 20
3.449113114460142
 30
0
 10
70.67707885891986
 20
3.4193875503401
 30
0
 10
70.42437773363999
 20
3.367979794380015
 30
0
 10
70.17699821315971
 20
3.295177491420143
 30
0
 10
69.9368389220799
 20
3.201297021320253
 30
0
 10
69.70573567079978
 20
3.086945360259985
 30
0
 10
69.48555503674007
 20
2.952782390079984
 30
0
 10
69.27806565491986
 20
2.79973688972009
 30
0
 10
69.08504369653996
 20
2.628835539880266
 30
0
 10
68.90811432726004
 20
2.441340100800072
 30
0
 10
68.74888137673983
 20
2.238614697260143
 30
0
 10
68.65547174135992
 20
2.094283870860021
 30
0
 10
68.61220786801998
 20
2.02015663024002
 30
0
  0
SPLINE
  5
377
100
AcDbEntity
  8
0
  6
CONTINUOUS
 62
    7
370
   -1
100
AcDbSpline
210
0
220
0
230
0
 70
    8
 71
    3
 72
   31
 73
   27
 74
    0
 42
1e-07
 43
1e-07
 40
0
 40
0
 40
0
 40
0
 40
0.0624749771
 40
0.124951179
 40
0.187424693
 40
0.2498975277
 40
0.3123717078
 40
0.3748466417
 40
0.4061114151
 40
0.4373756953
 40
0.4686392401
 40
0.4999026178
 40
0.5311665928
 40
0.562431138
 40
0.5936958517000001
 40
0.6249604313
 40
0.6562244906
 40
0.6874880273
 40
0.7187510488
 40
0.7500137602
 40
0.8124810487
 40
0.8749490958
 40
0.9062089567
 40
0.9374739539
 40
0.96874866
 40
1
 40
1
 40
1
 40
1
 10
14.22399999999969
 20
-2.588225341699812
 30
0
 10
14.38631990903984
 20
-2.584302395519956
 30
0
 10
14.71095227984007
 20
-2.549683064199983
 30
0
 10
15.18227976491995
 20
-2.418582137680006
 30
0
 10
15.62568771986003
 20
-2.211550931219805
 30
0
 10
16.02870022091975
 20
-1.93397127555997
 30
0
 10
16.37997246986004
 20
-1.59332300588001
 30
0
 10
16.62137721945975
 20
-1.264310196799842
 30
0
 10
16.7791917069798
 20
-0.9799801939598334
 30
0
 10
16.87927323147986
 20
-0.7573813071798137
 30
0
 10
16.9601673623
 20
-0.5271354354398463
 30
0
 10
17.02132128621984
 20
-0.2908736219598191
 30
0
 10
17.06219550723986
 20
-0.0502701890199555
 30
0
 10
17.0825110368398
 20
0.1929384914399881
 30
0
 10
17.08201447699987
 20
0.436996565680146
 30
0
 10
17.06072435194001
 20
0.6801244182599779
 30
0
 10
17.01869462903994
 20
0.9205358221201143
 30
0
 10
16.95624755301982
 20
1.156461624080136
 30
0
 10
16.87373558951981
 20
1.386156171040283
 30
0
 10
16.73791600847987
 20
1.681615529320168
 30
0
 10
16.52100065872001
 20
2.027304578860252
 30
0
 10
16.24758270669989
 20
2.330305423200058
 30
0
 10
16.00014114925989
 20
2.541304546540274
 30
0
 10
15.80130527311974
 20
2.682910316160117
 30
0
 10
15.59087724083982
 20
2.806520637900049
 30
0
 10
15.44388852541972
 20
2.876384762839975
 30
0
 10
15.36906758793985
 20
2.907983168020251
 30
0
  0
SPLINE
  5
378
100
AcDbEntity
  8
0
  6
CONTINUOUS
 62
    7
370
   -1
100
AcDbSpline
210
0
220
0
230
0
 70
    8
 71
    3
 72
   40
 73
   36
 74
    0
 42
1e-07
 43
1e-07
 40
0
 40
0
 40
0
 40
0
 40
0.031241567
 40
0.0625012204
 40
0.0937514958
 40
0.1249990259
 40
0.1562494528
 40
0.1875002893
 40
0.2187508509
 40
0.2500014098
 40
0.2812517859
 40
0.3125016964
 40
0.3437512275
 40
0.3750009816
 40
0.4062510444
 40
0.4375017651
 40
0.4687525408
 40
0.5000032632
 40
0.5312535362
 40
0.5625032323
 40
0.5937524574
 40
0.6250015741
 40
0.6562512605
 40
0.6875011234
 40
0.7187511901
 40
0.7500009417
 40
0.7812502322
 40
0.8124990148
 40
0.8437479384
 40
0.8593768086
 40
0.87500544
 40
0.9062522405
 40
0.9375008145
 40
0.9687593893000001
 40
1
 40
1
 40
1
 40
1
 10
13.3647068392399
 20
3.437507854460065
 30
0
 10
13.27697939213989
 20
3.410691365040008
 30
0
 10
13.10371438941996
 20
3.349375465320036
 30
0
 10
12.85283091353971
 20
3.235270798940092
 30
0
 10
12.61280606211987
 20
3.099722517839978
 30
0
 10
12.38553417477998
 20
2.943791082180112
 30
0
 10
12.1727382198799
 20
2.768611536679997
 30
0
 10
11.97608374399989
 20
2.575473474899964
 30
0
 10
11.79711241029982
 20
2.36584064804019
 30
0
 10
11.63726692607969
 20
2.141283822580148
 30
0
 10
11.49778715423992
 20
1.903540945259947
 30
0
 10
11.37984882013978
 20
1.654410526580178
 30
0
 10
11.28436825925974
 20
1.395840380780285
 30
0
 10
11.21218424309994
 20
1.129821829760117
 30
0
 10
11.16388005471987
 20
0.8584447982203036
 30
0
 10
11.13990703942001
 20
0.583841468840105
 30
0
 10
11.14050578091997
 20
0.3081916467600783
 30
0
 10
11.16570662967995
 20
0.03369464939997524
 30
0
 10
11.21539099309979
 20
-0.2374399213599512
 30
0
 10
11.28916447013989
 20
-0.5030308227398317
 30
0
 10
11.38653087179972
 20
-0.7609065223798419
 30
0
 10
11.50670416967974
 20
-1.00897727845974
 30
0
 10
11.64879058095988
 20
-1.245185777339771
 30
0
 10
11.8116525945799
 20
-1.467583889819921
 30
0
 10
11.99400064237994
 20
-1.674310141339917
 30
0
 10
12.19437893605972
 20
-1.863609409679967
 30
0
 10
12.41114401687973
 20
-2.033901263659943
 30
0
 10
12.64254100137974
 20
-2.183684659800066
 30
0
 10
12.84600969527989
 20
-2.290392813159984
 30
0
 10
13.01408641525977
 20
-2.364262322519722
 30
0
 10
13.1853640432399
 20
-2.430354115660024
 30
0
 10
13.40489516373992
 20
-2.49809875791992
 30
0
 10
13.67467858403973
 20
-2.554799538599924
 30
0
 10
13.94851482579985
 20
-2.586340273079728
 30
0
 10
14.13229502973969
 20
-2.590441666959877
 30
0
 10
14.22399999999969
 20
-2.588225341699812
 30
0
  0
SPLINE
  5
379
100
AcDbEntity
  8
0
  6
CONTINUOUS
 62
    7
370
   -1
100
AcDbSpline
210
0
220
0
230
0
 70
    8
 71
    3
 72
   21
 73
   17
 74
    0
 42
1e-07
 43
1e-07
 40
0
 40
0
 40
0
 40
0
 40
0.124969576
 40
0.2499240359
 40
0.3124491811
 40
0.3749729952
 40
0.4374929857
 40
0.5000079246
 40
0.5625202805
 40
0.6250278243
 40
0.6875319481
 40
0.7500322104
 40
0.8125293959
 40
0.8750164543
 40
0.9374999271
 40
1
 40
1
 40
1
 40
1
 10
15.53373449762
 20
3.273269099880195
 30
0
 10
15.37200361965976
 20
3.330672543620195
 30
0
 10
15.03859064411986
 20
3.419268048419965
 30
0
 10
14.60935831487973
 20
3.459878759680207
 30
0
 10
14.26586101356001
 20
3.449113114460146
 30
0
 10
14.00967885891998
 20
3.419387550340104
 30
0
 10
13.75697773363976
 20
3.367979794380019
 30
0
 10
13.50959821315985
 20
3.295177491420147
 30
0
 10
13.26943892208004
 20
3.201297021320257
 30
0
 10
13.03833567079992
 20
3.086945360259988
 30
0
 10
12.81815503673984
 20
2.952782390079988
 30
0
 10
12.61066565492001
 20
2.799736889720093
 30
0
 10
12.41764369653974
 20
2.62883553988027
 30
0
 10
12.24071432725982
 20
2.441340100800075
 30
0
 10
12.08148137673997
 20
2.238614697260146
 30
0
 10
11.9880717413597
 20
2.094283870860024
 30
0
 10
11.94480786801977
 20
2.020156630240023
 30
0
  0
LINE
  5
37A
100
AcDbEntity
  8
0
  6
CONTINUOUS
 62
    9
370
   -1
100
AcDbLine
 10
84.93340000077998
 20
0.4000000001002437
 11
85.9333999997597
 21
1.200000000300031
  0
LINE
  5
37B
100
AcDbEntity
  8
0
  6
CONTINUOUS
 62
    9
370
   -1
100
AcDbLine
 10
93.73340000043977
 20
11.20000000026023
 11
92.93340000023998
 21
10.19999999874011
  0
LINE
  5
37C
100
AcDbEntity
  8
0
  6
CONTINUOUS
 62
    9
370
   -1
100
AcDbLine
 10
84.93340000077998
 20
10.99999999894025
 11
85.9333999997597
 21
10.19999999874011
  0
LINE
  5
37D
100
AcDbEntity
  8
0
  6
CONTINUOUS
 62
    9
370
   -1
100
AcDbLine
 10
85.13339999955991
 20
11.20000000026023
 11
85.9333999997597
 21
10.19999999874011
  0
LINE
  5
37E
100
AcDbEntity
  8
0
  6
CONTINUOUS
 62
    9
370
   -1
100
AcDbLine
 10
93.93339999922006
 20
10.99999999894025
 11
92.93340000023998
 21
10.19999999874011
  0
LINE
  5
37F
100
AcDbEntity
  8
0
  6
CONTINUOUS
 62
    9
370
   -1
100
AcDbLine
 10
93.93339999922006
 20
0.4000000001002433
 11
92.93340000023998
 21
1.200000000300031
  0
LINE
  5
380
100
AcDbEntity
  8
0
  6
CONTINUOUS
 62
    9
370
   -1
100
AcDbLine
 10
93.73340000043977
 20
0.1999999987802794
 11
92.93340000023998
 21
1.200000000300031
  0
LINE
  5
381
100
AcDbEntity
  8
0
  6
CONTINUOUS
 62
    9
370
   -1
100
AcDbLine
 10
85.13339999955991
 20
0.1999999987802799
 11
85.9333999997597
 21
1.200000000300031
  0
LINE
  5
382
100
AcDbEntity
  8
0
  6
CONTINUOUS
 62
    7
370
   -1
100
AcDbLine
 10
56.73288204835984
 20
6.644999999280042
 11
56.78662537241983
 21
6.654817800320028
  0
LINE
  5
383
100
AcDbEntity
  8
0
  6
CONTINUOUS
 62
    7
370
   -1
100
AcDbLine
 10
56.88535501747974
 20
6.794782628340183
 11
56.87579863577976
 21
6.850705633079965
  0
LINE
  5
384
100
AcDbEntity
  8
0
  6
CONTINUOUS
 62
    7
370
   -1
100
AcDbLine
 10
56.78682817363979
 20
6.940107148459969
 11
56.73288204073971
 21
6.94999999888017
  0
LINE
  5
385
100
AcDbEntity
  8
0
  6
CONTINUOUS
 62
    7
370
   -1
100
AcDbLine
 10
56.73288207121989
 20
2.669999999080243
 11
56.78662536480006
 21
2.679817792500113
  0
LINE
  5
386
100
AcDbEntity
  8
0
  6
CONTINUOUS
 62
    7
370
   -1
100
AcDbLine
 10
56.88535501747974
 20
2.819782630680091
 11
56.87579863577976
 21
2.87570563288018
  0
LINE
  5
387
100
AcDbEntity
  8
0
  6
CONTINUOUS
 62
    7
370
   -1
100
AcDbLine
 10
56.78682816093992
 20
2.965107158419993
 11
56.73288207121989
 21
2.97499999868003
  0
LINE
  5
388
100
AcDbEntity
  8
0
  6
CONTINUOUS
 62
    7
370
   -1
100
AcDbLine
 10
46.63788205043993
 20
6.949999998880171
 11
46.58413871368009
 21
6.94018219784017
  0
LINE
  5
389
100
AcDbEntity
  8
0
  6
CONTINUOUS
 62
    7
370
   -1
100
AcDbLine
 10
46.4854090736999
 20
6.800217364739933
 11
46.49496545539988
 21
6.744294365080248
  0
LINE
  5
38A
100
AcDbEntity
  8
0
  6
CONTINUOUS
 62
    7
370
   -1
100
AcDbLine
 10
46.58393592515999
 20
6.654892847160196
 11
46.6378820428198
 21
6.644999999280043
  0
LINE
  5
38B
100
AcDbEntity
  8
0
  6
CONTINUOUS
 62
    7
370
   -1
100
AcDbLine
 10
46.63788202249981
 20
2.974999998680031
 11
46.58413872892
 21
2.96518220526016
  0
LINE
  5
38C
100
AcDbEntity
  8
0
  6
CONTINUOUS
 62
    7
370
   -1
100
AcDbLine
 10
46.4854090736999
 20
2.825217367080183
 11
46.49496545539988
 21
2.769294367420142
  0
LINE
  5
38D
100
AcDbEntity
  8
0
  6
CONTINUOUS
 62
    7
370
   -1
100
AcDbLine
 10
46.58393593277977
 20
2.679892839340281
 11
46.63788202249981
 21
2.669999999080244
  0
ELLIPSE
  5
38E
100
AcDbEntity
  8
0
  6
CONTINUOUS
 62
    7
370
   -1
100
AcDbEllipse
 10
51.38416400057994
 20
6.224999998539953
 30
0
 11
-1.47629103776
 21
9.039675470013542e-17
 31
0
 40
0.8467165139000001
 41
4.902250968679622
 42
4.983751145379498
  0
ELLIPSE
  5
38F
100
AcDbEntity
  8
0
  6
CONTINUOUS
 62
    7
370
   -1
100
AcDbEllipse
 10
49.48659909112003
 20
6.224999998539954
 30
0
 11
-1.47629104284
 21
9.03967550111957e-17
 31
0
 40
0.8467165101
 41
4.441025638979649
 42
4.522526992079549
  0
ELLIPSE
  5
390
100
AcDbEntity
  8
0
  6
CONTINUOUS
 62
    7
370
   -1
100
AcDbEllipse
 10
53.88416400183985
 20
6.224999998539953
 30
0
 11
-1.47629103776
 21
9.039675470013542e-17
 31
0
 40
0.8467165139000001
 41
4.902250968679632
 42
4.983751145379509
  0
ELLIPSE
  5
391
100
AcDbEntity
  8
0
  6
CONTINUOUS
 62
    7
370
   -1
100
AcDbEllipse
 10
51.98659909237992
 20
6.224999998539953
 30
0
 11
-1.47629103014
 21
9.039675423354499e-17
 31
0
 40
0.8467165172
 41
4.441025638579697
 42
4.522526992079521
  0
ENDBLK
  5
5A
330
58
100
AcDbEntity
  8
0
100
AcDbBlockEnd
  0
BLOCK
  5
5C
330
5B
100
AcDbEntity
  8
0
100
AcDbBlockBegin
  2
sma
 70
    0
 10
0
 20
0
  3
sma
  1

  0
ARC
  5
392
100
AcDbEntity
  8
0
  6
ByLayer
 62
  256
370
   -1
100
AcDbCircle
 10
0
 20
0
 40
3.2
100
AcDbArc
 50
205.0078332346851
 51
154.9921667653149
  0
LINE
  5
393
100
AcDbEntity
  8
0
  6
ByLayer
 62
  256
370
   -1
100
AcDbLine
 10
-2.900000000000006
 20
1.352774925846859
 11
-2.900000000000006
 21
-1.352774925846859
  0
MTEXT
  5
394
100
AcDbEntity
  8
LABELS
  6
ByLayer
 62
  256
370
   -1
100
AcDbMText
 10
0.09999999999999432
 20
0
 30
0
 40
1
 41
2.555555343553406
 71
    5
 72
    1
  1
SMA
  7
standard
210
0
220
0
230
1
 50
0
 73
    2
 44
1
  0
CIRCLE
  5
395
100
AcDbEntity
  8
MOUNTING_CLEARANCE
  6
DOTTINY
 62
  256
370
   -1
100
AcDbCircle
 10
0
 20
0
 40
4.61
  0
LINE
  5
396
100
AcDbEntity
  8
MOUNTING_CLEARANCE
  6
ByLayer
 62
  256
370
   -1
100
AcDbLine
 10
-3.992244180648868
 20
2.305230227564074
 11
0
 21
4.61000000000001
  0
LINE
  5
397
100
AcDbEntity
  8
MOUNTING_CLEARANCE
  6
ByLayer
 62
  256
370
   -1
100
AcDbLine
 10
0.0002658483178379356
 20
-4.609999992334551
 11
3.992377111446274
 21
-2.30500000000001
  0
LINE
  5
398
100
AcDbEntity
  8
MOUNTING_CLEARANCE
  6
ByLayer
 62
  256
370
   -1
100
AcDbLine
 10
-3.99237711144626
 20
-2.305
 11
0.0002658483178379356
 21
-4.609999992334551
  0
LINE
  5
399
100
AcDbEntity
  8
MOUNTING_CLEARANCE
  6
ByLayer
 62
  256
370
   -1
100
AcDbLine
 10
-3.99237711144626
 20
-2.305
 11
-3.992244180648868
 21
2.305230227564074
  0
LINE
  5
39A
100
AcDbEntity
  8
MOUNTING_CLEARANCE
  6
ByLayer
 62
  256
370
   -1
100
AcDbLine
 10
3.99237711144626
 20
2.305
 11
3.992377111446274
 21
-2.30500000000001
  0
LINE
  5
39B
100
AcDbEntity
  8
MOUNTING_CLEARANCE
  6
ByLayer
 62
  256
370
   -1
100
AcDbLine
 10
3.99237711144626
 20
2.305
 11
0
 21
4.61000000000001
  0
ENDBLK
  5
5D
330
5B
100
AcDbEntity
  8
0
100
AcDbBlockEnd
  0
ENDSEC
  0
SECTION
  2
ENTITIES
  0
INSERT
  5
39C
100
AcDbEntity
  8
0
  6
ByLayer
 62
  256
370
   -1
100
AcDbBlockReference
  2
fischer-bgt-tfp-kn1
 10
3
 20
7.45
 30
0
 41
1
 42
1
 43
0
 50
90
 70
    1
 71
    1
 44
0
 45
0
  0
INSERT
  5
39D
100
AcDbEntity
  8
0
  6
ByLayer
 62
  256
370
   -1
100
AcDbBlockReference
  2
fischer-bgt-tfp-kn1
 10
125.4
 20
7.45
 30
0
 41
1
 42
1
 43
0
 50
90
 70
    1
 71
    1
 44
1
 45
1
  0
INSERT
  5
39E
100
AcDbEntity
  8
DRILLS
  6
ByLayer
 62
  256
370
   -1
100
AcDbBlockReference
  2
b210-usb-side
 10
14.2
 20
9.030000000000001
 30
0
 41
1
 42
1
 43
0
 50
0
 70
    1
 71
    1
 44
0
 45
0
  0
CIRCLE
  5
39F
100
AcDbEntity
  8
DRILLS
  6
ByLayer
 62
  256
370
   -1
100
AcDbCircle
 10
28.42357651849981
 20
9.411018318480258
 40
3.25
  0
CIRCLE
  5
3A0
100
AcDbEntity
  8
DRILLS
  6
ByLayer
 62
  256
370
   -1
100
AcDbCircle
 10
48.36257651849972
 20
9.411018318480256
 40
3.25
  0
CIRCLE
  5
3A1
100
AcDbEntity
  8
DRILLS
  6
ByLayer
 62
  256
370
   -1
100
AcDbCircle
 10
85.09097651850003
 20
9.411018318480254
 40
3.25
  0
LWPOLYLINE
  5
3A2
100
AcDbEntity
  8
DRILLS
  6
ByLayer
 62
  256
370
   -1
100
AcDbPolyline
 90
    4
 70
    1
 43
0
 10
59.3
 20
8.880000000000001
 10
72.5
 20
8.880000000000001
 10
72.5
 20
22.28
 10
59.3
 20
22.28
  0
LWPOLYLINE
  5
3A3
100
AcDbEntity
  8
DRILLS
  6
ByLayer
 62
  256
370
   -1
100
AcDbPolyline
 90
    4
 70
    1
 43
0
 10
98.90000000000001
 20
8.880000000000001
 10
108.3
 20
8.880000000000001
 10
108.3
 20
20.38
 10
98.90000000000001
 20
20.38
  0
LINE
  5
3A4
100
AcDbEntity
  8
PCB_TOP
  6
ByLayer
 62
  256
370
   -1
100
AcDbLine
 10
14.2
 20
9.030000000000001
 11
114.2
 21
9.030000000000001
  0
INSERT
  5
3A5
100
AcDbEntity
  8
DRILLS
  6
ByLayer
 62
  256
370
   -1
100
AcDbBlockReference
  2
sma
 10
29
 20
28
 30
0
 41
1
 42
1
 43
0
 50
0
 70
    1
 71
    1
 44
1
 45
1
  0
INSERT
  5
3A6
100
AcDbEntity
  8
DRILLS
  6
ByLayer
 62
  256
370
   -1
100
AcDbBlockReference
  2
sma
 10
80
 20
28
 30
0
 41
1
 42
1
 43
0
 50
0
 70
    1
 71
    1
 44
0
 45
0
  0
CIRCLE
  5
3A7
100
AcDbEntity
  8
DRILLS
  6
ByLayer
 62
  256
370
   -1
100
AcDbCircle
 10
35.7
 20
13.53
 40
1.6
  0
CIRCLE
  5
3A8
100
AcDbEntity
  8
DRILLS
  6
ByLayer
 62
  256
370
   -1
100
AcDbCircle
 10
92.649
 20
13.53
 40
1.6
  0
CIRCLE
  5
3A9
100
AcDbEntity
  8
DRILLS
  6
ByLayer
 62
  256
370
   -1
100
AcDbCircle
 10
73
 20
33
 40
1.625
  0
CIRCLE
  5
3AA
100
AcDbEntity
  8
DRILLS
  6
ByLayer
 62
  256
370
   -1
100
AcDbCircle
 10
22
 20
33
 40
1.625
  0
INSERT
  5
3AB
100
AcDbEntity
  8
DRILLS
  6
ByLayer
 62
  256
370
   -1
100
AcDbBlockReference
  2
sma
 10
100
 20
28
 30
0
 41
1
 42
1
 43
0
 50
0
 70
    1
 71
    1
 44
1
 45
1
  0
CIRCLE
  5
3AC
100
AcDbEntity
  8
DRILLS
  6
ByLayer
 62
  256
370
   -1
100
AcDbCircle
 10
93
 20
33
 40
1.625
  0
INSERT
  5
3AD
100
AcDbEntity
  8
DRILLS
  6
ByLayer
 62
  256
370
   -1
100
AcDbBlockReference
  2
sma
 10
49
 20
28
 30
0
 41
1
 42
1
 43
0
 50
0
 70
    1
 71
    1
 44
1
 45
1
  0
INSERT
  5
3AE
100
AcDbEntity
  8
DRILLS
  6
ByLayer
 62
  256
370
   -1
100
AcDbBlockReference
  2
sma
 10
49
 20
28
 30
0
 41
1
 42
1
 43
0
 50
0
 70
    1
 71
    1
 44
1
 45
1
  0
CIRCLE
  5
3AF
100
AcDbEntity
  8
DRILLS
  6
ByLayer
 62
  256
370
   -1
100
AcDbCircle
 10
42
 20
33
 40
1.625
  0
LWPOLYLINE
  5
3B0
100
AcDbEntity
  8
0
  6
ByLayer
 62
  256
370
   -1
100
AcDbPolyline
 90
    8
 70
    1
 43
0
 10
0.25
 20
0
 10
128.15
 20
0
 42
0.4142135623730617
 10
128.4
 20
0.25
 10
128.4
 20
40.09
 42
0.414213562373095
 10
128.15
 20
40.34
 10
0.25
 20
40.34
 42
0.414213562373095
 10
0
 20
40.09
 10
0
 20
0.2500000000000001
 42
0.414213562373095
  0
INSERT
  5
3B1
100
AcDbEntity
  8
0
  6
ByLayer
 62
  256
370
   -1
100
AcDbBlockReference
  2
fischer-bgt-tfp-kn1
 10
3
 20
32.85000000000001
 30
0
 41
1
 42
1
 43
0
 50
90
 70
    1
 71
    1
 44
1
 45
1
  0
INSERT
  5
3B2
100
AcDbEntity
  8
0
  6
ByLayer
 62
  256
370
   -1
100
AcDbBlockReference
  2
fischer-bgt-tfp-kn1
 10
125.4
 20
32.85000000000001
 30
0
 41
1
 42
1
 43
0
 50
90
 70
    1
 71
    1
 44
1
 45
1
  0
ENDSEC
  0
SECTION
  2
OBJECTS
  0
DICTIONARY
  5
C
330
0
100
AcDbDictionary
281
    1
  3
ACAD_GROUP
350
D
  0
DICTIONARY
  5
D
330
C
100
AcDbDictionary
281
    1
  0
ENDSEC
  0
EOF
