G75*
G70*
%OFA0B0*%
%FSLAX24Y24*%
%IPPOS*%
%LPD*%
%AMOC8*
5,1,8,0,0,1.08239X$1,22.5*
%
%ADD10C,0.0000*%
%ADD11C,0.0060*%
%ADD12C,0.0040*%
%ADD13C,0.0030*%
%ADD14C,0.0100*%
%ADD15C,0.0120*%
%ADD16C,0.0050*%
%ADD17R,0.0250X0.1000*%
%ADD18R,0.0250X0.0350*%
%ADD19C,0.0070*%
%ADD20C,0.0080*%
D10*
X000600Y000100D02*
X000600Y017096D01*
X013970Y017096D01*
X013970Y000100D01*
X000600Y000100D01*
X000970Y001100D02*
X000972Y001150D01*
X000978Y001200D01*
X000988Y001249D01*
X001002Y001297D01*
X001019Y001344D01*
X001040Y001389D01*
X001065Y001433D01*
X001093Y001474D01*
X001125Y001513D01*
X001159Y001550D01*
X001196Y001584D01*
X001236Y001614D01*
X001278Y001641D01*
X001322Y001665D01*
X001368Y001686D01*
X001415Y001702D01*
X001463Y001715D01*
X001513Y001724D01*
X001562Y001729D01*
X001613Y001730D01*
X001663Y001727D01*
X001712Y001720D01*
X001761Y001709D01*
X001809Y001694D01*
X001855Y001676D01*
X001900Y001654D01*
X001943Y001628D01*
X001984Y001599D01*
X002023Y001567D01*
X002059Y001532D01*
X002091Y001494D01*
X002121Y001454D01*
X002148Y001411D01*
X002171Y001367D01*
X002190Y001321D01*
X002206Y001273D01*
X002218Y001224D01*
X002226Y001175D01*
X002230Y001125D01*
X002230Y001075D01*
X002226Y001025D01*
X002218Y000976D01*
X002206Y000927D01*
X002190Y000879D01*
X002171Y000833D01*
X002148Y000789D01*
X002121Y000746D01*
X002091Y000706D01*
X002059Y000668D01*
X002023Y000633D01*
X001984Y000601D01*
X001943Y000572D01*
X001900Y000546D01*
X001855Y000524D01*
X001809Y000506D01*
X001761Y000491D01*
X001712Y000480D01*
X001663Y000473D01*
X001613Y000470D01*
X001562Y000471D01*
X001513Y000476D01*
X001463Y000485D01*
X001415Y000498D01*
X001368Y000514D01*
X001322Y000535D01*
X001278Y000559D01*
X001236Y000586D01*
X001196Y000616D01*
X001159Y000650D01*
X001125Y000687D01*
X001093Y000726D01*
X001065Y000767D01*
X001040Y000811D01*
X001019Y000856D01*
X001002Y000903D01*
X000988Y000951D01*
X000978Y001000D01*
X000972Y001050D01*
X000970Y001100D01*
X011970Y001100D02*
X011972Y001150D01*
X011978Y001200D01*
X011988Y001249D01*
X012002Y001297D01*
X012019Y001344D01*
X012040Y001389D01*
X012065Y001433D01*
X012093Y001474D01*
X012125Y001513D01*
X012159Y001550D01*
X012196Y001584D01*
X012236Y001614D01*
X012278Y001641D01*
X012322Y001665D01*
X012368Y001686D01*
X012415Y001702D01*
X012463Y001715D01*
X012513Y001724D01*
X012562Y001729D01*
X012613Y001730D01*
X012663Y001727D01*
X012712Y001720D01*
X012761Y001709D01*
X012809Y001694D01*
X012855Y001676D01*
X012900Y001654D01*
X012943Y001628D01*
X012984Y001599D01*
X013023Y001567D01*
X013059Y001532D01*
X013091Y001494D01*
X013121Y001454D01*
X013148Y001411D01*
X013171Y001367D01*
X013190Y001321D01*
X013206Y001273D01*
X013218Y001224D01*
X013226Y001175D01*
X013230Y001125D01*
X013230Y001075D01*
X013226Y001025D01*
X013218Y000976D01*
X013206Y000927D01*
X013190Y000879D01*
X013171Y000833D01*
X013148Y000789D01*
X013121Y000746D01*
X013091Y000706D01*
X013059Y000668D01*
X013023Y000633D01*
X012984Y000601D01*
X012943Y000572D01*
X012900Y000546D01*
X012855Y000524D01*
X012809Y000506D01*
X012761Y000491D01*
X012712Y000480D01*
X012663Y000473D01*
X012613Y000470D01*
X012562Y000471D01*
X012513Y000476D01*
X012463Y000485D01*
X012415Y000498D01*
X012368Y000514D01*
X012322Y000535D01*
X012278Y000559D01*
X012236Y000586D01*
X012196Y000616D01*
X012159Y000650D01*
X012125Y000687D01*
X012093Y000726D01*
X012065Y000767D01*
X012040Y000811D01*
X012019Y000856D01*
X012002Y000903D01*
X011988Y000951D01*
X011978Y001000D01*
X011972Y001050D01*
X011970Y001100D01*
X011970Y016100D02*
X011972Y016150D01*
X011978Y016200D01*
X011988Y016249D01*
X012002Y016297D01*
X012019Y016344D01*
X012040Y016389D01*
X012065Y016433D01*
X012093Y016474D01*
X012125Y016513D01*
X012159Y016550D01*
X012196Y016584D01*
X012236Y016614D01*
X012278Y016641D01*
X012322Y016665D01*
X012368Y016686D01*
X012415Y016702D01*
X012463Y016715D01*
X012513Y016724D01*
X012562Y016729D01*
X012613Y016730D01*
X012663Y016727D01*
X012712Y016720D01*
X012761Y016709D01*
X012809Y016694D01*
X012855Y016676D01*
X012900Y016654D01*
X012943Y016628D01*
X012984Y016599D01*
X013023Y016567D01*
X013059Y016532D01*
X013091Y016494D01*
X013121Y016454D01*
X013148Y016411D01*
X013171Y016367D01*
X013190Y016321D01*
X013206Y016273D01*
X013218Y016224D01*
X013226Y016175D01*
X013230Y016125D01*
X013230Y016075D01*
X013226Y016025D01*
X013218Y015976D01*
X013206Y015927D01*
X013190Y015879D01*
X013171Y015833D01*
X013148Y015789D01*
X013121Y015746D01*
X013091Y015706D01*
X013059Y015668D01*
X013023Y015633D01*
X012984Y015601D01*
X012943Y015572D01*
X012900Y015546D01*
X012855Y015524D01*
X012809Y015506D01*
X012761Y015491D01*
X012712Y015480D01*
X012663Y015473D01*
X012613Y015470D01*
X012562Y015471D01*
X012513Y015476D01*
X012463Y015485D01*
X012415Y015498D01*
X012368Y015514D01*
X012322Y015535D01*
X012278Y015559D01*
X012236Y015586D01*
X012196Y015616D01*
X012159Y015650D01*
X012125Y015687D01*
X012093Y015726D01*
X012065Y015767D01*
X012040Y015811D01*
X012019Y015856D01*
X012002Y015903D01*
X011988Y015951D01*
X011978Y016000D01*
X011972Y016050D01*
X011970Y016100D01*
X000970Y016100D02*
X000972Y016150D01*
X000978Y016200D01*
X000988Y016249D01*
X001002Y016297D01*
X001019Y016344D01*
X001040Y016389D01*
X001065Y016433D01*
X001093Y016474D01*
X001125Y016513D01*
X001159Y016550D01*
X001196Y016584D01*
X001236Y016614D01*
X001278Y016641D01*
X001322Y016665D01*
X001368Y016686D01*
X001415Y016702D01*
X001463Y016715D01*
X001513Y016724D01*
X001562Y016729D01*
X001613Y016730D01*
X001663Y016727D01*
X001712Y016720D01*
X001761Y016709D01*
X001809Y016694D01*
X001855Y016676D01*
X001900Y016654D01*
X001943Y016628D01*
X001984Y016599D01*
X002023Y016567D01*
X002059Y016532D01*
X002091Y016494D01*
X002121Y016454D01*
X002148Y016411D01*
X002171Y016367D01*
X002190Y016321D01*
X002206Y016273D01*
X002218Y016224D01*
X002226Y016175D01*
X002230Y016125D01*
X002230Y016075D01*
X002226Y016025D01*
X002218Y015976D01*
X002206Y015927D01*
X002190Y015879D01*
X002171Y015833D01*
X002148Y015789D01*
X002121Y015746D01*
X002091Y015706D01*
X002059Y015668D01*
X002023Y015633D01*
X001984Y015601D01*
X001943Y015572D01*
X001900Y015546D01*
X001855Y015524D01*
X001809Y015506D01*
X001761Y015491D01*
X001712Y015480D01*
X001663Y015473D01*
X001613Y015470D01*
X001562Y015471D01*
X001513Y015476D01*
X001463Y015485D01*
X001415Y015498D01*
X001368Y015514D01*
X001322Y015535D01*
X001278Y015559D01*
X001236Y015586D01*
X001196Y015616D01*
X001159Y015650D01*
X001125Y015687D01*
X001093Y015726D01*
X001065Y015767D01*
X001040Y015811D01*
X001019Y015856D01*
X001002Y015903D01*
X000988Y015951D01*
X000978Y016000D01*
X000972Y016050D01*
X000970Y016100D01*
D11*
X002680Y016137D02*
X002787Y016030D01*
X003000Y016030D01*
X003107Y016137D01*
X003107Y016564D01*
X003000Y016671D01*
X002787Y016671D01*
X002680Y016564D01*
X002680Y016137D01*
X002737Y015757D02*
X003057Y015757D01*
X003275Y015757D02*
X003275Y015437D01*
X003381Y015330D01*
X003702Y015330D01*
X003702Y015223D02*
X003595Y015116D01*
X003488Y015116D01*
X003702Y015223D02*
X003702Y015757D01*
X003919Y015650D02*
X004026Y015544D01*
X004239Y015544D01*
X004346Y015437D01*
X004239Y015330D01*
X003919Y015330D01*
X003919Y015650D02*
X004026Y015757D01*
X004346Y015757D01*
X004564Y015757D02*
X004670Y015757D01*
X004777Y015650D01*
X004884Y015757D01*
X004991Y015650D01*
X004991Y015330D01*
X004777Y015330D02*
X004777Y015650D01*
X004564Y015757D02*
X004564Y015330D01*
X004396Y016030D02*
X004396Y016671D01*
X004183Y016457D01*
X003969Y016671D01*
X003969Y016030D01*
X003752Y016030D02*
X003752Y016671D01*
X003752Y016350D02*
X003325Y016350D01*
X003325Y016030D02*
X003325Y016671D01*
X002737Y015757D02*
X002630Y015650D01*
X002737Y015544D01*
X002950Y015544D01*
X003057Y015437D01*
X002950Y015330D01*
X002630Y015330D01*
X004614Y016350D02*
X005041Y016350D01*
X004934Y016030D02*
X004934Y016671D01*
X004614Y016350D01*
X005208Y015650D02*
X005208Y015437D01*
X005315Y015330D01*
X005528Y015330D01*
X005635Y015437D01*
X005635Y015650D01*
X005528Y015757D01*
X005315Y015757D01*
X005208Y015650D01*
X005853Y015650D02*
X005853Y015437D01*
X005960Y015330D01*
X006280Y015330D01*
X006497Y015437D02*
X006604Y015330D01*
X006818Y015330D01*
X006924Y015437D01*
X006924Y015650D01*
X006818Y015757D01*
X006604Y015757D01*
X006497Y015650D01*
X006497Y015437D01*
X006280Y015757D02*
X005960Y015757D01*
X005853Y015650D01*
X006010Y016030D02*
X005903Y016137D01*
X005903Y016564D01*
X006010Y016671D01*
X006223Y016671D01*
X006330Y016564D01*
X006330Y016137D01*
X006223Y016030D01*
X006010Y016030D01*
X006547Y016137D02*
X006654Y016030D01*
X006868Y016030D01*
X006974Y016137D01*
X007192Y016030D02*
X007619Y016671D01*
X007836Y016564D02*
X007836Y016137D01*
X007943Y016030D01*
X008157Y016030D01*
X008263Y016137D01*
X008263Y016564D01*
X008157Y016671D01*
X007943Y016671D01*
X007836Y016564D01*
X007619Y016030D02*
X007192Y016671D01*
X006974Y016564D02*
X006868Y016671D01*
X006654Y016671D01*
X006547Y016564D01*
X006547Y016137D01*
X007142Y015757D02*
X007142Y015330D01*
X007355Y015330D02*
X007355Y015650D01*
X007462Y015757D01*
X007569Y015650D01*
X007569Y015330D01*
X007355Y015650D02*
X007249Y015757D01*
X007142Y015757D01*
X009125Y016457D02*
X009339Y016030D01*
X009553Y016457D01*
X009770Y016564D02*
X009877Y016671D01*
X010090Y016671D01*
X010197Y016564D01*
X010197Y016457D01*
X010090Y016350D01*
X010197Y016244D01*
X010197Y016137D01*
X010090Y016030D01*
X009877Y016030D01*
X009770Y016137D01*
X009984Y016350D02*
X010090Y016350D01*
X008150Y012750D02*
X007050Y012750D01*
X007033Y012748D01*
X007016Y012744D01*
X007000Y012737D01*
X006986Y012727D01*
X006973Y012714D01*
X006963Y012700D01*
X006956Y012684D01*
X006952Y012667D01*
X006950Y012650D01*
X006950Y012050D01*
X006952Y012033D01*
X006956Y012016D01*
X006963Y012000D01*
X006973Y011986D01*
X006986Y011973D01*
X007000Y011963D01*
X007016Y011956D01*
X007033Y011952D01*
X007050Y011950D01*
X008150Y011950D01*
X008167Y011952D01*
X008184Y011956D01*
X008200Y011963D01*
X008214Y011973D01*
X008227Y011986D01*
X008237Y012000D01*
X008244Y012016D01*
X008248Y012033D01*
X008250Y012050D01*
X008250Y012650D01*
X008248Y012667D01*
X008244Y012684D01*
X008237Y012700D01*
X008227Y012714D01*
X008214Y012727D01*
X008200Y012737D01*
X008184Y012744D01*
X008167Y012748D01*
X008150Y012750D01*
X008600Y011350D02*
X001600Y011350D01*
X001570Y011348D01*
X001540Y011343D01*
X001511Y011334D01*
X001484Y011321D01*
X001458Y011306D01*
X001434Y011287D01*
X001413Y011266D01*
X001394Y011242D01*
X001379Y011216D01*
X001366Y011189D01*
X001357Y011160D01*
X001352Y011130D01*
X001350Y011100D01*
X001350Y007100D01*
X001352Y007070D01*
X001357Y007040D01*
X001366Y007011D01*
X001379Y006984D01*
X001394Y006958D01*
X001413Y006934D01*
X001434Y006913D01*
X001458Y006894D01*
X001484Y006879D01*
X001511Y006866D01*
X001540Y006857D01*
X001570Y006852D01*
X001600Y006850D01*
X008600Y006850D01*
X008630Y006852D01*
X008660Y006857D01*
X008689Y006866D01*
X008716Y006879D01*
X008742Y006894D01*
X008766Y006913D01*
X008787Y006934D01*
X008806Y006958D01*
X008821Y006984D01*
X008834Y007011D01*
X008843Y007040D01*
X008848Y007070D01*
X008850Y007100D01*
X008850Y011100D01*
X008848Y011130D01*
X008843Y011160D01*
X008834Y011189D01*
X008821Y011216D01*
X008806Y011242D01*
X008787Y011266D01*
X008766Y011287D01*
X008742Y011306D01*
X008716Y011321D01*
X008689Y011334D01*
X008660Y011343D01*
X008630Y011348D01*
X008600Y011350D01*
X006100Y010600D02*
X005470Y010600D01*
X004730Y010600D02*
X004100Y010600D01*
X000600Y005350D02*
X000600Y003350D01*
X007600Y003350D01*
X007600Y005350D01*
X000600Y005350D01*
X003600Y002350D02*
X003600Y001850D01*
X003850Y001600D01*
X003600Y001350D01*
X003600Y000850D01*
X003850Y000600D01*
X004350Y000600D01*
X004600Y000850D01*
X004600Y001350D01*
X004350Y001600D01*
X003850Y001600D01*
X004350Y001600D02*
X004600Y001850D01*
X004600Y002350D01*
X004350Y002600D01*
X003850Y002600D01*
X003600Y002350D01*
X006100Y002350D02*
X006100Y001850D01*
X006350Y001600D01*
X006100Y001350D01*
X006100Y000850D01*
X006350Y000600D01*
X006850Y000600D01*
X007100Y000850D01*
X007100Y001350D01*
X006850Y001600D01*
X006350Y001600D01*
X006850Y001600D02*
X007100Y001850D01*
X007100Y002350D01*
X006850Y002600D01*
X006350Y002600D01*
X006100Y002350D01*
X008450Y002800D02*
X008450Y003900D01*
X008452Y003917D01*
X008456Y003934D01*
X008463Y003950D01*
X008473Y003964D01*
X008486Y003977D01*
X008500Y003987D01*
X008516Y003994D01*
X008533Y003998D01*
X008550Y004000D01*
X009150Y004000D01*
X009167Y003998D01*
X009184Y003994D01*
X009200Y003987D01*
X009214Y003977D01*
X009227Y003964D01*
X009237Y003950D01*
X009244Y003934D01*
X009248Y003917D01*
X009250Y003900D01*
X009250Y002800D01*
X009248Y002783D01*
X009244Y002766D01*
X009237Y002750D01*
X009227Y002736D01*
X009214Y002723D01*
X009200Y002713D01*
X009184Y002706D01*
X009167Y002702D01*
X009150Y002700D01*
X008550Y002700D01*
X008533Y002702D01*
X008516Y002706D01*
X008500Y002713D01*
X008486Y002723D01*
X008473Y002736D01*
X008463Y002750D01*
X008456Y002766D01*
X008452Y002783D01*
X008450Y002800D01*
D12*
X009261Y002357D02*
X009354Y002450D01*
X009354Y002170D01*
X009261Y002170D02*
X009448Y002170D01*
X009130Y001740D02*
X008670Y001740D01*
X008900Y001510D01*
X008900Y001817D01*
X009053Y001356D02*
X009130Y001279D01*
X009130Y001126D01*
X009053Y001049D01*
X008746Y001049D01*
X008670Y001126D01*
X008670Y001279D01*
X008746Y001356D01*
X010112Y002166D02*
X010299Y002353D01*
X010299Y002400D01*
X010252Y002447D01*
X010159Y002447D01*
X010112Y002400D01*
X010112Y002166D02*
X010299Y002166D01*
X010876Y001380D02*
X010799Y001304D01*
X010799Y000997D01*
X010876Y000920D01*
X011029Y000920D01*
X011106Y000997D01*
X011260Y000997D02*
X011336Y000920D01*
X011490Y000920D01*
X011567Y000997D01*
X011567Y001150D01*
X011490Y001227D01*
X011413Y001227D01*
X011260Y001150D01*
X011260Y001380D01*
X011567Y001380D01*
X011106Y001304D02*
X011029Y001380D01*
X010876Y001380D01*
X011069Y002170D02*
X011022Y002217D01*
X011069Y002170D02*
X011162Y002170D01*
X011209Y002217D01*
X011209Y002263D01*
X011162Y002310D01*
X011115Y002310D01*
X011162Y002310D02*
X011209Y002357D01*
X011209Y002404D01*
X011162Y002450D01*
X011069Y002450D01*
X011022Y002404D01*
X012097Y003590D02*
X012250Y003590D01*
X012327Y003667D01*
X012327Y004050D01*
X012480Y003897D02*
X012634Y004050D01*
X012634Y003590D01*
X012787Y003590D02*
X012480Y003590D01*
X012097Y003590D02*
X012020Y003667D01*
X012020Y004050D01*
X011510Y004870D02*
X011510Y005150D01*
X011370Y005010D01*
X011557Y005010D01*
X011577Y005670D02*
X011423Y005823D01*
X011500Y005823D02*
X011270Y005823D01*
X011270Y005670D02*
X011270Y006130D01*
X011500Y006130D01*
X011577Y006054D01*
X011577Y005900D01*
X011500Y005823D01*
X011730Y005670D02*
X012037Y005670D01*
X011884Y005670D02*
X011884Y006130D01*
X011730Y005977D01*
X012191Y006054D02*
X012191Y005747D01*
X012498Y006054D01*
X012498Y005747D01*
X012421Y005670D01*
X012268Y005670D01*
X012191Y005747D01*
X012191Y006054D02*
X012268Y006130D01*
X012421Y006130D01*
X012498Y006054D01*
X012240Y008070D02*
X012086Y008070D01*
X012010Y008147D01*
X012010Y008223D01*
X012086Y008300D01*
X012240Y008300D01*
X012317Y008223D01*
X012317Y008147D01*
X012240Y008070D01*
X012240Y008300D02*
X012317Y008377D01*
X012317Y008454D01*
X012240Y008530D01*
X012086Y008530D01*
X012010Y008454D01*
X012010Y008377D01*
X012086Y008300D01*
X011856Y008300D02*
X011779Y008223D01*
X011549Y008223D01*
X011549Y008070D02*
X011549Y008530D01*
X011779Y008530D01*
X011856Y008454D01*
X011856Y008300D01*
X011703Y008223D02*
X011856Y008070D01*
X010037Y008454D02*
X009730Y008147D01*
X009730Y008070D01*
X009577Y008070D02*
X009423Y008223D01*
X009500Y008223D02*
X009270Y008223D01*
X009270Y008070D02*
X009270Y008530D01*
X009500Y008530D01*
X009577Y008454D01*
X009577Y008300D01*
X009500Y008223D01*
X009730Y008530D02*
X010037Y008530D01*
X010037Y008454D01*
X008441Y008351D02*
X008441Y008811D01*
X008134Y008811D02*
X008441Y008351D01*
X008134Y008351D02*
X008134Y008811D01*
X007980Y008811D02*
X007827Y008811D01*
X007904Y008811D02*
X007904Y008351D01*
X007980Y008351D02*
X007827Y008351D01*
X007673Y008351D02*
X007443Y008581D01*
X007367Y008505D02*
X007673Y008811D01*
X007367Y008811D02*
X007367Y008351D01*
X007213Y008351D02*
X006906Y008351D01*
X006906Y008811D01*
X006753Y008735D02*
X006676Y008811D01*
X006522Y008811D01*
X006446Y008735D01*
X006446Y008428D01*
X006522Y008351D01*
X006676Y008351D01*
X006753Y008428D01*
X005939Y008947D02*
X005863Y008870D01*
X005632Y008870D01*
X005632Y009330D01*
X005863Y009330D01*
X005939Y009254D01*
X005939Y009177D01*
X005863Y009100D01*
X005632Y009100D01*
X005479Y009023D02*
X005402Y009100D01*
X005172Y009100D01*
X005172Y008947D01*
X005249Y008870D01*
X005402Y008870D01*
X005479Y008947D01*
X005479Y009023D01*
X005325Y009254D02*
X005172Y009100D01*
X005018Y009177D02*
X005018Y009254D01*
X004942Y009330D01*
X004788Y009330D01*
X004712Y009254D01*
X004558Y009254D02*
X004558Y009330D01*
X004251Y009330D01*
X004021Y009330D02*
X003791Y009100D01*
X004098Y009100D01*
X004251Y008947D02*
X004251Y008870D01*
X004251Y008947D02*
X004558Y009254D01*
X004712Y008870D02*
X005018Y009177D01*
X005018Y008870D02*
X004712Y008870D01*
X005325Y009254D02*
X005479Y009330D01*
X005863Y009100D02*
X005939Y009023D01*
X005939Y008947D01*
X004021Y008870D02*
X004021Y009330D01*
X003637Y009330D02*
X003330Y009330D01*
X003330Y009100D01*
X003484Y009177D01*
X003561Y009177D01*
X003637Y009100D01*
X003637Y008947D01*
X003561Y008870D01*
X003407Y008870D01*
X003330Y008947D01*
X003177Y008947D02*
X003100Y008870D01*
X002870Y008870D01*
X002870Y009330D01*
X003100Y009330D01*
X003177Y009254D01*
X003177Y008947D01*
X003247Y005930D02*
X003170Y005854D01*
X003170Y005547D01*
X003247Y005470D01*
X003400Y005470D01*
X003477Y005547D01*
X003630Y005470D02*
X003937Y005777D01*
X003937Y005854D01*
X003861Y005930D01*
X003707Y005930D01*
X003630Y005854D01*
X003477Y005854D02*
X003400Y005930D01*
X003247Y005930D01*
X003630Y005470D02*
X003937Y005470D01*
X001967Y002580D02*
X001660Y002580D01*
X001660Y002350D01*
X001813Y002427D01*
X001890Y002427D01*
X001967Y002350D01*
X001967Y002197D01*
X001890Y002120D01*
X001736Y002120D01*
X001660Y002197D01*
X001506Y002120D02*
X001353Y002273D01*
X001429Y002273D02*
X001199Y002273D01*
X001199Y002120D02*
X001199Y002580D01*
X001429Y002580D01*
X001506Y002504D01*
X001506Y002350D01*
X001429Y002273D01*
X007849Y004770D02*
X007849Y005230D01*
X008079Y005230D01*
X008156Y005154D01*
X008156Y005000D01*
X008079Y004923D01*
X007849Y004923D01*
X008003Y004923D02*
X008156Y004770D01*
X008310Y005000D02*
X008617Y005000D01*
X008540Y004770D02*
X008540Y005230D01*
X008310Y005000D01*
X009249Y005670D02*
X009249Y006130D01*
X009479Y006130D01*
X009556Y006054D01*
X009556Y005900D01*
X009479Y005823D01*
X009249Y005823D01*
X009403Y005823D02*
X009556Y005670D01*
X009710Y005747D02*
X009786Y005670D01*
X009940Y005670D01*
X010017Y005747D01*
X010017Y006054D01*
X009940Y006130D01*
X009786Y006130D01*
X009710Y006054D01*
X009710Y005977D01*
X009786Y005900D01*
X010017Y005900D01*
X011797Y010820D02*
X011950Y010820D01*
X012027Y010897D01*
X012027Y011280D01*
X012180Y011204D02*
X012257Y011280D01*
X012411Y011280D01*
X012487Y011204D01*
X012487Y011127D01*
X012180Y010820D01*
X012487Y010820D01*
X011797Y010820D02*
X011720Y010897D01*
X011720Y011280D01*
X011311Y011620D02*
X011387Y011697D01*
X011387Y011773D01*
X011311Y011850D01*
X011080Y011850D01*
X011080Y011697D01*
X011157Y011620D01*
X011311Y011620D01*
X011080Y011850D02*
X011234Y012004D01*
X011387Y012080D01*
X010927Y012004D02*
X010927Y011850D01*
X010850Y011773D01*
X010620Y011773D01*
X010620Y011620D02*
X010620Y012080D01*
X010850Y012080D01*
X010927Y012004D01*
X010773Y011773D02*
X010927Y011620D01*
X009472Y014479D02*
X009165Y014479D01*
X009089Y014556D01*
X009089Y014710D01*
X009165Y014786D01*
X009472Y014786D01*
X009549Y014710D01*
X009549Y014556D01*
X009472Y014479D01*
X009472Y014940D02*
X009549Y015017D01*
X009549Y015170D01*
X009472Y015247D01*
X009089Y015247D01*
X009089Y015400D02*
X009089Y015707D01*
X009089Y015554D02*
X009549Y015554D01*
X009472Y014940D02*
X009089Y014940D01*
X007937Y014804D02*
X007937Y014727D01*
X007861Y014650D01*
X007937Y014573D01*
X007937Y014497D01*
X007861Y014420D01*
X007707Y014420D01*
X007630Y014497D01*
X007477Y014497D02*
X007400Y014420D01*
X007247Y014420D01*
X007170Y014497D01*
X007170Y014804D01*
X007247Y014880D01*
X007400Y014880D01*
X007477Y014804D01*
X007630Y014804D02*
X007707Y014880D01*
X007861Y014880D01*
X007937Y014804D01*
X007861Y014650D02*
X007784Y014650D01*
X006687Y014727D02*
X006687Y014804D01*
X006611Y014880D01*
X006457Y014880D01*
X006380Y014804D01*
X006227Y014804D02*
X006227Y014650D01*
X006150Y014573D01*
X005920Y014573D01*
X005920Y014420D02*
X005920Y014880D01*
X006150Y014880D01*
X006227Y014804D01*
X006073Y014573D02*
X006227Y014420D01*
X006380Y014420D02*
X006687Y014727D01*
X006687Y014420D02*
X006380Y014420D01*
X006830Y013337D02*
X006830Y013030D01*
X006830Y012877D02*
X006677Y012723D01*
X006677Y012800D02*
X006677Y012570D01*
X006830Y012570D02*
X006370Y012570D01*
X006370Y012800D01*
X006446Y012877D01*
X006600Y012877D01*
X006677Y012800D01*
X006523Y013030D02*
X006370Y013184D01*
X006830Y013184D01*
X010739Y015197D02*
X010816Y015120D01*
X010969Y015120D01*
X011046Y015197D01*
X011046Y015273D01*
X010969Y015350D01*
X010816Y015350D01*
X010739Y015427D01*
X010739Y015504D01*
X010816Y015580D01*
X010969Y015580D01*
X011046Y015504D01*
X011199Y015580D02*
X011353Y015427D01*
X011506Y015580D01*
X011506Y015120D01*
X011660Y015120D02*
X011660Y015427D01*
X011813Y015580D01*
X011967Y015427D01*
X011967Y015120D01*
X011967Y015350D02*
X011660Y015350D01*
X011199Y015120D02*
X011199Y015580D01*
X001830Y012887D02*
X001830Y012580D01*
X001830Y012734D02*
X001370Y012734D01*
X001523Y012580D01*
X001446Y012427D02*
X001370Y012350D01*
X001370Y012197D01*
X001446Y012120D01*
X001753Y012120D01*
X001830Y012197D01*
X001830Y012350D01*
X001753Y012427D01*
D13*
X009571Y011036D02*
X009935Y011036D01*
X009935Y010915D02*
X009935Y011158D01*
X009692Y010915D02*
X009571Y011036D01*
X006536Y003068D02*
X006536Y002826D01*
X006415Y002947D02*
X006658Y002947D01*
X005622Y001229D02*
X005440Y001229D01*
X005440Y000865D01*
X005622Y000865D01*
X005683Y000926D01*
X005683Y001168D01*
X005622Y001229D01*
X005320Y001229D02*
X005320Y000865D01*
X005078Y001229D01*
X005078Y000865D01*
X004958Y000926D02*
X004958Y001047D01*
X004836Y001047D01*
X004715Y000926D02*
X004776Y000865D01*
X004897Y000865D01*
X004958Y000926D01*
X004958Y001168D02*
X004897Y001229D01*
X004776Y001229D01*
X004715Y001168D01*
X004715Y000926D01*
X004036Y002826D02*
X004036Y003068D01*
X003915Y002947D02*
X004158Y002947D01*
D14*
X001100Y006600D02*
X001100Y011100D01*
X001102Y011144D01*
X001108Y011187D01*
X001117Y011229D01*
X001130Y011271D01*
X001147Y011311D01*
X001167Y011350D01*
X001190Y011387D01*
X001217Y011421D01*
X001246Y011454D01*
X001279Y011483D01*
X001313Y011510D01*
X001350Y011533D01*
X001389Y011553D01*
X001429Y011570D01*
X001471Y011583D01*
X001513Y011592D01*
X001556Y011598D01*
X001600Y011600D01*
X008600Y011600D01*
X008644Y011598D01*
X008687Y011592D01*
X008729Y011583D01*
X008771Y011570D01*
X008811Y011553D01*
X008850Y011533D01*
X008887Y011510D01*
X008921Y011483D01*
X008954Y011454D01*
X008983Y011421D01*
X009010Y011387D01*
X009033Y011350D01*
X009053Y011311D01*
X009070Y011271D01*
X009083Y011229D01*
X009092Y011187D01*
X009098Y011144D01*
X009100Y011100D01*
X009100Y007100D01*
X009098Y007056D01*
X009092Y007013D01*
X009083Y006971D01*
X009070Y006929D01*
X009053Y006889D01*
X009033Y006850D01*
X009010Y006813D01*
X008983Y006779D01*
X008954Y006746D01*
X008921Y006717D01*
X008887Y006690D01*
X008850Y006667D01*
X008811Y006647D01*
X008771Y006630D01*
X008729Y006617D01*
X008687Y006608D01*
X008644Y006602D01*
X008600Y006600D01*
X001100Y006600D01*
D15*
X004730Y010100D02*
X004730Y010600D01*
X004730Y011100D01*
X004970Y011100D02*
X005220Y011100D01*
X005220Y010100D01*
X004970Y010100D01*
X004970Y011100D01*
X005470Y011100D02*
X005470Y010600D01*
X005470Y010100D01*
D16*
X005146Y011815D02*
X004846Y011815D01*
X004996Y011815D02*
X004996Y012265D01*
X004846Y012115D01*
X004686Y012040D02*
X004686Y011890D01*
X004611Y011815D01*
X004460Y011815D01*
X004385Y011890D01*
X004385Y012190D01*
X004460Y012265D01*
X004611Y012265D01*
X004686Y012190D01*
X004686Y012040D02*
X004536Y012040D01*
X004225Y011890D02*
X004150Y011815D01*
X004000Y011815D01*
X003925Y011890D01*
X003925Y012190D01*
X004000Y012265D01*
X004150Y012265D01*
X004225Y012190D01*
X004225Y011890D01*
X004225Y011815D02*
X004075Y011965D01*
X005875Y012100D02*
X005950Y012025D01*
X006100Y012025D01*
X006175Y012100D01*
X006175Y012175D01*
X006100Y012250D01*
X005950Y012250D01*
X005875Y012325D01*
X005875Y012400D01*
X005950Y012475D01*
X006100Y012475D01*
X006175Y012400D01*
X006486Y012475D02*
X006636Y012475D01*
X006561Y012475D02*
X006561Y012100D01*
X006486Y012025D01*
X006410Y012025D01*
X006335Y012100D01*
X006796Y012025D02*
X007096Y012325D01*
X007096Y012400D01*
X007021Y012475D01*
X006871Y012475D01*
X006796Y012400D01*
X006796Y012025D02*
X007096Y012025D01*
X007009Y010191D02*
X007009Y010112D01*
X007009Y010191D02*
X007285Y010191D01*
X007915Y010191D02*
X008191Y010191D01*
X008191Y010112D01*
X008191Y009088D02*
X008191Y009009D01*
X007009Y009009D01*
X007009Y009088D01*
X008759Y013009D02*
X008838Y013009D01*
X008759Y013009D02*
X008759Y013285D01*
X008759Y013915D02*
X008759Y014191D01*
X008838Y014191D01*
X009862Y014191D02*
X009941Y014191D01*
X009941Y013009D01*
X009862Y013009D01*
X002875Y006975D02*
X002575Y006975D01*
X002725Y006975D02*
X002725Y007425D01*
X002575Y007275D01*
X005480Y002156D02*
X005555Y002156D01*
X005630Y002081D01*
X005705Y002156D01*
X005780Y002156D01*
X005855Y002081D01*
X005855Y001930D01*
X005780Y001855D01*
X005855Y001695D02*
X005405Y001395D01*
X005405Y001695D02*
X005855Y001395D01*
X005480Y001855D02*
X005405Y001930D01*
X005405Y002081D01*
X005480Y002156D01*
X005630Y002081D02*
X005630Y002006D01*
X003355Y001981D02*
X002905Y001981D01*
X003130Y001755D01*
X003130Y002056D01*
X003355Y001595D02*
X002905Y001295D01*
X002905Y001595D02*
X003355Y001295D01*
X007925Y002500D02*
X008000Y002425D01*
X008075Y002425D01*
X008150Y002500D01*
X008150Y002650D01*
X008225Y002725D01*
X008300Y002725D01*
X008375Y002650D01*
X008375Y002500D01*
X008300Y002425D01*
X008000Y002725D02*
X007925Y002650D01*
X007925Y002500D01*
X007925Y003036D02*
X007925Y003186D01*
X007925Y003111D02*
X008300Y003111D01*
X008375Y003036D01*
X008375Y002960D01*
X008300Y002885D01*
X008375Y003346D02*
X008375Y003646D01*
X008375Y003496D02*
X007925Y003496D01*
X008075Y003346D01*
D17*
X000475Y004350D03*
D18*
X000225Y004025D03*
X000225Y004675D03*
D19*
X007185Y005435D02*
X007185Y006066D01*
X007500Y006066D01*
X007605Y005960D01*
X007605Y005750D01*
X007500Y005645D01*
X007185Y005645D01*
X007395Y005645D02*
X007605Y005435D01*
X007830Y005540D02*
X007935Y005435D01*
X008145Y005435D01*
X008250Y005540D01*
X008250Y005645D01*
X008145Y005750D01*
X008040Y005750D01*
X008145Y005750D02*
X008250Y005855D01*
X008250Y005960D01*
X008145Y006066D01*
X007935Y006066D01*
X007830Y005960D01*
D20*
X009310Y004550D02*
X011890Y004550D01*
X011890Y003150D01*
X009310Y003150D01*
X009310Y004550D01*
X010917Y012340D02*
X011783Y012340D01*
X012610Y013167D02*
X012610Y014033D01*
X011783Y014860D02*
X010917Y014860D01*
X010090Y014033D02*
X010090Y013167D01*
X010681Y013600D02*
X010683Y013651D01*
X010689Y013702D01*
X010699Y013752D01*
X010712Y013802D01*
X010730Y013850D01*
X010750Y013897D01*
X010775Y013942D01*
X010803Y013985D01*
X010834Y014026D01*
X010868Y014064D01*
X010905Y014099D01*
X010944Y014132D01*
X010986Y014162D01*
X011030Y014188D01*
X011076Y014210D01*
X011124Y014230D01*
X011173Y014245D01*
X011223Y014257D01*
X011273Y014265D01*
X011324Y014269D01*
X011376Y014269D01*
X011427Y014265D01*
X011477Y014257D01*
X011527Y014245D01*
X011576Y014230D01*
X011624Y014210D01*
X011670Y014188D01*
X011714Y014162D01*
X011756Y014132D01*
X011795Y014099D01*
X011832Y014064D01*
X011866Y014026D01*
X011897Y013985D01*
X011925Y013942D01*
X011950Y013897D01*
X011970Y013850D01*
X011988Y013802D01*
X012001Y013752D01*
X012011Y013702D01*
X012017Y013651D01*
X012019Y013600D01*
X012017Y013549D01*
X012011Y013498D01*
X012001Y013448D01*
X011988Y013398D01*
X011970Y013350D01*
X011950Y013303D01*
X011925Y013258D01*
X011897Y013215D01*
X011866Y013174D01*
X011832Y013136D01*
X011795Y013101D01*
X011756Y013068D01*
X011714Y013038D01*
X011670Y013012D01*
X011624Y012990D01*
X011576Y012970D01*
X011527Y012955D01*
X011477Y012943D01*
X011427Y012935D01*
X011376Y012931D01*
X011324Y012931D01*
X011273Y012935D01*
X011223Y012943D01*
X011173Y012955D01*
X011124Y012970D01*
X011076Y012990D01*
X011030Y013012D01*
X010986Y013038D01*
X010944Y013068D01*
X010905Y013101D01*
X010868Y013136D01*
X010834Y013174D01*
X010803Y013215D01*
X010775Y013258D01*
X010750Y013303D01*
X010730Y013350D01*
X010712Y013398D01*
X010699Y013448D01*
X010689Y013498D01*
X010683Y013549D01*
X010681Y013600D01*
M02*
