G75*
G70*
%OFA0B0*%
%FSLAX24Y24*%
%IPPOS*%
%LPD*%
%AMOC8*
5,1,8,0,0,1.08239X$1,22.5*
%
%ADD10C,0.0000*%
%ADD11C,0.0060*%
%ADD12C,0.0050*%
%ADD13C,0.0040*%
%ADD14C,0.0080*%
D10*
X000675Y000300D02*
X000675Y019800D01*
X020175Y019800D01*
X020175Y000300D01*
X000675Y000300D01*
X002498Y010111D02*
X002500Y010137D01*
X002506Y010163D01*
X002516Y010188D01*
X002529Y010211D01*
X002545Y010231D01*
X002565Y010249D01*
X002587Y010264D01*
X002610Y010276D01*
X002636Y010284D01*
X002662Y010288D01*
X002688Y010288D01*
X002714Y010284D01*
X002740Y010276D01*
X002764Y010264D01*
X002785Y010249D01*
X002805Y010231D01*
X002821Y010211D01*
X002834Y010188D01*
X002844Y010163D01*
X002850Y010137D01*
X002852Y010111D01*
X002850Y010085D01*
X002844Y010059D01*
X002834Y010034D01*
X002821Y010011D01*
X002805Y009991D01*
X002785Y009973D01*
X002763Y009958D01*
X002740Y009946D01*
X002714Y009938D01*
X002688Y009934D01*
X002662Y009934D01*
X002636Y009938D01*
X002610Y009946D01*
X002586Y009958D01*
X002565Y009973D01*
X002545Y009991D01*
X002529Y010011D01*
X002516Y010034D01*
X002506Y010059D01*
X002500Y010085D01*
X002498Y010111D01*
X002498Y011489D02*
X002500Y011515D01*
X002506Y011541D01*
X002516Y011566D01*
X002529Y011589D01*
X002545Y011609D01*
X002565Y011627D01*
X002587Y011642D01*
X002610Y011654D01*
X002636Y011662D01*
X002662Y011666D01*
X002688Y011666D01*
X002714Y011662D01*
X002740Y011654D01*
X002764Y011642D01*
X002785Y011627D01*
X002805Y011609D01*
X002821Y011589D01*
X002834Y011566D01*
X002844Y011541D01*
X002850Y011515D01*
X002852Y011489D01*
X002850Y011463D01*
X002844Y011437D01*
X002834Y011412D01*
X002821Y011389D01*
X002805Y011369D01*
X002785Y011351D01*
X002763Y011336D01*
X002740Y011324D01*
X002714Y011316D01*
X002688Y011312D01*
X002662Y011312D01*
X002636Y011316D01*
X002610Y011324D01*
X002586Y011336D01*
X002565Y011351D01*
X002545Y011369D01*
X002529Y011389D01*
X002516Y011412D01*
X002506Y011437D01*
X002500Y011463D01*
X002498Y011489D01*
X000800Y019800D02*
X005800Y019800D01*
X016297Y010800D02*
X016299Y010827D01*
X016305Y010854D01*
X016314Y010880D01*
X016327Y010904D01*
X016343Y010927D01*
X016362Y010946D01*
X016384Y010963D01*
X016408Y010977D01*
X016433Y010987D01*
X016460Y010994D01*
X016487Y010997D01*
X016515Y010996D01*
X016542Y010991D01*
X016568Y010983D01*
X016592Y010971D01*
X016615Y010955D01*
X016636Y010937D01*
X016653Y010916D01*
X016668Y010892D01*
X016679Y010867D01*
X016687Y010841D01*
X016691Y010814D01*
X016691Y010786D01*
X016687Y010759D01*
X016679Y010733D01*
X016668Y010708D01*
X016653Y010684D01*
X016636Y010663D01*
X016615Y010645D01*
X016593Y010629D01*
X016568Y010617D01*
X016542Y010609D01*
X016515Y010604D01*
X016487Y010603D01*
X016460Y010606D01*
X016433Y010613D01*
X016408Y010623D01*
X016384Y010637D01*
X016362Y010654D01*
X016343Y010673D01*
X016327Y010696D01*
X016314Y010720D01*
X016305Y010746D01*
X016299Y010773D01*
X016297Y010800D01*
X018659Y010800D02*
X018661Y010827D01*
X018667Y010854D01*
X018676Y010880D01*
X018689Y010904D01*
X018705Y010927D01*
X018724Y010946D01*
X018746Y010963D01*
X018770Y010977D01*
X018795Y010987D01*
X018822Y010994D01*
X018849Y010997D01*
X018877Y010996D01*
X018904Y010991D01*
X018930Y010983D01*
X018954Y010971D01*
X018977Y010955D01*
X018998Y010937D01*
X019015Y010916D01*
X019030Y010892D01*
X019041Y010867D01*
X019049Y010841D01*
X019053Y010814D01*
X019053Y010786D01*
X019049Y010759D01*
X019041Y010733D01*
X019030Y010708D01*
X019015Y010684D01*
X018998Y010663D01*
X018977Y010645D01*
X018955Y010629D01*
X018930Y010617D01*
X018904Y010609D01*
X018877Y010604D01*
X018849Y010603D01*
X018822Y010606D01*
X018795Y010613D01*
X018770Y010623D01*
X018746Y010637D01*
X018724Y010654D01*
X018705Y010673D01*
X018689Y010696D01*
X018676Y010720D01*
X018667Y010746D01*
X018661Y010773D01*
X018659Y010800D01*
X020175Y014300D02*
X020175Y019300D01*
X020175Y005800D02*
X020175Y000800D01*
D11*
X020057Y001017D02*
X018167Y001017D01*
X017970Y001213D01*
X017970Y005387D01*
X018167Y005583D01*
X020057Y005583D01*
X020057Y014517D02*
X018167Y014517D01*
X017970Y014713D01*
X017970Y018887D01*
X018167Y019083D01*
X020057Y019083D01*
X005583Y019682D02*
X005583Y017792D01*
X005387Y017595D01*
X001213Y017595D01*
X001017Y017792D01*
X001017Y019682D01*
D12*
X008850Y015562D02*
X008850Y014105D01*
X008850Y015562D02*
X009638Y015562D01*
X011212Y015562D02*
X012000Y015562D01*
X012000Y014105D01*
X011606Y012019D02*
X011212Y012019D01*
X010425Y011231D01*
X010819Y011231D02*
X011606Y012019D01*
X011606Y011625D01*
X010819Y010837D01*
X010819Y010444D02*
X011606Y011231D01*
X011606Y011625D01*
X011606Y011231D02*
X011606Y010837D01*
X010819Y010050D01*
X010819Y009656D02*
X011606Y010444D01*
X011606Y010837D01*
X011606Y010444D02*
X011606Y010050D01*
X010819Y009263D01*
X010425Y008869D02*
X009638Y008081D01*
X010031Y008081D01*
X011606Y009656D01*
X011606Y010050D01*
X011606Y009656D02*
X011606Y009263D01*
X010425Y008081D01*
X010819Y008081D01*
X011606Y008869D01*
X011606Y009263D01*
X011606Y008869D02*
X011606Y008475D01*
X011212Y008081D01*
X011606Y008081D01*
X011606Y008475D01*
X011212Y008081D02*
X010819Y008081D01*
X010425Y008081D02*
X010031Y008081D01*
X009638Y008081D02*
X009244Y008081D01*
X010031Y008869D01*
X010031Y009263D02*
X009244Y008475D01*
X009244Y008081D01*
X009244Y008475D02*
X009244Y008869D01*
X010031Y009656D01*
X010031Y010050D02*
X009244Y009263D01*
X009244Y008869D01*
X009244Y009263D02*
X009244Y009656D01*
X010031Y010444D01*
X010031Y010837D02*
X009244Y010050D01*
X009244Y009656D01*
X009244Y010050D02*
X009244Y010444D01*
X010819Y012019D01*
X010425Y012019D01*
X009244Y010837D01*
X009244Y010444D01*
X009244Y010837D02*
X009244Y011231D01*
X010031Y012019D01*
X009638Y012019D01*
X009244Y011625D01*
X009244Y011231D01*
X009244Y011625D02*
X009244Y012019D01*
X009638Y012019D01*
X010031Y012019D02*
X010425Y012019D01*
X010819Y012019D02*
X011212Y012019D01*
X006094Y010050D02*
X006099Y010263D01*
X006115Y010475D01*
X006141Y010685D01*
X006177Y010895D01*
X006224Y011102D01*
X006280Y011307D01*
X006347Y011509D01*
X006424Y011707D01*
X006510Y011902D01*
X006605Y012092D01*
X006710Y012277D01*
X006824Y012456D01*
X006946Y012630D01*
X007077Y012798D01*
X007216Y012959D01*
X007363Y013112D01*
X007516Y013259D01*
X007677Y013398D01*
X007845Y013529D01*
X008019Y013651D01*
X008198Y013765D01*
X008383Y013870D01*
X008573Y013965D01*
X008768Y014051D01*
X008966Y014128D01*
X009168Y014195D01*
X009373Y014251D01*
X009580Y014298D01*
X009790Y014334D01*
X010000Y014360D01*
X010212Y014376D01*
X010425Y014381D01*
X010638Y014376D01*
X010850Y014360D01*
X011060Y014334D01*
X011270Y014298D01*
X011477Y014251D01*
X011682Y014195D01*
X011884Y014128D01*
X012082Y014051D01*
X012277Y013965D01*
X012467Y013870D01*
X012652Y013765D01*
X012831Y013651D01*
X013005Y013529D01*
X013173Y013398D01*
X013334Y013259D01*
X013487Y013112D01*
X013634Y012959D01*
X013773Y012798D01*
X013904Y012630D01*
X014026Y012456D01*
X014140Y012277D01*
X014245Y012092D01*
X014340Y011902D01*
X014426Y011707D01*
X014503Y011509D01*
X014570Y011307D01*
X014626Y011102D01*
X014673Y010895D01*
X014709Y010685D01*
X014735Y010475D01*
X014751Y010263D01*
X014756Y010050D01*
X014751Y009837D01*
X014735Y009625D01*
X014709Y009415D01*
X014673Y009205D01*
X014626Y008998D01*
X014570Y008793D01*
X014503Y008591D01*
X014426Y008393D01*
X014340Y008198D01*
X014245Y008008D01*
X014140Y007823D01*
X014026Y007644D01*
X013904Y007470D01*
X013773Y007302D01*
X013634Y007141D01*
X013487Y006988D01*
X013334Y006841D01*
X013173Y006702D01*
X013005Y006571D01*
X012831Y006449D01*
X012652Y006335D01*
X012467Y006230D01*
X012277Y006135D01*
X012082Y006049D01*
X011884Y005972D01*
X011682Y005905D01*
X011477Y005849D01*
X011270Y005802D01*
X011060Y005766D01*
X010850Y005740D01*
X010638Y005724D01*
X010425Y005719D01*
X010212Y005724D01*
X010000Y005740D01*
X009790Y005766D01*
X009580Y005802D01*
X009373Y005849D01*
X009168Y005905D01*
X008966Y005972D01*
X008768Y006049D01*
X008573Y006135D01*
X008383Y006230D01*
X008198Y006335D01*
X008019Y006449D01*
X007845Y006571D01*
X007677Y006702D01*
X007516Y006841D01*
X007363Y006988D01*
X007216Y007141D01*
X007077Y007302D01*
X006946Y007470D01*
X006824Y007644D01*
X006710Y007823D01*
X006605Y008008D01*
X006510Y008198D01*
X006424Y008393D01*
X006347Y008591D01*
X006280Y008793D01*
X006224Y008998D01*
X006177Y009205D01*
X006141Y009415D01*
X006115Y009625D01*
X006099Y009837D01*
X006094Y010050D01*
X008850Y005995D02*
X008850Y004538D01*
X009638Y004538D01*
X011212Y004538D02*
X012000Y004538D01*
X012000Y005995D01*
D13*
X010579Y009149D02*
X010272Y009149D01*
X010195Y009226D01*
X010195Y009379D01*
X010272Y009456D01*
X010425Y009456D01*
X010425Y009303D01*
X010579Y009456D02*
X010655Y009379D01*
X010655Y009226D01*
X010579Y009149D01*
X010655Y009610D02*
X010195Y009610D01*
X010195Y009917D01*
X010272Y010070D02*
X010195Y010147D01*
X010195Y010300D01*
X010272Y010377D01*
X010655Y010377D01*
X010655Y010530D02*
X010195Y010530D01*
X010195Y010837D01*
X010425Y010684D02*
X010425Y010530D01*
X010655Y010530D02*
X010655Y010837D01*
X010655Y010070D02*
X010272Y010070D01*
X012307Y013086D02*
X012307Y013316D01*
X012384Y013393D01*
X012461Y013393D01*
X012537Y013316D01*
X012537Y013086D01*
X012307Y013086D02*
X012768Y013086D01*
X012768Y013316D01*
X012691Y013393D01*
X012614Y013393D01*
X012537Y013316D01*
X012614Y013547D02*
X012768Y013700D01*
X012307Y013700D01*
X012307Y013547D02*
X012307Y013854D01*
D14*
X009551Y016236D02*
X008937Y016236D01*
X009244Y015929D02*
X009244Y016543D01*
X009244Y003944D02*
X009244Y003330D01*
M02*
