G75*
G70*
%OFA0B0*%
%FSLAX24Y24*%
%IPPOS*%
%LPD*%
%AMOC8*
5,1,8,0,0,1.08239X$1,22.5*
%
%ADD10C,0.0000*%
%ADD11C,0.0060*%
%ADD12C,0.0120*%
%ADD13C,0.0050*%
%ADD14C,0.0040*%
%ADD15C,0.0160*%
%ADD16C,0.0100*%
%ADD17R,0.0098X0.0089*%
D10*
X000675Y000300D02*
X000675Y019800D01*
X020175Y019800D01*
X020175Y000300D01*
X000675Y000300D01*
X002498Y010111D02*
X002500Y010137D01*
X002506Y010163D01*
X002516Y010188D01*
X002529Y010211D01*
X002545Y010231D01*
X002565Y010249D01*
X002587Y010264D01*
X002610Y010276D01*
X002636Y010284D01*
X002662Y010288D01*
X002688Y010288D01*
X002714Y010284D01*
X002740Y010276D01*
X002764Y010264D01*
X002785Y010249D01*
X002805Y010231D01*
X002821Y010211D01*
X002834Y010188D01*
X002844Y010163D01*
X002850Y010137D01*
X002852Y010111D01*
X002850Y010085D01*
X002844Y010059D01*
X002834Y010034D01*
X002821Y010011D01*
X002805Y009991D01*
X002785Y009973D01*
X002763Y009958D01*
X002740Y009946D01*
X002714Y009938D01*
X002688Y009934D01*
X002662Y009934D01*
X002636Y009938D01*
X002610Y009946D01*
X002586Y009958D01*
X002565Y009973D01*
X002545Y009991D01*
X002529Y010011D01*
X002516Y010034D01*
X002506Y010059D01*
X002500Y010085D01*
X002498Y010111D01*
X002498Y011489D02*
X002500Y011515D01*
X002506Y011541D01*
X002516Y011566D01*
X002529Y011589D01*
X002545Y011609D01*
X002565Y011627D01*
X002587Y011642D01*
X002610Y011654D01*
X002636Y011662D01*
X002662Y011666D01*
X002688Y011666D01*
X002714Y011662D01*
X002740Y011654D01*
X002764Y011642D01*
X002785Y011627D01*
X002805Y011609D01*
X002821Y011589D01*
X002834Y011566D01*
X002844Y011541D01*
X002850Y011515D01*
X002852Y011489D01*
X002850Y011463D01*
X002844Y011437D01*
X002834Y011412D01*
X002821Y011389D01*
X002805Y011369D01*
X002785Y011351D01*
X002763Y011336D01*
X002740Y011324D01*
X002714Y011316D01*
X002688Y011312D01*
X002662Y011312D01*
X002636Y011316D01*
X002610Y011324D01*
X002586Y011336D01*
X002565Y011351D01*
X002545Y011369D01*
X002529Y011389D01*
X002516Y011412D01*
X002506Y011437D01*
X002500Y011463D01*
X002498Y011489D01*
X000800Y019800D02*
X005800Y019800D01*
X016297Y010800D02*
X016299Y010827D01*
X016305Y010854D01*
X016314Y010880D01*
X016327Y010904D01*
X016343Y010927D01*
X016362Y010946D01*
X016384Y010963D01*
X016408Y010977D01*
X016433Y010987D01*
X016460Y010994D01*
X016487Y010997D01*
X016515Y010996D01*
X016542Y010991D01*
X016568Y010983D01*
X016592Y010971D01*
X016615Y010955D01*
X016636Y010937D01*
X016653Y010916D01*
X016668Y010892D01*
X016679Y010867D01*
X016687Y010841D01*
X016691Y010814D01*
X016691Y010786D01*
X016687Y010759D01*
X016679Y010733D01*
X016668Y010708D01*
X016653Y010684D01*
X016636Y010663D01*
X016615Y010645D01*
X016593Y010629D01*
X016568Y010617D01*
X016542Y010609D01*
X016515Y010604D01*
X016487Y010603D01*
X016460Y010606D01*
X016433Y010613D01*
X016408Y010623D01*
X016384Y010637D01*
X016362Y010654D01*
X016343Y010673D01*
X016327Y010696D01*
X016314Y010720D01*
X016305Y010746D01*
X016299Y010773D01*
X016297Y010800D01*
X018659Y010800D02*
X018661Y010827D01*
X018667Y010854D01*
X018676Y010880D01*
X018689Y010904D01*
X018705Y010927D01*
X018724Y010946D01*
X018746Y010963D01*
X018770Y010977D01*
X018795Y010987D01*
X018822Y010994D01*
X018849Y010997D01*
X018877Y010996D01*
X018904Y010991D01*
X018930Y010983D01*
X018954Y010971D01*
X018977Y010955D01*
X018998Y010937D01*
X019015Y010916D01*
X019030Y010892D01*
X019041Y010867D01*
X019049Y010841D01*
X019053Y010814D01*
X019053Y010786D01*
X019049Y010759D01*
X019041Y010733D01*
X019030Y010708D01*
X019015Y010684D01*
X018998Y010663D01*
X018977Y010645D01*
X018955Y010629D01*
X018930Y010617D01*
X018904Y010609D01*
X018877Y010604D01*
X018849Y010603D01*
X018822Y010606D01*
X018795Y010613D01*
X018770Y010623D01*
X018746Y010637D01*
X018724Y010654D01*
X018705Y010673D01*
X018689Y010696D01*
X018676Y010720D01*
X018667Y010746D01*
X018661Y010773D01*
X018659Y010800D01*
X020175Y014300D02*
X020175Y019300D01*
X020175Y005800D02*
X020175Y000800D01*
D11*
X020057Y001017D02*
X018167Y001017D01*
X017970Y001213D01*
X017970Y005387D01*
X018167Y005583D01*
X020057Y005583D01*
X019925Y006300D02*
X019425Y006300D01*
X019175Y006550D01*
X018925Y006300D01*
X018425Y006300D01*
X018175Y006550D01*
X017925Y006300D01*
X017425Y006300D01*
X017175Y006550D01*
X016925Y006300D01*
X016425Y006300D01*
X016175Y006550D01*
X015925Y006300D01*
X015425Y006300D01*
X015175Y006550D01*
X014925Y006300D01*
X014425Y006300D01*
X014175Y006550D01*
X014175Y008050D01*
X014425Y008300D01*
X014925Y008300D01*
X015175Y008050D01*
X015425Y008300D01*
X015925Y008300D01*
X016175Y008050D01*
X016425Y008300D01*
X016925Y008300D01*
X017175Y008050D01*
X017425Y008300D01*
X017925Y008300D01*
X018175Y008050D01*
X018425Y008300D01*
X018925Y008300D01*
X019175Y008050D01*
X019425Y008300D01*
X019925Y008300D01*
X020175Y008050D01*
X020175Y006550D01*
X019925Y006300D01*
X017584Y001346D02*
X017370Y001346D01*
X017264Y001239D01*
X017264Y001132D01*
X017370Y001025D01*
X017584Y001025D01*
X017691Y000919D01*
X017691Y000812D01*
X017584Y000705D01*
X017370Y000705D01*
X017264Y000812D01*
X017046Y001025D02*
X016939Y000919D01*
X016619Y000919D01*
X016619Y000705D02*
X016619Y001346D01*
X016939Y001346D01*
X017046Y001239D01*
X017046Y001025D01*
X016402Y001025D02*
X016295Y000919D01*
X015975Y000919D01*
X015975Y000705D02*
X015975Y001346D01*
X016295Y001346D01*
X016402Y001239D01*
X016402Y001025D01*
X015757Y000705D02*
X015330Y000705D01*
X015544Y000705D02*
X015544Y001346D01*
X015330Y001132D01*
X017584Y001346D02*
X017691Y001239D01*
X010257Y001900D02*
X009830Y001900D01*
X010044Y001687D02*
X010044Y002114D01*
X009200Y004230D02*
X008900Y004230D01*
X008900Y005370D01*
X009200Y005370D01*
X009200Y004230D01*
X005450Y004230D02*
X005150Y004230D01*
X005150Y005370D01*
X005450Y005370D01*
X005450Y004230D01*
X007079Y008891D02*
X013771Y008891D01*
X013771Y009599D01*
X011921Y009934D02*
X011923Y009972D01*
X011929Y010011D01*
X011939Y010048D01*
X011952Y010084D01*
X011970Y010118D01*
X011990Y010151D01*
X012014Y010181D01*
X012041Y010208D01*
X012071Y010233D01*
X012102Y010255D01*
X012136Y010273D01*
X012172Y010287D01*
X012209Y010298D01*
X012247Y010305D01*
X012285Y010308D01*
X012324Y010307D01*
X012362Y010302D01*
X012400Y010293D01*
X012436Y010280D01*
X012471Y010264D01*
X012504Y010244D01*
X012535Y010221D01*
X012563Y010195D01*
X012588Y010166D01*
X012611Y010135D01*
X012630Y010101D01*
X012645Y010066D01*
X012657Y010029D01*
X012665Y009992D01*
X012669Y009953D01*
X012669Y009915D01*
X012665Y009876D01*
X012657Y009839D01*
X012645Y009802D01*
X012630Y009767D01*
X012611Y009733D01*
X012588Y009702D01*
X012563Y009673D01*
X012535Y009647D01*
X012504Y009624D01*
X012471Y009604D01*
X012436Y009588D01*
X012400Y009575D01*
X012362Y009566D01*
X012324Y009561D01*
X012285Y009560D01*
X012247Y009563D01*
X012209Y009570D01*
X012172Y009581D01*
X012136Y009595D01*
X012102Y009613D01*
X012071Y009635D01*
X012041Y009660D01*
X012014Y009687D01*
X011990Y009717D01*
X011970Y009750D01*
X011952Y009784D01*
X011939Y009820D01*
X011929Y009857D01*
X011923Y009896D01*
X011921Y009934D01*
X013771Y013221D02*
X013771Y014127D01*
X013771Y016883D02*
X013771Y017709D01*
X007079Y017709D01*
X007079Y016883D01*
X005583Y017792D02*
X005583Y019682D01*
X006705Y019257D02*
X006705Y018830D01*
X006705Y019150D02*
X007132Y019150D01*
X007132Y019257D02*
X007132Y018830D01*
X007350Y018830D02*
X007350Y019257D01*
X007670Y019257D01*
X007777Y019150D01*
X007777Y018830D01*
X008101Y018937D02*
X008208Y018830D01*
X008101Y018937D02*
X008101Y019364D01*
X007994Y019257D02*
X008208Y019257D01*
X007132Y019257D02*
X006919Y019471D01*
X006705Y019257D01*
X005583Y017792D02*
X005387Y017595D01*
X001213Y017595D01*
X001017Y017792D01*
X001017Y019682D01*
X007079Y014127D02*
X007079Y013221D01*
X007079Y009599D02*
X007079Y008891D01*
X015330Y018705D02*
X015330Y019346D01*
X015757Y019346D01*
X015544Y019025D02*
X015330Y019025D01*
X015975Y019025D02*
X015975Y018812D01*
X016081Y018705D01*
X016295Y018705D01*
X016402Y018812D01*
X016402Y019025D01*
X016295Y019132D01*
X016081Y019132D01*
X015975Y019025D01*
X016619Y019132D02*
X016619Y018812D01*
X016726Y018705D01*
X017046Y018705D01*
X017046Y019132D01*
X017264Y019132D02*
X017477Y019132D01*
X017370Y019239D02*
X017370Y018812D01*
X017477Y018705D01*
X017970Y018887D02*
X018167Y019083D01*
X020057Y019083D01*
X017970Y018887D02*
X017970Y014713D01*
X018167Y014517D01*
X020057Y014517D01*
D12*
X017675Y018550D02*
X017675Y019550D01*
X015050Y019550D01*
X015050Y018550D01*
X017675Y018550D01*
X008425Y018675D02*
X008425Y019675D01*
X006550Y019675D01*
X006550Y018675D01*
X008425Y018675D01*
X015175Y001550D02*
X017925Y001550D01*
X017925Y000550D01*
X015175Y000550D01*
X015175Y001550D01*
D13*
X016334Y002709D02*
X016334Y003891D01*
X016413Y003891D01*
X016201Y003832D02*
X016201Y004266D01*
X015649Y004266D01*
X015649Y003832D01*
X015649Y003518D02*
X015649Y003163D01*
X015728Y003163D01*
X015649Y003163D02*
X015649Y003084D01*
X016201Y003084D01*
X016201Y003163D01*
X016122Y003163D01*
X016201Y003163D02*
X016201Y003518D01*
X016201Y003006D02*
X015649Y003006D01*
X016334Y002709D02*
X016413Y002709D01*
X017437Y002709D02*
X017516Y002709D01*
X017516Y002985D01*
X017516Y003615D02*
X017516Y003891D01*
X017437Y003891D01*
X018894Y005675D02*
X018819Y005750D01*
X018894Y005675D02*
X019044Y005675D01*
X019119Y005750D01*
X019119Y005825D01*
X019044Y005900D01*
X018894Y005900D01*
X018819Y005975D01*
X018819Y006050D01*
X018894Y006125D01*
X019044Y006125D01*
X019119Y006050D01*
X019279Y006125D02*
X019279Y005825D01*
X019429Y005675D01*
X019579Y005825D01*
X019579Y006125D01*
X019740Y005975D02*
X019890Y006125D01*
X019890Y005675D01*
X019740Y005675D02*
X020040Y005675D01*
X019740Y008475D02*
X019440Y008475D01*
X019590Y008475D02*
X019590Y008925D01*
X019440Y008775D01*
X020037Y009816D02*
X015313Y009816D01*
X015313Y011784D01*
X020037Y011784D01*
X020037Y011587D01*
X020037Y011548D01*
X020037Y010013D01*
X020628Y010013D01*
X020628Y011587D01*
X020037Y011587D01*
X020037Y010013D02*
X020037Y009816D01*
X016819Y013281D02*
X016031Y013281D01*
X016031Y014069D01*
X016819Y014069D01*
X016819Y013281D01*
X015819Y013281D02*
X015031Y013281D01*
X015031Y014069D01*
X015819Y014069D01*
X015819Y013281D01*
X014819Y013281D02*
X014031Y013281D01*
X014031Y014069D01*
X014819Y014069D01*
X014819Y013281D01*
X014951Y012219D02*
X014399Y012219D01*
X014399Y012141D02*
X014951Y012141D01*
X014951Y012062D01*
X014872Y012062D01*
X014951Y012062D02*
X014951Y011707D01*
X014951Y011393D02*
X014951Y010959D01*
X014399Y010959D01*
X014399Y011393D01*
X014399Y011707D02*
X014399Y012062D01*
X014478Y012062D01*
X014399Y012062D02*
X014399Y012141D01*
X014413Y015024D02*
X014413Y015103D01*
X014413Y015024D02*
X014768Y015024D01*
X015082Y015024D02*
X015516Y015024D01*
X015516Y015576D01*
X015082Y015576D01*
X014768Y015576D02*
X014413Y015576D01*
X014413Y015497D01*
X014413Y015576D02*
X014334Y015576D01*
X014334Y015024D01*
X014413Y015024D01*
X014256Y015024D02*
X014256Y015576D01*
X015649Y015709D02*
X016201Y015709D01*
X016201Y016143D01*
X016334Y016209D02*
X016334Y017391D01*
X016413Y017391D01*
X016201Y016969D02*
X015649Y016969D01*
X015649Y016891D02*
X016201Y016891D01*
X016201Y016812D01*
X016122Y016812D01*
X016201Y016812D02*
X016201Y016457D01*
X016334Y016209D02*
X016413Y016209D01*
X015649Y016143D02*
X015649Y015709D01*
X015649Y016457D02*
X015649Y016812D01*
X015728Y016812D01*
X015649Y016812D02*
X015649Y016891D01*
X017437Y017391D02*
X017516Y017391D01*
X017516Y017115D01*
X017516Y016485D02*
X017516Y016209D01*
X017437Y016209D01*
X012289Y017950D02*
X012289Y018400D01*
X012139Y018400D02*
X012440Y018400D01*
X011979Y018400D02*
X011829Y018325D01*
X011679Y018175D01*
X011904Y018175D01*
X011979Y018100D01*
X011979Y018025D01*
X011904Y017950D01*
X011754Y017950D01*
X011679Y018025D01*
X011679Y018175D01*
X011519Y018175D02*
X011219Y018175D01*
X011058Y018175D02*
X010758Y018175D01*
X010758Y018250D02*
X010758Y017950D01*
X010598Y017950D02*
X010298Y017950D01*
X010298Y018400D01*
X010598Y018400D01*
X010758Y018250D02*
X010908Y018400D01*
X011058Y018250D01*
X011058Y017950D01*
X010448Y018175D02*
X010298Y018175D01*
X010138Y017950D02*
X009837Y017950D01*
X009837Y018400D01*
X009677Y018175D02*
X009377Y018175D01*
X009217Y017950D02*
X008917Y018400D01*
X008756Y018325D02*
X008756Y018025D01*
X008681Y017950D01*
X008531Y017950D01*
X008456Y018025D01*
X008456Y018325D01*
X008531Y018400D01*
X008681Y018400D01*
X008756Y018325D01*
X008917Y017950D02*
X009217Y018400D01*
X008296Y017950D02*
X007996Y017950D01*
X007996Y018400D01*
X007836Y018325D02*
X007836Y018250D01*
X007761Y018175D01*
X007535Y018175D01*
X007375Y018025D02*
X007300Y017950D01*
X007150Y017950D01*
X007075Y018025D01*
X007075Y018400D01*
X007375Y018400D02*
X007375Y018025D01*
X007535Y017950D02*
X007761Y017950D01*
X007836Y018025D01*
X007836Y018100D01*
X007761Y018175D01*
X007836Y018325D02*
X007761Y018400D01*
X007535Y018400D01*
X007535Y017950D01*
X006594Y015126D02*
X006594Y014574D01*
X006516Y014574D02*
X006516Y015126D01*
X006437Y015126D01*
X006437Y015047D01*
X006437Y015126D02*
X006082Y015126D01*
X005768Y015126D02*
X005334Y015126D01*
X005334Y014574D01*
X005768Y014574D01*
X006082Y014574D02*
X006437Y014574D01*
X006437Y014653D01*
X006437Y014574D02*
X006516Y014574D01*
X006319Y014194D02*
X006319Y013406D01*
X005531Y013406D01*
X005531Y014194D01*
X006319Y014194D01*
X005319Y014194D02*
X005319Y013406D01*
X004531Y013406D01*
X004531Y014194D01*
X005319Y014194D01*
X005141Y014574D02*
X005141Y015126D01*
X004707Y015126D01*
X004393Y015126D02*
X004038Y015126D01*
X004038Y015047D01*
X004038Y015126D02*
X003959Y015126D01*
X003959Y014574D01*
X004038Y014574D01*
X004038Y014653D01*
X004038Y014574D02*
X004393Y014574D01*
X004319Y014444D02*
X004319Y013656D01*
X003531Y013656D01*
X003531Y014444D01*
X004319Y014444D01*
X003881Y014574D02*
X003881Y015126D01*
X004707Y014574D02*
X005141Y014574D01*
X005319Y013194D02*
X004531Y013194D01*
X004531Y012406D01*
X005319Y012406D01*
X005319Y013194D01*
X005531Y013194D02*
X005531Y012406D01*
X006319Y012406D01*
X006319Y013194D01*
X005531Y013194D01*
X005582Y012326D02*
X005937Y012326D01*
X005937Y012247D01*
X005937Y012326D02*
X006016Y012326D01*
X006016Y011774D01*
X005937Y011774D01*
X005937Y011853D01*
X005937Y011774D02*
X005582Y011774D01*
X005582Y011576D02*
X006016Y011576D01*
X006016Y011024D01*
X005582Y011024D01*
X005582Y010826D02*
X006016Y010826D01*
X006016Y010274D01*
X005582Y010274D01*
X005268Y010274D02*
X004913Y010274D01*
X004913Y010353D01*
X004913Y010274D02*
X004834Y010274D01*
X004834Y010826D01*
X004913Y010826D01*
X004913Y010747D01*
X004913Y010826D02*
X005268Y010826D01*
X005268Y011024D02*
X004913Y011024D01*
X004913Y011103D01*
X004913Y011024D02*
X004834Y011024D01*
X004834Y011576D01*
X004913Y011576D01*
X004913Y011497D01*
X004913Y011576D02*
X005268Y011576D01*
X005268Y011774D02*
X004834Y011774D01*
X004834Y012326D01*
X005268Y012326D01*
X006094Y012326D02*
X006094Y011774D01*
X004756Y011576D02*
X004756Y011024D01*
X004756Y010826D02*
X004756Y010274D01*
X003013Y009266D02*
X003013Y008832D01*
X003013Y008518D02*
X003013Y008163D01*
X002934Y008163D01*
X003013Y008163D02*
X003013Y008084D01*
X002462Y008084D01*
X002462Y008163D01*
X002541Y008163D01*
X002462Y008163D02*
X002462Y008518D01*
X002388Y008518D02*
X002388Y008084D01*
X001837Y008084D01*
X001837Y008518D01*
X001837Y008832D02*
X001837Y009187D01*
X001916Y009187D01*
X001837Y009187D02*
X001837Y009266D01*
X002388Y009266D01*
X002388Y009187D01*
X002309Y009187D01*
X002388Y009187D02*
X002388Y008832D01*
X002462Y008832D02*
X002462Y009266D01*
X003013Y009266D01*
X002388Y009344D02*
X001837Y009344D01*
X002462Y008006D02*
X003013Y008006D01*
X005075Y006311D02*
X005525Y006311D01*
X005525Y006461D02*
X005525Y006160D01*
X005450Y006000D02*
X005150Y006000D01*
X005075Y005925D01*
X005075Y005700D01*
X005525Y005700D01*
X005525Y005925D01*
X005450Y006000D01*
X005225Y006160D02*
X005075Y006311D01*
X004451Y005391D02*
X003899Y005391D01*
X003899Y004957D01*
X003701Y004957D02*
X003701Y005312D01*
X003622Y005312D01*
X003701Y005312D02*
X003701Y005391D01*
X003149Y005391D01*
X003149Y005312D01*
X003228Y005312D01*
X003149Y005312D02*
X003149Y004957D01*
X002951Y004957D02*
X002951Y005391D01*
X002399Y005391D01*
X002399Y004957D01*
X002399Y004643D02*
X002399Y004288D01*
X002478Y004288D01*
X002399Y004288D02*
X002399Y004209D01*
X002951Y004209D01*
X002951Y004288D01*
X002872Y004288D01*
X002951Y004288D02*
X002951Y004643D01*
X003149Y004643D02*
X003149Y004209D01*
X003701Y004209D01*
X003701Y004643D01*
X003899Y004643D02*
X003899Y004288D01*
X003978Y004288D01*
X003899Y004288D02*
X003899Y004209D01*
X004451Y004209D01*
X004451Y004288D01*
X004372Y004288D01*
X004451Y004288D02*
X004451Y004643D01*
X004451Y004957D02*
X004451Y005391D01*
X003701Y005469D02*
X003149Y005469D01*
X002951Y004131D02*
X002399Y004131D01*
X002201Y003391D02*
X001649Y003391D01*
X001649Y002957D01*
X001451Y002957D02*
X001451Y003391D01*
X000899Y003391D01*
X000899Y002957D01*
X000899Y002643D02*
X000899Y002288D01*
X000978Y002288D01*
X000899Y002288D02*
X000899Y002209D01*
X001451Y002209D01*
X001451Y002288D01*
X001372Y002288D01*
X001451Y002288D02*
X001451Y002643D01*
X001649Y002643D02*
X001649Y002288D01*
X001728Y002288D01*
X001649Y002288D02*
X001649Y002209D01*
X002201Y002209D01*
X002201Y002288D01*
X002122Y002288D01*
X002201Y002288D02*
X002201Y002643D01*
X002201Y002957D02*
X002201Y003391D01*
X002395Y002989D02*
X002395Y001611D01*
X004955Y001611D01*
X004955Y002989D01*
X002395Y002989D01*
X002201Y002131D02*
X001649Y002131D01*
X001451Y002131D02*
X000899Y002131D01*
X003899Y004131D02*
X004451Y004131D01*
X005149Y002969D02*
X005701Y002969D01*
X005701Y002891D02*
X005149Y002891D01*
X005149Y002812D01*
X005228Y002812D01*
X005149Y002812D02*
X005149Y002457D01*
X005149Y002143D02*
X005149Y001709D01*
X005701Y001709D01*
X005701Y002143D01*
X005701Y002457D02*
X005701Y002812D01*
X005622Y002812D01*
X005701Y002812D02*
X005701Y002891D01*
X006395Y002989D02*
X006395Y001611D01*
X008955Y001611D01*
X008955Y002989D01*
X006395Y002989D01*
X006899Y004131D02*
X007451Y004131D01*
X007451Y004209D02*
X006899Y004209D01*
X006899Y004288D01*
X006978Y004288D01*
X006899Y004288D02*
X006899Y004643D01*
X006899Y004957D02*
X006899Y005391D01*
X007451Y005391D01*
X007451Y004957D01*
X007649Y004957D02*
X007649Y005391D01*
X008201Y005391D01*
X008201Y004957D01*
X008201Y004643D02*
X008201Y004288D01*
X008122Y004288D01*
X008201Y004288D02*
X008201Y004209D01*
X007649Y004209D01*
X007649Y004288D01*
X007728Y004288D01*
X007649Y004288D02*
X007649Y004643D01*
X007451Y004643D02*
X007451Y004288D01*
X007372Y004288D01*
X007451Y004288D02*
X007451Y004209D01*
X007649Y004131D02*
X008201Y004131D01*
X009149Y002969D02*
X009701Y002969D01*
X009701Y002891D02*
X009149Y002891D01*
X009149Y002812D01*
X009228Y002812D01*
X009149Y002812D02*
X009149Y002457D01*
X009149Y002143D02*
X009149Y001709D01*
X009701Y001709D01*
X009701Y002143D01*
X009701Y002457D02*
X009701Y002812D01*
X009622Y002812D01*
X009701Y002812D02*
X009701Y002891D01*
X009275Y005700D02*
X008825Y005700D01*
X008825Y005925D01*
X008900Y006000D01*
X009200Y006000D01*
X009275Y005925D01*
X009275Y005700D01*
X009275Y006160D02*
X008975Y006461D01*
X008900Y006461D01*
X008825Y006386D01*
X008825Y006235D01*
X008900Y006160D01*
X009275Y006160D02*
X009275Y006461D01*
X009506Y006399D02*
X009506Y006951D01*
X009584Y006951D02*
X009584Y006399D01*
X009663Y006399D01*
X009663Y006478D01*
X009663Y006399D02*
X010018Y006399D01*
X010332Y006399D02*
X010766Y006399D01*
X010766Y006951D01*
X010332Y006951D01*
X010018Y006951D02*
X009663Y006951D01*
X009663Y006872D01*
X009663Y006951D02*
X009584Y006951D01*
X007845Y008339D02*
X007544Y008339D01*
X007694Y008339D02*
X007694Y008789D01*
X007544Y008639D01*
X007384Y008789D02*
X007384Y008414D01*
X007309Y008339D01*
X007159Y008339D01*
X007084Y008414D01*
X007084Y008789D01*
X003013Y012334D02*
X002462Y012334D01*
X002462Y012768D01*
X002388Y012768D02*
X002388Y012413D01*
X002309Y012413D01*
X002388Y012413D02*
X002388Y012334D01*
X001837Y012334D01*
X001837Y012413D01*
X001916Y012413D01*
X001837Y012413D02*
X001837Y012768D01*
X001837Y013082D02*
X001837Y013516D01*
X002388Y013516D01*
X002388Y013082D01*
X002462Y013082D02*
X002462Y013437D01*
X002541Y013437D01*
X002462Y013437D02*
X002462Y013516D01*
X003013Y013516D01*
X003013Y013437D01*
X002934Y013437D01*
X003013Y013437D02*
X003013Y013082D01*
X003013Y012768D02*
X003013Y012334D01*
X002388Y012256D02*
X001837Y012256D01*
X002462Y013594D02*
X003013Y013594D01*
X002016Y015959D02*
X002016Y016235D01*
X002256Y016274D02*
X002256Y016826D01*
X002334Y016826D02*
X002334Y016274D01*
X002413Y016274D01*
X002413Y016353D01*
X002413Y016274D02*
X002768Y016274D01*
X003024Y016334D02*
X003576Y016334D01*
X003576Y016768D01*
X003516Y016826D02*
X003516Y016274D01*
X003082Y016274D01*
X003024Y016334D02*
X003024Y016768D01*
X003082Y016826D02*
X003516Y016826D01*
X003576Y017082D02*
X003576Y017437D01*
X003497Y017437D01*
X003576Y017437D02*
X003576Y017516D01*
X003024Y017516D01*
X003024Y017437D01*
X003103Y017437D01*
X003024Y017437D02*
X003024Y017082D01*
X002768Y016826D02*
X002413Y016826D01*
X002413Y016747D01*
X002413Y016826D02*
X002334Y016826D01*
X002016Y016865D02*
X002016Y017141D01*
X001937Y017141D01*
X003024Y017594D02*
X003576Y017594D01*
X002016Y015959D02*
X001937Y015959D01*
X000913Y015959D02*
X000834Y015959D01*
X000834Y017141D01*
X000913Y017141D01*
X014279Y005975D02*
X014429Y006125D01*
X014429Y005675D01*
X014279Y005675D02*
X014579Y005675D01*
X014740Y005675D02*
X015040Y005975D01*
X015040Y006050D01*
X014965Y006125D01*
X014815Y006125D01*
X014740Y006050D01*
X014740Y005675D02*
X015040Y005675D01*
D14*
X013712Y005405D02*
X013559Y005329D01*
X013405Y005175D01*
X013636Y005175D01*
X013712Y005098D01*
X013712Y005022D01*
X013636Y004945D01*
X013482Y004945D01*
X013405Y005022D01*
X013405Y005175D01*
X013252Y005022D02*
X013175Y004945D01*
X013022Y004945D01*
X012945Y005022D01*
X012945Y005329D01*
X013022Y005405D01*
X013175Y005405D01*
X013252Y005329D01*
X013157Y004424D02*
X013004Y004424D01*
X012927Y004347D01*
X012927Y004040D01*
X013004Y003964D01*
X013157Y003964D01*
X013234Y004040D01*
X013388Y003964D02*
X013695Y003964D01*
X013541Y003964D02*
X013541Y004424D01*
X013388Y004271D01*
X013234Y004347D02*
X013157Y004424D01*
X013848Y004347D02*
X013848Y004040D01*
X014155Y004347D01*
X014155Y004040D01*
X014078Y003964D01*
X013925Y003964D01*
X013848Y004040D01*
X013848Y004347D02*
X013925Y004424D01*
X014078Y004424D01*
X014155Y004347D01*
X015090Y003872D02*
X015090Y003565D01*
X015167Y003411D02*
X015090Y003335D01*
X015090Y003104D01*
X015551Y003104D01*
X015397Y003104D02*
X015397Y003335D01*
X015320Y003411D01*
X015167Y003411D01*
X015397Y003258D02*
X015551Y003411D01*
X015551Y003565D02*
X015474Y003565D01*
X015167Y003872D01*
X015090Y003872D01*
X016570Y004445D02*
X016877Y004905D01*
X017030Y004675D02*
X017261Y004675D01*
X017337Y004598D01*
X017337Y004522D01*
X017261Y004445D01*
X017107Y004445D01*
X017030Y004522D01*
X017030Y004675D01*
X017184Y004829D01*
X017337Y004905D01*
X016877Y004445D02*
X016570Y004905D01*
X012739Y007089D02*
X012432Y007089D01*
X012586Y007089D02*
X012586Y007549D01*
X012432Y007396D01*
X012279Y007472D02*
X012202Y007549D01*
X011972Y007549D01*
X011972Y007089D01*
X012202Y007089D01*
X012279Y007165D01*
X012279Y007472D01*
X011819Y007549D02*
X011512Y007549D01*
X011512Y007089D01*
X011819Y007089D01*
X011665Y007319D02*
X011512Y007319D01*
X011358Y007089D02*
X011051Y007089D01*
X011051Y007549D01*
X010832Y007433D02*
X010832Y007356D01*
X010755Y007280D01*
X010832Y007203D01*
X010832Y007126D01*
X010755Y007049D01*
X010602Y007049D01*
X010525Y007126D01*
X010372Y007049D02*
X010065Y007049D01*
X010218Y007049D02*
X010218Y007510D01*
X010065Y007356D01*
X009911Y007280D02*
X009911Y007433D01*
X009835Y007510D01*
X009604Y007510D01*
X009604Y007049D01*
X009604Y007203D02*
X009835Y007203D01*
X009911Y007280D01*
X009758Y007203D02*
X009911Y007049D01*
X010525Y007433D02*
X010602Y007510D01*
X010755Y007510D01*
X010832Y007433D01*
X010755Y007280D02*
X010679Y007280D01*
X011346Y006813D02*
X011504Y006813D01*
X011504Y006537D02*
X011346Y006537D01*
X010144Y003530D02*
X009991Y003377D01*
X010144Y003530D02*
X010144Y003070D01*
X009991Y003070D02*
X010298Y003070D01*
X009837Y003070D02*
X009530Y003070D01*
X009684Y003070D02*
X009684Y003530D01*
X009530Y003377D01*
X009377Y003454D02*
X009300Y003530D01*
X009147Y003530D01*
X009070Y003454D01*
X009070Y003147D01*
X009147Y003070D01*
X009300Y003070D01*
X009377Y003147D01*
X008078Y005695D02*
X007771Y005695D01*
X007695Y005772D01*
X007695Y005925D01*
X007771Y006002D01*
X007848Y006155D02*
X007695Y006309D01*
X008155Y006309D01*
X008155Y006462D02*
X008155Y006155D01*
X008078Y006002D02*
X008155Y005925D01*
X008155Y005772D01*
X008078Y005695D01*
X007405Y005772D02*
X007405Y005925D01*
X007328Y006002D01*
X007405Y006155D02*
X007405Y006462D01*
X007405Y006309D02*
X006945Y006309D01*
X007098Y006155D01*
X007021Y006002D02*
X006945Y005925D01*
X006945Y005772D01*
X007021Y005695D01*
X007328Y005695D01*
X007405Y005772D01*
X007405Y006616D02*
X007098Y006923D01*
X007021Y006923D01*
X006945Y006846D01*
X006945Y006693D01*
X007021Y006616D01*
X007405Y006616D02*
X007405Y006923D01*
X007695Y006846D02*
X007771Y006923D01*
X007848Y006923D01*
X007925Y006846D01*
X008002Y006923D01*
X008078Y006923D01*
X008155Y006846D01*
X008155Y006693D01*
X008078Y006616D01*
X007925Y006769D02*
X007925Y006846D01*
X007695Y006846D02*
X007695Y006693D01*
X007771Y006616D01*
X005837Y003530D02*
X005530Y003530D01*
X005377Y003454D02*
X005300Y003530D01*
X005147Y003530D01*
X005070Y003454D01*
X005070Y003147D01*
X005147Y003070D01*
X005300Y003070D01*
X005377Y003147D01*
X005530Y003147D02*
X005530Y003070D01*
X005530Y003147D02*
X005837Y003454D01*
X005837Y003530D01*
X006021Y001417D02*
X005945Y001340D01*
X005945Y001186D01*
X006021Y001110D01*
X005945Y000956D02*
X006328Y000956D01*
X006405Y000879D01*
X006405Y000726D01*
X006328Y000649D01*
X005945Y000649D01*
X006328Y001110D02*
X006405Y001186D01*
X006405Y001340D01*
X006328Y001417D01*
X006252Y001417D01*
X006175Y001340D01*
X006175Y001263D01*
X006175Y001340D02*
X006098Y001417D01*
X006021Y001417D01*
X002405Y001417D02*
X002405Y001110D01*
X002098Y001417D01*
X002021Y001417D01*
X001945Y001340D01*
X001945Y001186D01*
X002021Y001110D01*
X001945Y000956D02*
X002328Y000956D01*
X002405Y000879D01*
X002405Y000726D01*
X002328Y000649D01*
X001945Y000649D01*
X002002Y003570D02*
X002002Y003800D01*
X001925Y003877D01*
X001771Y003877D01*
X001695Y003800D01*
X001695Y003570D01*
X002155Y003570D01*
X002002Y003723D02*
X002155Y003877D01*
X002155Y004030D02*
X002155Y004337D01*
X002155Y004184D02*
X001695Y004184D01*
X001848Y004030D01*
X001771Y004491D02*
X001695Y004568D01*
X001695Y004721D01*
X001771Y004798D01*
X002078Y004491D01*
X002155Y004568D01*
X002155Y004721D01*
X002078Y004798D01*
X001771Y004798D01*
X001771Y004491D02*
X002078Y004491D01*
X001405Y004491D02*
X001405Y004798D01*
X001405Y004644D02*
X000945Y004644D01*
X001098Y004491D01*
X000945Y004184D02*
X001405Y004184D01*
X001405Y004337D02*
X001405Y004030D01*
X001405Y003877D02*
X001252Y003723D01*
X001252Y003800D02*
X001252Y003570D01*
X001405Y003570D02*
X000945Y003570D01*
X000945Y003800D01*
X001021Y003877D01*
X001175Y003877D01*
X001252Y003800D01*
X001098Y004030D02*
X000945Y004184D01*
X002521Y005695D02*
X002828Y005695D01*
X002905Y005772D01*
X002905Y005925D01*
X002828Y006002D01*
X002828Y006155D02*
X002752Y006155D01*
X002675Y006232D01*
X002675Y006386D01*
X002752Y006462D01*
X002828Y006462D01*
X002905Y006386D01*
X002905Y006232D01*
X002828Y006155D01*
X002675Y006232D02*
X002598Y006155D01*
X002521Y006155D01*
X002445Y006232D01*
X002445Y006386D01*
X002521Y006462D01*
X002598Y006462D01*
X002675Y006386D01*
X002521Y006002D02*
X002445Y005925D01*
X002445Y005772D01*
X002521Y005695D01*
X003195Y005695D02*
X003195Y005925D01*
X003271Y006002D01*
X003425Y006002D01*
X003502Y005925D01*
X003502Y005695D01*
X003655Y005695D02*
X003195Y005695D01*
X003502Y005848D02*
X003655Y006002D01*
X003655Y006155D02*
X003655Y006462D01*
X003655Y006309D02*
X003195Y006309D01*
X003348Y006155D01*
X003271Y006616D02*
X003195Y006693D01*
X003195Y006846D01*
X003271Y006923D01*
X003348Y006923D01*
X003655Y006616D01*
X003655Y006923D01*
X004021Y006462D02*
X003945Y006386D01*
X003945Y006232D01*
X004021Y006155D01*
X004098Y006155D01*
X004175Y006232D01*
X004175Y006462D01*
X004328Y006462D02*
X004021Y006462D01*
X004328Y006462D02*
X004405Y006386D01*
X004405Y006232D01*
X004328Y006155D01*
X004328Y006002D02*
X004405Y005925D01*
X004405Y005772D01*
X004328Y005695D01*
X004021Y005695D01*
X003945Y005772D01*
X003945Y005925D01*
X004021Y006002D01*
X003886Y008070D02*
X003732Y008070D01*
X003655Y008147D01*
X003655Y008223D01*
X003732Y008300D01*
X003886Y008300D01*
X003962Y008223D01*
X003962Y008147D01*
X003886Y008070D01*
X003886Y008300D02*
X003962Y008377D01*
X003962Y008454D01*
X003886Y008530D01*
X003732Y008530D01*
X003655Y008454D01*
X003655Y008377D01*
X003732Y008300D01*
X003502Y008300D02*
X003425Y008223D01*
X003195Y008223D01*
X003195Y008070D02*
X003195Y008530D01*
X003425Y008530D01*
X003502Y008454D01*
X003502Y008300D01*
X003348Y008223D02*
X003502Y008070D01*
X003619Y008871D02*
X003619Y008871D01*
X003619Y008870D02*
X003632Y008871D01*
X003645Y008876D01*
X003657Y008883D01*
X003667Y008893D01*
X003674Y008905D01*
X003679Y008918D01*
X003680Y008931D01*
X003679Y008932D02*
X003679Y009301D01*
X001599Y009301D01*
X001599Y008932D01*
X001599Y008931D02*
X001598Y008918D01*
X001593Y008905D01*
X001586Y008893D01*
X001576Y008883D01*
X001564Y008876D01*
X001551Y008871D01*
X001538Y008870D01*
X001538Y008871D02*
X001538Y008871D01*
X001523Y008873D01*
X001509Y008878D01*
X001497Y008885D01*
X001486Y008896D01*
X001479Y008908D01*
X001474Y008922D01*
X001472Y008937D01*
X001472Y008998D01*
X001471Y008998D02*
X001469Y009015D01*
X001464Y009032D01*
X001456Y009047D01*
X001445Y009060D01*
X001432Y009071D01*
X001417Y009079D01*
X001400Y009084D01*
X001383Y009086D01*
X001372Y009086D01*
X001355Y009084D01*
X001338Y009079D01*
X001323Y009071D01*
X001310Y009060D01*
X001299Y009047D01*
X001291Y009032D01*
X001286Y009015D01*
X001284Y008998D01*
X001284Y008932D01*
X001282Y008918D01*
X001278Y008906D01*
X001271Y008894D01*
X001261Y008884D01*
X001249Y008877D01*
X001237Y008873D01*
X001223Y008871D01*
X001208Y008873D01*
X001194Y008878D01*
X001182Y008885D01*
X001171Y008896D01*
X001164Y008908D01*
X001159Y008922D01*
X001157Y008937D01*
X001157Y009279D01*
X001599Y009301D02*
X000175Y009301D01*
X000175Y012298D01*
X003679Y012298D01*
X003679Y011802D01*
X003677Y011780D01*
X003672Y011758D01*
X003663Y011737D01*
X003652Y011718D01*
X003637Y011701D01*
X003620Y011686D01*
X003601Y011675D01*
X003580Y011666D01*
X003558Y011661D01*
X003536Y011659D01*
X003536Y011658D02*
X003326Y011658D01*
X003679Y012293D02*
X003679Y012663D01*
X003677Y012678D01*
X003672Y012692D01*
X003665Y012704D01*
X003654Y012715D01*
X003642Y012722D01*
X003628Y012727D01*
X003613Y012729D01*
X003599Y012727D01*
X003587Y012723D01*
X003575Y012716D01*
X003565Y012706D01*
X003558Y012694D01*
X003554Y012682D01*
X003552Y012668D01*
X003552Y012602D01*
X003550Y012585D01*
X003545Y012568D01*
X003537Y012553D01*
X003526Y012540D01*
X003513Y012529D01*
X003498Y012521D01*
X003481Y012516D01*
X003464Y012514D01*
X003453Y012514D01*
X003436Y012516D01*
X003419Y012521D01*
X003404Y012529D01*
X003391Y012540D01*
X003380Y012553D01*
X003372Y012568D01*
X003367Y012585D01*
X003365Y012602D01*
X003365Y012663D01*
X003363Y012678D01*
X003358Y012692D01*
X003351Y012704D01*
X003340Y012715D01*
X003328Y012722D01*
X003314Y012727D01*
X003299Y012729D01*
X003299Y012729D01*
X003298Y012729D02*
X003285Y012728D01*
X003272Y012723D01*
X003260Y012716D01*
X003250Y012706D01*
X003243Y012694D01*
X003239Y012681D01*
X003237Y012668D01*
X003238Y012668D02*
X003238Y012298D01*
X003195Y013070D02*
X003195Y013530D01*
X003425Y013530D01*
X003502Y013454D01*
X003502Y013300D01*
X003425Y013223D01*
X003195Y013223D01*
X003348Y013223D02*
X003502Y013070D01*
X003655Y013147D02*
X003732Y013070D01*
X003886Y013070D01*
X003962Y013147D01*
X003962Y013454D01*
X003886Y013530D01*
X003732Y013530D01*
X003655Y013454D01*
X003655Y013377D01*
X003732Y013300D01*
X003962Y013300D01*
X003423Y013897D02*
X003423Y013973D01*
X003346Y014050D01*
X003116Y014050D01*
X003116Y013897D01*
X003193Y013820D01*
X003346Y013820D01*
X003423Y013897D01*
X003269Y014204D02*
X003116Y014050D01*
X002962Y014050D02*
X002886Y013973D01*
X002655Y013973D01*
X002655Y013820D02*
X002655Y014280D01*
X002886Y014280D01*
X002962Y014204D01*
X002962Y014050D01*
X003269Y014204D02*
X003423Y014280D01*
X003380Y014437D02*
X003227Y014437D01*
X003150Y014514D01*
X002997Y014667D02*
X002920Y014591D01*
X002690Y014591D01*
X002690Y014437D02*
X002690Y014898D01*
X002920Y014898D01*
X002997Y014821D01*
X002997Y014667D01*
X003150Y014821D02*
X003227Y014898D01*
X003380Y014898D01*
X003457Y014821D01*
X003457Y014744D01*
X003380Y014667D01*
X003457Y014591D01*
X003457Y014514D01*
X003380Y014437D01*
X003380Y014667D02*
X003304Y014667D01*
X003380Y015062D02*
X003227Y015062D01*
X003150Y015139D01*
X003150Y015216D01*
X003227Y015292D01*
X003380Y015292D01*
X003457Y015216D01*
X003457Y015139D01*
X003380Y015062D01*
X003380Y015292D02*
X003457Y015369D01*
X003457Y015446D01*
X003380Y015523D01*
X003227Y015523D01*
X003150Y015446D01*
X003150Y015369D01*
X003227Y015292D01*
X002997Y015292D02*
X002997Y015446D01*
X002920Y015523D01*
X002690Y015523D01*
X002690Y015062D01*
X002690Y015216D02*
X002920Y015216D01*
X002997Y015292D01*
X002934Y015695D02*
X002934Y016155D01*
X002780Y016002D01*
X002627Y016079D02*
X002550Y016155D01*
X002320Y016155D01*
X002320Y015695D01*
X002320Y015848D02*
X002550Y015848D01*
X002627Y015925D01*
X002627Y016079D01*
X002473Y015848D02*
X002627Y015695D01*
X002780Y015695D02*
X003087Y015695D01*
X002536Y015523D02*
X002229Y015523D01*
X002383Y015523D02*
X002383Y015062D01*
X002383Y014898D02*
X002383Y014437D01*
X002348Y014280D02*
X002348Y013820D01*
X002048Y013897D02*
X002048Y014050D01*
X001971Y014127D01*
X001894Y014127D01*
X001741Y014050D01*
X001741Y014280D01*
X002048Y014280D01*
X002195Y014280D02*
X002502Y014280D01*
X002048Y014445D02*
X001741Y014445D01*
X002048Y014752D01*
X002048Y014829D01*
X001971Y014905D01*
X001818Y014905D01*
X001741Y014829D01*
X001587Y014829D02*
X001511Y014905D01*
X001280Y014905D01*
X001280Y014445D01*
X001280Y014598D02*
X001511Y014598D01*
X001587Y014675D01*
X001587Y014829D01*
X001445Y015139D02*
X001752Y015446D01*
X001752Y015523D01*
X001675Y015599D01*
X001522Y015599D01*
X001445Y015523D01*
X001292Y015599D02*
X000985Y015139D01*
X000973Y014905D02*
X000973Y014445D01*
X000973Y014280D02*
X000973Y013820D01*
X001022Y013530D02*
X000945Y013454D01*
X000945Y013147D01*
X001022Y013070D01*
X001175Y013070D01*
X001252Y013147D01*
X001405Y013147D02*
X001482Y013070D01*
X001636Y013070D01*
X001712Y013147D01*
X001712Y013300D01*
X001636Y013377D01*
X001559Y013377D01*
X001405Y013300D01*
X001405Y013530D01*
X001712Y013530D01*
X001818Y013820D02*
X001741Y013897D01*
X001818Y013820D02*
X001971Y013820D01*
X002048Y013897D01*
X001587Y014050D02*
X001587Y014204D01*
X001511Y014280D01*
X001280Y014280D01*
X001280Y013820D01*
X001280Y013973D02*
X001511Y013973D01*
X001587Y014050D01*
X001127Y014280D02*
X000820Y014280D01*
X000820Y014905D02*
X001127Y014905D01*
X001292Y015139D02*
X000985Y015599D01*
X001445Y015139D02*
X001752Y015139D01*
X002229Y014898D02*
X002536Y014898D01*
X003979Y015224D02*
X003979Y015685D01*
X004210Y015685D01*
X004286Y015608D01*
X004286Y015455D01*
X004210Y015378D01*
X003979Y015378D01*
X004133Y015378D02*
X004286Y015224D01*
X004440Y015224D02*
X004747Y015224D01*
X004593Y015224D02*
X004593Y015685D01*
X004440Y015531D01*
X004900Y015455D02*
X005207Y015455D01*
X005130Y015685D02*
X005130Y015224D01*
X004900Y015455D02*
X005130Y015685D01*
X005604Y015710D02*
X005604Y015249D01*
X005604Y015403D02*
X005835Y015403D01*
X005911Y015480D01*
X005911Y015633D01*
X005835Y015710D01*
X005604Y015710D01*
X005758Y015403D02*
X005911Y015249D01*
X006065Y015326D02*
X006142Y015249D01*
X006295Y015249D01*
X006372Y015326D01*
X006372Y015403D01*
X006295Y015480D01*
X006218Y015480D01*
X006295Y015480D02*
X006372Y015556D01*
X006372Y015633D01*
X006295Y015710D01*
X006142Y015710D01*
X006065Y015633D01*
X004155Y016524D02*
X003695Y016524D01*
X003695Y016754D01*
X003771Y016831D01*
X003925Y016831D01*
X004002Y016754D01*
X004002Y016524D01*
X004002Y016678D02*
X004155Y016831D01*
X004155Y016985D02*
X003848Y017292D01*
X003771Y017292D01*
X003695Y017215D01*
X003695Y017061D01*
X003771Y016985D01*
X004155Y016985D02*
X004155Y017292D01*
X005820Y018649D02*
X006280Y018956D01*
X006050Y019110D02*
X006050Y019417D01*
X006280Y019340D02*
X005820Y019340D01*
X006050Y019110D01*
X005820Y018956D02*
X006280Y018649D01*
X001252Y013454D02*
X001175Y013530D01*
X001022Y013530D01*
X001218Y012729D02*
X001218Y012729D01*
X001205Y012728D01*
X001192Y012723D01*
X001180Y012716D01*
X001170Y012706D01*
X001163Y012694D01*
X001158Y012681D01*
X001157Y012668D01*
X001157Y012298D01*
X001372Y012514D02*
X001383Y012514D01*
X001400Y012516D01*
X001417Y012521D01*
X001432Y012529D01*
X001445Y012540D01*
X001456Y012553D01*
X001464Y012568D01*
X001469Y012585D01*
X001471Y012602D01*
X001472Y012602D02*
X001472Y012668D01*
X001471Y012668D02*
X001473Y012682D01*
X001477Y012694D01*
X001484Y012706D01*
X001494Y012716D01*
X001506Y012723D01*
X001518Y012727D01*
X001532Y012729D01*
X001547Y012727D01*
X001561Y012722D01*
X001573Y012715D01*
X001584Y012704D01*
X001591Y012692D01*
X001596Y012678D01*
X001598Y012663D01*
X001599Y012663D02*
X001599Y012320D01*
X001372Y012514D02*
X001355Y012516D01*
X001338Y012521D01*
X001323Y012529D01*
X001310Y012540D01*
X001299Y012553D01*
X001291Y012568D01*
X001286Y012585D01*
X001284Y012602D01*
X001284Y012663D01*
X001282Y012678D01*
X001277Y012692D01*
X001270Y012704D01*
X001259Y012715D01*
X001247Y012722D01*
X001233Y012727D01*
X001218Y012729D01*
X000644Y012276D02*
X000644Y011669D01*
X000646Y011647D01*
X000651Y011626D01*
X000659Y011606D01*
X000670Y011588D01*
X000684Y011571D01*
X000701Y011557D01*
X000719Y011546D01*
X000739Y011538D01*
X000760Y011533D01*
X000782Y011531D01*
X000798Y011531D01*
X002244Y011465D01*
X002258Y011466D01*
X002272Y011470D01*
X002283Y011478D01*
X002293Y011488D01*
X002300Y011500D01*
X002304Y011513D01*
X002305Y011527D01*
X002302Y011541D01*
X002296Y011554D01*
X002288Y011564D01*
X002276Y011573D01*
X002264Y011579D01*
X002250Y011581D01*
X000914Y011669D01*
X000915Y011669D02*
X000896Y011672D01*
X000879Y011679D01*
X000863Y011688D01*
X000849Y011701D01*
X000838Y011716D01*
X000830Y011732D01*
X000825Y011750D01*
X000824Y011769D01*
X000826Y011787D01*
X000832Y011805D01*
X000841Y011821D01*
X000853Y011835D01*
X000868Y011847D01*
X000884Y011856D01*
X000902Y011861D01*
X000920Y011863D01*
X000920Y011862D02*
X002261Y011951D01*
X002273Y011953D01*
X002284Y011959D01*
X002293Y011967D01*
X002300Y011977D01*
X002304Y011988D01*
X002305Y012000D01*
X002305Y012276D01*
X002289Y011228D02*
X000704Y011310D01*
X000705Y011311D02*
X000691Y011310D01*
X000678Y011305D01*
X000667Y011297D01*
X000658Y011287D01*
X000652Y011274D01*
X000649Y011261D01*
X000650Y011247D01*
X000655Y011234D01*
X000663Y011223D01*
X000673Y011214D01*
X000686Y011208D01*
X000699Y011205D01*
X000699Y011206D02*
X001924Y011139D01*
X001948Y011137D01*
X001972Y011132D01*
X001995Y011124D01*
X002016Y011112D01*
X002036Y011097D01*
X002053Y011080D01*
X002068Y011060D01*
X002080Y011039D01*
X002088Y011016D01*
X002093Y010992D01*
X002095Y010968D01*
X002095Y010621D01*
X002096Y010621D02*
X002094Y010597D01*
X002089Y010574D01*
X002081Y010552D01*
X002070Y010531D01*
X002055Y010512D01*
X002039Y010496D01*
X002020Y010481D01*
X001999Y010470D01*
X001977Y010462D01*
X001954Y010457D01*
X001930Y010455D01*
X001902Y010455D01*
X000704Y010400D01*
X000691Y010398D01*
X000678Y010392D01*
X000667Y010383D01*
X000659Y010372D01*
X000654Y010359D01*
X000652Y010345D01*
X000654Y010331D01*
X000659Y010318D01*
X000667Y010307D01*
X000678Y010298D01*
X000691Y010292D01*
X000704Y010290D01*
X000704Y010289D02*
X002277Y010372D01*
X002300Y010374D01*
X002321Y010379D01*
X002342Y010388D01*
X002362Y010400D01*
X002379Y010414D01*
X002393Y010431D01*
X002405Y010451D01*
X002414Y010472D01*
X002419Y010493D01*
X002421Y010516D01*
X002421Y011095D01*
X002419Y011116D01*
X002414Y011136D01*
X002406Y011155D01*
X002396Y011173D01*
X002382Y011189D01*
X002366Y011203D01*
X002348Y011213D01*
X002329Y011221D01*
X002309Y011226D01*
X002288Y011228D01*
X002244Y010135D02*
X000798Y010069D01*
X000782Y010069D01*
X000760Y010067D01*
X000739Y010062D01*
X000719Y010054D01*
X000701Y010043D01*
X000684Y010029D01*
X000670Y010012D01*
X000659Y009994D01*
X000651Y009974D01*
X000646Y009953D01*
X000644Y009931D01*
X000644Y009323D01*
X000920Y009737D02*
X002261Y009649D01*
X002273Y009647D01*
X002284Y009641D01*
X002293Y009633D01*
X002300Y009623D01*
X002304Y009612D01*
X002305Y009600D01*
X002305Y009599D02*
X002305Y009323D01*
X002250Y010019D02*
X000914Y009931D01*
X000915Y009931D02*
X000896Y009928D01*
X000879Y009921D01*
X000863Y009912D01*
X000849Y009899D01*
X000838Y009884D01*
X000830Y009868D01*
X000825Y009850D01*
X000824Y009831D01*
X000826Y009813D01*
X000832Y009795D01*
X000841Y009779D01*
X000853Y009765D01*
X000868Y009753D01*
X000884Y009744D01*
X000902Y009739D01*
X000920Y009737D01*
X001022Y008530D02*
X000945Y008454D01*
X000945Y008147D01*
X001022Y008070D01*
X001175Y008070D01*
X001252Y008147D01*
X001405Y008300D02*
X001712Y008300D01*
X001636Y008070D02*
X001636Y008530D01*
X001405Y008300D01*
X001252Y008454D02*
X001175Y008530D01*
X001022Y008530D01*
X002250Y010019D02*
X002264Y010021D01*
X002276Y010027D01*
X002288Y010036D01*
X002296Y010046D01*
X002302Y010059D01*
X002305Y010073D01*
X002304Y010087D01*
X002300Y010100D01*
X002293Y010112D01*
X002283Y010122D01*
X002272Y010130D01*
X002258Y010134D01*
X002244Y010135D01*
X003310Y009942D02*
X003541Y009942D01*
X003563Y009940D01*
X003584Y009935D01*
X003604Y009927D01*
X003622Y009916D01*
X003639Y009902D01*
X003653Y009885D01*
X003664Y009867D01*
X003672Y009847D01*
X003677Y009826D01*
X003679Y009804D01*
X003679Y009301D01*
X003464Y009086D02*
X003453Y009086D01*
X003436Y009084D01*
X003419Y009079D01*
X003404Y009071D01*
X003391Y009060D01*
X003380Y009047D01*
X003372Y009032D01*
X003367Y009015D01*
X003365Y008998D01*
X003365Y008932D01*
X003363Y008918D01*
X003359Y008906D01*
X003352Y008894D01*
X003342Y008884D01*
X003330Y008877D01*
X003318Y008873D01*
X003304Y008871D01*
X003289Y008873D01*
X003275Y008878D01*
X003263Y008885D01*
X003252Y008896D01*
X003245Y008908D01*
X003240Y008922D01*
X003238Y008937D01*
X003238Y009279D01*
X003464Y009086D02*
X003481Y009084D01*
X003498Y009079D01*
X003513Y009071D01*
X003526Y009060D01*
X003537Y009047D01*
X003545Y009032D01*
X003550Y009015D01*
X003552Y008998D01*
X003552Y008937D01*
X003553Y008937D02*
X003555Y008922D01*
X003560Y008908D01*
X003567Y008896D01*
X003578Y008885D01*
X003590Y008878D01*
X003604Y008873D01*
X003619Y008871D01*
X004070Y008820D02*
X004530Y009127D01*
X004530Y009280D02*
X004453Y009280D01*
X004146Y009587D01*
X004070Y009587D01*
X004070Y009280D01*
X004070Y009127D02*
X004530Y008820D01*
X004502Y010195D02*
X004502Y010425D01*
X004425Y010502D01*
X004271Y010502D01*
X004195Y010425D01*
X004195Y010195D01*
X004655Y010195D01*
X004502Y010348D02*
X004655Y010502D01*
X004578Y010655D02*
X004425Y010655D01*
X004425Y010886D01*
X004502Y010962D01*
X004578Y010962D01*
X004655Y010886D01*
X004655Y010732D01*
X004578Y010655D01*
X004425Y010655D02*
X004271Y010809D01*
X004195Y010962D01*
X004195Y011070D02*
X004195Y011300D01*
X004271Y011377D01*
X004425Y011377D01*
X004502Y011300D01*
X004502Y011070D01*
X004655Y011070D02*
X004195Y011070D01*
X004502Y011223D02*
X004655Y011377D01*
X004425Y011530D02*
X004425Y011837D01*
X004300Y011945D02*
X004377Y012022D01*
X004300Y011945D02*
X004147Y011945D01*
X004070Y012022D01*
X004070Y012329D01*
X004147Y012405D01*
X004300Y012405D01*
X004377Y012329D01*
X004530Y012329D02*
X004607Y012405D01*
X004761Y012405D01*
X004837Y012329D01*
X004837Y012252D01*
X004761Y012175D01*
X004837Y012098D01*
X004837Y012022D01*
X004761Y011945D01*
X004607Y011945D01*
X004530Y012022D01*
X004684Y012175D02*
X004761Y012175D01*
X004655Y011761D02*
X004195Y011761D01*
X004425Y011530D01*
X014070Y013155D02*
X014377Y013155D01*
X014530Y013155D02*
X014761Y013155D01*
X014837Y013079D01*
X014837Y012925D01*
X014761Y012848D01*
X014530Y012848D01*
X014530Y012695D02*
X014530Y013155D01*
X014223Y013155D02*
X014223Y012695D01*
X014991Y012695D02*
X015298Y012695D01*
X015144Y012695D02*
X015144Y013155D01*
X014991Y013002D01*
X015945Y013155D02*
X016252Y013155D01*
X016405Y013155D02*
X016636Y013155D01*
X016712Y013079D01*
X016712Y012925D01*
X016636Y012848D01*
X016405Y012848D01*
X016405Y012695D02*
X016405Y013155D01*
X016098Y013155D02*
X016098Y012695D01*
X016866Y012925D02*
X017173Y012925D01*
X017096Y012695D02*
X017096Y013155D01*
X016866Y012925D01*
X017837Y012395D02*
X018144Y011934D01*
X018298Y011934D02*
X018605Y011934D01*
X018451Y011934D02*
X018451Y012395D01*
X018298Y012241D01*
X018144Y012395D02*
X017837Y011934D01*
X019024Y013820D02*
X019331Y014280D01*
X019485Y014280D02*
X019485Y014050D01*
X019638Y014127D01*
X019715Y014127D01*
X019792Y014050D01*
X019792Y013897D01*
X019715Y013820D01*
X019561Y013820D01*
X019485Y013897D01*
X019331Y013820D02*
X019024Y014280D01*
X019485Y014280D02*
X019792Y014280D01*
X017252Y015466D02*
X017175Y015389D01*
X017022Y015389D01*
X016945Y015466D01*
X016792Y015389D02*
X016485Y015849D01*
X016792Y015849D02*
X016485Y015389D01*
X016945Y015773D02*
X017022Y015849D01*
X017175Y015849D01*
X017252Y015773D01*
X017252Y015696D01*
X017175Y015619D01*
X017252Y015542D01*
X017252Y015466D01*
X017175Y015619D02*
X017098Y015619D01*
X016048Y014655D02*
X016048Y014579D01*
X015741Y014272D01*
X015741Y014195D01*
X015587Y014425D02*
X015587Y014579D01*
X015511Y014655D01*
X015280Y014655D01*
X015280Y014195D01*
X015280Y014348D02*
X015511Y014348D01*
X015587Y014425D01*
X015741Y014655D02*
X016048Y014655D01*
X015127Y014655D02*
X014820Y014655D01*
X014973Y014655D02*
X014973Y014195D01*
X015122Y015674D02*
X014815Y015674D01*
X015122Y015981D01*
X015122Y016058D01*
X015045Y016135D01*
X014892Y016135D01*
X014815Y016058D01*
X014661Y016058D02*
X014585Y016135D01*
X014431Y016135D01*
X014354Y016058D01*
X014354Y015751D01*
X014431Y015674D01*
X014585Y015674D01*
X014661Y015751D01*
X015695Y017149D02*
X015695Y017379D01*
X015771Y017456D01*
X015925Y017456D01*
X016002Y017379D01*
X016002Y017149D01*
X016155Y017149D02*
X015695Y017149D01*
X016002Y017303D02*
X016155Y017456D01*
X016078Y017610D02*
X016155Y017686D01*
X016155Y017840D01*
X016078Y017917D01*
X015925Y017917D01*
X015848Y017840D01*
X015848Y017763D01*
X015925Y017610D01*
X015695Y017610D01*
X015695Y017917D01*
X014905Y010792D02*
X014905Y010485D01*
X014905Y010638D02*
X014445Y010638D01*
X014598Y010485D01*
X014521Y010331D02*
X014445Y010254D01*
X014445Y010101D01*
X014521Y010024D01*
X014828Y010024D01*
X014905Y010101D01*
X014905Y010254D01*
X014828Y010331D01*
X012845Y001804D02*
X012605Y001804D01*
X012545Y001743D01*
X012545Y001623D01*
X012605Y001563D01*
X012665Y001563D01*
X012725Y001623D01*
X012725Y001804D01*
X012845Y001804D02*
X012905Y001743D01*
X012905Y001623D01*
X012845Y001563D01*
X012905Y001435D02*
X012545Y001195D01*
X012545Y001435D02*
X012905Y001195D01*
X018195Y000905D02*
X018502Y000445D01*
X018655Y000522D02*
X018732Y000445D01*
X018886Y000445D01*
X018962Y000522D01*
X018962Y000598D01*
X018886Y000675D01*
X018732Y000675D01*
X018655Y000752D01*
X018655Y000829D01*
X018732Y000905D01*
X018886Y000905D01*
X018962Y000829D01*
X018962Y000752D01*
X018886Y000675D01*
X018732Y000675D02*
X018655Y000598D01*
X018655Y000522D01*
X018502Y000905D02*
X018195Y000445D01*
D15*
X008675Y003009D02*
X008675Y003284D01*
X008175Y003284D02*
X008175Y003009D01*
X007675Y003009D02*
X007675Y003284D01*
X007175Y003284D02*
X007175Y003009D01*
X006675Y003009D02*
X006675Y003284D01*
X004675Y003284D02*
X004675Y003009D01*
X004175Y003009D02*
X004175Y003284D01*
X003675Y003284D02*
X003675Y003009D01*
X003175Y003009D02*
X003175Y003284D01*
X002675Y003284D02*
X002675Y003009D01*
D16*
X010425Y002800D02*
X010425Y001050D01*
X012425Y001050D01*
X012425Y002800D01*
X010425Y002800D01*
X010425Y003550D01*
X012425Y003550D01*
X012425Y002800D01*
D17*
X011376Y006788D03*
M02*
