G75*
G70*
%OFA0B0*%
%FSLAX24Y24*%
%IPPOS*%
%LPD*%
%AMOC8*
5,1,8,0,0,1.08239X$1,22.5*
%
%ADD10C,0.0000*%
%ADD11R,0.0749X0.0355*%
%ADD12R,0.1040X0.1840*%
%ADD13R,0.1840X0.1040*%
%ADD14R,0.0906X0.1024*%
%ADD15R,0.0827X0.0237*%
%ADD16C,0.0394*%
%ADD17R,0.0355X0.0355*%
%ADD18R,0.0434X0.0434*%
%ADD19R,0.0453X0.0434*%
%ADD20R,0.0906X0.0453*%
%ADD21R,0.0985X0.1197*%
%ADD22C,0.0434*%
%ADD23OC8,0.0640*%
%ADD24R,0.0257X0.0886*%
%ADD25R,0.1457X0.0906*%
%ADD26C,0.0634*%
%ADD27R,0.0390X0.0350*%
%ADD28R,0.0808X0.0631*%
D10*
X000675Y000300D02*
X000675Y019800D01*
X020175Y019800D01*
X020175Y000300D01*
X000675Y000300D01*
X002498Y010111D02*
X002500Y010137D01*
X002506Y010163D01*
X002516Y010188D01*
X002529Y010211D01*
X002545Y010231D01*
X002565Y010249D01*
X002587Y010264D01*
X002610Y010276D01*
X002636Y010284D01*
X002662Y010288D01*
X002688Y010288D01*
X002714Y010284D01*
X002740Y010276D01*
X002764Y010264D01*
X002785Y010249D01*
X002805Y010231D01*
X002821Y010211D01*
X002834Y010188D01*
X002844Y010163D01*
X002850Y010137D01*
X002852Y010111D01*
X002850Y010085D01*
X002844Y010059D01*
X002834Y010034D01*
X002821Y010011D01*
X002805Y009991D01*
X002785Y009973D01*
X002763Y009958D01*
X002740Y009946D01*
X002714Y009938D01*
X002688Y009934D01*
X002662Y009934D01*
X002636Y009938D01*
X002610Y009946D01*
X002586Y009958D01*
X002565Y009973D01*
X002545Y009991D01*
X002529Y010011D01*
X002516Y010034D01*
X002506Y010059D01*
X002500Y010085D01*
X002498Y010111D01*
X002498Y011489D02*
X002500Y011515D01*
X002506Y011541D01*
X002516Y011566D01*
X002529Y011589D01*
X002545Y011609D01*
X002565Y011627D01*
X002587Y011642D01*
X002610Y011654D01*
X002636Y011662D01*
X002662Y011666D01*
X002688Y011666D01*
X002714Y011662D01*
X002740Y011654D01*
X002764Y011642D01*
X002785Y011627D01*
X002805Y011609D01*
X002821Y011589D01*
X002834Y011566D01*
X002844Y011541D01*
X002850Y011515D01*
X002852Y011489D01*
X002850Y011463D01*
X002844Y011437D01*
X002834Y011412D01*
X002821Y011389D01*
X002805Y011369D01*
X002785Y011351D01*
X002763Y011336D01*
X002740Y011324D01*
X002714Y011316D01*
X002688Y011312D01*
X002662Y011312D01*
X002636Y011316D01*
X002610Y011324D01*
X002586Y011336D01*
X002565Y011351D01*
X002545Y011369D01*
X002529Y011389D01*
X002516Y011412D01*
X002506Y011437D01*
X002500Y011463D01*
X002498Y011489D01*
X000800Y019800D02*
X005800Y019800D01*
X016297Y010800D02*
X016299Y010827D01*
X016305Y010854D01*
X016314Y010880D01*
X016327Y010904D01*
X016343Y010927D01*
X016362Y010946D01*
X016384Y010963D01*
X016408Y010977D01*
X016433Y010987D01*
X016460Y010994D01*
X016487Y010997D01*
X016515Y010996D01*
X016542Y010991D01*
X016568Y010983D01*
X016592Y010971D01*
X016615Y010955D01*
X016636Y010937D01*
X016653Y010916D01*
X016668Y010892D01*
X016679Y010867D01*
X016687Y010841D01*
X016691Y010814D01*
X016691Y010786D01*
X016687Y010759D01*
X016679Y010733D01*
X016668Y010708D01*
X016653Y010684D01*
X016636Y010663D01*
X016615Y010645D01*
X016593Y010629D01*
X016568Y010617D01*
X016542Y010609D01*
X016515Y010604D01*
X016487Y010603D01*
X016460Y010606D01*
X016433Y010613D01*
X016408Y010623D01*
X016384Y010637D01*
X016362Y010654D01*
X016343Y010673D01*
X016327Y010696D01*
X016314Y010720D01*
X016305Y010746D01*
X016299Y010773D01*
X016297Y010800D01*
X018659Y010800D02*
X018661Y010827D01*
X018667Y010854D01*
X018676Y010880D01*
X018689Y010904D01*
X018705Y010927D01*
X018724Y010946D01*
X018746Y010963D01*
X018770Y010977D01*
X018795Y010987D01*
X018822Y010994D01*
X018849Y010997D01*
X018877Y010996D01*
X018904Y010991D01*
X018930Y010983D01*
X018954Y010971D01*
X018977Y010955D01*
X018998Y010937D01*
X019015Y010916D01*
X019030Y010892D01*
X019041Y010867D01*
X019049Y010841D01*
X019053Y010814D01*
X019053Y010786D01*
X019049Y010759D01*
X019041Y010733D01*
X019030Y010708D01*
X019015Y010684D01*
X018998Y010663D01*
X018977Y010645D01*
X018955Y010629D01*
X018930Y010617D01*
X018904Y010609D01*
X018877Y010604D01*
X018849Y010603D01*
X018822Y010606D01*
X018795Y010613D01*
X018770Y010623D01*
X018746Y010637D01*
X018724Y010654D01*
X018705Y010673D01*
X018689Y010696D01*
X018676Y010720D01*
X018667Y010746D01*
X018661Y010773D01*
X018659Y010800D01*
X020175Y014300D02*
X020175Y019300D01*
X020175Y005800D02*
X020175Y000800D01*
D11*
X013732Y009894D03*
X013732Y010328D03*
X013732Y010761D03*
X013732Y011194D03*
X013732Y011627D03*
X013732Y012060D03*
X013732Y012493D03*
X013732Y012926D03*
X013732Y014422D03*
X013732Y014855D03*
X013732Y015288D03*
X013732Y015721D03*
X013732Y016154D03*
X013732Y016587D03*
X007118Y016587D03*
X007118Y016154D03*
X007118Y015721D03*
X007118Y015288D03*
X007118Y014855D03*
X007118Y014422D03*
X007118Y012926D03*
X007118Y012493D03*
X007118Y012060D03*
X007118Y011627D03*
X007118Y011194D03*
X007118Y010761D03*
X007118Y010328D03*
X007118Y009894D03*
D12*
X004900Y018700D03*
X003300Y018700D03*
X001700Y018700D03*
D13*
X019075Y018400D03*
X019075Y016800D03*
X019075Y015200D03*
X019075Y004900D03*
X019075Y003300D03*
X019075Y001700D03*
D14*
X003462Y009146D03*
X001376Y009146D03*
X001376Y012454D03*
X003462Y012454D03*
D15*
X003561Y011430D03*
X003561Y011115D03*
X003561Y010800D03*
X003561Y010485D03*
X003561Y010170D03*
D16*
X002675Y010111D03*
X002675Y011489D03*
D17*
X002738Y012610D03*
X002738Y013240D03*
X002113Y013240D03*
X002113Y012610D03*
X004235Y014850D03*
X004865Y014850D03*
X005610Y014850D03*
X006240Y014850D03*
X005740Y012050D03*
X005110Y012050D03*
X005110Y011300D03*
X005740Y011300D03*
X005740Y010550D03*
X005110Y010550D03*
X002738Y008990D03*
X002113Y008990D03*
X002113Y008360D03*
X002738Y008360D03*
X002675Y005115D03*
X002675Y004485D03*
X003425Y004485D03*
X003425Y005115D03*
X004175Y005115D03*
X004175Y004485D03*
X005425Y002615D03*
X005425Y001985D03*
X007175Y004485D03*
X007175Y005115D03*
X007925Y005115D03*
X007925Y004485D03*
X009425Y002615D03*
X009425Y001985D03*
X009860Y006675D03*
X010490Y006675D03*
X011130Y006675D03*
X011720Y006675D03*
X015925Y003990D03*
X015925Y003360D03*
X014675Y011235D03*
X014675Y011865D03*
X014610Y015300D03*
X015240Y015300D03*
X015925Y015985D03*
X015925Y016615D03*
X003300Y016610D03*
X003240Y016550D03*
X002610Y016550D03*
X003300Y017240D03*
X001925Y003115D03*
X001925Y002485D03*
X001175Y002485D03*
X001175Y003115D03*
D18*
X004925Y012800D03*
X004925Y013800D03*
X005925Y013800D03*
X005925Y012800D03*
X003925Y014050D03*
X014425Y013675D03*
X015425Y013675D03*
X016425Y013675D03*
D19*
X017517Y016800D03*
X017517Y003300D03*
X002017Y016550D03*
D20*
X001425Y017122D03*
X001425Y015978D03*
X016925Y016228D03*
X016925Y017372D03*
X016925Y003872D03*
X016925Y002728D03*
D21*
X018305Y009619D03*
X019368Y012089D03*
X015549Y012148D03*
D22*
X016494Y010800D03*
X018856Y010800D03*
D23*
X018675Y007800D03*
X018675Y006800D03*
X017675Y006800D03*
X017675Y007800D03*
X016675Y007800D03*
X016675Y006800D03*
X015675Y006800D03*
X015675Y007800D03*
X014675Y007800D03*
X014675Y006800D03*
X019675Y006800D03*
X019675Y007800D03*
D24*
X008675Y003363D03*
X008175Y003363D03*
X007675Y003363D03*
X007175Y003363D03*
X006675Y003363D03*
X004675Y003363D03*
X004175Y003363D03*
X003675Y003363D03*
X003175Y003363D03*
X002675Y003363D03*
D25*
X003675Y001119D03*
X007675Y001119D03*
D26*
X010925Y002003D02*
X010925Y002597D01*
X011925Y002597D02*
X011925Y002003D01*
D27*
X009450Y004800D03*
X008650Y004420D03*
X008650Y005180D03*
X005700Y004800D03*
X004900Y004420D03*
X004900Y005180D03*
D28*
X010884Y005175D03*
X011966Y005175D03*
X011966Y004050D03*
X010884Y004050D03*
M02*
