G75*
G70*
%OFA0B0*%
%FSLAX24Y24*%
%IPPOS*%
%LPD*%
%AMOC8*
5,1,8,0,0,1.08239X$1,22.5*
%
%ADD10C,0.0000*%
%ADD11C,0.0060*%
%ADD12R,0.0500X0.0250*%
%ADD13R,0.0250X0.0500*%
%ADD14R,0.1157X0.0945*%
%ADD15R,0.0364X0.0291*%
%ADD16R,0.0433X0.0394*%
%ADD17R,0.0394X0.0433*%
%ADD18C,0.0560*%
%ADD19R,0.0600X0.0600*%
%ADD20OC8,0.0600*%
%ADD21OC8,0.0554*%
%ADD22C,0.0691*%
%ADD23OC8,0.0898*%
%ADD24R,0.0846X0.0217*%
%ADD25R,0.0866X0.1417*%
%ADD26R,0.0315X0.0315*%
%ADD27C,0.0300*%
%ADD28C,0.0600*%
%ADD29R,0.0260X0.0260*%
%ADD30C,0.0240*%
%ADD31C,0.0140*%
%ADD32C,0.0260*%
%ADD33OC8,0.0240*%
%ADD34C,0.0100*%
%ADD35C,0.0160*%
D10*
X000253Y000145D02*
X000253Y019830D01*
X019742Y019830D01*
X019742Y000145D01*
X000253Y000145D01*
X002041Y001897D02*
X002043Y001924D01*
X002049Y001951D01*
X002058Y001977D01*
X002071Y002001D01*
X002087Y002024D01*
X002106Y002043D01*
X002128Y002060D01*
X002152Y002074D01*
X002177Y002084D01*
X002204Y002091D01*
X002231Y002094D01*
X002259Y002093D01*
X002286Y002088D01*
X002312Y002080D01*
X002336Y002068D01*
X002359Y002052D01*
X002380Y002034D01*
X002397Y002013D01*
X002412Y001989D01*
X002423Y001964D01*
X002431Y001938D01*
X002435Y001911D01*
X002435Y001883D01*
X002431Y001856D01*
X002423Y001830D01*
X002412Y001805D01*
X002397Y001781D01*
X002380Y001760D01*
X002359Y001742D01*
X002337Y001726D01*
X002312Y001714D01*
X002286Y001706D01*
X002259Y001701D01*
X002231Y001700D01*
X002204Y001703D01*
X002177Y001710D01*
X002152Y001720D01*
X002128Y001734D01*
X002106Y001751D01*
X002087Y001770D01*
X002071Y001793D01*
X002058Y001817D01*
X002049Y001843D01*
X002043Y001870D01*
X002041Y001897D01*
X002041Y004259D02*
X002043Y004286D01*
X002049Y004313D01*
X002058Y004339D01*
X002071Y004363D01*
X002087Y004386D01*
X002106Y004405D01*
X002128Y004422D01*
X002152Y004436D01*
X002177Y004446D01*
X002204Y004453D01*
X002231Y004456D01*
X002259Y004455D01*
X002286Y004450D01*
X002312Y004442D01*
X002336Y004430D01*
X002359Y004414D01*
X002380Y004396D01*
X002397Y004375D01*
X002412Y004351D01*
X002423Y004326D01*
X002431Y004300D01*
X002435Y004273D01*
X002435Y004245D01*
X002431Y004218D01*
X002423Y004192D01*
X002412Y004167D01*
X002397Y004143D01*
X002380Y004122D01*
X002359Y004104D01*
X002337Y004088D01*
X002312Y004076D01*
X002286Y004068D01*
X002259Y004063D01*
X002231Y004062D01*
X002204Y004065D01*
X002177Y004072D01*
X002152Y004082D01*
X002128Y004096D01*
X002106Y004113D01*
X002087Y004132D01*
X002071Y004155D01*
X002058Y004179D01*
X002049Y004205D01*
X002043Y004232D01*
X002041Y004259D01*
X002190Y015716D02*
X002192Y015743D01*
X002198Y015770D01*
X002207Y015796D01*
X002220Y015820D01*
X002236Y015843D01*
X002255Y015862D01*
X002277Y015879D01*
X002301Y015893D01*
X002326Y015903D01*
X002353Y015910D01*
X002380Y015913D01*
X002408Y015912D01*
X002435Y015907D01*
X002461Y015899D01*
X002485Y015887D01*
X002508Y015871D01*
X002529Y015853D01*
X002546Y015832D01*
X002561Y015808D01*
X002572Y015783D01*
X002580Y015757D01*
X002584Y015730D01*
X002584Y015702D01*
X002580Y015675D01*
X002572Y015649D01*
X002561Y015624D01*
X002546Y015600D01*
X002529Y015579D01*
X002508Y015561D01*
X002486Y015545D01*
X002461Y015533D01*
X002435Y015525D01*
X002408Y015520D01*
X002380Y015519D01*
X002353Y015522D01*
X002326Y015529D01*
X002301Y015539D01*
X002277Y015553D01*
X002255Y015570D01*
X002236Y015589D01*
X002220Y015612D01*
X002207Y015636D01*
X002198Y015662D01*
X002192Y015689D01*
X002190Y015716D01*
X002190Y018078D02*
X002192Y018105D01*
X002198Y018132D01*
X002207Y018158D01*
X002220Y018182D01*
X002236Y018205D01*
X002255Y018224D01*
X002277Y018241D01*
X002301Y018255D01*
X002326Y018265D01*
X002353Y018272D01*
X002380Y018275D01*
X002408Y018274D01*
X002435Y018269D01*
X002461Y018261D01*
X002485Y018249D01*
X002508Y018233D01*
X002529Y018215D01*
X002546Y018194D01*
X002561Y018170D01*
X002572Y018145D01*
X002580Y018119D01*
X002584Y018092D01*
X002584Y018064D01*
X002580Y018037D01*
X002572Y018011D01*
X002561Y017986D01*
X002546Y017962D01*
X002529Y017941D01*
X002508Y017923D01*
X002486Y017907D01*
X002461Y017895D01*
X002435Y017887D01*
X002408Y017882D01*
X002380Y017881D01*
X002353Y017884D01*
X002326Y017891D01*
X002301Y017901D01*
X002277Y017915D01*
X002255Y017932D01*
X002236Y017951D01*
X002220Y017974D01*
X002207Y017998D01*
X002198Y018024D01*
X002192Y018051D01*
X002190Y018078D01*
D11*
X002037Y013513D02*
X002143Y013406D01*
X002143Y013192D01*
X002037Y013086D01*
X001823Y013299D02*
X001823Y013406D01*
X001930Y013513D01*
X002037Y013513D01*
X001823Y013406D02*
X001716Y013513D01*
X001610Y013513D01*
X001503Y013406D01*
X001503Y013192D01*
X001610Y013086D01*
X001716Y012868D02*
X002143Y012655D01*
X001716Y012441D01*
X001003Y012314D02*
X000683Y012314D01*
X000576Y012207D01*
X000683Y012100D01*
X001003Y012100D01*
X001003Y011887D02*
X000576Y011887D01*
X000576Y011993D01*
X000683Y012100D01*
X000683Y011669D02*
X000576Y011562D01*
X000576Y011349D01*
X000683Y011242D01*
X000897Y011242D01*
X001003Y011349D01*
X001003Y011562D01*
X000897Y011669D01*
X000683Y011669D01*
X000576Y011024D02*
X000576Y010704D01*
X000683Y010597D01*
X000897Y010597D01*
X001003Y010704D01*
X001003Y011024D01*
X001503Y010828D02*
X001503Y010507D01*
X002143Y010507D01*
X001930Y010507D02*
X001930Y010828D01*
X001823Y010934D01*
X001610Y010934D01*
X001503Y010828D01*
X001610Y011152D02*
X001716Y011152D01*
X001823Y011259D01*
X001823Y011472D01*
X001930Y011579D01*
X002037Y011579D01*
X002143Y011472D01*
X002143Y011259D01*
X002037Y011152D01*
X001610Y011152D02*
X001503Y011259D01*
X001503Y011472D01*
X001610Y011579D01*
X000897Y010380D02*
X000683Y010380D01*
X000576Y010273D01*
X000576Y010060D01*
X000683Y009953D01*
X000897Y009953D01*
X001003Y010060D01*
X001003Y010273D01*
X000897Y010380D01*
X001503Y010183D02*
X001503Y009970D01*
X001610Y009863D01*
X002037Y009863D01*
X002143Y009970D01*
X002143Y010183D01*
X002037Y010290D01*
X001823Y010290D01*
X001823Y010076D01*
X001610Y010290D02*
X001503Y010183D01*
X001003Y009735D02*
X000683Y009735D01*
X000576Y009629D01*
X000683Y009522D01*
X001003Y009522D01*
X001003Y009308D02*
X000576Y009308D01*
X000576Y009415D01*
X000683Y009522D01*
X000576Y009091D02*
X000576Y008771D01*
X000683Y008664D01*
X000790Y008771D01*
X000790Y008984D01*
X000897Y009091D01*
X001003Y008984D01*
X001003Y008664D01*
X001003Y008446D02*
X001003Y008126D01*
X000897Y008019D01*
X000576Y008019D01*
X000576Y007802D02*
X000576Y007481D01*
X000683Y007375D01*
X000790Y007481D01*
X000790Y007695D01*
X000897Y007802D01*
X001003Y007695D01*
X001003Y007375D01*
X001503Y007285D02*
X002143Y007712D01*
X001503Y007712D01*
X001503Y007929D02*
X001930Y007929D01*
X002143Y008143D01*
X001930Y008356D01*
X001503Y008356D01*
X001610Y008574D02*
X001716Y008574D01*
X001823Y008681D01*
X001823Y008894D01*
X001930Y009001D01*
X002037Y009001D01*
X002143Y008894D01*
X002143Y008681D01*
X002037Y008574D01*
X001610Y008574D02*
X001503Y008681D01*
X001503Y008894D01*
X001610Y009001D01*
X001110Y008446D02*
X001217Y008340D01*
X001217Y008233D01*
X001110Y008446D02*
X000576Y008446D01*
X001503Y007285D02*
X002143Y007285D01*
D12*
X006005Y007113D03*
X006005Y007546D03*
X006005Y006680D03*
X006005Y006247D03*
X006005Y009554D03*
X006005Y009987D03*
X006005Y010420D03*
X006005Y010853D03*
X016163Y010735D03*
X016163Y010302D03*
X016163Y009869D03*
X016163Y007074D03*
X016163Y006641D03*
D13*
X015179Y004790D03*
X014745Y004790D03*
X012501Y004790D03*
X012068Y004790D03*
X010139Y004790D03*
X009706Y004790D03*
X009273Y004790D03*
X008840Y004790D03*
X008407Y004790D03*
X007974Y004790D03*
X007541Y004790D03*
X007541Y012586D03*
X007974Y012586D03*
X008407Y012586D03*
X008840Y012586D03*
X009273Y012586D03*
X009706Y012586D03*
X010139Y012586D03*
X012423Y012586D03*
X012856Y012586D03*
X014627Y012586D03*
X015060Y012586D03*
D14*
X003568Y017527D03*
X001098Y018590D03*
X001039Y014771D03*
X003586Y005204D03*
X001057Y002448D03*
X003527Y001385D03*
D15*
X012064Y004302D03*
X012537Y004302D03*
D16*
X012635Y003668D03*
X011966Y003668D03*
X005466Y010973D03*
X004797Y010973D03*
D17*
X007993Y013235D03*
X007993Y013905D03*
X009257Y013905D03*
X009257Y013235D03*
X011789Y015086D03*
X011789Y015755D03*
X012576Y017054D03*
X012576Y017723D03*
X013560Y017920D03*
X013560Y017251D03*
X011277Y004219D03*
X011277Y003550D03*
X014769Y003295D03*
X015438Y003295D03*
X005116Y003097D03*
X004446Y003097D03*
D18*
X005647Y015059D02*
X005647Y015619D01*
X006647Y015619D02*
X006647Y015059D01*
X006647Y017098D02*
X006647Y017658D01*
X005647Y017658D02*
X005647Y017098D01*
X011458Y018644D02*
X011458Y019204D01*
X012458Y019204D02*
X012458Y018644D01*
X013458Y018644D02*
X013458Y019204D01*
D19*
X005596Y000905D03*
D20*
X005596Y001905D03*
X006596Y001905D03*
X007596Y001905D03*
X008596Y001905D03*
X009596Y001905D03*
X010596Y001905D03*
X011596Y001905D03*
X012596Y001905D03*
X013596Y001905D03*
X014596Y001905D03*
X014596Y000905D03*
X013596Y000905D03*
X012596Y000905D03*
X011596Y000905D03*
X010596Y000905D03*
X009596Y000905D03*
X008596Y000905D03*
X007596Y000905D03*
X006596Y000905D03*
D21*
X008738Y014605D03*
X008738Y015605D03*
X019328Y015105D03*
D22*
X018127Y010302D03*
D23*
X017127Y009302D03*
X019127Y009302D03*
X019127Y011302D03*
X017127Y011302D03*
D24*
X012694Y014617D03*
X012694Y015117D03*
X012694Y015617D03*
X012694Y016117D03*
X012694Y016617D03*
D25*
X014938Y015617D03*
D26*
X013959Y003295D03*
X013368Y003295D03*
D27*
X013663Y003611D02*
X013613Y003662D01*
X013124Y003662D01*
X013036Y003574D01*
X012392Y003574D01*
X012392Y003952D01*
X012366Y003979D01*
X012456Y004070D01*
X012456Y004535D01*
X012403Y004588D01*
X012403Y004719D01*
X016067Y004719D01*
X016155Y004807D01*
X016155Y009922D01*
X016178Y009922D01*
X016228Y009917D01*
X016249Y009922D01*
X016270Y009922D01*
X016317Y009942D01*
X016318Y009942D01*
X017702Y009942D01*
X017813Y009831D01*
X018017Y009747D01*
X018238Y009747D01*
X018442Y009831D01*
X018598Y009988D01*
X018683Y010192D01*
X018683Y010413D01*
X018598Y010617D01*
X018442Y010773D01*
X018238Y010858D01*
X018017Y010858D01*
X017813Y010773D01*
X017702Y010662D01*
X016183Y010662D01*
X016155Y010665D01*
X016155Y012530D01*
X016067Y012618D01*
X012758Y012618D01*
X012758Y012923D01*
X012635Y013046D01*
X012326Y013046D01*
X010135Y015237D01*
X010135Y019580D01*
X012141Y019580D01*
X012043Y019482D01*
X011968Y019302D01*
X011968Y018751D01*
X011610Y018394D01*
X011532Y018315D01*
X011489Y018212D01*
X011489Y016501D01*
X010843Y015854D01*
X010800Y015752D01*
X010800Y014656D01*
X010843Y014553D01*
X010921Y014474D01*
X011024Y014432D01*
X012061Y014432D01*
X012061Y014422D01*
X012184Y014299D01*
X013205Y014299D01*
X013328Y014422D01*
X013328Y014812D01*
X013273Y014867D01*
X013328Y014922D01*
X013328Y015312D01*
X013205Y015435D01*
X012184Y015435D01*
X012167Y015418D01*
X012073Y015512D01*
X011505Y015512D01*
X011382Y015389D01*
X011382Y014992D01*
X011360Y014992D01*
X011360Y015580D01*
X011977Y016197D01*
X012056Y016275D01*
X012056Y016275D01*
X012061Y016281D01*
X012061Y015922D01*
X012184Y015799D01*
X013205Y015799D01*
X013328Y015922D01*
X013328Y016071D01*
X013581Y016325D01*
X013624Y016428D01*
X013624Y016479D01*
X013632Y016488D01*
X013684Y016612D01*
X013684Y016748D01*
X013652Y016824D01*
X013844Y016824D01*
X013967Y016947D01*
X013967Y017555D01*
X013844Y017678D01*
X013277Y017678D01*
X013154Y017555D01*
X013154Y017181D01*
X013107Y017134D01*
X013064Y017031D01*
X013064Y016935D01*
X012983Y016935D01*
X012983Y017358D01*
X012860Y017481D01*
X012292Y017481D01*
X012169Y017358D01*
X012169Y017181D01*
X012122Y017134D01*
X012049Y017061D01*
X012049Y018041D01*
X012221Y018212D01*
X012361Y018154D01*
X012556Y018154D01*
X012736Y018229D01*
X012873Y018367D01*
X012948Y018547D01*
X012948Y019302D01*
X012873Y019482D01*
X012776Y019580D01*
X019492Y019580D01*
X019492Y000395D01*
X013807Y000395D01*
X014106Y000693D01*
X014106Y001116D01*
X013817Y001405D01*
X014096Y001683D01*
X014385Y001395D01*
X014807Y001395D01*
X015106Y001693D01*
X015106Y002116D01*
X014807Y002415D01*
X014385Y002415D01*
X014096Y002126D01*
X013807Y002415D01*
X013385Y002415D01*
X013096Y002126D01*
X012807Y002415D01*
X012385Y002415D01*
X012096Y002126D01*
X011807Y002415D01*
X011639Y002415D01*
X011137Y002916D01*
X011628Y002916D01*
X011731Y002958D01*
X011787Y003014D01*
X013037Y003014D01*
X013124Y002927D01*
X013613Y002927D01*
X013663Y002978D01*
X013714Y002927D01*
X014203Y002927D01*
X014281Y003005D01*
X014362Y003005D01*
X014362Y002991D01*
X014485Y002868D01*
X015053Y002868D01*
X015176Y002991D01*
X015176Y003598D01*
X015053Y003721D01*
X014485Y003721D01*
X014362Y003598D01*
X014362Y003585D01*
X014281Y003585D01*
X014203Y003662D01*
X013714Y003662D01*
X013663Y003611D01*
X012392Y003727D02*
X019492Y003727D01*
X019492Y004025D02*
X012412Y004025D01*
X012456Y004324D02*
X019492Y004324D01*
X019492Y004622D02*
X012403Y004622D01*
X011222Y002831D02*
X019492Y002831D01*
X019492Y002533D02*
X011520Y002533D01*
X011987Y002234D02*
X012204Y002234D01*
X012987Y002234D02*
X013204Y002234D01*
X013987Y002234D02*
X014204Y002234D01*
X014142Y001637D02*
X014050Y001637D01*
X013883Y001339D02*
X019492Y001339D01*
X019492Y001040D02*
X014106Y001040D01*
X014106Y000742D02*
X019492Y000742D01*
X019492Y000443D02*
X013856Y000443D01*
X015050Y001637D02*
X019492Y001637D01*
X019492Y001936D02*
X015106Y001936D01*
X014987Y002234D02*
X019492Y002234D01*
X019492Y003130D02*
X015176Y003130D01*
X015176Y003428D02*
X019492Y003428D01*
X019492Y004921D02*
X016155Y004921D01*
X016155Y005219D02*
X019492Y005219D01*
X019492Y005518D02*
X016155Y005518D01*
X016155Y005816D02*
X019492Y005816D01*
X019492Y006115D02*
X016155Y006115D01*
X016155Y006413D02*
X019492Y006413D01*
X019492Y006712D02*
X016155Y006712D01*
X016155Y007010D02*
X019492Y007010D01*
X019492Y007309D02*
X016155Y007309D01*
X016155Y007607D02*
X019492Y007607D01*
X019492Y007906D02*
X016155Y007906D01*
X016155Y008204D02*
X019492Y008204D01*
X019492Y008503D02*
X016155Y008503D01*
X016155Y008801D02*
X019492Y008801D01*
X019492Y009100D02*
X016155Y009100D01*
X016155Y009398D02*
X019492Y009398D01*
X019492Y009697D02*
X016155Y009697D01*
X016198Y010282D02*
X016198Y010302D01*
X017820Y010302D01*
X017970Y010282D01*
X018068Y010282D01*
X018127Y010302D01*
X018683Y010294D02*
X019492Y010294D01*
X019492Y009995D02*
X018601Y009995D01*
X018608Y010592D02*
X019492Y010592D01*
X019492Y010891D02*
X016155Y010891D01*
X016155Y011189D02*
X019492Y011189D01*
X019492Y011488D02*
X016155Y011488D01*
X016155Y011786D02*
X019492Y011786D01*
X019492Y012085D02*
X016155Y012085D01*
X016155Y012383D02*
X019492Y012383D01*
X019492Y012682D02*
X012758Y012682D01*
X012700Y012980D02*
X019492Y012980D01*
X019492Y013279D02*
X012093Y013279D01*
X011795Y013577D02*
X019492Y013577D01*
X019492Y013876D02*
X011496Y013876D01*
X011198Y014174D02*
X019492Y014174D01*
X019492Y014473D02*
X013328Y014473D01*
X013328Y014771D02*
X019492Y014771D01*
X019492Y015070D02*
X013328Y015070D01*
X013272Y015368D02*
X019492Y015368D01*
X019492Y015667D02*
X011447Y015667D01*
X011382Y015368D02*
X011360Y015368D01*
X011360Y015070D02*
X011382Y015070D01*
X010800Y015070D02*
X010302Y015070D01*
X010135Y015368D02*
X010800Y015368D01*
X010800Y015667D02*
X010135Y015667D01*
X010135Y015965D02*
X010953Y015965D01*
X011252Y016264D02*
X010135Y016264D01*
X010135Y016562D02*
X011489Y016562D01*
X011489Y016861D02*
X010135Y016861D01*
X010135Y017159D02*
X011489Y017159D01*
X011489Y017458D02*
X010135Y017458D01*
X010135Y017756D02*
X011489Y017756D01*
X011489Y018055D02*
X010135Y018055D01*
X010135Y018353D02*
X011570Y018353D01*
X011868Y018652D02*
X010135Y018652D01*
X010135Y018950D02*
X011968Y018950D01*
X011968Y019249D02*
X010135Y019249D01*
X010135Y019547D02*
X012108Y019547D01*
X012808Y019547D02*
X019492Y019547D01*
X019492Y019249D02*
X012948Y019249D01*
X012948Y018950D02*
X019492Y018950D01*
X019492Y018652D02*
X012948Y018652D01*
X012860Y018353D02*
X019492Y018353D01*
X019492Y018055D02*
X012063Y018055D01*
X012049Y017756D02*
X019492Y017756D01*
X019492Y017458D02*
X013967Y017458D01*
X013967Y017159D02*
X019492Y017159D01*
X019492Y016861D02*
X013881Y016861D01*
X013663Y016562D02*
X019492Y016562D01*
X019492Y016264D02*
X013520Y016264D01*
X013328Y015965D02*
X019492Y015965D01*
X016198Y010302D02*
X016159Y010302D01*
X016163Y010302D02*
X016198Y010282D01*
X012019Y012618D02*
X010820Y012618D01*
X010820Y012710D01*
X010769Y012832D01*
X010676Y012924D01*
X010555Y012975D01*
X010424Y012975D01*
X010423Y012974D01*
X010351Y013046D01*
X010135Y013046D01*
X010135Y014501D01*
X012019Y012618D01*
X011955Y012682D02*
X010820Y012682D01*
X010417Y012980D02*
X011656Y012980D01*
X011358Y013279D02*
X010135Y013279D01*
X010135Y013577D02*
X011059Y013577D01*
X010761Y013876D02*
X010135Y013876D01*
X010135Y014174D02*
X010462Y014174D01*
X010164Y014473D02*
X010135Y014473D01*
X010601Y014771D02*
X010800Y014771D01*
X010899Y014473D02*
X010925Y014473D01*
X011745Y015965D02*
X012061Y015965D01*
X011977Y016197D02*
X011977Y016197D01*
X012044Y016264D02*
X012061Y016264D01*
X012049Y017159D02*
X012147Y017159D01*
X012049Y017458D02*
X012269Y017458D01*
X012883Y017458D02*
X013154Y017458D01*
X013132Y017159D02*
X012983Y017159D01*
D28*
X017104Y011286D02*
X019112Y011286D01*
X019112Y009279D01*
X017104Y009279D01*
X017104Y009318D01*
X019112Y011286D02*
X019112Y011326D01*
D29*
X018994Y012586D03*
X019348Y012586D03*
X018639Y012586D03*
X018285Y012586D03*
X017931Y012586D03*
X017576Y012586D03*
X017222Y012586D03*
X016868Y012586D03*
X016513Y012586D03*
X016159Y012586D03*
X016198Y008097D03*
X016553Y008097D03*
X016907Y008097D03*
X017261Y008097D03*
X017616Y008097D03*
X017970Y008097D03*
X018324Y008097D03*
X018679Y008097D03*
X019033Y008097D03*
X019387Y008097D03*
D30*
X017743Y009865D03*
X017503Y009865D03*
X017263Y009865D03*
X017023Y009865D03*
X016783Y009865D03*
X016543Y009865D03*
X016543Y010735D03*
X016783Y010735D03*
X017023Y010735D03*
X017263Y010735D03*
X017503Y010735D03*
X017743Y010735D03*
X010490Y012645D03*
X008423Y013038D03*
X005667Y012743D03*
X003600Y011759D03*
X005568Y010184D03*
X005568Y009790D03*
X005568Y007527D03*
X005568Y007034D03*
X003993Y006345D03*
X002517Y006641D03*
X002812Y003196D03*
X009407Y003786D03*
X001730Y014023D03*
D31*
X004190Y013924D02*
X005568Y015302D01*
X005647Y015339D01*
X005667Y015401D01*
X005667Y015499D01*
X006602Y016434D01*
X008324Y014712D01*
X008324Y013629D01*
X008029Y013334D01*
X007993Y013235D01*
X008029Y013137D01*
X008029Y012645D01*
X007974Y012586D01*
X007635Y012645D02*
X007541Y012586D01*
X007635Y012645D02*
X007635Y013531D01*
X007930Y013826D01*
X007993Y013905D01*
X008029Y013924D01*
X008029Y014318D01*
X008718Y014613D02*
X008324Y015007D01*
X008324Y015696D01*
X006651Y017369D01*
X006647Y017378D01*
X006602Y016434D02*
X005667Y017369D01*
X005647Y017378D01*
X006553Y015302D02*
X006647Y015339D01*
X006553Y015302D02*
X005962Y014712D01*
X005962Y010971D01*
X006005Y010853D01*
X005962Y010873D01*
X005962Y010971D01*
X005470Y010971D01*
X005466Y010973D01*
X005076Y010775D02*
X005076Y010676D01*
X005273Y010479D01*
X005273Y006739D01*
X005273Y004968D01*
X005125Y004820D01*
X005765Y004180D01*
X005125Y004820D02*
X004092Y003786D01*
X004092Y001916D01*
X003600Y001424D01*
X003527Y001385D01*
X005076Y001424D02*
X005596Y000905D01*
X005076Y001424D02*
X005076Y002408D01*
X004486Y002999D01*
X004446Y003097D01*
X004289Y006050D02*
X004289Y010381D01*
X004190Y010479D01*
X004190Y013924D01*
X004797Y010973D02*
X004879Y010971D01*
X005076Y010775D01*
X005273Y010479D02*
X005962Y010479D01*
X006005Y010420D01*
X008840Y012586D02*
X008816Y012645D01*
X008816Y013038D01*
X009257Y013235D02*
X009308Y013137D01*
X009308Y012645D01*
X009273Y012586D01*
X009702Y012645D02*
X009706Y012586D01*
X009702Y012645D02*
X009702Y013924D01*
X009308Y013924D01*
X009257Y013905D01*
X009702Y013924D02*
X010135Y013924D01*
X009210Y013334D02*
X009257Y013235D01*
X009210Y013334D02*
X008816Y013727D01*
X008816Y014515D01*
X008738Y014605D01*
X008718Y014613D01*
X011080Y014712D02*
X011080Y015696D01*
X011818Y016434D01*
X011769Y016483D01*
X011769Y018156D01*
X012458Y018845D01*
X012458Y018924D01*
X013560Y017251D02*
X013541Y017172D01*
X013344Y016975D01*
X013344Y016680D01*
X013344Y016483D01*
X013049Y016188D01*
X012753Y016188D01*
X012694Y016117D01*
X012694Y016617D02*
X012655Y016680D01*
X012655Y016975D01*
X012576Y017054D01*
X012556Y016975D01*
X012360Y016975D01*
X011818Y016434D01*
X011080Y014712D02*
X012655Y014712D01*
X012694Y014617D01*
X010135Y018649D02*
X001139Y018649D01*
X001098Y018590D01*
X005273Y006739D02*
X005962Y006739D01*
X006005Y006680D01*
X008407Y004790D02*
X008423Y004771D01*
X008521Y004672D01*
X008521Y004082D01*
X010883Y004180D02*
X010883Y003196D01*
X011572Y003196D01*
X011671Y003294D01*
X013344Y003294D01*
X013368Y003295D01*
X012064Y003688D02*
X011966Y003668D01*
X011868Y003590D01*
X011375Y003590D01*
X011277Y003550D01*
X011179Y004180D02*
X010883Y004180D01*
X011179Y004180D02*
X011277Y004219D01*
X012064Y004302D02*
X012064Y004771D01*
X012068Y004790D01*
X012064Y004302D02*
X012064Y003688D01*
D32*
X010883Y004180D03*
X008521Y004082D03*
X005765Y004180D03*
X004289Y006050D03*
X008816Y013038D03*
X008029Y014318D03*
X013344Y016680D03*
D33*
X010783Y013285D03*
D34*
X010490Y012645D02*
X010194Y012645D01*
X010139Y012586D01*
X008423Y012645D02*
X008407Y012586D01*
X008423Y012645D02*
X008423Y013038D01*
X005667Y012743D02*
X004387Y011464D01*
X004387Y010578D01*
X004584Y010381D01*
X004584Y004574D01*
X002812Y002802D01*
X002812Y000834D01*
X003206Y000440D01*
X006060Y000440D01*
X006060Y001424D01*
X005667Y001818D01*
X005596Y001905D01*
X005568Y001916D01*
X005568Y002605D01*
X005175Y002999D01*
X005116Y003097D01*
X006060Y003097D02*
X007143Y002015D01*
X007143Y000735D01*
X007537Y000342D01*
X013147Y000342D01*
X013147Y001424D01*
X013541Y001818D01*
X013596Y001905D01*
X012596Y001905D02*
X012556Y001818D01*
X012556Y001424D01*
X010490Y001424D01*
X010096Y001818D01*
X010096Y002015D01*
X009013Y003097D01*
X009013Y004672D01*
X008915Y004771D01*
X008840Y004790D01*
X009273Y004790D02*
X009308Y004771D01*
X009407Y004672D01*
X009407Y003786D01*
X009706Y004790D02*
X009801Y004771D01*
X009801Y002605D01*
X010588Y001818D01*
X010596Y001905D01*
X009596Y001905D02*
X009505Y001818D01*
X009505Y001424D01*
X008423Y001424D01*
X008127Y001719D01*
X008127Y002015D01*
X007734Y002408D01*
X007734Y004672D01*
X007635Y004771D01*
X007541Y004790D01*
X007974Y004790D02*
X008029Y004771D01*
X008127Y004672D01*
X008127Y002310D01*
X008521Y001916D01*
X008596Y001905D01*
X010588Y003097D02*
X011572Y002113D01*
X011572Y001916D01*
X011596Y001905D01*
X010588Y003097D02*
X010588Y004377D01*
X010194Y004771D01*
X010139Y004790D01*
X006060Y006149D02*
X006060Y003097D01*
X003586Y005204D02*
X003600Y005263D01*
X003600Y005952D01*
X003993Y006345D01*
X002517Y006641D02*
X001139Y005263D01*
X001139Y002507D01*
X001057Y002448D01*
X002812Y003196D02*
X002812Y018156D01*
X006848Y018156D01*
X012360Y012645D01*
X012423Y012586D01*
X012655Y015105D02*
X011868Y015105D01*
X011789Y015086D01*
X012655Y015105D02*
X012694Y015117D01*
X005962Y010086D02*
X006005Y009987D01*
X005962Y010086D02*
X005568Y010086D01*
X005568Y010184D01*
X005568Y009790D02*
X005568Y009594D01*
X005962Y009594D01*
X006005Y009554D01*
X006005Y007546D02*
X005962Y007527D01*
X005568Y007527D01*
X006005Y007113D02*
X005962Y007034D01*
X005568Y007034D01*
X006005Y006247D02*
X006060Y006149D01*
X003600Y011759D02*
X003600Y017468D01*
X003568Y017527D01*
X001039Y014771D02*
X001041Y014712D01*
X001730Y014023D01*
D35*
X013959Y003295D02*
X014769Y003295D01*
M02*
