G75*
G70*
%OFA0B0*%
%FSLAX24Y24*%
%IPPOS*%
%LPD*%
%AMOC8*
5,1,8,0,0,1.08239X$1,22.5*
%
%ADD10C,0.0000*%
%ADD11C,0.0060*%
%ADD12C,0.0050*%
%ADD13C,0.0040*%
%ADD14C,0.0030*%
%ADD15C,0.0160*%
%ADD16C,0.0080*%
%ADD17C,0.0010*%
D10*
X000253Y000145D02*
X000253Y019830D01*
X019742Y019830D01*
X019742Y000145D01*
X000253Y000145D01*
X002041Y001897D02*
X002043Y001924D01*
X002049Y001951D01*
X002058Y001977D01*
X002071Y002001D01*
X002087Y002024D01*
X002106Y002043D01*
X002128Y002060D01*
X002152Y002074D01*
X002177Y002084D01*
X002204Y002091D01*
X002231Y002094D01*
X002259Y002093D01*
X002286Y002088D01*
X002312Y002080D01*
X002336Y002068D01*
X002359Y002052D01*
X002380Y002034D01*
X002397Y002013D01*
X002412Y001989D01*
X002423Y001964D01*
X002431Y001938D01*
X002435Y001911D01*
X002435Y001883D01*
X002431Y001856D01*
X002423Y001830D01*
X002412Y001805D01*
X002397Y001781D01*
X002380Y001760D01*
X002359Y001742D01*
X002337Y001726D01*
X002312Y001714D01*
X002286Y001706D01*
X002259Y001701D01*
X002231Y001700D01*
X002204Y001703D01*
X002177Y001710D01*
X002152Y001720D01*
X002128Y001734D01*
X002106Y001751D01*
X002087Y001770D01*
X002071Y001793D01*
X002058Y001817D01*
X002049Y001843D01*
X002043Y001870D01*
X002041Y001897D01*
X002041Y004259D02*
X002043Y004286D01*
X002049Y004313D01*
X002058Y004339D01*
X002071Y004363D01*
X002087Y004386D01*
X002106Y004405D01*
X002128Y004422D01*
X002152Y004436D01*
X002177Y004446D01*
X002204Y004453D01*
X002231Y004456D01*
X002259Y004455D01*
X002286Y004450D01*
X002312Y004442D01*
X002336Y004430D01*
X002359Y004414D01*
X002380Y004396D01*
X002397Y004375D01*
X002412Y004351D01*
X002423Y004326D01*
X002431Y004300D01*
X002435Y004273D01*
X002435Y004245D01*
X002431Y004218D01*
X002423Y004192D01*
X002412Y004167D01*
X002397Y004143D01*
X002380Y004122D01*
X002359Y004104D01*
X002337Y004088D01*
X002312Y004076D01*
X002286Y004068D01*
X002259Y004063D01*
X002231Y004062D01*
X002204Y004065D01*
X002177Y004072D01*
X002152Y004082D01*
X002128Y004096D01*
X002106Y004113D01*
X002087Y004132D01*
X002071Y004155D01*
X002058Y004179D01*
X002049Y004205D01*
X002043Y004232D01*
X002041Y004259D01*
X002190Y015716D02*
X002192Y015743D01*
X002198Y015770D01*
X002207Y015796D01*
X002220Y015820D01*
X002236Y015843D01*
X002255Y015862D01*
X002277Y015879D01*
X002301Y015893D01*
X002326Y015903D01*
X002353Y015910D01*
X002380Y015913D01*
X002408Y015912D01*
X002435Y015907D01*
X002461Y015899D01*
X002485Y015887D01*
X002508Y015871D01*
X002529Y015853D01*
X002546Y015832D01*
X002561Y015808D01*
X002572Y015783D01*
X002580Y015757D01*
X002584Y015730D01*
X002584Y015702D01*
X002580Y015675D01*
X002572Y015649D01*
X002561Y015624D01*
X002546Y015600D01*
X002529Y015579D01*
X002508Y015561D01*
X002486Y015545D01*
X002461Y015533D01*
X002435Y015525D01*
X002408Y015520D01*
X002380Y015519D01*
X002353Y015522D01*
X002326Y015529D01*
X002301Y015539D01*
X002277Y015553D01*
X002255Y015570D01*
X002236Y015589D01*
X002220Y015612D01*
X002207Y015636D01*
X002198Y015662D01*
X002192Y015689D01*
X002190Y015716D01*
X002190Y018078D02*
X002192Y018105D01*
X002198Y018132D01*
X002207Y018158D01*
X002220Y018182D01*
X002236Y018205D01*
X002255Y018224D01*
X002277Y018241D01*
X002301Y018255D01*
X002326Y018265D01*
X002353Y018272D01*
X002380Y018275D01*
X002408Y018274D01*
X002435Y018269D01*
X002461Y018261D01*
X002485Y018249D01*
X002508Y018233D01*
X002529Y018215D01*
X002546Y018194D01*
X002561Y018170D01*
X002572Y018145D01*
X002580Y018119D01*
X002584Y018092D01*
X002584Y018064D01*
X002580Y018037D01*
X002572Y018011D01*
X002561Y017986D01*
X002546Y017962D01*
X002529Y017941D01*
X002508Y017923D01*
X002486Y017907D01*
X002461Y017895D01*
X002435Y017887D01*
X002408Y017882D01*
X002380Y017881D01*
X002353Y017884D01*
X002326Y017891D01*
X002301Y017901D01*
X002277Y017915D01*
X002255Y017932D01*
X002236Y017951D01*
X002220Y017974D01*
X002207Y017998D01*
X002198Y018024D01*
X002192Y018051D01*
X002190Y018078D01*
D11*
X005147Y017778D02*
X005147Y016978D01*
X005247Y016878D01*
X006047Y016878D01*
X006147Y016978D01*
X006247Y016878D01*
X007047Y016878D01*
X007147Y016978D01*
X007147Y017778D01*
X007047Y017878D01*
X006247Y017878D01*
X006147Y017778D01*
X006047Y017878D01*
X005247Y017878D01*
X005147Y017778D01*
X005247Y015839D02*
X005147Y015739D01*
X005147Y014939D01*
X005247Y014839D01*
X006047Y014839D01*
X006147Y014939D01*
X006247Y014839D01*
X007047Y014839D01*
X007147Y014939D01*
X007147Y015739D01*
X007047Y015839D01*
X006247Y015839D01*
X006147Y015739D01*
X006047Y015839D01*
X005247Y015839D01*
X010958Y018524D02*
X010958Y019324D01*
X011058Y019424D01*
X011858Y019424D01*
X011958Y019324D01*
X012058Y019424D01*
X012858Y019424D01*
X012958Y019324D01*
X013058Y019424D01*
X013858Y019424D01*
X013958Y019324D01*
X013958Y018524D01*
X013858Y018424D01*
X013058Y018424D01*
X012958Y018524D01*
X012858Y018424D01*
X012058Y018424D01*
X011958Y018524D01*
X011858Y018424D01*
X011058Y018424D01*
X010958Y018524D01*
X010694Y009095D02*
X010908Y008882D01*
X010908Y008455D01*
X010908Y008775D02*
X010481Y008775D01*
X010481Y008882D02*
X010694Y009095D01*
X010481Y008882D02*
X010481Y008455D01*
X010263Y008561D02*
X010263Y008988D01*
X010156Y009095D01*
X009943Y009095D01*
X009836Y008988D01*
X009836Y008882D01*
X009943Y008775D01*
X010263Y008775D01*
X010263Y008561D02*
X010156Y008455D01*
X009943Y008455D01*
X009836Y008561D01*
X009619Y008775D02*
X009192Y008775D01*
X009512Y009095D01*
X009512Y008455D01*
X008974Y008561D02*
X008867Y008455D01*
X008654Y008455D01*
X008547Y008561D01*
X008760Y008775D02*
X008867Y008775D01*
X008974Y008668D01*
X008974Y008561D01*
X008867Y008775D02*
X008974Y008882D01*
X008974Y008988D01*
X008867Y009095D01*
X008654Y009095D01*
X008547Y008988D01*
X008329Y008988D02*
X008329Y008882D01*
X007902Y008455D01*
X008329Y008455D01*
X008329Y008988D02*
X008223Y009095D01*
X008009Y009095D01*
X007902Y008988D01*
X007685Y008775D02*
X007258Y008775D01*
X007578Y009095D01*
X007578Y008455D01*
X007040Y008561D02*
X007040Y008988D01*
X006934Y009095D01*
X006613Y009095D01*
X006613Y008455D01*
X006934Y008455D01*
X007040Y008561D01*
X011770Y008668D02*
X011770Y008882D01*
X011983Y009095D01*
X012199Y008882D02*
X012413Y009095D01*
X012413Y008455D01*
X012626Y008455D02*
X012199Y008455D01*
X011983Y008455D02*
X011770Y008668D01*
X012844Y008561D02*
X012844Y008455D01*
X012951Y008455D01*
X012951Y008561D01*
X012844Y008561D01*
X013166Y008561D02*
X013273Y008455D01*
X013487Y008455D01*
X013593Y008561D01*
X013593Y008668D01*
X013487Y008775D01*
X013166Y008775D01*
X013166Y008561D01*
X013166Y008775D02*
X013380Y008988D01*
X013593Y009095D01*
X013811Y008882D02*
X013918Y008882D01*
X014024Y008775D01*
X014131Y008882D01*
X014238Y008775D01*
X014238Y008455D01*
X014024Y008455D02*
X014024Y008775D01*
X013811Y008882D02*
X013811Y008455D01*
X014455Y008455D02*
X014455Y008882D01*
X014562Y008882D01*
X014669Y008775D01*
X014776Y008882D01*
X014882Y008775D01*
X014882Y008455D01*
X014669Y008455D02*
X014669Y008775D01*
X015100Y009095D02*
X015313Y008882D01*
X015313Y008668D01*
X015100Y008455D01*
X014846Y002405D02*
X014346Y002405D01*
X014096Y002155D01*
X014096Y000655D01*
X014346Y000405D01*
X014846Y000405D01*
X015096Y000655D01*
X015096Y002155D01*
X014846Y002405D01*
X014096Y002155D02*
X013846Y002405D01*
X013346Y002405D01*
X013096Y002155D01*
X013096Y000655D01*
X012846Y000405D01*
X012346Y000405D01*
X012096Y000655D01*
X012096Y002155D01*
X012346Y002405D01*
X012846Y002405D01*
X013096Y002155D01*
X012096Y002155D02*
X011846Y002405D01*
X011346Y002405D01*
X011096Y002155D01*
X011096Y000655D01*
X011346Y000405D01*
X011846Y000405D01*
X012096Y000655D01*
X013096Y000655D02*
X013346Y000405D01*
X013846Y000405D01*
X014096Y000655D01*
X011096Y000655D02*
X010846Y000405D01*
X010346Y000405D01*
X010096Y000655D01*
X010096Y002155D01*
X010346Y002405D01*
X010846Y002405D01*
X011096Y002155D01*
X010096Y002155D02*
X009846Y002405D01*
X009346Y002405D01*
X009096Y002155D01*
X009096Y000655D01*
X009346Y000405D01*
X009846Y000405D01*
X010096Y000655D01*
X009096Y000655D02*
X008846Y000405D01*
X008346Y000405D01*
X008096Y000655D01*
X008096Y002155D01*
X008346Y002405D01*
X008846Y002405D01*
X009096Y002155D01*
X008096Y002155D02*
X007846Y002405D01*
X007346Y002405D01*
X007096Y002155D01*
X007096Y000655D01*
X007346Y000405D01*
X007846Y000405D01*
X008096Y000655D01*
X007096Y000655D02*
X006846Y000405D01*
X006346Y000405D01*
X006096Y000655D01*
X006096Y002155D01*
X006346Y002405D01*
X006846Y002405D01*
X007096Y002155D01*
X006096Y002155D02*
X005846Y002405D01*
X005346Y002405D01*
X005096Y002155D01*
X005096Y000655D01*
X005346Y000405D01*
X005846Y000405D01*
X006096Y000655D01*
D12*
X005882Y002680D02*
X005581Y002680D01*
X005882Y002980D01*
X005882Y003055D01*
X005806Y003130D01*
X005656Y003130D01*
X005581Y003055D01*
X005421Y003130D02*
X005121Y002680D01*
X005421Y002680D02*
X005121Y003130D01*
X006163Y004869D02*
X016005Y004869D01*
X016005Y012428D01*
X006163Y012428D01*
X006163Y004869D01*
X006581Y005814D02*
X006583Y005843D01*
X006589Y005871D01*
X006599Y005898D01*
X006612Y005924D01*
X006629Y005948D01*
X006648Y005969D01*
X006671Y005987D01*
X006695Y006002D01*
X006722Y006014D01*
X006750Y006022D01*
X006779Y006026D01*
X006807Y006026D01*
X006836Y006022D01*
X006864Y006014D01*
X006891Y006002D01*
X006915Y005987D01*
X006938Y005969D01*
X006957Y005948D01*
X006974Y005924D01*
X006987Y005898D01*
X006997Y005871D01*
X007003Y005843D01*
X007005Y005814D01*
X007003Y005785D01*
X006997Y005757D01*
X006987Y005730D01*
X006974Y005704D01*
X006957Y005680D01*
X006938Y005659D01*
X006915Y005641D01*
X006891Y005626D01*
X006864Y005614D01*
X006836Y005606D01*
X006807Y005602D01*
X006779Y005602D01*
X006750Y005606D01*
X006722Y005614D01*
X006695Y005626D01*
X006671Y005641D01*
X006648Y005659D01*
X006629Y005680D01*
X006612Y005704D01*
X006599Y005730D01*
X006589Y005757D01*
X006583Y005785D01*
X006581Y005814D01*
X006583Y005843D01*
X006589Y005871D01*
X006599Y005898D01*
X006612Y005924D01*
X006629Y005948D01*
X006648Y005969D01*
X006671Y005987D01*
X006695Y006002D01*
X006722Y006014D01*
X006750Y006022D01*
X006779Y006026D01*
X006807Y006026D01*
X006836Y006022D01*
X006864Y006014D01*
X006891Y006002D01*
X006915Y005987D01*
X006938Y005969D01*
X006957Y005948D01*
X006974Y005924D01*
X006987Y005898D01*
X006997Y005871D01*
X007003Y005843D01*
X007005Y005814D01*
X007003Y005785D01*
X006997Y005757D01*
X006987Y005730D01*
X006974Y005704D01*
X006957Y005680D01*
X006938Y005659D01*
X006915Y005641D01*
X006891Y005626D01*
X006864Y005614D01*
X006836Y005606D01*
X006807Y005602D01*
X006779Y005602D01*
X006750Y005606D01*
X006722Y005614D01*
X006695Y005626D01*
X006671Y005641D01*
X006648Y005659D01*
X006629Y005680D01*
X006612Y005704D01*
X006599Y005730D01*
X006589Y005757D01*
X006583Y005785D01*
X006581Y005814D01*
X003222Y005440D02*
X001253Y005440D01*
X001253Y000716D01*
X001450Y000716D01*
X001450Y000125D01*
X003025Y000125D01*
X003025Y000716D01*
X002986Y000716D01*
X001450Y000716D01*
X003025Y000716D02*
X003222Y000716D01*
X003222Y005440D01*
X003371Y014534D02*
X001403Y014534D01*
X001403Y019259D01*
X001600Y019259D01*
X001639Y019259D01*
X003175Y019259D01*
X003175Y019849D01*
X001600Y019849D01*
X001600Y019259D01*
X003175Y019259D02*
X003371Y019259D01*
X003371Y014534D01*
X005172Y016090D02*
X005247Y016014D01*
X005322Y016014D01*
X005397Y016090D01*
X005397Y016465D01*
X005322Y016465D02*
X005472Y016465D01*
X005633Y016465D02*
X005858Y016465D01*
X005933Y016390D01*
X005933Y016240D01*
X005858Y016165D01*
X005633Y016165D01*
X005633Y016014D02*
X005633Y016465D01*
X005791Y016328D02*
X005866Y016253D01*
X005941Y016253D01*
X006016Y016328D01*
X006016Y016703D01*
X005941Y016703D02*
X006091Y016703D01*
X006251Y016703D02*
X006477Y016703D01*
X006552Y016628D01*
X006552Y016478D01*
X006477Y016403D01*
X006251Y016403D01*
X006243Y016465D02*
X006243Y016014D01*
X006093Y016014D02*
X006393Y016014D01*
X006251Y016253D02*
X006251Y016703D01*
X006243Y016465D02*
X006093Y016315D01*
X006712Y016253D02*
X007012Y016553D01*
X007012Y016628D01*
X006937Y016703D01*
X006787Y016703D01*
X006712Y016628D01*
X006712Y016253D02*
X007012Y016253D01*
X011124Y019666D02*
X011181Y019609D01*
X011294Y019609D01*
X011351Y019666D01*
X011351Y019723D01*
X011294Y019779D01*
X011237Y019779D01*
X011294Y019779D02*
X011351Y019836D01*
X011351Y019893D01*
X011294Y019950D01*
X011181Y019950D01*
X011124Y019893D01*
X012124Y019893D02*
X012181Y019950D01*
X012294Y019950D01*
X012351Y019893D01*
X012351Y019836D01*
X012124Y019609D01*
X012351Y019609D01*
X013124Y019609D02*
X013351Y019609D01*
X013237Y019609D02*
X013237Y019950D01*
X013124Y019836D01*
X013187Y018250D02*
X012962Y018250D01*
X012962Y017799D01*
X012962Y017949D02*
X013187Y017949D01*
X013263Y018024D01*
X013263Y018175D01*
X013187Y018250D01*
X013423Y018024D02*
X013723Y018024D01*
X013648Y017799D02*
X013648Y018250D01*
X013423Y018024D01*
X012802Y018250D02*
X012652Y018250D01*
X012727Y018250D02*
X012727Y017874D01*
X012652Y017799D01*
X012577Y017799D01*
X012502Y017874D01*
X013068Y016897D02*
X014446Y016897D01*
X014446Y014338D01*
X013068Y014338D01*
X013068Y016897D01*
D13*
X013214Y017356D02*
X012907Y017356D01*
X012830Y017432D01*
X012830Y017586D01*
X012907Y017663D01*
X012830Y017816D02*
X012830Y018123D01*
X012907Y018123D01*
X013214Y017816D01*
X013290Y017816D01*
X013214Y017663D02*
X013290Y017586D01*
X013290Y017432D01*
X013214Y017356D01*
X013797Y016801D02*
X013874Y016877D01*
X013950Y016877D01*
X014027Y016801D01*
X014104Y016877D01*
X014181Y016877D01*
X014257Y016801D01*
X014257Y016647D01*
X014181Y016570D01*
X014181Y016417D02*
X014104Y016417D01*
X014027Y016340D01*
X014027Y016187D01*
X013950Y016110D01*
X013874Y016110D01*
X013797Y016187D01*
X013797Y016340D01*
X013874Y016417D01*
X013874Y016570D02*
X013797Y016647D01*
X013797Y016801D01*
X014027Y016801D02*
X014027Y016724D01*
X014181Y016417D02*
X014257Y016340D01*
X014257Y016187D01*
X014181Y016110D01*
X014181Y015957D02*
X013797Y015957D01*
X013797Y015650D02*
X014181Y015650D01*
X014257Y015726D01*
X014257Y015880D01*
X014181Y015957D01*
X014334Y016264D02*
X013720Y016264D01*
X012306Y017236D02*
X012306Y017389D01*
X012229Y017466D01*
X012229Y017619D02*
X012153Y017619D01*
X012076Y017696D01*
X012076Y017849D01*
X012153Y017926D01*
X012229Y017926D01*
X012306Y017849D01*
X012306Y017696D01*
X012229Y017619D01*
X012076Y017696D02*
X011999Y017619D01*
X011923Y017619D01*
X011846Y017696D01*
X011846Y017849D01*
X011923Y017926D01*
X011999Y017926D01*
X012076Y017849D01*
X011923Y017466D02*
X011846Y017389D01*
X011846Y017236D01*
X011923Y017159D01*
X012229Y017159D01*
X012306Y017236D01*
X011442Y015958D02*
X011365Y015958D01*
X011289Y015881D01*
X011289Y015651D01*
X011442Y015651D01*
X011519Y015727D01*
X011519Y015881D01*
X011442Y015958D01*
X011135Y015804D02*
X011289Y015651D01*
X011442Y015497D02*
X011519Y015420D01*
X011519Y015267D01*
X011442Y015190D01*
X011135Y015190D01*
X011058Y015267D01*
X011058Y015420D01*
X011135Y015497D01*
X011135Y015804D02*
X011058Y015958D01*
X008987Y014030D02*
X008527Y014030D01*
X008757Y013800D01*
X008757Y014107D01*
X008604Y013647D02*
X008527Y013570D01*
X008527Y013417D01*
X008604Y013340D01*
X008911Y013340D01*
X008987Y013417D01*
X008987Y013570D01*
X008911Y013647D01*
X007723Y013570D02*
X007647Y013647D01*
X007723Y013570D02*
X007723Y013417D01*
X007647Y013340D01*
X007340Y013340D01*
X007263Y013417D01*
X007263Y013570D01*
X007340Y013647D01*
X007340Y013800D02*
X007263Y013877D01*
X007263Y014030D01*
X007340Y014107D01*
X007417Y014107D01*
X007493Y014030D01*
X007570Y014107D01*
X007647Y014107D01*
X007723Y014030D01*
X007723Y013877D01*
X007647Y013800D01*
X007493Y013954D02*
X007493Y014030D01*
X005248Y010704D02*
X004941Y010704D01*
X004941Y010473D01*
X005095Y010550D01*
X005171Y010550D01*
X005248Y010473D01*
X005248Y010320D01*
X005171Y010243D01*
X005018Y010243D01*
X004941Y010320D01*
X004788Y010320D02*
X004711Y010243D01*
X004558Y010243D01*
X004481Y010320D01*
X004481Y010627D01*
X004558Y010704D01*
X004711Y010704D01*
X004788Y010627D01*
X009441Y005873D02*
X009748Y005413D01*
X009748Y005873D01*
X009901Y005873D02*
X009901Y005566D01*
X010055Y005413D01*
X010208Y005566D01*
X010208Y005873D01*
X010362Y005796D02*
X010362Y005489D01*
X010669Y005796D01*
X010669Y005489D01*
X010592Y005413D01*
X010438Y005413D01*
X010362Y005489D01*
X010362Y005796D02*
X010438Y005873D01*
X010592Y005873D01*
X010669Y005796D01*
X010822Y005796D02*
X010822Y005720D01*
X010899Y005643D01*
X011052Y005643D01*
X011129Y005566D01*
X011129Y005489D01*
X011052Y005413D01*
X010899Y005413D01*
X010822Y005489D01*
X010822Y005566D01*
X010899Y005643D01*
X011052Y005643D02*
X011129Y005720D01*
X011129Y005796D01*
X011052Y005873D01*
X010899Y005873D01*
X010822Y005796D01*
X011282Y005796D02*
X011282Y005489D01*
X011359Y005413D01*
X011513Y005413D01*
X011589Y005489D01*
X011743Y005643D02*
X012050Y005643D01*
X012203Y005796D02*
X012203Y005489D01*
X012280Y005413D01*
X012433Y005413D01*
X012510Y005489D01*
X012664Y005489D02*
X012740Y005413D01*
X012894Y005413D01*
X012970Y005489D01*
X012970Y005566D01*
X012894Y005643D01*
X012740Y005643D01*
X012664Y005720D01*
X012664Y005796D01*
X012740Y005873D01*
X012894Y005873D01*
X012970Y005796D01*
X013124Y005873D02*
X013277Y005720D01*
X013431Y005873D01*
X013431Y005413D01*
X013124Y005413D02*
X013124Y005873D01*
X012510Y005796D02*
X012433Y005873D01*
X012280Y005873D01*
X012203Y005796D01*
X011589Y005796D02*
X011513Y005873D01*
X011359Y005873D01*
X011282Y005796D01*
X011007Y004422D02*
X011007Y004115D01*
X011007Y003962D02*
X011007Y003655D01*
X010547Y003655D01*
X010700Y004115D02*
X010547Y004269D01*
X011007Y004269D01*
X012071Y004322D02*
X012071Y004015D01*
X012147Y003938D01*
X012301Y003938D01*
X012378Y004015D01*
X012531Y003938D02*
X012838Y004245D01*
X012838Y004322D01*
X012761Y004399D01*
X012608Y004399D01*
X012531Y004322D01*
X012378Y004322D02*
X012301Y004399D01*
X012147Y004399D01*
X012071Y004322D01*
X012531Y003938D02*
X012838Y003938D01*
X014453Y003025D02*
X014453Y002565D01*
X014453Y002718D02*
X014683Y002718D01*
X014759Y002795D01*
X014759Y002948D01*
X014683Y003025D01*
X014453Y003025D01*
X014606Y002718D02*
X014759Y002565D01*
X014913Y002565D02*
X015220Y002872D01*
X015220Y002948D01*
X015143Y003025D01*
X014990Y003025D01*
X014913Y002948D01*
X014913Y002565D02*
X015220Y002565D01*
X016863Y004810D02*
X017247Y004810D01*
X017324Y004887D01*
X017324Y005041D01*
X017247Y005117D01*
X016863Y005117D01*
X017017Y005271D02*
X016863Y005424D01*
X017324Y005424D01*
X017324Y005271D02*
X017324Y005578D01*
X009441Y005413D02*
X009441Y005873D01*
X005318Y003367D02*
X005011Y003367D01*
X004858Y003367D02*
X004704Y003521D01*
X004781Y003521D02*
X004551Y003521D01*
X004551Y003367D02*
X004551Y003828D01*
X004781Y003828D01*
X004858Y003751D01*
X004858Y003598D01*
X004781Y003521D01*
X005011Y003674D02*
X005165Y003828D01*
X005165Y003367D01*
X003832Y002802D02*
X003832Y002495D01*
X003832Y002342D02*
X003602Y002111D01*
X003678Y002035D02*
X003371Y002342D01*
X003525Y002495D02*
X003371Y002649D01*
X003832Y002649D01*
X003832Y002035D02*
X003371Y002035D01*
X001253Y017059D02*
X000793Y017059D01*
X001023Y017136D02*
X001253Y017366D01*
X001253Y017519D02*
X000946Y017826D01*
X000869Y017826D01*
X000793Y017749D01*
X000793Y017596D01*
X000869Y017519D01*
X000793Y017366D02*
X001100Y017059D01*
X001253Y017519D02*
X001253Y017826D01*
D14*
X012180Y004855D02*
X012119Y004793D01*
X012119Y004546D01*
X012180Y004484D01*
X012304Y004484D01*
X012366Y004546D01*
X012487Y004484D02*
X012734Y004484D01*
X012610Y004484D02*
X012610Y004855D01*
X012487Y004731D01*
X012366Y004793D02*
X012304Y004855D01*
X012180Y004855D01*
D15*
X012773Y014617D02*
X013049Y014617D01*
X013049Y015117D02*
X012773Y015117D01*
X012773Y015617D02*
X013049Y015617D01*
X013049Y016117D02*
X012773Y016117D01*
X012773Y016617D02*
X013049Y016617D01*
D16*
X013730Y003476D02*
X013730Y003295D01*
X013608Y003203D01*
X013730Y003114D02*
X013730Y003295D01*
X013724Y003305D02*
X013608Y003381D01*
D17*
X013613Y003575D02*
X013688Y003575D01*
X013713Y003600D01*
X013713Y003700D01*
X013688Y003725D01*
X013613Y003725D01*
X013613Y003575D01*
X013566Y003575D02*
X013466Y003575D01*
X013466Y003725D01*
X013566Y003725D01*
X013516Y003650D02*
X013466Y003650D01*
X013418Y003575D02*
X013318Y003575D01*
X013318Y003725D01*
X013760Y003675D02*
X013810Y003725D01*
X013810Y003575D01*
X013760Y003575D02*
X013860Y003575D01*
M02*
