G75*
G70*
%OFA0B0*%
%FSLAX24Y24*%
%IPPOS*%
%LPD*%
%AMOC8*
5,1,8,0,0,1.08239X$1,22.5*
%
%ADD10C,0.0000*%
%ADD11C,0.0050*%
%ADD12C,0.0040*%
D10*
X000253Y000145D02*
X000253Y019830D01*
X019742Y019830D01*
X019742Y000145D01*
X000253Y000145D01*
X002041Y001897D02*
X002043Y001924D01*
X002049Y001951D01*
X002058Y001977D01*
X002071Y002001D01*
X002087Y002024D01*
X002106Y002043D01*
X002128Y002060D01*
X002152Y002074D01*
X002177Y002084D01*
X002204Y002091D01*
X002231Y002094D01*
X002259Y002093D01*
X002286Y002088D01*
X002312Y002080D01*
X002336Y002068D01*
X002359Y002052D01*
X002380Y002034D01*
X002397Y002013D01*
X002412Y001989D01*
X002423Y001964D01*
X002431Y001938D01*
X002435Y001911D01*
X002435Y001883D01*
X002431Y001856D01*
X002423Y001830D01*
X002412Y001805D01*
X002397Y001781D01*
X002380Y001760D01*
X002359Y001742D01*
X002337Y001726D01*
X002312Y001714D01*
X002286Y001706D01*
X002259Y001701D01*
X002231Y001700D01*
X002204Y001703D01*
X002177Y001710D01*
X002152Y001720D01*
X002128Y001734D01*
X002106Y001751D01*
X002087Y001770D01*
X002071Y001793D01*
X002058Y001817D01*
X002049Y001843D01*
X002043Y001870D01*
X002041Y001897D01*
X002041Y004259D02*
X002043Y004286D01*
X002049Y004313D01*
X002058Y004339D01*
X002071Y004363D01*
X002087Y004386D01*
X002106Y004405D01*
X002128Y004422D01*
X002152Y004436D01*
X002177Y004446D01*
X002204Y004453D01*
X002231Y004456D01*
X002259Y004455D01*
X002286Y004450D01*
X002312Y004442D01*
X002336Y004430D01*
X002359Y004414D01*
X002380Y004396D01*
X002397Y004375D01*
X002412Y004351D01*
X002423Y004326D01*
X002431Y004300D01*
X002435Y004273D01*
X002435Y004245D01*
X002431Y004218D01*
X002423Y004192D01*
X002412Y004167D01*
X002397Y004143D01*
X002380Y004122D01*
X002359Y004104D01*
X002337Y004088D01*
X002312Y004076D01*
X002286Y004068D01*
X002259Y004063D01*
X002231Y004062D01*
X002204Y004065D01*
X002177Y004072D01*
X002152Y004082D01*
X002128Y004096D01*
X002106Y004113D01*
X002087Y004132D01*
X002071Y004155D01*
X002058Y004179D01*
X002049Y004205D01*
X002043Y004232D01*
X002041Y004259D01*
X002190Y015716D02*
X002192Y015743D01*
X002198Y015770D01*
X002207Y015796D01*
X002220Y015820D01*
X002236Y015843D01*
X002255Y015862D01*
X002277Y015879D01*
X002301Y015893D01*
X002326Y015903D01*
X002353Y015910D01*
X002380Y015913D01*
X002408Y015912D01*
X002435Y015907D01*
X002461Y015899D01*
X002485Y015887D01*
X002508Y015871D01*
X002529Y015853D01*
X002546Y015832D01*
X002561Y015808D01*
X002572Y015783D01*
X002580Y015757D01*
X002584Y015730D01*
X002584Y015702D01*
X002580Y015675D01*
X002572Y015649D01*
X002561Y015624D01*
X002546Y015600D01*
X002529Y015579D01*
X002508Y015561D01*
X002486Y015545D01*
X002461Y015533D01*
X002435Y015525D01*
X002408Y015520D01*
X002380Y015519D01*
X002353Y015522D01*
X002326Y015529D01*
X002301Y015539D01*
X002277Y015553D01*
X002255Y015570D01*
X002236Y015589D01*
X002220Y015612D01*
X002207Y015636D01*
X002198Y015662D01*
X002192Y015689D01*
X002190Y015716D01*
X002190Y018078D02*
X002192Y018105D01*
X002198Y018132D01*
X002207Y018158D01*
X002220Y018182D01*
X002236Y018205D01*
X002255Y018224D01*
X002277Y018241D01*
X002301Y018255D01*
X002326Y018265D01*
X002353Y018272D01*
X002380Y018275D01*
X002408Y018274D01*
X002435Y018269D01*
X002461Y018261D01*
X002485Y018249D01*
X002508Y018233D01*
X002529Y018215D01*
X002546Y018194D01*
X002561Y018170D01*
X002572Y018145D01*
X002580Y018119D01*
X002584Y018092D01*
X002584Y018064D01*
X002580Y018037D01*
X002572Y018011D01*
X002561Y017986D01*
X002546Y017962D01*
X002529Y017941D01*
X002508Y017923D01*
X002486Y017907D01*
X002461Y017895D01*
X002435Y017887D01*
X002408Y017882D01*
X002380Y017881D01*
X002353Y017884D01*
X002326Y017891D01*
X002301Y017901D01*
X002277Y017915D01*
X002255Y017932D01*
X002236Y017951D01*
X002220Y017974D01*
X002207Y017998D01*
X002198Y018024D01*
X002192Y018051D01*
X002190Y018078D01*
D11*
X008521Y018255D02*
X008521Y011956D01*
X019545Y011956D01*
X019545Y018255D01*
X008521Y018255D01*
X009505Y015105D02*
X009510Y015327D01*
X009527Y015549D01*
X009554Y015769D01*
X009592Y015988D01*
X009641Y016205D01*
X009700Y016419D01*
X009770Y016630D01*
X009850Y016838D01*
X009940Y017041D01*
X010040Y017239D01*
X010149Y017433D01*
X010268Y017621D01*
X010396Y017802D01*
X010533Y017978D01*
X010678Y018146D01*
X010831Y018307D01*
X010992Y018460D01*
X011160Y018605D01*
X011336Y018742D01*
X011517Y018870D01*
X011705Y018989D01*
X011899Y019098D01*
X012097Y019198D01*
X012300Y019288D01*
X012508Y019368D01*
X012719Y019438D01*
X012933Y019497D01*
X013150Y019546D01*
X013369Y019584D01*
X013589Y019611D01*
X013811Y019628D01*
X014033Y019633D01*
X014255Y019628D01*
X014477Y019611D01*
X014697Y019584D01*
X014916Y019546D01*
X015133Y019497D01*
X015347Y019438D01*
X015558Y019368D01*
X015766Y019288D01*
X015969Y019198D01*
X016167Y019098D01*
X016361Y018989D01*
X016549Y018870D01*
X016730Y018742D01*
X016906Y018605D01*
X017074Y018460D01*
X017235Y018307D01*
X017388Y018146D01*
X017533Y017978D01*
X017670Y017802D01*
X017798Y017621D01*
X017917Y017433D01*
X018026Y017239D01*
X018126Y017041D01*
X018216Y016838D01*
X018296Y016630D01*
X018366Y016419D01*
X018425Y016205D01*
X018474Y015988D01*
X018512Y015769D01*
X018539Y015549D01*
X018556Y015327D01*
X018561Y015105D01*
X018556Y014883D01*
X018539Y014661D01*
X018512Y014441D01*
X018474Y014222D01*
X018425Y014005D01*
X018366Y013791D01*
X018296Y013580D01*
X018216Y013372D01*
X018126Y013169D01*
X018026Y012971D01*
X017917Y012777D01*
X017798Y012589D01*
X017670Y012408D01*
X017533Y012232D01*
X017388Y012064D01*
X017235Y011903D01*
X017074Y011750D01*
X016906Y011605D01*
X016730Y011468D01*
X016549Y011340D01*
X016361Y011221D01*
X016167Y011112D01*
X015969Y011012D01*
X015766Y010922D01*
X015558Y010842D01*
X015347Y010772D01*
X015133Y010713D01*
X014916Y010664D01*
X014697Y010626D01*
X014477Y010599D01*
X014255Y010582D01*
X014033Y010577D01*
X013811Y010582D01*
X013589Y010599D01*
X013369Y010626D01*
X013150Y010664D01*
X012933Y010713D01*
X012719Y010772D01*
X012508Y010842D01*
X012300Y010922D01*
X012097Y011012D01*
X011899Y011112D01*
X011705Y011221D01*
X011517Y011340D01*
X011336Y011468D01*
X011160Y011605D01*
X010992Y011750D01*
X010831Y011903D01*
X010678Y012064D01*
X010533Y012232D01*
X010396Y012408D01*
X010268Y012589D01*
X010149Y012777D01*
X010040Y012971D01*
X009940Y013169D01*
X009850Y013372D01*
X009770Y013580D01*
X009700Y013791D01*
X009641Y014005D01*
X009592Y014222D01*
X009554Y014441D01*
X009527Y014661D01*
X009510Y014883D01*
X009505Y015105D01*
D12*
X008013Y013856D02*
X007706Y013856D01*
X007859Y014009D02*
X007859Y013702D01*
X012666Y018625D02*
X012973Y018625D01*
X012666Y018932D01*
X012666Y019009D01*
X012743Y019086D01*
X012897Y019086D01*
X012973Y019009D01*
X013127Y019009D02*
X013203Y019086D01*
X013357Y019086D01*
X013434Y019009D01*
X013587Y019009D02*
X013587Y018702D01*
X013664Y018625D01*
X013817Y018625D01*
X013894Y018702D01*
X013587Y019009D01*
X013664Y019086D01*
X013817Y019086D01*
X013894Y019009D01*
X013894Y018702D01*
X014048Y018625D02*
X014354Y018625D01*
X014048Y018932D01*
X014048Y019009D01*
X014124Y019086D01*
X014278Y019086D01*
X014354Y019009D01*
X014508Y018932D02*
X014508Y018625D01*
X014508Y018856D02*
X014815Y018856D01*
X014815Y018932D02*
X014661Y019086D01*
X014508Y018932D01*
X014815Y018932D02*
X014815Y018625D01*
X014968Y018702D02*
X015045Y018625D01*
X015275Y018625D01*
X015275Y019086D01*
X015045Y019086D01*
X014968Y019009D01*
X014968Y018932D01*
X015045Y018856D01*
X015275Y018856D01*
X015045Y018856D02*
X014968Y018779D01*
X014968Y018702D01*
X013434Y018702D02*
X013357Y018625D01*
X013203Y018625D01*
X013127Y018702D01*
X013127Y018779D01*
X013203Y018856D01*
X013280Y018856D01*
X013203Y018856D02*
X013127Y018932D01*
X013127Y019009D01*
X019553Y016853D02*
X019553Y016546D01*
X019553Y016700D02*
X020013Y016700D01*
X019860Y016546D01*
X019937Y016393D02*
X020013Y016316D01*
X020013Y016162D01*
X019937Y016086D01*
X019860Y016086D01*
X019783Y016162D01*
X019783Y016316D01*
X019706Y016393D01*
X019630Y016393D01*
X019553Y016316D01*
X019553Y016162D01*
X019630Y016086D01*
X019630Y015932D02*
X019553Y015856D01*
X019553Y015702D01*
X019630Y015625D01*
X020013Y015625D01*
X020013Y015932D02*
X019630Y015932D01*
X019476Y016239D02*
X020090Y016239D01*
X020206Y014856D02*
X020513Y014856D01*
M02*
