G75*
%MOIN*%
%OFA0B0*%
%FSLAX25Y25*%
%IPPOS*%
%LPD*%
%AMOC8*
5,1,8,0,0,1.08239X$1,22.5*
%
%ADD10C,0.00000*%
%ADD11C,0.13398*%
%ADD12C,0.07178*%
%ADD13C,0.12139*%
%ADD14C,0.12611*%
%ADD15C,0.02581*%
D10*
X0030619Y0001000D02*
X0030619Y0249701D01*
X0235540Y0249701D01*
X0235540Y0001000D01*
X0030619Y0001000D01*
X0064713Y0033402D02*
X0064715Y0033555D01*
X0064721Y0033709D01*
X0064731Y0033862D01*
X0064745Y0034014D01*
X0064763Y0034167D01*
X0064785Y0034318D01*
X0064810Y0034469D01*
X0064840Y0034620D01*
X0064874Y0034770D01*
X0064911Y0034918D01*
X0064952Y0035066D01*
X0064997Y0035212D01*
X0065046Y0035358D01*
X0065099Y0035502D01*
X0065155Y0035644D01*
X0065215Y0035785D01*
X0065279Y0035925D01*
X0065346Y0036063D01*
X0065417Y0036199D01*
X0065492Y0036333D01*
X0065569Y0036465D01*
X0065651Y0036595D01*
X0065735Y0036723D01*
X0065823Y0036849D01*
X0065914Y0036972D01*
X0066008Y0037093D01*
X0066106Y0037211D01*
X0066206Y0037327D01*
X0066310Y0037440D01*
X0066416Y0037551D01*
X0066525Y0037659D01*
X0066637Y0037764D01*
X0066751Y0037865D01*
X0066869Y0037964D01*
X0066988Y0038060D01*
X0067110Y0038153D01*
X0067235Y0038242D01*
X0067362Y0038329D01*
X0067491Y0038411D01*
X0067622Y0038491D01*
X0067755Y0038567D01*
X0067890Y0038640D01*
X0068027Y0038709D01*
X0068166Y0038774D01*
X0068306Y0038836D01*
X0068448Y0038894D01*
X0068591Y0038949D01*
X0068736Y0039000D01*
X0068882Y0039047D01*
X0069029Y0039090D01*
X0069177Y0039129D01*
X0069326Y0039165D01*
X0069476Y0039196D01*
X0069627Y0039224D01*
X0069778Y0039248D01*
X0069931Y0039268D01*
X0070083Y0039284D01*
X0070236Y0039296D01*
X0070389Y0039304D01*
X0070542Y0039308D01*
X0070696Y0039308D01*
X0070849Y0039304D01*
X0071002Y0039296D01*
X0071155Y0039284D01*
X0071307Y0039268D01*
X0071460Y0039248D01*
X0071611Y0039224D01*
X0071762Y0039196D01*
X0071912Y0039165D01*
X0072061Y0039129D01*
X0072209Y0039090D01*
X0072356Y0039047D01*
X0072502Y0039000D01*
X0072647Y0038949D01*
X0072790Y0038894D01*
X0072932Y0038836D01*
X0073072Y0038774D01*
X0073211Y0038709D01*
X0073348Y0038640D01*
X0073483Y0038567D01*
X0073616Y0038491D01*
X0073747Y0038411D01*
X0073876Y0038329D01*
X0074003Y0038242D01*
X0074128Y0038153D01*
X0074250Y0038060D01*
X0074369Y0037964D01*
X0074487Y0037865D01*
X0074601Y0037764D01*
X0074713Y0037659D01*
X0074822Y0037551D01*
X0074928Y0037440D01*
X0075032Y0037327D01*
X0075132Y0037211D01*
X0075230Y0037093D01*
X0075324Y0036972D01*
X0075415Y0036849D01*
X0075503Y0036723D01*
X0075587Y0036595D01*
X0075669Y0036465D01*
X0075746Y0036333D01*
X0075821Y0036199D01*
X0075892Y0036063D01*
X0075959Y0035925D01*
X0076023Y0035785D01*
X0076083Y0035644D01*
X0076139Y0035502D01*
X0076192Y0035358D01*
X0076241Y0035212D01*
X0076286Y0035066D01*
X0076327Y0034918D01*
X0076364Y0034770D01*
X0076398Y0034620D01*
X0076428Y0034469D01*
X0076453Y0034318D01*
X0076475Y0034167D01*
X0076493Y0034014D01*
X0076507Y0033862D01*
X0076517Y0033709D01*
X0076523Y0033555D01*
X0076525Y0033402D01*
X0076523Y0033249D01*
X0076517Y0033095D01*
X0076507Y0032942D01*
X0076493Y0032790D01*
X0076475Y0032637D01*
X0076453Y0032486D01*
X0076428Y0032335D01*
X0076398Y0032184D01*
X0076364Y0032034D01*
X0076327Y0031886D01*
X0076286Y0031738D01*
X0076241Y0031592D01*
X0076192Y0031446D01*
X0076139Y0031302D01*
X0076083Y0031160D01*
X0076023Y0031019D01*
X0075959Y0030879D01*
X0075892Y0030741D01*
X0075821Y0030605D01*
X0075746Y0030471D01*
X0075669Y0030339D01*
X0075587Y0030209D01*
X0075503Y0030081D01*
X0075415Y0029955D01*
X0075324Y0029832D01*
X0075230Y0029711D01*
X0075132Y0029593D01*
X0075032Y0029477D01*
X0074928Y0029364D01*
X0074822Y0029253D01*
X0074713Y0029145D01*
X0074601Y0029040D01*
X0074487Y0028939D01*
X0074369Y0028840D01*
X0074250Y0028744D01*
X0074128Y0028651D01*
X0074003Y0028562D01*
X0073876Y0028475D01*
X0073747Y0028393D01*
X0073616Y0028313D01*
X0073483Y0028237D01*
X0073348Y0028164D01*
X0073211Y0028095D01*
X0073072Y0028030D01*
X0072932Y0027968D01*
X0072790Y0027910D01*
X0072647Y0027855D01*
X0072502Y0027804D01*
X0072356Y0027757D01*
X0072209Y0027714D01*
X0072061Y0027675D01*
X0071912Y0027639D01*
X0071762Y0027608D01*
X0071611Y0027580D01*
X0071460Y0027556D01*
X0071307Y0027536D01*
X0071155Y0027520D01*
X0071002Y0027508D01*
X0070849Y0027500D01*
X0070696Y0027496D01*
X0070542Y0027496D01*
X0070389Y0027500D01*
X0070236Y0027508D01*
X0070083Y0027520D01*
X0069931Y0027536D01*
X0069778Y0027556D01*
X0069627Y0027580D01*
X0069476Y0027608D01*
X0069326Y0027639D01*
X0069177Y0027675D01*
X0069029Y0027714D01*
X0068882Y0027757D01*
X0068736Y0027804D01*
X0068591Y0027855D01*
X0068448Y0027910D01*
X0068306Y0027968D01*
X0068166Y0028030D01*
X0068027Y0028095D01*
X0067890Y0028164D01*
X0067755Y0028237D01*
X0067622Y0028313D01*
X0067491Y0028393D01*
X0067362Y0028475D01*
X0067235Y0028562D01*
X0067110Y0028651D01*
X0066988Y0028744D01*
X0066869Y0028840D01*
X0066751Y0028939D01*
X0066637Y0029040D01*
X0066525Y0029145D01*
X0066416Y0029253D01*
X0066310Y0029364D01*
X0066206Y0029477D01*
X0066106Y0029593D01*
X0066008Y0029711D01*
X0065914Y0029832D01*
X0065823Y0029955D01*
X0065735Y0030081D01*
X0065651Y0030209D01*
X0065569Y0030339D01*
X0065492Y0030471D01*
X0065417Y0030605D01*
X0065346Y0030741D01*
X0065279Y0030879D01*
X0065215Y0031019D01*
X0065155Y0031160D01*
X0065099Y0031302D01*
X0065046Y0031446D01*
X0064997Y0031592D01*
X0064952Y0031738D01*
X0064911Y0031886D01*
X0064874Y0032034D01*
X0064840Y0032184D01*
X0064810Y0032335D01*
X0064785Y0032486D01*
X0064763Y0032637D01*
X0064745Y0032790D01*
X0064731Y0032942D01*
X0064721Y0033095D01*
X0064715Y0033249D01*
X0064713Y0033402D01*
X0189320Y0021000D02*
X0189322Y0021158D01*
X0189328Y0021316D01*
X0189338Y0021474D01*
X0189352Y0021632D01*
X0189370Y0021789D01*
X0189391Y0021946D01*
X0189417Y0022102D01*
X0189447Y0022258D01*
X0189480Y0022413D01*
X0189518Y0022566D01*
X0189559Y0022719D01*
X0189604Y0022871D01*
X0189653Y0023022D01*
X0189706Y0023171D01*
X0189762Y0023319D01*
X0189822Y0023465D01*
X0189886Y0023610D01*
X0189954Y0023753D01*
X0190025Y0023895D01*
X0190099Y0024035D01*
X0190177Y0024172D01*
X0190259Y0024308D01*
X0190343Y0024442D01*
X0190432Y0024573D01*
X0190523Y0024702D01*
X0190618Y0024829D01*
X0190715Y0024954D01*
X0190816Y0025076D01*
X0190920Y0025195D01*
X0191027Y0025312D01*
X0191137Y0025426D01*
X0191250Y0025537D01*
X0191365Y0025646D01*
X0191483Y0025751D01*
X0191604Y0025853D01*
X0191727Y0025953D01*
X0191853Y0026049D01*
X0191981Y0026142D01*
X0192111Y0026232D01*
X0192244Y0026318D01*
X0192379Y0026402D01*
X0192515Y0026481D01*
X0192654Y0026558D01*
X0192795Y0026630D01*
X0192937Y0026700D01*
X0193081Y0026765D01*
X0193227Y0026827D01*
X0193374Y0026885D01*
X0193523Y0026940D01*
X0193673Y0026991D01*
X0193824Y0027038D01*
X0193976Y0027081D01*
X0194129Y0027120D01*
X0194284Y0027156D01*
X0194439Y0027187D01*
X0194595Y0027215D01*
X0194751Y0027239D01*
X0194908Y0027259D01*
X0195066Y0027275D01*
X0195223Y0027287D01*
X0195382Y0027295D01*
X0195540Y0027299D01*
X0195698Y0027299D01*
X0195856Y0027295D01*
X0196015Y0027287D01*
X0196172Y0027275D01*
X0196330Y0027259D01*
X0196487Y0027239D01*
X0196643Y0027215D01*
X0196799Y0027187D01*
X0196954Y0027156D01*
X0197109Y0027120D01*
X0197262Y0027081D01*
X0197414Y0027038D01*
X0197565Y0026991D01*
X0197715Y0026940D01*
X0197864Y0026885D01*
X0198011Y0026827D01*
X0198157Y0026765D01*
X0198301Y0026700D01*
X0198443Y0026630D01*
X0198584Y0026558D01*
X0198723Y0026481D01*
X0198859Y0026402D01*
X0198994Y0026318D01*
X0199127Y0026232D01*
X0199257Y0026142D01*
X0199385Y0026049D01*
X0199511Y0025953D01*
X0199634Y0025853D01*
X0199755Y0025751D01*
X0199873Y0025646D01*
X0199988Y0025537D01*
X0200101Y0025426D01*
X0200211Y0025312D01*
X0200318Y0025195D01*
X0200422Y0025076D01*
X0200523Y0024954D01*
X0200620Y0024829D01*
X0200715Y0024702D01*
X0200806Y0024573D01*
X0200895Y0024442D01*
X0200979Y0024308D01*
X0201061Y0024172D01*
X0201139Y0024035D01*
X0201213Y0023895D01*
X0201284Y0023753D01*
X0201352Y0023610D01*
X0201416Y0023465D01*
X0201476Y0023319D01*
X0201532Y0023171D01*
X0201585Y0023022D01*
X0201634Y0022871D01*
X0201679Y0022719D01*
X0201720Y0022566D01*
X0201758Y0022413D01*
X0201791Y0022258D01*
X0201821Y0022102D01*
X0201847Y0021946D01*
X0201868Y0021789D01*
X0201886Y0021632D01*
X0201900Y0021474D01*
X0201910Y0021316D01*
X0201916Y0021158D01*
X0201918Y0021000D01*
X0201916Y0020842D01*
X0201910Y0020684D01*
X0201900Y0020526D01*
X0201886Y0020368D01*
X0201868Y0020211D01*
X0201847Y0020054D01*
X0201821Y0019898D01*
X0201791Y0019742D01*
X0201758Y0019587D01*
X0201720Y0019434D01*
X0201679Y0019281D01*
X0201634Y0019129D01*
X0201585Y0018978D01*
X0201532Y0018829D01*
X0201476Y0018681D01*
X0201416Y0018535D01*
X0201352Y0018390D01*
X0201284Y0018247D01*
X0201213Y0018105D01*
X0201139Y0017965D01*
X0201061Y0017828D01*
X0200979Y0017692D01*
X0200895Y0017558D01*
X0200806Y0017427D01*
X0200715Y0017298D01*
X0200620Y0017171D01*
X0200523Y0017046D01*
X0200422Y0016924D01*
X0200318Y0016805D01*
X0200211Y0016688D01*
X0200101Y0016574D01*
X0199988Y0016463D01*
X0199873Y0016354D01*
X0199755Y0016249D01*
X0199634Y0016147D01*
X0199511Y0016047D01*
X0199385Y0015951D01*
X0199257Y0015858D01*
X0199127Y0015768D01*
X0198994Y0015682D01*
X0198859Y0015598D01*
X0198723Y0015519D01*
X0198584Y0015442D01*
X0198443Y0015370D01*
X0198301Y0015300D01*
X0198157Y0015235D01*
X0198011Y0015173D01*
X0197864Y0015115D01*
X0197715Y0015060D01*
X0197565Y0015009D01*
X0197414Y0014962D01*
X0197262Y0014919D01*
X0197109Y0014880D01*
X0196954Y0014844D01*
X0196799Y0014813D01*
X0196643Y0014785D01*
X0196487Y0014761D01*
X0196330Y0014741D01*
X0196172Y0014725D01*
X0196015Y0014713D01*
X0195856Y0014705D01*
X0195698Y0014701D01*
X0195540Y0014701D01*
X0195382Y0014705D01*
X0195223Y0014713D01*
X0195066Y0014725D01*
X0194908Y0014741D01*
X0194751Y0014761D01*
X0194595Y0014785D01*
X0194439Y0014813D01*
X0194284Y0014844D01*
X0194129Y0014880D01*
X0193976Y0014919D01*
X0193824Y0014962D01*
X0193673Y0015009D01*
X0193523Y0015060D01*
X0193374Y0015115D01*
X0193227Y0015173D01*
X0193081Y0015235D01*
X0192937Y0015300D01*
X0192795Y0015370D01*
X0192654Y0015442D01*
X0192515Y0015519D01*
X0192379Y0015598D01*
X0192244Y0015682D01*
X0192111Y0015768D01*
X0191981Y0015858D01*
X0191853Y0015951D01*
X0191727Y0016047D01*
X0191604Y0016147D01*
X0191483Y0016249D01*
X0191365Y0016354D01*
X0191250Y0016463D01*
X0191137Y0016574D01*
X0191027Y0016688D01*
X0190920Y0016805D01*
X0190816Y0016924D01*
X0190715Y0017046D01*
X0190618Y0017171D01*
X0190523Y0017298D01*
X0190432Y0017427D01*
X0190343Y0017558D01*
X0190259Y0017692D01*
X0190177Y0017828D01*
X0190099Y0017965D01*
X0190025Y0018105D01*
X0189954Y0018247D01*
X0189886Y0018390D01*
X0189822Y0018535D01*
X0189762Y0018681D01*
X0189706Y0018829D01*
X0189653Y0018978D01*
X0189604Y0019129D01*
X0189559Y0019281D01*
X0189518Y0019434D01*
X0189480Y0019587D01*
X0189447Y0019742D01*
X0189417Y0019898D01*
X0189391Y0020054D01*
X0189370Y0020211D01*
X0189352Y0020368D01*
X0189338Y0020526D01*
X0189328Y0020684D01*
X0189322Y0020842D01*
X0189320Y0021000D01*
X0064713Y0218598D02*
X0064715Y0218751D01*
X0064721Y0218905D01*
X0064731Y0219058D01*
X0064745Y0219210D01*
X0064763Y0219363D01*
X0064785Y0219514D01*
X0064810Y0219665D01*
X0064840Y0219816D01*
X0064874Y0219966D01*
X0064911Y0220114D01*
X0064952Y0220262D01*
X0064997Y0220408D01*
X0065046Y0220554D01*
X0065099Y0220698D01*
X0065155Y0220840D01*
X0065215Y0220981D01*
X0065279Y0221121D01*
X0065346Y0221259D01*
X0065417Y0221395D01*
X0065492Y0221529D01*
X0065569Y0221661D01*
X0065651Y0221791D01*
X0065735Y0221919D01*
X0065823Y0222045D01*
X0065914Y0222168D01*
X0066008Y0222289D01*
X0066106Y0222407D01*
X0066206Y0222523D01*
X0066310Y0222636D01*
X0066416Y0222747D01*
X0066525Y0222855D01*
X0066637Y0222960D01*
X0066751Y0223061D01*
X0066869Y0223160D01*
X0066988Y0223256D01*
X0067110Y0223349D01*
X0067235Y0223438D01*
X0067362Y0223525D01*
X0067491Y0223607D01*
X0067622Y0223687D01*
X0067755Y0223763D01*
X0067890Y0223836D01*
X0068027Y0223905D01*
X0068166Y0223970D01*
X0068306Y0224032D01*
X0068448Y0224090D01*
X0068591Y0224145D01*
X0068736Y0224196D01*
X0068882Y0224243D01*
X0069029Y0224286D01*
X0069177Y0224325D01*
X0069326Y0224361D01*
X0069476Y0224392D01*
X0069627Y0224420D01*
X0069778Y0224444D01*
X0069931Y0224464D01*
X0070083Y0224480D01*
X0070236Y0224492D01*
X0070389Y0224500D01*
X0070542Y0224504D01*
X0070696Y0224504D01*
X0070849Y0224500D01*
X0071002Y0224492D01*
X0071155Y0224480D01*
X0071307Y0224464D01*
X0071460Y0224444D01*
X0071611Y0224420D01*
X0071762Y0224392D01*
X0071912Y0224361D01*
X0072061Y0224325D01*
X0072209Y0224286D01*
X0072356Y0224243D01*
X0072502Y0224196D01*
X0072647Y0224145D01*
X0072790Y0224090D01*
X0072932Y0224032D01*
X0073072Y0223970D01*
X0073211Y0223905D01*
X0073348Y0223836D01*
X0073483Y0223763D01*
X0073616Y0223687D01*
X0073747Y0223607D01*
X0073876Y0223525D01*
X0074003Y0223438D01*
X0074128Y0223349D01*
X0074250Y0223256D01*
X0074369Y0223160D01*
X0074487Y0223061D01*
X0074601Y0222960D01*
X0074713Y0222855D01*
X0074822Y0222747D01*
X0074928Y0222636D01*
X0075032Y0222523D01*
X0075132Y0222407D01*
X0075230Y0222289D01*
X0075324Y0222168D01*
X0075415Y0222045D01*
X0075503Y0221919D01*
X0075587Y0221791D01*
X0075669Y0221661D01*
X0075746Y0221529D01*
X0075821Y0221395D01*
X0075892Y0221259D01*
X0075959Y0221121D01*
X0076023Y0220981D01*
X0076083Y0220840D01*
X0076139Y0220698D01*
X0076192Y0220554D01*
X0076241Y0220408D01*
X0076286Y0220262D01*
X0076327Y0220114D01*
X0076364Y0219966D01*
X0076398Y0219816D01*
X0076428Y0219665D01*
X0076453Y0219514D01*
X0076475Y0219363D01*
X0076493Y0219210D01*
X0076507Y0219058D01*
X0076517Y0218905D01*
X0076523Y0218751D01*
X0076525Y0218598D01*
X0076523Y0218445D01*
X0076517Y0218291D01*
X0076507Y0218138D01*
X0076493Y0217986D01*
X0076475Y0217833D01*
X0076453Y0217682D01*
X0076428Y0217531D01*
X0076398Y0217380D01*
X0076364Y0217230D01*
X0076327Y0217082D01*
X0076286Y0216934D01*
X0076241Y0216788D01*
X0076192Y0216642D01*
X0076139Y0216498D01*
X0076083Y0216356D01*
X0076023Y0216215D01*
X0075959Y0216075D01*
X0075892Y0215937D01*
X0075821Y0215801D01*
X0075746Y0215667D01*
X0075669Y0215535D01*
X0075587Y0215405D01*
X0075503Y0215277D01*
X0075415Y0215151D01*
X0075324Y0215028D01*
X0075230Y0214907D01*
X0075132Y0214789D01*
X0075032Y0214673D01*
X0074928Y0214560D01*
X0074822Y0214449D01*
X0074713Y0214341D01*
X0074601Y0214236D01*
X0074487Y0214135D01*
X0074369Y0214036D01*
X0074250Y0213940D01*
X0074128Y0213847D01*
X0074003Y0213758D01*
X0073876Y0213671D01*
X0073747Y0213589D01*
X0073616Y0213509D01*
X0073483Y0213433D01*
X0073348Y0213360D01*
X0073211Y0213291D01*
X0073072Y0213226D01*
X0072932Y0213164D01*
X0072790Y0213106D01*
X0072647Y0213051D01*
X0072502Y0213000D01*
X0072356Y0212953D01*
X0072209Y0212910D01*
X0072061Y0212871D01*
X0071912Y0212835D01*
X0071762Y0212804D01*
X0071611Y0212776D01*
X0071460Y0212752D01*
X0071307Y0212732D01*
X0071155Y0212716D01*
X0071002Y0212704D01*
X0070849Y0212696D01*
X0070696Y0212692D01*
X0070542Y0212692D01*
X0070389Y0212696D01*
X0070236Y0212704D01*
X0070083Y0212716D01*
X0069931Y0212732D01*
X0069778Y0212752D01*
X0069627Y0212776D01*
X0069476Y0212804D01*
X0069326Y0212835D01*
X0069177Y0212871D01*
X0069029Y0212910D01*
X0068882Y0212953D01*
X0068736Y0213000D01*
X0068591Y0213051D01*
X0068448Y0213106D01*
X0068306Y0213164D01*
X0068166Y0213226D01*
X0068027Y0213291D01*
X0067890Y0213360D01*
X0067755Y0213433D01*
X0067622Y0213509D01*
X0067491Y0213589D01*
X0067362Y0213671D01*
X0067235Y0213758D01*
X0067110Y0213847D01*
X0066988Y0213940D01*
X0066869Y0214036D01*
X0066751Y0214135D01*
X0066637Y0214236D01*
X0066525Y0214341D01*
X0066416Y0214449D01*
X0066310Y0214560D01*
X0066206Y0214673D01*
X0066106Y0214789D01*
X0066008Y0214907D01*
X0065914Y0215028D01*
X0065823Y0215151D01*
X0065735Y0215277D01*
X0065651Y0215405D01*
X0065569Y0215535D01*
X0065492Y0215667D01*
X0065417Y0215801D01*
X0065346Y0215937D01*
X0065279Y0216075D01*
X0065215Y0216215D01*
X0065155Y0216356D01*
X0065099Y0216498D01*
X0065046Y0216642D01*
X0064997Y0216788D01*
X0064952Y0216934D01*
X0064911Y0217082D01*
X0064874Y0217230D01*
X0064840Y0217380D01*
X0064810Y0217531D01*
X0064785Y0217682D01*
X0064763Y0217833D01*
X0064745Y0217986D01*
X0064731Y0218138D01*
X0064721Y0218291D01*
X0064715Y0218445D01*
X0064713Y0218598D01*
X0189320Y0231000D02*
X0189322Y0231158D01*
X0189328Y0231316D01*
X0189338Y0231474D01*
X0189352Y0231632D01*
X0189370Y0231789D01*
X0189391Y0231946D01*
X0189417Y0232102D01*
X0189447Y0232258D01*
X0189480Y0232413D01*
X0189518Y0232566D01*
X0189559Y0232719D01*
X0189604Y0232871D01*
X0189653Y0233022D01*
X0189706Y0233171D01*
X0189762Y0233319D01*
X0189822Y0233465D01*
X0189886Y0233610D01*
X0189954Y0233753D01*
X0190025Y0233895D01*
X0190099Y0234035D01*
X0190177Y0234172D01*
X0190259Y0234308D01*
X0190343Y0234442D01*
X0190432Y0234573D01*
X0190523Y0234702D01*
X0190618Y0234829D01*
X0190715Y0234954D01*
X0190816Y0235076D01*
X0190920Y0235195D01*
X0191027Y0235312D01*
X0191137Y0235426D01*
X0191250Y0235537D01*
X0191365Y0235646D01*
X0191483Y0235751D01*
X0191604Y0235853D01*
X0191727Y0235953D01*
X0191853Y0236049D01*
X0191981Y0236142D01*
X0192111Y0236232D01*
X0192244Y0236318D01*
X0192379Y0236402D01*
X0192515Y0236481D01*
X0192654Y0236558D01*
X0192795Y0236630D01*
X0192937Y0236700D01*
X0193081Y0236765D01*
X0193227Y0236827D01*
X0193374Y0236885D01*
X0193523Y0236940D01*
X0193673Y0236991D01*
X0193824Y0237038D01*
X0193976Y0237081D01*
X0194129Y0237120D01*
X0194284Y0237156D01*
X0194439Y0237187D01*
X0194595Y0237215D01*
X0194751Y0237239D01*
X0194908Y0237259D01*
X0195066Y0237275D01*
X0195223Y0237287D01*
X0195382Y0237295D01*
X0195540Y0237299D01*
X0195698Y0237299D01*
X0195856Y0237295D01*
X0196015Y0237287D01*
X0196172Y0237275D01*
X0196330Y0237259D01*
X0196487Y0237239D01*
X0196643Y0237215D01*
X0196799Y0237187D01*
X0196954Y0237156D01*
X0197109Y0237120D01*
X0197262Y0237081D01*
X0197414Y0237038D01*
X0197565Y0236991D01*
X0197715Y0236940D01*
X0197864Y0236885D01*
X0198011Y0236827D01*
X0198157Y0236765D01*
X0198301Y0236700D01*
X0198443Y0236630D01*
X0198584Y0236558D01*
X0198723Y0236481D01*
X0198859Y0236402D01*
X0198994Y0236318D01*
X0199127Y0236232D01*
X0199257Y0236142D01*
X0199385Y0236049D01*
X0199511Y0235953D01*
X0199634Y0235853D01*
X0199755Y0235751D01*
X0199873Y0235646D01*
X0199988Y0235537D01*
X0200101Y0235426D01*
X0200211Y0235312D01*
X0200318Y0235195D01*
X0200422Y0235076D01*
X0200523Y0234954D01*
X0200620Y0234829D01*
X0200715Y0234702D01*
X0200806Y0234573D01*
X0200895Y0234442D01*
X0200979Y0234308D01*
X0201061Y0234172D01*
X0201139Y0234035D01*
X0201213Y0233895D01*
X0201284Y0233753D01*
X0201352Y0233610D01*
X0201416Y0233465D01*
X0201476Y0233319D01*
X0201532Y0233171D01*
X0201585Y0233022D01*
X0201634Y0232871D01*
X0201679Y0232719D01*
X0201720Y0232566D01*
X0201758Y0232413D01*
X0201791Y0232258D01*
X0201821Y0232102D01*
X0201847Y0231946D01*
X0201868Y0231789D01*
X0201886Y0231632D01*
X0201900Y0231474D01*
X0201910Y0231316D01*
X0201916Y0231158D01*
X0201918Y0231000D01*
X0201916Y0230842D01*
X0201910Y0230684D01*
X0201900Y0230526D01*
X0201886Y0230368D01*
X0201868Y0230211D01*
X0201847Y0230054D01*
X0201821Y0229898D01*
X0201791Y0229742D01*
X0201758Y0229587D01*
X0201720Y0229434D01*
X0201679Y0229281D01*
X0201634Y0229129D01*
X0201585Y0228978D01*
X0201532Y0228829D01*
X0201476Y0228681D01*
X0201416Y0228535D01*
X0201352Y0228390D01*
X0201284Y0228247D01*
X0201213Y0228105D01*
X0201139Y0227965D01*
X0201061Y0227828D01*
X0200979Y0227692D01*
X0200895Y0227558D01*
X0200806Y0227427D01*
X0200715Y0227298D01*
X0200620Y0227171D01*
X0200523Y0227046D01*
X0200422Y0226924D01*
X0200318Y0226805D01*
X0200211Y0226688D01*
X0200101Y0226574D01*
X0199988Y0226463D01*
X0199873Y0226354D01*
X0199755Y0226249D01*
X0199634Y0226147D01*
X0199511Y0226047D01*
X0199385Y0225951D01*
X0199257Y0225858D01*
X0199127Y0225768D01*
X0198994Y0225682D01*
X0198859Y0225598D01*
X0198723Y0225519D01*
X0198584Y0225442D01*
X0198443Y0225370D01*
X0198301Y0225300D01*
X0198157Y0225235D01*
X0198011Y0225173D01*
X0197864Y0225115D01*
X0197715Y0225060D01*
X0197565Y0225009D01*
X0197414Y0224962D01*
X0197262Y0224919D01*
X0197109Y0224880D01*
X0196954Y0224844D01*
X0196799Y0224813D01*
X0196643Y0224785D01*
X0196487Y0224761D01*
X0196330Y0224741D01*
X0196172Y0224725D01*
X0196015Y0224713D01*
X0195856Y0224705D01*
X0195698Y0224701D01*
X0195540Y0224701D01*
X0195382Y0224705D01*
X0195223Y0224713D01*
X0195066Y0224725D01*
X0194908Y0224741D01*
X0194751Y0224761D01*
X0194595Y0224785D01*
X0194439Y0224813D01*
X0194284Y0224844D01*
X0194129Y0224880D01*
X0193976Y0224919D01*
X0193824Y0224962D01*
X0193673Y0225009D01*
X0193523Y0225060D01*
X0193374Y0225115D01*
X0193227Y0225173D01*
X0193081Y0225235D01*
X0192937Y0225300D01*
X0192795Y0225370D01*
X0192654Y0225442D01*
X0192515Y0225519D01*
X0192379Y0225598D01*
X0192244Y0225682D01*
X0192111Y0225768D01*
X0191981Y0225858D01*
X0191853Y0225951D01*
X0191727Y0226047D01*
X0191604Y0226147D01*
X0191483Y0226249D01*
X0191365Y0226354D01*
X0191250Y0226463D01*
X0191137Y0226574D01*
X0191027Y0226688D01*
X0190920Y0226805D01*
X0190816Y0226924D01*
X0190715Y0227046D01*
X0190618Y0227171D01*
X0190523Y0227298D01*
X0190432Y0227427D01*
X0190343Y0227558D01*
X0190259Y0227692D01*
X0190177Y0227828D01*
X0190099Y0227965D01*
X0190025Y0228105D01*
X0189954Y0228247D01*
X0189886Y0228390D01*
X0189822Y0228535D01*
X0189762Y0228681D01*
X0189706Y0228829D01*
X0189653Y0228978D01*
X0189604Y0229129D01*
X0189559Y0229281D01*
X0189518Y0229434D01*
X0189480Y0229587D01*
X0189447Y0229742D01*
X0189417Y0229898D01*
X0189391Y0230054D01*
X0189370Y0230211D01*
X0189352Y0230368D01*
X0189338Y0230526D01*
X0189328Y0230684D01*
X0189322Y0230842D01*
X0189320Y0231000D01*
D11*
X0195619Y0231000D03*
X0195619Y0021000D03*
D12*
X0170619Y0026000D03*
X0170619Y0036000D03*
X0170619Y0046000D03*
X0170619Y0056000D03*
X0160619Y0051000D03*
X0160619Y0041000D03*
X0160619Y0031000D03*
X0144635Y0026000D03*
X0144635Y0036000D03*
X0144635Y0046000D03*
X0144635Y0056000D03*
X0134635Y0051000D03*
X0134635Y0041000D03*
X0134635Y0031000D03*
X0134635Y0061000D03*
X0144635Y0081000D03*
X0144635Y0091000D03*
X0144635Y0101000D03*
X0144635Y0111000D03*
X0134635Y0106000D03*
X0134635Y0096000D03*
X0134635Y0086000D03*
X0160619Y0086000D03*
X0160619Y0096000D03*
X0160619Y0106000D03*
X0160619Y0116000D03*
X0170619Y0111000D03*
X0170619Y0101000D03*
X0170619Y0091000D03*
X0170619Y0081000D03*
X0160619Y0061000D03*
X0134635Y0116000D03*
X0144635Y0136000D03*
X0144635Y0146000D03*
X0144635Y0156000D03*
X0144635Y0166000D03*
X0134635Y0161000D03*
X0134635Y0151000D03*
X0134635Y0141000D03*
X0160619Y0141000D03*
X0160619Y0151000D03*
X0160619Y0161000D03*
X0160619Y0171000D03*
X0170619Y0166000D03*
X0170619Y0156000D03*
X0170619Y0146000D03*
X0170619Y0136000D03*
X0134635Y0171000D03*
X0144635Y0191000D03*
X0144635Y0201000D03*
X0144635Y0211000D03*
X0144635Y0221000D03*
X0134635Y0216000D03*
X0134635Y0206000D03*
X0134635Y0196000D03*
X0160619Y0196000D03*
X0160619Y0206000D03*
X0160619Y0216000D03*
X0160619Y0226000D03*
X0170619Y0221000D03*
X0170619Y0211000D03*
X0170619Y0201000D03*
X0170619Y0191000D03*
X0134635Y0226000D03*
X0080619Y0187012D03*
X0080619Y0178012D03*
X0080619Y0169012D03*
X0080619Y0160012D03*
X0080619Y0151012D03*
X0080619Y0142012D03*
X0080619Y0133012D03*
X0080619Y0124012D03*
X0080619Y0115012D03*
X0080619Y0106012D03*
X0080619Y0097012D03*
X0080619Y0088012D03*
X0080619Y0079012D03*
X0080619Y0070012D03*
X0080619Y0061012D03*
X0070619Y0065512D03*
X0070619Y0074512D03*
X0070619Y0083512D03*
X0070619Y0092512D03*
X0070619Y0101512D03*
X0070619Y0110512D03*
X0070619Y0119512D03*
X0070619Y0128512D03*
X0070619Y0137512D03*
X0070619Y0146512D03*
X0070619Y0155512D03*
X0070619Y0164512D03*
X0070619Y0173512D03*
X0070619Y0182512D03*
X0070619Y0191512D03*
X0060619Y0187012D03*
X0060619Y0178012D03*
X0060619Y0169012D03*
X0060619Y0160012D03*
X0060619Y0151012D03*
X0060619Y0142012D03*
X0060619Y0133012D03*
X0060619Y0124012D03*
X0060619Y0115012D03*
X0060619Y0106012D03*
X0060619Y0097012D03*
X0060619Y0088012D03*
X0060619Y0079012D03*
X0060619Y0070012D03*
D13*
X0134595Y0009976D03*
X0159595Y0012929D03*
X0213611Y0009976D03*
X0172587Y0239071D03*
X0150619Y0242024D03*
X0213611Y0242024D03*
D14*
X0070619Y0218598D03*
X0070619Y0033402D03*
D15*
X0121119Y0128500D03*
M02*
