G75*
%MOIN*%
%OFA0B0*%
%FSLAX25Y25*%
%IPPOS*%
%LPD*%
%AMOC8*
5,1,8,0,0,1.08239X$1,22.5*
%
%ADD10C,0.00000*%
%ADD11C,0.00800*%
%ADD12C,0.00500*%
%ADD13C,0.00600*%
%ADD14C,0.00400*%
%ADD15R,0.24016X0.01575*%
%ADD16R,0.14173X0.01575*%
%ADD17R,0.12205X0.01575*%
D10*
X0030619Y0001000D02*
X0030619Y0249701D01*
X0235540Y0249701D01*
X0235540Y0001000D01*
X0030619Y0001000D01*
X0064713Y0033402D02*
X0064715Y0033555D01*
X0064721Y0033709D01*
X0064731Y0033862D01*
X0064745Y0034014D01*
X0064763Y0034167D01*
X0064785Y0034318D01*
X0064810Y0034469D01*
X0064840Y0034620D01*
X0064874Y0034770D01*
X0064911Y0034918D01*
X0064952Y0035066D01*
X0064997Y0035212D01*
X0065046Y0035358D01*
X0065099Y0035502D01*
X0065155Y0035644D01*
X0065215Y0035785D01*
X0065279Y0035925D01*
X0065346Y0036063D01*
X0065417Y0036199D01*
X0065492Y0036333D01*
X0065569Y0036465D01*
X0065651Y0036595D01*
X0065735Y0036723D01*
X0065823Y0036849D01*
X0065914Y0036972D01*
X0066008Y0037093D01*
X0066106Y0037211D01*
X0066206Y0037327D01*
X0066310Y0037440D01*
X0066416Y0037551D01*
X0066525Y0037659D01*
X0066637Y0037764D01*
X0066751Y0037865D01*
X0066869Y0037964D01*
X0066988Y0038060D01*
X0067110Y0038153D01*
X0067235Y0038242D01*
X0067362Y0038329D01*
X0067491Y0038411D01*
X0067622Y0038491D01*
X0067755Y0038567D01*
X0067890Y0038640D01*
X0068027Y0038709D01*
X0068166Y0038774D01*
X0068306Y0038836D01*
X0068448Y0038894D01*
X0068591Y0038949D01*
X0068736Y0039000D01*
X0068882Y0039047D01*
X0069029Y0039090D01*
X0069177Y0039129D01*
X0069326Y0039165D01*
X0069476Y0039196D01*
X0069627Y0039224D01*
X0069778Y0039248D01*
X0069931Y0039268D01*
X0070083Y0039284D01*
X0070236Y0039296D01*
X0070389Y0039304D01*
X0070542Y0039308D01*
X0070696Y0039308D01*
X0070849Y0039304D01*
X0071002Y0039296D01*
X0071155Y0039284D01*
X0071307Y0039268D01*
X0071460Y0039248D01*
X0071611Y0039224D01*
X0071762Y0039196D01*
X0071912Y0039165D01*
X0072061Y0039129D01*
X0072209Y0039090D01*
X0072356Y0039047D01*
X0072502Y0039000D01*
X0072647Y0038949D01*
X0072790Y0038894D01*
X0072932Y0038836D01*
X0073072Y0038774D01*
X0073211Y0038709D01*
X0073348Y0038640D01*
X0073483Y0038567D01*
X0073616Y0038491D01*
X0073747Y0038411D01*
X0073876Y0038329D01*
X0074003Y0038242D01*
X0074128Y0038153D01*
X0074250Y0038060D01*
X0074369Y0037964D01*
X0074487Y0037865D01*
X0074601Y0037764D01*
X0074713Y0037659D01*
X0074822Y0037551D01*
X0074928Y0037440D01*
X0075032Y0037327D01*
X0075132Y0037211D01*
X0075230Y0037093D01*
X0075324Y0036972D01*
X0075415Y0036849D01*
X0075503Y0036723D01*
X0075587Y0036595D01*
X0075669Y0036465D01*
X0075746Y0036333D01*
X0075821Y0036199D01*
X0075892Y0036063D01*
X0075959Y0035925D01*
X0076023Y0035785D01*
X0076083Y0035644D01*
X0076139Y0035502D01*
X0076192Y0035358D01*
X0076241Y0035212D01*
X0076286Y0035066D01*
X0076327Y0034918D01*
X0076364Y0034770D01*
X0076398Y0034620D01*
X0076428Y0034469D01*
X0076453Y0034318D01*
X0076475Y0034167D01*
X0076493Y0034014D01*
X0076507Y0033862D01*
X0076517Y0033709D01*
X0076523Y0033555D01*
X0076525Y0033402D01*
X0076523Y0033249D01*
X0076517Y0033095D01*
X0076507Y0032942D01*
X0076493Y0032790D01*
X0076475Y0032637D01*
X0076453Y0032486D01*
X0076428Y0032335D01*
X0076398Y0032184D01*
X0076364Y0032034D01*
X0076327Y0031886D01*
X0076286Y0031738D01*
X0076241Y0031592D01*
X0076192Y0031446D01*
X0076139Y0031302D01*
X0076083Y0031160D01*
X0076023Y0031019D01*
X0075959Y0030879D01*
X0075892Y0030741D01*
X0075821Y0030605D01*
X0075746Y0030471D01*
X0075669Y0030339D01*
X0075587Y0030209D01*
X0075503Y0030081D01*
X0075415Y0029955D01*
X0075324Y0029832D01*
X0075230Y0029711D01*
X0075132Y0029593D01*
X0075032Y0029477D01*
X0074928Y0029364D01*
X0074822Y0029253D01*
X0074713Y0029145D01*
X0074601Y0029040D01*
X0074487Y0028939D01*
X0074369Y0028840D01*
X0074250Y0028744D01*
X0074128Y0028651D01*
X0074003Y0028562D01*
X0073876Y0028475D01*
X0073747Y0028393D01*
X0073616Y0028313D01*
X0073483Y0028237D01*
X0073348Y0028164D01*
X0073211Y0028095D01*
X0073072Y0028030D01*
X0072932Y0027968D01*
X0072790Y0027910D01*
X0072647Y0027855D01*
X0072502Y0027804D01*
X0072356Y0027757D01*
X0072209Y0027714D01*
X0072061Y0027675D01*
X0071912Y0027639D01*
X0071762Y0027608D01*
X0071611Y0027580D01*
X0071460Y0027556D01*
X0071307Y0027536D01*
X0071155Y0027520D01*
X0071002Y0027508D01*
X0070849Y0027500D01*
X0070696Y0027496D01*
X0070542Y0027496D01*
X0070389Y0027500D01*
X0070236Y0027508D01*
X0070083Y0027520D01*
X0069931Y0027536D01*
X0069778Y0027556D01*
X0069627Y0027580D01*
X0069476Y0027608D01*
X0069326Y0027639D01*
X0069177Y0027675D01*
X0069029Y0027714D01*
X0068882Y0027757D01*
X0068736Y0027804D01*
X0068591Y0027855D01*
X0068448Y0027910D01*
X0068306Y0027968D01*
X0068166Y0028030D01*
X0068027Y0028095D01*
X0067890Y0028164D01*
X0067755Y0028237D01*
X0067622Y0028313D01*
X0067491Y0028393D01*
X0067362Y0028475D01*
X0067235Y0028562D01*
X0067110Y0028651D01*
X0066988Y0028744D01*
X0066869Y0028840D01*
X0066751Y0028939D01*
X0066637Y0029040D01*
X0066525Y0029145D01*
X0066416Y0029253D01*
X0066310Y0029364D01*
X0066206Y0029477D01*
X0066106Y0029593D01*
X0066008Y0029711D01*
X0065914Y0029832D01*
X0065823Y0029955D01*
X0065735Y0030081D01*
X0065651Y0030209D01*
X0065569Y0030339D01*
X0065492Y0030471D01*
X0065417Y0030605D01*
X0065346Y0030741D01*
X0065279Y0030879D01*
X0065215Y0031019D01*
X0065155Y0031160D01*
X0065099Y0031302D01*
X0065046Y0031446D01*
X0064997Y0031592D01*
X0064952Y0031738D01*
X0064911Y0031886D01*
X0064874Y0032034D01*
X0064840Y0032184D01*
X0064810Y0032335D01*
X0064785Y0032486D01*
X0064763Y0032637D01*
X0064745Y0032790D01*
X0064731Y0032942D01*
X0064721Y0033095D01*
X0064715Y0033249D01*
X0064713Y0033402D01*
X0189320Y0021000D02*
X0189322Y0021158D01*
X0189328Y0021316D01*
X0189338Y0021474D01*
X0189352Y0021632D01*
X0189370Y0021789D01*
X0189391Y0021946D01*
X0189417Y0022102D01*
X0189447Y0022258D01*
X0189480Y0022413D01*
X0189518Y0022566D01*
X0189559Y0022719D01*
X0189604Y0022871D01*
X0189653Y0023022D01*
X0189706Y0023171D01*
X0189762Y0023319D01*
X0189822Y0023465D01*
X0189886Y0023610D01*
X0189954Y0023753D01*
X0190025Y0023895D01*
X0190099Y0024035D01*
X0190177Y0024172D01*
X0190259Y0024308D01*
X0190343Y0024442D01*
X0190432Y0024573D01*
X0190523Y0024702D01*
X0190618Y0024829D01*
X0190715Y0024954D01*
X0190816Y0025076D01*
X0190920Y0025195D01*
X0191027Y0025312D01*
X0191137Y0025426D01*
X0191250Y0025537D01*
X0191365Y0025646D01*
X0191483Y0025751D01*
X0191604Y0025853D01*
X0191727Y0025953D01*
X0191853Y0026049D01*
X0191981Y0026142D01*
X0192111Y0026232D01*
X0192244Y0026318D01*
X0192379Y0026402D01*
X0192515Y0026481D01*
X0192654Y0026558D01*
X0192795Y0026630D01*
X0192937Y0026700D01*
X0193081Y0026765D01*
X0193227Y0026827D01*
X0193374Y0026885D01*
X0193523Y0026940D01*
X0193673Y0026991D01*
X0193824Y0027038D01*
X0193976Y0027081D01*
X0194129Y0027120D01*
X0194284Y0027156D01*
X0194439Y0027187D01*
X0194595Y0027215D01*
X0194751Y0027239D01*
X0194908Y0027259D01*
X0195066Y0027275D01*
X0195223Y0027287D01*
X0195382Y0027295D01*
X0195540Y0027299D01*
X0195698Y0027299D01*
X0195856Y0027295D01*
X0196015Y0027287D01*
X0196172Y0027275D01*
X0196330Y0027259D01*
X0196487Y0027239D01*
X0196643Y0027215D01*
X0196799Y0027187D01*
X0196954Y0027156D01*
X0197109Y0027120D01*
X0197262Y0027081D01*
X0197414Y0027038D01*
X0197565Y0026991D01*
X0197715Y0026940D01*
X0197864Y0026885D01*
X0198011Y0026827D01*
X0198157Y0026765D01*
X0198301Y0026700D01*
X0198443Y0026630D01*
X0198584Y0026558D01*
X0198723Y0026481D01*
X0198859Y0026402D01*
X0198994Y0026318D01*
X0199127Y0026232D01*
X0199257Y0026142D01*
X0199385Y0026049D01*
X0199511Y0025953D01*
X0199634Y0025853D01*
X0199755Y0025751D01*
X0199873Y0025646D01*
X0199988Y0025537D01*
X0200101Y0025426D01*
X0200211Y0025312D01*
X0200318Y0025195D01*
X0200422Y0025076D01*
X0200523Y0024954D01*
X0200620Y0024829D01*
X0200715Y0024702D01*
X0200806Y0024573D01*
X0200895Y0024442D01*
X0200979Y0024308D01*
X0201061Y0024172D01*
X0201139Y0024035D01*
X0201213Y0023895D01*
X0201284Y0023753D01*
X0201352Y0023610D01*
X0201416Y0023465D01*
X0201476Y0023319D01*
X0201532Y0023171D01*
X0201585Y0023022D01*
X0201634Y0022871D01*
X0201679Y0022719D01*
X0201720Y0022566D01*
X0201758Y0022413D01*
X0201791Y0022258D01*
X0201821Y0022102D01*
X0201847Y0021946D01*
X0201868Y0021789D01*
X0201886Y0021632D01*
X0201900Y0021474D01*
X0201910Y0021316D01*
X0201916Y0021158D01*
X0201918Y0021000D01*
X0201916Y0020842D01*
X0201910Y0020684D01*
X0201900Y0020526D01*
X0201886Y0020368D01*
X0201868Y0020211D01*
X0201847Y0020054D01*
X0201821Y0019898D01*
X0201791Y0019742D01*
X0201758Y0019587D01*
X0201720Y0019434D01*
X0201679Y0019281D01*
X0201634Y0019129D01*
X0201585Y0018978D01*
X0201532Y0018829D01*
X0201476Y0018681D01*
X0201416Y0018535D01*
X0201352Y0018390D01*
X0201284Y0018247D01*
X0201213Y0018105D01*
X0201139Y0017965D01*
X0201061Y0017828D01*
X0200979Y0017692D01*
X0200895Y0017558D01*
X0200806Y0017427D01*
X0200715Y0017298D01*
X0200620Y0017171D01*
X0200523Y0017046D01*
X0200422Y0016924D01*
X0200318Y0016805D01*
X0200211Y0016688D01*
X0200101Y0016574D01*
X0199988Y0016463D01*
X0199873Y0016354D01*
X0199755Y0016249D01*
X0199634Y0016147D01*
X0199511Y0016047D01*
X0199385Y0015951D01*
X0199257Y0015858D01*
X0199127Y0015768D01*
X0198994Y0015682D01*
X0198859Y0015598D01*
X0198723Y0015519D01*
X0198584Y0015442D01*
X0198443Y0015370D01*
X0198301Y0015300D01*
X0198157Y0015235D01*
X0198011Y0015173D01*
X0197864Y0015115D01*
X0197715Y0015060D01*
X0197565Y0015009D01*
X0197414Y0014962D01*
X0197262Y0014919D01*
X0197109Y0014880D01*
X0196954Y0014844D01*
X0196799Y0014813D01*
X0196643Y0014785D01*
X0196487Y0014761D01*
X0196330Y0014741D01*
X0196172Y0014725D01*
X0196015Y0014713D01*
X0195856Y0014705D01*
X0195698Y0014701D01*
X0195540Y0014701D01*
X0195382Y0014705D01*
X0195223Y0014713D01*
X0195066Y0014725D01*
X0194908Y0014741D01*
X0194751Y0014761D01*
X0194595Y0014785D01*
X0194439Y0014813D01*
X0194284Y0014844D01*
X0194129Y0014880D01*
X0193976Y0014919D01*
X0193824Y0014962D01*
X0193673Y0015009D01*
X0193523Y0015060D01*
X0193374Y0015115D01*
X0193227Y0015173D01*
X0193081Y0015235D01*
X0192937Y0015300D01*
X0192795Y0015370D01*
X0192654Y0015442D01*
X0192515Y0015519D01*
X0192379Y0015598D01*
X0192244Y0015682D01*
X0192111Y0015768D01*
X0191981Y0015858D01*
X0191853Y0015951D01*
X0191727Y0016047D01*
X0191604Y0016147D01*
X0191483Y0016249D01*
X0191365Y0016354D01*
X0191250Y0016463D01*
X0191137Y0016574D01*
X0191027Y0016688D01*
X0190920Y0016805D01*
X0190816Y0016924D01*
X0190715Y0017046D01*
X0190618Y0017171D01*
X0190523Y0017298D01*
X0190432Y0017427D01*
X0190343Y0017558D01*
X0190259Y0017692D01*
X0190177Y0017828D01*
X0190099Y0017965D01*
X0190025Y0018105D01*
X0189954Y0018247D01*
X0189886Y0018390D01*
X0189822Y0018535D01*
X0189762Y0018681D01*
X0189706Y0018829D01*
X0189653Y0018978D01*
X0189604Y0019129D01*
X0189559Y0019281D01*
X0189518Y0019434D01*
X0189480Y0019587D01*
X0189447Y0019742D01*
X0189417Y0019898D01*
X0189391Y0020054D01*
X0189370Y0020211D01*
X0189352Y0020368D01*
X0189338Y0020526D01*
X0189328Y0020684D01*
X0189322Y0020842D01*
X0189320Y0021000D01*
X0064713Y0218598D02*
X0064715Y0218751D01*
X0064721Y0218905D01*
X0064731Y0219058D01*
X0064745Y0219210D01*
X0064763Y0219363D01*
X0064785Y0219514D01*
X0064810Y0219665D01*
X0064840Y0219816D01*
X0064874Y0219966D01*
X0064911Y0220114D01*
X0064952Y0220262D01*
X0064997Y0220408D01*
X0065046Y0220554D01*
X0065099Y0220698D01*
X0065155Y0220840D01*
X0065215Y0220981D01*
X0065279Y0221121D01*
X0065346Y0221259D01*
X0065417Y0221395D01*
X0065492Y0221529D01*
X0065569Y0221661D01*
X0065651Y0221791D01*
X0065735Y0221919D01*
X0065823Y0222045D01*
X0065914Y0222168D01*
X0066008Y0222289D01*
X0066106Y0222407D01*
X0066206Y0222523D01*
X0066310Y0222636D01*
X0066416Y0222747D01*
X0066525Y0222855D01*
X0066637Y0222960D01*
X0066751Y0223061D01*
X0066869Y0223160D01*
X0066988Y0223256D01*
X0067110Y0223349D01*
X0067235Y0223438D01*
X0067362Y0223525D01*
X0067491Y0223607D01*
X0067622Y0223687D01*
X0067755Y0223763D01*
X0067890Y0223836D01*
X0068027Y0223905D01*
X0068166Y0223970D01*
X0068306Y0224032D01*
X0068448Y0224090D01*
X0068591Y0224145D01*
X0068736Y0224196D01*
X0068882Y0224243D01*
X0069029Y0224286D01*
X0069177Y0224325D01*
X0069326Y0224361D01*
X0069476Y0224392D01*
X0069627Y0224420D01*
X0069778Y0224444D01*
X0069931Y0224464D01*
X0070083Y0224480D01*
X0070236Y0224492D01*
X0070389Y0224500D01*
X0070542Y0224504D01*
X0070696Y0224504D01*
X0070849Y0224500D01*
X0071002Y0224492D01*
X0071155Y0224480D01*
X0071307Y0224464D01*
X0071460Y0224444D01*
X0071611Y0224420D01*
X0071762Y0224392D01*
X0071912Y0224361D01*
X0072061Y0224325D01*
X0072209Y0224286D01*
X0072356Y0224243D01*
X0072502Y0224196D01*
X0072647Y0224145D01*
X0072790Y0224090D01*
X0072932Y0224032D01*
X0073072Y0223970D01*
X0073211Y0223905D01*
X0073348Y0223836D01*
X0073483Y0223763D01*
X0073616Y0223687D01*
X0073747Y0223607D01*
X0073876Y0223525D01*
X0074003Y0223438D01*
X0074128Y0223349D01*
X0074250Y0223256D01*
X0074369Y0223160D01*
X0074487Y0223061D01*
X0074601Y0222960D01*
X0074713Y0222855D01*
X0074822Y0222747D01*
X0074928Y0222636D01*
X0075032Y0222523D01*
X0075132Y0222407D01*
X0075230Y0222289D01*
X0075324Y0222168D01*
X0075415Y0222045D01*
X0075503Y0221919D01*
X0075587Y0221791D01*
X0075669Y0221661D01*
X0075746Y0221529D01*
X0075821Y0221395D01*
X0075892Y0221259D01*
X0075959Y0221121D01*
X0076023Y0220981D01*
X0076083Y0220840D01*
X0076139Y0220698D01*
X0076192Y0220554D01*
X0076241Y0220408D01*
X0076286Y0220262D01*
X0076327Y0220114D01*
X0076364Y0219966D01*
X0076398Y0219816D01*
X0076428Y0219665D01*
X0076453Y0219514D01*
X0076475Y0219363D01*
X0076493Y0219210D01*
X0076507Y0219058D01*
X0076517Y0218905D01*
X0076523Y0218751D01*
X0076525Y0218598D01*
X0076523Y0218445D01*
X0076517Y0218291D01*
X0076507Y0218138D01*
X0076493Y0217986D01*
X0076475Y0217833D01*
X0076453Y0217682D01*
X0076428Y0217531D01*
X0076398Y0217380D01*
X0076364Y0217230D01*
X0076327Y0217082D01*
X0076286Y0216934D01*
X0076241Y0216788D01*
X0076192Y0216642D01*
X0076139Y0216498D01*
X0076083Y0216356D01*
X0076023Y0216215D01*
X0075959Y0216075D01*
X0075892Y0215937D01*
X0075821Y0215801D01*
X0075746Y0215667D01*
X0075669Y0215535D01*
X0075587Y0215405D01*
X0075503Y0215277D01*
X0075415Y0215151D01*
X0075324Y0215028D01*
X0075230Y0214907D01*
X0075132Y0214789D01*
X0075032Y0214673D01*
X0074928Y0214560D01*
X0074822Y0214449D01*
X0074713Y0214341D01*
X0074601Y0214236D01*
X0074487Y0214135D01*
X0074369Y0214036D01*
X0074250Y0213940D01*
X0074128Y0213847D01*
X0074003Y0213758D01*
X0073876Y0213671D01*
X0073747Y0213589D01*
X0073616Y0213509D01*
X0073483Y0213433D01*
X0073348Y0213360D01*
X0073211Y0213291D01*
X0073072Y0213226D01*
X0072932Y0213164D01*
X0072790Y0213106D01*
X0072647Y0213051D01*
X0072502Y0213000D01*
X0072356Y0212953D01*
X0072209Y0212910D01*
X0072061Y0212871D01*
X0071912Y0212835D01*
X0071762Y0212804D01*
X0071611Y0212776D01*
X0071460Y0212752D01*
X0071307Y0212732D01*
X0071155Y0212716D01*
X0071002Y0212704D01*
X0070849Y0212696D01*
X0070696Y0212692D01*
X0070542Y0212692D01*
X0070389Y0212696D01*
X0070236Y0212704D01*
X0070083Y0212716D01*
X0069931Y0212732D01*
X0069778Y0212752D01*
X0069627Y0212776D01*
X0069476Y0212804D01*
X0069326Y0212835D01*
X0069177Y0212871D01*
X0069029Y0212910D01*
X0068882Y0212953D01*
X0068736Y0213000D01*
X0068591Y0213051D01*
X0068448Y0213106D01*
X0068306Y0213164D01*
X0068166Y0213226D01*
X0068027Y0213291D01*
X0067890Y0213360D01*
X0067755Y0213433D01*
X0067622Y0213509D01*
X0067491Y0213589D01*
X0067362Y0213671D01*
X0067235Y0213758D01*
X0067110Y0213847D01*
X0066988Y0213940D01*
X0066869Y0214036D01*
X0066751Y0214135D01*
X0066637Y0214236D01*
X0066525Y0214341D01*
X0066416Y0214449D01*
X0066310Y0214560D01*
X0066206Y0214673D01*
X0066106Y0214789D01*
X0066008Y0214907D01*
X0065914Y0215028D01*
X0065823Y0215151D01*
X0065735Y0215277D01*
X0065651Y0215405D01*
X0065569Y0215535D01*
X0065492Y0215667D01*
X0065417Y0215801D01*
X0065346Y0215937D01*
X0065279Y0216075D01*
X0065215Y0216215D01*
X0065155Y0216356D01*
X0065099Y0216498D01*
X0065046Y0216642D01*
X0064997Y0216788D01*
X0064952Y0216934D01*
X0064911Y0217082D01*
X0064874Y0217230D01*
X0064840Y0217380D01*
X0064810Y0217531D01*
X0064785Y0217682D01*
X0064763Y0217833D01*
X0064745Y0217986D01*
X0064731Y0218138D01*
X0064721Y0218291D01*
X0064715Y0218445D01*
X0064713Y0218598D01*
X0189320Y0231000D02*
X0189322Y0231158D01*
X0189328Y0231316D01*
X0189338Y0231474D01*
X0189352Y0231632D01*
X0189370Y0231789D01*
X0189391Y0231946D01*
X0189417Y0232102D01*
X0189447Y0232258D01*
X0189480Y0232413D01*
X0189518Y0232566D01*
X0189559Y0232719D01*
X0189604Y0232871D01*
X0189653Y0233022D01*
X0189706Y0233171D01*
X0189762Y0233319D01*
X0189822Y0233465D01*
X0189886Y0233610D01*
X0189954Y0233753D01*
X0190025Y0233895D01*
X0190099Y0234035D01*
X0190177Y0234172D01*
X0190259Y0234308D01*
X0190343Y0234442D01*
X0190432Y0234573D01*
X0190523Y0234702D01*
X0190618Y0234829D01*
X0190715Y0234954D01*
X0190816Y0235076D01*
X0190920Y0235195D01*
X0191027Y0235312D01*
X0191137Y0235426D01*
X0191250Y0235537D01*
X0191365Y0235646D01*
X0191483Y0235751D01*
X0191604Y0235853D01*
X0191727Y0235953D01*
X0191853Y0236049D01*
X0191981Y0236142D01*
X0192111Y0236232D01*
X0192244Y0236318D01*
X0192379Y0236402D01*
X0192515Y0236481D01*
X0192654Y0236558D01*
X0192795Y0236630D01*
X0192937Y0236700D01*
X0193081Y0236765D01*
X0193227Y0236827D01*
X0193374Y0236885D01*
X0193523Y0236940D01*
X0193673Y0236991D01*
X0193824Y0237038D01*
X0193976Y0237081D01*
X0194129Y0237120D01*
X0194284Y0237156D01*
X0194439Y0237187D01*
X0194595Y0237215D01*
X0194751Y0237239D01*
X0194908Y0237259D01*
X0195066Y0237275D01*
X0195223Y0237287D01*
X0195382Y0237295D01*
X0195540Y0237299D01*
X0195698Y0237299D01*
X0195856Y0237295D01*
X0196015Y0237287D01*
X0196172Y0237275D01*
X0196330Y0237259D01*
X0196487Y0237239D01*
X0196643Y0237215D01*
X0196799Y0237187D01*
X0196954Y0237156D01*
X0197109Y0237120D01*
X0197262Y0237081D01*
X0197414Y0237038D01*
X0197565Y0236991D01*
X0197715Y0236940D01*
X0197864Y0236885D01*
X0198011Y0236827D01*
X0198157Y0236765D01*
X0198301Y0236700D01*
X0198443Y0236630D01*
X0198584Y0236558D01*
X0198723Y0236481D01*
X0198859Y0236402D01*
X0198994Y0236318D01*
X0199127Y0236232D01*
X0199257Y0236142D01*
X0199385Y0236049D01*
X0199511Y0235953D01*
X0199634Y0235853D01*
X0199755Y0235751D01*
X0199873Y0235646D01*
X0199988Y0235537D01*
X0200101Y0235426D01*
X0200211Y0235312D01*
X0200318Y0235195D01*
X0200422Y0235076D01*
X0200523Y0234954D01*
X0200620Y0234829D01*
X0200715Y0234702D01*
X0200806Y0234573D01*
X0200895Y0234442D01*
X0200979Y0234308D01*
X0201061Y0234172D01*
X0201139Y0234035D01*
X0201213Y0233895D01*
X0201284Y0233753D01*
X0201352Y0233610D01*
X0201416Y0233465D01*
X0201476Y0233319D01*
X0201532Y0233171D01*
X0201585Y0233022D01*
X0201634Y0232871D01*
X0201679Y0232719D01*
X0201720Y0232566D01*
X0201758Y0232413D01*
X0201791Y0232258D01*
X0201821Y0232102D01*
X0201847Y0231946D01*
X0201868Y0231789D01*
X0201886Y0231632D01*
X0201900Y0231474D01*
X0201910Y0231316D01*
X0201916Y0231158D01*
X0201918Y0231000D01*
X0201916Y0230842D01*
X0201910Y0230684D01*
X0201900Y0230526D01*
X0201886Y0230368D01*
X0201868Y0230211D01*
X0201847Y0230054D01*
X0201821Y0229898D01*
X0201791Y0229742D01*
X0201758Y0229587D01*
X0201720Y0229434D01*
X0201679Y0229281D01*
X0201634Y0229129D01*
X0201585Y0228978D01*
X0201532Y0228829D01*
X0201476Y0228681D01*
X0201416Y0228535D01*
X0201352Y0228390D01*
X0201284Y0228247D01*
X0201213Y0228105D01*
X0201139Y0227965D01*
X0201061Y0227828D01*
X0200979Y0227692D01*
X0200895Y0227558D01*
X0200806Y0227427D01*
X0200715Y0227298D01*
X0200620Y0227171D01*
X0200523Y0227046D01*
X0200422Y0226924D01*
X0200318Y0226805D01*
X0200211Y0226688D01*
X0200101Y0226574D01*
X0199988Y0226463D01*
X0199873Y0226354D01*
X0199755Y0226249D01*
X0199634Y0226147D01*
X0199511Y0226047D01*
X0199385Y0225951D01*
X0199257Y0225858D01*
X0199127Y0225768D01*
X0198994Y0225682D01*
X0198859Y0225598D01*
X0198723Y0225519D01*
X0198584Y0225442D01*
X0198443Y0225370D01*
X0198301Y0225300D01*
X0198157Y0225235D01*
X0198011Y0225173D01*
X0197864Y0225115D01*
X0197715Y0225060D01*
X0197565Y0225009D01*
X0197414Y0224962D01*
X0197262Y0224919D01*
X0197109Y0224880D01*
X0196954Y0224844D01*
X0196799Y0224813D01*
X0196643Y0224785D01*
X0196487Y0224761D01*
X0196330Y0224741D01*
X0196172Y0224725D01*
X0196015Y0224713D01*
X0195856Y0224705D01*
X0195698Y0224701D01*
X0195540Y0224701D01*
X0195382Y0224705D01*
X0195223Y0224713D01*
X0195066Y0224725D01*
X0194908Y0224741D01*
X0194751Y0224761D01*
X0194595Y0224785D01*
X0194439Y0224813D01*
X0194284Y0224844D01*
X0194129Y0224880D01*
X0193976Y0224919D01*
X0193824Y0224962D01*
X0193673Y0225009D01*
X0193523Y0225060D01*
X0193374Y0225115D01*
X0193227Y0225173D01*
X0193081Y0225235D01*
X0192937Y0225300D01*
X0192795Y0225370D01*
X0192654Y0225442D01*
X0192515Y0225519D01*
X0192379Y0225598D01*
X0192244Y0225682D01*
X0192111Y0225768D01*
X0191981Y0225858D01*
X0191853Y0225951D01*
X0191727Y0226047D01*
X0191604Y0226147D01*
X0191483Y0226249D01*
X0191365Y0226354D01*
X0191250Y0226463D01*
X0191137Y0226574D01*
X0191027Y0226688D01*
X0190920Y0226805D01*
X0190816Y0226924D01*
X0190715Y0227046D01*
X0190618Y0227171D01*
X0190523Y0227298D01*
X0190432Y0227427D01*
X0190343Y0227558D01*
X0190259Y0227692D01*
X0190177Y0227828D01*
X0190099Y0227965D01*
X0190025Y0228105D01*
X0189954Y0228247D01*
X0189886Y0228390D01*
X0189822Y0228535D01*
X0189762Y0228681D01*
X0189706Y0228829D01*
X0189653Y0228978D01*
X0189604Y0229129D01*
X0189559Y0229281D01*
X0189518Y0229434D01*
X0189480Y0229587D01*
X0189447Y0229742D01*
X0189417Y0229898D01*
X0189391Y0230054D01*
X0189370Y0230211D01*
X0189352Y0230368D01*
X0189338Y0230526D01*
X0189328Y0230684D01*
X0189322Y0230842D01*
X0189320Y0231000D01*
D11*
X0110219Y0203531D02*
X0106082Y0203531D01*
X0104014Y0201462D01*
X0106082Y0199394D01*
X0110219Y0199394D01*
X0109185Y0197085D02*
X0110219Y0196051D01*
X0110219Y0193982D01*
X0109185Y0192948D01*
X0107116Y0193982D02*
X0107116Y0196051D01*
X0108150Y0197085D01*
X0109185Y0197085D01*
X0107116Y0199394D02*
X0107116Y0203531D01*
X0105048Y0197085D02*
X0104014Y0196051D01*
X0104014Y0193982D01*
X0105048Y0192948D01*
X0106082Y0192948D01*
X0107116Y0193982D01*
X0107116Y0190640D02*
X0107116Y0186503D01*
X0105048Y0184194D02*
X0104014Y0184194D01*
X0105048Y0184194D02*
X0107116Y0182126D01*
X0110219Y0182126D01*
X0107116Y0182126D02*
X0105048Y0180057D01*
X0104014Y0180057D01*
X0105048Y0177749D02*
X0106082Y0177749D01*
X0107116Y0176714D01*
X0107116Y0173612D01*
X0107116Y0171303D02*
X0107116Y0167166D01*
X0105048Y0164858D02*
X0104014Y0163823D01*
X0104014Y0161755D01*
X0105048Y0160721D01*
X0109185Y0160721D01*
X0110219Y0161755D01*
X0110219Y0163823D01*
X0109185Y0164858D01*
X0109185Y0158412D02*
X0110219Y0157378D01*
X0110219Y0155309D01*
X0109185Y0154275D01*
X0105048Y0154275D01*
X0104014Y0155309D01*
X0104014Y0157378D01*
X0105048Y0158412D01*
X0104014Y0145521D02*
X0110219Y0141384D01*
X0108150Y0132630D02*
X0107116Y0132630D01*
X0106082Y0131596D01*
X0106082Y0129527D01*
X0107116Y0128493D01*
X0109185Y0128493D01*
X0110219Y0129527D01*
X0110219Y0131596D01*
X0108150Y0132630D02*
X0108150Y0128493D01*
X0106082Y0126265D02*
X0106082Y0124196D01*
X0105048Y0125230D02*
X0109185Y0125230D01*
X0110219Y0126265D01*
X0110219Y0121968D02*
X0110219Y0119899D01*
X0110219Y0120933D02*
X0104014Y0120933D01*
X0104014Y0119899D01*
X0107116Y0117591D02*
X0108150Y0117591D01*
X0108150Y0113454D01*
X0107116Y0113454D02*
X0109185Y0113454D01*
X0110219Y0114488D01*
X0110219Y0116556D01*
X0107116Y0117591D02*
X0106082Y0116556D01*
X0106082Y0114488D01*
X0107116Y0113454D01*
X0110219Y0111145D02*
X0104014Y0111145D01*
X0104014Y0107008D02*
X0110219Y0107008D01*
X0108150Y0109077D01*
X0110219Y0111145D01*
X0100219Y0108002D02*
X0099185Y0106968D01*
X0095048Y0106968D01*
X0096082Y0105934D02*
X0096082Y0108002D01*
X0096082Y0103625D02*
X0100219Y0103625D01*
X0100219Y0100523D01*
X0099185Y0099488D01*
X0096082Y0099488D01*
X0097116Y0097180D02*
X0096082Y0096146D01*
X0096082Y0094077D01*
X0097116Y0093043D01*
X0099185Y0093043D01*
X0100219Y0094077D01*
X0100219Y0096146D01*
X0099185Y0097180D01*
X0097116Y0097180D01*
X0096082Y0090774D02*
X0098150Y0087672D01*
X0100219Y0090774D01*
X0100219Y0087672D02*
X0094014Y0087672D01*
X0097116Y0085363D02*
X0096082Y0084329D01*
X0096082Y0082260D01*
X0098150Y0082260D02*
X0098150Y0085363D01*
X0097116Y0085363D02*
X0100219Y0085363D01*
X0100219Y0082260D01*
X0099185Y0081226D01*
X0098150Y0082260D01*
X0098150Y0078918D02*
X0097116Y0078918D01*
X0096082Y0077883D01*
X0096082Y0075815D01*
X0097116Y0074781D01*
X0099185Y0074781D01*
X0100219Y0075815D01*
X0100219Y0077883D01*
X0098150Y0078918D02*
X0098150Y0074781D01*
X0096082Y0072512D02*
X0096082Y0071478D01*
X0098150Y0069409D01*
X0096082Y0069409D02*
X0100219Y0069409D01*
X0099185Y0067101D02*
X0097116Y0067101D01*
X0096082Y0066067D01*
X0096082Y0062964D01*
X0094014Y0062964D02*
X0100219Y0062964D01*
X0100219Y0066067D01*
X0099185Y0067101D01*
X0104014Y0065112D02*
X0110219Y0065112D01*
X0107116Y0065112D02*
X0107116Y0069249D01*
X0109185Y0071558D02*
X0108150Y0072592D01*
X0108150Y0075695D01*
X0107116Y0075695D02*
X0106082Y0074661D01*
X0106082Y0072592D01*
X0109185Y0071558D02*
X0110219Y0072592D01*
X0110219Y0075695D01*
X0107116Y0075695D01*
X0106082Y0078003D02*
X0110219Y0078003D01*
X0108150Y0078003D02*
X0106082Y0080072D01*
X0106082Y0081106D01*
X0106082Y0084409D02*
X0106082Y0086477D01*
X0107116Y0087512D01*
X0110219Y0087512D01*
X0110219Y0084409D01*
X0109185Y0083375D01*
X0108150Y0084409D01*
X0108150Y0087512D01*
X0110219Y0089820D02*
X0110219Y0091889D01*
X0110219Y0090854D02*
X0104014Y0090854D01*
X0104014Y0089820D01*
X0107116Y0094117D02*
X0106082Y0095151D01*
X0106082Y0098254D01*
X0104014Y0098254D02*
X0110219Y0098254D01*
X0110219Y0095151D01*
X0109185Y0094117D01*
X0107116Y0094117D01*
X0104014Y0069249D02*
X0110219Y0069249D01*
X0107116Y0056358D02*
X0107116Y0052221D01*
X0104014Y0055324D01*
X0110219Y0055324D01*
X0110219Y0049913D02*
X0110219Y0045776D01*
X0106082Y0049913D01*
X0105048Y0049913D01*
X0104014Y0048879D01*
X0104014Y0046810D01*
X0105048Y0045776D01*
X0105048Y0043467D02*
X0109185Y0039330D01*
X0110219Y0040365D01*
X0110219Y0042433D01*
X0109185Y0043467D01*
X0105048Y0043467D01*
X0104014Y0042433D01*
X0104014Y0040365D01*
X0105048Y0039330D01*
X0109185Y0039330D01*
X0110219Y0037022D02*
X0110219Y0032885D01*
X0106082Y0037022D01*
X0105048Y0037022D01*
X0104014Y0035988D01*
X0104014Y0033919D01*
X0105048Y0032885D01*
X0100219Y0037182D02*
X0100219Y0041319D01*
X0100219Y0039250D02*
X0094014Y0039250D01*
X0096082Y0037182D01*
X0097116Y0034873D02*
X0097116Y0030736D01*
X0095048Y0028428D02*
X0094014Y0027394D01*
X0094014Y0024291D01*
X0100219Y0024291D01*
X0100219Y0027394D01*
X0099185Y0028428D01*
X0095048Y0028428D01*
X0095048Y0021982D02*
X0094014Y0020948D01*
X0094014Y0018880D01*
X0095048Y0017845D01*
X0099185Y0017845D01*
X0100219Y0018880D01*
X0100219Y0020948D01*
X0099185Y0021982D01*
X0104014Y0022142D02*
X0106082Y0024211D01*
X0108150Y0024211D01*
X0110219Y0022142D01*
X0109185Y0019834D02*
X0110219Y0018800D01*
X0110219Y0016731D01*
X0109185Y0015697D01*
X0105048Y0015697D01*
X0104014Y0016731D01*
X0104014Y0018800D01*
X0105048Y0019834D01*
X0104014Y0013468D02*
X0106082Y0011400D01*
X0108150Y0011400D01*
X0110219Y0013468D01*
X0100219Y0011400D02*
X0094014Y0011400D01*
X0094014Y0015537D01*
X0097116Y0013468D02*
X0097116Y0011400D01*
X0097116Y0043627D02*
X0094014Y0043627D01*
X0094014Y0047764D01*
X0094014Y0050073D02*
X0097116Y0050073D01*
X0096082Y0052141D01*
X0096082Y0053176D01*
X0097116Y0054210D01*
X0099185Y0054210D01*
X0100219Y0053176D01*
X0100219Y0051107D01*
X0099185Y0050073D01*
X0099185Y0047764D02*
X0100219Y0046730D01*
X0100219Y0044662D01*
X0099185Y0043627D01*
X0097116Y0043627D02*
X0096082Y0045696D01*
X0096082Y0046730D01*
X0097116Y0047764D01*
X0099185Y0047764D01*
X0094014Y0050073D02*
X0094014Y0054210D01*
X0104014Y0173612D02*
X0104014Y0176714D01*
X0105048Y0177749D01*
X0107116Y0176714D02*
X0108150Y0177749D01*
X0109185Y0177749D01*
X0110219Y0176714D01*
X0110219Y0173612D01*
X0104014Y0173612D01*
X0046601Y0236400D02*
X0042464Y0236400D01*
X0046601Y0240537D01*
X0046601Y0241571D01*
X0045567Y0242605D01*
X0043499Y0242605D01*
X0042464Y0241571D01*
X0040156Y0242605D02*
X0036019Y0236400D01*
X0040156Y0236400D02*
X0036019Y0242605D01*
D12*
X0068247Y0201605D02*
X0068998Y0200104D01*
X0070499Y0198603D01*
X0070499Y0200855D01*
X0071250Y0201605D01*
X0072000Y0201605D01*
X0072751Y0200855D01*
X0072751Y0199353D01*
X0072000Y0198603D01*
X0070499Y0198603D01*
X0072751Y0197001D02*
X0072751Y0193999D01*
X0072751Y0195500D02*
X0068247Y0195500D01*
X0069748Y0193999D01*
X0062515Y0194282D02*
X0062515Y0192781D01*
X0061764Y0192030D01*
X0060263Y0193532D02*
X0060263Y0194282D01*
X0061013Y0195033D01*
X0061764Y0195033D01*
X0062515Y0194282D01*
X0060263Y0194282D02*
X0059512Y0195033D01*
X0058761Y0195033D01*
X0058011Y0194282D01*
X0058011Y0192781D01*
X0058761Y0192030D01*
X0059512Y0196634D02*
X0058011Y0198136D01*
X0062515Y0198136D01*
X0062515Y0199637D02*
X0062515Y0196634D01*
X0078326Y0190998D02*
X0082830Y0190998D01*
X0082830Y0192499D02*
X0082830Y0189496D01*
X0079827Y0189496D02*
X0078326Y0190998D01*
X0126918Y0242535D02*
X0237942Y0242535D01*
X0237942Y0009465D01*
X0126918Y0009465D01*
X0126918Y0242535D01*
X0082473Y0055184D02*
X0080971Y0055184D01*
X0080221Y0054433D01*
X0080221Y0053683D01*
X0080971Y0052181D01*
X0078719Y0052181D01*
X0078719Y0055184D01*
X0082473Y0055184D02*
X0083223Y0054433D01*
X0083223Y0052932D01*
X0082473Y0052181D01*
X0083223Y0050580D02*
X0083223Y0047578D01*
X0083223Y0049079D02*
X0078719Y0049079D01*
X0080221Y0047578D01*
X0072751Y0050517D02*
X0072000Y0049767D01*
X0072751Y0050517D02*
X0072751Y0052018D01*
X0072000Y0052769D01*
X0071250Y0052769D01*
X0070499Y0052018D01*
X0070499Y0051268D01*
X0070499Y0052018D02*
X0069748Y0052769D01*
X0068998Y0052769D01*
X0068247Y0052018D01*
X0068247Y0050517D01*
X0068998Y0049767D01*
X0068998Y0054370D02*
X0068247Y0055121D01*
X0068247Y0056622D01*
X0068998Y0057373D01*
X0072000Y0054370D01*
X0072751Y0055121D01*
X0072751Y0056622D01*
X0072000Y0057373D01*
X0068998Y0057373D01*
X0068998Y0054370D02*
X0072000Y0054370D01*
X0062515Y0056422D02*
X0058011Y0056422D01*
X0060263Y0054170D01*
X0060263Y0057172D01*
X0060263Y0052568D02*
X0060263Y0049566D01*
X0058011Y0051818D01*
X0062515Y0051818D01*
D13*
X0085619Y0021614D02*
X0026225Y0021614D01*
X0026131Y0021787D02*
X0026131Y0230213D01*
X0026225Y0230386D02*
X0040619Y0230386D01*
X0040619Y0021961D01*
X0040619Y0045114D02*
X0086119Y0045114D01*
X0088119Y0043114D01*
X0088119Y0024114D01*
X0085619Y0021614D01*
X0064119Y0033402D02*
X0064121Y0033563D01*
X0064127Y0033723D01*
X0064137Y0033884D01*
X0064151Y0034044D01*
X0064169Y0034204D01*
X0064190Y0034363D01*
X0064216Y0034522D01*
X0064246Y0034680D01*
X0064279Y0034837D01*
X0064317Y0034994D01*
X0064358Y0035149D01*
X0064403Y0035303D01*
X0064452Y0035456D01*
X0064505Y0035608D01*
X0064561Y0035759D01*
X0064622Y0035908D01*
X0064685Y0036056D01*
X0064753Y0036202D01*
X0064824Y0036346D01*
X0064898Y0036488D01*
X0064976Y0036629D01*
X0065058Y0036767D01*
X0065143Y0036904D01*
X0065231Y0037038D01*
X0065323Y0037170D01*
X0065418Y0037300D01*
X0065516Y0037428D01*
X0065617Y0037553D01*
X0065721Y0037675D01*
X0065828Y0037795D01*
X0065938Y0037912D01*
X0066051Y0038027D01*
X0066167Y0038138D01*
X0066286Y0038247D01*
X0066407Y0038352D01*
X0066531Y0038455D01*
X0066657Y0038555D01*
X0066785Y0038651D01*
X0066916Y0038744D01*
X0067050Y0038834D01*
X0067185Y0038921D01*
X0067323Y0039004D01*
X0067462Y0039084D01*
X0067604Y0039160D01*
X0067747Y0039233D01*
X0067892Y0039302D01*
X0068039Y0039368D01*
X0068187Y0039430D01*
X0068337Y0039488D01*
X0068488Y0039543D01*
X0068641Y0039594D01*
X0068795Y0039641D01*
X0068950Y0039684D01*
X0069106Y0039723D01*
X0069262Y0039759D01*
X0069420Y0039790D01*
X0069578Y0039818D01*
X0069737Y0039842D01*
X0069897Y0039862D01*
X0070057Y0039878D01*
X0070217Y0039890D01*
X0070378Y0039898D01*
X0070539Y0039902D01*
X0070699Y0039902D01*
X0070860Y0039898D01*
X0071021Y0039890D01*
X0071181Y0039878D01*
X0071341Y0039862D01*
X0071501Y0039842D01*
X0071660Y0039818D01*
X0071818Y0039790D01*
X0071976Y0039759D01*
X0072132Y0039723D01*
X0072288Y0039684D01*
X0072443Y0039641D01*
X0072597Y0039594D01*
X0072750Y0039543D01*
X0072901Y0039488D01*
X0073051Y0039430D01*
X0073199Y0039368D01*
X0073346Y0039302D01*
X0073491Y0039233D01*
X0073634Y0039160D01*
X0073776Y0039084D01*
X0073915Y0039004D01*
X0074053Y0038921D01*
X0074188Y0038834D01*
X0074322Y0038744D01*
X0074453Y0038651D01*
X0074581Y0038555D01*
X0074707Y0038455D01*
X0074831Y0038352D01*
X0074952Y0038247D01*
X0075071Y0038138D01*
X0075187Y0038027D01*
X0075300Y0037912D01*
X0075410Y0037795D01*
X0075517Y0037675D01*
X0075621Y0037553D01*
X0075722Y0037428D01*
X0075820Y0037300D01*
X0075915Y0037170D01*
X0076007Y0037038D01*
X0076095Y0036904D01*
X0076180Y0036767D01*
X0076262Y0036629D01*
X0076340Y0036488D01*
X0076414Y0036346D01*
X0076485Y0036202D01*
X0076553Y0036056D01*
X0076616Y0035908D01*
X0076677Y0035759D01*
X0076733Y0035608D01*
X0076786Y0035456D01*
X0076835Y0035303D01*
X0076880Y0035149D01*
X0076921Y0034994D01*
X0076959Y0034837D01*
X0076992Y0034680D01*
X0077022Y0034522D01*
X0077048Y0034363D01*
X0077069Y0034204D01*
X0077087Y0034044D01*
X0077101Y0033884D01*
X0077111Y0033723D01*
X0077117Y0033563D01*
X0077119Y0033402D01*
X0077117Y0033241D01*
X0077111Y0033081D01*
X0077101Y0032920D01*
X0077087Y0032760D01*
X0077069Y0032600D01*
X0077048Y0032441D01*
X0077022Y0032282D01*
X0076992Y0032124D01*
X0076959Y0031967D01*
X0076921Y0031810D01*
X0076880Y0031655D01*
X0076835Y0031501D01*
X0076786Y0031348D01*
X0076733Y0031196D01*
X0076677Y0031045D01*
X0076616Y0030896D01*
X0076553Y0030748D01*
X0076485Y0030602D01*
X0076414Y0030458D01*
X0076340Y0030316D01*
X0076262Y0030175D01*
X0076180Y0030037D01*
X0076095Y0029900D01*
X0076007Y0029766D01*
X0075915Y0029634D01*
X0075820Y0029504D01*
X0075722Y0029376D01*
X0075621Y0029251D01*
X0075517Y0029129D01*
X0075410Y0029009D01*
X0075300Y0028892D01*
X0075187Y0028777D01*
X0075071Y0028666D01*
X0074952Y0028557D01*
X0074831Y0028452D01*
X0074707Y0028349D01*
X0074581Y0028249D01*
X0074453Y0028153D01*
X0074322Y0028060D01*
X0074188Y0027970D01*
X0074053Y0027883D01*
X0073915Y0027800D01*
X0073776Y0027720D01*
X0073634Y0027644D01*
X0073491Y0027571D01*
X0073346Y0027502D01*
X0073199Y0027436D01*
X0073051Y0027374D01*
X0072901Y0027316D01*
X0072750Y0027261D01*
X0072597Y0027210D01*
X0072443Y0027163D01*
X0072288Y0027120D01*
X0072132Y0027081D01*
X0071976Y0027045D01*
X0071818Y0027014D01*
X0071660Y0026986D01*
X0071501Y0026962D01*
X0071341Y0026942D01*
X0071181Y0026926D01*
X0071021Y0026914D01*
X0070860Y0026906D01*
X0070699Y0026902D01*
X0070539Y0026902D01*
X0070378Y0026906D01*
X0070217Y0026914D01*
X0070057Y0026926D01*
X0069897Y0026942D01*
X0069737Y0026962D01*
X0069578Y0026986D01*
X0069420Y0027014D01*
X0069262Y0027045D01*
X0069106Y0027081D01*
X0068950Y0027120D01*
X0068795Y0027163D01*
X0068641Y0027210D01*
X0068488Y0027261D01*
X0068337Y0027316D01*
X0068187Y0027374D01*
X0068039Y0027436D01*
X0067892Y0027502D01*
X0067747Y0027571D01*
X0067604Y0027644D01*
X0067462Y0027720D01*
X0067323Y0027800D01*
X0067185Y0027883D01*
X0067050Y0027970D01*
X0066916Y0028060D01*
X0066785Y0028153D01*
X0066657Y0028249D01*
X0066531Y0028349D01*
X0066407Y0028452D01*
X0066286Y0028557D01*
X0066167Y0028666D01*
X0066051Y0028777D01*
X0065938Y0028892D01*
X0065828Y0029009D01*
X0065721Y0029129D01*
X0065617Y0029251D01*
X0065516Y0029376D01*
X0065418Y0029504D01*
X0065323Y0029634D01*
X0065231Y0029766D01*
X0065143Y0029900D01*
X0065058Y0030037D01*
X0064976Y0030175D01*
X0064898Y0030316D01*
X0064824Y0030458D01*
X0064753Y0030602D01*
X0064685Y0030748D01*
X0064622Y0030896D01*
X0064561Y0031045D01*
X0064505Y0031196D01*
X0064452Y0031348D01*
X0064403Y0031501D01*
X0064358Y0031655D01*
X0064317Y0031810D01*
X0064279Y0031967D01*
X0064246Y0032124D01*
X0064216Y0032282D01*
X0064190Y0032441D01*
X0064169Y0032600D01*
X0064151Y0032760D01*
X0064137Y0032920D01*
X0064127Y0033081D01*
X0064121Y0033241D01*
X0064119Y0033402D01*
X0038119Y0045264D02*
X0029800Y0045264D01*
X0029800Y0206736D01*
X0029800Y0207236D01*
X0026225Y0207236D01*
X0026194Y0203886D02*
X0026192Y0203788D01*
X0026186Y0203690D01*
X0026177Y0203592D01*
X0026163Y0203495D01*
X0026146Y0203398D01*
X0026125Y0203302D01*
X0026100Y0203207D01*
X0026072Y0203113D01*
X0026039Y0203021D01*
X0026004Y0202929D01*
X0025964Y0202839D01*
X0025922Y0202751D01*
X0025875Y0202664D01*
X0025826Y0202580D01*
X0025773Y0202497D01*
X0025717Y0202417D01*
X0025657Y0202338D01*
X0025595Y0202262D01*
X0025530Y0202189D01*
X0025462Y0202118D01*
X0025391Y0202050D01*
X0025318Y0201985D01*
X0025242Y0201923D01*
X0025163Y0201863D01*
X0025083Y0201807D01*
X0025000Y0201754D01*
X0024916Y0201705D01*
X0024829Y0201658D01*
X0024741Y0201616D01*
X0024651Y0201576D01*
X0024559Y0201541D01*
X0024467Y0201508D01*
X0024373Y0201480D01*
X0024278Y0201455D01*
X0024182Y0201434D01*
X0024085Y0201417D01*
X0023988Y0201403D01*
X0023890Y0201394D01*
X0023792Y0201388D01*
X0023694Y0201386D01*
X0003300Y0201386D01*
X0003213Y0201384D01*
X0003126Y0201378D01*
X0003039Y0201369D01*
X0002953Y0201356D01*
X0002867Y0201339D01*
X0002782Y0201318D01*
X0002699Y0201293D01*
X0002616Y0201265D01*
X0002535Y0201234D01*
X0002455Y0201199D01*
X0002377Y0201160D01*
X0002300Y0201118D01*
X0002225Y0201073D01*
X0002153Y0201024D01*
X0002082Y0200973D01*
X0002014Y0200918D01*
X0001949Y0200861D01*
X0001886Y0200800D01*
X0001825Y0200737D01*
X0001768Y0200672D01*
X0001713Y0200604D01*
X0001662Y0200533D01*
X0001613Y0200461D01*
X0001568Y0200386D01*
X0001526Y0200309D01*
X0001487Y0200231D01*
X0001452Y0200151D01*
X0001421Y0200070D01*
X0001393Y0199987D01*
X0001368Y0199904D01*
X0001347Y0199819D01*
X0001330Y0199733D01*
X0001317Y0199647D01*
X0001308Y0199560D01*
X0001302Y0199473D01*
X0001300Y0199386D01*
X0001300Y0052614D01*
X0001302Y0052527D01*
X0001308Y0052440D01*
X0001317Y0052353D01*
X0001330Y0052267D01*
X0001347Y0052181D01*
X0001368Y0052096D01*
X0001393Y0052013D01*
X0001421Y0051930D01*
X0001452Y0051849D01*
X0001487Y0051769D01*
X0001526Y0051691D01*
X0001568Y0051614D01*
X0001613Y0051539D01*
X0001662Y0051467D01*
X0001713Y0051396D01*
X0001768Y0051328D01*
X0001825Y0051263D01*
X0001886Y0051200D01*
X0001949Y0051139D01*
X0002014Y0051082D01*
X0002082Y0051027D01*
X0002153Y0050976D01*
X0002225Y0050927D01*
X0002300Y0050882D01*
X0002377Y0050840D01*
X0002455Y0050801D01*
X0002535Y0050766D01*
X0002616Y0050735D01*
X0002699Y0050707D01*
X0002782Y0050682D01*
X0002867Y0050661D01*
X0002953Y0050644D01*
X0003039Y0050631D01*
X0003126Y0050622D01*
X0003213Y0050616D01*
X0003300Y0050614D01*
X0023694Y0050614D01*
X0023792Y0050612D01*
X0023890Y0050606D01*
X0023988Y0050597D01*
X0024085Y0050583D01*
X0024182Y0050566D01*
X0024278Y0050545D01*
X0024373Y0050520D01*
X0024467Y0050492D01*
X0024559Y0050459D01*
X0024651Y0050424D01*
X0024741Y0050384D01*
X0024829Y0050342D01*
X0024916Y0050295D01*
X0025000Y0050246D01*
X0025083Y0050193D01*
X0025163Y0050137D01*
X0025242Y0050077D01*
X0025318Y0050015D01*
X0025391Y0049950D01*
X0025462Y0049882D01*
X0025530Y0049811D01*
X0025595Y0049738D01*
X0025657Y0049662D01*
X0025717Y0049583D01*
X0025773Y0049503D01*
X0025826Y0049420D01*
X0025875Y0049336D01*
X0025922Y0049249D01*
X0025964Y0049161D01*
X0026004Y0049071D01*
X0026039Y0048979D01*
X0026072Y0048887D01*
X0026100Y0048793D01*
X0026125Y0048698D01*
X0026146Y0048602D01*
X0026163Y0048505D01*
X0026177Y0048408D01*
X0026186Y0048310D01*
X0026192Y0048212D01*
X0026194Y0048114D01*
X0026225Y0044764D02*
X0029800Y0044764D01*
X0029800Y0045264D01*
X0038119Y0045264D02*
X0038217Y0045266D01*
X0038315Y0045272D01*
X0038413Y0045281D01*
X0038510Y0045295D01*
X0038607Y0045312D01*
X0038703Y0045333D01*
X0038798Y0045358D01*
X0038892Y0045386D01*
X0038984Y0045419D01*
X0039076Y0045454D01*
X0039166Y0045494D01*
X0039254Y0045536D01*
X0039341Y0045583D01*
X0039425Y0045632D01*
X0039508Y0045685D01*
X0039588Y0045741D01*
X0039667Y0045801D01*
X0039743Y0045863D01*
X0039816Y0045928D01*
X0039887Y0045996D01*
X0039955Y0046067D01*
X0040020Y0046140D01*
X0040082Y0046216D01*
X0040142Y0046295D01*
X0040198Y0046375D01*
X0040251Y0046458D01*
X0040300Y0046542D01*
X0040347Y0046629D01*
X0040389Y0046717D01*
X0040429Y0046807D01*
X0040464Y0046899D01*
X0040497Y0046991D01*
X0040525Y0047085D01*
X0040550Y0047180D01*
X0040571Y0047276D01*
X0040588Y0047373D01*
X0040602Y0047470D01*
X0040611Y0047568D01*
X0040617Y0047666D01*
X0040619Y0047764D01*
X0040619Y0204236D02*
X0040617Y0204334D01*
X0040611Y0204432D01*
X0040602Y0204530D01*
X0040588Y0204627D01*
X0040571Y0204724D01*
X0040550Y0204820D01*
X0040525Y0204915D01*
X0040497Y0205009D01*
X0040464Y0205101D01*
X0040429Y0205193D01*
X0040389Y0205283D01*
X0040347Y0205371D01*
X0040300Y0205458D01*
X0040251Y0205542D01*
X0040198Y0205625D01*
X0040142Y0205705D01*
X0040082Y0205784D01*
X0040020Y0205860D01*
X0039955Y0205933D01*
X0039887Y0206004D01*
X0039816Y0206072D01*
X0039743Y0206137D01*
X0039667Y0206199D01*
X0039588Y0206259D01*
X0039508Y0206315D01*
X0039425Y0206368D01*
X0039341Y0206417D01*
X0039254Y0206464D01*
X0039166Y0206506D01*
X0039076Y0206546D01*
X0038984Y0206581D01*
X0038892Y0206614D01*
X0038798Y0206642D01*
X0038703Y0206667D01*
X0038607Y0206688D01*
X0038510Y0206705D01*
X0038413Y0206719D01*
X0038315Y0206728D01*
X0038217Y0206734D01*
X0038119Y0206736D01*
X0029800Y0206736D01*
X0040619Y0206886D02*
X0086119Y0206886D01*
X0088119Y0208886D01*
X0088119Y0228386D01*
X0086119Y0230386D01*
X0040619Y0230386D01*
X0064119Y0218598D02*
X0064121Y0218759D01*
X0064127Y0218919D01*
X0064137Y0219080D01*
X0064151Y0219240D01*
X0064169Y0219400D01*
X0064190Y0219559D01*
X0064216Y0219718D01*
X0064246Y0219876D01*
X0064279Y0220033D01*
X0064317Y0220190D01*
X0064358Y0220345D01*
X0064403Y0220499D01*
X0064452Y0220652D01*
X0064505Y0220804D01*
X0064561Y0220955D01*
X0064622Y0221104D01*
X0064685Y0221252D01*
X0064753Y0221398D01*
X0064824Y0221542D01*
X0064898Y0221684D01*
X0064976Y0221825D01*
X0065058Y0221963D01*
X0065143Y0222100D01*
X0065231Y0222234D01*
X0065323Y0222366D01*
X0065418Y0222496D01*
X0065516Y0222624D01*
X0065617Y0222749D01*
X0065721Y0222871D01*
X0065828Y0222991D01*
X0065938Y0223108D01*
X0066051Y0223223D01*
X0066167Y0223334D01*
X0066286Y0223443D01*
X0066407Y0223548D01*
X0066531Y0223651D01*
X0066657Y0223751D01*
X0066785Y0223847D01*
X0066916Y0223940D01*
X0067050Y0224030D01*
X0067185Y0224117D01*
X0067323Y0224200D01*
X0067462Y0224280D01*
X0067604Y0224356D01*
X0067747Y0224429D01*
X0067892Y0224498D01*
X0068039Y0224564D01*
X0068187Y0224626D01*
X0068337Y0224684D01*
X0068488Y0224739D01*
X0068641Y0224790D01*
X0068795Y0224837D01*
X0068950Y0224880D01*
X0069106Y0224919D01*
X0069262Y0224955D01*
X0069420Y0224986D01*
X0069578Y0225014D01*
X0069737Y0225038D01*
X0069897Y0225058D01*
X0070057Y0225074D01*
X0070217Y0225086D01*
X0070378Y0225094D01*
X0070539Y0225098D01*
X0070699Y0225098D01*
X0070860Y0225094D01*
X0071021Y0225086D01*
X0071181Y0225074D01*
X0071341Y0225058D01*
X0071501Y0225038D01*
X0071660Y0225014D01*
X0071818Y0224986D01*
X0071976Y0224955D01*
X0072132Y0224919D01*
X0072288Y0224880D01*
X0072443Y0224837D01*
X0072597Y0224790D01*
X0072750Y0224739D01*
X0072901Y0224684D01*
X0073051Y0224626D01*
X0073199Y0224564D01*
X0073346Y0224498D01*
X0073491Y0224429D01*
X0073634Y0224356D01*
X0073776Y0224280D01*
X0073915Y0224200D01*
X0074053Y0224117D01*
X0074188Y0224030D01*
X0074322Y0223940D01*
X0074453Y0223847D01*
X0074581Y0223751D01*
X0074707Y0223651D01*
X0074831Y0223548D01*
X0074952Y0223443D01*
X0075071Y0223334D01*
X0075187Y0223223D01*
X0075300Y0223108D01*
X0075410Y0222991D01*
X0075517Y0222871D01*
X0075621Y0222749D01*
X0075722Y0222624D01*
X0075820Y0222496D01*
X0075915Y0222366D01*
X0076007Y0222234D01*
X0076095Y0222100D01*
X0076180Y0221963D01*
X0076262Y0221825D01*
X0076340Y0221684D01*
X0076414Y0221542D01*
X0076485Y0221398D01*
X0076553Y0221252D01*
X0076616Y0221104D01*
X0076677Y0220955D01*
X0076733Y0220804D01*
X0076786Y0220652D01*
X0076835Y0220499D01*
X0076880Y0220345D01*
X0076921Y0220190D01*
X0076959Y0220033D01*
X0076992Y0219876D01*
X0077022Y0219718D01*
X0077048Y0219559D01*
X0077069Y0219400D01*
X0077087Y0219240D01*
X0077101Y0219080D01*
X0077111Y0218919D01*
X0077117Y0218759D01*
X0077119Y0218598D01*
X0077117Y0218437D01*
X0077111Y0218277D01*
X0077101Y0218116D01*
X0077087Y0217956D01*
X0077069Y0217796D01*
X0077048Y0217637D01*
X0077022Y0217478D01*
X0076992Y0217320D01*
X0076959Y0217163D01*
X0076921Y0217006D01*
X0076880Y0216851D01*
X0076835Y0216697D01*
X0076786Y0216544D01*
X0076733Y0216392D01*
X0076677Y0216241D01*
X0076616Y0216092D01*
X0076553Y0215944D01*
X0076485Y0215798D01*
X0076414Y0215654D01*
X0076340Y0215512D01*
X0076262Y0215371D01*
X0076180Y0215233D01*
X0076095Y0215096D01*
X0076007Y0214962D01*
X0075915Y0214830D01*
X0075820Y0214700D01*
X0075722Y0214572D01*
X0075621Y0214447D01*
X0075517Y0214325D01*
X0075410Y0214205D01*
X0075300Y0214088D01*
X0075187Y0213973D01*
X0075071Y0213862D01*
X0074952Y0213753D01*
X0074831Y0213648D01*
X0074707Y0213545D01*
X0074581Y0213445D01*
X0074453Y0213349D01*
X0074322Y0213256D01*
X0074188Y0213166D01*
X0074053Y0213079D01*
X0073915Y0212996D01*
X0073776Y0212916D01*
X0073634Y0212840D01*
X0073491Y0212767D01*
X0073346Y0212698D01*
X0073199Y0212632D01*
X0073051Y0212570D01*
X0072901Y0212512D01*
X0072750Y0212457D01*
X0072597Y0212406D01*
X0072443Y0212359D01*
X0072288Y0212316D01*
X0072132Y0212277D01*
X0071976Y0212241D01*
X0071818Y0212210D01*
X0071660Y0212182D01*
X0071501Y0212158D01*
X0071341Y0212138D01*
X0071181Y0212122D01*
X0071021Y0212110D01*
X0070860Y0212102D01*
X0070699Y0212098D01*
X0070539Y0212098D01*
X0070378Y0212102D01*
X0070217Y0212110D01*
X0070057Y0212122D01*
X0069897Y0212138D01*
X0069737Y0212158D01*
X0069578Y0212182D01*
X0069420Y0212210D01*
X0069262Y0212241D01*
X0069106Y0212277D01*
X0068950Y0212316D01*
X0068795Y0212359D01*
X0068641Y0212406D01*
X0068488Y0212457D01*
X0068337Y0212512D01*
X0068187Y0212570D01*
X0068039Y0212632D01*
X0067892Y0212698D01*
X0067747Y0212767D01*
X0067604Y0212840D01*
X0067462Y0212916D01*
X0067323Y0212996D01*
X0067185Y0213079D01*
X0067050Y0213166D01*
X0066916Y0213256D01*
X0066785Y0213349D01*
X0066657Y0213445D01*
X0066531Y0213545D01*
X0066407Y0213648D01*
X0066286Y0213753D01*
X0066167Y0213862D01*
X0066051Y0213973D01*
X0065938Y0214088D01*
X0065828Y0214205D01*
X0065721Y0214325D01*
X0065617Y0214447D01*
X0065516Y0214572D01*
X0065418Y0214700D01*
X0065323Y0214830D01*
X0065231Y0214962D01*
X0065143Y0215096D01*
X0065058Y0215233D01*
X0064976Y0215371D01*
X0064898Y0215512D01*
X0064824Y0215654D01*
X0064753Y0215798D01*
X0064685Y0215944D01*
X0064622Y0216092D01*
X0064561Y0216241D01*
X0064505Y0216392D01*
X0064452Y0216544D01*
X0064403Y0216697D01*
X0064358Y0216851D01*
X0064317Y0217006D01*
X0064279Y0217163D01*
X0064246Y0217320D01*
X0064216Y0217478D01*
X0064190Y0217637D01*
X0064169Y0217796D01*
X0064151Y0217956D01*
X0064137Y0218116D01*
X0064127Y0218277D01*
X0064121Y0218437D01*
X0064119Y0218598D01*
X0120916Y0233934D02*
X0124319Y0236202D01*
X0124319Y0237617D02*
X0124319Y0239885D01*
X0124319Y0238751D02*
X0120916Y0238751D01*
X0122050Y0237617D01*
X0120916Y0236202D02*
X0124319Y0233934D01*
D14*
X0037419Y0190398D02*
X0037419Y0188863D01*
X0036652Y0188096D01*
X0035117Y0188096D01*
X0034350Y0188863D01*
X0034350Y0190398D01*
X0035117Y0191165D01*
X0035884Y0191165D01*
X0035884Y0188096D01*
X0037419Y0186561D02*
X0037419Y0185027D01*
X0037419Y0185794D02*
X0032815Y0185794D01*
X0032815Y0185027D01*
X0034350Y0182725D02*
X0035117Y0183492D01*
X0037419Y0183492D01*
X0037419Y0181190D01*
X0036652Y0180423D01*
X0035884Y0181190D01*
X0035884Y0183492D01*
X0034350Y0182725D02*
X0034350Y0181190D01*
X0032815Y0178888D02*
X0037419Y0178888D01*
X0037419Y0175819D02*
X0032815Y0175819D01*
X0034350Y0177354D01*
X0032815Y0178888D01*
D15*
X0052706Y0182512D03*
X0052706Y0173512D03*
X0052706Y0164512D03*
X0052706Y0155512D03*
X0052706Y0146512D03*
X0052706Y0137512D03*
X0052706Y0128512D03*
X0052706Y0119512D03*
X0052706Y0110512D03*
X0052706Y0101512D03*
X0052706Y0092512D03*
X0052706Y0083512D03*
X0052706Y0074512D03*
X0052706Y0065512D03*
X0052706Y0061012D03*
X0052706Y0191512D03*
D16*
X0047784Y0187012D03*
X0047784Y0178012D03*
X0047784Y0169012D03*
X0047784Y0160012D03*
X0047784Y0151012D03*
X0047784Y0142012D03*
X0047784Y0133012D03*
X0047784Y0124012D03*
X0047784Y0115012D03*
X0047784Y0106012D03*
X0047784Y0097012D03*
X0047784Y0088012D03*
X0047784Y0079012D03*
X0047784Y0070012D03*
D17*
X0070422Y0070012D03*
X0070422Y0061012D03*
X0070422Y0079012D03*
X0070422Y0088012D03*
X0070422Y0097012D03*
X0070422Y0106012D03*
X0070422Y0115012D03*
X0070422Y0124012D03*
X0070422Y0133012D03*
X0070422Y0142012D03*
X0070422Y0151012D03*
X0070422Y0160012D03*
X0070422Y0169012D03*
X0070422Y0178012D03*
X0070422Y0187012D03*
M02*
