%
M48
M72
T01C0.01181
T02C0.03543
T03C0.06299
T04C0.11811
T05C0.12598
%
T01
X109119Y92500
X121119Y128500
T02
X80619Y61012
X80619Y70012
X80619Y79012
X80619Y88012
X80619Y97012
X80619Y106012
X80619Y115012
X80619Y124012
X80619Y133012
X80619Y142012
X80619Y151012
X80619Y160012
X80619Y169012
X80619Y178012
X80619Y187012
X70619Y191512
X70619Y182512
X70619Y173512
X70619Y164512
X70619Y155512
X70619Y146512
X70619Y137512
X70619Y128512
X70619Y119512
X70619Y110512
X70619Y101512
X70619Y92512
X70619Y83512
X70619Y74512
X70619Y65512
X60619Y70012
X60619Y79012
X60619Y88012
X60619Y97012
X60619Y106012
X60619Y115012
X60619Y124012
X60619Y133012
X60619Y142012
X60619Y151012
X60619Y160012
X60619Y169012
X60619Y178012
X60619Y187012
X134635Y216000
X134635Y206000
X134635Y196000
X144635Y191000
X144635Y201000
X144635Y211000
X144635Y221000
X134635Y226000
X160619Y226000
X160619Y216000
X160619Y206000
X160619Y196000
X170619Y191000
X170619Y201000
X170619Y211000
X170619Y221000
X160619Y171000
X160619Y161000
X160619Y151000
X160619Y141000
X170619Y136000
X170619Y146000
X170619Y156000
X170619Y166000
X144635Y166000
X144635Y156000
X144635Y146000
X144635Y136000
X134635Y141000
X134635Y151000
X134635Y161000
X134635Y171000
X134635Y116000
X134635Y106000
X134635Y96000
X134635Y86000
X144635Y81000
X144635Y91000
X144635Y101000
X144635Y111000
X160619Y106000
X160619Y96000
X160619Y86000
X170619Y81000
X170619Y91000
X170619Y101000
X170619Y111000
X160619Y116000
X160619Y61000
X160619Y51000
X160619Y41000
X160619Y31000
X170619Y26000
X170619Y36000
X170619Y46000
X170619Y56000
X144635Y56000
X144635Y46000
X144635Y36000
X144635Y26000
X134635Y31000
X134635Y41000
X134635Y51000
X134635Y61000
T03
X134595Y9976
X159595Y12929
X213611Y9976
X150619Y242024
X172587Y239071
X213611Y242024
T04
X70619Y218598
X70619Y33402
T05
X195619Y21000
X195619Y231000
M30
