%
M48
M72
T01C0.0118
T02C0.0360
T03C0.0394
T04C0.0400
T05C0.0472
T06C0.0591
T07C0.0600
T08C0.0630
T09C0.0650
T10C0.0709
T11C0.1181
T12C0.1260
%
T01
X7374Y8218
X6024Y9904
X7999Y11468
X7999Y12093
X11524Y12529
X11524Y14904
X9524Y18029
X9524Y19654
X7749Y20843
X7624Y21279
X7024Y22154
X7024Y23154
X7024Y24154
X6224Y25104
X5999Y26779
X5249Y26779
X5999Y28404
X7124Y28218
X6749Y29529
X5999Y30279
X5999Y31029
X7124Y31529
X6749Y32529
X7899Y34104
X8399Y35104
X9399Y35729
X9649Y34479
X8649Y32604
X9124Y29529
X9499Y29529
X10724Y29154
X10099Y27904
X11099Y26592
X11224Y25592
X11749Y25468
X11874Y24718
X11212Y24779
X10749Y24968
X10124Y25342
X9274Y24154
X9024Y23279
X9749Y22093
X10462Y23154
X11087Y23279
X12749Y25343
X12874Y25718
X12499Y25718
X13349Y27154
X13499Y27843
X14024Y28904
X13374Y29531
X12374Y28531
X11899Y29854
X11524Y30979
X11649Y32104
X13224Y31029
X15374Y29904
X15649Y30279
X16624Y30029
X16624Y29529
X17349Y28779
X17374Y29343
X16599Y27904
X16999Y27218
X17599Y27029
X17749Y27718
X18599Y27529
X19474Y28529
X18599Y29279
X18974Y29904
X19024Y31129
X19374Y31279
X19399Y31754
X19399Y32404
X19024Y33404
X18499Y33404
X18124Y33529
X18124Y33904
X17749Y34029
X17749Y34404
X17499Y34654
X17149Y34904
X17124Y37279
X16624Y37779
X16124Y37279
X14774Y36979
X14124Y37779
X13624Y38279
X13249Y38343
X13874Y38968
X12774Y37229
X12524Y36854
X13024Y36854
X14024Y35154
X11899Y34354
X15649Y32529
X15649Y31904
X16881Y31879
X15974Y28529
X15224Y28529
X14749Y28468
X15474Y27279
X16349Y26154
X17349Y26154
X17412Y25029
X17974Y23779
X17949Y23268
X17849Y22529
X17349Y21154
X15999Y21343
X14149Y20904
X12999Y21343
X12749Y19968
X14974Y24904
X16349Y25029
X18349Y26154
X19474Y24904
X20374Y24343
X19474Y23779
X20624Y22218
X21124Y22968
X21649Y22404
X21751Y21342
X21274Y20529
X20749Y19968
X20624Y20593
X19874Y19843
X19774Y19279
X19124Y18593
X18649Y19029
X17999Y19468
X17874Y18968
X16874Y18718
X18774Y17779
X16999Y15093
X16499Y15218
X16524Y12529
X21524Y12529
X22499Y14718
X23249Y15093
X23874Y15468
X24312Y15781
X24624Y16093
X24124Y17343
X23024Y17029
X21749Y19343
X24149Y19904
X25774Y18279
X25774Y17279
X26124Y15968
X28249Y17093
X28524Y15654
X26524Y12529
X23874Y8218
X21524Y4779
X24999Y4468
X25999Y4468
X26524Y4779
X28499Y4843
X28499Y4468
X16524Y4779
X11524Y4779
X4099Y16404
X4724Y17529
X5974Y17529
X3099Y17529
X2224Y17529
X2374Y23279
X1874Y24154
X2999Y23279
X2624Y26779
X3874Y26779
X1874Y28404
X1874Y30529
X2124Y32279
X2624Y32904
X3124Y32279
X3624Y32904
X4124Y32279
X4624Y32904
X5249Y32279
X3374Y36029
X2374Y36029
X7974Y23279
X19649Y35279
X20574Y36029
X22674Y36329
X22674Y37829
X25174Y38579
X25174Y36329
X23624Y33404
X22774Y32529
X23774Y31629
X25074Y32504
X25624Y33279
X26624Y33279
X27574Y33629
X27574Y34229
X27774Y29129
X27774Y26129
X27374Y23829
X26174Y23579
X25174Y23667
X24099Y24879
X24924Y25679
X24524Y26179
X22974Y25029
X23799Y23079
X21499Y24968
X20374Y26029
X20174Y26504
X21474Y27279
X21474Y28529
X21749Y29404
X21374Y30154
X20999Y30629
X20474Y29529
X20624Y28279
X22999Y29654
X23974Y28529
X20374Y32029
X20149Y31529
X20624Y33279
X28724Y22804
T02
X10749Y20343
X10749Y19343
X5624Y22529
X4624Y22529
X3624Y22529
T03
X15874Y25529
X16874Y25529
X17874Y25529
X18874Y25529
T04
X24374Y36529
X24374Y37529
X24374Y38529
T05
X25613Y20279
X28369Y20279
T06
X27255Y10734
X27255Y8824
T07
X3449Y10079
T08
X2893Y18629
T09
X2449Y11079
X2449Y9079
X4449Y9079
X4449Y11079
T10
X4664Y18629
X28448Y10852
X28448Y8706
T11
X21385Y17404
X10991Y17404
X9010Y37257
X21385Y37257
T12
X3468Y2187
X27090Y2187
X27090Y37620
X3558Y37620
M30
