G75*
%MOIN*%
%OFA0B0*%
%FSLAX25Y25*%
%IPPOS*%
%LPD*%
%AMOC8*
5,1,8,0,0,1.08239X$1,22.5*
%
%ADD10C,0.01894*%
%ADD11C,0.01185*%
%ADD12C,0.03466*%
%ADD13C,0.01421*%
%ADD14C,0.01657*%
%ADD15C,0.02602*%
%ADD16C,0.07099*%
%ADD17C,0.07887*%
%ADD18C,0.01775*%
%ADD19C,0.01742*%
%ADD20C,0.00949*%
%ADD21C,0.02130*%
%ADD22C,0.11600*%
%ADD23C,0.12500*%
%ADD24C,0.01480*%
%ADD25C,0.00683*%
%ADD26C,0.00674*%
%ADD27C,0.12611*%
%ADD28C,0.02342*%
%ADD29C,0.00660*%
%ADD30C,0.01817*%
%ADD31C,0.01187*%
%ADD32C,0.08400*%
%ADD33C,0.08200*%
%ADD34C,0.04737*%
%ADD35C,0.04731*%
%ADD36C,0.05524*%
%ADD37C,0.07280*%
%ADD38C,0.00500*%
%ADD39C,0.01200*%
%ADD40C,0.01798*%
%ADD41C,0.06706*%
%ADD42C,0.01585*%
%ADD43C,0.02581*%
%ADD44C,0.24422*%
D10*
X0234062Y0237980D02*
X0234062Y0243972D01*
X0238480Y0243972D01*
X0238480Y0237980D01*
X0234062Y0237980D01*
X0234062Y0239873D02*
X0238480Y0239873D01*
X0238480Y0241766D02*
X0234062Y0241766D01*
X0234062Y0243659D02*
X0238480Y0243659D01*
X0244062Y0243972D02*
X0244062Y0237980D01*
X0244062Y0243972D02*
X0248480Y0243972D01*
X0248480Y0237980D01*
X0244062Y0237980D01*
X0244062Y0239873D02*
X0248480Y0239873D01*
X0248480Y0241766D02*
X0244062Y0241766D01*
X0244062Y0243659D02*
X0248480Y0243659D01*
X0254062Y0243972D02*
X0254062Y0237980D01*
X0254062Y0243972D02*
X0258480Y0243972D01*
X0258480Y0237980D01*
X0254062Y0237980D01*
X0254062Y0239873D02*
X0258480Y0239873D01*
X0258480Y0241766D02*
X0254062Y0241766D01*
X0254062Y0243659D02*
X0258480Y0243659D01*
X0264062Y0243972D02*
X0264062Y0237980D01*
X0264062Y0243972D02*
X0268480Y0243972D01*
X0268480Y0237980D01*
X0264062Y0237980D01*
X0264062Y0239873D02*
X0268480Y0239873D01*
X0268480Y0241766D02*
X0264062Y0241766D01*
X0264062Y0243659D02*
X0268480Y0243659D01*
X0264062Y0337862D02*
X0264062Y0343854D01*
X0268480Y0343854D01*
X0268480Y0337862D01*
X0264062Y0337862D01*
X0264062Y0339755D02*
X0268480Y0339755D01*
X0268480Y0341648D02*
X0264062Y0341648D01*
X0264062Y0343541D02*
X0268480Y0343541D01*
X0254062Y0343854D02*
X0254062Y0337862D01*
X0254062Y0343854D02*
X0258480Y0343854D01*
X0258480Y0337862D01*
X0254062Y0337862D01*
X0254062Y0339755D02*
X0258480Y0339755D01*
X0258480Y0341648D02*
X0254062Y0341648D01*
X0254062Y0343541D02*
X0258480Y0343541D01*
X0244062Y0343854D02*
X0244062Y0337862D01*
X0244062Y0343854D02*
X0248480Y0343854D01*
X0248480Y0337862D01*
X0244062Y0337862D01*
X0244062Y0339755D02*
X0248480Y0339755D01*
X0248480Y0341648D02*
X0244062Y0341648D01*
X0244062Y0343541D02*
X0248480Y0343541D01*
X0234062Y0343854D02*
X0234062Y0337862D01*
X0234062Y0343854D02*
X0238480Y0343854D01*
X0238480Y0337862D01*
X0234062Y0337862D01*
X0234062Y0339755D02*
X0238480Y0339755D01*
X0238480Y0341648D02*
X0234062Y0341648D01*
X0234062Y0343541D02*
X0238480Y0343541D01*
D11*
X0233266Y0361352D02*
X0233266Y0364510D01*
X0233266Y0361352D02*
X0230500Y0361352D01*
X0230500Y0364510D01*
X0233266Y0364510D01*
X0233266Y0362536D02*
X0230500Y0362536D01*
X0230500Y0363720D02*
X0233266Y0363720D01*
X0233266Y0367352D02*
X0233266Y0370510D01*
X0233266Y0367352D02*
X0230500Y0367352D01*
X0230500Y0370510D01*
X0233266Y0370510D01*
X0233266Y0368536D02*
X0230500Y0368536D01*
X0230500Y0369720D02*
X0233266Y0369720D01*
X0204860Y0344870D02*
X0204860Y0341712D01*
X0204860Y0344870D02*
X0207626Y0344870D01*
X0207626Y0341712D01*
X0204860Y0341712D01*
X0204860Y0342896D02*
X0207626Y0342896D01*
X0207626Y0344080D02*
X0204860Y0344080D01*
X0204860Y0338870D02*
X0204860Y0335712D01*
X0204860Y0338870D02*
X0207626Y0338870D01*
X0207626Y0335712D01*
X0204860Y0335712D01*
X0204860Y0336896D02*
X0207626Y0336896D01*
X0207626Y0338080D02*
X0204860Y0338080D01*
X0210126Y0324120D02*
X0210126Y0320962D01*
X0207360Y0320962D01*
X0207360Y0324120D01*
X0210126Y0324120D01*
X0210126Y0322146D02*
X0207360Y0322146D01*
X0207360Y0323330D02*
X0210126Y0323330D01*
X0210126Y0318120D02*
X0210126Y0314962D01*
X0207360Y0314962D01*
X0207360Y0318120D01*
X0210126Y0318120D01*
X0210126Y0316146D02*
X0207360Y0316146D01*
X0207360Y0317330D02*
X0210126Y0317330D01*
X0184572Y0312908D02*
X0181414Y0312908D01*
X0181414Y0315674D01*
X0184572Y0315674D01*
X0184572Y0312908D01*
X0184572Y0314092D02*
X0181414Y0314092D01*
X0181414Y0315276D02*
X0184572Y0315276D01*
X0178572Y0312908D02*
X0175414Y0312908D01*
X0175414Y0315674D01*
X0178572Y0315674D01*
X0178572Y0312908D01*
X0178572Y0314092D02*
X0175414Y0314092D01*
X0175414Y0315276D02*
X0178572Y0315276D01*
X0177914Y0302908D02*
X0181072Y0302908D01*
X0177914Y0302908D02*
X0177914Y0305674D01*
X0181072Y0305674D01*
X0181072Y0302908D01*
X0181072Y0304092D02*
X0177914Y0304092D01*
X0177914Y0305276D02*
X0181072Y0305276D01*
X0183914Y0302908D02*
X0187072Y0302908D01*
X0183914Y0302908D02*
X0183914Y0305674D01*
X0187072Y0305674D01*
X0187072Y0302908D01*
X0187072Y0304092D02*
X0183914Y0304092D01*
X0183914Y0305276D02*
X0187072Y0305276D01*
X0201664Y0253908D02*
X0204822Y0253908D01*
X0201664Y0253908D02*
X0201664Y0256674D01*
X0204822Y0256674D01*
X0204822Y0253908D01*
X0204822Y0255092D02*
X0201664Y0255092D01*
X0201664Y0256276D02*
X0204822Y0256276D01*
X0207664Y0253908D02*
X0210822Y0253908D01*
X0207664Y0253908D02*
X0207664Y0256674D01*
X0210822Y0256674D01*
X0210822Y0253908D01*
X0210822Y0255092D02*
X0207664Y0255092D01*
X0207664Y0256276D02*
X0210822Y0256276D01*
X0210822Y0248908D02*
X0207664Y0248908D01*
X0207664Y0251674D01*
X0210822Y0251674D01*
X0210822Y0248908D01*
X0210822Y0250092D02*
X0207664Y0250092D01*
X0207664Y0251276D02*
X0210822Y0251276D01*
X0204822Y0248908D02*
X0201664Y0248908D01*
X0201664Y0251674D01*
X0204822Y0251674D01*
X0204822Y0248908D01*
X0204822Y0250092D02*
X0201664Y0250092D01*
X0201664Y0251276D02*
X0204822Y0251276D01*
X0205164Y0223908D02*
X0208322Y0223908D01*
X0205164Y0223908D02*
X0205164Y0226674D01*
X0208322Y0226674D01*
X0208322Y0223908D01*
X0208322Y0225092D02*
X0205164Y0225092D01*
X0205164Y0226276D02*
X0208322Y0226276D01*
X0202322Y0223908D02*
X0199164Y0223908D01*
X0199164Y0226674D01*
X0202322Y0226674D01*
X0202322Y0223908D01*
X0202322Y0225092D02*
X0199164Y0225092D01*
X0199164Y0226276D02*
X0202322Y0226276D01*
X0192087Y0217673D02*
X0188929Y0217673D01*
X0188929Y0220439D01*
X0192087Y0220439D01*
X0192087Y0217673D01*
X0192087Y0218857D02*
X0188929Y0218857D01*
X0188929Y0220041D02*
X0192087Y0220041D01*
X0186087Y0217673D02*
X0182929Y0217673D01*
X0182929Y0220439D01*
X0186087Y0220439D01*
X0186087Y0217673D01*
X0186087Y0218857D02*
X0182929Y0218857D01*
X0182929Y0220041D02*
X0186087Y0220041D01*
X0182985Y0225102D02*
X0182985Y0228260D01*
X0185751Y0228260D01*
X0185751Y0225102D01*
X0182985Y0225102D01*
X0182985Y0226286D02*
X0185751Y0226286D01*
X0185751Y0227470D02*
X0182985Y0227470D01*
X0182985Y0231102D02*
X0182985Y0234260D01*
X0185751Y0234260D01*
X0185751Y0231102D01*
X0182985Y0231102D01*
X0182985Y0232286D02*
X0185751Y0232286D01*
X0185751Y0233470D02*
X0182985Y0233470D01*
X0173322Y0232048D02*
X0170164Y0232048D01*
X0170164Y0234814D01*
X0173322Y0234814D01*
X0173322Y0232048D01*
X0173322Y0233232D02*
X0170164Y0233232D01*
X0170164Y0234416D02*
X0173322Y0234416D01*
X0173322Y0229814D02*
X0170164Y0229814D01*
X0173322Y0229814D02*
X0173322Y0227048D01*
X0170164Y0227048D01*
X0170164Y0229814D01*
X0170164Y0228232D02*
X0173322Y0228232D01*
X0173322Y0229416D02*
X0170164Y0229416D01*
X0167322Y0229814D02*
X0164164Y0229814D01*
X0167322Y0229814D02*
X0167322Y0227048D01*
X0164164Y0227048D01*
X0164164Y0229814D01*
X0164164Y0228232D02*
X0167322Y0228232D01*
X0167322Y0229416D02*
X0164164Y0229416D01*
X0164164Y0232048D02*
X0167322Y0232048D01*
X0164164Y0232048D02*
X0164164Y0234814D01*
X0167322Y0234814D01*
X0167322Y0232048D01*
X0167322Y0233232D02*
X0164164Y0233232D01*
X0164164Y0234416D02*
X0167322Y0234416D01*
X0167322Y0224814D02*
X0164164Y0224814D01*
X0167322Y0224814D02*
X0167322Y0222048D01*
X0164164Y0222048D01*
X0164164Y0224814D01*
X0164164Y0223232D02*
X0167322Y0223232D01*
X0167322Y0224416D02*
X0164164Y0224416D01*
X0158322Y0224814D02*
X0155164Y0224814D01*
X0158322Y0224814D02*
X0158322Y0222048D01*
X0155164Y0222048D01*
X0155164Y0224814D01*
X0155164Y0223232D02*
X0158322Y0223232D01*
X0158322Y0224416D02*
X0155164Y0224416D01*
X0155164Y0229829D02*
X0158322Y0229829D01*
X0158322Y0227063D01*
X0155164Y0227063D01*
X0155164Y0229829D01*
X0155164Y0228247D02*
X0158322Y0228247D01*
X0158322Y0229431D02*
X0155164Y0229431D01*
X0155164Y0232048D02*
X0158322Y0232048D01*
X0155164Y0232048D02*
X0155164Y0234814D01*
X0158322Y0234814D01*
X0158322Y0232048D01*
X0158322Y0233232D02*
X0155164Y0233232D01*
X0155164Y0234416D02*
X0158322Y0234416D01*
X0152322Y0232048D02*
X0149164Y0232048D01*
X0149164Y0234814D01*
X0152322Y0234814D01*
X0152322Y0232048D01*
X0152322Y0233232D02*
X0149164Y0233232D01*
X0149164Y0234416D02*
X0152322Y0234416D01*
X0152322Y0229829D02*
X0149164Y0229829D01*
X0152322Y0229829D02*
X0152322Y0227063D01*
X0149164Y0227063D01*
X0149164Y0229829D01*
X0149164Y0228247D02*
X0152322Y0228247D01*
X0152322Y0229431D02*
X0149164Y0229431D01*
X0149164Y0224814D02*
X0152322Y0224814D01*
X0152322Y0222048D01*
X0149164Y0222048D01*
X0149164Y0224814D01*
X0149164Y0223232D02*
X0152322Y0223232D01*
X0152322Y0224416D02*
X0149164Y0224416D01*
X0156664Y0245424D02*
X0159822Y0245424D01*
X0159822Y0242658D01*
X0156664Y0242658D01*
X0156664Y0245424D01*
X0156664Y0243842D02*
X0159822Y0243842D01*
X0159822Y0245026D02*
X0156664Y0245026D01*
X0162664Y0245424D02*
X0165822Y0245424D01*
X0165822Y0242658D01*
X0162664Y0242658D01*
X0162664Y0245424D01*
X0162664Y0243842D02*
X0165822Y0243842D01*
X0165822Y0245026D02*
X0162664Y0245026D01*
X0170164Y0224814D02*
X0173322Y0224814D01*
X0173322Y0222048D01*
X0170164Y0222048D01*
X0170164Y0224814D01*
X0170164Y0223232D02*
X0173322Y0223232D01*
X0173322Y0224416D02*
X0170164Y0224416D01*
X0176664Y0212033D02*
X0179822Y0212033D01*
X0176664Y0212033D02*
X0176664Y0214799D01*
X0179822Y0214799D01*
X0179822Y0212033D01*
X0179822Y0213217D02*
X0176664Y0213217D01*
X0176664Y0214401D02*
X0179822Y0214401D01*
X0182664Y0212033D02*
X0185822Y0212033D01*
X0182664Y0212033D02*
X0182664Y0214799D01*
X0185822Y0214799D01*
X0185822Y0212033D01*
X0185822Y0213217D02*
X0182664Y0213217D01*
X0182664Y0214401D02*
X0185822Y0214401D01*
X0186072Y0206408D02*
X0182914Y0206408D01*
X0182914Y0209174D01*
X0186072Y0209174D01*
X0186072Y0206408D01*
X0186072Y0207592D02*
X0182914Y0207592D01*
X0182914Y0208776D02*
X0186072Y0208776D01*
X0188914Y0206408D02*
X0192072Y0206408D01*
X0188914Y0206408D02*
X0188914Y0209174D01*
X0192072Y0209174D01*
X0192072Y0206408D01*
X0192072Y0207592D02*
X0188914Y0207592D01*
X0188914Y0208776D02*
X0192072Y0208776D01*
X0195414Y0210454D02*
X0198572Y0210454D01*
X0198572Y0207688D01*
X0195414Y0207688D01*
X0195414Y0210454D01*
X0195414Y0208872D02*
X0198572Y0208872D01*
X0198572Y0210056D02*
X0195414Y0210056D01*
X0201414Y0210454D02*
X0204572Y0210454D01*
X0204572Y0207688D01*
X0201414Y0207688D01*
X0201414Y0210454D01*
X0201414Y0208872D02*
X0204572Y0208872D01*
X0204572Y0210056D02*
X0201414Y0210056D01*
X0189860Y0200510D02*
X0189860Y0197352D01*
X0189860Y0200510D02*
X0192626Y0200510D01*
X0192626Y0197352D01*
X0189860Y0197352D01*
X0189860Y0198536D02*
X0192626Y0198536D01*
X0192626Y0199720D02*
X0189860Y0199720D01*
X0189860Y0194510D02*
X0189860Y0191352D01*
X0189860Y0194510D02*
X0192626Y0194510D01*
X0192626Y0191352D01*
X0189860Y0191352D01*
X0189860Y0192536D02*
X0192626Y0192536D01*
X0192626Y0193720D02*
X0189860Y0193720D01*
X0194164Y0184548D02*
X0197322Y0184548D01*
X0194164Y0184548D02*
X0194164Y0187314D01*
X0197322Y0187314D01*
X0197322Y0184548D01*
X0197322Y0185732D02*
X0194164Y0185732D01*
X0194164Y0186916D02*
X0197322Y0186916D01*
X0200164Y0184548D02*
X0203322Y0184548D01*
X0200164Y0184548D02*
X0200164Y0187314D01*
X0203322Y0187314D01*
X0203322Y0184548D01*
X0203322Y0185732D02*
X0200164Y0185732D01*
X0200164Y0186916D02*
X0203322Y0186916D01*
X0180822Y0182658D02*
X0177664Y0182658D01*
X0177664Y0185424D01*
X0180822Y0185424D01*
X0180822Y0182658D01*
X0180822Y0183842D02*
X0177664Y0183842D01*
X0177664Y0185026D02*
X0180822Y0185026D01*
X0174822Y0182658D02*
X0171664Y0182658D01*
X0171664Y0185424D01*
X0174822Y0185424D01*
X0174822Y0182658D01*
X0174822Y0183842D02*
X0171664Y0183842D01*
X0171664Y0185026D02*
X0174822Y0185026D01*
X0153610Y0166120D02*
X0153610Y0162962D01*
X0153610Y0166120D02*
X0156376Y0166120D01*
X0156376Y0162962D01*
X0153610Y0162962D01*
X0153610Y0164146D02*
X0156376Y0164146D01*
X0156376Y0165330D02*
X0153610Y0165330D01*
X0153610Y0160120D02*
X0153610Y0156962D01*
X0153610Y0160120D02*
X0156376Y0160120D01*
X0156376Y0156962D01*
X0153610Y0156962D01*
X0153610Y0158146D02*
X0156376Y0158146D01*
X0156376Y0159330D02*
X0153610Y0159330D01*
X0143610Y0160120D02*
X0143610Y0156962D01*
X0143610Y0160120D02*
X0146376Y0160120D01*
X0146376Y0156962D01*
X0143610Y0156962D01*
X0143610Y0158146D02*
X0146376Y0158146D01*
X0146376Y0159330D02*
X0143610Y0159330D01*
X0143610Y0162962D02*
X0143610Y0166120D01*
X0146376Y0166120D01*
X0146376Y0162962D01*
X0143610Y0162962D01*
X0143610Y0164146D02*
X0146376Y0164146D01*
X0146376Y0165330D02*
X0143610Y0165330D01*
X0133610Y0166120D02*
X0133610Y0162962D01*
X0133610Y0166120D02*
X0136376Y0166120D01*
X0136376Y0162962D01*
X0133610Y0162962D01*
X0133610Y0164146D02*
X0136376Y0164146D01*
X0136376Y0165330D02*
X0133610Y0165330D01*
X0128610Y0166120D02*
X0128610Y0162962D01*
X0128610Y0166120D02*
X0131376Y0166120D01*
X0131376Y0162962D01*
X0128610Y0162962D01*
X0128610Y0164146D02*
X0131376Y0164146D01*
X0131376Y0165330D02*
X0128610Y0165330D01*
X0128610Y0160120D02*
X0128610Y0156962D01*
X0128610Y0160120D02*
X0131376Y0160120D01*
X0131376Y0156962D01*
X0128610Y0156962D01*
X0128610Y0158146D02*
X0131376Y0158146D01*
X0131376Y0159330D02*
X0128610Y0159330D01*
X0133610Y0160120D02*
X0133610Y0156962D01*
X0133610Y0160120D02*
X0136376Y0160120D01*
X0136376Y0156962D01*
X0133610Y0156962D01*
X0133610Y0158146D02*
X0136376Y0158146D01*
X0136376Y0159330D02*
X0133610Y0159330D01*
X0092072Y0205424D02*
X0088914Y0205424D01*
X0092072Y0205424D02*
X0092072Y0202658D01*
X0088914Y0202658D01*
X0088914Y0205424D01*
X0088914Y0203842D02*
X0092072Y0203842D01*
X0092072Y0205026D02*
X0088914Y0205026D01*
X0086072Y0205424D02*
X0082914Y0205424D01*
X0086072Y0205424D02*
X0086072Y0202658D01*
X0082914Y0202658D01*
X0082914Y0205424D01*
X0082914Y0203842D02*
X0086072Y0203842D01*
X0086072Y0205026D02*
X0082914Y0205026D01*
X0076110Y0205510D02*
X0076110Y0202352D01*
X0076110Y0205510D02*
X0078876Y0205510D01*
X0078876Y0202352D01*
X0076110Y0202352D01*
X0076110Y0203536D02*
X0078876Y0203536D01*
X0078876Y0204720D02*
X0076110Y0204720D01*
X0076110Y0199510D02*
X0076110Y0196352D01*
X0076110Y0199510D02*
X0078876Y0199510D01*
X0078876Y0196352D01*
X0076110Y0196352D01*
X0076110Y0197536D02*
X0078876Y0197536D01*
X0078876Y0198720D02*
X0076110Y0198720D01*
X0085470Y0220102D02*
X0085470Y0223260D01*
X0088236Y0223260D01*
X0088236Y0220102D01*
X0085470Y0220102D01*
X0085470Y0221286D02*
X0088236Y0221286D01*
X0088236Y0222470D02*
X0085470Y0222470D01*
X0085470Y0226102D02*
X0085470Y0229260D01*
X0088236Y0229260D01*
X0088236Y0226102D01*
X0085470Y0226102D01*
X0085470Y0227286D02*
X0088236Y0227286D01*
X0088236Y0228470D02*
X0085470Y0228470D01*
X0102626Y0226992D02*
X0102626Y0230150D01*
X0102626Y0226992D02*
X0099860Y0226992D01*
X0099860Y0230150D01*
X0102626Y0230150D01*
X0102626Y0228176D02*
X0099860Y0228176D01*
X0099860Y0229360D02*
X0102626Y0229360D01*
X0102626Y0232992D02*
X0102626Y0236150D01*
X0102626Y0232992D02*
X0099860Y0232992D01*
X0099860Y0236150D01*
X0102626Y0236150D01*
X0102626Y0234176D02*
X0099860Y0234176D01*
X0099860Y0235360D02*
X0102626Y0235360D01*
X0108876Y0237602D02*
X0108876Y0240760D01*
X0108876Y0237602D02*
X0106110Y0237602D01*
X0106110Y0240760D01*
X0108876Y0240760D01*
X0108876Y0238786D02*
X0106110Y0238786D01*
X0106110Y0239970D02*
X0108876Y0239970D01*
X0108876Y0243602D02*
X0108876Y0246760D01*
X0108876Y0243602D02*
X0106110Y0243602D01*
X0106110Y0246760D01*
X0108876Y0246760D01*
X0108876Y0244786D02*
X0106110Y0244786D01*
X0106110Y0245970D02*
X0108876Y0245970D01*
X0120126Y0244260D02*
X0120126Y0241102D01*
X0117360Y0241102D01*
X0117360Y0244260D01*
X0120126Y0244260D01*
X0120126Y0242286D02*
X0117360Y0242286D01*
X0117360Y0243470D02*
X0120126Y0243470D01*
X0120126Y0238260D02*
X0120126Y0235102D01*
X0117360Y0235102D01*
X0117360Y0238260D01*
X0120126Y0238260D01*
X0120126Y0236286D02*
X0117360Y0236286D01*
X0117360Y0237470D02*
X0120126Y0237470D01*
X0107626Y0258212D02*
X0107626Y0261370D01*
X0107626Y0258212D02*
X0104860Y0258212D01*
X0104860Y0261370D01*
X0107626Y0261370D01*
X0107626Y0259396D02*
X0104860Y0259396D01*
X0104860Y0260580D02*
X0107626Y0260580D01*
X0107626Y0264212D02*
X0107626Y0267370D01*
X0107626Y0264212D02*
X0104860Y0264212D01*
X0104860Y0267370D01*
X0107626Y0267370D01*
X0107626Y0265396D02*
X0104860Y0265396D01*
X0104860Y0266580D02*
X0107626Y0266580D01*
X0107072Y0275424D02*
X0103914Y0275424D01*
X0107072Y0275424D02*
X0107072Y0272658D01*
X0103914Y0272658D01*
X0103914Y0275424D01*
X0103914Y0273842D02*
X0107072Y0273842D01*
X0107072Y0275026D02*
X0103914Y0275026D01*
X0101072Y0275424D02*
X0097914Y0275424D01*
X0101072Y0275424D02*
X0101072Y0272658D01*
X0097914Y0272658D01*
X0097914Y0275424D01*
X0097914Y0273842D02*
X0101072Y0273842D01*
X0101072Y0275026D02*
X0097914Y0275026D01*
X0117626Y0284462D02*
X0117626Y0287620D01*
X0117626Y0284462D02*
X0114860Y0284462D01*
X0114860Y0287620D01*
X0117626Y0287620D01*
X0117626Y0285646D02*
X0114860Y0285646D01*
X0114860Y0286830D02*
X0117626Y0286830D01*
X0117626Y0290462D02*
X0117626Y0293620D01*
X0117626Y0290462D02*
X0114860Y0290462D01*
X0114860Y0293620D01*
X0117626Y0293620D01*
X0117626Y0291646D02*
X0114860Y0291646D01*
X0114860Y0292830D02*
X0117626Y0292830D01*
X0126376Y0306352D02*
X0126376Y0309510D01*
X0126376Y0306352D02*
X0123610Y0306352D01*
X0123610Y0309510D01*
X0126376Y0309510D01*
X0126376Y0307536D02*
X0123610Y0307536D01*
X0123610Y0308720D02*
X0126376Y0308720D01*
X0126376Y0312352D02*
X0126376Y0315510D01*
X0126376Y0312352D02*
X0123610Y0312352D01*
X0123610Y0315510D01*
X0126376Y0315510D01*
X0126376Y0313536D02*
X0123610Y0313536D01*
X0123610Y0314720D02*
X0126376Y0314720D01*
X0131376Y0318852D02*
X0131376Y0322010D01*
X0131376Y0318852D02*
X0128610Y0318852D01*
X0128610Y0322010D01*
X0131376Y0322010D01*
X0131376Y0320036D02*
X0128610Y0320036D01*
X0128610Y0321220D02*
X0131376Y0321220D01*
X0131376Y0324852D02*
X0131376Y0328010D01*
X0131376Y0324852D02*
X0128610Y0324852D01*
X0128610Y0328010D01*
X0131376Y0328010D01*
X0131376Y0326036D02*
X0128610Y0326036D01*
X0128610Y0327220D02*
X0131376Y0327220D01*
X0135126Y0306760D02*
X0135126Y0303602D01*
X0132360Y0303602D01*
X0132360Y0306760D01*
X0135126Y0306760D01*
X0135126Y0304786D02*
X0132360Y0304786D01*
X0132360Y0305970D02*
X0135126Y0305970D01*
X0135126Y0300760D02*
X0135126Y0297602D01*
X0132360Y0297602D01*
X0132360Y0300760D01*
X0135126Y0300760D01*
X0135126Y0298786D02*
X0132360Y0298786D01*
X0132360Y0299970D02*
X0135126Y0299970D01*
X0142626Y0300760D02*
X0142626Y0297602D01*
X0139860Y0297602D01*
X0139860Y0300760D01*
X0142626Y0300760D01*
X0142626Y0298786D02*
X0139860Y0298786D01*
X0139860Y0299970D02*
X0142626Y0299970D01*
X0142626Y0303602D02*
X0142626Y0306760D01*
X0142626Y0303602D02*
X0139860Y0303602D01*
X0139860Y0306760D01*
X0142626Y0306760D01*
X0142626Y0304786D02*
X0139860Y0304786D01*
X0139860Y0305970D02*
X0142626Y0305970D01*
X0128322Y0353158D02*
X0125164Y0353158D01*
X0125164Y0355924D01*
X0128322Y0355924D01*
X0128322Y0353158D01*
X0128322Y0354342D02*
X0125164Y0354342D01*
X0125164Y0355526D02*
X0128322Y0355526D01*
X0122322Y0353158D02*
X0119164Y0353158D01*
X0119164Y0355924D01*
X0122322Y0355924D01*
X0122322Y0353158D01*
X0122322Y0354342D02*
X0119164Y0354342D01*
X0119164Y0355526D02*
X0122322Y0355526D01*
X0105822Y0358408D02*
X0102664Y0358408D01*
X0102664Y0361174D01*
X0105822Y0361174D01*
X0105822Y0358408D01*
X0105822Y0359592D02*
X0102664Y0359592D01*
X0102664Y0360776D02*
X0105822Y0360776D01*
X0099822Y0358408D02*
X0096664Y0358408D01*
X0096664Y0361174D01*
X0099822Y0361174D01*
X0099822Y0358408D01*
X0099822Y0359592D02*
X0096664Y0359592D01*
X0096664Y0360776D02*
X0099822Y0360776D01*
X0098322Y0386674D02*
X0095164Y0386674D01*
X0098322Y0386674D02*
X0098322Y0383908D01*
X0095164Y0383908D01*
X0095164Y0386674D01*
X0095164Y0385092D02*
X0098322Y0385092D01*
X0098322Y0386276D02*
X0095164Y0386276D01*
X0092322Y0386674D02*
X0089164Y0386674D01*
X0092322Y0386674D02*
X0092322Y0383908D01*
X0089164Y0383908D01*
X0089164Y0386674D01*
X0089164Y0385092D02*
X0092322Y0385092D01*
X0092322Y0386276D02*
X0089164Y0386276D01*
X0085822Y0386674D02*
X0082664Y0386674D01*
X0085822Y0386674D02*
X0085822Y0383908D01*
X0082664Y0383908D01*
X0082664Y0386674D01*
X0082664Y0385092D02*
X0085822Y0385092D01*
X0085822Y0386276D02*
X0082664Y0386276D01*
X0079822Y0386674D02*
X0076664Y0386674D01*
X0079822Y0386674D02*
X0079822Y0383908D01*
X0076664Y0383908D01*
X0076664Y0386674D01*
X0076664Y0385092D02*
X0079822Y0385092D01*
X0079822Y0386276D02*
X0076664Y0386276D01*
X0053360Y0376120D02*
X0053360Y0372962D01*
X0053360Y0376120D02*
X0056126Y0376120D01*
X0056126Y0372962D01*
X0053360Y0372962D01*
X0053360Y0374146D02*
X0056126Y0374146D01*
X0056126Y0375330D02*
X0053360Y0375330D01*
X0053360Y0370120D02*
X0053360Y0366962D01*
X0053360Y0370120D02*
X0056126Y0370120D01*
X0056126Y0366962D01*
X0053360Y0366962D01*
X0053360Y0368146D02*
X0056126Y0368146D01*
X0056126Y0369330D02*
X0053360Y0369330D01*
X0053360Y0360111D02*
X0056126Y0360111D01*
X0053360Y0360111D02*
X0053360Y0362877D01*
X0056126Y0362877D01*
X0056126Y0360111D01*
X0056126Y0361295D02*
X0053360Y0361295D01*
X0053360Y0362479D02*
X0056126Y0362479D01*
X0056126Y0354206D02*
X0053360Y0354206D01*
X0053360Y0356972D01*
X0056126Y0356972D01*
X0056126Y0354206D01*
X0056126Y0355390D02*
X0053360Y0355390D01*
X0053360Y0356574D02*
X0056126Y0356574D01*
X0068610Y0354206D02*
X0071376Y0354206D01*
X0068610Y0354206D02*
X0068610Y0356972D01*
X0071376Y0356972D01*
X0071376Y0354206D01*
X0071376Y0355390D02*
X0068610Y0355390D01*
X0068610Y0356574D02*
X0071376Y0356574D01*
X0071376Y0360111D02*
X0068610Y0360111D01*
X0068610Y0362877D01*
X0071376Y0362877D01*
X0071376Y0360111D01*
X0071376Y0361295D02*
X0068610Y0361295D01*
X0068610Y0362479D02*
X0071376Y0362479D01*
X0080126Y0357370D02*
X0080126Y0354212D01*
X0077360Y0354212D01*
X0077360Y0357370D01*
X0080126Y0357370D01*
X0080126Y0355396D02*
X0077360Y0355396D01*
X0077360Y0356580D02*
X0080126Y0356580D01*
X0080126Y0351370D02*
X0080126Y0348212D01*
X0077360Y0348212D01*
X0077360Y0351370D01*
X0080126Y0351370D01*
X0080126Y0349396D02*
X0077360Y0349396D01*
X0077360Y0350580D02*
X0080126Y0350580D01*
X0079164Y0322049D02*
X0082322Y0322049D01*
X0082322Y0319283D01*
X0079164Y0319283D01*
X0079164Y0322049D01*
X0079164Y0320467D02*
X0082322Y0320467D01*
X0082322Y0321651D02*
X0079164Y0321651D01*
X0076322Y0322049D02*
X0073164Y0322049D01*
X0076322Y0322049D02*
X0076322Y0319283D01*
X0073164Y0319283D01*
X0073164Y0322049D01*
X0073164Y0320467D02*
X0076322Y0320467D01*
X0076322Y0321651D02*
X0073164Y0321651D01*
X0090164Y0319283D02*
X0093322Y0319283D01*
X0090164Y0319283D02*
X0090164Y0322049D01*
X0093322Y0322049D01*
X0093322Y0319283D01*
X0093322Y0320467D02*
X0090164Y0320467D01*
X0090164Y0321651D02*
X0093322Y0321651D01*
X0096164Y0319283D02*
X0099322Y0319283D01*
X0096164Y0319283D02*
X0096164Y0322049D01*
X0099322Y0322049D01*
X0099322Y0319283D01*
X0099322Y0320467D02*
X0096164Y0320467D01*
X0096164Y0321651D02*
X0099322Y0321651D01*
X0102626Y0222400D02*
X0102626Y0219242D01*
X0099860Y0219242D01*
X0099860Y0222400D01*
X0102626Y0222400D01*
X0102626Y0220426D02*
X0099860Y0220426D01*
X0099860Y0221610D02*
X0102626Y0221610D01*
X0102626Y0216400D02*
X0102626Y0213242D01*
X0099860Y0213242D01*
X0099860Y0216400D01*
X0102626Y0216400D01*
X0102626Y0214426D02*
X0099860Y0214426D01*
X0099860Y0215610D02*
X0102626Y0215610D01*
X0085822Y0174814D02*
X0082664Y0174814D01*
X0085822Y0174814D02*
X0085822Y0172048D01*
X0082664Y0172048D01*
X0082664Y0174814D01*
X0082664Y0173232D02*
X0085822Y0173232D01*
X0085822Y0174416D02*
X0082664Y0174416D01*
X0079822Y0174814D02*
X0076664Y0174814D01*
X0079822Y0174814D02*
X0079822Y0172048D01*
X0076664Y0172048D01*
X0076664Y0174814D01*
X0076664Y0173232D02*
X0079822Y0173232D01*
X0079822Y0174416D02*
X0076664Y0174416D01*
X0076664Y0165798D02*
X0079822Y0165798D01*
X0076664Y0165798D02*
X0076664Y0168564D01*
X0079822Y0168564D01*
X0079822Y0165798D01*
X0079822Y0166982D02*
X0076664Y0166982D01*
X0076664Y0168166D02*
X0079822Y0168166D01*
X0082664Y0165798D02*
X0085822Y0165798D01*
X0082664Y0165798D02*
X0082664Y0168564D01*
X0085822Y0168564D01*
X0085822Y0165798D01*
X0085822Y0166982D02*
X0082664Y0166982D01*
X0082664Y0168166D02*
X0085822Y0168166D01*
X0072016Y0079260D02*
X0072016Y0076102D01*
X0069250Y0076102D01*
X0069250Y0079260D01*
X0072016Y0079260D01*
X0072016Y0077286D02*
X0069250Y0077286D01*
X0069250Y0078470D02*
X0072016Y0078470D01*
X0072016Y0073260D02*
X0072016Y0070102D01*
X0069250Y0070102D01*
X0069250Y0073260D01*
X0072016Y0073260D01*
X0072016Y0071286D02*
X0069250Y0071286D01*
X0069250Y0072470D02*
X0072016Y0072470D01*
X0069220Y0065510D02*
X0069220Y0062352D01*
X0069220Y0065510D02*
X0071986Y0065510D01*
X0071986Y0062352D01*
X0069220Y0062352D01*
X0069220Y0063536D02*
X0071986Y0063536D01*
X0071986Y0064720D02*
X0069220Y0064720D01*
X0069220Y0059510D02*
X0069220Y0056352D01*
X0069220Y0059510D02*
X0071986Y0059510D01*
X0071986Y0056352D01*
X0069220Y0056352D01*
X0069220Y0057536D02*
X0071986Y0057536D01*
X0071986Y0058720D02*
X0069220Y0058720D01*
X0060470Y0059510D02*
X0060470Y0056352D01*
X0060470Y0059510D02*
X0063236Y0059510D01*
X0063236Y0056352D01*
X0060470Y0056352D01*
X0060470Y0057536D02*
X0063236Y0057536D01*
X0063236Y0058720D02*
X0060470Y0058720D01*
X0060470Y0062352D02*
X0060470Y0065510D01*
X0063236Y0065510D01*
X0063236Y0062352D01*
X0060470Y0062352D01*
X0060470Y0063536D02*
X0063236Y0063536D01*
X0063236Y0064720D02*
X0060470Y0064720D01*
X0063266Y0070102D02*
X0063266Y0073260D01*
X0063266Y0070102D02*
X0060500Y0070102D01*
X0060500Y0073260D01*
X0063266Y0073260D01*
X0063266Y0071286D02*
X0060500Y0071286D01*
X0060500Y0072470D02*
X0063266Y0072470D01*
X0063266Y0076102D02*
X0063266Y0079260D01*
X0063266Y0076102D02*
X0060500Y0076102D01*
X0060500Y0079260D01*
X0063266Y0079260D01*
X0063266Y0077286D02*
X0060500Y0077286D01*
X0060500Y0078470D02*
X0063266Y0078470D01*
X0261024Y0166064D02*
X0264182Y0166064D01*
X0264182Y0163298D01*
X0261024Y0163298D01*
X0261024Y0166064D01*
X0261024Y0164482D02*
X0264182Y0164482D01*
X0264182Y0165666D02*
X0261024Y0165666D01*
X0267024Y0166064D02*
X0270182Y0166064D01*
X0270182Y0163298D01*
X0267024Y0163298D01*
X0267024Y0166064D01*
X0267024Y0164482D02*
X0270182Y0164482D01*
X0270182Y0165666D02*
X0267024Y0165666D01*
X0273524Y0163298D02*
X0276682Y0163298D01*
X0273524Y0163298D02*
X0273524Y0166064D01*
X0276682Y0166064D01*
X0276682Y0163298D01*
X0276682Y0164482D02*
X0273524Y0164482D01*
X0273524Y0165666D02*
X0276682Y0165666D01*
X0279524Y0163298D02*
X0282682Y0163298D01*
X0279524Y0163298D02*
X0279524Y0166064D01*
X0282682Y0166064D01*
X0282682Y0163298D01*
X0282682Y0164482D02*
X0279524Y0164482D01*
X0279524Y0165666D02*
X0282682Y0165666D01*
X0275822Y0232924D02*
X0272664Y0232924D01*
X0275822Y0232924D02*
X0275822Y0230158D01*
X0272664Y0230158D01*
X0272664Y0232924D01*
X0272664Y0231342D02*
X0275822Y0231342D01*
X0275822Y0232526D02*
X0272664Y0232526D01*
X0269822Y0232924D02*
X0266664Y0232924D01*
X0269822Y0232924D02*
X0269822Y0230158D01*
X0266664Y0230158D01*
X0266664Y0232924D01*
X0266664Y0231342D02*
X0269822Y0231342D01*
X0269822Y0232526D02*
X0266664Y0232526D01*
D12*
X0054339Y0275811D02*
X0054339Y0315271D01*
X0054339Y0275811D02*
X0023147Y0275811D01*
X0023147Y0315271D01*
X0054339Y0315271D01*
X0054339Y0279276D02*
X0023147Y0279276D01*
X0023147Y0282741D02*
X0054339Y0282741D01*
X0054339Y0286206D02*
X0023147Y0286206D01*
X0023147Y0289671D02*
X0054339Y0289671D01*
X0054339Y0293136D02*
X0023147Y0293136D01*
X0023147Y0296601D02*
X0054339Y0296601D01*
X0054339Y0300066D02*
X0023147Y0300066D01*
X0023147Y0303531D02*
X0054339Y0303531D01*
X0054339Y0306996D02*
X0023147Y0306996D01*
X0023147Y0310461D02*
X0054339Y0310461D01*
X0054339Y0313926D02*
X0023147Y0313926D01*
D13*
X0068335Y0369657D02*
X0071651Y0369657D01*
X0071651Y0364765D01*
X0068335Y0364765D01*
X0068335Y0369657D01*
X0068335Y0366185D02*
X0071651Y0366185D01*
X0071651Y0367605D02*
X0068335Y0367605D01*
X0068335Y0369025D02*
X0071651Y0369025D01*
X0072075Y0378318D02*
X0075391Y0378318D01*
X0075391Y0373426D01*
X0072075Y0373426D01*
X0072075Y0378318D01*
X0072075Y0374846D02*
X0075391Y0374846D01*
X0075391Y0376266D02*
X0072075Y0376266D01*
X0072075Y0377686D02*
X0075391Y0377686D01*
X0067911Y0378318D02*
X0064595Y0378318D01*
X0067911Y0378318D02*
X0067911Y0373426D01*
X0064595Y0373426D01*
X0064595Y0378318D01*
X0064595Y0374846D02*
X0067911Y0374846D01*
X0067911Y0376266D02*
X0064595Y0376266D01*
X0064595Y0377686D02*
X0067911Y0377686D01*
X0086858Y0310585D02*
X0086858Y0307269D01*
X0074092Y0307269D01*
X0074092Y0310585D01*
X0086858Y0310585D01*
X0086858Y0308689D02*
X0074092Y0308689D01*
X0074092Y0310109D02*
X0086858Y0310109D01*
X0086858Y0303892D02*
X0086858Y0300576D01*
X0074092Y0300576D01*
X0074092Y0303892D01*
X0086858Y0303892D01*
X0086858Y0301996D02*
X0074092Y0301996D01*
X0074092Y0303416D02*
X0086858Y0303416D01*
X0086858Y0297199D02*
X0086858Y0293883D01*
X0074092Y0293883D01*
X0074092Y0297199D01*
X0086858Y0297199D01*
X0086858Y0295303D02*
X0074092Y0295303D01*
X0074092Y0296723D02*
X0086858Y0296723D01*
X0086858Y0290506D02*
X0086858Y0287190D01*
X0074092Y0287190D01*
X0074092Y0290506D01*
X0086858Y0290506D01*
X0086858Y0288610D02*
X0074092Y0288610D01*
X0074092Y0290030D02*
X0086858Y0290030D01*
X0086858Y0283814D02*
X0086858Y0280498D01*
X0074092Y0280498D01*
X0074092Y0283814D01*
X0086858Y0283814D01*
X0086858Y0281918D02*
X0074092Y0281918D01*
X0074092Y0283338D02*
X0086858Y0283338D01*
X0088020Y0192579D02*
X0088020Y0189263D01*
X0083128Y0189263D01*
X0083128Y0192579D01*
X0088020Y0192579D01*
X0088020Y0190683D02*
X0083128Y0190683D01*
X0083128Y0192103D02*
X0088020Y0192103D01*
X0088020Y0185099D02*
X0088020Y0181783D01*
X0083128Y0181783D01*
X0083128Y0185099D01*
X0088020Y0185099D01*
X0088020Y0183203D02*
X0083128Y0183203D01*
X0083128Y0184623D02*
X0088020Y0184623D01*
X0079358Y0185523D02*
X0079358Y0188839D01*
X0079358Y0185523D02*
X0074466Y0185523D01*
X0074466Y0188839D01*
X0079358Y0188839D01*
X0079358Y0186943D02*
X0074466Y0186943D01*
X0074466Y0188363D02*
X0079358Y0188363D01*
X0036151Y0128619D02*
X0032835Y0128619D01*
X0032835Y0132133D01*
X0036151Y0132133D01*
X0036151Y0128619D01*
X0036151Y0130039D02*
X0032835Y0130039D01*
X0032835Y0131459D02*
X0036151Y0131459D01*
D14*
X0133236Y0033849D02*
X0144978Y0033849D01*
X0144978Y0029981D01*
X0133236Y0029981D01*
X0133236Y0033849D01*
X0133236Y0031637D02*
X0144978Y0031637D01*
X0144978Y0033293D02*
X0133236Y0033293D01*
X0133236Y0018101D02*
X0144978Y0018101D01*
X0144978Y0014233D01*
X0133236Y0014233D01*
X0133236Y0018101D01*
X0133236Y0015889D02*
X0144978Y0015889D01*
X0144978Y0017545D02*
X0133236Y0017545D01*
X0160008Y0018101D02*
X0171750Y0018101D01*
X0171750Y0014233D01*
X0160008Y0014233D01*
X0160008Y0018101D01*
X0160008Y0015889D02*
X0171750Y0015889D01*
X0171750Y0017545D02*
X0160008Y0017545D01*
X0160008Y0033849D02*
X0171750Y0033849D01*
X0171750Y0029981D01*
X0160008Y0029981D01*
X0160008Y0033849D01*
X0160008Y0031637D02*
X0171750Y0031637D01*
X0171750Y0033293D02*
X0160008Y0033293D01*
X0183236Y0033879D02*
X0194978Y0033879D01*
X0194978Y0030011D01*
X0183236Y0030011D01*
X0183236Y0033879D01*
X0183236Y0031667D02*
X0194978Y0031667D01*
X0194978Y0033323D02*
X0183236Y0033323D01*
X0183236Y0018131D02*
X0194978Y0018131D01*
X0194978Y0014263D01*
X0183236Y0014263D01*
X0183236Y0018131D01*
X0183236Y0015919D02*
X0194978Y0015919D01*
X0194978Y0017575D02*
X0183236Y0017575D01*
X0210008Y0018131D02*
X0221750Y0018131D01*
X0221750Y0014263D01*
X0210008Y0014263D01*
X0210008Y0018131D01*
X0210008Y0015919D02*
X0221750Y0015919D01*
X0221750Y0017575D02*
X0210008Y0017575D01*
X0210008Y0033879D02*
X0221750Y0033879D01*
X0221750Y0030011D01*
X0210008Y0030011D01*
X0210008Y0033879D01*
X0210008Y0031667D02*
X0221750Y0031667D01*
X0221750Y0033323D02*
X0210008Y0033323D01*
X0206567Y0234312D02*
X0202699Y0234312D01*
X0206567Y0234312D02*
X0206567Y0230050D01*
X0202699Y0230050D01*
X0202699Y0234312D01*
X0202699Y0231706D02*
X0206567Y0231706D01*
X0206567Y0233362D02*
X0202699Y0233362D01*
X0198567Y0234312D02*
X0194699Y0234312D01*
X0198567Y0234312D02*
X0198567Y0230050D01*
X0194699Y0230050D01*
X0194699Y0234312D01*
X0194699Y0231706D02*
X0198567Y0231706D01*
X0198567Y0233362D02*
X0194699Y0233362D01*
X0180927Y0246202D02*
X0177059Y0246202D01*
X0180927Y0246202D02*
X0180927Y0241940D01*
X0177059Y0241940D01*
X0177059Y0246202D01*
X0177059Y0243596D02*
X0180927Y0243596D01*
X0180927Y0245252D02*
X0177059Y0245252D01*
X0172927Y0246202D02*
X0169059Y0246202D01*
X0172927Y0246202D02*
X0172927Y0241940D01*
X0169059Y0241940D01*
X0169059Y0246202D01*
X0169059Y0243596D02*
X0172927Y0243596D01*
X0172927Y0245252D02*
X0169059Y0245252D01*
X0102677Y0288172D02*
X0098809Y0288172D01*
X0102677Y0288172D02*
X0102677Y0283910D01*
X0098809Y0283910D01*
X0098809Y0288172D01*
X0098809Y0285566D02*
X0102677Y0285566D01*
X0102677Y0287222D02*
X0098809Y0287222D01*
X0102874Y0294107D02*
X0102874Y0297975D01*
X0102874Y0294107D02*
X0098612Y0294107D01*
X0098612Y0297975D01*
X0102874Y0297975D01*
X0102874Y0295763D02*
X0098612Y0295763D01*
X0098612Y0297419D02*
X0102874Y0297419D01*
X0102874Y0302107D02*
X0102874Y0305975D01*
X0102874Y0302107D02*
X0098612Y0302107D01*
X0098612Y0305975D01*
X0102874Y0305975D01*
X0102874Y0303763D02*
X0098612Y0303763D01*
X0098612Y0305419D02*
X0102874Y0305419D01*
X0094677Y0288172D02*
X0090809Y0288172D01*
X0094677Y0288172D02*
X0094677Y0283910D01*
X0090809Y0283910D01*
X0090809Y0288172D01*
X0090809Y0285566D02*
X0094677Y0285566D01*
X0094677Y0287222D02*
X0090809Y0287222D01*
D15*
X0056964Y0204909D02*
X0049318Y0204909D01*
X0049318Y0210981D01*
X0056964Y0210981D01*
X0056964Y0204909D01*
X0056964Y0207510D02*
X0049318Y0207510D01*
X0049318Y0210111D02*
X0056964Y0210111D01*
X0032751Y0204909D02*
X0025105Y0204909D01*
X0025105Y0210981D01*
X0032751Y0210981D01*
X0032751Y0204909D01*
X0032751Y0207510D02*
X0025105Y0207510D01*
X0025105Y0210111D02*
X0032751Y0210111D01*
X0032751Y0161602D02*
X0025105Y0161602D01*
X0025105Y0167674D01*
X0032751Y0167674D01*
X0032751Y0161602D01*
X0032751Y0164203D02*
X0025105Y0164203D01*
X0025105Y0166804D02*
X0032751Y0166804D01*
X0049318Y0161602D02*
X0056964Y0161602D01*
X0049318Y0161602D02*
X0049318Y0167674D01*
X0056964Y0167674D01*
X0056964Y0161602D01*
X0056964Y0164203D02*
X0049318Y0164203D01*
X0049318Y0166804D02*
X0056964Y0166804D01*
X0171139Y0195395D02*
X0171139Y0201467D01*
X0171139Y0195395D02*
X0165067Y0195395D01*
X0165067Y0201467D01*
X0171139Y0201467D01*
X0171139Y0197996D02*
X0165067Y0197996D01*
X0165067Y0200597D02*
X0171139Y0200597D01*
D16*
X0028928Y0186291D03*
D17*
X0046645Y0186291D03*
X0284481Y0108520D03*
X0284481Y0087063D03*
D18*
X0083565Y0237229D02*
X0083565Y0249247D01*
X0083565Y0237229D02*
X0079421Y0237229D01*
X0079421Y0249247D01*
X0083565Y0249247D01*
X0083565Y0239003D02*
X0079421Y0239003D01*
X0079421Y0240777D02*
X0083565Y0240777D01*
X0083565Y0242551D02*
X0079421Y0242551D01*
X0079421Y0244325D02*
X0083565Y0244325D01*
X0083565Y0246099D02*
X0079421Y0246099D01*
X0079421Y0247873D02*
X0083565Y0247873D01*
X0083565Y0261835D02*
X0083565Y0273853D01*
X0083565Y0261835D02*
X0079421Y0261835D01*
X0079421Y0273853D01*
X0083565Y0273853D01*
X0083565Y0263609D02*
X0079421Y0263609D01*
X0079421Y0265383D02*
X0083565Y0265383D01*
X0083565Y0267157D02*
X0079421Y0267157D01*
X0079421Y0268931D02*
X0083565Y0268931D01*
X0083565Y0270705D02*
X0079421Y0270705D01*
X0079421Y0272479D02*
X0083565Y0272479D01*
D19*
X0091142Y0339582D02*
X0099648Y0339582D01*
X0099648Y0329500D01*
X0091142Y0329500D01*
X0091142Y0339582D01*
X0091142Y0331241D02*
X0099648Y0331241D01*
X0099648Y0332982D02*
X0091142Y0332982D01*
X0091142Y0334723D02*
X0099648Y0334723D01*
X0099648Y0336464D02*
X0091142Y0336464D01*
X0091142Y0338205D02*
X0099648Y0338205D01*
X0074844Y0329500D02*
X0066338Y0329500D01*
X0066338Y0339582D01*
X0074844Y0339582D01*
X0074844Y0329500D01*
X0074844Y0331241D02*
X0066338Y0331241D01*
X0066338Y0332982D02*
X0074844Y0332982D01*
X0074844Y0334723D02*
X0066338Y0334723D01*
X0066338Y0336464D02*
X0074844Y0336464D01*
X0074844Y0338205D02*
X0066338Y0338205D01*
D20*
X0119386Y0347684D02*
X0121600Y0347684D01*
X0119386Y0347684D02*
X0119386Y0349898D01*
X0121600Y0349898D01*
X0121600Y0347684D01*
X0121600Y0348632D02*
X0119386Y0348632D01*
X0119386Y0349580D02*
X0121600Y0349580D01*
X0123386Y0347684D02*
X0125600Y0347684D01*
X0123386Y0347684D02*
X0123386Y0349898D01*
X0125600Y0349898D01*
X0125600Y0347684D01*
X0125600Y0348632D02*
X0123386Y0348632D01*
X0123386Y0349580D02*
X0125600Y0349580D01*
X0173579Y0340771D02*
X0175144Y0339206D01*
X0173579Y0337641D01*
X0172014Y0339206D01*
X0173579Y0340771D01*
X0174527Y0338589D02*
X0172631Y0338589D01*
X0172345Y0339537D02*
X0174813Y0339537D01*
X0173865Y0340485D02*
X0173293Y0340485D01*
X0176407Y0337942D02*
X0177972Y0336377D01*
X0176407Y0334812D01*
X0174842Y0336377D01*
X0176407Y0337942D01*
X0177355Y0335760D02*
X0175459Y0335760D01*
X0175173Y0336708D02*
X0177641Y0336708D01*
X0176693Y0337656D02*
X0176121Y0337656D01*
X0178264Y0332956D02*
X0179829Y0331391D01*
X0178264Y0332956D02*
X0179829Y0334521D01*
X0181394Y0332956D01*
X0179829Y0331391D01*
X0180777Y0332339D02*
X0178881Y0332339D01*
X0178595Y0333287D02*
X0181063Y0333287D01*
X0180115Y0334235D02*
X0179543Y0334235D01*
X0181092Y0330127D02*
X0182657Y0328562D01*
X0181092Y0330127D02*
X0182657Y0331692D01*
X0184222Y0330127D01*
X0182657Y0328562D01*
X0183605Y0329510D02*
X0181709Y0329510D01*
X0181423Y0330458D02*
X0183891Y0330458D01*
X0182943Y0331406D02*
X0182371Y0331406D01*
X0177342Y0326377D02*
X0178907Y0324812D01*
X0177342Y0326377D02*
X0178907Y0327942D01*
X0180472Y0326377D01*
X0178907Y0324812D01*
X0179855Y0325760D02*
X0177959Y0325760D01*
X0177673Y0326708D02*
X0180141Y0326708D01*
X0179193Y0327656D02*
X0178621Y0327656D01*
X0176079Y0327641D02*
X0174514Y0329206D01*
X0176079Y0330771D01*
X0177644Y0329206D01*
X0176079Y0327641D01*
X0177027Y0328589D02*
X0175131Y0328589D01*
X0174845Y0329537D02*
X0177313Y0329537D01*
X0176365Y0330485D02*
X0175793Y0330485D01*
X0186520Y0326318D02*
X0188734Y0326318D01*
X0186520Y0326318D02*
X0186520Y0328532D01*
X0188734Y0328532D01*
X0188734Y0326318D01*
X0188734Y0327266D02*
X0186520Y0327266D01*
X0186520Y0328214D02*
X0188734Y0328214D01*
X0190520Y0326318D02*
X0192734Y0326318D01*
X0190520Y0326318D02*
X0190520Y0328532D01*
X0192734Y0328532D01*
X0192734Y0326318D01*
X0192734Y0327266D02*
X0190520Y0327266D01*
X0190520Y0328214D02*
X0192734Y0328214D01*
X0170600Y0268928D02*
X0168386Y0268928D01*
X0170600Y0268928D02*
X0170600Y0266714D01*
X0168386Y0266714D01*
X0168386Y0268928D01*
X0168386Y0267662D02*
X0170600Y0267662D01*
X0170600Y0268610D02*
X0168386Y0268610D01*
X0166600Y0268928D02*
X0164386Y0268928D01*
X0166600Y0268928D02*
X0166600Y0266714D01*
X0164386Y0266714D01*
X0164386Y0268928D01*
X0164386Y0267662D02*
X0166600Y0267662D01*
X0166600Y0268610D02*
X0164386Y0268610D01*
X0159350Y0265464D02*
X0157136Y0265464D01*
X0157136Y0267678D01*
X0159350Y0267678D01*
X0159350Y0265464D01*
X0159350Y0266412D02*
X0157136Y0266412D01*
X0157136Y0267360D02*
X0159350Y0267360D01*
X0155350Y0265464D02*
X0153136Y0265464D01*
X0153136Y0267678D01*
X0155350Y0267678D01*
X0155350Y0265464D01*
X0155350Y0266412D02*
X0153136Y0266412D01*
X0153136Y0267360D02*
X0155350Y0267360D01*
X0155886Y0218288D02*
X0158100Y0218288D01*
X0158100Y0216074D01*
X0155886Y0216074D01*
X0155886Y0218288D01*
X0155886Y0217022D02*
X0158100Y0217022D01*
X0158100Y0217970D02*
X0155886Y0217970D01*
X0154100Y0218288D02*
X0151886Y0218288D01*
X0154100Y0218288D02*
X0154100Y0216074D01*
X0151886Y0216074D01*
X0151886Y0218288D01*
X0151886Y0217022D02*
X0154100Y0217022D01*
X0154100Y0217970D02*
X0151886Y0217970D01*
X0164386Y0218288D02*
X0166600Y0218288D01*
X0166600Y0216074D01*
X0164386Y0216074D01*
X0164386Y0218288D01*
X0164386Y0217022D02*
X0166600Y0217022D01*
X0166600Y0217970D02*
X0164386Y0217970D01*
X0168386Y0218288D02*
X0170600Y0218288D01*
X0170600Y0216074D01*
X0168386Y0216074D01*
X0168386Y0218288D01*
X0168386Y0217022D02*
X0170600Y0217022D01*
X0170600Y0217970D02*
X0168386Y0217970D01*
X0195636Y0220178D02*
X0197850Y0220178D01*
X0197850Y0217964D01*
X0195636Y0217964D01*
X0195636Y0220178D01*
X0195636Y0218912D02*
X0197850Y0218912D01*
X0197850Y0219860D02*
X0195636Y0219860D01*
X0195636Y0213559D02*
X0197850Y0213559D01*
X0195636Y0213559D02*
X0195636Y0215773D01*
X0197850Y0215773D01*
X0197850Y0213559D01*
X0197850Y0214507D02*
X0195636Y0214507D01*
X0195636Y0215455D02*
X0197850Y0215455D01*
X0199636Y0213559D02*
X0201850Y0213559D01*
X0199636Y0213559D02*
X0199636Y0215773D01*
X0201850Y0215773D01*
X0201850Y0213559D01*
X0201850Y0214507D02*
X0199636Y0214507D01*
X0199636Y0215455D02*
X0201850Y0215455D01*
X0201850Y0220178D02*
X0199636Y0220178D01*
X0201850Y0220178D02*
X0201850Y0217964D01*
X0199636Y0217964D01*
X0199636Y0220178D01*
X0199636Y0218912D02*
X0201850Y0218912D01*
X0201850Y0219860D02*
X0199636Y0219860D01*
X0200350Y0204538D02*
X0198136Y0204538D01*
X0200350Y0204538D02*
X0200350Y0202324D01*
X0198136Y0202324D01*
X0198136Y0204538D01*
X0198136Y0203272D02*
X0200350Y0203272D01*
X0200350Y0204220D02*
X0198136Y0204220D01*
X0202136Y0204538D02*
X0204350Y0204538D01*
X0204350Y0202324D01*
X0202136Y0202324D01*
X0202136Y0204538D01*
X0202136Y0203272D02*
X0204350Y0203272D01*
X0204350Y0204220D02*
X0202136Y0204220D01*
X0241636Y0233398D02*
X0243850Y0233398D01*
X0243850Y0231184D01*
X0241636Y0231184D01*
X0241636Y0233398D01*
X0241636Y0232132D02*
X0243850Y0232132D01*
X0243850Y0233080D02*
X0241636Y0233080D01*
X0245636Y0233398D02*
X0247850Y0233398D01*
X0247850Y0231184D01*
X0245636Y0231184D01*
X0245636Y0233398D01*
X0245636Y0232132D02*
X0247850Y0232132D01*
X0247850Y0233080D02*
X0245636Y0233080D01*
X0251636Y0233398D02*
X0253850Y0233398D01*
X0253850Y0231184D01*
X0251636Y0231184D01*
X0251636Y0233398D01*
X0251636Y0232132D02*
X0253850Y0232132D01*
X0253850Y0233080D02*
X0251636Y0233080D01*
X0255636Y0233398D02*
X0257850Y0233398D01*
X0257850Y0231184D01*
X0255636Y0231184D01*
X0255636Y0233398D01*
X0255636Y0232132D02*
X0257850Y0232132D01*
X0257850Y0233080D02*
X0255636Y0233080D01*
X0160136Y0165898D02*
X0160136Y0163684D01*
X0160136Y0165898D02*
X0162350Y0165898D01*
X0162350Y0163684D01*
X0160136Y0163684D01*
X0160136Y0164632D02*
X0162350Y0164632D01*
X0162350Y0165580D02*
X0160136Y0165580D01*
X0160136Y0161898D02*
X0160136Y0159684D01*
X0160136Y0161898D02*
X0162350Y0161898D01*
X0162350Y0159684D01*
X0160136Y0159684D01*
X0160136Y0160632D02*
X0162350Y0160632D01*
X0162350Y0161580D02*
X0160136Y0161580D01*
X0081865Y0070449D02*
X0079651Y0070449D01*
X0079651Y0072663D01*
X0081865Y0072663D01*
X0081865Y0070449D01*
X0081865Y0071397D02*
X0079651Y0071397D01*
X0079651Y0072345D02*
X0081865Y0072345D01*
X0077865Y0070449D02*
X0075651Y0070449D01*
X0075651Y0072663D01*
X0077865Y0072663D01*
X0077865Y0070449D01*
X0077865Y0071397D02*
X0075651Y0071397D01*
X0075651Y0072345D02*
X0077865Y0072345D01*
X0056835Y0072663D02*
X0054621Y0072663D01*
X0056835Y0072663D02*
X0056835Y0070449D01*
X0054621Y0070449D01*
X0054621Y0072663D01*
X0054621Y0071397D02*
X0056835Y0071397D01*
X0056835Y0072345D02*
X0054621Y0072345D01*
X0052835Y0072663D02*
X0050621Y0072663D01*
X0052835Y0072663D02*
X0052835Y0070449D01*
X0050621Y0070449D01*
X0050621Y0072663D01*
X0050621Y0071397D02*
X0052835Y0071397D01*
X0052835Y0072345D02*
X0050621Y0072345D01*
X0034975Y0121684D02*
X0032761Y0121684D01*
X0032761Y0123898D01*
X0034975Y0123898D01*
X0034975Y0121684D01*
X0034975Y0122632D02*
X0032761Y0122632D01*
X0032761Y0123580D02*
X0034975Y0123580D01*
X0030975Y0121684D02*
X0028761Y0121684D01*
X0028761Y0123898D01*
X0030975Y0123898D01*
X0030975Y0121684D01*
X0030975Y0122632D02*
X0028761Y0122632D01*
X0028761Y0123580D02*
X0030975Y0123580D01*
X0258490Y0360074D02*
X0258490Y0362288D01*
X0258490Y0360074D02*
X0256276Y0360074D01*
X0256276Y0362288D01*
X0258490Y0362288D01*
X0258490Y0361022D02*
X0256276Y0361022D01*
X0256276Y0361970D02*
X0258490Y0361970D01*
X0258490Y0364074D02*
X0258490Y0366288D01*
X0258490Y0364074D02*
X0256276Y0364074D01*
X0256276Y0366288D01*
X0258490Y0366288D01*
X0258490Y0365022D02*
X0256276Y0365022D01*
X0256276Y0365970D02*
X0258490Y0365970D01*
D21*
X0120489Y0340419D02*
X0115521Y0340419D01*
X0120489Y0340419D02*
X0120489Y0334663D01*
X0115521Y0334663D01*
X0115521Y0340419D01*
X0115521Y0336792D02*
X0120489Y0336792D01*
X0120489Y0338921D02*
X0115521Y0338921D01*
X0109465Y0340419D02*
X0104497Y0340419D01*
X0109465Y0340419D02*
X0109465Y0334663D01*
X0104497Y0334663D01*
X0104497Y0340419D01*
X0104497Y0336792D02*
X0109465Y0336792D01*
X0109465Y0338921D02*
X0104497Y0338921D01*
X0105489Y0347663D02*
X0100521Y0347663D01*
X0100521Y0353419D01*
X0105489Y0353419D01*
X0105489Y0347663D01*
X0105489Y0349792D02*
X0100521Y0349792D01*
X0100521Y0351921D02*
X0105489Y0351921D01*
X0094465Y0347663D02*
X0089497Y0347663D01*
X0089497Y0353419D01*
X0094465Y0353419D01*
X0094465Y0347663D01*
X0094465Y0349792D02*
X0089497Y0349792D01*
X0089497Y0351921D02*
X0094465Y0351921D01*
X0104497Y0330169D02*
X0109465Y0330169D01*
X0109465Y0324413D01*
X0104497Y0324413D01*
X0104497Y0330169D01*
X0104497Y0326542D02*
X0109465Y0326542D01*
X0109465Y0328671D02*
X0104497Y0328671D01*
X0115521Y0330169D02*
X0120489Y0330169D01*
X0120489Y0324413D01*
X0115521Y0324413D01*
X0115521Y0330169D01*
X0115521Y0326542D02*
X0120489Y0326542D01*
X0120489Y0328671D02*
X0115521Y0328671D01*
D22*
X0034493Y0100791D03*
D23*
X0024493Y0090791D03*
X0024493Y0110791D03*
X0044493Y0110791D03*
X0044493Y0090791D03*
D24*
X0041939Y0132301D02*
X0038485Y0132301D01*
X0038485Y0140281D01*
X0041939Y0140281D01*
X0041939Y0132301D01*
X0041939Y0133780D02*
X0038485Y0133780D01*
X0038485Y0135259D02*
X0041939Y0135259D01*
X0041939Y0136738D02*
X0038485Y0136738D01*
X0038485Y0138217D02*
X0041939Y0138217D01*
X0041939Y0139696D02*
X0038485Y0139696D01*
X0030502Y0132301D02*
X0027048Y0132301D01*
X0027048Y0140281D01*
X0030502Y0140281D01*
X0030502Y0132301D01*
X0030502Y0133780D02*
X0027048Y0133780D01*
X0027048Y0135259D02*
X0030502Y0135259D01*
X0030502Y0136738D02*
X0027048Y0136738D01*
X0027048Y0138217D02*
X0030502Y0138217D01*
X0030502Y0139696D02*
X0027048Y0139696D01*
D25*
X0200190Y0303376D02*
X0200190Y0304970D01*
X0200190Y0303376D02*
X0198104Y0303376D01*
X0198104Y0304970D01*
X0200190Y0304970D01*
X0200190Y0304058D02*
X0198104Y0304058D01*
X0198104Y0304740D02*
X0200190Y0304740D01*
X0200190Y0307612D02*
X0200190Y0309206D01*
X0200190Y0307612D02*
X0198104Y0307612D01*
X0198104Y0309206D01*
X0200190Y0309206D01*
X0200190Y0308294D02*
X0198104Y0308294D01*
X0198104Y0308976D02*
X0200190Y0308976D01*
X0206882Y0309206D02*
X0206882Y0307612D01*
X0204796Y0307612D01*
X0204796Y0309206D01*
X0206882Y0309206D01*
X0206882Y0308294D02*
X0204796Y0308294D01*
X0204796Y0308976D02*
X0206882Y0308976D01*
X0206882Y0304970D02*
X0206882Y0303376D01*
X0204796Y0303376D01*
X0204796Y0304970D01*
X0206882Y0304970D01*
X0206882Y0304058D02*
X0204796Y0304058D01*
X0204796Y0304740D02*
X0206882Y0304740D01*
D26*
X0207280Y0305638D02*
X0207280Y0306944D01*
X0207280Y0305638D02*
X0204792Y0305638D01*
X0204792Y0306944D01*
X0207280Y0306944D01*
X0207280Y0306311D02*
X0204792Y0306311D01*
X0200194Y0306944D02*
X0200194Y0305638D01*
X0197706Y0305638D01*
X0197706Y0306944D01*
X0200194Y0306944D01*
X0200194Y0306311D02*
X0197706Y0306311D01*
X0171387Y0207608D02*
X0171387Y0204530D01*
X0171387Y0207608D02*
X0172693Y0207608D01*
X0172693Y0204530D01*
X0171387Y0204530D01*
X0171387Y0205203D02*
X0172693Y0205203D01*
X0172693Y0205876D02*
X0171387Y0205876D01*
X0171387Y0206549D02*
X0172693Y0206549D01*
X0172693Y0207222D02*
X0171387Y0207222D01*
X0169419Y0207253D02*
X0169419Y0204569D01*
X0169419Y0207253D02*
X0170725Y0207253D01*
X0170725Y0204569D01*
X0169419Y0204569D01*
X0169419Y0205242D02*
X0170725Y0205242D01*
X0170725Y0205915D02*
X0169419Y0205915D01*
X0169419Y0206588D02*
X0170725Y0206588D01*
X0167450Y0207253D02*
X0167450Y0204569D01*
X0167450Y0207253D02*
X0168756Y0207253D01*
X0168756Y0204569D01*
X0167450Y0204569D01*
X0167450Y0205242D02*
X0168756Y0205242D01*
X0168756Y0205915D02*
X0167450Y0205915D01*
X0167450Y0206588D02*
X0168756Y0206588D01*
X0165482Y0207253D02*
X0165482Y0204569D01*
X0165482Y0207253D02*
X0166788Y0207253D01*
X0166788Y0204569D01*
X0165482Y0204569D01*
X0165482Y0205242D02*
X0166788Y0205242D01*
X0166788Y0205915D02*
X0165482Y0205915D01*
X0165482Y0206588D02*
X0166788Y0206588D01*
X0164819Y0207253D02*
X0164819Y0204569D01*
X0163513Y0204569D01*
X0163513Y0207253D01*
X0164819Y0207253D01*
X0164819Y0205242D02*
X0163513Y0205242D01*
X0163513Y0205915D02*
X0164819Y0205915D01*
X0164819Y0206588D02*
X0163513Y0206588D01*
X0161965Y0203021D02*
X0159281Y0203021D01*
X0161965Y0203021D02*
X0161965Y0201715D01*
X0159281Y0201715D01*
X0159281Y0203021D01*
X0159281Y0202388D02*
X0161965Y0202388D01*
X0161965Y0201053D02*
X0159281Y0201053D01*
X0161965Y0201053D02*
X0161965Y0199747D01*
X0159281Y0199747D01*
X0159281Y0201053D01*
X0159281Y0200420D02*
X0161965Y0200420D01*
X0161965Y0199084D02*
X0159281Y0199084D01*
X0161965Y0199084D02*
X0161965Y0197778D01*
X0159281Y0197778D01*
X0159281Y0199084D01*
X0159281Y0198451D02*
X0161965Y0198451D01*
X0161965Y0195810D02*
X0159281Y0195810D01*
X0159281Y0197116D01*
X0161965Y0197116D01*
X0161965Y0195810D01*
X0161965Y0196483D02*
X0159281Y0196483D01*
X0159281Y0193841D02*
X0161965Y0193841D01*
X0159281Y0193841D02*
X0159281Y0195147D01*
X0161965Y0195147D01*
X0161965Y0193841D01*
X0161965Y0194514D02*
X0159281Y0194514D01*
X0164819Y0192293D02*
X0164819Y0189609D01*
X0163513Y0189609D01*
X0163513Y0192293D01*
X0164819Y0192293D01*
X0164819Y0190282D02*
X0163513Y0190282D01*
X0163513Y0190955D02*
X0164819Y0190955D01*
X0164819Y0191628D02*
X0163513Y0191628D01*
X0166788Y0192293D02*
X0166788Y0189609D01*
X0165482Y0189609D01*
X0165482Y0192293D01*
X0166788Y0192293D01*
X0166788Y0190282D02*
X0165482Y0190282D01*
X0165482Y0190955D02*
X0166788Y0190955D01*
X0166788Y0191628D02*
X0165482Y0191628D01*
X0167450Y0192293D02*
X0167450Y0189609D01*
X0167450Y0192293D02*
X0168756Y0192293D01*
X0168756Y0189609D01*
X0167450Y0189609D01*
X0167450Y0190282D02*
X0168756Y0190282D01*
X0168756Y0190955D02*
X0167450Y0190955D01*
X0167450Y0191628D02*
X0168756Y0191628D01*
X0169419Y0192293D02*
X0169419Y0189609D01*
X0169419Y0192293D02*
X0170725Y0192293D01*
X0170725Y0189609D01*
X0169419Y0189609D01*
X0169419Y0190282D02*
X0170725Y0190282D01*
X0170725Y0190955D02*
X0169419Y0190955D01*
X0169419Y0191628D02*
X0170725Y0191628D01*
X0171387Y0192293D02*
X0171387Y0189609D01*
X0171387Y0192293D02*
X0172693Y0192293D01*
X0172693Y0189609D01*
X0171387Y0189609D01*
X0171387Y0190282D02*
X0172693Y0190282D01*
X0172693Y0190955D02*
X0171387Y0190955D01*
X0171387Y0191628D02*
X0172693Y0191628D01*
X0174242Y0193841D02*
X0176926Y0193841D01*
X0174242Y0193841D02*
X0174242Y0195147D01*
X0176926Y0195147D01*
X0176926Y0193841D01*
X0176926Y0194514D02*
X0174242Y0194514D01*
X0174242Y0197116D02*
X0176926Y0197116D01*
X0176926Y0195810D01*
X0174242Y0195810D01*
X0174242Y0197116D01*
X0174242Y0196483D02*
X0176926Y0196483D01*
X0176926Y0197778D02*
X0174242Y0197778D01*
X0174242Y0199084D01*
X0176926Y0199084D01*
X0176926Y0197778D01*
X0176926Y0198451D02*
X0174242Y0198451D01*
X0174242Y0199747D02*
X0176926Y0199747D01*
X0174242Y0199747D02*
X0174242Y0201053D01*
X0176926Y0201053D01*
X0176926Y0199747D01*
X0176926Y0200420D02*
X0174242Y0200420D01*
X0174242Y0201715D02*
X0176926Y0201715D01*
X0174242Y0201715D02*
X0174242Y0203021D01*
X0176926Y0203021D01*
X0176926Y0201715D01*
X0176926Y0202388D02*
X0174242Y0202388D01*
D27*
X0213845Y0174041D03*
X0109908Y0174041D03*
X0090095Y0372575D03*
X0213845Y0372575D03*
D28*
X0046262Y0260266D02*
X0046262Y0254800D01*
X0046262Y0260266D02*
X0053224Y0260266D01*
X0053224Y0254800D01*
X0046262Y0254800D01*
X0046262Y0257141D02*
X0053224Y0257141D01*
X0053224Y0259482D02*
X0046262Y0259482D01*
X0053224Y0244243D02*
X0053224Y0238777D01*
X0046262Y0238777D01*
X0046262Y0244243D01*
X0053224Y0244243D01*
X0053224Y0241118D02*
X0046262Y0241118D01*
X0046262Y0243459D02*
X0053224Y0243459D01*
X0033224Y0244243D02*
X0033224Y0238777D01*
X0026262Y0238777D01*
X0026262Y0244243D01*
X0033224Y0244243D01*
X0033224Y0241118D02*
X0026262Y0241118D01*
X0026262Y0243459D02*
X0033224Y0243459D01*
X0026262Y0254800D02*
X0026262Y0260266D01*
X0033224Y0260266D01*
X0033224Y0254800D01*
X0026262Y0254800D01*
X0026262Y0257141D02*
X0033224Y0257141D01*
X0033224Y0259482D02*
X0026262Y0259482D01*
D29*
X0113673Y0359771D02*
X0113673Y0365811D01*
X0115013Y0365811D01*
X0115013Y0359771D01*
X0113673Y0359771D01*
X0113673Y0360430D02*
X0115013Y0360430D01*
X0115013Y0361089D02*
X0113673Y0361089D01*
X0113673Y0361748D02*
X0115013Y0361748D01*
X0115013Y0362407D02*
X0113673Y0362407D01*
X0113673Y0363066D02*
X0115013Y0363066D01*
X0115013Y0363725D02*
X0113673Y0363725D01*
X0113673Y0364384D02*
X0115013Y0364384D01*
X0115013Y0365043D02*
X0113673Y0365043D01*
X0113673Y0365702D02*
X0115013Y0365702D01*
X0115673Y0365811D02*
X0115673Y0359771D01*
X0115673Y0365811D02*
X0117013Y0365811D01*
X0117013Y0359771D01*
X0115673Y0359771D01*
X0115673Y0360430D02*
X0117013Y0360430D01*
X0117013Y0361089D02*
X0115673Y0361089D01*
X0115673Y0361748D02*
X0117013Y0361748D01*
X0117013Y0362407D02*
X0115673Y0362407D01*
X0115673Y0363066D02*
X0117013Y0363066D01*
X0117013Y0363725D02*
X0115673Y0363725D01*
X0115673Y0364384D02*
X0117013Y0364384D01*
X0117013Y0365043D02*
X0115673Y0365043D01*
X0115673Y0365702D02*
X0117013Y0365702D01*
X0117673Y0365811D02*
X0117673Y0359771D01*
X0117673Y0365811D02*
X0119013Y0365811D01*
X0119013Y0359771D01*
X0117673Y0359771D01*
X0117673Y0360430D02*
X0119013Y0360430D01*
X0119013Y0361089D02*
X0117673Y0361089D01*
X0117673Y0361748D02*
X0119013Y0361748D01*
X0119013Y0362407D02*
X0117673Y0362407D01*
X0117673Y0363066D02*
X0119013Y0363066D01*
X0119013Y0363725D02*
X0117673Y0363725D01*
X0117673Y0364384D02*
X0119013Y0364384D01*
X0119013Y0365043D02*
X0117673Y0365043D01*
X0117673Y0365702D02*
X0119013Y0365702D01*
X0119573Y0365811D02*
X0119573Y0359771D01*
X0119573Y0365811D02*
X0120913Y0365811D01*
X0120913Y0359771D01*
X0119573Y0359771D01*
X0119573Y0360430D02*
X0120913Y0360430D01*
X0120913Y0361089D02*
X0119573Y0361089D01*
X0119573Y0361748D02*
X0120913Y0361748D01*
X0120913Y0362407D02*
X0119573Y0362407D01*
X0119573Y0363066D02*
X0120913Y0363066D01*
X0120913Y0363725D02*
X0119573Y0363725D01*
X0119573Y0364384D02*
X0120913Y0364384D01*
X0120913Y0365043D02*
X0119573Y0365043D01*
X0119573Y0365702D02*
X0120913Y0365702D01*
X0121573Y0365811D02*
X0121573Y0359771D01*
X0121573Y0365811D02*
X0122913Y0365811D01*
X0122913Y0359771D01*
X0121573Y0359771D01*
X0121573Y0360430D02*
X0122913Y0360430D01*
X0122913Y0361089D02*
X0121573Y0361089D01*
X0121573Y0361748D02*
X0122913Y0361748D01*
X0122913Y0362407D02*
X0121573Y0362407D01*
X0121573Y0363066D02*
X0122913Y0363066D01*
X0122913Y0363725D02*
X0121573Y0363725D01*
X0121573Y0364384D02*
X0122913Y0364384D01*
X0122913Y0365043D02*
X0121573Y0365043D01*
X0121573Y0365702D02*
X0122913Y0365702D01*
X0123573Y0365811D02*
X0123573Y0359771D01*
X0123573Y0365811D02*
X0124913Y0365811D01*
X0124913Y0359771D01*
X0123573Y0359771D01*
X0123573Y0360430D02*
X0124913Y0360430D01*
X0124913Y0361089D02*
X0123573Y0361089D01*
X0123573Y0361748D02*
X0124913Y0361748D01*
X0124913Y0362407D02*
X0123573Y0362407D01*
X0123573Y0363066D02*
X0124913Y0363066D01*
X0124913Y0363725D02*
X0123573Y0363725D01*
X0123573Y0364384D02*
X0124913Y0364384D01*
X0124913Y0365043D02*
X0123573Y0365043D01*
X0123573Y0365702D02*
X0124913Y0365702D01*
X0125473Y0365811D02*
X0125473Y0359771D01*
X0125473Y0365811D02*
X0126813Y0365811D01*
X0126813Y0359771D01*
X0125473Y0359771D01*
X0125473Y0360430D02*
X0126813Y0360430D01*
X0126813Y0361089D02*
X0125473Y0361089D01*
X0125473Y0361748D02*
X0126813Y0361748D01*
X0126813Y0362407D02*
X0125473Y0362407D01*
X0125473Y0363066D02*
X0126813Y0363066D01*
X0126813Y0363725D02*
X0125473Y0363725D01*
X0125473Y0364384D02*
X0126813Y0364384D01*
X0126813Y0365043D02*
X0125473Y0365043D01*
X0125473Y0365702D02*
X0126813Y0365702D01*
X0127473Y0365811D02*
X0127473Y0359771D01*
X0127473Y0365811D02*
X0128813Y0365811D01*
X0128813Y0359771D01*
X0127473Y0359771D01*
X0127473Y0360430D02*
X0128813Y0360430D01*
X0128813Y0361089D02*
X0127473Y0361089D01*
X0127473Y0361748D02*
X0128813Y0361748D01*
X0128813Y0362407D02*
X0127473Y0362407D01*
X0127473Y0363066D02*
X0128813Y0363066D01*
X0128813Y0363725D02*
X0127473Y0363725D01*
X0127473Y0364384D02*
X0128813Y0364384D01*
X0128813Y0365043D02*
X0127473Y0365043D01*
X0127473Y0365702D02*
X0128813Y0365702D01*
X0129473Y0365811D02*
X0129473Y0359771D01*
X0129473Y0365811D02*
X0130813Y0365811D01*
X0130813Y0359771D01*
X0129473Y0359771D01*
X0129473Y0360430D02*
X0130813Y0360430D01*
X0130813Y0361089D02*
X0129473Y0361089D01*
X0129473Y0361748D02*
X0130813Y0361748D01*
X0130813Y0362407D02*
X0129473Y0362407D01*
X0129473Y0363066D02*
X0130813Y0363066D01*
X0130813Y0363725D02*
X0129473Y0363725D01*
X0129473Y0364384D02*
X0130813Y0364384D01*
X0130813Y0365043D02*
X0129473Y0365043D01*
X0129473Y0365702D02*
X0130813Y0365702D01*
X0131373Y0365811D02*
X0131373Y0359771D01*
X0131373Y0365811D02*
X0132713Y0365811D01*
X0132713Y0359771D01*
X0131373Y0359771D01*
X0131373Y0360430D02*
X0132713Y0360430D01*
X0132713Y0361089D02*
X0131373Y0361089D01*
X0131373Y0361748D02*
X0132713Y0361748D01*
X0132713Y0362407D02*
X0131373Y0362407D01*
X0131373Y0363066D02*
X0132713Y0363066D01*
X0132713Y0363725D02*
X0131373Y0363725D01*
X0131373Y0364384D02*
X0132713Y0364384D01*
X0132713Y0365043D02*
X0131373Y0365043D01*
X0131373Y0365702D02*
X0132713Y0365702D01*
X0133373Y0365811D02*
X0133373Y0359771D01*
X0133373Y0365811D02*
X0134713Y0365811D01*
X0134713Y0359771D01*
X0133373Y0359771D01*
X0133373Y0360430D02*
X0134713Y0360430D01*
X0134713Y0361089D02*
X0133373Y0361089D01*
X0133373Y0361748D02*
X0134713Y0361748D01*
X0134713Y0362407D02*
X0133373Y0362407D01*
X0133373Y0363066D02*
X0134713Y0363066D01*
X0134713Y0363725D02*
X0133373Y0363725D01*
X0133373Y0364384D02*
X0134713Y0364384D01*
X0134713Y0365043D02*
X0133373Y0365043D01*
X0133373Y0365702D02*
X0134713Y0365702D01*
X0135373Y0365811D02*
X0135373Y0359771D01*
X0135373Y0365811D02*
X0136713Y0365811D01*
X0136713Y0359771D01*
X0135373Y0359771D01*
X0135373Y0360430D02*
X0136713Y0360430D01*
X0136713Y0361089D02*
X0135373Y0361089D01*
X0135373Y0361748D02*
X0136713Y0361748D01*
X0136713Y0362407D02*
X0135373Y0362407D01*
X0135373Y0363066D02*
X0136713Y0363066D01*
X0136713Y0363725D02*
X0135373Y0363725D01*
X0135373Y0364384D02*
X0136713Y0364384D01*
X0136713Y0365043D02*
X0135373Y0365043D01*
X0135373Y0365702D02*
X0136713Y0365702D01*
X0137273Y0365811D02*
X0137273Y0359771D01*
X0137273Y0365811D02*
X0138613Y0365811D01*
X0138613Y0359771D01*
X0137273Y0359771D01*
X0137273Y0360430D02*
X0138613Y0360430D01*
X0138613Y0361089D02*
X0137273Y0361089D01*
X0137273Y0361748D02*
X0138613Y0361748D01*
X0138613Y0362407D02*
X0137273Y0362407D01*
X0137273Y0363066D02*
X0138613Y0363066D01*
X0138613Y0363725D02*
X0137273Y0363725D01*
X0137273Y0364384D02*
X0138613Y0364384D01*
X0138613Y0365043D02*
X0137273Y0365043D01*
X0137273Y0365702D02*
X0138613Y0365702D01*
X0139273Y0365811D02*
X0139273Y0359771D01*
X0139273Y0365811D02*
X0140613Y0365811D01*
X0140613Y0359771D01*
X0139273Y0359771D01*
X0139273Y0360430D02*
X0140613Y0360430D01*
X0140613Y0361089D02*
X0139273Y0361089D01*
X0139273Y0361748D02*
X0140613Y0361748D01*
X0140613Y0362407D02*
X0139273Y0362407D01*
X0139273Y0363066D02*
X0140613Y0363066D01*
X0140613Y0363725D02*
X0139273Y0363725D01*
X0139273Y0364384D02*
X0140613Y0364384D01*
X0140613Y0365043D02*
X0139273Y0365043D01*
X0139273Y0365702D02*
X0140613Y0365702D01*
X0141273Y0365811D02*
X0141273Y0359771D01*
X0141273Y0365811D02*
X0142613Y0365811D01*
X0142613Y0359771D01*
X0141273Y0359771D01*
X0141273Y0360430D02*
X0142613Y0360430D01*
X0142613Y0361089D02*
X0141273Y0361089D01*
X0141273Y0361748D02*
X0142613Y0361748D01*
X0142613Y0362407D02*
X0141273Y0362407D01*
X0141273Y0363066D02*
X0142613Y0363066D01*
X0142613Y0363725D02*
X0141273Y0363725D01*
X0141273Y0364384D02*
X0142613Y0364384D01*
X0142613Y0365043D02*
X0141273Y0365043D01*
X0141273Y0365702D02*
X0142613Y0365702D01*
X0143173Y0365811D02*
X0143173Y0359771D01*
X0143173Y0365811D02*
X0144513Y0365811D01*
X0144513Y0359771D01*
X0143173Y0359771D01*
X0143173Y0360430D02*
X0144513Y0360430D01*
X0144513Y0361089D02*
X0143173Y0361089D01*
X0143173Y0361748D02*
X0144513Y0361748D01*
X0144513Y0362407D02*
X0143173Y0362407D01*
X0143173Y0363066D02*
X0144513Y0363066D01*
X0144513Y0363725D02*
X0143173Y0363725D01*
X0143173Y0364384D02*
X0144513Y0364384D01*
X0144513Y0365043D02*
X0143173Y0365043D01*
X0143173Y0365702D02*
X0144513Y0365702D01*
X0145173Y0365811D02*
X0145173Y0359771D01*
X0145173Y0365811D02*
X0146513Y0365811D01*
X0146513Y0359771D01*
X0145173Y0359771D01*
X0145173Y0360430D02*
X0146513Y0360430D01*
X0146513Y0361089D02*
X0145173Y0361089D01*
X0145173Y0361748D02*
X0146513Y0361748D01*
X0146513Y0362407D02*
X0145173Y0362407D01*
X0145173Y0363066D02*
X0146513Y0363066D01*
X0146513Y0363725D02*
X0145173Y0363725D01*
X0145173Y0364384D02*
X0146513Y0364384D01*
X0146513Y0365043D02*
X0145173Y0365043D01*
X0145173Y0365702D02*
X0146513Y0365702D01*
X0147173Y0365811D02*
X0147173Y0359771D01*
X0147173Y0365811D02*
X0148513Y0365811D01*
X0148513Y0359771D01*
X0147173Y0359771D01*
X0147173Y0360430D02*
X0148513Y0360430D01*
X0148513Y0361089D02*
X0147173Y0361089D01*
X0147173Y0361748D02*
X0148513Y0361748D01*
X0148513Y0362407D02*
X0147173Y0362407D01*
X0147173Y0363066D02*
X0148513Y0363066D01*
X0148513Y0363725D02*
X0147173Y0363725D01*
X0147173Y0364384D02*
X0148513Y0364384D01*
X0148513Y0365043D02*
X0147173Y0365043D01*
X0147173Y0365702D02*
X0148513Y0365702D01*
X0149073Y0365811D02*
X0149073Y0359771D01*
X0149073Y0365811D02*
X0150413Y0365811D01*
X0150413Y0359771D01*
X0149073Y0359771D01*
X0149073Y0360430D02*
X0150413Y0360430D01*
X0150413Y0361089D02*
X0149073Y0361089D01*
X0149073Y0361748D02*
X0150413Y0361748D01*
X0150413Y0362407D02*
X0149073Y0362407D01*
X0149073Y0363066D02*
X0150413Y0363066D01*
X0150413Y0363725D02*
X0149073Y0363725D01*
X0149073Y0364384D02*
X0150413Y0364384D01*
X0150413Y0365043D02*
X0149073Y0365043D01*
X0149073Y0365702D02*
X0150413Y0365702D01*
X0151073Y0365811D02*
X0151073Y0359771D01*
X0151073Y0365811D02*
X0152413Y0365811D01*
X0152413Y0359771D01*
X0151073Y0359771D01*
X0151073Y0360430D02*
X0152413Y0360430D01*
X0152413Y0361089D02*
X0151073Y0361089D01*
X0151073Y0361748D02*
X0152413Y0361748D01*
X0152413Y0362407D02*
X0151073Y0362407D01*
X0151073Y0363066D02*
X0152413Y0363066D01*
X0152413Y0363725D02*
X0151073Y0363725D01*
X0151073Y0364384D02*
X0152413Y0364384D01*
X0152413Y0365043D02*
X0151073Y0365043D01*
X0151073Y0365702D02*
X0152413Y0365702D01*
X0153073Y0365811D02*
X0153073Y0359771D01*
X0153073Y0365811D02*
X0154413Y0365811D01*
X0154413Y0359771D01*
X0153073Y0359771D01*
X0153073Y0360430D02*
X0154413Y0360430D01*
X0154413Y0361089D02*
X0153073Y0361089D01*
X0153073Y0361748D02*
X0154413Y0361748D01*
X0154413Y0362407D02*
X0153073Y0362407D01*
X0153073Y0363066D02*
X0154413Y0363066D01*
X0154413Y0363725D02*
X0153073Y0363725D01*
X0153073Y0364384D02*
X0154413Y0364384D01*
X0154413Y0365043D02*
X0153073Y0365043D01*
X0153073Y0365702D02*
X0154413Y0365702D01*
X0155073Y0365811D02*
X0155073Y0359771D01*
X0155073Y0365811D02*
X0156413Y0365811D01*
X0156413Y0359771D01*
X0155073Y0359771D01*
X0155073Y0360430D02*
X0156413Y0360430D01*
X0156413Y0361089D02*
X0155073Y0361089D01*
X0155073Y0361748D02*
X0156413Y0361748D01*
X0156413Y0362407D02*
X0155073Y0362407D01*
X0155073Y0363066D02*
X0156413Y0363066D01*
X0156413Y0363725D02*
X0155073Y0363725D01*
X0155073Y0364384D02*
X0156413Y0364384D01*
X0156413Y0365043D02*
X0155073Y0365043D01*
X0155073Y0365702D02*
X0156413Y0365702D01*
X0156973Y0365811D02*
X0156973Y0359771D01*
X0156973Y0365811D02*
X0158313Y0365811D01*
X0158313Y0359771D01*
X0156973Y0359771D01*
X0156973Y0360430D02*
X0158313Y0360430D01*
X0158313Y0361089D02*
X0156973Y0361089D01*
X0156973Y0361748D02*
X0158313Y0361748D01*
X0158313Y0362407D02*
X0156973Y0362407D01*
X0156973Y0363066D02*
X0158313Y0363066D01*
X0158313Y0363725D02*
X0156973Y0363725D01*
X0156973Y0364384D02*
X0158313Y0364384D01*
X0158313Y0365043D02*
X0156973Y0365043D01*
X0156973Y0365702D02*
X0158313Y0365702D01*
X0158973Y0365811D02*
X0158973Y0359771D01*
X0158973Y0365811D02*
X0160313Y0365811D01*
X0160313Y0359771D01*
X0158973Y0359771D01*
X0158973Y0360430D02*
X0160313Y0360430D01*
X0160313Y0361089D02*
X0158973Y0361089D01*
X0158973Y0361748D02*
X0160313Y0361748D01*
X0160313Y0362407D02*
X0158973Y0362407D01*
X0158973Y0363066D02*
X0160313Y0363066D01*
X0160313Y0363725D02*
X0158973Y0363725D01*
X0158973Y0364384D02*
X0160313Y0364384D01*
X0160313Y0365043D02*
X0158973Y0365043D01*
X0158973Y0365702D02*
X0160313Y0365702D01*
X0160973Y0365811D02*
X0160973Y0359771D01*
X0160973Y0365811D02*
X0162313Y0365811D01*
X0162313Y0359771D01*
X0160973Y0359771D01*
X0160973Y0360430D02*
X0162313Y0360430D01*
X0162313Y0361089D02*
X0160973Y0361089D01*
X0160973Y0361748D02*
X0162313Y0361748D01*
X0162313Y0362407D02*
X0160973Y0362407D01*
X0160973Y0363066D02*
X0162313Y0363066D01*
X0162313Y0363725D02*
X0160973Y0363725D01*
X0160973Y0364384D02*
X0162313Y0364384D01*
X0162313Y0365043D02*
X0160973Y0365043D01*
X0160973Y0365702D02*
X0162313Y0365702D01*
X0162873Y0365811D02*
X0162873Y0359771D01*
X0162873Y0365811D02*
X0164213Y0365811D01*
X0164213Y0359771D01*
X0162873Y0359771D01*
X0162873Y0360430D02*
X0164213Y0360430D01*
X0164213Y0361089D02*
X0162873Y0361089D01*
X0162873Y0361748D02*
X0164213Y0361748D01*
X0164213Y0362407D02*
X0162873Y0362407D01*
X0162873Y0363066D02*
X0164213Y0363066D01*
X0164213Y0363725D02*
X0162873Y0363725D01*
X0162873Y0364384D02*
X0164213Y0364384D01*
X0164213Y0365043D02*
X0162873Y0365043D01*
X0162873Y0365702D02*
X0164213Y0365702D01*
X0164873Y0365811D02*
X0164873Y0359771D01*
X0164873Y0365811D02*
X0166213Y0365811D01*
X0166213Y0359771D01*
X0164873Y0359771D01*
X0164873Y0360430D02*
X0166213Y0360430D01*
X0166213Y0361089D02*
X0164873Y0361089D01*
X0164873Y0361748D02*
X0166213Y0361748D01*
X0166213Y0362407D02*
X0164873Y0362407D01*
X0164873Y0363066D02*
X0166213Y0363066D01*
X0166213Y0363725D02*
X0164873Y0363725D01*
X0164873Y0364384D02*
X0166213Y0364384D01*
X0166213Y0365043D02*
X0164873Y0365043D01*
X0164873Y0365702D02*
X0166213Y0365702D01*
X0166873Y0365811D02*
X0166873Y0359771D01*
X0166873Y0365811D02*
X0168213Y0365811D01*
X0168213Y0359771D01*
X0166873Y0359771D01*
X0166873Y0360430D02*
X0168213Y0360430D01*
X0168213Y0361089D02*
X0166873Y0361089D01*
X0166873Y0361748D02*
X0168213Y0361748D01*
X0168213Y0362407D02*
X0166873Y0362407D01*
X0166873Y0363066D02*
X0168213Y0363066D01*
X0168213Y0363725D02*
X0166873Y0363725D01*
X0166873Y0364384D02*
X0168213Y0364384D01*
X0168213Y0365043D02*
X0166873Y0365043D01*
X0166873Y0365702D02*
X0168213Y0365702D01*
X0168773Y0365811D02*
X0168773Y0359771D01*
X0168773Y0365811D02*
X0170113Y0365811D01*
X0170113Y0359771D01*
X0168773Y0359771D01*
X0168773Y0360430D02*
X0170113Y0360430D01*
X0170113Y0361089D02*
X0168773Y0361089D01*
X0168773Y0361748D02*
X0170113Y0361748D01*
X0170113Y0362407D02*
X0168773Y0362407D01*
X0168773Y0363066D02*
X0170113Y0363066D01*
X0170113Y0363725D02*
X0168773Y0363725D01*
X0168773Y0364384D02*
X0170113Y0364384D01*
X0170113Y0365043D02*
X0168773Y0365043D01*
X0168773Y0365702D02*
X0170113Y0365702D01*
X0170773Y0365811D02*
X0170773Y0359771D01*
X0170773Y0365811D02*
X0172113Y0365811D01*
X0172113Y0359771D01*
X0170773Y0359771D01*
X0170773Y0360430D02*
X0172113Y0360430D01*
X0172113Y0361089D02*
X0170773Y0361089D01*
X0170773Y0361748D02*
X0172113Y0361748D01*
X0172113Y0362407D02*
X0170773Y0362407D01*
X0170773Y0363066D02*
X0172113Y0363066D01*
X0172113Y0363725D02*
X0170773Y0363725D01*
X0170773Y0364384D02*
X0172113Y0364384D01*
X0172113Y0365043D02*
X0170773Y0365043D01*
X0170773Y0365702D02*
X0172113Y0365702D01*
X0172773Y0365811D02*
X0172773Y0359771D01*
X0172773Y0365811D02*
X0174113Y0365811D01*
X0174113Y0359771D01*
X0172773Y0359771D01*
X0172773Y0360430D02*
X0174113Y0360430D01*
X0174113Y0361089D02*
X0172773Y0361089D01*
X0172773Y0361748D02*
X0174113Y0361748D01*
X0174113Y0362407D02*
X0172773Y0362407D01*
X0172773Y0363066D02*
X0174113Y0363066D01*
X0174113Y0363725D02*
X0172773Y0363725D01*
X0172773Y0364384D02*
X0174113Y0364384D01*
X0174113Y0365043D02*
X0172773Y0365043D01*
X0172773Y0365702D02*
X0174113Y0365702D01*
X0174673Y0365811D02*
X0174673Y0359771D01*
X0174673Y0365811D02*
X0176013Y0365811D01*
X0176013Y0359771D01*
X0174673Y0359771D01*
X0174673Y0360430D02*
X0176013Y0360430D01*
X0176013Y0361089D02*
X0174673Y0361089D01*
X0174673Y0361748D02*
X0176013Y0361748D01*
X0176013Y0362407D02*
X0174673Y0362407D01*
X0174673Y0363066D02*
X0176013Y0363066D01*
X0176013Y0363725D02*
X0174673Y0363725D01*
X0174673Y0364384D02*
X0176013Y0364384D01*
X0176013Y0365043D02*
X0174673Y0365043D01*
X0174673Y0365702D02*
X0176013Y0365702D01*
X0176673Y0365811D02*
X0176673Y0359771D01*
X0176673Y0365811D02*
X0178013Y0365811D01*
X0178013Y0359771D01*
X0176673Y0359771D01*
X0176673Y0360430D02*
X0178013Y0360430D01*
X0178013Y0361089D02*
X0176673Y0361089D01*
X0176673Y0361748D02*
X0178013Y0361748D01*
X0178013Y0362407D02*
X0176673Y0362407D01*
X0176673Y0363066D02*
X0178013Y0363066D01*
X0178013Y0363725D02*
X0176673Y0363725D01*
X0176673Y0364384D02*
X0178013Y0364384D01*
X0178013Y0365043D02*
X0176673Y0365043D01*
X0176673Y0365702D02*
X0178013Y0365702D01*
X0178673Y0365811D02*
X0178673Y0359771D01*
X0178673Y0365811D02*
X0180013Y0365811D01*
X0180013Y0359771D01*
X0178673Y0359771D01*
X0178673Y0360430D02*
X0180013Y0360430D01*
X0180013Y0361089D02*
X0178673Y0361089D01*
X0178673Y0361748D02*
X0180013Y0361748D01*
X0180013Y0362407D02*
X0178673Y0362407D01*
X0178673Y0363066D02*
X0180013Y0363066D01*
X0180013Y0363725D02*
X0178673Y0363725D01*
X0178673Y0364384D02*
X0180013Y0364384D01*
X0180013Y0365043D02*
X0178673Y0365043D01*
X0178673Y0365702D02*
X0180013Y0365702D01*
X0180573Y0365811D02*
X0180573Y0359771D01*
X0180573Y0365811D02*
X0181913Y0365811D01*
X0181913Y0359771D01*
X0180573Y0359771D01*
X0180573Y0360430D02*
X0181913Y0360430D01*
X0181913Y0361089D02*
X0180573Y0361089D01*
X0180573Y0361748D02*
X0181913Y0361748D01*
X0181913Y0362407D02*
X0180573Y0362407D01*
X0180573Y0363066D02*
X0181913Y0363066D01*
X0181913Y0363725D02*
X0180573Y0363725D01*
X0180573Y0364384D02*
X0181913Y0364384D01*
X0181913Y0365043D02*
X0180573Y0365043D01*
X0180573Y0365702D02*
X0181913Y0365702D01*
X0182573Y0365811D02*
X0182573Y0359771D01*
X0182573Y0365811D02*
X0183913Y0365811D01*
X0183913Y0359771D01*
X0182573Y0359771D01*
X0182573Y0360430D02*
X0183913Y0360430D01*
X0183913Y0361089D02*
X0182573Y0361089D01*
X0182573Y0361748D02*
X0183913Y0361748D01*
X0183913Y0362407D02*
X0182573Y0362407D01*
X0182573Y0363066D02*
X0183913Y0363066D01*
X0183913Y0363725D02*
X0182573Y0363725D01*
X0182573Y0364384D02*
X0183913Y0364384D01*
X0183913Y0365043D02*
X0182573Y0365043D01*
X0182573Y0365702D02*
X0183913Y0365702D01*
X0184573Y0365811D02*
X0184573Y0359771D01*
X0184573Y0365811D02*
X0185913Y0365811D01*
X0185913Y0359771D01*
X0184573Y0359771D01*
X0184573Y0360430D02*
X0185913Y0360430D01*
X0185913Y0361089D02*
X0184573Y0361089D01*
X0184573Y0361748D02*
X0185913Y0361748D01*
X0185913Y0362407D02*
X0184573Y0362407D01*
X0184573Y0363066D02*
X0185913Y0363066D01*
X0185913Y0363725D02*
X0184573Y0363725D01*
X0184573Y0364384D02*
X0185913Y0364384D01*
X0185913Y0365043D02*
X0184573Y0365043D01*
X0184573Y0365702D02*
X0185913Y0365702D01*
X0186473Y0365811D02*
X0186473Y0359771D01*
X0186473Y0365811D02*
X0187813Y0365811D01*
X0187813Y0359771D01*
X0186473Y0359771D01*
X0186473Y0360430D02*
X0187813Y0360430D01*
X0187813Y0361089D02*
X0186473Y0361089D01*
X0186473Y0361748D02*
X0187813Y0361748D01*
X0187813Y0362407D02*
X0186473Y0362407D01*
X0186473Y0363066D02*
X0187813Y0363066D01*
X0187813Y0363725D02*
X0186473Y0363725D01*
X0186473Y0364384D02*
X0187813Y0364384D01*
X0187813Y0365043D02*
X0186473Y0365043D01*
X0186473Y0365702D02*
X0187813Y0365702D01*
X0188473Y0365811D02*
X0188473Y0359771D01*
X0188473Y0365811D02*
X0189813Y0365811D01*
X0189813Y0359771D01*
X0188473Y0359771D01*
X0188473Y0360430D02*
X0189813Y0360430D01*
X0189813Y0361089D02*
X0188473Y0361089D01*
X0188473Y0361748D02*
X0189813Y0361748D01*
X0189813Y0362407D02*
X0188473Y0362407D01*
X0188473Y0363066D02*
X0189813Y0363066D01*
X0189813Y0363725D02*
X0188473Y0363725D01*
X0188473Y0364384D02*
X0189813Y0364384D01*
X0189813Y0365043D02*
X0188473Y0365043D01*
X0188473Y0365702D02*
X0189813Y0365702D01*
X0190473Y0365811D02*
X0190473Y0359771D01*
X0190473Y0365811D02*
X0191813Y0365811D01*
X0191813Y0359771D01*
X0190473Y0359771D01*
X0190473Y0360430D02*
X0191813Y0360430D01*
X0191813Y0361089D02*
X0190473Y0361089D01*
X0190473Y0361748D02*
X0191813Y0361748D01*
X0191813Y0362407D02*
X0190473Y0362407D01*
X0190473Y0363066D02*
X0191813Y0363066D01*
X0191813Y0363725D02*
X0190473Y0363725D01*
X0190473Y0364384D02*
X0191813Y0364384D01*
X0191813Y0365043D02*
X0190473Y0365043D01*
X0190473Y0365702D02*
X0191813Y0365702D01*
D30*
X0195501Y0371749D02*
X0201585Y0371749D01*
X0195501Y0371749D02*
X0195501Y0379433D01*
X0201585Y0379433D01*
X0201585Y0371749D01*
X0201585Y0373565D02*
X0195501Y0373565D01*
X0195501Y0375381D02*
X0201585Y0375381D01*
X0201585Y0377197D02*
X0195501Y0377197D01*
X0195501Y0379013D02*
X0201585Y0379013D01*
X0109985Y0371749D02*
X0103901Y0371749D01*
X0103901Y0379433D01*
X0109985Y0379433D01*
X0109985Y0371749D01*
X0109985Y0373565D02*
X0103901Y0373565D01*
X0103901Y0375381D02*
X0109985Y0375381D01*
X0109985Y0377197D02*
X0103901Y0377197D01*
X0103901Y0379013D02*
X0109985Y0379013D01*
D31*
X0085904Y0215944D02*
X0085904Y0214756D01*
X0085904Y0215944D02*
X0088274Y0215944D01*
X0088274Y0214756D01*
X0085904Y0214756D01*
X0085904Y0215942D02*
X0088274Y0215942D01*
X0085904Y0210826D02*
X0085904Y0209638D01*
X0085904Y0210826D02*
X0088274Y0210826D01*
X0088274Y0209638D01*
X0085904Y0209638D01*
X0085904Y0210824D02*
X0088274Y0210824D01*
X0079212Y0210826D02*
X0079212Y0209638D01*
X0079212Y0210826D02*
X0081582Y0210826D01*
X0081582Y0209638D01*
X0079212Y0209638D01*
X0079212Y0210824D02*
X0081582Y0210824D01*
X0079212Y0212197D02*
X0079212Y0213385D01*
X0081582Y0213385D01*
X0081582Y0212197D01*
X0079212Y0212197D01*
X0079212Y0213383D02*
X0081582Y0213383D01*
X0078818Y0214756D02*
X0078818Y0215944D01*
X0081582Y0215944D01*
X0081582Y0214756D01*
X0078818Y0214756D01*
X0078818Y0215942D02*
X0081582Y0215942D01*
D32*
X0158743Y0255291D03*
X0168743Y0255291D03*
X0178743Y0255291D03*
X0188743Y0255291D03*
D33*
X0243743Y0365291D03*
X0243743Y0375291D03*
X0243743Y0385291D03*
D34*
X0194993Y0347791D03*
X0194993Y0340291D03*
X0162493Y0300291D03*
X0162493Y0294041D03*
X0152493Y0290291D03*
X0147493Y0280291D03*
X0138743Y0275291D03*
X0136243Y0247181D03*
X0134993Y0314041D03*
X0157493Y0330291D03*
X0142493Y0345291D03*
D35*
X0241890Y0219793D02*
X0246620Y0219793D01*
X0246620Y0213881D01*
X0241890Y0213881D01*
X0241890Y0219793D01*
X0241890Y0218611D02*
X0246620Y0218611D01*
X0247471Y0192952D02*
X0252201Y0192952D01*
X0252201Y0187040D01*
X0247471Y0187040D01*
X0247471Y0192952D01*
X0247471Y0191770D02*
X0252201Y0191770D01*
X0263219Y0191505D02*
X0267949Y0191505D01*
X0267949Y0185593D01*
X0263219Y0185593D01*
X0263219Y0191505D01*
X0263219Y0190323D02*
X0267949Y0190323D01*
X0275030Y0185593D02*
X0279760Y0185593D01*
X0275030Y0185593D02*
X0275030Y0191505D01*
X0279760Y0191505D01*
X0279760Y0185593D01*
X0279760Y0190323D02*
X0275030Y0190323D01*
D36*
X0283694Y0202791D03*
X0256135Y0202791D03*
D37*
X0110733Y0203431D02*
X0104253Y0203431D01*
X0104253Y0193431D02*
X0110733Y0193431D01*
X0056243Y0222051D02*
X0056243Y0228531D01*
X0046243Y0228531D02*
X0046243Y0222051D01*
X0036243Y0222051D02*
X0036243Y0228531D01*
D38*
X0116367Y0268499D02*
X0116274Y0268763D01*
X0116243Y0269041D01*
X0116243Y0274041D01*
X0116274Y0274319D01*
X0116367Y0274584D01*
X0116516Y0274821D01*
X0116714Y0275019D01*
X0116951Y0275168D01*
X0117215Y0275260D01*
X0117493Y0275291D01*
X0124993Y0275291D01*
X0125271Y0275260D01*
X0125535Y0275168D01*
X0125772Y0275019D01*
X0125970Y0274821D01*
X0126119Y0274584D01*
X0126212Y0274319D01*
X0126243Y0274041D01*
X0126243Y0269041D01*
X0126212Y0268763D01*
X0126119Y0268499D01*
X0125970Y0268262D01*
X0125772Y0268064D01*
X0125535Y0267915D01*
X0125271Y0267823D01*
X0124993Y0267791D01*
X0117493Y0267791D01*
X0117215Y0267823D01*
X0116951Y0267915D01*
X0116714Y0268064D01*
X0116516Y0268262D01*
X0116367Y0268499D01*
X0116438Y0268386D02*
X0126048Y0268386D01*
X0126225Y0268885D02*
X0116261Y0268885D01*
X0116243Y0269383D02*
X0126243Y0269383D01*
X0126243Y0269882D02*
X0116243Y0269882D01*
X0116243Y0270380D02*
X0126243Y0270380D01*
X0126243Y0270879D02*
X0116243Y0270879D01*
X0116243Y0271377D02*
X0126243Y0271377D01*
X0126243Y0271876D02*
X0116243Y0271876D01*
X0116243Y0272374D02*
X0126243Y0272374D01*
X0126243Y0272873D02*
X0116243Y0272873D01*
X0116243Y0273371D02*
X0126243Y0273371D01*
X0126243Y0273870D02*
X0116243Y0273870D01*
X0116291Y0274368D02*
X0126195Y0274368D01*
X0125924Y0274867D02*
X0116562Y0274867D01*
X0117029Y0267888D02*
X0125457Y0267888D01*
D39*
X0126164Y0266261D02*
X0126164Y0263667D01*
X0124196Y0263667D02*
X0124196Y0266261D01*
X0122227Y0266261D02*
X0122227Y0263667D01*
X0120259Y0263667D02*
X0120259Y0266261D01*
X0118290Y0266261D02*
X0118290Y0263667D01*
X0116322Y0263667D02*
X0116322Y0266261D01*
X0114550Y0268589D02*
X0111401Y0268589D01*
X0111794Y0274494D02*
X0114550Y0274494D01*
X0116322Y0277053D02*
X0116322Y0279647D01*
X0118290Y0279647D02*
X0118290Y0277053D01*
X0120259Y0277053D02*
X0120259Y0279647D01*
X0122227Y0279647D02*
X0122227Y0277053D01*
X0124196Y0277053D02*
X0124196Y0279647D01*
X0126164Y0279647D02*
X0126164Y0277053D01*
X0127936Y0274494D02*
X0130692Y0274494D01*
X0130692Y0268589D02*
X0127936Y0268589D01*
D40*
X0122146Y0143552D02*
X0122146Y0130770D01*
X0122146Y0143552D02*
X0127840Y0143552D01*
X0127840Y0130770D01*
X0122146Y0130770D01*
X0122146Y0132567D02*
X0127840Y0132567D01*
X0127840Y0134364D02*
X0122146Y0134364D01*
X0122146Y0136161D02*
X0127840Y0136161D01*
X0127840Y0137958D02*
X0122146Y0137958D01*
X0122146Y0139755D02*
X0127840Y0139755D01*
X0127840Y0141552D02*
X0122146Y0141552D01*
X0122146Y0143349D02*
X0127840Y0143349D01*
X0132146Y0143552D02*
X0132146Y0130770D01*
X0132146Y0143552D02*
X0137840Y0143552D01*
X0137840Y0130770D01*
X0132146Y0130770D01*
X0132146Y0132567D02*
X0137840Y0132567D01*
X0137840Y0134364D02*
X0132146Y0134364D01*
X0132146Y0136161D02*
X0137840Y0136161D01*
X0137840Y0137958D02*
X0132146Y0137958D01*
X0132146Y0139755D02*
X0137840Y0139755D01*
X0137840Y0141552D02*
X0132146Y0141552D01*
X0132146Y0143349D02*
X0137840Y0143349D01*
X0142146Y0143552D02*
X0142146Y0130770D01*
X0142146Y0143552D02*
X0147840Y0143552D01*
X0147840Y0130770D01*
X0142146Y0130770D01*
X0142146Y0132567D02*
X0147840Y0132567D01*
X0147840Y0134364D02*
X0142146Y0134364D01*
X0142146Y0136161D02*
X0147840Y0136161D01*
X0147840Y0137958D02*
X0142146Y0137958D01*
X0142146Y0139755D02*
X0147840Y0139755D01*
X0147840Y0141552D02*
X0142146Y0141552D01*
X0142146Y0143349D02*
X0147840Y0143349D01*
X0152146Y0143552D02*
X0152146Y0130770D01*
X0152146Y0143552D02*
X0157840Y0143552D01*
X0157840Y0130770D01*
X0152146Y0130770D01*
X0152146Y0132567D02*
X0157840Y0132567D01*
X0157840Y0134364D02*
X0152146Y0134364D01*
X0152146Y0136161D02*
X0157840Y0136161D01*
X0157840Y0137958D02*
X0152146Y0137958D01*
X0152146Y0139755D02*
X0157840Y0139755D01*
X0157840Y0141552D02*
X0152146Y0141552D01*
X0152146Y0143349D02*
X0157840Y0143349D01*
X0162146Y0143552D02*
X0162146Y0130770D01*
X0162146Y0143552D02*
X0167840Y0143552D01*
X0167840Y0130770D01*
X0162146Y0130770D01*
X0162146Y0132567D02*
X0167840Y0132567D01*
X0167840Y0134364D02*
X0162146Y0134364D01*
X0162146Y0136161D02*
X0167840Y0136161D01*
X0167840Y0137958D02*
X0162146Y0137958D01*
X0162146Y0139755D02*
X0167840Y0139755D01*
X0167840Y0141552D02*
X0162146Y0141552D01*
X0162146Y0143349D02*
X0167840Y0143349D01*
X0172146Y0143552D02*
X0172146Y0130770D01*
X0172146Y0143552D02*
X0177840Y0143552D01*
X0177840Y0130770D01*
X0172146Y0130770D01*
X0172146Y0132567D02*
X0177840Y0132567D01*
X0177840Y0134364D02*
X0172146Y0134364D01*
X0172146Y0136161D02*
X0177840Y0136161D01*
X0177840Y0137958D02*
X0172146Y0137958D01*
X0172146Y0139755D02*
X0177840Y0139755D01*
X0177840Y0141552D02*
X0172146Y0141552D01*
X0172146Y0143349D02*
X0177840Y0143349D01*
X0182146Y0143552D02*
X0182146Y0130770D01*
X0182146Y0143552D02*
X0187840Y0143552D01*
X0187840Y0130770D01*
X0182146Y0130770D01*
X0182146Y0132567D02*
X0187840Y0132567D01*
X0187840Y0134364D02*
X0182146Y0134364D01*
X0182146Y0136161D02*
X0187840Y0136161D01*
X0187840Y0137958D02*
X0182146Y0137958D01*
X0182146Y0139755D02*
X0187840Y0139755D01*
X0187840Y0141552D02*
X0182146Y0141552D01*
X0182146Y0143349D02*
X0187840Y0143349D01*
X0192146Y0143552D02*
X0192146Y0130770D01*
X0192146Y0143552D02*
X0197840Y0143552D01*
X0197840Y0130770D01*
X0192146Y0130770D01*
X0192146Y0132567D02*
X0197840Y0132567D01*
X0197840Y0134364D02*
X0192146Y0134364D01*
X0192146Y0136161D02*
X0197840Y0136161D01*
X0197840Y0137958D02*
X0192146Y0137958D01*
X0192146Y0139755D02*
X0197840Y0139755D01*
X0197840Y0141552D02*
X0192146Y0141552D01*
X0192146Y0143349D02*
X0197840Y0143349D01*
X0202146Y0143552D02*
X0202146Y0130770D01*
X0202146Y0143552D02*
X0207840Y0143552D01*
X0207840Y0130770D01*
X0202146Y0130770D01*
X0202146Y0132567D02*
X0207840Y0132567D01*
X0207840Y0134364D02*
X0202146Y0134364D01*
X0202146Y0136161D02*
X0207840Y0136161D01*
X0207840Y0137958D02*
X0202146Y0137958D01*
X0202146Y0139755D02*
X0207840Y0139755D01*
X0207840Y0141552D02*
X0202146Y0141552D01*
X0202146Y0143349D02*
X0207840Y0143349D01*
X0212146Y0143552D02*
X0212146Y0130770D01*
X0212146Y0143552D02*
X0217840Y0143552D01*
X0217840Y0130770D01*
X0212146Y0130770D01*
X0212146Y0132567D02*
X0217840Y0132567D01*
X0217840Y0134364D02*
X0212146Y0134364D01*
X0212146Y0136161D02*
X0217840Y0136161D01*
X0217840Y0137958D02*
X0212146Y0137958D01*
X0212146Y0139755D02*
X0217840Y0139755D01*
X0217840Y0141552D02*
X0212146Y0141552D01*
X0212146Y0143349D02*
X0217840Y0143349D01*
X0222146Y0143552D02*
X0222146Y0130770D01*
X0222146Y0143552D02*
X0227840Y0143552D01*
X0227840Y0130770D01*
X0222146Y0130770D01*
X0222146Y0132567D02*
X0227840Y0132567D01*
X0227840Y0134364D02*
X0222146Y0134364D01*
X0222146Y0136161D02*
X0227840Y0136161D01*
X0227840Y0137958D02*
X0222146Y0137958D01*
X0222146Y0139755D02*
X0227840Y0139755D01*
X0227840Y0141552D02*
X0222146Y0141552D01*
X0222146Y0143349D02*
X0227840Y0143349D01*
X0232146Y0143552D02*
X0232146Y0130770D01*
X0232146Y0143552D02*
X0237840Y0143552D01*
X0237840Y0130770D01*
X0232146Y0130770D01*
X0232146Y0132567D02*
X0237840Y0132567D01*
X0237840Y0134364D02*
X0232146Y0134364D01*
X0232146Y0136161D02*
X0237840Y0136161D01*
X0237840Y0137958D02*
X0232146Y0137958D01*
X0232146Y0139755D02*
X0237840Y0139755D01*
X0237840Y0141552D02*
X0232146Y0141552D01*
X0232146Y0143349D02*
X0237840Y0143349D01*
X0242146Y0143552D02*
X0242146Y0130770D01*
X0242146Y0143552D02*
X0247840Y0143552D01*
X0247840Y0130770D01*
X0242146Y0130770D01*
X0242146Y0132567D02*
X0247840Y0132567D01*
X0247840Y0134364D02*
X0242146Y0134364D01*
X0242146Y0136161D02*
X0247840Y0136161D01*
X0247840Y0137958D02*
X0242146Y0137958D01*
X0242146Y0139755D02*
X0247840Y0139755D01*
X0247840Y0141552D02*
X0242146Y0141552D01*
X0242146Y0143349D02*
X0247840Y0143349D01*
X0252146Y0143552D02*
X0252146Y0130770D01*
X0252146Y0143552D02*
X0257840Y0143552D01*
X0257840Y0130770D01*
X0252146Y0130770D01*
X0252146Y0132567D02*
X0257840Y0132567D01*
X0257840Y0134364D02*
X0252146Y0134364D01*
X0252146Y0136161D02*
X0257840Y0136161D01*
X0257840Y0137958D02*
X0252146Y0137958D01*
X0252146Y0139755D02*
X0257840Y0139755D01*
X0257840Y0141552D02*
X0252146Y0141552D01*
X0252146Y0143349D02*
X0257840Y0143349D01*
X0262146Y0143552D02*
X0262146Y0130770D01*
X0262146Y0143552D02*
X0267840Y0143552D01*
X0267840Y0130770D01*
X0262146Y0130770D01*
X0262146Y0132567D02*
X0267840Y0132567D01*
X0267840Y0134364D02*
X0262146Y0134364D01*
X0262146Y0136161D02*
X0267840Y0136161D01*
X0267840Y0137958D02*
X0262146Y0137958D01*
X0262146Y0139755D02*
X0267840Y0139755D01*
X0267840Y0141552D02*
X0262146Y0141552D01*
X0262146Y0143349D02*
X0267840Y0143349D01*
X0272146Y0143552D02*
X0272146Y0130770D01*
X0272146Y0143552D02*
X0277840Y0143552D01*
X0277840Y0130770D01*
X0272146Y0130770D01*
X0272146Y0132567D02*
X0277840Y0132567D01*
X0277840Y0134364D02*
X0272146Y0134364D01*
X0272146Y0136161D02*
X0277840Y0136161D01*
X0277840Y0137958D02*
X0272146Y0137958D01*
X0272146Y0139755D02*
X0277840Y0139755D01*
X0277840Y0141552D02*
X0272146Y0141552D01*
X0272146Y0143349D02*
X0277840Y0143349D01*
X0282146Y0143552D02*
X0282146Y0130770D01*
X0282146Y0143552D02*
X0287840Y0143552D01*
X0287840Y0130770D01*
X0282146Y0130770D01*
X0282146Y0132567D02*
X0287840Y0132567D01*
X0287840Y0134364D02*
X0282146Y0134364D01*
X0282146Y0136161D02*
X0287840Y0136161D01*
X0287840Y0137958D02*
X0282146Y0137958D01*
X0282146Y0139755D02*
X0287840Y0139755D01*
X0287840Y0141552D02*
X0282146Y0141552D01*
X0282146Y0143349D02*
X0287840Y0143349D01*
X0287840Y0064812D02*
X0287840Y0052030D01*
X0282146Y0052030D01*
X0282146Y0064812D01*
X0287840Y0064812D01*
X0287840Y0053827D02*
X0282146Y0053827D01*
X0282146Y0055624D02*
X0287840Y0055624D01*
X0287840Y0057421D02*
X0282146Y0057421D01*
X0282146Y0059218D02*
X0287840Y0059218D01*
X0287840Y0061015D02*
X0282146Y0061015D01*
X0282146Y0062812D02*
X0287840Y0062812D01*
X0287840Y0064609D02*
X0282146Y0064609D01*
X0277840Y0064812D02*
X0277840Y0052030D01*
X0272146Y0052030D01*
X0272146Y0064812D01*
X0277840Y0064812D01*
X0277840Y0053827D02*
X0272146Y0053827D01*
X0272146Y0055624D02*
X0277840Y0055624D01*
X0277840Y0057421D02*
X0272146Y0057421D01*
X0272146Y0059218D02*
X0277840Y0059218D01*
X0277840Y0061015D02*
X0272146Y0061015D01*
X0272146Y0062812D02*
X0277840Y0062812D01*
X0277840Y0064609D02*
X0272146Y0064609D01*
X0267840Y0064812D02*
X0267840Y0052030D01*
X0262146Y0052030D01*
X0262146Y0064812D01*
X0267840Y0064812D01*
X0267840Y0053827D02*
X0262146Y0053827D01*
X0262146Y0055624D02*
X0267840Y0055624D01*
X0267840Y0057421D02*
X0262146Y0057421D01*
X0262146Y0059218D02*
X0267840Y0059218D01*
X0267840Y0061015D02*
X0262146Y0061015D01*
X0262146Y0062812D02*
X0267840Y0062812D01*
X0267840Y0064609D02*
X0262146Y0064609D01*
X0257840Y0064812D02*
X0257840Y0052030D01*
X0252146Y0052030D01*
X0252146Y0064812D01*
X0257840Y0064812D01*
X0257840Y0053827D02*
X0252146Y0053827D01*
X0252146Y0055624D02*
X0257840Y0055624D01*
X0257840Y0057421D02*
X0252146Y0057421D01*
X0252146Y0059218D02*
X0257840Y0059218D01*
X0257840Y0061015D02*
X0252146Y0061015D01*
X0252146Y0062812D02*
X0257840Y0062812D01*
X0257840Y0064609D02*
X0252146Y0064609D01*
X0247840Y0064812D02*
X0247840Y0052030D01*
X0242146Y0052030D01*
X0242146Y0064812D01*
X0247840Y0064812D01*
X0247840Y0053827D02*
X0242146Y0053827D01*
X0242146Y0055624D02*
X0247840Y0055624D01*
X0247840Y0057421D02*
X0242146Y0057421D01*
X0242146Y0059218D02*
X0247840Y0059218D01*
X0247840Y0061015D02*
X0242146Y0061015D01*
X0242146Y0062812D02*
X0247840Y0062812D01*
X0247840Y0064609D02*
X0242146Y0064609D01*
X0237840Y0064812D02*
X0237840Y0052030D01*
X0232146Y0052030D01*
X0232146Y0064812D01*
X0237840Y0064812D01*
X0237840Y0053827D02*
X0232146Y0053827D01*
X0232146Y0055624D02*
X0237840Y0055624D01*
X0237840Y0057421D02*
X0232146Y0057421D01*
X0232146Y0059218D02*
X0237840Y0059218D01*
X0237840Y0061015D02*
X0232146Y0061015D01*
X0232146Y0062812D02*
X0237840Y0062812D01*
X0237840Y0064609D02*
X0232146Y0064609D01*
X0227840Y0064812D02*
X0227840Y0052030D01*
X0222146Y0052030D01*
X0222146Y0064812D01*
X0227840Y0064812D01*
X0227840Y0053827D02*
X0222146Y0053827D01*
X0222146Y0055624D02*
X0227840Y0055624D01*
X0227840Y0057421D02*
X0222146Y0057421D01*
X0222146Y0059218D02*
X0227840Y0059218D01*
X0227840Y0061015D02*
X0222146Y0061015D01*
X0222146Y0062812D02*
X0227840Y0062812D01*
X0227840Y0064609D02*
X0222146Y0064609D01*
X0217840Y0064812D02*
X0217840Y0052030D01*
X0212146Y0052030D01*
X0212146Y0064812D01*
X0217840Y0064812D01*
X0217840Y0053827D02*
X0212146Y0053827D01*
X0212146Y0055624D02*
X0217840Y0055624D01*
X0217840Y0057421D02*
X0212146Y0057421D01*
X0212146Y0059218D02*
X0217840Y0059218D01*
X0217840Y0061015D02*
X0212146Y0061015D01*
X0212146Y0062812D02*
X0217840Y0062812D01*
X0217840Y0064609D02*
X0212146Y0064609D01*
X0207840Y0064812D02*
X0207840Y0052030D01*
X0202146Y0052030D01*
X0202146Y0064812D01*
X0207840Y0064812D01*
X0207840Y0053827D02*
X0202146Y0053827D01*
X0202146Y0055624D02*
X0207840Y0055624D01*
X0207840Y0057421D02*
X0202146Y0057421D01*
X0202146Y0059218D02*
X0207840Y0059218D01*
X0207840Y0061015D02*
X0202146Y0061015D01*
X0202146Y0062812D02*
X0207840Y0062812D01*
X0207840Y0064609D02*
X0202146Y0064609D01*
X0197840Y0064812D02*
X0197840Y0052030D01*
X0192146Y0052030D01*
X0192146Y0064812D01*
X0197840Y0064812D01*
X0197840Y0053827D02*
X0192146Y0053827D01*
X0192146Y0055624D02*
X0197840Y0055624D01*
X0197840Y0057421D02*
X0192146Y0057421D01*
X0192146Y0059218D02*
X0197840Y0059218D01*
X0197840Y0061015D02*
X0192146Y0061015D01*
X0192146Y0062812D02*
X0197840Y0062812D01*
X0197840Y0064609D02*
X0192146Y0064609D01*
X0187840Y0064812D02*
X0187840Y0052030D01*
X0182146Y0052030D01*
X0182146Y0064812D01*
X0187840Y0064812D01*
X0187840Y0053827D02*
X0182146Y0053827D01*
X0182146Y0055624D02*
X0187840Y0055624D01*
X0187840Y0057421D02*
X0182146Y0057421D01*
X0182146Y0059218D02*
X0187840Y0059218D01*
X0187840Y0061015D02*
X0182146Y0061015D01*
X0182146Y0062812D02*
X0187840Y0062812D01*
X0187840Y0064609D02*
X0182146Y0064609D01*
X0177840Y0064812D02*
X0177840Y0052030D01*
X0172146Y0052030D01*
X0172146Y0064812D01*
X0177840Y0064812D01*
X0177840Y0053827D02*
X0172146Y0053827D01*
X0172146Y0055624D02*
X0177840Y0055624D01*
X0177840Y0057421D02*
X0172146Y0057421D01*
X0172146Y0059218D02*
X0177840Y0059218D01*
X0177840Y0061015D02*
X0172146Y0061015D01*
X0172146Y0062812D02*
X0177840Y0062812D01*
X0177840Y0064609D02*
X0172146Y0064609D01*
X0167840Y0064812D02*
X0167840Y0052030D01*
X0162146Y0052030D01*
X0162146Y0064812D01*
X0167840Y0064812D01*
X0167840Y0053827D02*
X0162146Y0053827D01*
X0162146Y0055624D02*
X0167840Y0055624D01*
X0167840Y0057421D02*
X0162146Y0057421D01*
X0162146Y0059218D02*
X0167840Y0059218D01*
X0167840Y0061015D02*
X0162146Y0061015D01*
X0162146Y0062812D02*
X0167840Y0062812D01*
X0167840Y0064609D02*
X0162146Y0064609D01*
X0157840Y0064812D02*
X0157840Y0052030D01*
X0152146Y0052030D01*
X0152146Y0064812D01*
X0157840Y0064812D01*
X0157840Y0053827D02*
X0152146Y0053827D01*
X0152146Y0055624D02*
X0157840Y0055624D01*
X0157840Y0057421D02*
X0152146Y0057421D01*
X0152146Y0059218D02*
X0157840Y0059218D01*
X0157840Y0061015D02*
X0152146Y0061015D01*
X0152146Y0062812D02*
X0157840Y0062812D01*
X0157840Y0064609D02*
X0152146Y0064609D01*
X0147840Y0064812D02*
X0147840Y0052030D01*
X0142146Y0052030D01*
X0142146Y0064812D01*
X0147840Y0064812D01*
X0147840Y0053827D02*
X0142146Y0053827D01*
X0142146Y0055624D02*
X0147840Y0055624D01*
X0147840Y0057421D02*
X0142146Y0057421D01*
X0142146Y0059218D02*
X0147840Y0059218D01*
X0147840Y0061015D02*
X0142146Y0061015D01*
X0142146Y0062812D02*
X0147840Y0062812D01*
X0147840Y0064609D02*
X0142146Y0064609D01*
X0137840Y0064812D02*
X0137840Y0052030D01*
X0132146Y0052030D01*
X0132146Y0064812D01*
X0137840Y0064812D01*
X0137840Y0053827D02*
X0132146Y0053827D01*
X0132146Y0055624D02*
X0137840Y0055624D01*
X0137840Y0057421D02*
X0132146Y0057421D01*
X0132146Y0059218D02*
X0137840Y0059218D01*
X0137840Y0061015D02*
X0132146Y0061015D01*
X0132146Y0062812D02*
X0137840Y0062812D01*
X0137840Y0064609D02*
X0132146Y0064609D01*
X0127840Y0064812D02*
X0127840Y0052030D01*
X0122146Y0052030D01*
X0122146Y0064812D01*
X0127840Y0064812D01*
X0127840Y0053827D02*
X0122146Y0053827D01*
X0122146Y0055624D02*
X0127840Y0055624D01*
X0127840Y0057421D02*
X0122146Y0057421D01*
X0122146Y0059218D02*
X0127840Y0059218D01*
X0127840Y0061015D02*
X0122146Y0061015D01*
X0122146Y0062812D02*
X0127840Y0062812D01*
X0127840Y0064609D02*
X0122146Y0064609D01*
X0117840Y0064812D02*
X0117840Y0052030D01*
X0112146Y0052030D01*
X0112146Y0064812D01*
X0117840Y0064812D01*
X0117840Y0053827D02*
X0112146Y0053827D01*
X0112146Y0055624D02*
X0117840Y0055624D01*
X0117840Y0057421D02*
X0112146Y0057421D01*
X0112146Y0059218D02*
X0117840Y0059218D01*
X0117840Y0061015D02*
X0112146Y0061015D01*
X0112146Y0062812D02*
X0117840Y0062812D01*
X0117840Y0064609D02*
X0112146Y0064609D01*
X0107840Y0064812D02*
X0107840Y0052030D01*
X0102146Y0052030D01*
X0102146Y0064812D01*
X0107840Y0064812D01*
X0107840Y0053827D02*
X0102146Y0053827D01*
X0102146Y0055624D02*
X0107840Y0055624D01*
X0107840Y0057421D02*
X0102146Y0057421D01*
X0102146Y0059218D02*
X0107840Y0059218D01*
X0107840Y0061015D02*
X0102146Y0061015D01*
X0102146Y0062812D02*
X0107840Y0062812D01*
X0107840Y0064609D02*
X0102146Y0064609D01*
X0097840Y0064812D02*
X0097840Y0052030D01*
X0092146Y0052030D01*
X0092146Y0064812D01*
X0097840Y0064812D01*
X0097840Y0053827D02*
X0092146Y0053827D01*
X0092146Y0055624D02*
X0097840Y0055624D01*
X0097840Y0057421D02*
X0092146Y0057421D01*
X0092146Y0059218D02*
X0097840Y0059218D01*
X0097840Y0061015D02*
X0092146Y0061015D01*
X0092146Y0062812D02*
X0097840Y0062812D01*
X0097840Y0064609D02*
X0092146Y0064609D01*
X0098254Y0090638D02*
X0085472Y0090638D01*
X0098254Y0090638D02*
X0098254Y0084944D01*
X0085472Y0084944D01*
X0085472Y0090638D01*
X0085472Y0086741D02*
X0098254Y0086741D01*
X0098254Y0088538D02*
X0085472Y0088538D01*
X0085472Y0090335D02*
X0098254Y0090335D01*
X0098254Y0100638D02*
X0085472Y0100638D01*
X0098254Y0100638D02*
X0098254Y0094944D01*
X0085472Y0094944D01*
X0085472Y0100638D01*
X0085472Y0096741D02*
X0098254Y0096741D01*
X0098254Y0098538D02*
X0085472Y0098538D01*
X0085472Y0100335D02*
X0098254Y0100335D01*
X0098254Y0110638D02*
X0085472Y0110638D01*
X0098254Y0110638D02*
X0098254Y0104944D01*
X0085472Y0104944D01*
X0085472Y0110638D01*
X0085472Y0106741D02*
X0098254Y0106741D01*
X0098254Y0108538D02*
X0085472Y0108538D01*
X0085472Y0110335D02*
X0098254Y0110335D01*
X0092146Y0130770D02*
X0092146Y0143552D01*
X0097840Y0143552D01*
X0097840Y0130770D01*
X0092146Y0130770D01*
X0092146Y0132567D02*
X0097840Y0132567D01*
X0097840Y0134364D02*
X0092146Y0134364D01*
X0092146Y0136161D02*
X0097840Y0136161D01*
X0097840Y0137958D02*
X0092146Y0137958D01*
X0092146Y0139755D02*
X0097840Y0139755D01*
X0097840Y0141552D02*
X0092146Y0141552D01*
X0092146Y0143349D02*
X0097840Y0143349D01*
X0102146Y0143552D02*
X0102146Y0130770D01*
X0102146Y0143552D02*
X0107840Y0143552D01*
X0107840Y0130770D01*
X0102146Y0130770D01*
X0102146Y0132567D02*
X0107840Y0132567D01*
X0107840Y0134364D02*
X0102146Y0134364D01*
X0102146Y0136161D02*
X0107840Y0136161D01*
X0107840Y0137958D02*
X0102146Y0137958D01*
X0102146Y0139755D02*
X0107840Y0139755D01*
X0107840Y0141552D02*
X0102146Y0141552D01*
X0102146Y0143349D02*
X0107840Y0143349D01*
X0112146Y0143552D02*
X0112146Y0130770D01*
X0112146Y0143552D02*
X0117840Y0143552D01*
X0117840Y0130770D01*
X0112146Y0130770D01*
X0112146Y0132567D02*
X0117840Y0132567D01*
X0117840Y0134364D02*
X0112146Y0134364D01*
X0112146Y0136161D02*
X0117840Y0136161D01*
X0117840Y0137958D02*
X0112146Y0137958D01*
X0112146Y0139755D02*
X0117840Y0139755D01*
X0117840Y0141552D02*
X0112146Y0141552D01*
X0112146Y0143349D02*
X0117840Y0143349D01*
D41*
X0272552Y0107339D03*
X0272552Y0088244D03*
D42*
X0120516Y0223176D02*
X0117560Y0223176D01*
X0120516Y0223176D02*
X0120516Y0222780D01*
X0117560Y0222780D01*
X0117560Y0223176D01*
X0117560Y0225145D02*
X0120122Y0225145D01*
X0120122Y0224749D01*
X0117560Y0224749D01*
X0117560Y0225145D01*
X0117560Y0227113D02*
X0120122Y0227113D01*
X0120122Y0226717D01*
X0117560Y0226717D01*
X0117560Y0227113D01*
X0117560Y0229082D02*
X0120122Y0229082D01*
X0120122Y0228686D01*
X0117560Y0228686D01*
X0117560Y0229082D01*
X0108705Y0228686D02*
X0106143Y0228686D01*
X0106143Y0229082D01*
X0108705Y0229082D01*
X0108705Y0228686D01*
X0108705Y0226717D02*
X0106143Y0226717D01*
X0106143Y0227113D01*
X0108705Y0227113D01*
X0108705Y0226717D01*
X0108705Y0224749D02*
X0106143Y0224749D01*
X0106143Y0225145D01*
X0108705Y0225145D01*
X0108705Y0224749D01*
X0108705Y0222780D02*
X0106143Y0222780D01*
X0106143Y0223176D01*
X0108705Y0223176D01*
X0108705Y0222780D01*
D43*
X0104618Y0231541D03*
X0110868Y0232791D03*
X0112118Y0247791D03*
X0107493Y0249681D03*
X0101243Y0253416D03*
X0092743Y0241541D03*
X0090243Y0232791D03*
X0097493Y0220931D03*
X0079743Y0232791D03*
X0070243Y0231541D03*
X0070243Y0241541D03*
X0062243Y0251041D03*
X0059993Y0267791D03*
X0052493Y0267791D03*
X0059993Y0284041D03*
X0071243Y0282181D03*
X0067493Y0295291D03*
X0059993Y0302791D03*
X0059993Y0310291D03*
X0071243Y0315291D03*
X0067493Y0325291D03*
X0078993Y0341041D03*
X0083993Y0351041D03*
X0093993Y0357291D03*
X0096493Y0344791D03*
X0086493Y0326041D03*
X0091243Y0295291D03*
X0094993Y0295291D03*
X0107243Y0291541D03*
X0100993Y0279041D03*
X0110993Y0265916D03*
X0112243Y0255916D03*
X0117493Y0254681D03*
X0118743Y0247181D03*
X0124993Y0257181D03*
X0127493Y0253431D03*
X0128743Y0257181D03*
X0133493Y0271541D03*
X0134993Y0278431D03*
X0140243Y0289041D03*
X0133743Y0295306D03*
X0123743Y0285306D03*
X0118993Y0298541D03*
X0115243Y0309791D03*
X0116493Y0321041D03*
X0132243Y0310291D03*
X0153743Y0299041D03*
X0156493Y0302791D03*
X0166243Y0300291D03*
X0166243Y0295291D03*
X0173493Y0287791D03*
X0173743Y0293431D03*
X0165993Y0279041D03*
X0169993Y0272181D03*
X0175993Y0270291D03*
X0177493Y0277181D03*
X0185993Y0275291D03*
X0194743Y0285291D03*
X0185993Y0292791D03*
X0189743Y0299041D03*
X0190243Y0311285D03*
X0193743Y0312791D03*
X0193993Y0317535D03*
X0193993Y0324041D03*
X0190243Y0334041D03*
X0184993Y0334041D03*
X0181243Y0335291D03*
X0181243Y0339041D03*
X0177493Y0340291D03*
X0177493Y0344041D03*
X0174993Y0346541D03*
X0171493Y0349041D03*
X0171243Y0372791D03*
X0166243Y0377791D03*
X0161243Y0372791D03*
X0147743Y0369791D03*
X0141243Y0377791D03*
X0136243Y0382791D03*
X0132493Y0383431D03*
X0138743Y0389681D03*
X0127743Y0372291D03*
X0125243Y0368541D03*
X0130243Y0368541D03*
X0140243Y0351541D03*
X0118993Y0343541D03*
X0156493Y0325291D03*
X0156493Y0319041D03*
X0168812Y0318785D03*
X0159743Y0285291D03*
X0152243Y0285291D03*
X0147493Y0284681D03*
X0154743Y0272791D03*
X0163493Y0261541D03*
X0173493Y0261541D03*
X0174118Y0250291D03*
X0179743Y0237791D03*
X0179493Y0232681D03*
X0178493Y0225291D03*
X0173493Y0211541D03*
X0159993Y0213431D03*
X0141493Y0209041D03*
X0129993Y0213431D03*
X0127493Y0199681D03*
X0095243Y0196541D03*
X0095243Y0180291D03*
X0077493Y0208431D03*
X0076243Y0212791D03*
X0070243Y0221541D03*
X0059743Y0175291D03*
X0047243Y0175291D03*
X0040993Y0164041D03*
X0030993Y0175291D03*
X0022243Y0175291D03*
X0023743Y0232791D03*
X0018743Y0241541D03*
X0029993Y0232791D03*
X0026243Y0267791D03*
X0038743Y0267791D03*
X0018743Y0284041D03*
X0018743Y0305291D03*
X0021243Y0322791D03*
X0026243Y0329041D03*
X0031243Y0322791D03*
X0036243Y0329041D03*
X0041243Y0322791D03*
X0046243Y0329041D03*
X0052493Y0322791D03*
X0033743Y0360291D03*
X0023743Y0360291D03*
X0149743Y0249041D03*
X0163493Y0250291D03*
X0183493Y0261541D03*
X0194743Y0249041D03*
X0203743Y0243431D03*
X0194743Y0237791D03*
X0206243Y0222181D03*
X0211243Y0229681D03*
X0216493Y0224041D03*
X0217508Y0213416D03*
X0212743Y0205291D03*
X0207493Y0199681D03*
X0206243Y0205931D03*
X0198743Y0198431D03*
X0197743Y0192791D03*
X0191243Y0185931D03*
X0186493Y0190291D03*
X0179993Y0194681D03*
X0178743Y0189681D03*
X0168743Y0187181D03*
X0187743Y0177791D03*
X0169993Y0150931D03*
X0164993Y0152181D03*
X0165243Y0125291D03*
X0215243Y0125291D03*
X0224993Y0147181D03*
X0232493Y0150931D03*
X0238743Y0154681D03*
X0243118Y0157806D03*
X0246243Y0160931D03*
X0241243Y0173431D03*
X0230243Y0170291D03*
X0217493Y0193431D03*
X0241493Y0199041D03*
X0257743Y0182791D03*
X0257743Y0172791D03*
X0261243Y0159681D03*
X0282493Y0170931D03*
X0285243Y0156541D03*
X0265243Y0125291D03*
X0238743Y0082181D03*
X0215243Y0047791D03*
X0249993Y0044681D03*
X0259993Y0044681D03*
X0265243Y0047791D03*
X0284993Y0048431D03*
X0284993Y0044681D03*
X0165243Y0047791D03*
X0115243Y0047791D03*
X0073743Y0082181D03*
X0060243Y0099041D03*
X0079993Y0114681D03*
X0079993Y0120931D03*
X0115243Y0125291D03*
X0115243Y0149041D03*
X0201743Y0265041D03*
X0203743Y0260291D03*
X0214993Y0249681D03*
X0229743Y0250291D03*
X0240993Y0248791D03*
X0249243Y0256791D03*
X0245243Y0261791D03*
X0239743Y0285291D03*
X0229993Y0296541D03*
X0217493Y0294041D03*
X0213743Y0301541D03*
X0209993Y0306291D03*
X0204743Y0295291D03*
X0206243Y0282791D03*
X0214743Y0285291D03*
X0214743Y0272791D03*
X0237993Y0230791D03*
X0251743Y0236666D03*
X0261743Y0235791D03*
X0273743Y0238291D03*
X0287243Y0228041D03*
X0277743Y0261291D03*
X0277743Y0291291D03*
X0250743Y0325041D03*
X0256243Y0332791D03*
X0266243Y0332791D03*
X0275743Y0336291D03*
X0275743Y0342291D03*
X0251743Y0363291D03*
X0251743Y0385791D03*
X0226743Y0378291D03*
X0226743Y0363291D03*
X0205743Y0360291D03*
X0196493Y0352791D03*
X0206243Y0332791D03*
X0203743Y0320291D03*
X0201493Y0315291D03*
X0227743Y0325291D03*
X0236243Y0334041D03*
X0237743Y0316291D03*
D44*
X0034678Y0021866D03*
X0270899Y0021866D03*
X0270899Y0376197D03*
X0035578Y0376197D03*
M02*
