G75*
%MOIN*%
%OFA0B0*%
%FSLAX25Y25*%
%IPPOS*%
%LPD*%
%AMOC8*
5,1,8,0,0,1.08239X$1,22.5*
%
%ADD10C,0.01654*%
%ADD11C,0.00945*%
%ADD12C,0.00500*%
%ADD13C,0.01181*%
%ADD14C,0.01000*%
%ADD15C,0.02362*%
%ADD16C,0.01535*%
%ADD17C,0.01606*%
%ADD18C,0.01200*%
%ADD19C,0.01240*%
%ADD20C,0.00443*%
%ADD21C,0.00402*%
%ADD22C,0.00396*%
%ADD23C,0.01633*%
%ADD24C,0.00709*%
%ADD25C,0.01417*%
%ADD26C,0.00787*%
%ADD27C,0.04331*%
%ADD28C,0.00984*%
%ADD29C,0.00800*%
D10*
X0234342Y0238260D02*
X0234342Y0243692D01*
X0238200Y0243692D01*
X0238200Y0238260D01*
X0234342Y0238260D01*
X0234342Y0239913D02*
X0238200Y0239913D01*
X0238200Y0241566D02*
X0234342Y0241566D01*
X0234342Y0243219D02*
X0238200Y0243219D01*
X0244342Y0243692D02*
X0244342Y0238260D01*
X0244342Y0243692D02*
X0248200Y0243692D01*
X0248200Y0238260D01*
X0244342Y0238260D01*
X0244342Y0239913D02*
X0248200Y0239913D01*
X0248200Y0241566D02*
X0244342Y0241566D01*
X0244342Y0243219D02*
X0248200Y0243219D01*
X0254342Y0243692D02*
X0254342Y0238260D01*
X0254342Y0243692D02*
X0258200Y0243692D01*
X0258200Y0238260D01*
X0254342Y0238260D01*
X0254342Y0239913D02*
X0258200Y0239913D01*
X0258200Y0241566D02*
X0254342Y0241566D01*
X0254342Y0243219D02*
X0258200Y0243219D01*
X0264342Y0243692D02*
X0264342Y0238260D01*
X0264342Y0243692D02*
X0268200Y0243692D01*
X0268200Y0238260D01*
X0264342Y0238260D01*
X0264342Y0239913D02*
X0268200Y0239913D01*
X0268200Y0241566D02*
X0264342Y0241566D01*
X0264342Y0243219D02*
X0268200Y0243219D01*
X0264342Y0338142D02*
X0264342Y0343574D01*
X0268200Y0343574D01*
X0268200Y0338142D01*
X0264342Y0338142D01*
X0264342Y0339795D02*
X0268200Y0339795D01*
X0268200Y0341448D02*
X0264342Y0341448D01*
X0264342Y0343101D02*
X0268200Y0343101D01*
X0254342Y0343574D02*
X0254342Y0338142D01*
X0254342Y0343574D02*
X0258200Y0343574D01*
X0258200Y0338142D01*
X0254342Y0338142D01*
X0254342Y0339795D02*
X0258200Y0339795D01*
X0258200Y0341448D02*
X0254342Y0341448D01*
X0254342Y0343101D02*
X0258200Y0343101D01*
X0244342Y0343574D02*
X0244342Y0338142D01*
X0244342Y0343574D02*
X0248200Y0343574D01*
X0248200Y0338142D01*
X0244342Y0338142D01*
X0244342Y0339795D02*
X0248200Y0339795D01*
X0248200Y0341448D02*
X0244342Y0341448D01*
X0244342Y0343101D02*
X0248200Y0343101D01*
X0234342Y0343574D02*
X0234342Y0338142D01*
X0234342Y0343574D02*
X0238200Y0343574D01*
X0238200Y0338142D01*
X0234342Y0338142D01*
X0234342Y0339795D02*
X0238200Y0339795D01*
X0238200Y0341448D02*
X0234342Y0341448D01*
X0234342Y0343101D02*
X0238200Y0343101D01*
D11*
X0120042Y0229002D02*
X0117640Y0229002D01*
X0120042Y0229002D02*
X0120042Y0228766D01*
X0117640Y0228766D01*
X0117640Y0229002D01*
X0117640Y0227033D02*
X0120042Y0227033D01*
X0120042Y0226797D01*
X0117640Y0226797D01*
X0117640Y0227033D01*
X0117640Y0225065D02*
X0120042Y0225065D01*
X0120042Y0224829D01*
X0117640Y0224829D01*
X0117640Y0225065D01*
X0117640Y0223096D02*
X0120436Y0223096D01*
X0120436Y0222860D01*
X0117640Y0222860D01*
X0117640Y0223096D01*
X0108625Y0222860D02*
X0106223Y0222860D01*
X0106223Y0223096D01*
X0108625Y0223096D01*
X0108625Y0222860D01*
X0108625Y0224829D02*
X0106223Y0224829D01*
X0106223Y0225065D01*
X0108625Y0225065D01*
X0108625Y0224829D01*
X0108625Y0226797D02*
X0106223Y0226797D01*
X0106223Y0227033D01*
X0108625Y0227033D01*
X0108625Y0226797D01*
X0108625Y0228766D02*
X0106223Y0228766D01*
X0106223Y0229002D01*
X0108625Y0229002D01*
X0108625Y0228766D01*
X0071096Y0354486D02*
X0068890Y0354486D01*
X0068890Y0356692D01*
X0071096Y0356692D01*
X0071096Y0354486D01*
X0071096Y0355430D02*
X0068890Y0355430D01*
X0068890Y0356374D02*
X0071096Y0356374D01*
X0071096Y0360391D02*
X0068890Y0360391D01*
X0068890Y0362597D01*
X0071096Y0362597D01*
X0071096Y0360391D01*
X0071096Y0361335D02*
X0068890Y0361335D01*
X0068890Y0362279D02*
X0071096Y0362279D01*
X0055846Y0360391D02*
X0053640Y0360391D01*
X0053640Y0362597D01*
X0055846Y0362597D01*
X0055846Y0360391D01*
X0055846Y0361335D02*
X0053640Y0361335D01*
X0053640Y0362279D02*
X0055846Y0362279D01*
X0055846Y0354486D02*
X0053640Y0354486D01*
X0053640Y0356692D01*
X0055846Y0356692D01*
X0055846Y0354486D01*
X0055846Y0355430D02*
X0053640Y0355430D01*
X0053640Y0356374D02*
X0055846Y0356374D01*
D12*
X0050916Y0072494D02*
X0050916Y0070619D01*
X0052166Y0070619D01*
X0052791Y0071556D01*
X0052166Y0072494D01*
X0050916Y0072494D01*
X0050916Y0072471D02*
X0052181Y0072471D01*
X0052513Y0071973D02*
X0050916Y0071973D01*
X0050916Y0071474D02*
X0052736Y0071474D01*
X0052404Y0070976D02*
X0050916Y0070976D01*
X0054666Y0071556D02*
X0055291Y0072494D01*
X0056541Y0072494D01*
X0056541Y0070619D01*
X0055291Y0070619D01*
X0054666Y0071556D01*
X0054720Y0071474D02*
X0056541Y0071474D01*
X0056541Y0070976D02*
X0055053Y0070976D01*
X0054943Y0071973D02*
X0056541Y0071973D01*
X0056541Y0072471D02*
X0055276Y0072471D01*
X0060633Y0072181D02*
X0060633Y0070306D01*
X0063133Y0070306D01*
X0063133Y0072181D01*
X0061883Y0073119D01*
X0060633Y0072181D01*
X0060633Y0071973D02*
X0063133Y0071973D01*
X0063133Y0071474D02*
X0060633Y0071474D01*
X0060633Y0070976D02*
X0063133Y0070976D01*
X0063133Y0070477D02*
X0060633Y0070477D01*
X0061020Y0072471D02*
X0062746Y0072471D01*
X0062081Y0072970D02*
X0061684Y0072970D01*
X0061883Y0076244D02*
X0060633Y0077181D01*
X0060633Y0079056D01*
X0063133Y0079056D01*
X0063133Y0077181D01*
X0061883Y0076244D01*
X0062170Y0076459D02*
X0061595Y0076459D01*
X0060931Y0076958D02*
X0062835Y0076958D01*
X0063133Y0077456D02*
X0060633Y0077456D01*
X0060633Y0077955D02*
X0063133Y0077955D01*
X0063133Y0078453D02*
X0060633Y0078453D01*
X0060633Y0078952D02*
X0063133Y0078952D01*
X0069383Y0078952D02*
X0071883Y0078952D01*
X0071883Y0079056D02*
X0071883Y0077181D01*
X0070633Y0076244D01*
X0069383Y0077181D01*
X0069383Y0079056D01*
X0071883Y0079056D01*
X0071883Y0078453D02*
X0069383Y0078453D01*
X0069383Y0077955D02*
X0071883Y0077955D01*
X0071883Y0077456D02*
X0069383Y0077456D01*
X0069681Y0076958D02*
X0071585Y0076958D01*
X0070920Y0076459D02*
X0070345Y0076459D01*
X0070633Y0073119D02*
X0071883Y0072181D01*
X0071883Y0070306D01*
X0069383Y0070306D01*
X0069383Y0072181D01*
X0070633Y0073119D01*
X0070831Y0072970D02*
X0070434Y0072970D01*
X0069770Y0072471D02*
X0071496Y0072471D01*
X0071883Y0071973D02*
X0069383Y0071973D01*
X0069383Y0071474D02*
X0071883Y0071474D01*
X0071883Y0070976D02*
X0069383Y0070976D01*
X0069383Y0070477D02*
X0071883Y0070477D01*
X0075945Y0070619D02*
X0075945Y0072494D01*
X0077195Y0072494D01*
X0077820Y0071556D01*
X0077195Y0070619D01*
X0075945Y0070619D01*
X0075945Y0070976D02*
X0077433Y0070976D01*
X0077766Y0071474D02*
X0075945Y0071474D01*
X0075945Y0071973D02*
X0077543Y0071973D01*
X0077210Y0072471D02*
X0075945Y0072471D01*
X0079695Y0071556D02*
X0080320Y0070619D01*
X0081570Y0070619D01*
X0081570Y0072494D01*
X0080320Y0072494D01*
X0079695Y0071556D01*
X0079750Y0071474D02*
X0081570Y0071474D01*
X0081570Y0070976D02*
X0080082Y0070976D01*
X0079973Y0071973D02*
X0081570Y0071973D01*
X0081570Y0072471D02*
X0080305Y0072471D01*
X0071853Y0065306D02*
X0069353Y0065306D01*
X0069353Y0063431D01*
X0070603Y0062494D01*
X0071853Y0063431D01*
X0071853Y0065306D01*
X0071853Y0064994D02*
X0069353Y0064994D01*
X0069353Y0064495D02*
X0071853Y0064495D01*
X0071853Y0063997D02*
X0069353Y0063997D01*
X0069353Y0063498D02*
X0071853Y0063498D01*
X0071278Y0062999D02*
X0069929Y0062999D01*
X0070593Y0062501D02*
X0070613Y0062501D01*
X0070603Y0059369D02*
X0071853Y0058431D01*
X0071853Y0056556D01*
X0069353Y0056556D01*
X0069353Y0058431D01*
X0070603Y0059369D01*
X0070127Y0059011D02*
X0071080Y0059011D01*
X0071744Y0058513D02*
X0069462Y0058513D01*
X0069353Y0058014D02*
X0071853Y0058014D01*
X0071853Y0057516D02*
X0069353Y0057516D01*
X0069353Y0057017D02*
X0071853Y0057017D01*
X0063103Y0057017D02*
X0060603Y0057017D01*
X0060603Y0056556D02*
X0060603Y0058431D01*
X0061853Y0059369D01*
X0063103Y0058431D01*
X0063103Y0056556D01*
X0060603Y0056556D01*
X0060603Y0057516D02*
X0063103Y0057516D01*
X0063103Y0058014D02*
X0060603Y0058014D01*
X0060712Y0058513D02*
X0062994Y0058513D01*
X0062330Y0059011D02*
X0061377Y0059011D01*
X0061853Y0062494D02*
X0060603Y0063431D01*
X0060603Y0065306D01*
X0063103Y0065306D01*
X0063103Y0063431D01*
X0061853Y0062494D01*
X0061843Y0062501D02*
X0061863Y0062501D01*
X0062528Y0062999D02*
X0061179Y0062999D01*
X0060603Y0063498D02*
X0063103Y0063498D01*
X0063103Y0063997D02*
X0060603Y0063997D01*
X0060603Y0064495D02*
X0063103Y0064495D01*
X0063103Y0064994D02*
X0060603Y0064994D01*
X0128743Y0157166D02*
X0128743Y0159041D01*
X0129993Y0159979D01*
X0131243Y0159041D01*
X0131243Y0157166D01*
X0128743Y0157166D01*
X0128743Y0157218D02*
X0131243Y0157218D01*
X0131243Y0157717D02*
X0128743Y0157717D01*
X0128743Y0158215D02*
X0131243Y0158215D01*
X0131243Y0158714D02*
X0128743Y0158714D01*
X0128971Y0159212D02*
X0131015Y0159212D01*
X0130351Y0159711D02*
X0129635Y0159711D01*
X0129993Y0163104D02*
X0128743Y0164041D01*
X0128743Y0165916D01*
X0131243Y0165916D01*
X0131243Y0164041D01*
X0129993Y0163104D01*
X0129864Y0163200D02*
X0130122Y0163200D01*
X0130786Y0163699D02*
X0129200Y0163699D01*
X0128743Y0164197D02*
X0131243Y0164197D01*
X0131243Y0164696D02*
X0128743Y0164696D01*
X0128743Y0165194D02*
X0131243Y0165194D01*
X0131243Y0165693D02*
X0128743Y0165693D01*
X0133743Y0165693D02*
X0136243Y0165693D01*
X0136243Y0165916D02*
X0133743Y0165916D01*
X0133743Y0164041D01*
X0134993Y0163104D01*
X0136243Y0164041D01*
X0136243Y0165916D01*
X0136243Y0165194D02*
X0133743Y0165194D01*
X0133743Y0164696D02*
X0136243Y0164696D01*
X0136243Y0164197D02*
X0133743Y0164197D01*
X0134200Y0163699D02*
X0135786Y0163699D01*
X0135122Y0163200D02*
X0134864Y0163200D01*
X0134993Y0159979D02*
X0133743Y0159041D01*
X0133743Y0157166D01*
X0136243Y0157166D01*
X0136243Y0159041D01*
X0134993Y0159979D01*
X0134635Y0159711D02*
X0135351Y0159711D01*
X0136015Y0159212D02*
X0133971Y0159212D01*
X0133743Y0158714D02*
X0136243Y0158714D01*
X0136243Y0158215D02*
X0133743Y0158215D01*
X0133743Y0157717D02*
X0136243Y0157717D01*
X0136243Y0157218D02*
X0133743Y0157218D01*
X0143743Y0157218D02*
X0146243Y0157218D01*
X0146243Y0157166D02*
X0143743Y0157166D01*
X0143743Y0159041D01*
X0144993Y0159979D01*
X0146243Y0159041D01*
X0146243Y0157166D01*
X0146243Y0157717D02*
X0143743Y0157717D01*
X0143743Y0158215D02*
X0146243Y0158215D01*
X0146243Y0158714D02*
X0143743Y0158714D01*
X0143971Y0159212D02*
X0146015Y0159212D01*
X0145351Y0159711D02*
X0144635Y0159711D01*
X0144993Y0163104D02*
X0143743Y0164041D01*
X0143743Y0165916D01*
X0146243Y0165916D01*
X0146243Y0164041D01*
X0144993Y0163104D01*
X0144864Y0163200D02*
X0145122Y0163200D01*
X0145786Y0163699D02*
X0144200Y0163699D01*
X0143743Y0164197D02*
X0146243Y0164197D01*
X0146243Y0164696D02*
X0143743Y0164696D01*
X0143743Y0165194D02*
X0146243Y0165194D01*
X0146243Y0165693D02*
X0143743Y0165693D01*
X0153743Y0165693D02*
X0156243Y0165693D01*
X0156243Y0165916D02*
X0153743Y0165916D01*
X0153743Y0164041D01*
X0154993Y0163104D01*
X0156243Y0164041D01*
X0156243Y0165916D01*
X0156243Y0165194D02*
X0153743Y0165194D01*
X0153743Y0164696D02*
X0156243Y0164696D01*
X0156243Y0164197D02*
X0153743Y0164197D01*
X0154200Y0163699D02*
X0155786Y0163699D01*
X0155122Y0163200D02*
X0154864Y0163200D01*
X0154993Y0159979D02*
X0156243Y0159041D01*
X0156243Y0157166D01*
X0153743Y0157166D01*
X0153743Y0159041D01*
X0154993Y0159979D01*
X0154635Y0159711D02*
X0155351Y0159711D01*
X0156015Y0159212D02*
X0153971Y0159212D01*
X0153743Y0158714D02*
X0156243Y0158714D01*
X0156243Y0158215D02*
X0153743Y0158215D01*
X0153743Y0157717D02*
X0156243Y0157717D01*
X0156243Y0157218D02*
X0153743Y0157218D01*
X0160306Y0159979D02*
X0160306Y0161229D01*
X0161243Y0161854D01*
X0162181Y0161229D01*
X0162181Y0159979D01*
X0160306Y0159979D01*
X0160306Y0160209D02*
X0162181Y0160209D01*
X0162181Y0160708D02*
X0160306Y0160708D01*
X0160306Y0161206D02*
X0162181Y0161206D01*
X0161467Y0161705D02*
X0161019Y0161705D01*
X0161243Y0163729D02*
X0160306Y0164354D01*
X0160306Y0165604D01*
X0162181Y0165604D01*
X0162181Y0164354D01*
X0161243Y0163729D01*
X0160540Y0164197D02*
X0161946Y0164197D01*
X0162181Y0164696D02*
X0160306Y0164696D01*
X0160306Y0165194D02*
X0162181Y0165194D01*
X0171868Y0182791D02*
X0171868Y0185291D01*
X0173743Y0185291D01*
X0174681Y0184041D01*
X0173743Y0182791D01*
X0171868Y0182791D01*
X0171868Y0183141D02*
X0174005Y0183141D01*
X0174379Y0183639D02*
X0171868Y0183639D01*
X0171868Y0184138D02*
X0174608Y0184138D01*
X0174234Y0184636D02*
X0171868Y0184636D01*
X0171868Y0185135D02*
X0173860Y0185135D01*
X0177806Y0184041D02*
X0178743Y0182791D01*
X0180618Y0182791D01*
X0180618Y0185291D01*
X0178743Y0185291D01*
X0177806Y0184041D01*
X0177878Y0184138D02*
X0180618Y0184138D01*
X0180618Y0184636D02*
X0178252Y0184636D01*
X0178626Y0185135D02*
X0180618Y0185135D01*
X0180618Y0183639D02*
X0178107Y0183639D01*
X0178481Y0183141D02*
X0180618Y0183141D01*
X0189993Y0191556D02*
X0189993Y0193431D01*
X0191243Y0194369D01*
X0192493Y0193431D01*
X0192493Y0191556D01*
X0189993Y0191556D01*
X0189993Y0191615D02*
X0192493Y0191615D01*
X0192493Y0192114D02*
X0189993Y0192114D01*
X0189993Y0192612D02*
X0192493Y0192612D01*
X0192493Y0193111D02*
X0189993Y0193111D01*
X0190231Y0193609D02*
X0192255Y0193609D01*
X0191591Y0194108D02*
X0190896Y0194108D01*
X0191243Y0197494D02*
X0189993Y0198431D01*
X0189993Y0200306D01*
X0192493Y0200306D01*
X0192493Y0198431D01*
X0191243Y0197494D01*
X0191104Y0197598D02*
X0191382Y0197598D01*
X0192046Y0198096D02*
X0190440Y0198096D01*
X0189993Y0198595D02*
X0192493Y0198595D01*
X0192493Y0199093D02*
X0189993Y0199093D01*
X0189993Y0199592D02*
X0192493Y0199592D01*
X0192493Y0200090D02*
X0189993Y0200090D01*
X0189993Y0206541D02*
X0189056Y0207791D01*
X0189993Y0209041D01*
X0191868Y0209041D01*
X0191868Y0206541D01*
X0189993Y0206541D01*
X0189971Y0206571D02*
X0191868Y0206571D01*
X0191868Y0207069D02*
X0189597Y0207069D01*
X0189223Y0207568D02*
X0191868Y0207568D01*
X0191868Y0208066D02*
X0189262Y0208066D01*
X0189636Y0208565D02*
X0191868Y0208565D01*
X0195618Y0208565D02*
X0198051Y0208565D01*
X0198425Y0209063D02*
X0195618Y0209063D01*
X0195618Y0209562D02*
X0198062Y0209562D01*
X0198431Y0209071D02*
X0197493Y0207821D01*
X0195618Y0207821D01*
X0195618Y0210321D01*
X0197493Y0210321D01*
X0198431Y0209071D01*
X0197688Y0210060D02*
X0195618Y0210060D01*
X0195618Y0208066D02*
X0197677Y0208066D01*
X0198431Y0204369D02*
X0199681Y0204369D01*
X0200306Y0203431D01*
X0199681Y0202494D01*
X0198431Y0202494D01*
X0198431Y0204369D01*
X0198431Y0204078D02*
X0199874Y0204078D01*
X0200206Y0203580D02*
X0198431Y0203580D01*
X0198431Y0203081D02*
X0200072Y0203081D01*
X0199740Y0202583D02*
X0198431Y0202583D01*
X0202181Y0203431D02*
X0202806Y0204369D01*
X0204056Y0204369D01*
X0204056Y0202494D01*
X0202806Y0202494D01*
X0202181Y0203431D01*
X0202280Y0203580D02*
X0204056Y0203580D01*
X0204056Y0204078D02*
X0202612Y0204078D01*
X0202414Y0203081D02*
X0204056Y0203081D01*
X0204056Y0202583D02*
X0202746Y0202583D01*
X0202493Y0207821D02*
X0201556Y0209071D01*
X0202493Y0210321D01*
X0204368Y0210321D01*
X0204368Y0207821D01*
X0202493Y0207821D01*
X0202309Y0208066D02*
X0204368Y0208066D01*
X0204368Y0208565D02*
X0201935Y0208565D01*
X0201561Y0209063D02*
X0204368Y0209063D01*
X0204368Y0209562D02*
X0201924Y0209562D01*
X0202298Y0210060D02*
X0204368Y0210060D01*
X0201556Y0213729D02*
X0200306Y0213729D01*
X0199681Y0214666D01*
X0200306Y0215604D01*
X0201556Y0215604D01*
X0201556Y0213729D01*
X0201556Y0214048D02*
X0200092Y0214048D01*
X0199760Y0214547D02*
X0201556Y0214547D01*
X0201556Y0215045D02*
X0199933Y0215045D01*
X0200266Y0215544D02*
X0201556Y0215544D01*
X0201556Y0218133D02*
X0201556Y0220008D01*
X0200306Y0220008D01*
X0199681Y0219071D01*
X0200306Y0218133D01*
X0201556Y0218133D01*
X0201556Y0218535D02*
X0200038Y0218535D01*
X0199705Y0219034D02*
X0201556Y0219034D01*
X0201556Y0219532D02*
X0199988Y0219532D01*
X0197806Y0219071D02*
X0197181Y0220008D01*
X0195931Y0220008D01*
X0195931Y0218133D01*
X0197181Y0218133D01*
X0197806Y0219071D01*
X0197781Y0219034D02*
X0195931Y0219034D01*
X0195931Y0219532D02*
X0197498Y0219532D01*
X0197448Y0218535D02*
X0195931Y0218535D01*
X0195931Y0215604D02*
X0195931Y0213729D01*
X0197181Y0213729D01*
X0197806Y0214666D01*
X0197181Y0215604D01*
X0195931Y0215604D01*
X0195931Y0215544D02*
X0197220Y0215544D01*
X0197553Y0215045D02*
X0195931Y0215045D01*
X0195931Y0214547D02*
X0197726Y0214547D01*
X0197394Y0214048D02*
X0195931Y0214048D01*
X0191883Y0217806D02*
X0190008Y0217806D01*
X0189070Y0219056D01*
X0190008Y0220306D01*
X0191883Y0220306D01*
X0191883Y0217806D01*
X0191883Y0218037D02*
X0189835Y0218037D01*
X0189461Y0218535D02*
X0191883Y0218535D01*
X0191883Y0219034D02*
X0189087Y0219034D01*
X0189427Y0219532D02*
X0191883Y0219532D01*
X0191883Y0220031D02*
X0189801Y0220031D01*
X0185945Y0219056D02*
X0185008Y0217806D01*
X0183133Y0217806D01*
X0183133Y0220306D01*
X0185008Y0220306D01*
X0185945Y0219056D01*
X0185928Y0219034D02*
X0183133Y0219034D01*
X0183133Y0219532D02*
X0185588Y0219532D01*
X0185214Y0220031D02*
X0183133Y0220031D01*
X0183133Y0218535D02*
X0185554Y0218535D01*
X0185181Y0218037D02*
X0183133Y0218037D01*
X0183743Y0214666D02*
X0182806Y0213416D01*
X0183743Y0212166D01*
X0185618Y0212166D01*
X0185618Y0214666D01*
X0183743Y0214666D01*
X0183653Y0214547D02*
X0185618Y0214547D01*
X0185618Y0214048D02*
X0183280Y0214048D01*
X0182906Y0213550D02*
X0185618Y0213550D01*
X0185618Y0213051D02*
X0183079Y0213051D01*
X0183453Y0212553D02*
X0185618Y0212553D01*
X0184993Y0209041D02*
X0185931Y0207791D01*
X0184993Y0206541D01*
X0183118Y0206541D01*
X0183118Y0209041D01*
X0184993Y0209041D01*
X0185350Y0208565D02*
X0183118Y0208565D01*
X0183118Y0208066D02*
X0185724Y0208066D01*
X0185763Y0207568D02*
X0183118Y0207568D01*
X0183118Y0207069D02*
X0185389Y0207069D01*
X0185015Y0206571D02*
X0183118Y0206571D01*
X0178743Y0212166D02*
X0176868Y0212166D01*
X0176868Y0214666D01*
X0178743Y0214666D01*
X0179681Y0213416D01*
X0178743Y0212166D01*
X0179033Y0212553D02*
X0176868Y0212553D01*
X0176868Y0213051D02*
X0179407Y0213051D01*
X0179580Y0213550D02*
X0176868Y0213550D01*
X0176868Y0214048D02*
X0179206Y0214048D01*
X0178833Y0214547D02*
X0176868Y0214547D01*
X0173118Y0222181D02*
X0173118Y0224681D01*
X0171243Y0224681D01*
X0170306Y0223431D01*
X0171243Y0222181D01*
X0173118Y0222181D01*
X0173118Y0222523D02*
X0170987Y0222523D01*
X0170613Y0223022D02*
X0173118Y0223022D01*
X0173118Y0223520D02*
X0170372Y0223520D01*
X0170746Y0224019D02*
X0173118Y0224019D01*
X0173118Y0224517D02*
X0171120Y0224517D01*
X0171243Y0227181D02*
X0170306Y0228431D01*
X0171243Y0229681D01*
X0173118Y0229681D01*
X0173118Y0227181D01*
X0171243Y0227181D01*
X0170998Y0227508D02*
X0173118Y0227508D01*
X0173118Y0228007D02*
X0170624Y0228007D01*
X0170361Y0228505D02*
X0173118Y0228505D01*
X0173118Y0229004D02*
X0170735Y0229004D01*
X0171109Y0229502D02*
X0173118Y0229502D01*
X0173118Y0232181D02*
X0171243Y0232181D01*
X0170306Y0233431D01*
X0171243Y0234681D01*
X0173118Y0234681D01*
X0173118Y0232181D01*
X0173118Y0232493D02*
X0171009Y0232493D01*
X0170635Y0232992D02*
X0173118Y0232992D01*
X0173118Y0233490D02*
X0170350Y0233490D01*
X0170724Y0233989D02*
X0173118Y0233989D01*
X0173118Y0234487D02*
X0171098Y0234487D01*
X0167181Y0233431D02*
X0166243Y0232181D01*
X0164368Y0232181D01*
X0164368Y0234681D01*
X0166243Y0234681D01*
X0167181Y0233431D01*
X0167136Y0233490D02*
X0164368Y0233490D01*
X0164368Y0232992D02*
X0166851Y0232992D01*
X0166477Y0232493D02*
X0164368Y0232493D01*
X0164368Y0233989D02*
X0166762Y0233989D01*
X0166388Y0234487D02*
X0164368Y0234487D01*
X0164368Y0229681D02*
X0166243Y0229681D01*
X0167181Y0228431D01*
X0166243Y0227181D01*
X0164368Y0227181D01*
X0164368Y0229681D01*
X0164368Y0229502D02*
X0166377Y0229502D01*
X0166751Y0229004D02*
X0164368Y0229004D01*
X0164368Y0228505D02*
X0167125Y0228505D01*
X0166862Y0228007D02*
X0164368Y0228007D01*
X0164368Y0227508D02*
X0166488Y0227508D01*
X0166243Y0224681D02*
X0164368Y0224681D01*
X0164368Y0222181D01*
X0166243Y0222181D01*
X0167181Y0223431D01*
X0166243Y0224681D01*
X0166366Y0224517D02*
X0164368Y0224517D01*
X0164368Y0224019D02*
X0166740Y0224019D01*
X0167114Y0223520D02*
X0164368Y0223520D01*
X0164368Y0223022D02*
X0166873Y0223022D01*
X0166500Y0222523D02*
X0164368Y0222523D01*
X0164681Y0218119D02*
X0165931Y0218119D01*
X0166556Y0217181D01*
X0165931Y0216244D01*
X0164681Y0216244D01*
X0164681Y0218119D01*
X0164681Y0218037D02*
X0165985Y0218037D01*
X0166318Y0217538D02*
X0164681Y0217538D01*
X0164681Y0217039D02*
X0166461Y0217039D01*
X0166129Y0216541D02*
X0164681Y0216541D01*
X0168431Y0217181D02*
X0169056Y0218119D01*
X0170306Y0218119D01*
X0170306Y0216244D01*
X0169056Y0216244D01*
X0168431Y0217181D01*
X0168525Y0217039D02*
X0170306Y0217039D01*
X0170306Y0216541D02*
X0168857Y0216541D01*
X0168668Y0217538D02*
X0170306Y0217538D01*
X0170306Y0218037D02*
X0169001Y0218037D01*
X0157806Y0218037D02*
X0156501Y0218037D01*
X0156556Y0218119D02*
X0157806Y0218119D01*
X0157806Y0216244D01*
X0156556Y0216244D01*
X0155931Y0217181D01*
X0156556Y0218119D01*
X0156168Y0217538D02*
X0157806Y0217538D01*
X0157806Y0217039D02*
X0156025Y0217039D01*
X0156357Y0216541D02*
X0157806Y0216541D01*
X0154056Y0217181D02*
X0153431Y0218119D01*
X0152181Y0218119D01*
X0152181Y0216244D01*
X0153431Y0216244D01*
X0154056Y0217181D01*
X0153961Y0217039D02*
X0152181Y0217039D01*
X0152181Y0216541D02*
X0153629Y0216541D01*
X0153818Y0217538D02*
X0152181Y0217538D01*
X0152181Y0218037D02*
X0153485Y0218037D01*
X0151243Y0222181D02*
X0152181Y0223431D01*
X0151243Y0224681D01*
X0149368Y0224681D01*
X0149368Y0222181D01*
X0151243Y0222181D01*
X0151500Y0222523D02*
X0149368Y0222523D01*
X0149368Y0223022D02*
X0151873Y0223022D01*
X0152114Y0223520D02*
X0149368Y0223520D01*
X0149368Y0224019D02*
X0151740Y0224019D01*
X0151366Y0224517D02*
X0149368Y0224517D01*
X0149368Y0227196D02*
X0149368Y0229696D01*
X0151243Y0229696D01*
X0152181Y0228446D01*
X0151243Y0227196D01*
X0149368Y0227196D01*
X0149368Y0227508D02*
X0151477Y0227508D01*
X0151851Y0228007D02*
X0149368Y0228007D01*
X0149368Y0228505D02*
X0152136Y0228505D01*
X0151762Y0229004D02*
X0149368Y0229004D01*
X0149368Y0229502D02*
X0151388Y0229502D01*
X0151243Y0232181D02*
X0149368Y0232181D01*
X0149368Y0234681D01*
X0151243Y0234681D01*
X0152181Y0233431D01*
X0151243Y0232181D01*
X0151477Y0232493D02*
X0149368Y0232493D01*
X0149368Y0232992D02*
X0151851Y0232992D01*
X0152136Y0233490D02*
X0149368Y0233490D01*
X0149368Y0233989D02*
X0151762Y0233989D01*
X0151388Y0234487D02*
X0149368Y0234487D01*
X0155306Y0233431D02*
X0156243Y0234681D01*
X0158118Y0234681D01*
X0158118Y0232181D01*
X0156243Y0232181D01*
X0155306Y0233431D01*
X0155350Y0233490D02*
X0158118Y0233490D01*
X0158118Y0232992D02*
X0155635Y0232992D01*
X0156009Y0232493D02*
X0158118Y0232493D01*
X0158118Y0233989D02*
X0155724Y0233989D01*
X0156098Y0234487D02*
X0158118Y0234487D01*
X0158118Y0229696D02*
X0158118Y0227196D01*
X0156243Y0227196D01*
X0155306Y0228446D01*
X0156243Y0229696D01*
X0158118Y0229696D01*
X0158118Y0229502D02*
X0156098Y0229502D01*
X0155724Y0229004D02*
X0158118Y0229004D01*
X0158118Y0228505D02*
X0155350Y0228505D01*
X0155635Y0228007D02*
X0158118Y0228007D01*
X0158118Y0227508D02*
X0156009Y0227508D01*
X0156243Y0224681D02*
X0155306Y0223431D01*
X0156243Y0222181D01*
X0158118Y0222181D01*
X0158118Y0224681D01*
X0156243Y0224681D01*
X0156120Y0224517D02*
X0158118Y0224517D01*
X0158118Y0224019D02*
X0155746Y0224019D01*
X0155372Y0223520D02*
X0158118Y0223520D01*
X0158118Y0223022D02*
X0155613Y0223022D01*
X0155987Y0222523D02*
X0158118Y0222523D01*
X0169056Y0241883D02*
X0169056Y0246258D01*
X0171556Y0246258D01*
X0173118Y0244071D01*
X0171556Y0241883D01*
X0169056Y0241883D01*
X0169056Y0241965D02*
X0171614Y0241965D01*
X0171970Y0242464D02*
X0169056Y0242464D01*
X0169056Y0242962D02*
X0172326Y0242962D01*
X0172682Y0243461D02*
X0169056Y0243461D01*
X0169056Y0243959D02*
X0173038Y0243959D01*
X0172842Y0244458D02*
X0169056Y0244458D01*
X0169056Y0244956D02*
X0172486Y0244956D01*
X0172130Y0245455D02*
X0169056Y0245455D01*
X0169056Y0245953D02*
X0171774Y0245953D01*
X0176868Y0244071D02*
X0178431Y0241883D01*
X0180931Y0241883D01*
X0180931Y0246258D01*
X0178431Y0246258D01*
X0176868Y0244071D01*
X0176948Y0243959D02*
X0180931Y0243959D01*
X0180931Y0243461D02*
X0177304Y0243461D01*
X0177660Y0242962D02*
X0180931Y0242962D01*
X0180931Y0242464D02*
X0178016Y0242464D01*
X0178372Y0241965D02*
X0180931Y0241965D01*
X0180931Y0244458D02*
X0177144Y0244458D01*
X0177500Y0244956D02*
X0180931Y0244956D01*
X0180931Y0245455D02*
X0177856Y0245455D01*
X0178213Y0245953D02*
X0180931Y0245953D01*
X0183118Y0234056D02*
X0185618Y0234056D01*
X0185618Y0232181D01*
X0184368Y0231244D01*
X0183118Y0232181D01*
X0183118Y0234056D01*
X0183118Y0233989D02*
X0185618Y0233989D01*
X0185618Y0233490D02*
X0183118Y0233490D01*
X0183118Y0232992D02*
X0185618Y0232992D01*
X0185618Y0232493D02*
X0183118Y0232493D01*
X0183366Y0231995D02*
X0185370Y0231995D01*
X0184705Y0231496D02*
X0184031Y0231496D01*
X0184368Y0228119D02*
X0185618Y0227181D01*
X0185618Y0225306D01*
X0183118Y0225306D01*
X0183118Y0227181D01*
X0184368Y0228119D01*
X0184219Y0228007D02*
X0184517Y0228007D01*
X0185182Y0227508D02*
X0183554Y0227508D01*
X0183118Y0227010D02*
X0185618Y0227010D01*
X0185618Y0226511D02*
X0183118Y0226511D01*
X0183118Y0226013D02*
X0185618Y0226013D01*
X0185618Y0225514D02*
X0183118Y0225514D01*
X0194695Y0229994D02*
X0194695Y0234369D01*
X0197195Y0234369D01*
X0198758Y0232181D01*
X0197195Y0229994D01*
X0194695Y0229994D01*
X0194695Y0230001D02*
X0197200Y0230001D01*
X0197557Y0230499D02*
X0194695Y0230499D01*
X0194695Y0230998D02*
X0197913Y0230998D01*
X0198269Y0231496D02*
X0194695Y0231496D01*
X0194695Y0231995D02*
X0198625Y0231995D01*
X0198535Y0232493D02*
X0194695Y0232493D01*
X0194695Y0232992D02*
X0198179Y0232992D01*
X0197823Y0233490D02*
X0194695Y0233490D01*
X0194695Y0233989D02*
X0197467Y0233989D01*
X0202508Y0232181D02*
X0204070Y0234369D01*
X0206570Y0234369D01*
X0206570Y0229994D01*
X0204070Y0229994D01*
X0202508Y0232181D01*
X0202641Y0231995D02*
X0206570Y0231995D01*
X0206570Y0232493D02*
X0202731Y0232493D01*
X0203087Y0232992D02*
X0206570Y0232992D01*
X0206570Y0233490D02*
X0203443Y0233490D01*
X0203799Y0233989D02*
X0206570Y0233989D01*
X0206570Y0231496D02*
X0202997Y0231496D01*
X0203353Y0230998D02*
X0206570Y0230998D01*
X0206570Y0230499D02*
X0203709Y0230499D01*
X0204065Y0230001D02*
X0206570Y0230001D01*
X0206243Y0226541D02*
X0205306Y0225291D01*
X0206243Y0224041D01*
X0208118Y0224041D01*
X0208118Y0226541D01*
X0206243Y0226541D01*
X0206220Y0226511D02*
X0208118Y0226511D01*
X0208118Y0226013D02*
X0205847Y0226013D01*
X0205473Y0225514D02*
X0208118Y0225514D01*
X0208118Y0225016D02*
X0205512Y0225016D01*
X0205886Y0224517D02*
X0208118Y0224517D01*
X0202181Y0225291D02*
X0201243Y0224041D01*
X0199368Y0224041D01*
X0199368Y0226541D01*
X0201243Y0226541D01*
X0202181Y0225291D01*
X0202013Y0225514D02*
X0199368Y0225514D01*
X0199368Y0225016D02*
X0201974Y0225016D01*
X0201600Y0224517D02*
X0199368Y0224517D01*
X0199368Y0226013D02*
X0201640Y0226013D01*
X0201266Y0226511D02*
X0199368Y0226511D01*
X0201868Y0249041D02*
X0201868Y0251541D01*
X0203743Y0251541D01*
X0204681Y0250291D01*
X0203743Y0249041D01*
X0201868Y0249041D01*
X0201868Y0249443D02*
X0204044Y0249443D01*
X0204418Y0249941D02*
X0201868Y0249941D01*
X0201868Y0250440D02*
X0204569Y0250440D01*
X0204195Y0250938D02*
X0201868Y0250938D01*
X0201868Y0251437D02*
X0203821Y0251437D01*
X0203743Y0254041D02*
X0201868Y0254041D01*
X0201868Y0256541D01*
X0203743Y0256541D01*
X0204681Y0255291D01*
X0203743Y0254041D01*
X0204033Y0254428D02*
X0201868Y0254428D01*
X0201868Y0254926D02*
X0204407Y0254926D01*
X0204580Y0255425D02*
X0201868Y0255425D01*
X0201868Y0255923D02*
X0204207Y0255923D01*
X0203833Y0256422D02*
X0201868Y0256422D01*
X0207806Y0255291D02*
X0208743Y0254041D01*
X0210618Y0254041D01*
X0210618Y0256541D01*
X0208743Y0256541D01*
X0207806Y0255291D01*
X0207906Y0255425D02*
X0210618Y0255425D01*
X0210618Y0255923D02*
X0208280Y0255923D01*
X0208653Y0256422D02*
X0210618Y0256422D01*
X0210618Y0254926D02*
X0208079Y0254926D01*
X0208453Y0254428D02*
X0210618Y0254428D01*
X0210618Y0251541D02*
X0208743Y0251541D01*
X0207806Y0250291D01*
X0208743Y0249041D01*
X0210618Y0249041D01*
X0210618Y0251541D01*
X0210618Y0251437D02*
X0208665Y0251437D01*
X0208291Y0250938D02*
X0210618Y0250938D01*
X0210618Y0250440D02*
X0207917Y0250440D01*
X0208068Y0249941D02*
X0210618Y0249941D01*
X0210618Y0249443D02*
X0208442Y0249443D01*
X0241931Y0233229D02*
X0243181Y0233229D01*
X0243806Y0232291D01*
X0243181Y0231354D01*
X0241931Y0231354D01*
X0241931Y0233229D01*
X0241931Y0232992D02*
X0243339Y0232992D01*
X0243671Y0232493D02*
X0241931Y0232493D01*
X0241931Y0231995D02*
X0243608Y0231995D01*
X0243276Y0231496D02*
X0241931Y0231496D01*
X0245681Y0232291D02*
X0246306Y0233229D01*
X0247556Y0233229D01*
X0247556Y0231354D01*
X0246306Y0231354D01*
X0245681Y0232291D01*
X0245815Y0232493D02*
X0247556Y0232493D01*
X0247556Y0231995D02*
X0245878Y0231995D01*
X0246211Y0231496D02*
X0247556Y0231496D01*
X0247556Y0232992D02*
X0246148Y0232992D01*
X0251931Y0232992D02*
X0253339Y0232992D01*
X0253181Y0233229D02*
X0253806Y0232291D01*
X0253181Y0231354D01*
X0251931Y0231354D01*
X0251931Y0233229D01*
X0253181Y0233229D01*
X0253671Y0232493D02*
X0251931Y0232493D01*
X0251931Y0231995D02*
X0253608Y0231995D01*
X0253276Y0231496D02*
X0251931Y0231496D01*
X0255681Y0232291D02*
X0256306Y0233229D01*
X0257556Y0233229D01*
X0257556Y0231354D01*
X0256306Y0231354D01*
X0255681Y0232291D01*
X0255815Y0232493D02*
X0257556Y0232493D01*
X0257556Y0231995D02*
X0255878Y0231995D01*
X0256211Y0231496D02*
X0257556Y0231496D01*
X0257556Y0232992D02*
X0256148Y0232992D01*
X0266868Y0232791D02*
X0266868Y0230291D01*
X0268743Y0230291D01*
X0269681Y0231541D01*
X0268743Y0232791D01*
X0266868Y0232791D01*
X0266868Y0232493D02*
X0268967Y0232493D01*
X0269340Y0231995D02*
X0266868Y0231995D01*
X0266868Y0231496D02*
X0269647Y0231496D01*
X0269273Y0230998D02*
X0266868Y0230998D01*
X0266868Y0230499D02*
X0268899Y0230499D01*
X0272806Y0231541D02*
X0273743Y0230291D01*
X0275618Y0230291D01*
X0275618Y0232791D01*
X0273743Y0232791D01*
X0272806Y0231541D01*
X0272839Y0231496D02*
X0275618Y0231496D01*
X0275618Y0230998D02*
X0273213Y0230998D01*
X0273587Y0230499D02*
X0275618Y0230499D01*
X0275618Y0231995D02*
X0273146Y0231995D01*
X0273520Y0232493D02*
X0275618Y0232493D01*
X0275603Y0165931D02*
X0273728Y0165931D01*
X0273728Y0163431D01*
X0275603Y0163431D01*
X0276541Y0164681D01*
X0275603Y0165931D01*
X0275782Y0165693D02*
X0273728Y0165693D01*
X0273728Y0165194D02*
X0276156Y0165194D01*
X0276530Y0164696D02*
X0273728Y0164696D01*
X0273728Y0164197D02*
X0276178Y0164197D01*
X0275804Y0163699D02*
X0273728Y0163699D01*
X0269978Y0163699D02*
X0267903Y0163699D01*
X0268103Y0163431D02*
X0267166Y0164681D01*
X0268103Y0165931D01*
X0269978Y0165931D01*
X0269978Y0163431D01*
X0268103Y0163431D01*
X0267529Y0164197D02*
X0269978Y0164197D01*
X0269978Y0164696D02*
X0267177Y0164696D01*
X0267551Y0165194D02*
X0269978Y0165194D01*
X0269978Y0165693D02*
X0267925Y0165693D01*
X0264041Y0164681D02*
X0263103Y0163431D01*
X0261228Y0163431D01*
X0261228Y0165931D01*
X0263103Y0165931D01*
X0264041Y0164681D01*
X0264030Y0164696D02*
X0261228Y0164696D01*
X0261228Y0165194D02*
X0263656Y0165194D01*
X0263282Y0165693D02*
X0261228Y0165693D01*
X0261228Y0164197D02*
X0263678Y0164197D01*
X0263304Y0163699D02*
X0261228Y0163699D01*
X0279666Y0164681D02*
X0280603Y0165931D01*
X0282478Y0165931D01*
X0282478Y0163431D01*
X0280603Y0163431D01*
X0279666Y0164681D01*
X0279677Y0164696D02*
X0282478Y0164696D01*
X0282478Y0165194D02*
X0280051Y0165194D01*
X0280425Y0165693D02*
X0282478Y0165693D01*
X0282478Y0164197D02*
X0280029Y0164197D01*
X0280403Y0163699D02*
X0282478Y0163699D01*
X0203118Y0184681D02*
X0201243Y0184681D01*
X0200306Y0185931D01*
X0201243Y0187181D01*
X0203118Y0187181D01*
X0203118Y0184681D01*
X0203118Y0185135D02*
X0200903Y0185135D01*
X0200529Y0185633D02*
X0203118Y0185633D01*
X0203118Y0186132D02*
X0200456Y0186132D01*
X0200830Y0186630D02*
X0203118Y0186630D01*
X0203118Y0187129D02*
X0201204Y0187129D01*
X0197181Y0185931D02*
X0196243Y0184681D01*
X0194368Y0184681D01*
X0194368Y0187181D01*
X0196243Y0187181D01*
X0197181Y0185931D01*
X0197030Y0186132D02*
X0194368Y0186132D01*
X0194368Y0186630D02*
X0196656Y0186630D01*
X0196282Y0187129D02*
X0194368Y0187129D01*
X0194368Y0185633D02*
X0196957Y0185633D01*
X0196583Y0185135D02*
X0194368Y0185135D01*
X0171094Y0195806D02*
X0170935Y0195599D01*
X0170728Y0195440D01*
X0170487Y0195340D01*
X0170228Y0195306D01*
X0169728Y0195306D01*
X0169469Y0195340D01*
X0169228Y0195440D01*
X0169021Y0195599D01*
X0168862Y0195806D01*
X0168762Y0196047D01*
X0168728Y0196306D01*
X0168728Y0196806D01*
X0168762Y0197065D01*
X0168862Y0197306D01*
X0169021Y0197513D01*
X0169228Y0197672D01*
X0169469Y0197772D01*
X0169728Y0197806D01*
X0170228Y0197806D01*
X0170487Y0197772D01*
X0170728Y0197672D01*
X0170935Y0197513D01*
X0171094Y0197306D01*
X0171194Y0197065D01*
X0171228Y0196806D01*
X0171228Y0196306D01*
X0171194Y0196047D01*
X0171094Y0195806D01*
X0170939Y0195603D02*
X0169018Y0195603D01*
X0168755Y0196102D02*
X0171201Y0196102D01*
X0171228Y0196601D02*
X0168728Y0196601D01*
X0168776Y0197099D02*
X0171180Y0197099D01*
X0170825Y0197598D02*
X0169131Y0197598D01*
X0169469Y0199090D02*
X0169228Y0199190D01*
X0169021Y0199349D01*
X0168862Y0199556D01*
X0168762Y0199797D01*
X0168728Y0200056D01*
X0168728Y0200556D01*
X0168762Y0200815D01*
X0168862Y0201056D01*
X0169021Y0201263D01*
X0169228Y0201422D01*
X0169469Y0201522D01*
X0169728Y0201556D01*
X0170228Y0201556D01*
X0170487Y0201522D01*
X0170728Y0201422D01*
X0170935Y0201263D01*
X0171094Y0201056D01*
X0171194Y0200815D01*
X0171228Y0200556D01*
X0171228Y0200056D01*
X0171194Y0199797D01*
X0171094Y0199556D01*
X0170935Y0199349D01*
X0170728Y0199190D01*
X0170487Y0199090D01*
X0170228Y0199056D01*
X0169728Y0199056D01*
X0169469Y0199090D01*
X0169462Y0199093D02*
X0170494Y0199093D01*
X0171109Y0199592D02*
X0168848Y0199592D01*
X0168728Y0200090D02*
X0171228Y0200090D01*
X0171224Y0200589D02*
X0168733Y0200589D01*
X0168886Y0201087D02*
X0171070Y0201087D01*
X0167474Y0200589D02*
X0164983Y0200589D01*
X0164978Y0200556D02*
X0165012Y0200815D01*
X0165112Y0201056D01*
X0165271Y0201263D01*
X0165478Y0201422D01*
X0165719Y0201522D01*
X0165978Y0201556D01*
X0166478Y0201556D01*
X0166737Y0201522D01*
X0166978Y0201422D01*
X0167185Y0201263D01*
X0167344Y0201056D01*
X0167444Y0200815D01*
X0167478Y0200556D01*
X0167478Y0200056D01*
X0167444Y0199797D01*
X0167344Y0199556D01*
X0167185Y0199349D01*
X0166978Y0199190D01*
X0166737Y0199090D01*
X0166478Y0199056D01*
X0165978Y0199056D01*
X0165719Y0199090D01*
X0165478Y0199190D01*
X0165271Y0199349D01*
X0165112Y0199556D01*
X0165012Y0199797D01*
X0164978Y0200056D01*
X0164978Y0200556D01*
X0164978Y0200090D02*
X0167478Y0200090D01*
X0167359Y0199592D02*
X0165098Y0199592D01*
X0165712Y0199093D02*
X0166744Y0199093D01*
X0166478Y0197806D02*
X0166737Y0197772D01*
X0166978Y0197672D01*
X0167185Y0197513D01*
X0167344Y0197306D01*
X0167444Y0197065D01*
X0167478Y0196806D01*
X0167478Y0196306D01*
X0167444Y0196047D01*
X0167344Y0195806D01*
X0167185Y0195599D01*
X0166978Y0195440D01*
X0166737Y0195340D01*
X0166478Y0195306D01*
X0165978Y0195306D01*
X0165719Y0195340D01*
X0165478Y0195440D01*
X0165271Y0195599D01*
X0165112Y0195806D01*
X0165012Y0196047D01*
X0164978Y0196306D01*
X0164978Y0196806D01*
X0165012Y0197065D01*
X0165112Y0197306D01*
X0165271Y0197513D01*
X0165478Y0197672D01*
X0165719Y0197772D01*
X0165978Y0197806D01*
X0166478Y0197806D01*
X0167075Y0197598D02*
X0165381Y0197598D01*
X0165026Y0197099D02*
X0167430Y0197099D01*
X0167478Y0196601D02*
X0164978Y0196601D01*
X0165005Y0196102D02*
X0167451Y0196102D01*
X0167189Y0195603D02*
X0165268Y0195603D01*
X0165136Y0201087D02*
X0167320Y0201087D01*
X0165618Y0242791D02*
X0163743Y0242791D01*
X0162806Y0244041D01*
X0163743Y0245291D01*
X0165618Y0245291D01*
X0165618Y0242791D01*
X0165618Y0242962D02*
X0163615Y0242962D01*
X0163241Y0243461D02*
X0165618Y0243461D01*
X0165618Y0243959D02*
X0162867Y0243959D01*
X0163118Y0244458D02*
X0165618Y0244458D01*
X0165618Y0244956D02*
X0163492Y0244956D01*
X0159681Y0244041D02*
X0158743Y0242791D01*
X0156868Y0242791D01*
X0156868Y0245291D01*
X0158743Y0245291D01*
X0159681Y0244041D01*
X0159619Y0243959D02*
X0156868Y0243959D01*
X0156868Y0243461D02*
X0159245Y0243461D01*
X0158871Y0242962D02*
X0156868Y0242962D01*
X0156868Y0244458D02*
X0159368Y0244458D01*
X0158994Y0244956D02*
X0156868Y0244956D01*
X0157806Y0265633D02*
X0157181Y0266571D01*
X0157806Y0267508D01*
X0159056Y0267508D01*
X0159056Y0265633D01*
X0157806Y0265633D01*
X0157632Y0265894D02*
X0159056Y0265894D01*
X0159056Y0266392D02*
X0157300Y0266392D01*
X0157394Y0266891D02*
X0159056Y0266891D01*
X0159056Y0267389D02*
X0157726Y0267389D01*
X0155306Y0266571D02*
X0154681Y0265633D01*
X0153431Y0265633D01*
X0153431Y0267508D01*
X0154681Y0267508D01*
X0155306Y0266571D01*
X0155186Y0266392D02*
X0153431Y0266392D01*
X0153431Y0265894D02*
X0154854Y0265894D01*
X0155092Y0266891D02*
X0153431Y0266891D01*
X0153431Y0267389D02*
X0154760Y0267389D01*
X0164681Y0267389D02*
X0166268Y0267389D01*
X0166556Y0267821D02*
X0165931Y0268758D01*
X0164681Y0268758D01*
X0164681Y0266883D01*
X0165931Y0266883D01*
X0166556Y0267821D01*
X0166511Y0267888D02*
X0164681Y0267888D01*
X0164681Y0268386D02*
X0166179Y0268386D01*
X0165935Y0266891D02*
X0164681Y0266891D01*
X0168431Y0267821D02*
X0169056Y0268758D01*
X0170306Y0268758D01*
X0170306Y0266883D01*
X0169056Y0266883D01*
X0168431Y0267821D01*
X0168475Y0267888D02*
X0170306Y0267888D01*
X0170306Y0268386D02*
X0168807Y0268386D01*
X0168718Y0267389D02*
X0170306Y0267389D01*
X0170306Y0266891D02*
X0169051Y0266891D01*
X0178118Y0303041D02*
X0178118Y0305541D01*
X0179993Y0305541D01*
X0180931Y0304291D01*
X0179993Y0303041D01*
X0178118Y0303041D01*
X0178118Y0303282D02*
X0180173Y0303282D01*
X0180547Y0303780D02*
X0178118Y0303780D01*
X0178118Y0304279D02*
X0180921Y0304279D01*
X0180566Y0304777D02*
X0178118Y0304777D01*
X0178118Y0305276D02*
X0180192Y0305276D01*
X0184056Y0304291D02*
X0184993Y0305541D01*
X0186868Y0305541D01*
X0186868Y0303041D01*
X0184993Y0303041D01*
X0184056Y0304291D01*
X0184065Y0304279D02*
X0186868Y0304279D01*
X0186868Y0304777D02*
X0184420Y0304777D01*
X0184794Y0305276D02*
X0186868Y0305276D01*
X0186868Y0303780D02*
X0184439Y0303780D01*
X0184813Y0303282D02*
X0186868Y0303282D01*
X0184368Y0313041D02*
X0182493Y0313041D01*
X0181556Y0314291D01*
X0182493Y0315541D01*
X0184368Y0315541D01*
X0184368Y0313041D01*
X0184368Y0313252D02*
X0182335Y0313252D01*
X0181961Y0313751D02*
X0184368Y0313751D01*
X0184368Y0314249D02*
X0181587Y0314249D01*
X0181898Y0314748D02*
X0184368Y0314748D01*
X0184368Y0315246D02*
X0182272Y0315246D01*
X0178431Y0314291D02*
X0177493Y0313041D01*
X0175618Y0313041D01*
X0175618Y0315541D01*
X0177493Y0315541D01*
X0178431Y0314291D01*
X0178399Y0314249D02*
X0175618Y0314249D01*
X0175618Y0313751D02*
X0178025Y0313751D01*
X0177651Y0313252D02*
X0175618Y0313252D01*
X0175618Y0314748D02*
X0178088Y0314748D01*
X0177714Y0315246D02*
X0175618Y0315246D01*
X0178819Y0325140D02*
X0177935Y0326024D01*
X0178156Y0327128D01*
X0179261Y0327349D01*
X0180145Y0326466D01*
X0178819Y0325140D01*
X0178742Y0325216D02*
X0178896Y0325216D01*
X0179394Y0325715D02*
X0178244Y0325715D01*
X0177973Y0326213D02*
X0179893Y0326213D01*
X0179898Y0326712D02*
X0178073Y0326712D01*
X0178566Y0327210D02*
X0179400Y0327210D01*
X0176830Y0328454D02*
X0175725Y0328233D01*
X0174841Y0329117D01*
X0176167Y0330443D01*
X0177051Y0329559D01*
X0176830Y0328454D01*
X0176880Y0328706D02*
X0175253Y0328706D01*
X0174929Y0329205D02*
X0176980Y0329205D01*
X0176907Y0329703D02*
X0175427Y0329703D01*
X0175926Y0330202D02*
X0176409Y0330202D01*
X0178764Y0332694D02*
X0180678Y0332694D01*
X0180580Y0332204D02*
X0179475Y0331983D01*
X0178591Y0332867D01*
X0179917Y0334193D01*
X0180801Y0333309D01*
X0180580Y0332204D01*
X0180537Y0332196D02*
X0179263Y0332196D01*
X0178917Y0333193D02*
X0180778Y0333193D01*
X0180419Y0333691D02*
X0179415Y0333691D01*
X0179914Y0334190D02*
X0179921Y0334190D01*
X0177645Y0336466D02*
X0176319Y0335140D01*
X0175435Y0336024D01*
X0175656Y0337128D01*
X0176761Y0337349D01*
X0177645Y0336466D01*
X0177428Y0336682D02*
X0175567Y0336682D01*
X0175467Y0336184D02*
X0177363Y0336184D01*
X0176864Y0335685D02*
X0175773Y0335685D01*
X0176272Y0335187D02*
X0176366Y0335187D01*
X0175917Y0337181D02*
X0176929Y0337181D01*
X0174330Y0338454D02*
X0174551Y0339559D01*
X0173667Y0340443D01*
X0172341Y0339117D01*
X0173225Y0338233D01*
X0174330Y0338454D01*
X0174375Y0338676D02*
X0172782Y0338676D01*
X0172399Y0339175D02*
X0174474Y0339175D01*
X0174437Y0339673D02*
X0172897Y0339673D01*
X0173396Y0340172D02*
X0173938Y0340172D01*
X0181906Y0330878D02*
X0181685Y0329774D01*
X0182569Y0328890D01*
X0183895Y0330216D01*
X0183011Y0331099D01*
X0181906Y0330878D01*
X0181870Y0330700D02*
X0183410Y0330700D01*
X0183881Y0330202D02*
X0181771Y0330202D01*
X0181755Y0329703D02*
X0183382Y0329703D01*
X0182884Y0329205D02*
X0182254Y0329205D01*
X0186814Y0328363D02*
X0186814Y0326488D01*
X0188064Y0326488D01*
X0188689Y0327425D01*
X0188064Y0328363D01*
X0186814Y0328363D01*
X0186814Y0328208D02*
X0188168Y0328208D01*
X0188500Y0327709D02*
X0186814Y0327709D01*
X0186814Y0327210D02*
X0188546Y0327210D01*
X0188214Y0326712D02*
X0186814Y0326712D01*
X0190564Y0327425D02*
X0191189Y0326488D01*
X0192439Y0326488D01*
X0192439Y0328363D01*
X0191189Y0328363D01*
X0190564Y0327425D01*
X0190708Y0327210D02*
X0192439Y0327210D01*
X0192439Y0326712D02*
X0191040Y0326712D01*
X0190754Y0327709D02*
X0192439Y0327709D01*
X0192439Y0328208D02*
X0191086Y0328208D01*
X0204993Y0335916D02*
X0204993Y0337791D01*
X0206243Y0338729D01*
X0207493Y0337791D01*
X0207493Y0335916D01*
X0204993Y0335916D01*
X0204993Y0336184D02*
X0207493Y0336184D01*
X0207493Y0336682D02*
X0204993Y0336682D01*
X0204993Y0337181D02*
X0207493Y0337181D01*
X0207493Y0337679D02*
X0204993Y0337679D01*
X0205508Y0338178D02*
X0206978Y0338178D01*
X0206313Y0338676D02*
X0206173Y0338676D01*
X0206243Y0341854D02*
X0204993Y0342791D01*
X0204993Y0344666D01*
X0207493Y0344666D01*
X0207493Y0342791D01*
X0206243Y0341854D01*
X0205827Y0342166D02*
X0206659Y0342166D01*
X0207324Y0342664D02*
X0205162Y0342664D01*
X0204993Y0343163D02*
X0207493Y0343163D01*
X0207493Y0343661D02*
X0204993Y0343661D01*
X0204993Y0344160D02*
X0207493Y0344160D01*
X0207493Y0344658D02*
X0204993Y0344658D01*
X0207493Y0323916D02*
X0209993Y0323916D01*
X0209993Y0322041D01*
X0208743Y0321104D01*
X0207493Y0322041D01*
X0207493Y0323916D01*
X0207493Y0323721D02*
X0209993Y0323721D01*
X0209993Y0323222D02*
X0207493Y0323222D01*
X0207493Y0322724D02*
X0209993Y0322724D01*
X0209993Y0322225D02*
X0207493Y0322225D01*
X0207912Y0321727D02*
X0209574Y0321727D01*
X0208909Y0321228D02*
X0208577Y0321228D01*
X0208743Y0317979D02*
X0209993Y0317041D01*
X0209993Y0315166D01*
X0207493Y0315166D01*
X0207493Y0317041D01*
X0208743Y0317979D01*
X0208423Y0317739D02*
X0209063Y0317739D01*
X0209728Y0317240D02*
X0207758Y0317240D01*
X0207493Y0316742D02*
X0209993Y0316742D01*
X0209993Y0316243D02*
X0207493Y0316243D01*
X0207493Y0315745D02*
X0209993Y0315745D01*
X0209993Y0315246D02*
X0207493Y0315246D01*
X0230633Y0361556D02*
X0233133Y0361556D01*
X0233133Y0363431D01*
X0231883Y0364369D01*
X0230633Y0363431D01*
X0230633Y0361556D01*
X0230633Y0361608D02*
X0233133Y0361608D01*
X0233133Y0362106D02*
X0230633Y0362106D01*
X0230633Y0362605D02*
X0233133Y0362605D01*
X0233133Y0363103D02*
X0230633Y0363103D01*
X0230860Y0363602D02*
X0232905Y0363602D01*
X0232241Y0364100D02*
X0231525Y0364100D01*
X0231883Y0367494D02*
X0230633Y0368431D01*
X0230633Y0370306D01*
X0233133Y0370306D01*
X0233133Y0368431D01*
X0231883Y0367494D01*
X0231754Y0367590D02*
X0232011Y0367590D01*
X0232676Y0368088D02*
X0231090Y0368088D01*
X0230633Y0368587D02*
X0233133Y0368587D01*
X0233133Y0369085D02*
X0230633Y0369085D01*
X0230633Y0369584D02*
X0233133Y0369584D01*
X0233133Y0370082D02*
X0230633Y0370082D01*
X0256445Y0365994D02*
X0256445Y0364744D01*
X0257383Y0364119D01*
X0258320Y0364744D01*
X0258320Y0365994D01*
X0256445Y0365994D01*
X0256445Y0365596D02*
X0258320Y0365596D01*
X0258320Y0365097D02*
X0256445Y0365097D01*
X0256662Y0364599D02*
X0258103Y0364599D01*
X0257383Y0362244D02*
X0256445Y0361619D01*
X0256445Y0360369D01*
X0258320Y0360369D01*
X0258320Y0361619D01*
X0257383Y0362244D01*
X0257177Y0362106D02*
X0257589Y0362106D01*
X0258320Y0361608D02*
X0256445Y0361608D01*
X0256445Y0361109D02*
X0258320Y0361109D01*
X0258320Y0360611D02*
X0256445Y0360611D01*
X0142493Y0306556D02*
X0142493Y0304681D01*
X0141243Y0303744D01*
X0139993Y0304681D01*
X0139993Y0306556D01*
X0142493Y0306556D01*
X0142493Y0306273D02*
X0139993Y0306273D01*
X0139993Y0305774D02*
X0142493Y0305774D01*
X0142493Y0305276D02*
X0139993Y0305276D01*
X0139993Y0304777D02*
X0142493Y0304777D01*
X0141957Y0304279D02*
X0140529Y0304279D01*
X0141194Y0303780D02*
X0141292Y0303780D01*
X0141243Y0300619D02*
X0139993Y0299681D01*
X0139993Y0297806D01*
X0142493Y0297806D01*
X0142493Y0299681D01*
X0141243Y0300619D01*
X0140806Y0300291D02*
X0141680Y0300291D01*
X0142345Y0299792D02*
X0140141Y0299792D01*
X0139993Y0299294D02*
X0142493Y0299294D01*
X0142493Y0298795D02*
X0139993Y0298795D01*
X0139993Y0298297D02*
X0142493Y0298297D01*
X0134993Y0298297D02*
X0132493Y0298297D01*
X0132493Y0297806D02*
X0132493Y0299681D01*
X0133743Y0300619D01*
X0134993Y0299681D01*
X0134993Y0297806D01*
X0132493Y0297806D01*
X0132493Y0298795D02*
X0134993Y0298795D01*
X0134993Y0299294D02*
X0132493Y0299294D01*
X0132641Y0299792D02*
X0134845Y0299792D01*
X0134180Y0300291D02*
X0133306Y0300291D01*
X0133743Y0303744D02*
X0132493Y0304681D01*
X0132493Y0306556D01*
X0134993Y0306556D01*
X0134993Y0304681D01*
X0133743Y0303744D01*
X0133694Y0303780D02*
X0133792Y0303780D01*
X0134457Y0304279D02*
X0133029Y0304279D01*
X0132493Y0304777D02*
X0134993Y0304777D01*
X0134993Y0305276D02*
X0132493Y0305276D01*
X0132493Y0305774D02*
X0134993Y0305774D01*
X0134993Y0306273D02*
X0132493Y0306273D01*
X0126243Y0306556D02*
X0123743Y0306556D01*
X0123743Y0308431D01*
X0124993Y0309369D01*
X0126243Y0308431D01*
X0126243Y0306556D01*
X0126243Y0306772D02*
X0123743Y0306772D01*
X0123743Y0307270D02*
X0126243Y0307270D01*
X0126243Y0307769D02*
X0123743Y0307769D01*
X0123743Y0308267D02*
X0126243Y0308267D01*
X0125797Y0308766D02*
X0124189Y0308766D01*
X0124854Y0309264D02*
X0125132Y0309264D01*
X0124993Y0312494D02*
X0123743Y0313431D01*
X0123743Y0315306D01*
X0126243Y0315306D01*
X0126243Y0313431D01*
X0124993Y0312494D01*
X0124646Y0312754D02*
X0125340Y0312754D01*
X0126004Y0313252D02*
X0123982Y0313252D01*
X0123743Y0313751D02*
X0126243Y0313751D01*
X0126243Y0314249D02*
X0123743Y0314249D01*
X0123743Y0314748D02*
X0126243Y0314748D01*
X0126243Y0315246D02*
X0123743Y0315246D01*
X0128743Y0319056D02*
X0131243Y0319056D01*
X0131243Y0320931D01*
X0129993Y0321869D01*
X0128743Y0320931D01*
X0128743Y0319056D01*
X0128743Y0319234D02*
X0131243Y0319234D01*
X0131243Y0319733D02*
X0128743Y0319733D01*
X0128743Y0320231D02*
X0131243Y0320231D01*
X0131243Y0320730D02*
X0128743Y0320730D01*
X0129139Y0321228D02*
X0130847Y0321228D01*
X0130182Y0321727D02*
X0129804Y0321727D01*
X0129993Y0324994D02*
X0128743Y0325931D01*
X0128743Y0327806D01*
X0131243Y0327806D01*
X0131243Y0325931D01*
X0129993Y0324994D01*
X0129696Y0325216D02*
X0130290Y0325216D01*
X0130955Y0325715D02*
X0129031Y0325715D01*
X0128743Y0326213D02*
X0131243Y0326213D01*
X0131243Y0326712D02*
X0128743Y0326712D01*
X0128743Y0327210D02*
X0131243Y0327210D01*
X0131243Y0327709D02*
X0128743Y0327709D01*
X0125306Y0347854D02*
X0124056Y0347854D01*
X0123431Y0348791D01*
X0124056Y0349729D01*
X0125306Y0349729D01*
X0125306Y0347854D01*
X0125306Y0348148D02*
X0123859Y0348148D01*
X0123527Y0348646D02*
X0125306Y0348646D01*
X0125306Y0349145D02*
X0123666Y0349145D01*
X0123999Y0349643D02*
X0125306Y0349643D01*
X0126243Y0353291D02*
X0125306Y0354541D01*
X0126243Y0355791D01*
X0128118Y0355791D01*
X0128118Y0353291D01*
X0126243Y0353291D01*
X0125988Y0353632D02*
X0128118Y0353632D01*
X0128118Y0354130D02*
X0125614Y0354130D01*
X0125371Y0354629D02*
X0128118Y0354629D01*
X0128118Y0355127D02*
X0125745Y0355127D01*
X0126119Y0355626D02*
X0128118Y0355626D01*
X0122181Y0354541D02*
X0121243Y0353291D01*
X0119368Y0353291D01*
X0119368Y0355791D01*
X0121243Y0355791D01*
X0122181Y0354541D01*
X0122115Y0354629D02*
X0119368Y0354629D01*
X0119368Y0355127D02*
X0121741Y0355127D01*
X0121367Y0355626D02*
X0119368Y0355626D01*
X0119368Y0354130D02*
X0121872Y0354130D01*
X0121498Y0353632D02*
X0119368Y0353632D01*
X0119681Y0349729D02*
X0119681Y0347854D01*
X0120931Y0347854D01*
X0121556Y0348791D01*
X0120931Y0349729D01*
X0119681Y0349729D01*
X0119681Y0349643D02*
X0120987Y0349643D01*
X0121320Y0349145D02*
X0119681Y0349145D01*
X0119681Y0348646D02*
X0121459Y0348646D01*
X0121127Y0348148D02*
X0119681Y0348148D01*
X0105618Y0358541D02*
X0103743Y0358541D01*
X0102806Y0359791D01*
X0103743Y0361041D01*
X0105618Y0361041D01*
X0105618Y0358541D01*
X0105618Y0358617D02*
X0103687Y0358617D01*
X0103313Y0359115D02*
X0105618Y0359115D01*
X0105618Y0359614D02*
X0102939Y0359614D01*
X0103046Y0360112D02*
X0105618Y0360112D01*
X0105618Y0360611D02*
X0103420Y0360611D01*
X0099681Y0359791D02*
X0098743Y0358541D01*
X0096868Y0358541D01*
X0096868Y0361041D01*
X0098743Y0361041D01*
X0099681Y0359791D01*
X0099547Y0359614D02*
X0096868Y0359614D01*
X0096868Y0360112D02*
X0099440Y0360112D01*
X0099066Y0360611D02*
X0096868Y0360611D01*
X0096868Y0359115D02*
X0099173Y0359115D01*
X0098800Y0358617D02*
X0096868Y0358617D01*
X0079993Y0357166D02*
X0079993Y0355291D01*
X0078743Y0354354D01*
X0077493Y0355291D01*
X0077493Y0357166D01*
X0079993Y0357166D01*
X0079993Y0357121D02*
X0077493Y0357121D01*
X0077493Y0356623D02*
X0079993Y0356623D01*
X0079993Y0356124D02*
X0077493Y0356124D01*
X0077493Y0355626D02*
X0079993Y0355626D01*
X0079774Y0355127D02*
X0077712Y0355127D01*
X0078377Y0354629D02*
X0079109Y0354629D01*
X0078743Y0351229D02*
X0077493Y0350291D01*
X0077493Y0348416D01*
X0079993Y0348416D01*
X0079993Y0350291D01*
X0078743Y0351229D01*
X0078623Y0351139D02*
X0078863Y0351139D01*
X0079527Y0350641D02*
X0077959Y0350641D01*
X0077493Y0350142D02*
X0079993Y0350142D01*
X0079993Y0349643D02*
X0077493Y0349643D01*
X0077493Y0349145D02*
X0079993Y0349145D01*
X0079993Y0348646D02*
X0077493Y0348646D01*
X0075243Y0321916D02*
X0073368Y0321916D01*
X0073368Y0319416D01*
X0075243Y0319416D01*
X0076181Y0320666D01*
X0075243Y0321916D01*
X0075385Y0321727D02*
X0073368Y0321727D01*
X0073368Y0321228D02*
X0075759Y0321228D01*
X0076133Y0320730D02*
X0073368Y0320730D01*
X0073368Y0320231D02*
X0075854Y0320231D01*
X0075480Y0319733D02*
X0073368Y0319733D01*
X0079306Y0320666D02*
X0080243Y0321916D01*
X0082118Y0321916D01*
X0082118Y0319416D01*
X0080243Y0319416D01*
X0079306Y0320666D01*
X0079353Y0320730D02*
X0082118Y0320730D01*
X0082118Y0321228D02*
X0079727Y0321228D01*
X0080101Y0321727D02*
X0082118Y0321727D01*
X0082118Y0320231D02*
X0079632Y0320231D01*
X0080006Y0319733D02*
X0082118Y0319733D01*
X0090368Y0319733D02*
X0092480Y0319733D01*
X0092243Y0319416D02*
X0090368Y0319416D01*
X0090368Y0321916D01*
X0092243Y0321916D01*
X0093181Y0320666D01*
X0092243Y0319416D01*
X0092854Y0320231D02*
X0090368Y0320231D01*
X0090368Y0320730D02*
X0093133Y0320730D01*
X0092759Y0321228D02*
X0090368Y0321228D01*
X0090368Y0321727D02*
X0092385Y0321727D01*
X0096306Y0320666D02*
X0097243Y0321916D01*
X0099118Y0321916D01*
X0099118Y0319416D01*
X0097243Y0319416D01*
X0096306Y0320666D01*
X0096353Y0320730D02*
X0099118Y0320730D01*
X0099118Y0321228D02*
X0096727Y0321228D01*
X0097101Y0321727D02*
X0099118Y0321727D01*
X0099118Y0320231D02*
X0096632Y0320231D01*
X0097006Y0319733D02*
X0099118Y0319733D01*
X0098556Y0305979D02*
X0102931Y0305979D01*
X0102931Y0303479D01*
X0100743Y0301916D01*
X0098556Y0303479D01*
X0098556Y0305979D01*
X0098556Y0305774D02*
X0102931Y0305774D01*
X0102931Y0305276D02*
X0098556Y0305276D01*
X0098556Y0304777D02*
X0102931Y0304777D01*
X0102931Y0304279D02*
X0098556Y0304279D01*
X0098556Y0303780D02*
X0102931Y0303780D01*
X0102655Y0303282D02*
X0098831Y0303282D01*
X0099529Y0302783D02*
X0101957Y0302783D01*
X0101259Y0302285D02*
X0100227Y0302285D01*
X0100743Y0298166D02*
X0102931Y0296604D01*
X0102931Y0294104D01*
X0098556Y0294104D01*
X0098556Y0296604D01*
X0100743Y0298166D01*
X0100228Y0297798D02*
X0101258Y0297798D01*
X0101956Y0297300D02*
X0099530Y0297300D01*
X0098832Y0296801D02*
X0102654Y0296801D01*
X0102931Y0296303D02*
X0098556Y0296303D01*
X0098556Y0295804D02*
X0102931Y0295804D01*
X0102931Y0295306D02*
X0098556Y0295306D01*
X0098556Y0294807D02*
X0102931Y0294807D01*
X0102931Y0294309D02*
X0098556Y0294309D01*
X0100181Y0288229D02*
X0102681Y0288229D01*
X0102681Y0283854D01*
X0100181Y0283854D01*
X0098618Y0286041D01*
X0100181Y0288229D01*
X0099894Y0287828D02*
X0102681Y0287828D01*
X0102681Y0287330D02*
X0099538Y0287330D01*
X0099182Y0286831D02*
X0102681Y0286831D01*
X0102681Y0286333D02*
X0098826Y0286333D01*
X0098766Y0285834D02*
X0102681Y0285834D01*
X0102681Y0285336D02*
X0099122Y0285336D01*
X0099478Y0284837D02*
X0102681Y0284837D01*
X0102681Y0284339D02*
X0099834Y0284339D01*
X0094868Y0286041D02*
X0093306Y0288229D01*
X0090806Y0288229D01*
X0090806Y0283854D01*
X0093306Y0283854D01*
X0094868Y0286041D01*
X0094720Y0285834D02*
X0090806Y0285834D01*
X0090806Y0285336D02*
X0094364Y0285336D01*
X0094008Y0284837D02*
X0090806Y0284837D01*
X0090806Y0284339D02*
X0093652Y0284339D01*
X0094660Y0286333D02*
X0090806Y0286333D01*
X0090806Y0286831D02*
X0094304Y0286831D01*
X0093948Y0287330D02*
X0090806Y0287330D01*
X0090806Y0287828D02*
X0093592Y0287828D01*
X0098118Y0275291D02*
X0099993Y0275291D01*
X0100931Y0274041D01*
X0099993Y0272791D01*
X0098118Y0272791D01*
X0098118Y0275291D01*
X0098118Y0274867D02*
X0100311Y0274867D01*
X0100685Y0274368D02*
X0098118Y0274368D01*
X0098118Y0273870D02*
X0100802Y0273870D01*
X0100428Y0273371D02*
X0098118Y0273371D01*
X0098118Y0272873D02*
X0100054Y0272873D01*
X0104056Y0274041D02*
X0104993Y0275291D01*
X0106868Y0275291D01*
X0106868Y0272791D01*
X0104993Y0272791D01*
X0104056Y0274041D01*
X0104184Y0273870D02*
X0106868Y0273870D01*
X0106868Y0274368D02*
X0104301Y0274368D01*
X0104675Y0274867D02*
X0106868Y0274867D01*
X0106868Y0273371D02*
X0104558Y0273371D01*
X0104932Y0272873D02*
X0106868Y0272873D01*
X0107493Y0267166D02*
X0107493Y0265291D01*
X0106243Y0264354D01*
X0104993Y0265291D01*
X0104993Y0267166D01*
X0107493Y0267166D01*
X0107493Y0266891D02*
X0104993Y0266891D01*
X0104993Y0266392D02*
X0107493Y0266392D01*
X0107493Y0265894D02*
X0104993Y0265894D01*
X0104993Y0265395D02*
X0107493Y0265395D01*
X0106967Y0264897D02*
X0105519Y0264897D01*
X0106184Y0264398D02*
X0106302Y0264398D01*
X0106243Y0261229D02*
X0107493Y0260291D01*
X0107493Y0258416D01*
X0104993Y0258416D01*
X0104993Y0260291D01*
X0106243Y0261229D01*
X0105816Y0260908D02*
X0106670Y0260908D01*
X0107335Y0260410D02*
X0105151Y0260410D01*
X0104993Y0259911D02*
X0107493Y0259911D01*
X0107493Y0259413D02*
X0104993Y0259413D01*
X0104993Y0258914D02*
X0107493Y0258914D01*
X0106243Y0246556D02*
X0108743Y0246556D01*
X0108743Y0244681D01*
X0107493Y0243744D01*
X0106243Y0244681D01*
X0106243Y0246556D01*
X0106243Y0246452D02*
X0108743Y0246452D01*
X0108743Y0245953D02*
X0106243Y0245953D01*
X0106243Y0245455D02*
X0108743Y0245455D01*
X0108743Y0244956D02*
X0106243Y0244956D01*
X0106541Y0244458D02*
X0108445Y0244458D01*
X0107780Y0243959D02*
X0107206Y0243959D01*
X0107493Y0240619D02*
X0108743Y0239681D01*
X0108743Y0237806D01*
X0106243Y0237806D01*
X0106243Y0239681D01*
X0107493Y0240619D01*
X0107294Y0240470D02*
X0107692Y0240470D01*
X0108356Y0239971D02*
X0106630Y0239971D01*
X0106243Y0239472D02*
X0108743Y0239472D01*
X0108743Y0238974D02*
X0106243Y0238974D01*
X0106243Y0238475D02*
X0108743Y0238475D01*
X0108743Y0237977D02*
X0106243Y0237977D01*
X0102493Y0235946D02*
X0102493Y0234071D01*
X0101243Y0233133D01*
X0099993Y0234071D01*
X0099993Y0235946D01*
X0102493Y0235946D01*
X0102493Y0235484D02*
X0099993Y0235484D01*
X0099993Y0234986D02*
X0102493Y0234986D01*
X0102493Y0234487D02*
X0099993Y0234487D01*
X0100102Y0233989D02*
X0102384Y0233989D01*
X0101719Y0233490D02*
X0100767Y0233490D01*
X0101243Y0230008D02*
X0102493Y0229071D01*
X0102493Y0227196D01*
X0099993Y0227196D01*
X0099993Y0229071D01*
X0101243Y0230008D01*
X0101233Y0230001D02*
X0101253Y0230001D01*
X0101918Y0229502D02*
X0100568Y0229502D01*
X0099993Y0229004D02*
X0102493Y0229004D01*
X0102493Y0228505D02*
X0099993Y0228505D01*
X0099993Y0228007D02*
X0102493Y0228007D01*
X0102493Y0227508D02*
X0099993Y0227508D01*
X0099993Y0222196D02*
X0102493Y0222196D01*
X0102493Y0220321D01*
X0101243Y0219383D01*
X0099993Y0220321D01*
X0099993Y0222196D01*
X0099993Y0222025D02*
X0102493Y0222025D01*
X0102493Y0221526D02*
X0099993Y0221526D01*
X0099993Y0221028D02*
X0102493Y0221028D01*
X0102493Y0220529D02*
X0099993Y0220529D01*
X0100380Y0220031D02*
X0102106Y0220031D01*
X0101441Y0219532D02*
X0101045Y0219532D01*
X0101243Y0216258D02*
X0102493Y0215321D01*
X0102493Y0213446D01*
X0099993Y0213446D01*
X0099993Y0215321D01*
X0101243Y0216258D01*
X0100955Y0216042D02*
X0101531Y0216042D01*
X0102196Y0215544D02*
X0100290Y0215544D01*
X0099993Y0215045D02*
X0102493Y0215045D01*
X0102493Y0214547D02*
X0099993Y0214547D01*
X0099993Y0214048D02*
X0102493Y0214048D01*
X0102493Y0213550D02*
X0099993Y0213550D01*
X0091868Y0205291D02*
X0091868Y0202791D01*
X0089993Y0202791D01*
X0089056Y0204041D01*
X0089993Y0205291D01*
X0091868Y0205291D01*
X0091868Y0205075D02*
X0089831Y0205075D01*
X0089457Y0204577D02*
X0091868Y0204577D01*
X0091868Y0204078D02*
X0089083Y0204078D01*
X0089402Y0203580D02*
X0091868Y0203580D01*
X0091868Y0203081D02*
X0089776Y0203081D01*
X0085931Y0204041D02*
X0084993Y0202791D01*
X0083118Y0202791D01*
X0083118Y0205291D01*
X0084993Y0205291D01*
X0085931Y0204041D01*
X0085903Y0204078D02*
X0083118Y0204078D01*
X0083118Y0203580D02*
X0085584Y0203580D01*
X0085210Y0203081D02*
X0083118Y0203081D01*
X0083118Y0204577D02*
X0085529Y0204577D01*
X0085155Y0205075D02*
X0083118Y0205075D01*
X0078743Y0205075D02*
X0076243Y0205075D01*
X0076243Y0205306D02*
X0078743Y0205306D01*
X0078743Y0203431D01*
X0077493Y0202494D01*
X0076243Y0203431D01*
X0076243Y0205306D01*
X0076243Y0204577D02*
X0078743Y0204577D01*
X0078743Y0204078D02*
X0076243Y0204078D01*
X0076243Y0203580D02*
X0078743Y0203580D01*
X0078276Y0203081D02*
X0076710Y0203081D01*
X0077374Y0202583D02*
X0077612Y0202583D01*
X0077493Y0199369D02*
X0078743Y0198431D01*
X0078743Y0196556D01*
X0076243Y0196556D01*
X0076243Y0198431D01*
X0077493Y0199369D01*
X0077126Y0199093D02*
X0077860Y0199093D01*
X0078525Y0198595D02*
X0076461Y0198595D01*
X0076243Y0198096D02*
X0078743Y0198096D01*
X0078743Y0197598D02*
X0076243Y0197598D01*
X0076243Y0197099D02*
X0078743Y0197099D01*
X0078743Y0196601D02*
X0076243Y0196601D01*
X0076868Y0174681D02*
X0078743Y0174681D01*
X0079681Y0173431D01*
X0078743Y0172181D01*
X0076868Y0172181D01*
X0076868Y0174681D01*
X0076868Y0174666D02*
X0078754Y0174666D01*
X0079128Y0174168D02*
X0076868Y0174168D01*
X0076868Y0173669D02*
X0079502Y0173669D01*
X0079485Y0173170D02*
X0076868Y0173170D01*
X0076868Y0172672D02*
X0079111Y0172672D01*
X0082806Y0173431D02*
X0083743Y0174681D01*
X0085618Y0174681D01*
X0085618Y0172181D01*
X0083743Y0172181D01*
X0082806Y0173431D01*
X0082984Y0173669D02*
X0085618Y0173669D01*
X0085618Y0174168D02*
X0083358Y0174168D01*
X0083732Y0174666D02*
X0085618Y0174666D01*
X0085618Y0173170D02*
X0083001Y0173170D01*
X0083375Y0172672D02*
X0085618Y0172672D01*
X0085618Y0168431D02*
X0083743Y0168431D01*
X0082806Y0167181D01*
X0083743Y0165931D01*
X0085618Y0165931D01*
X0085618Y0168431D01*
X0085618Y0168185D02*
X0083559Y0168185D01*
X0083185Y0167687D02*
X0085618Y0167687D01*
X0085618Y0167188D02*
X0082811Y0167188D01*
X0083174Y0166690D02*
X0085618Y0166690D01*
X0085618Y0166191D02*
X0083548Y0166191D01*
X0079681Y0167181D02*
X0078743Y0165931D01*
X0076868Y0165931D01*
X0076868Y0168431D01*
X0078743Y0168431D01*
X0079681Y0167181D01*
X0079675Y0167188D02*
X0076868Y0167188D01*
X0076868Y0166690D02*
X0079312Y0166690D01*
X0078938Y0166191D02*
X0076868Y0166191D01*
X0076868Y0167687D02*
X0079301Y0167687D01*
X0078927Y0168185D02*
X0076868Y0168185D01*
X0085603Y0220306D02*
X0085603Y0222181D01*
X0086853Y0223119D01*
X0088103Y0222181D01*
X0088103Y0220306D01*
X0085603Y0220306D01*
X0085603Y0220529D02*
X0088103Y0220529D01*
X0088103Y0221028D02*
X0085603Y0221028D01*
X0085603Y0221526D02*
X0088103Y0221526D01*
X0088103Y0222025D02*
X0085603Y0222025D01*
X0086059Y0222523D02*
X0087647Y0222523D01*
X0086983Y0223022D02*
X0086724Y0223022D01*
X0086853Y0226244D02*
X0085603Y0227181D01*
X0085603Y0229056D01*
X0088103Y0229056D01*
X0088103Y0227181D01*
X0086853Y0226244D01*
X0086496Y0226511D02*
X0087210Y0226511D01*
X0087875Y0227010D02*
X0085832Y0227010D01*
X0085603Y0227508D02*
X0088103Y0227508D01*
X0088103Y0228007D02*
X0085603Y0228007D01*
X0085603Y0228505D02*
X0088103Y0228505D01*
X0088103Y0229004D02*
X0085603Y0229004D01*
X0117493Y0235306D02*
X0119993Y0235306D01*
X0119993Y0237181D01*
X0118743Y0238119D01*
X0117493Y0237181D01*
X0117493Y0235306D01*
X0117493Y0235484D02*
X0119993Y0235484D01*
X0119993Y0235983D02*
X0117493Y0235983D01*
X0117493Y0236481D02*
X0119993Y0236481D01*
X0119993Y0236980D02*
X0117493Y0236980D01*
X0117889Y0237478D02*
X0119597Y0237478D01*
X0118932Y0237977D02*
X0118554Y0237977D01*
X0118743Y0241244D02*
X0117493Y0242181D01*
X0117493Y0244056D01*
X0119993Y0244056D01*
X0119993Y0242181D01*
X0118743Y0241244D01*
X0118446Y0241467D02*
X0119040Y0241467D01*
X0119705Y0241965D02*
X0117781Y0241965D01*
X0117493Y0242464D02*
X0119993Y0242464D01*
X0119993Y0242962D02*
X0117493Y0242962D01*
X0117493Y0243461D02*
X0119993Y0243461D01*
X0119993Y0243959D02*
X0117493Y0243959D01*
X0117493Y0284666D02*
X0114993Y0284666D01*
X0114993Y0286541D01*
X0116243Y0287479D01*
X0117493Y0286541D01*
X0117493Y0284666D01*
X0117493Y0284837D02*
X0114993Y0284837D01*
X0114993Y0285336D02*
X0117493Y0285336D01*
X0117493Y0285834D02*
X0114993Y0285834D01*
X0114993Y0286333D02*
X0117493Y0286333D01*
X0117107Y0286831D02*
X0115379Y0286831D01*
X0116044Y0287330D02*
X0116442Y0287330D01*
X0116243Y0290604D02*
X0114993Y0291541D01*
X0114993Y0293416D01*
X0117493Y0293416D01*
X0117493Y0291541D01*
X0116243Y0290604D01*
X0115956Y0290819D02*
X0116530Y0290819D01*
X0117195Y0291318D02*
X0115291Y0291318D01*
X0114993Y0291816D02*
X0117493Y0291816D01*
X0117493Y0292315D02*
X0114993Y0292315D01*
X0114993Y0292813D02*
X0117493Y0292813D01*
X0117493Y0293312D02*
X0114993Y0293312D01*
X0055993Y0367166D02*
X0053493Y0367166D01*
X0053493Y0369041D01*
X0054743Y0369979D01*
X0055993Y0369041D01*
X0055993Y0367166D01*
X0055993Y0367590D02*
X0053493Y0367590D01*
X0053493Y0368088D02*
X0055993Y0368088D01*
X0055993Y0368587D02*
X0053493Y0368587D01*
X0053552Y0369085D02*
X0055934Y0369085D01*
X0055270Y0369584D02*
X0054217Y0369584D01*
X0054743Y0373104D02*
X0053493Y0374041D01*
X0053493Y0375916D01*
X0055993Y0375916D01*
X0055993Y0374041D01*
X0054743Y0373104D01*
X0054119Y0373572D02*
X0055367Y0373572D01*
X0055993Y0374071D02*
X0053493Y0374071D01*
X0053493Y0374569D02*
X0055993Y0374569D01*
X0055993Y0375068D02*
X0053493Y0375068D01*
X0053493Y0375566D02*
X0055993Y0375566D01*
X0076868Y0384041D02*
X0076868Y0386541D01*
X0078743Y0386541D01*
X0079681Y0385291D01*
X0078743Y0384041D01*
X0076868Y0384041D01*
X0076868Y0384539D02*
X0079116Y0384539D01*
X0079490Y0385038D02*
X0076868Y0385038D01*
X0076868Y0385536D02*
X0079497Y0385536D01*
X0079123Y0386035D02*
X0076868Y0386035D01*
X0076868Y0386533D02*
X0078749Y0386533D01*
X0082806Y0385291D02*
X0083743Y0386541D01*
X0085618Y0386541D01*
X0085618Y0384041D01*
X0083743Y0384041D01*
X0082806Y0385291D01*
X0082989Y0385536D02*
X0085618Y0385536D01*
X0085618Y0385038D02*
X0082996Y0385038D01*
X0083370Y0384539D02*
X0085618Y0384539D01*
X0085618Y0386035D02*
X0083363Y0386035D01*
X0083737Y0386533D02*
X0085618Y0386533D01*
X0089368Y0386541D02*
X0089368Y0384041D01*
X0091243Y0384041D01*
X0092181Y0385291D01*
X0091243Y0386541D01*
X0089368Y0386541D01*
X0089368Y0386533D02*
X0091249Y0386533D01*
X0091623Y0386035D02*
X0089368Y0386035D01*
X0089368Y0385536D02*
X0091997Y0385536D01*
X0091990Y0385038D02*
X0089368Y0385038D01*
X0089368Y0384539D02*
X0091616Y0384539D01*
X0095306Y0385291D02*
X0096243Y0386541D01*
X0098118Y0386541D01*
X0098118Y0384041D01*
X0096243Y0384041D01*
X0095306Y0385291D01*
X0095489Y0385536D02*
X0098118Y0385536D01*
X0098118Y0385038D02*
X0095496Y0385038D01*
X0095870Y0384539D02*
X0098118Y0384539D01*
X0098118Y0386035D02*
X0095863Y0386035D01*
X0096237Y0386533D02*
X0098118Y0386533D01*
D13*
X0075111Y0378038D02*
X0072355Y0378038D01*
X0075111Y0378038D02*
X0075111Y0373706D01*
X0072355Y0373706D01*
X0072355Y0378038D01*
X0072355Y0374886D02*
X0075111Y0374886D01*
X0075111Y0376066D02*
X0072355Y0376066D01*
X0072355Y0377246D02*
X0075111Y0377246D01*
X0071371Y0369377D02*
X0068615Y0369377D01*
X0071371Y0369377D02*
X0071371Y0365045D01*
X0068615Y0365045D01*
X0068615Y0369377D01*
X0068615Y0366225D02*
X0071371Y0366225D01*
X0071371Y0367405D02*
X0068615Y0367405D01*
X0068615Y0368585D02*
X0071371Y0368585D01*
X0067631Y0378038D02*
X0064875Y0378038D01*
X0067631Y0378038D02*
X0067631Y0373706D01*
X0064875Y0373706D01*
X0064875Y0378038D01*
X0064875Y0374886D02*
X0067631Y0374886D01*
X0067631Y0376066D02*
X0064875Y0376066D01*
X0064875Y0377246D02*
X0067631Y0377246D01*
X0086578Y0310305D02*
X0086578Y0307549D01*
X0074372Y0307549D01*
X0074372Y0310305D01*
X0086578Y0310305D01*
X0086578Y0308729D02*
X0074372Y0308729D01*
X0074372Y0309909D02*
X0086578Y0309909D01*
X0086578Y0303612D02*
X0086578Y0300856D01*
X0074372Y0300856D01*
X0074372Y0303612D01*
X0086578Y0303612D01*
X0086578Y0302036D02*
X0074372Y0302036D01*
X0074372Y0303216D02*
X0086578Y0303216D01*
X0086578Y0296919D02*
X0086578Y0294163D01*
X0074372Y0294163D01*
X0074372Y0296919D01*
X0086578Y0296919D01*
X0086578Y0295343D02*
X0074372Y0295343D01*
X0074372Y0296523D02*
X0086578Y0296523D01*
X0086578Y0290226D02*
X0086578Y0287470D01*
X0074372Y0287470D01*
X0074372Y0290226D01*
X0086578Y0290226D01*
X0086578Y0288650D02*
X0074372Y0288650D01*
X0074372Y0289830D02*
X0086578Y0289830D01*
X0086578Y0283534D02*
X0086578Y0280778D01*
X0074372Y0280778D01*
X0074372Y0283534D01*
X0086578Y0283534D01*
X0086578Y0281958D02*
X0074372Y0281958D01*
X0074372Y0283138D02*
X0086578Y0283138D01*
X0087740Y0192299D02*
X0087740Y0189543D01*
X0083408Y0189543D01*
X0083408Y0192299D01*
X0087740Y0192299D01*
X0087740Y0190723D02*
X0083408Y0190723D01*
X0083408Y0191903D02*
X0087740Y0191903D01*
X0087740Y0184819D02*
X0087740Y0182063D01*
X0083408Y0182063D01*
X0083408Y0184819D01*
X0087740Y0184819D01*
X0087740Y0183243D02*
X0083408Y0183243D01*
X0083408Y0184423D02*
X0087740Y0184423D01*
X0079078Y0185803D02*
X0079078Y0188559D01*
X0079078Y0185803D02*
X0074746Y0185803D01*
X0074746Y0188559D01*
X0079078Y0188559D01*
X0079078Y0186983D02*
X0074746Y0186983D01*
X0074746Y0188163D02*
X0079078Y0188163D01*
X0035871Y0128899D02*
X0033115Y0128899D01*
X0033115Y0131853D01*
X0035871Y0131853D01*
X0035871Y0128899D01*
X0035871Y0130079D02*
X0033115Y0130079D01*
X0033115Y0131259D02*
X0035871Y0131259D01*
D14*
X0034993Y0275541D02*
X0024993Y0275541D01*
X0024505Y0275589D01*
X0024036Y0275732D01*
X0023604Y0275963D01*
X0023225Y0276274D01*
X0022914Y0276652D01*
X0022683Y0277085D01*
X0022541Y0277554D01*
X0022493Y0278041D01*
X0022493Y0290541D01*
X0022541Y0291029D01*
X0022683Y0291498D01*
X0022914Y0291930D01*
X0023225Y0292309D01*
X0023604Y0292620D01*
X0024036Y0292851D01*
X0024505Y0292993D01*
X0024993Y0293041D01*
X0034993Y0293041D01*
X0035481Y0292993D01*
X0035950Y0292851D01*
X0036382Y0292620D01*
X0036761Y0292309D01*
X0037072Y0291930D01*
X0037303Y0291498D01*
X0037445Y0291029D01*
X0037493Y0290541D01*
X0037493Y0278041D01*
X0037445Y0277554D01*
X0037303Y0277085D01*
X0037072Y0276652D01*
X0036761Y0276274D01*
X0036382Y0275963D01*
X0035950Y0275732D01*
X0035481Y0275589D01*
X0034993Y0275541D01*
X0036028Y0275773D02*
X0023959Y0275773D01*
X0022851Y0276772D02*
X0037135Y0276772D01*
X0037466Y0277770D02*
X0022520Y0277770D01*
X0022493Y0278769D02*
X0037493Y0278769D01*
X0037493Y0279767D02*
X0022493Y0279767D01*
X0022493Y0280766D02*
X0037493Y0280766D01*
X0037493Y0281764D02*
X0022493Y0281764D01*
X0022493Y0282763D02*
X0037493Y0282763D01*
X0037493Y0283761D02*
X0022493Y0283761D01*
X0022493Y0284760D02*
X0037493Y0284760D01*
X0037493Y0285758D02*
X0022493Y0285758D01*
X0022493Y0286757D02*
X0037493Y0286757D01*
X0037493Y0287755D02*
X0022493Y0287755D01*
X0022493Y0288754D02*
X0037493Y0288754D01*
X0037493Y0289752D02*
X0022493Y0289752D01*
X0022514Y0290751D02*
X0037472Y0290751D01*
X0037168Y0291749D02*
X0022818Y0291749D01*
X0023843Y0292748D02*
X0036143Y0292748D01*
X0035481Y0298089D02*
X0034993Y0298041D01*
X0024993Y0298041D01*
X0024505Y0298089D01*
X0024036Y0298232D01*
X0023604Y0298463D01*
X0023225Y0298774D01*
X0022914Y0299152D01*
X0022683Y0299585D01*
X0022541Y0300054D01*
X0022493Y0300541D01*
X0022493Y0313041D01*
X0022541Y0313529D01*
X0022683Y0313998D01*
X0022914Y0314430D01*
X0023225Y0314809D01*
X0023604Y0315120D01*
X0024036Y0315351D01*
X0024505Y0315493D01*
X0024993Y0315541D01*
X0034993Y0315541D01*
X0035481Y0315493D01*
X0035950Y0315351D01*
X0036382Y0315120D01*
X0036761Y0314809D01*
X0037072Y0314430D01*
X0037303Y0313998D01*
X0037445Y0313529D01*
X0037493Y0313041D01*
X0037493Y0300541D01*
X0037445Y0300054D01*
X0037303Y0299585D01*
X0037072Y0299152D01*
X0036761Y0298774D01*
X0036382Y0298463D01*
X0035950Y0298232D01*
X0035481Y0298089D01*
X0036719Y0298739D02*
X0023267Y0298739D01*
X0022637Y0299737D02*
X0037349Y0299737D01*
X0037493Y0300736D02*
X0022493Y0300736D01*
X0022493Y0301734D02*
X0037493Y0301734D01*
X0037493Y0302733D02*
X0022493Y0302733D01*
X0022493Y0303732D02*
X0037493Y0303732D01*
X0037493Y0304730D02*
X0022493Y0304730D01*
X0022493Y0305729D02*
X0037493Y0305729D01*
X0037493Y0306727D02*
X0022493Y0306727D01*
X0022493Y0307726D02*
X0037493Y0307726D01*
X0037493Y0308724D02*
X0022493Y0308724D01*
X0022493Y0309723D02*
X0037493Y0309723D01*
X0037493Y0310721D02*
X0022493Y0310721D01*
X0022493Y0311720D02*
X0037493Y0311720D01*
X0037493Y0312718D02*
X0022493Y0312718D01*
X0022598Y0313717D02*
X0037388Y0313717D01*
X0036838Y0314715D02*
X0023148Y0314715D01*
X0041243Y0313041D02*
X0041243Y0300541D01*
X0041291Y0300054D01*
X0041433Y0299585D01*
X0041664Y0299152D01*
X0041975Y0298774D01*
X0042354Y0298463D01*
X0042786Y0298232D01*
X0043255Y0298089D01*
X0043743Y0298041D01*
X0052493Y0298041D01*
X0052981Y0298089D01*
X0053450Y0298232D01*
X0053882Y0298463D01*
X0054261Y0298774D01*
X0054572Y0299152D01*
X0054803Y0299585D01*
X0054945Y0300054D01*
X0054993Y0300541D01*
X0054993Y0313041D01*
X0054945Y0313529D01*
X0054803Y0313998D01*
X0054572Y0314430D01*
X0054261Y0314809D01*
X0053882Y0315120D01*
X0053450Y0315351D01*
X0052981Y0315493D01*
X0052493Y0315541D01*
X0043743Y0315541D01*
X0043255Y0315493D01*
X0042786Y0315351D01*
X0042354Y0315120D01*
X0041975Y0314809D01*
X0041664Y0314430D01*
X0041433Y0313998D01*
X0041291Y0313529D01*
X0041243Y0313041D01*
X0041243Y0312718D02*
X0054993Y0312718D01*
X0054993Y0311720D02*
X0041243Y0311720D01*
X0041243Y0310721D02*
X0054993Y0310721D01*
X0054993Y0309723D02*
X0041243Y0309723D01*
X0041243Y0308724D02*
X0054993Y0308724D01*
X0054993Y0307726D02*
X0041243Y0307726D01*
X0041243Y0306727D02*
X0054993Y0306727D01*
X0054993Y0305729D02*
X0041243Y0305729D01*
X0041243Y0304730D02*
X0054993Y0304730D01*
X0054993Y0303732D02*
X0041243Y0303732D01*
X0041243Y0302733D02*
X0054993Y0302733D01*
X0054993Y0301734D02*
X0041243Y0301734D01*
X0041243Y0300736D02*
X0054993Y0300736D01*
X0054849Y0299737D02*
X0041387Y0299737D01*
X0042017Y0298739D02*
X0054219Y0298739D01*
X0052981Y0292993D02*
X0053450Y0292851D01*
X0053882Y0292620D01*
X0054261Y0292309D01*
X0054572Y0291930D01*
X0054803Y0291498D01*
X0054945Y0291029D01*
X0054993Y0290541D01*
X0054993Y0278041D01*
X0054945Y0277554D01*
X0054803Y0277085D01*
X0054572Y0276652D01*
X0054261Y0276274D01*
X0053882Y0275963D01*
X0053450Y0275732D01*
X0052981Y0275589D01*
X0052493Y0275541D01*
X0043743Y0275541D01*
X0043255Y0275589D01*
X0042786Y0275732D01*
X0042354Y0275963D01*
X0041975Y0276274D01*
X0041664Y0276652D01*
X0041433Y0277085D01*
X0041291Y0277554D01*
X0041243Y0278041D01*
X0041243Y0290541D01*
X0041291Y0291029D01*
X0041433Y0291498D01*
X0041664Y0291930D01*
X0041975Y0292309D01*
X0042354Y0292620D01*
X0042786Y0292851D01*
X0043255Y0292993D01*
X0043743Y0293041D01*
X0052493Y0293041D01*
X0052981Y0292993D01*
X0053643Y0292748D02*
X0042593Y0292748D01*
X0041568Y0291749D02*
X0054668Y0291749D01*
X0054972Y0290751D02*
X0041264Y0290751D01*
X0041243Y0289752D02*
X0054993Y0289752D01*
X0054993Y0288754D02*
X0041243Y0288754D01*
X0041243Y0287755D02*
X0054993Y0287755D01*
X0054993Y0286757D02*
X0041243Y0286757D01*
X0041243Y0285758D02*
X0054993Y0285758D01*
X0054993Y0284760D02*
X0041243Y0284760D01*
X0041243Y0283761D02*
X0054993Y0283761D01*
X0054993Y0282763D02*
X0041243Y0282763D01*
X0041243Y0281764D02*
X0054993Y0281764D01*
X0054993Y0280766D02*
X0041243Y0280766D01*
X0041243Y0279767D02*
X0054993Y0279767D01*
X0054993Y0278769D02*
X0041243Y0278769D01*
X0041270Y0277770D02*
X0054966Y0277770D01*
X0054635Y0276772D02*
X0041601Y0276772D01*
X0042709Y0275773D02*
X0053528Y0275773D01*
X0054888Y0313717D02*
X0041348Y0313717D01*
X0041898Y0314715D02*
X0054338Y0314715D01*
D15*
X0056684Y0205189D02*
X0049598Y0205189D01*
X0049598Y0210701D01*
X0056684Y0210701D01*
X0056684Y0205189D01*
X0056684Y0207550D02*
X0049598Y0207550D01*
X0049598Y0209911D02*
X0056684Y0209911D01*
X0032471Y0205189D02*
X0025385Y0205189D01*
X0025385Y0210701D01*
X0032471Y0210701D01*
X0032471Y0205189D01*
X0032471Y0207550D02*
X0025385Y0207550D01*
X0025385Y0209911D02*
X0032471Y0209911D01*
X0032471Y0161882D02*
X0025385Y0161882D01*
X0025385Y0167394D01*
X0032471Y0167394D01*
X0032471Y0161882D01*
X0032471Y0164243D02*
X0025385Y0164243D01*
X0025385Y0166604D02*
X0032471Y0166604D01*
X0049598Y0161882D02*
X0056684Y0161882D01*
X0049598Y0161882D02*
X0049598Y0167394D01*
X0056684Y0167394D01*
X0056684Y0161882D01*
X0056684Y0164243D02*
X0049598Y0164243D01*
X0049598Y0166604D02*
X0056684Y0166604D01*
D16*
X0083285Y0237509D02*
X0083285Y0248967D01*
X0083285Y0237509D02*
X0079701Y0237509D01*
X0079701Y0248967D01*
X0083285Y0248967D01*
X0083285Y0239043D02*
X0079701Y0239043D01*
X0079701Y0240577D02*
X0083285Y0240577D01*
X0083285Y0242111D02*
X0079701Y0242111D01*
X0079701Y0243645D02*
X0083285Y0243645D01*
X0083285Y0245179D02*
X0079701Y0245179D01*
X0079701Y0246713D02*
X0083285Y0246713D01*
X0083285Y0248247D02*
X0079701Y0248247D01*
X0083285Y0262115D02*
X0083285Y0273573D01*
X0083285Y0262115D02*
X0079701Y0262115D01*
X0079701Y0273573D01*
X0083285Y0273573D01*
X0083285Y0263649D02*
X0079701Y0263649D01*
X0079701Y0265183D02*
X0083285Y0265183D01*
X0083285Y0266717D02*
X0079701Y0266717D01*
X0079701Y0268251D02*
X0083285Y0268251D01*
X0083285Y0269785D02*
X0079701Y0269785D01*
X0079701Y0271319D02*
X0083285Y0271319D01*
X0083285Y0272853D02*
X0079701Y0272853D01*
D17*
X0074512Y0329832D02*
X0066670Y0329832D01*
X0066670Y0339250D01*
X0074512Y0339250D01*
X0074512Y0329832D01*
X0074512Y0331437D02*
X0066670Y0331437D01*
X0066670Y0333042D02*
X0074512Y0333042D01*
X0074512Y0334647D02*
X0066670Y0334647D01*
X0066670Y0336252D02*
X0074512Y0336252D01*
X0074512Y0337857D02*
X0066670Y0337857D01*
X0091474Y0339250D02*
X0099316Y0339250D01*
X0099316Y0329832D01*
X0091474Y0329832D01*
X0091474Y0339250D01*
X0091474Y0331437D02*
X0099316Y0331437D01*
X0099316Y0333042D02*
X0091474Y0333042D01*
X0091474Y0334647D02*
X0099316Y0334647D01*
X0099316Y0336252D02*
X0091474Y0336252D01*
X0091474Y0337857D02*
X0099316Y0337857D01*
X0092450Y0143248D02*
X0092450Y0131074D01*
X0092450Y0143248D02*
X0097536Y0143248D01*
X0097536Y0131074D01*
X0092450Y0131074D01*
X0092450Y0132679D02*
X0097536Y0132679D01*
X0097536Y0134284D02*
X0092450Y0134284D01*
X0092450Y0135889D02*
X0097536Y0135889D01*
X0097536Y0137494D02*
X0092450Y0137494D01*
X0092450Y0139099D02*
X0097536Y0139099D01*
X0097536Y0140704D02*
X0092450Y0140704D01*
X0092450Y0142309D02*
X0097536Y0142309D01*
X0102450Y0143248D02*
X0102450Y0131074D01*
X0102450Y0143248D02*
X0107536Y0143248D01*
X0107536Y0131074D01*
X0102450Y0131074D01*
X0102450Y0132679D02*
X0107536Y0132679D01*
X0107536Y0134284D02*
X0102450Y0134284D01*
X0102450Y0135889D02*
X0107536Y0135889D01*
X0107536Y0137494D02*
X0102450Y0137494D01*
X0102450Y0139099D02*
X0107536Y0139099D01*
X0107536Y0140704D02*
X0102450Y0140704D01*
X0102450Y0142309D02*
X0107536Y0142309D01*
X0112450Y0143248D02*
X0112450Y0131074D01*
X0112450Y0143248D02*
X0117536Y0143248D01*
X0117536Y0131074D01*
X0112450Y0131074D01*
X0112450Y0132679D02*
X0117536Y0132679D01*
X0117536Y0134284D02*
X0112450Y0134284D01*
X0112450Y0135889D02*
X0117536Y0135889D01*
X0117536Y0137494D02*
X0112450Y0137494D01*
X0112450Y0139099D02*
X0117536Y0139099D01*
X0117536Y0140704D02*
X0112450Y0140704D01*
X0112450Y0142309D02*
X0117536Y0142309D01*
X0122450Y0143248D02*
X0122450Y0131074D01*
X0122450Y0143248D02*
X0127536Y0143248D01*
X0127536Y0131074D01*
X0122450Y0131074D01*
X0122450Y0132679D02*
X0127536Y0132679D01*
X0127536Y0134284D02*
X0122450Y0134284D01*
X0122450Y0135889D02*
X0127536Y0135889D01*
X0127536Y0137494D02*
X0122450Y0137494D01*
X0122450Y0139099D02*
X0127536Y0139099D01*
X0127536Y0140704D02*
X0122450Y0140704D01*
X0122450Y0142309D02*
X0127536Y0142309D01*
X0132450Y0143248D02*
X0132450Y0131074D01*
X0132450Y0143248D02*
X0137536Y0143248D01*
X0137536Y0131074D01*
X0132450Y0131074D01*
X0132450Y0132679D02*
X0137536Y0132679D01*
X0137536Y0134284D02*
X0132450Y0134284D01*
X0132450Y0135889D02*
X0137536Y0135889D01*
X0137536Y0137494D02*
X0132450Y0137494D01*
X0132450Y0139099D02*
X0137536Y0139099D01*
X0137536Y0140704D02*
X0132450Y0140704D01*
X0132450Y0142309D02*
X0137536Y0142309D01*
X0142450Y0143248D02*
X0142450Y0131074D01*
X0142450Y0143248D02*
X0147536Y0143248D01*
X0147536Y0131074D01*
X0142450Y0131074D01*
X0142450Y0132679D02*
X0147536Y0132679D01*
X0147536Y0134284D02*
X0142450Y0134284D01*
X0142450Y0135889D02*
X0147536Y0135889D01*
X0147536Y0137494D02*
X0142450Y0137494D01*
X0142450Y0139099D02*
X0147536Y0139099D01*
X0147536Y0140704D02*
X0142450Y0140704D01*
X0142450Y0142309D02*
X0147536Y0142309D01*
X0152450Y0143248D02*
X0152450Y0131074D01*
X0152450Y0143248D02*
X0157536Y0143248D01*
X0157536Y0131074D01*
X0152450Y0131074D01*
X0152450Y0132679D02*
X0157536Y0132679D01*
X0157536Y0134284D02*
X0152450Y0134284D01*
X0152450Y0135889D02*
X0157536Y0135889D01*
X0157536Y0137494D02*
X0152450Y0137494D01*
X0152450Y0139099D02*
X0157536Y0139099D01*
X0157536Y0140704D02*
X0152450Y0140704D01*
X0152450Y0142309D02*
X0157536Y0142309D01*
X0162450Y0143248D02*
X0162450Y0131074D01*
X0162450Y0143248D02*
X0167536Y0143248D01*
X0167536Y0131074D01*
X0162450Y0131074D01*
X0162450Y0132679D02*
X0167536Y0132679D01*
X0167536Y0134284D02*
X0162450Y0134284D01*
X0162450Y0135889D02*
X0167536Y0135889D01*
X0167536Y0137494D02*
X0162450Y0137494D01*
X0162450Y0139099D02*
X0167536Y0139099D01*
X0167536Y0140704D02*
X0162450Y0140704D01*
X0162450Y0142309D02*
X0167536Y0142309D01*
X0172450Y0143248D02*
X0172450Y0131074D01*
X0172450Y0143248D02*
X0177536Y0143248D01*
X0177536Y0131074D01*
X0172450Y0131074D01*
X0172450Y0132679D02*
X0177536Y0132679D01*
X0177536Y0134284D02*
X0172450Y0134284D01*
X0172450Y0135889D02*
X0177536Y0135889D01*
X0177536Y0137494D02*
X0172450Y0137494D01*
X0172450Y0139099D02*
X0177536Y0139099D01*
X0177536Y0140704D02*
X0172450Y0140704D01*
X0172450Y0142309D02*
X0177536Y0142309D01*
X0182450Y0143248D02*
X0182450Y0131074D01*
X0182450Y0143248D02*
X0187536Y0143248D01*
X0187536Y0131074D01*
X0182450Y0131074D01*
X0182450Y0132679D02*
X0187536Y0132679D01*
X0187536Y0134284D02*
X0182450Y0134284D01*
X0182450Y0135889D02*
X0187536Y0135889D01*
X0187536Y0137494D02*
X0182450Y0137494D01*
X0182450Y0139099D02*
X0187536Y0139099D01*
X0187536Y0140704D02*
X0182450Y0140704D01*
X0182450Y0142309D02*
X0187536Y0142309D01*
X0192450Y0143248D02*
X0192450Y0131074D01*
X0192450Y0143248D02*
X0197536Y0143248D01*
X0197536Y0131074D01*
X0192450Y0131074D01*
X0192450Y0132679D02*
X0197536Y0132679D01*
X0197536Y0134284D02*
X0192450Y0134284D01*
X0192450Y0135889D02*
X0197536Y0135889D01*
X0197536Y0137494D02*
X0192450Y0137494D01*
X0192450Y0139099D02*
X0197536Y0139099D01*
X0197536Y0140704D02*
X0192450Y0140704D01*
X0192450Y0142309D02*
X0197536Y0142309D01*
X0202450Y0143248D02*
X0202450Y0131074D01*
X0202450Y0143248D02*
X0207536Y0143248D01*
X0207536Y0131074D01*
X0202450Y0131074D01*
X0202450Y0132679D02*
X0207536Y0132679D01*
X0207536Y0134284D02*
X0202450Y0134284D01*
X0202450Y0135889D02*
X0207536Y0135889D01*
X0207536Y0137494D02*
X0202450Y0137494D01*
X0202450Y0139099D02*
X0207536Y0139099D01*
X0207536Y0140704D02*
X0202450Y0140704D01*
X0202450Y0142309D02*
X0207536Y0142309D01*
X0212450Y0143248D02*
X0212450Y0131074D01*
X0212450Y0143248D02*
X0217536Y0143248D01*
X0217536Y0131074D01*
X0212450Y0131074D01*
X0212450Y0132679D02*
X0217536Y0132679D01*
X0217536Y0134284D02*
X0212450Y0134284D01*
X0212450Y0135889D02*
X0217536Y0135889D01*
X0217536Y0137494D02*
X0212450Y0137494D01*
X0212450Y0139099D02*
X0217536Y0139099D01*
X0217536Y0140704D02*
X0212450Y0140704D01*
X0212450Y0142309D02*
X0217536Y0142309D01*
X0222450Y0143248D02*
X0222450Y0131074D01*
X0222450Y0143248D02*
X0227536Y0143248D01*
X0227536Y0131074D01*
X0222450Y0131074D01*
X0222450Y0132679D02*
X0227536Y0132679D01*
X0227536Y0134284D02*
X0222450Y0134284D01*
X0222450Y0135889D02*
X0227536Y0135889D01*
X0227536Y0137494D02*
X0222450Y0137494D01*
X0222450Y0139099D02*
X0227536Y0139099D01*
X0227536Y0140704D02*
X0222450Y0140704D01*
X0222450Y0142309D02*
X0227536Y0142309D01*
X0232450Y0143248D02*
X0232450Y0131074D01*
X0232450Y0143248D02*
X0237536Y0143248D01*
X0237536Y0131074D01*
X0232450Y0131074D01*
X0232450Y0132679D02*
X0237536Y0132679D01*
X0237536Y0134284D02*
X0232450Y0134284D01*
X0232450Y0135889D02*
X0237536Y0135889D01*
X0237536Y0137494D02*
X0232450Y0137494D01*
X0232450Y0139099D02*
X0237536Y0139099D01*
X0237536Y0140704D02*
X0232450Y0140704D01*
X0232450Y0142309D02*
X0237536Y0142309D01*
X0242450Y0143248D02*
X0242450Y0131074D01*
X0242450Y0143248D02*
X0247536Y0143248D01*
X0247536Y0131074D01*
X0242450Y0131074D01*
X0242450Y0132679D02*
X0247536Y0132679D01*
X0247536Y0134284D02*
X0242450Y0134284D01*
X0242450Y0135889D02*
X0247536Y0135889D01*
X0247536Y0137494D02*
X0242450Y0137494D01*
X0242450Y0139099D02*
X0247536Y0139099D01*
X0247536Y0140704D02*
X0242450Y0140704D01*
X0242450Y0142309D02*
X0247536Y0142309D01*
X0252450Y0143248D02*
X0252450Y0131074D01*
X0252450Y0143248D02*
X0257536Y0143248D01*
X0257536Y0131074D01*
X0252450Y0131074D01*
X0252450Y0132679D02*
X0257536Y0132679D01*
X0257536Y0134284D02*
X0252450Y0134284D01*
X0252450Y0135889D02*
X0257536Y0135889D01*
X0257536Y0137494D02*
X0252450Y0137494D01*
X0252450Y0139099D02*
X0257536Y0139099D01*
X0257536Y0140704D02*
X0252450Y0140704D01*
X0252450Y0142309D02*
X0257536Y0142309D01*
X0262450Y0143248D02*
X0262450Y0131074D01*
X0262450Y0143248D02*
X0267536Y0143248D01*
X0267536Y0131074D01*
X0262450Y0131074D01*
X0262450Y0132679D02*
X0267536Y0132679D01*
X0267536Y0134284D02*
X0262450Y0134284D01*
X0262450Y0135889D02*
X0267536Y0135889D01*
X0267536Y0137494D02*
X0262450Y0137494D01*
X0262450Y0139099D02*
X0267536Y0139099D01*
X0267536Y0140704D02*
X0262450Y0140704D01*
X0262450Y0142309D02*
X0267536Y0142309D01*
X0272450Y0143248D02*
X0272450Y0131074D01*
X0272450Y0143248D02*
X0277536Y0143248D01*
X0277536Y0131074D01*
X0272450Y0131074D01*
X0272450Y0132679D02*
X0277536Y0132679D01*
X0277536Y0134284D02*
X0272450Y0134284D01*
X0272450Y0135889D02*
X0277536Y0135889D01*
X0277536Y0137494D02*
X0272450Y0137494D01*
X0272450Y0139099D02*
X0277536Y0139099D01*
X0277536Y0140704D02*
X0272450Y0140704D01*
X0272450Y0142309D02*
X0277536Y0142309D01*
X0282450Y0143248D02*
X0282450Y0131074D01*
X0282450Y0143248D02*
X0287536Y0143248D01*
X0287536Y0131074D01*
X0282450Y0131074D01*
X0282450Y0132679D02*
X0287536Y0132679D01*
X0287536Y0134284D02*
X0282450Y0134284D01*
X0282450Y0135889D02*
X0287536Y0135889D01*
X0287536Y0137494D02*
X0282450Y0137494D01*
X0282450Y0139099D02*
X0287536Y0139099D01*
X0287536Y0140704D02*
X0282450Y0140704D01*
X0282450Y0142309D02*
X0287536Y0142309D01*
X0287536Y0064508D02*
X0287536Y0052334D01*
X0282450Y0052334D01*
X0282450Y0064508D01*
X0287536Y0064508D01*
X0287536Y0053939D02*
X0282450Y0053939D01*
X0282450Y0055544D02*
X0287536Y0055544D01*
X0287536Y0057149D02*
X0282450Y0057149D01*
X0282450Y0058754D02*
X0287536Y0058754D01*
X0287536Y0060359D02*
X0282450Y0060359D01*
X0282450Y0061964D02*
X0287536Y0061964D01*
X0287536Y0063569D02*
X0282450Y0063569D01*
X0277536Y0064508D02*
X0277536Y0052334D01*
X0272450Y0052334D01*
X0272450Y0064508D01*
X0277536Y0064508D01*
X0277536Y0053939D02*
X0272450Y0053939D01*
X0272450Y0055544D02*
X0277536Y0055544D01*
X0277536Y0057149D02*
X0272450Y0057149D01*
X0272450Y0058754D02*
X0277536Y0058754D01*
X0277536Y0060359D02*
X0272450Y0060359D01*
X0272450Y0061964D02*
X0277536Y0061964D01*
X0277536Y0063569D02*
X0272450Y0063569D01*
X0267536Y0064508D02*
X0267536Y0052334D01*
X0262450Y0052334D01*
X0262450Y0064508D01*
X0267536Y0064508D01*
X0267536Y0053939D02*
X0262450Y0053939D01*
X0262450Y0055544D02*
X0267536Y0055544D01*
X0267536Y0057149D02*
X0262450Y0057149D01*
X0262450Y0058754D02*
X0267536Y0058754D01*
X0267536Y0060359D02*
X0262450Y0060359D01*
X0262450Y0061964D02*
X0267536Y0061964D01*
X0267536Y0063569D02*
X0262450Y0063569D01*
X0257536Y0064508D02*
X0257536Y0052334D01*
X0252450Y0052334D01*
X0252450Y0064508D01*
X0257536Y0064508D01*
X0257536Y0053939D02*
X0252450Y0053939D01*
X0252450Y0055544D02*
X0257536Y0055544D01*
X0257536Y0057149D02*
X0252450Y0057149D01*
X0252450Y0058754D02*
X0257536Y0058754D01*
X0257536Y0060359D02*
X0252450Y0060359D01*
X0252450Y0061964D02*
X0257536Y0061964D01*
X0257536Y0063569D02*
X0252450Y0063569D01*
X0247536Y0064508D02*
X0247536Y0052334D01*
X0242450Y0052334D01*
X0242450Y0064508D01*
X0247536Y0064508D01*
X0247536Y0053939D02*
X0242450Y0053939D01*
X0242450Y0055544D02*
X0247536Y0055544D01*
X0247536Y0057149D02*
X0242450Y0057149D01*
X0242450Y0058754D02*
X0247536Y0058754D01*
X0247536Y0060359D02*
X0242450Y0060359D01*
X0242450Y0061964D02*
X0247536Y0061964D01*
X0247536Y0063569D02*
X0242450Y0063569D01*
X0237536Y0064508D02*
X0237536Y0052334D01*
X0232450Y0052334D01*
X0232450Y0064508D01*
X0237536Y0064508D01*
X0237536Y0053939D02*
X0232450Y0053939D01*
X0232450Y0055544D02*
X0237536Y0055544D01*
X0237536Y0057149D02*
X0232450Y0057149D01*
X0232450Y0058754D02*
X0237536Y0058754D01*
X0237536Y0060359D02*
X0232450Y0060359D01*
X0232450Y0061964D02*
X0237536Y0061964D01*
X0237536Y0063569D02*
X0232450Y0063569D01*
X0227536Y0064508D02*
X0227536Y0052334D01*
X0222450Y0052334D01*
X0222450Y0064508D01*
X0227536Y0064508D01*
X0227536Y0053939D02*
X0222450Y0053939D01*
X0222450Y0055544D02*
X0227536Y0055544D01*
X0227536Y0057149D02*
X0222450Y0057149D01*
X0222450Y0058754D02*
X0227536Y0058754D01*
X0227536Y0060359D02*
X0222450Y0060359D01*
X0222450Y0061964D02*
X0227536Y0061964D01*
X0227536Y0063569D02*
X0222450Y0063569D01*
X0217536Y0064508D02*
X0217536Y0052334D01*
X0212450Y0052334D01*
X0212450Y0064508D01*
X0217536Y0064508D01*
X0217536Y0053939D02*
X0212450Y0053939D01*
X0212450Y0055544D02*
X0217536Y0055544D01*
X0217536Y0057149D02*
X0212450Y0057149D01*
X0212450Y0058754D02*
X0217536Y0058754D01*
X0217536Y0060359D02*
X0212450Y0060359D01*
X0212450Y0061964D02*
X0217536Y0061964D01*
X0217536Y0063569D02*
X0212450Y0063569D01*
X0207536Y0064508D02*
X0207536Y0052334D01*
X0202450Y0052334D01*
X0202450Y0064508D01*
X0207536Y0064508D01*
X0207536Y0053939D02*
X0202450Y0053939D01*
X0202450Y0055544D02*
X0207536Y0055544D01*
X0207536Y0057149D02*
X0202450Y0057149D01*
X0202450Y0058754D02*
X0207536Y0058754D01*
X0207536Y0060359D02*
X0202450Y0060359D01*
X0202450Y0061964D02*
X0207536Y0061964D01*
X0207536Y0063569D02*
X0202450Y0063569D01*
X0197536Y0064508D02*
X0197536Y0052334D01*
X0192450Y0052334D01*
X0192450Y0064508D01*
X0197536Y0064508D01*
X0197536Y0053939D02*
X0192450Y0053939D01*
X0192450Y0055544D02*
X0197536Y0055544D01*
X0197536Y0057149D02*
X0192450Y0057149D01*
X0192450Y0058754D02*
X0197536Y0058754D01*
X0197536Y0060359D02*
X0192450Y0060359D01*
X0192450Y0061964D02*
X0197536Y0061964D01*
X0197536Y0063569D02*
X0192450Y0063569D01*
X0187536Y0064508D02*
X0187536Y0052334D01*
X0182450Y0052334D01*
X0182450Y0064508D01*
X0187536Y0064508D01*
X0187536Y0053939D02*
X0182450Y0053939D01*
X0182450Y0055544D02*
X0187536Y0055544D01*
X0187536Y0057149D02*
X0182450Y0057149D01*
X0182450Y0058754D02*
X0187536Y0058754D01*
X0187536Y0060359D02*
X0182450Y0060359D01*
X0182450Y0061964D02*
X0187536Y0061964D01*
X0187536Y0063569D02*
X0182450Y0063569D01*
X0177536Y0064508D02*
X0177536Y0052334D01*
X0172450Y0052334D01*
X0172450Y0064508D01*
X0177536Y0064508D01*
X0177536Y0053939D02*
X0172450Y0053939D01*
X0172450Y0055544D02*
X0177536Y0055544D01*
X0177536Y0057149D02*
X0172450Y0057149D01*
X0172450Y0058754D02*
X0177536Y0058754D01*
X0177536Y0060359D02*
X0172450Y0060359D01*
X0172450Y0061964D02*
X0177536Y0061964D01*
X0177536Y0063569D02*
X0172450Y0063569D01*
X0167536Y0064508D02*
X0167536Y0052334D01*
X0162450Y0052334D01*
X0162450Y0064508D01*
X0167536Y0064508D01*
X0167536Y0053939D02*
X0162450Y0053939D01*
X0162450Y0055544D02*
X0167536Y0055544D01*
X0167536Y0057149D02*
X0162450Y0057149D01*
X0162450Y0058754D02*
X0167536Y0058754D01*
X0167536Y0060359D02*
X0162450Y0060359D01*
X0162450Y0061964D02*
X0167536Y0061964D01*
X0167536Y0063569D02*
X0162450Y0063569D01*
X0157536Y0064508D02*
X0157536Y0052334D01*
X0152450Y0052334D01*
X0152450Y0064508D01*
X0157536Y0064508D01*
X0157536Y0053939D02*
X0152450Y0053939D01*
X0152450Y0055544D02*
X0157536Y0055544D01*
X0157536Y0057149D02*
X0152450Y0057149D01*
X0152450Y0058754D02*
X0157536Y0058754D01*
X0157536Y0060359D02*
X0152450Y0060359D01*
X0152450Y0061964D02*
X0157536Y0061964D01*
X0157536Y0063569D02*
X0152450Y0063569D01*
X0147536Y0064508D02*
X0147536Y0052334D01*
X0142450Y0052334D01*
X0142450Y0064508D01*
X0147536Y0064508D01*
X0147536Y0053939D02*
X0142450Y0053939D01*
X0142450Y0055544D02*
X0147536Y0055544D01*
X0147536Y0057149D02*
X0142450Y0057149D01*
X0142450Y0058754D02*
X0147536Y0058754D01*
X0147536Y0060359D02*
X0142450Y0060359D01*
X0142450Y0061964D02*
X0147536Y0061964D01*
X0147536Y0063569D02*
X0142450Y0063569D01*
X0137536Y0064508D02*
X0137536Y0052334D01*
X0132450Y0052334D01*
X0132450Y0064508D01*
X0137536Y0064508D01*
X0137536Y0053939D02*
X0132450Y0053939D01*
X0132450Y0055544D02*
X0137536Y0055544D01*
X0137536Y0057149D02*
X0132450Y0057149D01*
X0132450Y0058754D02*
X0137536Y0058754D01*
X0137536Y0060359D02*
X0132450Y0060359D01*
X0132450Y0061964D02*
X0137536Y0061964D01*
X0137536Y0063569D02*
X0132450Y0063569D01*
X0127536Y0064508D02*
X0127536Y0052334D01*
X0122450Y0052334D01*
X0122450Y0064508D01*
X0127536Y0064508D01*
X0127536Y0053939D02*
X0122450Y0053939D01*
X0122450Y0055544D02*
X0127536Y0055544D01*
X0127536Y0057149D02*
X0122450Y0057149D01*
X0122450Y0058754D02*
X0127536Y0058754D01*
X0127536Y0060359D02*
X0122450Y0060359D01*
X0122450Y0061964D02*
X0127536Y0061964D01*
X0127536Y0063569D02*
X0122450Y0063569D01*
X0117536Y0064508D02*
X0117536Y0052334D01*
X0112450Y0052334D01*
X0112450Y0064508D01*
X0117536Y0064508D01*
X0117536Y0053939D02*
X0112450Y0053939D01*
X0112450Y0055544D02*
X0117536Y0055544D01*
X0117536Y0057149D02*
X0112450Y0057149D01*
X0112450Y0058754D02*
X0117536Y0058754D01*
X0117536Y0060359D02*
X0112450Y0060359D01*
X0112450Y0061964D02*
X0117536Y0061964D01*
X0117536Y0063569D02*
X0112450Y0063569D01*
X0107536Y0064508D02*
X0107536Y0052334D01*
X0102450Y0052334D01*
X0102450Y0064508D01*
X0107536Y0064508D01*
X0107536Y0053939D02*
X0102450Y0053939D01*
X0102450Y0055544D02*
X0107536Y0055544D01*
X0107536Y0057149D02*
X0102450Y0057149D01*
X0102450Y0058754D02*
X0107536Y0058754D01*
X0107536Y0060359D02*
X0102450Y0060359D01*
X0102450Y0061964D02*
X0107536Y0061964D01*
X0107536Y0063569D02*
X0102450Y0063569D01*
X0097536Y0064508D02*
X0097536Y0052334D01*
X0092450Y0052334D01*
X0092450Y0064508D01*
X0097536Y0064508D01*
X0097536Y0053939D02*
X0092450Y0053939D01*
X0092450Y0055544D02*
X0097536Y0055544D01*
X0097536Y0057149D02*
X0092450Y0057149D01*
X0092450Y0058754D02*
X0097536Y0058754D01*
X0097536Y0060359D02*
X0092450Y0060359D01*
X0092450Y0061964D02*
X0097536Y0061964D01*
X0097536Y0063569D02*
X0092450Y0063569D01*
X0097950Y0090334D02*
X0085776Y0090334D01*
X0097950Y0090334D02*
X0097950Y0085248D01*
X0085776Y0085248D01*
X0085776Y0090334D01*
X0085776Y0086853D02*
X0097950Y0086853D01*
X0097950Y0088458D02*
X0085776Y0088458D01*
X0085776Y0090063D02*
X0097950Y0090063D01*
X0097950Y0100334D02*
X0085776Y0100334D01*
X0097950Y0100334D02*
X0097950Y0095248D01*
X0085776Y0095248D01*
X0085776Y0100334D01*
X0085776Y0096853D02*
X0097950Y0096853D01*
X0097950Y0098458D02*
X0085776Y0098458D01*
X0085776Y0100063D02*
X0097950Y0100063D01*
X0097950Y0110334D02*
X0085776Y0110334D01*
X0097950Y0110334D02*
X0097950Y0105248D01*
X0085776Y0105248D01*
X0085776Y0110334D01*
X0085776Y0106853D02*
X0097950Y0106853D01*
X0097950Y0108458D02*
X0085776Y0108458D01*
X0085776Y0110063D02*
X0097950Y0110063D01*
D18*
X0053493Y0238916D02*
X0045993Y0238916D01*
X0045993Y0242666D01*
X0049743Y0244541D01*
X0053493Y0242666D01*
X0053493Y0238916D01*
X0053493Y0239486D02*
X0045993Y0239486D01*
X0045993Y0240685D02*
X0053493Y0240685D01*
X0053493Y0241883D02*
X0045993Y0241883D01*
X0046824Y0243082D02*
X0052662Y0243082D01*
X0050265Y0244280D02*
X0049221Y0244280D01*
X0049743Y0254541D02*
X0045993Y0256416D01*
X0045993Y0260166D01*
X0053493Y0260166D01*
X0053493Y0256416D01*
X0049743Y0254541D01*
X0048692Y0255067D02*
X0050794Y0255067D01*
X0053191Y0256266D02*
X0046295Y0256266D01*
X0045993Y0257464D02*
X0053493Y0257464D01*
X0053493Y0258663D02*
X0045993Y0258663D01*
X0045993Y0259861D02*
X0053493Y0259861D01*
X0033493Y0259861D02*
X0025993Y0259861D01*
X0025993Y0260166D02*
X0033493Y0260166D01*
X0033493Y0256416D01*
X0029743Y0254541D01*
X0025993Y0256416D01*
X0025993Y0260166D01*
X0025993Y0258663D02*
X0033493Y0258663D01*
X0033493Y0257464D02*
X0025993Y0257464D01*
X0026295Y0256266D02*
X0033191Y0256266D01*
X0030794Y0255067D02*
X0028692Y0255067D01*
X0029743Y0244541D02*
X0025993Y0242666D01*
X0025993Y0238916D01*
X0033493Y0238916D01*
X0033493Y0242666D01*
X0029743Y0244541D01*
X0029221Y0244280D02*
X0030265Y0244280D01*
X0032662Y0243082D02*
X0026824Y0243082D01*
X0025993Y0241883D02*
X0033493Y0241883D01*
X0033493Y0240685D02*
X0025993Y0240685D01*
X0025993Y0239486D02*
X0033493Y0239486D01*
X0104681Y0324479D02*
X0104681Y0330104D01*
X0107806Y0330104D01*
X0109681Y0327291D01*
X0107806Y0324479D01*
X0104681Y0324479D01*
X0104681Y0324581D02*
X0107873Y0324581D01*
X0108672Y0325779D02*
X0104681Y0325779D01*
X0104681Y0326978D02*
X0109471Y0326978D01*
X0109091Y0328176D02*
X0104681Y0328176D01*
X0104681Y0329375D02*
X0108292Y0329375D01*
X0107806Y0334729D02*
X0104681Y0334729D01*
X0104681Y0340354D01*
X0107806Y0340354D01*
X0109681Y0337541D01*
X0107806Y0334729D01*
X0108231Y0335367D02*
X0104681Y0335367D01*
X0104681Y0336566D02*
X0109030Y0336566D01*
X0109532Y0337764D02*
X0104681Y0337764D01*
X0104681Y0338963D02*
X0108733Y0338963D01*
X0107934Y0340161D02*
X0104681Y0340161D01*
X0105306Y0347729D02*
X0102181Y0347729D01*
X0100306Y0350541D01*
X0102181Y0353354D01*
X0105306Y0353354D01*
X0105306Y0347729D01*
X0105306Y0348551D02*
X0101633Y0348551D01*
X0100834Y0349749D02*
X0105306Y0349749D01*
X0105306Y0350948D02*
X0100577Y0350948D01*
X0101376Y0352146D02*
X0105306Y0352146D01*
X0105306Y0353345D02*
X0102175Y0353345D01*
X0094681Y0350541D02*
X0092806Y0347729D01*
X0089681Y0347729D01*
X0089681Y0353354D01*
X0092806Y0353354D01*
X0094681Y0350541D01*
X0094409Y0350948D02*
X0089681Y0350948D01*
X0089681Y0352146D02*
X0093610Y0352146D01*
X0092811Y0353345D02*
X0089681Y0353345D01*
X0089681Y0349749D02*
X0094153Y0349749D01*
X0093354Y0348551D02*
X0089681Y0348551D01*
X0115306Y0337541D02*
X0117181Y0340354D01*
X0120306Y0340354D01*
X0120306Y0334729D01*
X0117181Y0334729D01*
X0115306Y0337541D01*
X0115454Y0337764D02*
X0120306Y0337764D01*
X0120306Y0336566D02*
X0115956Y0336566D01*
X0116755Y0335367D02*
X0120306Y0335367D01*
X0120306Y0338963D02*
X0116253Y0338963D01*
X0117052Y0340161D02*
X0120306Y0340161D01*
X0120306Y0330104D02*
X0117181Y0330104D01*
X0115306Y0327291D01*
X0117181Y0324479D01*
X0120306Y0324479D01*
X0120306Y0330104D01*
X0120306Y0329375D02*
X0116694Y0329375D01*
X0115895Y0328176D02*
X0120306Y0328176D01*
X0120306Y0326978D02*
X0115515Y0326978D01*
X0116314Y0325779D02*
X0120306Y0325779D01*
X0120306Y0324581D02*
X0117113Y0324581D01*
X0117700Y0274100D02*
X0119865Y0274100D01*
X0119865Y0272919D01*
X0117700Y0272919D01*
X0117700Y0274100D01*
X0117700Y0273045D02*
X0119865Y0273045D01*
X0122621Y0273045D02*
X0124786Y0273045D01*
X0124786Y0272919D02*
X0124786Y0274100D01*
X0122621Y0274100D01*
X0122621Y0272919D01*
X0124786Y0272919D01*
X0124786Y0270163D02*
X0122621Y0270163D01*
X0122621Y0268982D01*
X0124786Y0268982D01*
X0124786Y0270163D01*
X0124786Y0269449D02*
X0122621Y0269449D01*
X0119865Y0269449D02*
X0117700Y0269449D01*
X0117700Y0268982D02*
X0119865Y0268982D01*
X0119865Y0270163D01*
X0117700Y0270163D01*
X0117700Y0268982D01*
D19*
X0041659Y0132581D02*
X0038765Y0132581D01*
X0038765Y0140001D01*
X0041659Y0140001D01*
X0041659Y0132581D01*
X0041659Y0133820D02*
X0038765Y0133820D01*
X0038765Y0135059D02*
X0041659Y0135059D01*
X0041659Y0136298D02*
X0038765Y0136298D01*
X0038765Y0137537D02*
X0041659Y0137537D01*
X0041659Y0138776D02*
X0038765Y0138776D01*
X0030222Y0132581D02*
X0027328Y0132581D01*
X0027328Y0140001D01*
X0030222Y0140001D01*
X0030222Y0132581D01*
X0030222Y0133820D02*
X0027328Y0133820D01*
X0027328Y0135059D02*
X0030222Y0135059D01*
X0030222Y0136298D02*
X0027328Y0136298D01*
X0027328Y0137537D02*
X0030222Y0137537D01*
X0030222Y0138776D02*
X0027328Y0138776D01*
D20*
X0199910Y0303656D02*
X0199910Y0304690D01*
X0199910Y0303656D02*
X0198384Y0303656D01*
X0198384Y0304690D01*
X0199910Y0304690D01*
X0199910Y0304098D02*
X0198384Y0304098D01*
X0198384Y0304540D02*
X0199910Y0304540D01*
X0199910Y0307892D02*
X0199910Y0308926D01*
X0199910Y0307892D02*
X0198384Y0307892D01*
X0198384Y0308926D01*
X0199910Y0308926D01*
X0199910Y0308334D02*
X0198384Y0308334D01*
X0198384Y0308776D02*
X0199910Y0308776D01*
X0206602Y0308926D02*
X0206602Y0307892D01*
X0205076Y0307892D01*
X0205076Y0308926D01*
X0206602Y0308926D01*
X0206602Y0308334D02*
X0205076Y0308334D01*
X0205076Y0308776D02*
X0206602Y0308776D01*
X0206602Y0304690D02*
X0206602Y0303656D01*
X0205076Y0303656D01*
X0205076Y0304690D01*
X0206602Y0304690D01*
X0206602Y0304098D02*
X0205076Y0304098D01*
X0205076Y0304540D02*
X0206602Y0304540D01*
D21*
X0207016Y0305902D02*
X0207016Y0306680D01*
X0207016Y0305902D02*
X0205056Y0305902D01*
X0205056Y0306680D01*
X0207016Y0306680D01*
X0207016Y0306303D02*
X0205056Y0306303D01*
X0199930Y0306680D02*
X0199930Y0305902D01*
X0197970Y0305902D01*
X0197970Y0306680D01*
X0199930Y0306680D01*
X0199930Y0306303D02*
X0197970Y0306303D01*
D22*
X0190741Y0360039D02*
X0190741Y0365543D01*
X0191545Y0365543D01*
X0191545Y0360039D01*
X0190741Y0360039D01*
X0190741Y0360434D02*
X0191545Y0360434D01*
X0191545Y0360829D02*
X0190741Y0360829D01*
X0190741Y0361224D02*
X0191545Y0361224D01*
X0191545Y0361619D02*
X0190741Y0361619D01*
X0190741Y0362014D02*
X0191545Y0362014D01*
X0191545Y0362409D02*
X0190741Y0362409D01*
X0190741Y0362804D02*
X0191545Y0362804D01*
X0191545Y0363199D02*
X0190741Y0363199D01*
X0190741Y0363594D02*
X0191545Y0363594D01*
X0191545Y0363989D02*
X0190741Y0363989D01*
X0190741Y0364384D02*
X0191545Y0364384D01*
X0191545Y0364779D02*
X0190741Y0364779D01*
X0190741Y0365174D02*
X0191545Y0365174D01*
X0188741Y0365543D02*
X0188741Y0360039D01*
X0188741Y0365543D02*
X0189545Y0365543D01*
X0189545Y0360039D01*
X0188741Y0360039D01*
X0188741Y0360434D02*
X0189545Y0360434D01*
X0189545Y0360829D02*
X0188741Y0360829D01*
X0188741Y0361224D02*
X0189545Y0361224D01*
X0189545Y0361619D02*
X0188741Y0361619D01*
X0188741Y0362014D02*
X0189545Y0362014D01*
X0189545Y0362409D02*
X0188741Y0362409D01*
X0188741Y0362804D02*
X0189545Y0362804D01*
X0189545Y0363199D02*
X0188741Y0363199D01*
X0188741Y0363594D02*
X0189545Y0363594D01*
X0189545Y0363989D02*
X0188741Y0363989D01*
X0188741Y0364384D02*
X0189545Y0364384D01*
X0189545Y0364779D02*
X0188741Y0364779D01*
X0188741Y0365174D02*
X0189545Y0365174D01*
X0186741Y0365543D02*
X0186741Y0360039D01*
X0186741Y0365543D02*
X0187545Y0365543D01*
X0187545Y0360039D01*
X0186741Y0360039D01*
X0186741Y0360434D02*
X0187545Y0360434D01*
X0187545Y0360829D02*
X0186741Y0360829D01*
X0186741Y0361224D02*
X0187545Y0361224D01*
X0187545Y0361619D02*
X0186741Y0361619D01*
X0186741Y0362014D02*
X0187545Y0362014D01*
X0187545Y0362409D02*
X0186741Y0362409D01*
X0186741Y0362804D02*
X0187545Y0362804D01*
X0187545Y0363199D02*
X0186741Y0363199D01*
X0186741Y0363594D02*
X0187545Y0363594D01*
X0187545Y0363989D02*
X0186741Y0363989D01*
X0186741Y0364384D02*
X0187545Y0364384D01*
X0187545Y0364779D02*
X0186741Y0364779D01*
X0186741Y0365174D02*
X0187545Y0365174D01*
X0184841Y0365543D02*
X0184841Y0360039D01*
X0184841Y0365543D02*
X0185645Y0365543D01*
X0185645Y0360039D01*
X0184841Y0360039D01*
X0184841Y0360434D02*
X0185645Y0360434D01*
X0185645Y0360829D02*
X0184841Y0360829D01*
X0184841Y0361224D02*
X0185645Y0361224D01*
X0185645Y0361619D02*
X0184841Y0361619D01*
X0184841Y0362014D02*
X0185645Y0362014D01*
X0185645Y0362409D02*
X0184841Y0362409D01*
X0184841Y0362804D02*
X0185645Y0362804D01*
X0185645Y0363199D02*
X0184841Y0363199D01*
X0184841Y0363594D02*
X0185645Y0363594D01*
X0185645Y0363989D02*
X0184841Y0363989D01*
X0184841Y0364384D02*
X0185645Y0364384D01*
X0185645Y0364779D02*
X0184841Y0364779D01*
X0184841Y0365174D02*
X0185645Y0365174D01*
X0182841Y0365543D02*
X0182841Y0360039D01*
X0182841Y0365543D02*
X0183645Y0365543D01*
X0183645Y0360039D01*
X0182841Y0360039D01*
X0182841Y0360434D02*
X0183645Y0360434D01*
X0183645Y0360829D02*
X0182841Y0360829D01*
X0182841Y0361224D02*
X0183645Y0361224D01*
X0183645Y0361619D02*
X0182841Y0361619D01*
X0182841Y0362014D02*
X0183645Y0362014D01*
X0183645Y0362409D02*
X0182841Y0362409D01*
X0182841Y0362804D02*
X0183645Y0362804D01*
X0183645Y0363199D02*
X0182841Y0363199D01*
X0182841Y0363594D02*
X0183645Y0363594D01*
X0183645Y0363989D02*
X0182841Y0363989D01*
X0182841Y0364384D02*
X0183645Y0364384D01*
X0183645Y0364779D02*
X0182841Y0364779D01*
X0182841Y0365174D02*
X0183645Y0365174D01*
X0180841Y0365543D02*
X0180841Y0360039D01*
X0180841Y0365543D02*
X0181645Y0365543D01*
X0181645Y0360039D01*
X0180841Y0360039D01*
X0180841Y0360434D02*
X0181645Y0360434D01*
X0181645Y0360829D02*
X0180841Y0360829D01*
X0180841Y0361224D02*
X0181645Y0361224D01*
X0181645Y0361619D02*
X0180841Y0361619D01*
X0180841Y0362014D02*
X0181645Y0362014D01*
X0181645Y0362409D02*
X0180841Y0362409D01*
X0180841Y0362804D02*
X0181645Y0362804D01*
X0181645Y0363199D02*
X0180841Y0363199D01*
X0180841Y0363594D02*
X0181645Y0363594D01*
X0181645Y0363989D02*
X0180841Y0363989D01*
X0180841Y0364384D02*
X0181645Y0364384D01*
X0181645Y0364779D02*
X0180841Y0364779D01*
X0180841Y0365174D02*
X0181645Y0365174D01*
X0178941Y0365543D02*
X0178941Y0360039D01*
X0178941Y0365543D02*
X0179745Y0365543D01*
X0179745Y0360039D01*
X0178941Y0360039D01*
X0178941Y0360434D02*
X0179745Y0360434D01*
X0179745Y0360829D02*
X0178941Y0360829D01*
X0178941Y0361224D02*
X0179745Y0361224D01*
X0179745Y0361619D02*
X0178941Y0361619D01*
X0178941Y0362014D02*
X0179745Y0362014D01*
X0179745Y0362409D02*
X0178941Y0362409D01*
X0178941Y0362804D02*
X0179745Y0362804D01*
X0179745Y0363199D02*
X0178941Y0363199D01*
X0178941Y0363594D02*
X0179745Y0363594D01*
X0179745Y0363989D02*
X0178941Y0363989D01*
X0178941Y0364384D02*
X0179745Y0364384D01*
X0179745Y0364779D02*
X0178941Y0364779D01*
X0178941Y0365174D02*
X0179745Y0365174D01*
X0176941Y0365543D02*
X0176941Y0360039D01*
X0176941Y0365543D02*
X0177745Y0365543D01*
X0177745Y0360039D01*
X0176941Y0360039D01*
X0176941Y0360434D02*
X0177745Y0360434D01*
X0177745Y0360829D02*
X0176941Y0360829D01*
X0176941Y0361224D02*
X0177745Y0361224D01*
X0177745Y0361619D02*
X0176941Y0361619D01*
X0176941Y0362014D02*
X0177745Y0362014D01*
X0177745Y0362409D02*
X0176941Y0362409D01*
X0176941Y0362804D02*
X0177745Y0362804D01*
X0177745Y0363199D02*
X0176941Y0363199D01*
X0176941Y0363594D02*
X0177745Y0363594D01*
X0177745Y0363989D02*
X0176941Y0363989D01*
X0176941Y0364384D02*
X0177745Y0364384D01*
X0177745Y0364779D02*
X0176941Y0364779D01*
X0176941Y0365174D02*
X0177745Y0365174D01*
X0174941Y0365543D02*
X0174941Y0360039D01*
X0174941Y0365543D02*
X0175745Y0365543D01*
X0175745Y0360039D01*
X0174941Y0360039D01*
X0174941Y0360434D02*
X0175745Y0360434D01*
X0175745Y0360829D02*
X0174941Y0360829D01*
X0174941Y0361224D02*
X0175745Y0361224D01*
X0175745Y0361619D02*
X0174941Y0361619D01*
X0174941Y0362014D02*
X0175745Y0362014D01*
X0175745Y0362409D02*
X0174941Y0362409D01*
X0174941Y0362804D02*
X0175745Y0362804D01*
X0175745Y0363199D02*
X0174941Y0363199D01*
X0174941Y0363594D02*
X0175745Y0363594D01*
X0175745Y0363989D02*
X0174941Y0363989D01*
X0174941Y0364384D02*
X0175745Y0364384D01*
X0175745Y0364779D02*
X0174941Y0364779D01*
X0174941Y0365174D02*
X0175745Y0365174D01*
X0173041Y0365543D02*
X0173041Y0360039D01*
X0173041Y0365543D02*
X0173845Y0365543D01*
X0173845Y0360039D01*
X0173041Y0360039D01*
X0173041Y0360434D02*
X0173845Y0360434D01*
X0173845Y0360829D02*
X0173041Y0360829D01*
X0173041Y0361224D02*
X0173845Y0361224D01*
X0173845Y0361619D02*
X0173041Y0361619D01*
X0173041Y0362014D02*
X0173845Y0362014D01*
X0173845Y0362409D02*
X0173041Y0362409D01*
X0173041Y0362804D02*
X0173845Y0362804D01*
X0173845Y0363199D02*
X0173041Y0363199D01*
X0173041Y0363594D02*
X0173845Y0363594D01*
X0173845Y0363989D02*
X0173041Y0363989D01*
X0173041Y0364384D02*
X0173845Y0364384D01*
X0173845Y0364779D02*
X0173041Y0364779D01*
X0173041Y0365174D02*
X0173845Y0365174D01*
X0171041Y0365543D02*
X0171041Y0360039D01*
X0171041Y0365543D02*
X0171845Y0365543D01*
X0171845Y0360039D01*
X0171041Y0360039D01*
X0171041Y0360434D02*
X0171845Y0360434D01*
X0171845Y0360829D02*
X0171041Y0360829D01*
X0171041Y0361224D02*
X0171845Y0361224D01*
X0171845Y0361619D02*
X0171041Y0361619D01*
X0171041Y0362014D02*
X0171845Y0362014D01*
X0171845Y0362409D02*
X0171041Y0362409D01*
X0171041Y0362804D02*
X0171845Y0362804D01*
X0171845Y0363199D02*
X0171041Y0363199D01*
X0171041Y0363594D02*
X0171845Y0363594D01*
X0171845Y0363989D02*
X0171041Y0363989D01*
X0171041Y0364384D02*
X0171845Y0364384D01*
X0171845Y0364779D02*
X0171041Y0364779D01*
X0171041Y0365174D02*
X0171845Y0365174D01*
X0169041Y0365543D02*
X0169041Y0360039D01*
X0169041Y0365543D02*
X0169845Y0365543D01*
X0169845Y0360039D01*
X0169041Y0360039D01*
X0169041Y0360434D02*
X0169845Y0360434D01*
X0169845Y0360829D02*
X0169041Y0360829D01*
X0169041Y0361224D02*
X0169845Y0361224D01*
X0169845Y0361619D02*
X0169041Y0361619D01*
X0169041Y0362014D02*
X0169845Y0362014D01*
X0169845Y0362409D02*
X0169041Y0362409D01*
X0169041Y0362804D02*
X0169845Y0362804D01*
X0169845Y0363199D02*
X0169041Y0363199D01*
X0169041Y0363594D02*
X0169845Y0363594D01*
X0169845Y0363989D02*
X0169041Y0363989D01*
X0169041Y0364384D02*
X0169845Y0364384D01*
X0169845Y0364779D02*
X0169041Y0364779D01*
X0169041Y0365174D02*
X0169845Y0365174D01*
X0167141Y0365543D02*
X0167141Y0360039D01*
X0167141Y0365543D02*
X0167945Y0365543D01*
X0167945Y0360039D01*
X0167141Y0360039D01*
X0167141Y0360434D02*
X0167945Y0360434D01*
X0167945Y0360829D02*
X0167141Y0360829D01*
X0167141Y0361224D02*
X0167945Y0361224D01*
X0167945Y0361619D02*
X0167141Y0361619D01*
X0167141Y0362014D02*
X0167945Y0362014D01*
X0167945Y0362409D02*
X0167141Y0362409D01*
X0167141Y0362804D02*
X0167945Y0362804D01*
X0167945Y0363199D02*
X0167141Y0363199D01*
X0167141Y0363594D02*
X0167945Y0363594D01*
X0167945Y0363989D02*
X0167141Y0363989D01*
X0167141Y0364384D02*
X0167945Y0364384D01*
X0167945Y0364779D02*
X0167141Y0364779D01*
X0167141Y0365174D02*
X0167945Y0365174D01*
X0165141Y0365543D02*
X0165141Y0360039D01*
X0165141Y0365543D02*
X0165945Y0365543D01*
X0165945Y0360039D01*
X0165141Y0360039D01*
X0165141Y0360434D02*
X0165945Y0360434D01*
X0165945Y0360829D02*
X0165141Y0360829D01*
X0165141Y0361224D02*
X0165945Y0361224D01*
X0165945Y0361619D02*
X0165141Y0361619D01*
X0165141Y0362014D02*
X0165945Y0362014D01*
X0165945Y0362409D02*
X0165141Y0362409D01*
X0165141Y0362804D02*
X0165945Y0362804D01*
X0165945Y0363199D02*
X0165141Y0363199D01*
X0165141Y0363594D02*
X0165945Y0363594D01*
X0165945Y0363989D02*
X0165141Y0363989D01*
X0165141Y0364384D02*
X0165945Y0364384D01*
X0165945Y0364779D02*
X0165141Y0364779D01*
X0165141Y0365174D02*
X0165945Y0365174D01*
X0163141Y0365543D02*
X0163141Y0360039D01*
X0163141Y0365543D02*
X0163945Y0365543D01*
X0163945Y0360039D01*
X0163141Y0360039D01*
X0163141Y0360434D02*
X0163945Y0360434D01*
X0163945Y0360829D02*
X0163141Y0360829D01*
X0163141Y0361224D02*
X0163945Y0361224D01*
X0163945Y0361619D02*
X0163141Y0361619D01*
X0163141Y0362014D02*
X0163945Y0362014D01*
X0163945Y0362409D02*
X0163141Y0362409D01*
X0163141Y0362804D02*
X0163945Y0362804D01*
X0163945Y0363199D02*
X0163141Y0363199D01*
X0163141Y0363594D02*
X0163945Y0363594D01*
X0163945Y0363989D02*
X0163141Y0363989D01*
X0163141Y0364384D02*
X0163945Y0364384D01*
X0163945Y0364779D02*
X0163141Y0364779D01*
X0163141Y0365174D02*
X0163945Y0365174D01*
X0161241Y0365543D02*
X0161241Y0360039D01*
X0161241Y0365543D02*
X0162045Y0365543D01*
X0162045Y0360039D01*
X0161241Y0360039D01*
X0161241Y0360434D02*
X0162045Y0360434D01*
X0162045Y0360829D02*
X0161241Y0360829D01*
X0161241Y0361224D02*
X0162045Y0361224D01*
X0162045Y0361619D02*
X0161241Y0361619D01*
X0161241Y0362014D02*
X0162045Y0362014D01*
X0162045Y0362409D02*
X0161241Y0362409D01*
X0161241Y0362804D02*
X0162045Y0362804D01*
X0162045Y0363199D02*
X0161241Y0363199D01*
X0161241Y0363594D02*
X0162045Y0363594D01*
X0162045Y0363989D02*
X0161241Y0363989D01*
X0161241Y0364384D02*
X0162045Y0364384D01*
X0162045Y0364779D02*
X0161241Y0364779D01*
X0161241Y0365174D02*
X0162045Y0365174D01*
X0159241Y0365543D02*
X0159241Y0360039D01*
X0159241Y0365543D02*
X0160045Y0365543D01*
X0160045Y0360039D01*
X0159241Y0360039D01*
X0159241Y0360434D02*
X0160045Y0360434D01*
X0160045Y0360829D02*
X0159241Y0360829D01*
X0159241Y0361224D02*
X0160045Y0361224D01*
X0160045Y0361619D02*
X0159241Y0361619D01*
X0159241Y0362014D02*
X0160045Y0362014D01*
X0160045Y0362409D02*
X0159241Y0362409D01*
X0159241Y0362804D02*
X0160045Y0362804D01*
X0160045Y0363199D02*
X0159241Y0363199D01*
X0159241Y0363594D02*
X0160045Y0363594D01*
X0160045Y0363989D02*
X0159241Y0363989D01*
X0159241Y0364384D02*
X0160045Y0364384D01*
X0160045Y0364779D02*
X0159241Y0364779D01*
X0159241Y0365174D02*
X0160045Y0365174D01*
X0157241Y0365543D02*
X0157241Y0360039D01*
X0157241Y0365543D02*
X0158045Y0365543D01*
X0158045Y0360039D01*
X0157241Y0360039D01*
X0157241Y0360434D02*
X0158045Y0360434D01*
X0158045Y0360829D02*
X0157241Y0360829D01*
X0157241Y0361224D02*
X0158045Y0361224D01*
X0158045Y0361619D02*
X0157241Y0361619D01*
X0157241Y0362014D02*
X0158045Y0362014D01*
X0158045Y0362409D02*
X0157241Y0362409D01*
X0157241Y0362804D02*
X0158045Y0362804D01*
X0158045Y0363199D02*
X0157241Y0363199D01*
X0157241Y0363594D02*
X0158045Y0363594D01*
X0158045Y0363989D02*
X0157241Y0363989D01*
X0157241Y0364384D02*
X0158045Y0364384D01*
X0158045Y0364779D02*
X0157241Y0364779D01*
X0157241Y0365174D02*
X0158045Y0365174D01*
X0155341Y0365543D02*
X0155341Y0360039D01*
X0155341Y0365543D02*
X0156145Y0365543D01*
X0156145Y0360039D01*
X0155341Y0360039D01*
X0155341Y0360434D02*
X0156145Y0360434D01*
X0156145Y0360829D02*
X0155341Y0360829D01*
X0155341Y0361224D02*
X0156145Y0361224D01*
X0156145Y0361619D02*
X0155341Y0361619D01*
X0155341Y0362014D02*
X0156145Y0362014D01*
X0156145Y0362409D02*
X0155341Y0362409D01*
X0155341Y0362804D02*
X0156145Y0362804D01*
X0156145Y0363199D02*
X0155341Y0363199D01*
X0155341Y0363594D02*
X0156145Y0363594D01*
X0156145Y0363989D02*
X0155341Y0363989D01*
X0155341Y0364384D02*
X0156145Y0364384D01*
X0156145Y0364779D02*
X0155341Y0364779D01*
X0155341Y0365174D02*
X0156145Y0365174D01*
X0153341Y0365543D02*
X0153341Y0360039D01*
X0153341Y0365543D02*
X0154145Y0365543D01*
X0154145Y0360039D01*
X0153341Y0360039D01*
X0153341Y0360434D02*
X0154145Y0360434D01*
X0154145Y0360829D02*
X0153341Y0360829D01*
X0153341Y0361224D02*
X0154145Y0361224D01*
X0154145Y0361619D02*
X0153341Y0361619D01*
X0153341Y0362014D02*
X0154145Y0362014D01*
X0154145Y0362409D02*
X0153341Y0362409D01*
X0153341Y0362804D02*
X0154145Y0362804D01*
X0154145Y0363199D02*
X0153341Y0363199D01*
X0153341Y0363594D02*
X0154145Y0363594D01*
X0154145Y0363989D02*
X0153341Y0363989D01*
X0153341Y0364384D02*
X0154145Y0364384D01*
X0154145Y0364779D02*
X0153341Y0364779D01*
X0153341Y0365174D02*
X0154145Y0365174D01*
X0151341Y0365543D02*
X0151341Y0360039D01*
X0151341Y0365543D02*
X0152145Y0365543D01*
X0152145Y0360039D01*
X0151341Y0360039D01*
X0151341Y0360434D02*
X0152145Y0360434D01*
X0152145Y0360829D02*
X0151341Y0360829D01*
X0151341Y0361224D02*
X0152145Y0361224D01*
X0152145Y0361619D02*
X0151341Y0361619D01*
X0151341Y0362014D02*
X0152145Y0362014D01*
X0152145Y0362409D02*
X0151341Y0362409D01*
X0151341Y0362804D02*
X0152145Y0362804D01*
X0152145Y0363199D02*
X0151341Y0363199D01*
X0151341Y0363594D02*
X0152145Y0363594D01*
X0152145Y0363989D02*
X0151341Y0363989D01*
X0151341Y0364384D02*
X0152145Y0364384D01*
X0152145Y0364779D02*
X0151341Y0364779D01*
X0151341Y0365174D02*
X0152145Y0365174D01*
X0149341Y0365543D02*
X0149341Y0360039D01*
X0149341Y0365543D02*
X0150145Y0365543D01*
X0150145Y0360039D01*
X0149341Y0360039D01*
X0149341Y0360434D02*
X0150145Y0360434D01*
X0150145Y0360829D02*
X0149341Y0360829D01*
X0149341Y0361224D02*
X0150145Y0361224D01*
X0150145Y0361619D02*
X0149341Y0361619D01*
X0149341Y0362014D02*
X0150145Y0362014D01*
X0150145Y0362409D02*
X0149341Y0362409D01*
X0149341Y0362804D02*
X0150145Y0362804D01*
X0150145Y0363199D02*
X0149341Y0363199D01*
X0149341Y0363594D02*
X0150145Y0363594D01*
X0150145Y0363989D02*
X0149341Y0363989D01*
X0149341Y0364384D02*
X0150145Y0364384D01*
X0150145Y0364779D02*
X0149341Y0364779D01*
X0149341Y0365174D02*
X0150145Y0365174D01*
X0147441Y0365543D02*
X0147441Y0360039D01*
X0147441Y0365543D02*
X0148245Y0365543D01*
X0148245Y0360039D01*
X0147441Y0360039D01*
X0147441Y0360434D02*
X0148245Y0360434D01*
X0148245Y0360829D02*
X0147441Y0360829D01*
X0147441Y0361224D02*
X0148245Y0361224D01*
X0148245Y0361619D02*
X0147441Y0361619D01*
X0147441Y0362014D02*
X0148245Y0362014D01*
X0148245Y0362409D02*
X0147441Y0362409D01*
X0147441Y0362804D02*
X0148245Y0362804D01*
X0148245Y0363199D02*
X0147441Y0363199D01*
X0147441Y0363594D02*
X0148245Y0363594D01*
X0148245Y0363989D02*
X0147441Y0363989D01*
X0147441Y0364384D02*
X0148245Y0364384D01*
X0148245Y0364779D02*
X0147441Y0364779D01*
X0147441Y0365174D02*
X0148245Y0365174D01*
X0145441Y0365543D02*
X0145441Y0360039D01*
X0145441Y0365543D02*
X0146245Y0365543D01*
X0146245Y0360039D01*
X0145441Y0360039D01*
X0145441Y0360434D02*
X0146245Y0360434D01*
X0146245Y0360829D02*
X0145441Y0360829D01*
X0145441Y0361224D02*
X0146245Y0361224D01*
X0146245Y0361619D02*
X0145441Y0361619D01*
X0145441Y0362014D02*
X0146245Y0362014D01*
X0146245Y0362409D02*
X0145441Y0362409D01*
X0145441Y0362804D02*
X0146245Y0362804D01*
X0146245Y0363199D02*
X0145441Y0363199D01*
X0145441Y0363594D02*
X0146245Y0363594D01*
X0146245Y0363989D02*
X0145441Y0363989D01*
X0145441Y0364384D02*
X0146245Y0364384D01*
X0146245Y0364779D02*
X0145441Y0364779D01*
X0145441Y0365174D02*
X0146245Y0365174D01*
X0143441Y0365543D02*
X0143441Y0360039D01*
X0143441Y0365543D02*
X0144245Y0365543D01*
X0144245Y0360039D01*
X0143441Y0360039D01*
X0143441Y0360434D02*
X0144245Y0360434D01*
X0144245Y0360829D02*
X0143441Y0360829D01*
X0143441Y0361224D02*
X0144245Y0361224D01*
X0144245Y0361619D02*
X0143441Y0361619D01*
X0143441Y0362014D02*
X0144245Y0362014D01*
X0144245Y0362409D02*
X0143441Y0362409D01*
X0143441Y0362804D02*
X0144245Y0362804D01*
X0144245Y0363199D02*
X0143441Y0363199D01*
X0143441Y0363594D02*
X0144245Y0363594D01*
X0144245Y0363989D02*
X0143441Y0363989D01*
X0143441Y0364384D02*
X0144245Y0364384D01*
X0144245Y0364779D02*
X0143441Y0364779D01*
X0143441Y0365174D02*
X0144245Y0365174D01*
X0141541Y0365543D02*
X0141541Y0360039D01*
X0141541Y0365543D02*
X0142345Y0365543D01*
X0142345Y0360039D01*
X0141541Y0360039D01*
X0141541Y0360434D02*
X0142345Y0360434D01*
X0142345Y0360829D02*
X0141541Y0360829D01*
X0141541Y0361224D02*
X0142345Y0361224D01*
X0142345Y0361619D02*
X0141541Y0361619D01*
X0141541Y0362014D02*
X0142345Y0362014D01*
X0142345Y0362409D02*
X0141541Y0362409D01*
X0141541Y0362804D02*
X0142345Y0362804D01*
X0142345Y0363199D02*
X0141541Y0363199D01*
X0141541Y0363594D02*
X0142345Y0363594D01*
X0142345Y0363989D02*
X0141541Y0363989D01*
X0141541Y0364384D02*
X0142345Y0364384D01*
X0142345Y0364779D02*
X0141541Y0364779D01*
X0141541Y0365174D02*
X0142345Y0365174D01*
X0139541Y0365543D02*
X0139541Y0360039D01*
X0139541Y0365543D02*
X0140345Y0365543D01*
X0140345Y0360039D01*
X0139541Y0360039D01*
X0139541Y0360434D02*
X0140345Y0360434D01*
X0140345Y0360829D02*
X0139541Y0360829D01*
X0139541Y0361224D02*
X0140345Y0361224D01*
X0140345Y0361619D02*
X0139541Y0361619D01*
X0139541Y0362014D02*
X0140345Y0362014D01*
X0140345Y0362409D02*
X0139541Y0362409D01*
X0139541Y0362804D02*
X0140345Y0362804D01*
X0140345Y0363199D02*
X0139541Y0363199D01*
X0139541Y0363594D02*
X0140345Y0363594D01*
X0140345Y0363989D02*
X0139541Y0363989D01*
X0139541Y0364384D02*
X0140345Y0364384D01*
X0140345Y0364779D02*
X0139541Y0364779D01*
X0139541Y0365174D02*
X0140345Y0365174D01*
X0137541Y0365543D02*
X0137541Y0360039D01*
X0137541Y0365543D02*
X0138345Y0365543D01*
X0138345Y0360039D01*
X0137541Y0360039D01*
X0137541Y0360434D02*
X0138345Y0360434D01*
X0138345Y0360829D02*
X0137541Y0360829D01*
X0137541Y0361224D02*
X0138345Y0361224D01*
X0138345Y0361619D02*
X0137541Y0361619D01*
X0137541Y0362014D02*
X0138345Y0362014D01*
X0138345Y0362409D02*
X0137541Y0362409D01*
X0137541Y0362804D02*
X0138345Y0362804D01*
X0138345Y0363199D02*
X0137541Y0363199D01*
X0137541Y0363594D02*
X0138345Y0363594D01*
X0138345Y0363989D02*
X0137541Y0363989D01*
X0137541Y0364384D02*
X0138345Y0364384D01*
X0138345Y0364779D02*
X0137541Y0364779D01*
X0137541Y0365174D02*
X0138345Y0365174D01*
X0135641Y0365543D02*
X0135641Y0360039D01*
X0135641Y0365543D02*
X0136445Y0365543D01*
X0136445Y0360039D01*
X0135641Y0360039D01*
X0135641Y0360434D02*
X0136445Y0360434D01*
X0136445Y0360829D02*
X0135641Y0360829D01*
X0135641Y0361224D02*
X0136445Y0361224D01*
X0136445Y0361619D02*
X0135641Y0361619D01*
X0135641Y0362014D02*
X0136445Y0362014D01*
X0136445Y0362409D02*
X0135641Y0362409D01*
X0135641Y0362804D02*
X0136445Y0362804D01*
X0136445Y0363199D02*
X0135641Y0363199D01*
X0135641Y0363594D02*
X0136445Y0363594D01*
X0136445Y0363989D02*
X0135641Y0363989D01*
X0135641Y0364384D02*
X0136445Y0364384D01*
X0136445Y0364779D02*
X0135641Y0364779D01*
X0135641Y0365174D02*
X0136445Y0365174D01*
X0133641Y0365543D02*
X0133641Y0360039D01*
X0133641Y0365543D02*
X0134445Y0365543D01*
X0134445Y0360039D01*
X0133641Y0360039D01*
X0133641Y0360434D02*
X0134445Y0360434D01*
X0134445Y0360829D02*
X0133641Y0360829D01*
X0133641Y0361224D02*
X0134445Y0361224D01*
X0134445Y0361619D02*
X0133641Y0361619D01*
X0133641Y0362014D02*
X0134445Y0362014D01*
X0134445Y0362409D02*
X0133641Y0362409D01*
X0133641Y0362804D02*
X0134445Y0362804D01*
X0134445Y0363199D02*
X0133641Y0363199D01*
X0133641Y0363594D02*
X0134445Y0363594D01*
X0134445Y0363989D02*
X0133641Y0363989D01*
X0133641Y0364384D02*
X0134445Y0364384D01*
X0134445Y0364779D02*
X0133641Y0364779D01*
X0133641Y0365174D02*
X0134445Y0365174D01*
X0131641Y0365543D02*
X0131641Y0360039D01*
X0131641Y0365543D02*
X0132445Y0365543D01*
X0132445Y0360039D01*
X0131641Y0360039D01*
X0131641Y0360434D02*
X0132445Y0360434D01*
X0132445Y0360829D02*
X0131641Y0360829D01*
X0131641Y0361224D02*
X0132445Y0361224D01*
X0132445Y0361619D02*
X0131641Y0361619D01*
X0131641Y0362014D02*
X0132445Y0362014D01*
X0132445Y0362409D02*
X0131641Y0362409D01*
X0131641Y0362804D02*
X0132445Y0362804D01*
X0132445Y0363199D02*
X0131641Y0363199D01*
X0131641Y0363594D02*
X0132445Y0363594D01*
X0132445Y0363989D02*
X0131641Y0363989D01*
X0131641Y0364384D02*
X0132445Y0364384D01*
X0132445Y0364779D02*
X0131641Y0364779D01*
X0131641Y0365174D02*
X0132445Y0365174D01*
X0129741Y0365543D02*
X0129741Y0360039D01*
X0129741Y0365543D02*
X0130545Y0365543D01*
X0130545Y0360039D01*
X0129741Y0360039D01*
X0129741Y0360434D02*
X0130545Y0360434D01*
X0130545Y0360829D02*
X0129741Y0360829D01*
X0129741Y0361224D02*
X0130545Y0361224D01*
X0130545Y0361619D02*
X0129741Y0361619D01*
X0129741Y0362014D02*
X0130545Y0362014D01*
X0130545Y0362409D02*
X0129741Y0362409D01*
X0129741Y0362804D02*
X0130545Y0362804D01*
X0130545Y0363199D02*
X0129741Y0363199D01*
X0129741Y0363594D02*
X0130545Y0363594D01*
X0130545Y0363989D02*
X0129741Y0363989D01*
X0129741Y0364384D02*
X0130545Y0364384D01*
X0130545Y0364779D02*
X0129741Y0364779D01*
X0129741Y0365174D02*
X0130545Y0365174D01*
X0127741Y0365543D02*
X0127741Y0360039D01*
X0127741Y0365543D02*
X0128545Y0365543D01*
X0128545Y0360039D01*
X0127741Y0360039D01*
X0127741Y0360434D02*
X0128545Y0360434D01*
X0128545Y0360829D02*
X0127741Y0360829D01*
X0127741Y0361224D02*
X0128545Y0361224D01*
X0128545Y0361619D02*
X0127741Y0361619D01*
X0127741Y0362014D02*
X0128545Y0362014D01*
X0128545Y0362409D02*
X0127741Y0362409D01*
X0127741Y0362804D02*
X0128545Y0362804D01*
X0128545Y0363199D02*
X0127741Y0363199D01*
X0127741Y0363594D02*
X0128545Y0363594D01*
X0128545Y0363989D02*
X0127741Y0363989D01*
X0127741Y0364384D02*
X0128545Y0364384D01*
X0128545Y0364779D02*
X0127741Y0364779D01*
X0127741Y0365174D02*
X0128545Y0365174D01*
X0125741Y0365543D02*
X0125741Y0360039D01*
X0125741Y0365543D02*
X0126545Y0365543D01*
X0126545Y0360039D01*
X0125741Y0360039D01*
X0125741Y0360434D02*
X0126545Y0360434D01*
X0126545Y0360829D02*
X0125741Y0360829D01*
X0125741Y0361224D02*
X0126545Y0361224D01*
X0126545Y0361619D02*
X0125741Y0361619D01*
X0125741Y0362014D02*
X0126545Y0362014D01*
X0126545Y0362409D02*
X0125741Y0362409D01*
X0125741Y0362804D02*
X0126545Y0362804D01*
X0126545Y0363199D02*
X0125741Y0363199D01*
X0125741Y0363594D02*
X0126545Y0363594D01*
X0126545Y0363989D02*
X0125741Y0363989D01*
X0125741Y0364384D02*
X0126545Y0364384D01*
X0126545Y0364779D02*
X0125741Y0364779D01*
X0125741Y0365174D02*
X0126545Y0365174D01*
X0123841Y0365543D02*
X0123841Y0360039D01*
X0123841Y0365543D02*
X0124645Y0365543D01*
X0124645Y0360039D01*
X0123841Y0360039D01*
X0123841Y0360434D02*
X0124645Y0360434D01*
X0124645Y0360829D02*
X0123841Y0360829D01*
X0123841Y0361224D02*
X0124645Y0361224D01*
X0124645Y0361619D02*
X0123841Y0361619D01*
X0123841Y0362014D02*
X0124645Y0362014D01*
X0124645Y0362409D02*
X0123841Y0362409D01*
X0123841Y0362804D02*
X0124645Y0362804D01*
X0124645Y0363199D02*
X0123841Y0363199D01*
X0123841Y0363594D02*
X0124645Y0363594D01*
X0124645Y0363989D02*
X0123841Y0363989D01*
X0123841Y0364384D02*
X0124645Y0364384D01*
X0124645Y0364779D02*
X0123841Y0364779D01*
X0123841Y0365174D02*
X0124645Y0365174D01*
X0121841Y0365543D02*
X0121841Y0360039D01*
X0121841Y0365543D02*
X0122645Y0365543D01*
X0122645Y0360039D01*
X0121841Y0360039D01*
X0121841Y0360434D02*
X0122645Y0360434D01*
X0122645Y0360829D02*
X0121841Y0360829D01*
X0121841Y0361224D02*
X0122645Y0361224D01*
X0122645Y0361619D02*
X0121841Y0361619D01*
X0121841Y0362014D02*
X0122645Y0362014D01*
X0122645Y0362409D02*
X0121841Y0362409D01*
X0121841Y0362804D02*
X0122645Y0362804D01*
X0122645Y0363199D02*
X0121841Y0363199D01*
X0121841Y0363594D02*
X0122645Y0363594D01*
X0122645Y0363989D02*
X0121841Y0363989D01*
X0121841Y0364384D02*
X0122645Y0364384D01*
X0122645Y0364779D02*
X0121841Y0364779D01*
X0121841Y0365174D02*
X0122645Y0365174D01*
X0119841Y0365543D02*
X0119841Y0360039D01*
X0119841Y0365543D02*
X0120645Y0365543D01*
X0120645Y0360039D01*
X0119841Y0360039D01*
X0119841Y0360434D02*
X0120645Y0360434D01*
X0120645Y0360829D02*
X0119841Y0360829D01*
X0119841Y0361224D02*
X0120645Y0361224D01*
X0120645Y0361619D02*
X0119841Y0361619D01*
X0119841Y0362014D02*
X0120645Y0362014D01*
X0120645Y0362409D02*
X0119841Y0362409D01*
X0119841Y0362804D02*
X0120645Y0362804D01*
X0120645Y0363199D02*
X0119841Y0363199D01*
X0119841Y0363594D02*
X0120645Y0363594D01*
X0120645Y0363989D02*
X0119841Y0363989D01*
X0119841Y0364384D02*
X0120645Y0364384D01*
X0120645Y0364779D02*
X0119841Y0364779D01*
X0119841Y0365174D02*
X0120645Y0365174D01*
X0117941Y0365543D02*
X0117941Y0360039D01*
X0117941Y0365543D02*
X0118745Y0365543D01*
X0118745Y0360039D01*
X0117941Y0360039D01*
X0117941Y0360434D02*
X0118745Y0360434D01*
X0118745Y0360829D02*
X0117941Y0360829D01*
X0117941Y0361224D02*
X0118745Y0361224D01*
X0118745Y0361619D02*
X0117941Y0361619D01*
X0117941Y0362014D02*
X0118745Y0362014D01*
X0118745Y0362409D02*
X0117941Y0362409D01*
X0117941Y0362804D02*
X0118745Y0362804D01*
X0118745Y0363199D02*
X0117941Y0363199D01*
X0117941Y0363594D02*
X0118745Y0363594D01*
X0118745Y0363989D02*
X0117941Y0363989D01*
X0117941Y0364384D02*
X0118745Y0364384D01*
X0118745Y0364779D02*
X0117941Y0364779D01*
X0117941Y0365174D02*
X0118745Y0365174D01*
X0115941Y0365543D02*
X0115941Y0360039D01*
X0115941Y0365543D02*
X0116745Y0365543D01*
X0116745Y0360039D01*
X0115941Y0360039D01*
X0115941Y0360434D02*
X0116745Y0360434D01*
X0116745Y0360829D02*
X0115941Y0360829D01*
X0115941Y0361224D02*
X0116745Y0361224D01*
X0116745Y0361619D02*
X0115941Y0361619D01*
X0115941Y0362014D02*
X0116745Y0362014D01*
X0116745Y0362409D02*
X0115941Y0362409D01*
X0115941Y0362804D02*
X0116745Y0362804D01*
X0116745Y0363199D02*
X0115941Y0363199D01*
X0115941Y0363594D02*
X0116745Y0363594D01*
X0116745Y0363989D02*
X0115941Y0363989D01*
X0115941Y0364384D02*
X0116745Y0364384D01*
X0116745Y0364779D02*
X0115941Y0364779D01*
X0115941Y0365174D02*
X0116745Y0365174D01*
X0113941Y0365543D02*
X0113941Y0360039D01*
X0113941Y0365543D02*
X0114745Y0365543D01*
X0114745Y0360039D01*
X0113941Y0360039D01*
X0113941Y0360434D02*
X0114745Y0360434D01*
X0114745Y0360829D02*
X0113941Y0360829D01*
X0113941Y0361224D02*
X0114745Y0361224D01*
X0114745Y0361619D02*
X0113941Y0361619D01*
X0113941Y0362014D02*
X0114745Y0362014D01*
X0114745Y0362409D02*
X0113941Y0362409D01*
X0113941Y0362804D02*
X0114745Y0362804D01*
X0114745Y0363199D02*
X0113941Y0363199D01*
X0113941Y0363594D02*
X0114745Y0363594D01*
X0114745Y0363989D02*
X0113941Y0363989D01*
X0113941Y0364384D02*
X0114745Y0364384D01*
X0114745Y0364779D02*
X0113941Y0364779D01*
X0113941Y0365174D02*
X0114745Y0365174D01*
D23*
X0109677Y0372057D02*
X0104209Y0372057D01*
X0104209Y0379125D01*
X0109677Y0379125D01*
X0109677Y0372057D01*
X0109677Y0373689D02*
X0104209Y0373689D01*
X0104209Y0375321D02*
X0109677Y0375321D01*
X0109677Y0376953D02*
X0104209Y0376953D01*
X0104209Y0378585D02*
X0109677Y0378585D01*
X0195809Y0372057D02*
X0201277Y0372057D01*
X0195809Y0372057D02*
X0195809Y0379125D01*
X0201277Y0379125D01*
X0201277Y0372057D01*
X0201277Y0373689D02*
X0195809Y0373689D01*
X0195809Y0375321D02*
X0201277Y0375321D01*
X0201277Y0376953D02*
X0195809Y0376953D01*
X0195809Y0378585D02*
X0201277Y0378585D01*
D24*
X0034695Y0121964D02*
X0033041Y0121964D01*
X0033041Y0123618D01*
X0034695Y0123618D01*
X0034695Y0121964D01*
X0034695Y0122672D02*
X0033041Y0122672D01*
X0033041Y0123380D02*
X0034695Y0123380D01*
X0030695Y0121964D02*
X0029041Y0121964D01*
X0029041Y0123618D01*
X0030695Y0123618D01*
X0030695Y0121964D01*
X0030695Y0122672D02*
X0029041Y0122672D01*
X0029041Y0123380D02*
X0030695Y0123380D01*
D25*
X0133516Y0033569D02*
X0144698Y0033569D01*
X0144698Y0030261D01*
X0133516Y0030261D01*
X0133516Y0033569D01*
X0133516Y0031677D02*
X0144698Y0031677D01*
X0144698Y0033093D02*
X0133516Y0033093D01*
X0133516Y0017821D02*
X0144698Y0017821D01*
X0144698Y0014513D01*
X0133516Y0014513D01*
X0133516Y0017821D01*
X0133516Y0015929D02*
X0144698Y0015929D01*
X0144698Y0017345D02*
X0133516Y0017345D01*
X0160288Y0017821D02*
X0171470Y0017821D01*
X0171470Y0014513D01*
X0160288Y0014513D01*
X0160288Y0017821D01*
X0160288Y0015929D02*
X0171470Y0015929D01*
X0171470Y0017345D02*
X0160288Y0017345D01*
X0160288Y0033569D02*
X0171470Y0033569D01*
X0171470Y0030261D01*
X0160288Y0030261D01*
X0160288Y0033569D01*
X0160288Y0031677D02*
X0171470Y0031677D01*
X0171470Y0033093D02*
X0160288Y0033093D01*
X0183516Y0033599D02*
X0194698Y0033599D01*
X0194698Y0030291D01*
X0183516Y0030291D01*
X0183516Y0033599D01*
X0183516Y0031707D02*
X0194698Y0031707D01*
X0194698Y0033123D02*
X0183516Y0033123D01*
X0183516Y0017851D02*
X0194698Y0017851D01*
X0194698Y0014543D01*
X0183516Y0014543D01*
X0183516Y0017851D01*
X0183516Y0015959D02*
X0194698Y0015959D01*
X0194698Y0017375D02*
X0183516Y0017375D01*
X0210288Y0017851D02*
X0221470Y0017851D01*
X0221470Y0014543D01*
X0210288Y0014543D01*
X0210288Y0017851D01*
X0210288Y0015959D02*
X0221470Y0015959D01*
X0221470Y0017375D02*
X0210288Y0017375D01*
X0210288Y0033599D02*
X0221470Y0033599D01*
X0221470Y0030291D01*
X0210288Y0030291D01*
X0210288Y0033599D01*
X0210288Y0031707D02*
X0221470Y0031707D01*
X0221470Y0033123D02*
X0210288Y0033123D01*
D26*
X0086104Y0209838D02*
X0086104Y0210626D01*
X0088074Y0210626D01*
X0088074Y0209838D01*
X0086104Y0209838D01*
X0086104Y0210624D02*
X0088074Y0210624D01*
X0086104Y0214956D02*
X0086104Y0215744D01*
X0088074Y0215744D01*
X0088074Y0214956D01*
X0086104Y0214956D01*
X0086104Y0215742D02*
X0088074Y0215742D01*
X0079018Y0215744D02*
X0079018Y0214956D01*
X0079018Y0215744D02*
X0081382Y0215744D01*
X0081382Y0214956D01*
X0079018Y0214956D01*
X0079018Y0215742D02*
X0081382Y0215742D01*
X0079412Y0213185D02*
X0079412Y0212397D01*
X0079412Y0213185D02*
X0081382Y0213185D01*
X0081382Y0212397D01*
X0079412Y0212397D01*
X0079412Y0213183D02*
X0081382Y0213183D01*
X0079412Y0210626D02*
X0079412Y0209838D01*
X0079412Y0210626D02*
X0081382Y0210626D01*
X0081382Y0209838D01*
X0079412Y0209838D01*
X0079412Y0210624D02*
X0081382Y0210624D01*
D27*
X0242090Y0219593D02*
X0246420Y0219593D01*
X0246420Y0214081D01*
X0242090Y0214081D01*
X0242090Y0219593D01*
X0242090Y0218411D02*
X0246420Y0218411D01*
X0247671Y0192752D02*
X0252001Y0192752D01*
X0252001Y0187240D01*
X0247671Y0187240D01*
X0247671Y0192752D01*
X0247671Y0191570D02*
X0252001Y0191570D01*
X0263419Y0191305D02*
X0267749Y0191305D01*
X0267749Y0185793D01*
X0263419Y0185793D01*
X0263419Y0191305D01*
X0263419Y0190123D02*
X0267749Y0190123D01*
X0275230Y0185793D02*
X0279560Y0185793D01*
X0275230Y0185793D02*
X0275230Y0191305D01*
X0279560Y0191305D01*
X0279560Y0185793D01*
X0279560Y0190123D02*
X0275230Y0190123D01*
D28*
X0130298Y0268589D02*
X0128330Y0268589D01*
X0126164Y0265833D02*
X0126164Y0263864D01*
X0124196Y0263864D02*
X0124196Y0265833D01*
X0122227Y0265833D02*
X0122227Y0263864D01*
X0120259Y0263864D02*
X0120259Y0265833D01*
X0118290Y0265833D02*
X0118290Y0263864D01*
X0116322Y0263864D02*
X0116322Y0265833D01*
X0114156Y0268589D02*
X0111794Y0268589D01*
X0112188Y0274494D02*
X0114156Y0274494D01*
X0116322Y0277250D02*
X0116322Y0279219D01*
X0118290Y0279219D02*
X0118290Y0277250D01*
X0120259Y0277250D02*
X0120259Y0279219D01*
X0122227Y0279219D02*
X0122227Y0277250D01*
X0124196Y0277250D02*
X0124196Y0279219D01*
X0126164Y0279219D02*
X0126164Y0277250D01*
X0128330Y0274494D02*
X0130298Y0274494D01*
D29*
X0164166Y0206699D02*
X0164166Y0205124D01*
X0166135Y0205124D02*
X0166135Y0206699D01*
X0168103Y0206699D02*
X0168103Y0205124D01*
X0170072Y0205124D02*
X0170072Y0206699D01*
X0172040Y0207093D02*
X0172040Y0205124D01*
X0174796Y0202368D02*
X0176371Y0202368D01*
X0176371Y0200400D02*
X0174796Y0200400D01*
X0174796Y0198431D02*
X0176371Y0198431D01*
X0176371Y0196463D02*
X0174796Y0196463D01*
X0174796Y0194494D02*
X0176371Y0194494D01*
X0172040Y0191738D02*
X0172040Y0190163D01*
X0170072Y0190163D02*
X0170072Y0191738D01*
X0168103Y0191738D02*
X0168103Y0190163D01*
X0166135Y0190163D02*
X0166135Y0191738D01*
X0164166Y0191738D02*
X0164166Y0190163D01*
X0161410Y0194494D02*
X0159836Y0194494D01*
X0159836Y0196463D02*
X0161410Y0196463D01*
X0161410Y0198431D02*
X0159836Y0198431D01*
X0159836Y0200400D02*
X0161410Y0200400D01*
X0161410Y0202368D02*
X0159836Y0202368D01*
M02*
