G75*
%MOIN*%
%OFA0B0*%
%FSLAX25Y25*%
%IPPOS*%
%LPD*%
%AMOC8*
5,1,8,0,0,1.08239X$1,22.5*
%
%ADD10C,0.00886*%
%ADD11C,0.01200*%
%ADD12C,0.00500*%
%ADD13C,0.01063*%
%ADD14C,0.01451*%
%ADD15C,0.02182*%
%ADD16C,0.01296*%
%ADD17C,0.02418*%
%ADD18C,0.00850*%
D10*
X0146674Y0116246D02*
X0153464Y0116246D01*
X0146674Y0116246D02*
X0146674Y0117132D01*
X0153464Y0117132D01*
X0153464Y0116246D01*
X0153464Y0117131D02*
X0146674Y0117131D01*
X0146674Y0119396D02*
X0153464Y0119396D01*
X0146674Y0119396D02*
X0146674Y0120282D01*
X0153464Y0120282D01*
X0153464Y0119396D01*
X0153464Y0120281D02*
X0146674Y0120281D01*
X0146674Y0122545D02*
X0153464Y0122545D01*
X0146674Y0122545D02*
X0146674Y0123431D01*
X0153464Y0123431D01*
X0153464Y0122545D01*
X0153464Y0123430D02*
X0146674Y0123430D01*
X0146674Y0125695D02*
X0153464Y0125695D01*
X0146674Y0125695D02*
X0146674Y0126581D01*
X0153464Y0126581D01*
X0153464Y0125695D01*
X0153464Y0126580D02*
X0146674Y0126580D01*
X0146674Y0128844D02*
X0153464Y0128844D01*
X0146674Y0128844D02*
X0146674Y0129730D01*
X0153464Y0129730D01*
X0153464Y0128844D01*
X0153464Y0129729D02*
X0146674Y0129729D01*
X0146674Y0131994D02*
X0153464Y0131994D01*
X0146674Y0131994D02*
X0146674Y0132880D01*
X0153464Y0132880D01*
X0153464Y0131994D01*
X0153464Y0132879D02*
X0146674Y0132879D01*
X0146674Y0135144D02*
X0153464Y0135144D01*
X0146674Y0135144D02*
X0146674Y0136030D01*
X0153464Y0136030D01*
X0153464Y0135144D01*
X0153464Y0136029D02*
X0146674Y0136029D01*
X0146674Y0138293D02*
X0153464Y0138293D01*
X0146674Y0138293D02*
X0146674Y0139179D01*
X0153464Y0139179D01*
X0153464Y0138293D01*
X0153464Y0139178D02*
X0146674Y0139178D01*
X0146674Y0141443D02*
X0153464Y0141443D01*
X0146674Y0141443D02*
X0146674Y0142329D01*
X0153464Y0142329D01*
X0153464Y0141443D01*
X0153464Y0142328D02*
X0146674Y0142328D01*
X0146674Y0144592D02*
X0153464Y0144592D01*
X0146674Y0144592D02*
X0146674Y0145478D01*
X0153464Y0145478D01*
X0153464Y0144592D01*
X0153464Y0145477D02*
X0146674Y0145477D01*
X0178957Y0146167D02*
X0185747Y0146167D01*
X0178957Y0146167D02*
X0178957Y0147053D01*
X0185747Y0147053D01*
X0185747Y0146167D01*
X0185747Y0147052D02*
X0178957Y0147052D01*
X0178957Y0143018D02*
X0185747Y0143018D01*
X0178957Y0143018D02*
X0178957Y0143904D01*
X0185747Y0143904D01*
X0185747Y0143018D01*
X0185747Y0143903D02*
X0178957Y0143903D01*
X0178957Y0139868D02*
X0185747Y0139868D01*
X0178957Y0139868D02*
X0178957Y0140754D01*
X0185747Y0140754D01*
X0185747Y0139868D01*
X0185747Y0140753D02*
X0178957Y0140753D01*
X0178957Y0136718D02*
X0185747Y0136718D01*
X0178957Y0136718D02*
X0178957Y0137604D01*
X0185747Y0137604D01*
X0185747Y0136718D01*
X0185747Y0137603D02*
X0178957Y0137603D01*
X0178957Y0133569D02*
X0185747Y0133569D01*
X0178957Y0133569D02*
X0178957Y0134455D01*
X0185747Y0134455D01*
X0185747Y0133569D01*
X0185747Y0134454D02*
X0178957Y0134454D01*
X0178957Y0130419D02*
X0185747Y0130419D01*
X0178957Y0130419D02*
X0178957Y0131305D01*
X0185747Y0131305D01*
X0185747Y0130419D01*
X0185747Y0131304D02*
X0178957Y0131304D01*
X0178957Y0127270D02*
X0185747Y0127270D01*
X0178957Y0127270D02*
X0178957Y0128156D01*
X0185747Y0128156D01*
X0185747Y0127270D01*
X0185747Y0128155D02*
X0178957Y0128155D01*
X0178957Y0124120D02*
X0185747Y0124120D01*
X0178957Y0124120D02*
X0178957Y0125006D01*
X0185747Y0125006D01*
X0185747Y0124120D01*
X0185747Y0125005D02*
X0178957Y0125005D01*
X0178957Y0120970D02*
X0185747Y0120970D01*
X0178957Y0120970D02*
X0178957Y0121856D01*
X0185747Y0121856D01*
X0185747Y0120970D01*
X0185747Y0121855D02*
X0178957Y0121855D01*
X0178957Y0117821D02*
X0185747Y0117821D01*
X0178957Y0117821D02*
X0178957Y0118707D01*
X0185747Y0118707D01*
X0185747Y0117821D01*
X0185747Y0118706D02*
X0178957Y0118706D01*
D11*
X0216105Y0123837D02*
X0216105Y0126962D01*
X0218917Y0128837D01*
X0221730Y0126962D01*
X0221730Y0123837D01*
X0216105Y0123837D01*
X0216105Y0123898D02*
X0221730Y0123898D01*
X0221730Y0125096D02*
X0216105Y0125096D01*
X0216105Y0126295D02*
X0221730Y0126295D01*
X0220933Y0127493D02*
X0216902Y0127493D01*
X0218699Y0128692D02*
X0219135Y0128692D01*
X0218917Y0134462D02*
X0216105Y0136337D01*
X0216105Y0139462D01*
X0221730Y0139462D01*
X0221730Y0136337D01*
X0218917Y0134462D01*
X0218584Y0134684D02*
X0219251Y0134684D01*
X0221048Y0135883D02*
X0216786Y0135883D01*
X0216105Y0137081D02*
X0221730Y0137081D01*
X0221730Y0138280D02*
X0216105Y0138280D01*
X0191730Y0183837D02*
X0188605Y0183837D01*
X0186730Y0186650D01*
X0188605Y0189462D01*
X0191730Y0189462D01*
X0191730Y0183837D01*
X0191730Y0185022D02*
X0187815Y0185022D01*
X0187016Y0186220D02*
X0191730Y0186220D01*
X0191730Y0187419D02*
X0187243Y0187419D01*
X0188042Y0188617D02*
X0191730Y0188617D01*
X0181105Y0186650D02*
X0179230Y0183837D01*
X0176105Y0183837D01*
X0176105Y0189462D01*
X0179230Y0189462D01*
X0181105Y0186650D01*
X0180819Y0186220D02*
X0176105Y0186220D01*
X0176105Y0185022D02*
X0180020Y0185022D01*
X0180592Y0187419D02*
X0176105Y0187419D01*
X0176105Y0188617D02*
X0179793Y0188617D01*
X0167980Y0228522D02*
X0162355Y0228522D01*
X0162355Y0231647D01*
X0165167Y0233522D01*
X0167980Y0231647D01*
X0167980Y0228522D01*
X0167980Y0229367D02*
X0162355Y0229367D01*
X0162355Y0230565D02*
X0167980Y0230565D01*
X0167805Y0231764D02*
X0162530Y0231764D01*
X0164328Y0232962D02*
X0166007Y0232962D01*
X0165167Y0239147D02*
X0162355Y0241022D01*
X0162355Y0244147D01*
X0167980Y0244147D01*
X0167980Y0241022D01*
X0165167Y0239147D01*
X0163658Y0240153D02*
X0166677Y0240153D01*
X0167980Y0241352D02*
X0162355Y0241352D01*
X0162355Y0242550D02*
X0167980Y0242550D01*
X0167980Y0243749D02*
X0162355Y0243749D01*
X0149542Y0243749D02*
X0144552Y0243749D01*
X0145167Y0244775D02*
X0143292Y0241650D01*
X0145167Y0238525D01*
X0149542Y0238525D01*
X0149542Y0244775D01*
X0145167Y0244775D01*
X0143833Y0242550D02*
X0149542Y0242550D01*
X0149542Y0241352D02*
X0143471Y0241352D01*
X0144190Y0240153D02*
X0149542Y0240153D01*
X0149542Y0238955D02*
X0144909Y0238955D01*
X0132042Y0241650D02*
X0130167Y0238525D01*
X0125792Y0238525D01*
X0125792Y0244775D01*
X0130167Y0244775D01*
X0132042Y0241650D01*
X0131864Y0241352D02*
X0125792Y0241352D01*
X0125792Y0242550D02*
X0131502Y0242550D01*
X0130783Y0243749D02*
X0125792Y0243749D01*
X0125792Y0240153D02*
X0131145Y0240153D01*
X0130425Y0238955D02*
X0125792Y0238955D01*
X0125792Y0228525D02*
X0125792Y0224150D01*
X0128917Y0222275D01*
X0132042Y0224150D01*
X0132042Y0228525D01*
X0125792Y0228525D01*
X0125792Y0228168D02*
X0132042Y0228168D01*
X0132042Y0226970D02*
X0125792Y0226970D01*
X0125792Y0225771D02*
X0132042Y0225771D01*
X0132042Y0224573D02*
X0125792Y0224573D01*
X0127085Y0223374D02*
X0130750Y0223374D01*
X0128917Y0211025D02*
X0125792Y0209150D01*
X0125792Y0204775D01*
X0132042Y0204775D01*
X0132042Y0209150D01*
X0128917Y0211025D01*
X0127527Y0210191D02*
X0130307Y0210191D01*
X0132042Y0208992D02*
X0125792Y0208992D01*
X0125792Y0207794D02*
X0132042Y0207794D01*
X0132042Y0206595D02*
X0125792Y0206595D01*
X0125792Y0205397D02*
X0132042Y0205397D01*
D12*
X0037667Y0062900D02*
X0037667Y0061025D01*
X0040167Y0061025D01*
X0040167Y0062900D01*
X0038917Y0063837D01*
X0037667Y0062900D01*
X0037757Y0062966D02*
X0040078Y0062966D01*
X0040167Y0062468D02*
X0037667Y0062468D01*
X0037667Y0061969D02*
X0040167Y0061969D01*
X0040167Y0061471D02*
X0037667Y0061471D01*
X0038421Y0063465D02*
X0039413Y0063465D01*
X0038917Y0066962D02*
X0037667Y0067900D01*
X0037667Y0069775D01*
X0040167Y0069775D01*
X0040167Y0067900D01*
X0038917Y0066962D01*
X0038263Y0067453D02*
X0039572Y0067453D01*
X0040167Y0067952D02*
X0037667Y0067952D01*
X0037667Y0068450D02*
X0040167Y0068450D01*
X0040167Y0068949D02*
X0037667Y0068949D01*
X0037667Y0069447D02*
X0040167Y0069447D01*
X0048917Y0079775D02*
X0048917Y0081650D01*
X0050167Y0082587D01*
X0051417Y0081650D01*
X0051417Y0079775D01*
X0048917Y0079775D01*
X0048917Y0079916D02*
X0051417Y0079916D01*
X0051417Y0080414D02*
X0048917Y0080414D01*
X0048917Y0080913D02*
X0051417Y0080913D01*
X0051417Y0081411D02*
X0048917Y0081411D01*
X0049264Y0081910D02*
X0051070Y0081910D01*
X0050406Y0082408D02*
X0049929Y0082408D01*
X0050167Y0085712D02*
X0048917Y0086650D01*
X0048917Y0088525D01*
X0051417Y0088525D01*
X0051417Y0086650D01*
X0050167Y0085712D01*
X0049919Y0085898D02*
X0050415Y0085898D01*
X0051080Y0086397D02*
X0049255Y0086397D01*
X0048917Y0086895D02*
X0051417Y0086895D01*
X0051417Y0087394D02*
X0048917Y0087394D01*
X0048917Y0087892D02*
X0051417Y0087892D01*
X0051417Y0088391D02*
X0048917Y0088391D01*
X0062667Y0069775D02*
X0065167Y0069775D01*
X0065167Y0067900D01*
X0063917Y0066962D01*
X0062667Y0067900D01*
X0062667Y0069775D01*
X0062667Y0069447D02*
X0065167Y0069447D01*
X0065167Y0068949D02*
X0062667Y0068949D01*
X0062667Y0068450D02*
X0065167Y0068450D01*
X0065167Y0067952D02*
X0062667Y0067952D01*
X0063263Y0067453D02*
X0064572Y0067453D01*
X0063917Y0063837D02*
X0065167Y0062900D01*
X0065167Y0061025D01*
X0062667Y0061025D01*
X0062667Y0062900D01*
X0063917Y0063837D01*
X0063421Y0063465D02*
X0064413Y0063465D01*
X0065078Y0062966D02*
X0062757Y0062966D01*
X0062667Y0062468D02*
X0065167Y0062468D01*
X0065167Y0061969D02*
X0062667Y0061969D01*
X0062667Y0061471D02*
X0065167Y0061471D01*
X0073917Y0079775D02*
X0073917Y0081650D01*
X0075167Y0082587D01*
X0076417Y0081650D01*
X0076417Y0079775D01*
X0073917Y0079775D01*
X0073917Y0079916D02*
X0076417Y0079916D01*
X0076417Y0080414D02*
X0073917Y0080414D01*
X0073917Y0080913D02*
X0076417Y0080913D01*
X0076417Y0081411D02*
X0073917Y0081411D01*
X0074264Y0081910D02*
X0076070Y0081910D01*
X0075406Y0082408D02*
X0074929Y0082408D01*
X0075167Y0085712D02*
X0073917Y0086650D01*
X0073917Y0088525D01*
X0076417Y0088525D01*
X0076417Y0086650D01*
X0075167Y0085712D01*
X0074919Y0085898D02*
X0075415Y0085898D01*
X0076080Y0086397D02*
X0074255Y0086397D01*
X0073917Y0086895D02*
X0076417Y0086895D01*
X0076417Y0087394D02*
X0073917Y0087394D01*
X0073917Y0087892D02*
X0076417Y0087892D01*
X0076417Y0088391D02*
X0073917Y0088391D01*
X0098917Y0088391D02*
X0101417Y0088391D01*
X0101417Y0088525D02*
X0101417Y0086650D01*
X0100167Y0085712D01*
X0098917Y0086650D01*
X0098917Y0088525D01*
X0101417Y0088525D01*
X0101417Y0087892D02*
X0098917Y0087892D01*
X0098917Y0087394D02*
X0101417Y0087394D01*
X0101417Y0086895D02*
X0098917Y0086895D01*
X0099255Y0086397D02*
X0101080Y0086397D01*
X0100415Y0085898D02*
X0099919Y0085898D01*
X0100167Y0082587D02*
X0098917Y0081650D01*
X0098917Y0079775D01*
X0101417Y0079775D01*
X0101417Y0081650D01*
X0100167Y0082587D01*
X0099929Y0082408D02*
X0100406Y0082408D01*
X0101070Y0081910D02*
X0099264Y0081910D01*
X0098917Y0081411D02*
X0101417Y0081411D01*
X0101417Y0080913D02*
X0098917Y0080913D01*
X0098917Y0080414D02*
X0101417Y0080414D01*
X0101417Y0079916D02*
X0098917Y0079916D01*
X0128917Y0079916D02*
X0131417Y0079916D01*
X0131417Y0079775D02*
X0128917Y0079775D01*
X0128917Y0081650D01*
X0130167Y0082587D01*
X0131417Y0081650D01*
X0131417Y0079775D01*
X0131417Y0080414D02*
X0128917Y0080414D01*
X0128917Y0080913D02*
X0131417Y0080913D01*
X0131417Y0081411D02*
X0128917Y0081411D01*
X0129264Y0081910D02*
X0131070Y0081910D01*
X0130406Y0082408D02*
X0129929Y0082408D01*
X0130167Y0085712D02*
X0128917Y0086650D01*
X0128917Y0088525D01*
X0131417Y0088525D01*
X0131417Y0086650D01*
X0130167Y0085712D01*
X0129919Y0085898D02*
X0130415Y0085898D01*
X0131080Y0086397D02*
X0129255Y0086397D01*
X0128917Y0086895D02*
X0131417Y0086895D01*
X0131417Y0087394D02*
X0128917Y0087394D01*
X0128917Y0087892D02*
X0131417Y0087892D01*
X0131417Y0088391D02*
X0128917Y0088391D01*
X0148917Y0088391D02*
X0151417Y0088391D01*
X0151417Y0088525D02*
X0151417Y0086650D01*
X0150167Y0085712D01*
X0148917Y0086650D01*
X0148917Y0088525D01*
X0151417Y0088525D01*
X0151417Y0087892D02*
X0148917Y0087892D01*
X0148917Y0087394D02*
X0151417Y0087394D01*
X0151417Y0086895D02*
X0148917Y0086895D01*
X0149255Y0086397D02*
X0151080Y0086397D01*
X0150415Y0085898D02*
X0149919Y0085898D01*
X0150167Y0082587D02*
X0151417Y0081650D01*
X0151417Y0079775D01*
X0148917Y0079775D01*
X0148917Y0081650D01*
X0150167Y0082587D01*
X0149929Y0082408D02*
X0150406Y0082408D01*
X0151070Y0081910D02*
X0149264Y0081910D01*
X0148917Y0081411D02*
X0151417Y0081411D01*
X0151417Y0080913D02*
X0148917Y0080913D01*
X0148917Y0080414D02*
X0151417Y0080414D01*
X0151417Y0079916D02*
X0148917Y0079916D01*
X0158917Y0079916D02*
X0161417Y0079916D01*
X0161417Y0079775D02*
X0158917Y0079775D01*
X0158917Y0081650D01*
X0160167Y0082587D01*
X0161417Y0081650D01*
X0161417Y0079775D01*
X0161417Y0080414D02*
X0158917Y0080414D01*
X0158917Y0080913D02*
X0161417Y0080913D01*
X0161417Y0081411D02*
X0158917Y0081411D01*
X0159264Y0081910D02*
X0161070Y0081910D01*
X0160406Y0082408D02*
X0159929Y0082408D01*
X0160167Y0085712D02*
X0158917Y0086650D01*
X0158917Y0088525D01*
X0161417Y0088525D01*
X0161417Y0086650D01*
X0160167Y0085712D01*
X0159919Y0085898D02*
X0160415Y0085898D01*
X0161080Y0086397D02*
X0159255Y0086397D01*
X0158917Y0086895D02*
X0161417Y0086895D01*
X0161417Y0087394D02*
X0158917Y0087394D01*
X0158917Y0087892D02*
X0161417Y0087892D01*
X0161417Y0088391D02*
X0158917Y0088391D01*
X0168917Y0088391D02*
X0171417Y0088391D01*
X0171417Y0088525D02*
X0171417Y0086650D01*
X0170167Y0085712D01*
X0168917Y0086650D01*
X0168917Y0088525D01*
X0171417Y0088525D01*
X0171417Y0087892D02*
X0168917Y0087892D01*
X0168917Y0087394D02*
X0171417Y0087394D01*
X0171417Y0086895D02*
X0168917Y0086895D01*
X0169255Y0086397D02*
X0171080Y0086397D01*
X0170415Y0085898D02*
X0169919Y0085898D01*
X0170167Y0082587D02*
X0171417Y0081650D01*
X0171417Y0079775D01*
X0168917Y0079775D01*
X0168917Y0081650D01*
X0170167Y0082587D01*
X0169929Y0082408D02*
X0170406Y0082408D01*
X0171070Y0081910D02*
X0169264Y0081910D01*
X0168917Y0081411D02*
X0171417Y0081411D01*
X0171417Y0080913D02*
X0168917Y0080913D01*
X0168917Y0080414D02*
X0171417Y0080414D01*
X0171417Y0079916D02*
X0168917Y0079916D01*
X0208917Y0127275D02*
X0211417Y0127275D01*
X0211417Y0129150D01*
X0210167Y0130087D01*
X0208917Y0129150D01*
X0208917Y0127275D01*
X0208917Y0127773D02*
X0211417Y0127773D01*
X0211417Y0128271D02*
X0208917Y0128271D01*
X0208917Y0128770D02*
X0211417Y0128770D01*
X0211259Y0129269D02*
X0209076Y0129269D01*
X0209741Y0129767D02*
X0210594Y0129767D01*
X0210167Y0133212D02*
X0208917Y0134150D01*
X0208917Y0136025D01*
X0211417Y0136025D01*
X0211417Y0134150D01*
X0210167Y0133212D01*
X0210108Y0133257D02*
X0210227Y0133257D01*
X0210891Y0133755D02*
X0209443Y0133755D01*
X0208917Y0134254D02*
X0211417Y0134254D01*
X0211417Y0134752D02*
X0208917Y0134752D01*
X0208917Y0135251D02*
X0211417Y0135251D01*
X0211417Y0135749D02*
X0208917Y0135749D01*
X0175792Y0170400D02*
X0173917Y0170400D01*
X0172980Y0171650D01*
X0173917Y0172900D01*
X0175792Y0172900D01*
X0175792Y0170400D01*
X0175792Y0170645D02*
X0173733Y0170645D01*
X0173359Y0171143D02*
X0175792Y0171143D01*
X0175792Y0171642D02*
X0172986Y0171642D01*
X0173348Y0172140D02*
X0175792Y0172140D01*
X0175792Y0172639D02*
X0173722Y0172639D01*
X0169855Y0171650D02*
X0168917Y0170400D01*
X0167042Y0170400D01*
X0167042Y0172900D01*
X0168917Y0172900D01*
X0169855Y0171650D01*
X0169849Y0171642D02*
X0167042Y0171642D01*
X0167042Y0172140D02*
X0169487Y0172140D01*
X0169113Y0172639D02*
X0167042Y0172639D01*
X0167042Y0171143D02*
X0169475Y0171143D01*
X0169101Y0170645D02*
X0167042Y0170645D01*
X0182042Y0177900D02*
X0182042Y0180400D01*
X0183917Y0180400D01*
X0184855Y0179150D01*
X0183917Y0177900D01*
X0182042Y0177900D01*
X0182042Y0178123D02*
X0184085Y0178123D01*
X0184458Y0178621D02*
X0182042Y0178621D01*
X0182042Y0179120D02*
X0184832Y0179120D01*
X0184503Y0179618D02*
X0182042Y0179618D01*
X0182042Y0180117D02*
X0184130Y0180117D01*
X0187980Y0179150D02*
X0188917Y0177900D01*
X0190792Y0177900D01*
X0190792Y0180400D01*
X0188917Y0180400D01*
X0187980Y0179150D01*
X0188002Y0179120D02*
X0190792Y0179120D01*
X0190792Y0179618D02*
X0188331Y0179618D01*
X0188705Y0180117D02*
X0190792Y0180117D01*
X0190792Y0178621D02*
X0188376Y0178621D01*
X0188750Y0178123D02*
X0190792Y0178123D01*
X0178917Y0222275D02*
X0176417Y0222275D01*
X0176417Y0224150D01*
X0177667Y0225087D01*
X0178917Y0224150D01*
X0178917Y0222275D01*
X0178917Y0222490D02*
X0176417Y0222490D01*
X0176417Y0222989D02*
X0178917Y0222989D01*
X0178917Y0223487D02*
X0176417Y0223487D01*
X0176417Y0223986D02*
X0178917Y0223986D01*
X0178471Y0224484D02*
X0176863Y0224484D01*
X0177528Y0224983D02*
X0177807Y0224983D01*
X0177667Y0228212D02*
X0176417Y0229150D01*
X0176417Y0231025D01*
X0178917Y0231025D01*
X0178917Y0229150D01*
X0177667Y0228212D01*
X0177320Y0228472D02*
X0178014Y0228472D01*
X0178679Y0228971D02*
X0176656Y0228971D01*
X0176417Y0229469D02*
X0178917Y0229469D01*
X0178917Y0229968D02*
X0176417Y0229968D01*
X0176417Y0230466D02*
X0178917Y0230466D01*
X0178917Y0230965D02*
X0176417Y0230965D01*
X0176417Y0241965D02*
X0178917Y0241965D01*
X0178917Y0243840D01*
X0177667Y0244777D01*
X0176417Y0243840D01*
X0176417Y0241965D01*
X0176417Y0242431D02*
X0178917Y0242431D01*
X0178917Y0242929D02*
X0176417Y0242929D01*
X0176417Y0243428D02*
X0178917Y0243428D01*
X0178802Y0243926D02*
X0176533Y0243926D01*
X0177197Y0244425D02*
X0178137Y0244425D01*
X0177667Y0247902D02*
X0176417Y0248840D01*
X0176417Y0250715D01*
X0178917Y0250715D01*
X0178917Y0248840D01*
X0177667Y0247902D01*
X0177651Y0247914D02*
X0177684Y0247914D01*
X0178348Y0248413D02*
X0176986Y0248413D01*
X0176417Y0248911D02*
X0178917Y0248911D01*
X0178917Y0249410D02*
X0176417Y0249410D01*
X0176417Y0249908D02*
X0178917Y0249908D01*
X0178917Y0250407D02*
X0176417Y0250407D01*
D13*
X0181634Y0172890D02*
X0184508Y0172890D01*
X0184508Y0170410D01*
X0181634Y0170410D01*
X0181634Y0172890D01*
X0181634Y0171472D02*
X0184508Y0171472D01*
X0184508Y0172534D02*
X0181634Y0172534D01*
X0188327Y0172890D02*
X0191201Y0172890D01*
X0191201Y0170410D01*
X0188327Y0170410D01*
X0188327Y0172890D01*
X0188327Y0171472D02*
X0191201Y0171472D01*
X0191201Y0172534D02*
X0188327Y0172534D01*
X0228907Y0136433D02*
X0228907Y0133559D01*
X0226427Y0133559D01*
X0226427Y0136433D01*
X0228907Y0136433D01*
X0228907Y0134621D02*
X0226427Y0134621D01*
X0226427Y0135683D02*
X0228907Y0135683D01*
X0228907Y0129740D02*
X0228907Y0126866D01*
X0226427Y0126866D01*
X0226427Y0129740D01*
X0228907Y0129740D01*
X0228907Y0127928D02*
X0226427Y0127928D01*
X0226427Y0128990D02*
X0228907Y0128990D01*
X0068897Y0089258D02*
X0066417Y0089258D01*
X0068897Y0089258D02*
X0068897Y0085202D01*
X0066417Y0085202D01*
X0066417Y0089258D01*
X0066417Y0086264D02*
X0068897Y0086264D01*
X0068897Y0087326D02*
X0066417Y0087326D01*
X0066417Y0088388D02*
X0068897Y0088388D01*
X0061417Y0089258D02*
X0058937Y0089258D01*
X0061417Y0089258D02*
X0061417Y0085202D01*
X0058937Y0085202D01*
X0058937Y0089258D01*
X0058937Y0086264D02*
X0061417Y0086264D01*
X0061417Y0087326D02*
X0058937Y0087326D01*
X0058937Y0088388D02*
X0061417Y0088388D01*
X0062677Y0080597D02*
X0065157Y0080597D01*
X0065157Y0076541D01*
X0062677Y0076541D01*
X0062677Y0080597D01*
X0062677Y0077603D02*
X0065157Y0077603D01*
X0065157Y0078665D02*
X0062677Y0078665D01*
X0062677Y0079727D02*
X0065157Y0079727D01*
X0043897Y0089258D02*
X0041417Y0089258D01*
X0043897Y0089258D02*
X0043897Y0085202D01*
X0041417Y0085202D01*
X0041417Y0089258D01*
X0041417Y0086264D02*
X0043897Y0086264D01*
X0043897Y0087326D02*
X0041417Y0087326D01*
X0041417Y0088388D02*
X0043897Y0088388D01*
X0036417Y0089258D02*
X0033937Y0089258D01*
X0036417Y0089258D02*
X0036417Y0085202D01*
X0033937Y0085202D01*
X0033937Y0089258D01*
X0033937Y0086264D02*
X0036417Y0086264D01*
X0036417Y0087326D02*
X0033937Y0087326D01*
X0033937Y0088388D02*
X0036417Y0088388D01*
X0037677Y0080597D02*
X0040157Y0080597D01*
X0040157Y0076541D01*
X0037677Y0076541D01*
X0037677Y0080597D01*
X0037677Y0077603D02*
X0040157Y0077603D01*
X0040157Y0078665D02*
X0037677Y0078665D01*
X0037677Y0079727D02*
X0040157Y0079727D01*
D14*
X0187797Y0203345D02*
X0195983Y0203345D01*
X0187797Y0203345D02*
X0187797Y0209955D01*
X0195983Y0209955D01*
X0195983Y0203345D01*
X0195983Y0204795D02*
X0187797Y0204795D01*
X0187797Y0206245D02*
X0195983Y0206245D01*
X0195983Y0207695D02*
X0187797Y0207695D01*
X0187797Y0209145D02*
X0195983Y0209145D01*
X0207482Y0203345D02*
X0215668Y0203345D01*
X0207482Y0203345D02*
X0207482Y0209955D01*
X0215668Y0209955D01*
X0215668Y0203345D01*
X0215668Y0204795D02*
X0207482Y0204795D01*
X0207482Y0206245D02*
X0215668Y0206245D01*
X0215668Y0207695D02*
X0207482Y0207695D01*
X0207482Y0209145D02*
X0215668Y0209145D01*
D15*
X0110525Y0214734D02*
X0110525Y0221400D01*
X0115617Y0221400D01*
X0115617Y0214734D01*
X0110525Y0214734D01*
X0110525Y0216915D02*
X0115617Y0216915D01*
X0115617Y0219096D02*
X0110525Y0219096D01*
X0110525Y0221277D02*
X0115617Y0221277D01*
X0110525Y0238947D02*
X0110525Y0245613D01*
X0115617Y0245613D01*
X0115617Y0238947D01*
X0110525Y0238947D01*
X0110525Y0241128D02*
X0115617Y0241128D01*
X0115617Y0243309D02*
X0110525Y0243309D01*
X0110525Y0245490D02*
X0115617Y0245490D01*
X0067218Y0245613D02*
X0067218Y0238947D01*
X0067218Y0245613D02*
X0072310Y0245613D01*
X0072310Y0238947D01*
X0067218Y0238947D01*
X0067218Y0241128D02*
X0072310Y0241128D01*
X0072310Y0243309D02*
X0067218Y0243309D01*
X0067218Y0245490D02*
X0072310Y0245490D01*
X0067218Y0221400D02*
X0067218Y0214734D01*
X0067218Y0221400D02*
X0072310Y0221400D01*
X0072310Y0214734D01*
X0067218Y0214734D01*
X0067218Y0216915D02*
X0072310Y0216915D01*
X0072310Y0219096D02*
X0067218Y0219096D01*
X0067218Y0221277D02*
X0072310Y0221277D01*
D16*
X0185705Y0222288D02*
X0185705Y0225312D01*
X0192729Y0225312D01*
X0192729Y0222288D01*
X0185705Y0222288D01*
X0185705Y0223583D02*
X0192729Y0223583D01*
X0192729Y0224878D02*
X0185705Y0224878D01*
X0185705Y0231388D02*
X0185705Y0234412D01*
X0192729Y0234412D01*
X0192729Y0231388D01*
X0185705Y0231388D01*
X0185705Y0232683D02*
X0192729Y0232683D01*
X0192729Y0233978D02*
X0185705Y0233978D01*
X0185705Y0240488D02*
X0185705Y0243512D01*
X0192729Y0243512D01*
X0192729Y0240488D01*
X0185705Y0240488D01*
X0185705Y0241783D02*
X0192729Y0241783D01*
X0192729Y0243078D02*
X0185705Y0243078D01*
D17*
X0210797Y0238477D02*
X0210797Y0227323D01*
X0210797Y0238477D02*
X0216439Y0238477D01*
X0216439Y0227323D01*
X0210797Y0227323D01*
X0210797Y0229740D02*
X0216439Y0229740D01*
X0216439Y0232157D02*
X0210797Y0232157D01*
X0210797Y0234574D02*
X0216439Y0234574D01*
X0216439Y0236991D02*
X0210797Y0236991D01*
D18*
X0073659Y0069344D02*
X0071675Y0069344D01*
X0073659Y0069344D02*
X0073659Y0067360D01*
X0071675Y0067360D01*
X0071675Y0069344D01*
X0071675Y0068209D02*
X0073659Y0068209D01*
X0073659Y0069058D02*
X0071675Y0069058D01*
X0071675Y0063439D02*
X0073659Y0063439D01*
X0073659Y0061455D01*
X0071675Y0061455D01*
X0071675Y0063439D01*
X0071675Y0062304D02*
X0073659Y0062304D01*
X0073659Y0063153D02*
X0071675Y0063153D01*
X0048659Y0063439D02*
X0046675Y0063439D01*
X0048659Y0063439D02*
X0048659Y0061455D01*
X0046675Y0061455D01*
X0046675Y0063439D01*
X0046675Y0062304D02*
X0048659Y0062304D01*
X0048659Y0063153D02*
X0046675Y0063153D01*
X0046675Y0069344D02*
X0048659Y0069344D01*
X0048659Y0067360D01*
X0046675Y0067360D01*
X0046675Y0069344D01*
X0046675Y0068209D02*
X0048659Y0068209D01*
X0048659Y0069058D02*
X0046675Y0069058D01*
M02*
