G75*
%MOIN*%
%OFA0B0*%
%FSLAX25Y25*%
%IPPOS*%
%LPD*%
%AMOC8*
5,1,8,0,0,1.08239X$1,22.5*
%
%ADD10R,0.07874X0.07874*%
%ADD11C,0.06358*%
%ADD12C,0.23000*%
%ADD13C,0.01600*%
%ADD14C,0.07400*%
%ADD15C,0.01181*%
%ADD16C,0.02362*%
%ADD17C,0.01969*%
%ADD18C,0.01200*%
%ADD19C,0.02400*%
D10*
X0064242Y0103598D03*
X0044557Y0125941D03*
X0044557Y0159701D03*
X0083927Y0159701D03*
X0123297Y0159701D03*
X0123297Y0137358D03*
X0123297Y0116098D03*
X0103612Y0103598D03*
X0142982Y0103598D03*
X0182352Y0103598D03*
X0162667Y0159701D03*
D11*
X0152825Y0159701D03*
X0134321Y0159701D03*
X0172510Y0159701D03*
X0190620Y0150547D03*
X0190620Y0131650D03*
X0190620Y0112752D03*
X0172510Y0103598D03*
X0152825Y0103598D03*
X0134321Y0103598D03*
D12*
X0047352Y0021335D03*
X0244203Y0021335D03*
X0244203Y0237870D03*
X0047352Y0237870D03*
D13*
X0140167Y0136650D02*
X0140167Y0135400D01*
X0137667Y0125400D02*
X0136417Y0125400D01*
X0105167Y0081650D02*
X0092667Y0081650D01*
X0090167Y0079150D01*
X0090167Y0071650D01*
X0081417Y0074150D02*
X0081417Y0060400D01*
X0083917Y0057900D01*
X0122667Y0057900D01*
X0126417Y0061650D01*
X0130167Y0065400D02*
X0130167Y0066150D01*
X0092667Y0081650D02*
X0055167Y0081650D01*
X0053917Y0080400D01*
X0077667Y0077900D02*
X0081417Y0074150D01*
X0170167Y0074150D02*
X0170167Y0077900D01*
X0264717Y0089850D02*
X0281117Y0089850D01*
X0281117Y0081450D01*
X0264717Y0081450D01*
X0264717Y0089850D01*
X0264717Y0083049D02*
X0281117Y0083049D01*
X0281117Y0084648D02*
X0264717Y0084648D01*
X0264717Y0086247D02*
X0281117Y0086247D01*
X0281117Y0087846D02*
X0264717Y0087846D01*
X0264717Y0089445D02*
X0281117Y0089445D01*
X0281117Y0121850D02*
X0264717Y0121850D01*
X0281117Y0121850D02*
X0281117Y0113450D01*
X0264717Y0113450D01*
X0264717Y0121850D01*
X0264717Y0115049D02*
X0281117Y0115049D01*
X0281117Y0116648D02*
X0264717Y0116648D01*
X0264717Y0118247D02*
X0281117Y0118247D01*
X0281117Y0119846D02*
X0264717Y0119846D01*
X0264717Y0121445D02*
X0281117Y0121445D01*
X0281117Y0149850D02*
X0264717Y0149850D01*
X0281117Y0149850D02*
X0281117Y0141450D01*
X0264717Y0141450D01*
X0264717Y0149850D01*
X0264717Y0143049D02*
X0281117Y0143049D01*
X0281117Y0144648D02*
X0264717Y0144648D01*
X0264717Y0146247D02*
X0281117Y0146247D01*
X0281117Y0147846D02*
X0264717Y0147846D01*
X0264717Y0149445D02*
X0281117Y0149445D01*
X0281117Y0181850D02*
X0264717Y0181850D01*
X0281117Y0181850D02*
X0281117Y0173450D01*
X0264717Y0173450D01*
X0264717Y0181850D01*
X0264717Y0175049D02*
X0281117Y0175049D01*
X0281117Y0176648D02*
X0264717Y0176648D01*
X0264717Y0178247D02*
X0281117Y0178247D01*
X0281117Y0179846D02*
X0264717Y0179846D01*
X0264717Y0181445D02*
X0281117Y0181445D01*
X0281117Y0209850D02*
X0264717Y0209850D01*
X0281117Y0209850D02*
X0281117Y0201450D01*
X0264717Y0201450D01*
X0264717Y0209850D01*
X0264717Y0203049D02*
X0281117Y0203049D01*
X0281117Y0204648D02*
X0264717Y0204648D01*
X0264717Y0206247D02*
X0281117Y0206247D01*
X0281117Y0207846D02*
X0264717Y0207846D01*
X0264717Y0209445D02*
X0281117Y0209445D01*
X0281117Y0241850D02*
X0264717Y0241850D01*
X0281117Y0241850D02*
X0281117Y0233450D01*
X0264717Y0233450D01*
X0264717Y0241850D01*
X0264717Y0235049D02*
X0281117Y0235049D01*
X0281117Y0236648D02*
X0264717Y0236648D01*
X0264717Y0238247D02*
X0281117Y0238247D01*
X0281117Y0239846D02*
X0264717Y0239846D01*
X0264717Y0241445D02*
X0281117Y0241445D01*
X0281117Y0061850D02*
X0264717Y0061850D01*
X0281117Y0061850D02*
X0281117Y0053450D01*
X0264717Y0053450D01*
X0264717Y0061850D01*
X0264717Y0055049D02*
X0281117Y0055049D01*
X0281117Y0056648D02*
X0264717Y0056648D01*
X0264717Y0058247D02*
X0281117Y0058247D01*
X0281117Y0059846D02*
X0264717Y0059846D01*
X0264717Y0061445D02*
X0281117Y0061445D01*
X0281117Y0029850D02*
X0264717Y0029850D01*
X0281117Y0029850D02*
X0281117Y0021450D01*
X0264717Y0021450D01*
X0264717Y0029850D01*
X0264717Y0023049D02*
X0281117Y0023049D01*
X0281117Y0024648D02*
X0264717Y0024648D01*
X0264717Y0026247D02*
X0281117Y0026247D01*
X0281117Y0027846D02*
X0264717Y0027846D01*
X0264717Y0029445D02*
X0281117Y0029445D01*
D14*
X0180167Y0067150D03*
X0170167Y0066150D03*
X0160167Y0067150D03*
X0150167Y0066150D03*
X0140167Y0067150D03*
X0130167Y0066150D03*
X0120167Y0067150D03*
X0110167Y0066150D03*
X0100167Y0067150D03*
X0090167Y0066150D03*
X0162167Y0185400D03*
X0163167Y0195400D03*
X0162167Y0205400D03*
X0163167Y0215400D03*
D15*
X0030030Y0255193D02*
X0030030Y0004012D01*
X0277679Y0004012D01*
X0277753Y0019059D01*
X0273508Y0019059D01*
X0273508Y0025059D01*
X0272327Y0025059D01*
X0272327Y0019059D01*
X0264482Y0019059D01*
X0264020Y0019151D01*
X0263585Y0019331D01*
X0263193Y0019593D01*
X0262860Y0019926D01*
X0262599Y0020317D01*
X0262419Y0020752D01*
X0262327Y0021214D01*
X0262327Y0025059D01*
X0272327Y0025059D01*
X0272327Y0026240D01*
X0272327Y0032240D01*
X0264482Y0032240D01*
X0264020Y0032148D01*
X0263585Y0031968D01*
X0263193Y0031706D01*
X0262860Y0031373D01*
X0262599Y0030982D01*
X0262419Y0030547D01*
X0262327Y0030085D01*
X0262327Y0026240D01*
X0272327Y0026240D01*
X0273508Y0026240D01*
X0273508Y0032240D01*
X0277817Y0032240D01*
X0277909Y0051059D01*
X0273508Y0051059D01*
X0273508Y0057059D01*
X0272327Y0057059D01*
X0272327Y0051059D01*
X0264482Y0051059D01*
X0264020Y0051151D01*
X0263585Y0051331D01*
X0263193Y0051593D01*
X0262860Y0051926D01*
X0262599Y0052317D01*
X0262419Y0052752D01*
X0262327Y0053214D01*
X0262327Y0057059D01*
X0272327Y0057059D01*
X0272327Y0058240D01*
X0272327Y0064240D01*
X0264482Y0064240D01*
X0264020Y0064148D01*
X0263585Y0063968D01*
X0263193Y0063706D01*
X0262860Y0063373D01*
X0262599Y0062982D01*
X0262419Y0062547D01*
X0262327Y0062085D01*
X0262327Y0058240D01*
X0272327Y0058240D01*
X0273508Y0058240D01*
X0273508Y0064240D01*
X0277974Y0064240D01*
X0278046Y0079059D01*
X0273508Y0079059D01*
X0273508Y0085059D01*
X0272327Y0085059D01*
X0272327Y0079059D01*
X0264482Y0079059D01*
X0264020Y0079151D01*
X0263585Y0079331D01*
X0263193Y0079593D01*
X0262860Y0079926D01*
X0262599Y0080317D01*
X0262419Y0080752D01*
X0262327Y0081214D01*
X0262327Y0085059D01*
X0272327Y0085059D01*
X0272327Y0086240D01*
X0272327Y0092240D01*
X0264482Y0092240D01*
X0264020Y0092148D01*
X0263585Y0091968D01*
X0263193Y0091706D01*
X0262860Y0091373D01*
X0262599Y0090982D01*
X0262419Y0090547D01*
X0262327Y0090085D01*
X0262327Y0086240D01*
X0272327Y0086240D01*
X0273508Y0086240D01*
X0273508Y0092240D01*
X0278111Y0092240D01*
X0278203Y0111059D01*
X0273508Y0111059D01*
X0273508Y0117059D01*
X0272327Y0117059D01*
X0272327Y0111059D01*
X0264482Y0111059D01*
X0264020Y0111151D01*
X0263585Y0111331D01*
X0263193Y0111593D01*
X0262860Y0111926D01*
X0262599Y0112317D01*
X0262419Y0112752D01*
X0262327Y0113214D01*
X0262327Y0117059D01*
X0272327Y0117059D01*
X0272327Y0118240D01*
X0272327Y0124240D01*
X0264482Y0124240D01*
X0264020Y0124148D01*
X0263585Y0123968D01*
X0263193Y0123706D01*
X0262860Y0123373D01*
X0262599Y0122982D01*
X0262419Y0122547D01*
X0262327Y0122085D01*
X0262327Y0118240D01*
X0272327Y0118240D01*
X0273508Y0118240D01*
X0273508Y0124240D01*
X0278268Y0124240D01*
X0278340Y0139059D01*
X0273508Y0139059D01*
X0273508Y0145059D01*
X0272327Y0145059D01*
X0272327Y0139059D01*
X0264482Y0139059D01*
X0264020Y0139151D01*
X0263585Y0139331D01*
X0263193Y0139593D01*
X0262860Y0139926D01*
X0262599Y0140317D01*
X0262419Y0140752D01*
X0262327Y0141214D01*
X0262327Y0145059D01*
X0272327Y0145059D01*
X0272327Y0146240D01*
X0272327Y0152240D01*
X0264482Y0152240D01*
X0264020Y0152148D01*
X0263585Y0151968D01*
X0263193Y0151706D01*
X0262860Y0151373D01*
X0262599Y0150982D01*
X0262419Y0150547D01*
X0262327Y0150085D01*
X0262327Y0146240D01*
X0272327Y0146240D01*
X0273508Y0146240D01*
X0273508Y0152240D01*
X0278405Y0152240D01*
X0278497Y0171059D01*
X0273508Y0171059D01*
X0273508Y0177059D01*
X0272327Y0177059D01*
X0272327Y0171059D01*
X0264482Y0171059D01*
X0264020Y0171151D01*
X0263585Y0171331D01*
X0263193Y0171593D01*
X0262860Y0171926D01*
X0262599Y0172317D01*
X0262419Y0172752D01*
X0262327Y0173214D01*
X0262327Y0177059D01*
X0272327Y0177059D01*
X0272327Y0178240D01*
X0272327Y0184240D01*
X0264482Y0184240D01*
X0264020Y0184148D01*
X0263585Y0183968D01*
X0263193Y0183706D01*
X0262860Y0183373D01*
X0262599Y0182982D01*
X0262419Y0182547D01*
X0262327Y0182085D01*
X0262327Y0178240D01*
X0272327Y0178240D01*
X0273508Y0178240D01*
X0273508Y0184240D01*
X0278561Y0184240D01*
X0278634Y0199059D01*
X0273508Y0199059D01*
X0273508Y0205059D01*
X0272327Y0205059D01*
X0272327Y0199059D01*
X0264482Y0199059D01*
X0264020Y0199151D01*
X0263585Y0199331D01*
X0263193Y0199593D01*
X0262860Y0199926D01*
X0262599Y0200317D01*
X0262419Y0200752D01*
X0262327Y0201214D01*
X0262327Y0205059D01*
X0272327Y0205059D01*
X0272327Y0206240D01*
X0272327Y0212240D01*
X0264482Y0212240D01*
X0264020Y0212148D01*
X0263585Y0211968D01*
X0263193Y0211706D01*
X0262860Y0211373D01*
X0262599Y0210982D01*
X0262419Y0210547D01*
X0262327Y0210085D01*
X0262327Y0206240D01*
X0272327Y0206240D01*
X0273508Y0206240D01*
X0273508Y0212240D01*
X0278698Y0212240D01*
X0278790Y0231059D01*
X0273508Y0231059D01*
X0273508Y0237059D01*
X0272327Y0237059D01*
X0272327Y0231059D01*
X0264482Y0231059D01*
X0264020Y0231151D01*
X0263585Y0231331D01*
X0263193Y0231593D01*
X0262860Y0231926D01*
X0262599Y0232317D01*
X0262419Y0232752D01*
X0262327Y0233214D01*
X0262327Y0237059D01*
X0272327Y0237059D01*
X0272327Y0238240D01*
X0272327Y0244240D01*
X0264482Y0244240D01*
X0264020Y0244148D01*
X0263585Y0243968D01*
X0263193Y0243706D01*
X0262860Y0243373D01*
X0262599Y0242982D01*
X0262419Y0242547D01*
X0262327Y0242085D01*
X0262327Y0238240D01*
X0272327Y0238240D01*
X0273508Y0238240D01*
X0273508Y0244240D01*
X0278855Y0244240D01*
X0278909Y0255193D01*
X0030030Y0255193D01*
X0030030Y0254087D02*
X0278903Y0254087D01*
X0278897Y0252907D02*
X0030030Y0252907D01*
X0030030Y0251728D02*
X0278892Y0251728D01*
X0278886Y0250548D02*
X0247504Y0250548D01*
X0247387Y0250584D02*
X0246126Y0250835D01*
X0244846Y0250961D01*
X0244793Y0250961D01*
X0244793Y0238461D01*
X0243612Y0238461D01*
X0243612Y0250961D01*
X0243560Y0250961D01*
X0242280Y0250835D01*
X0241018Y0250584D01*
X0239787Y0250210D01*
X0238599Y0249718D01*
X0237465Y0249112D01*
X0236395Y0248397D01*
X0235401Y0247581D01*
X0234492Y0246672D01*
X0233676Y0245678D01*
X0232961Y0244608D01*
X0232355Y0243474D01*
X0231863Y0242285D01*
X0231489Y0241055D01*
X0231238Y0239793D01*
X0231112Y0238513D01*
X0231112Y0238461D01*
X0243612Y0238461D01*
X0243612Y0237280D01*
X0231112Y0237280D01*
X0231112Y0237227D01*
X0231238Y0235947D01*
X0231489Y0234685D01*
X0231863Y0233455D01*
X0232355Y0232266D01*
X0232961Y0231132D01*
X0233676Y0230063D01*
X0234492Y0229068D01*
X0235401Y0228159D01*
X0236395Y0227343D01*
X0237465Y0226628D01*
X0238599Y0226022D01*
X0239787Y0225530D01*
X0241018Y0225157D01*
X0242280Y0224906D01*
X0243560Y0224780D01*
X0243612Y0224780D01*
X0243612Y0237279D01*
X0244793Y0237279D01*
X0244793Y0224780D01*
X0244846Y0224780D01*
X0246126Y0224906D01*
X0247387Y0225157D01*
X0248618Y0225530D01*
X0249806Y0226022D01*
X0250941Y0226628D01*
X0252010Y0227343D01*
X0253004Y0228159D01*
X0253914Y0229068D01*
X0254730Y0230063D01*
X0255444Y0231132D01*
X0256051Y0232266D01*
X0256543Y0233455D01*
X0256916Y0234685D01*
X0257167Y0235947D01*
X0257293Y0237227D01*
X0257293Y0237280D01*
X0244793Y0237280D01*
X0244793Y0238461D01*
X0257293Y0238461D01*
X0257293Y0238513D01*
X0257167Y0239793D01*
X0256916Y0241055D01*
X0256543Y0242285D01*
X0256051Y0243474D01*
X0255444Y0244608D01*
X0254730Y0245678D01*
X0253914Y0246672D01*
X0253004Y0247581D01*
X0252010Y0248397D01*
X0250941Y0249112D01*
X0249806Y0249718D01*
X0248618Y0250210D01*
X0247387Y0250584D01*
X0244793Y0250548D02*
X0243612Y0250548D01*
X0243612Y0249368D02*
X0244793Y0249368D01*
X0244793Y0248189D02*
X0243612Y0248189D01*
X0243612Y0247009D02*
X0244793Y0247009D01*
X0244793Y0245830D02*
X0243612Y0245830D01*
X0243612Y0244650D02*
X0244793Y0244650D01*
X0244793Y0243470D02*
X0243612Y0243470D01*
X0243612Y0242291D02*
X0244793Y0242291D01*
X0244793Y0241111D02*
X0243612Y0241111D01*
X0243612Y0239932D02*
X0244793Y0239932D01*
X0244793Y0238752D02*
X0243612Y0238752D01*
X0243612Y0237572D02*
X0094456Y0237572D01*
X0094540Y0237607D02*
X0096090Y0239157D01*
X0096929Y0241183D01*
X0096929Y0243376D01*
X0096090Y0245402D01*
X0094540Y0246952D01*
X0092514Y0247791D01*
X0090321Y0247791D01*
X0088295Y0246952D01*
X0086745Y0245402D01*
X0085906Y0243376D01*
X0085906Y0241183D01*
X0086745Y0239157D01*
X0088295Y0237607D01*
X0090321Y0236768D01*
X0092514Y0236768D01*
X0094540Y0237607D01*
X0095685Y0238752D02*
X0231136Y0238752D01*
X0231266Y0239932D02*
X0096411Y0239932D01*
X0096899Y0241111D02*
X0231506Y0241111D01*
X0231865Y0242291D02*
X0096929Y0242291D01*
X0096890Y0243470D02*
X0232353Y0243470D01*
X0232989Y0244650D02*
X0096401Y0244650D01*
X0095662Y0245830D02*
X0233800Y0245830D01*
X0234829Y0247009D02*
X0094402Y0247009D01*
X0088433Y0247009D02*
X0056726Y0247009D01*
X0057064Y0246672D02*
X0056154Y0247581D01*
X0055160Y0248397D01*
X0054090Y0249112D01*
X0052956Y0249718D01*
X0051768Y0250210D01*
X0050537Y0250584D01*
X0049275Y0250835D01*
X0047995Y0250961D01*
X0047943Y0250961D01*
X0047943Y0238461D01*
X0046762Y0238461D01*
X0046762Y0250961D01*
X0046709Y0250961D01*
X0045429Y0250835D01*
X0044168Y0250584D01*
X0042937Y0250210D01*
X0041749Y0249718D01*
X0040614Y0249112D01*
X0039545Y0248397D01*
X0038551Y0247581D01*
X0037641Y0246672D01*
X0036825Y0245678D01*
X0036111Y0244608D01*
X0035504Y0243474D01*
X0035012Y0242285D01*
X0034639Y0241055D01*
X0034388Y0239793D01*
X0034262Y0238513D01*
X0034262Y0238461D01*
X0046762Y0238461D01*
X0046762Y0237280D01*
X0034262Y0237280D01*
X0034262Y0237227D01*
X0034388Y0235947D01*
X0034639Y0234685D01*
X0035012Y0233455D01*
X0035504Y0232266D01*
X0036111Y0231132D01*
X0036825Y0230063D01*
X0037641Y0229068D01*
X0038551Y0228159D01*
X0039545Y0227343D01*
X0040614Y0226628D01*
X0041749Y0226022D01*
X0042937Y0225530D01*
X0044168Y0225157D01*
X0045429Y0224906D01*
X0046709Y0224780D01*
X0046762Y0224780D01*
X0046762Y0237279D01*
X0047943Y0237279D01*
X0047943Y0224780D01*
X0047995Y0224780D01*
X0049275Y0224906D01*
X0050537Y0225157D01*
X0051768Y0225530D01*
X0052956Y0226022D01*
X0054090Y0226628D01*
X0055160Y0227343D01*
X0056154Y0228159D01*
X0057064Y0229068D01*
X0057879Y0230063D01*
X0058594Y0231132D01*
X0059200Y0232266D01*
X0059693Y0233455D01*
X0060066Y0234685D01*
X0060317Y0235947D01*
X0060443Y0237227D01*
X0060443Y0237280D01*
X0047943Y0237280D01*
X0047943Y0238461D01*
X0060443Y0238461D01*
X0060443Y0238513D01*
X0060317Y0239793D01*
X0060066Y0241055D01*
X0059693Y0242285D01*
X0059200Y0243474D01*
X0058594Y0244608D01*
X0057879Y0245678D01*
X0057064Y0246672D01*
X0057755Y0245830D02*
X0087173Y0245830D01*
X0086433Y0244650D02*
X0058566Y0244650D01*
X0059202Y0243470D02*
X0085945Y0243470D01*
X0085906Y0242291D02*
X0059690Y0242291D01*
X0060049Y0241111D02*
X0085935Y0241111D01*
X0086424Y0239932D02*
X0060289Y0239932D01*
X0060419Y0238752D02*
X0087150Y0238752D01*
X0088378Y0237572D02*
X0047943Y0237572D01*
X0047943Y0236393D02*
X0046762Y0236393D01*
X0046762Y0237572D02*
X0030030Y0237572D01*
X0030030Y0236393D02*
X0034344Y0236393D01*
X0034534Y0235213D02*
X0030030Y0235213D01*
X0030030Y0234034D02*
X0034837Y0234034D01*
X0035261Y0232854D02*
X0030030Y0232854D01*
X0030030Y0231674D02*
X0035821Y0231674D01*
X0036537Y0230495D02*
X0030030Y0230495D01*
X0030030Y0229315D02*
X0037439Y0229315D01*
X0038579Y0228135D02*
X0030030Y0228135D01*
X0030030Y0226956D02*
X0040124Y0226956D01*
X0042342Y0225776D02*
X0030030Y0225776D01*
X0030030Y0224597D02*
X0085512Y0224597D01*
X0085512Y0225738D02*
X0085512Y0223388D01*
X0086411Y0221218D01*
X0088072Y0219557D01*
X0090243Y0218657D01*
X0092592Y0218657D01*
X0094763Y0219557D01*
X0096424Y0221218D01*
X0097323Y0223388D01*
X0097323Y0225738D01*
X0096424Y0227908D01*
X0094763Y0229569D01*
X0092592Y0230468D01*
X0090243Y0230468D01*
X0088072Y0229569D01*
X0086411Y0227908D01*
X0085512Y0225738D01*
X0085528Y0225776D02*
X0052362Y0225776D01*
X0054580Y0226956D02*
X0086016Y0226956D01*
X0086638Y0228135D02*
X0056125Y0228135D01*
X0057266Y0229315D02*
X0087818Y0229315D01*
X0085512Y0223417D02*
X0030030Y0223417D01*
X0030030Y0222237D02*
X0085989Y0222237D01*
X0086571Y0221058D02*
X0030030Y0221058D01*
X0030030Y0219878D02*
X0087751Y0219878D01*
X0090144Y0218699D02*
X0030030Y0218699D01*
X0030030Y0217519D02*
X0157270Y0217519D01*
X0156908Y0216645D02*
X0157861Y0218945D01*
X0159622Y0220706D01*
X0161922Y0221659D01*
X0164412Y0221659D01*
X0166713Y0220706D01*
X0168473Y0218945D01*
X0169426Y0216645D01*
X0169426Y0214155D01*
X0168473Y0211854D01*
X0166713Y0210093D01*
X0165436Y0209564D01*
X0165614Y0209435D01*
X0166203Y0208846D01*
X0166692Y0208172D01*
X0167070Y0207430D01*
X0167328Y0206638D01*
X0167458Y0205816D01*
X0167458Y0205809D01*
X0162577Y0205809D01*
X0162577Y0204990D01*
X0167458Y0204990D01*
X0167458Y0204983D01*
X0167328Y0204161D01*
X0167070Y0203369D01*
X0166692Y0202627D01*
X0166203Y0201953D01*
X0165614Y0201364D01*
X0165436Y0201235D01*
X0166713Y0200706D01*
X0168473Y0198945D01*
X0169426Y0196645D01*
X0169426Y0194155D01*
X0168473Y0191854D01*
X0166713Y0190093D01*
X0165436Y0189564D01*
X0165614Y0189435D01*
X0166203Y0188846D01*
X0166692Y0188172D01*
X0167070Y0187430D01*
X0167328Y0186638D01*
X0167458Y0185816D01*
X0167458Y0185809D01*
X0162577Y0185809D01*
X0162577Y0184990D01*
X0167458Y0184990D01*
X0167458Y0184983D01*
X0167328Y0184161D01*
X0167070Y0183369D01*
X0166692Y0182627D01*
X0166203Y0181953D01*
X0165614Y0181364D01*
X0164940Y0180875D01*
X0164198Y0180497D01*
X0163406Y0180239D01*
X0162584Y0180109D01*
X0162577Y0180109D01*
X0162577Y0184990D01*
X0161758Y0184990D01*
X0161758Y0180109D01*
X0161751Y0180109D01*
X0160928Y0180239D01*
X0160136Y0180497D01*
X0159394Y0180875D01*
X0158721Y0181364D01*
X0158132Y0181953D01*
X0157642Y0182627D01*
X0157264Y0183369D01*
X0157007Y0184161D01*
X0156877Y0184983D01*
X0156877Y0184990D01*
X0161758Y0184990D01*
X0161758Y0185809D01*
X0156877Y0185809D01*
X0156877Y0185816D01*
X0157007Y0186638D01*
X0157264Y0187430D01*
X0157642Y0188172D01*
X0158132Y0188846D01*
X0158721Y0189435D01*
X0159394Y0189924D01*
X0159679Y0190070D01*
X0159622Y0190093D01*
X0157861Y0191854D01*
X0156908Y0194155D01*
X0156908Y0196645D01*
X0157861Y0198945D01*
X0159622Y0200706D01*
X0159679Y0200730D01*
X0159394Y0200875D01*
X0158721Y0201364D01*
X0158132Y0201953D01*
X0157642Y0202627D01*
X0157264Y0203369D01*
X0157007Y0204161D01*
X0156877Y0204983D01*
X0156877Y0204990D01*
X0161758Y0204990D01*
X0161758Y0205809D01*
X0156877Y0205809D01*
X0156877Y0205816D01*
X0157007Y0206638D01*
X0157264Y0207430D01*
X0157642Y0208172D01*
X0158132Y0208846D01*
X0158721Y0209435D01*
X0159394Y0209924D01*
X0159679Y0210070D01*
X0159622Y0210093D01*
X0157861Y0211854D01*
X0156908Y0214155D01*
X0156908Y0216645D01*
X0156908Y0216339D02*
X0030030Y0216339D01*
X0030030Y0215160D02*
X0156908Y0215160D01*
X0156981Y0213980D02*
X0030030Y0213980D01*
X0030030Y0212800D02*
X0157469Y0212800D01*
X0158094Y0211621D02*
X0030030Y0211621D01*
X0030030Y0210441D02*
X0159274Y0210441D01*
X0158547Y0209262D02*
X0030030Y0209262D01*
X0030030Y0208082D02*
X0157596Y0208082D01*
X0157093Y0206902D02*
X0030030Y0206902D01*
X0030030Y0205723D02*
X0161758Y0205723D01*
X0162577Y0205723D02*
X0272327Y0205723D01*
X0272327Y0206902D02*
X0273508Y0206902D01*
X0273508Y0208082D02*
X0272327Y0208082D01*
X0272327Y0209262D02*
X0273508Y0209262D01*
X0273508Y0210441D02*
X0272327Y0210441D01*
X0272327Y0211621D02*
X0273508Y0211621D01*
X0278701Y0212800D02*
X0185556Y0212800D01*
X0185838Y0212518D02*
X0184832Y0213525D01*
X0185792Y0214485D01*
X0186799Y0213479D01*
X0188173Y0212909D01*
X0189661Y0212909D01*
X0191036Y0213479D01*
X0192088Y0214531D01*
X0192657Y0215906D01*
X0192657Y0217394D01*
X0192088Y0218768D01*
X0191036Y0219820D01*
X0189661Y0220390D01*
X0188173Y0220390D01*
X0186799Y0219820D01*
X0185792Y0218814D01*
X0184786Y0219820D01*
X0183411Y0220390D01*
X0181923Y0220390D01*
X0180549Y0219820D01*
X0179542Y0218814D01*
X0178536Y0219820D01*
X0177161Y0220390D01*
X0175673Y0220390D01*
X0174299Y0219820D01*
X0173247Y0218768D01*
X0172677Y0217394D01*
X0172677Y0215906D01*
X0173247Y0214531D01*
X0174299Y0213479D01*
X0175673Y0212909D01*
X0177161Y0212909D01*
X0178536Y0213479D01*
X0179542Y0214485D01*
X0180503Y0213525D01*
X0179497Y0212518D01*
X0178927Y0211144D01*
X0178927Y0209656D01*
X0179497Y0208281D01*
X0180549Y0207229D01*
X0181923Y0206659D01*
X0183411Y0206659D01*
X0184786Y0207229D01*
X0185838Y0208281D01*
X0186407Y0209656D01*
X0186407Y0211144D01*
X0185838Y0212518D01*
X0186210Y0211621D02*
X0263108Y0211621D01*
X0262398Y0210441D02*
X0186407Y0210441D01*
X0186244Y0209262D02*
X0262327Y0209262D01*
X0262327Y0208082D02*
X0185639Y0208082D01*
X0183998Y0206902D02*
X0262327Y0206902D01*
X0262327Y0204543D02*
X0167388Y0204543D01*
X0167068Y0203364D02*
X0262327Y0203364D01*
X0262327Y0202184D02*
X0166370Y0202184D01*
X0165992Y0201004D02*
X0262369Y0201004D01*
X0262961Y0199825D02*
X0167594Y0199825D01*
X0168598Y0198645D02*
X0278632Y0198645D01*
X0278626Y0197465D02*
X0169086Y0197465D01*
X0169426Y0196286D02*
X0278620Y0196286D01*
X0278614Y0195106D02*
X0169426Y0195106D01*
X0169332Y0193927D02*
X0278609Y0193927D01*
X0278603Y0192747D02*
X0168843Y0192747D01*
X0168187Y0191567D02*
X0278597Y0191567D01*
X0278591Y0190388D02*
X0167007Y0190388D01*
X0165841Y0189208D02*
X0278586Y0189208D01*
X0278580Y0188029D02*
X0166766Y0188029D01*
X0167259Y0186849D02*
X0278574Y0186849D01*
X0278568Y0185669D02*
X0162577Y0185669D01*
X0161758Y0185669D02*
X0030030Y0185669D01*
X0030030Y0184490D02*
X0156955Y0184490D01*
X0157294Y0183310D02*
X0030030Y0183310D01*
X0030030Y0182130D02*
X0158003Y0182130D01*
X0159290Y0180951D02*
X0030030Y0180951D01*
X0030030Y0179771D02*
X0262327Y0179771D01*
X0262327Y0178592D02*
X0030030Y0178592D01*
X0030030Y0177412D02*
X0272327Y0177412D01*
X0272327Y0176232D02*
X0273508Y0176232D01*
X0273508Y0175053D02*
X0272327Y0175053D01*
X0272327Y0173873D02*
X0273508Y0173873D01*
X0273508Y0172694D02*
X0272327Y0172694D01*
X0272327Y0171514D02*
X0273508Y0171514D01*
X0278493Y0170334D02*
X0182461Y0170334D01*
X0182461Y0170430D02*
X0182657Y0170906D01*
X0182657Y0172394D01*
X0182088Y0173768D01*
X0181036Y0174820D01*
X0179661Y0175390D01*
X0178173Y0175390D01*
X0176799Y0174820D01*
X0175747Y0173768D01*
X0175177Y0172394D01*
X0175177Y0170906D01*
X0175374Y0170430D01*
X0175374Y0163515D01*
X0175010Y0163780D01*
X0174341Y0164121D01*
X0173627Y0164353D01*
X0172885Y0164470D01*
X0172854Y0164470D01*
X0172854Y0160045D01*
X0172165Y0160045D01*
X0172165Y0159356D01*
X0167740Y0159356D01*
X0163012Y0159356D01*
X0163012Y0160045D01*
X0172165Y0160045D01*
X0172165Y0164470D01*
X0172134Y0164470D01*
X0171393Y0164353D01*
X0170679Y0164121D01*
X0170010Y0163780D01*
X0169403Y0163339D01*
X0168872Y0162808D01*
X0168430Y0162201D01*
X0168195Y0161738D01*
X0168195Y0163847D01*
X0168086Y0164252D01*
X0167877Y0164614D01*
X0167581Y0164911D01*
X0167218Y0165120D01*
X0166814Y0165228D01*
X0163012Y0165228D01*
X0163012Y0160045D01*
X0162323Y0160045D01*
X0162323Y0159356D01*
X0153169Y0159356D01*
X0153169Y0154931D01*
X0153200Y0154931D01*
X0153942Y0155049D01*
X0154656Y0155281D01*
X0155325Y0155621D01*
X0155932Y0156063D01*
X0156463Y0156594D01*
X0156904Y0157201D01*
X0157140Y0157663D01*
X0157140Y0155554D01*
X0157248Y0155150D01*
X0157458Y0154787D01*
X0157754Y0154491D01*
X0158116Y0154282D01*
X0158521Y0154173D01*
X0162181Y0154173D01*
X0161621Y0153614D01*
X0160797Y0151624D01*
X0160797Y0149470D01*
X0161621Y0147481D01*
X0163144Y0145958D01*
X0165134Y0145134D01*
X0167287Y0145134D01*
X0169124Y0145895D01*
X0169124Y0137869D01*
X0168927Y0137394D01*
X0168927Y0135906D01*
X0169497Y0134531D01*
X0170549Y0133479D01*
X0171923Y0132909D01*
X0173411Y0132909D01*
X0174786Y0133479D01*
X0175838Y0134531D01*
X0176407Y0135906D01*
X0176407Y0137394D01*
X0176211Y0137869D01*
X0176211Y0145182D01*
X0180924Y0149896D01*
X0181921Y0150892D01*
X0182461Y0152195D01*
X0182461Y0170430D01*
X0182657Y0171514D02*
X0263311Y0171514D01*
X0262443Y0172694D02*
X0182533Y0172694D01*
X0181983Y0173873D02*
X0262327Y0173873D01*
X0262327Y0175053D02*
X0180475Y0175053D01*
X0177360Y0175053D02*
X0030030Y0175053D01*
X0030030Y0176232D02*
X0262327Y0176232D01*
X0262327Y0180951D02*
X0165045Y0180951D01*
X0166332Y0182130D02*
X0262336Y0182130D01*
X0262818Y0183310D02*
X0167040Y0183310D01*
X0167380Y0184490D02*
X0278563Y0184490D01*
X0273508Y0183310D02*
X0272327Y0183310D01*
X0272327Y0182130D02*
X0273508Y0182130D01*
X0273508Y0180951D02*
X0272327Y0180951D01*
X0272327Y0179771D02*
X0273508Y0179771D01*
X0273508Y0178592D02*
X0272327Y0178592D01*
X0278487Y0169155D02*
X0182461Y0169155D01*
X0182461Y0167975D02*
X0278482Y0167975D01*
X0278476Y0166796D02*
X0182461Y0166796D01*
X0182461Y0165616D02*
X0278470Y0165616D01*
X0278464Y0164436D02*
X0182461Y0164436D01*
X0182461Y0163257D02*
X0278459Y0163257D01*
X0278453Y0162077D02*
X0182461Y0162077D01*
X0182461Y0160897D02*
X0278447Y0160897D01*
X0278441Y0159718D02*
X0182461Y0159718D01*
X0182461Y0158538D02*
X0278435Y0158538D01*
X0278430Y0157359D02*
X0182461Y0157359D01*
X0182461Y0156179D02*
X0278424Y0156179D01*
X0278418Y0154999D02*
X0192353Y0154999D01*
X0192451Y0154967D02*
X0191737Y0155199D01*
X0190995Y0155317D01*
X0190965Y0155317D01*
X0190965Y0150892D01*
X0195390Y0150892D01*
X0195390Y0150923D01*
X0195272Y0151664D01*
X0195040Y0152378D01*
X0194699Y0153047D01*
X0194258Y0153654D01*
X0193727Y0154185D01*
X0193120Y0154627D01*
X0192451Y0154967D01*
X0190965Y0154999D02*
X0190276Y0154999D01*
X0190276Y0155317D02*
X0190245Y0155317D01*
X0189503Y0155199D01*
X0188789Y0154967D01*
X0188120Y0154627D01*
X0187513Y0154185D01*
X0186982Y0153654D01*
X0186541Y0153047D01*
X0186200Y0152378D01*
X0185968Y0151664D01*
X0185850Y0150923D01*
X0185850Y0150892D01*
X0190276Y0150892D01*
X0190276Y0155317D01*
X0188887Y0154999D02*
X0182461Y0154999D01*
X0182461Y0153820D02*
X0187147Y0153820D01*
X0186333Y0152640D02*
X0182461Y0152640D01*
X0182156Y0151461D02*
X0185936Y0151461D01*
X0185850Y0150203D02*
X0185850Y0150172D01*
X0185968Y0149430D01*
X0186200Y0148716D01*
X0186541Y0148047D01*
X0186982Y0147440D01*
X0187513Y0146909D01*
X0188120Y0146468D01*
X0188789Y0146127D01*
X0189503Y0145895D01*
X0190245Y0145778D01*
X0190276Y0145778D01*
X0190276Y0150203D01*
X0190965Y0150203D01*
X0190965Y0150892D01*
X0190276Y0150892D01*
X0190276Y0150203D01*
X0185850Y0150203D01*
X0186075Y0149101D02*
X0180130Y0149101D01*
X0178950Y0147922D02*
X0186632Y0147922D01*
X0187743Y0146742D02*
X0177771Y0146742D01*
X0176591Y0145562D02*
X0272327Y0145562D01*
X0272327Y0144383D02*
X0273508Y0144383D01*
X0273508Y0143203D02*
X0272327Y0143203D01*
X0272327Y0142024D02*
X0273508Y0142024D01*
X0273508Y0140844D02*
X0272327Y0140844D01*
X0272327Y0139664D02*
X0273508Y0139664D01*
X0278337Y0138485D02*
X0230922Y0138485D01*
X0230838Y0138281D02*
X0231407Y0139656D01*
X0231407Y0141144D01*
X0230838Y0142518D01*
X0229786Y0143570D01*
X0228411Y0144140D01*
X0226923Y0144140D01*
X0225549Y0143570D01*
X0224497Y0142518D01*
X0223927Y0141144D01*
X0223927Y0139656D01*
X0224497Y0138281D01*
X0225549Y0137229D01*
X0226923Y0136659D01*
X0228411Y0136659D01*
X0229786Y0137229D01*
X0230838Y0138281D01*
X0229862Y0137305D02*
X0278331Y0137305D01*
X0278326Y0136126D02*
X0192279Y0136126D01*
X0192451Y0136070D02*
X0191737Y0136302D01*
X0190995Y0136419D01*
X0190965Y0136419D01*
X0190965Y0131994D01*
X0190276Y0131994D01*
X0190276Y0136419D01*
X0190245Y0136419D01*
X0189503Y0136302D01*
X0188789Y0136070D01*
X0188120Y0135729D01*
X0187513Y0135288D01*
X0186982Y0134757D01*
X0186541Y0134149D01*
X0186200Y0133481D01*
X0185968Y0132767D01*
X0185850Y0132025D01*
X0185850Y0131994D01*
X0190276Y0131994D01*
X0190276Y0131305D01*
X0185850Y0131305D01*
X0185850Y0131274D01*
X0185968Y0130533D01*
X0186200Y0129819D01*
X0186541Y0129150D01*
X0186982Y0128542D01*
X0187513Y0128011D01*
X0187951Y0127693D01*
X0177885Y0127693D01*
X0176035Y0129543D01*
X0175838Y0130018D01*
X0174786Y0131070D01*
X0173411Y0131640D01*
X0171923Y0131640D01*
X0170549Y0131070D01*
X0169497Y0130018D01*
X0168927Y0128644D01*
X0168927Y0127156D01*
X0169497Y0125781D01*
X0170549Y0124729D01*
X0171024Y0124532D01*
X0173413Y0122142D01*
X0174410Y0121146D01*
X0175712Y0120606D01*
X0191281Y0120606D01*
X0191848Y0120563D01*
X0191982Y0120606D01*
X0192122Y0120606D01*
X0192648Y0120824D01*
X0193188Y0121001D01*
X0193295Y0121092D01*
X0193424Y0121146D01*
X0193827Y0121548D01*
X0201564Y0128180D01*
X0202286Y0128479D01*
X0203338Y0129531D01*
X0203907Y0130906D01*
X0203907Y0132394D01*
X0203338Y0133768D01*
X0202286Y0134820D01*
X0200911Y0135390D01*
X0199423Y0135390D01*
X0198049Y0134820D01*
X0196997Y0133768D01*
X0196888Y0133505D01*
X0195362Y0132198D01*
X0195272Y0132767D01*
X0195040Y0133481D01*
X0194699Y0134149D01*
X0194258Y0134757D01*
X0193727Y0135288D01*
X0193120Y0135729D01*
X0192451Y0136070D01*
X0190965Y0136126D02*
X0190276Y0136126D01*
X0190276Y0134946D02*
X0190965Y0134946D01*
X0190965Y0133766D02*
X0190276Y0133766D01*
X0190276Y0132587D02*
X0190965Y0132587D01*
X0190276Y0131407D02*
X0173973Y0131407D01*
X0175629Y0130227D02*
X0186067Y0130227D01*
X0186615Y0129048D02*
X0176530Y0129048D01*
X0177710Y0127868D02*
X0187710Y0127868D01*
X0185939Y0132587D02*
X0166056Y0132587D01*
X0166068Y0132574D02*
X0162923Y0135719D01*
X0162923Y0135948D01*
X0162504Y0136961D01*
X0161728Y0137736D01*
X0160716Y0138155D01*
X0159619Y0138155D01*
X0158606Y0137736D01*
X0157831Y0136961D01*
X0157411Y0135948D01*
X0157411Y0134851D01*
X0157709Y0134132D01*
X0157356Y0133986D01*
X0156581Y0133211D01*
X0156161Y0132198D01*
X0156161Y0131101D01*
X0156581Y0130089D01*
X0157356Y0129313D01*
X0158369Y0128894D01*
X0158598Y0128894D01*
X0159243Y0128249D01*
X0159243Y0117550D01*
X0157993Y0116300D01*
X0157993Y0109400D01*
X0153592Y0113800D01*
X0153592Y0121300D01*
X0144173Y0130719D01*
X0144173Y0130948D01*
X0143754Y0131961D01*
X0142978Y0132736D01*
X0141966Y0133155D01*
X0141282Y0133155D01*
X0142542Y0134416D01*
X0142542Y0135181D01*
X0142923Y0136101D01*
X0142923Y0137198D01*
X0142504Y0138211D01*
X0141728Y0138986D01*
X0141333Y0139150D01*
X0141728Y0139313D01*
X0142504Y0140089D01*
X0142923Y0141101D01*
X0142923Y0142198D01*
X0142504Y0143211D01*
X0141728Y0143986D01*
X0140716Y0144405D01*
X0139619Y0144405D01*
X0138606Y0143986D01*
X0137831Y0143211D01*
X0137411Y0142198D01*
X0137411Y0141969D01*
X0128825Y0133383D01*
X0128825Y0136915D01*
X0123740Y0136915D01*
X0123740Y0131831D01*
X0127273Y0131831D01*
X0126766Y0131324D01*
X0115516Y0131324D01*
X0114243Y0130050D01*
X0111766Y0127574D01*
X0110493Y0126300D01*
X0110493Y0100050D01*
X0102993Y0092550D01*
X0102993Y0084024D01*
X0054184Y0084024D01*
X0053276Y0083117D01*
X0052356Y0082736D01*
X0051581Y0081961D01*
X0051161Y0080948D01*
X0051161Y0079851D01*
X0051581Y0078839D01*
X0052356Y0078063D01*
X0053369Y0077644D01*
X0054466Y0077644D01*
X0055478Y0078063D01*
X0056254Y0078839D01*
X0056434Y0079275D01*
X0075254Y0079275D01*
X0074911Y0078448D01*
X0074911Y0077351D01*
X0075331Y0076339D01*
X0076106Y0075563D01*
X0077026Y0075182D01*
X0079043Y0073166D01*
X0079043Y0059416D01*
X0081543Y0056916D01*
X0082934Y0055525D01*
X0123651Y0055525D01*
X0127023Y0058897D01*
X0127989Y0059297D01*
X0129567Y0060875D01*
X0131217Y0060875D01*
X0133155Y0061678D01*
X0134639Y0063162D01*
X0135367Y0064918D01*
X0135642Y0064377D01*
X0136132Y0063703D01*
X0136721Y0063114D01*
X0137394Y0062625D01*
X0138136Y0062247D01*
X0138928Y0061989D01*
X0139751Y0061859D01*
X0139758Y0061859D01*
X0139758Y0066740D01*
X0140577Y0066740D01*
X0140577Y0061859D01*
X0140584Y0061859D01*
X0141406Y0061989D01*
X0142198Y0062247D01*
X0142940Y0062625D01*
X0143614Y0063114D01*
X0144203Y0063703D01*
X0144692Y0064377D01*
X0144968Y0064918D01*
X0145696Y0063162D01*
X0147179Y0061678D01*
X0149118Y0060875D01*
X0151217Y0060875D01*
X0153155Y0061678D01*
X0154639Y0063162D01*
X0155374Y0064937D01*
X0155696Y0064162D01*
X0157179Y0062678D01*
X0159118Y0061875D01*
X0161217Y0061875D01*
X0163155Y0062678D01*
X0164639Y0064162D01*
X0164960Y0064937D01*
X0165696Y0063162D01*
X0167179Y0061678D01*
X0169118Y0060875D01*
X0171217Y0060875D01*
X0173155Y0061678D01*
X0174639Y0063162D01*
X0174842Y0063651D01*
X0174861Y0063604D01*
X0176622Y0061843D01*
X0178922Y0060891D01*
X0181412Y0060891D01*
X0183713Y0061843D01*
X0185473Y0063604D01*
X0186426Y0065905D01*
X0186426Y0068395D01*
X0185473Y0070695D01*
X0183713Y0072456D01*
X0181412Y0073409D01*
X0178922Y0073409D01*
X0176622Y0072456D01*
X0174861Y0070695D01*
X0174340Y0069437D01*
X0173155Y0070621D01*
X0172942Y0070710D01*
X0172942Y0074702D01*
X0172542Y0075667D01*
X0172542Y0078883D01*
X0171151Y0080274D01*
X0170868Y0080274D01*
X0168592Y0082550D01*
X0168592Y0100876D01*
X0168872Y0100491D01*
X0169403Y0099960D01*
X0170010Y0099519D01*
X0170679Y0099178D01*
X0171393Y0098946D01*
X0172134Y0098829D01*
X0172165Y0098829D01*
X0172165Y0103254D01*
X0172854Y0103254D01*
X0172854Y0098829D01*
X0172885Y0098829D01*
X0173627Y0098946D01*
X0174341Y0099178D01*
X0175010Y0099519D01*
X0175617Y0099960D01*
X0176148Y0100491D01*
X0176589Y0101099D01*
X0176825Y0101561D01*
X0176825Y0099452D01*
X0176933Y0099047D01*
X0177143Y0098685D01*
X0177439Y0098389D01*
X0177801Y0098179D01*
X0178206Y0098071D01*
X0181909Y0098071D01*
X0181909Y0103155D01*
X0182795Y0103155D01*
X0182795Y0098071D01*
X0186499Y0098071D01*
X0186903Y0098179D01*
X0187266Y0098389D01*
X0187562Y0098685D01*
X0187772Y0099047D01*
X0187880Y0099452D01*
X0187880Y0103155D01*
X0182795Y0103155D01*
X0182795Y0104041D01*
X0187880Y0104041D01*
X0187880Y0107745D01*
X0187772Y0108149D01*
X0187562Y0108512D01*
X0187266Y0108808D01*
X0186903Y0109018D01*
X0186499Y0109126D01*
X0182795Y0109126D01*
X0182795Y0104041D01*
X0181909Y0104041D01*
X0181909Y0103155D01*
X0177269Y0103155D01*
X0177280Y0103223D01*
X0177280Y0103254D01*
X0172854Y0103254D01*
X0172854Y0103943D01*
X0177280Y0103943D01*
X0177280Y0103974D01*
X0177269Y0104041D01*
X0181909Y0104041D01*
X0181909Y0109126D01*
X0178206Y0109126D01*
X0177801Y0109018D01*
X0177439Y0108808D01*
X0177143Y0108512D01*
X0176933Y0108149D01*
X0176825Y0107745D01*
X0176825Y0105636D01*
X0176589Y0106098D01*
X0176148Y0106706D01*
X0175617Y0107237D01*
X0175010Y0107678D01*
X0174341Y0108019D01*
X0173627Y0108251D01*
X0172954Y0108357D01*
X0173502Y0108850D01*
X0173568Y0108850D01*
X0174165Y0109446D01*
X0174792Y0110011D01*
X0174795Y0110077D01*
X0174842Y0110124D01*
X0174842Y0110967D01*
X0174886Y0111810D01*
X0174842Y0111859D01*
X0174842Y0116300D01*
X0173568Y0117574D01*
X0167342Y0123800D01*
X0167342Y0131300D01*
X0166068Y0132574D01*
X0167235Y0131407D02*
X0171362Y0131407D01*
X0169706Y0130227D02*
X0167342Y0130227D01*
X0167342Y0129048D02*
X0169095Y0129048D01*
X0168927Y0127868D02*
X0167342Y0127868D01*
X0167342Y0126689D02*
X0169121Y0126689D01*
X0169768Y0125509D02*
X0167342Y0125509D01*
X0167342Y0124329D02*
X0171227Y0124329D01*
X0172406Y0123150D02*
X0167993Y0123150D01*
X0169172Y0121970D02*
X0173586Y0121970D01*
X0175268Y0120791D02*
X0170352Y0120791D01*
X0171532Y0119611D02*
X0262327Y0119611D01*
X0262327Y0120791D02*
X0192567Y0120791D01*
X0194319Y0121970D02*
X0262327Y0121970D01*
X0262711Y0123150D02*
X0195695Y0123150D01*
X0197072Y0124329D02*
X0278268Y0124329D01*
X0278274Y0125509D02*
X0198448Y0125509D01*
X0199824Y0126689D02*
X0278280Y0126689D01*
X0278285Y0127868D02*
X0201200Y0127868D01*
X0202855Y0129048D02*
X0278291Y0129048D01*
X0278297Y0130227D02*
X0203627Y0130227D01*
X0203907Y0131407D02*
X0278303Y0131407D01*
X0278308Y0132587D02*
X0203827Y0132587D01*
X0203339Y0133766D02*
X0278314Y0133766D01*
X0278320Y0134946D02*
X0201983Y0134946D01*
X0198352Y0134946D02*
X0194069Y0134946D01*
X0194895Y0133766D02*
X0196996Y0133766D01*
X0195816Y0132587D02*
X0195301Y0132587D01*
X0188961Y0136126D02*
X0176407Y0136126D01*
X0176407Y0137305D02*
X0225472Y0137305D01*
X0224412Y0138485D02*
X0176211Y0138485D01*
X0176211Y0139664D02*
X0223927Y0139664D01*
X0223927Y0140844D02*
X0176211Y0140844D01*
X0176211Y0142024D02*
X0224292Y0142024D01*
X0225182Y0143203D02*
X0176211Y0143203D01*
X0176211Y0144383D02*
X0262327Y0144383D01*
X0262327Y0143203D02*
X0230153Y0143203D01*
X0231043Y0142024D02*
X0262327Y0142024D01*
X0262400Y0140844D02*
X0231407Y0140844D01*
X0231407Y0139664D02*
X0263122Y0139664D01*
X0262327Y0146742D02*
X0193497Y0146742D01*
X0193727Y0146909D02*
X0194258Y0147440D01*
X0194699Y0148047D01*
X0195040Y0148716D01*
X0195272Y0149430D01*
X0195390Y0150172D01*
X0195390Y0150203D01*
X0190965Y0150203D01*
X0190965Y0145778D01*
X0190995Y0145778D01*
X0191737Y0145895D01*
X0192451Y0146127D01*
X0193120Y0146468D01*
X0193727Y0146909D01*
X0194608Y0147922D02*
X0262327Y0147922D01*
X0262327Y0149101D02*
X0195165Y0149101D01*
X0195305Y0151461D02*
X0262948Y0151461D01*
X0262366Y0150281D02*
X0190965Y0150281D01*
X0190276Y0150281D02*
X0181310Y0150281D01*
X0175374Y0154367D02*
X0175374Y0155886D01*
X0175010Y0155621D01*
X0174341Y0155281D01*
X0173627Y0155049D01*
X0172885Y0154931D01*
X0172854Y0154931D01*
X0172854Y0159356D01*
X0172165Y0159356D01*
X0172165Y0154931D01*
X0172134Y0154931D01*
X0171393Y0155049D01*
X0170679Y0155281D01*
X0170010Y0155621D01*
X0169403Y0156063D01*
X0168872Y0156594D01*
X0168430Y0157201D01*
X0168195Y0157663D01*
X0168195Y0155585D01*
X0169277Y0155136D01*
X0170800Y0153614D01*
X0171624Y0151624D01*
X0171624Y0150617D01*
X0175374Y0154367D01*
X0175374Y0154999D02*
X0173316Y0154999D01*
X0172854Y0154999D02*
X0172165Y0154999D01*
X0171703Y0154999D02*
X0169414Y0154999D01*
X0169286Y0156179D02*
X0168195Y0156179D01*
X0168195Y0157359D02*
X0168350Y0157359D01*
X0172165Y0157359D02*
X0172854Y0157359D01*
X0172854Y0158538D02*
X0172165Y0158538D01*
X0172165Y0159718D02*
X0163012Y0159718D01*
X0162323Y0159718D02*
X0153169Y0159718D01*
X0153169Y0160045D02*
X0153169Y0159356D01*
X0152480Y0159356D01*
X0152480Y0154931D01*
X0152449Y0154931D01*
X0151708Y0155049D01*
X0150994Y0155281D01*
X0150325Y0155621D01*
X0149718Y0156063D01*
X0149187Y0156594D01*
X0148745Y0157201D01*
X0148405Y0157870D01*
X0148173Y0158584D01*
X0148055Y0159325D01*
X0148055Y0159356D01*
X0152480Y0159356D01*
X0152480Y0160045D01*
X0148055Y0160045D01*
X0148055Y0160076D01*
X0148173Y0160818D01*
X0148405Y0161532D01*
X0148745Y0162201D01*
X0149187Y0162808D01*
X0149718Y0163339D01*
X0150325Y0163780D01*
X0150994Y0164121D01*
X0151708Y0164353D01*
X0152449Y0164470D01*
X0152480Y0164470D01*
X0152480Y0160045D01*
X0153169Y0160045D01*
X0153169Y0164470D01*
X0153200Y0164470D01*
X0153942Y0164353D01*
X0154656Y0164121D01*
X0155325Y0163780D01*
X0155932Y0163339D01*
X0156463Y0162808D01*
X0156904Y0162201D01*
X0157140Y0161738D01*
X0157140Y0163847D01*
X0157248Y0164252D01*
X0157458Y0164614D01*
X0157754Y0164911D01*
X0158116Y0165120D01*
X0158521Y0165228D01*
X0162323Y0165228D01*
X0162323Y0160045D01*
X0157594Y0160045D01*
X0153169Y0160045D01*
X0152480Y0159718D02*
X0134665Y0159718D01*
X0134665Y0160045D02*
X0134665Y0159356D01*
X0134665Y0154931D01*
X0134696Y0154931D01*
X0135438Y0155049D01*
X0136152Y0155281D01*
X0136821Y0155621D01*
X0137428Y0156063D01*
X0137959Y0156594D01*
X0138400Y0157201D01*
X0138741Y0157870D01*
X0138973Y0158584D01*
X0139091Y0159325D01*
X0139091Y0159356D01*
X0134665Y0159356D01*
X0133976Y0159356D01*
X0129551Y0159356D01*
X0129551Y0159325D01*
X0129669Y0158584D01*
X0129901Y0157870D01*
X0130241Y0157201D01*
X0130683Y0156594D01*
X0131214Y0156063D01*
X0131821Y0155621D01*
X0132490Y0155281D01*
X0133204Y0155049D01*
X0133945Y0154931D01*
X0133976Y0154931D01*
X0133976Y0159356D01*
X0133976Y0160045D01*
X0129551Y0160045D01*
X0129551Y0160076D01*
X0129669Y0160818D01*
X0129901Y0161532D01*
X0130241Y0162201D01*
X0130683Y0162808D01*
X0131214Y0163339D01*
X0131821Y0163780D01*
X0132490Y0164121D01*
X0133204Y0164353D01*
X0133945Y0164470D01*
X0133976Y0164470D01*
X0133976Y0160045D01*
X0134665Y0160045D01*
X0134665Y0164470D01*
X0134696Y0164470D01*
X0135438Y0164353D01*
X0136152Y0164121D01*
X0136821Y0163780D01*
X0137428Y0163339D01*
X0137959Y0162808D01*
X0138400Y0162201D01*
X0138741Y0161532D01*
X0138973Y0160818D01*
X0139091Y0160076D01*
X0139091Y0160045D01*
X0134665Y0160045D01*
X0133976Y0159718D02*
X0123740Y0159718D01*
X0123740Y0160144D02*
X0123740Y0159258D01*
X0123740Y0154173D01*
X0127444Y0154173D01*
X0127848Y0154282D01*
X0128211Y0154491D01*
X0128507Y0154787D01*
X0128716Y0155150D01*
X0128825Y0155554D01*
X0128825Y0159258D01*
X0123740Y0159258D01*
X0122854Y0159258D01*
X0117770Y0159258D01*
X0117770Y0155554D01*
X0117878Y0155150D01*
X0118087Y0154787D01*
X0118384Y0154491D01*
X0118746Y0154282D01*
X0119151Y0154173D01*
X0122854Y0154173D01*
X0122854Y0159258D01*
X0122854Y0160144D01*
X0122854Y0165228D01*
X0119151Y0165228D01*
X0118746Y0165120D01*
X0118384Y0164911D01*
X0118087Y0164614D01*
X0117878Y0164252D01*
X0117770Y0163847D01*
X0117770Y0160144D01*
X0122854Y0160144D01*
X0123740Y0160144D01*
X0123740Y0165228D01*
X0127444Y0165228D01*
X0127848Y0165120D01*
X0128211Y0164911D01*
X0128507Y0164614D01*
X0128716Y0164252D01*
X0128825Y0163847D01*
X0128825Y0160144D01*
X0123740Y0160144D01*
X0123740Y0160897D02*
X0122854Y0160897D01*
X0122854Y0159718D02*
X0084370Y0159718D01*
X0084370Y0160144D02*
X0084370Y0159258D01*
X0089455Y0159258D01*
X0089455Y0155554D01*
X0089346Y0155150D01*
X0089137Y0154787D01*
X0088841Y0154491D01*
X0088478Y0154282D01*
X0088074Y0154173D01*
X0084370Y0154173D01*
X0084370Y0159258D01*
X0083484Y0159258D01*
X0078400Y0159258D01*
X0078400Y0155554D01*
X0078508Y0155150D01*
X0078717Y0154787D01*
X0079014Y0154491D01*
X0079376Y0154282D01*
X0079781Y0154173D01*
X0083484Y0154173D01*
X0083484Y0159258D01*
X0083484Y0160144D01*
X0083484Y0165228D01*
X0079781Y0165228D01*
X0079376Y0165120D01*
X0079014Y0164911D01*
X0078717Y0164614D01*
X0078508Y0164252D01*
X0078400Y0163847D01*
X0078400Y0160144D01*
X0083484Y0160144D01*
X0084370Y0160144D01*
X0084370Y0165228D01*
X0088074Y0165228D01*
X0088478Y0165120D01*
X0088841Y0164911D01*
X0089137Y0164614D01*
X0089346Y0164252D01*
X0089455Y0163847D01*
X0089455Y0160144D01*
X0084370Y0160144D01*
X0084370Y0160897D02*
X0083484Y0160897D01*
X0083484Y0159718D02*
X0045000Y0159718D01*
X0045000Y0160144D02*
X0045000Y0159258D01*
X0050085Y0159258D01*
X0050085Y0155554D01*
X0049976Y0155150D01*
X0049767Y0154787D01*
X0049471Y0154491D01*
X0049108Y0154282D01*
X0048703Y0154173D01*
X0045000Y0154173D01*
X0045000Y0159258D01*
X0044114Y0159258D01*
X0039030Y0159258D01*
X0039030Y0155554D01*
X0039138Y0155150D01*
X0039347Y0154787D01*
X0039643Y0154491D01*
X0040006Y0154282D01*
X0040411Y0154173D01*
X0044114Y0154173D01*
X0044114Y0159258D01*
X0044114Y0160144D01*
X0044114Y0165228D01*
X0040411Y0165228D01*
X0040006Y0165120D01*
X0039643Y0164911D01*
X0039347Y0164614D01*
X0039138Y0164252D01*
X0039030Y0163847D01*
X0039030Y0160144D01*
X0044114Y0160144D01*
X0045000Y0160144D01*
X0045000Y0165228D01*
X0048703Y0165228D01*
X0049108Y0165120D01*
X0049471Y0164911D01*
X0049767Y0164614D01*
X0049976Y0164252D01*
X0050085Y0163847D01*
X0050085Y0160144D01*
X0045000Y0160144D01*
X0045000Y0160897D02*
X0044114Y0160897D01*
X0044114Y0159718D02*
X0030030Y0159718D01*
X0030030Y0160897D02*
X0039030Y0160897D01*
X0039030Y0162077D02*
X0030030Y0162077D01*
X0030030Y0163257D02*
X0039030Y0163257D01*
X0039244Y0164436D02*
X0030030Y0164436D01*
X0030030Y0165616D02*
X0175374Y0165616D01*
X0175374Y0166796D02*
X0030030Y0166796D01*
X0030030Y0167975D02*
X0175374Y0167975D01*
X0175374Y0169155D02*
X0030030Y0169155D01*
X0030030Y0170334D02*
X0175374Y0170334D01*
X0175177Y0171514D02*
X0030030Y0171514D01*
X0030030Y0172694D02*
X0175301Y0172694D01*
X0175852Y0173873D02*
X0030030Y0173873D01*
X0030030Y0186849D02*
X0157075Y0186849D01*
X0157569Y0188029D02*
X0030030Y0188029D01*
X0030030Y0189208D02*
X0158494Y0189208D01*
X0159327Y0190388D02*
X0030030Y0190388D01*
X0030030Y0191567D02*
X0158148Y0191567D01*
X0157491Y0192747D02*
X0030030Y0192747D01*
X0030030Y0193927D02*
X0157003Y0193927D01*
X0156908Y0195106D02*
X0030030Y0195106D01*
X0030030Y0196286D02*
X0156908Y0196286D01*
X0157248Y0197465D02*
X0030030Y0197465D01*
X0030030Y0198645D02*
X0157737Y0198645D01*
X0158741Y0199825D02*
X0030030Y0199825D01*
X0030030Y0201004D02*
X0159216Y0201004D01*
X0157964Y0202184D02*
X0030030Y0202184D01*
X0030030Y0203364D02*
X0157267Y0203364D01*
X0156946Y0204543D02*
X0030030Y0204543D01*
X0046762Y0225776D02*
X0047943Y0225776D01*
X0047943Y0226956D02*
X0046762Y0226956D01*
X0046762Y0228135D02*
X0047943Y0228135D01*
X0047943Y0229315D02*
X0046762Y0229315D01*
X0046762Y0230495D02*
X0047943Y0230495D01*
X0047943Y0231674D02*
X0046762Y0231674D01*
X0046762Y0232854D02*
X0047943Y0232854D01*
X0047943Y0234034D02*
X0046762Y0234034D01*
X0046762Y0235213D02*
X0047943Y0235213D01*
X0047943Y0238752D02*
X0046762Y0238752D01*
X0046762Y0239932D02*
X0047943Y0239932D01*
X0047943Y0241111D02*
X0046762Y0241111D01*
X0046762Y0242291D02*
X0047943Y0242291D01*
X0047943Y0243470D02*
X0046762Y0243470D01*
X0046762Y0244650D02*
X0047943Y0244650D01*
X0047943Y0245830D02*
X0046762Y0245830D01*
X0046762Y0247009D02*
X0047943Y0247009D01*
X0047943Y0248189D02*
X0046762Y0248189D01*
X0046762Y0249368D02*
X0047943Y0249368D01*
X0047943Y0250548D02*
X0046762Y0250548D01*
X0044051Y0250548D02*
X0030030Y0250548D01*
X0030030Y0249368D02*
X0041095Y0249368D01*
X0039291Y0248189D02*
X0030030Y0248189D01*
X0030030Y0247009D02*
X0037979Y0247009D01*
X0036950Y0245830D02*
X0030030Y0245830D01*
X0030030Y0244650D02*
X0036139Y0244650D01*
X0035503Y0243470D02*
X0030030Y0243470D01*
X0030030Y0242291D02*
X0035014Y0242291D01*
X0034656Y0241111D02*
X0030030Y0241111D01*
X0030030Y0239932D02*
X0034415Y0239932D01*
X0034285Y0238752D02*
X0030030Y0238752D01*
X0050654Y0250548D02*
X0240901Y0250548D01*
X0237945Y0249368D02*
X0053610Y0249368D01*
X0055414Y0248189D02*
X0236141Y0248189D01*
X0231194Y0236393D02*
X0060361Y0236393D01*
X0060171Y0235213D02*
X0231384Y0235213D01*
X0231687Y0234034D02*
X0059868Y0234034D01*
X0059444Y0232854D02*
X0232111Y0232854D01*
X0232671Y0231674D02*
X0058884Y0231674D01*
X0058168Y0230495D02*
X0233387Y0230495D01*
X0234289Y0229315D02*
X0095017Y0229315D01*
X0096197Y0228135D02*
X0235430Y0228135D01*
X0236975Y0226956D02*
X0096818Y0226956D01*
X0097307Y0225776D02*
X0239193Y0225776D01*
X0243612Y0225776D02*
X0244793Y0225776D01*
X0244793Y0226956D02*
X0243612Y0226956D01*
X0243612Y0228135D02*
X0244793Y0228135D01*
X0244793Y0229315D02*
X0243612Y0229315D01*
X0243612Y0230495D02*
X0244793Y0230495D01*
X0244793Y0231674D02*
X0243612Y0231674D01*
X0243612Y0232854D02*
X0244793Y0232854D01*
X0244793Y0234034D02*
X0243612Y0234034D01*
X0243612Y0235213D02*
X0244793Y0235213D01*
X0244793Y0236393D02*
X0243612Y0236393D01*
X0244793Y0237572D02*
X0272327Y0237572D01*
X0272327Y0236393D02*
X0273508Y0236393D01*
X0273508Y0235213D02*
X0272327Y0235213D01*
X0272327Y0234034D02*
X0273508Y0234034D01*
X0273508Y0232854D02*
X0272327Y0232854D01*
X0272327Y0231674D02*
X0273508Y0231674D01*
X0278788Y0230495D02*
X0255019Y0230495D01*
X0255734Y0231674D02*
X0263112Y0231674D01*
X0262398Y0232854D02*
X0256294Y0232854D01*
X0256719Y0234034D02*
X0262327Y0234034D01*
X0262327Y0235213D02*
X0257021Y0235213D01*
X0257211Y0236393D02*
X0262327Y0236393D01*
X0262327Y0238752D02*
X0257270Y0238752D01*
X0257140Y0239932D02*
X0262327Y0239932D01*
X0262327Y0241111D02*
X0256899Y0241111D01*
X0256541Y0242291D02*
X0262368Y0242291D01*
X0262957Y0243470D02*
X0256052Y0243470D01*
X0255416Y0244650D02*
X0278857Y0244650D01*
X0278863Y0245830D02*
X0254605Y0245830D01*
X0253576Y0247009D02*
X0278869Y0247009D01*
X0278874Y0248189D02*
X0252264Y0248189D01*
X0250460Y0249368D02*
X0278880Y0249368D01*
X0273508Y0243470D02*
X0272327Y0243470D01*
X0272327Y0242291D02*
X0273508Y0242291D01*
X0273508Y0241111D02*
X0272327Y0241111D01*
X0272327Y0239932D02*
X0273508Y0239932D01*
X0273508Y0238752D02*
X0272327Y0238752D01*
X0278782Y0229315D02*
X0254116Y0229315D01*
X0252976Y0228135D02*
X0278776Y0228135D01*
X0278770Y0226956D02*
X0251431Y0226956D01*
X0249213Y0225776D02*
X0278765Y0225776D01*
X0278759Y0224597D02*
X0097323Y0224597D01*
X0097323Y0223417D02*
X0278753Y0223417D01*
X0278747Y0222237D02*
X0096846Y0222237D01*
X0096264Y0221058D02*
X0160472Y0221058D01*
X0158794Y0219878D02*
X0095084Y0219878D01*
X0092691Y0218699D02*
X0157759Y0218699D01*
X0165863Y0221058D02*
X0278742Y0221058D01*
X0278736Y0219878D02*
X0190896Y0219878D01*
X0192117Y0218699D02*
X0278730Y0218699D01*
X0278724Y0217519D02*
X0192606Y0217519D01*
X0192657Y0216339D02*
X0278718Y0216339D01*
X0278713Y0215160D02*
X0192348Y0215160D01*
X0191537Y0213980D02*
X0278707Y0213980D01*
X0273508Y0204543D02*
X0272327Y0204543D01*
X0272327Y0203364D02*
X0273508Y0203364D01*
X0273508Y0202184D02*
X0272327Y0202184D01*
X0272327Y0201004D02*
X0273508Y0201004D01*
X0273508Y0199825D02*
X0272327Y0199825D01*
X0278412Y0153820D02*
X0194093Y0153820D01*
X0194907Y0152640D02*
X0278407Y0152640D01*
X0273508Y0151461D02*
X0272327Y0151461D01*
X0272327Y0150281D02*
X0273508Y0150281D01*
X0273508Y0149101D02*
X0272327Y0149101D01*
X0272327Y0147922D02*
X0273508Y0147922D01*
X0273508Y0146742D02*
X0272327Y0146742D01*
X0272327Y0123150D02*
X0273508Y0123150D01*
X0273508Y0121970D02*
X0272327Y0121970D01*
X0272327Y0120791D02*
X0273508Y0120791D01*
X0273508Y0119611D02*
X0272327Y0119611D01*
X0272327Y0118431D02*
X0273508Y0118431D01*
X0272327Y0117252D02*
X0192206Y0117252D01*
X0192451Y0117172D02*
X0191737Y0117404D01*
X0190995Y0117522D01*
X0190965Y0117522D01*
X0190965Y0113097D01*
X0190276Y0113097D01*
X0190276Y0117522D01*
X0190245Y0117522D01*
X0189503Y0117404D01*
X0188789Y0117172D01*
X0188120Y0116831D01*
X0187513Y0116390D01*
X0186982Y0115859D01*
X0186541Y0115252D01*
X0186200Y0114583D01*
X0185968Y0113869D01*
X0185850Y0113127D01*
X0185850Y0113096D01*
X0190276Y0113096D01*
X0190276Y0112407D01*
X0190965Y0112407D01*
X0190965Y0113096D01*
X0195390Y0113096D01*
X0195390Y0113127D01*
X0195272Y0113869D01*
X0195040Y0114583D01*
X0194699Y0115252D01*
X0194258Y0115859D01*
X0193727Y0116390D01*
X0193120Y0116831D01*
X0192451Y0117172D01*
X0190965Y0117252D02*
X0190276Y0117252D01*
X0190276Y0116072D02*
X0190965Y0116072D01*
X0190965Y0114893D02*
X0190276Y0114893D01*
X0190276Y0113713D02*
X0190965Y0113713D01*
X0190965Y0112533D02*
X0262509Y0112533D01*
X0262327Y0113713D02*
X0195297Y0113713D01*
X0194883Y0114893D02*
X0262327Y0114893D01*
X0262327Y0116072D02*
X0194045Y0116072D01*
X0195390Y0112407D02*
X0190965Y0112407D01*
X0190965Y0107982D01*
X0190995Y0107982D01*
X0191737Y0108100D01*
X0192451Y0108332D01*
X0193120Y0108673D01*
X0193727Y0109114D01*
X0194258Y0109645D01*
X0194699Y0110252D01*
X0195040Y0110921D01*
X0195272Y0111635D01*
X0195390Y0112377D01*
X0195390Y0112407D01*
X0195181Y0111354D02*
X0263551Y0111354D01*
X0262327Y0118431D02*
X0172711Y0118431D01*
X0173891Y0117252D02*
X0189034Y0117252D01*
X0187195Y0116072D02*
X0174842Y0116072D01*
X0174842Y0114893D02*
X0186358Y0114893D01*
X0185943Y0113713D02*
X0174842Y0113713D01*
X0174842Y0112533D02*
X0190276Y0112533D01*
X0190276Y0112407D02*
X0185850Y0112407D01*
X0185850Y0112377D01*
X0185968Y0111635D01*
X0186200Y0110921D01*
X0186541Y0110252D01*
X0186982Y0109645D01*
X0187513Y0109114D01*
X0188120Y0108673D01*
X0188789Y0108332D01*
X0189503Y0108100D01*
X0190245Y0107982D01*
X0190276Y0107982D01*
X0190276Y0112407D01*
X0190276Y0111354D02*
X0190965Y0111354D01*
X0190965Y0110174D02*
X0190276Y0110174D01*
X0190276Y0108994D02*
X0190965Y0108994D01*
X0193563Y0108994D02*
X0278193Y0108994D01*
X0278187Y0107815D02*
X0187861Y0107815D01*
X0187880Y0106635D02*
X0278181Y0106635D01*
X0278176Y0105456D02*
X0187880Y0105456D01*
X0187880Y0104276D02*
X0278170Y0104276D01*
X0278164Y0103096D02*
X0187880Y0103096D01*
X0187880Y0101917D02*
X0278158Y0101917D01*
X0278152Y0100737D02*
X0187880Y0100737D01*
X0187880Y0099558D02*
X0278147Y0099558D01*
X0278141Y0098378D02*
X0187247Y0098378D01*
X0182795Y0098378D02*
X0181909Y0098378D01*
X0181909Y0099558D02*
X0182795Y0099558D01*
X0182795Y0100737D02*
X0181909Y0100737D01*
X0181909Y0101917D02*
X0182795Y0101917D01*
X0182795Y0103096D02*
X0181909Y0103096D01*
X0181909Y0104276D02*
X0182795Y0104276D01*
X0182795Y0105456D02*
X0181909Y0105456D01*
X0181909Y0106635D02*
X0182795Y0106635D01*
X0182795Y0107815D02*
X0181909Y0107815D01*
X0181909Y0108994D02*
X0182795Y0108994D01*
X0186597Y0110174D02*
X0174842Y0110174D01*
X0174862Y0111354D02*
X0186059Y0111354D01*
X0186943Y0108994D02*
X0187677Y0108994D01*
X0194643Y0110174D02*
X0278199Y0110174D01*
X0273508Y0111354D02*
X0272327Y0111354D01*
X0272327Y0112533D02*
X0273508Y0112533D01*
X0273508Y0113713D02*
X0272327Y0113713D01*
X0272327Y0114893D02*
X0273508Y0114893D01*
X0273508Y0116072D02*
X0272327Y0116072D01*
X0278135Y0097198D02*
X0168592Y0097198D01*
X0168592Y0096019D02*
X0278129Y0096019D01*
X0278124Y0094839D02*
X0168592Y0094839D01*
X0168592Y0093659D02*
X0278118Y0093659D01*
X0278112Y0092480D02*
X0168592Y0092480D01*
X0168592Y0091300D02*
X0174854Y0091300D01*
X0174299Y0091070D02*
X0173247Y0090018D01*
X0172677Y0088644D01*
X0172677Y0087156D01*
X0173247Y0085781D01*
X0174299Y0084729D01*
X0175673Y0084159D01*
X0177161Y0084159D01*
X0178536Y0084729D01*
X0179588Y0085781D01*
X0180157Y0087156D01*
X0180157Y0088644D01*
X0179588Y0090018D01*
X0178536Y0091070D01*
X0177161Y0091640D01*
X0175673Y0091640D01*
X0174299Y0091070D01*
X0173349Y0090121D02*
X0168592Y0090121D01*
X0168592Y0088941D02*
X0172800Y0088941D01*
X0172677Y0087761D02*
X0168592Y0087761D01*
X0168592Y0086582D02*
X0172915Y0086582D01*
X0173625Y0085402D02*
X0168592Y0085402D01*
X0168592Y0084223D02*
X0175521Y0084223D01*
X0177314Y0084223D02*
X0262327Y0084223D01*
X0262327Y0083043D02*
X0168592Y0083043D01*
X0169279Y0081863D02*
X0262327Y0081863D01*
X0262447Y0080684D02*
X0170459Y0080684D01*
X0171921Y0079504D02*
X0263326Y0079504D01*
X0262327Y0086582D02*
X0179920Y0086582D01*
X0180157Y0087761D02*
X0262327Y0087761D01*
X0262327Y0088941D02*
X0180034Y0088941D01*
X0179486Y0090121D02*
X0262334Y0090121D01*
X0262812Y0091300D02*
X0177981Y0091300D01*
X0179209Y0085402D02*
X0272327Y0085402D01*
X0272327Y0084223D02*
X0273508Y0084223D01*
X0273508Y0083043D02*
X0272327Y0083043D01*
X0272327Y0081863D02*
X0273508Y0081863D01*
X0273508Y0080684D02*
X0272327Y0080684D01*
X0272327Y0079504D02*
X0273508Y0079504D01*
X0278043Y0078324D02*
X0172542Y0078324D01*
X0172542Y0077145D02*
X0278037Y0077145D01*
X0278031Y0075965D02*
X0172542Y0075965D01*
X0172907Y0074786D02*
X0278025Y0074786D01*
X0278020Y0073606D02*
X0172942Y0073606D01*
X0172942Y0072426D02*
X0176593Y0072426D01*
X0175413Y0071247D02*
X0172942Y0071247D01*
X0173709Y0070067D02*
X0174601Y0070067D01*
X0174467Y0062990D02*
X0175476Y0062990D01*
X0176703Y0061810D02*
X0173287Y0061810D01*
X0167047Y0061810D02*
X0153287Y0061810D01*
X0154467Y0062990D02*
X0156868Y0062990D01*
X0155692Y0064169D02*
X0155056Y0064169D01*
X0154960Y0068362D02*
X0154639Y0069138D01*
X0153155Y0070621D01*
X0152942Y0070710D01*
X0152942Y0074702D01*
X0152520Y0075721D01*
X0152342Y0075899D01*
X0152342Y0085435D01*
X0153049Y0084729D01*
X0154423Y0084159D01*
X0155911Y0084159D01*
X0157286Y0084729D01*
X0157993Y0085435D01*
X0157993Y0075899D01*
X0157815Y0075721D01*
X0157393Y0074702D01*
X0157393Y0071710D01*
X0157179Y0071621D01*
X0155696Y0070138D01*
X0154960Y0068362D01*
X0154743Y0068888D02*
X0155178Y0068888D01*
X0155666Y0070067D02*
X0153709Y0070067D01*
X0152942Y0071247D02*
X0156805Y0071247D01*
X0157393Y0072426D02*
X0152942Y0072426D01*
X0152942Y0073606D02*
X0157393Y0073606D01*
X0157427Y0074786D02*
X0152907Y0074786D01*
X0152342Y0075965D02*
X0157993Y0075965D01*
X0157993Y0077145D02*
X0152342Y0077145D01*
X0152342Y0078324D02*
X0157993Y0078324D01*
X0157993Y0079504D02*
X0152342Y0079504D01*
X0152342Y0080684D02*
X0157993Y0080684D01*
X0157993Y0081863D02*
X0152342Y0081863D01*
X0152342Y0083043D02*
X0157993Y0083043D01*
X0157993Y0084223D02*
X0156064Y0084223D01*
X0154271Y0084223D02*
X0152342Y0084223D01*
X0152342Y0085402D02*
X0152375Y0085402D01*
X0157959Y0085402D02*
X0157993Y0085402D01*
X0162342Y0085402D02*
X0164243Y0085402D01*
X0164243Y0084223D02*
X0162342Y0084223D01*
X0162342Y0083043D02*
X0164243Y0083043D01*
X0164243Y0081863D02*
X0162342Y0081863D01*
X0162342Y0080684D02*
X0164308Y0080684D01*
X0164243Y0080749D02*
X0165516Y0079475D01*
X0165516Y0079475D01*
X0167793Y0077199D01*
X0167793Y0075667D01*
X0167393Y0074702D01*
X0167393Y0070710D01*
X0167179Y0070621D01*
X0165696Y0069138D01*
X0165374Y0068362D01*
X0164639Y0070138D01*
X0163155Y0071621D01*
X0162942Y0071710D01*
X0162942Y0074702D01*
X0162520Y0075721D01*
X0162342Y0075899D01*
X0162342Y0091999D01*
X0163592Y0093249D01*
X0163592Y0107977D01*
X0165134Y0107339D01*
X0165281Y0107339D01*
X0164920Y0106978D01*
X0164293Y0106413D01*
X0164289Y0106347D01*
X0164243Y0106300D01*
X0164243Y0105457D01*
X0164198Y0104614D01*
X0164243Y0104565D01*
X0164243Y0080749D01*
X0165487Y0079504D02*
X0162342Y0079504D01*
X0162342Y0078324D02*
X0166667Y0078324D01*
X0167793Y0077145D02*
X0162342Y0077145D01*
X0162342Y0075965D02*
X0167793Y0075965D01*
X0167427Y0074786D02*
X0162907Y0074786D01*
X0162942Y0073606D02*
X0167393Y0073606D01*
X0167393Y0072426D02*
X0162942Y0072426D01*
X0163530Y0071247D02*
X0167393Y0071247D01*
X0166625Y0070067D02*
X0164668Y0070067D01*
X0165157Y0068888D02*
X0165592Y0068888D01*
X0165278Y0064169D02*
X0164642Y0064169D01*
X0163467Y0062990D02*
X0165868Y0062990D01*
X0183632Y0061810D02*
X0262327Y0061810D01*
X0262327Y0060630D02*
X0129322Y0060630D01*
X0128143Y0059451D02*
X0262327Y0059451D01*
X0262327Y0058271D02*
X0126397Y0058271D01*
X0125218Y0057091D02*
X0272327Y0057091D01*
X0272327Y0055912D02*
X0273508Y0055912D01*
X0273508Y0054732D02*
X0272327Y0054732D01*
X0272327Y0053553D02*
X0273508Y0053553D01*
X0273508Y0052373D02*
X0272327Y0052373D01*
X0272327Y0051193D02*
X0273508Y0051193D01*
X0277904Y0050014D02*
X0030030Y0050014D01*
X0030030Y0051193D02*
X0263918Y0051193D01*
X0262576Y0052373D02*
X0030030Y0052373D01*
X0030030Y0053553D02*
X0262327Y0053553D01*
X0262327Y0054732D02*
X0030030Y0054732D01*
X0030030Y0055912D02*
X0082547Y0055912D01*
X0081543Y0056916D02*
X0081543Y0056916D01*
X0081367Y0057091D02*
X0030030Y0057091D01*
X0030030Y0058271D02*
X0080187Y0058271D01*
X0079043Y0059451D02*
X0030030Y0059451D01*
X0030030Y0060630D02*
X0079043Y0060630D01*
X0079043Y0061810D02*
X0030030Y0061810D01*
X0030030Y0062990D02*
X0079043Y0062990D01*
X0079043Y0064169D02*
X0030030Y0064169D01*
X0030030Y0065349D02*
X0079043Y0065349D01*
X0079043Y0066528D02*
X0030030Y0066528D01*
X0030030Y0067708D02*
X0079043Y0067708D01*
X0079043Y0068888D02*
X0075195Y0068888D01*
X0074786Y0068479D02*
X0075838Y0069531D01*
X0076407Y0070906D01*
X0076407Y0072394D01*
X0075838Y0073768D01*
X0074786Y0074820D01*
X0073411Y0075390D01*
X0071923Y0075390D01*
X0070549Y0074820D01*
X0069497Y0073768D01*
X0068927Y0072394D01*
X0068927Y0070906D01*
X0069497Y0069531D01*
X0070549Y0068479D01*
X0071923Y0067909D01*
X0073411Y0067909D01*
X0074786Y0068479D01*
X0076060Y0070067D02*
X0079043Y0070067D01*
X0079043Y0071247D02*
X0076407Y0071247D01*
X0076394Y0072426D02*
X0079043Y0072426D01*
X0078602Y0073606D02*
X0075905Y0073606D01*
X0074821Y0074786D02*
X0077423Y0074786D01*
X0075704Y0075965D02*
X0030030Y0075965D01*
X0030030Y0074786D02*
X0045514Y0074786D01*
X0045549Y0074820D02*
X0044497Y0073768D01*
X0043927Y0072394D01*
X0043927Y0070906D01*
X0044497Y0069531D01*
X0045549Y0068479D01*
X0046923Y0067909D01*
X0048411Y0067909D01*
X0049786Y0068479D01*
X0050838Y0069531D01*
X0051407Y0070906D01*
X0051407Y0072394D01*
X0050838Y0073768D01*
X0049786Y0074820D01*
X0048411Y0075390D01*
X0046923Y0075390D01*
X0045549Y0074820D01*
X0044429Y0073606D02*
X0030030Y0073606D01*
X0030030Y0072426D02*
X0043941Y0072426D01*
X0043927Y0071247D02*
X0030030Y0071247D01*
X0030030Y0070067D02*
X0044274Y0070067D01*
X0045140Y0068888D02*
X0030030Y0068888D01*
X0030030Y0077145D02*
X0074997Y0077145D01*
X0074911Y0078324D02*
X0055740Y0078324D01*
X0052095Y0078324D02*
X0030030Y0078324D01*
X0030030Y0079504D02*
X0051305Y0079504D01*
X0051161Y0080684D02*
X0030030Y0080684D01*
X0030030Y0081863D02*
X0051541Y0081863D01*
X0053097Y0083043D02*
X0030030Y0083043D01*
X0030030Y0084223D02*
X0094271Y0084223D01*
X0094423Y0084159D02*
X0095911Y0084159D01*
X0097286Y0084729D01*
X0098338Y0085781D01*
X0098907Y0087156D01*
X0098907Y0088644D01*
X0098338Y0090018D01*
X0097286Y0091070D01*
X0095911Y0091640D01*
X0094423Y0091640D01*
X0093049Y0091070D01*
X0091997Y0090018D01*
X0091427Y0088644D01*
X0091427Y0087156D01*
X0091997Y0085781D01*
X0093049Y0084729D01*
X0094423Y0084159D01*
X0096064Y0084223D02*
X0102993Y0084223D01*
X0102993Y0085402D02*
X0097959Y0085402D01*
X0098670Y0086582D02*
X0102993Y0086582D01*
X0102993Y0087761D02*
X0098907Y0087761D01*
X0098784Y0088941D02*
X0102993Y0088941D01*
X0102993Y0090121D02*
X0098236Y0090121D01*
X0096731Y0091300D02*
X0102993Y0091300D01*
X0102993Y0092480D02*
X0030030Y0092480D01*
X0030030Y0093659D02*
X0104102Y0093659D01*
X0105281Y0094839D02*
X0030030Y0094839D01*
X0030030Y0096019D02*
X0106461Y0096019D01*
X0107640Y0097198D02*
X0030030Y0097198D01*
X0030030Y0098378D02*
X0059347Y0098378D01*
X0059328Y0098389D02*
X0059691Y0098179D01*
X0060096Y0098071D01*
X0063799Y0098071D01*
X0063799Y0103155D01*
X0064685Y0103155D01*
X0064685Y0098071D01*
X0068389Y0098071D01*
X0068793Y0098179D01*
X0069156Y0098389D01*
X0069452Y0098685D01*
X0069661Y0099047D01*
X0069770Y0099452D01*
X0069770Y0103155D01*
X0064685Y0103155D01*
X0064685Y0104041D01*
X0069770Y0104041D01*
X0069770Y0107745D01*
X0069661Y0108149D01*
X0069452Y0108512D01*
X0069156Y0108808D01*
X0068793Y0109018D01*
X0068389Y0109126D01*
X0064685Y0109126D01*
X0064685Y0104041D01*
X0063799Y0104041D01*
X0063799Y0103155D01*
X0058715Y0103155D01*
X0058715Y0099452D01*
X0058823Y0099047D01*
X0059032Y0098685D01*
X0059328Y0098389D01*
X0058715Y0099558D02*
X0030030Y0099558D01*
X0030030Y0100737D02*
X0058715Y0100737D01*
X0058715Y0101917D02*
X0030030Y0101917D01*
X0030030Y0103096D02*
X0058715Y0103096D01*
X0058715Y0104041D02*
X0063799Y0104041D01*
X0063799Y0109126D01*
X0060096Y0109126D01*
X0059691Y0109018D01*
X0059328Y0108808D01*
X0059032Y0108512D01*
X0058823Y0108149D01*
X0058715Y0107745D01*
X0058715Y0104041D01*
X0058715Y0104276D02*
X0030030Y0104276D01*
X0030030Y0105456D02*
X0058715Y0105456D01*
X0058715Y0106635D02*
X0030030Y0106635D01*
X0030030Y0107815D02*
X0058733Y0107815D01*
X0059651Y0108994D02*
X0030030Y0108994D01*
X0030030Y0110174D02*
X0110493Y0110174D01*
X0110493Y0108994D02*
X0108203Y0108994D01*
X0108163Y0109018D02*
X0107759Y0109126D01*
X0104055Y0109126D01*
X0104055Y0104041D01*
X0109140Y0104041D01*
X0109140Y0107745D01*
X0109031Y0108149D01*
X0108822Y0108512D01*
X0108526Y0108808D01*
X0108163Y0109018D01*
X0109121Y0107815D02*
X0110493Y0107815D01*
X0110493Y0106635D02*
X0109140Y0106635D01*
X0109140Y0105456D02*
X0110493Y0105456D01*
X0110493Y0104276D02*
X0109140Y0104276D01*
X0109140Y0103155D02*
X0104055Y0103155D01*
X0104055Y0098071D01*
X0107759Y0098071D01*
X0108163Y0098179D01*
X0108526Y0098389D01*
X0108822Y0098685D01*
X0109031Y0099047D01*
X0109140Y0099452D01*
X0109140Y0103155D01*
X0109140Y0103096D02*
X0110493Y0103096D01*
X0110493Y0101917D02*
X0109140Y0101917D01*
X0109140Y0100737D02*
X0110493Y0100737D01*
X0110000Y0099558D02*
X0109140Y0099558D01*
X0108820Y0098378D02*
X0108507Y0098378D01*
X0104055Y0098378D02*
X0103169Y0098378D01*
X0103169Y0098071D02*
X0103169Y0103155D01*
X0104055Y0103155D01*
X0104055Y0104041D01*
X0103169Y0104041D01*
X0103169Y0103155D01*
X0098085Y0103155D01*
X0098085Y0099452D01*
X0098193Y0099047D01*
X0098402Y0098685D01*
X0098699Y0098389D01*
X0099061Y0098179D01*
X0099466Y0098071D01*
X0103169Y0098071D01*
X0103169Y0099558D02*
X0104055Y0099558D01*
X0104055Y0100737D02*
X0103169Y0100737D01*
X0103169Y0101917D02*
X0104055Y0101917D01*
X0104055Y0103096D02*
X0103169Y0103096D01*
X0103169Y0104041D02*
X0098085Y0104041D01*
X0098085Y0107745D01*
X0098193Y0108149D01*
X0098402Y0108512D01*
X0098699Y0108808D01*
X0099061Y0109018D01*
X0099466Y0109126D01*
X0103169Y0109126D01*
X0103169Y0104041D01*
X0103169Y0104276D02*
X0104055Y0104276D01*
X0104055Y0105456D02*
X0103169Y0105456D01*
X0103169Y0106635D02*
X0104055Y0106635D01*
X0104055Y0107815D02*
X0103169Y0107815D01*
X0103169Y0108994D02*
X0104055Y0108994D01*
X0099021Y0108994D02*
X0068833Y0108994D01*
X0069751Y0107815D02*
X0098103Y0107815D01*
X0098085Y0106635D02*
X0069770Y0106635D01*
X0069770Y0105456D02*
X0098085Y0105456D01*
X0098085Y0104276D02*
X0069770Y0104276D01*
X0069770Y0103096D02*
X0098085Y0103096D01*
X0098085Y0101917D02*
X0069770Y0101917D01*
X0069770Y0100737D02*
X0098085Y0100737D01*
X0098085Y0099558D02*
X0069770Y0099558D01*
X0069137Y0098378D02*
X0098717Y0098378D01*
X0093604Y0091300D02*
X0030030Y0091300D01*
X0030030Y0090121D02*
X0092099Y0090121D01*
X0091550Y0088941D02*
X0030030Y0088941D01*
X0030030Y0087761D02*
X0091427Y0087761D01*
X0091665Y0086582D02*
X0030030Y0086582D01*
X0030030Y0085402D02*
X0092375Y0085402D01*
X0093651Y0079275D02*
X0103699Y0079275D01*
X0104619Y0078894D01*
X0105716Y0078894D01*
X0106728Y0079313D01*
X0107504Y0080089D01*
X0107923Y0081101D01*
X0107923Y0082198D01*
X0107504Y0083211D01*
X0107342Y0083372D01*
X0107342Y0090749D01*
X0107993Y0091399D01*
X0107993Y0075899D01*
X0107815Y0075721D01*
X0107393Y0074702D01*
X0107393Y0070710D01*
X0107179Y0070621D01*
X0105696Y0069138D01*
X0105344Y0068288D01*
X0105328Y0068388D01*
X0105070Y0069180D01*
X0104692Y0069922D01*
X0104203Y0070596D01*
X0103614Y0071185D01*
X0102940Y0071674D01*
X0102198Y0072053D01*
X0101406Y0072310D01*
X0100584Y0072440D01*
X0100577Y0072440D01*
X0100577Y0067559D01*
X0099758Y0067559D01*
X0099758Y0072440D01*
X0099751Y0072440D01*
X0098928Y0072310D01*
X0098136Y0072053D01*
X0097394Y0071674D01*
X0096721Y0071185D01*
X0096132Y0070596D01*
X0095642Y0069922D01*
X0095264Y0069180D01*
X0095007Y0068388D01*
X0094991Y0068288D01*
X0094639Y0069138D01*
X0093155Y0070621D01*
X0092942Y0070710D01*
X0092942Y0072202D01*
X0092542Y0073167D01*
X0092542Y0078166D01*
X0093651Y0079275D01*
X0092701Y0078324D02*
X0107993Y0078324D01*
X0107993Y0077145D02*
X0092542Y0077145D01*
X0092542Y0075965D02*
X0107993Y0075965D01*
X0107427Y0074786D02*
X0092542Y0074786D01*
X0092542Y0073606D02*
X0107393Y0073606D01*
X0107393Y0072426D02*
X0100670Y0072426D01*
X0100577Y0072426D02*
X0099758Y0072426D01*
X0099664Y0072426D02*
X0092849Y0072426D01*
X0092942Y0071247D02*
X0096806Y0071247D01*
X0095748Y0070067D02*
X0093709Y0070067D01*
X0094743Y0068888D02*
X0095169Y0068888D01*
X0099758Y0068888D02*
X0100577Y0068888D01*
X0100577Y0070067D02*
X0099758Y0070067D01*
X0099758Y0071247D02*
X0100577Y0071247D01*
X0103529Y0071247D02*
X0107393Y0071247D01*
X0106625Y0070067D02*
X0104587Y0070067D01*
X0105165Y0068888D02*
X0105592Y0068888D01*
X0100577Y0067708D02*
X0099758Y0067708D01*
X0099758Y0066740D02*
X0100577Y0066740D01*
X0100577Y0061859D01*
X0100584Y0061859D01*
X0101406Y0061989D01*
X0102198Y0062247D01*
X0102940Y0062625D01*
X0103614Y0063114D01*
X0104203Y0063703D01*
X0104692Y0064377D01*
X0104968Y0064918D01*
X0105696Y0063162D01*
X0107179Y0061678D01*
X0109118Y0060875D01*
X0111217Y0060875D01*
X0113155Y0061678D01*
X0114639Y0063162D01*
X0115374Y0064937D01*
X0115696Y0064162D01*
X0117179Y0062678D01*
X0119118Y0061875D01*
X0121217Y0061875D01*
X0123155Y0062678D01*
X0124639Y0064162D01*
X0124960Y0064937D01*
X0125200Y0064357D01*
X0124065Y0063221D01*
X0123665Y0062256D01*
X0121684Y0060274D01*
X0084901Y0060274D01*
X0083792Y0061383D01*
X0083792Y0075133D01*
X0080385Y0078541D01*
X0080081Y0079275D01*
X0087793Y0079275D01*
X0087793Y0073167D01*
X0087393Y0072202D01*
X0087393Y0070710D01*
X0087179Y0070621D01*
X0085696Y0069138D01*
X0084893Y0067199D01*
X0084893Y0065100D01*
X0085696Y0063162D01*
X0087179Y0061678D01*
X0089118Y0060875D01*
X0091217Y0060875D01*
X0093155Y0061678D01*
X0094639Y0063162D01*
X0095367Y0064918D01*
X0095642Y0064377D01*
X0096132Y0063703D01*
X0096721Y0063114D01*
X0097394Y0062625D01*
X0098136Y0062247D01*
X0098928Y0061989D01*
X0099751Y0061859D01*
X0099758Y0061859D01*
X0099758Y0066740D01*
X0099758Y0066528D02*
X0100577Y0066528D01*
X0100577Y0065349D02*
X0099758Y0065349D01*
X0099758Y0064169D02*
X0100577Y0064169D01*
X0100577Y0062990D02*
X0099758Y0062990D01*
X0096892Y0062990D02*
X0094467Y0062990D01*
X0095056Y0064169D02*
X0095793Y0064169D01*
X0093287Y0061810D02*
X0107047Y0061810D01*
X0105868Y0062990D02*
X0103442Y0062990D01*
X0104541Y0064169D02*
X0105278Y0064169D01*
X0113287Y0061810D02*
X0123219Y0061810D01*
X0123467Y0062990D02*
X0123969Y0062990D01*
X0124642Y0064169D02*
X0125013Y0064169D01*
X0122040Y0060630D02*
X0084545Y0060630D01*
X0083792Y0061810D02*
X0087047Y0061810D01*
X0085868Y0062990D02*
X0083792Y0062990D01*
X0083792Y0064169D02*
X0085278Y0064169D01*
X0084893Y0065349D02*
X0083792Y0065349D01*
X0083792Y0066528D02*
X0084893Y0066528D01*
X0085103Y0067708D02*
X0083792Y0067708D01*
X0083792Y0068888D02*
X0085592Y0068888D01*
X0086625Y0070067D02*
X0083792Y0070067D01*
X0083792Y0071247D02*
X0087393Y0071247D01*
X0087486Y0072426D02*
X0083792Y0072426D01*
X0083792Y0073606D02*
X0087793Y0073606D01*
X0087793Y0074786D02*
X0083792Y0074786D01*
X0082960Y0075965D02*
X0087793Y0075965D01*
X0087793Y0077145D02*
X0081781Y0077145D01*
X0080601Y0078324D02*
X0087793Y0078324D01*
X0070514Y0074786D02*
X0049821Y0074786D01*
X0050905Y0073606D02*
X0069429Y0073606D01*
X0068941Y0072426D02*
X0051394Y0072426D01*
X0051407Y0071247D02*
X0068927Y0071247D01*
X0069274Y0070067D02*
X0051060Y0070067D01*
X0050195Y0068888D02*
X0070140Y0068888D01*
X0064685Y0098378D02*
X0063799Y0098378D01*
X0063799Y0099558D02*
X0064685Y0099558D01*
X0064685Y0100737D02*
X0063799Y0100737D01*
X0063799Y0101917D02*
X0064685Y0101917D01*
X0064685Y0103096D02*
X0063799Y0103096D01*
X0063799Y0104276D02*
X0064685Y0104276D01*
X0064685Y0105456D02*
X0063799Y0105456D01*
X0063799Y0106635D02*
X0064685Y0106635D01*
X0064685Y0107815D02*
X0063799Y0107815D01*
X0063799Y0108994D02*
X0064685Y0108994D01*
X0049767Y0121027D02*
X0049976Y0121390D01*
X0050085Y0121795D01*
X0050085Y0125498D01*
X0045000Y0125498D01*
X0045000Y0120413D01*
X0048703Y0120413D01*
X0049108Y0120522D01*
X0049471Y0120731D01*
X0049767Y0121027D01*
X0049530Y0120791D02*
X0110493Y0120791D01*
X0110493Y0121970D02*
X0050085Y0121970D01*
X0050085Y0123150D02*
X0110493Y0123150D01*
X0110493Y0124329D02*
X0050085Y0124329D01*
X0050085Y0126384D02*
X0050085Y0130087D01*
X0049976Y0130492D01*
X0049767Y0130855D01*
X0049471Y0131151D01*
X0049108Y0131360D01*
X0048703Y0131468D01*
X0045000Y0131468D01*
X0045000Y0126384D01*
X0044114Y0126384D01*
X0044114Y0125498D01*
X0039030Y0125498D01*
X0039030Y0121795D01*
X0039138Y0121390D01*
X0039347Y0121027D01*
X0039643Y0120731D01*
X0040006Y0120522D01*
X0040411Y0120413D01*
X0044114Y0120413D01*
X0044114Y0125498D01*
X0045000Y0125498D01*
X0045000Y0126384D01*
X0050085Y0126384D01*
X0050085Y0126689D02*
X0110881Y0126689D01*
X0110493Y0125509D02*
X0045000Y0125509D01*
X0044114Y0125509D02*
X0030030Y0125509D01*
X0030030Y0124329D02*
X0039030Y0124329D01*
X0039030Y0123150D02*
X0030030Y0123150D01*
X0030030Y0121970D02*
X0039030Y0121970D01*
X0039584Y0120791D02*
X0030030Y0120791D01*
X0030030Y0119611D02*
X0110493Y0119611D01*
X0110493Y0118431D02*
X0030030Y0118431D01*
X0030030Y0117252D02*
X0110493Y0117252D01*
X0110493Y0116072D02*
X0030030Y0116072D01*
X0030030Y0114893D02*
X0110493Y0114893D01*
X0110493Y0113713D02*
X0030030Y0113713D01*
X0030030Y0112533D02*
X0110493Y0112533D01*
X0110493Y0111354D02*
X0030030Y0111354D01*
X0044114Y0120791D02*
X0045000Y0120791D01*
X0045000Y0121970D02*
X0044114Y0121970D01*
X0044114Y0123150D02*
X0045000Y0123150D01*
X0045000Y0124329D02*
X0044114Y0124329D01*
X0044114Y0126384D02*
X0039030Y0126384D01*
X0039030Y0130087D01*
X0039138Y0130492D01*
X0039347Y0130855D01*
X0039643Y0131151D01*
X0040006Y0131360D01*
X0040411Y0131468D01*
X0044114Y0131468D01*
X0044114Y0126384D01*
X0044114Y0126689D02*
X0045000Y0126689D01*
X0045000Y0127868D02*
X0044114Y0127868D01*
X0044114Y0129048D02*
X0045000Y0129048D01*
X0045000Y0130227D02*
X0044114Y0130227D01*
X0044114Y0131407D02*
X0045000Y0131407D01*
X0040182Y0131407D02*
X0030030Y0131407D01*
X0030030Y0130227D02*
X0039067Y0130227D01*
X0039030Y0129048D02*
X0030030Y0129048D01*
X0030030Y0127868D02*
X0039030Y0127868D01*
X0039030Y0126689D02*
X0030030Y0126689D01*
X0030030Y0132587D02*
X0118005Y0132587D01*
X0118087Y0132445D02*
X0118384Y0132148D01*
X0118746Y0131939D01*
X0119151Y0131831D01*
X0122854Y0131831D01*
X0122854Y0136915D01*
X0123740Y0136915D01*
X0123740Y0137801D01*
X0122854Y0137801D01*
X0122854Y0136915D01*
X0117770Y0136915D01*
X0117770Y0133212D01*
X0117878Y0132807D01*
X0118087Y0132445D01*
X0117770Y0133766D02*
X0030030Y0133766D01*
X0030030Y0134946D02*
X0117770Y0134946D01*
X0117770Y0136126D02*
X0030030Y0136126D01*
X0030030Y0137305D02*
X0122854Y0137305D01*
X0122854Y0137801D02*
X0117770Y0137801D01*
X0117770Y0141505D01*
X0117878Y0141909D01*
X0118087Y0142272D01*
X0118384Y0142568D01*
X0118746Y0142777D01*
X0119151Y0142886D01*
X0122854Y0142886D01*
X0122854Y0137801D01*
X0122854Y0138485D02*
X0123740Y0138485D01*
X0123740Y0137801D02*
X0123740Y0142886D01*
X0127444Y0142886D01*
X0127848Y0142777D01*
X0128211Y0142568D01*
X0128507Y0142272D01*
X0128716Y0141909D01*
X0128825Y0141505D01*
X0128825Y0137801D01*
X0123740Y0137801D01*
X0123740Y0137305D02*
X0132747Y0137305D01*
X0131568Y0136126D02*
X0128825Y0136126D01*
X0128825Y0134946D02*
X0130388Y0134946D01*
X0129208Y0133766D02*
X0128825Y0133766D01*
X0126849Y0131407D02*
X0048933Y0131407D01*
X0050047Y0130227D02*
X0114420Y0130227D01*
X0114243Y0130050D02*
X0114243Y0130050D01*
X0113240Y0129048D02*
X0050085Y0129048D01*
X0050085Y0127868D02*
X0112060Y0127868D01*
X0111766Y0127574D02*
X0111766Y0127574D01*
X0118592Y0121999D02*
X0119818Y0123225D01*
X0131068Y0123225D01*
X0132342Y0124499D01*
X0134043Y0126199D01*
X0134043Y0126100D01*
X0129243Y0121300D01*
X0129243Y0113800D01*
X0128825Y0113383D01*
X0128825Y0115655D01*
X0123740Y0115655D01*
X0123740Y0116541D01*
X0128825Y0116541D01*
X0128825Y0120245D01*
X0128716Y0120649D01*
X0128507Y0121012D01*
X0128211Y0121308D01*
X0127848Y0121518D01*
X0127444Y0121626D01*
X0123740Y0121626D01*
X0123740Y0116541D01*
X0122854Y0116541D01*
X0122854Y0121626D01*
X0119151Y0121626D01*
X0118746Y0121518D01*
X0118592Y0121429D01*
X0118592Y0121999D01*
X0118592Y0121970D02*
X0129912Y0121970D01*
X0129243Y0120791D02*
X0128635Y0120791D01*
X0128825Y0119611D02*
X0129243Y0119611D01*
X0129243Y0118431D02*
X0128825Y0118431D01*
X0128825Y0117252D02*
X0129243Y0117252D01*
X0129243Y0116072D02*
X0123740Y0116072D01*
X0123740Y0117252D02*
X0122854Y0117252D01*
X0122854Y0118431D02*
X0123740Y0118431D01*
X0123740Y0119611D02*
X0122854Y0119611D01*
X0122854Y0120791D02*
X0123740Y0120791D01*
X0119743Y0123150D02*
X0131092Y0123150D01*
X0132173Y0124329D02*
X0132272Y0124329D01*
X0133352Y0125509D02*
X0133451Y0125509D01*
X0135618Y0127774D02*
X0138661Y0130818D01*
X0138661Y0129851D01*
X0139081Y0128839D01*
X0139856Y0128063D01*
X0140869Y0127644D01*
X0141098Y0127644D01*
X0149243Y0119499D01*
X0149243Y0111999D01*
X0150516Y0110725D01*
X0153169Y0108072D01*
X0153169Y0103943D01*
X0152480Y0103943D01*
X0152480Y0103254D01*
X0148055Y0103254D01*
X0148055Y0103223D01*
X0148066Y0103155D01*
X0143425Y0103155D01*
X0143425Y0098071D01*
X0147129Y0098071D01*
X0147533Y0098179D01*
X0147896Y0098389D01*
X0148192Y0098685D01*
X0148401Y0099047D01*
X0148510Y0099452D01*
X0148510Y0101561D01*
X0148745Y0101099D01*
X0149187Y0100491D01*
X0149718Y0099960D01*
X0150325Y0099519D01*
X0150994Y0099178D01*
X0151708Y0098946D01*
X0152449Y0098829D01*
X0152480Y0098829D01*
X0152480Y0103254D01*
X0153169Y0103254D01*
X0153169Y0098829D01*
X0153200Y0098829D01*
X0153942Y0098946D01*
X0154656Y0099178D01*
X0155325Y0099519D01*
X0155932Y0099960D01*
X0156463Y0100491D01*
X0156743Y0100876D01*
X0156743Y0100050D01*
X0149266Y0092574D01*
X0147993Y0091300D01*
X0132342Y0091300D01*
X0132342Y0090121D02*
X0147993Y0090121D01*
X0147993Y0091300D02*
X0147993Y0075899D01*
X0147815Y0075721D01*
X0147393Y0074702D01*
X0147393Y0070710D01*
X0147179Y0070621D01*
X0145696Y0069138D01*
X0145344Y0068288D01*
X0145328Y0068388D01*
X0145070Y0069180D01*
X0144692Y0069922D01*
X0144203Y0070596D01*
X0143614Y0071185D01*
X0142940Y0071674D01*
X0142198Y0072053D01*
X0141406Y0072310D01*
X0140584Y0072440D01*
X0140577Y0072440D01*
X0140577Y0067559D01*
X0139758Y0067559D01*
X0139758Y0072440D01*
X0139751Y0072440D01*
X0138928Y0072310D01*
X0138136Y0072053D01*
X0137394Y0071674D01*
X0136721Y0071185D01*
X0136132Y0070596D01*
X0135642Y0069922D01*
X0135264Y0069180D01*
X0135007Y0068388D01*
X0134991Y0068288D01*
X0134639Y0069138D01*
X0133155Y0070621D01*
X0132942Y0070710D01*
X0132942Y0074702D01*
X0132520Y0075721D01*
X0132342Y0075899D01*
X0132342Y0097550D01*
X0131068Y0098824D01*
X0129842Y0100050D01*
X0129842Y0101948D01*
X0129901Y0101767D01*
X0130241Y0101099D01*
X0130683Y0100491D01*
X0131214Y0099960D01*
X0131821Y0099519D01*
X0132490Y0099178D01*
X0133204Y0098946D01*
X0133945Y0098829D01*
X0133976Y0098829D01*
X0133976Y0103254D01*
X0134665Y0103254D01*
X0134665Y0098829D01*
X0134696Y0098829D01*
X0135438Y0098946D01*
X0136152Y0099178D01*
X0136821Y0099519D01*
X0137428Y0099960D01*
X0137455Y0099987D01*
X0137455Y0099452D01*
X0137563Y0099047D01*
X0137773Y0098685D01*
X0138069Y0098389D01*
X0138431Y0098179D01*
X0138836Y0098071D01*
X0142539Y0098071D01*
X0142539Y0103155D01*
X0143425Y0103155D01*
X0143425Y0104041D01*
X0148066Y0104041D01*
X0148055Y0103974D01*
X0148055Y0103943D01*
X0152480Y0103943D01*
X0152480Y0108368D01*
X0152449Y0108368D01*
X0151708Y0108251D01*
X0150994Y0108019D01*
X0150325Y0107678D01*
X0149718Y0107237D01*
X0149187Y0106706D01*
X0148745Y0106098D01*
X0148510Y0105636D01*
X0148510Y0107745D01*
X0148401Y0108149D01*
X0148192Y0108512D01*
X0147896Y0108808D01*
X0147533Y0109018D01*
X0147129Y0109126D01*
X0143425Y0109126D01*
X0143425Y0104041D01*
X0142539Y0104041D01*
X0142539Y0103155D01*
X0139080Y0103155D01*
X0139091Y0103223D01*
X0139091Y0103254D01*
X0134665Y0103254D01*
X0134665Y0103943D01*
X0133976Y0103943D01*
X0133976Y0108368D01*
X0133945Y0108368D01*
X0133667Y0108324D01*
X0138592Y0113249D01*
X0138592Y0116999D01*
X0141737Y0120144D01*
X0141966Y0120144D01*
X0142978Y0120563D01*
X0143754Y0121339D01*
X0144173Y0122351D01*
X0144173Y0123448D01*
X0143754Y0124461D01*
X0142978Y0125236D01*
X0141966Y0125655D01*
X0140869Y0125655D01*
X0140423Y0125471D01*
X0140423Y0125948D01*
X0140004Y0126961D01*
X0139228Y0127736D01*
X0138216Y0128155D01*
X0137119Y0128155D01*
X0136199Y0127774D01*
X0135618Y0127774D01*
X0135712Y0127868D02*
X0136426Y0127868D01*
X0136891Y0129048D02*
X0138994Y0129048D01*
X0138909Y0127868D02*
X0140327Y0127868D01*
X0140116Y0126689D02*
X0142053Y0126689D01*
X0142319Y0125509D02*
X0143232Y0125509D01*
X0143808Y0124329D02*
X0144412Y0124329D01*
X0144173Y0123150D02*
X0145591Y0123150D01*
X0146771Y0121970D02*
X0144015Y0121970D01*
X0143206Y0120791D02*
X0147951Y0120791D01*
X0149130Y0119611D02*
X0141204Y0119611D01*
X0140025Y0118431D02*
X0149243Y0118431D01*
X0149243Y0117252D02*
X0138845Y0117252D01*
X0138592Y0116072D02*
X0149243Y0116072D01*
X0149243Y0114893D02*
X0138592Y0114893D01*
X0138592Y0113713D02*
X0149243Y0113713D01*
X0149243Y0112533D02*
X0137877Y0112533D01*
X0136697Y0111354D02*
X0149888Y0111354D01*
X0151067Y0110174D02*
X0135517Y0110174D01*
X0134338Y0108994D02*
X0138391Y0108994D01*
X0138431Y0109018D02*
X0138069Y0108808D01*
X0137773Y0108512D01*
X0137563Y0108149D01*
X0137455Y0107745D01*
X0137455Y0107210D01*
X0137428Y0107237D01*
X0136821Y0107678D01*
X0136152Y0108019D01*
X0135438Y0108251D01*
X0134696Y0108368D01*
X0134665Y0108368D01*
X0134665Y0103943D01*
X0139091Y0103943D01*
X0139091Y0103974D01*
X0139080Y0104041D01*
X0142539Y0104041D01*
X0142539Y0109126D01*
X0138836Y0109126D01*
X0138431Y0109018D01*
X0137473Y0107815D02*
X0136552Y0107815D01*
X0134665Y0107815D02*
X0133976Y0107815D01*
X0133976Y0106635D02*
X0134665Y0106635D01*
X0134665Y0105456D02*
X0133976Y0105456D01*
X0133976Y0104276D02*
X0134665Y0104276D01*
X0134665Y0103096D02*
X0133976Y0103096D01*
X0133976Y0101917D02*
X0134665Y0101917D01*
X0134665Y0100737D02*
X0133976Y0100737D01*
X0133976Y0099558D02*
X0134665Y0099558D01*
X0136874Y0099558D02*
X0137455Y0099558D01*
X0138087Y0098378D02*
X0131515Y0098378D01*
X0131768Y0099558D02*
X0130335Y0099558D01*
X0130504Y0100737D02*
X0129842Y0100737D01*
X0129842Y0101917D02*
X0129852Y0101917D01*
X0132342Y0097198D02*
X0153890Y0097198D01*
X0152711Y0096019D02*
X0132342Y0096019D01*
X0132342Y0094839D02*
X0151531Y0094839D01*
X0150352Y0093659D02*
X0132342Y0093659D01*
X0132342Y0092480D02*
X0149172Y0092480D01*
X0147993Y0088941D02*
X0132342Y0088941D01*
X0132342Y0087761D02*
X0147993Y0087761D01*
X0147993Y0086582D02*
X0132342Y0086582D01*
X0132342Y0085402D02*
X0147993Y0085402D01*
X0147993Y0084223D02*
X0132342Y0084223D01*
X0132342Y0083043D02*
X0147993Y0083043D01*
X0147993Y0081863D02*
X0132342Y0081863D01*
X0132342Y0080684D02*
X0147993Y0080684D01*
X0147993Y0079504D02*
X0132342Y0079504D01*
X0132342Y0078324D02*
X0147993Y0078324D01*
X0147993Y0077145D02*
X0132342Y0077145D01*
X0132342Y0075965D02*
X0147993Y0075965D01*
X0147427Y0074786D02*
X0132907Y0074786D01*
X0132942Y0073606D02*
X0147393Y0073606D01*
X0147393Y0072426D02*
X0140670Y0072426D01*
X0140577Y0072426D02*
X0139758Y0072426D01*
X0139664Y0072426D02*
X0132942Y0072426D01*
X0132942Y0071247D02*
X0136806Y0071247D01*
X0135748Y0070067D02*
X0133709Y0070067D01*
X0134743Y0068888D02*
X0135169Y0068888D01*
X0139758Y0068888D02*
X0140577Y0068888D01*
X0140577Y0070067D02*
X0139758Y0070067D01*
X0139758Y0071247D02*
X0140577Y0071247D01*
X0143529Y0071247D02*
X0147393Y0071247D01*
X0146625Y0070067D02*
X0144587Y0070067D01*
X0145165Y0068888D02*
X0145592Y0068888D01*
X0145278Y0064169D02*
X0144541Y0064169D01*
X0143442Y0062990D02*
X0145868Y0062990D01*
X0147047Y0061810D02*
X0133287Y0061810D01*
X0134467Y0062990D02*
X0136892Y0062990D01*
X0135793Y0064169D02*
X0135056Y0064169D01*
X0139758Y0064169D02*
X0140577Y0064169D01*
X0140577Y0062990D02*
X0139758Y0062990D01*
X0139758Y0065349D02*
X0140577Y0065349D01*
X0140577Y0066528D02*
X0139758Y0066528D01*
X0139758Y0067708D02*
X0140577Y0067708D01*
X0127393Y0070710D02*
X0127179Y0070621D01*
X0125696Y0069138D01*
X0125374Y0068362D01*
X0124639Y0070138D01*
X0123155Y0071621D01*
X0122942Y0071710D01*
X0122942Y0074702D01*
X0122520Y0075721D01*
X0122342Y0075899D01*
X0122342Y0085435D01*
X0123049Y0084729D01*
X0124423Y0084159D01*
X0125911Y0084159D01*
X0127286Y0084729D01*
X0127993Y0085435D01*
X0127993Y0075899D01*
X0127815Y0075721D01*
X0127393Y0074702D01*
X0127393Y0070710D01*
X0127393Y0071247D02*
X0123530Y0071247D01*
X0122942Y0072426D02*
X0127393Y0072426D01*
X0127393Y0073606D02*
X0122942Y0073606D01*
X0122907Y0074786D02*
X0127427Y0074786D01*
X0127993Y0075965D02*
X0122342Y0075965D01*
X0122342Y0077145D02*
X0127993Y0077145D01*
X0127993Y0078324D02*
X0122342Y0078324D01*
X0122342Y0079504D02*
X0127993Y0079504D01*
X0127993Y0080684D02*
X0122342Y0080684D01*
X0122342Y0081863D02*
X0127993Y0081863D01*
X0127993Y0083043D02*
X0122342Y0083043D01*
X0122342Y0084223D02*
X0124271Y0084223D01*
X0126064Y0084223D02*
X0127993Y0084223D01*
X0127959Y0085402D02*
X0127993Y0085402D01*
X0122375Y0085402D02*
X0122342Y0085402D01*
X0117993Y0085402D02*
X0112342Y0085402D01*
X0112342Y0084223D02*
X0117993Y0084223D01*
X0117993Y0083043D02*
X0112342Y0083043D01*
X0112342Y0081863D02*
X0117993Y0081863D01*
X0117993Y0080684D02*
X0112342Y0080684D01*
X0112342Y0079504D02*
X0117993Y0079504D01*
X0117993Y0078324D02*
X0112342Y0078324D01*
X0112342Y0077145D02*
X0117993Y0077145D01*
X0117993Y0075965D02*
X0112342Y0075965D01*
X0112342Y0075899D02*
X0112342Y0090749D01*
X0117318Y0095725D01*
X0117993Y0096399D01*
X0117993Y0075899D01*
X0117815Y0075721D01*
X0117393Y0074702D01*
X0117393Y0071710D01*
X0117179Y0071621D01*
X0115696Y0070138D01*
X0114960Y0068362D01*
X0114639Y0069138D01*
X0113155Y0070621D01*
X0112942Y0070710D01*
X0112942Y0074702D01*
X0112520Y0075721D01*
X0112342Y0075899D01*
X0112907Y0074786D02*
X0117427Y0074786D01*
X0117393Y0073606D02*
X0112942Y0073606D01*
X0112942Y0072426D02*
X0117393Y0072426D01*
X0116805Y0071247D02*
X0112942Y0071247D01*
X0113709Y0070067D02*
X0115666Y0070067D01*
X0115178Y0068888D02*
X0114743Y0068888D01*
X0115056Y0064169D02*
X0115692Y0064169D01*
X0116868Y0062990D02*
X0114467Y0062990D01*
X0124038Y0055912D02*
X0262327Y0055912D01*
X0262604Y0062990D02*
X0184859Y0062990D01*
X0185708Y0064169D02*
X0264125Y0064169D01*
X0272327Y0064169D02*
X0273508Y0064169D01*
X0273508Y0062990D02*
X0272327Y0062990D01*
X0272327Y0061810D02*
X0273508Y0061810D01*
X0273508Y0060630D02*
X0272327Y0060630D01*
X0272327Y0059451D02*
X0273508Y0059451D01*
X0273508Y0058271D02*
X0272327Y0058271D01*
X0277979Y0065349D02*
X0186196Y0065349D01*
X0186426Y0066528D02*
X0277985Y0066528D01*
X0277991Y0067708D02*
X0186426Y0067708D01*
X0186222Y0068888D02*
X0277997Y0068888D01*
X0278002Y0070067D02*
X0185734Y0070067D01*
X0184922Y0071247D02*
X0278008Y0071247D01*
X0278014Y0072426D02*
X0183742Y0072426D01*
X0164243Y0086582D02*
X0162342Y0086582D01*
X0162342Y0087761D02*
X0164243Y0087761D01*
X0164243Y0088941D02*
X0162342Y0088941D01*
X0162342Y0090121D02*
X0164243Y0090121D01*
X0164243Y0091300D02*
X0162342Y0091300D01*
X0162823Y0092480D02*
X0164243Y0092480D01*
X0164243Y0093659D02*
X0163592Y0093659D01*
X0163592Y0094839D02*
X0164243Y0094839D01*
X0164243Y0096019D02*
X0163592Y0096019D01*
X0163592Y0097198D02*
X0164243Y0097198D01*
X0164243Y0098378D02*
X0163592Y0098378D01*
X0163592Y0099558D02*
X0164243Y0099558D01*
X0164243Y0100737D02*
X0163592Y0100737D01*
X0163592Y0101917D02*
X0164243Y0101917D01*
X0164243Y0103096D02*
X0163592Y0103096D01*
X0163592Y0104276D02*
X0164243Y0104276D01*
X0164242Y0105456D02*
X0163592Y0105456D01*
X0163592Y0106635D02*
X0164539Y0106635D01*
X0163984Y0107815D02*
X0163592Y0107815D01*
X0157993Y0110174D02*
X0157218Y0110174D01*
X0157993Y0111354D02*
X0156039Y0111354D01*
X0154859Y0112533D02*
X0157993Y0112533D01*
X0157993Y0113713D02*
X0153680Y0113713D01*
X0153592Y0114893D02*
X0157993Y0114893D01*
X0157993Y0116072D02*
X0153592Y0116072D01*
X0153592Y0117252D02*
X0158944Y0117252D01*
X0159243Y0118431D02*
X0153592Y0118431D01*
X0153592Y0119611D02*
X0159243Y0119611D01*
X0159243Y0120791D02*
X0153592Y0120791D01*
X0152922Y0121970D02*
X0159243Y0121970D01*
X0159243Y0123150D02*
X0151743Y0123150D01*
X0150563Y0124329D02*
X0159243Y0124329D01*
X0159243Y0125509D02*
X0149384Y0125509D01*
X0148204Y0126689D02*
X0159243Y0126689D01*
X0159243Y0127868D02*
X0147024Y0127868D01*
X0145845Y0129048D02*
X0157997Y0129048D01*
X0156523Y0130227D02*
X0144665Y0130227D01*
X0143983Y0131407D02*
X0156161Y0131407D01*
X0156323Y0132587D02*
X0143128Y0132587D01*
X0141893Y0133766D02*
X0157137Y0133766D01*
X0157411Y0134946D02*
X0142542Y0134946D01*
X0142923Y0136126D02*
X0157485Y0136126D01*
X0158175Y0137305D02*
X0142879Y0137305D01*
X0142230Y0138485D02*
X0169124Y0138485D01*
X0169124Y0139664D02*
X0142080Y0139664D01*
X0142817Y0140844D02*
X0169124Y0140844D01*
X0169124Y0142024D02*
X0142923Y0142024D01*
X0142507Y0143203D02*
X0169124Y0143203D01*
X0169124Y0144383D02*
X0140770Y0144383D01*
X0139564Y0144383D02*
X0030030Y0144383D01*
X0030030Y0145562D02*
X0164099Y0145562D01*
X0162360Y0146742D02*
X0030030Y0146742D01*
X0030030Y0147922D02*
X0161439Y0147922D01*
X0160950Y0149101D02*
X0030030Y0149101D01*
X0030030Y0150281D02*
X0160797Y0150281D01*
X0160797Y0151461D02*
X0030030Y0151461D01*
X0030030Y0152640D02*
X0161218Y0152640D01*
X0161827Y0153820D02*
X0030030Y0153820D01*
X0030030Y0154999D02*
X0039225Y0154999D01*
X0039030Y0156179D02*
X0030030Y0156179D01*
X0030030Y0157359D02*
X0039030Y0157359D01*
X0039030Y0158538D02*
X0030030Y0158538D01*
X0044114Y0158538D02*
X0045000Y0158538D01*
X0045000Y0157359D02*
X0044114Y0157359D01*
X0044114Y0156179D02*
X0045000Y0156179D01*
X0045000Y0154999D02*
X0044114Y0154999D01*
X0049889Y0154999D02*
X0078595Y0154999D01*
X0078400Y0156179D02*
X0050085Y0156179D01*
X0050085Y0157359D02*
X0078400Y0157359D01*
X0078400Y0158538D02*
X0050085Y0158538D01*
X0050085Y0160897D02*
X0078400Y0160897D01*
X0078400Y0162077D02*
X0050085Y0162077D01*
X0050085Y0163257D02*
X0078400Y0163257D01*
X0078615Y0164436D02*
X0049870Y0164436D01*
X0045000Y0164436D02*
X0044114Y0164436D01*
X0044114Y0163257D02*
X0045000Y0163257D01*
X0045000Y0162077D02*
X0044114Y0162077D01*
X0030030Y0143203D02*
X0137828Y0143203D01*
X0137411Y0142024D02*
X0128650Y0142024D01*
X0128825Y0140844D02*
X0136286Y0140844D01*
X0135107Y0139664D02*
X0128825Y0139664D01*
X0128825Y0138485D02*
X0133927Y0138485D01*
X0138071Y0130227D02*
X0138661Y0130227D01*
X0140423Y0125509D02*
X0140516Y0125509D01*
X0129243Y0114893D02*
X0128825Y0114893D01*
X0128825Y0113713D02*
X0129155Y0113713D01*
X0142539Y0108994D02*
X0143425Y0108994D01*
X0143425Y0107815D02*
X0142539Y0107815D01*
X0142539Y0106635D02*
X0143425Y0106635D01*
X0143425Y0105456D02*
X0142539Y0105456D01*
X0142539Y0104276D02*
X0143425Y0104276D01*
X0143425Y0103096D02*
X0142539Y0103096D01*
X0142539Y0101917D02*
X0143425Y0101917D01*
X0143425Y0100737D02*
X0142539Y0100737D01*
X0142539Y0099558D02*
X0143425Y0099558D01*
X0143425Y0098378D02*
X0142539Y0098378D01*
X0147877Y0098378D02*
X0155070Y0098378D01*
X0155378Y0099558D02*
X0156250Y0099558D01*
X0156642Y0100737D02*
X0156743Y0100737D01*
X0153169Y0100737D02*
X0152480Y0100737D01*
X0152480Y0099558D02*
X0153169Y0099558D01*
X0153169Y0101917D02*
X0152480Y0101917D01*
X0152480Y0103096D02*
X0153169Y0103096D01*
X0153169Y0104276D02*
X0152480Y0104276D01*
X0152480Y0105456D02*
X0153169Y0105456D01*
X0153169Y0106635D02*
X0152480Y0106635D01*
X0152480Y0107815D02*
X0153169Y0107815D01*
X0152247Y0108994D02*
X0147573Y0108994D01*
X0148491Y0107815D02*
X0150594Y0107815D01*
X0149136Y0106635D02*
X0148510Y0106635D01*
X0148510Y0100737D02*
X0149008Y0100737D01*
X0148510Y0099558D02*
X0150272Y0099558D01*
X0168592Y0099558D02*
X0169957Y0099558D01*
X0168693Y0100737D02*
X0168592Y0100737D01*
X0168592Y0098378D02*
X0177457Y0098378D01*
X0176825Y0099558D02*
X0175063Y0099558D01*
X0176327Y0100737D02*
X0176825Y0100737D01*
X0172854Y0100737D02*
X0172165Y0100737D01*
X0172165Y0099558D02*
X0172854Y0099558D01*
X0172854Y0101917D02*
X0172165Y0101917D01*
X0172165Y0103096D02*
X0172854Y0103096D01*
X0176199Y0106635D02*
X0176825Y0106635D01*
X0176844Y0107815D02*
X0174741Y0107815D01*
X0173713Y0108994D02*
X0177761Y0108994D01*
X0175073Y0133766D02*
X0186345Y0133766D01*
X0187171Y0134946D02*
X0176010Y0134946D01*
X0170261Y0133766D02*
X0164876Y0133766D01*
X0163697Y0134946D02*
X0169325Y0134946D01*
X0168927Y0136126D02*
X0162850Y0136126D01*
X0162159Y0137305D02*
X0168927Y0137305D01*
X0169124Y0145562D02*
X0168322Y0145562D01*
X0171624Y0151461D02*
X0172467Y0151461D01*
X0173647Y0152640D02*
X0171203Y0152640D01*
X0170594Y0153820D02*
X0174827Y0153820D01*
X0172854Y0156179D02*
X0172165Y0156179D01*
X0172165Y0160897D02*
X0172854Y0160897D01*
X0172854Y0162077D02*
X0172165Y0162077D01*
X0172165Y0163257D02*
X0172854Y0163257D01*
X0172854Y0164436D02*
X0172165Y0164436D01*
X0171919Y0164436D02*
X0167980Y0164436D01*
X0168195Y0163257D02*
X0169320Y0163257D01*
X0168367Y0162077D02*
X0168195Y0162077D01*
X0173101Y0164436D02*
X0175374Y0164436D01*
X0163012Y0164436D02*
X0162323Y0164436D01*
X0162323Y0163257D02*
X0163012Y0163257D01*
X0163012Y0162077D02*
X0162323Y0162077D01*
X0162323Y0160897D02*
X0163012Y0160897D01*
X0157140Y0162077D02*
X0156967Y0162077D01*
X0157140Y0163257D02*
X0156014Y0163257D01*
X0157355Y0164436D02*
X0153416Y0164436D01*
X0153169Y0164436D02*
X0152480Y0164436D01*
X0152234Y0164436D02*
X0134912Y0164436D01*
X0134665Y0164436D02*
X0133976Y0164436D01*
X0133730Y0164436D02*
X0128610Y0164436D01*
X0128825Y0163257D02*
X0131131Y0163257D01*
X0130179Y0162077D02*
X0128825Y0162077D01*
X0128825Y0160897D02*
X0129695Y0160897D01*
X0129683Y0158538D02*
X0128825Y0158538D01*
X0128825Y0157359D02*
X0130161Y0157359D01*
X0131097Y0156179D02*
X0128825Y0156179D01*
X0128630Y0154999D02*
X0133514Y0154999D01*
X0133976Y0154999D02*
X0134665Y0154999D01*
X0135127Y0154999D02*
X0152018Y0154999D01*
X0152480Y0154999D02*
X0153169Y0154999D01*
X0153631Y0154999D02*
X0157335Y0154999D01*
X0157140Y0156179D02*
X0156048Y0156179D01*
X0156985Y0157359D02*
X0157140Y0157359D01*
X0153169Y0157359D02*
X0152480Y0157359D01*
X0152480Y0158538D02*
X0153169Y0158538D01*
X0153169Y0156179D02*
X0152480Y0156179D01*
X0149601Y0156179D02*
X0137544Y0156179D01*
X0138481Y0157359D02*
X0148665Y0157359D01*
X0148187Y0158538D02*
X0138958Y0158538D01*
X0138947Y0160897D02*
X0148198Y0160897D01*
X0148682Y0162077D02*
X0138463Y0162077D01*
X0137510Y0163257D02*
X0149635Y0163257D01*
X0152480Y0163257D02*
X0153169Y0163257D01*
X0153169Y0162077D02*
X0152480Y0162077D01*
X0152480Y0160897D02*
X0153169Y0160897D01*
X0134665Y0160897D02*
X0133976Y0160897D01*
X0133976Y0162077D02*
X0134665Y0162077D01*
X0134665Y0163257D02*
X0133976Y0163257D01*
X0133976Y0158538D02*
X0134665Y0158538D01*
X0134665Y0157359D02*
X0133976Y0157359D01*
X0133976Y0156179D02*
X0134665Y0156179D01*
X0123740Y0156179D02*
X0122854Y0156179D01*
X0122854Y0154999D02*
X0123740Y0154999D01*
X0123740Y0157359D02*
X0122854Y0157359D01*
X0122854Y0158538D02*
X0123740Y0158538D01*
X0123740Y0162077D02*
X0122854Y0162077D01*
X0122854Y0163257D02*
X0123740Y0163257D01*
X0123740Y0164436D02*
X0122854Y0164436D01*
X0117985Y0164436D02*
X0089240Y0164436D01*
X0089455Y0163257D02*
X0117770Y0163257D01*
X0117770Y0162077D02*
X0089455Y0162077D01*
X0089455Y0160897D02*
X0117770Y0160897D01*
X0117770Y0158538D02*
X0089455Y0158538D01*
X0089455Y0157359D02*
X0117770Y0157359D01*
X0117770Y0156179D02*
X0089455Y0156179D01*
X0089259Y0154999D02*
X0117965Y0154999D01*
X0117944Y0142024D02*
X0030030Y0142024D01*
X0030030Y0140844D02*
X0117770Y0140844D01*
X0117770Y0139664D02*
X0030030Y0139664D01*
X0030030Y0138485D02*
X0117770Y0138485D01*
X0122854Y0139664D02*
X0123740Y0139664D01*
X0123740Y0140844D02*
X0122854Y0140844D01*
X0122854Y0142024D02*
X0123740Y0142024D01*
X0123740Y0136126D02*
X0122854Y0136126D01*
X0122854Y0134946D02*
X0123740Y0134946D01*
X0123740Y0133766D02*
X0122854Y0133766D01*
X0122854Y0132587D02*
X0123740Y0132587D01*
X0084370Y0154999D02*
X0083484Y0154999D01*
X0083484Y0156179D02*
X0084370Y0156179D01*
X0084370Y0157359D02*
X0083484Y0157359D01*
X0083484Y0158538D02*
X0084370Y0158538D01*
X0084370Y0162077D02*
X0083484Y0162077D01*
X0083484Y0163257D02*
X0084370Y0163257D01*
X0084370Y0164436D02*
X0083484Y0164436D01*
X0117612Y0096019D02*
X0117993Y0096019D01*
X0117993Y0094839D02*
X0116432Y0094839D01*
X0115253Y0093659D02*
X0117993Y0093659D01*
X0117993Y0092480D02*
X0114073Y0092480D01*
X0112894Y0091300D02*
X0117993Y0091300D01*
X0117993Y0090121D02*
X0112342Y0090121D01*
X0112342Y0088941D02*
X0117993Y0088941D01*
X0117993Y0087761D02*
X0112342Y0087761D01*
X0112342Y0086582D02*
X0117993Y0086582D01*
X0107993Y0086582D02*
X0107342Y0086582D01*
X0107342Y0087761D02*
X0107993Y0087761D01*
X0107993Y0088941D02*
X0107342Y0088941D01*
X0107342Y0090121D02*
X0107993Y0090121D01*
X0107993Y0091300D02*
X0107894Y0091300D01*
X0107993Y0085402D02*
X0107342Y0085402D01*
X0107342Y0084223D02*
X0107993Y0084223D01*
X0107993Y0083043D02*
X0107573Y0083043D01*
X0107923Y0081863D02*
X0107993Y0081863D01*
X0107993Y0080684D02*
X0107750Y0080684D01*
X0107993Y0079504D02*
X0106919Y0079504D01*
X0124668Y0070067D02*
X0126625Y0070067D01*
X0125592Y0068888D02*
X0125157Y0068888D01*
X0058594Y0028073D02*
X0059200Y0026938D01*
X0059693Y0025750D01*
X0060066Y0024519D01*
X0060317Y0023258D01*
X0060443Y0021978D01*
X0060443Y0021925D01*
X0047943Y0021925D01*
X0047943Y0020744D01*
X0060443Y0020744D01*
X0060443Y0020692D01*
X0060317Y0019412D01*
X0060066Y0018150D01*
X0059693Y0016919D01*
X0059200Y0015731D01*
X0058594Y0014597D01*
X0057879Y0013527D01*
X0057064Y0012533D01*
X0056154Y0011623D01*
X0055160Y0010808D01*
X0054090Y0010093D01*
X0052956Y0009487D01*
X0051768Y0008994D01*
X0050537Y0008621D01*
X0049275Y0008370D01*
X0047995Y0008244D01*
X0047943Y0008244D01*
X0047943Y0020744D01*
X0046762Y0020744D01*
X0046762Y0008244D01*
X0046709Y0008244D01*
X0045429Y0008370D01*
X0044168Y0008621D01*
X0042937Y0008994D01*
X0041749Y0009487D01*
X0040614Y0010093D01*
X0039545Y0010808D01*
X0038551Y0011623D01*
X0037641Y0012533D01*
X0036825Y0013527D01*
X0036111Y0014597D01*
X0035504Y0015731D01*
X0035012Y0016919D01*
X0034639Y0018150D01*
X0034388Y0019412D01*
X0034262Y0020692D01*
X0034262Y0020744D01*
X0046762Y0020744D01*
X0046762Y0021925D01*
X0034262Y0021925D01*
X0034262Y0021978D01*
X0034388Y0023258D01*
X0034639Y0024519D01*
X0035012Y0025750D01*
X0035504Y0026938D01*
X0036111Y0028073D01*
X0036825Y0029142D01*
X0037641Y0030136D01*
X0038551Y0031046D01*
X0039545Y0031862D01*
X0040614Y0032576D01*
X0041749Y0033183D01*
X0042937Y0033675D01*
X0044168Y0034048D01*
X0045429Y0034299D01*
X0046709Y0034425D01*
X0046762Y0034425D01*
X0046762Y0021925D01*
X0047943Y0021925D01*
X0047943Y0034425D01*
X0047995Y0034425D01*
X0049275Y0034299D01*
X0050537Y0034048D01*
X0051768Y0033675D01*
X0052956Y0033183D01*
X0054090Y0032576D01*
X0055160Y0031862D01*
X0056154Y0031046D01*
X0057064Y0030136D01*
X0057879Y0029142D01*
X0058594Y0028073D01*
X0058846Y0027601D02*
X0232709Y0027601D01*
X0232961Y0028073D02*
X0232355Y0026938D01*
X0231863Y0025750D01*
X0231489Y0024519D01*
X0231238Y0023258D01*
X0231112Y0021978D01*
X0231112Y0021925D01*
X0243612Y0021925D01*
X0243612Y0020744D01*
X0231112Y0020744D01*
X0231112Y0020692D01*
X0231238Y0019412D01*
X0231489Y0018150D01*
X0231863Y0016919D01*
X0232355Y0015731D01*
X0232961Y0014597D01*
X0233676Y0013527D01*
X0234492Y0012533D01*
X0235401Y0011623D01*
X0236395Y0010808D01*
X0237465Y0010093D01*
X0238599Y0009487D01*
X0239787Y0008994D01*
X0241018Y0008621D01*
X0242280Y0008370D01*
X0243560Y0008244D01*
X0243612Y0008244D01*
X0243612Y0020744D01*
X0244793Y0020744D01*
X0244793Y0008244D01*
X0244846Y0008244D01*
X0246126Y0008370D01*
X0247387Y0008621D01*
X0248618Y0008994D01*
X0249806Y0009487D01*
X0250941Y0010093D01*
X0252010Y0010808D01*
X0253004Y0011623D01*
X0253914Y0012533D01*
X0254730Y0013527D01*
X0255444Y0014597D01*
X0256051Y0015731D01*
X0256543Y0016919D01*
X0256916Y0018150D01*
X0257167Y0019412D01*
X0257293Y0020692D01*
X0257293Y0020744D01*
X0244793Y0020744D01*
X0244793Y0021925D01*
X0243612Y0021925D01*
X0243612Y0034425D01*
X0243560Y0034425D01*
X0242280Y0034299D01*
X0241018Y0034048D01*
X0239787Y0033675D01*
X0238599Y0033183D01*
X0237465Y0032576D01*
X0236395Y0031862D01*
X0235401Y0031046D01*
X0234492Y0030136D01*
X0233676Y0029142D01*
X0232961Y0028073D01*
X0233434Y0028781D02*
X0058121Y0028781D01*
X0057208Y0029960D02*
X0234347Y0029960D01*
X0235516Y0031140D02*
X0056039Y0031140D01*
X0054475Y0032320D02*
X0237080Y0032320D01*
X0239363Y0033499D02*
X0052192Y0033499D01*
X0047943Y0033499D02*
X0046762Y0033499D01*
X0046762Y0032320D02*
X0047943Y0032320D01*
X0047943Y0031140D02*
X0046762Y0031140D01*
X0046762Y0029960D02*
X0047943Y0029960D01*
X0047943Y0028781D02*
X0046762Y0028781D01*
X0046762Y0027601D02*
X0047943Y0027601D01*
X0047943Y0026421D02*
X0046762Y0026421D01*
X0046762Y0025242D02*
X0047943Y0025242D01*
X0047943Y0024062D02*
X0046762Y0024062D01*
X0046762Y0022883D02*
X0047943Y0022883D01*
X0047943Y0021703D02*
X0243612Y0021703D01*
X0243612Y0020523D02*
X0244793Y0020523D01*
X0244793Y0019344D02*
X0243612Y0019344D01*
X0243612Y0018164D02*
X0244793Y0018164D01*
X0244793Y0016985D02*
X0243612Y0016985D01*
X0243612Y0015805D02*
X0244793Y0015805D01*
X0244793Y0014625D02*
X0243612Y0014625D01*
X0243612Y0013446D02*
X0244793Y0013446D01*
X0244793Y0012266D02*
X0243612Y0012266D01*
X0243612Y0011087D02*
X0244793Y0011087D01*
X0244793Y0009907D02*
X0243612Y0009907D01*
X0243612Y0008727D02*
X0244793Y0008727D01*
X0247737Y0008727D02*
X0277702Y0008727D01*
X0277696Y0007548D02*
X0030030Y0007548D01*
X0030030Y0008727D02*
X0043818Y0008727D01*
X0046762Y0008727D02*
X0047943Y0008727D01*
X0047943Y0009907D02*
X0046762Y0009907D01*
X0046762Y0011087D02*
X0047943Y0011087D01*
X0047943Y0012266D02*
X0046762Y0012266D01*
X0046762Y0013446D02*
X0047943Y0013446D01*
X0047943Y0014625D02*
X0046762Y0014625D01*
X0046762Y0015805D02*
X0047943Y0015805D01*
X0047943Y0016985D02*
X0046762Y0016985D01*
X0046762Y0018164D02*
X0047943Y0018164D01*
X0047943Y0019344D02*
X0046762Y0019344D01*
X0046762Y0020523D02*
X0047943Y0020523D01*
X0046762Y0021703D02*
X0030030Y0021703D01*
X0030030Y0020523D02*
X0034278Y0020523D01*
X0034401Y0019344D02*
X0030030Y0019344D01*
X0030030Y0018164D02*
X0034636Y0018164D01*
X0034992Y0016985D02*
X0030030Y0016985D01*
X0030030Y0015805D02*
X0035474Y0015805D01*
X0036095Y0014625D02*
X0030030Y0014625D01*
X0030030Y0013446D02*
X0036892Y0013446D01*
X0037908Y0012266D02*
X0030030Y0012266D01*
X0030030Y0011087D02*
X0039205Y0011087D01*
X0040962Y0009907D02*
X0030030Y0009907D01*
X0030030Y0006368D02*
X0277690Y0006368D01*
X0277685Y0005188D02*
X0030030Y0005188D01*
X0050887Y0008727D02*
X0240668Y0008727D01*
X0237813Y0009907D02*
X0053742Y0009907D01*
X0055500Y0011087D02*
X0236055Y0011087D01*
X0234758Y0012266D02*
X0056797Y0012266D01*
X0057813Y0013446D02*
X0233742Y0013446D01*
X0232946Y0014625D02*
X0058609Y0014625D01*
X0059231Y0015805D02*
X0232324Y0015805D01*
X0231843Y0016985D02*
X0059712Y0016985D01*
X0060069Y0018164D02*
X0231486Y0018164D01*
X0231252Y0019344D02*
X0060303Y0019344D01*
X0060426Y0020523D02*
X0231129Y0020523D01*
X0231201Y0022883D02*
X0060354Y0022883D01*
X0060157Y0024062D02*
X0231398Y0024062D01*
X0231708Y0025242D02*
X0059847Y0025242D01*
X0059414Y0026421D02*
X0232141Y0026421D01*
X0243612Y0026421D02*
X0244793Y0026421D01*
X0244793Y0025242D02*
X0243612Y0025242D01*
X0243612Y0024062D02*
X0244793Y0024062D01*
X0244793Y0022883D02*
X0243612Y0022883D01*
X0244793Y0021925D02*
X0244793Y0034425D01*
X0244846Y0034425D01*
X0246126Y0034299D01*
X0247387Y0034048D01*
X0248618Y0033675D01*
X0249806Y0033183D01*
X0250941Y0032576D01*
X0252010Y0031862D01*
X0253004Y0031046D01*
X0253914Y0030136D01*
X0254730Y0029142D01*
X0255444Y0028073D01*
X0256051Y0026938D01*
X0256543Y0025750D01*
X0256916Y0024519D01*
X0257167Y0023258D01*
X0257293Y0021978D01*
X0257293Y0021925D01*
X0244793Y0021925D01*
X0244793Y0021703D02*
X0262327Y0021703D01*
X0262327Y0022883D02*
X0257204Y0022883D01*
X0257007Y0024062D02*
X0262327Y0024062D01*
X0262327Y0026421D02*
X0256265Y0026421D01*
X0256697Y0025242D02*
X0272327Y0025242D01*
X0272327Y0026421D02*
X0273508Y0026421D01*
X0273508Y0027601D02*
X0272327Y0027601D01*
X0272327Y0028781D02*
X0273508Y0028781D01*
X0273508Y0029960D02*
X0272327Y0029960D01*
X0272327Y0031140D02*
X0273508Y0031140D01*
X0277817Y0032320D02*
X0251325Y0032320D01*
X0252890Y0031140D02*
X0262704Y0031140D01*
X0262327Y0029960D02*
X0254058Y0029960D01*
X0254971Y0028781D02*
X0262327Y0028781D01*
X0262327Y0027601D02*
X0255696Y0027601D01*
X0249042Y0033499D02*
X0277823Y0033499D01*
X0277829Y0034679D02*
X0030030Y0034679D01*
X0030030Y0035858D02*
X0277835Y0035858D01*
X0277841Y0037038D02*
X0030030Y0037038D01*
X0030030Y0038218D02*
X0277846Y0038218D01*
X0277852Y0039397D02*
X0030030Y0039397D01*
X0030030Y0040577D02*
X0277858Y0040577D01*
X0277864Y0041756D02*
X0030030Y0041756D01*
X0030030Y0042936D02*
X0277869Y0042936D01*
X0277875Y0044116D02*
X0030030Y0044116D01*
X0030030Y0045295D02*
X0277881Y0045295D01*
X0277887Y0046475D02*
X0030030Y0046475D01*
X0030030Y0047655D02*
X0277893Y0047655D01*
X0277898Y0048834D02*
X0030030Y0048834D01*
X0030030Y0033499D02*
X0042513Y0033499D01*
X0040230Y0032320D02*
X0030030Y0032320D01*
X0030030Y0031140D02*
X0038665Y0031140D01*
X0037497Y0029960D02*
X0030030Y0029960D01*
X0030030Y0028781D02*
X0036584Y0028781D01*
X0035859Y0027601D02*
X0030030Y0027601D01*
X0030030Y0026421D02*
X0035290Y0026421D01*
X0034858Y0025242D02*
X0030030Y0025242D01*
X0030030Y0024062D02*
X0034548Y0024062D01*
X0034351Y0022883D02*
X0030030Y0022883D01*
X0190276Y0146742D02*
X0190965Y0146742D01*
X0190965Y0147922D02*
X0190276Y0147922D01*
X0190276Y0149101D02*
X0190965Y0149101D01*
X0190965Y0151461D02*
X0190276Y0151461D01*
X0190276Y0152640D02*
X0190965Y0152640D01*
X0190965Y0153820D02*
X0190276Y0153820D01*
X0162577Y0180951D02*
X0161758Y0180951D01*
X0161758Y0182130D02*
X0162577Y0182130D01*
X0162577Y0183310D02*
X0161758Y0183310D01*
X0161758Y0184490D02*
X0162577Y0184490D01*
X0167242Y0206902D02*
X0181337Y0206902D01*
X0179696Y0208082D02*
X0166738Y0208082D01*
X0165787Y0209262D02*
X0179090Y0209262D01*
X0178927Y0210441D02*
X0167061Y0210441D01*
X0168240Y0211621D02*
X0179125Y0211621D01*
X0179779Y0212800D02*
X0168865Y0212800D01*
X0169354Y0213980D02*
X0173797Y0213980D01*
X0172986Y0215160D02*
X0169426Y0215160D01*
X0169426Y0216339D02*
X0172677Y0216339D01*
X0172729Y0217519D02*
X0169064Y0217519D01*
X0168576Y0218699D02*
X0173218Y0218699D01*
X0174438Y0219878D02*
X0167540Y0219878D01*
X0178396Y0219878D02*
X0180688Y0219878D01*
X0184646Y0219878D02*
X0186938Y0219878D01*
X0186297Y0213980D02*
X0185287Y0213980D01*
X0180047Y0213980D02*
X0179037Y0213980D01*
X0272327Y0091300D02*
X0273508Y0091300D01*
X0273508Y0090121D02*
X0272327Y0090121D01*
X0272327Y0088941D02*
X0273508Y0088941D01*
X0273508Y0087761D02*
X0272327Y0087761D01*
X0272327Y0086582D02*
X0273508Y0086582D01*
X0244793Y0033499D02*
X0243612Y0033499D01*
X0243612Y0032320D02*
X0244793Y0032320D01*
X0244793Y0031140D02*
X0243612Y0031140D01*
X0243612Y0029960D02*
X0244793Y0029960D01*
X0244793Y0028781D02*
X0243612Y0028781D01*
X0243612Y0027601D02*
X0244793Y0027601D01*
X0257277Y0020523D02*
X0262513Y0020523D01*
X0263566Y0019344D02*
X0257154Y0019344D01*
X0256919Y0018164D02*
X0277748Y0018164D01*
X0277742Y0016985D02*
X0256563Y0016985D01*
X0256081Y0015805D02*
X0277737Y0015805D01*
X0277731Y0014625D02*
X0255460Y0014625D01*
X0254663Y0013446D02*
X0277725Y0013446D01*
X0277719Y0012266D02*
X0253647Y0012266D01*
X0252350Y0011087D02*
X0277714Y0011087D01*
X0277708Y0009907D02*
X0250593Y0009907D01*
X0272327Y0019344D02*
X0273508Y0019344D01*
X0273508Y0020523D02*
X0272327Y0020523D01*
X0272327Y0021703D02*
X0273508Y0021703D01*
X0273508Y0022883D02*
X0272327Y0022883D01*
X0272327Y0024062D02*
X0273508Y0024062D01*
D16*
X0272667Y0011650D03*
X0260167Y0036650D03*
X0253917Y0036650D03*
X0246417Y0038525D03*
X0241417Y0042275D03*
X0238292Y0047900D03*
X0237667Y0053525D03*
X0237667Y0058525D03*
X0233292Y0064150D03*
X0227042Y0065400D03*
X0220792Y0065400D03*
X0215167Y0067275D03*
X0210167Y0072275D03*
X0207042Y0078525D03*
X0207042Y0084775D03*
X0207042Y0092275D03*
X0207042Y0098525D03*
X0207042Y0104775D03*
X0202042Y0111025D03*
X0196417Y0116025D03*
X0202667Y0127275D03*
X0200167Y0131650D03*
X0195792Y0134775D03*
X0202667Y0137275D03*
X0207667Y0140400D03*
X0211417Y0145400D03*
X0216417Y0149150D03*
X0220167Y0154150D03*
X0220167Y0160400D03*
X0220167Y0166650D03*
X0220167Y0172900D03*
X0220167Y0180400D03*
X0225167Y0185400D03*
X0233917Y0185400D03*
X0237667Y0179150D03*
X0247667Y0181650D03*
X0247667Y0175400D03*
X0248917Y0169150D03*
X0253917Y0167275D03*
X0259542Y0167275D03*
X0259542Y0156025D03*
X0252042Y0156025D03*
X0245167Y0159150D03*
X0240167Y0164150D03*
X0237667Y0170400D03*
X0246417Y0187900D03*
X0242667Y0191650D03*
X0246417Y0195400D03*
X0247667Y0202900D03*
X0247667Y0209150D03*
X0248292Y0215400D03*
X0253292Y0216650D03*
X0259542Y0216650D03*
X0257042Y0226650D03*
X0241417Y0222275D03*
X0238292Y0217900D03*
X0238292Y0211650D03*
X0238292Y0205400D03*
X0237667Y0199775D03*
X0231417Y0197275D03*
X0225167Y0197900D03*
X0216417Y0195400D03*
X0211417Y0198215D03*
X0211417Y0190400D03*
X0207667Y0185400D03*
X0207667Y0177900D03*
X0207667Y0170400D03*
X0207667Y0164150D03*
X0207667Y0159150D03*
X0202667Y0154775D03*
X0197667Y0150400D03*
X0178917Y0171650D03*
X0167667Y0144150D03*
X0172667Y0136650D03*
X0168917Y0132275D03*
X0172667Y0127900D03*
X0173917Y0119150D03*
X0157667Y0120400D03*
X0158917Y0131650D03*
X0160167Y0135400D03*
X0157667Y0144150D03*
X0142667Y0146650D03*
X0140167Y0141650D03*
X0140167Y0136650D03*
X0141417Y0130400D03*
X0137667Y0125400D03*
X0141417Y0122900D03*
X0142667Y0117900D03*
X0155167Y0087900D03*
X0155167Y0074775D03*
X0165167Y0074775D03*
X0176417Y0087900D03*
X0213917Y0117900D03*
X0217042Y0113525D03*
X0220792Y0107275D03*
X0220792Y0099775D03*
X0220792Y0093525D03*
X0220792Y0087275D03*
X0220792Y0081025D03*
X0226417Y0077900D03*
X0233292Y0078525D03*
X0237667Y0083525D03*
X0238292Y0089775D03*
X0239542Y0097900D03*
X0244542Y0103525D03*
X0250792Y0106025D03*
X0258292Y0107275D03*
X0258292Y0096025D03*
X0253292Y0096025D03*
X0248292Y0093525D03*
X0247667Y0087275D03*
X0247042Y0081025D03*
X0245792Y0076025D03*
X0242042Y0071650D03*
X0245792Y0066025D03*
X0247042Y0059775D03*
X0247042Y0053525D03*
X0248292Y0048525D03*
X0252667Y0046650D03*
X0258917Y0046650D03*
X0272667Y0071650D03*
X0208917Y0122900D03*
X0227667Y0140400D03*
X0272667Y0131650D03*
X0272667Y0191650D03*
X0223917Y0215715D03*
X0218917Y0215715D03*
X0218917Y0221340D03*
X0213917Y0221340D03*
X0211417Y0215715D03*
X0205167Y0221340D03*
X0205167Y0226965D03*
X0200167Y0226965D03*
X0197667Y0233215D03*
X0205167Y0233215D03*
X0205167Y0239465D03*
X0200167Y0239465D03*
X0205167Y0244465D03*
X0208917Y0249465D03*
X0213917Y0249465D03*
X0218917Y0249465D03*
X0218917Y0244465D03*
X0213917Y0244465D03*
X0223917Y0244465D03*
X0223917Y0249465D03*
X0223917Y0239465D03*
X0223917Y0233215D03*
X0223917Y0226965D03*
X0223917Y0221340D03*
X0221417Y0208215D03*
X0188917Y0216650D03*
X0182667Y0216650D03*
X0176417Y0216650D03*
X0182667Y0210400D03*
X0181417Y0233215D03*
X0172667Y0233215D03*
X0157667Y0230715D03*
X0137667Y0208215D03*
X0128917Y0199465D03*
X0120167Y0208215D03*
X0068917Y0205715D03*
X0068917Y0230715D03*
X0068917Y0251965D03*
X0095167Y0087900D03*
X0105167Y0081650D03*
X0105167Y0074775D03*
X0115167Y0074775D03*
X0125167Y0074775D03*
X0125167Y0087900D03*
X0077667Y0077900D03*
X0072667Y0071650D03*
X0053917Y0080400D03*
X0047667Y0071650D03*
X0272667Y0250400D03*
D17*
X0178917Y0171650D02*
X0178917Y0152900D01*
X0172667Y0146650D01*
X0172667Y0136650D01*
X0172667Y0127900D02*
X0176417Y0124150D01*
X0191417Y0124150D01*
X0200167Y0131650D01*
D18*
X0172667Y0115400D02*
X0172667Y0111025D01*
X0166417Y0105400D01*
X0166417Y0081650D01*
X0170167Y0077900D01*
X0160167Y0074150D02*
X0160167Y0092900D01*
X0161417Y0094150D01*
X0161417Y0107900D01*
X0160167Y0109150D01*
X0160167Y0115400D01*
X0161417Y0116650D01*
X0161417Y0129150D01*
X0158917Y0131650D01*
X0160167Y0135400D02*
X0165167Y0130400D01*
X0165167Y0122900D01*
X0172667Y0115400D01*
X0158917Y0105400D02*
X0151417Y0112900D01*
X0151417Y0120400D01*
X0141417Y0130400D01*
X0140167Y0135400D02*
X0130167Y0125400D01*
X0118917Y0125400D01*
X0116417Y0122900D01*
X0116417Y0097900D01*
X0110167Y0091650D01*
X0110167Y0074150D01*
X0105167Y0081650D02*
X0105167Y0091650D01*
X0112667Y0099150D01*
X0112667Y0125400D01*
X0116417Y0129150D01*
X0127667Y0129150D01*
X0140167Y0141650D01*
X0136417Y0125400D02*
X0131417Y0120400D01*
X0131417Y0112900D01*
X0127667Y0109150D01*
X0122667Y0109150D01*
X0120167Y0106650D01*
X0120167Y0074150D01*
X0130167Y0074150D02*
X0130167Y0096650D01*
X0127667Y0099150D01*
X0127667Y0105400D01*
X0136417Y0114150D01*
X0136417Y0117900D01*
X0141417Y0122900D01*
X0158917Y0105400D02*
X0158917Y0099150D01*
X0150167Y0090400D01*
X0150167Y0074150D01*
D19*
X0150167Y0066150D01*
X0160167Y0067150D02*
X0160167Y0074150D01*
X0170167Y0074150D02*
X0170167Y0066150D01*
X0130167Y0066150D02*
X0130167Y0074150D01*
X0130167Y0065400D02*
X0126417Y0061650D01*
X0120167Y0067150D02*
X0120167Y0074150D01*
X0110167Y0074150D02*
X0110167Y0066150D01*
X0090167Y0066150D02*
X0090167Y0071650D01*
M02*
