G75*
%MOIN*%
%OFA0B0*%
%FSLAX25Y25*%
%IPPOS*%
%LPD*%
%AMOC8*
5,1,8,0,0,1.08239X$1,22.5*
%
%ADD10C,0.07028*%
%ADD11C,0.06358*%
%ADD12C,0.16598*%
%ADD13C,0.06800*%
%ADD14C,0.02362*%
%ADD15C,0.01299*%
D10*
X0064242Y0103598D03*
X0044557Y0125941D03*
X0044557Y0159701D03*
X0083927Y0159701D03*
X0123297Y0159701D03*
X0123297Y0137358D03*
X0123297Y0116098D03*
X0103612Y0103598D03*
X0142982Y0103598D03*
X0182352Y0103598D03*
D11*
X0172510Y0103598D03*
X0152825Y0103598D03*
X0134321Y0103598D03*
X0190620Y0112752D03*
X0190620Y0131650D03*
X0190620Y0150547D03*
X0172510Y0159701D03*
X0162667Y0159701D03*
X0152825Y0159701D03*
X0134321Y0159701D03*
D12*
X0047352Y0237870D03*
X0244203Y0237870D03*
X0244203Y0021335D03*
X0047352Y0021335D03*
D13*
X0090167Y0066150D03*
X0100167Y0067150D03*
X0110167Y0066150D03*
X0120167Y0067150D03*
X0130167Y0066150D03*
X0140167Y0067150D03*
X0150167Y0066150D03*
X0160167Y0067150D03*
X0170167Y0066150D03*
X0180167Y0067150D03*
X0162167Y0185400D03*
X0163167Y0195400D03*
X0162167Y0205400D03*
X0163167Y0215400D03*
D14*
X0176417Y0216650D03*
X0182667Y0216650D03*
X0188917Y0216650D03*
X0182667Y0210400D03*
X0200167Y0226965D03*
X0205167Y0226965D03*
X0205167Y0221340D03*
X0211417Y0215715D03*
X0213917Y0221340D03*
X0218917Y0221340D03*
X0223917Y0221340D03*
X0223917Y0226965D03*
X0223917Y0233215D03*
X0223917Y0239465D03*
X0223917Y0244465D03*
X0223917Y0249465D03*
X0218917Y0249465D03*
X0213917Y0249465D03*
X0213917Y0244465D03*
X0218917Y0244465D03*
X0208917Y0249465D03*
X0205167Y0244465D03*
X0205167Y0239465D03*
X0200167Y0239465D03*
X0197667Y0233215D03*
X0205167Y0233215D03*
X0218917Y0215715D03*
X0223917Y0215715D03*
X0221417Y0208215D03*
X0211417Y0198215D03*
X0216417Y0195400D03*
X0211417Y0190400D03*
X0207667Y0185400D03*
X0207667Y0177900D03*
X0207667Y0170400D03*
X0207667Y0164150D03*
X0207667Y0159150D03*
X0202667Y0154775D03*
X0197667Y0150400D03*
X0207667Y0140400D03*
X0202667Y0137275D03*
X0200167Y0131650D03*
X0202667Y0127275D03*
X0208917Y0122900D03*
X0213917Y0117900D03*
X0217042Y0113525D03*
X0220792Y0107275D03*
X0220792Y0099775D03*
X0220792Y0093525D03*
X0220792Y0087275D03*
X0220792Y0081025D03*
X0226417Y0077900D03*
X0233292Y0078525D03*
X0237667Y0083525D03*
X0238292Y0089775D03*
X0239542Y0097900D03*
X0244542Y0103525D03*
X0250792Y0106025D03*
X0258292Y0107275D03*
X0258292Y0096025D03*
X0253292Y0096025D03*
X0248292Y0093525D03*
X0247667Y0087275D03*
X0247042Y0081025D03*
X0245792Y0076025D03*
X0242042Y0071650D03*
X0245792Y0066025D03*
X0247042Y0059775D03*
X0247042Y0053525D03*
X0248292Y0048525D03*
X0252667Y0046650D03*
X0258917Y0046650D03*
X0260167Y0036650D03*
X0253917Y0036650D03*
X0246417Y0038525D03*
X0241417Y0042275D03*
X0238292Y0047900D03*
X0237667Y0053525D03*
X0237667Y0058525D03*
X0233292Y0064150D03*
X0227042Y0065400D03*
X0220792Y0065400D03*
X0215167Y0067275D03*
X0210167Y0072275D03*
X0207042Y0078525D03*
X0207042Y0084775D03*
X0207042Y0092275D03*
X0207042Y0098525D03*
X0207042Y0104775D03*
X0202042Y0111025D03*
X0196417Y0116025D03*
X0195792Y0134775D03*
X0211417Y0145400D03*
X0216417Y0149150D03*
X0220167Y0154150D03*
X0220167Y0160400D03*
X0220167Y0166650D03*
X0220167Y0172900D03*
X0220167Y0180400D03*
X0225167Y0185400D03*
X0233917Y0185400D03*
X0237667Y0179150D03*
X0247667Y0181650D03*
X0247667Y0175400D03*
X0248917Y0169150D03*
X0253917Y0167275D03*
X0259542Y0167275D03*
X0259542Y0156025D03*
X0252042Y0156025D03*
X0245167Y0159150D03*
X0240167Y0164150D03*
X0237667Y0170400D03*
X0246417Y0187900D03*
X0242667Y0191650D03*
X0246417Y0195400D03*
X0247667Y0202900D03*
X0247667Y0209150D03*
X0248292Y0215400D03*
X0253292Y0216650D03*
X0259542Y0216650D03*
X0257042Y0226650D03*
X0241417Y0222275D03*
X0238292Y0217900D03*
X0238292Y0211650D03*
X0238292Y0205400D03*
X0237667Y0199775D03*
X0231417Y0197275D03*
X0225167Y0197900D03*
X0181417Y0233215D03*
X0172667Y0233215D03*
X0157667Y0230715D03*
X0137667Y0208215D03*
X0128917Y0199465D03*
X0120167Y0208215D03*
X0068917Y0205715D03*
X0068917Y0230715D03*
X0068917Y0251965D03*
X0178917Y0171650D03*
X0167667Y0144150D03*
X0172667Y0136650D03*
X0168917Y0132275D03*
X0172667Y0127900D03*
X0173917Y0119150D03*
X0157667Y0120400D03*
X0158917Y0131650D03*
X0160167Y0135400D03*
X0157667Y0144150D03*
X0142667Y0146650D03*
X0140167Y0141650D03*
X0140167Y0136650D03*
X0141417Y0130400D03*
X0137667Y0125400D03*
X0141417Y0122900D03*
X0142667Y0117900D03*
X0155167Y0087900D03*
X0155167Y0074775D03*
X0165167Y0074775D03*
X0176417Y0087900D03*
X0125167Y0087900D03*
X0125167Y0074775D03*
X0115167Y0074775D03*
X0105167Y0074775D03*
X0105167Y0081650D03*
X0095167Y0087900D03*
X0077667Y0077900D03*
X0072667Y0071650D03*
X0053917Y0080400D03*
X0047667Y0071650D03*
X0227667Y0140400D03*
X0272667Y0131650D03*
X0272667Y0191650D03*
X0272667Y0250400D03*
X0272667Y0071650D03*
X0272667Y0011650D03*
D15*
X0030089Y0004071D02*
X0030089Y0255134D01*
X0066714Y0255134D01*
X0065697Y0254117D01*
X0065118Y0252720D01*
X0065118Y0251209D01*
X0065697Y0249812D01*
X0066765Y0248744D01*
X0068162Y0248165D01*
X0069673Y0248165D01*
X0071069Y0248744D01*
X0072138Y0249812D01*
X0072717Y0251209D01*
X0072717Y0252720D01*
X0072138Y0254117D01*
X0071121Y0255134D01*
X0281152Y0255134D01*
X0281152Y0004071D01*
X0030089Y0004071D01*
X0030089Y0004245D02*
X0281152Y0004245D01*
X0281152Y0005543D02*
X0030089Y0005543D01*
X0030089Y0006841D02*
X0281152Y0006841D01*
X0281152Y0008138D02*
X0274118Y0008138D01*
X0273423Y0007850D02*
X0274819Y0008429D01*
X0275888Y0009498D01*
X0276467Y0010894D01*
X0276467Y0012405D01*
X0275888Y0013802D01*
X0274819Y0014870D01*
X0273423Y0015449D01*
X0271912Y0015449D01*
X0270515Y0014870D01*
X0269447Y0013802D01*
X0268868Y0012405D01*
X0268868Y0010894D01*
X0269447Y0009498D01*
X0270515Y0008429D01*
X0271912Y0007850D01*
X0273423Y0007850D01*
X0271217Y0008138D02*
X0030089Y0008138D01*
X0030089Y0009436D02*
X0269508Y0009436D01*
X0268934Y0010734D02*
X0246821Y0010734D01*
X0245640Y0010417D02*
X0248417Y0011161D01*
X0250906Y0012599D01*
X0252939Y0014631D01*
X0254376Y0017121D01*
X0255120Y0019897D01*
X0255120Y0022772D01*
X0254376Y0025549D01*
X0252939Y0028038D01*
X0250906Y0030071D01*
X0248417Y0031508D01*
X0245640Y0032252D01*
X0242765Y0032252D01*
X0239989Y0031508D01*
X0237499Y0030071D01*
X0235467Y0028038D01*
X0234029Y0025549D01*
X0233285Y0022772D01*
X0233285Y0019897D01*
X0234029Y0017121D01*
X0235467Y0014631D01*
X0237499Y0012599D01*
X0239989Y0011161D01*
X0242765Y0010417D01*
X0245640Y0010417D01*
X0249924Y0012031D02*
X0268868Y0012031D01*
X0269251Y0013329D02*
X0251637Y0013329D01*
X0252934Y0014627D02*
X0270272Y0014627D01*
X0275063Y0014627D02*
X0281152Y0014627D01*
X0281152Y0015925D02*
X0253685Y0015925D01*
X0254403Y0017222D02*
X0281152Y0017222D01*
X0281152Y0018520D02*
X0254751Y0018520D01*
X0255099Y0019818D02*
X0281152Y0019818D01*
X0281152Y0021115D02*
X0255120Y0021115D01*
X0255120Y0022413D02*
X0281152Y0022413D01*
X0281152Y0023711D02*
X0254868Y0023711D01*
X0254521Y0025009D02*
X0281152Y0025009D01*
X0281152Y0026306D02*
X0253939Y0026306D01*
X0253189Y0027604D02*
X0281152Y0027604D01*
X0281152Y0028902D02*
X0252075Y0028902D01*
X0250683Y0030200D02*
X0281152Y0030200D01*
X0281152Y0031497D02*
X0248435Y0031497D01*
X0247173Y0034725D02*
X0248569Y0035304D01*
X0249638Y0036373D01*
X0250217Y0037769D01*
X0250217Y0039280D01*
X0249638Y0040677D01*
X0248569Y0041745D01*
X0247173Y0042324D01*
X0245662Y0042324D01*
X0245217Y0042139D01*
X0245217Y0043030D01*
X0244638Y0044427D01*
X0243569Y0045495D01*
X0242173Y0046074D01*
X0241648Y0046074D01*
X0242092Y0047144D01*
X0242092Y0048655D01*
X0241513Y0050052D01*
X0240540Y0051025D01*
X0240888Y0051373D01*
X0241467Y0052769D01*
X0241467Y0054280D01*
X0240888Y0055677D01*
X0240540Y0056025D01*
X0240888Y0056373D01*
X0241467Y0057769D01*
X0241467Y0059280D01*
X0240888Y0060677D01*
X0239819Y0061745D01*
X0238423Y0062324D01*
X0236912Y0062324D01*
X0236594Y0062192D01*
X0237092Y0063394D01*
X0237092Y0064905D01*
X0236513Y0066302D01*
X0235444Y0067370D01*
X0234048Y0067949D01*
X0232537Y0067949D01*
X0231140Y0067370D01*
X0230573Y0066803D01*
X0230263Y0067552D01*
X0229194Y0068620D01*
X0227798Y0069199D01*
X0226287Y0069199D01*
X0224890Y0068620D01*
X0223917Y0067647D01*
X0222944Y0068620D01*
X0221548Y0069199D01*
X0220037Y0069199D01*
X0218710Y0068649D01*
X0218388Y0069427D01*
X0217319Y0070495D01*
X0215923Y0071074D01*
X0214412Y0071074D01*
X0213652Y0070759D01*
X0213967Y0071519D01*
X0213967Y0073030D01*
X0213388Y0074427D01*
X0212319Y0075495D01*
X0210923Y0076074D01*
X0209964Y0076074D01*
X0210263Y0076373D01*
X0210842Y0077769D01*
X0210842Y0079280D01*
X0210263Y0080677D01*
X0209290Y0081650D01*
X0210263Y0082623D01*
X0210842Y0084019D01*
X0210842Y0085530D01*
X0210263Y0086927D01*
X0209194Y0087995D01*
X0207917Y0088525D01*
X0209194Y0089054D01*
X0210263Y0090123D01*
X0210842Y0091519D01*
X0210842Y0093030D01*
X0210263Y0094427D01*
X0209290Y0095400D01*
X0210263Y0096373D01*
X0210842Y0097769D01*
X0210842Y0099280D01*
X0210263Y0100677D01*
X0209290Y0101650D01*
X0210263Y0102623D01*
X0210842Y0104019D01*
X0210842Y0105530D01*
X0210263Y0106927D01*
X0209194Y0107995D01*
X0207798Y0108574D01*
X0206287Y0108574D01*
X0204890Y0107995D01*
X0203822Y0106927D01*
X0203243Y0105530D01*
X0203243Y0104019D01*
X0203822Y0102623D01*
X0204794Y0101650D01*
X0203822Y0100677D01*
X0203243Y0099280D01*
X0203243Y0097769D01*
X0203822Y0096373D01*
X0204794Y0095400D01*
X0203822Y0094427D01*
X0203243Y0093030D01*
X0203243Y0091519D01*
X0203822Y0090123D01*
X0204890Y0089054D01*
X0206168Y0088525D01*
X0204890Y0087995D01*
X0203822Y0086927D01*
X0203243Y0085530D01*
X0203243Y0084019D01*
X0203822Y0082623D01*
X0204794Y0081650D01*
X0203822Y0080677D01*
X0203243Y0079280D01*
X0203243Y0077769D01*
X0203822Y0076373D01*
X0204890Y0075304D01*
X0206287Y0074725D01*
X0207245Y0074725D01*
X0206947Y0074427D01*
X0206368Y0073030D01*
X0206368Y0071519D01*
X0206947Y0070123D01*
X0208015Y0069054D01*
X0209412Y0068475D01*
X0210923Y0068475D01*
X0211683Y0068790D01*
X0211368Y0068030D01*
X0211368Y0066519D01*
X0211947Y0065123D01*
X0213015Y0064054D01*
X0214412Y0063475D01*
X0215923Y0063475D01*
X0217250Y0064025D01*
X0217572Y0063248D01*
X0218640Y0062179D01*
X0220037Y0061600D01*
X0221548Y0061600D01*
X0222944Y0062179D01*
X0223917Y0063152D01*
X0224890Y0062179D01*
X0226287Y0061600D01*
X0227798Y0061600D01*
X0229194Y0062179D01*
X0229762Y0062746D01*
X0230072Y0061998D01*
X0231140Y0060929D01*
X0232537Y0060350D01*
X0234048Y0060350D01*
X0234366Y0060482D01*
X0233868Y0059280D01*
X0233868Y0057769D01*
X0234447Y0056373D01*
X0234794Y0056025D01*
X0234447Y0055677D01*
X0233868Y0054280D01*
X0233868Y0052769D01*
X0234447Y0051373D01*
X0235419Y0050400D01*
X0235072Y0050052D01*
X0234493Y0048655D01*
X0234493Y0047144D01*
X0235072Y0045748D01*
X0236140Y0044679D01*
X0237537Y0044100D01*
X0238061Y0044100D01*
X0237618Y0043030D01*
X0237618Y0041519D01*
X0238197Y0040123D01*
X0239265Y0039054D01*
X0240662Y0038475D01*
X0242173Y0038475D01*
X0242618Y0038660D01*
X0242618Y0037769D01*
X0243197Y0036373D01*
X0244265Y0035304D01*
X0245662Y0034725D01*
X0247173Y0034725D01*
X0248656Y0035390D02*
X0250327Y0035390D01*
X0250118Y0035894D02*
X0250697Y0034498D01*
X0251765Y0033429D01*
X0253162Y0032850D01*
X0254673Y0032850D01*
X0256069Y0033429D01*
X0257042Y0034402D01*
X0258015Y0033429D01*
X0259412Y0032850D01*
X0260923Y0032850D01*
X0262319Y0033429D01*
X0263388Y0034498D01*
X0263967Y0035894D01*
X0263967Y0037405D01*
X0263388Y0038802D01*
X0262319Y0039870D01*
X0260923Y0040449D01*
X0259412Y0040449D01*
X0258015Y0039870D01*
X0257042Y0038897D01*
X0256069Y0039870D01*
X0254673Y0040449D01*
X0253162Y0040449D01*
X0251765Y0039870D01*
X0250697Y0038802D01*
X0250118Y0037405D01*
X0250118Y0035894D01*
X0250118Y0036688D02*
X0249769Y0036688D01*
X0250217Y0037986D02*
X0250359Y0037986D01*
X0250215Y0039284D02*
X0251178Y0039284D01*
X0249678Y0040581D02*
X0281152Y0040581D01*
X0281152Y0039284D02*
X0262906Y0039284D01*
X0263726Y0037986D02*
X0281152Y0037986D01*
X0281152Y0036688D02*
X0263967Y0036688D01*
X0263758Y0035390D02*
X0281152Y0035390D01*
X0281152Y0034093D02*
X0262983Y0034093D01*
X0257351Y0034093D02*
X0256733Y0034093D01*
X0256656Y0039284D02*
X0257428Y0039284D01*
X0258162Y0042850D02*
X0259673Y0042850D01*
X0261069Y0043429D01*
X0262138Y0044498D01*
X0262717Y0045894D01*
X0262717Y0047405D01*
X0262138Y0048802D01*
X0261069Y0049870D01*
X0259673Y0050449D01*
X0258162Y0050449D01*
X0256765Y0049870D01*
X0255792Y0048897D01*
X0254819Y0049870D01*
X0253423Y0050449D01*
X0251912Y0050449D01*
X0251652Y0050341D01*
X0251513Y0050677D01*
X0250444Y0051745D01*
X0250422Y0051755D01*
X0250842Y0052769D01*
X0250842Y0054280D01*
X0250263Y0055677D01*
X0249290Y0056650D01*
X0250263Y0057623D01*
X0250842Y0059019D01*
X0250842Y0060530D01*
X0250263Y0061927D01*
X0249194Y0062995D01*
X0248446Y0063305D01*
X0249013Y0063873D01*
X0249592Y0065269D01*
X0249592Y0066780D01*
X0249013Y0068177D01*
X0247944Y0069245D01*
X0246548Y0069824D01*
X0245398Y0069824D01*
X0245842Y0070894D01*
X0245842Y0072225D01*
X0246548Y0072225D01*
X0247944Y0072804D01*
X0249013Y0073873D01*
X0249592Y0075269D01*
X0249592Y0076780D01*
X0249172Y0077794D01*
X0249194Y0077804D01*
X0250263Y0078873D01*
X0250842Y0080269D01*
X0250842Y0081780D01*
X0250263Y0083177D01*
X0249513Y0083927D01*
X0249819Y0084054D01*
X0250888Y0085123D01*
X0251467Y0086519D01*
X0251467Y0088030D01*
X0250888Y0089427D01*
X0250138Y0090177D01*
X0250444Y0090304D01*
X0251513Y0091373D01*
X0251965Y0092462D01*
X0252537Y0092225D01*
X0254048Y0092225D01*
X0255444Y0092804D01*
X0255792Y0093152D01*
X0256140Y0092804D01*
X0257537Y0092225D01*
X0259048Y0092225D01*
X0260444Y0092804D01*
X0261513Y0093873D01*
X0262092Y0095269D01*
X0262092Y0096780D01*
X0261513Y0098177D01*
X0260444Y0099245D01*
X0259048Y0099824D01*
X0257537Y0099824D01*
X0256140Y0099245D01*
X0255792Y0098897D01*
X0255444Y0099245D01*
X0254048Y0099824D01*
X0252537Y0099824D01*
X0251140Y0099245D01*
X0250072Y0098177D01*
X0249620Y0097087D01*
X0249048Y0097324D01*
X0247537Y0097324D01*
X0246140Y0096745D01*
X0245072Y0095677D01*
X0244493Y0094280D01*
X0244493Y0092769D01*
X0245072Y0091373D01*
X0245822Y0090622D01*
X0245515Y0090495D01*
X0244447Y0089427D01*
X0243868Y0088030D01*
X0243868Y0086519D01*
X0244447Y0085123D01*
X0245197Y0084372D01*
X0244890Y0084245D01*
X0243822Y0083177D01*
X0243243Y0081780D01*
X0243243Y0080269D01*
X0243663Y0079255D01*
X0243640Y0079245D01*
X0242572Y0078177D01*
X0241993Y0076780D01*
X0241993Y0075449D01*
X0241287Y0075449D01*
X0239890Y0074870D01*
X0238822Y0073802D01*
X0238243Y0072405D01*
X0238243Y0070894D01*
X0238822Y0069498D01*
X0239890Y0068429D01*
X0241287Y0067850D01*
X0242436Y0067850D01*
X0241993Y0066780D01*
X0241993Y0065269D01*
X0242572Y0063873D01*
X0243640Y0062804D01*
X0244389Y0062494D01*
X0243822Y0061927D01*
X0243243Y0060530D01*
X0243243Y0059019D01*
X0243822Y0057623D01*
X0244794Y0056650D01*
X0243822Y0055677D01*
X0243243Y0054280D01*
X0243243Y0052769D01*
X0243822Y0051373D01*
X0244890Y0050304D01*
X0244913Y0050294D01*
X0244493Y0049280D01*
X0244493Y0047769D01*
X0245072Y0046373D01*
X0246140Y0045304D01*
X0247537Y0044725D01*
X0249048Y0044725D01*
X0249308Y0044833D01*
X0249447Y0044498D01*
X0250515Y0043429D01*
X0251912Y0042850D01*
X0253423Y0042850D01*
X0254819Y0043429D01*
X0255792Y0044402D01*
X0256765Y0043429D01*
X0258162Y0042850D01*
X0257374Y0043177D02*
X0254211Y0043177D01*
X0251124Y0043177D02*
X0245156Y0043177D01*
X0244590Y0044474D02*
X0249470Y0044474D01*
X0248247Y0041879D02*
X0281152Y0041879D01*
X0281152Y0043177D02*
X0260461Y0043177D01*
X0262115Y0044474D02*
X0281152Y0044474D01*
X0281152Y0045772D02*
X0262666Y0045772D01*
X0262717Y0047070D02*
X0281152Y0047070D01*
X0281152Y0048368D02*
X0262318Y0048368D01*
X0261274Y0049665D02*
X0281152Y0049665D01*
X0281152Y0050963D02*
X0251227Y0050963D01*
X0250631Y0052261D02*
X0281152Y0052261D01*
X0281152Y0053559D02*
X0250842Y0053559D01*
X0250603Y0054856D02*
X0281152Y0054856D01*
X0281152Y0056154D02*
X0249786Y0056154D01*
X0250092Y0057452D02*
X0281152Y0057452D01*
X0281152Y0058749D02*
X0250730Y0058749D01*
X0250842Y0060047D02*
X0281152Y0060047D01*
X0281152Y0061345D02*
X0250504Y0061345D01*
X0249547Y0062643D02*
X0281152Y0062643D01*
X0281152Y0063940D02*
X0249041Y0063940D01*
X0249579Y0065238D02*
X0281152Y0065238D01*
X0281152Y0066536D02*
X0249592Y0066536D01*
X0249155Y0067834D02*
X0281152Y0067834D01*
X0281152Y0069131D02*
X0275522Y0069131D01*
X0275888Y0069498D02*
X0276467Y0070894D01*
X0276467Y0072405D01*
X0275888Y0073802D01*
X0274819Y0074870D01*
X0273423Y0075449D01*
X0271912Y0075449D01*
X0270515Y0074870D01*
X0269447Y0073802D01*
X0268868Y0072405D01*
X0268868Y0070894D01*
X0269447Y0069498D01*
X0270515Y0068429D01*
X0271912Y0067850D01*
X0273423Y0067850D01*
X0274819Y0068429D01*
X0275888Y0069498D01*
X0276274Y0070429D02*
X0281152Y0070429D01*
X0281152Y0071727D02*
X0276467Y0071727D01*
X0276210Y0073024D02*
X0281152Y0073024D01*
X0281152Y0074322D02*
X0275368Y0074322D01*
X0269967Y0074322D02*
X0249199Y0074322D01*
X0249592Y0075620D02*
X0281152Y0075620D01*
X0281152Y0076918D02*
X0249535Y0076918D01*
X0249606Y0078215D02*
X0281152Y0078215D01*
X0281152Y0079513D02*
X0250528Y0079513D01*
X0250842Y0080811D02*
X0281152Y0080811D01*
X0281152Y0082108D02*
X0250706Y0082108D01*
X0250034Y0083406D02*
X0281152Y0083406D01*
X0281152Y0084704D02*
X0250470Y0084704D01*
X0251252Y0086002D02*
X0281152Y0086002D01*
X0281152Y0087299D02*
X0251467Y0087299D01*
X0251232Y0088597D02*
X0281152Y0088597D01*
X0281152Y0089895D02*
X0250420Y0089895D01*
X0251333Y0091193D02*
X0281152Y0091193D01*
X0281152Y0092490D02*
X0259688Y0092490D01*
X0261429Y0093788D02*
X0281152Y0093788D01*
X0281152Y0095086D02*
X0262016Y0095086D01*
X0262092Y0096383D02*
X0281152Y0096383D01*
X0281152Y0097681D02*
X0261718Y0097681D01*
X0260711Y0098979D02*
X0281152Y0098979D01*
X0281152Y0100277D02*
X0246629Y0100277D01*
X0246694Y0100304D02*
X0247763Y0101373D01*
X0248342Y0102769D01*
X0248342Y0103103D01*
X0248640Y0102804D01*
X0250037Y0102225D01*
X0251548Y0102225D01*
X0252944Y0102804D01*
X0254013Y0103873D01*
X0254592Y0105269D01*
X0254592Y0106281D01*
X0255072Y0105123D01*
X0256140Y0104054D01*
X0257537Y0103475D01*
X0259048Y0103475D01*
X0260444Y0104054D01*
X0261513Y0105123D01*
X0262092Y0106519D01*
X0262092Y0108030D01*
X0261513Y0109427D01*
X0260444Y0110495D01*
X0259048Y0111074D01*
X0257537Y0111074D01*
X0256140Y0110495D01*
X0255072Y0109427D01*
X0254493Y0108030D01*
X0254493Y0107018D01*
X0254013Y0108177D01*
X0252944Y0109245D01*
X0251548Y0109824D01*
X0250037Y0109824D01*
X0248640Y0109245D01*
X0247572Y0108177D01*
X0246993Y0106780D01*
X0246993Y0106447D01*
X0246694Y0106745D01*
X0245298Y0107324D01*
X0243787Y0107324D01*
X0242390Y0106745D01*
X0241322Y0105677D01*
X0240743Y0104280D01*
X0240743Y0102769D01*
X0241322Y0101373D01*
X0241488Y0101206D01*
X0240298Y0101699D01*
X0238787Y0101699D01*
X0237390Y0101120D01*
X0236322Y0100052D01*
X0235743Y0098655D01*
X0235743Y0097144D01*
X0236322Y0095748D01*
X0237390Y0094679D01*
X0238787Y0094100D01*
X0240298Y0094100D01*
X0241694Y0094679D01*
X0242763Y0095748D01*
X0243342Y0097144D01*
X0243342Y0098655D01*
X0242763Y0100052D01*
X0242596Y0100218D01*
X0243787Y0099725D01*
X0245298Y0099725D01*
X0246694Y0100304D01*
X0247847Y0101574D02*
X0281152Y0101574D01*
X0281152Y0102872D02*
X0253013Y0102872D01*
X0254136Y0104170D02*
X0256024Y0104170D01*
X0254929Y0105468D02*
X0254592Y0105468D01*
X0254507Y0108063D02*
X0254060Y0108063D01*
X0255044Y0109361D02*
X0252666Y0109361D01*
X0248919Y0109361D02*
X0224040Y0109361D01*
X0224013Y0109427D02*
X0222944Y0110495D01*
X0221548Y0111074D01*
X0220037Y0111074D01*
X0219913Y0111023D01*
X0220263Y0111373D01*
X0220842Y0112769D01*
X0220842Y0114280D01*
X0220263Y0115677D01*
X0219194Y0116745D01*
X0217798Y0117324D01*
X0217717Y0117324D01*
X0217717Y0118655D01*
X0217138Y0120052D01*
X0216069Y0121120D01*
X0214673Y0121699D01*
X0213162Y0121699D01*
X0212402Y0121384D01*
X0212717Y0122144D01*
X0212717Y0123655D01*
X0212138Y0125052D01*
X0211069Y0126120D01*
X0209673Y0126699D01*
X0208162Y0126699D01*
X0206765Y0126120D01*
X0205974Y0125329D01*
X0206467Y0126519D01*
X0206467Y0128030D01*
X0205888Y0129427D01*
X0204819Y0130495D01*
X0203423Y0131074D01*
X0202976Y0131074D01*
X0202982Y0131090D01*
X0202982Y0132210D01*
X0202554Y0133244D01*
X0202322Y0133475D01*
X0203423Y0133475D01*
X0204819Y0134054D01*
X0205888Y0135123D01*
X0206467Y0136519D01*
X0206467Y0136785D01*
X0206912Y0136600D01*
X0208423Y0136600D01*
X0209819Y0137179D01*
X0210888Y0138248D01*
X0211467Y0139644D01*
X0211467Y0141155D01*
X0211282Y0141600D01*
X0212173Y0141600D01*
X0213569Y0142179D01*
X0214638Y0143248D01*
X0215217Y0144644D01*
X0215217Y0145535D01*
X0215662Y0145350D01*
X0217173Y0145350D01*
X0218569Y0145929D01*
X0219638Y0146998D01*
X0220217Y0148394D01*
X0220217Y0149905D01*
X0220032Y0150350D01*
X0220923Y0150350D01*
X0222319Y0150929D01*
X0223388Y0151998D01*
X0223967Y0153394D01*
X0223967Y0154905D01*
X0223388Y0156302D01*
X0222415Y0157275D01*
X0223388Y0158248D01*
X0223967Y0159644D01*
X0223967Y0161155D01*
X0223388Y0162552D01*
X0222415Y0163525D01*
X0223388Y0164498D01*
X0223967Y0165894D01*
X0223967Y0167405D01*
X0223388Y0168802D01*
X0222415Y0169775D01*
X0223388Y0170748D01*
X0223967Y0172144D01*
X0223967Y0173655D01*
X0223388Y0175052D01*
X0222319Y0176120D01*
X0221042Y0176650D01*
X0222319Y0177179D01*
X0223388Y0178248D01*
X0223967Y0179644D01*
X0223967Y0181155D01*
X0223652Y0181915D01*
X0224412Y0181600D01*
X0225923Y0181600D01*
X0227319Y0182179D01*
X0228388Y0183248D01*
X0228967Y0184644D01*
X0228967Y0186155D01*
X0228388Y0187552D01*
X0227319Y0188620D01*
X0225923Y0189199D01*
X0224412Y0189199D01*
X0223015Y0188620D01*
X0221947Y0187552D01*
X0221368Y0186155D01*
X0221368Y0184644D01*
X0221683Y0183884D01*
X0220923Y0184199D01*
X0219412Y0184199D01*
X0218015Y0183620D01*
X0216947Y0182552D01*
X0216368Y0181155D01*
X0216368Y0179644D01*
X0216947Y0178248D01*
X0218015Y0177179D01*
X0219293Y0176650D01*
X0218015Y0176120D01*
X0216947Y0175052D01*
X0216368Y0173655D01*
X0216368Y0172144D01*
X0216947Y0170748D01*
X0217919Y0169775D01*
X0216947Y0168802D01*
X0216368Y0167405D01*
X0216368Y0165894D01*
X0216947Y0164498D01*
X0217919Y0163525D01*
X0216947Y0162552D01*
X0216368Y0161155D01*
X0216368Y0159644D01*
X0216947Y0158248D01*
X0217919Y0157275D01*
X0216947Y0156302D01*
X0216368Y0154905D01*
X0216368Y0153394D01*
X0216552Y0152949D01*
X0215662Y0152949D01*
X0214265Y0152370D01*
X0213197Y0151302D01*
X0212618Y0149905D01*
X0212618Y0149014D01*
X0212173Y0149199D01*
X0210662Y0149199D01*
X0209265Y0148620D01*
X0208197Y0147552D01*
X0207618Y0146155D01*
X0207618Y0144644D01*
X0207802Y0144199D01*
X0206912Y0144199D01*
X0205515Y0143620D01*
X0204447Y0142552D01*
X0203868Y0141155D01*
X0203868Y0140889D01*
X0203423Y0141074D01*
X0201912Y0141074D01*
X0200515Y0140495D01*
X0199447Y0139427D01*
X0198868Y0138030D01*
X0198868Y0137072D01*
X0197944Y0137995D01*
X0196548Y0138574D01*
X0195037Y0138574D01*
X0193640Y0137995D01*
X0192705Y0137061D01*
X0191773Y0137447D01*
X0189467Y0137447D01*
X0187336Y0136564D01*
X0185705Y0134933D01*
X0184823Y0132803D01*
X0184823Y0130496D01*
X0185705Y0128366D01*
X0187336Y0126735D01*
X0189467Y0125852D01*
X0191773Y0125852D01*
X0193904Y0126735D01*
X0195535Y0128366D01*
X0196417Y0130496D01*
X0196417Y0130975D01*
X0196548Y0130975D01*
X0197352Y0131309D01*
X0197352Y0131090D01*
X0197781Y0130055D01*
X0198573Y0129263D01*
X0199261Y0128978D01*
X0198868Y0128030D01*
X0198868Y0126519D01*
X0199447Y0125123D01*
X0200515Y0124054D01*
X0201912Y0123475D01*
X0203423Y0123475D01*
X0204819Y0124054D01*
X0205611Y0124846D01*
X0205118Y0123655D01*
X0205118Y0122144D01*
X0205697Y0120748D01*
X0206765Y0119679D01*
X0208162Y0119100D01*
X0209673Y0119100D01*
X0210433Y0119415D01*
X0210118Y0118655D01*
X0210118Y0117144D01*
X0210697Y0115748D01*
X0211765Y0114679D01*
X0213162Y0114100D01*
X0213243Y0114100D01*
X0213243Y0112769D01*
X0213822Y0111373D01*
X0214890Y0110304D01*
X0216287Y0109725D01*
X0217798Y0109725D01*
X0217921Y0109776D01*
X0217572Y0109427D01*
X0216993Y0108030D01*
X0216993Y0106519D01*
X0217572Y0105123D01*
X0218640Y0104054D01*
X0219918Y0103525D01*
X0218640Y0102995D01*
X0217572Y0101927D01*
X0216993Y0100530D01*
X0216993Y0099019D01*
X0217572Y0097623D01*
X0218544Y0096650D01*
X0217572Y0095677D01*
X0216993Y0094280D01*
X0216993Y0092769D01*
X0217572Y0091373D01*
X0218544Y0090400D01*
X0217572Y0089427D01*
X0216993Y0088030D01*
X0216993Y0086519D01*
X0217572Y0085123D01*
X0218544Y0084150D01*
X0217572Y0083177D01*
X0216993Y0081780D01*
X0216993Y0080269D01*
X0217572Y0078873D01*
X0218640Y0077804D01*
X0220037Y0077225D01*
X0221548Y0077225D01*
X0222618Y0077669D01*
X0222618Y0077144D01*
X0223197Y0075748D01*
X0224265Y0074679D01*
X0225662Y0074100D01*
X0227173Y0074100D01*
X0228569Y0074679D01*
X0229638Y0075748D01*
X0229984Y0076583D01*
X0230072Y0076373D01*
X0231140Y0075304D01*
X0232537Y0074725D01*
X0234048Y0074725D01*
X0235444Y0075304D01*
X0236513Y0076373D01*
X0237092Y0077769D01*
X0237092Y0079280D01*
X0236906Y0079728D01*
X0236912Y0079725D01*
X0238423Y0079725D01*
X0239819Y0080304D01*
X0240888Y0081373D01*
X0241467Y0082769D01*
X0241467Y0084280D01*
X0240888Y0085677D01*
X0240138Y0086427D01*
X0240444Y0086554D01*
X0241513Y0087623D01*
X0242092Y0089019D01*
X0242092Y0090530D01*
X0241513Y0091927D01*
X0240444Y0092995D01*
X0239048Y0093574D01*
X0237537Y0093574D01*
X0236140Y0092995D01*
X0235072Y0091927D01*
X0234493Y0090530D01*
X0234493Y0089019D01*
X0235072Y0087623D01*
X0235822Y0086872D01*
X0235515Y0086745D01*
X0234447Y0085677D01*
X0233868Y0084280D01*
X0233868Y0082769D01*
X0234053Y0082322D01*
X0234048Y0082324D01*
X0232537Y0082324D01*
X0231140Y0081745D01*
X0230072Y0080677D01*
X0229725Y0079841D01*
X0229638Y0080052D01*
X0228569Y0081120D01*
X0227173Y0081699D01*
X0225662Y0081699D01*
X0224592Y0081256D01*
X0224592Y0081780D01*
X0224013Y0083177D01*
X0223040Y0084150D01*
X0224013Y0085123D01*
X0224592Y0086519D01*
X0224592Y0088030D01*
X0224013Y0089427D01*
X0223040Y0090400D01*
X0224013Y0091373D01*
X0224592Y0092769D01*
X0224592Y0094280D01*
X0224013Y0095677D01*
X0223040Y0096650D01*
X0224013Y0097623D01*
X0224592Y0099019D01*
X0224592Y0100530D01*
X0224013Y0101927D01*
X0222944Y0102995D01*
X0221667Y0103525D01*
X0222944Y0104054D01*
X0224013Y0105123D01*
X0224592Y0106519D01*
X0224592Y0108030D01*
X0224013Y0109427D01*
X0224578Y0108063D02*
X0247524Y0108063D01*
X0246993Y0106765D02*
X0246647Y0106765D01*
X0242438Y0106765D02*
X0224592Y0106765D01*
X0224156Y0105468D02*
X0241235Y0105468D01*
X0240743Y0104170D02*
X0223060Y0104170D01*
X0223068Y0102872D02*
X0240743Y0102872D01*
X0240598Y0101574D02*
X0241238Y0101574D01*
X0238486Y0101574D02*
X0224159Y0101574D01*
X0224592Y0100277D02*
X0236546Y0100277D01*
X0235877Y0098979D02*
X0224575Y0098979D01*
X0224037Y0097681D02*
X0235743Y0097681D01*
X0236058Y0096383D02*
X0223306Y0096383D01*
X0224258Y0095086D02*
X0236983Y0095086D01*
X0235635Y0092490D02*
X0224476Y0092490D01*
X0224592Y0093788D02*
X0244493Y0093788D01*
X0244609Y0092490D02*
X0240950Y0092490D01*
X0241817Y0091193D02*
X0245251Y0091193D01*
X0244915Y0089895D02*
X0242092Y0089895D01*
X0241917Y0088597D02*
X0244103Y0088597D01*
X0243868Y0087299D02*
X0241190Y0087299D01*
X0240563Y0086002D02*
X0244082Y0086002D01*
X0244865Y0084704D02*
X0241291Y0084704D01*
X0241467Y0083406D02*
X0244051Y0083406D01*
X0243379Y0082108D02*
X0241193Y0082108D01*
X0240326Y0080811D02*
X0243243Y0080811D01*
X0243556Y0079513D02*
X0236995Y0079513D01*
X0237092Y0078215D02*
X0242610Y0078215D01*
X0242050Y0076918D02*
X0236739Y0076918D01*
X0235760Y0075620D02*
X0241993Y0075620D01*
X0239342Y0074322D02*
X0227708Y0074322D01*
X0229510Y0075620D02*
X0230824Y0075620D01*
X0230206Y0080811D02*
X0228879Y0080811D01*
X0232017Y0082108D02*
X0224456Y0082108D01*
X0223784Y0083406D02*
X0233868Y0083406D01*
X0234044Y0084704D02*
X0223595Y0084704D01*
X0224377Y0086002D02*
X0234771Y0086002D01*
X0235395Y0087299D02*
X0224592Y0087299D01*
X0224357Y0088597D02*
X0234668Y0088597D01*
X0234493Y0089895D02*
X0223545Y0089895D01*
X0223833Y0091193D02*
X0234767Y0091193D01*
X0242101Y0095086D02*
X0244827Y0095086D01*
X0245778Y0096383D02*
X0243027Y0096383D01*
X0243342Y0097681D02*
X0249866Y0097681D01*
X0250874Y0098979D02*
X0243207Y0098979D01*
X0248342Y0102872D02*
X0248572Y0102872D01*
X0255711Y0098979D02*
X0255874Y0098979D01*
X0256897Y0092490D02*
X0254688Y0092490D01*
X0260560Y0104170D02*
X0281152Y0104170D01*
X0281152Y0105468D02*
X0261656Y0105468D01*
X0262092Y0106765D02*
X0281152Y0106765D01*
X0281152Y0108063D02*
X0262078Y0108063D01*
X0261540Y0109361D02*
X0281152Y0109361D01*
X0281152Y0110658D02*
X0260051Y0110658D01*
X0256534Y0110658D02*
X0222551Y0110658D01*
X0220505Y0111956D02*
X0281152Y0111956D01*
X0281152Y0113254D02*
X0220842Y0113254D01*
X0220729Y0114552D02*
X0281152Y0114552D01*
X0281152Y0115849D02*
X0220091Y0115849D01*
X0218225Y0117147D02*
X0281152Y0117147D01*
X0281152Y0118445D02*
X0217717Y0118445D01*
X0217266Y0119742D02*
X0281152Y0119742D01*
X0281152Y0121040D02*
X0216150Y0121040D01*
X0212717Y0122338D02*
X0281152Y0122338D01*
X0281152Y0123636D02*
X0212717Y0123636D01*
X0212187Y0124933D02*
X0281152Y0124933D01*
X0281152Y0126231D02*
X0210802Y0126231D01*
X0207032Y0126231D02*
X0206347Y0126231D01*
X0206467Y0127529D02*
X0281152Y0127529D01*
X0281152Y0128827D02*
X0275217Y0128827D01*
X0274819Y0128429D02*
X0275888Y0129498D01*
X0276467Y0130894D01*
X0276467Y0132405D01*
X0275888Y0133802D01*
X0274819Y0134870D01*
X0273423Y0135449D01*
X0271912Y0135449D01*
X0270515Y0134870D01*
X0269447Y0133802D01*
X0268868Y0132405D01*
X0268868Y0130894D01*
X0269447Y0129498D01*
X0270515Y0128429D01*
X0271912Y0127850D01*
X0273423Y0127850D01*
X0274819Y0128429D01*
X0276148Y0130124D02*
X0281152Y0130124D01*
X0281152Y0131422D02*
X0276467Y0131422D01*
X0276336Y0132720D02*
X0281152Y0132720D01*
X0281152Y0134017D02*
X0275672Y0134017D01*
X0273746Y0135315D02*
X0281152Y0135315D01*
X0281152Y0136613D02*
X0208453Y0136613D01*
X0206881Y0136613D02*
X0206467Y0136613D01*
X0205968Y0135315D02*
X0271589Y0135315D01*
X0269662Y0134017D02*
X0204732Y0134017D01*
X0202771Y0132720D02*
X0268998Y0132720D01*
X0268868Y0131422D02*
X0202982Y0131422D01*
X0205191Y0130124D02*
X0269187Y0130124D01*
X0270117Y0128827D02*
X0206137Y0128827D01*
X0205118Y0123636D02*
X0203810Y0123636D01*
X0205118Y0122338D02*
X0176102Y0122338D01*
X0176069Y0122370D02*
X0174673Y0122949D01*
X0173162Y0122949D01*
X0171765Y0122370D01*
X0170697Y0121302D01*
X0170118Y0119905D01*
X0170118Y0118394D01*
X0170697Y0116998D01*
X0171765Y0115929D01*
X0173162Y0115350D01*
X0174673Y0115350D01*
X0176069Y0115929D01*
X0177138Y0116998D01*
X0177717Y0118394D01*
X0177717Y0119905D01*
X0177138Y0121302D01*
X0176069Y0122370D01*
X0177246Y0121040D02*
X0205575Y0121040D01*
X0206702Y0119742D02*
X0197369Y0119742D01*
X0197173Y0119824D02*
X0195662Y0119824D01*
X0194265Y0119245D01*
X0193197Y0118177D01*
X0193120Y0117991D01*
X0191773Y0118549D01*
X0189467Y0118549D01*
X0187336Y0117667D01*
X0185705Y0116036D01*
X0184823Y0113905D01*
X0184823Y0111599D01*
X0185705Y0109468D01*
X0187336Y0107837D01*
X0189467Y0106955D01*
X0191773Y0106955D01*
X0193904Y0107837D01*
X0195535Y0109468D01*
X0196417Y0111599D01*
X0196417Y0112225D01*
X0197173Y0112225D01*
X0198569Y0112804D01*
X0198736Y0112971D01*
X0198243Y0111780D01*
X0198243Y0110269D01*
X0198822Y0108873D01*
X0199890Y0107804D01*
X0201287Y0107225D01*
X0202798Y0107225D01*
X0204194Y0107804D01*
X0205263Y0108873D01*
X0205842Y0110269D01*
X0205842Y0111780D01*
X0205263Y0113177D01*
X0204194Y0114245D01*
X0202798Y0114824D01*
X0201287Y0114824D01*
X0199890Y0114245D01*
X0199724Y0114079D01*
X0200217Y0115269D01*
X0200217Y0116780D01*
X0199638Y0118177D01*
X0198569Y0119245D01*
X0197173Y0119824D01*
X0195465Y0119742D02*
X0177717Y0119742D01*
X0177717Y0118445D02*
X0189215Y0118445D01*
X0186817Y0117147D02*
X0177200Y0117147D01*
X0175878Y0115849D02*
X0185628Y0115849D01*
X0185091Y0114552D02*
X0171389Y0114552D01*
X0171683Y0113841D02*
X0170850Y0115852D01*
X0169311Y0117391D01*
X0167299Y0118224D01*
X0165122Y0118224D01*
X0163111Y0117391D01*
X0161571Y0115852D01*
X0160738Y0113841D01*
X0160738Y0111663D01*
X0161571Y0109652D01*
X0163111Y0108113D01*
X0165122Y0107280D01*
X0167299Y0107280D01*
X0168483Y0107770D01*
X0167595Y0106882D01*
X0166713Y0104752D01*
X0166713Y0102445D01*
X0167595Y0100315D01*
X0169226Y0098684D01*
X0171357Y0097801D01*
X0173663Y0097801D01*
X0175794Y0098684D01*
X0177194Y0100085D01*
X0178879Y0098400D01*
X0181133Y0097467D01*
X0183572Y0097467D01*
X0185826Y0098400D01*
X0187551Y0100125D01*
X0188484Y0102379D01*
X0188484Y0104818D01*
X0187551Y0107072D01*
X0185826Y0108797D01*
X0183572Y0109730D01*
X0181133Y0109730D01*
X0178879Y0108797D01*
X0177194Y0107112D01*
X0175794Y0108513D01*
X0173663Y0109396D01*
X0171357Y0109396D01*
X0170054Y0108856D01*
X0170850Y0109652D01*
X0171683Y0111663D01*
X0171683Y0113841D01*
X0171683Y0113254D02*
X0184823Y0113254D01*
X0184823Y0111956D02*
X0171683Y0111956D01*
X0171267Y0110658D02*
X0185212Y0110658D01*
X0185813Y0109361D02*
X0184464Y0109361D01*
X0186560Y0108063D02*
X0187111Y0108063D01*
X0187678Y0106765D02*
X0203755Y0106765D01*
X0203243Y0105468D02*
X0188215Y0105468D01*
X0188484Y0104170D02*
X0203243Y0104170D01*
X0203718Y0102872D02*
X0188484Y0102872D01*
X0188151Y0101574D02*
X0204719Y0101574D01*
X0203656Y0100277D02*
X0187614Y0100277D01*
X0186405Y0098979D02*
X0203243Y0098979D01*
X0203279Y0097681D02*
X0184090Y0097681D01*
X0180614Y0097681D02*
X0144720Y0097681D01*
X0144202Y0097467D02*
X0141763Y0097467D01*
X0139509Y0098400D01*
X0138415Y0099494D01*
X0137605Y0098684D01*
X0135474Y0097801D01*
X0133168Y0097801D01*
X0131037Y0098684D01*
X0129406Y0100315D01*
X0128524Y0102445D01*
X0128524Y0104752D01*
X0129406Y0106882D01*
X0131037Y0108513D01*
X0133168Y0109396D01*
X0135474Y0109396D01*
X0137605Y0108513D01*
X0138415Y0107703D01*
X0139509Y0108797D01*
X0141763Y0109730D01*
X0144202Y0109730D01*
X0146456Y0108797D01*
X0148140Y0107112D01*
X0149541Y0108513D01*
X0151672Y0109396D01*
X0153978Y0109396D01*
X0156109Y0108513D01*
X0157739Y0106882D01*
X0158622Y0104752D01*
X0158622Y0102445D01*
X0157739Y0100315D01*
X0156109Y0098684D01*
X0153978Y0097801D01*
X0151672Y0097801D01*
X0149541Y0098684D01*
X0148140Y0100085D01*
X0146456Y0098400D01*
X0144202Y0097467D01*
X0141244Y0097681D02*
X0105350Y0097681D01*
X0104832Y0097467D02*
X0102392Y0097467D01*
X0100139Y0098400D01*
X0098414Y0100125D01*
X0097480Y0102379D01*
X0097480Y0104818D01*
X0098414Y0107072D01*
X0100139Y0108797D01*
X0102392Y0109730D01*
X0104832Y0109730D01*
X0107086Y0108797D01*
X0108811Y0107072D01*
X0109744Y0104818D01*
X0109744Y0102379D01*
X0108811Y0100125D01*
X0107086Y0098400D01*
X0104832Y0097467D01*
X0101874Y0097681D02*
X0065980Y0097681D01*
X0065462Y0097467D02*
X0063022Y0097467D01*
X0060769Y0098400D01*
X0059044Y0100125D01*
X0058110Y0102379D01*
X0058110Y0104818D01*
X0059044Y0107072D01*
X0060769Y0108797D01*
X0063022Y0109730D01*
X0065462Y0109730D01*
X0067716Y0108797D01*
X0069440Y0107072D01*
X0070374Y0104818D01*
X0070374Y0102379D01*
X0069440Y0100125D01*
X0067716Y0098400D01*
X0065462Y0097467D01*
X0062504Y0097681D02*
X0030089Y0097681D01*
X0030089Y0096383D02*
X0203817Y0096383D01*
X0204481Y0095086D02*
X0030089Y0095086D01*
X0030089Y0093788D02*
X0203557Y0093788D01*
X0203243Y0092490D02*
X0030089Y0092490D01*
X0030089Y0091193D02*
X0203378Y0091193D01*
X0204049Y0089895D02*
X0030089Y0089895D01*
X0030089Y0088597D02*
X0205993Y0088597D01*
X0208092Y0088597D02*
X0217228Y0088597D01*
X0216993Y0087299D02*
X0209890Y0087299D01*
X0210646Y0086002D02*
X0217207Y0086002D01*
X0217990Y0084704D02*
X0210842Y0084704D01*
X0210588Y0083406D02*
X0217801Y0083406D01*
X0217129Y0082108D02*
X0209749Y0082108D01*
X0210129Y0080811D02*
X0216993Y0080811D01*
X0217306Y0079513D02*
X0210745Y0079513D01*
X0210842Y0078215D02*
X0218229Y0078215D01*
X0213431Y0074322D02*
X0225126Y0074322D01*
X0223324Y0075620D02*
X0212019Y0075620D01*
X0210489Y0076918D02*
X0222712Y0076918D01*
X0221711Y0069131D02*
X0226124Y0069131D01*
X0227961Y0069131D02*
X0239188Y0069131D01*
X0238436Y0070429D02*
X0217386Y0070429D01*
X0218511Y0069131D02*
X0219874Y0069131D01*
X0223731Y0067834D02*
X0224103Y0067834D01*
X0224426Y0062643D02*
X0223408Y0062643D01*
X0218176Y0062643D02*
X0182445Y0062643D01*
X0182106Y0062470D02*
X0182814Y0062831D01*
X0183457Y0063298D01*
X0184019Y0063860D01*
X0184486Y0064503D01*
X0184847Y0065211D01*
X0185093Y0065967D01*
X0185217Y0066752D01*
X0185217Y0066799D01*
X0180518Y0066799D01*
X0180518Y0067500D01*
X0185217Y0067500D01*
X0185217Y0067547D01*
X0185093Y0068332D01*
X0184847Y0069088D01*
X0184486Y0069796D01*
X0184019Y0070439D01*
X0183457Y0071001D01*
X0182814Y0071468D01*
X0182106Y0071829D01*
X0181350Y0072075D01*
X0180565Y0072199D01*
X0180518Y0072199D01*
X0180518Y0067500D01*
X0179817Y0067500D01*
X0179817Y0072199D01*
X0179770Y0072199D01*
X0178985Y0072075D01*
X0178229Y0071829D01*
X0177521Y0071468D01*
X0176878Y0071001D01*
X0176316Y0070439D01*
X0175849Y0069796D01*
X0175488Y0069088D01*
X0175242Y0068332D01*
X0175118Y0067547D01*
X0175118Y0067500D01*
X0179817Y0067500D01*
X0179817Y0066799D01*
X0180518Y0066799D01*
X0180518Y0062100D01*
X0180565Y0062100D01*
X0181350Y0062224D01*
X0182106Y0062470D01*
X0180518Y0062643D02*
X0179817Y0062643D01*
X0179817Y0062100D02*
X0179817Y0066799D01*
X0175201Y0066799D01*
X0175201Y0067151D01*
X0174435Y0069001D01*
X0173019Y0070417D01*
X0171169Y0071183D01*
X0169166Y0071183D01*
X0167316Y0070417D01*
X0165900Y0069001D01*
X0165201Y0067314D01*
X0165201Y0068151D01*
X0164435Y0070001D01*
X0163019Y0071417D01*
X0161169Y0072183D01*
X0159166Y0072183D01*
X0157316Y0071417D01*
X0155900Y0070001D01*
X0155133Y0068151D01*
X0155133Y0067314D01*
X0154435Y0069001D01*
X0153019Y0070417D01*
X0151169Y0071183D01*
X0149166Y0071183D01*
X0147316Y0070417D01*
X0145910Y0069011D01*
X0145269Y0070559D01*
X0143576Y0072252D01*
X0141364Y0073168D01*
X0138970Y0073168D01*
X0136758Y0072252D01*
X0135065Y0070559D01*
X0134425Y0069011D01*
X0133019Y0070417D01*
X0131169Y0071183D01*
X0129166Y0071183D01*
X0127316Y0070417D01*
X0125900Y0069001D01*
X0125201Y0067314D01*
X0125201Y0068151D01*
X0124435Y0070001D01*
X0123019Y0071417D01*
X0121169Y0072183D01*
X0119166Y0072183D01*
X0117316Y0071417D01*
X0115900Y0070001D01*
X0115133Y0068151D01*
X0115133Y0067314D01*
X0114435Y0069001D01*
X0113019Y0070417D01*
X0111169Y0071183D01*
X0109166Y0071183D01*
X0107316Y0070417D01*
X0105910Y0069011D01*
X0105269Y0070559D01*
X0104852Y0070975D01*
X0105923Y0070975D01*
X0107319Y0071554D01*
X0108388Y0072623D01*
X0108967Y0074019D01*
X0108967Y0075530D01*
X0108388Y0076927D01*
X0107319Y0077995D01*
X0105923Y0078574D01*
X0104412Y0078574D01*
X0103015Y0077995D01*
X0101947Y0076927D01*
X0101368Y0075530D01*
X0101368Y0074019D01*
X0101794Y0072990D01*
X0101364Y0073168D01*
X0098970Y0073168D01*
X0096758Y0072252D01*
X0095065Y0070559D01*
X0094425Y0069011D01*
X0093019Y0070417D01*
X0091169Y0071183D01*
X0089166Y0071183D01*
X0087316Y0070417D01*
X0085900Y0069001D01*
X0085133Y0067151D01*
X0085133Y0065148D01*
X0085900Y0063298D01*
X0087316Y0061882D01*
X0089166Y0061116D01*
X0091169Y0061116D01*
X0093019Y0061882D01*
X0094435Y0063298D01*
X0094842Y0064281D01*
X0095065Y0063741D01*
X0096758Y0062048D01*
X0098970Y0061131D01*
X0101364Y0061131D01*
X0103576Y0062048D01*
X0105269Y0063741D01*
X0105493Y0064281D01*
X0105900Y0063298D01*
X0107316Y0061882D01*
X0109166Y0061116D01*
X0111169Y0061116D01*
X0113019Y0061882D01*
X0114435Y0063298D01*
X0115201Y0065148D01*
X0115201Y0065985D01*
X0115900Y0064298D01*
X0117316Y0062882D01*
X0119166Y0062116D01*
X0121169Y0062116D01*
X0123019Y0062882D01*
X0124435Y0064298D01*
X0125133Y0065985D01*
X0125133Y0065148D01*
X0125900Y0063298D01*
X0127316Y0061882D01*
X0129166Y0061116D01*
X0131169Y0061116D01*
X0133019Y0061882D01*
X0134435Y0063298D01*
X0134842Y0064281D01*
X0135065Y0063741D01*
X0136758Y0062048D01*
X0138970Y0061131D01*
X0141364Y0061131D01*
X0143576Y0062048D01*
X0145269Y0063741D01*
X0145493Y0064281D01*
X0145900Y0063298D01*
X0147316Y0061882D01*
X0149166Y0061116D01*
X0151169Y0061116D01*
X0153019Y0061882D01*
X0154435Y0063298D01*
X0155201Y0065148D01*
X0155201Y0065985D01*
X0155900Y0064298D01*
X0157316Y0062882D01*
X0159166Y0062116D01*
X0161169Y0062116D01*
X0163019Y0062882D01*
X0164435Y0064298D01*
X0165133Y0065985D01*
X0165133Y0065148D01*
X0165900Y0063298D01*
X0167316Y0061882D01*
X0169166Y0061116D01*
X0171169Y0061116D01*
X0173019Y0061882D01*
X0174435Y0063298D01*
X0175201Y0065148D01*
X0175201Y0066225D01*
X0175242Y0065967D01*
X0175488Y0065211D01*
X0175849Y0064503D01*
X0176316Y0063860D01*
X0176878Y0063298D01*
X0177521Y0062831D01*
X0178229Y0062470D01*
X0178985Y0062224D01*
X0179770Y0062100D01*
X0179817Y0062100D01*
X0179817Y0063940D02*
X0180518Y0063940D01*
X0180518Y0065238D02*
X0179817Y0065238D01*
X0179817Y0066536D02*
X0180518Y0066536D01*
X0180518Y0067834D02*
X0179817Y0067834D01*
X0179817Y0069131D02*
X0180518Y0069131D01*
X0180518Y0070429D02*
X0179817Y0070429D01*
X0179817Y0071727D02*
X0180518Y0071727D01*
X0182307Y0071727D02*
X0206368Y0071727D01*
X0206368Y0073024D02*
X0168555Y0073024D01*
X0168388Y0072623D02*
X0168967Y0074019D01*
X0168967Y0075530D01*
X0168388Y0076927D01*
X0167319Y0077995D01*
X0165923Y0078574D01*
X0164412Y0078574D01*
X0163015Y0077995D01*
X0161947Y0076927D01*
X0161368Y0075530D01*
X0161368Y0074019D01*
X0161947Y0072623D01*
X0163015Y0071554D01*
X0164412Y0070975D01*
X0165923Y0070975D01*
X0167319Y0071554D01*
X0168388Y0072623D01*
X0167492Y0071727D02*
X0178028Y0071727D01*
X0176308Y0070429D02*
X0172990Y0070429D01*
X0174305Y0069131D02*
X0175510Y0069131D01*
X0175163Y0067834D02*
X0174918Y0067834D01*
X0175201Y0065238D02*
X0175479Y0065238D01*
X0174701Y0063940D02*
X0176257Y0063940D01*
X0177890Y0062643D02*
X0173779Y0062643D01*
X0171722Y0061345D02*
X0230724Y0061345D01*
X0229804Y0062643D02*
X0229658Y0062643D01*
X0234186Y0060047D02*
X0030089Y0060047D01*
X0030089Y0058749D02*
X0233868Y0058749D01*
X0233999Y0057452D02*
X0030089Y0057452D01*
X0030089Y0056154D02*
X0234665Y0056154D01*
X0234107Y0054856D02*
X0030089Y0054856D01*
X0030089Y0053559D02*
X0233868Y0053559D01*
X0234079Y0052261D02*
X0030089Y0052261D01*
X0030089Y0050963D02*
X0234856Y0050963D01*
X0234912Y0049665D02*
X0030089Y0049665D01*
X0030089Y0048368D02*
X0234493Y0048368D01*
X0234524Y0047070D02*
X0030089Y0047070D01*
X0030089Y0045772D02*
X0235061Y0045772D01*
X0236633Y0044474D02*
X0030089Y0044474D01*
X0030089Y0043177D02*
X0237679Y0043177D01*
X0237618Y0041879D02*
X0030089Y0041879D01*
X0030089Y0040581D02*
X0238006Y0040581D01*
X0239035Y0039284D02*
X0030089Y0039284D01*
X0030089Y0037986D02*
X0242618Y0037986D01*
X0243066Y0036688D02*
X0030089Y0036688D01*
X0030089Y0035390D02*
X0244179Y0035390D01*
X0239970Y0031497D02*
X0051585Y0031497D01*
X0051566Y0031508D02*
X0048790Y0032252D01*
X0045915Y0032252D01*
X0043138Y0031508D01*
X0040649Y0030071D01*
X0038616Y0028038D01*
X0037179Y0025549D01*
X0036435Y0022772D01*
X0036435Y0019897D01*
X0037179Y0017121D01*
X0038616Y0014631D01*
X0040649Y0012599D01*
X0043138Y0011161D01*
X0045915Y0010417D01*
X0048790Y0010417D01*
X0051566Y0011161D01*
X0054056Y0012599D01*
X0056088Y0014631D01*
X0057526Y0017121D01*
X0058270Y0019897D01*
X0058270Y0022772D01*
X0057526Y0025549D01*
X0056088Y0028038D01*
X0054056Y0030071D01*
X0051566Y0031508D01*
X0053833Y0030200D02*
X0237723Y0030200D01*
X0236330Y0028902D02*
X0055225Y0028902D01*
X0056339Y0027604D02*
X0235216Y0027604D01*
X0234467Y0026306D02*
X0057088Y0026306D01*
X0057670Y0025009D02*
X0233885Y0025009D01*
X0233537Y0023711D02*
X0058018Y0023711D01*
X0058270Y0022413D02*
X0233285Y0022413D01*
X0233285Y0021115D02*
X0058270Y0021115D01*
X0058248Y0019818D02*
X0233307Y0019818D01*
X0233654Y0018520D02*
X0057901Y0018520D01*
X0057553Y0017222D02*
X0234002Y0017222D01*
X0234720Y0015925D02*
X0056835Y0015925D01*
X0056084Y0014627D02*
X0235471Y0014627D01*
X0236769Y0013329D02*
X0054786Y0013329D01*
X0053073Y0012031D02*
X0238482Y0012031D01*
X0241585Y0010734D02*
X0049970Y0010734D01*
X0044734Y0010734D02*
X0030089Y0010734D01*
X0030089Y0012031D02*
X0041631Y0012031D01*
X0039918Y0013329D02*
X0030089Y0013329D01*
X0030089Y0014627D02*
X0038621Y0014627D01*
X0037870Y0015925D02*
X0030089Y0015925D01*
X0030089Y0017222D02*
X0037152Y0017222D01*
X0036804Y0018520D02*
X0030089Y0018520D01*
X0030089Y0019818D02*
X0036456Y0019818D01*
X0036435Y0021115D02*
X0030089Y0021115D01*
X0030089Y0022413D02*
X0036435Y0022413D01*
X0036687Y0023711D02*
X0030089Y0023711D01*
X0030089Y0025009D02*
X0037034Y0025009D01*
X0037617Y0026306D02*
X0030089Y0026306D01*
X0030089Y0027604D02*
X0038366Y0027604D01*
X0039480Y0028902D02*
X0030089Y0028902D01*
X0030089Y0030200D02*
X0040872Y0030200D01*
X0043120Y0031497D02*
X0030089Y0031497D01*
X0030089Y0032795D02*
X0281152Y0032795D01*
X0281152Y0013329D02*
X0276084Y0013329D01*
X0276467Y0012031D02*
X0281152Y0012031D01*
X0281152Y0010734D02*
X0276400Y0010734D01*
X0275827Y0009436D02*
X0281152Y0009436D01*
X0251101Y0034093D02*
X0030089Y0034093D01*
X0030089Y0061345D02*
X0088613Y0061345D01*
X0086555Y0062643D02*
X0030089Y0062643D01*
X0030089Y0063940D02*
X0085634Y0063940D01*
X0085133Y0065238D02*
X0030089Y0065238D01*
X0030089Y0066536D02*
X0085133Y0066536D01*
X0085416Y0067834D02*
X0030089Y0067834D01*
X0030089Y0069131D02*
X0086030Y0069131D01*
X0087345Y0070429D02*
X0030089Y0070429D01*
X0030089Y0071727D02*
X0096234Y0071727D01*
X0095012Y0070429D02*
X0092990Y0070429D01*
X0094305Y0069131D02*
X0094474Y0069131D01*
X0098624Y0073024D02*
X0030089Y0073024D01*
X0030089Y0074322D02*
X0101368Y0074322D01*
X0101405Y0075620D02*
X0079369Y0075620D01*
X0079262Y0075513D02*
X0080054Y0076305D01*
X0080482Y0077340D01*
X0080482Y0078460D01*
X0080054Y0079494D01*
X0079262Y0080286D01*
X0078227Y0080715D01*
X0077107Y0080715D01*
X0076073Y0080286D01*
X0075281Y0079494D01*
X0074852Y0078460D01*
X0074852Y0077340D01*
X0075281Y0076305D01*
X0076073Y0075513D01*
X0077107Y0075085D01*
X0078227Y0075085D01*
X0079262Y0075513D01*
X0080307Y0076918D02*
X0101943Y0076918D01*
X0103546Y0078215D02*
X0080482Y0078215D01*
X0080035Y0079513D02*
X0103323Y0079513D01*
X0103573Y0079263D02*
X0104607Y0078835D01*
X0105727Y0078835D01*
X0106762Y0079263D01*
X0107554Y0080055D01*
X0107982Y0081090D01*
X0107982Y0082210D01*
X0107554Y0083244D01*
X0106762Y0084036D01*
X0105727Y0084465D01*
X0104607Y0084465D01*
X0103573Y0084036D01*
X0102781Y0083244D01*
X0102352Y0082210D01*
X0102352Y0081090D01*
X0102781Y0080055D01*
X0103573Y0079263D01*
X0102468Y0080811D02*
X0056732Y0080811D01*
X0056732Y0080960D02*
X0056304Y0081994D01*
X0055512Y0082786D01*
X0054477Y0083215D01*
X0053357Y0083215D01*
X0052323Y0082786D01*
X0051531Y0081994D01*
X0051102Y0080960D01*
X0051102Y0079840D01*
X0051531Y0078805D01*
X0052323Y0078013D01*
X0053357Y0077585D01*
X0054477Y0077585D01*
X0055512Y0078013D01*
X0056304Y0078805D01*
X0056732Y0079840D01*
X0056732Y0080960D01*
X0056189Y0082108D02*
X0102352Y0082108D01*
X0102943Y0083406D02*
X0030089Y0083406D01*
X0030089Y0082108D02*
X0051645Y0082108D01*
X0051102Y0080811D02*
X0030089Y0080811D01*
X0030089Y0079513D02*
X0051238Y0079513D01*
X0052121Y0078215D02*
X0030089Y0078215D01*
X0030089Y0076918D02*
X0075027Y0076918D01*
X0074852Y0078215D02*
X0055714Y0078215D01*
X0056597Y0079513D02*
X0075300Y0079513D01*
X0075966Y0075620D02*
X0030089Y0075620D01*
X0030089Y0084704D02*
X0203243Y0084704D01*
X0203438Y0086002D02*
X0030089Y0086002D01*
X0030089Y0087299D02*
X0204194Y0087299D01*
X0203497Y0083406D02*
X0107392Y0083406D01*
X0107982Y0082108D02*
X0204336Y0082108D01*
X0203956Y0080811D02*
X0107867Y0080811D01*
X0107012Y0079513D02*
X0203340Y0079513D01*
X0203243Y0078215D02*
X0166789Y0078215D01*
X0168392Y0076918D02*
X0203596Y0076918D01*
X0204574Y0075620D02*
X0168929Y0075620D01*
X0168967Y0074322D02*
X0206903Y0074322D01*
X0206820Y0070429D02*
X0184026Y0070429D01*
X0184825Y0069131D02*
X0207938Y0069131D01*
X0211368Y0067834D02*
X0185172Y0067834D01*
X0185183Y0066536D02*
X0211368Y0066536D01*
X0211899Y0065238D02*
X0184856Y0065238D01*
X0184077Y0063940D02*
X0213289Y0063940D01*
X0217046Y0063940D02*
X0217285Y0063940D01*
X0213967Y0071727D02*
X0238243Y0071727D01*
X0238500Y0073024D02*
X0213967Y0073024D01*
X0229981Y0067834D02*
X0232258Y0067834D01*
X0234326Y0067834D02*
X0242429Y0067834D01*
X0241993Y0066536D02*
X0236279Y0066536D01*
X0236954Y0065238D02*
X0242006Y0065238D01*
X0242543Y0063940D02*
X0237092Y0063940D01*
X0236780Y0062643D02*
X0244029Y0062643D01*
X0243581Y0061345D02*
X0240220Y0061345D01*
X0241149Y0060047D02*
X0243243Y0060047D01*
X0243355Y0058749D02*
X0241467Y0058749D01*
X0241335Y0057452D02*
X0243992Y0057452D01*
X0244299Y0056154D02*
X0240670Y0056154D01*
X0241228Y0054856D02*
X0243482Y0054856D01*
X0243243Y0053559D02*
X0241467Y0053559D01*
X0241256Y0052261D02*
X0243454Y0052261D01*
X0244231Y0050963D02*
X0240602Y0050963D01*
X0241673Y0049665D02*
X0244653Y0049665D01*
X0244493Y0048368D02*
X0242092Y0048368D01*
X0242061Y0047070D02*
X0244783Y0047070D01*
X0245672Y0045772D02*
X0242901Y0045772D01*
X0255024Y0049665D02*
X0256560Y0049665D01*
X0248059Y0069131D02*
X0269813Y0069131D01*
X0269061Y0070429D02*
X0245649Y0070429D01*
X0245842Y0071727D02*
X0268868Y0071727D01*
X0269125Y0073024D02*
X0248165Y0073024D01*
X0218040Y0089895D02*
X0210035Y0089895D01*
X0210706Y0091193D02*
X0217751Y0091193D01*
X0217109Y0092490D02*
X0210842Y0092490D01*
X0210528Y0093788D02*
X0216993Y0093788D01*
X0217327Y0095086D02*
X0209604Y0095086D01*
X0210268Y0096383D02*
X0218278Y0096383D01*
X0217547Y0097681D02*
X0210805Y0097681D01*
X0210842Y0098979D02*
X0217010Y0098979D01*
X0216993Y0100277D02*
X0210429Y0100277D01*
X0209365Y0101574D02*
X0217426Y0101574D01*
X0218517Y0102872D02*
X0210366Y0102872D01*
X0210842Y0104170D02*
X0218524Y0104170D01*
X0217429Y0105468D02*
X0210842Y0105468D01*
X0210330Y0106765D02*
X0216993Y0106765D01*
X0217007Y0108063D02*
X0209031Y0108063D01*
X0205465Y0109361D02*
X0217544Y0109361D01*
X0214536Y0110658D02*
X0205842Y0110658D01*
X0205769Y0111956D02*
X0213580Y0111956D01*
X0213243Y0113254D02*
X0205186Y0113254D01*
X0203455Y0114552D02*
X0212072Y0114552D01*
X0210654Y0115849D02*
X0200217Y0115849D01*
X0200065Y0117147D02*
X0210118Y0117147D01*
X0210118Y0118445D02*
X0199370Y0118445D01*
X0199919Y0114552D02*
X0200629Y0114552D01*
X0198316Y0111956D02*
X0196417Y0111956D01*
X0196028Y0110658D02*
X0198243Y0110658D01*
X0198619Y0109361D02*
X0195427Y0109361D01*
X0194130Y0108063D02*
X0199631Y0108063D01*
X0204454Y0108063D02*
X0205053Y0108063D01*
X0193465Y0118445D02*
X0192025Y0118445D01*
X0192688Y0126231D02*
X0198987Y0126231D01*
X0198868Y0127529D02*
X0194698Y0127529D01*
X0195726Y0128827D02*
X0199198Y0128827D01*
X0197752Y0130124D02*
X0196263Y0130124D01*
X0199636Y0124933D02*
X0143364Y0124933D01*
X0143012Y0125286D02*
X0141977Y0125715D01*
X0140857Y0125715D01*
X0140482Y0125559D01*
X0140482Y0125960D01*
X0140054Y0126994D01*
X0139262Y0127786D01*
X0138227Y0128215D01*
X0137107Y0128215D01*
X0136073Y0127786D01*
X0135281Y0126994D01*
X0134852Y0125960D01*
X0134852Y0124840D01*
X0135281Y0123805D01*
X0136073Y0123013D01*
X0137107Y0122585D01*
X0138227Y0122585D01*
X0138602Y0122740D01*
X0138602Y0122340D01*
X0139031Y0121305D01*
X0139823Y0120513D01*
X0139883Y0120488D01*
X0139447Y0120052D01*
X0138868Y0118655D01*
X0138868Y0117144D01*
X0139447Y0115748D01*
X0140515Y0114679D01*
X0141912Y0114100D01*
X0143423Y0114100D01*
X0144819Y0114679D01*
X0145888Y0115748D01*
X0146467Y0117144D01*
X0146467Y0118655D01*
X0145888Y0120052D01*
X0144819Y0121120D01*
X0143887Y0121507D01*
X0144232Y0122340D01*
X0144232Y0123460D01*
X0143804Y0124494D01*
X0143012Y0125286D01*
X0144159Y0123636D02*
X0155552Y0123636D01*
X0155515Y0123620D02*
X0154447Y0122552D01*
X0153868Y0121155D01*
X0153868Y0119644D01*
X0154447Y0118248D01*
X0155515Y0117179D01*
X0156912Y0116600D01*
X0158423Y0116600D01*
X0159819Y0117179D01*
X0160888Y0118248D01*
X0161467Y0119644D01*
X0161467Y0121155D01*
X0160888Y0122552D01*
X0159819Y0123620D01*
X0158423Y0124199D01*
X0156912Y0124199D01*
X0155515Y0123620D01*
X0154358Y0122338D02*
X0144232Y0122338D01*
X0144900Y0121040D02*
X0153868Y0121040D01*
X0153868Y0119742D02*
X0146016Y0119742D01*
X0146467Y0118445D02*
X0154365Y0118445D01*
X0155592Y0117147D02*
X0146467Y0117147D01*
X0145930Y0115849D02*
X0161570Y0115849D01*
X0161033Y0114552D02*
X0144512Y0114552D01*
X0140822Y0114552D02*
X0129294Y0114552D01*
X0129429Y0114879D02*
X0128496Y0112625D01*
X0126771Y0110900D01*
X0124517Y0109967D01*
X0122078Y0109967D01*
X0119824Y0110900D01*
X0118099Y0112625D01*
X0117165Y0114879D01*
X0117165Y0117318D01*
X0118099Y0119572D01*
X0119824Y0121297D01*
X0122078Y0122230D01*
X0124517Y0122230D01*
X0126771Y0121297D01*
X0128496Y0119572D01*
X0129429Y0117318D01*
X0129429Y0114879D01*
X0129429Y0115849D02*
X0139404Y0115849D01*
X0138868Y0117147D02*
X0129429Y0117147D01*
X0128962Y0118445D02*
X0138868Y0118445D01*
X0139318Y0119742D02*
X0128325Y0119742D01*
X0127027Y0121040D02*
X0139296Y0121040D01*
X0138603Y0122338D02*
X0049626Y0122338D01*
X0049755Y0122468D02*
X0050689Y0124721D01*
X0050689Y0127161D01*
X0049755Y0129414D01*
X0048031Y0131139D01*
X0045777Y0132073D01*
X0043337Y0132073D01*
X0041084Y0131139D01*
X0039359Y0129414D01*
X0038425Y0127161D01*
X0038425Y0124721D01*
X0039359Y0122468D01*
X0041084Y0120743D01*
X0043337Y0119809D01*
X0045777Y0119809D01*
X0048031Y0120743D01*
X0049755Y0122468D01*
X0050239Y0123636D02*
X0135450Y0123636D01*
X0134852Y0124933D02*
X0050689Y0124933D01*
X0050689Y0126231D02*
X0134965Y0126231D01*
X0135816Y0127529D02*
X0050536Y0127529D01*
X0049999Y0128827D02*
X0139022Y0128827D01*
X0139031Y0128805D02*
X0139823Y0128013D01*
X0140857Y0127585D01*
X0141977Y0127585D01*
X0143012Y0128013D01*
X0143804Y0128805D01*
X0144232Y0129840D01*
X0144232Y0130960D01*
X0143804Y0131994D01*
X0143012Y0132786D01*
X0141977Y0133215D01*
X0140857Y0133215D01*
X0139823Y0132786D01*
X0139031Y0131994D01*
X0138602Y0130960D01*
X0138602Y0129840D01*
X0139031Y0128805D01*
X0139519Y0127529D02*
X0169852Y0127529D01*
X0169852Y0127340D02*
X0169852Y0128460D01*
X0169897Y0128568D01*
X0169673Y0128475D01*
X0168162Y0128475D01*
X0166765Y0129054D01*
X0165697Y0130123D01*
X0165118Y0131519D01*
X0165118Y0133030D01*
X0165697Y0134427D01*
X0166765Y0135495D01*
X0168162Y0136074D01*
X0169673Y0136074D01*
X0169897Y0135981D01*
X0169852Y0136090D01*
X0169852Y0137210D01*
X0170281Y0138244D01*
X0171073Y0139036D01*
X0172107Y0139465D01*
X0173227Y0139465D01*
X0174262Y0139036D01*
X0175054Y0138244D01*
X0175482Y0137210D01*
X0175482Y0136090D01*
X0175054Y0135055D01*
X0174262Y0134263D01*
X0173227Y0133835D01*
X0172383Y0133835D01*
X0172717Y0133030D01*
X0172717Y0131519D01*
X0172383Y0130715D01*
X0173227Y0130715D01*
X0174262Y0130286D01*
X0175054Y0129494D01*
X0175482Y0128460D01*
X0175482Y0127340D01*
X0175054Y0126305D01*
X0174262Y0125513D01*
X0173227Y0125085D01*
X0172107Y0125085D01*
X0171073Y0125513D01*
X0170281Y0126305D01*
X0169852Y0127340D01*
X0170355Y0126231D02*
X0140370Y0126231D01*
X0138602Y0130124D02*
X0049046Y0130124D01*
X0047348Y0131422D02*
X0121605Y0131422D01*
X0122078Y0131226D02*
X0124517Y0131226D01*
X0126771Y0132160D01*
X0128496Y0133885D01*
X0129429Y0136139D01*
X0129429Y0138578D01*
X0128496Y0140832D01*
X0126771Y0142557D01*
X0124517Y0143490D01*
X0122078Y0143490D01*
X0119824Y0142557D01*
X0118099Y0140832D01*
X0117165Y0138578D01*
X0117165Y0136139D01*
X0118099Y0133885D01*
X0119824Y0132160D01*
X0122078Y0131226D01*
X0124989Y0131422D02*
X0138794Y0131422D01*
X0139756Y0132720D02*
X0127330Y0132720D01*
X0128551Y0134017D02*
X0139166Y0134017D01*
X0139607Y0133835D02*
X0140727Y0133835D01*
X0141762Y0134263D01*
X0142554Y0135055D01*
X0142982Y0136090D01*
X0142982Y0137210D01*
X0142554Y0138244D01*
X0141762Y0139036D01*
X0141488Y0139150D01*
X0141762Y0139263D01*
X0142554Y0140055D01*
X0142982Y0141090D01*
X0142982Y0142210D01*
X0142717Y0142850D01*
X0143423Y0142850D01*
X0144819Y0143429D01*
X0145888Y0144498D01*
X0146467Y0145894D01*
X0146467Y0147405D01*
X0145888Y0148802D01*
X0144819Y0149870D01*
X0143423Y0150449D01*
X0141912Y0150449D01*
X0140515Y0149870D01*
X0139447Y0148802D01*
X0138868Y0147405D01*
X0138868Y0145894D01*
X0139447Y0144498D01*
X0139517Y0144427D01*
X0138573Y0144036D01*
X0137781Y0143244D01*
X0137352Y0142210D01*
X0137352Y0141090D01*
X0137781Y0140055D01*
X0138573Y0139263D01*
X0138847Y0139150D01*
X0138573Y0139036D01*
X0137781Y0138244D01*
X0137352Y0137210D01*
X0137352Y0136090D01*
X0137781Y0135055D01*
X0138573Y0134263D01*
X0139607Y0133835D01*
X0141169Y0134017D02*
X0157304Y0134017D01*
X0157323Y0134036D02*
X0156531Y0133244D01*
X0156102Y0132210D01*
X0156102Y0131090D01*
X0156531Y0130055D01*
X0157323Y0129263D01*
X0158357Y0128835D01*
X0159477Y0128835D01*
X0160512Y0129263D01*
X0161304Y0130055D01*
X0161732Y0131090D01*
X0161732Y0132210D01*
X0161452Y0132885D01*
X0161762Y0133013D01*
X0162554Y0133805D01*
X0162982Y0134840D01*
X0162982Y0135960D01*
X0162554Y0136994D01*
X0161762Y0137786D01*
X0160727Y0138215D01*
X0159607Y0138215D01*
X0158573Y0137786D01*
X0157781Y0136994D01*
X0157352Y0135960D01*
X0157352Y0134840D01*
X0157632Y0134164D01*
X0157323Y0134036D01*
X0157352Y0135315D02*
X0142661Y0135315D01*
X0142982Y0136613D02*
X0157623Y0136613D01*
X0158874Y0137911D02*
X0142692Y0137911D01*
X0141629Y0139208D02*
X0171489Y0139208D01*
X0170143Y0137911D02*
X0161461Y0137911D01*
X0162712Y0136613D02*
X0169852Y0136613D01*
X0166585Y0135315D02*
X0162982Y0135315D01*
X0162642Y0134017D02*
X0165527Y0134017D01*
X0165118Y0132720D02*
X0161521Y0132720D01*
X0161732Y0131422D02*
X0165158Y0131422D01*
X0165696Y0130124D02*
X0161332Y0130124D01*
X0167314Y0128827D02*
X0143813Y0128827D01*
X0144232Y0130124D02*
X0156502Y0130124D01*
X0156102Y0131422D02*
X0144041Y0131422D01*
X0143078Y0132720D02*
X0156314Y0132720D01*
X0156912Y0140350D02*
X0158423Y0140350D01*
X0159819Y0140929D01*
X0160888Y0141998D01*
X0161467Y0143394D01*
X0161467Y0144905D01*
X0160888Y0146302D01*
X0159819Y0147370D01*
X0158423Y0147949D01*
X0156912Y0147949D01*
X0155515Y0147370D01*
X0154447Y0146302D01*
X0153868Y0144905D01*
X0153868Y0143394D01*
X0154447Y0141998D01*
X0155515Y0140929D01*
X0156912Y0140350D01*
X0156536Y0140506D02*
X0142741Y0140506D01*
X0142982Y0141804D02*
X0154640Y0141804D01*
X0153989Y0143102D02*
X0144029Y0143102D01*
X0145790Y0144399D02*
X0153868Y0144399D01*
X0154196Y0145697D02*
X0146385Y0145697D01*
X0146467Y0146995D02*
X0155140Y0146995D01*
X0160195Y0146995D02*
X0162024Y0146995D01*
X0161571Y0147447D02*
X0163111Y0145908D01*
X0164112Y0145493D01*
X0163868Y0144905D01*
X0163868Y0143394D01*
X0164447Y0141998D01*
X0165515Y0140929D01*
X0166912Y0140350D01*
X0168423Y0140350D01*
X0169819Y0140929D01*
X0170888Y0141998D01*
X0171467Y0143394D01*
X0171467Y0144905D01*
X0170888Y0146302D01*
X0170296Y0146894D01*
X0170850Y0147447D01*
X0171683Y0149459D01*
X0171683Y0151636D01*
X0170850Y0153647D01*
X0170054Y0154443D01*
X0171357Y0153904D01*
X0173663Y0153904D01*
X0175794Y0154786D01*
X0177424Y0156417D01*
X0178307Y0158548D01*
X0178307Y0160854D01*
X0177424Y0162985D01*
X0175794Y0164615D01*
X0173663Y0165498D01*
X0171357Y0165498D01*
X0169226Y0164615D01*
X0167595Y0162985D01*
X0167589Y0162969D01*
X0167582Y0162985D01*
X0165951Y0164615D01*
X0163820Y0165498D01*
X0161514Y0165498D01*
X0159383Y0164615D01*
X0157753Y0162985D01*
X0157746Y0162969D01*
X0157739Y0162985D01*
X0156109Y0164615D01*
X0153978Y0165498D01*
X0151672Y0165498D01*
X0149541Y0164615D01*
X0147910Y0162985D01*
X0147028Y0160854D01*
X0147028Y0158548D01*
X0147910Y0156417D01*
X0149541Y0154786D01*
X0151672Y0153904D01*
X0153978Y0153904D01*
X0156109Y0154786D01*
X0157739Y0156417D01*
X0157746Y0156433D01*
X0157753Y0156417D01*
X0159383Y0154786D01*
X0161514Y0153904D01*
X0161828Y0153904D01*
X0161571Y0153647D01*
X0160738Y0151636D01*
X0160738Y0149459D01*
X0161571Y0147447D01*
X0161221Y0148292D02*
X0146099Y0148292D01*
X0145100Y0149590D02*
X0160738Y0149590D01*
X0160738Y0150888D02*
X0030089Y0150888D01*
X0030089Y0152186D02*
X0160966Y0152186D01*
X0161503Y0153483D02*
X0030089Y0153483D01*
X0030089Y0154781D02*
X0040805Y0154781D01*
X0041084Y0154502D02*
X0039359Y0156227D01*
X0038425Y0158481D01*
X0038425Y0160920D01*
X0039359Y0163174D01*
X0041084Y0164899D01*
X0043337Y0165833D01*
X0045777Y0165833D01*
X0048031Y0164899D01*
X0049755Y0163174D01*
X0050689Y0160920D01*
X0050689Y0158481D01*
X0049755Y0156227D01*
X0048031Y0154502D01*
X0045777Y0153569D01*
X0043337Y0153569D01*
X0041084Y0154502D01*
X0039507Y0156079D02*
X0030089Y0156079D01*
X0030089Y0157376D02*
X0038883Y0157376D01*
X0038425Y0158674D02*
X0030089Y0158674D01*
X0030089Y0159972D02*
X0038425Y0159972D01*
X0038570Y0161270D02*
X0030089Y0161270D01*
X0030089Y0162567D02*
X0039107Y0162567D01*
X0040050Y0163865D02*
X0030089Y0163865D01*
X0030089Y0165163D02*
X0041720Y0165163D01*
X0047394Y0165163D02*
X0081090Y0165163D01*
X0080454Y0164899D02*
X0082707Y0165833D01*
X0085147Y0165833D01*
X0087401Y0164899D01*
X0089126Y0163174D01*
X0090059Y0160920D01*
X0090059Y0158481D01*
X0089126Y0156227D01*
X0087401Y0154502D01*
X0085147Y0153569D01*
X0082707Y0153569D01*
X0080454Y0154502D01*
X0078729Y0156227D01*
X0077795Y0158481D01*
X0077795Y0160920D01*
X0078729Y0163174D01*
X0080454Y0164899D01*
X0079420Y0163865D02*
X0049065Y0163865D01*
X0050007Y0162567D02*
X0078477Y0162567D01*
X0077940Y0161270D02*
X0050544Y0161270D01*
X0050689Y0159972D02*
X0077795Y0159972D01*
X0077795Y0158674D02*
X0050689Y0158674D01*
X0050231Y0157376D02*
X0078253Y0157376D01*
X0078877Y0156079D02*
X0049607Y0156079D01*
X0048309Y0154781D02*
X0080175Y0154781D01*
X0087679Y0154781D02*
X0119545Y0154781D01*
X0119824Y0154502D02*
X0122078Y0153569D01*
X0124517Y0153569D01*
X0126771Y0154502D01*
X0128496Y0156227D01*
X0128990Y0157421D01*
X0129406Y0156417D01*
X0131037Y0154786D01*
X0133168Y0153904D01*
X0135474Y0153904D01*
X0137605Y0154786D01*
X0139236Y0156417D01*
X0140118Y0158548D01*
X0140118Y0160854D01*
X0139236Y0162985D01*
X0137605Y0164615D01*
X0135474Y0165498D01*
X0133168Y0165498D01*
X0131037Y0164615D01*
X0129406Y0162985D01*
X0128990Y0161980D01*
X0128496Y0163174D01*
X0126771Y0164899D01*
X0124517Y0165833D01*
X0122078Y0165833D01*
X0119824Y0164899D01*
X0118099Y0163174D01*
X0117165Y0160920D01*
X0117165Y0158481D01*
X0118099Y0156227D01*
X0119824Y0154502D01*
X0118247Y0156079D02*
X0088977Y0156079D01*
X0089602Y0157376D02*
X0117623Y0157376D01*
X0117165Y0158674D02*
X0090059Y0158674D01*
X0090059Y0159972D02*
X0117165Y0159972D01*
X0117310Y0161270D02*
X0089914Y0161270D01*
X0089377Y0162567D02*
X0117848Y0162567D01*
X0118790Y0163865D02*
X0088435Y0163865D01*
X0086764Y0165163D02*
X0120460Y0165163D01*
X0126134Y0165163D02*
X0132358Y0165163D01*
X0130287Y0163865D02*
X0127805Y0163865D01*
X0128747Y0162567D02*
X0129233Y0162567D01*
X0129009Y0157376D02*
X0128972Y0157376D01*
X0128347Y0156079D02*
X0129744Y0156079D01*
X0131049Y0154781D02*
X0127049Y0154781D01*
X0137592Y0154781D02*
X0149553Y0154781D01*
X0148248Y0156079D02*
X0138897Y0156079D01*
X0139633Y0157376D02*
X0147513Y0157376D01*
X0147028Y0158674D02*
X0140118Y0158674D01*
X0140118Y0159972D02*
X0147028Y0159972D01*
X0147200Y0161270D02*
X0139946Y0161270D01*
X0139408Y0162567D02*
X0147737Y0162567D01*
X0148791Y0163865D02*
X0138355Y0163865D01*
X0136283Y0165163D02*
X0150862Y0165163D01*
X0154787Y0165163D02*
X0160705Y0165163D01*
X0158633Y0163865D02*
X0156859Y0163865D01*
X0157401Y0156079D02*
X0158091Y0156079D01*
X0159396Y0154781D02*
X0156096Y0154781D01*
X0164630Y0165163D02*
X0170547Y0165163D01*
X0168476Y0163865D02*
X0166702Y0163865D01*
X0174472Y0165163D02*
X0203975Y0165163D01*
X0203868Y0164905D02*
X0203868Y0163394D01*
X0204447Y0161998D01*
X0204794Y0161650D01*
X0204447Y0161302D01*
X0203868Y0159905D01*
X0203868Y0158394D01*
X0203870Y0158389D01*
X0203423Y0158574D01*
X0201912Y0158574D01*
X0200515Y0157995D01*
X0199447Y0156927D01*
X0198868Y0155530D01*
X0198868Y0154019D01*
X0198870Y0154014D01*
X0198423Y0154199D01*
X0196912Y0154199D01*
X0195606Y0153658D01*
X0195535Y0153831D01*
X0193904Y0155462D01*
X0191773Y0156344D01*
X0189467Y0156344D01*
X0187336Y0155462D01*
X0185705Y0153831D01*
X0184823Y0151700D01*
X0184823Y0149394D01*
X0185705Y0147263D01*
X0187336Y0145633D01*
X0189467Y0144750D01*
X0191773Y0144750D01*
X0193904Y0145633D01*
X0195483Y0147211D01*
X0195515Y0147179D01*
X0196912Y0146600D01*
X0198423Y0146600D01*
X0199819Y0147179D01*
X0200888Y0148248D01*
X0201467Y0149644D01*
X0201467Y0151155D01*
X0201464Y0151161D01*
X0201912Y0150975D01*
X0203423Y0150975D01*
X0204819Y0151554D01*
X0205888Y0152623D01*
X0206467Y0154019D01*
X0206467Y0155530D01*
X0206464Y0155536D01*
X0206912Y0155350D01*
X0208423Y0155350D01*
X0209819Y0155929D01*
X0210888Y0156998D01*
X0211467Y0158394D01*
X0211467Y0159905D01*
X0210888Y0161302D01*
X0210540Y0161650D01*
X0210888Y0161998D01*
X0211467Y0163394D01*
X0211467Y0164905D01*
X0210888Y0166302D01*
X0209915Y0167275D01*
X0210888Y0168248D01*
X0211467Y0169644D01*
X0211467Y0171155D01*
X0210888Y0172552D01*
X0209819Y0173620D01*
X0208542Y0174150D01*
X0209819Y0174679D01*
X0210888Y0175748D01*
X0211467Y0177144D01*
X0211467Y0178655D01*
X0210888Y0180052D01*
X0209819Y0181120D01*
X0208542Y0181650D01*
X0209819Y0182179D01*
X0210888Y0183248D01*
X0211467Y0184644D01*
X0211467Y0186155D01*
X0211282Y0186600D01*
X0212173Y0186600D01*
X0213569Y0187179D01*
X0214638Y0188248D01*
X0215217Y0189644D01*
X0215217Y0191155D01*
X0214902Y0191915D01*
X0215662Y0191600D01*
X0217173Y0191600D01*
X0218569Y0192179D01*
X0219638Y0193248D01*
X0220217Y0194644D01*
X0220217Y0196155D01*
X0219638Y0197552D01*
X0218569Y0198620D01*
X0217173Y0199199D01*
X0215662Y0199199D01*
X0215201Y0199008D01*
X0214638Y0200367D01*
X0213569Y0201435D01*
X0212173Y0202014D01*
X0210662Y0202014D01*
X0209265Y0201435D01*
X0208197Y0200367D01*
X0207618Y0198970D01*
X0207618Y0197459D01*
X0208197Y0196062D01*
X0209265Y0194994D01*
X0210662Y0194415D01*
X0212173Y0194415D01*
X0212634Y0194606D01*
X0212933Y0193884D01*
X0212173Y0194199D01*
X0210662Y0194199D01*
X0209265Y0193620D01*
X0208197Y0192552D01*
X0207618Y0191155D01*
X0207618Y0189644D01*
X0207802Y0189199D01*
X0206912Y0189199D01*
X0205515Y0188620D01*
X0204447Y0187552D01*
X0203868Y0186155D01*
X0203868Y0184644D01*
X0204447Y0183248D01*
X0205515Y0182179D01*
X0206793Y0181650D01*
X0205515Y0181120D01*
X0204447Y0180052D01*
X0203868Y0178655D01*
X0203868Y0177144D01*
X0204447Y0175748D01*
X0205515Y0174679D01*
X0206793Y0174150D01*
X0205515Y0173620D01*
X0204447Y0172552D01*
X0203868Y0171155D01*
X0203868Y0169644D01*
X0204447Y0168248D01*
X0205419Y0167275D01*
X0204447Y0166302D01*
X0203868Y0164905D01*
X0203868Y0163865D02*
X0176544Y0163865D01*
X0177597Y0162567D02*
X0204210Y0162567D01*
X0204433Y0161270D02*
X0178135Y0161270D01*
X0178307Y0159972D02*
X0203896Y0159972D01*
X0203868Y0158674D02*
X0178307Y0158674D01*
X0177822Y0157376D02*
X0199896Y0157376D01*
X0199095Y0156079D02*
X0192415Y0156079D01*
X0194585Y0154781D02*
X0198868Y0154781D01*
X0201467Y0150888D02*
X0213025Y0150888D01*
X0212618Y0149590D02*
X0201444Y0149590D01*
X0200907Y0148292D02*
X0208937Y0148292D01*
X0207966Y0146995D02*
X0199375Y0146995D01*
X0195960Y0146995D02*
X0195266Y0146995D01*
X0193968Y0145697D02*
X0207618Y0145697D01*
X0207719Y0144399D02*
X0171467Y0144399D01*
X0171345Y0143102D02*
X0204996Y0143102D01*
X0204137Y0141804D02*
X0170694Y0141804D01*
X0168799Y0140506D02*
X0200541Y0140506D01*
X0199356Y0139208D02*
X0173846Y0139208D01*
X0175192Y0137911D02*
X0193555Y0137911D01*
X0198029Y0137911D02*
X0198868Y0137911D01*
X0187454Y0136613D02*
X0175482Y0136613D01*
X0175161Y0135315D02*
X0186087Y0135315D01*
X0185326Y0134017D02*
X0173669Y0134017D01*
X0172717Y0132720D02*
X0184823Y0132720D01*
X0184823Y0131422D02*
X0172676Y0131422D01*
X0174424Y0130124D02*
X0184977Y0130124D01*
X0185515Y0128827D02*
X0175330Y0128827D01*
X0175482Y0127529D02*
X0186542Y0127529D01*
X0188553Y0126231D02*
X0174980Y0126231D01*
X0171733Y0122338D02*
X0160977Y0122338D01*
X0161467Y0121040D02*
X0170588Y0121040D01*
X0170118Y0119742D02*
X0161467Y0119742D01*
X0160970Y0118445D02*
X0170118Y0118445D01*
X0170635Y0117147D02*
X0169555Y0117147D01*
X0170851Y0115849D02*
X0171957Y0115849D01*
X0171272Y0109361D02*
X0170559Y0109361D01*
X0173747Y0109361D02*
X0180240Y0109361D01*
X0178145Y0108063D02*
X0176244Y0108063D01*
X0167547Y0106765D02*
X0157788Y0106765D01*
X0158325Y0105468D02*
X0167009Y0105468D01*
X0166713Y0104170D02*
X0158622Y0104170D01*
X0158622Y0102872D02*
X0166713Y0102872D01*
X0167073Y0101574D02*
X0158261Y0101574D01*
X0157702Y0100277D02*
X0167633Y0100277D01*
X0168931Y0098979D02*
X0156404Y0098979D01*
X0149246Y0098979D02*
X0147035Y0098979D01*
X0138930Y0098979D02*
X0137900Y0098979D01*
X0130742Y0098979D02*
X0107664Y0098979D01*
X0108873Y0100277D02*
X0129444Y0100277D01*
X0128884Y0101574D02*
X0109411Y0101574D01*
X0109744Y0102872D02*
X0128524Y0102872D01*
X0128524Y0104170D02*
X0109744Y0104170D01*
X0109475Y0105468D02*
X0128820Y0105468D01*
X0129358Y0106765D02*
X0108938Y0106765D01*
X0107819Y0108063D02*
X0130587Y0108063D01*
X0133083Y0109361D02*
X0105724Y0109361D01*
X0101500Y0109361D02*
X0066354Y0109361D01*
X0068449Y0108063D02*
X0099405Y0108063D01*
X0098287Y0106765D02*
X0069567Y0106765D01*
X0070105Y0105468D02*
X0097749Y0105468D01*
X0097480Y0104170D02*
X0070374Y0104170D01*
X0070374Y0102872D02*
X0097480Y0102872D01*
X0097813Y0101574D02*
X0070041Y0101574D01*
X0069503Y0100277D02*
X0098351Y0100277D01*
X0099560Y0098979D02*
X0068294Y0098979D01*
X0060190Y0098979D02*
X0030089Y0098979D01*
X0030089Y0100277D02*
X0058981Y0100277D01*
X0058443Y0101574D02*
X0030089Y0101574D01*
X0030089Y0102872D02*
X0058110Y0102872D01*
X0058110Y0104170D02*
X0030089Y0104170D01*
X0030089Y0105468D02*
X0058379Y0105468D01*
X0058917Y0106765D02*
X0030089Y0106765D01*
X0030089Y0108063D02*
X0060035Y0108063D01*
X0062130Y0109361D02*
X0030089Y0109361D01*
X0030089Y0110658D02*
X0120407Y0110658D01*
X0118768Y0111956D02*
X0030089Y0111956D01*
X0030089Y0113254D02*
X0117838Y0113254D01*
X0117301Y0114552D02*
X0030089Y0114552D01*
X0030089Y0115849D02*
X0117165Y0115849D01*
X0117165Y0117147D02*
X0030089Y0117147D01*
X0030089Y0118445D02*
X0117632Y0118445D01*
X0118270Y0119742D02*
X0030089Y0119742D01*
X0030089Y0121040D02*
X0040786Y0121040D01*
X0039488Y0122338D02*
X0030089Y0122338D01*
X0030089Y0123636D02*
X0038875Y0123636D01*
X0038425Y0124933D02*
X0030089Y0124933D01*
X0030089Y0126231D02*
X0038425Y0126231D01*
X0038578Y0127529D02*
X0030089Y0127529D01*
X0030089Y0128827D02*
X0039115Y0128827D01*
X0040069Y0130124D02*
X0030089Y0130124D01*
X0030089Y0131422D02*
X0041766Y0131422D01*
X0030089Y0132720D02*
X0119264Y0132720D01*
X0118044Y0134017D02*
X0030089Y0134017D01*
X0030089Y0135315D02*
X0117506Y0135315D01*
X0117165Y0136613D02*
X0030089Y0136613D01*
X0030089Y0137911D02*
X0117165Y0137911D01*
X0117426Y0139208D02*
X0030089Y0139208D01*
X0030089Y0140506D02*
X0117964Y0140506D01*
X0119071Y0141804D02*
X0030089Y0141804D01*
X0030089Y0143102D02*
X0121139Y0143102D01*
X0125455Y0143102D02*
X0137722Y0143102D01*
X0137352Y0141804D02*
X0127523Y0141804D01*
X0128630Y0140506D02*
X0137594Y0140506D01*
X0138705Y0139208D02*
X0129168Y0139208D01*
X0129429Y0137911D02*
X0137643Y0137911D01*
X0137352Y0136613D02*
X0129429Y0136613D01*
X0129088Y0135315D02*
X0137673Y0135315D01*
X0139450Y0144399D02*
X0030089Y0144399D01*
X0030089Y0145697D02*
X0138950Y0145697D01*
X0138868Y0146995D02*
X0030089Y0146995D01*
X0030089Y0148292D02*
X0139236Y0148292D01*
X0140235Y0149590D02*
X0030089Y0149590D01*
X0030089Y0166461D02*
X0204605Y0166461D01*
X0204936Y0167758D02*
X0030089Y0167758D01*
X0030089Y0169056D02*
X0177823Y0169056D01*
X0177323Y0169263D02*
X0178357Y0168835D01*
X0179477Y0168835D01*
X0180512Y0169263D01*
X0181304Y0170055D01*
X0181732Y0171090D01*
X0181732Y0172210D01*
X0181304Y0173244D01*
X0180512Y0174036D01*
X0179477Y0174465D01*
X0178357Y0174465D01*
X0177323Y0174036D01*
X0176531Y0173244D01*
X0176102Y0172210D01*
X0176102Y0171090D01*
X0176531Y0170055D01*
X0177323Y0169263D01*
X0176407Y0170354D02*
X0030089Y0170354D01*
X0030089Y0171651D02*
X0176102Y0171651D01*
X0176409Y0172949D02*
X0030089Y0172949D01*
X0030089Y0174247D02*
X0177832Y0174247D01*
X0180003Y0174247D02*
X0206558Y0174247D01*
X0204844Y0172949D02*
X0181426Y0172949D01*
X0181732Y0171651D02*
X0204074Y0171651D01*
X0203868Y0170354D02*
X0181427Y0170354D01*
X0180012Y0169056D02*
X0204112Y0169056D01*
X0210399Y0167758D02*
X0216514Y0167758D01*
X0216368Y0166461D02*
X0210729Y0166461D01*
X0211360Y0165163D02*
X0216671Y0165163D01*
X0217579Y0163865D02*
X0211467Y0163865D01*
X0211124Y0162567D02*
X0216962Y0162567D01*
X0216415Y0161270D02*
X0210901Y0161270D01*
X0211439Y0159972D02*
X0216368Y0159972D01*
X0216770Y0158674D02*
X0211467Y0158674D01*
X0211045Y0157376D02*
X0217818Y0157376D01*
X0216854Y0156079D02*
X0209969Y0156079D01*
X0206467Y0154781D02*
X0216368Y0154781D01*
X0216368Y0153483D02*
X0206245Y0153483D01*
X0205451Y0152186D02*
X0214080Y0152186D01*
X0220217Y0149590D02*
X0281152Y0149590D01*
X0281152Y0148292D02*
X0220174Y0148292D01*
X0219635Y0146995D02*
X0281152Y0146995D01*
X0281152Y0145697D02*
X0218010Y0145697D01*
X0215115Y0144399D02*
X0281152Y0144399D01*
X0281152Y0143102D02*
X0214492Y0143102D01*
X0212664Y0141804D02*
X0281152Y0141804D01*
X0281152Y0140506D02*
X0211467Y0140506D01*
X0211286Y0139208D02*
X0281152Y0139208D01*
X0281152Y0137911D02*
X0210551Y0137911D01*
X0201525Y0123636D02*
X0159783Y0123636D01*
X0159743Y0117147D02*
X0162867Y0117147D01*
X0160738Y0113254D02*
X0128756Y0113254D01*
X0127827Y0111956D02*
X0160738Y0111956D01*
X0161154Y0110658D02*
X0126187Y0110658D01*
X0135558Y0109361D02*
X0140870Y0109361D01*
X0138775Y0108063D02*
X0138055Y0108063D01*
X0145094Y0109361D02*
X0151587Y0109361D01*
X0154062Y0109361D02*
X0161863Y0109361D01*
X0163231Y0108063D02*
X0156559Y0108063D01*
X0149091Y0108063D02*
X0147190Y0108063D01*
X0119567Y0121040D02*
X0048328Y0121040D01*
X0101710Y0073024D02*
X0101780Y0073024D01*
X0105323Y0070429D02*
X0107345Y0070429D01*
X0107492Y0071727D02*
X0112842Y0071727D01*
X0113015Y0071554D02*
X0111947Y0072623D01*
X0111368Y0074019D01*
X0111368Y0075530D01*
X0111947Y0076927D01*
X0113015Y0077995D01*
X0114412Y0078574D01*
X0115923Y0078574D01*
X0117319Y0077995D01*
X0118388Y0076927D01*
X0118967Y0075530D01*
X0118967Y0074019D01*
X0118388Y0072623D01*
X0117319Y0071554D01*
X0115923Y0070975D01*
X0114412Y0070975D01*
X0113015Y0071554D01*
X0112990Y0070429D02*
X0116328Y0070429D01*
X0115540Y0069131D02*
X0114305Y0069131D01*
X0114918Y0067834D02*
X0115133Y0067834D01*
X0115201Y0065238D02*
X0115510Y0065238D01*
X0116258Y0063940D02*
X0114701Y0063940D01*
X0113779Y0062643D02*
X0117894Y0062643D01*
X0122441Y0062643D02*
X0126555Y0062643D01*
X0125634Y0063940D02*
X0124077Y0063940D01*
X0124824Y0065238D02*
X0125133Y0065238D01*
X0125201Y0067834D02*
X0125416Y0067834D01*
X0126030Y0069131D02*
X0124795Y0069131D01*
X0124007Y0070429D02*
X0127345Y0070429D01*
X0127319Y0071554D02*
X0128388Y0072623D01*
X0128967Y0074019D01*
X0128967Y0075530D01*
X0128388Y0076927D01*
X0127319Y0077995D01*
X0125923Y0078574D01*
X0124412Y0078574D01*
X0123015Y0077995D01*
X0121947Y0076927D01*
X0121368Y0075530D01*
X0121368Y0074019D01*
X0121947Y0072623D01*
X0123015Y0071554D01*
X0124412Y0070975D01*
X0125923Y0070975D01*
X0127319Y0071554D01*
X0127492Y0071727D02*
X0136234Y0071727D01*
X0135012Y0070429D02*
X0132990Y0070429D01*
X0134305Y0069131D02*
X0134474Y0069131D01*
X0138624Y0073024D02*
X0128555Y0073024D01*
X0128967Y0074322D02*
X0151368Y0074322D01*
X0151368Y0074019D02*
X0151947Y0072623D01*
X0153015Y0071554D01*
X0154412Y0070975D01*
X0155923Y0070975D01*
X0157319Y0071554D01*
X0158388Y0072623D01*
X0158967Y0074019D01*
X0158967Y0075530D01*
X0158388Y0076927D01*
X0157319Y0077995D01*
X0155923Y0078574D01*
X0154412Y0078574D01*
X0153015Y0077995D01*
X0151947Y0076927D01*
X0151368Y0075530D01*
X0151368Y0074019D01*
X0151780Y0073024D02*
X0141710Y0073024D01*
X0144101Y0071727D02*
X0152842Y0071727D01*
X0152990Y0070429D02*
X0156328Y0070429D01*
X0155540Y0069131D02*
X0154305Y0069131D01*
X0154918Y0067834D02*
X0155133Y0067834D01*
X0155201Y0065238D02*
X0155510Y0065238D01*
X0156258Y0063940D02*
X0154701Y0063940D01*
X0153779Y0062643D02*
X0157894Y0062643D01*
X0151722Y0061345D02*
X0168613Y0061345D01*
X0166555Y0062643D02*
X0162441Y0062643D01*
X0164077Y0063940D02*
X0165634Y0063940D01*
X0165133Y0065238D02*
X0164824Y0065238D01*
X0165201Y0067834D02*
X0165416Y0067834D01*
X0166030Y0069131D02*
X0164795Y0069131D01*
X0164007Y0070429D02*
X0167345Y0070429D01*
X0162842Y0071727D02*
X0162271Y0071727D01*
X0161780Y0073024D02*
X0158555Y0073024D01*
X0158967Y0074322D02*
X0161368Y0074322D01*
X0161405Y0075620D02*
X0158929Y0075620D01*
X0158392Y0076918D02*
X0161943Y0076918D01*
X0163546Y0078215D02*
X0156789Y0078215D01*
X0153546Y0078215D02*
X0126789Y0078215D01*
X0128392Y0076918D02*
X0151943Y0076918D01*
X0151405Y0075620D02*
X0128929Y0075620D01*
X0123546Y0078215D02*
X0116789Y0078215D01*
X0118392Y0076918D02*
X0121943Y0076918D01*
X0121405Y0075620D02*
X0118929Y0075620D01*
X0118967Y0074322D02*
X0121368Y0074322D01*
X0121780Y0073024D02*
X0118555Y0073024D01*
X0118063Y0071727D02*
X0117492Y0071727D01*
X0122271Y0071727D02*
X0122842Y0071727D01*
X0113546Y0078215D02*
X0106789Y0078215D01*
X0108392Y0076918D02*
X0111943Y0076918D01*
X0111405Y0075620D02*
X0108929Y0075620D01*
X0108967Y0074322D02*
X0111368Y0074322D01*
X0111780Y0073024D02*
X0108555Y0073024D01*
X0106030Y0069131D02*
X0105860Y0069131D01*
X0105634Y0063940D02*
X0105352Y0063940D01*
X0104171Y0062643D02*
X0106555Y0062643D01*
X0108613Y0061345D02*
X0101880Y0061345D01*
X0098455Y0061345D02*
X0091722Y0061345D01*
X0093779Y0062643D02*
X0096163Y0062643D01*
X0094983Y0063940D02*
X0094701Y0063940D01*
X0111722Y0061345D02*
X0128613Y0061345D01*
X0131722Y0061345D02*
X0138455Y0061345D01*
X0136163Y0062643D02*
X0133779Y0062643D01*
X0134701Y0063940D02*
X0134983Y0063940D01*
X0141880Y0061345D02*
X0148613Y0061345D01*
X0146555Y0062643D02*
X0144171Y0062643D01*
X0145352Y0063940D02*
X0145634Y0063940D01*
X0145860Y0069131D02*
X0146030Y0069131D01*
X0145323Y0070429D02*
X0147345Y0070429D01*
X0157492Y0071727D02*
X0158063Y0071727D01*
X0176089Y0098979D02*
X0178300Y0098979D01*
X0166536Y0140506D02*
X0158799Y0140506D01*
X0160694Y0141804D02*
X0164640Y0141804D01*
X0163989Y0143102D02*
X0161345Y0143102D01*
X0161467Y0144399D02*
X0163868Y0144399D01*
X0163620Y0145697D02*
X0161139Y0145697D01*
X0170397Y0146995D02*
X0185974Y0146995D01*
X0185279Y0148292D02*
X0171200Y0148292D01*
X0171683Y0149590D02*
X0184823Y0149590D01*
X0184823Y0150888D02*
X0171683Y0150888D01*
X0171455Y0152186D02*
X0185024Y0152186D01*
X0185561Y0153483D02*
X0170918Y0153483D01*
X0175781Y0154781D02*
X0186655Y0154781D01*
X0188825Y0156079D02*
X0177086Y0156079D01*
X0171139Y0145697D02*
X0187272Y0145697D01*
X0211223Y0169056D02*
X0217201Y0169056D01*
X0217340Y0170354D02*
X0211467Y0170354D01*
X0211261Y0171651D02*
X0216572Y0171651D01*
X0216368Y0172949D02*
X0210491Y0172949D01*
X0208777Y0174247D02*
X0216613Y0174247D01*
X0217439Y0175545D02*
X0210685Y0175545D01*
X0211342Y0176842D02*
X0218828Y0176842D01*
X0217054Y0178140D02*
X0211467Y0178140D01*
X0211142Y0179438D02*
X0216453Y0179438D01*
X0216368Y0180736D02*
X0210204Y0180736D01*
X0209468Y0182033D02*
X0216732Y0182033D01*
X0217726Y0183331D02*
X0210923Y0183331D01*
X0211460Y0184629D02*
X0221374Y0184629D01*
X0221368Y0185926D02*
X0211467Y0185926D01*
X0213615Y0187224D02*
X0221811Y0187224D01*
X0222917Y0188522D02*
X0214752Y0188522D01*
X0215217Y0189820D02*
X0239313Y0189820D01*
X0239447Y0189498D02*
X0240515Y0188429D01*
X0241912Y0187850D01*
X0242618Y0187850D01*
X0242618Y0187144D01*
X0243197Y0185748D01*
X0244265Y0184679D01*
X0245014Y0184369D01*
X0244447Y0183802D01*
X0243868Y0182405D01*
X0243868Y0180894D01*
X0244447Y0179498D01*
X0245419Y0178525D01*
X0244447Y0177552D01*
X0243868Y0176155D01*
X0243868Y0174644D01*
X0244447Y0173248D01*
X0245515Y0172179D01*
X0246264Y0171869D01*
X0245697Y0171302D01*
X0245118Y0169905D01*
X0245118Y0168394D01*
X0245697Y0166998D01*
X0246765Y0165929D01*
X0248162Y0165350D01*
X0249673Y0165350D01*
X0250466Y0165679D01*
X0250697Y0165123D01*
X0251765Y0164054D01*
X0253162Y0163475D01*
X0254673Y0163475D01*
X0256069Y0164054D01*
X0256730Y0164714D01*
X0257390Y0164054D01*
X0258787Y0163475D01*
X0260298Y0163475D01*
X0261694Y0164054D01*
X0262763Y0165123D01*
X0263342Y0166519D01*
X0263342Y0168030D01*
X0262763Y0169427D01*
X0261694Y0170495D01*
X0260298Y0171074D01*
X0258787Y0171074D01*
X0257390Y0170495D01*
X0256730Y0169835D01*
X0256069Y0170495D01*
X0254673Y0171074D01*
X0253162Y0171074D01*
X0252369Y0170745D01*
X0252138Y0171302D01*
X0251069Y0172370D01*
X0250321Y0172680D01*
X0250888Y0173248D01*
X0251467Y0174644D01*
X0251467Y0176155D01*
X0250888Y0177552D01*
X0249915Y0178525D01*
X0250888Y0179498D01*
X0251467Y0180894D01*
X0251467Y0182405D01*
X0250888Y0183802D01*
X0249819Y0184870D01*
X0249071Y0185180D01*
X0249638Y0185748D01*
X0250217Y0187144D01*
X0250217Y0188655D01*
X0249638Y0190052D01*
X0248569Y0191120D01*
X0247292Y0191650D01*
X0248569Y0192179D01*
X0249638Y0193248D01*
X0250217Y0194644D01*
X0250217Y0196155D01*
X0249638Y0197552D01*
X0248569Y0198620D01*
X0247411Y0199100D01*
X0248423Y0199100D01*
X0249819Y0199679D01*
X0250888Y0200748D01*
X0251467Y0202144D01*
X0251467Y0203655D01*
X0250888Y0205052D01*
X0249915Y0206025D01*
X0250888Y0206998D01*
X0251467Y0208394D01*
X0251467Y0209905D01*
X0250888Y0211302D01*
X0250138Y0212052D01*
X0250444Y0212179D01*
X0251513Y0213248D01*
X0251523Y0213270D01*
X0252537Y0212850D01*
X0254048Y0212850D01*
X0255444Y0213429D01*
X0256417Y0214402D01*
X0257390Y0213429D01*
X0258787Y0212850D01*
X0260298Y0212850D01*
X0261694Y0213429D01*
X0262763Y0214498D01*
X0263342Y0215894D01*
X0263342Y0217405D01*
X0262763Y0218802D01*
X0261694Y0219870D01*
X0260298Y0220449D01*
X0258787Y0220449D01*
X0257390Y0219870D01*
X0256417Y0218897D01*
X0255444Y0219870D01*
X0254048Y0220449D01*
X0252537Y0220449D01*
X0251140Y0219870D01*
X0250072Y0218802D01*
X0250062Y0218779D01*
X0249048Y0219199D01*
X0247537Y0219199D01*
X0246140Y0218620D01*
X0245072Y0217552D01*
X0244493Y0216155D01*
X0244493Y0214644D01*
X0245072Y0213248D01*
X0245822Y0212497D01*
X0245515Y0212370D01*
X0244447Y0211302D01*
X0243868Y0209905D01*
X0243868Y0208394D01*
X0244447Y0206998D01*
X0245419Y0206025D01*
X0244447Y0205052D01*
X0243868Y0203655D01*
X0243868Y0202144D01*
X0244447Y0200748D01*
X0245515Y0199679D01*
X0246674Y0199199D01*
X0245662Y0199199D01*
X0244265Y0198620D01*
X0243197Y0197552D01*
X0242618Y0196155D01*
X0242618Y0195449D01*
X0241912Y0195449D01*
X0240515Y0194870D01*
X0239447Y0193802D01*
X0238868Y0192405D01*
X0238868Y0190894D01*
X0239447Y0189498D01*
X0240422Y0188522D02*
X0236168Y0188522D01*
X0236069Y0188620D02*
X0234673Y0189199D01*
X0233162Y0189199D01*
X0231765Y0188620D01*
X0230697Y0187552D01*
X0230118Y0186155D01*
X0230118Y0184644D01*
X0230697Y0183248D01*
X0231765Y0182179D01*
X0233162Y0181600D01*
X0234673Y0181600D01*
X0234796Y0181651D01*
X0234447Y0181302D01*
X0233868Y0179905D01*
X0233868Y0178394D01*
X0234447Y0176998D01*
X0235515Y0175929D01*
X0236912Y0175350D01*
X0238423Y0175350D01*
X0239819Y0175929D01*
X0240888Y0176998D01*
X0241467Y0178394D01*
X0241467Y0179905D01*
X0240888Y0181302D01*
X0239819Y0182370D01*
X0238423Y0182949D01*
X0236912Y0182949D01*
X0236788Y0182898D01*
X0237138Y0183248D01*
X0237717Y0184644D01*
X0237717Y0186155D01*
X0237138Y0187552D01*
X0236069Y0188620D01*
X0237274Y0187224D02*
X0242618Y0187224D01*
X0243122Y0185926D02*
X0237717Y0185926D01*
X0237710Y0184629D02*
X0244386Y0184629D01*
X0244252Y0183331D02*
X0237173Y0183331D01*
X0240157Y0182033D02*
X0243868Y0182033D01*
X0243934Y0180736D02*
X0241123Y0180736D01*
X0241467Y0179438D02*
X0244506Y0179438D01*
X0245035Y0178140D02*
X0241361Y0178140D01*
X0240733Y0176842D02*
X0244153Y0176842D01*
X0243868Y0175545D02*
X0238892Y0175545D01*
X0238423Y0174199D02*
X0239819Y0173620D01*
X0240888Y0172552D01*
X0241467Y0171155D01*
X0241467Y0169644D01*
X0240888Y0168248D01*
X0240589Y0167949D01*
X0240923Y0167949D01*
X0242319Y0167370D01*
X0243388Y0166302D01*
X0243967Y0164905D01*
X0243967Y0163394D01*
X0243652Y0162634D01*
X0244412Y0162949D01*
X0245923Y0162949D01*
X0247319Y0162370D01*
X0248388Y0161302D01*
X0248967Y0159905D01*
X0248967Y0158394D01*
X0248915Y0158271D01*
X0249890Y0159245D01*
X0251287Y0159824D01*
X0252798Y0159824D01*
X0254194Y0159245D01*
X0255263Y0158177D01*
X0255792Y0156899D01*
X0256322Y0158177D01*
X0257390Y0159245D01*
X0258787Y0159824D01*
X0260298Y0159824D01*
X0261694Y0159245D01*
X0262763Y0158177D01*
X0263342Y0156780D01*
X0263342Y0155269D01*
X0262763Y0153873D01*
X0261694Y0152804D01*
X0260298Y0152225D01*
X0258787Y0152225D01*
X0257390Y0152804D01*
X0256322Y0153873D01*
X0255792Y0155150D01*
X0255263Y0153873D01*
X0254194Y0152804D01*
X0252798Y0152225D01*
X0251287Y0152225D01*
X0249890Y0152804D01*
X0248822Y0153873D01*
X0248243Y0155269D01*
X0248243Y0156780D01*
X0248294Y0156904D01*
X0247319Y0155929D01*
X0245923Y0155350D01*
X0244412Y0155350D01*
X0243015Y0155929D01*
X0241947Y0156998D01*
X0241368Y0158394D01*
X0241368Y0159905D01*
X0241683Y0160665D01*
X0240923Y0160350D01*
X0239412Y0160350D01*
X0238015Y0160929D01*
X0236947Y0161998D01*
X0236368Y0163394D01*
X0236368Y0164905D01*
X0236947Y0166302D01*
X0237245Y0166600D01*
X0236912Y0166600D01*
X0235515Y0167179D01*
X0234447Y0168248D01*
X0233868Y0169644D01*
X0233868Y0171155D01*
X0234447Y0172552D01*
X0235515Y0173620D01*
X0236912Y0174199D01*
X0238423Y0174199D01*
X0236443Y0175545D02*
X0222895Y0175545D01*
X0223721Y0174247D02*
X0244033Y0174247D01*
X0244745Y0172949D02*
X0240491Y0172949D01*
X0241261Y0171651D02*
X0246046Y0171651D01*
X0245304Y0170354D02*
X0241467Y0170354D01*
X0241223Y0169056D02*
X0245118Y0169056D01*
X0245381Y0167758D02*
X0241383Y0167758D01*
X0243229Y0166461D02*
X0246233Y0166461D01*
X0243860Y0165163D02*
X0250680Y0165163D01*
X0252221Y0163865D02*
X0243967Y0163865D01*
X0246844Y0162567D02*
X0281152Y0162567D01*
X0281152Y0161270D02*
X0248401Y0161270D01*
X0248939Y0159972D02*
X0281152Y0159972D01*
X0281152Y0158674D02*
X0262266Y0158674D01*
X0263095Y0157376D02*
X0281152Y0157376D01*
X0281152Y0156079D02*
X0263342Y0156079D01*
X0263139Y0154781D02*
X0281152Y0154781D01*
X0281152Y0153483D02*
X0262374Y0153483D01*
X0256711Y0153483D02*
X0254874Y0153483D01*
X0255639Y0154781D02*
X0255945Y0154781D01*
X0255990Y0157376D02*
X0255595Y0157376D01*
X0254766Y0158674D02*
X0256819Y0158674D01*
X0257846Y0163865D02*
X0255614Y0163865D01*
X0261239Y0163865D02*
X0281152Y0163865D01*
X0281152Y0165163D02*
X0262780Y0165163D01*
X0263317Y0166461D02*
X0281152Y0166461D01*
X0281152Y0167758D02*
X0263342Y0167758D01*
X0262917Y0169056D02*
X0281152Y0169056D01*
X0281152Y0170354D02*
X0261836Y0170354D01*
X0257249Y0170354D02*
X0256211Y0170354D01*
X0251788Y0171651D02*
X0281152Y0171651D01*
X0281152Y0172949D02*
X0250590Y0172949D01*
X0251302Y0174247D02*
X0281152Y0174247D01*
X0281152Y0175545D02*
X0251467Y0175545D01*
X0251182Y0176842D02*
X0281152Y0176842D01*
X0281152Y0178140D02*
X0250300Y0178140D01*
X0250828Y0179438D02*
X0281152Y0179438D01*
X0281152Y0180736D02*
X0251401Y0180736D01*
X0251467Y0182033D02*
X0281152Y0182033D01*
X0281152Y0183331D02*
X0251083Y0183331D01*
X0250061Y0184629D02*
X0281152Y0184629D01*
X0281152Y0185926D02*
X0249712Y0185926D01*
X0250217Y0187224D02*
X0281152Y0187224D01*
X0281152Y0188522D02*
X0274912Y0188522D01*
X0274819Y0188429D02*
X0275888Y0189498D01*
X0276467Y0190894D01*
X0276467Y0192405D01*
X0275888Y0193802D01*
X0274819Y0194870D01*
X0273423Y0195449D01*
X0271912Y0195449D01*
X0270515Y0194870D01*
X0269447Y0193802D01*
X0268868Y0192405D01*
X0268868Y0190894D01*
X0269447Y0189498D01*
X0270515Y0188429D01*
X0271912Y0187850D01*
X0273423Y0187850D01*
X0274819Y0188429D01*
X0276022Y0189820D02*
X0281152Y0189820D01*
X0281152Y0191117D02*
X0276467Y0191117D01*
X0276463Y0192415D02*
X0281152Y0192415D01*
X0281152Y0193713D02*
X0275925Y0193713D01*
X0274481Y0195010D02*
X0281152Y0195010D01*
X0281152Y0196308D02*
X0250153Y0196308D01*
X0250217Y0195010D02*
X0270853Y0195010D01*
X0269410Y0193713D02*
X0249831Y0193713D01*
X0248806Y0192415D02*
X0268872Y0192415D01*
X0268868Y0191117D02*
X0248573Y0191117D01*
X0249734Y0189820D02*
X0269313Y0189820D01*
X0270422Y0188522D02*
X0250217Y0188522D01*
X0249584Y0197606D02*
X0281152Y0197606D01*
X0281152Y0198904D02*
X0247886Y0198904D01*
X0250342Y0200201D02*
X0281152Y0200201D01*
X0281152Y0201499D02*
X0251199Y0201499D01*
X0251467Y0202797D02*
X0281152Y0202797D01*
X0281152Y0204095D02*
X0251285Y0204095D01*
X0250548Y0205392D02*
X0281152Y0205392D01*
X0281152Y0206690D02*
X0250581Y0206690D01*
X0251298Y0207988D02*
X0281152Y0207988D01*
X0281152Y0209285D02*
X0251467Y0209285D01*
X0251186Y0210583D02*
X0281152Y0210583D01*
X0281152Y0211881D02*
X0250309Y0211881D01*
X0251444Y0213179D02*
X0251744Y0213179D01*
X0254840Y0213179D02*
X0257994Y0213179D01*
X0261090Y0213179D02*
X0281152Y0213179D01*
X0281152Y0214476D02*
X0262742Y0214476D01*
X0263292Y0215774D02*
X0281152Y0215774D01*
X0281152Y0217072D02*
X0263342Y0217072D01*
X0262942Y0218370D02*
X0281152Y0218370D01*
X0281152Y0219667D02*
X0261898Y0219667D01*
X0259194Y0223429D02*
X0257798Y0222850D01*
X0256287Y0222850D01*
X0254890Y0223429D01*
X0253822Y0224498D01*
X0253243Y0225894D01*
X0253243Y0227405D01*
X0253822Y0228802D01*
X0254890Y0229870D01*
X0256287Y0230449D01*
X0257798Y0230449D01*
X0259194Y0229870D01*
X0260263Y0228802D01*
X0260842Y0227405D01*
X0260842Y0225894D01*
X0260263Y0224498D01*
X0259194Y0223429D01*
X0259326Y0223560D02*
X0281152Y0223560D01*
X0281152Y0222263D02*
X0245217Y0222263D01*
X0245217Y0221519D02*
X0245217Y0223030D01*
X0244638Y0224427D01*
X0243569Y0225495D01*
X0242173Y0226074D01*
X0240662Y0226074D01*
X0239265Y0225495D01*
X0238197Y0224427D01*
X0237618Y0223030D01*
X0237618Y0221699D01*
X0237537Y0221699D01*
X0236140Y0221120D01*
X0235072Y0220052D01*
X0234493Y0218655D01*
X0234493Y0217144D01*
X0235072Y0215748D01*
X0236044Y0214775D01*
X0235072Y0213802D01*
X0234493Y0212405D01*
X0234493Y0210894D01*
X0235072Y0209498D01*
X0236044Y0208525D01*
X0235072Y0207552D01*
X0234493Y0206155D01*
X0234493Y0204644D01*
X0235072Y0203248D01*
X0235419Y0202900D01*
X0234447Y0201927D01*
X0233868Y0200530D01*
X0233868Y0200197D01*
X0233569Y0200495D01*
X0232173Y0201074D01*
X0230662Y0201074D01*
X0229265Y0200495D01*
X0228515Y0199745D01*
X0228388Y0200052D01*
X0227319Y0201120D01*
X0225923Y0201699D01*
X0224412Y0201699D01*
X0223015Y0201120D01*
X0221947Y0200052D01*
X0221368Y0198655D01*
X0221368Y0197144D01*
X0221947Y0195748D01*
X0223015Y0194679D01*
X0224412Y0194100D01*
X0225923Y0194100D01*
X0227319Y0194679D01*
X0228070Y0195429D01*
X0228197Y0195123D01*
X0229265Y0194054D01*
X0230662Y0193475D01*
X0232173Y0193475D01*
X0233569Y0194054D01*
X0234638Y0195123D01*
X0235217Y0196519D01*
X0235217Y0196853D01*
X0235515Y0196554D01*
X0236912Y0195975D01*
X0238423Y0195975D01*
X0239819Y0196554D01*
X0240888Y0197623D01*
X0241467Y0199019D01*
X0241467Y0200530D01*
X0240888Y0201927D01*
X0240540Y0202275D01*
X0241513Y0203248D01*
X0242092Y0204644D01*
X0242092Y0206155D01*
X0241513Y0207552D01*
X0240540Y0208525D01*
X0241513Y0209498D01*
X0242092Y0210894D01*
X0242092Y0212405D01*
X0241513Y0213802D01*
X0240540Y0214775D01*
X0241513Y0215748D01*
X0242092Y0217144D01*
X0242092Y0218475D01*
X0242173Y0218475D01*
X0243569Y0219054D01*
X0244638Y0220123D01*
X0245217Y0221519D01*
X0244987Y0220965D02*
X0281152Y0220965D01*
X0281152Y0224858D02*
X0260412Y0224858D01*
X0260842Y0226156D02*
X0281152Y0226156D01*
X0281152Y0227454D02*
X0260822Y0227454D01*
X0260284Y0228751D02*
X0281152Y0228751D01*
X0281152Y0230049D02*
X0258763Y0230049D01*
X0255321Y0230049D02*
X0251821Y0230049D01*
X0250906Y0229134D02*
X0248417Y0227697D01*
X0245640Y0226953D01*
X0242765Y0226953D01*
X0239989Y0227697D01*
X0237499Y0229134D01*
X0235467Y0231167D01*
X0234029Y0233656D01*
X0233285Y0236433D01*
X0233285Y0239307D01*
X0234029Y0242084D01*
X0235467Y0244573D01*
X0237499Y0246606D01*
X0239989Y0248043D01*
X0242765Y0248787D01*
X0245640Y0248787D01*
X0248417Y0248043D01*
X0250906Y0246606D01*
X0252939Y0244573D01*
X0254376Y0242084D01*
X0255120Y0239307D01*
X0255120Y0236433D01*
X0254376Y0233656D01*
X0252939Y0231167D01*
X0250906Y0229134D01*
X0250243Y0228751D02*
X0253801Y0228751D01*
X0253263Y0227454D02*
X0247509Y0227454D01*
X0244207Y0224858D02*
X0253672Y0224858D01*
X0253243Y0226156D02*
X0227695Y0226156D01*
X0227717Y0226209D02*
X0227717Y0227720D01*
X0227138Y0229117D01*
X0226165Y0230090D01*
X0227138Y0231062D01*
X0227717Y0232459D01*
X0227717Y0233970D01*
X0227138Y0235367D01*
X0226165Y0236340D01*
X0227138Y0237312D01*
X0227717Y0238709D01*
X0227717Y0240220D01*
X0227138Y0241617D01*
X0226790Y0241965D01*
X0227138Y0242312D01*
X0227717Y0243709D01*
X0227717Y0245220D01*
X0227138Y0246617D01*
X0226790Y0246965D01*
X0227138Y0247312D01*
X0227717Y0248709D01*
X0227717Y0250220D01*
X0227138Y0251617D01*
X0226069Y0252685D01*
X0224673Y0253264D01*
X0223162Y0253264D01*
X0221765Y0252685D01*
X0221417Y0252337D01*
X0221069Y0252685D01*
X0219673Y0253264D01*
X0218162Y0253264D01*
X0216765Y0252685D01*
X0216417Y0252337D01*
X0216069Y0252685D01*
X0214673Y0253264D01*
X0213162Y0253264D01*
X0211765Y0252685D01*
X0211417Y0252337D01*
X0211069Y0252685D01*
X0209673Y0253264D01*
X0208162Y0253264D01*
X0206765Y0252685D01*
X0205697Y0251617D01*
X0205118Y0250220D01*
X0205118Y0248709D01*
X0205302Y0248264D01*
X0204412Y0248264D01*
X0203015Y0247685D01*
X0201947Y0246617D01*
X0201368Y0245220D01*
X0201368Y0243709D01*
X0201683Y0242949D01*
X0200923Y0243264D01*
X0199412Y0243264D01*
X0198015Y0242685D01*
X0196947Y0241617D01*
X0196368Y0240220D01*
X0196368Y0238709D01*
X0196947Y0237312D01*
X0197245Y0237014D01*
X0196912Y0237014D01*
X0195515Y0236435D01*
X0194447Y0235367D01*
X0193868Y0233970D01*
X0193868Y0232459D01*
X0194447Y0231062D01*
X0195515Y0229994D01*
X0196912Y0229415D01*
X0197245Y0229415D01*
X0196947Y0229117D01*
X0196368Y0227720D01*
X0196368Y0226209D01*
X0196947Y0224812D01*
X0198015Y0223744D01*
X0199412Y0223165D01*
X0200923Y0223165D01*
X0202113Y0223658D01*
X0201947Y0223492D01*
X0201368Y0222095D01*
X0201368Y0220584D01*
X0201947Y0219187D01*
X0203015Y0218119D01*
X0204412Y0217540D01*
X0205923Y0217540D01*
X0207319Y0218119D01*
X0208388Y0219187D01*
X0208967Y0220584D01*
X0208967Y0222095D01*
X0208388Y0223492D01*
X0207728Y0224152D01*
X0208388Y0224812D01*
X0208967Y0226209D01*
X0208967Y0227720D01*
X0208388Y0229117D01*
X0207415Y0230090D01*
X0208388Y0231062D01*
X0208967Y0232459D01*
X0208967Y0233970D01*
X0208388Y0235367D01*
X0207415Y0236340D01*
X0208388Y0237312D01*
X0208967Y0238709D01*
X0208967Y0240220D01*
X0208388Y0241617D01*
X0208040Y0241965D01*
X0208388Y0242312D01*
X0208967Y0243709D01*
X0208967Y0245220D01*
X0208782Y0245665D01*
X0209673Y0245665D01*
X0210433Y0245980D01*
X0210118Y0245220D01*
X0210118Y0243709D01*
X0210697Y0242312D01*
X0211765Y0241244D01*
X0213162Y0240665D01*
X0214673Y0240665D01*
X0216069Y0241244D01*
X0216417Y0241592D01*
X0216765Y0241244D01*
X0218162Y0240665D01*
X0219673Y0240665D01*
X0220433Y0240980D01*
X0220118Y0240220D01*
X0220118Y0238709D01*
X0220697Y0237312D01*
X0221669Y0236340D01*
X0220697Y0235367D01*
X0220118Y0233970D01*
X0220118Y0232459D01*
X0220697Y0231062D01*
X0221669Y0230090D01*
X0220697Y0229117D01*
X0220118Y0227720D01*
X0220118Y0226209D01*
X0220697Y0224812D01*
X0220863Y0224646D01*
X0219673Y0225139D01*
X0218162Y0225139D01*
X0216765Y0224560D01*
X0216417Y0224212D01*
X0216069Y0224560D01*
X0214673Y0225139D01*
X0213162Y0225139D01*
X0211765Y0224560D01*
X0210697Y0223492D01*
X0210118Y0222095D01*
X0210118Y0220584D01*
X0210576Y0219478D01*
X0209265Y0218935D01*
X0208197Y0217867D01*
X0207618Y0216470D01*
X0207618Y0214959D01*
X0208197Y0213562D01*
X0209265Y0212494D01*
X0210662Y0211915D01*
X0212173Y0211915D01*
X0213569Y0212494D01*
X0214638Y0213562D01*
X0215167Y0214840D01*
X0215697Y0213562D01*
X0216765Y0212494D01*
X0218162Y0211915D01*
X0219673Y0211915D01*
X0221069Y0212494D01*
X0221417Y0212842D01*
X0221765Y0212494D01*
X0223162Y0211915D01*
X0224673Y0211915D01*
X0226069Y0212494D01*
X0227138Y0213562D01*
X0227717Y0214959D01*
X0227717Y0216470D01*
X0227138Y0217867D01*
X0226478Y0218527D01*
X0227138Y0219187D01*
X0227717Y0220584D01*
X0227717Y0222095D01*
X0227138Y0223492D01*
X0226478Y0224152D01*
X0227138Y0224812D01*
X0227717Y0226209D01*
X0227717Y0227454D02*
X0240896Y0227454D01*
X0238162Y0228751D02*
X0227289Y0228751D01*
X0226206Y0230049D02*
X0236584Y0230049D01*
X0235363Y0231347D02*
X0227256Y0231347D01*
X0227717Y0232644D02*
X0234614Y0232644D01*
X0233953Y0233942D02*
X0227717Y0233942D01*
X0227191Y0235240D02*
X0233605Y0235240D01*
X0233285Y0236538D02*
X0226363Y0236538D01*
X0227355Y0237835D02*
X0233285Y0237835D01*
X0233285Y0239133D02*
X0227717Y0239133D01*
X0227629Y0240431D02*
X0233586Y0240431D01*
X0233934Y0241729D02*
X0227026Y0241729D01*
X0227434Y0243026D02*
X0234573Y0243026D01*
X0235323Y0244324D02*
X0227717Y0244324D01*
X0227550Y0245622D02*
X0236515Y0245622D01*
X0238042Y0246919D02*
X0226835Y0246919D01*
X0227513Y0248217D02*
X0240637Y0248217D01*
X0247768Y0248217D02*
X0269477Y0248217D01*
X0269447Y0248248D02*
X0270515Y0247179D01*
X0271912Y0246600D01*
X0273423Y0246600D01*
X0274819Y0247179D01*
X0275888Y0248248D01*
X0276467Y0249644D01*
X0276467Y0251155D01*
X0275888Y0252552D01*
X0274819Y0253620D01*
X0273423Y0254199D01*
X0271912Y0254199D01*
X0270515Y0253620D01*
X0269447Y0252552D01*
X0268868Y0251155D01*
X0268868Y0249644D01*
X0269447Y0248248D01*
X0268922Y0249515D02*
X0227717Y0249515D01*
X0227471Y0250813D02*
X0268868Y0250813D01*
X0269264Y0252110D02*
X0226644Y0252110D01*
X0220205Y0240431D02*
X0208879Y0240431D01*
X0208967Y0239133D02*
X0220118Y0239133D01*
X0220480Y0237835D02*
X0208605Y0237835D01*
X0207613Y0236538D02*
X0221471Y0236538D01*
X0220644Y0235240D02*
X0208441Y0235240D01*
X0208967Y0233942D02*
X0220118Y0233942D01*
X0220118Y0232644D02*
X0208967Y0232644D01*
X0208506Y0231347D02*
X0220579Y0231347D01*
X0221629Y0230049D02*
X0207456Y0230049D01*
X0208539Y0228751D02*
X0220545Y0228751D01*
X0220118Y0227454D02*
X0208967Y0227454D01*
X0208945Y0226156D02*
X0220140Y0226156D01*
X0220351Y0224858D02*
X0220678Y0224858D01*
X0217484Y0224858D02*
X0215351Y0224858D01*
X0212484Y0224858D02*
X0208407Y0224858D01*
X0208319Y0223560D02*
X0210765Y0223560D01*
X0210187Y0222263D02*
X0208897Y0222263D01*
X0208967Y0220965D02*
X0210118Y0220965D01*
X0210498Y0219667D02*
X0208587Y0219667D01*
X0208699Y0218370D02*
X0207570Y0218370D01*
X0207867Y0217072D02*
X0167923Y0217072D01*
X0168201Y0216401D02*
X0167435Y0218251D01*
X0166019Y0219667D01*
X0164169Y0220433D01*
X0162166Y0220433D01*
X0160316Y0219667D01*
X0158900Y0218251D01*
X0158133Y0216401D01*
X0158133Y0214398D01*
X0158900Y0212548D01*
X0160306Y0211142D01*
X0158758Y0210502D01*
X0157065Y0208809D01*
X0156149Y0206597D01*
X0156149Y0204203D01*
X0157065Y0201991D01*
X0158758Y0200298D01*
X0160389Y0199622D01*
X0159878Y0199251D01*
X0159316Y0198689D01*
X0158849Y0198046D01*
X0158488Y0197338D01*
X0158242Y0196582D01*
X0158118Y0195797D01*
X0158118Y0195750D01*
X0162817Y0195750D01*
X0162817Y0195049D01*
X0158118Y0195049D01*
X0158118Y0195002D01*
X0158242Y0194217D01*
X0158488Y0193461D01*
X0158849Y0192753D01*
X0159316Y0192110D01*
X0159878Y0191548D01*
X0160389Y0191177D01*
X0158758Y0190502D01*
X0157065Y0188809D01*
X0156149Y0186597D01*
X0156149Y0184203D01*
X0157065Y0181991D01*
X0158758Y0180298D01*
X0160970Y0179381D01*
X0163364Y0179381D01*
X0165576Y0180298D01*
X0167269Y0181991D01*
X0168185Y0184203D01*
X0168185Y0186597D01*
X0167269Y0188809D01*
X0165576Y0190502D01*
X0165074Y0190710D01*
X0165106Y0190720D01*
X0165814Y0191081D01*
X0166457Y0191548D01*
X0167019Y0192110D01*
X0167486Y0192753D01*
X0167847Y0193461D01*
X0168093Y0194217D01*
X0168217Y0195002D01*
X0168217Y0195049D01*
X0163518Y0195049D01*
X0163518Y0195750D01*
X0168217Y0195750D01*
X0168217Y0195797D01*
X0168093Y0196582D01*
X0167847Y0197338D01*
X0167486Y0198046D01*
X0167019Y0198689D01*
X0166457Y0199251D01*
X0165814Y0199718D01*
X0165106Y0200079D01*
X0165074Y0200090D01*
X0165576Y0200298D01*
X0167269Y0201991D01*
X0168185Y0204203D01*
X0168185Y0206597D01*
X0167269Y0208809D01*
X0165576Y0210502D01*
X0165036Y0210725D01*
X0166019Y0211132D01*
X0167435Y0212548D01*
X0168201Y0214398D01*
X0168201Y0216401D01*
X0168201Y0215774D02*
X0207618Y0215774D01*
X0207818Y0214476D02*
X0168201Y0214476D01*
X0167696Y0213179D02*
X0208580Y0213179D01*
X0214254Y0213179D02*
X0216080Y0213179D01*
X0215318Y0214476D02*
X0215017Y0214476D01*
X0218413Y0210583D02*
X0165379Y0210583D01*
X0166768Y0211881D02*
X0220341Y0211881D01*
X0220662Y0212014D02*
X0219265Y0211435D01*
X0218197Y0210367D01*
X0217618Y0208970D01*
X0217618Y0207459D01*
X0218197Y0206062D01*
X0219265Y0204994D01*
X0220662Y0204415D01*
X0222173Y0204415D01*
X0223569Y0204994D01*
X0224638Y0206062D01*
X0225217Y0207459D01*
X0225217Y0208970D01*
X0224638Y0210367D01*
X0223569Y0211435D01*
X0222173Y0212014D01*
X0220662Y0212014D01*
X0222494Y0211881D02*
X0234493Y0211881D01*
X0234622Y0210583D02*
X0224422Y0210583D01*
X0225086Y0209285D02*
X0235284Y0209285D01*
X0235508Y0207988D02*
X0225217Y0207988D01*
X0224898Y0206690D02*
X0234715Y0206690D01*
X0234493Y0205392D02*
X0223968Y0205392D01*
X0223929Y0201499D02*
X0213416Y0201499D01*
X0214707Y0200201D02*
X0222096Y0200201D01*
X0221471Y0198904D02*
X0217886Y0198904D01*
X0219584Y0197606D02*
X0221368Y0197606D01*
X0221714Y0196308D02*
X0220153Y0196308D01*
X0220217Y0195010D02*
X0222684Y0195010D01*
X0219831Y0193713D02*
X0230089Y0193713D01*
X0228309Y0195010D02*
X0227651Y0195010D01*
X0228238Y0200201D02*
X0228971Y0200201D01*
X0226405Y0201499D02*
X0234269Y0201499D01*
X0233868Y0200201D02*
X0233863Y0200201D01*
X0235317Y0202797D02*
X0167603Y0202797D01*
X0168141Y0204095D02*
X0234721Y0204095D01*
X0241062Y0202797D02*
X0243868Y0202797D01*
X0244050Y0204095D02*
X0241864Y0204095D01*
X0242092Y0205392D02*
X0244787Y0205392D01*
X0244754Y0206690D02*
X0241870Y0206690D01*
X0241077Y0207988D02*
X0244036Y0207988D01*
X0243868Y0209285D02*
X0241301Y0209285D01*
X0241963Y0210583D02*
X0244149Y0210583D01*
X0245026Y0211881D02*
X0242092Y0211881D01*
X0241771Y0213179D02*
X0245140Y0213179D01*
X0244563Y0214476D02*
X0240838Y0214476D01*
X0241524Y0215774D02*
X0244493Y0215774D01*
X0244873Y0217072D02*
X0242062Y0217072D01*
X0242092Y0218370D02*
X0245889Y0218370D01*
X0244183Y0219667D02*
X0250937Y0219667D01*
X0255648Y0219667D02*
X0257187Y0219667D01*
X0254759Y0223560D02*
X0244997Y0223560D01*
X0238628Y0224858D02*
X0227157Y0224858D01*
X0227069Y0223560D02*
X0237838Y0223560D01*
X0237618Y0222263D02*
X0227647Y0222263D01*
X0227717Y0220965D02*
X0235985Y0220965D01*
X0234912Y0219667D02*
X0227337Y0219667D01*
X0226635Y0218370D02*
X0234493Y0218370D01*
X0234523Y0217072D02*
X0227467Y0217072D01*
X0227717Y0215774D02*
X0235061Y0215774D01*
X0235746Y0214476D02*
X0227517Y0214476D01*
X0226754Y0213179D02*
X0234813Y0213179D01*
X0241065Y0201499D02*
X0244135Y0201499D01*
X0244993Y0200201D02*
X0241467Y0200201D01*
X0241419Y0198904D02*
X0244949Y0198904D01*
X0243251Y0197606D02*
X0240872Y0197606D01*
X0239226Y0196308D02*
X0242681Y0196308D01*
X0240853Y0195010D02*
X0234526Y0195010D01*
X0235129Y0196308D02*
X0236108Y0196308D01*
X0239410Y0193713D02*
X0232746Y0193713D01*
X0231667Y0188522D02*
X0227418Y0188522D01*
X0228524Y0187224D02*
X0230561Y0187224D01*
X0230118Y0185926D02*
X0228967Y0185926D01*
X0228960Y0184629D02*
X0230124Y0184629D01*
X0230662Y0183331D02*
X0228423Y0183331D01*
X0226968Y0182033D02*
X0232117Y0182033D01*
X0234212Y0180736D02*
X0223967Y0180736D01*
X0223881Y0179438D02*
X0233868Y0179438D01*
X0233973Y0178140D02*
X0223281Y0178140D01*
X0221507Y0176842D02*
X0234602Y0176842D01*
X0234844Y0172949D02*
X0223967Y0172949D01*
X0223763Y0171651D02*
X0234074Y0171651D01*
X0233868Y0170354D02*
X0222994Y0170354D01*
X0223134Y0169056D02*
X0234112Y0169056D01*
X0234936Y0167758D02*
X0223820Y0167758D01*
X0223967Y0166461D02*
X0237105Y0166461D01*
X0236475Y0165163D02*
X0223664Y0165163D01*
X0222756Y0163865D02*
X0236368Y0163865D01*
X0236710Y0162567D02*
X0223372Y0162567D01*
X0223919Y0161270D02*
X0237674Y0161270D01*
X0241396Y0159972D02*
X0223967Y0159972D01*
X0223565Y0158674D02*
X0241368Y0158674D01*
X0241790Y0157376D02*
X0222517Y0157376D01*
X0223480Y0156079D02*
X0242865Y0156079D01*
X0247469Y0156079D02*
X0248243Y0156079D01*
X0248445Y0154781D02*
X0223967Y0154781D01*
X0223967Y0153483D02*
X0249211Y0153483D01*
X0249319Y0158674D02*
X0248967Y0158674D01*
X0223466Y0152186D02*
X0281152Y0152186D01*
X0281152Y0150888D02*
X0222221Y0150888D01*
X0204649Y0175545D02*
X0030089Y0175545D01*
X0030089Y0176842D02*
X0203993Y0176842D01*
X0203868Y0178140D02*
X0030089Y0178140D01*
X0030089Y0179438D02*
X0160834Y0179438D01*
X0163500Y0179438D02*
X0204192Y0179438D01*
X0205130Y0180736D02*
X0166014Y0180736D01*
X0167287Y0182033D02*
X0205867Y0182033D01*
X0204412Y0183331D02*
X0167824Y0183331D01*
X0168185Y0184629D02*
X0203874Y0184629D01*
X0203868Y0185926D02*
X0168185Y0185926D01*
X0167926Y0187224D02*
X0204311Y0187224D01*
X0205417Y0188522D02*
X0167388Y0188522D01*
X0166258Y0189820D02*
X0207618Y0189820D01*
X0207618Y0191117D02*
X0165864Y0191117D01*
X0167241Y0192415D02*
X0208140Y0192415D01*
X0209488Y0193713D02*
X0167929Y0193713D01*
X0168217Y0195010D02*
X0209249Y0195010D01*
X0208095Y0196308D02*
X0168136Y0196308D01*
X0167710Y0197606D02*
X0207618Y0197606D01*
X0207618Y0198904D02*
X0166804Y0198904D01*
X0165344Y0200201D02*
X0208128Y0200201D01*
X0209419Y0201499D02*
X0166778Y0201499D01*
X0168185Y0205392D02*
X0218867Y0205392D01*
X0217937Y0206690D02*
X0168147Y0206690D01*
X0167609Y0207988D02*
X0217618Y0207988D01*
X0217749Y0209285D02*
X0166792Y0209285D01*
X0159567Y0211881D02*
X0138744Y0211881D01*
X0138423Y0212014D02*
X0139819Y0211435D01*
X0140888Y0210367D01*
X0141467Y0208970D01*
X0141467Y0207459D01*
X0140888Y0206062D01*
X0139819Y0204994D01*
X0138423Y0204415D01*
X0136912Y0204415D01*
X0135515Y0204994D01*
X0134447Y0206062D01*
X0133868Y0207459D01*
X0133868Y0208970D01*
X0134447Y0210367D01*
X0135515Y0211435D01*
X0136912Y0212014D01*
X0138423Y0212014D01*
X0136591Y0211881D02*
X0121244Y0211881D01*
X0120923Y0212014D02*
X0119412Y0212014D01*
X0118015Y0211435D01*
X0116947Y0210367D01*
X0116368Y0208970D01*
X0116368Y0207459D01*
X0116947Y0206062D01*
X0118015Y0204994D01*
X0119412Y0204415D01*
X0120923Y0204415D01*
X0122319Y0204994D01*
X0123388Y0206062D01*
X0123967Y0207459D01*
X0123967Y0208970D01*
X0123388Y0210367D01*
X0122319Y0211435D01*
X0120923Y0212014D01*
X0119091Y0211881D02*
X0030089Y0211881D01*
X0030089Y0213179D02*
X0158639Y0213179D01*
X0158133Y0214476D02*
X0030089Y0214476D01*
X0030089Y0215774D02*
X0158133Y0215774D01*
X0158411Y0217072D02*
X0030089Y0217072D01*
X0030089Y0218370D02*
X0159018Y0218370D01*
X0160316Y0219667D02*
X0094957Y0219667D01*
X0094796Y0219506D02*
X0096474Y0221184D01*
X0097382Y0223377D01*
X0097382Y0225749D01*
X0096474Y0227942D01*
X0094796Y0229620D01*
X0092604Y0230528D01*
X0090231Y0230528D01*
X0088039Y0229620D01*
X0086361Y0227942D01*
X0085453Y0225749D01*
X0085453Y0223377D01*
X0086361Y0221184D01*
X0088039Y0219506D01*
X0090231Y0218598D01*
X0092604Y0218598D01*
X0094796Y0219506D01*
X0096254Y0220965D02*
X0201368Y0220965D01*
X0201437Y0222263D02*
X0096920Y0222263D01*
X0097382Y0223560D02*
X0198458Y0223560D01*
X0196928Y0224858D02*
X0097382Y0224858D01*
X0097214Y0226156D02*
X0196390Y0226156D01*
X0196368Y0227454D02*
X0159722Y0227454D01*
X0159819Y0227494D02*
X0160888Y0228562D01*
X0161467Y0229959D01*
X0161467Y0231470D01*
X0160888Y0232867D01*
X0159819Y0233935D01*
X0158423Y0234514D01*
X0156912Y0234514D01*
X0155515Y0233935D01*
X0154447Y0232867D01*
X0153868Y0231470D01*
X0153868Y0229959D01*
X0154447Y0228562D01*
X0155515Y0227494D01*
X0156912Y0226915D01*
X0158423Y0226915D01*
X0159819Y0227494D01*
X0160966Y0228751D02*
X0196795Y0228751D01*
X0195460Y0230049D02*
X0183625Y0230049D01*
X0183569Y0229994D02*
X0184638Y0231062D01*
X0185217Y0232459D01*
X0185217Y0233970D01*
X0184638Y0235367D01*
X0183569Y0236435D01*
X0182173Y0237014D01*
X0180662Y0237014D01*
X0179265Y0236435D01*
X0178197Y0235367D01*
X0177618Y0233970D01*
X0177618Y0232459D01*
X0178197Y0231062D01*
X0179265Y0229994D01*
X0180662Y0229415D01*
X0182173Y0229415D01*
X0183569Y0229994D01*
X0184756Y0231347D02*
X0194329Y0231347D01*
X0193868Y0232644D02*
X0185217Y0232644D01*
X0185217Y0233942D02*
X0193868Y0233942D01*
X0194394Y0235240D02*
X0184691Y0235240D01*
X0183323Y0236538D02*
X0195762Y0236538D01*
X0196730Y0237835D02*
X0094852Y0237835D01*
X0094573Y0237557D02*
X0096140Y0239124D01*
X0096988Y0241171D01*
X0096988Y0243388D01*
X0096140Y0245435D01*
X0094573Y0247002D01*
X0092525Y0247850D01*
X0090309Y0247850D01*
X0088262Y0247002D01*
X0086695Y0245435D01*
X0085846Y0243388D01*
X0085846Y0241171D01*
X0086695Y0239124D01*
X0088262Y0237557D01*
X0090309Y0236709D01*
X0092525Y0236709D01*
X0094573Y0237557D01*
X0096144Y0239133D02*
X0196368Y0239133D01*
X0196455Y0240431D02*
X0096681Y0240431D01*
X0096988Y0241729D02*
X0197058Y0241729D01*
X0198838Y0243026D02*
X0096988Y0243026D01*
X0096600Y0244324D02*
X0201368Y0244324D01*
X0201496Y0243026D02*
X0201651Y0243026D01*
X0201534Y0245622D02*
X0095954Y0245622D01*
X0094656Y0246919D02*
X0202249Y0246919D01*
X0204299Y0248217D02*
X0069798Y0248217D01*
X0068037Y0248217D02*
X0050918Y0248217D01*
X0051566Y0248043D02*
X0048790Y0248787D01*
X0045915Y0248787D01*
X0043138Y0248043D01*
X0040649Y0246606D01*
X0038616Y0244573D01*
X0037179Y0242084D01*
X0036435Y0239307D01*
X0036435Y0236433D01*
X0037179Y0233656D01*
X0038616Y0231167D01*
X0040649Y0229134D01*
X0043138Y0227697D01*
X0045915Y0226953D01*
X0048790Y0226953D01*
X0051566Y0227697D01*
X0054056Y0229134D01*
X0056088Y0231167D01*
X0057526Y0233656D01*
X0058270Y0236433D01*
X0058270Y0239307D01*
X0057526Y0242084D01*
X0056088Y0244573D01*
X0054056Y0246606D01*
X0051566Y0248043D01*
X0053513Y0246919D02*
X0088179Y0246919D01*
X0086881Y0245622D02*
X0055040Y0245622D01*
X0056232Y0244324D02*
X0086234Y0244324D01*
X0085846Y0243026D02*
X0056982Y0243026D01*
X0057621Y0241729D02*
X0085846Y0241729D01*
X0086153Y0240431D02*
X0057969Y0240431D01*
X0058270Y0239133D02*
X0086691Y0239133D01*
X0087983Y0237835D02*
X0058270Y0237835D01*
X0058270Y0236538D02*
X0170762Y0236538D01*
X0170515Y0236435D02*
X0169447Y0235367D01*
X0168868Y0233970D01*
X0168868Y0232459D01*
X0169447Y0231062D01*
X0170515Y0229994D01*
X0171912Y0229415D01*
X0173423Y0229415D01*
X0174819Y0229994D01*
X0175888Y0231062D01*
X0176467Y0232459D01*
X0176467Y0233970D01*
X0175888Y0235367D01*
X0174819Y0236435D01*
X0173423Y0237014D01*
X0171912Y0237014D01*
X0170515Y0236435D01*
X0169394Y0235240D02*
X0057950Y0235240D01*
X0057602Y0233942D02*
X0066782Y0233942D01*
X0066765Y0233935D02*
X0065697Y0232867D01*
X0065118Y0231470D01*
X0065118Y0229959D01*
X0065697Y0228562D01*
X0066765Y0227494D01*
X0068162Y0226915D01*
X0069673Y0226915D01*
X0071069Y0227494D01*
X0072138Y0228562D01*
X0072717Y0229959D01*
X0072717Y0231470D01*
X0072138Y0232867D01*
X0071069Y0233935D01*
X0069673Y0234514D01*
X0068162Y0234514D01*
X0066765Y0233935D01*
X0065604Y0232644D02*
X0056942Y0232644D01*
X0056192Y0231347D02*
X0065118Y0231347D01*
X0065118Y0230049D02*
X0054971Y0230049D01*
X0053393Y0228751D02*
X0065618Y0228751D01*
X0066862Y0227454D02*
X0050659Y0227454D01*
X0044046Y0227454D02*
X0030089Y0227454D01*
X0030089Y0228751D02*
X0041312Y0228751D01*
X0039734Y0230049D02*
X0030089Y0230049D01*
X0030089Y0231347D02*
X0038512Y0231347D01*
X0037763Y0232644D02*
X0030089Y0232644D01*
X0030089Y0233942D02*
X0037102Y0233942D01*
X0036755Y0235240D02*
X0030089Y0235240D01*
X0030089Y0236538D02*
X0036435Y0236538D01*
X0036435Y0237835D02*
X0030089Y0237835D01*
X0030089Y0239133D02*
X0036435Y0239133D01*
X0036736Y0240431D02*
X0030089Y0240431D01*
X0030089Y0241729D02*
X0037084Y0241729D01*
X0037723Y0243026D02*
X0030089Y0243026D01*
X0030089Y0244324D02*
X0038472Y0244324D01*
X0039665Y0245622D02*
X0030089Y0245622D01*
X0030089Y0246919D02*
X0041192Y0246919D01*
X0043787Y0248217D02*
X0030089Y0248217D01*
X0030089Y0249515D02*
X0065994Y0249515D01*
X0065282Y0250813D02*
X0030089Y0250813D01*
X0030089Y0252110D02*
X0065118Y0252110D01*
X0065403Y0253408D02*
X0030089Y0253408D01*
X0030089Y0254706D02*
X0066286Y0254706D01*
X0071549Y0254706D02*
X0281152Y0254706D01*
X0281152Y0253408D02*
X0275032Y0253408D01*
X0276071Y0252110D02*
X0281152Y0252110D01*
X0281152Y0250813D02*
X0276467Y0250813D01*
X0276413Y0249515D02*
X0281152Y0249515D01*
X0281152Y0248217D02*
X0275858Y0248217D01*
X0274193Y0246919D02*
X0281152Y0246919D01*
X0281152Y0245622D02*
X0251891Y0245622D01*
X0253083Y0244324D02*
X0281152Y0244324D01*
X0281152Y0243026D02*
X0253832Y0243026D01*
X0254471Y0241729D02*
X0281152Y0241729D01*
X0281152Y0240431D02*
X0254819Y0240431D01*
X0255120Y0239133D02*
X0281152Y0239133D01*
X0281152Y0237835D02*
X0255120Y0237835D01*
X0255120Y0236538D02*
X0281152Y0236538D01*
X0281152Y0235240D02*
X0254800Y0235240D01*
X0254453Y0233942D02*
X0281152Y0233942D01*
X0281152Y0232644D02*
X0253792Y0232644D01*
X0253043Y0231347D02*
X0281152Y0231347D01*
X0271141Y0246919D02*
X0250363Y0246919D01*
X0270303Y0253408D02*
X0072432Y0253408D01*
X0072717Y0252110D02*
X0206190Y0252110D01*
X0205363Y0250813D02*
X0072552Y0250813D01*
X0071841Y0249515D02*
X0205118Y0249515D01*
X0208800Y0245622D02*
X0210284Y0245622D01*
X0210118Y0244324D02*
X0208967Y0244324D01*
X0208684Y0243026D02*
X0210401Y0243026D01*
X0211280Y0241729D02*
X0208276Y0241729D01*
X0202015Y0223560D02*
X0201877Y0223560D01*
X0201748Y0219667D02*
X0166018Y0219667D01*
X0167316Y0218370D02*
X0202764Y0218370D01*
X0179210Y0230049D02*
X0174875Y0230049D01*
X0176006Y0231347D02*
X0178079Y0231347D01*
X0177618Y0232644D02*
X0176467Y0232644D01*
X0176467Y0233942D02*
X0177618Y0233942D01*
X0178144Y0235240D02*
X0175941Y0235240D01*
X0174573Y0236538D02*
X0179512Y0236538D01*
X0168868Y0233942D02*
X0159803Y0233942D01*
X0160980Y0232644D02*
X0168868Y0232644D01*
X0169329Y0231347D02*
X0161467Y0231347D01*
X0161467Y0230049D02*
X0170460Y0230049D01*
X0155612Y0227454D02*
X0096676Y0227454D01*
X0095664Y0228751D02*
X0154368Y0228751D01*
X0153868Y0230049D02*
X0093759Y0230049D01*
X0089076Y0230049D02*
X0072717Y0230049D01*
X0072717Y0231347D02*
X0153868Y0231347D01*
X0154354Y0232644D02*
X0072230Y0232644D01*
X0071053Y0233942D02*
X0155532Y0233942D01*
X0158955Y0210583D02*
X0140672Y0210583D01*
X0141336Y0209285D02*
X0157542Y0209285D01*
X0156725Y0207988D02*
X0141467Y0207988D01*
X0141148Y0206690D02*
X0156188Y0206690D01*
X0156149Y0205392D02*
X0140218Y0205392D01*
X0135117Y0205392D02*
X0122718Y0205392D01*
X0123648Y0206690D02*
X0134187Y0206690D01*
X0133868Y0207988D02*
X0123967Y0207988D01*
X0123836Y0209285D02*
X0133999Y0209285D01*
X0134663Y0210583D02*
X0123172Y0210583D01*
X0117163Y0210583D02*
X0030089Y0210583D01*
X0030089Y0209285D02*
X0067610Y0209285D01*
X0068162Y0209514D02*
X0066765Y0208935D01*
X0065697Y0207867D01*
X0065118Y0206470D01*
X0065118Y0204959D01*
X0065697Y0203562D01*
X0066765Y0202494D01*
X0068162Y0201915D01*
X0069673Y0201915D01*
X0071069Y0202494D01*
X0072138Y0203562D01*
X0072717Y0204959D01*
X0072717Y0206470D01*
X0072138Y0207867D01*
X0071069Y0208935D01*
X0069673Y0209514D01*
X0068162Y0209514D01*
X0070224Y0209285D02*
X0116499Y0209285D01*
X0116368Y0207988D02*
X0072017Y0207988D01*
X0072626Y0206690D02*
X0116687Y0206690D01*
X0117617Y0205392D02*
X0072717Y0205392D01*
X0072359Y0204095D02*
X0156194Y0204095D01*
X0156731Y0202797D02*
X0130800Y0202797D01*
X0131069Y0202685D02*
X0129673Y0203264D01*
X0128162Y0203264D01*
X0126765Y0202685D01*
X0125697Y0201617D01*
X0125118Y0200220D01*
X0125118Y0198709D01*
X0125697Y0197312D01*
X0126765Y0196244D01*
X0128162Y0195665D01*
X0129673Y0195665D01*
X0131069Y0196244D01*
X0132138Y0197312D01*
X0132717Y0198709D01*
X0132717Y0200220D01*
X0132138Y0201617D01*
X0131069Y0202685D01*
X0132187Y0201499D02*
X0157557Y0201499D01*
X0158991Y0200201D02*
X0132717Y0200201D01*
X0132717Y0198904D02*
X0159530Y0198904D01*
X0158624Y0197606D02*
X0132260Y0197606D01*
X0131134Y0196308D02*
X0158199Y0196308D01*
X0158118Y0195010D02*
X0030089Y0195010D01*
X0030089Y0193713D02*
X0158406Y0193713D01*
X0159094Y0192415D02*
X0030089Y0192415D01*
X0030089Y0191117D02*
X0160245Y0191117D01*
X0158076Y0189820D02*
X0030089Y0189820D01*
X0030089Y0188522D02*
X0156947Y0188522D01*
X0156409Y0187224D02*
X0030089Y0187224D01*
X0030089Y0185926D02*
X0156149Y0185926D01*
X0156149Y0184629D02*
X0030089Y0184629D01*
X0030089Y0183331D02*
X0156510Y0183331D01*
X0157048Y0182033D02*
X0030089Y0182033D01*
X0030089Y0180736D02*
X0158321Y0180736D01*
X0126701Y0196308D02*
X0030089Y0196308D01*
X0030089Y0197606D02*
X0125575Y0197606D01*
X0125118Y0198904D02*
X0030089Y0198904D01*
X0030089Y0200201D02*
X0125118Y0200201D01*
X0125648Y0201499D02*
X0030089Y0201499D01*
X0030089Y0202797D02*
X0066462Y0202797D01*
X0065476Y0204095D02*
X0030089Y0204095D01*
X0030089Y0205392D02*
X0065118Y0205392D01*
X0065209Y0206690D02*
X0030089Y0206690D01*
X0030089Y0207988D02*
X0065818Y0207988D01*
X0071372Y0202797D02*
X0127034Y0202797D01*
X0087878Y0219667D02*
X0030089Y0219667D01*
X0030089Y0220965D02*
X0086580Y0220965D01*
X0085914Y0222263D02*
X0030089Y0222263D01*
X0030089Y0223560D02*
X0085453Y0223560D01*
X0085453Y0224858D02*
X0030089Y0224858D01*
X0030089Y0226156D02*
X0085621Y0226156D01*
X0086159Y0227454D02*
X0070972Y0227454D01*
X0072216Y0228751D02*
X0087170Y0228751D01*
X0215217Y0191117D02*
X0238868Y0191117D01*
X0238872Y0192415D02*
X0218806Y0192415D01*
M02*
