%
M48
M72
T01C0.01181
T02C0.03740
T03C0.04000
T04C0.04134
T05C0.06102
T06C0.06299
T07C0.07087
T08C0.12598
%
T01
X47667Y71650
X53917Y80400
X72667Y71650
X77667Y77900
X95167Y87900
X105167Y81650
X105167Y74775
X115167Y74775
X125167Y74775
X125167Y87900
X155167Y87900
X155167Y74775
X165167Y74775
X176417Y87900
X202042Y111025
X196417Y116025
X202667Y127275
X200167Y131650
X195792Y134775
X202667Y137275
X207667Y140400
X211417Y145400
X216417Y149150
X220167Y154150
X220167Y160400
X220167Y166650
X220167Y172900
X220167Y180400
X225167Y185400
X233917Y185400
X237667Y179150
X247667Y181650
X247667Y175400
X248917Y169150
X253917Y167275
X259542Y167275
X259542Y156025
X252042Y156025
X245167Y159150
X240167Y164150
X237667Y170400
X246417Y187900
X242667Y191650
X246417Y195400
X247667Y202900
X247667Y209150
X248292Y215400
X253292Y216650
X259542Y216650
X257042Y226650
X241417Y222275
X238292Y217900
X238292Y211650
X238292Y205400
X237667Y199775
X231417Y197275
X225167Y197900
X216417Y195400
X211417Y198215
X211417Y190400
X207667Y185400
X207667Y177900
X207667Y170400
X207667Y164150
X207667Y159150
X202667Y154775
X197667Y150400
X178917Y171650
X167667Y144150
X172667Y136650
X168917Y132275
X172667Y127900
X173917Y119150
X157667Y120400
X158917Y131650
X160167Y135400
X157667Y144150
X142667Y146650
X140167Y141650
X140167Y136650
X141417Y130400
X137667Y125400
X141417Y122900
X142667Y117900
X207042Y104775
X207042Y98525
X207042Y92275
X207042Y84775
X207042Y78525
X210167Y72275
X215167Y67275
X220792Y65400
X227042Y65400
X233292Y64150
X237667Y58525
X237667Y53525
X238292Y47900
X241417Y42275
X246417Y38525
X253917Y36650
X260167Y36650
X258917Y46650
X252667Y46650
X248292Y48525
X247042Y53525
X247042Y59775
X245792Y66025
X242042Y71650
X245792Y76025
X247042Y81025
X247667Y87275
X248292Y93525
X253292Y96025
X258292Y96025
X258292Y107275
X250792Y106025
X244542Y103525
X239542Y97900
X238292Y89775
X237667Y83525
X233292Y78525
X226417Y77900
X220792Y81025
X220792Y87275
X220792Y93525
X220792Y99775
X220792Y107275
X217042Y113525
X213917Y117900
X208917Y122900
X227667Y140400
X272667Y131650
X272667Y191650
X223917Y215715
X218917Y215715
X218917Y221340
X213917Y221340
X211417Y215715
X205167Y221340
X205167Y226965
X200167Y226965
X197667Y233215
X205167Y233215
X205167Y239465
X200167Y239465
X205167Y244465
X208917Y249465
X213917Y249465
X218917Y249465
X218917Y244465
X213917Y244465
X223917Y244465
X223917Y249465
X223917Y239465
X223917Y233215
X223917Y226965
X223917Y221340
X221417Y208215
X188917Y216650
X182667Y216650
X176417Y216650
X182667Y210400
X181417Y233215
X172667Y233215
X157667Y230715
X137667Y208215
X128917Y199465
X120167Y208215
X68917Y205715
X68917Y230715
X68917Y251965
X272667Y250400
X272667Y71650
X272667Y11650
T02
X172510Y103598
X152825Y103598
X134321Y103598
X190620Y112752
X190620Y131650
X190620Y150547
X172510Y159701
X162667Y159701
X152825Y159701
X134321Y159701
T03
X162167Y185400
X163167Y195400
X162167Y205400
X163167Y215400
X160167Y67150
X150167Y66150
X140167Y67150
X130167Y66150
X120167Y67150
X110167Y66150
X100167Y67150
X90167Y66150
X170167Y66150
X180167Y67150
T04
X182352Y103598
X142982Y103598
X123297Y116098
X103612Y103598
X123297Y137358
X123297Y159701
X83927Y159701
X44557Y159701
X44557Y125941
X64242Y103598
T05
X166211Y112752
X166211Y150547
T06
X91417Y242280
T07
X91417Y224563
T08
X47352Y21335
X244203Y21335
X244203Y237870
X47352Y237870
M30
