G75*
%MOIN*%
%OFA0B0*%
%FSLAX25Y25*%
%IPPOS*%
%LPD*%
%AMOC8*
5,1,8,0,0,1.08239X$1,22.5*
%
%ADD10C,0.00000*%
%ADD11C,0.00984*%
%ADD12R,0.07874X0.07874*%
%ADD13C,0.06358*%
%ADD14C,0.06102*%
%ADD15C,0.23000*%
%ADD16C,0.01600*%
%ADD17C,0.01890*%
%ADD18C,0.00945*%
%ADD19C,0.01181*%
%ADD20C,0.01559*%
%ADD21C,0.02362*%
%ADD22C,0.06299*%
%ADD23C,0.07087*%
%ADD24C,0.01440*%
%ADD25C,0.02598*%
%ADD26C,0.07400*%
%ADD27C,0.02362*%
D10*
X0027667Y0001650D02*
X0027667Y0257555D01*
X0283573Y0257555D01*
X0283573Y0001650D01*
X0027667Y0001650D01*
X0163160Y0112752D02*
X0163162Y0112862D01*
X0163168Y0112972D01*
X0163178Y0113082D01*
X0163192Y0113191D01*
X0163210Y0113300D01*
X0163231Y0113408D01*
X0163257Y0113515D01*
X0163286Y0113621D01*
X0163320Y0113726D01*
X0163357Y0113830D01*
X0163398Y0113932D01*
X0163442Y0114033D01*
X0163490Y0114132D01*
X0163542Y0114230D01*
X0163597Y0114325D01*
X0163655Y0114418D01*
X0163717Y0114509D01*
X0163782Y0114598D01*
X0163850Y0114685D01*
X0163922Y0114769D01*
X0163996Y0114850D01*
X0164073Y0114929D01*
X0164153Y0115005D01*
X0164236Y0115077D01*
X0164321Y0115147D01*
X0164409Y0115214D01*
X0164499Y0115277D01*
X0164591Y0115337D01*
X0164685Y0115394D01*
X0164782Y0115448D01*
X0164880Y0115497D01*
X0164980Y0115544D01*
X0165082Y0115586D01*
X0165185Y0115625D01*
X0165289Y0115660D01*
X0165395Y0115692D01*
X0165501Y0115719D01*
X0165609Y0115743D01*
X0165717Y0115763D01*
X0165826Y0115779D01*
X0165936Y0115791D01*
X0166046Y0115799D01*
X0166156Y0115803D01*
X0166266Y0115803D01*
X0166376Y0115799D01*
X0166486Y0115791D01*
X0166596Y0115779D01*
X0166705Y0115763D01*
X0166813Y0115743D01*
X0166921Y0115719D01*
X0167027Y0115692D01*
X0167133Y0115660D01*
X0167237Y0115625D01*
X0167340Y0115586D01*
X0167442Y0115544D01*
X0167542Y0115497D01*
X0167640Y0115448D01*
X0167736Y0115394D01*
X0167831Y0115337D01*
X0167923Y0115277D01*
X0168013Y0115214D01*
X0168101Y0115147D01*
X0168186Y0115077D01*
X0168269Y0115005D01*
X0168349Y0114929D01*
X0168426Y0114850D01*
X0168500Y0114769D01*
X0168572Y0114685D01*
X0168640Y0114598D01*
X0168705Y0114509D01*
X0168767Y0114418D01*
X0168825Y0114325D01*
X0168880Y0114230D01*
X0168932Y0114132D01*
X0168980Y0114033D01*
X0169024Y0113932D01*
X0169065Y0113830D01*
X0169102Y0113726D01*
X0169136Y0113621D01*
X0169165Y0113515D01*
X0169191Y0113408D01*
X0169212Y0113300D01*
X0169230Y0113191D01*
X0169244Y0113082D01*
X0169254Y0112972D01*
X0169260Y0112862D01*
X0169262Y0112752D01*
X0169260Y0112642D01*
X0169254Y0112532D01*
X0169244Y0112422D01*
X0169230Y0112313D01*
X0169212Y0112204D01*
X0169191Y0112096D01*
X0169165Y0111989D01*
X0169136Y0111883D01*
X0169102Y0111778D01*
X0169065Y0111674D01*
X0169024Y0111572D01*
X0168980Y0111471D01*
X0168932Y0111372D01*
X0168880Y0111274D01*
X0168825Y0111179D01*
X0168767Y0111086D01*
X0168705Y0110995D01*
X0168640Y0110906D01*
X0168572Y0110819D01*
X0168500Y0110735D01*
X0168426Y0110654D01*
X0168349Y0110575D01*
X0168269Y0110499D01*
X0168186Y0110427D01*
X0168101Y0110357D01*
X0168013Y0110290D01*
X0167923Y0110227D01*
X0167831Y0110167D01*
X0167737Y0110110D01*
X0167640Y0110056D01*
X0167542Y0110007D01*
X0167442Y0109960D01*
X0167340Y0109918D01*
X0167237Y0109879D01*
X0167133Y0109844D01*
X0167027Y0109812D01*
X0166921Y0109785D01*
X0166813Y0109761D01*
X0166705Y0109741D01*
X0166596Y0109725D01*
X0166486Y0109713D01*
X0166376Y0109705D01*
X0166266Y0109701D01*
X0166156Y0109701D01*
X0166046Y0109705D01*
X0165936Y0109713D01*
X0165826Y0109725D01*
X0165717Y0109741D01*
X0165609Y0109761D01*
X0165501Y0109785D01*
X0165395Y0109812D01*
X0165289Y0109844D01*
X0165185Y0109879D01*
X0165082Y0109918D01*
X0164980Y0109960D01*
X0164880Y0110007D01*
X0164782Y0110056D01*
X0164685Y0110110D01*
X0164591Y0110167D01*
X0164499Y0110227D01*
X0164409Y0110290D01*
X0164321Y0110357D01*
X0164236Y0110427D01*
X0164153Y0110499D01*
X0164073Y0110575D01*
X0163996Y0110654D01*
X0163922Y0110735D01*
X0163850Y0110819D01*
X0163782Y0110906D01*
X0163717Y0110995D01*
X0163655Y0111086D01*
X0163597Y0111179D01*
X0163542Y0111274D01*
X0163490Y0111372D01*
X0163442Y0111471D01*
X0163398Y0111572D01*
X0163357Y0111674D01*
X0163320Y0111778D01*
X0163286Y0111883D01*
X0163257Y0111989D01*
X0163231Y0112096D01*
X0163210Y0112204D01*
X0163192Y0112313D01*
X0163178Y0112422D01*
X0163168Y0112532D01*
X0163162Y0112642D01*
X0163160Y0112752D01*
X0163160Y0150547D02*
X0163162Y0150657D01*
X0163168Y0150767D01*
X0163178Y0150877D01*
X0163192Y0150986D01*
X0163210Y0151095D01*
X0163231Y0151203D01*
X0163257Y0151310D01*
X0163286Y0151416D01*
X0163320Y0151521D01*
X0163357Y0151625D01*
X0163398Y0151727D01*
X0163442Y0151828D01*
X0163490Y0151927D01*
X0163542Y0152025D01*
X0163597Y0152120D01*
X0163655Y0152213D01*
X0163717Y0152304D01*
X0163782Y0152393D01*
X0163850Y0152480D01*
X0163922Y0152564D01*
X0163996Y0152645D01*
X0164073Y0152724D01*
X0164153Y0152800D01*
X0164236Y0152872D01*
X0164321Y0152942D01*
X0164409Y0153009D01*
X0164499Y0153072D01*
X0164591Y0153132D01*
X0164685Y0153189D01*
X0164782Y0153243D01*
X0164880Y0153292D01*
X0164980Y0153339D01*
X0165082Y0153381D01*
X0165185Y0153420D01*
X0165289Y0153455D01*
X0165395Y0153487D01*
X0165501Y0153514D01*
X0165609Y0153538D01*
X0165717Y0153558D01*
X0165826Y0153574D01*
X0165936Y0153586D01*
X0166046Y0153594D01*
X0166156Y0153598D01*
X0166266Y0153598D01*
X0166376Y0153594D01*
X0166486Y0153586D01*
X0166596Y0153574D01*
X0166705Y0153558D01*
X0166813Y0153538D01*
X0166921Y0153514D01*
X0167027Y0153487D01*
X0167133Y0153455D01*
X0167237Y0153420D01*
X0167340Y0153381D01*
X0167442Y0153339D01*
X0167542Y0153292D01*
X0167640Y0153243D01*
X0167736Y0153189D01*
X0167831Y0153132D01*
X0167923Y0153072D01*
X0168013Y0153009D01*
X0168101Y0152942D01*
X0168186Y0152872D01*
X0168269Y0152800D01*
X0168349Y0152724D01*
X0168426Y0152645D01*
X0168500Y0152564D01*
X0168572Y0152480D01*
X0168640Y0152393D01*
X0168705Y0152304D01*
X0168767Y0152213D01*
X0168825Y0152120D01*
X0168880Y0152025D01*
X0168932Y0151927D01*
X0168980Y0151828D01*
X0169024Y0151727D01*
X0169065Y0151625D01*
X0169102Y0151521D01*
X0169136Y0151416D01*
X0169165Y0151310D01*
X0169191Y0151203D01*
X0169212Y0151095D01*
X0169230Y0150986D01*
X0169244Y0150877D01*
X0169254Y0150767D01*
X0169260Y0150657D01*
X0169262Y0150547D01*
X0169260Y0150437D01*
X0169254Y0150327D01*
X0169244Y0150217D01*
X0169230Y0150108D01*
X0169212Y0149999D01*
X0169191Y0149891D01*
X0169165Y0149784D01*
X0169136Y0149678D01*
X0169102Y0149573D01*
X0169065Y0149469D01*
X0169024Y0149367D01*
X0168980Y0149266D01*
X0168932Y0149167D01*
X0168880Y0149069D01*
X0168825Y0148974D01*
X0168767Y0148881D01*
X0168705Y0148790D01*
X0168640Y0148701D01*
X0168572Y0148614D01*
X0168500Y0148530D01*
X0168426Y0148449D01*
X0168349Y0148370D01*
X0168269Y0148294D01*
X0168186Y0148222D01*
X0168101Y0148152D01*
X0168013Y0148085D01*
X0167923Y0148022D01*
X0167831Y0147962D01*
X0167737Y0147905D01*
X0167640Y0147851D01*
X0167542Y0147802D01*
X0167442Y0147755D01*
X0167340Y0147713D01*
X0167237Y0147674D01*
X0167133Y0147639D01*
X0167027Y0147607D01*
X0166921Y0147580D01*
X0166813Y0147556D01*
X0166705Y0147536D01*
X0166596Y0147520D01*
X0166486Y0147508D01*
X0166376Y0147500D01*
X0166266Y0147496D01*
X0166156Y0147496D01*
X0166046Y0147500D01*
X0165936Y0147508D01*
X0165826Y0147520D01*
X0165717Y0147536D01*
X0165609Y0147556D01*
X0165501Y0147580D01*
X0165395Y0147607D01*
X0165289Y0147639D01*
X0165185Y0147674D01*
X0165082Y0147713D01*
X0164980Y0147755D01*
X0164880Y0147802D01*
X0164782Y0147851D01*
X0164685Y0147905D01*
X0164591Y0147962D01*
X0164499Y0148022D01*
X0164409Y0148085D01*
X0164321Y0148152D01*
X0164236Y0148222D01*
X0164153Y0148294D01*
X0164073Y0148370D01*
X0163996Y0148449D01*
X0163922Y0148530D01*
X0163850Y0148614D01*
X0163782Y0148701D01*
X0163717Y0148790D01*
X0163655Y0148881D01*
X0163597Y0148974D01*
X0163542Y0149069D01*
X0163490Y0149167D01*
X0163442Y0149266D01*
X0163398Y0149367D01*
X0163357Y0149469D01*
X0163320Y0149573D01*
X0163286Y0149678D01*
X0163257Y0149784D01*
X0163231Y0149891D01*
X0163210Y0149999D01*
X0163192Y0150108D01*
X0163178Y0150217D01*
X0163168Y0150327D01*
X0163162Y0150437D01*
X0163160Y0150547D01*
X0087874Y0224563D02*
X0087876Y0224681D01*
X0087882Y0224800D01*
X0087892Y0224918D01*
X0087906Y0225035D01*
X0087923Y0225152D01*
X0087945Y0225269D01*
X0087971Y0225384D01*
X0088000Y0225499D01*
X0088033Y0225613D01*
X0088070Y0225725D01*
X0088111Y0225836D01*
X0088155Y0225946D01*
X0088203Y0226054D01*
X0088255Y0226161D01*
X0088310Y0226266D01*
X0088369Y0226369D01*
X0088431Y0226469D01*
X0088496Y0226568D01*
X0088565Y0226665D01*
X0088636Y0226759D01*
X0088711Y0226850D01*
X0088789Y0226940D01*
X0088870Y0227026D01*
X0088954Y0227110D01*
X0089040Y0227191D01*
X0089130Y0227269D01*
X0089221Y0227344D01*
X0089315Y0227415D01*
X0089412Y0227484D01*
X0089511Y0227549D01*
X0089611Y0227611D01*
X0089714Y0227670D01*
X0089819Y0227725D01*
X0089926Y0227777D01*
X0090034Y0227825D01*
X0090144Y0227869D01*
X0090255Y0227910D01*
X0090367Y0227947D01*
X0090481Y0227980D01*
X0090596Y0228009D01*
X0090711Y0228035D01*
X0090828Y0228057D01*
X0090945Y0228074D01*
X0091062Y0228088D01*
X0091180Y0228098D01*
X0091299Y0228104D01*
X0091417Y0228106D01*
X0091535Y0228104D01*
X0091654Y0228098D01*
X0091772Y0228088D01*
X0091889Y0228074D01*
X0092006Y0228057D01*
X0092123Y0228035D01*
X0092238Y0228009D01*
X0092353Y0227980D01*
X0092467Y0227947D01*
X0092579Y0227910D01*
X0092690Y0227869D01*
X0092800Y0227825D01*
X0092908Y0227777D01*
X0093015Y0227725D01*
X0093120Y0227670D01*
X0093223Y0227611D01*
X0093323Y0227549D01*
X0093422Y0227484D01*
X0093519Y0227415D01*
X0093613Y0227344D01*
X0093704Y0227269D01*
X0093794Y0227191D01*
X0093880Y0227110D01*
X0093964Y0227026D01*
X0094045Y0226940D01*
X0094123Y0226850D01*
X0094198Y0226759D01*
X0094269Y0226665D01*
X0094338Y0226568D01*
X0094403Y0226469D01*
X0094465Y0226369D01*
X0094524Y0226266D01*
X0094579Y0226161D01*
X0094631Y0226054D01*
X0094679Y0225946D01*
X0094723Y0225836D01*
X0094764Y0225725D01*
X0094801Y0225613D01*
X0094834Y0225499D01*
X0094863Y0225384D01*
X0094889Y0225269D01*
X0094911Y0225152D01*
X0094928Y0225035D01*
X0094942Y0224918D01*
X0094952Y0224800D01*
X0094958Y0224681D01*
X0094960Y0224563D01*
X0094958Y0224445D01*
X0094952Y0224326D01*
X0094942Y0224208D01*
X0094928Y0224091D01*
X0094911Y0223974D01*
X0094889Y0223857D01*
X0094863Y0223742D01*
X0094834Y0223627D01*
X0094801Y0223513D01*
X0094764Y0223401D01*
X0094723Y0223290D01*
X0094679Y0223180D01*
X0094631Y0223072D01*
X0094579Y0222965D01*
X0094524Y0222860D01*
X0094465Y0222757D01*
X0094403Y0222657D01*
X0094338Y0222558D01*
X0094269Y0222461D01*
X0094198Y0222367D01*
X0094123Y0222276D01*
X0094045Y0222186D01*
X0093964Y0222100D01*
X0093880Y0222016D01*
X0093794Y0221935D01*
X0093704Y0221857D01*
X0093613Y0221782D01*
X0093519Y0221711D01*
X0093422Y0221642D01*
X0093323Y0221577D01*
X0093223Y0221515D01*
X0093120Y0221456D01*
X0093015Y0221401D01*
X0092908Y0221349D01*
X0092800Y0221301D01*
X0092690Y0221257D01*
X0092579Y0221216D01*
X0092467Y0221179D01*
X0092353Y0221146D01*
X0092238Y0221117D01*
X0092123Y0221091D01*
X0092006Y0221069D01*
X0091889Y0221052D01*
X0091772Y0221038D01*
X0091654Y0221028D01*
X0091535Y0221022D01*
X0091417Y0221020D01*
X0091299Y0221022D01*
X0091180Y0221028D01*
X0091062Y0221038D01*
X0090945Y0221052D01*
X0090828Y0221069D01*
X0090711Y0221091D01*
X0090596Y0221117D01*
X0090481Y0221146D01*
X0090367Y0221179D01*
X0090255Y0221216D01*
X0090144Y0221257D01*
X0090034Y0221301D01*
X0089926Y0221349D01*
X0089819Y0221401D01*
X0089714Y0221456D01*
X0089611Y0221515D01*
X0089511Y0221577D01*
X0089412Y0221642D01*
X0089315Y0221711D01*
X0089221Y0221782D01*
X0089130Y0221857D01*
X0089040Y0221935D01*
X0088954Y0222016D01*
X0088870Y0222100D01*
X0088789Y0222186D01*
X0088711Y0222276D01*
X0088636Y0222367D01*
X0088565Y0222461D01*
X0088496Y0222558D01*
X0088431Y0222657D01*
X0088369Y0222757D01*
X0088310Y0222860D01*
X0088255Y0222965D01*
X0088203Y0223072D01*
X0088155Y0223180D01*
X0088111Y0223290D01*
X0088070Y0223401D01*
X0088033Y0223513D01*
X0088000Y0223627D01*
X0087971Y0223742D01*
X0087945Y0223857D01*
X0087923Y0223974D01*
X0087906Y0224091D01*
X0087892Y0224208D01*
X0087882Y0224326D01*
X0087876Y0224445D01*
X0087874Y0224563D01*
X0088267Y0242280D02*
X0088269Y0242392D01*
X0088275Y0242503D01*
X0088285Y0242615D01*
X0088299Y0242726D01*
X0088316Y0242836D01*
X0088338Y0242946D01*
X0088364Y0243055D01*
X0088393Y0243163D01*
X0088426Y0243269D01*
X0088463Y0243375D01*
X0088504Y0243479D01*
X0088549Y0243582D01*
X0088597Y0243683D01*
X0088648Y0243782D01*
X0088703Y0243879D01*
X0088762Y0243974D01*
X0088823Y0244068D01*
X0088888Y0244159D01*
X0088957Y0244247D01*
X0089028Y0244333D01*
X0089102Y0244417D01*
X0089180Y0244497D01*
X0089260Y0244575D01*
X0089343Y0244651D01*
X0089428Y0244723D01*
X0089516Y0244792D01*
X0089606Y0244858D01*
X0089699Y0244920D01*
X0089794Y0244980D01*
X0089891Y0245036D01*
X0089989Y0245088D01*
X0090090Y0245137D01*
X0090192Y0245182D01*
X0090296Y0245224D01*
X0090401Y0245262D01*
X0090508Y0245296D01*
X0090615Y0245326D01*
X0090724Y0245353D01*
X0090833Y0245375D01*
X0090944Y0245394D01*
X0091054Y0245409D01*
X0091166Y0245420D01*
X0091277Y0245427D01*
X0091389Y0245430D01*
X0091501Y0245429D01*
X0091613Y0245424D01*
X0091724Y0245415D01*
X0091835Y0245402D01*
X0091946Y0245385D01*
X0092056Y0245365D01*
X0092165Y0245340D01*
X0092273Y0245312D01*
X0092380Y0245279D01*
X0092486Y0245243D01*
X0092590Y0245203D01*
X0092693Y0245160D01*
X0092795Y0245113D01*
X0092894Y0245062D01*
X0092992Y0245008D01*
X0093088Y0244950D01*
X0093182Y0244889D01*
X0093273Y0244825D01*
X0093362Y0244758D01*
X0093449Y0244687D01*
X0093533Y0244613D01*
X0093615Y0244537D01*
X0093693Y0244457D01*
X0093769Y0244375D01*
X0093842Y0244290D01*
X0093912Y0244203D01*
X0093978Y0244113D01*
X0094042Y0244021D01*
X0094102Y0243927D01*
X0094159Y0243831D01*
X0094212Y0243732D01*
X0094262Y0243632D01*
X0094308Y0243531D01*
X0094351Y0243427D01*
X0094390Y0243322D01*
X0094425Y0243216D01*
X0094456Y0243109D01*
X0094484Y0243000D01*
X0094507Y0242891D01*
X0094527Y0242781D01*
X0094543Y0242670D01*
X0094555Y0242559D01*
X0094563Y0242448D01*
X0094567Y0242336D01*
X0094567Y0242224D01*
X0094563Y0242112D01*
X0094555Y0242001D01*
X0094543Y0241890D01*
X0094527Y0241779D01*
X0094507Y0241669D01*
X0094484Y0241560D01*
X0094456Y0241451D01*
X0094425Y0241344D01*
X0094390Y0241238D01*
X0094351Y0241133D01*
X0094308Y0241029D01*
X0094262Y0240928D01*
X0094212Y0240828D01*
X0094159Y0240729D01*
X0094102Y0240633D01*
X0094042Y0240539D01*
X0093978Y0240447D01*
X0093912Y0240357D01*
X0093842Y0240270D01*
X0093769Y0240185D01*
X0093693Y0240103D01*
X0093615Y0240023D01*
X0093533Y0239947D01*
X0093449Y0239873D01*
X0093362Y0239802D01*
X0093273Y0239735D01*
X0093182Y0239671D01*
X0093088Y0239610D01*
X0092992Y0239552D01*
X0092894Y0239498D01*
X0092795Y0239447D01*
X0092693Y0239400D01*
X0092590Y0239357D01*
X0092486Y0239317D01*
X0092380Y0239281D01*
X0092273Y0239248D01*
X0092165Y0239220D01*
X0092056Y0239195D01*
X0091946Y0239175D01*
X0091835Y0239158D01*
X0091724Y0239145D01*
X0091613Y0239136D01*
X0091501Y0239131D01*
X0091389Y0239130D01*
X0091277Y0239133D01*
X0091166Y0239140D01*
X0091054Y0239151D01*
X0090944Y0239166D01*
X0090833Y0239185D01*
X0090724Y0239207D01*
X0090615Y0239234D01*
X0090508Y0239264D01*
X0090401Y0239298D01*
X0090296Y0239336D01*
X0090192Y0239378D01*
X0090090Y0239423D01*
X0089989Y0239472D01*
X0089891Y0239524D01*
X0089794Y0239580D01*
X0089699Y0239640D01*
X0089606Y0239702D01*
X0089516Y0239768D01*
X0089428Y0239837D01*
X0089343Y0239909D01*
X0089260Y0239985D01*
X0089180Y0240063D01*
X0089102Y0240143D01*
X0089028Y0240227D01*
X0088957Y0240313D01*
X0088888Y0240401D01*
X0088823Y0240492D01*
X0088762Y0240586D01*
X0088703Y0240681D01*
X0088648Y0240778D01*
X0088597Y0240877D01*
X0088549Y0240978D01*
X0088504Y0241081D01*
X0088463Y0241185D01*
X0088426Y0241291D01*
X0088393Y0241397D01*
X0088364Y0241505D01*
X0088338Y0241614D01*
X0088316Y0241724D01*
X0088299Y0241834D01*
X0088285Y0241945D01*
X0088275Y0242057D01*
X0088269Y0242168D01*
X0088267Y0242280D01*
X0283917Y0246650D02*
X0283917Y0196650D01*
X0283917Y0186650D02*
X0283917Y0136650D01*
X0283917Y0126650D02*
X0283917Y0076650D01*
X0283917Y0066650D02*
X0283917Y0016650D01*
D11*
X0185797Y0117772D02*
X0178907Y0117772D01*
X0178907Y0118756D01*
X0185797Y0118756D01*
X0185797Y0117772D01*
X0185797Y0118755D02*
X0178907Y0118755D01*
X0178907Y0120921D02*
X0185797Y0120921D01*
X0178907Y0120921D02*
X0178907Y0121905D01*
X0185797Y0121905D01*
X0185797Y0120921D01*
X0185797Y0121904D02*
X0178907Y0121904D01*
X0178907Y0124071D02*
X0185797Y0124071D01*
X0178907Y0124071D02*
X0178907Y0125055D01*
X0185797Y0125055D01*
X0185797Y0124071D01*
X0185797Y0125054D02*
X0178907Y0125054D01*
X0178907Y0127221D02*
X0185797Y0127221D01*
X0178907Y0127221D02*
X0178907Y0128205D01*
X0185797Y0128205D01*
X0185797Y0127221D01*
X0185797Y0128204D02*
X0178907Y0128204D01*
X0178907Y0130370D02*
X0185797Y0130370D01*
X0178907Y0130370D02*
X0178907Y0131354D01*
X0185797Y0131354D01*
X0185797Y0130370D01*
X0185797Y0131353D02*
X0178907Y0131353D01*
X0178907Y0133520D02*
X0185797Y0133520D01*
X0178907Y0133520D02*
X0178907Y0134504D01*
X0185797Y0134504D01*
X0185797Y0133520D01*
X0185797Y0134503D02*
X0178907Y0134503D01*
X0178907Y0136669D02*
X0185797Y0136669D01*
X0178907Y0136669D02*
X0178907Y0137653D01*
X0185797Y0137653D01*
X0185797Y0136669D01*
X0185797Y0137652D02*
X0178907Y0137652D01*
X0178907Y0139819D02*
X0185797Y0139819D01*
X0178907Y0139819D02*
X0178907Y0140803D01*
X0185797Y0140803D01*
X0185797Y0139819D01*
X0185797Y0140802D02*
X0178907Y0140802D01*
X0178907Y0142969D02*
X0185797Y0142969D01*
X0178907Y0142969D02*
X0178907Y0143953D01*
X0185797Y0143953D01*
X0185797Y0142969D01*
X0185797Y0143952D02*
X0178907Y0143952D01*
X0178907Y0146118D02*
X0185797Y0146118D01*
X0178907Y0146118D02*
X0178907Y0147102D01*
X0185797Y0147102D01*
X0185797Y0146118D01*
X0185797Y0147101D02*
X0178907Y0147101D01*
X0153514Y0144543D02*
X0146624Y0144543D01*
X0146624Y0145527D01*
X0153514Y0145527D01*
X0153514Y0144543D01*
X0153514Y0145526D02*
X0146624Y0145526D01*
X0146624Y0141394D02*
X0153514Y0141394D01*
X0146624Y0141394D02*
X0146624Y0142378D01*
X0153514Y0142378D01*
X0153514Y0141394D01*
X0153514Y0142377D02*
X0146624Y0142377D01*
X0146624Y0138244D02*
X0153514Y0138244D01*
X0146624Y0138244D02*
X0146624Y0139228D01*
X0153514Y0139228D01*
X0153514Y0138244D01*
X0153514Y0139227D02*
X0146624Y0139227D01*
X0146624Y0135095D02*
X0153514Y0135095D01*
X0146624Y0135095D02*
X0146624Y0136079D01*
X0153514Y0136079D01*
X0153514Y0135095D01*
X0153514Y0136078D02*
X0146624Y0136078D01*
X0146624Y0131945D02*
X0153514Y0131945D01*
X0146624Y0131945D02*
X0146624Y0132929D01*
X0153514Y0132929D01*
X0153514Y0131945D01*
X0153514Y0132928D02*
X0146624Y0132928D01*
X0146624Y0128795D02*
X0153514Y0128795D01*
X0146624Y0128795D02*
X0146624Y0129779D01*
X0153514Y0129779D01*
X0153514Y0128795D01*
X0153514Y0129778D02*
X0146624Y0129778D01*
X0146624Y0125646D02*
X0153514Y0125646D01*
X0146624Y0125646D02*
X0146624Y0126630D01*
X0153514Y0126630D01*
X0153514Y0125646D01*
X0153514Y0126629D02*
X0146624Y0126629D01*
X0146624Y0122496D02*
X0153514Y0122496D01*
X0146624Y0122496D02*
X0146624Y0123480D01*
X0153514Y0123480D01*
X0153514Y0122496D01*
X0153514Y0123479D02*
X0146624Y0123479D01*
X0146624Y0119347D02*
X0153514Y0119347D01*
X0146624Y0119347D02*
X0146624Y0120331D01*
X0153514Y0120331D01*
X0153514Y0119347D01*
X0153514Y0120330D02*
X0146624Y0120330D01*
X0146624Y0116197D02*
X0153514Y0116197D01*
X0146624Y0116197D02*
X0146624Y0117181D01*
X0153514Y0117181D01*
X0153514Y0116197D01*
X0153514Y0117180D02*
X0146624Y0117180D01*
D12*
X0142982Y0103598D03*
X0123297Y0116098D03*
X0103612Y0103598D03*
X0123297Y0137358D03*
X0123297Y0159701D03*
X0083927Y0159701D03*
X0044557Y0159701D03*
X0044557Y0125941D03*
X0064242Y0103598D03*
X0162667Y0159701D03*
X0182352Y0103598D03*
D13*
X0172510Y0103598D03*
X0152825Y0103598D03*
X0134321Y0103598D03*
X0190620Y0112752D03*
X0190620Y0131650D03*
X0190620Y0150547D03*
X0172510Y0159701D03*
X0152825Y0159701D03*
X0134321Y0159701D03*
D14*
X0166211Y0150547D03*
X0166211Y0112752D03*
D15*
X0244203Y0021335D03*
X0047352Y0021335D03*
X0047352Y0237870D03*
X0244203Y0237870D03*
D16*
X0264717Y0241850D02*
X0281117Y0241850D01*
X0281117Y0233450D01*
X0264717Y0233450D01*
X0264717Y0241850D01*
X0264717Y0235049D02*
X0281117Y0235049D01*
X0281117Y0236648D02*
X0264717Y0236648D01*
X0264717Y0238247D02*
X0281117Y0238247D01*
X0281117Y0239846D02*
X0264717Y0239846D01*
X0264717Y0241445D02*
X0281117Y0241445D01*
X0281117Y0225850D02*
X0264717Y0225850D01*
X0281117Y0225850D02*
X0281117Y0217450D01*
X0264717Y0217450D01*
X0264717Y0225850D01*
X0264717Y0219049D02*
X0281117Y0219049D01*
X0281117Y0220648D02*
X0264717Y0220648D01*
X0264717Y0222247D02*
X0281117Y0222247D01*
X0281117Y0223846D02*
X0264717Y0223846D01*
X0264717Y0225445D02*
X0281117Y0225445D01*
X0281117Y0209850D02*
X0264717Y0209850D01*
X0281117Y0209850D02*
X0281117Y0201450D01*
X0264717Y0201450D01*
X0264717Y0209850D01*
X0264717Y0203049D02*
X0281117Y0203049D01*
X0281117Y0204648D02*
X0264717Y0204648D01*
X0264717Y0206247D02*
X0281117Y0206247D01*
X0281117Y0207846D02*
X0264717Y0207846D01*
X0264717Y0209445D02*
X0281117Y0209445D01*
X0281117Y0181850D02*
X0264717Y0181850D01*
X0281117Y0181850D02*
X0281117Y0173450D01*
X0264717Y0173450D01*
X0264717Y0181850D01*
X0264717Y0175049D02*
X0281117Y0175049D01*
X0281117Y0176648D02*
X0264717Y0176648D01*
X0264717Y0178247D02*
X0281117Y0178247D01*
X0281117Y0179846D02*
X0264717Y0179846D01*
X0264717Y0181445D02*
X0281117Y0181445D01*
X0281117Y0165850D02*
X0264717Y0165850D01*
X0281117Y0165850D02*
X0281117Y0157450D01*
X0264717Y0157450D01*
X0264717Y0165850D01*
X0264717Y0159049D02*
X0281117Y0159049D01*
X0281117Y0160648D02*
X0264717Y0160648D01*
X0264717Y0162247D02*
X0281117Y0162247D01*
X0281117Y0163846D02*
X0264717Y0163846D01*
X0264717Y0165445D02*
X0281117Y0165445D01*
X0281117Y0149850D02*
X0264717Y0149850D01*
X0281117Y0149850D02*
X0281117Y0141450D01*
X0264717Y0141450D01*
X0264717Y0149850D01*
X0264717Y0143049D02*
X0281117Y0143049D01*
X0281117Y0144648D02*
X0264717Y0144648D01*
X0264717Y0146247D02*
X0281117Y0146247D01*
X0281117Y0147846D02*
X0264717Y0147846D01*
X0264717Y0149445D02*
X0281117Y0149445D01*
X0281117Y0121850D02*
X0264717Y0121850D01*
X0281117Y0121850D02*
X0281117Y0113450D01*
X0264717Y0113450D01*
X0264717Y0121850D01*
X0264717Y0115049D02*
X0281117Y0115049D01*
X0281117Y0116648D02*
X0264717Y0116648D01*
X0264717Y0118247D02*
X0281117Y0118247D01*
X0281117Y0119846D02*
X0264717Y0119846D01*
X0264717Y0121445D02*
X0281117Y0121445D01*
X0281117Y0105850D02*
X0264717Y0105850D01*
X0281117Y0105850D02*
X0281117Y0097450D01*
X0264717Y0097450D01*
X0264717Y0105850D01*
X0264717Y0099049D02*
X0281117Y0099049D01*
X0281117Y0100648D02*
X0264717Y0100648D01*
X0264717Y0102247D02*
X0281117Y0102247D01*
X0281117Y0103846D02*
X0264717Y0103846D01*
X0264717Y0105445D02*
X0281117Y0105445D01*
X0281117Y0089850D02*
X0264717Y0089850D01*
X0281117Y0089850D02*
X0281117Y0081450D01*
X0264717Y0081450D01*
X0264717Y0089850D01*
X0264717Y0083049D02*
X0281117Y0083049D01*
X0281117Y0084648D02*
X0264717Y0084648D01*
X0264717Y0086247D02*
X0281117Y0086247D01*
X0281117Y0087846D02*
X0264717Y0087846D01*
X0264717Y0089445D02*
X0281117Y0089445D01*
X0281117Y0061850D02*
X0264717Y0061850D01*
X0281117Y0061850D02*
X0281117Y0053450D01*
X0264717Y0053450D01*
X0264717Y0061850D01*
X0264717Y0055049D02*
X0281117Y0055049D01*
X0281117Y0056648D02*
X0264717Y0056648D01*
X0264717Y0058247D02*
X0281117Y0058247D01*
X0281117Y0059846D02*
X0264717Y0059846D01*
X0264717Y0061445D02*
X0281117Y0061445D01*
X0281117Y0045850D02*
X0264717Y0045850D01*
X0281117Y0045850D02*
X0281117Y0037450D01*
X0264717Y0037450D01*
X0264717Y0045850D01*
X0264717Y0039049D02*
X0281117Y0039049D01*
X0281117Y0040648D02*
X0264717Y0040648D01*
X0264717Y0042247D02*
X0281117Y0042247D01*
X0281117Y0043846D02*
X0264717Y0043846D01*
X0264717Y0045445D02*
X0281117Y0045445D01*
X0281117Y0029850D02*
X0264717Y0029850D01*
X0281117Y0029850D02*
X0281117Y0021450D01*
X0264717Y0021450D01*
X0264717Y0029850D01*
X0264717Y0023049D02*
X0281117Y0023049D01*
X0281117Y0024648D02*
X0264717Y0024648D01*
X0264717Y0026247D02*
X0281117Y0026247D01*
X0281117Y0027846D02*
X0264717Y0027846D01*
X0264717Y0029445D02*
X0281117Y0029445D01*
D17*
X0216319Y0123934D02*
X0216319Y0128342D01*
X0221515Y0128342D01*
X0221515Y0123934D01*
X0216319Y0123934D01*
X0216319Y0125823D02*
X0221515Y0125823D01*
X0221515Y0127712D02*
X0216319Y0127712D01*
X0216319Y0134957D02*
X0216319Y0139365D01*
X0221515Y0139365D01*
X0221515Y0134957D01*
X0216319Y0134957D01*
X0216319Y0136846D02*
X0221515Y0136846D01*
X0221515Y0138735D02*
X0216319Y0138735D01*
X0191633Y0184052D02*
X0187225Y0184052D01*
X0187225Y0189248D01*
X0191633Y0189248D01*
X0191633Y0184052D01*
X0191633Y0185941D02*
X0187225Y0185941D01*
X0187225Y0187830D02*
X0191633Y0187830D01*
X0180610Y0184052D02*
X0176202Y0184052D01*
X0176202Y0189248D01*
X0180610Y0189248D01*
X0180610Y0184052D01*
X0180610Y0185941D02*
X0176202Y0185941D01*
X0176202Y0187830D02*
X0180610Y0187830D01*
X0167765Y0228619D02*
X0167765Y0233027D01*
X0167765Y0228619D02*
X0162569Y0228619D01*
X0162569Y0233027D01*
X0167765Y0233027D01*
X0167765Y0230508D02*
X0162569Y0230508D01*
X0162569Y0232397D02*
X0167765Y0232397D01*
X0167765Y0239642D02*
X0167765Y0244050D01*
X0167765Y0239642D02*
X0162569Y0239642D01*
X0162569Y0244050D01*
X0167765Y0244050D01*
X0167765Y0241531D02*
X0162569Y0241531D01*
X0162569Y0243420D02*
X0167765Y0243420D01*
D18*
X0178770Y0244639D02*
X0178770Y0242041D01*
X0176564Y0242041D01*
X0176564Y0244639D01*
X0178770Y0244639D01*
X0178770Y0242985D02*
X0176564Y0242985D01*
X0176564Y0243929D02*
X0178770Y0243929D01*
X0178770Y0248041D02*
X0178770Y0250639D01*
X0178770Y0248041D02*
X0176564Y0248041D01*
X0176564Y0250639D01*
X0178770Y0250639D01*
X0178770Y0248985D02*
X0176564Y0248985D01*
X0176564Y0249929D02*
X0178770Y0249929D01*
X0178770Y0230949D02*
X0178770Y0228351D01*
X0176564Y0228351D01*
X0176564Y0230949D01*
X0178770Y0230949D01*
X0178770Y0229295D02*
X0176564Y0229295D01*
X0176564Y0230239D02*
X0178770Y0230239D01*
X0178770Y0224949D02*
X0178770Y0222351D01*
X0176564Y0222351D01*
X0176564Y0224949D01*
X0178770Y0224949D01*
X0178770Y0223295D02*
X0176564Y0223295D01*
X0176564Y0224239D02*
X0178770Y0224239D01*
X0182118Y0180253D02*
X0184716Y0180253D01*
X0184716Y0178047D01*
X0182118Y0178047D01*
X0182118Y0180253D01*
X0182118Y0178991D02*
X0184716Y0178991D01*
X0184716Y0179935D02*
X0182118Y0179935D01*
X0188118Y0180253D02*
X0190716Y0180253D01*
X0190716Y0178047D01*
X0188118Y0178047D01*
X0188118Y0180253D01*
X0188118Y0178991D02*
X0190716Y0178991D01*
X0190716Y0179935D02*
X0188118Y0179935D01*
X0175716Y0172753D02*
X0173118Y0172753D01*
X0175716Y0172753D02*
X0175716Y0170547D01*
X0173118Y0170547D01*
X0173118Y0172753D01*
X0173118Y0171491D02*
X0175716Y0171491D01*
X0175716Y0172435D02*
X0173118Y0172435D01*
X0169716Y0172753D02*
X0167118Y0172753D01*
X0169716Y0172753D02*
X0169716Y0170547D01*
X0167118Y0170547D01*
X0167118Y0172753D01*
X0167118Y0171491D02*
X0169716Y0171491D01*
X0169716Y0172435D02*
X0167118Y0172435D01*
X0211270Y0135949D02*
X0211270Y0133351D01*
X0209064Y0133351D01*
X0209064Y0135949D01*
X0211270Y0135949D01*
X0211270Y0134295D02*
X0209064Y0134295D01*
X0209064Y0135239D02*
X0211270Y0135239D01*
X0211270Y0129949D02*
X0211270Y0127351D01*
X0209064Y0127351D01*
X0209064Y0129949D01*
X0211270Y0129949D01*
X0211270Y0128295D02*
X0209064Y0128295D01*
X0209064Y0129239D02*
X0211270Y0129239D01*
X0171270Y0088449D02*
X0171270Y0085851D01*
X0169064Y0085851D01*
X0169064Y0088449D01*
X0171270Y0088449D01*
X0171270Y0086795D02*
X0169064Y0086795D01*
X0169064Y0087739D02*
X0171270Y0087739D01*
X0171270Y0082449D02*
X0171270Y0079851D01*
X0169064Y0079851D01*
X0169064Y0082449D01*
X0171270Y0082449D01*
X0171270Y0080795D02*
X0169064Y0080795D01*
X0169064Y0081739D02*
X0171270Y0081739D01*
X0161270Y0082449D02*
X0161270Y0079851D01*
X0159064Y0079851D01*
X0159064Y0082449D01*
X0161270Y0082449D01*
X0161270Y0080795D02*
X0159064Y0080795D01*
X0159064Y0081739D02*
X0161270Y0081739D01*
X0161270Y0085851D02*
X0161270Y0088449D01*
X0161270Y0085851D02*
X0159064Y0085851D01*
X0159064Y0088449D01*
X0161270Y0088449D01*
X0161270Y0086795D02*
X0159064Y0086795D01*
X0159064Y0087739D02*
X0161270Y0087739D01*
X0151270Y0088449D02*
X0151270Y0085851D01*
X0149064Y0085851D01*
X0149064Y0088449D01*
X0151270Y0088449D01*
X0151270Y0086795D02*
X0149064Y0086795D01*
X0149064Y0087739D02*
X0151270Y0087739D01*
X0151270Y0082449D02*
X0151270Y0079851D01*
X0149064Y0079851D01*
X0149064Y0082449D01*
X0151270Y0082449D01*
X0151270Y0080795D02*
X0149064Y0080795D01*
X0149064Y0081739D02*
X0151270Y0081739D01*
X0131270Y0082449D02*
X0131270Y0079851D01*
X0129064Y0079851D01*
X0129064Y0082449D01*
X0131270Y0082449D01*
X0131270Y0080795D02*
X0129064Y0080795D01*
X0129064Y0081739D02*
X0131270Y0081739D01*
X0131270Y0085851D02*
X0131270Y0088449D01*
X0131270Y0085851D02*
X0129064Y0085851D01*
X0129064Y0088449D01*
X0131270Y0088449D01*
X0131270Y0086795D02*
X0129064Y0086795D01*
X0129064Y0087739D02*
X0131270Y0087739D01*
X0101270Y0088449D02*
X0101270Y0085851D01*
X0099064Y0085851D01*
X0099064Y0088449D01*
X0101270Y0088449D01*
X0101270Y0086795D02*
X0099064Y0086795D01*
X0099064Y0087739D02*
X0101270Y0087739D01*
X0101270Y0082449D02*
X0101270Y0079851D01*
X0099064Y0079851D01*
X0099064Y0082449D01*
X0101270Y0082449D01*
X0101270Y0080795D02*
X0099064Y0080795D01*
X0099064Y0081739D02*
X0101270Y0081739D01*
X0074064Y0082449D02*
X0074064Y0079851D01*
X0074064Y0082449D02*
X0076270Y0082449D01*
X0076270Y0079851D01*
X0074064Y0079851D01*
X0074064Y0080795D02*
X0076270Y0080795D01*
X0076270Y0081739D02*
X0074064Y0081739D01*
X0074064Y0085851D02*
X0074064Y0088449D01*
X0076270Y0088449D01*
X0076270Y0085851D01*
X0074064Y0085851D01*
X0074064Y0086795D02*
X0076270Y0086795D01*
X0076270Y0087739D02*
X0074064Y0087739D01*
X0073770Y0069455D02*
X0071564Y0069455D01*
X0073770Y0069455D02*
X0073770Y0067249D01*
X0071564Y0067249D01*
X0071564Y0069455D01*
X0071564Y0068193D02*
X0073770Y0068193D01*
X0073770Y0069137D02*
X0071564Y0069137D01*
X0071564Y0063550D02*
X0073770Y0063550D01*
X0073770Y0061344D01*
X0071564Y0061344D01*
X0071564Y0063550D01*
X0071564Y0062288D02*
X0073770Y0062288D01*
X0073770Y0063232D02*
X0071564Y0063232D01*
X0062814Y0063699D02*
X0062814Y0061101D01*
X0062814Y0063699D02*
X0065020Y0063699D01*
X0065020Y0061101D01*
X0062814Y0061101D01*
X0062814Y0062045D02*
X0065020Y0062045D01*
X0065020Y0062989D02*
X0062814Y0062989D01*
X0062814Y0067101D02*
X0062814Y0069699D01*
X0065020Y0069699D01*
X0065020Y0067101D01*
X0062814Y0067101D01*
X0062814Y0068045D02*
X0065020Y0068045D01*
X0065020Y0068989D02*
X0062814Y0068989D01*
X0049064Y0079851D02*
X0049064Y0082449D01*
X0051270Y0082449D01*
X0051270Y0079851D01*
X0049064Y0079851D01*
X0049064Y0080795D02*
X0051270Y0080795D01*
X0051270Y0081739D02*
X0049064Y0081739D01*
X0049064Y0085851D02*
X0049064Y0088449D01*
X0051270Y0088449D01*
X0051270Y0085851D01*
X0049064Y0085851D01*
X0049064Y0086795D02*
X0051270Y0086795D01*
X0051270Y0087739D02*
X0049064Y0087739D01*
X0048770Y0069455D02*
X0046564Y0069455D01*
X0048770Y0069455D02*
X0048770Y0067249D01*
X0046564Y0067249D01*
X0046564Y0069455D01*
X0046564Y0068193D02*
X0048770Y0068193D01*
X0048770Y0069137D02*
X0046564Y0069137D01*
X0046564Y0063550D02*
X0048770Y0063550D01*
X0048770Y0061344D01*
X0046564Y0061344D01*
X0046564Y0063550D01*
X0046564Y0062288D02*
X0048770Y0062288D01*
X0048770Y0063232D02*
X0046564Y0063232D01*
X0037814Y0063699D02*
X0037814Y0061101D01*
X0037814Y0063699D02*
X0040020Y0063699D01*
X0040020Y0061101D01*
X0037814Y0061101D01*
X0037814Y0062045D02*
X0040020Y0062045D01*
X0040020Y0062989D02*
X0037814Y0062989D01*
X0037814Y0067101D02*
X0037814Y0069699D01*
X0040020Y0069699D01*
X0040020Y0067101D01*
X0037814Y0067101D01*
X0037814Y0068045D02*
X0040020Y0068045D01*
X0040020Y0068989D02*
X0037814Y0068989D01*
D19*
X0037539Y0080735D02*
X0040295Y0080735D01*
X0040295Y0076403D01*
X0037539Y0076403D01*
X0037539Y0080735D01*
X0037539Y0077583D02*
X0040295Y0077583D01*
X0040295Y0078763D02*
X0037539Y0078763D01*
X0037539Y0079943D02*
X0040295Y0079943D01*
X0041279Y0089396D02*
X0044035Y0089396D01*
X0044035Y0085064D01*
X0041279Y0085064D01*
X0041279Y0089396D01*
X0041279Y0086244D02*
X0044035Y0086244D01*
X0044035Y0087424D02*
X0041279Y0087424D01*
X0041279Y0088604D02*
X0044035Y0088604D01*
X0036555Y0089396D02*
X0033799Y0089396D01*
X0036555Y0089396D02*
X0036555Y0085064D01*
X0033799Y0085064D01*
X0033799Y0089396D01*
X0033799Y0086244D02*
X0036555Y0086244D01*
X0036555Y0087424D02*
X0033799Y0087424D01*
X0033799Y0088604D02*
X0036555Y0088604D01*
X0058799Y0089396D02*
X0061555Y0089396D01*
X0061555Y0085064D01*
X0058799Y0085064D01*
X0058799Y0089396D01*
X0058799Y0086244D02*
X0061555Y0086244D01*
X0061555Y0087424D02*
X0058799Y0087424D01*
X0058799Y0088604D02*
X0061555Y0088604D01*
X0066279Y0089396D02*
X0069035Y0089396D01*
X0069035Y0085064D01*
X0066279Y0085064D01*
X0066279Y0089396D01*
X0066279Y0086244D02*
X0069035Y0086244D01*
X0069035Y0087424D02*
X0066279Y0087424D01*
X0066279Y0088604D02*
X0069035Y0088604D01*
X0065295Y0080735D02*
X0062539Y0080735D01*
X0065295Y0080735D02*
X0065295Y0076403D01*
X0062539Y0076403D01*
X0062539Y0080735D01*
X0062539Y0077583D02*
X0065295Y0077583D01*
X0065295Y0078763D02*
X0062539Y0078763D01*
X0062539Y0079943D02*
X0065295Y0079943D01*
X0181496Y0173028D02*
X0184646Y0173028D01*
X0184646Y0170272D01*
X0181496Y0170272D01*
X0181496Y0173028D01*
X0181496Y0171452D02*
X0184646Y0171452D01*
X0184646Y0172632D02*
X0181496Y0172632D01*
X0188189Y0173028D02*
X0191339Y0173028D01*
X0191339Y0170272D01*
X0188189Y0170272D01*
X0188189Y0173028D01*
X0188189Y0171452D02*
X0191339Y0171452D01*
X0191339Y0172632D02*
X0188189Y0172632D01*
X0229045Y0136571D02*
X0229045Y0133421D01*
X0226289Y0133421D01*
X0226289Y0136571D01*
X0229045Y0136571D01*
X0229045Y0134601D02*
X0226289Y0134601D01*
X0226289Y0135781D02*
X0229045Y0135781D01*
X0229045Y0129878D02*
X0229045Y0126728D01*
X0226289Y0126728D01*
X0226289Y0129878D01*
X0229045Y0129878D01*
X0229045Y0127908D02*
X0226289Y0127908D01*
X0226289Y0129088D02*
X0229045Y0129088D01*
D20*
X0215914Y0203099D02*
X0207236Y0203099D01*
X0207236Y0210201D01*
X0215914Y0210201D01*
X0215914Y0203099D01*
X0215914Y0204657D02*
X0207236Y0204657D01*
X0207236Y0206215D02*
X0215914Y0206215D01*
X0215914Y0207773D02*
X0207236Y0207773D01*
X0207236Y0209331D02*
X0215914Y0209331D01*
X0196229Y0203099D02*
X0187551Y0203099D01*
X0187551Y0210201D01*
X0196229Y0210201D01*
X0196229Y0203099D01*
X0196229Y0204657D02*
X0187551Y0204657D01*
X0187551Y0206215D02*
X0196229Y0206215D01*
X0196229Y0207773D02*
X0187551Y0207773D01*
X0187551Y0209331D02*
X0196229Y0209331D01*
D21*
X0149173Y0244406D02*
X0143661Y0244406D01*
X0149173Y0244406D02*
X0149173Y0238894D01*
X0143661Y0238894D01*
X0143661Y0244406D01*
X0143661Y0241255D02*
X0149173Y0241255D01*
X0149173Y0243616D02*
X0143661Y0243616D01*
X0131673Y0244406D02*
X0126161Y0244406D01*
X0131673Y0244406D02*
X0131673Y0238894D01*
X0126161Y0238894D01*
X0126161Y0244406D01*
X0126161Y0241255D02*
X0131673Y0241255D01*
X0131673Y0243616D02*
X0126161Y0243616D01*
X0110315Y0245823D02*
X0110315Y0238737D01*
X0110315Y0245823D02*
X0115827Y0245823D01*
X0115827Y0238737D01*
X0110315Y0238737D01*
X0110315Y0241098D02*
X0115827Y0241098D01*
X0115827Y0243459D02*
X0110315Y0243459D01*
X0110315Y0245820D02*
X0115827Y0245820D01*
X0126161Y0228156D02*
X0126161Y0222644D01*
X0126161Y0228156D02*
X0131673Y0228156D01*
X0131673Y0222644D01*
X0126161Y0222644D01*
X0126161Y0225005D02*
X0131673Y0225005D01*
X0131673Y0227366D02*
X0126161Y0227366D01*
X0110315Y0221610D02*
X0110315Y0214524D01*
X0110315Y0221610D02*
X0115827Y0221610D01*
X0115827Y0214524D01*
X0110315Y0214524D01*
X0110315Y0216885D02*
X0115827Y0216885D01*
X0115827Y0219246D02*
X0110315Y0219246D01*
X0110315Y0221607D02*
X0115827Y0221607D01*
X0126161Y0210656D02*
X0126161Y0205144D01*
X0126161Y0210656D02*
X0131673Y0210656D01*
X0131673Y0205144D01*
X0126161Y0205144D01*
X0126161Y0207505D02*
X0131673Y0207505D01*
X0131673Y0209866D02*
X0126161Y0209866D01*
X0067008Y0214524D02*
X0067008Y0221610D01*
X0072520Y0221610D01*
X0072520Y0214524D01*
X0067008Y0214524D01*
X0067008Y0216885D02*
X0072520Y0216885D01*
X0072520Y0219246D02*
X0067008Y0219246D01*
X0067008Y0221607D02*
X0072520Y0221607D01*
X0067008Y0238737D02*
X0067008Y0245823D01*
X0072520Y0245823D01*
X0072520Y0238737D01*
X0067008Y0238737D01*
X0067008Y0241098D02*
X0072520Y0241098D01*
X0072520Y0243459D02*
X0067008Y0243459D01*
X0067008Y0245820D02*
X0072520Y0245820D01*
D22*
X0091417Y0242280D03*
D23*
X0091417Y0224563D03*
D24*
X0185537Y0225480D02*
X0185537Y0222120D01*
X0185537Y0225480D02*
X0192897Y0225480D01*
X0192897Y0222120D01*
X0185537Y0222120D01*
X0185537Y0223559D02*
X0192897Y0223559D01*
X0192897Y0224998D02*
X0185537Y0224998D01*
X0185537Y0231220D02*
X0185537Y0234580D01*
X0192897Y0234580D01*
X0192897Y0231220D01*
X0185537Y0231220D01*
X0185537Y0232659D02*
X0192897Y0232659D01*
X0192897Y0234098D02*
X0185537Y0234098D01*
X0185537Y0240320D02*
X0185537Y0243680D01*
X0192897Y0243680D01*
X0192897Y0240320D01*
X0185537Y0240320D01*
X0185537Y0241759D02*
X0192897Y0241759D01*
X0192897Y0243198D02*
X0185537Y0243198D01*
D25*
X0210587Y0238687D02*
X0210587Y0227113D01*
X0210587Y0238687D02*
X0216649Y0238687D01*
X0216649Y0227113D01*
X0210587Y0227113D01*
X0210587Y0229710D02*
X0216649Y0229710D01*
X0216649Y0232307D02*
X0210587Y0232307D01*
X0210587Y0234904D02*
X0216649Y0234904D01*
X0216649Y0237501D02*
X0210587Y0237501D01*
D26*
X0163167Y0215400D03*
X0162167Y0205400D03*
X0163167Y0195400D03*
X0162167Y0185400D03*
X0160167Y0067150D03*
X0150167Y0066150D03*
X0140167Y0067150D03*
X0130167Y0066150D03*
X0120167Y0067150D03*
X0110167Y0066150D03*
X0100167Y0067150D03*
X0090167Y0066150D03*
X0170167Y0066150D03*
X0180167Y0067150D03*
D27*
X0165167Y0074775D03*
X0155167Y0074775D03*
X0155167Y0087900D03*
X0176417Y0087900D03*
X0202042Y0111025D03*
X0196417Y0116025D03*
X0202667Y0127275D03*
X0200167Y0131650D03*
X0195792Y0134775D03*
X0202667Y0137275D03*
X0207667Y0140400D03*
X0211417Y0145400D03*
X0216417Y0149150D03*
X0220167Y0154150D03*
X0220167Y0160400D03*
X0220167Y0166650D03*
X0220167Y0172900D03*
X0220167Y0180400D03*
X0225167Y0185400D03*
X0233917Y0185400D03*
X0237667Y0179150D03*
X0247667Y0181650D03*
X0247667Y0175400D03*
X0248917Y0169150D03*
X0253917Y0167275D03*
X0259542Y0167275D03*
X0259542Y0156025D03*
X0252042Y0156025D03*
X0245167Y0159150D03*
X0240167Y0164150D03*
X0237667Y0170400D03*
X0246417Y0187900D03*
X0242667Y0191650D03*
X0246417Y0195400D03*
X0247667Y0202900D03*
X0247667Y0209150D03*
X0248292Y0215400D03*
X0253292Y0216650D03*
X0259542Y0216650D03*
X0257042Y0226650D03*
X0241417Y0222275D03*
X0238292Y0217900D03*
X0238292Y0211650D03*
X0238292Y0205400D03*
X0237667Y0199775D03*
X0231417Y0197275D03*
X0225167Y0197900D03*
X0216417Y0195400D03*
X0211417Y0198215D03*
X0211417Y0190400D03*
X0207667Y0185400D03*
X0207667Y0177900D03*
X0207667Y0170400D03*
X0207667Y0164150D03*
X0207667Y0159150D03*
X0202667Y0154775D03*
X0197667Y0150400D03*
X0178917Y0171650D03*
X0167667Y0144150D03*
X0172667Y0136650D03*
X0168917Y0132275D03*
X0172667Y0127900D03*
X0173917Y0119150D03*
X0157667Y0120400D03*
X0158917Y0131650D03*
X0160167Y0135400D03*
X0157667Y0144150D03*
X0142667Y0146650D03*
X0140167Y0141650D03*
X0140167Y0136650D03*
X0141417Y0130400D03*
X0137667Y0125400D03*
X0141417Y0122900D03*
X0142667Y0117900D03*
X0125167Y0087900D03*
X0125167Y0074775D03*
X0115167Y0074775D03*
X0105167Y0074775D03*
X0105167Y0081650D03*
X0095167Y0087900D03*
X0077667Y0077900D03*
X0072667Y0071650D03*
X0053917Y0080400D03*
X0047667Y0071650D03*
X0128917Y0199465D03*
X0120167Y0208215D03*
X0137667Y0208215D03*
X0157667Y0230715D03*
X0172667Y0233215D03*
X0181417Y0233215D03*
X0197667Y0233215D03*
X0200167Y0226965D03*
X0205167Y0226965D03*
X0205167Y0221340D03*
X0211417Y0215715D03*
X0213917Y0221340D03*
X0218917Y0221340D03*
X0223917Y0221340D03*
X0223917Y0226965D03*
X0223917Y0233215D03*
X0223917Y0239465D03*
X0223917Y0244465D03*
X0223917Y0249465D03*
X0218917Y0249465D03*
X0213917Y0249465D03*
X0213917Y0244465D03*
X0218917Y0244465D03*
X0208917Y0249465D03*
X0205167Y0244465D03*
X0205167Y0239465D03*
X0200167Y0239465D03*
X0205167Y0233215D03*
X0218917Y0215715D03*
X0223917Y0215715D03*
X0221417Y0208215D03*
X0188917Y0216650D03*
X0182667Y0216650D03*
X0176417Y0216650D03*
X0182667Y0210400D03*
X0227667Y0140400D03*
X0208917Y0122900D03*
X0213917Y0117900D03*
X0217042Y0113525D03*
X0220792Y0107275D03*
X0220792Y0099775D03*
X0220792Y0093525D03*
X0220792Y0087275D03*
X0220792Y0081025D03*
X0226417Y0077900D03*
X0233292Y0078525D03*
X0237667Y0083525D03*
X0238292Y0089775D03*
X0239542Y0097900D03*
X0244542Y0103525D03*
X0250792Y0106025D03*
X0258292Y0107275D03*
X0258292Y0096025D03*
X0253292Y0096025D03*
X0248292Y0093525D03*
X0247667Y0087275D03*
X0247042Y0081025D03*
X0245792Y0076025D03*
X0242042Y0071650D03*
X0245792Y0066025D03*
X0247042Y0059775D03*
X0247042Y0053525D03*
X0248292Y0048525D03*
X0252667Y0046650D03*
X0258917Y0046650D03*
X0260167Y0036650D03*
X0253917Y0036650D03*
X0246417Y0038525D03*
X0241417Y0042275D03*
X0238292Y0047900D03*
X0237667Y0053525D03*
X0237667Y0058525D03*
X0233292Y0064150D03*
X0227042Y0065400D03*
X0220792Y0065400D03*
X0215167Y0067275D03*
X0210167Y0072275D03*
X0207042Y0078525D03*
X0207042Y0084775D03*
X0207042Y0092275D03*
X0207042Y0098525D03*
X0207042Y0104775D03*
X0272667Y0131650D03*
X0272667Y0191650D03*
X0272667Y0250400D03*
X0068917Y0251965D03*
X0068917Y0230715D03*
X0068917Y0205715D03*
X0272667Y0071650D03*
X0272667Y0011650D03*
M02*
