G75*
%MOIN*%
%OFA0B0*%
%FSLAX25Y25*%
%IPPOS*%
%LPD*%
%AMOC8*
5,1,8,0,0,1.08239X$1,22.5*
%
%ADD10C,0.01000*%
%ADD11C,0.00800*%
%ADD12C,0.03200*%
%ADD13C,0.00500*%
%ADD14C,0.00600*%
%ADD15C,0.00787*%
%ADD16C,0.00400*%
%ADD17R,0.00591X0.01181*%
%ADD18R,0.01181X0.01181*%
%ADD19C,0.00200*%
D10*
X0033667Y0170650D02*
X0036678Y0170650D01*
X0038743Y0170650D02*
X0040248Y0170650D01*
X0039495Y0170650D02*
X0039495Y0173660D01*
X0038743Y0173660D01*
X0039495Y0175165D02*
X0039495Y0175918D01*
X0039309Y0178917D02*
X0037803Y0178917D01*
X0037051Y0179670D01*
X0037051Y0182680D01*
X0037803Y0183433D01*
X0039309Y0183433D01*
X0040061Y0182680D01*
X0042126Y0183433D02*
X0043631Y0181928D01*
X0043631Y0180423D01*
X0042126Y0178917D01*
X0040061Y0179670D02*
X0039309Y0178917D01*
X0042879Y0173660D02*
X0042126Y0172907D01*
X0042126Y0171402D01*
X0042879Y0170650D01*
X0045136Y0170650D01*
X0047201Y0171402D02*
X0047201Y0172907D01*
X0047954Y0173660D01*
X0049459Y0173660D01*
X0050212Y0172907D01*
X0050212Y0172155D01*
X0047201Y0172155D01*
X0047201Y0171402D02*
X0047954Y0170650D01*
X0049459Y0170650D01*
X0052276Y0170650D02*
X0052276Y0173660D01*
X0054534Y0173660D01*
X0055287Y0172907D01*
X0055287Y0170650D01*
X0057352Y0170650D02*
X0059609Y0170650D01*
X0060362Y0171402D01*
X0059609Y0172155D01*
X0058104Y0172155D01*
X0057352Y0172907D01*
X0058104Y0173660D01*
X0060362Y0173660D01*
X0062427Y0172907D02*
X0063179Y0173660D01*
X0064685Y0173660D01*
X0065437Y0172907D01*
X0065437Y0172155D01*
X0062427Y0172155D01*
X0062427Y0172907D02*
X0062427Y0171402D01*
X0063179Y0170650D01*
X0064685Y0170650D01*
X0067502Y0170650D02*
X0067502Y0171402D01*
X0068255Y0171402D01*
X0068255Y0170650D01*
X0067502Y0170650D01*
X0067502Y0172907D02*
X0067502Y0173660D01*
X0068255Y0173660D01*
X0068255Y0172907D01*
X0067502Y0172907D01*
X0068068Y0178917D02*
X0066563Y0178917D01*
X0065810Y0179670D01*
X0065810Y0180423D01*
X0066563Y0181175D01*
X0068068Y0181175D01*
X0068821Y0180423D01*
X0068821Y0179670D01*
X0068068Y0178917D01*
X0068068Y0181175D02*
X0068821Y0181928D01*
X0068821Y0182680D01*
X0068068Y0183433D01*
X0066563Y0183433D01*
X0065810Y0182680D01*
X0065810Y0181928D01*
X0066563Y0181175D01*
X0063745Y0178917D02*
X0060735Y0178917D01*
X0062240Y0178917D02*
X0062240Y0183433D01*
X0060735Y0181928D01*
X0058670Y0182680D02*
X0055660Y0179670D01*
X0056412Y0178917D01*
X0057918Y0178917D01*
X0058670Y0179670D01*
X0058670Y0182680D01*
X0057918Y0183433D01*
X0056412Y0183433D01*
X0055660Y0182680D01*
X0055660Y0179670D01*
X0053595Y0178917D02*
X0050585Y0178917D01*
X0053595Y0181928D01*
X0053595Y0182680D01*
X0052842Y0183433D01*
X0051337Y0183433D01*
X0050585Y0182680D01*
X0053968Y0191650D02*
X0056226Y0191650D01*
X0056979Y0192402D01*
X0056979Y0193907D01*
X0056226Y0194660D01*
X0053968Y0194660D01*
X0053968Y0196165D02*
X0053968Y0191650D01*
X0059043Y0191650D02*
X0059043Y0194660D01*
X0059043Y0193155D02*
X0060549Y0194660D01*
X0061301Y0194660D01*
X0063273Y0193907D02*
X0064025Y0194660D01*
X0065530Y0194660D01*
X0066283Y0193907D01*
X0066283Y0193155D01*
X0063273Y0193155D01*
X0063273Y0193907D02*
X0063273Y0192402D01*
X0064025Y0191650D01*
X0065530Y0191650D01*
X0068348Y0192402D02*
X0069100Y0193155D01*
X0071358Y0193155D01*
X0071358Y0193907D02*
X0071358Y0191650D01*
X0069100Y0191650D01*
X0068348Y0192402D01*
X0069100Y0194660D02*
X0070606Y0194660D01*
X0071358Y0193907D01*
X0073423Y0193155D02*
X0075681Y0194660D01*
X0077652Y0193907D02*
X0077652Y0192402D01*
X0078405Y0191650D01*
X0079910Y0191650D01*
X0080663Y0192402D01*
X0080663Y0193907D01*
X0079910Y0194660D01*
X0078405Y0194660D01*
X0077652Y0193907D01*
X0075681Y0191650D02*
X0073423Y0193155D01*
X0073423Y0191650D02*
X0073423Y0196165D01*
X0082728Y0194660D02*
X0082728Y0192402D01*
X0083480Y0191650D01*
X0085738Y0191650D01*
X0085738Y0194660D01*
X0087803Y0194660D02*
X0089308Y0194660D01*
X0088555Y0195413D02*
X0088555Y0192402D01*
X0089308Y0191650D01*
X0089121Y0181928D02*
X0086864Y0181928D01*
X0086111Y0181175D01*
X0086864Y0180423D01*
X0088369Y0180423D01*
X0089121Y0179670D01*
X0088369Y0178917D01*
X0086111Y0178917D01*
X0084046Y0178917D02*
X0081788Y0178917D01*
X0081036Y0179670D01*
X0081036Y0181928D01*
X0078971Y0181928D02*
X0076713Y0181928D01*
X0075961Y0181175D01*
X0076713Y0180423D01*
X0078218Y0180423D01*
X0078971Y0179670D01*
X0078218Y0178917D01*
X0075961Y0178917D01*
X0075867Y0175165D02*
X0075115Y0174413D01*
X0075115Y0171402D01*
X0075867Y0170650D01*
X0077373Y0170650D01*
X0078125Y0171402D01*
X0080190Y0171402D02*
X0080943Y0170650D01*
X0082448Y0170650D01*
X0083200Y0171402D01*
X0085265Y0172907D02*
X0088276Y0172907D01*
X0090340Y0172907D02*
X0092598Y0172907D01*
X0093351Y0172155D01*
X0093351Y0171402D01*
X0092598Y0170650D01*
X0090340Y0170650D01*
X0090340Y0175165D01*
X0092598Y0175165D01*
X0093351Y0174413D01*
X0093351Y0173660D01*
X0092598Y0172907D01*
X0095416Y0174413D02*
X0096921Y0172907D01*
X0096921Y0170650D01*
X0096921Y0172907D02*
X0098426Y0174413D01*
X0098426Y0175165D01*
X0095416Y0175165D02*
X0095416Y0174413D01*
X0094197Y0178917D02*
X0094197Y0181175D01*
X0093444Y0181928D01*
X0092691Y0181175D01*
X0092691Y0178917D01*
X0091186Y0178917D02*
X0091186Y0181928D01*
X0091939Y0181928D01*
X0092691Y0181175D01*
X0096261Y0181175D02*
X0096261Y0179670D01*
X0097014Y0178917D01*
X0098519Y0178917D01*
X0099272Y0179670D01*
X0099272Y0181175D01*
X0098519Y0181928D01*
X0097014Y0181928D01*
X0096261Y0181175D01*
X0101337Y0181175D02*
X0101337Y0179670D01*
X0102089Y0178917D01*
X0104347Y0178917D01*
X0106412Y0179670D02*
X0107164Y0178917D01*
X0108670Y0178917D01*
X0109422Y0179670D01*
X0109422Y0181175D01*
X0108670Y0181928D01*
X0107164Y0181928D01*
X0106412Y0181175D01*
X0106412Y0179670D01*
X0104347Y0181928D02*
X0102089Y0181928D01*
X0101337Y0181175D01*
X0106319Y0175165D02*
X0105566Y0174413D01*
X0105566Y0173660D01*
X0106319Y0172907D01*
X0107824Y0172907D01*
X0108576Y0172155D01*
X0108576Y0171402D01*
X0107824Y0170650D01*
X0106319Y0170650D01*
X0105566Y0171402D01*
X0103501Y0172907D02*
X0100491Y0172907D01*
X0106319Y0175165D02*
X0107824Y0175165D01*
X0108576Y0174413D01*
X0110641Y0173660D02*
X0112146Y0175165D01*
X0113652Y0173660D01*
X0113652Y0170650D01*
X0113652Y0172907D02*
X0110641Y0172907D01*
X0110641Y0173660D02*
X0110641Y0170650D01*
X0111487Y0178917D02*
X0111487Y0181928D01*
X0112240Y0181928D01*
X0112992Y0181175D01*
X0113745Y0181928D01*
X0114497Y0181175D01*
X0114497Y0178917D01*
X0112992Y0178917D02*
X0112992Y0181175D01*
X0121637Y0179670D02*
X0122390Y0178917D01*
X0123895Y0178917D01*
X0124648Y0179670D01*
X0124648Y0181175D01*
X0123143Y0181175D01*
X0124648Y0182680D02*
X0123895Y0183433D01*
X0122390Y0183433D01*
X0121637Y0182680D01*
X0121637Y0179670D01*
X0126713Y0178917D02*
X0126713Y0181928D01*
X0127465Y0181928D01*
X0128218Y0181175D01*
X0128970Y0181928D01*
X0129723Y0181175D01*
X0129723Y0178917D01*
X0128218Y0178917D02*
X0128218Y0181175D01*
X0131788Y0181928D02*
X0134046Y0181928D01*
X0134798Y0181175D01*
X0134798Y0179670D01*
X0134046Y0178917D01*
X0131788Y0178917D01*
X0131788Y0183433D01*
X0136863Y0183433D02*
X0136863Y0178917D01*
X0136863Y0181175D02*
X0139873Y0181175D01*
X0139873Y0183433D02*
X0139873Y0178917D01*
X0108003Y0191650D02*
X0104993Y0191650D01*
X0106498Y0191650D02*
X0106498Y0196165D01*
X0104993Y0194660D01*
X0102928Y0194660D02*
X0101423Y0191650D01*
X0099917Y0194660D01*
X0084046Y0181928D02*
X0084046Y0178165D01*
X0083294Y0177412D01*
X0082541Y0177412D01*
X0082448Y0175165D02*
X0080943Y0175165D01*
X0080190Y0174413D01*
X0080190Y0171402D01*
X0078125Y0174413D02*
X0077373Y0175165D01*
X0075867Y0175165D01*
X0082448Y0175165D02*
X0083200Y0174413D01*
X0046828Y0193907D02*
X0046076Y0193155D01*
X0043818Y0193155D01*
X0043818Y0191650D02*
X0043818Y0196165D01*
X0046076Y0196165D01*
X0046828Y0195413D01*
X0046828Y0193907D01*
X0041753Y0196165D02*
X0038743Y0196165D01*
X0038743Y0191650D01*
X0036678Y0192402D02*
X0036678Y0193155D01*
X0035925Y0193907D01*
X0034420Y0193907D01*
X0033667Y0194660D01*
X0033667Y0195413D01*
X0034420Y0196165D01*
X0035925Y0196165D01*
X0036678Y0195413D01*
X0038743Y0193907D02*
X0040248Y0193907D01*
X0036678Y0192402D02*
X0035925Y0191650D01*
X0034420Y0191650D01*
X0033667Y0192402D01*
X0035173Y0183433D02*
X0033667Y0181928D01*
X0033667Y0180423D01*
X0035173Y0178917D01*
X0033667Y0175165D02*
X0033667Y0170650D01*
X0042879Y0173660D02*
X0045136Y0173660D01*
D11*
X0046976Y0206075D02*
X0048285Y0207384D01*
X0048285Y0210003D01*
X0045667Y0210003D02*
X0045667Y0207384D01*
X0046976Y0206075D01*
X0043935Y0206730D02*
X0043280Y0206075D01*
X0041971Y0206075D01*
X0041316Y0206730D01*
X0041316Y0208039D02*
X0042626Y0208694D01*
X0043280Y0208694D01*
X0043935Y0208039D01*
X0043935Y0206730D01*
X0041316Y0208039D02*
X0041316Y0210003D01*
X0043935Y0210003D01*
X0054367Y0210003D02*
X0054367Y0206075D01*
X0056331Y0206075D01*
X0056985Y0206730D01*
X0056985Y0209348D01*
X0056331Y0210003D01*
X0054367Y0210003D01*
X0058717Y0209348D02*
X0058717Y0206730D01*
X0059372Y0206075D01*
X0060681Y0206075D01*
X0061336Y0206730D01*
X0061336Y0209348D02*
X0060681Y0210003D01*
X0059372Y0210003D01*
X0058717Y0209348D01*
X0058856Y0217884D02*
X0061475Y0217884D01*
X0060166Y0217884D02*
X0060166Y0221812D01*
X0058856Y0220502D01*
X0057125Y0221812D02*
X0055815Y0221812D01*
X0056470Y0221812D02*
X0056470Y0218538D01*
X0055815Y0217884D01*
X0055161Y0217884D01*
X0054506Y0218538D01*
X0120617Y0196253D02*
X0120617Y0192325D01*
X0122581Y0192325D01*
X0123235Y0192980D01*
X0123235Y0195598D01*
X0122581Y0196253D01*
X0120617Y0196253D01*
X0124967Y0195598D02*
X0125622Y0196253D01*
X0126931Y0196253D01*
X0127586Y0195598D01*
X0127586Y0194944D01*
X0124967Y0192325D01*
X0127586Y0192325D01*
X0122618Y0202251D02*
X0122618Y0230942D01*
X0124406Y0230942D01*
X0135217Y0230942D01*
X0135217Y0202251D01*
X0122618Y0202251D01*
X0125917Y0215650D02*
X0128917Y0218650D01*
X0125917Y0218650D01*
X0128917Y0218650D02*
X0131917Y0218650D01*
X0128917Y0218650D02*
X0131917Y0215650D01*
X0125917Y0215650D01*
X0144717Y0215384D02*
X0146026Y0214075D01*
X0147335Y0215384D01*
X0147335Y0218003D01*
X0149067Y0216694D02*
X0149722Y0216694D01*
X0149722Y0214075D01*
X0150376Y0214075D02*
X0149067Y0214075D01*
X0151967Y0214075D02*
X0151967Y0216694D01*
X0153931Y0216694D01*
X0154586Y0216039D01*
X0154586Y0214075D01*
X0157667Y0212900D02*
X0157667Y0217900D01*
X0160167Y0220400D01*
X0165167Y0220400D01*
X0167667Y0217900D01*
X0167667Y0212900D01*
X0165167Y0210400D01*
X0167667Y0207900D01*
X0167667Y0202900D01*
X0165167Y0200400D01*
X0167667Y0197900D01*
X0167667Y0192900D01*
X0165167Y0190400D01*
X0167667Y0187900D01*
X0167667Y0182900D01*
X0165167Y0180400D01*
X0160167Y0180400D01*
X0157667Y0182900D01*
X0157667Y0187900D01*
X0160167Y0190400D01*
X0157667Y0192900D01*
X0157667Y0197900D01*
X0160167Y0200400D01*
X0157667Y0202900D01*
X0157667Y0207900D01*
X0160167Y0210400D01*
X0157667Y0212900D01*
X0153931Y0208003D02*
X0151967Y0208003D01*
X0151967Y0204075D01*
X0153931Y0204075D01*
X0154586Y0204730D01*
X0154586Y0207348D01*
X0153931Y0208003D01*
X0150235Y0208003D02*
X0150235Y0204075D01*
X0147617Y0208003D01*
X0147617Y0204075D01*
X0145885Y0204730D02*
X0145885Y0206039D01*
X0144576Y0206039D01*
X0143267Y0204730D02*
X0143921Y0204075D01*
X0145231Y0204075D01*
X0145885Y0204730D01*
X0143267Y0204730D02*
X0143267Y0207348D01*
X0143921Y0208003D01*
X0145231Y0208003D01*
X0145885Y0207348D01*
X0144717Y0215384D02*
X0144717Y0218003D01*
X0149722Y0218003D02*
X0149722Y0218658D01*
X0151517Y0220500D02*
X0154136Y0224427D01*
X0155867Y0223773D02*
X0156522Y0224427D01*
X0157831Y0224427D01*
X0158486Y0223773D01*
X0158486Y0223118D01*
X0157831Y0222463D01*
X0158486Y0221809D01*
X0158486Y0221154D01*
X0157831Y0220500D01*
X0156522Y0220500D01*
X0155867Y0221154D01*
X0154136Y0220500D02*
X0151517Y0224427D01*
X0157177Y0222463D02*
X0157831Y0222463D01*
X0161230Y0226886D02*
X0169104Y0226886D01*
X0169104Y0245783D01*
X0161230Y0245783D01*
X0161230Y0226886D01*
X0165617Y0224348D02*
X0165617Y0221730D01*
X0166272Y0221075D01*
X0167581Y0221075D01*
X0168235Y0221730D01*
X0169967Y0221730D02*
X0169967Y0222384D01*
X0170622Y0223039D01*
X0171931Y0223039D01*
X0172586Y0222384D01*
X0172586Y0221730D01*
X0171931Y0221075D01*
X0170622Y0221075D01*
X0169967Y0221730D01*
X0170622Y0223039D02*
X0169967Y0223694D01*
X0169967Y0224348D01*
X0170622Y0225003D01*
X0171931Y0225003D01*
X0172586Y0224348D01*
X0172586Y0223694D01*
X0171931Y0223039D01*
X0175167Y0220900D02*
X0180167Y0220900D01*
X0180167Y0232400D01*
X0175167Y0232400D01*
X0175167Y0220900D01*
X0168235Y0224348D02*
X0167581Y0225003D01*
X0166272Y0225003D01*
X0165617Y0224348D01*
X0151960Y0235350D02*
X0123269Y0235350D01*
X0123269Y0247949D01*
X0151960Y0247949D01*
X0151960Y0246161D01*
X0151960Y0235350D01*
X0139667Y0238650D02*
X0139667Y0241650D01*
X0139667Y0244650D01*
X0136667Y0244650D02*
X0139667Y0241650D01*
X0136667Y0238650D01*
X0136667Y0244650D01*
X0137531Y0250800D02*
X0138186Y0251454D01*
X0138186Y0254073D01*
X0137531Y0254727D01*
X0135567Y0254727D01*
X0135567Y0250800D01*
X0137531Y0250800D01*
X0139917Y0250800D02*
X0142536Y0250800D01*
X0141227Y0250800D02*
X0141227Y0254727D01*
X0139917Y0253418D01*
X0161817Y0252008D02*
X0161817Y0249389D01*
X0162472Y0248735D01*
X0163781Y0248735D01*
X0164436Y0249389D01*
X0166167Y0249389D02*
X0166822Y0248735D01*
X0168131Y0248735D01*
X0168786Y0249389D01*
X0168786Y0250044D01*
X0168131Y0250699D01*
X0167477Y0250699D01*
X0168131Y0250699D02*
X0168786Y0251353D01*
X0168786Y0252008D01*
X0168131Y0252662D01*
X0166822Y0252662D01*
X0166167Y0252008D01*
X0164436Y0252008D02*
X0163781Y0252662D01*
X0162472Y0252662D01*
X0161817Y0252008D01*
X0175167Y0252090D02*
X0175167Y0240590D01*
X0180167Y0240590D01*
X0180167Y0252090D01*
X0175167Y0252090D01*
X0182752Y0251573D02*
X0182752Y0248954D01*
X0183407Y0248300D01*
X0184716Y0248300D01*
X0185371Y0248954D01*
X0187103Y0250263D02*
X0189721Y0250263D01*
X0189066Y0248300D02*
X0189066Y0252227D01*
X0187103Y0250263D01*
X0185371Y0251573D02*
X0184716Y0252227D01*
X0183407Y0252227D01*
X0182752Y0251573D01*
X0194417Y0245800D02*
X0208417Y0245800D01*
X0208417Y0220000D01*
X0194417Y0220000D01*
X0194417Y0245800D01*
X0198067Y0249154D02*
X0198722Y0248500D01*
X0200031Y0248500D01*
X0200686Y0249154D01*
X0200686Y0252427D01*
X0202417Y0251118D02*
X0203727Y0252427D01*
X0203727Y0248500D01*
X0205036Y0248500D02*
X0202417Y0248500D01*
X0198067Y0249154D02*
X0198067Y0252427D01*
X0252090Y0212719D02*
X0256017Y0212719D01*
X0252090Y0210100D01*
X0256017Y0210100D01*
X0256672Y0208368D02*
X0256672Y0205750D01*
X0255363Y0204018D02*
X0252744Y0204018D01*
X0252090Y0203364D01*
X0252090Y0201400D01*
X0256017Y0201400D01*
X0256017Y0203364D01*
X0255363Y0204018D01*
X0252090Y0199668D02*
X0252090Y0197050D01*
X0252090Y0198359D02*
X0256017Y0198359D01*
X0260617Y0196253D02*
X0263235Y0192325D01*
X0260617Y0192325D02*
X0263235Y0196253D01*
X0264967Y0194289D02*
X0267586Y0194289D01*
X0266931Y0192325D02*
X0266931Y0196253D01*
X0264967Y0194289D01*
X0256017Y0185100D02*
X0252090Y0185100D01*
X0252090Y0187064D01*
X0252744Y0187719D01*
X0254053Y0187719D01*
X0254708Y0187064D01*
X0254708Y0185100D01*
X0256672Y0183368D02*
X0256672Y0180750D01*
X0255363Y0179018D02*
X0252744Y0179018D01*
X0252090Y0178364D01*
X0252090Y0176400D01*
X0256017Y0176400D01*
X0256017Y0178364D01*
X0255363Y0179018D01*
X0252090Y0174668D02*
X0252090Y0172050D01*
X0252090Y0173359D02*
X0256017Y0173359D01*
X0231017Y0173919D02*
X0227090Y0173919D01*
X0228399Y0172610D01*
X0227090Y0171300D01*
X0231017Y0171300D01*
X0230363Y0169569D02*
X0231017Y0168914D01*
X0231017Y0167605D01*
X0230363Y0166950D01*
X0229053Y0167605D02*
X0229053Y0168914D01*
X0229708Y0169569D01*
X0230363Y0169569D01*
X0229053Y0167605D02*
X0228399Y0166950D01*
X0227744Y0166950D01*
X0227090Y0167605D01*
X0227090Y0168914D01*
X0227744Y0169569D01*
X0227090Y0165219D02*
X0231017Y0165219D01*
X0227090Y0162600D01*
X0231017Y0162600D01*
X0231017Y0160868D02*
X0228399Y0160868D01*
X0227090Y0159559D01*
X0228399Y0158250D01*
X0231017Y0158250D01*
X0231017Y0156518D02*
X0229708Y0155209D01*
X0229708Y0155864D02*
X0229708Y0153900D01*
X0231017Y0153900D02*
X0227090Y0153900D01*
X0227090Y0155864D01*
X0227744Y0156518D01*
X0229053Y0156518D01*
X0229708Y0155864D01*
X0229053Y0158250D02*
X0229053Y0160868D01*
X0227090Y0152168D02*
X0227090Y0149550D01*
X0227090Y0150859D02*
X0231017Y0150859D01*
X0222854Y0141098D02*
X0214980Y0141098D01*
X0214980Y0122201D01*
X0222854Y0122201D01*
X0222854Y0141098D01*
X0224911Y0137949D02*
X0230423Y0137949D01*
X0230423Y0125350D01*
X0224911Y0125350D01*
X0224911Y0137949D01*
X0234590Y0134614D02*
X0234590Y0133304D01*
X0235244Y0132650D01*
X0235244Y0130918D02*
X0234590Y0130263D01*
X0234590Y0128954D01*
X0235244Y0128300D01*
X0237863Y0128300D01*
X0238517Y0128954D01*
X0238517Y0130263D01*
X0237863Y0130918D01*
X0238517Y0132650D02*
X0235899Y0135268D01*
X0235244Y0135268D01*
X0234590Y0134614D01*
X0238517Y0135268D02*
X0238517Y0132650D01*
X0240090Y0133959D02*
X0244017Y0133959D01*
X0244017Y0132650D02*
X0244017Y0135268D01*
X0245421Y0134304D02*
X0249349Y0134304D01*
X0249349Y0135613D02*
X0249349Y0132994D01*
X0249349Y0131263D02*
X0249349Y0128644D01*
X0245421Y0128644D01*
X0244017Y0128954D02*
X0244017Y0130263D01*
X0243363Y0130918D01*
X0244017Y0128954D02*
X0243363Y0128300D01*
X0240744Y0128300D01*
X0240090Y0128954D01*
X0240090Y0130263D01*
X0240744Y0130918D01*
X0241399Y0132650D02*
X0240090Y0133959D01*
X0245421Y0134304D02*
X0246731Y0132994D01*
X0260617Y0132325D02*
X0263235Y0136253D01*
X0264967Y0136253D02*
X0264967Y0134289D01*
X0266276Y0134944D01*
X0266931Y0134944D01*
X0267586Y0134289D01*
X0267586Y0132980D01*
X0266931Y0132325D01*
X0265622Y0132325D01*
X0264967Y0132980D01*
X0263235Y0132325D02*
X0260617Y0136253D01*
X0264967Y0136253D02*
X0267586Y0136253D01*
X0231017Y0111819D02*
X0231017Y0109201D01*
X0227090Y0109201D01*
X0227090Y0111819D01*
X0229053Y0110510D02*
X0229053Y0109201D01*
X0229708Y0107469D02*
X0227090Y0107469D01*
X0229708Y0107469D02*
X0231017Y0106160D01*
X0229708Y0104850D01*
X0227090Y0104850D01*
X0227090Y0103260D02*
X0227090Y0101950D01*
X0227090Y0102605D02*
X0231017Y0102605D01*
X0231017Y0101950D02*
X0231017Y0103260D01*
X0231017Y0100219D02*
X0231017Y0097600D01*
X0227090Y0097600D01*
X0227090Y0100219D01*
X0229053Y0098909D02*
X0229053Y0097600D01*
X0227744Y0095868D02*
X0227090Y0095214D01*
X0227090Y0093905D01*
X0227744Y0093250D01*
X0230363Y0093250D01*
X0231017Y0093905D01*
X0231017Y0095214D01*
X0230363Y0095868D01*
X0231017Y0091518D02*
X0231017Y0088900D01*
X0227090Y0088900D01*
X0227090Y0091518D01*
X0229053Y0090209D02*
X0229053Y0088900D01*
X0229053Y0087168D02*
X0229708Y0086513D01*
X0229708Y0084550D01*
X0229708Y0085859D02*
X0231017Y0087168D01*
X0229053Y0087168D02*
X0227744Y0087168D01*
X0227090Y0086513D01*
X0227090Y0084550D01*
X0231017Y0084550D01*
X0252090Y0083364D02*
X0252090Y0081400D01*
X0256017Y0081400D01*
X0256017Y0083364D01*
X0255363Y0084018D01*
X0252744Y0084018D01*
X0252090Y0083364D01*
X0252744Y0079668D02*
X0254053Y0079668D01*
X0254708Y0079013D01*
X0254708Y0077050D01*
X0254708Y0078359D02*
X0256017Y0079668D01*
X0256017Y0077050D02*
X0252090Y0077050D01*
X0252090Y0079013D01*
X0252744Y0079668D01*
X0256672Y0085750D02*
X0256672Y0088368D01*
X0256017Y0090100D02*
X0252090Y0090100D01*
X0252090Y0092064D01*
X0252744Y0092719D01*
X0254053Y0092719D01*
X0254708Y0092064D01*
X0254708Y0090100D01*
X0260617Y0075003D02*
X0263235Y0071075D01*
X0264967Y0071075D02*
X0264967Y0071730D01*
X0267586Y0074348D01*
X0267586Y0075003D01*
X0264967Y0075003D01*
X0263235Y0075003D02*
X0260617Y0071075D01*
X0256017Y0066469D02*
X0252090Y0066469D01*
X0252090Y0063850D02*
X0256017Y0066469D01*
X0256017Y0063850D02*
X0252090Y0063850D01*
X0256672Y0062118D02*
X0256672Y0059500D01*
X0255363Y0057768D02*
X0252744Y0057768D01*
X0252090Y0057114D01*
X0252090Y0055150D01*
X0256017Y0055150D01*
X0256017Y0057114D01*
X0255363Y0057768D01*
X0256017Y0053418D02*
X0254708Y0052109D01*
X0254708Y0052763D02*
X0254708Y0050800D01*
X0256017Y0050800D02*
X0252090Y0050800D01*
X0252090Y0052763D01*
X0252744Y0053418D01*
X0254053Y0053418D01*
X0254708Y0052763D01*
X0260617Y0016253D02*
X0263235Y0012325D01*
X0264967Y0012980D02*
X0264967Y0014289D01*
X0266931Y0014289D01*
X0267586Y0013634D01*
X0267586Y0012980D01*
X0266931Y0012325D01*
X0265622Y0012325D01*
X0264967Y0012980D01*
X0264967Y0014289D02*
X0266276Y0015598D01*
X0267586Y0016253D01*
X0263235Y0016253D02*
X0260617Y0012325D01*
X0185167Y0064150D02*
X0185167Y0069150D01*
X0182667Y0071650D01*
X0177667Y0071650D01*
X0175167Y0069150D01*
X0172667Y0071650D01*
X0167667Y0071650D01*
X0165167Y0069150D01*
X0162667Y0071650D01*
X0157667Y0071650D01*
X0155167Y0069150D01*
X0152667Y0071650D01*
X0147667Y0071650D01*
X0145167Y0069150D01*
X0142667Y0071650D01*
X0137667Y0071650D01*
X0135167Y0069150D01*
X0132667Y0071650D01*
X0127667Y0071650D01*
X0125167Y0069150D01*
X0122667Y0071650D01*
X0117667Y0071650D01*
X0115167Y0069150D01*
X0112667Y0071650D01*
X0107667Y0071650D01*
X0105167Y0069150D01*
X0102667Y0071650D01*
X0097667Y0071650D01*
X0095167Y0069150D01*
X0092667Y0071650D01*
X0087667Y0071650D01*
X0085167Y0069150D01*
X0085167Y0064150D01*
X0087667Y0061650D01*
X0092667Y0061650D01*
X0095167Y0064150D01*
X0097667Y0061650D01*
X0102667Y0061650D01*
X0105167Y0064150D01*
X0107667Y0061650D01*
X0112667Y0061650D01*
X0115167Y0064150D01*
X0117667Y0061650D01*
X0122667Y0061650D01*
X0125167Y0064150D01*
X0127667Y0061650D01*
X0132667Y0061650D01*
X0135167Y0064150D01*
X0135167Y0069150D01*
X0135167Y0064150D01*
X0137667Y0061650D01*
X0142667Y0061650D01*
X0145167Y0064150D01*
X0147667Y0061650D01*
X0152667Y0061650D01*
X0155167Y0064150D01*
X0157667Y0061650D01*
X0162667Y0061650D01*
X0165167Y0064150D01*
X0167667Y0061650D01*
X0172667Y0061650D01*
X0175167Y0064150D01*
X0177667Y0061650D01*
X0182667Y0061650D01*
X0185167Y0064150D01*
X0181337Y0056568D02*
X0181992Y0055913D01*
X0181992Y0054604D01*
X0181337Y0053949D01*
X0180682Y0052218D02*
X0178064Y0052218D01*
X0178719Y0053949D02*
X0178064Y0054604D01*
X0178064Y0055913D01*
X0178719Y0056568D01*
X0179373Y0056568D01*
X0180028Y0055913D01*
X0180682Y0056568D01*
X0181337Y0056568D01*
X0180028Y0055913D02*
X0180028Y0055259D01*
X0180682Y0052218D02*
X0181992Y0050909D01*
X0180682Y0049599D01*
X0178064Y0049599D01*
X0178719Y0047868D02*
X0179373Y0047868D01*
X0180028Y0047213D01*
X0180682Y0047868D01*
X0181337Y0047868D01*
X0181992Y0047213D01*
X0181992Y0045904D01*
X0181337Y0045249D01*
X0180028Y0046558D02*
X0180028Y0047213D01*
X0178719Y0047868D02*
X0178064Y0047213D01*
X0178064Y0045904D01*
X0178719Y0045249D01*
X0182646Y0043517D02*
X0182646Y0040899D01*
X0181337Y0039167D02*
X0181992Y0038513D01*
X0181992Y0037203D01*
X0181337Y0036549D01*
X0178719Y0036549D01*
X0178064Y0037203D01*
X0178064Y0038513D01*
X0178719Y0039167D01*
X0178719Y0034817D02*
X0178064Y0034162D01*
X0178064Y0032853D01*
X0178719Y0032199D01*
X0181337Y0032199D01*
X0181992Y0032853D01*
X0181992Y0034162D01*
X0181337Y0034817D01*
X0180682Y0030467D02*
X0178064Y0030467D01*
X0180682Y0030467D02*
X0181992Y0029158D01*
X0180682Y0027848D01*
X0178064Y0027848D01*
X0171992Y0027848D02*
X0171992Y0030467D01*
X0171992Y0032199D02*
X0168064Y0032199D01*
X0168064Y0034817D01*
X0168719Y0036549D02*
X0168064Y0037203D01*
X0168064Y0038513D01*
X0168719Y0039167D01*
X0169373Y0039167D01*
X0171992Y0036549D01*
X0171992Y0039167D01*
X0171992Y0040899D02*
X0168064Y0043517D01*
X0168719Y0045249D02*
X0169373Y0045249D01*
X0170028Y0045904D01*
X0170028Y0047213D01*
X0170682Y0047868D01*
X0171337Y0047868D01*
X0171992Y0047213D01*
X0171992Y0045904D01*
X0171337Y0045249D01*
X0168719Y0045249D02*
X0168064Y0045904D01*
X0168064Y0047213D01*
X0168719Y0047868D01*
X0168064Y0049599D02*
X0168064Y0051563D01*
X0168719Y0052218D01*
X0171337Y0052218D01*
X0171992Y0051563D01*
X0171992Y0049599D01*
X0168064Y0049599D01*
X0169373Y0053949D02*
X0168064Y0055259D01*
X0169373Y0056568D01*
X0171992Y0056568D01*
X0170028Y0056568D02*
X0170028Y0053949D01*
X0169373Y0053949D02*
X0171992Y0053949D01*
X0161992Y0053949D02*
X0161992Y0056568D01*
X0161992Y0053949D02*
X0158064Y0053949D01*
X0158719Y0052218D02*
X0158064Y0051563D01*
X0158064Y0050254D01*
X0158719Y0049599D01*
X0161337Y0049599D01*
X0161992Y0050254D01*
X0161992Y0051563D01*
X0161337Y0052218D01*
X0161337Y0047868D02*
X0160682Y0047868D01*
X0160028Y0047213D01*
X0160028Y0045904D01*
X0159373Y0045249D01*
X0158719Y0045249D01*
X0158064Y0045904D01*
X0158064Y0047213D01*
X0158719Y0047868D01*
X0161337Y0047868D02*
X0161992Y0047213D01*
X0161992Y0045904D01*
X0161337Y0045249D01*
X0158064Y0043517D02*
X0161992Y0040899D01*
X0161992Y0039167D02*
X0161992Y0036549D01*
X0161992Y0037858D02*
X0158064Y0037858D01*
X0159373Y0036549D01*
X0158064Y0034817D02*
X0158064Y0032199D01*
X0161992Y0032199D01*
X0161992Y0030467D02*
X0161992Y0027848D01*
X0158064Y0027848D01*
X0158064Y0030467D01*
X0160028Y0029158D02*
X0160028Y0027848D01*
X0161337Y0026117D02*
X0158719Y0026117D01*
X0158064Y0025462D01*
X0158064Y0023498D01*
X0161992Y0023498D01*
X0161992Y0025462D01*
X0161337Y0026117D01*
X0162646Y0021767D02*
X0162646Y0019148D01*
X0161337Y0017416D02*
X0158719Y0017416D01*
X0158064Y0016762D01*
X0158064Y0014798D01*
X0161992Y0014798D01*
X0161992Y0016762D01*
X0161337Y0017416D01*
X0161337Y0013066D02*
X0158719Y0013066D01*
X0158064Y0012412D01*
X0158064Y0011102D01*
X0158719Y0010448D01*
X0161337Y0010448D01*
X0161992Y0011102D01*
X0161992Y0012412D01*
X0161337Y0013066D01*
X0161992Y0008716D02*
X0158064Y0008716D01*
X0159373Y0007407D01*
X0158064Y0006098D01*
X0161992Y0006098D01*
X0168064Y0006098D02*
X0169373Y0007407D01*
X0168064Y0008716D01*
X0171992Y0008716D01*
X0171337Y0010448D02*
X0171992Y0011102D01*
X0171992Y0012412D01*
X0171337Y0013066D01*
X0168719Y0013066D01*
X0168064Y0012412D01*
X0168064Y0011102D01*
X0168719Y0010448D01*
X0171337Y0010448D01*
X0171992Y0006098D02*
X0168064Y0006098D01*
X0168064Y0014798D02*
X0168064Y0016762D01*
X0168719Y0017416D01*
X0171337Y0017416D01*
X0171992Y0016762D01*
X0171992Y0014798D01*
X0168064Y0014798D01*
X0172646Y0019148D02*
X0172646Y0021767D01*
X0171992Y0023498D02*
X0171992Y0025462D01*
X0171337Y0026117D01*
X0168719Y0026117D01*
X0168064Y0025462D01*
X0168064Y0023498D01*
X0171992Y0023498D01*
X0171992Y0027848D02*
X0168064Y0027848D01*
X0168064Y0030467D01*
X0170028Y0029158D02*
X0170028Y0027848D01*
X0170028Y0032199D02*
X0170028Y0033508D01*
X0160028Y0033508D02*
X0160028Y0032199D01*
X0151992Y0032199D02*
X0148064Y0032199D01*
X0148064Y0034817D01*
X0148719Y0036549D02*
X0148064Y0037203D01*
X0148064Y0038513D01*
X0148719Y0039167D01*
X0151337Y0036549D01*
X0151992Y0037203D01*
X0151992Y0038513D01*
X0151337Y0039167D01*
X0148719Y0039167D01*
X0148719Y0036549D02*
X0151337Y0036549D01*
X0150028Y0033508D02*
X0150028Y0032199D01*
X0151992Y0030467D02*
X0151992Y0027848D01*
X0148064Y0027848D01*
X0148064Y0030467D01*
X0150028Y0029158D02*
X0150028Y0027848D01*
X0151337Y0026117D02*
X0148719Y0026117D01*
X0148064Y0025462D01*
X0148064Y0023498D01*
X0151992Y0023498D01*
X0151992Y0025462D01*
X0151337Y0026117D01*
X0152646Y0021767D02*
X0152646Y0019148D01*
X0151337Y0017416D02*
X0148719Y0017416D01*
X0148064Y0016762D01*
X0148064Y0014798D01*
X0151992Y0014798D01*
X0151992Y0016762D01*
X0151337Y0017416D01*
X0151337Y0013066D02*
X0148719Y0013066D01*
X0148064Y0012412D01*
X0148064Y0011102D01*
X0148719Y0010448D01*
X0151337Y0010448D01*
X0151992Y0011102D01*
X0151992Y0012412D01*
X0151337Y0013066D01*
X0151992Y0008716D02*
X0148064Y0008716D01*
X0149373Y0007407D01*
X0148064Y0006098D01*
X0151992Y0006098D01*
X0121992Y0023498D02*
X0118064Y0023498D01*
X0118064Y0025462D01*
X0118719Y0026117D01*
X0120028Y0026117D01*
X0120682Y0025462D01*
X0120682Y0023498D01*
X0120682Y0024807D02*
X0121992Y0026117D01*
X0121992Y0027848D02*
X0119373Y0027848D01*
X0118064Y0029158D01*
X0119373Y0030467D01*
X0121992Y0030467D01*
X0120028Y0030467D02*
X0120028Y0027848D01*
X0118064Y0032199D02*
X0118064Y0034817D01*
X0118064Y0033508D02*
X0121992Y0033508D01*
X0121992Y0036549D02*
X0118064Y0036549D01*
X0118064Y0039167D01*
X0120028Y0037858D02*
X0120028Y0036549D01*
X0121992Y0036549D02*
X0121992Y0039167D01*
X0122646Y0040899D02*
X0122646Y0043517D01*
X0121337Y0045249D02*
X0121992Y0045904D01*
X0121992Y0047213D01*
X0121337Y0047868D01*
X0120682Y0047868D01*
X0120028Y0047213D01*
X0120028Y0045904D01*
X0119373Y0045249D01*
X0118719Y0045249D01*
X0118064Y0045904D01*
X0118064Y0047213D01*
X0118719Y0047868D01*
X0118064Y0049599D02*
X0121992Y0049599D01*
X0121992Y0052218D01*
X0121992Y0053949D02*
X0121992Y0056568D01*
X0121992Y0053949D02*
X0118064Y0053949D01*
X0118064Y0052218D02*
X0118064Y0049599D01*
X0120028Y0049599D02*
X0120028Y0050909D01*
X0128064Y0051563D02*
X0128064Y0050254D01*
X0128719Y0049599D01*
X0131337Y0049599D01*
X0131992Y0050254D01*
X0131992Y0051563D01*
X0131337Y0052218D01*
X0128719Y0052218D01*
X0128064Y0051563D01*
X0128719Y0053949D02*
X0129373Y0053949D01*
X0130028Y0054604D01*
X0130028Y0055913D01*
X0130682Y0056568D01*
X0131337Y0056568D01*
X0131992Y0055913D01*
X0131992Y0054604D01*
X0131337Y0053949D01*
X0128719Y0053949D02*
X0128064Y0054604D01*
X0128064Y0055913D01*
X0128719Y0056568D01*
X0131992Y0047868D02*
X0131992Y0045249D01*
X0128064Y0045249D01*
X0138064Y0045904D02*
X0138719Y0045249D01*
X0141337Y0045249D01*
X0141992Y0045904D01*
X0141992Y0047213D01*
X0141337Y0047868D01*
X0140028Y0047868D01*
X0140028Y0046558D01*
X0138719Y0047868D02*
X0138064Y0047213D01*
X0138064Y0045904D01*
X0138064Y0049599D02*
X0141992Y0052218D01*
X0138064Y0052218D01*
X0138064Y0053949D02*
X0138064Y0055913D01*
X0138719Y0056568D01*
X0141337Y0056568D01*
X0141992Y0055913D01*
X0141992Y0053949D01*
X0138064Y0053949D01*
X0138064Y0049599D02*
X0141992Y0049599D01*
X0148064Y0049599D02*
X0151992Y0052218D01*
X0148064Y0052218D01*
X0148064Y0053949D02*
X0148064Y0055913D01*
X0148719Y0056568D01*
X0151337Y0056568D01*
X0151992Y0055913D01*
X0151992Y0053949D01*
X0148064Y0053949D01*
X0148064Y0049599D02*
X0151992Y0049599D01*
X0151337Y0047868D02*
X0150028Y0047868D01*
X0150028Y0046558D01*
X0151337Y0045249D02*
X0151992Y0045904D01*
X0151992Y0047213D01*
X0151337Y0047868D01*
X0148719Y0047868D02*
X0148064Y0047213D01*
X0148064Y0045904D01*
X0148719Y0045249D01*
X0151337Y0045249D01*
X0148064Y0043517D02*
X0151992Y0040899D01*
X0142236Y0074250D02*
X0139617Y0074250D01*
X0140927Y0074250D02*
X0140927Y0078177D01*
X0139617Y0076868D01*
X0137886Y0078177D02*
X0135267Y0074250D01*
X0137886Y0074250D02*
X0135267Y0078177D01*
X0132667Y0078400D02*
X0127667Y0078400D01*
X0127667Y0089900D01*
X0132667Y0089900D01*
X0132667Y0078400D01*
X0139367Y0079825D02*
X0139367Y0083753D01*
X0141331Y0083753D01*
X0141985Y0083098D01*
X0141985Y0081789D01*
X0141331Y0081134D01*
X0139367Y0081134D01*
X0140676Y0081134D02*
X0141985Y0079825D01*
X0143717Y0080480D02*
X0144372Y0079825D01*
X0145681Y0079825D01*
X0146336Y0080480D01*
X0146336Y0081134D01*
X0145681Y0081789D01*
X0145026Y0081789D01*
X0145681Y0081789D02*
X0146336Y0082444D01*
X0146336Y0083098D01*
X0145681Y0083753D01*
X0144372Y0083753D01*
X0143717Y0083098D01*
X0147667Y0078400D02*
X0152667Y0078400D01*
X0152667Y0089900D01*
X0147667Y0089900D01*
X0147667Y0078400D01*
X0157667Y0078400D02*
X0162667Y0078400D01*
X0162667Y0089900D01*
X0157667Y0089900D01*
X0157667Y0078400D01*
X0167667Y0078400D02*
X0172667Y0078400D01*
X0172667Y0089900D01*
X0167667Y0089900D01*
X0167667Y0078400D01*
X0175567Y0079550D02*
X0175567Y0083477D01*
X0177531Y0083477D01*
X0178186Y0082823D01*
X0178186Y0081513D01*
X0177531Y0080859D01*
X0175567Y0080859D01*
X0176877Y0080859D02*
X0178186Y0079550D01*
X0179917Y0079550D02*
X0182536Y0079550D01*
X0181227Y0079550D02*
X0181227Y0083477D01*
X0179917Y0082168D01*
X0163786Y0092050D02*
X0161167Y0092050D01*
X0163786Y0094668D01*
X0163786Y0095323D01*
X0163131Y0095977D01*
X0161822Y0095977D01*
X0161167Y0095323D01*
X0159436Y0095323D02*
X0159436Y0094013D01*
X0158781Y0093359D01*
X0156817Y0093359D01*
X0156817Y0092050D02*
X0156817Y0095977D01*
X0158781Y0095977D01*
X0159436Y0095323D01*
X0158127Y0093359D02*
X0159436Y0092050D01*
X0125086Y0083753D02*
X0122467Y0083753D01*
X0122467Y0081789D01*
X0123776Y0082444D01*
X0124431Y0082444D01*
X0125086Y0081789D01*
X0125086Y0080480D01*
X0124431Y0079825D01*
X0123122Y0079825D01*
X0122467Y0080480D01*
X0120735Y0079825D02*
X0119426Y0081134D01*
X0120081Y0081134D02*
X0118117Y0081134D01*
X0118117Y0079825D02*
X0118117Y0083753D01*
X0120081Y0083753D01*
X0120735Y0083098D01*
X0120735Y0081789D01*
X0120081Y0081134D01*
X0102667Y0078400D02*
X0097667Y0078400D01*
X0097667Y0089900D01*
X0102667Y0089900D01*
X0102667Y0078400D01*
X0095086Y0081789D02*
X0092467Y0081789D01*
X0094431Y0083753D01*
X0094431Y0079825D01*
X0090735Y0079825D02*
X0089426Y0081134D01*
X0090081Y0081134D02*
X0088117Y0081134D01*
X0088117Y0079825D02*
X0088117Y0083753D01*
X0090081Y0083753D01*
X0090735Y0083098D01*
X0090735Y0081789D01*
X0090081Y0081134D01*
X0087831Y0076927D02*
X0086522Y0076927D01*
X0085867Y0076273D01*
X0084136Y0076927D02*
X0081517Y0073000D01*
X0084136Y0073000D02*
X0081517Y0076927D01*
X0077667Y0078400D02*
X0072667Y0078400D01*
X0072667Y0089900D01*
X0077667Y0089900D01*
X0077667Y0078400D01*
X0085867Y0073000D02*
X0088486Y0075618D01*
X0088486Y0076273D01*
X0087831Y0076927D01*
X0088486Y0073000D02*
X0085867Y0073000D01*
X0081832Y0058477D02*
X0080522Y0058477D01*
X0079868Y0057823D01*
X0078136Y0057823D02*
X0077482Y0058477D01*
X0075518Y0058477D01*
X0075518Y0054550D01*
X0077482Y0054550D01*
X0078136Y0055204D01*
X0078136Y0057823D01*
X0079868Y0054550D02*
X0082486Y0057168D01*
X0082486Y0057823D01*
X0081832Y0058477D01*
X0082486Y0054550D02*
X0079868Y0054550D01*
X0073786Y0054550D02*
X0071167Y0054550D01*
X0071167Y0058477D01*
X0073786Y0058477D01*
X0072477Y0056513D02*
X0071167Y0056513D01*
X0069436Y0054550D02*
X0066817Y0054550D01*
X0066817Y0058477D01*
X0066417Y0059650D02*
X0061417Y0059650D01*
X0061417Y0071150D01*
X0066417Y0071150D01*
X0066417Y0059650D01*
X0059492Y0061499D02*
X0055564Y0061499D01*
X0055564Y0063463D01*
X0056219Y0064118D01*
X0057528Y0064118D01*
X0058182Y0063463D01*
X0058182Y0061499D01*
X0058182Y0062808D02*
X0059492Y0064118D01*
X0059492Y0065849D02*
X0059492Y0068468D01*
X0059492Y0067159D02*
X0055564Y0067159D01*
X0056873Y0065849D01*
X0056219Y0070199D02*
X0055564Y0070854D01*
X0055564Y0072163D01*
X0056219Y0072818D01*
X0058837Y0070199D01*
X0059492Y0070854D01*
X0059492Y0072163D01*
X0058837Y0072818D01*
X0056219Y0072818D01*
X0056219Y0070199D02*
X0058837Y0070199D01*
X0052667Y0078400D02*
X0047667Y0078400D01*
X0047667Y0089900D01*
X0052667Y0089900D01*
X0052667Y0078400D01*
X0041417Y0071150D02*
X0036417Y0071150D01*
X0036417Y0059650D01*
X0041417Y0059650D01*
X0041417Y0071150D01*
X0035117Y0070854D02*
X0034462Y0070199D01*
X0035117Y0070854D02*
X0035117Y0072163D01*
X0034462Y0072818D01*
X0031844Y0072818D01*
X0031189Y0072163D01*
X0031189Y0070854D01*
X0031844Y0070199D01*
X0032498Y0070199D01*
X0033153Y0070854D01*
X0033153Y0072818D01*
X0033153Y0068468D02*
X0031844Y0068468D01*
X0031189Y0067813D01*
X0031189Y0065849D01*
X0035117Y0065849D01*
X0033807Y0065849D02*
X0033807Y0067813D01*
X0033153Y0068468D01*
X0033807Y0067159D02*
X0035117Y0068468D01*
X0041817Y0058477D02*
X0041817Y0054550D01*
X0044436Y0054550D01*
X0046167Y0054550D02*
X0046167Y0058477D01*
X0048786Y0058477D01*
X0050518Y0058477D02*
X0052482Y0058477D01*
X0053136Y0057823D01*
X0053136Y0055204D01*
X0052482Y0054550D01*
X0050518Y0054550D01*
X0050518Y0058477D01*
X0047477Y0056513D02*
X0046167Y0056513D01*
X0046167Y0054550D02*
X0048786Y0054550D01*
X0045493Y0050677D02*
X0047344Y0048825D01*
X0046418Y0049751D02*
X0043641Y0046974D01*
X0045791Y0044824D02*
X0050420Y0045749D01*
X0048569Y0047601D02*
X0047643Y0042972D01*
X0048404Y0041285D02*
X0050256Y0039433D01*
X0051943Y0038671D02*
X0054721Y0041449D01*
X0056572Y0039597D01*
X0056871Y0037447D02*
X0058722Y0037447D01*
X0058722Y0035595D01*
X0056871Y0033744D01*
X0058558Y0032982D02*
X0058558Y0032056D01*
X0059484Y0031131D01*
X0060410Y0031131D01*
X0062724Y0033445D01*
X0063949Y0032221D02*
X0061171Y0029443D01*
X0063023Y0027592D01*
X0065173Y0025441D02*
X0067951Y0028219D01*
X0068876Y0027293D02*
X0067025Y0029145D01*
X0060873Y0035297D02*
X0058558Y0032982D01*
X0058260Y0035133D02*
X0056408Y0036984D01*
X0056871Y0037447D02*
X0055019Y0035595D01*
X0054258Y0039134D02*
X0053332Y0040060D01*
X0068233Y0047900D02*
X0070085Y0046048D01*
X0071772Y0045286D02*
X0073623Y0047138D01*
X0074549Y0047138D01*
X0075475Y0046212D01*
X0075475Y0045286D01*
X0073623Y0043435D01*
X0072698Y0043435D01*
X0071772Y0044361D01*
X0071772Y0045286D01*
X0074848Y0042210D02*
X0074848Y0041285D01*
X0075774Y0040359D01*
X0076700Y0040359D01*
X0077162Y0040822D01*
X0077162Y0041748D01*
X0076237Y0042673D01*
X0076237Y0043599D01*
X0076700Y0044062D01*
X0077625Y0044062D01*
X0078551Y0043136D01*
X0078551Y0042210D01*
X0088064Y0042208D02*
X0089373Y0043517D01*
X0091992Y0043517D01*
X0091337Y0045249D02*
X0091992Y0045904D01*
X0091992Y0047213D01*
X0091337Y0047868D01*
X0088064Y0047868D01*
X0088064Y0049599D02*
X0091992Y0049599D01*
X0091992Y0052218D01*
X0091992Y0055259D02*
X0088064Y0055259D01*
X0088064Y0056568D02*
X0088064Y0053949D01*
X0088064Y0045249D02*
X0091337Y0045249D01*
X0090028Y0043517D02*
X0090028Y0040899D01*
X0089373Y0040899D02*
X0088064Y0042208D01*
X0089373Y0040899D02*
X0091992Y0040899D01*
X0088064Y0039167D02*
X0088064Y0036549D01*
X0091992Y0036549D01*
X0092646Y0034817D02*
X0092646Y0032199D01*
X0091992Y0030467D02*
X0088064Y0027848D01*
X0088064Y0026117D02*
X0088064Y0023498D01*
X0088064Y0024807D02*
X0091992Y0024807D01*
X0091992Y0027848D02*
X0088064Y0030467D01*
X0090028Y0036549D02*
X0090028Y0037858D01*
X0098064Y0045904D02*
X0098719Y0045249D01*
X0101337Y0045249D01*
X0101992Y0045904D01*
X0101992Y0047213D01*
X0101337Y0047868D01*
X0100028Y0047868D01*
X0100028Y0046558D01*
X0098719Y0047868D02*
X0098064Y0047213D01*
X0098064Y0045904D01*
X0098064Y0049599D02*
X0101992Y0052218D01*
X0098064Y0052218D01*
X0098064Y0053949D02*
X0098064Y0055913D01*
X0098719Y0056568D01*
X0101337Y0056568D01*
X0101992Y0055913D01*
X0101992Y0053949D01*
X0098064Y0053949D01*
X0098064Y0049599D02*
X0101992Y0049599D01*
X0108064Y0049599D02*
X0111992Y0049599D01*
X0111992Y0052218D01*
X0111992Y0053949D02*
X0111992Y0056568D01*
X0110028Y0055259D02*
X0110028Y0053949D01*
X0108064Y0053949D02*
X0111992Y0053949D01*
X0108064Y0053949D02*
X0108064Y0056568D01*
X0108719Y0047868D02*
X0109373Y0047868D01*
X0110028Y0047213D01*
X0110028Y0045249D01*
X0110028Y0043517D02*
X0110028Y0040899D01*
X0109373Y0040899D02*
X0111992Y0040899D01*
X0111337Y0039167D02*
X0111992Y0038513D01*
X0111992Y0037203D01*
X0111337Y0036549D01*
X0110028Y0037203D02*
X0110028Y0038513D01*
X0110682Y0039167D01*
X0111337Y0039167D01*
X0110028Y0037203D02*
X0109373Y0036549D01*
X0108719Y0036549D01*
X0108064Y0037203D01*
X0108064Y0038513D01*
X0108719Y0039167D01*
X0109373Y0040899D02*
X0108064Y0042208D01*
X0109373Y0043517D01*
X0111992Y0043517D01*
X0111992Y0045249D02*
X0111992Y0047213D01*
X0111337Y0047868D01*
X0110682Y0047868D01*
X0110028Y0047213D01*
X0108719Y0047868D02*
X0108064Y0047213D01*
X0108064Y0045249D01*
X0111992Y0045249D01*
X0111992Y0034958D02*
X0111992Y0033649D01*
X0111992Y0034303D02*
X0108064Y0034303D01*
X0108064Y0033649D02*
X0108064Y0034958D01*
X0108719Y0031917D02*
X0108064Y0031262D01*
X0108064Y0029298D01*
X0111992Y0029298D01*
X0111992Y0031262D01*
X0111337Y0031917D01*
X0108719Y0031917D01*
X0112646Y0027567D02*
X0112646Y0024948D01*
X0111992Y0023217D02*
X0108064Y0020598D01*
X0108064Y0018866D02*
X0108064Y0016248D01*
X0108064Y0017557D02*
X0111992Y0017557D01*
X0111992Y0020598D02*
X0108064Y0023217D01*
X0071010Y0050677D02*
X0068233Y0047900D01*
X0057486Y0054550D02*
X0054868Y0054550D01*
X0056177Y0054550D02*
X0056177Y0058477D01*
X0054868Y0057168D01*
X0054381Y0092050D02*
X0053072Y0092050D01*
X0052417Y0092704D01*
X0052417Y0093359D01*
X0053072Y0094013D01*
X0054381Y0094013D01*
X0055036Y0093359D01*
X0055036Y0092704D01*
X0054381Y0092050D01*
X0054381Y0094013D02*
X0055036Y0094668D01*
X0055036Y0095323D01*
X0054381Y0095977D01*
X0053072Y0095977D01*
X0052417Y0095323D01*
X0052417Y0094668D01*
X0053072Y0094013D01*
X0050686Y0094013D02*
X0050686Y0095323D01*
X0050031Y0095977D01*
X0048067Y0095977D01*
X0048067Y0092050D01*
X0048067Y0093359D02*
X0050031Y0093359D01*
X0050686Y0094013D01*
X0049377Y0093359D02*
X0050686Y0092050D01*
X0042586Y0092325D02*
X0039967Y0092325D01*
X0041276Y0092325D02*
X0041276Y0096253D01*
X0039967Y0094944D01*
X0038235Y0096253D02*
X0035617Y0096253D01*
X0036926Y0096253D02*
X0036926Y0092325D01*
X0065567Y0095977D02*
X0068186Y0095977D01*
X0066877Y0095977D02*
X0066877Y0092050D01*
X0069917Y0092050D02*
X0072536Y0094668D01*
X0072536Y0095323D01*
X0071881Y0095977D01*
X0070572Y0095977D01*
X0069917Y0095323D01*
X0069917Y0092050D02*
X0072536Y0092050D01*
X0076817Y0092050D02*
X0076817Y0095977D01*
X0078781Y0095977D01*
X0079436Y0095323D01*
X0079436Y0094013D01*
X0078781Y0093359D01*
X0076817Y0093359D01*
X0078127Y0093359D02*
X0079436Y0092050D01*
X0081167Y0092050D02*
X0081167Y0092704D01*
X0083786Y0095323D01*
X0083786Y0095977D01*
X0081167Y0095977D01*
X0156817Y0171454D02*
X0157472Y0170800D01*
X0158781Y0170800D01*
X0159436Y0171454D01*
X0161167Y0171454D02*
X0161822Y0170800D01*
X0163131Y0170800D01*
X0163786Y0171454D01*
X0163786Y0172763D01*
X0163131Y0173418D01*
X0162477Y0173418D01*
X0161167Y0172763D01*
X0161167Y0174727D01*
X0163786Y0174727D01*
X0165667Y0174150D02*
X0177167Y0174150D01*
X0177167Y0169150D01*
X0165667Y0169150D01*
X0165667Y0174150D01*
X0159436Y0174073D02*
X0158781Y0174727D01*
X0157472Y0174727D01*
X0156817Y0174073D01*
X0156817Y0171454D01*
X0153931Y0184075D02*
X0154586Y0184730D01*
X0154586Y0187348D01*
X0153931Y0188003D01*
X0151967Y0188003D01*
X0151967Y0184075D01*
X0153931Y0184075D01*
X0150235Y0184075D02*
X0150235Y0188003D01*
X0147617Y0188003D02*
X0150235Y0184075D01*
X0147617Y0184075D02*
X0147617Y0188003D01*
X0145885Y0187348D02*
X0145231Y0188003D01*
X0143921Y0188003D01*
X0143267Y0187348D01*
X0143267Y0184730D01*
X0143921Y0184075D01*
X0145231Y0184075D01*
X0145885Y0184730D01*
X0145885Y0186039D01*
X0144576Y0186039D01*
X0143921Y0194075D02*
X0143267Y0194730D01*
X0143921Y0194075D02*
X0145231Y0194075D01*
X0145885Y0194730D01*
X0145885Y0195384D01*
X0145231Y0196039D01*
X0144576Y0196039D01*
X0145231Y0196039D02*
X0145885Y0196694D01*
X0145885Y0197348D01*
X0145231Y0198003D01*
X0143921Y0198003D01*
X0143267Y0197348D01*
X0147617Y0198003D02*
X0147617Y0195384D01*
X0148926Y0194075D01*
X0150235Y0195384D01*
X0150235Y0198003D01*
X0151967Y0197348D02*
X0152622Y0198003D01*
X0153931Y0198003D01*
X0154586Y0197348D01*
X0154586Y0196694D01*
X0153931Y0196039D01*
X0154586Y0195384D01*
X0154586Y0194730D01*
X0153931Y0194075D01*
X0152622Y0194075D01*
X0151967Y0194730D01*
X0153276Y0196039D02*
X0153931Y0196039D01*
X0174469Y0190587D02*
X0174469Y0182713D01*
X0193366Y0182713D01*
X0193366Y0190587D01*
X0174469Y0190587D01*
X0180667Y0181650D02*
X0192167Y0181650D01*
X0192167Y0176650D01*
X0180667Y0176650D01*
X0180667Y0181650D01*
X0180118Y0174406D02*
X0192717Y0174406D01*
X0192717Y0168894D01*
X0180118Y0168894D01*
X0180118Y0174406D01*
X0198412Y0174521D02*
X0198412Y0170593D01*
X0201030Y0170593D01*
X0202762Y0170593D02*
X0205380Y0173211D01*
X0205380Y0173866D01*
X0204726Y0174521D01*
X0203417Y0174521D01*
X0202762Y0173866D01*
X0202417Y0178300D02*
X0202417Y0178954D01*
X0205036Y0181573D01*
X0205036Y0182227D01*
X0202417Y0182227D01*
X0200686Y0181573D02*
X0200031Y0182227D01*
X0198722Y0182227D01*
X0198067Y0181573D01*
X0198067Y0178954D01*
X0198722Y0178300D01*
X0200031Y0178300D01*
X0200686Y0178954D01*
X0200031Y0185300D02*
X0198722Y0185300D01*
X0198067Y0185954D01*
X0198067Y0188573D01*
X0198722Y0189227D01*
X0200031Y0189227D01*
X0200686Y0188573D01*
X0202417Y0188573D02*
X0202417Y0187918D01*
X0203072Y0187263D01*
X0205036Y0187263D01*
X0205036Y0185954D02*
X0205036Y0188573D01*
X0204381Y0189227D01*
X0203072Y0189227D01*
X0202417Y0188573D01*
X0202417Y0185954D02*
X0203072Y0185300D01*
X0204381Y0185300D01*
X0205036Y0185954D01*
X0200686Y0185954D02*
X0200031Y0185300D01*
X0202762Y0170593D02*
X0205380Y0170593D01*
X0227090Y0175651D02*
X0227090Y0176960D01*
X0227090Y0176305D02*
X0231017Y0176305D01*
X0231017Y0175651D02*
X0231017Y0176960D01*
X0231017Y0179860D02*
X0227090Y0179860D01*
X0227090Y0178551D02*
X0227090Y0181169D01*
X0225996Y0201075D02*
X0224687Y0201075D01*
X0224032Y0201730D01*
X0224032Y0203039D01*
X0225996Y0203039D01*
X0226651Y0202384D01*
X0226651Y0201730D01*
X0225996Y0201075D01*
X0224032Y0203039D02*
X0225341Y0204348D01*
X0226651Y0205003D01*
X0222300Y0204348D02*
X0221646Y0205003D01*
X0220337Y0205003D01*
X0219682Y0204348D01*
X0219682Y0201730D01*
X0220337Y0201075D01*
X0221646Y0201075D01*
X0222300Y0201730D01*
X0212667Y0137400D02*
X0207667Y0137400D01*
X0207667Y0125900D01*
X0212667Y0125900D01*
X0212667Y0137400D01*
X0200053Y0107689D02*
X0200053Y0105071D01*
X0200053Y0106380D02*
X0196125Y0106380D01*
X0197434Y0105071D01*
X0196780Y0103339D02*
X0198089Y0103339D01*
X0198744Y0102684D01*
X0198744Y0100720D01*
X0200053Y0100720D02*
X0196125Y0100720D01*
X0196125Y0102684D01*
X0196780Y0103339D01*
X0196125Y0098989D02*
X0196125Y0096370D01*
X0200053Y0096370D01*
X0199398Y0094639D02*
X0200053Y0093984D01*
X0200053Y0092675D01*
X0199398Y0092020D01*
X0198089Y0092675D02*
X0197434Y0092020D01*
X0196780Y0092020D01*
X0196125Y0092675D01*
X0196125Y0093984D01*
X0196780Y0094639D01*
X0198089Y0093984D02*
X0198744Y0094639D01*
X0199398Y0094639D01*
X0198089Y0093984D02*
X0198089Y0092675D01*
X0198089Y0096370D02*
X0198089Y0097680D01*
D12*
X0228917Y0116650D02*
X0253917Y0116650D01*
X0247667Y0110400D01*
X0253917Y0116650D02*
X0247667Y0122900D01*
X0240167Y0140400D02*
X0233917Y0146650D01*
X0240167Y0152900D01*
X0233917Y0146650D02*
X0258917Y0146650D01*
D13*
X0191663Y0146177D02*
X0191663Y0135872D01*
X0191663Y0127427D02*
X0191663Y0117122D01*
X0191663Y0108677D02*
X0191663Y0102122D01*
X0188258Y0102122D01*
X0177953Y0109996D02*
X0182677Y0114720D01*
X0182677Y0116295D01*
X0177953Y0109996D02*
X0169754Y0109996D01*
X0162667Y0109996D02*
X0149744Y0109996D01*
X0149744Y0114720D01*
X0156762Y0102122D02*
X0168573Y0102122D01*
X0129203Y0102122D02*
X0109518Y0102122D01*
X0097707Y0102122D02*
X0070148Y0102122D01*
X0058337Y0102122D02*
X0026841Y0102122D01*
X0026841Y0100154D02*
X0026841Y0163146D01*
X0026841Y0161177D02*
X0038652Y0161177D01*
X0050463Y0161177D02*
X0078022Y0161177D01*
X0089833Y0161177D02*
X0117392Y0161177D01*
X0139045Y0161177D02*
X0148888Y0161177D01*
X0149744Y0153303D02*
X0162667Y0153303D01*
X0169754Y0153303D02*
X0182677Y0153303D01*
X0182677Y0148579D01*
X0191663Y0154622D02*
X0191663Y0161177D01*
X0176447Y0161177D01*
X0149744Y0153303D02*
X0149744Y0147004D01*
X0124406Y0230942D02*
X0123429Y0230942D01*
X0151960Y0246161D02*
X0151960Y0247138D01*
D14*
X0040659Y0021335D02*
X0040661Y0021499D01*
X0040667Y0021663D01*
X0040677Y0021827D01*
X0040691Y0021991D01*
X0040709Y0022154D01*
X0040731Y0022317D01*
X0040758Y0022479D01*
X0040788Y0022641D01*
X0040822Y0022801D01*
X0040860Y0022961D01*
X0040901Y0023120D01*
X0040947Y0023278D01*
X0040997Y0023434D01*
X0041050Y0023590D01*
X0041107Y0023744D01*
X0041168Y0023896D01*
X0041233Y0024047D01*
X0041302Y0024197D01*
X0041374Y0024344D01*
X0041449Y0024490D01*
X0041529Y0024634D01*
X0041611Y0024776D01*
X0041697Y0024916D01*
X0041787Y0025053D01*
X0041880Y0025189D01*
X0041976Y0025322D01*
X0042076Y0025453D01*
X0042178Y0025581D01*
X0042284Y0025707D01*
X0042393Y0025830D01*
X0042505Y0025950D01*
X0042619Y0026068D01*
X0042737Y0026182D01*
X0042857Y0026294D01*
X0042980Y0026403D01*
X0043106Y0026509D01*
X0043234Y0026611D01*
X0043365Y0026711D01*
X0043498Y0026807D01*
X0043634Y0026900D01*
X0043771Y0026990D01*
X0043911Y0027076D01*
X0044053Y0027158D01*
X0044197Y0027238D01*
X0044343Y0027313D01*
X0044490Y0027385D01*
X0044640Y0027454D01*
X0044791Y0027519D01*
X0044943Y0027580D01*
X0045097Y0027637D01*
X0045253Y0027690D01*
X0045409Y0027740D01*
X0045567Y0027786D01*
X0045726Y0027827D01*
X0045886Y0027865D01*
X0046046Y0027899D01*
X0046208Y0027929D01*
X0046370Y0027956D01*
X0046533Y0027978D01*
X0046696Y0027996D01*
X0046860Y0028010D01*
X0047024Y0028020D01*
X0047188Y0028026D01*
X0047352Y0028028D01*
X0047516Y0028026D01*
X0047680Y0028020D01*
X0047844Y0028010D01*
X0048008Y0027996D01*
X0048171Y0027978D01*
X0048334Y0027956D01*
X0048496Y0027929D01*
X0048658Y0027899D01*
X0048818Y0027865D01*
X0048978Y0027827D01*
X0049137Y0027786D01*
X0049295Y0027740D01*
X0049451Y0027690D01*
X0049607Y0027637D01*
X0049761Y0027580D01*
X0049913Y0027519D01*
X0050064Y0027454D01*
X0050214Y0027385D01*
X0050361Y0027313D01*
X0050507Y0027238D01*
X0050651Y0027158D01*
X0050793Y0027076D01*
X0050933Y0026990D01*
X0051070Y0026900D01*
X0051206Y0026807D01*
X0051339Y0026711D01*
X0051470Y0026611D01*
X0051598Y0026509D01*
X0051724Y0026403D01*
X0051847Y0026294D01*
X0051967Y0026182D01*
X0052085Y0026068D01*
X0052199Y0025950D01*
X0052311Y0025830D01*
X0052420Y0025707D01*
X0052526Y0025581D01*
X0052628Y0025453D01*
X0052728Y0025322D01*
X0052824Y0025189D01*
X0052917Y0025053D01*
X0053007Y0024916D01*
X0053093Y0024776D01*
X0053175Y0024634D01*
X0053255Y0024490D01*
X0053330Y0024344D01*
X0053402Y0024197D01*
X0053471Y0024047D01*
X0053536Y0023896D01*
X0053597Y0023744D01*
X0053654Y0023590D01*
X0053707Y0023434D01*
X0053757Y0023278D01*
X0053803Y0023120D01*
X0053844Y0022961D01*
X0053882Y0022801D01*
X0053916Y0022641D01*
X0053946Y0022479D01*
X0053973Y0022317D01*
X0053995Y0022154D01*
X0054013Y0021991D01*
X0054027Y0021827D01*
X0054037Y0021663D01*
X0054043Y0021499D01*
X0054045Y0021335D01*
X0054043Y0021171D01*
X0054037Y0021007D01*
X0054027Y0020843D01*
X0054013Y0020679D01*
X0053995Y0020516D01*
X0053973Y0020353D01*
X0053946Y0020191D01*
X0053916Y0020029D01*
X0053882Y0019869D01*
X0053844Y0019709D01*
X0053803Y0019550D01*
X0053757Y0019392D01*
X0053707Y0019236D01*
X0053654Y0019080D01*
X0053597Y0018926D01*
X0053536Y0018774D01*
X0053471Y0018623D01*
X0053402Y0018473D01*
X0053330Y0018326D01*
X0053255Y0018180D01*
X0053175Y0018036D01*
X0053093Y0017894D01*
X0053007Y0017754D01*
X0052917Y0017617D01*
X0052824Y0017481D01*
X0052728Y0017348D01*
X0052628Y0017217D01*
X0052526Y0017089D01*
X0052420Y0016963D01*
X0052311Y0016840D01*
X0052199Y0016720D01*
X0052085Y0016602D01*
X0051967Y0016488D01*
X0051847Y0016376D01*
X0051724Y0016267D01*
X0051598Y0016161D01*
X0051470Y0016059D01*
X0051339Y0015959D01*
X0051206Y0015863D01*
X0051070Y0015770D01*
X0050933Y0015680D01*
X0050793Y0015594D01*
X0050651Y0015512D01*
X0050507Y0015432D01*
X0050361Y0015357D01*
X0050214Y0015285D01*
X0050064Y0015216D01*
X0049913Y0015151D01*
X0049761Y0015090D01*
X0049607Y0015033D01*
X0049451Y0014980D01*
X0049295Y0014930D01*
X0049137Y0014884D01*
X0048978Y0014843D01*
X0048818Y0014805D01*
X0048658Y0014771D01*
X0048496Y0014741D01*
X0048334Y0014714D01*
X0048171Y0014692D01*
X0048008Y0014674D01*
X0047844Y0014660D01*
X0047680Y0014650D01*
X0047516Y0014644D01*
X0047352Y0014642D01*
X0047188Y0014644D01*
X0047024Y0014650D01*
X0046860Y0014660D01*
X0046696Y0014674D01*
X0046533Y0014692D01*
X0046370Y0014714D01*
X0046208Y0014741D01*
X0046046Y0014771D01*
X0045886Y0014805D01*
X0045726Y0014843D01*
X0045567Y0014884D01*
X0045409Y0014930D01*
X0045253Y0014980D01*
X0045097Y0015033D01*
X0044943Y0015090D01*
X0044791Y0015151D01*
X0044640Y0015216D01*
X0044490Y0015285D01*
X0044343Y0015357D01*
X0044197Y0015432D01*
X0044053Y0015512D01*
X0043911Y0015594D01*
X0043771Y0015680D01*
X0043634Y0015770D01*
X0043498Y0015863D01*
X0043365Y0015959D01*
X0043234Y0016059D01*
X0043106Y0016161D01*
X0042980Y0016267D01*
X0042857Y0016376D01*
X0042737Y0016488D01*
X0042619Y0016602D01*
X0042505Y0016720D01*
X0042393Y0016840D01*
X0042284Y0016963D01*
X0042178Y0017089D01*
X0042076Y0017217D01*
X0041976Y0017348D01*
X0041880Y0017481D01*
X0041787Y0017617D01*
X0041697Y0017754D01*
X0041611Y0017894D01*
X0041529Y0018036D01*
X0041449Y0018180D01*
X0041374Y0018326D01*
X0041302Y0018473D01*
X0041233Y0018623D01*
X0041168Y0018774D01*
X0041107Y0018926D01*
X0041050Y0019080D01*
X0040997Y0019236D01*
X0040947Y0019392D01*
X0040901Y0019550D01*
X0040860Y0019709D01*
X0040822Y0019869D01*
X0040788Y0020029D01*
X0040758Y0020191D01*
X0040731Y0020353D01*
X0040709Y0020516D01*
X0040691Y0020679D01*
X0040677Y0020843D01*
X0040667Y0021007D01*
X0040661Y0021171D01*
X0040659Y0021335D01*
X0033852Y0021335D02*
X0033856Y0021666D01*
X0033868Y0021997D01*
X0033889Y0022328D01*
X0033917Y0022658D01*
X0033954Y0022988D01*
X0033998Y0023316D01*
X0034051Y0023643D01*
X0034111Y0023969D01*
X0034180Y0024293D01*
X0034257Y0024615D01*
X0034341Y0024936D01*
X0034433Y0025254D01*
X0034533Y0025570D01*
X0034641Y0025883D01*
X0034757Y0026194D01*
X0034880Y0026501D01*
X0035010Y0026806D01*
X0035148Y0027107D01*
X0035293Y0027405D01*
X0035446Y0027699D01*
X0035606Y0027989D01*
X0035773Y0028275D01*
X0035946Y0028557D01*
X0036127Y0028835D01*
X0036315Y0029108D01*
X0036509Y0029377D01*
X0036709Y0029641D01*
X0036916Y0029899D01*
X0037130Y0030153D01*
X0037349Y0030401D01*
X0037575Y0030644D01*
X0037806Y0030881D01*
X0038043Y0031112D01*
X0038286Y0031338D01*
X0038534Y0031557D01*
X0038788Y0031771D01*
X0039046Y0031978D01*
X0039310Y0032178D01*
X0039579Y0032372D01*
X0039852Y0032560D01*
X0040130Y0032741D01*
X0040412Y0032914D01*
X0040698Y0033081D01*
X0040988Y0033241D01*
X0041282Y0033394D01*
X0041580Y0033539D01*
X0041881Y0033677D01*
X0042186Y0033807D01*
X0042493Y0033930D01*
X0042804Y0034046D01*
X0043117Y0034154D01*
X0043433Y0034254D01*
X0043751Y0034346D01*
X0044072Y0034430D01*
X0044394Y0034507D01*
X0044718Y0034576D01*
X0045044Y0034636D01*
X0045371Y0034689D01*
X0045699Y0034733D01*
X0046029Y0034770D01*
X0046359Y0034798D01*
X0046690Y0034819D01*
X0047021Y0034831D01*
X0047352Y0034835D01*
X0047683Y0034831D01*
X0048014Y0034819D01*
X0048345Y0034798D01*
X0048675Y0034770D01*
X0049005Y0034733D01*
X0049333Y0034689D01*
X0049660Y0034636D01*
X0049986Y0034576D01*
X0050310Y0034507D01*
X0050632Y0034430D01*
X0050953Y0034346D01*
X0051271Y0034254D01*
X0051587Y0034154D01*
X0051900Y0034046D01*
X0052211Y0033930D01*
X0052518Y0033807D01*
X0052823Y0033677D01*
X0053124Y0033539D01*
X0053422Y0033394D01*
X0053716Y0033241D01*
X0054006Y0033081D01*
X0054292Y0032914D01*
X0054574Y0032741D01*
X0054852Y0032560D01*
X0055125Y0032372D01*
X0055394Y0032178D01*
X0055658Y0031978D01*
X0055916Y0031771D01*
X0056170Y0031557D01*
X0056418Y0031338D01*
X0056661Y0031112D01*
X0056898Y0030881D01*
X0057129Y0030644D01*
X0057355Y0030401D01*
X0057574Y0030153D01*
X0057788Y0029899D01*
X0057995Y0029641D01*
X0058195Y0029377D01*
X0058389Y0029108D01*
X0058577Y0028835D01*
X0058758Y0028557D01*
X0058931Y0028275D01*
X0059098Y0027989D01*
X0059258Y0027699D01*
X0059411Y0027405D01*
X0059556Y0027107D01*
X0059694Y0026806D01*
X0059824Y0026501D01*
X0059947Y0026194D01*
X0060063Y0025883D01*
X0060171Y0025570D01*
X0060271Y0025254D01*
X0060363Y0024936D01*
X0060447Y0024615D01*
X0060524Y0024293D01*
X0060593Y0023969D01*
X0060653Y0023643D01*
X0060706Y0023316D01*
X0060750Y0022988D01*
X0060787Y0022658D01*
X0060815Y0022328D01*
X0060836Y0021997D01*
X0060848Y0021666D01*
X0060852Y0021335D01*
X0060848Y0021004D01*
X0060836Y0020673D01*
X0060815Y0020342D01*
X0060787Y0020012D01*
X0060750Y0019682D01*
X0060706Y0019354D01*
X0060653Y0019027D01*
X0060593Y0018701D01*
X0060524Y0018377D01*
X0060447Y0018055D01*
X0060363Y0017734D01*
X0060271Y0017416D01*
X0060171Y0017100D01*
X0060063Y0016787D01*
X0059947Y0016476D01*
X0059824Y0016169D01*
X0059694Y0015864D01*
X0059556Y0015563D01*
X0059411Y0015265D01*
X0059258Y0014971D01*
X0059098Y0014681D01*
X0058931Y0014395D01*
X0058758Y0014113D01*
X0058577Y0013835D01*
X0058389Y0013562D01*
X0058195Y0013293D01*
X0057995Y0013029D01*
X0057788Y0012771D01*
X0057574Y0012517D01*
X0057355Y0012269D01*
X0057129Y0012026D01*
X0056898Y0011789D01*
X0056661Y0011558D01*
X0056418Y0011332D01*
X0056170Y0011113D01*
X0055916Y0010899D01*
X0055658Y0010692D01*
X0055394Y0010492D01*
X0055125Y0010298D01*
X0054852Y0010110D01*
X0054574Y0009929D01*
X0054292Y0009756D01*
X0054006Y0009589D01*
X0053716Y0009429D01*
X0053422Y0009276D01*
X0053124Y0009131D01*
X0052823Y0008993D01*
X0052518Y0008863D01*
X0052211Y0008740D01*
X0051900Y0008624D01*
X0051587Y0008516D01*
X0051271Y0008416D01*
X0050953Y0008324D01*
X0050632Y0008240D01*
X0050310Y0008163D01*
X0049986Y0008094D01*
X0049660Y0008034D01*
X0049333Y0007981D01*
X0049005Y0007937D01*
X0048675Y0007900D01*
X0048345Y0007872D01*
X0048014Y0007851D01*
X0047683Y0007839D01*
X0047352Y0007835D01*
X0047021Y0007839D01*
X0046690Y0007851D01*
X0046359Y0007872D01*
X0046029Y0007900D01*
X0045699Y0007937D01*
X0045371Y0007981D01*
X0045044Y0008034D01*
X0044718Y0008094D01*
X0044394Y0008163D01*
X0044072Y0008240D01*
X0043751Y0008324D01*
X0043433Y0008416D01*
X0043117Y0008516D01*
X0042804Y0008624D01*
X0042493Y0008740D01*
X0042186Y0008863D01*
X0041881Y0008993D01*
X0041580Y0009131D01*
X0041282Y0009276D01*
X0040988Y0009429D01*
X0040698Y0009589D01*
X0040412Y0009756D01*
X0040130Y0009929D01*
X0039852Y0010110D01*
X0039579Y0010298D01*
X0039310Y0010492D01*
X0039046Y0010692D01*
X0038788Y0010899D01*
X0038534Y0011113D01*
X0038286Y0011332D01*
X0038043Y0011558D01*
X0037806Y0011789D01*
X0037575Y0012026D01*
X0037349Y0012269D01*
X0037130Y0012517D01*
X0036916Y0012771D01*
X0036709Y0013029D01*
X0036509Y0013293D01*
X0036315Y0013562D01*
X0036127Y0013835D01*
X0035946Y0014113D01*
X0035773Y0014395D01*
X0035606Y0014681D01*
X0035446Y0014971D01*
X0035293Y0015265D01*
X0035148Y0015563D01*
X0035010Y0015864D01*
X0034880Y0016169D01*
X0034757Y0016476D01*
X0034641Y0016787D01*
X0034533Y0017100D01*
X0034433Y0017416D01*
X0034341Y0017734D01*
X0034257Y0018055D01*
X0034180Y0018377D01*
X0034111Y0018701D01*
X0034051Y0019027D01*
X0033998Y0019354D01*
X0033954Y0019682D01*
X0033917Y0020012D01*
X0033889Y0020342D01*
X0033868Y0020673D01*
X0033856Y0021004D01*
X0033852Y0021335D01*
X0237510Y0021335D02*
X0237512Y0021499D01*
X0237518Y0021663D01*
X0237528Y0021827D01*
X0237542Y0021991D01*
X0237560Y0022154D01*
X0237582Y0022317D01*
X0237609Y0022479D01*
X0237639Y0022641D01*
X0237673Y0022801D01*
X0237711Y0022961D01*
X0237752Y0023120D01*
X0237798Y0023278D01*
X0237848Y0023434D01*
X0237901Y0023590D01*
X0237958Y0023744D01*
X0238019Y0023896D01*
X0238084Y0024047D01*
X0238153Y0024197D01*
X0238225Y0024344D01*
X0238300Y0024490D01*
X0238380Y0024634D01*
X0238462Y0024776D01*
X0238548Y0024916D01*
X0238638Y0025053D01*
X0238731Y0025189D01*
X0238827Y0025322D01*
X0238927Y0025453D01*
X0239029Y0025581D01*
X0239135Y0025707D01*
X0239244Y0025830D01*
X0239356Y0025950D01*
X0239470Y0026068D01*
X0239588Y0026182D01*
X0239708Y0026294D01*
X0239831Y0026403D01*
X0239957Y0026509D01*
X0240085Y0026611D01*
X0240216Y0026711D01*
X0240349Y0026807D01*
X0240485Y0026900D01*
X0240622Y0026990D01*
X0240762Y0027076D01*
X0240904Y0027158D01*
X0241048Y0027238D01*
X0241194Y0027313D01*
X0241341Y0027385D01*
X0241491Y0027454D01*
X0241642Y0027519D01*
X0241794Y0027580D01*
X0241948Y0027637D01*
X0242104Y0027690D01*
X0242260Y0027740D01*
X0242418Y0027786D01*
X0242577Y0027827D01*
X0242737Y0027865D01*
X0242897Y0027899D01*
X0243059Y0027929D01*
X0243221Y0027956D01*
X0243384Y0027978D01*
X0243547Y0027996D01*
X0243711Y0028010D01*
X0243875Y0028020D01*
X0244039Y0028026D01*
X0244203Y0028028D01*
X0244367Y0028026D01*
X0244531Y0028020D01*
X0244695Y0028010D01*
X0244859Y0027996D01*
X0245022Y0027978D01*
X0245185Y0027956D01*
X0245347Y0027929D01*
X0245509Y0027899D01*
X0245669Y0027865D01*
X0245829Y0027827D01*
X0245988Y0027786D01*
X0246146Y0027740D01*
X0246302Y0027690D01*
X0246458Y0027637D01*
X0246612Y0027580D01*
X0246764Y0027519D01*
X0246915Y0027454D01*
X0247065Y0027385D01*
X0247212Y0027313D01*
X0247358Y0027238D01*
X0247502Y0027158D01*
X0247644Y0027076D01*
X0247784Y0026990D01*
X0247921Y0026900D01*
X0248057Y0026807D01*
X0248190Y0026711D01*
X0248321Y0026611D01*
X0248449Y0026509D01*
X0248575Y0026403D01*
X0248698Y0026294D01*
X0248818Y0026182D01*
X0248936Y0026068D01*
X0249050Y0025950D01*
X0249162Y0025830D01*
X0249271Y0025707D01*
X0249377Y0025581D01*
X0249479Y0025453D01*
X0249579Y0025322D01*
X0249675Y0025189D01*
X0249768Y0025053D01*
X0249858Y0024916D01*
X0249944Y0024776D01*
X0250026Y0024634D01*
X0250106Y0024490D01*
X0250181Y0024344D01*
X0250253Y0024197D01*
X0250322Y0024047D01*
X0250387Y0023896D01*
X0250448Y0023744D01*
X0250505Y0023590D01*
X0250558Y0023434D01*
X0250608Y0023278D01*
X0250654Y0023120D01*
X0250695Y0022961D01*
X0250733Y0022801D01*
X0250767Y0022641D01*
X0250797Y0022479D01*
X0250824Y0022317D01*
X0250846Y0022154D01*
X0250864Y0021991D01*
X0250878Y0021827D01*
X0250888Y0021663D01*
X0250894Y0021499D01*
X0250896Y0021335D01*
X0250894Y0021171D01*
X0250888Y0021007D01*
X0250878Y0020843D01*
X0250864Y0020679D01*
X0250846Y0020516D01*
X0250824Y0020353D01*
X0250797Y0020191D01*
X0250767Y0020029D01*
X0250733Y0019869D01*
X0250695Y0019709D01*
X0250654Y0019550D01*
X0250608Y0019392D01*
X0250558Y0019236D01*
X0250505Y0019080D01*
X0250448Y0018926D01*
X0250387Y0018774D01*
X0250322Y0018623D01*
X0250253Y0018473D01*
X0250181Y0018326D01*
X0250106Y0018180D01*
X0250026Y0018036D01*
X0249944Y0017894D01*
X0249858Y0017754D01*
X0249768Y0017617D01*
X0249675Y0017481D01*
X0249579Y0017348D01*
X0249479Y0017217D01*
X0249377Y0017089D01*
X0249271Y0016963D01*
X0249162Y0016840D01*
X0249050Y0016720D01*
X0248936Y0016602D01*
X0248818Y0016488D01*
X0248698Y0016376D01*
X0248575Y0016267D01*
X0248449Y0016161D01*
X0248321Y0016059D01*
X0248190Y0015959D01*
X0248057Y0015863D01*
X0247921Y0015770D01*
X0247784Y0015680D01*
X0247644Y0015594D01*
X0247502Y0015512D01*
X0247358Y0015432D01*
X0247212Y0015357D01*
X0247065Y0015285D01*
X0246915Y0015216D01*
X0246764Y0015151D01*
X0246612Y0015090D01*
X0246458Y0015033D01*
X0246302Y0014980D01*
X0246146Y0014930D01*
X0245988Y0014884D01*
X0245829Y0014843D01*
X0245669Y0014805D01*
X0245509Y0014771D01*
X0245347Y0014741D01*
X0245185Y0014714D01*
X0245022Y0014692D01*
X0244859Y0014674D01*
X0244695Y0014660D01*
X0244531Y0014650D01*
X0244367Y0014644D01*
X0244203Y0014642D01*
X0244039Y0014644D01*
X0243875Y0014650D01*
X0243711Y0014660D01*
X0243547Y0014674D01*
X0243384Y0014692D01*
X0243221Y0014714D01*
X0243059Y0014741D01*
X0242897Y0014771D01*
X0242737Y0014805D01*
X0242577Y0014843D01*
X0242418Y0014884D01*
X0242260Y0014930D01*
X0242104Y0014980D01*
X0241948Y0015033D01*
X0241794Y0015090D01*
X0241642Y0015151D01*
X0241491Y0015216D01*
X0241341Y0015285D01*
X0241194Y0015357D01*
X0241048Y0015432D01*
X0240904Y0015512D01*
X0240762Y0015594D01*
X0240622Y0015680D01*
X0240485Y0015770D01*
X0240349Y0015863D01*
X0240216Y0015959D01*
X0240085Y0016059D01*
X0239957Y0016161D01*
X0239831Y0016267D01*
X0239708Y0016376D01*
X0239588Y0016488D01*
X0239470Y0016602D01*
X0239356Y0016720D01*
X0239244Y0016840D01*
X0239135Y0016963D01*
X0239029Y0017089D01*
X0238927Y0017217D01*
X0238827Y0017348D01*
X0238731Y0017481D01*
X0238638Y0017617D01*
X0238548Y0017754D01*
X0238462Y0017894D01*
X0238380Y0018036D01*
X0238300Y0018180D01*
X0238225Y0018326D01*
X0238153Y0018473D01*
X0238084Y0018623D01*
X0238019Y0018774D01*
X0237958Y0018926D01*
X0237901Y0019080D01*
X0237848Y0019236D01*
X0237798Y0019392D01*
X0237752Y0019550D01*
X0237711Y0019709D01*
X0237673Y0019869D01*
X0237639Y0020029D01*
X0237609Y0020191D01*
X0237582Y0020353D01*
X0237560Y0020516D01*
X0237542Y0020679D01*
X0237528Y0020843D01*
X0237518Y0021007D01*
X0237512Y0021171D01*
X0237510Y0021335D01*
X0230703Y0021335D02*
X0230707Y0021666D01*
X0230719Y0021997D01*
X0230740Y0022328D01*
X0230768Y0022658D01*
X0230805Y0022988D01*
X0230849Y0023316D01*
X0230902Y0023643D01*
X0230962Y0023969D01*
X0231031Y0024293D01*
X0231108Y0024615D01*
X0231192Y0024936D01*
X0231284Y0025254D01*
X0231384Y0025570D01*
X0231492Y0025883D01*
X0231608Y0026194D01*
X0231731Y0026501D01*
X0231861Y0026806D01*
X0231999Y0027107D01*
X0232144Y0027405D01*
X0232297Y0027699D01*
X0232457Y0027989D01*
X0232624Y0028275D01*
X0232797Y0028557D01*
X0232978Y0028835D01*
X0233166Y0029108D01*
X0233360Y0029377D01*
X0233560Y0029641D01*
X0233767Y0029899D01*
X0233981Y0030153D01*
X0234200Y0030401D01*
X0234426Y0030644D01*
X0234657Y0030881D01*
X0234894Y0031112D01*
X0235137Y0031338D01*
X0235385Y0031557D01*
X0235639Y0031771D01*
X0235897Y0031978D01*
X0236161Y0032178D01*
X0236430Y0032372D01*
X0236703Y0032560D01*
X0236981Y0032741D01*
X0237263Y0032914D01*
X0237549Y0033081D01*
X0237839Y0033241D01*
X0238133Y0033394D01*
X0238431Y0033539D01*
X0238732Y0033677D01*
X0239037Y0033807D01*
X0239344Y0033930D01*
X0239655Y0034046D01*
X0239968Y0034154D01*
X0240284Y0034254D01*
X0240602Y0034346D01*
X0240923Y0034430D01*
X0241245Y0034507D01*
X0241569Y0034576D01*
X0241895Y0034636D01*
X0242222Y0034689D01*
X0242550Y0034733D01*
X0242880Y0034770D01*
X0243210Y0034798D01*
X0243541Y0034819D01*
X0243872Y0034831D01*
X0244203Y0034835D01*
X0244534Y0034831D01*
X0244865Y0034819D01*
X0245196Y0034798D01*
X0245526Y0034770D01*
X0245856Y0034733D01*
X0246184Y0034689D01*
X0246511Y0034636D01*
X0246837Y0034576D01*
X0247161Y0034507D01*
X0247483Y0034430D01*
X0247804Y0034346D01*
X0248122Y0034254D01*
X0248438Y0034154D01*
X0248751Y0034046D01*
X0249062Y0033930D01*
X0249369Y0033807D01*
X0249674Y0033677D01*
X0249975Y0033539D01*
X0250273Y0033394D01*
X0250567Y0033241D01*
X0250857Y0033081D01*
X0251143Y0032914D01*
X0251425Y0032741D01*
X0251703Y0032560D01*
X0251976Y0032372D01*
X0252245Y0032178D01*
X0252509Y0031978D01*
X0252767Y0031771D01*
X0253021Y0031557D01*
X0253269Y0031338D01*
X0253512Y0031112D01*
X0253749Y0030881D01*
X0253980Y0030644D01*
X0254206Y0030401D01*
X0254425Y0030153D01*
X0254639Y0029899D01*
X0254846Y0029641D01*
X0255046Y0029377D01*
X0255240Y0029108D01*
X0255428Y0028835D01*
X0255609Y0028557D01*
X0255782Y0028275D01*
X0255949Y0027989D01*
X0256109Y0027699D01*
X0256262Y0027405D01*
X0256407Y0027107D01*
X0256545Y0026806D01*
X0256675Y0026501D01*
X0256798Y0026194D01*
X0256914Y0025883D01*
X0257022Y0025570D01*
X0257122Y0025254D01*
X0257214Y0024936D01*
X0257298Y0024615D01*
X0257375Y0024293D01*
X0257444Y0023969D01*
X0257504Y0023643D01*
X0257557Y0023316D01*
X0257601Y0022988D01*
X0257638Y0022658D01*
X0257666Y0022328D01*
X0257687Y0021997D01*
X0257699Y0021666D01*
X0257703Y0021335D01*
X0257699Y0021004D01*
X0257687Y0020673D01*
X0257666Y0020342D01*
X0257638Y0020012D01*
X0257601Y0019682D01*
X0257557Y0019354D01*
X0257504Y0019027D01*
X0257444Y0018701D01*
X0257375Y0018377D01*
X0257298Y0018055D01*
X0257214Y0017734D01*
X0257122Y0017416D01*
X0257022Y0017100D01*
X0256914Y0016787D01*
X0256798Y0016476D01*
X0256675Y0016169D01*
X0256545Y0015864D01*
X0256407Y0015563D01*
X0256262Y0015265D01*
X0256109Y0014971D01*
X0255949Y0014681D01*
X0255782Y0014395D01*
X0255609Y0014113D01*
X0255428Y0013835D01*
X0255240Y0013562D01*
X0255046Y0013293D01*
X0254846Y0013029D01*
X0254639Y0012771D01*
X0254425Y0012517D01*
X0254206Y0012269D01*
X0253980Y0012026D01*
X0253749Y0011789D01*
X0253512Y0011558D01*
X0253269Y0011332D01*
X0253021Y0011113D01*
X0252767Y0010899D01*
X0252509Y0010692D01*
X0252245Y0010492D01*
X0251976Y0010298D01*
X0251703Y0010110D01*
X0251425Y0009929D01*
X0251143Y0009756D01*
X0250857Y0009589D01*
X0250567Y0009429D01*
X0250273Y0009276D01*
X0249975Y0009131D01*
X0249674Y0008993D01*
X0249369Y0008863D01*
X0249062Y0008740D01*
X0248751Y0008624D01*
X0248438Y0008516D01*
X0248122Y0008416D01*
X0247804Y0008324D01*
X0247483Y0008240D01*
X0247161Y0008163D01*
X0246837Y0008094D01*
X0246511Y0008034D01*
X0246184Y0007981D01*
X0245856Y0007937D01*
X0245526Y0007900D01*
X0245196Y0007872D01*
X0244865Y0007851D01*
X0244534Y0007839D01*
X0244203Y0007835D01*
X0243872Y0007839D01*
X0243541Y0007851D01*
X0243210Y0007872D01*
X0242880Y0007900D01*
X0242550Y0007937D01*
X0242222Y0007981D01*
X0241895Y0008034D01*
X0241569Y0008094D01*
X0241245Y0008163D01*
X0240923Y0008240D01*
X0240602Y0008324D01*
X0240284Y0008416D01*
X0239968Y0008516D01*
X0239655Y0008624D01*
X0239344Y0008740D01*
X0239037Y0008863D01*
X0238732Y0008993D01*
X0238431Y0009131D01*
X0238133Y0009276D01*
X0237839Y0009429D01*
X0237549Y0009589D01*
X0237263Y0009756D01*
X0236981Y0009929D01*
X0236703Y0010110D01*
X0236430Y0010298D01*
X0236161Y0010492D01*
X0235897Y0010692D01*
X0235639Y0010899D01*
X0235385Y0011113D01*
X0235137Y0011332D01*
X0234894Y0011558D01*
X0234657Y0011789D01*
X0234426Y0012026D01*
X0234200Y0012269D01*
X0233981Y0012517D01*
X0233767Y0012771D01*
X0233560Y0013029D01*
X0233360Y0013293D01*
X0233166Y0013562D01*
X0232978Y0013835D01*
X0232797Y0014113D01*
X0232624Y0014395D01*
X0232457Y0014681D01*
X0232297Y0014971D01*
X0232144Y0015265D01*
X0231999Y0015563D01*
X0231861Y0015864D01*
X0231731Y0016169D01*
X0231608Y0016476D01*
X0231492Y0016787D01*
X0231384Y0017100D01*
X0231284Y0017416D01*
X0231192Y0017734D01*
X0231108Y0018055D01*
X0231031Y0018377D01*
X0230962Y0018701D01*
X0230902Y0019027D01*
X0230849Y0019354D01*
X0230805Y0019682D01*
X0230768Y0020012D01*
X0230740Y0020342D01*
X0230719Y0020673D01*
X0230707Y0021004D01*
X0230703Y0021335D01*
X0261870Y0020783D02*
X0263839Y0018815D01*
X0282736Y0018815D01*
X0261870Y0020783D02*
X0261870Y0062516D01*
X0263839Y0064484D01*
X0282736Y0064484D01*
X0282736Y0078815D02*
X0263839Y0078815D01*
X0261870Y0080783D01*
X0261870Y0122516D01*
X0263839Y0124484D01*
X0282736Y0124484D01*
X0282736Y0138815D02*
X0263839Y0138815D01*
X0261870Y0140783D01*
X0261870Y0182516D01*
X0263839Y0184484D01*
X0282736Y0184484D01*
X0282736Y0198815D02*
X0263839Y0198815D01*
X0261870Y0200783D01*
X0261870Y0242516D01*
X0263839Y0244484D01*
X0282736Y0244484D01*
X0237510Y0237870D02*
X0237512Y0238034D01*
X0237518Y0238198D01*
X0237528Y0238362D01*
X0237542Y0238526D01*
X0237560Y0238689D01*
X0237582Y0238852D01*
X0237609Y0239014D01*
X0237639Y0239176D01*
X0237673Y0239336D01*
X0237711Y0239496D01*
X0237752Y0239655D01*
X0237798Y0239813D01*
X0237848Y0239969D01*
X0237901Y0240125D01*
X0237958Y0240279D01*
X0238019Y0240431D01*
X0238084Y0240582D01*
X0238153Y0240732D01*
X0238225Y0240879D01*
X0238300Y0241025D01*
X0238380Y0241169D01*
X0238462Y0241311D01*
X0238548Y0241451D01*
X0238638Y0241588D01*
X0238731Y0241724D01*
X0238827Y0241857D01*
X0238927Y0241988D01*
X0239029Y0242116D01*
X0239135Y0242242D01*
X0239244Y0242365D01*
X0239356Y0242485D01*
X0239470Y0242603D01*
X0239588Y0242717D01*
X0239708Y0242829D01*
X0239831Y0242938D01*
X0239957Y0243044D01*
X0240085Y0243146D01*
X0240216Y0243246D01*
X0240349Y0243342D01*
X0240485Y0243435D01*
X0240622Y0243525D01*
X0240762Y0243611D01*
X0240904Y0243693D01*
X0241048Y0243773D01*
X0241194Y0243848D01*
X0241341Y0243920D01*
X0241491Y0243989D01*
X0241642Y0244054D01*
X0241794Y0244115D01*
X0241948Y0244172D01*
X0242104Y0244225D01*
X0242260Y0244275D01*
X0242418Y0244321D01*
X0242577Y0244362D01*
X0242737Y0244400D01*
X0242897Y0244434D01*
X0243059Y0244464D01*
X0243221Y0244491D01*
X0243384Y0244513D01*
X0243547Y0244531D01*
X0243711Y0244545D01*
X0243875Y0244555D01*
X0244039Y0244561D01*
X0244203Y0244563D01*
X0244367Y0244561D01*
X0244531Y0244555D01*
X0244695Y0244545D01*
X0244859Y0244531D01*
X0245022Y0244513D01*
X0245185Y0244491D01*
X0245347Y0244464D01*
X0245509Y0244434D01*
X0245669Y0244400D01*
X0245829Y0244362D01*
X0245988Y0244321D01*
X0246146Y0244275D01*
X0246302Y0244225D01*
X0246458Y0244172D01*
X0246612Y0244115D01*
X0246764Y0244054D01*
X0246915Y0243989D01*
X0247065Y0243920D01*
X0247212Y0243848D01*
X0247358Y0243773D01*
X0247502Y0243693D01*
X0247644Y0243611D01*
X0247784Y0243525D01*
X0247921Y0243435D01*
X0248057Y0243342D01*
X0248190Y0243246D01*
X0248321Y0243146D01*
X0248449Y0243044D01*
X0248575Y0242938D01*
X0248698Y0242829D01*
X0248818Y0242717D01*
X0248936Y0242603D01*
X0249050Y0242485D01*
X0249162Y0242365D01*
X0249271Y0242242D01*
X0249377Y0242116D01*
X0249479Y0241988D01*
X0249579Y0241857D01*
X0249675Y0241724D01*
X0249768Y0241588D01*
X0249858Y0241451D01*
X0249944Y0241311D01*
X0250026Y0241169D01*
X0250106Y0241025D01*
X0250181Y0240879D01*
X0250253Y0240732D01*
X0250322Y0240582D01*
X0250387Y0240431D01*
X0250448Y0240279D01*
X0250505Y0240125D01*
X0250558Y0239969D01*
X0250608Y0239813D01*
X0250654Y0239655D01*
X0250695Y0239496D01*
X0250733Y0239336D01*
X0250767Y0239176D01*
X0250797Y0239014D01*
X0250824Y0238852D01*
X0250846Y0238689D01*
X0250864Y0238526D01*
X0250878Y0238362D01*
X0250888Y0238198D01*
X0250894Y0238034D01*
X0250896Y0237870D01*
X0250894Y0237706D01*
X0250888Y0237542D01*
X0250878Y0237378D01*
X0250864Y0237214D01*
X0250846Y0237051D01*
X0250824Y0236888D01*
X0250797Y0236726D01*
X0250767Y0236564D01*
X0250733Y0236404D01*
X0250695Y0236244D01*
X0250654Y0236085D01*
X0250608Y0235927D01*
X0250558Y0235771D01*
X0250505Y0235615D01*
X0250448Y0235461D01*
X0250387Y0235309D01*
X0250322Y0235158D01*
X0250253Y0235008D01*
X0250181Y0234861D01*
X0250106Y0234715D01*
X0250026Y0234571D01*
X0249944Y0234429D01*
X0249858Y0234289D01*
X0249768Y0234152D01*
X0249675Y0234016D01*
X0249579Y0233883D01*
X0249479Y0233752D01*
X0249377Y0233624D01*
X0249271Y0233498D01*
X0249162Y0233375D01*
X0249050Y0233255D01*
X0248936Y0233137D01*
X0248818Y0233023D01*
X0248698Y0232911D01*
X0248575Y0232802D01*
X0248449Y0232696D01*
X0248321Y0232594D01*
X0248190Y0232494D01*
X0248057Y0232398D01*
X0247921Y0232305D01*
X0247784Y0232215D01*
X0247644Y0232129D01*
X0247502Y0232047D01*
X0247358Y0231967D01*
X0247212Y0231892D01*
X0247065Y0231820D01*
X0246915Y0231751D01*
X0246764Y0231686D01*
X0246612Y0231625D01*
X0246458Y0231568D01*
X0246302Y0231515D01*
X0246146Y0231465D01*
X0245988Y0231419D01*
X0245829Y0231378D01*
X0245669Y0231340D01*
X0245509Y0231306D01*
X0245347Y0231276D01*
X0245185Y0231249D01*
X0245022Y0231227D01*
X0244859Y0231209D01*
X0244695Y0231195D01*
X0244531Y0231185D01*
X0244367Y0231179D01*
X0244203Y0231177D01*
X0244039Y0231179D01*
X0243875Y0231185D01*
X0243711Y0231195D01*
X0243547Y0231209D01*
X0243384Y0231227D01*
X0243221Y0231249D01*
X0243059Y0231276D01*
X0242897Y0231306D01*
X0242737Y0231340D01*
X0242577Y0231378D01*
X0242418Y0231419D01*
X0242260Y0231465D01*
X0242104Y0231515D01*
X0241948Y0231568D01*
X0241794Y0231625D01*
X0241642Y0231686D01*
X0241491Y0231751D01*
X0241341Y0231820D01*
X0241194Y0231892D01*
X0241048Y0231967D01*
X0240904Y0232047D01*
X0240762Y0232129D01*
X0240622Y0232215D01*
X0240485Y0232305D01*
X0240349Y0232398D01*
X0240216Y0232494D01*
X0240085Y0232594D01*
X0239957Y0232696D01*
X0239831Y0232802D01*
X0239708Y0232911D01*
X0239588Y0233023D01*
X0239470Y0233137D01*
X0239356Y0233255D01*
X0239244Y0233375D01*
X0239135Y0233498D01*
X0239029Y0233624D01*
X0238927Y0233752D01*
X0238827Y0233883D01*
X0238731Y0234016D01*
X0238638Y0234152D01*
X0238548Y0234289D01*
X0238462Y0234429D01*
X0238380Y0234571D01*
X0238300Y0234715D01*
X0238225Y0234861D01*
X0238153Y0235008D01*
X0238084Y0235158D01*
X0238019Y0235309D01*
X0237958Y0235461D01*
X0237901Y0235615D01*
X0237848Y0235771D01*
X0237798Y0235927D01*
X0237752Y0236085D01*
X0237711Y0236244D01*
X0237673Y0236404D01*
X0237639Y0236564D01*
X0237609Y0236726D01*
X0237582Y0236888D01*
X0237560Y0237051D01*
X0237542Y0237214D01*
X0237528Y0237378D01*
X0237518Y0237542D01*
X0237512Y0237706D01*
X0237510Y0237870D01*
X0230703Y0237870D02*
X0230707Y0238201D01*
X0230719Y0238532D01*
X0230740Y0238863D01*
X0230768Y0239193D01*
X0230805Y0239523D01*
X0230849Y0239851D01*
X0230902Y0240178D01*
X0230962Y0240504D01*
X0231031Y0240828D01*
X0231108Y0241150D01*
X0231192Y0241471D01*
X0231284Y0241789D01*
X0231384Y0242105D01*
X0231492Y0242418D01*
X0231608Y0242729D01*
X0231731Y0243036D01*
X0231861Y0243341D01*
X0231999Y0243642D01*
X0232144Y0243940D01*
X0232297Y0244234D01*
X0232457Y0244524D01*
X0232624Y0244810D01*
X0232797Y0245092D01*
X0232978Y0245370D01*
X0233166Y0245643D01*
X0233360Y0245912D01*
X0233560Y0246176D01*
X0233767Y0246434D01*
X0233981Y0246688D01*
X0234200Y0246936D01*
X0234426Y0247179D01*
X0234657Y0247416D01*
X0234894Y0247647D01*
X0235137Y0247873D01*
X0235385Y0248092D01*
X0235639Y0248306D01*
X0235897Y0248513D01*
X0236161Y0248713D01*
X0236430Y0248907D01*
X0236703Y0249095D01*
X0236981Y0249276D01*
X0237263Y0249449D01*
X0237549Y0249616D01*
X0237839Y0249776D01*
X0238133Y0249929D01*
X0238431Y0250074D01*
X0238732Y0250212D01*
X0239037Y0250342D01*
X0239344Y0250465D01*
X0239655Y0250581D01*
X0239968Y0250689D01*
X0240284Y0250789D01*
X0240602Y0250881D01*
X0240923Y0250965D01*
X0241245Y0251042D01*
X0241569Y0251111D01*
X0241895Y0251171D01*
X0242222Y0251224D01*
X0242550Y0251268D01*
X0242880Y0251305D01*
X0243210Y0251333D01*
X0243541Y0251354D01*
X0243872Y0251366D01*
X0244203Y0251370D01*
X0244534Y0251366D01*
X0244865Y0251354D01*
X0245196Y0251333D01*
X0245526Y0251305D01*
X0245856Y0251268D01*
X0246184Y0251224D01*
X0246511Y0251171D01*
X0246837Y0251111D01*
X0247161Y0251042D01*
X0247483Y0250965D01*
X0247804Y0250881D01*
X0248122Y0250789D01*
X0248438Y0250689D01*
X0248751Y0250581D01*
X0249062Y0250465D01*
X0249369Y0250342D01*
X0249674Y0250212D01*
X0249975Y0250074D01*
X0250273Y0249929D01*
X0250567Y0249776D01*
X0250857Y0249616D01*
X0251143Y0249449D01*
X0251425Y0249276D01*
X0251703Y0249095D01*
X0251976Y0248907D01*
X0252245Y0248713D01*
X0252509Y0248513D01*
X0252767Y0248306D01*
X0253021Y0248092D01*
X0253269Y0247873D01*
X0253512Y0247647D01*
X0253749Y0247416D01*
X0253980Y0247179D01*
X0254206Y0246936D01*
X0254425Y0246688D01*
X0254639Y0246434D01*
X0254846Y0246176D01*
X0255046Y0245912D01*
X0255240Y0245643D01*
X0255428Y0245370D01*
X0255609Y0245092D01*
X0255782Y0244810D01*
X0255949Y0244524D01*
X0256109Y0244234D01*
X0256262Y0243940D01*
X0256407Y0243642D01*
X0256545Y0243341D01*
X0256675Y0243036D01*
X0256798Y0242729D01*
X0256914Y0242418D01*
X0257022Y0242105D01*
X0257122Y0241789D01*
X0257214Y0241471D01*
X0257298Y0241150D01*
X0257375Y0240828D01*
X0257444Y0240504D01*
X0257504Y0240178D01*
X0257557Y0239851D01*
X0257601Y0239523D01*
X0257638Y0239193D01*
X0257666Y0238863D01*
X0257687Y0238532D01*
X0257699Y0238201D01*
X0257703Y0237870D01*
X0257699Y0237539D01*
X0257687Y0237208D01*
X0257666Y0236877D01*
X0257638Y0236547D01*
X0257601Y0236217D01*
X0257557Y0235889D01*
X0257504Y0235562D01*
X0257444Y0235236D01*
X0257375Y0234912D01*
X0257298Y0234590D01*
X0257214Y0234269D01*
X0257122Y0233951D01*
X0257022Y0233635D01*
X0256914Y0233322D01*
X0256798Y0233011D01*
X0256675Y0232704D01*
X0256545Y0232399D01*
X0256407Y0232098D01*
X0256262Y0231800D01*
X0256109Y0231506D01*
X0255949Y0231216D01*
X0255782Y0230930D01*
X0255609Y0230648D01*
X0255428Y0230370D01*
X0255240Y0230097D01*
X0255046Y0229828D01*
X0254846Y0229564D01*
X0254639Y0229306D01*
X0254425Y0229052D01*
X0254206Y0228804D01*
X0253980Y0228561D01*
X0253749Y0228324D01*
X0253512Y0228093D01*
X0253269Y0227867D01*
X0253021Y0227648D01*
X0252767Y0227434D01*
X0252509Y0227227D01*
X0252245Y0227027D01*
X0251976Y0226833D01*
X0251703Y0226645D01*
X0251425Y0226464D01*
X0251143Y0226291D01*
X0250857Y0226124D01*
X0250567Y0225964D01*
X0250273Y0225811D01*
X0249975Y0225666D01*
X0249674Y0225528D01*
X0249369Y0225398D01*
X0249062Y0225275D01*
X0248751Y0225159D01*
X0248438Y0225051D01*
X0248122Y0224951D01*
X0247804Y0224859D01*
X0247483Y0224775D01*
X0247161Y0224698D01*
X0246837Y0224629D01*
X0246511Y0224569D01*
X0246184Y0224516D01*
X0245856Y0224472D01*
X0245526Y0224435D01*
X0245196Y0224407D01*
X0244865Y0224386D01*
X0244534Y0224374D01*
X0244203Y0224370D01*
X0243872Y0224374D01*
X0243541Y0224386D01*
X0243210Y0224407D01*
X0242880Y0224435D01*
X0242550Y0224472D01*
X0242222Y0224516D01*
X0241895Y0224569D01*
X0241569Y0224629D01*
X0241245Y0224698D01*
X0240923Y0224775D01*
X0240602Y0224859D01*
X0240284Y0224951D01*
X0239968Y0225051D01*
X0239655Y0225159D01*
X0239344Y0225275D01*
X0239037Y0225398D01*
X0238732Y0225528D01*
X0238431Y0225666D01*
X0238133Y0225811D01*
X0237839Y0225964D01*
X0237549Y0226124D01*
X0237263Y0226291D01*
X0236981Y0226464D01*
X0236703Y0226645D01*
X0236430Y0226833D01*
X0236161Y0227027D01*
X0235897Y0227227D01*
X0235639Y0227434D01*
X0235385Y0227648D01*
X0235137Y0227867D01*
X0234894Y0228093D01*
X0234657Y0228324D01*
X0234426Y0228561D01*
X0234200Y0228804D01*
X0233981Y0229052D01*
X0233767Y0229306D01*
X0233560Y0229564D01*
X0233360Y0229828D01*
X0233166Y0230097D01*
X0232978Y0230370D01*
X0232797Y0230648D01*
X0232624Y0230930D01*
X0232457Y0231216D01*
X0232297Y0231506D01*
X0232144Y0231800D01*
X0231999Y0232098D01*
X0231861Y0232399D01*
X0231731Y0232704D01*
X0231608Y0233011D01*
X0231492Y0233322D01*
X0231384Y0233635D01*
X0231284Y0233951D01*
X0231192Y0234269D01*
X0231108Y0234590D01*
X0231031Y0234912D01*
X0230962Y0235236D01*
X0230902Y0235562D01*
X0230849Y0235889D01*
X0230805Y0236217D01*
X0230768Y0236547D01*
X0230740Y0236877D01*
X0230719Y0237208D01*
X0230707Y0237539D01*
X0230703Y0237870D01*
X0040659Y0237870D02*
X0040661Y0238034D01*
X0040667Y0238198D01*
X0040677Y0238362D01*
X0040691Y0238526D01*
X0040709Y0238689D01*
X0040731Y0238852D01*
X0040758Y0239014D01*
X0040788Y0239176D01*
X0040822Y0239336D01*
X0040860Y0239496D01*
X0040901Y0239655D01*
X0040947Y0239813D01*
X0040997Y0239969D01*
X0041050Y0240125D01*
X0041107Y0240279D01*
X0041168Y0240431D01*
X0041233Y0240582D01*
X0041302Y0240732D01*
X0041374Y0240879D01*
X0041449Y0241025D01*
X0041529Y0241169D01*
X0041611Y0241311D01*
X0041697Y0241451D01*
X0041787Y0241588D01*
X0041880Y0241724D01*
X0041976Y0241857D01*
X0042076Y0241988D01*
X0042178Y0242116D01*
X0042284Y0242242D01*
X0042393Y0242365D01*
X0042505Y0242485D01*
X0042619Y0242603D01*
X0042737Y0242717D01*
X0042857Y0242829D01*
X0042980Y0242938D01*
X0043106Y0243044D01*
X0043234Y0243146D01*
X0043365Y0243246D01*
X0043498Y0243342D01*
X0043634Y0243435D01*
X0043771Y0243525D01*
X0043911Y0243611D01*
X0044053Y0243693D01*
X0044197Y0243773D01*
X0044343Y0243848D01*
X0044490Y0243920D01*
X0044640Y0243989D01*
X0044791Y0244054D01*
X0044943Y0244115D01*
X0045097Y0244172D01*
X0045253Y0244225D01*
X0045409Y0244275D01*
X0045567Y0244321D01*
X0045726Y0244362D01*
X0045886Y0244400D01*
X0046046Y0244434D01*
X0046208Y0244464D01*
X0046370Y0244491D01*
X0046533Y0244513D01*
X0046696Y0244531D01*
X0046860Y0244545D01*
X0047024Y0244555D01*
X0047188Y0244561D01*
X0047352Y0244563D01*
X0047516Y0244561D01*
X0047680Y0244555D01*
X0047844Y0244545D01*
X0048008Y0244531D01*
X0048171Y0244513D01*
X0048334Y0244491D01*
X0048496Y0244464D01*
X0048658Y0244434D01*
X0048818Y0244400D01*
X0048978Y0244362D01*
X0049137Y0244321D01*
X0049295Y0244275D01*
X0049451Y0244225D01*
X0049607Y0244172D01*
X0049761Y0244115D01*
X0049913Y0244054D01*
X0050064Y0243989D01*
X0050214Y0243920D01*
X0050361Y0243848D01*
X0050507Y0243773D01*
X0050651Y0243693D01*
X0050793Y0243611D01*
X0050933Y0243525D01*
X0051070Y0243435D01*
X0051206Y0243342D01*
X0051339Y0243246D01*
X0051470Y0243146D01*
X0051598Y0243044D01*
X0051724Y0242938D01*
X0051847Y0242829D01*
X0051967Y0242717D01*
X0052085Y0242603D01*
X0052199Y0242485D01*
X0052311Y0242365D01*
X0052420Y0242242D01*
X0052526Y0242116D01*
X0052628Y0241988D01*
X0052728Y0241857D01*
X0052824Y0241724D01*
X0052917Y0241588D01*
X0053007Y0241451D01*
X0053093Y0241311D01*
X0053175Y0241169D01*
X0053255Y0241025D01*
X0053330Y0240879D01*
X0053402Y0240732D01*
X0053471Y0240582D01*
X0053536Y0240431D01*
X0053597Y0240279D01*
X0053654Y0240125D01*
X0053707Y0239969D01*
X0053757Y0239813D01*
X0053803Y0239655D01*
X0053844Y0239496D01*
X0053882Y0239336D01*
X0053916Y0239176D01*
X0053946Y0239014D01*
X0053973Y0238852D01*
X0053995Y0238689D01*
X0054013Y0238526D01*
X0054027Y0238362D01*
X0054037Y0238198D01*
X0054043Y0238034D01*
X0054045Y0237870D01*
X0054043Y0237706D01*
X0054037Y0237542D01*
X0054027Y0237378D01*
X0054013Y0237214D01*
X0053995Y0237051D01*
X0053973Y0236888D01*
X0053946Y0236726D01*
X0053916Y0236564D01*
X0053882Y0236404D01*
X0053844Y0236244D01*
X0053803Y0236085D01*
X0053757Y0235927D01*
X0053707Y0235771D01*
X0053654Y0235615D01*
X0053597Y0235461D01*
X0053536Y0235309D01*
X0053471Y0235158D01*
X0053402Y0235008D01*
X0053330Y0234861D01*
X0053255Y0234715D01*
X0053175Y0234571D01*
X0053093Y0234429D01*
X0053007Y0234289D01*
X0052917Y0234152D01*
X0052824Y0234016D01*
X0052728Y0233883D01*
X0052628Y0233752D01*
X0052526Y0233624D01*
X0052420Y0233498D01*
X0052311Y0233375D01*
X0052199Y0233255D01*
X0052085Y0233137D01*
X0051967Y0233023D01*
X0051847Y0232911D01*
X0051724Y0232802D01*
X0051598Y0232696D01*
X0051470Y0232594D01*
X0051339Y0232494D01*
X0051206Y0232398D01*
X0051070Y0232305D01*
X0050933Y0232215D01*
X0050793Y0232129D01*
X0050651Y0232047D01*
X0050507Y0231967D01*
X0050361Y0231892D01*
X0050214Y0231820D01*
X0050064Y0231751D01*
X0049913Y0231686D01*
X0049761Y0231625D01*
X0049607Y0231568D01*
X0049451Y0231515D01*
X0049295Y0231465D01*
X0049137Y0231419D01*
X0048978Y0231378D01*
X0048818Y0231340D01*
X0048658Y0231306D01*
X0048496Y0231276D01*
X0048334Y0231249D01*
X0048171Y0231227D01*
X0048008Y0231209D01*
X0047844Y0231195D01*
X0047680Y0231185D01*
X0047516Y0231179D01*
X0047352Y0231177D01*
X0047188Y0231179D01*
X0047024Y0231185D01*
X0046860Y0231195D01*
X0046696Y0231209D01*
X0046533Y0231227D01*
X0046370Y0231249D01*
X0046208Y0231276D01*
X0046046Y0231306D01*
X0045886Y0231340D01*
X0045726Y0231378D01*
X0045567Y0231419D01*
X0045409Y0231465D01*
X0045253Y0231515D01*
X0045097Y0231568D01*
X0044943Y0231625D01*
X0044791Y0231686D01*
X0044640Y0231751D01*
X0044490Y0231820D01*
X0044343Y0231892D01*
X0044197Y0231967D01*
X0044053Y0232047D01*
X0043911Y0232129D01*
X0043771Y0232215D01*
X0043634Y0232305D01*
X0043498Y0232398D01*
X0043365Y0232494D01*
X0043234Y0232594D01*
X0043106Y0232696D01*
X0042980Y0232802D01*
X0042857Y0232911D01*
X0042737Y0233023D01*
X0042619Y0233137D01*
X0042505Y0233255D01*
X0042393Y0233375D01*
X0042284Y0233498D01*
X0042178Y0233624D01*
X0042076Y0233752D01*
X0041976Y0233883D01*
X0041880Y0234016D01*
X0041787Y0234152D01*
X0041697Y0234289D01*
X0041611Y0234429D01*
X0041529Y0234571D01*
X0041449Y0234715D01*
X0041374Y0234861D01*
X0041302Y0235008D01*
X0041233Y0235158D01*
X0041168Y0235309D01*
X0041107Y0235461D01*
X0041050Y0235615D01*
X0040997Y0235771D01*
X0040947Y0235927D01*
X0040901Y0236085D01*
X0040860Y0236244D01*
X0040822Y0236404D01*
X0040788Y0236564D01*
X0040758Y0236726D01*
X0040731Y0236888D01*
X0040709Y0237051D01*
X0040691Y0237214D01*
X0040677Y0237378D01*
X0040667Y0237542D01*
X0040661Y0237706D01*
X0040659Y0237870D01*
X0033852Y0237870D02*
X0033856Y0238201D01*
X0033868Y0238532D01*
X0033889Y0238863D01*
X0033917Y0239193D01*
X0033954Y0239523D01*
X0033998Y0239851D01*
X0034051Y0240178D01*
X0034111Y0240504D01*
X0034180Y0240828D01*
X0034257Y0241150D01*
X0034341Y0241471D01*
X0034433Y0241789D01*
X0034533Y0242105D01*
X0034641Y0242418D01*
X0034757Y0242729D01*
X0034880Y0243036D01*
X0035010Y0243341D01*
X0035148Y0243642D01*
X0035293Y0243940D01*
X0035446Y0244234D01*
X0035606Y0244524D01*
X0035773Y0244810D01*
X0035946Y0245092D01*
X0036127Y0245370D01*
X0036315Y0245643D01*
X0036509Y0245912D01*
X0036709Y0246176D01*
X0036916Y0246434D01*
X0037130Y0246688D01*
X0037349Y0246936D01*
X0037575Y0247179D01*
X0037806Y0247416D01*
X0038043Y0247647D01*
X0038286Y0247873D01*
X0038534Y0248092D01*
X0038788Y0248306D01*
X0039046Y0248513D01*
X0039310Y0248713D01*
X0039579Y0248907D01*
X0039852Y0249095D01*
X0040130Y0249276D01*
X0040412Y0249449D01*
X0040698Y0249616D01*
X0040988Y0249776D01*
X0041282Y0249929D01*
X0041580Y0250074D01*
X0041881Y0250212D01*
X0042186Y0250342D01*
X0042493Y0250465D01*
X0042804Y0250581D01*
X0043117Y0250689D01*
X0043433Y0250789D01*
X0043751Y0250881D01*
X0044072Y0250965D01*
X0044394Y0251042D01*
X0044718Y0251111D01*
X0045044Y0251171D01*
X0045371Y0251224D01*
X0045699Y0251268D01*
X0046029Y0251305D01*
X0046359Y0251333D01*
X0046690Y0251354D01*
X0047021Y0251366D01*
X0047352Y0251370D01*
X0047683Y0251366D01*
X0048014Y0251354D01*
X0048345Y0251333D01*
X0048675Y0251305D01*
X0049005Y0251268D01*
X0049333Y0251224D01*
X0049660Y0251171D01*
X0049986Y0251111D01*
X0050310Y0251042D01*
X0050632Y0250965D01*
X0050953Y0250881D01*
X0051271Y0250789D01*
X0051587Y0250689D01*
X0051900Y0250581D01*
X0052211Y0250465D01*
X0052518Y0250342D01*
X0052823Y0250212D01*
X0053124Y0250074D01*
X0053422Y0249929D01*
X0053716Y0249776D01*
X0054006Y0249616D01*
X0054292Y0249449D01*
X0054574Y0249276D01*
X0054852Y0249095D01*
X0055125Y0248907D01*
X0055394Y0248713D01*
X0055658Y0248513D01*
X0055916Y0248306D01*
X0056170Y0248092D01*
X0056418Y0247873D01*
X0056661Y0247647D01*
X0056898Y0247416D01*
X0057129Y0247179D01*
X0057355Y0246936D01*
X0057574Y0246688D01*
X0057788Y0246434D01*
X0057995Y0246176D01*
X0058195Y0245912D01*
X0058389Y0245643D01*
X0058577Y0245370D01*
X0058758Y0245092D01*
X0058931Y0244810D01*
X0059098Y0244524D01*
X0059258Y0244234D01*
X0059411Y0243940D01*
X0059556Y0243642D01*
X0059694Y0243341D01*
X0059824Y0243036D01*
X0059947Y0242729D01*
X0060063Y0242418D01*
X0060171Y0242105D01*
X0060271Y0241789D01*
X0060363Y0241471D01*
X0060447Y0241150D01*
X0060524Y0240828D01*
X0060593Y0240504D01*
X0060653Y0240178D01*
X0060706Y0239851D01*
X0060750Y0239523D01*
X0060787Y0239193D01*
X0060815Y0238863D01*
X0060836Y0238532D01*
X0060848Y0238201D01*
X0060852Y0237870D01*
X0060848Y0237539D01*
X0060836Y0237208D01*
X0060815Y0236877D01*
X0060787Y0236547D01*
X0060750Y0236217D01*
X0060706Y0235889D01*
X0060653Y0235562D01*
X0060593Y0235236D01*
X0060524Y0234912D01*
X0060447Y0234590D01*
X0060363Y0234269D01*
X0060271Y0233951D01*
X0060171Y0233635D01*
X0060063Y0233322D01*
X0059947Y0233011D01*
X0059824Y0232704D01*
X0059694Y0232399D01*
X0059556Y0232098D01*
X0059411Y0231800D01*
X0059258Y0231506D01*
X0059098Y0231216D01*
X0058931Y0230930D01*
X0058758Y0230648D01*
X0058577Y0230370D01*
X0058389Y0230097D01*
X0058195Y0229828D01*
X0057995Y0229564D01*
X0057788Y0229306D01*
X0057574Y0229052D01*
X0057355Y0228804D01*
X0057129Y0228561D01*
X0056898Y0228324D01*
X0056661Y0228093D01*
X0056418Y0227867D01*
X0056170Y0227648D01*
X0055916Y0227434D01*
X0055658Y0227227D01*
X0055394Y0227027D01*
X0055125Y0226833D01*
X0054852Y0226645D01*
X0054574Y0226464D01*
X0054292Y0226291D01*
X0054006Y0226124D01*
X0053716Y0225964D01*
X0053422Y0225811D01*
X0053124Y0225666D01*
X0052823Y0225528D01*
X0052518Y0225398D01*
X0052211Y0225275D01*
X0051900Y0225159D01*
X0051587Y0225051D01*
X0051271Y0224951D01*
X0050953Y0224859D01*
X0050632Y0224775D01*
X0050310Y0224698D01*
X0049986Y0224629D01*
X0049660Y0224569D01*
X0049333Y0224516D01*
X0049005Y0224472D01*
X0048675Y0224435D01*
X0048345Y0224407D01*
X0048014Y0224386D01*
X0047683Y0224374D01*
X0047352Y0224370D01*
X0047021Y0224374D01*
X0046690Y0224386D01*
X0046359Y0224407D01*
X0046029Y0224435D01*
X0045699Y0224472D01*
X0045371Y0224516D01*
X0045044Y0224569D01*
X0044718Y0224629D01*
X0044394Y0224698D01*
X0044072Y0224775D01*
X0043751Y0224859D01*
X0043433Y0224951D01*
X0043117Y0225051D01*
X0042804Y0225159D01*
X0042493Y0225275D01*
X0042186Y0225398D01*
X0041881Y0225528D01*
X0041580Y0225666D01*
X0041282Y0225811D01*
X0040988Y0225964D01*
X0040698Y0226124D01*
X0040412Y0226291D01*
X0040130Y0226464D01*
X0039852Y0226645D01*
X0039579Y0226833D01*
X0039310Y0227027D01*
X0039046Y0227227D01*
X0038788Y0227434D01*
X0038534Y0227648D01*
X0038286Y0227867D01*
X0038043Y0228093D01*
X0037806Y0228324D01*
X0037575Y0228561D01*
X0037349Y0228804D01*
X0037130Y0229052D01*
X0036916Y0229306D01*
X0036709Y0229564D01*
X0036509Y0229828D01*
X0036315Y0230097D01*
X0036127Y0230370D01*
X0035946Y0230648D01*
X0035773Y0230930D01*
X0035606Y0231216D01*
X0035446Y0231506D01*
X0035293Y0231800D01*
X0035148Y0232098D01*
X0035010Y0232399D01*
X0034880Y0232704D01*
X0034757Y0233011D01*
X0034641Y0233322D01*
X0034533Y0233635D01*
X0034433Y0233951D01*
X0034341Y0234269D01*
X0034257Y0234590D01*
X0034180Y0234912D01*
X0034111Y0235236D01*
X0034051Y0235562D01*
X0033998Y0235889D01*
X0033954Y0236217D01*
X0033917Y0236547D01*
X0033889Y0236877D01*
X0033868Y0237208D01*
X0033856Y0237539D01*
X0033852Y0237870D01*
D15*
X0073701Y0238343D02*
X0073701Y0222004D01*
X0073701Y0214130D02*
X0073701Y0204091D01*
X0109134Y0204091D01*
X0109134Y0214130D01*
X0109134Y0222004D02*
X0109134Y0238343D01*
X0109134Y0246217D02*
X0109134Y0261217D01*
X0109134Y0261178D02*
X0109135Y0261230D01*
X0109133Y0261282D01*
X0109127Y0261335D01*
X0109117Y0261386D01*
X0109104Y0261437D01*
X0109087Y0261487D01*
X0109066Y0261535D01*
X0109043Y0261582D01*
X0109016Y0261627D01*
X0108986Y0261670D01*
X0108953Y0261710D01*
X0108917Y0261749D01*
X0108879Y0261785D01*
X0108838Y0261817D01*
X0108795Y0261847D01*
X0108750Y0261874D01*
X0108703Y0261898D01*
X0108654Y0261918D01*
X0108605Y0261935D01*
X0108554Y0261948D01*
X0108502Y0261958D01*
X0108450Y0261964D01*
X0108398Y0261966D01*
X0108345Y0261965D01*
X0108386Y0261965D02*
X0074449Y0261965D01*
X0074487Y0261965D02*
X0074435Y0261966D01*
X0074383Y0261964D01*
X0074330Y0261958D01*
X0074279Y0261948D01*
X0074228Y0261935D01*
X0074178Y0261918D01*
X0074130Y0261897D01*
X0074083Y0261874D01*
X0074038Y0261847D01*
X0073995Y0261817D01*
X0073955Y0261784D01*
X0073916Y0261748D01*
X0073880Y0261710D01*
X0073848Y0261669D01*
X0073818Y0261626D01*
X0073791Y0261581D01*
X0073767Y0261534D01*
X0073747Y0261485D01*
X0073730Y0261436D01*
X0073717Y0261385D01*
X0073707Y0261333D01*
X0073701Y0261281D01*
X0073699Y0261229D01*
X0073700Y0261176D01*
X0073701Y0261217D02*
X0073701Y0246217D01*
D16*
X0184615Y0244680D02*
X0185549Y0243746D01*
X0184615Y0244680D02*
X0187417Y0244680D01*
X0187417Y0243746D02*
X0187417Y0245614D01*
X0187380Y0237102D02*
X0187380Y0235234D01*
X0185512Y0237102D01*
X0185045Y0237102D01*
X0184578Y0236635D01*
X0184578Y0235701D01*
X0185045Y0235234D01*
X0185082Y0228002D02*
X0185549Y0228002D01*
X0186016Y0227535D01*
X0186483Y0228002D01*
X0186950Y0228002D01*
X0187417Y0227535D01*
X0187417Y0226601D01*
X0186950Y0226134D01*
X0186016Y0227068D02*
X0186016Y0227535D01*
X0185082Y0228002D02*
X0184615Y0227535D01*
X0184615Y0226601D01*
X0185082Y0226134D01*
X0211615Y0224054D02*
X0213016Y0222653D01*
X0213016Y0224521D01*
X0214417Y0224054D02*
X0211615Y0224054D01*
X0219290Y0060238D02*
X0220057Y0060238D01*
X0220057Y0057169D01*
X0219290Y0057169D02*
X0218522Y0057937D01*
X0218522Y0059471D01*
X0219290Y0060238D01*
X0221592Y0059471D02*
X0221592Y0057937D01*
X0220824Y0057169D01*
X0219290Y0057169D01*
X0218522Y0055635D02*
X0218522Y0053333D01*
X0219290Y0052565D01*
X0220824Y0052565D01*
X0221592Y0053333D01*
X0221592Y0055635D01*
X0226022Y0054100D02*
X0226790Y0054867D01*
X0227557Y0054867D01*
X0227557Y0051798D01*
X0226790Y0051798D02*
X0226022Y0052565D01*
X0226022Y0054100D01*
X0226790Y0051798D02*
X0228324Y0051798D01*
X0229092Y0052565D01*
X0229092Y0054100D01*
X0226022Y0050263D02*
X0226022Y0049496D01*
X0227557Y0047961D01*
X0227557Y0046427D02*
X0227557Y0044125D01*
X0228324Y0043357D01*
X0229092Y0044125D01*
X0229092Y0046427D01*
X0226790Y0046427D01*
X0226022Y0045659D01*
X0226022Y0044125D01*
X0226022Y0041823D02*
X0228324Y0041823D01*
X0229092Y0041055D01*
X0228324Y0040288D01*
X0229092Y0039521D01*
X0228324Y0038753D01*
X0226022Y0038753D01*
X0226022Y0037219D02*
X0226022Y0034917D01*
X0226790Y0034150D01*
X0228324Y0034150D01*
X0229092Y0034917D01*
X0229092Y0037219D01*
X0224488Y0037219D01*
X0221592Y0037219D02*
X0221592Y0034917D01*
X0220057Y0035684D02*
X0219290Y0034917D01*
X0218522Y0035684D01*
X0218522Y0037986D01*
X0220057Y0037219D02*
X0220057Y0035684D01*
X0220057Y0037219D02*
X0220824Y0037986D01*
X0221592Y0037219D01*
X0220824Y0039521D02*
X0221592Y0040288D01*
X0221592Y0041823D01*
X0220824Y0042590D01*
X0219290Y0042590D01*
X0218522Y0041823D01*
X0218522Y0040288D01*
X0219290Y0039521D01*
X0220824Y0039521D01*
X0220824Y0044125D02*
X0218522Y0044125D01*
X0220824Y0044125D02*
X0221592Y0044892D01*
X0221592Y0047194D01*
X0218522Y0047194D01*
X0218522Y0048729D02*
X0221592Y0048729D01*
X0220057Y0048729D02*
X0218522Y0050263D01*
X0218522Y0051031D01*
X0226022Y0047961D02*
X0229092Y0047961D01*
X0226022Y0032615D02*
X0226022Y0031848D01*
X0227557Y0030313D01*
X0229092Y0030313D02*
X0226022Y0030313D01*
X0226790Y0028778D02*
X0229092Y0028778D01*
X0229092Y0026476D01*
X0228324Y0025709D01*
X0227557Y0026476D01*
X0227557Y0028778D01*
X0226790Y0028778D02*
X0226022Y0028011D01*
X0226022Y0026476D01*
X0226790Y0024174D02*
X0229092Y0024174D01*
X0226790Y0024174D02*
X0226022Y0023407D01*
X0226022Y0021872D01*
X0226790Y0021105D01*
X0224488Y0021105D02*
X0229092Y0021105D01*
X0223126Y0016501D02*
X0218522Y0016501D01*
X0218522Y0018803D01*
X0219290Y0019570D01*
X0220824Y0019570D01*
X0221592Y0018803D01*
X0221592Y0016501D01*
X0220824Y0014967D02*
X0219290Y0014967D01*
X0218522Y0014199D01*
X0218522Y0012665D01*
X0219290Y0011897D01*
X0220824Y0011897D01*
X0221592Y0012665D01*
X0221592Y0014199D01*
X0220824Y0014967D01*
X0220824Y0021105D02*
X0219290Y0021105D01*
X0218522Y0021872D01*
X0218522Y0023407D01*
X0219290Y0024174D01*
X0220057Y0024174D01*
X0220057Y0021105D01*
X0220824Y0021105D02*
X0221592Y0021872D01*
X0221592Y0023407D01*
X0221592Y0025709D02*
X0218522Y0025709D01*
X0218522Y0028011D01*
X0219290Y0028778D01*
X0221592Y0028778D01*
D17*
X0074144Y0064809D03*
X0071191Y0064809D03*
X0049144Y0064809D03*
X0046191Y0064809D03*
D18*
X0047667Y0064809D03*
X0072667Y0064809D03*
D19*
X0187292Y0044673D02*
X0187292Y0040873D01*
X0191392Y0040073D01*
X0191692Y0038973D01*
X0192092Y0038173D01*
X0192692Y0036973D01*
X0190292Y0033573D01*
X0190892Y0032873D01*
X0191592Y0032173D01*
X0192292Y0031473D01*
X0192992Y0030873D01*
X0196392Y0033173D01*
X0197292Y0032673D01*
X0198192Y0032273D01*
X0198992Y0031973D01*
X0199792Y0031673D01*
X0200392Y0027673D01*
X0201592Y0027573D01*
X0204192Y0027573D01*
X0204892Y0031773D01*
X0205892Y0031973D01*
X0206892Y0032373D01*
X0207792Y0032773D01*
X0208592Y0033173D01*
X0211792Y0030773D01*
X0212492Y0031373D01*
X0213192Y0032073D01*
X0213892Y0032773D01*
X0214392Y0033373D01*
X0212092Y0036773D01*
X0212492Y0037473D01*
X0212792Y0038173D01*
X0213092Y0038773D01*
X0206292Y0041173D01*
X0205956Y0040470D01*
X0205495Y0039841D01*
X0204925Y0039309D01*
X0204266Y0038891D01*
X0203541Y0038604D01*
X0202775Y0038456D01*
X0201996Y0038453D01*
X0201229Y0038595D01*
X0200502Y0038877D01*
X0199840Y0039289D01*
X0199266Y0039817D01*
X0198800Y0040443D01*
X0198459Y0041144D01*
X0198254Y0041896D01*
X0198192Y0042673D01*
X0198217Y0043464D01*
X0198390Y0044236D01*
X0198705Y0044961D01*
X0199150Y0045615D01*
X0199710Y0046174D01*
X0200364Y0046618D01*
X0201090Y0046931D01*
X0201863Y0047103D01*
X0202653Y0047126D01*
X0203434Y0047001D01*
X0204178Y0046732D01*
X0204858Y0046329D01*
X0205450Y0045805D01*
X0205934Y0045179D01*
X0206292Y0044473D01*
X0212992Y0047073D01*
X0212592Y0047773D01*
X0212192Y0048473D01*
X0211792Y0049173D01*
X0214192Y0052473D01*
X0213492Y0053173D01*
X0212892Y0053773D01*
X0212192Y0054373D01*
X0211492Y0054973D01*
X0207892Y0052573D01*
X0207092Y0053073D01*
X0206192Y0053373D01*
X0205292Y0053673D01*
X0204592Y0053873D01*
X0203892Y0057873D01*
X0202792Y0057973D01*
X0201892Y0057973D01*
X0201092Y0057873D01*
X0200092Y0057773D01*
X0199392Y0053673D01*
X0198292Y0053273D01*
X0197692Y0053073D01*
X0196992Y0052673D01*
X0196192Y0052173D01*
X0192992Y0054673D01*
X0192292Y0054073D01*
X0191592Y0053373D01*
X0190892Y0052573D01*
X0190192Y0051773D01*
X0192592Y0048373D01*
X0192192Y0047473D01*
X0191792Y0046673D01*
X0191592Y0045973D01*
X0191392Y0045273D01*
X0187292Y0044673D01*
X0187292Y0044528D02*
X0198517Y0044528D01*
X0198603Y0044727D02*
X0187656Y0044727D01*
X0187292Y0044330D02*
X0198431Y0044330D01*
X0198367Y0044131D02*
X0187292Y0044131D01*
X0187292Y0043933D02*
X0198322Y0043933D01*
X0198278Y0043734D02*
X0187292Y0043734D01*
X0187292Y0043535D02*
X0198233Y0043535D01*
X0198213Y0043337D02*
X0187292Y0043337D01*
X0187292Y0043138D02*
X0198207Y0043138D01*
X0198200Y0042940D02*
X0187292Y0042940D01*
X0187292Y0042741D02*
X0198194Y0042741D01*
X0198202Y0042543D02*
X0187292Y0042543D01*
X0187292Y0042344D02*
X0198218Y0042344D01*
X0198234Y0042146D02*
X0187292Y0042146D01*
X0187292Y0041947D02*
X0198250Y0041947D01*
X0198294Y0041749D02*
X0187292Y0041749D01*
X0187292Y0041550D02*
X0198348Y0041550D01*
X0198402Y0041352D02*
X0187292Y0041352D01*
X0187292Y0041153D02*
X0198456Y0041153D01*
X0198551Y0040955D02*
X0187292Y0040955D01*
X0187891Y0040756D02*
X0198648Y0040756D01*
X0198744Y0040558D02*
X0188908Y0040558D01*
X0189926Y0040359D02*
X0198862Y0040359D01*
X0199010Y0040161D02*
X0190943Y0040161D01*
X0191422Y0039962D02*
X0199158Y0039962D01*
X0199324Y0039764D02*
X0191476Y0039764D01*
X0191530Y0039565D02*
X0199540Y0039565D01*
X0199756Y0039367D02*
X0191584Y0039367D01*
X0191639Y0039168D02*
X0200035Y0039168D01*
X0200353Y0038970D02*
X0191693Y0038970D01*
X0191793Y0038771D02*
X0200775Y0038771D01*
X0201351Y0038573D02*
X0191892Y0038573D01*
X0191991Y0038374D02*
X0212892Y0038374D01*
X0212793Y0038176D02*
X0192091Y0038176D01*
X0192190Y0037977D02*
X0212708Y0037977D01*
X0212623Y0037779D02*
X0192289Y0037779D01*
X0192388Y0037580D02*
X0212538Y0037580D01*
X0212439Y0037382D02*
X0192488Y0037382D01*
X0192587Y0037183D02*
X0212326Y0037183D01*
X0212213Y0036985D02*
X0192686Y0036985D01*
X0192560Y0036786D02*
X0212099Y0036786D01*
X0212217Y0036588D02*
X0192420Y0036588D01*
X0192279Y0036389D02*
X0212352Y0036389D01*
X0212486Y0036191D02*
X0192139Y0036191D01*
X0191999Y0035992D02*
X0212620Y0035992D01*
X0212754Y0035794D02*
X0191859Y0035794D01*
X0191719Y0035595D02*
X0212889Y0035595D01*
X0213023Y0035397D02*
X0191579Y0035397D01*
X0191439Y0035198D02*
X0213157Y0035198D01*
X0213292Y0035000D02*
X0191299Y0035000D01*
X0191158Y0034801D02*
X0213426Y0034801D01*
X0213560Y0034602D02*
X0191018Y0034602D01*
X0190878Y0034404D02*
X0213694Y0034404D01*
X0213829Y0034205D02*
X0190738Y0034205D01*
X0190598Y0034007D02*
X0213963Y0034007D01*
X0214097Y0033808D02*
X0190458Y0033808D01*
X0190318Y0033610D02*
X0214232Y0033610D01*
X0214366Y0033411D02*
X0190430Y0033411D01*
X0190601Y0033213D02*
X0214258Y0033213D01*
X0214093Y0033014D02*
X0208804Y0033014D01*
X0209068Y0032816D02*
X0213927Y0032816D01*
X0213736Y0032617D02*
X0209333Y0032617D01*
X0209598Y0032419D02*
X0213537Y0032419D01*
X0213339Y0032220D02*
X0209862Y0032220D01*
X0210127Y0032022D02*
X0213140Y0032022D01*
X0212942Y0031823D02*
X0210392Y0031823D01*
X0210656Y0031625D02*
X0212743Y0031625D01*
X0212545Y0031426D02*
X0210921Y0031426D01*
X0211186Y0031228D02*
X0212322Y0031228D01*
X0212090Y0031029D02*
X0211450Y0031029D01*
X0211715Y0030831D02*
X0211859Y0030831D01*
X0208274Y0033014D02*
X0196678Y0033014D01*
X0197035Y0032816D02*
X0207877Y0032816D01*
X0207441Y0032617D02*
X0197417Y0032617D01*
X0197864Y0032419D02*
X0206994Y0032419D01*
X0206510Y0032220D02*
X0198333Y0032220D01*
X0198862Y0032022D02*
X0206013Y0032022D01*
X0205142Y0031823D02*
X0199391Y0031823D01*
X0199799Y0031625D02*
X0204867Y0031625D01*
X0204834Y0031426D02*
X0199829Y0031426D01*
X0199859Y0031228D02*
X0204801Y0031228D01*
X0204768Y0031029D02*
X0199888Y0031029D01*
X0199918Y0030831D02*
X0204735Y0030831D01*
X0204702Y0030632D02*
X0199948Y0030632D01*
X0199978Y0030434D02*
X0204668Y0030434D01*
X0204635Y0030235D02*
X0200007Y0030235D01*
X0200037Y0030037D02*
X0204602Y0030037D01*
X0204569Y0029838D02*
X0200067Y0029838D01*
X0200097Y0029640D02*
X0204536Y0029640D01*
X0204503Y0029441D02*
X0200127Y0029441D01*
X0200156Y0029243D02*
X0204470Y0029243D01*
X0204437Y0029044D02*
X0200186Y0029044D01*
X0200216Y0028846D02*
X0204404Y0028846D01*
X0204371Y0028647D02*
X0200246Y0028647D01*
X0200275Y0028449D02*
X0204338Y0028449D01*
X0204305Y0028250D02*
X0200305Y0028250D01*
X0200335Y0028052D02*
X0204271Y0028052D01*
X0204238Y0027853D02*
X0200365Y0027853D01*
X0200615Y0027655D02*
X0204205Y0027655D01*
X0196157Y0033014D02*
X0190771Y0033014D01*
X0190949Y0032816D02*
X0195863Y0032816D01*
X0195570Y0032617D02*
X0191148Y0032617D01*
X0191346Y0032419D02*
X0195277Y0032419D01*
X0194983Y0032220D02*
X0191545Y0032220D01*
X0191743Y0032022D02*
X0194690Y0032022D01*
X0194396Y0031823D02*
X0191942Y0031823D01*
X0192140Y0031625D02*
X0194103Y0031625D01*
X0193809Y0031426D02*
X0192346Y0031426D01*
X0192578Y0031228D02*
X0193516Y0031228D01*
X0193222Y0031029D02*
X0192810Y0031029D01*
X0203379Y0038573D02*
X0212991Y0038573D01*
X0213091Y0038771D02*
X0203963Y0038771D01*
X0204390Y0038970D02*
X0212535Y0038970D01*
X0211973Y0039168D02*
X0204703Y0039168D01*
X0204987Y0039367D02*
X0211410Y0039367D01*
X0210848Y0039565D02*
X0205200Y0039565D01*
X0205412Y0039764D02*
X0210285Y0039764D01*
X0209723Y0039962D02*
X0205584Y0039962D01*
X0205729Y0040161D02*
X0209160Y0040161D01*
X0208598Y0040359D02*
X0205875Y0040359D01*
X0205998Y0040558D02*
X0208035Y0040558D01*
X0207473Y0040756D02*
X0206093Y0040756D01*
X0206187Y0040955D02*
X0206910Y0040955D01*
X0206348Y0041153D02*
X0206282Y0041153D01*
X0206264Y0044528D02*
X0206433Y0044528D01*
X0206163Y0044727D02*
X0206945Y0044727D01*
X0207456Y0044925D02*
X0206063Y0044925D01*
X0205962Y0045124D02*
X0207968Y0045124D01*
X0208479Y0045322D02*
X0205823Y0045322D01*
X0205670Y0045521D02*
X0208991Y0045521D01*
X0209502Y0045719D02*
X0205516Y0045719D01*
X0205323Y0045918D02*
X0210014Y0045918D01*
X0210525Y0046116D02*
X0205098Y0046116D01*
X0204874Y0046315D02*
X0211037Y0046315D01*
X0211548Y0046513D02*
X0204547Y0046513D01*
X0204213Y0046712D02*
X0212060Y0046712D01*
X0212572Y0046910D02*
X0203686Y0046910D01*
X0202763Y0047109D02*
X0212971Y0047109D01*
X0212858Y0047307D02*
X0192109Y0047307D01*
X0192206Y0047506D02*
X0212745Y0047506D01*
X0212631Y0047704D02*
X0192294Y0047704D01*
X0192383Y0047903D02*
X0212518Y0047903D01*
X0212404Y0048101D02*
X0192471Y0048101D01*
X0192559Y0048300D02*
X0212291Y0048300D01*
X0212177Y0048498D02*
X0192503Y0048498D01*
X0192363Y0048697D02*
X0212064Y0048697D01*
X0211951Y0048895D02*
X0192223Y0048895D01*
X0192083Y0049094D02*
X0211837Y0049094D01*
X0211878Y0049292D02*
X0191943Y0049292D01*
X0191803Y0049491D02*
X0212023Y0049491D01*
X0212167Y0049689D02*
X0191663Y0049689D01*
X0191523Y0049888D02*
X0212311Y0049888D01*
X0212456Y0050086D02*
X0191382Y0050086D01*
X0191242Y0050285D02*
X0212600Y0050285D01*
X0212745Y0050483D02*
X0191102Y0050483D01*
X0190962Y0050682D02*
X0212889Y0050682D01*
X0213033Y0050880D02*
X0190822Y0050880D01*
X0190682Y0051079D02*
X0213178Y0051079D01*
X0213322Y0051277D02*
X0190542Y0051277D01*
X0190402Y0051476D02*
X0213466Y0051476D01*
X0213611Y0051674D02*
X0190261Y0051674D01*
X0190279Y0051873D02*
X0213755Y0051873D01*
X0213900Y0052071D02*
X0190453Y0052071D01*
X0190626Y0052270D02*
X0196068Y0052270D01*
X0196347Y0052270D02*
X0214044Y0052270D01*
X0214188Y0052469D02*
X0196664Y0052469D01*
X0196982Y0052667D02*
X0207742Y0052667D01*
X0208032Y0052667D02*
X0213998Y0052667D01*
X0213799Y0052866D02*
X0208330Y0052866D01*
X0208628Y0053064D02*
X0213601Y0053064D01*
X0213402Y0053263D02*
X0208926Y0053263D01*
X0209223Y0053461D02*
X0213204Y0053461D01*
X0213005Y0053660D02*
X0209521Y0053660D01*
X0209819Y0053858D02*
X0212793Y0053858D01*
X0212561Y0054057D02*
X0210117Y0054057D01*
X0210415Y0054255D02*
X0212330Y0054255D01*
X0212098Y0054454D02*
X0210712Y0054454D01*
X0211010Y0054652D02*
X0211866Y0054652D01*
X0211635Y0054851D02*
X0211308Y0054851D01*
X0207424Y0052866D02*
X0197328Y0052866D01*
X0197676Y0053064D02*
X0207106Y0053064D01*
X0206524Y0053263D02*
X0198260Y0053263D01*
X0198808Y0053461D02*
X0205928Y0053461D01*
X0205333Y0053660D02*
X0199354Y0053660D01*
X0199423Y0053858D02*
X0204645Y0053858D01*
X0204560Y0054057D02*
X0199457Y0054057D01*
X0199491Y0054255D02*
X0204525Y0054255D01*
X0204490Y0054454D02*
X0199525Y0054454D01*
X0199559Y0054652D02*
X0204455Y0054652D01*
X0204421Y0054851D02*
X0199593Y0054851D01*
X0199627Y0055049D02*
X0204386Y0055049D01*
X0204351Y0055248D02*
X0199661Y0055248D01*
X0199694Y0055446D02*
X0204316Y0055446D01*
X0204282Y0055645D02*
X0199728Y0055645D01*
X0199762Y0055843D02*
X0204247Y0055843D01*
X0204212Y0056042D02*
X0199796Y0056042D01*
X0199830Y0056240D02*
X0204178Y0056240D01*
X0204143Y0056439D02*
X0199864Y0056439D01*
X0199898Y0056637D02*
X0204108Y0056637D01*
X0204073Y0056836D02*
X0199932Y0056836D01*
X0199966Y0057034D02*
X0204039Y0057034D01*
X0204004Y0057233D02*
X0199999Y0057233D01*
X0200033Y0057431D02*
X0203969Y0057431D01*
X0203934Y0057630D02*
X0200067Y0057630D01*
X0200643Y0057828D02*
X0203900Y0057828D01*
X0195814Y0052469D02*
X0190800Y0052469D01*
X0190974Y0052667D02*
X0195560Y0052667D01*
X0195306Y0052866D02*
X0191148Y0052866D01*
X0191321Y0053064D02*
X0195052Y0053064D01*
X0194797Y0053263D02*
X0191495Y0053263D01*
X0191680Y0053461D02*
X0194543Y0053461D01*
X0194289Y0053660D02*
X0191878Y0053660D01*
X0192077Y0053858D02*
X0194035Y0053858D01*
X0193781Y0054057D02*
X0192275Y0054057D01*
X0192504Y0054255D02*
X0193527Y0054255D01*
X0193273Y0054454D02*
X0192736Y0054454D01*
X0192967Y0054652D02*
X0193019Y0054652D01*
X0192009Y0047109D02*
X0202068Y0047109D01*
X0201042Y0046910D02*
X0191910Y0046910D01*
X0191811Y0046712D02*
X0200582Y0046712D01*
X0200210Y0046513D02*
X0191746Y0046513D01*
X0191689Y0046315D02*
X0199917Y0046315D01*
X0199652Y0046116D02*
X0191633Y0046116D01*
X0191576Y0045918D02*
X0199453Y0045918D01*
X0199254Y0045719D02*
X0191519Y0045719D01*
X0191462Y0045521D02*
X0199086Y0045521D01*
X0198950Y0045322D02*
X0191406Y0045322D01*
X0190369Y0045124D02*
X0198815Y0045124D01*
X0198689Y0044925D02*
X0189013Y0044925D01*
M02*
