G75*
%MOIN*%
%OFA0B0*%
%FSLAX25Y25*%
%IPPOS*%
%LPD*%
%AMOC8*
5,1,8,0,0,1.08239X$1,22.5*
%
%ADD10C,0.00000*%
D10*
X0027667Y0001650D02*
X0027667Y0257555D01*
X0283573Y0257555D01*
X0283573Y0001650D01*
X0027667Y0001650D01*
X0163160Y0112752D02*
X0163162Y0112862D01*
X0163168Y0112972D01*
X0163178Y0113082D01*
X0163192Y0113191D01*
X0163210Y0113300D01*
X0163231Y0113408D01*
X0163257Y0113515D01*
X0163286Y0113621D01*
X0163320Y0113726D01*
X0163357Y0113830D01*
X0163398Y0113932D01*
X0163442Y0114033D01*
X0163490Y0114132D01*
X0163542Y0114230D01*
X0163597Y0114325D01*
X0163655Y0114418D01*
X0163717Y0114509D01*
X0163782Y0114598D01*
X0163850Y0114685D01*
X0163922Y0114769D01*
X0163996Y0114850D01*
X0164073Y0114929D01*
X0164153Y0115005D01*
X0164236Y0115077D01*
X0164321Y0115147D01*
X0164409Y0115214D01*
X0164499Y0115277D01*
X0164591Y0115337D01*
X0164685Y0115394D01*
X0164782Y0115448D01*
X0164880Y0115497D01*
X0164980Y0115544D01*
X0165082Y0115586D01*
X0165185Y0115625D01*
X0165289Y0115660D01*
X0165395Y0115692D01*
X0165501Y0115719D01*
X0165609Y0115743D01*
X0165717Y0115763D01*
X0165826Y0115779D01*
X0165936Y0115791D01*
X0166046Y0115799D01*
X0166156Y0115803D01*
X0166266Y0115803D01*
X0166376Y0115799D01*
X0166486Y0115791D01*
X0166596Y0115779D01*
X0166705Y0115763D01*
X0166813Y0115743D01*
X0166921Y0115719D01*
X0167027Y0115692D01*
X0167133Y0115660D01*
X0167237Y0115625D01*
X0167340Y0115586D01*
X0167442Y0115544D01*
X0167542Y0115497D01*
X0167640Y0115448D01*
X0167736Y0115394D01*
X0167831Y0115337D01*
X0167923Y0115277D01*
X0168013Y0115214D01*
X0168101Y0115147D01*
X0168186Y0115077D01*
X0168269Y0115005D01*
X0168349Y0114929D01*
X0168426Y0114850D01*
X0168500Y0114769D01*
X0168572Y0114685D01*
X0168640Y0114598D01*
X0168705Y0114509D01*
X0168767Y0114418D01*
X0168825Y0114325D01*
X0168880Y0114230D01*
X0168932Y0114132D01*
X0168980Y0114033D01*
X0169024Y0113932D01*
X0169065Y0113830D01*
X0169102Y0113726D01*
X0169136Y0113621D01*
X0169165Y0113515D01*
X0169191Y0113408D01*
X0169212Y0113300D01*
X0169230Y0113191D01*
X0169244Y0113082D01*
X0169254Y0112972D01*
X0169260Y0112862D01*
X0169262Y0112752D01*
X0169260Y0112642D01*
X0169254Y0112532D01*
X0169244Y0112422D01*
X0169230Y0112313D01*
X0169212Y0112204D01*
X0169191Y0112096D01*
X0169165Y0111989D01*
X0169136Y0111883D01*
X0169102Y0111778D01*
X0169065Y0111674D01*
X0169024Y0111572D01*
X0168980Y0111471D01*
X0168932Y0111372D01*
X0168880Y0111274D01*
X0168825Y0111179D01*
X0168767Y0111086D01*
X0168705Y0110995D01*
X0168640Y0110906D01*
X0168572Y0110819D01*
X0168500Y0110735D01*
X0168426Y0110654D01*
X0168349Y0110575D01*
X0168269Y0110499D01*
X0168186Y0110427D01*
X0168101Y0110357D01*
X0168013Y0110290D01*
X0167923Y0110227D01*
X0167831Y0110167D01*
X0167737Y0110110D01*
X0167640Y0110056D01*
X0167542Y0110007D01*
X0167442Y0109960D01*
X0167340Y0109918D01*
X0167237Y0109879D01*
X0167133Y0109844D01*
X0167027Y0109812D01*
X0166921Y0109785D01*
X0166813Y0109761D01*
X0166705Y0109741D01*
X0166596Y0109725D01*
X0166486Y0109713D01*
X0166376Y0109705D01*
X0166266Y0109701D01*
X0166156Y0109701D01*
X0166046Y0109705D01*
X0165936Y0109713D01*
X0165826Y0109725D01*
X0165717Y0109741D01*
X0165609Y0109761D01*
X0165501Y0109785D01*
X0165395Y0109812D01*
X0165289Y0109844D01*
X0165185Y0109879D01*
X0165082Y0109918D01*
X0164980Y0109960D01*
X0164880Y0110007D01*
X0164782Y0110056D01*
X0164685Y0110110D01*
X0164591Y0110167D01*
X0164499Y0110227D01*
X0164409Y0110290D01*
X0164321Y0110357D01*
X0164236Y0110427D01*
X0164153Y0110499D01*
X0164073Y0110575D01*
X0163996Y0110654D01*
X0163922Y0110735D01*
X0163850Y0110819D01*
X0163782Y0110906D01*
X0163717Y0110995D01*
X0163655Y0111086D01*
X0163597Y0111179D01*
X0163542Y0111274D01*
X0163490Y0111372D01*
X0163442Y0111471D01*
X0163398Y0111572D01*
X0163357Y0111674D01*
X0163320Y0111778D01*
X0163286Y0111883D01*
X0163257Y0111989D01*
X0163231Y0112096D01*
X0163210Y0112204D01*
X0163192Y0112313D01*
X0163178Y0112422D01*
X0163168Y0112532D01*
X0163162Y0112642D01*
X0163160Y0112752D01*
X0163160Y0150547D02*
X0163162Y0150657D01*
X0163168Y0150767D01*
X0163178Y0150877D01*
X0163192Y0150986D01*
X0163210Y0151095D01*
X0163231Y0151203D01*
X0163257Y0151310D01*
X0163286Y0151416D01*
X0163320Y0151521D01*
X0163357Y0151625D01*
X0163398Y0151727D01*
X0163442Y0151828D01*
X0163490Y0151927D01*
X0163542Y0152025D01*
X0163597Y0152120D01*
X0163655Y0152213D01*
X0163717Y0152304D01*
X0163782Y0152393D01*
X0163850Y0152480D01*
X0163922Y0152564D01*
X0163996Y0152645D01*
X0164073Y0152724D01*
X0164153Y0152800D01*
X0164236Y0152872D01*
X0164321Y0152942D01*
X0164409Y0153009D01*
X0164499Y0153072D01*
X0164591Y0153132D01*
X0164685Y0153189D01*
X0164782Y0153243D01*
X0164880Y0153292D01*
X0164980Y0153339D01*
X0165082Y0153381D01*
X0165185Y0153420D01*
X0165289Y0153455D01*
X0165395Y0153487D01*
X0165501Y0153514D01*
X0165609Y0153538D01*
X0165717Y0153558D01*
X0165826Y0153574D01*
X0165936Y0153586D01*
X0166046Y0153594D01*
X0166156Y0153598D01*
X0166266Y0153598D01*
X0166376Y0153594D01*
X0166486Y0153586D01*
X0166596Y0153574D01*
X0166705Y0153558D01*
X0166813Y0153538D01*
X0166921Y0153514D01*
X0167027Y0153487D01*
X0167133Y0153455D01*
X0167237Y0153420D01*
X0167340Y0153381D01*
X0167442Y0153339D01*
X0167542Y0153292D01*
X0167640Y0153243D01*
X0167736Y0153189D01*
X0167831Y0153132D01*
X0167923Y0153072D01*
X0168013Y0153009D01*
X0168101Y0152942D01*
X0168186Y0152872D01*
X0168269Y0152800D01*
X0168349Y0152724D01*
X0168426Y0152645D01*
X0168500Y0152564D01*
X0168572Y0152480D01*
X0168640Y0152393D01*
X0168705Y0152304D01*
X0168767Y0152213D01*
X0168825Y0152120D01*
X0168880Y0152025D01*
X0168932Y0151927D01*
X0168980Y0151828D01*
X0169024Y0151727D01*
X0169065Y0151625D01*
X0169102Y0151521D01*
X0169136Y0151416D01*
X0169165Y0151310D01*
X0169191Y0151203D01*
X0169212Y0151095D01*
X0169230Y0150986D01*
X0169244Y0150877D01*
X0169254Y0150767D01*
X0169260Y0150657D01*
X0169262Y0150547D01*
X0169260Y0150437D01*
X0169254Y0150327D01*
X0169244Y0150217D01*
X0169230Y0150108D01*
X0169212Y0149999D01*
X0169191Y0149891D01*
X0169165Y0149784D01*
X0169136Y0149678D01*
X0169102Y0149573D01*
X0169065Y0149469D01*
X0169024Y0149367D01*
X0168980Y0149266D01*
X0168932Y0149167D01*
X0168880Y0149069D01*
X0168825Y0148974D01*
X0168767Y0148881D01*
X0168705Y0148790D01*
X0168640Y0148701D01*
X0168572Y0148614D01*
X0168500Y0148530D01*
X0168426Y0148449D01*
X0168349Y0148370D01*
X0168269Y0148294D01*
X0168186Y0148222D01*
X0168101Y0148152D01*
X0168013Y0148085D01*
X0167923Y0148022D01*
X0167831Y0147962D01*
X0167737Y0147905D01*
X0167640Y0147851D01*
X0167542Y0147802D01*
X0167442Y0147755D01*
X0167340Y0147713D01*
X0167237Y0147674D01*
X0167133Y0147639D01*
X0167027Y0147607D01*
X0166921Y0147580D01*
X0166813Y0147556D01*
X0166705Y0147536D01*
X0166596Y0147520D01*
X0166486Y0147508D01*
X0166376Y0147500D01*
X0166266Y0147496D01*
X0166156Y0147496D01*
X0166046Y0147500D01*
X0165936Y0147508D01*
X0165826Y0147520D01*
X0165717Y0147536D01*
X0165609Y0147556D01*
X0165501Y0147580D01*
X0165395Y0147607D01*
X0165289Y0147639D01*
X0165185Y0147674D01*
X0165082Y0147713D01*
X0164980Y0147755D01*
X0164880Y0147802D01*
X0164782Y0147851D01*
X0164685Y0147905D01*
X0164591Y0147962D01*
X0164499Y0148022D01*
X0164409Y0148085D01*
X0164321Y0148152D01*
X0164236Y0148222D01*
X0164153Y0148294D01*
X0164073Y0148370D01*
X0163996Y0148449D01*
X0163922Y0148530D01*
X0163850Y0148614D01*
X0163782Y0148701D01*
X0163717Y0148790D01*
X0163655Y0148881D01*
X0163597Y0148974D01*
X0163542Y0149069D01*
X0163490Y0149167D01*
X0163442Y0149266D01*
X0163398Y0149367D01*
X0163357Y0149469D01*
X0163320Y0149573D01*
X0163286Y0149678D01*
X0163257Y0149784D01*
X0163231Y0149891D01*
X0163210Y0149999D01*
X0163192Y0150108D01*
X0163178Y0150217D01*
X0163168Y0150327D01*
X0163162Y0150437D01*
X0163160Y0150547D01*
X0087874Y0224563D02*
X0087876Y0224681D01*
X0087882Y0224800D01*
X0087892Y0224918D01*
X0087906Y0225035D01*
X0087923Y0225152D01*
X0087945Y0225269D01*
X0087971Y0225384D01*
X0088000Y0225499D01*
X0088033Y0225613D01*
X0088070Y0225725D01*
X0088111Y0225836D01*
X0088155Y0225946D01*
X0088203Y0226054D01*
X0088255Y0226161D01*
X0088310Y0226266D01*
X0088369Y0226369D01*
X0088431Y0226469D01*
X0088496Y0226568D01*
X0088565Y0226665D01*
X0088636Y0226759D01*
X0088711Y0226850D01*
X0088789Y0226940D01*
X0088870Y0227026D01*
X0088954Y0227110D01*
X0089040Y0227191D01*
X0089130Y0227269D01*
X0089221Y0227344D01*
X0089315Y0227415D01*
X0089412Y0227484D01*
X0089511Y0227549D01*
X0089611Y0227611D01*
X0089714Y0227670D01*
X0089819Y0227725D01*
X0089926Y0227777D01*
X0090034Y0227825D01*
X0090144Y0227869D01*
X0090255Y0227910D01*
X0090367Y0227947D01*
X0090481Y0227980D01*
X0090596Y0228009D01*
X0090711Y0228035D01*
X0090828Y0228057D01*
X0090945Y0228074D01*
X0091062Y0228088D01*
X0091180Y0228098D01*
X0091299Y0228104D01*
X0091417Y0228106D01*
X0091535Y0228104D01*
X0091654Y0228098D01*
X0091772Y0228088D01*
X0091889Y0228074D01*
X0092006Y0228057D01*
X0092123Y0228035D01*
X0092238Y0228009D01*
X0092353Y0227980D01*
X0092467Y0227947D01*
X0092579Y0227910D01*
X0092690Y0227869D01*
X0092800Y0227825D01*
X0092908Y0227777D01*
X0093015Y0227725D01*
X0093120Y0227670D01*
X0093223Y0227611D01*
X0093323Y0227549D01*
X0093422Y0227484D01*
X0093519Y0227415D01*
X0093613Y0227344D01*
X0093704Y0227269D01*
X0093794Y0227191D01*
X0093880Y0227110D01*
X0093964Y0227026D01*
X0094045Y0226940D01*
X0094123Y0226850D01*
X0094198Y0226759D01*
X0094269Y0226665D01*
X0094338Y0226568D01*
X0094403Y0226469D01*
X0094465Y0226369D01*
X0094524Y0226266D01*
X0094579Y0226161D01*
X0094631Y0226054D01*
X0094679Y0225946D01*
X0094723Y0225836D01*
X0094764Y0225725D01*
X0094801Y0225613D01*
X0094834Y0225499D01*
X0094863Y0225384D01*
X0094889Y0225269D01*
X0094911Y0225152D01*
X0094928Y0225035D01*
X0094942Y0224918D01*
X0094952Y0224800D01*
X0094958Y0224681D01*
X0094960Y0224563D01*
X0094958Y0224445D01*
X0094952Y0224326D01*
X0094942Y0224208D01*
X0094928Y0224091D01*
X0094911Y0223974D01*
X0094889Y0223857D01*
X0094863Y0223742D01*
X0094834Y0223627D01*
X0094801Y0223513D01*
X0094764Y0223401D01*
X0094723Y0223290D01*
X0094679Y0223180D01*
X0094631Y0223072D01*
X0094579Y0222965D01*
X0094524Y0222860D01*
X0094465Y0222757D01*
X0094403Y0222657D01*
X0094338Y0222558D01*
X0094269Y0222461D01*
X0094198Y0222367D01*
X0094123Y0222276D01*
X0094045Y0222186D01*
X0093964Y0222100D01*
X0093880Y0222016D01*
X0093794Y0221935D01*
X0093704Y0221857D01*
X0093613Y0221782D01*
X0093519Y0221711D01*
X0093422Y0221642D01*
X0093323Y0221577D01*
X0093223Y0221515D01*
X0093120Y0221456D01*
X0093015Y0221401D01*
X0092908Y0221349D01*
X0092800Y0221301D01*
X0092690Y0221257D01*
X0092579Y0221216D01*
X0092467Y0221179D01*
X0092353Y0221146D01*
X0092238Y0221117D01*
X0092123Y0221091D01*
X0092006Y0221069D01*
X0091889Y0221052D01*
X0091772Y0221038D01*
X0091654Y0221028D01*
X0091535Y0221022D01*
X0091417Y0221020D01*
X0091299Y0221022D01*
X0091180Y0221028D01*
X0091062Y0221038D01*
X0090945Y0221052D01*
X0090828Y0221069D01*
X0090711Y0221091D01*
X0090596Y0221117D01*
X0090481Y0221146D01*
X0090367Y0221179D01*
X0090255Y0221216D01*
X0090144Y0221257D01*
X0090034Y0221301D01*
X0089926Y0221349D01*
X0089819Y0221401D01*
X0089714Y0221456D01*
X0089611Y0221515D01*
X0089511Y0221577D01*
X0089412Y0221642D01*
X0089315Y0221711D01*
X0089221Y0221782D01*
X0089130Y0221857D01*
X0089040Y0221935D01*
X0088954Y0222016D01*
X0088870Y0222100D01*
X0088789Y0222186D01*
X0088711Y0222276D01*
X0088636Y0222367D01*
X0088565Y0222461D01*
X0088496Y0222558D01*
X0088431Y0222657D01*
X0088369Y0222757D01*
X0088310Y0222860D01*
X0088255Y0222965D01*
X0088203Y0223072D01*
X0088155Y0223180D01*
X0088111Y0223290D01*
X0088070Y0223401D01*
X0088033Y0223513D01*
X0088000Y0223627D01*
X0087971Y0223742D01*
X0087945Y0223857D01*
X0087923Y0223974D01*
X0087906Y0224091D01*
X0087892Y0224208D01*
X0087882Y0224326D01*
X0087876Y0224445D01*
X0087874Y0224563D01*
X0088267Y0242280D02*
X0088269Y0242392D01*
X0088275Y0242503D01*
X0088285Y0242615D01*
X0088299Y0242726D01*
X0088316Y0242836D01*
X0088338Y0242946D01*
X0088364Y0243055D01*
X0088393Y0243163D01*
X0088426Y0243269D01*
X0088463Y0243375D01*
X0088504Y0243479D01*
X0088549Y0243582D01*
X0088597Y0243683D01*
X0088648Y0243782D01*
X0088703Y0243879D01*
X0088762Y0243974D01*
X0088823Y0244068D01*
X0088888Y0244159D01*
X0088957Y0244247D01*
X0089028Y0244333D01*
X0089102Y0244417D01*
X0089180Y0244497D01*
X0089260Y0244575D01*
X0089343Y0244651D01*
X0089428Y0244723D01*
X0089516Y0244792D01*
X0089606Y0244858D01*
X0089699Y0244920D01*
X0089794Y0244980D01*
X0089891Y0245036D01*
X0089989Y0245088D01*
X0090090Y0245137D01*
X0090192Y0245182D01*
X0090296Y0245224D01*
X0090401Y0245262D01*
X0090508Y0245296D01*
X0090615Y0245326D01*
X0090724Y0245353D01*
X0090833Y0245375D01*
X0090944Y0245394D01*
X0091054Y0245409D01*
X0091166Y0245420D01*
X0091277Y0245427D01*
X0091389Y0245430D01*
X0091501Y0245429D01*
X0091613Y0245424D01*
X0091724Y0245415D01*
X0091835Y0245402D01*
X0091946Y0245385D01*
X0092056Y0245365D01*
X0092165Y0245340D01*
X0092273Y0245312D01*
X0092380Y0245279D01*
X0092486Y0245243D01*
X0092590Y0245203D01*
X0092693Y0245160D01*
X0092795Y0245113D01*
X0092894Y0245062D01*
X0092992Y0245008D01*
X0093088Y0244950D01*
X0093182Y0244889D01*
X0093273Y0244825D01*
X0093362Y0244758D01*
X0093449Y0244687D01*
X0093533Y0244613D01*
X0093615Y0244537D01*
X0093693Y0244457D01*
X0093769Y0244375D01*
X0093842Y0244290D01*
X0093912Y0244203D01*
X0093978Y0244113D01*
X0094042Y0244021D01*
X0094102Y0243927D01*
X0094159Y0243831D01*
X0094212Y0243732D01*
X0094262Y0243632D01*
X0094308Y0243531D01*
X0094351Y0243427D01*
X0094390Y0243322D01*
X0094425Y0243216D01*
X0094456Y0243109D01*
X0094484Y0243000D01*
X0094507Y0242891D01*
X0094527Y0242781D01*
X0094543Y0242670D01*
X0094555Y0242559D01*
X0094563Y0242448D01*
X0094567Y0242336D01*
X0094567Y0242224D01*
X0094563Y0242112D01*
X0094555Y0242001D01*
X0094543Y0241890D01*
X0094527Y0241779D01*
X0094507Y0241669D01*
X0094484Y0241560D01*
X0094456Y0241451D01*
X0094425Y0241344D01*
X0094390Y0241238D01*
X0094351Y0241133D01*
X0094308Y0241029D01*
X0094262Y0240928D01*
X0094212Y0240828D01*
X0094159Y0240729D01*
X0094102Y0240633D01*
X0094042Y0240539D01*
X0093978Y0240447D01*
X0093912Y0240357D01*
X0093842Y0240270D01*
X0093769Y0240185D01*
X0093693Y0240103D01*
X0093615Y0240023D01*
X0093533Y0239947D01*
X0093449Y0239873D01*
X0093362Y0239802D01*
X0093273Y0239735D01*
X0093182Y0239671D01*
X0093088Y0239610D01*
X0092992Y0239552D01*
X0092894Y0239498D01*
X0092795Y0239447D01*
X0092693Y0239400D01*
X0092590Y0239357D01*
X0092486Y0239317D01*
X0092380Y0239281D01*
X0092273Y0239248D01*
X0092165Y0239220D01*
X0092056Y0239195D01*
X0091946Y0239175D01*
X0091835Y0239158D01*
X0091724Y0239145D01*
X0091613Y0239136D01*
X0091501Y0239131D01*
X0091389Y0239130D01*
X0091277Y0239133D01*
X0091166Y0239140D01*
X0091054Y0239151D01*
X0090944Y0239166D01*
X0090833Y0239185D01*
X0090724Y0239207D01*
X0090615Y0239234D01*
X0090508Y0239264D01*
X0090401Y0239298D01*
X0090296Y0239336D01*
X0090192Y0239378D01*
X0090090Y0239423D01*
X0089989Y0239472D01*
X0089891Y0239524D01*
X0089794Y0239580D01*
X0089699Y0239640D01*
X0089606Y0239702D01*
X0089516Y0239768D01*
X0089428Y0239837D01*
X0089343Y0239909D01*
X0089260Y0239985D01*
X0089180Y0240063D01*
X0089102Y0240143D01*
X0089028Y0240227D01*
X0088957Y0240313D01*
X0088888Y0240401D01*
X0088823Y0240492D01*
X0088762Y0240586D01*
X0088703Y0240681D01*
X0088648Y0240778D01*
X0088597Y0240877D01*
X0088549Y0240978D01*
X0088504Y0241081D01*
X0088463Y0241185D01*
X0088426Y0241291D01*
X0088393Y0241397D01*
X0088364Y0241505D01*
X0088338Y0241614D01*
X0088316Y0241724D01*
X0088299Y0241834D01*
X0088285Y0241945D01*
X0088275Y0242057D01*
X0088269Y0242168D01*
X0088267Y0242280D01*
X0283917Y0246650D02*
X0283917Y0196650D01*
X0283917Y0186650D02*
X0283917Y0136650D01*
X0283917Y0126650D02*
X0283917Y0076650D01*
X0283917Y0066650D02*
X0283917Y0016650D01*
M02*
