G75*
%MOIN*%
%OFA0B0*%
%FSLAX25Y25*%
%IPPOS*%
%LPD*%
%AMOC8*
5,1,8,0,0,1.08239X$1,22.5*
%
%ADD10R,0.07874X0.07874*%
%ADD11C,0.06358*%
%ADD12C,0.06102*%
%ADD13C,0.23000*%
%ADD14C,0.01600*%
%ADD15C,0.06299*%
%ADD16C,0.07087*%
%ADD17C,0.07400*%
%ADD18C,0.02362*%
D10*
X0064242Y0103598D03*
X0044557Y0125941D03*
X0044557Y0159701D03*
X0083927Y0159701D03*
X0123297Y0159701D03*
X0123297Y0137358D03*
X0123297Y0116098D03*
X0103612Y0103598D03*
X0142982Y0103598D03*
X0182352Y0103598D03*
X0162667Y0159701D03*
D11*
X0152825Y0159701D03*
X0134321Y0159701D03*
X0172510Y0159701D03*
X0190620Y0150547D03*
X0190620Y0131650D03*
X0190620Y0112752D03*
X0172510Y0103598D03*
X0152825Y0103598D03*
X0134321Y0103598D03*
D12*
X0166211Y0112752D03*
X0166211Y0150547D03*
D13*
X0047352Y0021335D03*
X0244203Y0021335D03*
X0244203Y0237870D03*
X0047352Y0237870D03*
D14*
X0264717Y0241850D02*
X0281117Y0241850D01*
X0281117Y0233450D01*
X0264717Y0233450D01*
X0264717Y0241850D01*
X0264717Y0235049D02*
X0281117Y0235049D01*
X0281117Y0236648D02*
X0264717Y0236648D01*
X0264717Y0238247D02*
X0281117Y0238247D01*
X0281117Y0239846D02*
X0264717Y0239846D01*
X0264717Y0241445D02*
X0281117Y0241445D01*
X0281117Y0209850D02*
X0264717Y0209850D01*
X0281117Y0209850D02*
X0281117Y0201450D01*
X0264717Y0201450D01*
X0264717Y0209850D01*
X0264717Y0203049D02*
X0281117Y0203049D01*
X0281117Y0204648D02*
X0264717Y0204648D01*
X0264717Y0206247D02*
X0281117Y0206247D01*
X0281117Y0207846D02*
X0264717Y0207846D01*
X0264717Y0209445D02*
X0281117Y0209445D01*
X0281117Y0181850D02*
X0264717Y0181850D01*
X0281117Y0181850D02*
X0281117Y0173450D01*
X0264717Y0173450D01*
X0264717Y0181850D01*
X0264717Y0175049D02*
X0281117Y0175049D01*
X0281117Y0176648D02*
X0264717Y0176648D01*
X0264717Y0178247D02*
X0281117Y0178247D01*
X0281117Y0179846D02*
X0264717Y0179846D01*
X0264717Y0181445D02*
X0281117Y0181445D01*
X0281117Y0149850D02*
X0264717Y0149850D01*
X0281117Y0149850D02*
X0281117Y0141450D01*
X0264717Y0141450D01*
X0264717Y0149850D01*
X0264717Y0143049D02*
X0281117Y0143049D01*
X0281117Y0144648D02*
X0264717Y0144648D01*
X0264717Y0146247D02*
X0281117Y0146247D01*
X0281117Y0147846D02*
X0264717Y0147846D01*
X0264717Y0149445D02*
X0281117Y0149445D01*
X0281117Y0121850D02*
X0264717Y0121850D01*
X0281117Y0121850D02*
X0281117Y0113450D01*
X0264717Y0113450D01*
X0264717Y0121850D01*
X0264717Y0115049D02*
X0281117Y0115049D01*
X0281117Y0116648D02*
X0264717Y0116648D01*
X0264717Y0118247D02*
X0281117Y0118247D01*
X0281117Y0119846D02*
X0264717Y0119846D01*
X0264717Y0121445D02*
X0281117Y0121445D01*
X0281117Y0089850D02*
X0264717Y0089850D01*
X0281117Y0089850D02*
X0281117Y0081450D01*
X0264717Y0081450D01*
X0264717Y0089850D01*
X0264717Y0083049D02*
X0281117Y0083049D01*
X0281117Y0084648D02*
X0264717Y0084648D01*
X0264717Y0086247D02*
X0281117Y0086247D01*
X0281117Y0087846D02*
X0264717Y0087846D01*
X0264717Y0089445D02*
X0281117Y0089445D01*
X0281117Y0061850D02*
X0264717Y0061850D01*
X0281117Y0061850D02*
X0281117Y0053450D01*
X0264717Y0053450D01*
X0264717Y0061850D01*
X0264717Y0055049D02*
X0281117Y0055049D01*
X0281117Y0056648D02*
X0264717Y0056648D01*
X0264717Y0058247D02*
X0281117Y0058247D01*
X0281117Y0059846D02*
X0264717Y0059846D01*
X0264717Y0061445D02*
X0281117Y0061445D01*
X0281117Y0029850D02*
X0264717Y0029850D01*
X0281117Y0029850D02*
X0281117Y0021450D01*
X0264717Y0021450D01*
X0264717Y0029850D01*
X0264717Y0023049D02*
X0281117Y0023049D01*
X0281117Y0024648D02*
X0264717Y0024648D01*
X0264717Y0026247D02*
X0281117Y0026247D01*
X0281117Y0027846D02*
X0264717Y0027846D01*
X0264717Y0029445D02*
X0281117Y0029445D01*
D15*
X0091417Y0242280D03*
D16*
X0091417Y0224563D03*
D17*
X0163167Y0215400D03*
X0162167Y0205400D03*
X0163167Y0195400D03*
X0162167Y0185400D03*
X0160167Y0067150D03*
X0150167Y0066150D03*
X0140167Y0067150D03*
X0130167Y0066150D03*
X0120167Y0067150D03*
X0110167Y0066150D03*
X0100167Y0067150D03*
X0090167Y0066150D03*
X0170167Y0066150D03*
X0180167Y0067150D03*
D18*
X0165167Y0074775D03*
X0155167Y0074775D03*
X0155167Y0087900D03*
X0176417Y0087900D03*
X0202042Y0111025D03*
X0196417Y0116025D03*
X0202667Y0127275D03*
X0200167Y0131650D03*
X0195792Y0134775D03*
X0202667Y0137275D03*
X0207667Y0140400D03*
X0211417Y0145400D03*
X0216417Y0149150D03*
X0220167Y0154150D03*
X0220167Y0160400D03*
X0220167Y0166650D03*
X0220167Y0172900D03*
X0220167Y0180400D03*
X0225167Y0185400D03*
X0233917Y0185400D03*
X0237667Y0179150D03*
X0247667Y0181650D03*
X0247667Y0175400D03*
X0248917Y0169150D03*
X0253917Y0167275D03*
X0259542Y0167275D03*
X0259542Y0156025D03*
X0252042Y0156025D03*
X0245167Y0159150D03*
X0240167Y0164150D03*
X0237667Y0170400D03*
X0246417Y0187900D03*
X0242667Y0191650D03*
X0246417Y0195400D03*
X0247667Y0202900D03*
X0247667Y0209150D03*
X0248292Y0215400D03*
X0253292Y0216650D03*
X0259542Y0216650D03*
X0257042Y0226650D03*
X0241417Y0222275D03*
X0238292Y0217900D03*
X0238292Y0211650D03*
X0238292Y0205400D03*
X0237667Y0199775D03*
X0231417Y0197275D03*
X0225167Y0197900D03*
X0216417Y0195400D03*
X0211417Y0198215D03*
X0211417Y0190400D03*
X0207667Y0185400D03*
X0207667Y0177900D03*
X0207667Y0170400D03*
X0207667Y0164150D03*
X0207667Y0159150D03*
X0202667Y0154775D03*
X0197667Y0150400D03*
X0178917Y0171650D03*
X0167667Y0144150D03*
X0172667Y0136650D03*
X0168917Y0132275D03*
X0172667Y0127900D03*
X0173917Y0119150D03*
X0157667Y0120400D03*
X0158917Y0131650D03*
X0160167Y0135400D03*
X0157667Y0144150D03*
X0142667Y0146650D03*
X0140167Y0141650D03*
X0140167Y0136650D03*
X0141417Y0130400D03*
X0137667Y0125400D03*
X0141417Y0122900D03*
X0142667Y0117900D03*
X0125167Y0087900D03*
X0125167Y0074775D03*
X0115167Y0074775D03*
X0105167Y0074775D03*
X0105167Y0081650D03*
X0095167Y0087900D03*
X0077667Y0077900D03*
X0072667Y0071650D03*
X0053917Y0080400D03*
X0047667Y0071650D03*
X0128917Y0199465D03*
X0120167Y0208215D03*
X0137667Y0208215D03*
X0157667Y0230715D03*
X0172667Y0233215D03*
X0181417Y0233215D03*
X0197667Y0233215D03*
X0200167Y0226965D03*
X0205167Y0226965D03*
X0205167Y0221340D03*
X0211417Y0215715D03*
X0213917Y0221340D03*
X0218917Y0221340D03*
X0223917Y0221340D03*
X0223917Y0226965D03*
X0223917Y0233215D03*
X0223917Y0239465D03*
X0223917Y0244465D03*
X0223917Y0249465D03*
X0218917Y0249465D03*
X0213917Y0249465D03*
X0213917Y0244465D03*
X0218917Y0244465D03*
X0208917Y0249465D03*
X0205167Y0244465D03*
X0205167Y0239465D03*
X0200167Y0239465D03*
X0205167Y0233215D03*
X0218917Y0215715D03*
X0223917Y0215715D03*
X0221417Y0208215D03*
X0188917Y0216650D03*
X0182667Y0216650D03*
X0176417Y0216650D03*
X0182667Y0210400D03*
X0227667Y0140400D03*
X0208917Y0122900D03*
X0213917Y0117900D03*
X0217042Y0113525D03*
X0220792Y0107275D03*
X0220792Y0099775D03*
X0220792Y0093525D03*
X0220792Y0087275D03*
X0220792Y0081025D03*
X0226417Y0077900D03*
X0233292Y0078525D03*
X0237667Y0083525D03*
X0238292Y0089775D03*
X0239542Y0097900D03*
X0244542Y0103525D03*
X0250792Y0106025D03*
X0258292Y0107275D03*
X0258292Y0096025D03*
X0253292Y0096025D03*
X0248292Y0093525D03*
X0247667Y0087275D03*
X0247042Y0081025D03*
X0245792Y0076025D03*
X0242042Y0071650D03*
X0245792Y0066025D03*
X0247042Y0059775D03*
X0247042Y0053525D03*
X0248292Y0048525D03*
X0252667Y0046650D03*
X0258917Y0046650D03*
X0260167Y0036650D03*
X0253917Y0036650D03*
X0246417Y0038525D03*
X0241417Y0042275D03*
X0238292Y0047900D03*
X0237667Y0053525D03*
X0237667Y0058525D03*
X0233292Y0064150D03*
X0227042Y0065400D03*
X0220792Y0065400D03*
X0215167Y0067275D03*
X0210167Y0072275D03*
X0207042Y0078525D03*
X0207042Y0084775D03*
X0207042Y0092275D03*
X0207042Y0098525D03*
X0207042Y0104775D03*
X0272667Y0131650D03*
X0272667Y0191650D03*
X0272667Y0250400D03*
X0068917Y0251965D03*
X0068917Y0230715D03*
X0068917Y0205715D03*
X0272667Y0071650D03*
X0272667Y0011650D03*
M02*
