%
M48
M72
T01C0.0118
T02C0.0374
T03C0.0400
T04C0.0413
T05C0.0610
T06C0.0630
T07C0.0709
T08C0.1260
%
T01
X4767Y7165
X5392Y8040
X7267Y7165
X7767Y7790
X9517Y8790
X10517Y8165
X10517Y7477
X11517Y7477
X12517Y7477
X12517Y8790
X15517Y8790
X15517Y7477
X16517Y7477
X17642Y8790
X20204Y11102
X19642Y11602
X20267Y12727
X20017Y13165
X19579Y13477
X20267Y13727
X20767Y14040
X21142Y14540
X21642Y14915
X22017Y15415
X22017Y16040
X22017Y16665
X22017Y17290
X22017Y18040
X22517Y18540
X23392Y18540
X23767Y17915
X24767Y18165
X24767Y17540
X24892Y16915
X25392Y16727
X25954Y16727
X25954Y15602
X25204Y15602
X24517Y15915
X24017Y16415
X23767Y17040
X24642Y18790
X24267Y19165
X24642Y19540
X24767Y20290
X24767Y20915
X24829Y21540
X25329Y21665
X25954Y21665
X25704Y22665
X24142Y22227
X23829Y21790
X23829Y21165
X23829Y20540
X23767Y19977
X23142Y19727
X22517Y19790
X21642Y19540
X21142Y19821
X21142Y19040
X20767Y18540
X20767Y17790
X20767Y17040
X20767Y16415
X20767Y15915
X20267Y15477
X19767Y15040
X17892Y17165
X16767Y14415
X17267Y13665
X16892Y13227
X17267Y12790
X17392Y11915
X15767Y12040
X15892Y13165
X16017Y13540
X15767Y14415
X14267Y14665
X14017Y14165
X14017Y13665
X14142Y13040
X13767Y12540
X14142Y12290
X14267Y11790
X20704Y10477
X20704Y9852
X20704Y9227
X20704Y8477
X20704Y7852
X21017Y7227
X21517Y6727
X22079Y6540
X22704Y6540
X23329Y6415
X23767Y5852
X23767Y5352
X23829Y4790
X24142Y4227
X24642Y3852
X25392Y3665
X26017Y3665
X25892Y4665
X25267Y4665
X24829Y4852
X24704Y5352
X24704Y5977
X24579Y6602
X24204Y7165
X24579Y7602
X24704Y8102
X24767Y8727
X24829Y9352
X25329Y9602
X25829Y9602
X25829Y10727
X25079Y10602
X24454Y10352
X23954Y9790
X23829Y8977
X23767Y8352
X23329Y7852
X22642Y7790
X22079Y8102
X22079Y8727
X22079Y9352
X22079Y9977
X22079Y10727
X21704Y11352
X21392Y11790
X20892Y12290
X22767Y14040
X27267Y13165
X27267Y19165
X22392Y21571
X21892Y21571
X21892Y22134
X21392Y22134
X21142Y21571
X20517Y22134
X20517Y22696
X20017Y22696
X19767Y23321
X20517Y23321
X20517Y23946
X20017Y23946
X20517Y24446
X20892Y24946
X21392Y24946
X21392Y24446
X21892Y24446
X21892Y24946
X22392Y24946
X22392Y24446
X22392Y23946
X22392Y23321
X22392Y22696
X22392Y22134
X22142Y20821
X18892Y21665
X18267Y21665
X18267Y21040
X17642Y21665
X17267Y23321
X18142Y23321
X15767Y23071
X13767Y20821
X12892Y19946
X12017Y20821
X6892Y20571
X6892Y23071
X6892Y25196
X27267Y25040
X27267Y7165
X27267Y1165
T02
X17251Y10360
X15282Y10360
X13432Y10360
X19062Y11275
X19062Y13165
X19062Y15055
X17251Y15970
X16267Y15970
X15282Y15970
X13432Y15970
T03
X16217Y18540
X16317Y19540
X16217Y20540
X16317Y21540
X16017Y6715
X17017Y6615
X18017Y6715
X15017Y6615
X14017Y6715
X13017Y6615
X12017Y6715
X11017Y6615
X10017Y6715
X9017Y6615
T04
X10361Y10360
X12330Y11610
X14298Y10360
X12330Y13736
X12330Y15970
X8393Y15970
X4456Y15970
X4456Y12594
X6424Y10360
X18235Y10360
T05
X16621Y11275
X16621Y15055
T06
X9142Y24228
T07
X9142Y22456
T08
X4735Y2133
X24420Y2133
X24420Y23787
X4735Y23787
M30
