G75*
%MOIN*%
%OFA0B0*%
%FSLAX25Y25*%
%IPPOS*%
%LPD*%
%AMOC8*
5,1,8,0,0,1.08239X$1,22.5*
%
%ADD10C,0.00000*%
%ADD11C,0.07028*%
%ADD12C,0.06358*%
%ADD13C,0.16598*%
%ADD14C,0.06800*%
%ADD15C,0.02362*%
%ADD16C,0.01299*%
D10*
X0027667Y0001650D02*
X0027667Y0257555D01*
X0283573Y0257555D01*
X0283573Y0001650D01*
X0027667Y0001650D01*
X0163160Y0112752D02*
X0163162Y0112862D01*
X0163168Y0112972D01*
X0163178Y0113082D01*
X0163192Y0113191D01*
X0163210Y0113300D01*
X0163231Y0113408D01*
X0163257Y0113515D01*
X0163286Y0113621D01*
X0163320Y0113726D01*
X0163357Y0113830D01*
X0163398Y0113932D01*
X0163442Y0114033D01*
X0163490Y0114132D01*
X0163542Y0114230D01*
X0163597Y0114325D01*
X0163655Y0114418D01*
X0163717Y0114509D01*
X0163782Y0114598D01*
X0163850Y0114685D01*
X0163922Y0114769D01*
X0163996Y0114850D01*
X0164073Y0114929D01*
X0164153Y0115005D01*
X0164236Y0115077D01*
X0164321Y0115147D01*
X0164409Y0115214D01*
X0164499Y0115277D01*
X0164591Y0115337D01*
X0164685Y0115394D01*
X0164782Y0115448D01*
X0164880Y0115497D01*
X0164980Y0115544D01*
X0165082Y0115586D01*
X0165185Y0115625D01*
X0165289Y0115660D01*
X0165395Y0115692D01*
X0165501Y0115719D01*
X0165609Y0115743D01*
X0165717Y0115763D01*
X0165826Y0115779D01*
X0165936Y0115791D01*
X0166046Y0115799D01*
X0166156Y0115803D01*
X0166266Y0115803D01*
X0166376Y0115799D01*
X0166486Y0115791D01*
X0166596Y0115779D01*
X0166705Y0115763D01*
X0166813Y0115743D01*
X0166921Y0115719D01*
X0167027Y0115692D01*
X0167133Y0115660D01*
X0167237Y0115625D01*
X0167340Y0115586D01*
X0167442Y0115544D01*
X0167542Y0115497D01*
X0167640Y0115448D01*
X0167736Y0115394D01*
X0167831Y0115337D01*
X0167923Y0115277D01*
X0168013Y0115214D01*
X0168101Y0115147D01*
X0168186Y0115077D01*
X0168269Y0115005D01*
X0168349Y0114929D01*
X0168426Y0114850D01*
X0168500Y0114769D01*
X0168572Y0114685D01*
X0168640Y0114598D01*
X0168705Y0114509D01*
X0168767Y0114418D01*
X0168825Y0114325D01*
X0168880Y0114230D01*
X0168932Y0114132D01*
X0168980Y0114033D01*
X0169024Y0113932D01*
X0169065Y0113830D01*
X0169102Y0113726D01*
X0169136Y0113621D01*
X0169165Y0113515D01*
X0169191Y0113408D01*
X0169212Y0113300D01*
X0169230Y0113191D01*
X0169244Y0113082D01*
X0169254Y0112972D01*
X0169260Y0112862D01*
X0169262Y0112752D01*
X0169260Y0112642D01*
X0169254Y0112532D01*
X0169244Y0112422D01*
X0169230Y0112313D01*
X0169212Y0112204D01*
X0169191Y0112096D01*
X0169165Y0111989D01*
X0169136Y0111883D01*
X0169102Y0111778D01*
X0169065Y0111674D01*
X0169024Y0111572D01*
X0168980Y0111471D01*
X0168932Y0111372D01*
X0168880Y0111274D01*
X0168825Y0111179D01*
X0168767Y0111086D01*
X0168705Y0110995D01*
X0168640Y0110906D01*
X0168572Y0110819D01*
X0168500Y0110735D01*
X0168426Y0110654D01*
X0168349Y0110575D01*
X0168269Y0110499D01*
X0168186Y0110427D01*
X0168101Y0110357D01*
X0168013Y0110290D01*
X0167923Y0110227D01*
X0167831Y0110167D01*
X0167737Y0110110D01*
X0167640Y0110056D01*
X0167542Y0110007D01*
X0167442Y0109960D01*
X0167340Y0109918D01*
X0167237Y0109879D01*
X0167133Y0109844D01*
X0167027Y0109812D01*
X0166921Y0109785D01*
X0166813Y0109761D01*
X0166705Y0109741D01*
X0166596Y0109725D01*
X0166486Y0109713D01*
X0166376Y0109705D01*
X0166266Y0109701D01*
X0166156Y0109701D01*
X0166046Y0109705D01*
X0165936Y0109713D01*
X0165826Y0109725D01*
X0165717Y0109741D01*
X0165609Y0109761D01*
X0165501Y0109785D01*
X0165395Y0109812D01*
X0165289Y0109844D01*
X0165185Y0109879D01*
X0165082Y0109918D01*
X0164980Y0109960D01*
X0164880Y0110007D01*
X0164782Y0110056D01*
X0164685Y0110110D01*
X0164591Y0110167D01*
X0164499Y0110227D01*
X0164409Y0110290D01*
X0164321Y0110357D01*
X0164236Y0110427D01*
X0164153Y0110499D01*
X0164073Y0110575D01*
X0163996Y0110654D01*
X0163922Y0110735D01*
X0163850Y0110819D01*
X0163782Y0110906D01*
X0163717Y0110995D01*
X0163655Y0111086D01*
X0163597Y0111179D01*
X0163542Y0111274D01*
X0163490Y0111372D01*
X0163442Y0111471D01*
X0163398Y0111572D01*
X0163357Y0111674D01*
X0163320Y0111778D01*
X0163286Y0111883D01*
X0163257Y0111989D01*
X0163231Y0112096D01*
X0163210Y0112204D01*
X0163192Y0112313D01*
X0163178Y0112422D01*
X0163168Y0112532D01*
X0163162Y0112642D01*
X0163160Y0112752D01*
X0163160Y0150547D02*
X0163162Y0150657D01*
X0163168Y0150767D01*
X0163178Y0150877D01*
X0163192Y0150986D01*
X0163210Y0151095D01*
X0163231Y0151203D01*
X0163257Y0151310D01*
X0163286Y0151416D01*
X0163320Y0151521D01*
X0163357Y0151625D01*
X0163398Y0151727D01*
X0163442Y0151828D01*
X0163490Y0151927D01*
X0163542Y0152025D01*
X0163597Y0152120D01*
X0163655Y0152213D01*
X0163717Y0152304D01*
X0163782Y0152393D01*
X0163850Y0152480D01*
X0163922Y0152564D01*
X0163996Y0152645D01*
X0164073Y0152724D01*
X0164153Y0152800D01*
X0164236Y0152872D01*
X0164321Y0152942D01*
X0164409Y0153009D01*
X0164499Y0153072D01*
X0164591Y0153132D01*
X0164685Y0153189D01*
X0164782Y0153243D01*
X0164880Y0153292D01*
X0164980Y0153339D01*
X0165082Y0153381D01*
X0165185Y0153420D01*
X0165289Y0153455D01*
X0165395Y0153487D01*
X0165501Y0153514D01*
X0165609Y0153538D01*
X0165717Y0153558D01*
X0165826Y0153574D01*
X0165936Y0153586D01*
X0166046Y0153594D01*
X0166156Y0153598D01*
X0166266Y0153598D01*
X0166376Y0153594D01*
X0166486Y0153586D01*
X0166596Y0153574D01*
X0166705Y0153558D01*
X0166813Y0153538D01*
X0166921Y0153514D01*
X0167027Y0153487D01*
X0167133Y0153455D01*
X0167237Y0153420D01*
X0167340Y0153381D01*
X0167442Y0153339D01*
X0167542Y0153292D01*
X0167640Y0153243D01*
X0167736Y0153189D01*
X0167831Y0153132D01*
X0167923Y0153072D01*
X0168013Y0153009D01*
X0168101Y0152942D01*
X0168186Y0152872D01*
X0168269Y0152800D01*
X0168349Y0152724D01*
X0168426Y0152645D01*
X0168500Y0152564D01*
X0168572Y0152480D01*
X0168640Y0152393D01*
X0168705Y0152304D01*
X0168767Y0152213D01*
X0168825Y0152120D01*
X0168880Y0152025D01*
X0168932Y0151927D01*
X0168980Y0151828D01*
X0169024Y0151727D01*
X0169065Y0151625D01*
X0169102Y0151521D01*
X0169136Y0151416D01*
X0169165Y0151310D01*
X0169191Y0151203D01*
X0169212Y0151095D01*
X0169230Y0150986D01*
X0169244Y0150877D01*
X0169254Y0150767D01*
X0169260Y0150657D01*
X0169262Y0150547D01*
X0169260Y0150437D01*
X0169254Y0150327D01*
X0169244Y0150217D01*
X0169230Y0150108D01*
X0169212Y0149999D01*
X0169191Y0149891D01*
X0169165Y0149784D01*
X0169136Y0149678D01*
X0169102Y0149573D01*
X0169065Y0149469D01*
X0169024Y0149367D01*
X0168980Y0149266D01*
X0168932Y0149167D01*
X0168880Y0149069D01*
X0168825Y0148974D01*
X0168767Y0148881D01*
X0168705Y0148790D01*
X0168640Y0148701D01*
X0168572Y0148614D01*
X0168500Y0148530D01*
X0168426Y0148449D01*
X0168349Y0148370D01*
X0168269Y0148294D01*
X0168186Y0148222D01*
X0168101Y0148152D01*
X0168013Y0148085D01*
X0167923Y0148022D01*
X0167831Y0147962D01*
X0167737Y0147905D01*
X0167640Y0147851D01*
X0167542Y0147802D01*
X0167442Y0147755D01*
X0167340Y0147713D01*
X0167237Y0147674D01*
X0167133Y0147639D01*
X0167027Y0147607D01*
X0166921Y0147580D01*
X0166813Y0147556D01*
X0166705Y0147536D01*
X0166596Y0147520D01*
X0166486Y0147508D01*
X0166376Y0147500D01*
X0166266Y0147496D01*
X0166156Y0147496D01*
X0166046Y0147500D01*
X0165936Y0147508D01*
X0165826Y0147520D01*
X0165717Y0147536D01*
X0165609Y0147556D01*
X0165501Y0147580D01*
X0165395Y0147607D01*
X0165289Y0147639D01*
X0165185Y0147674D01*
X0165082Y0147713D01*
X0164980Y0147755D01*
X0164880Y0147802D01*
X0164782Y0147851D01*
X0164685Y0147905D01*
X0164591Y0147962D01*
X0164499Y0148022D01*
X0164409Y0148085D01*
X0164321Y0148152D01*
X0164236Y0148222D01*
X0164153Y0148294D01*
X0164073Y0148370D01*
X0163996Y0148449D01*
X0163922Y0148530D01*
X0163850Y0148614D01*
X0163782Y0148701D01*
X0163717Y0148790D01*
X0163655Y0148881D01*
X0163597Y0148974D01*
X0163542Y0149069D01*
X0163490Y0149167D01*
X0163442Y0149266D01*
X0163398Y0149367D01*
X0163357Y0149469D01*
X0163320Y0149573D01*
X0163286Y0149678D01*
X0163257Y0149784D01*
X0163231Y0149891D01*
X0163210Y0149999D01*
X0163192Y0150108D01*
X0163178Y0150217D01*
X0163168Y0150327D01*
X0163162Y0150437D01*
X0163160Y0150547D01*
X0087874Y0224563D02*
X0087876Y0224681D01*
X0087882Y0224800D01*
X0087892Y0224918D01*
X0087906Y0225035D01*
X0087923Y0225152D01*
X0087945Y0225269D01*
X0087971Y0225384D01*
X0088000Y0225499D01*
X0088033Y0225613D01*
X0088070Y0225725D01*
X0088111Y0225836D01*
X0088155Y0225946D01*
X0088203Y0226054D01*
X0088255Y0226161D01*
X0088310Y0226266D01*
X0088369Y0226369D01*
X0088431Y0226469D01*
X0088496Y0226568D01*
X0088565Y0226665D01*
X0088636Y0226759D01*
X0088711Y0226850D01*
X0088789Y0226940D01*
X0088870Y0227026D01*
X0088954Y0227110D01*
X0089040Y0227191D01*
X0089130Y0227269D01*
X0089221Y0227344D01*
X0089315Y0227415D01*
X0089412Y0227484D01*
X0089511Y0227549D01*
X0089611Y0227611D01*
X0089714Y0227670D01*
X0089819Y0227725D01*
X0089926Y0227777D01*
X0090034Y0227825D01*
X0090144Y0227869D01*
X0090255Y0227910D01*
X0090367Y0227947D01*
X0090481Y0227980D01*
X0090596Y0228009D01*
X0090711Y0228035D01*
X0090828Y0228057D01*
X0090945Y0228074D01*
X0091062Y0228088D01*
X0091180Y0228098D01*
X0091299Y0228104D01*
X0091417Y0228106D01*
X0091535Y0228104D01*
X0091654Y0228098D01*
X0091772Y0228088D01*
X0091889Y0228074D01*
X0092006Y0228057D01*
X0092123Y0228035D01*
X0092238Y0228009D01*
X0092353Y0227980D01*
X0092467Y0227947D01*
X0092579Y0227910D01*
X0092690Y0227869D01*
X0092800Y0227825D01*
X0092908Y0227777D01*
X0093015Y0227725D01*
X0093120Y0227670D01*
X0093223Y0227611D01*
X0093323Y0227549D01*
X0093422Y0227484D01*
X0093519Y0227415D01*
X0093613Y0227344D01*
X0093704Y0227269D01*
X0093794Y0227191D01*
X0093880Y0227110D01*
X0093964Y0227026D01*
X0094045Y0226940D01*
X0094123Y0226850D01*
X0094198Y0226759D01*
X0094269Y0226665D01*
X0094338Y0226568D01*
X0094403Y0226469D01*
X0094465Y0226369D01*
X0094524Y0226266D01*
X0094579Y0226161D01*
X0094631Y0226054D01*
X0094679Y0225946D01*
X0094723Y0225836D01*
X0094764Y0225725D01*
X0094801Y0225613D01*
X0094834Y0225499D01*
X0094863Y0225384D01*
X0094889Y0225269D01*
X0094911Y0225152D01*
X0094928Y0225035D01*
X0094942Y0224918D01*
X0094952Y0224800D01*
X0094958Y0224681D01*
X0094960Y0224563D01*
X0094958Y0224445D01*
X0094952Y0224326D01*
X0094942Y0224208D01*
X0094928Y0224091D01*
X0094911Y0223974D01*
X0094889Y0223857D01*
X0094863Y0223742D01*
X0094834Y0223627D01*
X0094801Y0223513D01*
X0094764Y0223401D01*
X0094723Y0223290D01*
X0094679Y0223180D01*
X0094631Y0223072D01*
X0094579Y0222965D01*
X0094524Y0222860D01*
X0094465Y0222757D01*
X0094403Y0222657D01*
X0094338Y0222558D01*
X0094269Y0222461D01*
X0094198Y0222367D01*
X0094123Y0222276D01*
X0094045Y0222186D01*
X0093964Y0222100D01*
X0093880Y0222016D01*
X0093794Y0221935D01*
X0093704Y0221857D01*
X0093613Y0221782D01*
X0093519Y0221711D01*
X0093422Y0221642D01*
X0093323Y0221577D01*
X0093223Y0221515D01*
X0093120Y0221456D01*
X0093015Y0221401D01*
X0092908Y0221349D01*
X0092800Y0221301D01*
X0092690Y0221257D01*
X0092579Y0221216D01*
X0092467Y0221179D01*
X0092353Y0221146D01*
X0092238Y0221117D01*
X0092123Y0221091D01*
X0092006Y0221069D01*
X0091889Y0221052D01*
X0091772Y0221038D01*
X0091654Y0221028D01*
X0091535Y0221022D01*
X0091417Y0221020D01*
X0091299Y0221022D01*
X0091180Y0221028D01*
X0091062Y0221038D01*
X0090945Y0221052D01*
X0090828Y0221069D01*
X0090711Y0221091D01*
X0090596Y0221117D01*
X0090481Y0221146D01*
X0090367Y0221179D01*
X0090255Y0221216D01*
X0090144Y0221257D01*
X0090034Y0221301D01*
X0089926Y0221349D01*
X0089819Y0221401D01*
X0089714Y0221456D01*
X0089611Y0221515D01*
X0089511Y0221577D01*
X0089412Y0221642D01*
X0089315Y0221711D01*
X0089221Y0221782D01*
X0089130Y0221857D01*
X0089040Y0221935D01*
X0088954Y0222016D01*
X0088870Y0222100D01*
X0088789Y0222186D01*
X0088711Y0222276D01*
X0088636Y0222367D01*
X0088565Y0222461D01*
X0088496Y0222558D01*
X0088431Y0222657D01*
X0088369Y0222757D01*
X0088310Y0222860D01*
X0088255Y0222965D01*
X0088203Y0223072D01*
X0088155Y0223180D01*
X0088111Y0223290D01*
X0088070Y0223401D01*
X0088033Y0223513D01*
X0088000Y0223627D01*
X0087971Y0223742D01*
X0087945Y0223857D01*
X0087923Y0223974D01*
X0087906Y0224091D01*
X0087892Y0224208D01*
X0087882Y0224326D01*
X0087876Y0224445D01*
X0087874Y0224563D01*
X0088267Y0242280D02*
X0088269Y0242392D01*
X0088275Y0242503D01*
X0088285Y0242615D01*
X0088299Y0242726D01*
X0088316Y0242836D01*
X0088338Y0242946D01*
X0088364Y0243055D01*
X0088393Y0243163D01*
X0088426Y0243269D01*
X0088463Y0243375D01*
X0088504Y0243479D01*
X0088549Y0243582D01*
X0088597Y0243683D01*
X0088648Y0243782D01*
X0088703Y0243879D01*
X0088762Y0243974D01*
X0088823Y0244068D01*
X0088888Y0244159D01*
X0088957Y0244247D01*
X0089028Y0244333D01*
X0089102Y0244417D01*
X0089180Y0244497D01*
X0089260Y0244575D01*
X0089343Y0244651D01*
X0089428Y0244723D01*
X0089516Y0244792D01*
X0089606Y0244858D01*
X0089699Y0244920D01*
X0089794Y0244980D01*
X0089891Y0245036D01*
X0089989Y0245088D01*
X0090090Y0245137D01*
X0090192Y0245182D01*
X0090296Y0245224D01*
X0090401Y0245262D01*
X0090508Y0245296D01*
X0090615Y0245326D01*
X0090724Y0245353D01*
X0090833Y0245375D01*
X0090944Y0245394D01*
X0091054Y0245409D01*
X0091166Y0245420D01*
X0091277Y0245427D01*
X0091389Y0245430D01*
X0091501Y0245429D01*
X0091613Y0245424D01*
X0091724Y0245415D01*
X0091835Y0245402D01*
X0091946Y0245385D01*
X0092056Y0245365D01*
X0092165Y0245340D01*
X0092273Y0245312D01*
X0092380Y0245279D01*
X0092486Y0245243D01*
X0092590Y0245203D01*
X0092693Y0245160D01*
X0092795Y0245113D01*
X0092894Y0245062D01*
X0092992Y0245008D01*
X0093088Y0244950D01*
X0093182Y0244889D01*
X0093273Y0244825D01*
X0093362Y0244758D01*
X0093449Y0244687D01*
X0093533Y0244613D01*
X0093615Y0244537D01*
X0093693Y0244457D01*
X0093769Y0244375D01*
X0093842Y0244290D01*
X0093912Y0244203D01*
X0093978Y0244113D01*
X0094042Y0244021D01*
X0094102Y0243927D01*
X0094159Y0243831D01*
X0094212Y0243732D01*
X0094262Y0243632D01*
X0094308Y0243531D01*
X0094351Y0243427D01*
X0094390Y0243322D01*
X0094425Y0243216D01*
X0094456Y0243109D01*
X0094484Y0243000D01*
X0094507Y0242891D01*
X0094527Y0242781D01*
X0094543Y0242670D01*
X0094555Y0242559D01*
X0094563Y0242448D01*
X0094567Y0242336D01*
X0094567Y0242224D01*
X0094563Y0242112D01*
X0094555Y0242001D01*
X0094543Y0241890D01*
X0094527Y0241779D01*
X0094507Y0241669D01*
X0094484Y0241560D01*
X0094456Y0241451D01*
X0094425Y0241344D01*
X0094390Y0241238D01*
X0094351Y0241133D01*
X0094308Y0241029D01*
X0094262Y0240928D01*
X0094212Y0240828D01*
X0094159Y0240729D01*
X0094102Y0240633D01*
X0094042Y0240539D01*
X0093978Y0240447D01*
X0093912Y0240357D01*
X0093842Y0240270D01*
X0093769Y0240185D01*
X0093693Y0240103D01*
X0093615Y0240023D01*
X0093533Y0239947D01*
X0093449Y0239873D01*
X0093362Y0239802D01*
X0093273Y0239735D01*
X0093182Y0239671D01*
X0093088Y0239610D01*
X0092992Y0239552D01*
X0092894Y0239498D01*
X0092795Y0239447D01*
X0092693Y0239400D01*
X0092590Y0239357D01*
X0092486Y0239317D01*
X0092380Y0239281D01*
X0092273Y0239248D01*
X0092165Y0239220D01*
X0092056Y0239195D01*
X0091946Y0239175D01*
X0091835Y0239158D01*
X0091724Y0239145D01*
X0091613Y0239136D01*
X0091501Y0239131D01*
X0091389Y0239130D01*
X0091277Y0239133D01*
X0091166Y0239140D01*
X0091054Y0239151D01*
X0090944Y0239166D01*
X0090833Y0239185D01*
X0090724Y0239207D01*
X0090615Y0239234D01*
X0090508Y0239264D01*
X0090401Y0239298D01*
X0090296Y0239336D01*
X0090192Y0239378D01*
X0090090Y0239423D01*
X0089989Y0239472D01*
X0089891Y0239524D01*
X0089794Y0239580D01*
X0089699Y0239640D01*
X0089606Y0239702D01*
X0089516Y0239768D01*
X0089428Y0239837D01*
X0089343Y0239909D01*
X0089260Y0239985D01*
X0089180Y0240063D01*
X0089102Y0240143D01*
X0089028Y0240227D01*
X0088957Y0240313D01*
X0088888Y0240401D01*
X0088823Y0240492D01*
X0088762Y0240586D01*
X0088703Y0240681D01*
X0088648Y0240778D01*
X0088597Y0240877D01*
X0088549Y0240978D01*
X0088504Y0241081D01*
X0088463Y0241185D01*
X0088426Y0241291D01*
X0088393Y0241397D01*
X0088364Y0241505D01*
X0088338Y0241614D01*
X0088316Y0241724D01*
X0088299Y0241834D01*
X0088285Y0241945D01*
X0088275Y0242057D01*
X0088269Y0242168D01*
X0088267Y0242280D01*
X0283917Y0246650D02*
X0283917Y0196650D01*
X0283917Y0186650D02*
X0283917Y0136650D01*
X0283917Y0126650D02*
X0283917Y0076650D01*
X0283917Y0066650D02*
X0283917Y0016650D01*
D11*
X0182352Y0103598D03*
X0142982Y0103598D03*
X0123297Y0116098D03*
X0103612Y0103598D03*
X0123297Y0137358D03*
X0123297Y0159701D03*
X0083927Y0159701D03*
X0044557Y0159701D03*
X0044557Y0125941D03*
X0064242Y0103598D03*
D12*
X0134321Y0103598D03*
X0152825Y0103598D03*
X0172510Y0103598D03*
X0190620Y0112752D03*
X0190620Y0131650D03*
X0190620Y0150547D03*
X0172510Y0159701D03*
X0162667Y0159701D03*
X0152825Y0159701D03*
X0134321Y0159701D03*
D13*
X0047352Y0237870D03*
X0244203Y0237870D03*
X0244203Y0021335D03*
X0047352Y0021335D03*
D14*
X0090167Y0066150D03*
X0100167Y0067150D03*
X0110167Y0066150D03*
X0120167Y0067150D03*
X0130167Y0066150D03*
X0140167Y0067150D03*
X0150167Y0066150D03*
X0160167Y0067150D03*
X0170167Y0066150D03*
X0180167Y0067150D03*
X0162167Y0185400D03*
X0163167Y0195400D03*
X0162167Y0205400D03*
X0163167Y0215400D03*
D15*
X0176417Y0216650D03*
X0182667Y0216650D03*
X0188917Y0216650D03*
X0182667Y0210400D03*
X0200167Y0226965D03*
X0205167Y0226965D03*
X0205167Y0221340D03*
X0211417Y0215715D03*
X0213917Y0221340D03*
X0218917Y0221340D03*
X0223917Y0221340D03*
X0223917Y0226965D03*
X0223917Y0233215D03*
X0223917Y0239465D03*
X0223917Y0244465D03*
X0223917Y0249465D03*
X0218917Y0249465D03*
X0213917Y0249465D03*
X0213917Y0244465D03*
X0218917Y0244465D03*
X0208917Y0249465D03*
X0205167Y0244465D03*
X0205167Y0239465D03*
X0200167Y0239465D03*
X0197667Y0233215D03*
X0205167Y0233215D03*
X0218917Y0215715D03*
X0223917Y0215715D03*
X0221417Y0208215D03*
X0211417Y0198215D03*
X0216417Y0195400D03*
X0211417Y0190400D03*
X0207667Y0185400D03*
X0207667Y0177900D03*
X0207667Y0170400D03*
X0207667Y0164150D03*
X0207667Y0159150D03*
X0202667Y0154775D03*
X0197667Y0150400D03*
X0207667Y0140400D03*
X0202667Y0137275D03*
X0200167Y0131650D03*
X0202667Y0127275D03*
X0208917Y0122900D03*
X0213917Y0117900D03*
X0217042Y0113525D03*
X0220792Y0107275D03*
X0220792Y0099775D03*
X0220792Y0093525D03*
X0220792Y0087275D03*
X0220792Y0081025D03*
X0226417Y0077900D03*
X0233292Y0078525D03*
X0237667Y0083525D03*
X0238292Y0089775D03*
X0239542Y0097900D03*
X0244542Y0103525D03*
X0250792Y0106025D03*
X0258292Y0107275D03*
X0258292Y0096025D03*
X0253292Y0096025D03*
X0248292Y0093525D03*
X0247667Y0087275D03*
X0247042Y0081025D03*
X0245792Y0076025D03*
X0242042Y0071650D03*
X0245792Y0066025D03*
X0247042Y0059775D03*
X0247042Y0053525D03*
X0248292Y0048525D03*
X0252667Y0046650D03*
X0258917Y0046650D03*
X0260167Y0036650D03*
X0253917Y0036650D03*
X0246417Y0038525D03*
X0241417Y0042275D03*
X0238292Y0047900D03*
X0237667Y0053525D03*
X0237667Y0058525D03*
X0233292Y0064150D03*
X0227042Y0065400D03*
X0220792Y0065400D03*
X0215167Y0067275D03*
X0210167Y0072275D03*
X0207042Y0078525D03*
X0207042Y0084775D03*
X0207042Y0092275D03*
X0207042Y0098525D03*
X0207042Y0104775D03*
X0202042Y0111025D03*
X0196417Y0116025D03*
X0195792Y0134775D03*
X0211417Y0145400D03*
X0216417Y0149150D03*
X0220167Y0154150D03*
X0220167Y0160400D03*
X0220167Y0166650D03*
X0220167Y0172900D03*
X0220167Y0180400D03*
X0225167Y0185400D03*
X0233917Y0185400D03*
X0237667Y0179150D03*
X0247667Y0181650D03*
X0247667Y0175400D03*
X0248917Y0169150D03*
X0253917Y0167275D03*
X0259542Y0167275D03*
X0259542Y0156025D03*
X0252042Y0156025D03*
X0245167Y0159150D03*
X0240167Y0164150D03*
X0237667Y0170400D03*
X0246417Y0187900D03*
X0242667Y0191650D03*
X0246417Y0195400D03*
X0247667Y0202900D03*
X0247667Y0209150D03*
X0248292Y0215400D03*
X0253292Y0216650D03*
X0259542Y0216650D03*
X0257042Y0226650D03*
X0241417Y0222275D03*
X0238292Y0217900D03*
X0238292Y0211650D03*
X0238292Y0205400D03*
X0237667Y0199775D03*
X0231417Y0197275D03*
X0225167Y0197900D03*
X0181417Y0233215D03*
X0172667Y0233215D03*
X0157667Y0230715D03*
X0137667Y0208215D03*
X0128917Y0199465D03*
X0120167Y0208215D03*
X0068917Y0205715D03*
X0068917Y0230715D03*
X0068917Y0251965D03*
X0178917Y0171650D03*
X0167667Y0144150D03*
X0172667Y0136650D03*
X0168917Y0132275D03*
X0172667Y0127900D03*
X0173917Y0119150D03*
X0157667Y0120400D03*
X0158917Y0131650D03*
X0160167Y0135400D03*
X0157667Y0144150D03*
X0142667Y0146650D03*
X0140167Y0141650D03*
X0140167Y0136650D03*
X0141417Y0130400D03*
X0137667Y0125400D03*
X0141417Y0122900D03*
X0142667Y0117900D03*
X0155167Y0087900D03*
X0155167Y0074775D03*
X0165167Y0074775D03*
X0176417Y0087900D03*
X0125167Y0087900D03*
X0125167Y0074775D03*
X0115167Y0074775D03*
X0105167Y0074775D03*
X0105167Y0081650D03*
X0095167Y0087900D03*
X0077667Y0077900D03*
X0072667Y0071650D03*
X0053917Y0080400D03*
X0047667Y0071650D03*
X0227667Y0140400D03*
X0272667Y0131650D03*
X0272667Y0191650D03*
X0272667Y0250400D03*
X0272667Y0071650D03*
X0272667Y0011650D03*
D16*
X0281152Y0012031D02*
X0247738Y0012031D01*
X0248016Y0012129D02*
X0249023Y0012613D01*
X0249969Y0013208D01*
X0250843Y0013905D01*
X0251633Y0014695D01*
X0252329Y0015568D01*
X0252924Y0016515D01*
X0253409Y0017521D01*
X0253778Y0018576D01*
X0254026Y0019666D01*
X0254141Y0020685D01*
X0244852Y0020685D01*
X0244852Y0011396D01*
X0245872Y0011511D01*
X0246961Y0011760D01*
X0248016Y0012129D01*
X0250121Y0013329D02*
X0281152Y0013329D01*
X0281152Y0014627D02*
X0251565Y0014627D01*
X0252553Y0015925D02*
X0281152Y0015925D01*
X0281152Y0017222D02*
X0253265Y0017222D01*
X0253758Y0018520D02*
X0281152Y0018520D01*
X0281152Y0019818D02*
X0254044Y0019818D01*
X0254141Y0021984D02*
X0254026Y0023004D01*
X0253778Y0024093D01*
X0253409Y0025148D01*
X0252924Y0026155D01*
X0252329Y0027101D01*
X0251633Y0027974D01*
X0250843Y0028765D01*
X0249969Y0029461D01*
X0249023Y0030056D01*
X0248016Y0030541D01*
X0246961Y0030910D01*
X0245872Y0031158D01*
X0244852Y0031273D01*
X0244852Y0021984D01*
X0243553Y0021984D01*
X0243553Y0020685D01*
X0234264Y0020685D01*
X0234379Y0019666D01*
X0234628Y0018576D01*
X0234997Y0017521D01*
X0235482Y0016515D01*
X0236076Y0015568D01*
X0236773Y0014695D01*
X0237563Y0013905D01*
X0238437Y0013208D01*
X0239383Y0012613D01*
X0240390Y0012129D01*
X0241444Y0011760D01*
X0242534Y0011511D01*
X0243553Y0011396D01*
X0243553Y0020685D01*
X0244852Y0020685D01*
X0244852Y0021984D01*
X0254141Y0021984D01*
X0254093Y0022413D02*
X0281152Y0022413D01*
X0281152Y0021115D02*
X0244852Y0021115D01*
X0244852Y0019818D02*
X0243553Y0019818D01*
X0243553Y0021115D02*
X0048002Y0021115D01*
X0048002Y0020685D02*
X0048002Y0021984D01*
X0057291Y0021984D01*
X0057176Y0023004D01*
X0056927Y0024093D01*
X0056558Y0025148D01*
X0056074Y0026155D01*
X0055479Y0027101D01*
X0054782Y0027974D01*
X0053992Y0028765D01*
X0053119Y0029461D01*
X0052172Y0030056D01*
X0051166Y0030541D01*
X0050111Y0030910D01*
X0049021Y0031158D01*
X0048002Y0031273D01*
X0048002Y0021984D01*
X0046703Y0021984D01*
X0046703Y0020685D01*
X0048002Y0020685D01*
X0057291Y0020685D01*
X0057176Y0019666D01*
X0056927Y0018576D01*
X0056558Y0017521D01*
X0056074Y0016515D01*
X0055479Y0015568D01*
X0054782Y0014695D01*
X0053992Y0013905D01*
X0053119Y0013208D01*
X0052172Y0012613D01*
X0051166Y0012129D01*
X0050111Y0011760D01*
X0049021Y0011511D01*
X0048002Y0011396D01*
X0048002Y0020685D01*
X0048002Y0019818D02*
X0046703Y0019818D01*
X0046703Y0020685D02*
X0046703Y0011396D01*
X0045683Y0011511D01*
X0044594Y0011760D01*
X0043539Y0012129D01*
X0042532Y0012613D01*
X0041586Y0013208D01*
X0040713Y0013905D01*
X0039922Y0014695D01*
X0039226Y0015568D01*
X0038631Y0016515D01*
X0038146Y0017521D01*
X0037777Y0018576D01*
X0037529Y0019666D01*
X0037414Y0020685D01*
X0046703Y0020685D01*
X0046703Y0021115D02*
X0030089Y0021115D01*
X0030089Y0019818D02*
X0037511Y0019818D01*
X0037797Y0018520D02*
X0030089Y0018520D01*
X0030089Y0017222D02*
X0038290Y0017222D01*
X0039002Y0015925D02*
X0030089Y0015925D01*
X0030089Y0014627D02*
X0039990Y0014627D01*
X0041434Y0013329D02*
X0030089Y0013329D01*
X0030089Y0012031D02*
X0043817Y0012031D01*
X0046703Y0012031D02*
X0048002Y0012031D01*
X0048002Y0013329D02*
X0046703Y0013329D01*
X0046703Y0014627D02*
X0048002Y0014627D01*
X0048002Y0015925D02*
X0046703Y0015925D01*
X0046703Y0017222D02*
X0048002Y0017222D01*
X0048002Y0018520D02*
X0046703Y0018520D01*
X0046703Y0021984D02*
X0037414Y0021984D01*
X0037529Y0023004D01*
X0037777Y0024093D01*
X0038146Y0025148D01*
X0038631Y0026155D01*
X0039226Y0027101D01*
X0039922Y0027974D01*
X0040713Y0028765D01*
X0041586Y0029461D01*
X0042532Y0030056D01*
X0043539Y0030541D01*
X0044594Y0030910D01*
X0045683Y0031158D01*
X0046703Y0031273D01*
X0046703Y0021984D01*
X0046703Y0022413D02*
X0048002Y0022413D01*
X0048002Y0023711D02*
X0046703Y0023711D01*
X0046703Y0025009D02*
X0048002Y0025009D01*
X0048002Y0026306D02*
X0046703Y0026306D01*
X0046703Y0027604D02*
X0048002Y0027604D01*
X0048002Y0028902D02*
X0046703Y0028902D01*
X0046703Y0030200D02*
X0048002Y0030200D01*
X0042831Y0030200D02*
X0030089Y0030200D01*
X0030089Y0031497D02*
X0281152Y0031497D01*
X0281152Y0030200D02*
X0248724Y0030200D01*
X0250670Y0028902D02*
X0281152Y0028902D01*
X0281152Y0027604D02*
X0251928Y0027604D01*
X0252829Y0026306D02*
X0281152Y0026306D01*
X0281152Y0025009D02*
X0253457Y0025009D01*
X0253865Y0023711D02*
X0281152Y0023711D01*
X0281152Y0032795D02*
X0030089Y0032795D01*
X0030089Y0034093D02*
X0281152Y0034093D01*
X0281152Y0035390D02*
X0030089Y0035390D01*
X0030089Y0036688D02*
X0281152Y0036688D01*
X0281152Y0037986D02*
X0030089Y0037986D01*
X0030089Y0039284D02*
X0281152Y0039284D01*
X0281152Y0040581D02*
X0030089Y0040581D01*
X0030089Y0041879D02*
X0281152Y0041879D01*
X0281152Y0043177D02*
X0030089Y0043177D01*
X0030089Y0044474D02*
X0281152Y0044474D01*
X0281152Y0045772D02*
X0030089Y0045772D01*
X0030089Y0047070D02*
X0281152Y0047070D01*
X0281152Y0048368D02*
X0030089Y0048368D01*
X0030089Y0049665D02*
X0281152Y0049665D01*
X0281152Y0050963D02*
X0030089Y0050963D01*
X0030089Y0052261D02*
X0281152Y0052261D01*
X0281152Y0053559D02*
X0030089Y0053559D01*
X0030089Y0054856D02*
X0281152Y0054856D01*
X0281152Y0056154D02*
X0030089Y0056154D01*
X0030089Y0057452D02*
X0281152Y0057452D01*
X0281152Y0058749D02*
X0030089Y0058749D01*
X0030089Y0060047D02*
X0281152Y0060047D01*
X0281152Y0061345D02*
X0171722Y0061345D01*
X0171169Y0061116D02*
X0173019Y0061882D01*
X0174435Y0063298D01*
X0175201Y0065148D01*
X0175201Y0065985D01*
X0175900Y0064298D01*
X0177316Y0062882D01*
X0179166Y0062116D01*
X0181169Y0062116D01*
X0183019Y0062882D01*
X0184435Y0064298D01*
X0185201Y0066148D01*
X0185201Y0068151D01*
X0184435Y0070001D01*
X0183019Y0071417D01*
X0181169Y0072183D01*
X0179166Y0072183D01*
X0177316Y0071417D01*
X0175900Y0070001D01*
X0175133Y0068151D01*
X0175133Y0067314D01*
X0174435Y0069001D01*
X0173019Y0070417D01*
X0171169Y0071183D01*
X0169166Y0071183D01*
X0167316Y0070417D01*
X0165900Y0069001D01*
X0165201Y0067314D01*
X0165201Y0068151D01*
X0164435Y0070001D01*
X0163019Y0071417D01*
X0161169Y0072183D01*
X0159166Y0072183D01*
X0157316Y0071417D01*
X0155900Y0070001D01*
X0155133Y0068151D01*
X0155133Y0067314D01*
X0154435Y0069001D01*
X0153019Y0070417D01*
X0151169Y0071183D01*
X0149166Y0071183D01*
X0147316Y0070417D01*
X0145900Y0069001D01*
X0145133Y0067151D01*
X0145133Y0066799D01*
X0140518Y0066799D01*
X0140518Y0067500D01*
X0145217Y0067500D01*
X0145217Y0067547D01*
X0145093Y0068332D01*
X0144847Y0069088D01*
X0144486Y0069796D01*
X0144019Y0070439D01*
X0143457Y0071001D01*
X0142814Y0071468D01*
X0142106Y0071829D01*
X0141350Y0072075D01*
X0140565Y0072199D01*
X0140518Y0072199D01*
X0140518Y0067500D01*
X0139817Y0067500D01*
X0139817Y0072199D01*
X0139770Y0072199D01*
X0138985Y0072075D01*
X0138229Y0071829D01*
X0137521Y0071468D01*
X0136878Y0071001D01*
X0136316Y0070439D01*
X0135849Y0069796D01*
X0135488Y0069088D01*
X0135242Y0068332D01*
X0135118Y0067547D01*
X0135118Y0067500D01*
X0139817Y0067500D01*
X0139817Y0066799D01*
X0140518Y0066799D01*
X0140518Y0062100D01*
X0140565Y0062100D01*
X0141350Y0062224D01*
X0142106Y0062470D01*
X0142814Y0062831D01*
X0143457Y0063298D01*
X0144019Y0063860D01*
X0144486Y0064503D01*
X0144847Y0065211D01*
X0145093Y0065967D01*
X0145133Y0066225D01*
X0145133Y0065148D01*
X0145900Y0063298D01*
X0147316Y0061882D01*
X0149166Y0061116D01*
X0151169Y0061116D01*
X0153019Y0061882D01*
X0154435Y0063298D01*
X0155201Y0065148D01*
X0155201Y0065985D01*
X0155900Y0064298D01*
X0157316Y0062882D01*
X0159166Y0062116D01*
X0161169Y0062116D01*
X0163019Y0062882D01*
X0164435Y0064298D01*
X0165133Y0065985D01*
X0165133Y0065148D01*
X0165900Y0063298D01*
X0167316Y0061882D01*
X0169166Y0061116D01*
X0171169Y0061116D01*
X0168613Y0061345D02*
X0151722Y0061345D01*
X0153779Y0062643D02*
X0157894Y0062643D01*
X0156258Y0063940D02*
X0154701Y0063940D01*
X0155201Y0065238D02*
X0155510Y0065238D01*
X0155133Y0067834D02*
X0154918Y0067834D01*
X0154305Y0069131D02*
X0155540Y0069131D01*
X0156328Y0070429D02*
X0152990Y0070429D01*
X0158063Y0071727D02*
X0142307Y0071727D01*
X0140518Y0071727D02*
X0139817Y0071727D01*
X0139817Y0070429D02*
X0140518Y0070429D01*
X0140518Y0069131D02*
X0139817Y0069131D01*
X0139817Y0067834D02*
X0140518Y0067834D01*
X0139817Y0066799D02*
X0135201Y0066799D01*
X0135201Y0067151D01*
X0134435Y0069001D01*
X0133019Y0070417D01*
X0131169Y0071183D01*
X0129166Y0071183D01*
X0127316Y0070417D01*
X0125900Y0069001D01*
X0125201Y0067314D01*
X0125201Y0068151D01*
X0124435Y0070001D01*
X0123019Y0071417D01*
X0121169Y0072183D01*
X0119166Y0072183D01*
X0117316Y0071417D01*
X0115900Y0070001D01*
X0115133Y0068151D01*
X0115133Y0067314D01*
X0114435Y0069001D01*
X0113019Y0070417D01*
X0111169Y0071183D01*
X0109166Y0071183D01*
X0107316Y0070417D01*
X0105900Y0069001D01*
X0105133Y0067151D01*
X0105133Y0066799D01*
X0100518Y0066799D01*
X0100518Y0067500D01*
X0105217Y0067500D01*
X0105217Y0067547D01*
X0105093Y0068332D01*
X0104847Y0069088D01*
X0104486Y0069796D01*
X0104019Y0070439D01*
X0103457Y0071001D01*
X0102814Y0071468D01*
X0102106Y0071829D01*
X0101350Y0072075D01*
X0100565Y0072199D01*
X0100518Y0072199D01*
X0100518Y0067500D01*
X0099817Y0067500D01*
X0099817Y0072199D01*
X0099770Y0072199D01*
X0098985Y0072075D01*
X0098229Y0071829D01*
X0097521Y0071468D01*
X0096878Y0071001D01*
X0096316Y0070439D01*
X0095849Y0069796D01*
X0095488Y0069088D01*
X0095242Y0068332D01*
X0095118Y0067547D01*
X0095118Y0067500D01*
X0099817Y0067500D01*
X0099817Y0066799D01*
X0100518Y0066799D01*
X0100518Y0062100D01*
X0100565Y0062100D01*
X0101350Y0062224D01*
X0102106Y0062470D01*
X0102814Y0062831D01*
X0103457Y0063298D01*
X0104019Y0063860D01*
X0104486Y0064503D01*
X0104847Y0065211D01*
X0105093Y0065967D01*
X0105133Y0066225D01*
X0105133Y0065148D01*
X0105900Y0063298D01*
X0107316Y0061882D01*
X0109166Y0061116D01*
X0111169Y0061116D01*
X0113019Y0061882D01*
X0114435Y0063298D01*
X0115201Y0065148D01*
X0115201Y0065985D01*
X0115900Y0064298D01*
X0117316Y0062882D01*
X0119166Y0062116D01*
X0121169Y0062116D01*
X0123019Y0062882D01*
X0124435Y0064298D01*
X0125133Y0065985D01*
X0125133Y0065148D01*
X0125900Y0063298D01*
X0127316Y0061882D01*
X0129166Y0061116D01*
X0131169Y0061116D01*
X0133019Y0061882D01*
X0134435Y0063298D01*
X0135201Y0065148D01*
X0135201Y0066225D01*
X0135242Y0065967D01*
X0135488Y0065211D01*
X0135849Y0064503D01*
X0136316Y0063860D01*
X0136878Y0063298D01*
X0137521Y0062831D01*
X0138229Y0062470D01*
X0138985Y0062224D01*
X0139770Y0062100D01*
X0139817Y0062100D01*
X0139817Y0066799D01*
X0139817Y0066536D02*
X0140518Y0066536D01*
X0140518Y0065238D02*
X0139817Y0065238D01*
X0139817Y0063940D02*
X0140518Y0063940D01*
X0140518Y0062643D02*
X0139817Y0062643D01*
X0137890Y0062643D02*
X0133779Y0062643D01*
X0134701Y0063940D02*
X0136257Y0063940D01*
X0135479Y0065238D02*
X0135201Y0065238D01*
X0135163Y0067834D02*
X0134918Y0067834D01*
X0135510Y0069131D02*
X0134305Y0069131D01*
X0132990Y0070429D02*
X0136308Y0070429D01*
X0138028Y0071727D02*
X0122271Y0071727D01*
X0124007Y0070429D02*
X0127345Y0070429D01*
X0126030Y0069131D02*
X0124795Y0069131D01*
X0125201Y0067834D02*
X0125416Y0067834D01*
X0125133Y0065238D02*
X0124824Y0065238D01*
X0124077Y0063940D02*
X0125634Y0063940D01*
X0126555Y0062643D02*
X0122441Y0062643D01*
X0117894Y0062643D02*
X0113779Y0062643D01*
X0114701Y0063940D02*
X0116258Y0063940D01*
X0115510Y0065238D02*
X0115201Y0065238D01*
X0115133Y0067834D02*
X0114918Y0067834D01*
X0114305Y0069131D02*
X0115540Y0069131D01*
X0116328Y0070429D02*
X0112990Y0070429D01*
X0118063Y0071727D02*
X0102307Y0071727D01*
X0100518Y0071727D02*
X0099817Y0071727D01*
X0099817Y0070429D02*
X0100518Y0070429D01*
X0100518Y0069131D02*
X0099817Y0069131D01*
X0099817Y0067834D02*
X0100518Y0067834D01*
X0099817Y0066799D02*
X0095201Y0066799D01*
X0095201Y0067151D01*
X0094435Y0069001D01*
X0093019Y0070417D01*
X0091169Y0071183D01*
X0089166Y0071183D01*
X0087316Y0070417D01*
X0085900Y0069001D01*
X0085133Y0067151D01*
X0085133Y0065148D01*
X0085900Y0063298D01*
X0087316Y0061882D01*
X0089166Y0061116D01*
X0091169Y0061116D01*
X0093019Y0061882D01*
X0094435Y0063298D01*
X0095201Y0065148D01*
X0095201Y0066225D01*
X0095242Y0065967D01*
X0095488Y0065211D01*
X0095849Y0064503D01*
X0096316Y0063860D01*
X0096878Y0063298D01*
X0097521Y0062831D01*
X0098229Y0062470D01*
X0098985Y0062224D01*
X0099770Y0062100D01*
X0099817Y0062100D01*
X0099817Y0066799D01*
X0099817Y0066536D02*
X0100518Y0066536D01*
X0100518Y0065238D02*
X0099817Y0065238D01*
X0099817Y0063940D02*
X0100518Y0063940D01*
X0100518Y0062643D02*
X0099817Y0062643D01*
X0097890Y0062643D02*
X0093779Y0062643D01*
X0094701Y0063940D02*
X0096257Y0063940D01*
X0095479Y0065238D02*
X0095201Y0065238D01*
X0095163Y0067834D02*
X0094918Y0067834D01*
X0095510Y0069131D02*
X0094305Y0069131D01*
X0092990Y0070429D02*
X0096308Y0070429D01*
X0098028Y0071727D02*
X0076467Y0071727D01*
X0076467Y0072405D02*
X0075888Y0073802D01*
X0074819Y0074870D01*
X0073423Y0075449D01*
X0071912Y0075449D01*
X0070515Y0074870D01*
X0069447Y0073802D01*
X0068868Y0072405D01*
X0068868Y0070894D01*
X0069447Y0069498D01*
X0070515Y0068429D01*
X0071912Y0067850D01*
X0073423Y0067850D01*
X0074819Y0068429D01*
X0075888Y0069498D01*
X0076467Y0070894D01*
X0076467Y0072405D01*
X0076210Y0073024D02*
X0281152Y0073024D01*
X0281152Y0071727D02*
X0182271Y0071727D01*
X0184007Y0070429D02*
X0281152Y0070429D01*
X0281152Y0069131D02*
X0184795Y0069131D01*
X0185201Y0067834D02*
X0281152Y0067834D01*
X0281152Y0066536D02*
X0185201Y0066536D01*
X0184824Y0065238D02*
X0281152Y0065238D01*
X0281152Y0063940D02*
X0184077Y0063940D01*
X0182441Y0062643D02*
X0281152Y0062643D01*
X0281152Y0074322D02*
X0075368Y0074322D01*
X0076073Y0075513D02*
X0077107Y0075085D01*
X0078227Y0075085D01*
X0079262Y0075513D01*
X0080054Y0076305D01*
X0080482Y0077340D01*
X0080482Y0078460D01*
X0080054Y0079494D01*
X0079262Y0080286D01*
X0078227Y0080715D01*
X0077107Y0080715D01*
X0076073Y0080286D01*
X0075281Y0079494D01*
X0074852Y0078460D01*
X0074852Y0077340D01*
X0075281Y0076305D01*
X0076073Y0075513D01*
X0075966Y0075620D02*
X0030089Y0075620D01*
X0030089Y0076918D02*
X0075027Y0076918D01*
X0074852Y0078215D02*
X0055714Y0078215D01*
X0055512Y0078013D02*
X0056304Y0078805D01*
X0056732Y0079840D01*
X0056732Y0080960D01*
X0056304Y0081994D01*
X0055512Y0082786D01*
X0054477Y0083215D01*
X0053357Y0083215D01*
X0052323Y0082786D01*
X0051531Y0081994D01*
X0051102Y0080960D01*
X0051102Y0079840D01*
X0051531Y0078805D01*
X0052323Y0078013D01*
X0053357Y0077585D01*
X0054477Y0077585D01*
X0055512Y0078013D01*
X0056597Y0079513D02*
X0075300Y0079513D01*
X0080035Y0079513D02*
X0103323Y0079513D01*
X0103573Y0079263D02*
X0104607Y0078835D01*
X0105727Y0078835D01*
X0106762Y0079263D01*
X0107554Y0080055D01*
X0107982Y0081090D01*
X0107982Y0082210D01*
X0107554Y0083244D01*
X0106762Y0084036D01*
X0105727Y0084465D01*
X0104607Y0084465D01*
X0103573Y0084036D01*
X0102781Y0083244D01*
X0102352Y0082210D01*
X0102352Y0081090D01*
X0102781Y0080055D01*
X0103573Y0079263D01*
X0102468Y0080811D02*
X0056732Y0080811D01*
X0056189Y0082108D02*
X0102352Y0082108D01*
X0102943Y0083406D02*
X0030089Y0083406D01*
X0030089Y0082108D02*
X0051645Y0082108D01*
X0051102Y0080811D02*
X0030089Y0080811D01*
X0030089Y0079513D02*
X0051238Y0079513D01*
X0052121Y0078215D02*
X0030089Y0078215D01*
X0030089Y0074322D02*
X0044967Y0074322D01*
X0044447Y0073802D02*
X0043868Y0072405D01*
X0043868Y0070894D01*
X0044447Y0069498D01*
X0045515Y0068429D01*
X0046912Y0067850D01*
X0048423Y0067850D01*
X0049819Y0068429D01*
X0050888Y0069498D01*
X0051467Y0070894D01*
X0051467Y0072405D01*
X0050888Y0073802D01*
X0049819Y0074870D01*
X0048423Y0075449D01*
X0046912Y0075449D01*
X0045515Y0074870D01*
X0044447Y0073802D01*
X0044125Y0073024D02*
X0030089Y0073024D01*
X0030089Y0071727D02*
X0043868Y0071727D01*
X0044061Y0070429D02*
X0030089Y0070429D01*
X0030089Y0069131D02*
X0044813Y0069131D01*
X0050522Y0069131D02*
X0069813Y0069131D01*
X0069061Y0070429D02*
X0051274Y0070429D01*
X0051467Y0071727D02*
X0068868Y0071727D01*
X0069125Y0073024D02*
X0051210Y0073024D01*
X0050368Y0074322D02*
X0069967Y0074322D01*
X0076274Y0070429D02*
X0087345Y0070429D01*
X0086030Y0069131D02*
X0075522Y0069131D01*
X0079369Y0075620D02*
X0281152Y0075620D01*
X0281152Y0076918D02*
X0080307Y0076918D01*
X0080482Y0078215D02*
X0281152Y0078215D01*
X0281152Y0079513D02*
X0107012Y0079513D01*
X0107867Y0080811D02*
X0281152Y0080811D01*
X0281152Y0082108D02*
X0107982Y0082108D01*
X0107392Y0083406D02*
X0281152Y0083406D01*
X0281152Y0084704D02*
X0178595Y0084704D01*
X0178569Y0084679D02*
X0179638Y0085748D01*
X0180217Y0087144D01*
X0180217Y0088655D01*
X0179638Y0090052D01*
X0178569Y0091120D01*
X0177173Y0091699D01*
X0175662Y0091699D01*
X0174265Y0091120D01*
X0173197Y0090052D01*
X0172618Y0088655D01*
X0172618Y0087144D01*
X0173197Y0085748D01*
X0174265Y0084679D01*
X0175662Y0084100D01*
X0177173Y0084100D01*
X0178569Y0084679D01*
X0179743Y0086002D02*
X0281152Y0086002D01*
X0281152Y0087299D02*
X0180217Y0087299D01*
X0180217Y0088597D02*
X0281152Y0088597D01*
X0281152Y0089895D02*
X0179703Y0089895D01*
X0178395Y0091193D02*
X0281152Y0091193D01*
X0281152Y0092490D02*
X0030089Y0092490D01*
X0030089Y0091193D02*
X0093189Y0091193D01*
X0093015Y0091120D02*
X0091947Y0090052D01*
X0091368Y0088655D01*
X0091368Y0087144D01*
X0091947Y0085748D01*
X0093015Y0084679D01*
X0094412Y0084100D01*
X0095923Y0084100D01*
X0097319Y0084679D01*
X0098388Y0085748D01*
X0098967Y0087144D01*
X0098967Y0088655D01*
X0098388Y0090052D01*
X0097319Y0091120D01*
X0095923Y0091699D01*
X0094412Y0091699D01*
X0093015Y0091120D01*
X0091882Y0089895D02*
X0030089Y0089895D01*
X0030089Y0088597D02*
X0091368Y0088597D01*
X0091368Y0087299D02*
X0030089Y0087299D01*
X0030089Y0086002D02*
X0091841Y0086002D01*
X0092990Y0084704D02*
X0030089Y0084704D01*
X0030089Y0093788D02*
X0281152Y0093788D01*
X0281152Y0095086D02*
X0030089Y0095086D01*
X0030089Y0096383D02*
X0281152Y0096383D01*
X0281152Y0097681D02*
X0030089Y0097681D01*
X0030089Y0098979D02*
X0061935Y0098979D01*
X0062260Y0098813D02*
X0063033Y0098562D01*
X0063836Y0098435D01*
X0063858Y0098435D01*
X0063858Y0103214D01*
X0064626Y0103214D01*
X0064626Y0098435D01*
X0064648Y0098435D01*
X0065451Y0098562D01*
X0066224Y0098813D01*
X0066948Y0099182D01*
X0067606Y0099660D01*
X0068181Y0100235D01*
X0068658Y0100892D01*
X0069027Y0101616D01*
X0069278Y0102389D01*
X0069405Y0103192D01*
X0069405Y0103215D01*
X0064626Y0103215D01*
X0064626Y0103982D01*
X0069405Y0103982D01*
X0069405Y0104005D01*
X0069278Y0104808D01*
X0069027Y0105580D01*
X0068658Y0106305D01*
X0068181Y0106962D01*
X0067606Y0107537D01*
X0066948Y0108015D01*
X0066224Y0108384D01*
X0065451Y0108635D01*
X0064648Y0108762D01*
X0064626Y0108762D01*
X0064626Y0103982D01*
X0063858Y0103982D01*
X0063858Y0103215D01*
X0059079Y0103215D01*
X0059079Y0103192D01*
X0059206Y0102389D01*
X0059457Y0101616D01*
X0059826Y0100892D01*
X0060304Y0100235D01*
X0060878Y0099660D01*
X0061536Y0099182D01*
X0062260Y0098813D01*
X0063858Y0098979D02*
X0064626Y0098979D01*
X0064626Y0100277D02*
X0063858Y0100277D01*
X0063858Y0101574D02*
X0064626Y0101574D01*
X0064626Y0102872D02*
X0063858Y0102872D01*
X0063858Y0103982D02*
X0059079Y0103982D01*
X0059079Y0104005D01*
X0059206Y0104808D01*
X0059457Y0105580D01*
X0059826Y0106305D01*
X0060304Y0106962D01*
X0060878Y0107537D01*
X0061536Y0108015D01*
X0062260Y0108384D01*
X0063033Y0108635D01*
X0063836Y0108762D01*
X0063858Y0108762D01*
X0063858Y0103982D01*
X0063858Y0104170D02*
X0064626Y0104170D01*
X0064626Y0105468D02*
X0063858Y0105468D01*
X0063858Y0106765D02*
X0064626Y0106765D01*
X0064626Y0108063D02*
X0063858Y0108063D01*
X0061631Y0108063D02*
X0030089Y0108063D01*
X0030089Y0109361D02*
X0161863Y0109361D01*
X0161571Y0109652D02*
X0163111Y0108113D01*
X0165122Y0107280D01*
X0167299Y0107280D01*
X0169311Y0108113D01*
X0170850Y0109652D01*
X0171683Y0111663D01*
X0171683Y0113841D01*
X0170850Y0115852D01*
X0169311Y0117391D01*
X0167299Y0118224D01*
X0165122Y0118224D01*
X0163111Y0117391D01*
X0161571Y0115852D01*
X0160738Y0113841D01*
X0160738Y0111663D01*
X0161571Y0109652D01*
X0161154Y0110658D02*
X0030089Y0110658D01*
X0030089Y0111956D02*
X0120214Y0111956D01*
X0119934Y0112160D02*
X0120591Y0111682D01*
X0121315Y0111313D01*
X0122088Y0111062D01*
X0122891Y0110935D01*
X0122913Y0110935D01*
X0122913Y0115714D01*
X0123681Y0115714D01*
X0123681Y0110935D01*
X0123704Y0110935D01*
X0124506Y0111062D01*
X0125279Y0111313D01*
X0126003Y0111682D01*
X0126661Y0112160D01*
X0127236Y0112735D01*
X0127713Y0113392D01*
X0128082Y0114116D01*
X0128333Y0114889D01*
X0128461Y0115692D01*
X0128461Y0115715D01*
X0123681Y0115715D01*
X0123681Y0116482D01*
X0128461Y0116482D01*
X0128461Y0116505D01*
X0128333Y0117308D01*
X0128082Y0118080D01*
X0127713Y0118805D01*
X0127236Y0119462D01*
X0126661Y0120037D01*
X0126003Y0120515D01*
X0125279Y0120884D01*
X0124506Y0121135D01*
X0123704Y0121262D01*
X0123681Y0121262D01*
X0123681Y0116482D01*
X0122913Y0116482D01*
X0122913Y0115715D01*
X0118134Y0115715D01*
X0118134Y0115692D01*
X0118261Y0114889D01*
X0118512Y0114116D01*
X0118881Y0113392D01*
X0119359Y0112735D01*
X0119934Y0112160D01*
X0118982Y0113254D02*
X0030089Y0113254D01*
X0030089Y0114552D02*
X0118371Y0114552D01*
X0118134Y0116482D02*
X0122913Y0116482D01*
X0122913Y0121262D01*
X0122891Y0121262D01*
X0122088Y0121135D01*
X0121315Y0120884D01*
X0120591Y0120515D01*
X0119934Y0120037D01*
X0119359Y0119462D01*
X0118881Y0118805D01*
X0118512Y0118080D01*
X0118261Y0117308D01*
X0118134Y0116505D01*
X0118134Y0116482D01*
X0118236Y0117147D02*
X0030089Y0117147D01*
X0030089Y0115849D02*
X0122913Y0115849D01*
X0123681Y0115849D02*
X0161570Y0115849D01*
X0161033Y0114552D02*
X0128224Y0114552D01*
X0127613Y0113254D02*
X0160738Y0113254D01*
X0160738Y0111956D02*
X0126380Y0111956D01*
X0123681Y0111956D02*
X0122913Y0111956D01*
X0122913Y0113254D02*
X0123681Y0113254D01*
X0123681Y0114552D02*
X0122913Y0114552D01*
X0122913Y0117147D02*
X0123681Y0117147D01*
X0123681Y0118445D02*
X0122913Y0118445D01*
X0122913Y0119742D02*
X0123681Y0119742D01*
X0123681Y0121040D02*
X0122913Y0121040D01*
X0121797Y0121040D02*
X0046183Y0121040D01*
X0046539Y0121156D02*
X0047263Y0121525D01*
X0047921Y0122003D01*
X0048495Y0122577D01*
X0048973Y0123235D01*
X0049342Y0123959D01*
X0049593Y0124732D01*
X0049720Y0125535D01*
X0049720Y0125557D01*
X0044941Y0125557D01*
X0044941Y0120778D01*
X0044963Y0120778D01*
X0045766Y0120905D01*
X0046539Y0121156D01*
X0044941Y0121040D02*
X0044173Y0121040D01*
X0044173Y0120778D02*
X0044173Y0125557D01*
X0039394Y0125557D01*
X0039394Y0125535D01*
X0039521Y0124732D01*
X0039772Y0123959D01*
X0040141Y0123235D01*
X0040619Y0122577D01*
X0041193Y0122003D01*
X0041851Y0121525D01*
X0042575Y0121156D01*
X0043348Y0120905D01*
X0044151Y0120778D01*
X0044173Y0120778D01*
X0042931Y0121040D02*
X0030089Y0121040D01*
X0030089Y0119742D02*
X0119639Y0119742D01*
X0118698Y0118445D02*
X0030089Y0118445D01*
X0030089Y0122338D02*
X0040858Y0122338D01*
X0039937Y0123636D02*
X0030089Y0123636D01*
X0030089Y0124933D02*
X0039489Y0124933D01*
X0039394Y0126325D02*
X0044173Y0126325D01*
X0044173Y0131104D01*
X0044151Y0131104D01*
X0043348Y0130977D01*
X0042575Y0130726D01*
X0041851Y0130357D01*
X0041193Y0129879D01*
X0040619Y0129305D01*
X0040141Y0128647D01*
X0039772Y0127923D01*
X0039521Y0127150D01*
X0039394Y0126347D01*
X0039394Y0126325D01*
X0039644Y0127529D02*
X0030089Y0127529D01*
X0030089Y0128827D02*
X0040271Y0128827D01*
X0041530Y0130124D02*
X0030089Y0130124D01*
X0030089Y0131422D02*
X0138794Y0131422D01*
X0138602Y0130960D02*
X0139031Y0131994D01*
X0139823Y0132786D01*
X0140857Y0133215D01*
X0141977Y0133215D01*
X0143012Y0132786D01*
X0143804Y0131994D01*
X0144232Y0130960D01*
X0144232Y0129840D01*
X0143804Y0128805D01*
X0143012Y0128013D01*
X0141977Y0127585D01*
X0140857Y0127585D01*
X0139823Y0128013D01*
X0139031Y0128805D01*
X0138602Y0129840D01*
X0138602Y0130960D01*
X0138602Y0130124D02*
X0047584Y0130124D01*
X0047263Y0130357D02*
X0047921Y0129879D01*
X0048495Y0129305D01*
X0048973Y0128647D01*
X0049342Y0127923D01*
X0049593Y0127150D01*
X0049720Y0126347D01*
X0049720Y0126325D01*
X0044941Y0126325D01*
X0044173Y0126325D01*
X0044173Y0125557D01*
X0044941Y0125557D01*
X0044941Y0126325D01*
X0044941Y0131104D01*
X0044963Y0131104D01*
X0045766Y0130977D01*
X0046539Y0130726D01*
X0047263Y0130357D01*
X0048843Y0128827D02*
X0139022Y0128827D01*
X0138227Y0128215D02*
X0139262Y0127786D01*
X0140054Y0126994D01*
X0140482Y0125960D01*
X0140482Y0125559D01*
X0140857Y0125715D01*
X0141977Y0125715D01*
X0143012Y0125286D01*
X0143804Y0124494D01*
X0144232Y0123460D01*
X0144232Y0122340D01*
X0143804Y0121305D01*
X0143012Y0120513D01*
X0141977Y0120085D01*
X0140857Y0120085D01*
X0139823Y0120513D01*
X0139031Y0121305D01*
X0138602Y0122340D01*
X0138602Y0122740D01*
X0138227Y0122585D01*
X0137107Y0122585D01*
X0136073Y0123013D01*
X0135281Y0123805D01*
X0134852Y0124840D01*
X0134852Y0125960D01*
X0135281Y0126994D01*
X0136073Y0127786D01*
X0137107Y0128215D01*
X0138227Y0128215D01*
X0139519Y0127529D02*
X0168868Y0127529D01*
X0168868Y0127144D02*
X0168868Y0128655D01*
X0169447Y0130052D01*
X0170515Y0131120D01*
X0171912Y0131699D01*
X0173423Y0131699D01*
X0174819Y0131120D01*
X0175888Y0130052D01*
X0176467Y0128655D01*
X0176467Y0127144D01*
X0175888Y0125748D01*
X0174819Y0124679D01*
X0173423Y0124100D01*
X0171912Y0124100D01*
X0170515Y0124679D01*
X0169447Y0125748D01*
X0168868Y0127144D01*
X0169246Y0126231D02*
X0140370Y0126231D01*
X0143364Y0124933D02*
X0170261Y0124933D01*
X0168939Y0128827D02*
X0143813Y0128827D01*
X0144232Y0130124D02*
X0156502Y0130124D01*
X0156531Y0130055D02*
X0157323Y0129263D01*
X0158357Y0128835D01*
X0159477Y0128835D01*
X0160512Y0129263D01*
X0161304Y0130055D01*
X0161732Y0131090D01*
X0161732Y0132210D01*
X0161452Y0132885D01*
X0161762Y0133013D01*
X0162554Y0133805D01*
X0162982Y0134840D01*
X0162982Y0135960D01*
X0162554Y0136994D01*
X0161762Y0137786D01*
X0160727Y0138215D01*
X0159607Y0138215D01*
X0158573Y0137786D01*
X0157781Y0136994D01*
X0157352Y0135960D01*
X0157352Y0134840D01*
X0157632Y0134164D01*
X0157323Y0134036D01*
X0156531Y0133244D01*
X0156102Y0132210D01*
X0156102Y0131090D01*
X0156531Y0130055D01*
X0156102Y0131422D02*
X0144041Y0131422D01*
X0143078Y0132720D02*
X0156314Y0132720D01*
X0157304Y0134017D02*
X0141169Y0134017D01*
X0140727Y0133835D02*
X0141762Y0134263D01*
X0142554Y0135055D01*
X0142982Y0136090D01*
X0142982Y0137210D01*
X0142554Y0138244D01*
X0141762Y0139036D01*
X0141488Y0139150D01*
X0141762Y0139263D01*
X0142554Y0140055D01*
X0142982Y0141090D01*
X0142982Y0142210D01*
X0142554Y0143244D01*
X0141762Y0144036D01*
X0140727Y0144465D01*
X0139607Y0144465D01*
X0138573Y0144036D01*
X0137781Y0143244D01*
X0137352Y0142210D01*
X0137352Y0141090D01*
X0137781Y0140055D01*
X0138573Y0139263D01*
X0138847Y0139150D01*
X0138573Y0139036D01*
X0137781Y0138244D01*
X0137352Y0137210D01*
X0137352Y0136090D01*
X0137781Y0135055D01*
X0138573Y0134263D01*
X0139607Y0133835D01*
X0140727Y0133835D01*
X0139756Y0132720D02*
X0125567Y0132720D01*
X0125279Y0132573D02*
X0126003Y0132942D01*
X0126661Y0133420D01*
X0127236Y0133995D01*
X0127713Y0134652D01*
X0128082Y0135376D01*
X0128333Y0136149D01*
X0128461Y0136952D01*
X0128461Y0136974D01*
X0123681Y0136974D01*
X0123681Y0132195D01*
X0123704Y0132195D01*
X0124506Y0132322D01*
X0125279Y0132573D01*
X0123681Y0132720D02*
X0122913Y0132720D01*
X0122913Y0132195D02*
X0122913Y0136974D01*
X0123681Y0136974D01*
X0123681Y0137742D01*
X0128461Y0137742D01*
X0128461Y0137765D01*
X0128333Y0138567D01*
X0128082Y0139340D01*
X0127713Y0140064D01*
X0127236Y0140722D01*
X0126661Y0141297D01*
X0126003Y0141774D01*
X0125279Y0142143D01*
X0124506Y0142395D01*
X0123704Y0142522D01*
X0123681Y0142522D01*
X0123681Y0137742D01*
X0122913Y0137742D01*
X0122913Y0136974D01*
X0118134Y0136974D01*
X0118134Y0136952D01*
X0118261Y0136149D01*
X0118512Y0135376D01*
X0118881Y0134652D01*
X0119359Y0133995D01*
X0119934Y0133420D01*
X0120591Y0132942D01*
X0121315Y0132573D01*
X0122088Y0132322D01*
X0122891Y0132195D01*
X0122913Y0132195D01*
X0122913Y0134017D02*
X0123681Y0134017D01*
X0123681Y0135315D02*
X0122913Y0135315D01*
X0122913Y0136613D02*
X0123681Y0136613D01*
X0123681Y0137911D02*
X0122913Y0137911D01*
X0122913Y0137742D02*
X0122913Y0142522D01*
X0122891Y0142522D01*
X0122088Y0142395D01*
X0121315Y0142143D01*
X0120591Y0141774D01*
X0119934Y0141297D01*
X0119359Y0140722D01*
X0118881Y0140064D01*
X0118512Y0139340D01*
X0118261Y0138567D01*
X0118134Y0137765D01*
X0118134Y0137742D01*
X0122913Y0137742D01*
X0122913Y0139208D02*
X0123681Y0139208D01*
X0123681Y0140506D02*
X0122913Y0140506D01*
X0122913Y0141804D02*
X0123681Y0141804D01*
X0125946Y0141804D02*
X0137352Y0141804D01*
X0137594Y0140506D02*
X0127393Y0140506D01*
X0128125Y0139208D02*
X0138705Y0139208D01*
X0137643Y0137911D02*
X0128437Y0137911D01*
X0128407Y0136613D02*
X0137352Y0136613D01*
X0137673Y0135315D02*
X0128051Y0135315D01*
X0127252Y0134017D02*
X0139166Y0134017D01*
X0142661Y0135315D02*
X0157352Y0135315D01*
X0157623Y0136613D02*
X0142982Y0136613D01*
X0142692Y0137911D02*
X0158874Y0137911D01*
X0161461Y0137911D02*
X0169077Y0137911D01*
X0168868Y0137405D02*
X0168868Y0135894D01*
X0169447Y0134498D01*
X0170515Y0133429D01*
X0171912Y0132850D01*
X0173423Y0132850D01*
X0174819Y0133429D01*
X0175888Y0134498D01*
X0176467Y0135894D01*
X0176467Y0137405D01*
X0175888Y0138802D01*
X0174819Y0139870D01*
X0173423Y0140449D01*
X0171912Y0140449D01*
X0170515Y0139870D01*
X0169447Y0138802D01*
X0168868Y0137405D01*
X0168868Y0136613D02*
X0162712Y0136613D01*
X0162982Y0135315D02*
X0169108Y0135315D01*
X0169927Y0134017D02*
X0162642Y0134017D01*
X0161521Y0132720D02*
X0185901Y0132720D01*
X0185910Y0132780D02*
X0185791Y0132030D01*
X0185791Y0131935D01*
X0190335Y0131935D01*
X0190335Y0136478D01*
X0190240Y0136478D01*
X0189489Y0136359D01*
X0188766Y0136125D01*
X0188089Y0135780D01*
X0187474Y0135333D01*
X0186937Y0134795D01*
X0186490Y0134180D01*
X0186145Y0133503D01*
X0185910Y0132780D01*
X0186407Y0134017D02*
X0175408Y0134017D01*
X0176227Y0135315D02*
X0187457Y0135315D01*
X0190335Y0135315D02*
X0190906Y0135315D01*
X0190906Y0136478D02*
X0190906Y0131935D01*
X0195449Y0131935D01*
X0195449Y0132030D01*
X0195330Y0132780D01*
X0195095Y0133503D01*
X0194750Y0134180D01*
X0194303Y0134795D01*
X0193766Y0135333D01*
X0193151Y0135780D01*
X0192474Y0136125D01*
X0191751Y0136359D01*
X0191000Y0136478D01*
X0190906Y0136478D01*
X0190906Y0134017D02*
X0190335Y0134017D01*
X0190335Y0132720D02*
X0190906Y0132720D01*
X0190906Y0131935D02*
X0190335Y0131935D01*
X0190335Y0131364D01*
X0190906Y0131364D01*
X0190906Y0131935D01*
X0190906Y0131422D02*
X0196368Y0131422D01*
X0196368Y0130894D02*
X0196947Y0129498D01*
X0198015Y0128429D01*
X0199412Y0127850D01*
X0200923Y0127850D01*
X0202319Y0128429D01*
X0203388Y0129498D01*
X0203967Y0130894D01*
X0203967Y0132405D01*
X0203388Y0133802D01*
X0202319Y0134870D01*
X0200923Y0135449D01*
X0199412Y0135449D01*
X0198015Y0134870D01*
X0196947Y0133802D01*
X0196368Y0132405D01*
X0196368Y0130894D01*
X0196687Y0130124D02*
X0195202Y0130124D01*
X0195095Y0129796D02*
X0195330Y0130519D01*
X0195449Y0131270D01*
X0195449Y0131364D01*
X0190906Y0131364D01*
X0190906Y0126821D01*
X0191000Y0126821D01*
X0191751Y0126940D01*
X0192474Y0127175D01*
X0193151Y0127520D01*
X0193766Y0127966D01*
X0194303Y0128504D01*
X0194750Y0129119D01*
X0195095Y0129796D01*
X0194538Y0128827D02*
X0197617Y0128827D01*
X0196498Y0132720D02*
X0195340Y0132720D01*
X0194833Y0134017D02*
X0197162Y0134017D01*
X0199089Y0135315D02*
X0193783Y0135315D01*
X0190335Y0131422D02*
X0174091Y0131422D01*
X0175816Y0130124D02*
X0186038Y0130124D01*
X0186145Y0129796D02*
X0186490Y0129119D01*
X0186937Y0128504D01*
X0187474Y0127966D01*
X0188089Y0127520D01*
X0188766Y0127175D01*
X0189489Y0126940D01*
X0190240Y0126821D01*
X0190335Y0126821D01*
X0190335Y0131364D01*
X0185791Y0131364D01*
X0185791Y0131270D01*
X0185910Y0130519D01*
X0186145Y0129796D01*
X0186702Y0128827D02*
X0176396Y0128827D01*
X0176467Y0127529D02*
X0188077Y0127529D01*
X0190335Y0127529D02*
X0190906Y0127529D01*
X0190906Y0128827D02*
X0190335Y0128827D01*
X0190335Y0130124D02*
X0190906Y0130124D01*
X0193163Y0127529D02*
X0281152Y0127529D01*
X0281152Y0128827D02*
X0202717Y0128827D01*
X0203648Y0130124D02*
X0281152Y0130124D01*
X0281152Y0131422D02*
X0203967Y0131422D01*
X0203836Y0132720D02*
X0281152Y0132720D01*
X0281152Y0134017D02*
X0203172Y0134017D01*
X0201246Y0135315D02*
X0281152Y0135315D01*
X0281152Y0136613D02*
X0228453Y0136613D01*
X0228423Y0136600D02*
X0229819Y0137179D01*
X0230888Y0138248D01*
X0231467Y0139644D01*
X0231467Y0141155D01*
X0230888Y0142552D01*
X0229819Y0143620D01*
X0228423Y0144199D01*
X0226912Y0144199D01*
X0225515Y0143620D01*
X0224447Y0142552D01*
X0223868Y0141155D01*
X0223868Y0139644D01*
X0224447Y0138248D01*
X0225515Y0137179D01*
X0226912Y0136600D01*
X0228423Y0136600D01*
X0226881Y0136613D02*
X0176467Y0136613D01*
X0176257Y0137911D02*
X0224783Y0137911D01*
X0224049Y0139208D02*
X0175481Y0139208D01*
X0169853Y0139208D02*
X0141629Y0139208D01*
X0142741Y0140506D02*
X0223868Y0140506D01*
X0224137Y0141804D02*
X0142982Y0141804D01*
X0142613Y0143102D02*
X0224996Y0143102D01*
X0230338Y0143102D02*
X0281152Y0143102D01*
X0281152Y0144399D02*
X0140885Y0144399D01*
X0139450Y0144399D02*
X0030089Y0144399D01*
X0030089Y0143102D02*
X0137722Y0143102D01*
X0124506Y0154665D02*
X0123704Y0154537D01*
X0123681Y0154537D01*
X0123681Y0159317D01*
X0122913Y0159317D01*
X0118134Y0159317D01*
X0118134Y0159294D01*
X0118261Y0158492D01*
X0118512Y0157719D01*
X0118881Y0156995D01*
X0119359Y0156337D01*
X0119934Y0155762D01*
X0120591Y0155285D01*
X0121315Y0154916D01*
X0122088Y0154665D01*
X0122891Y0154537D01*
X0122913Y0154537D01*
X0122913Y0159317D01*
X0122913Y0160085D01*
X0118134Y0160085D01*
X0118134Y0160107D01*
X0118261Y0160910D01*
X0118512Y0161683D01*
X0118881Y0162407D01*
X0119359Y0163065D01*
X0119934Y0163639D01*
X0120591Y0164117D01*
X0121315Y0164486D01*
X0122088Y0164737D01*
X0122891Y0164864D01*
X0122913Y0164864D01*
X0122913Y0160085D01*
X0123681Y0160085D01*
X0123681Y0164864D01*
X0123704Y0164864D01*
X0124506Y0164737D01*
X0125279Y0164486D01*
X0126003Y0164117D01*
X0126661Y0163639D01*
X0127236Y0163065D01*
X0127713Y0162407D01*
X0128082Y0161683D01*
X0128333Y0160910D01*
X0128461Y0160107D01*
X0128461Y0160085D01*
X0123681Y0160085D01*
X0123681Y0159317D01*
X0128461Y0159317D01*
X0128461Y0159294D01*
X0128333Y0158492D01*
X0128082Y0157719D01*
X0127713Y0156995D01*
X0127236Y0156337D01*
X0126661Y0155762D01*
X0126003Y0155285D01*
X0125279Y0154916D01*
X0124506Y0154665D01*
X0124865Y0154781D02*
X0162705Y0154781D01*
X0162382Y0154872D02*
X0162382Y0159415D01*
X0162953Y0159415D01*
X0162953Y0155029D01*
X0161571Y0153647D01*
X0160738Y0151636D01*
X0160738Y0149459D01*
X0161571Y0147447D01*
X0163111Y0145908D01*
X0165122Y0145075D01*
X0167299Y0145075D01*
X0169311Y0145908D01*
X0170850Y0147447D01*
X0171683Y0149459D01*
X0171683Y0151636D01*
X0170850Y0153647D01*
X0169311Y0155187D01*
X0167299Y0156020D01*
X0165815Y0156020D01*
X0166350Y0156555D01*
X0166797Y0157170D01*
X0167142Y0157847D01*
X0167377Y0158570D01*
X0167496Y0159321D01*
X0167496Y0159415D01*
X0162953Y0159415D01*
X0162953Y0159986D01*
X0167496Y0159986D01*
X0167496Y0160081D01*
X0167377Y0160832D01*
X0167142Y0161554D01*
X0166797Y0162232D01*
X0166350Y0162846D01*
X0165813Y0163384D01*
X0165198Y0163831D01*
X0164521Y0164176D01*
X0163798Y0164411D01*
X0163047Y0164530D01*
X0162953Y0164530D01*
X0162953Y0159986D01*
X0162382Y0159986D01*
X0162382Y0159415D01*
X0157839Y0159415D01*
X0157839Y0159321D01*
X0157957Y0158570D01*
X0158192Y0157847D01*
X0158537Y0157170D01*
X0158984Y0156555D01*
X0159522Y0156018D01*
X0160137Y0155571D01*
X0160814Y0155226D01*
X0161537Y0154991D01*
X0162287Y0154872D01*
X0162382Y0154872D01*
X0162382Y0156079D02*
X0162953Y0156079D01*
X0162953Y0157376D02*
X0162382Y0157376D01*
X0162382Y0158674D02*
X0162953Y0158674D01*
X0162953Y0159972D02*
X0172224Y0159972D01*
X0172224Y0159986D02*
X0172224Y0159415D01*
X0167681Y0159415D01*
X0167681Y0159321D01*
X0167800Y0158570D01*
X0168035Y0157847D01*
X0168380Y0157170D01*
X0168827Y0156555D01*
X0169364Y0156018D01*
X0169979Y0155571D01*
X0170656Y0155226D01*
X0171379Y0154991D01*
X0172130Y0154872D01*
X0172224Y0154872D01*
X0172224Y0159415D01*
X0172795Y0159415D01*
X0172795Y0154872D01*
X0172890Y0154872D01*
X0173641Y0154991D01*
X0174363Y0155226D01*
X0175041Y0155571D01*
X0175656Y0156018D01*
X0176193Y0156555D01*
X0176640Y0157170D01*
X0176985Y0157847D01*
X0177220Y0158570D01*
X0177339Y0159321D01*
X0177339Y0159415D01*
X0172795Y0159415D01*
X0172795Y0159986D01*
X0172224Y0159986D01*
X0167681Y0159986D01*
X0167681Y0160081D01*
X0167800Y0160832D01*
X0168035Y0161554D01*
X0168380Y0162232D01*
X0168827Y0162846D01*
X0169364Y0163384D01*
X0169979Y0163831D01*
X0170656Y0164176D01*
X0171379Y0164411D01*
X0172130Y0164530D01*
X0172224Y0164530D01*
X0172224Y0159986D01*
X0172795Y0159986D02*
X0172795Y0164530D01*
X0172890Y0164530D01*
X0173641Y0164411D01*
X0174363Y0164176D01*
X0175041Y0163831D01*
X0175656Y0163384D01*
X0176193Y0162846D01*
X0176640Y0162232D01*
X0176985Y0161554D01*
X0177220Y0160832D01*
X0177339Y0160081D01*
X0177339Y0159986D01*
X0172795Y0159986D01*
X0172795Y0159972D02*
X0281152Y0159972D01*
X0281152Y0161270D02*
X0177077Y0161270D01*
X0176396Y0162567D02*
X0281152Y0162567D01*
X0281152Y0163865D02*
X0174973Y0163865D01*
X0172795Y0163865D02*
X0172224Y0163865D01*
X0172224Y0162567D02*
X0172795Y0162567D01*
X0172795Y0161270D02*
X0172224Y0161270D01*
X0172224Y0158674D02*
X0172795Y0158674D01*
X0172795Y0157376D02*
X0172224Y0157376D01*
X0172224Y0156079D02*
X0172795Y0156079D01*
X0175717Y0156079D02*
X0281152Y0156079D01*
X0281152Y0157376D02*
X0176745Y0157376D01*
X0177236Y0158674D02*
X0281152Y0158674D01*
X0281152Y0154781D02*
X0192947Y0154781D01*
X0193151Y0154677D02*
X0192474Y0155022D01*
X0191751Y0155257D01*
X0191000Y0155376D01*
X0190906Y0155376D01*
X0190906Y0150833D01*
X0195449Y0150833D01*
X0195449Y0150927D01*
X0195330Y0151678D01*
X0195095Y0152401D01*
X0194750Y0153078D01*
X0194303Y0153693D01*
X0193766Y0154230D01*
X0193151Y0154677D01*
X0194456Y0153483D02*
X0281152Y0153483D01*
X0281152Y0152186D02*
X0195165Y0152186D01*
X0195449Y0150888D02*
X0281152Y0150888D01*
X0281152Y0149590D02*
X0195357Y0149590D01*
X0195330Y0149416D02*
X0195449Y0150167D01*
X0195449Y0150262D01*
X0190906Y0150262D01*
X0190906Y0150833D01*
X0190335Y0150833D01*
X0190335Y0155376D01*
X0190240Y0155376D01*
X0189489Y0155257D01*
X0188766Y0155022D01*
X0188089Y0154677D01*
X0187474Y0154230D01*
X0186937Y0153693D01*
X0186490Y0153078D01*
X0186145Y0152401D01*
X0185910Y0151678D01*
X0185791Y0150927D01*
X0185791Y0150833D01*
X0190335Y0150833D01*
X0190335Y0150262D01*
X0190906Y0150262D01*
X0190906Y0145719D01*
X0191000Y0145719D01*
X0191751Y0145837D01*
X0192474Y0146072D01*
X0193151Y0146417D01*
X0193766Y0146864D01*
X0194303Y0147402D01*
X0194750Y0148016D01*
X0195095Y0148694D01*
X0195330Y0149416D01*
X0194891Y0148292D02*
X0281152Y0148292D01*
X0281152Y0146995D02*
X0193896Y0146995D01*
X0190906Y0146995D02*
X0190335Y0146995D01*
X0190335Y0145718D02*
X0190335Y0150262D01*
X0185791Y0150262D01*
X0185791Y0150167D01*
X0185910Y0149416D01*
X0186145Y0148694D01*
X0186490Y0148016D01*
X0186937Y0147402D01*
X0187474Y0146864D01*
X0188089Y0146417D01*
X0188766Y0146072D01*
X0189489Y0145837D01*
X0190240Y0145719D01*
X0190335Y0145718D01*
X0190335Y0148292D02*
X0190906Y0148292D01*
X0190906Y0149590D02*
X0190335Y0149590D01*
X0190335Y0150888D02*
X0190906Y0150888D01*
X0190906Y0152186D02*
X0190335Y0152186D01*
X0190335Y0153483D02*
X0190906Y0153483D01*
X0190906Y0154781D02*
X0190335Y0154781D01*
X0188293Y0154781D02*
X0169716Y0154781D01*
X0169303Y0156079D02*
X0165874Y0156079D01*
X0166902Y0157376D02*
X0168275Y0157376D01*
X0167784Y0158674D02*
X0167394Y0158674D01*
X0167235Y0161270D02*
X0167942Y0161270D01*
X0168624Y0162567D02*
X0166553Y0162567D01*
X0165131Y0163865D02*
X0170047Y0163865D01*
X0162953Y0163865D02*
X0162382Y0163865D01*
X0162382Y0164530D02*
X0162287Y0164530D01*
X0161537Y0164411D01*
X0160814Y0164176D01*
X0160137Y0163831D01*
X0159522Y0163384D01*
X0158984Y0162846D01*
X0158537Y0162232D01*
X0158192Y0161554D01*
X0157957Y0160832D01*
X0157839Y0160081D01*
X0157839Y0159986D01*
X0162382Y0159986D01*
X0162382Y0164530D01*
X0162382Y0162567D02*
X0162953Y0162567D01*
X0162953Y0161270D02*
X0162382Y0161270D01*
X0162382Y0159972D02*
X0153110Y0159972D01*
X0153110Y0159986D02*
X0157654Y0159986D01*
X0157654Y0160081D01*
X0157535Y0160832D01*
X0157300Y0161554D01*
X0156955Y0162232D01*
X0156508Y0162846D01*
X0155971Y0163384D01*
X0155356Y0163831D01*
X0154678Y0164176D01*
X0153956Y0164411D01*
X0153205Y0164530D01*
X0153110Y0164530D01*
X0153110Y0159986D01*
X0153110Y0159415D01*
X0153110Y0154872D01*
X0153205Y0154872D01*
X0153956Y0154991D01*
X0154678Y0155226D01*
X0155356Y0155571D01*
X0155971Y0156018D01*
X0156508Y0156555D01*
X0156955Y0157170D01*
X0157300Y0157847D01*
X0157535Y0158570D01*
X0157654Y0159321D01*
X0157654Y0159415D01*
X0153110Y0159415D01*
X0152539Y0159415D01*
X0152539Y0154872D01*
X0152445Y0154872D01*
X0151694Y0154991D01*
X0150971Y0155226D01*
X0150294Y0155571D01*
X0149679Y0156018D01*
X0149142Y0156555D01*
X0148695Y0157170D01*
X0148350Y0157847D01*
X0148115Y0158570D01*
X0147996Y0159321D01*
X0147996Y0159415D01*
X0152539Y0159415D01*
X0152539Y0159986D01*
X0147996Y0159986D01*
X0147996Y0160081D01*
X0148115Y0160832D01*
X0148350Y0161554D01*
X0148695Y0162232D01*
X0149142Y0162846D01*
X0149679Y0163384D01*
X0150294Y0163831D01*
X0150971Y0164176D01*
X0151694Y0164411D01*
X0152445Y0164530D01*
X0152539Y0164530D01*
X0152539Y0159986D01*
X0153110Y0159986D01*
X0152539Y0159972D02*
X0134606Y0159972D01*
X0134606Y0159986D02*
X0139150Y0159986D01*
X0139150Y0160081D01*
X0139031Y0160832D01*
X0138796Y0161554D01*
X0138451Y0162232D01*
X0138004Y0162846D01*
X0137467Y0163384D01*
X0136852Y0163831D01*
X0136174Y0164176D01*
X0135452Y0164411D01*
X0134701Y0164530D01*
X0134606Y0164530D01*
X0134606Y0159986D01*
X0134035Y0159986D01*
X0134035Y0159415D01*
X0129492Y0159415D01*
X0129492Y0159321D01*
X0129611Y0158570D01*
X0129846Y0157847D01*
X0130191Y0157170D01*
X0130638Y0156555D01*
X0131175Y0156018D01*
X0131790Y0155571D01*
X0132467Y0155226D01*
X0133190Y0154991D01*
X0133941Y0154872D01*
X0134035Y0154872D01*
X0134035Y0159415D01*
X0134606Y0159415D01*
X0134606Y0154872D01*
X0134701Y0154872D01*
X0135452Y0154991D01*
X0136174Y0155226D01*
X0136852Y0155571D01*
X0137467Y0156018D01*
X0138004Y0156555D01*
X0138451Y0157170D01*
X0138796Y0157847D01*
X0139031Y0158570D01*
X0139150Y0159321D01*
X0139150Y0159415D01*
X0134606Y0159415D01*
X0134606Y0159986D01*
X0134035Y0159986D02*
X0134035Y0164530D01*
X0133941Y0164530D01*
X0133190Y0164411D01*
X0132467Y0164176D01*
X0131790Y0163831D01*
X0131175Y0163384D01*
X0130638Y0162846D01*
X0130191Y0162232D01*
X0129846Y0161554D01*
X0129611Y0160832D01*
X0129492Y0160081D01*
X0129492Y0159986D01*
X0134035Y0159986D01*
X0134035Y0159972D02*
X0123681Y0159972D01*
X0122913Y0159972D02*
X0084311Y0159972D01*
X0084311Y0160085D02*
X0084311Y0159317D01*
X0089091Y0159317D01*
X0089091Y0159294D01*
X0088963Y0158492D01*
X0088712Y0157719D01*
X0088343Y0156995D01*
X0087866Y0156337D01*
X0087291Y0155762D01*
X0086633Y0155285D01*
X0085909Y0154916D01*
X0085136Y0154665D01*
X0084334Y0154537D01*
X0084311Y0154537D01*
X0084311Y0159317D01*
X0083543Y0159317D01*
X0078764Y0159317D01*
X0078764Y0159294D01*
X0078891Y0158492D01*
X0079142Y0157719D01*
X0079511Y0156995D01*
X0079989Y0156337D01*
X0080563Y0155762D01*
X0081221Y0155285D01*
X0081945Y0154916D01*
X0082718Y0154665D01*
X0083521Y0154537D01*
X0083543Y0154537D01*
X0083543Y0159317D01*
X0083543Y0160085D01*
X0083543Y0164864D01*
X0083521Y0164864D01*
X0082718Y0164737D01*
X0081945Y0164486D01*
X0081221Y0164117D01*
X0080563Y0163639D01*
X0079989Y0163065D01*
X0079511Y0162407D01*
X0079142Y0161683D01*
X0078891Y0160910D01*
X0078764Y0160107D01*
X0078764Y0160085D01*
X0083543Y0160085D01*
X0084311Y0160085D01*
X0084311Y0164864D01*
X0084334Y0164864D01*
X0085136Y0164737D01*
X0085909Y0164486D01*
X0086633Y0164117D01*
X0087291Y0163639D01*
X0087866Y0163065D01*
X0088343Y0162407D01*
X0088712Y0161683D01*
X0088963Y0160910D01*
X0089091Y0160107D01*
X0089091Y0160085D01*
X0084311Y0160085D01*
X0083543Y0159972D02*
X0044941Y0159972D01*
X0044941Y0160085D02*
X0044941Y0159317D01*
X0049720Y0159317D01*
X0049720Y0159294D01*
X0049593Y0158492D01*
X0049342Y0157719D01*
X0048973Y0156995D01*
X0048495Y0156337D01*
X0047921Y0155762D01*
X0047263Y0155285D01*
X0046539Y0154916D01*
X0045766Y0154665D01*
X0044963Y0154537D01*
X0044941Y0154537D01*
X0044941Y0159317D01*
X0044173Y0159317D01*
X0039394Y0159317D01*
X0039394Y0159294D01*
X0039521Y0158492D01*
X0039772Y0157719D01*
X0040141Y0156995D01*
X0040619Y0156337D01*
X0041193Y0155762D01*
X0041851Y0155285D01*
X0042575Y0154916D01*
X0043348Y0154665D01*
X0044151Y0154537D01*
X0044173Y0154537D01*
X0044173Y0159317D01*
X0044173Y0160085D01*
X0044173Y0164864D01*
X0044151Y0164864D01*
X0043348Y0164737D01*
X0042575Y0164486D01*
X0041851Y0164117D01*
X0041193Y0163639D01*
X0040619Y0163065D01*
X0040141Y0162407D01*
X0039772Y0161683D01*
X0039521Y0160910D01*
X0039394Y0160107D01*
X0039394Y0160085D01*
X0044173Y0160085D01*
X0044941Y0160085D01*
X0044941Y0164864D01*
X0044963Y0164864D01*
X0045766Y0164737D01*
X0046539Y0164486D01*
X0047263Y0164117D01*
X0047921Y0163639D01*
X0048495Y0163065D01*
X0048973Y0162407D01*
X0049342Y0161683D01*
X0049593Y0160910D01*
X0049720Y0160107D01*
X0049720Y0160085D01*
X0044941Y0160085D01*
X0044173Y0159972D02*
X0030089Y0159972D01*
X0030089Y0161270D02*
X0039638Y0161270D01*
X0040257Y0162567D02*
X0030089Y0162567D01*
X0030089Y0163865D02*
X0041504Y0163865D01*
X0044173Y0163865D02*
X0044941Y0163865D01*
X0044941Y0162567D02*
X0044173Y0162567D01*
X0044173Y0161270D02*
X0044941Y0161270D01*
X0044941Y0158674D02*
X0044173Y0158674D01*
X0044173Y0157376D02*
X0044941Y0157376D01*
X0044941Y0156079D02*
X0044173Y0156079D01*
X0044173Y0154781D02*
X0044941Y0154781D01*
X0046125Y0154781D02*
X0082360Y0154781D01*
X0083543Y0154781D02*
X0084311Y0154781D01*
X0085495Y0154781D02*
X0121730Y0154781D01*
X0122913Y0154781D02*
X0123681Y0154781D01*
X0123681Y0156079D02*
X0122913Y0156079D01*
X0122913Y0157376D02*
X0123681Y0157376D01*
X0123681Y0158674D02*
X0122913Y0158674D01*
X0122913Y0161270D02*
X0123681Y0161270D01*
X0123681Y0162567D02*
X0122913Y0162567D01*
X0122913Y0163865D02*
X0123681Y0163865D01*
X0126350Y0163865D02*
X0131858Y0163865D01*
X0130435Y0162567D02*
X0127597Y0162567D01*
X0128217Y0161270D02*
X0129753Y0161270D01*
X0129595Y0158674D02*
X0128362Y0158674D01*
X0127908Y0157376D02*
X0130086Y0157376D01*
X0131114Y0156079D02*
X0126977Y0156079D01*
X0134035Y0156079D02*
X0134606Y0156079D01*
X0134606Y0157376D02*
X0134035Y0157376D01*
X0134035Y0158674D02*
X0134606Y0158674D01*
X0134606Y0161270D02*
X0134035Y0161270D01*
X0134035Y0162567D02*
X0134606Y0162567D01*
X0134606Y0163865D02*
X0134035Y0163865D01*
X0136784Y0163865D02*
X0150362Y0163865D01*
X0148939Y0162567D02*
X0138207Y0162567D01*
X0138888Y0161270D02*
X0148257Y0161270D01*
X0148098Y0158674D02*
X0139047Y0158674D01*
X0138556Y0157376D02*
X0148590Y0157376D01*
X0149618Y0156079D02*
X0137528Y0156079D01*
X0152539Y0156079D02*
X0153110Y0156079D01*
X0153110Y0157376D02*
X0152539Y0157376D01*
X0152539Y0158674D02*
X0153110Y0158674D01*
X0153110Y0161270D02*
X0152539Y0161270D01*
X0152539Y0162567D02*
X0153110Y0162567D01*
X0153110Y0163865D02*
X0152539Y0163865D01*
X0155288Y0163865D02*
X0160204Y0163865D01*
X0158781Y0162567D02*
X0156711Y0162567D01*
X0157392Y0161270D02*
X0158100Y0161270D01*
X0157941Y0158674D02*
X0157551Y0158674D01*
X0157060Y0157376D02*
X0158432Y0157376D01*
X0159460Y0156079D02*
X0156032Y0156079D01*
X0160966Y0152186D02*
X0030089Y0152186D01*
X0030089Y0153483D02*
X0161503Y0153483D01*
X0160738Y0150888D02*
X0030089Y0150888D01*
X0030089Y0149590D02*
X0160738Y0149590D01*
X0161221Y0148292D02*
X0030089Y0148292D01*
X0030089Y0146995D02*
X0162024Y0146995D01*
X0163620Y0145697D02*
X0030089Y0145697D01*
X0030089Y0141804D02*
X0120649Y0141804D01*
X0119202Y0140506D02*
X0030089Y0140506D01*
X0030089Y0139208D02*
X0118469Y0139208D01*
X0118157Y0137911D02*
X0030089Y0137911D01*
X0030089Y0136613D02*
X0118188Y0136613D01*
X0118543Y0135315D02*
X0030089Y0135315D01*
X0030089Y0134017D02*
X0119342Y0134017D01*
X0121028Y0132720D02*
X0030089Y0132720D01*
X0030089Y0126231D02*
X0044173Y0126231D01*
X0044941Y0126231D02*
X0134965Y0126231D01*
X0134852Y0124933D02*
X0049625Y0124933D01*
X0049177Y0123636D02*
X0135450Y0123636D01*
X0138603Y0122338D02*
X0048256Y0122338D01*
X0044941Y0122338D02*
X0044173Y0122338D01*
X0044173Y0123636D02*
X0044941Y0123636D01*
X0044941Y0124933D02*
X0044173Y0124933D01*
X0044173Y0127529D02*
X0044941Y0127529D01*
X0044941Y0128827D02*
X0044173Y0128827D01*
X0044173Y0130124D02*
X0044941Y0130124D01*
X0049470Y0127529D02*
X0135816Y0127529D01*
X0144159Y0123636D02*
X0281152Y0123636D01*
X0281152Y0124933D02*
X0175074Y0124933D01*
X0176088Y0126231D02*
X0281152Y0126231D01*
X0281152Y0122338D02*
X0144232Y0122338D01*
X0143539Y0121040D02*
X0281152Y0121040D01*
X0281152Y0119742D02*
X0126955Y0119742D01*
X0127897Y0118445D02*
X0281152Y0118445D01*
X0281152Y0117147D02*
X0192630Y0117147D01*
X0192474Y0117227D02*
X0191751Y0117462D01*
X0191000Y0117581D01*
X0190906Y0117581D01*
X0190906Y0113037D01*
X0195449Y0113037D01*
X0195449Y0113132D01*
X0195330Y0113883D01*
X0195095Y0114606D01*
X0194750Y0115283D01*
X0194303Y0115898D01*
X0193766Y0116435D01*
X0193151Y0116882D01*
X0192474Y0117227D01*
X0190906Y0117147D02*
X0190335Y0117147D01*
X0190335Y0117581D02*
X0190240Y0117581D01*
X0189489Y0117462D01*
X0188766Y0117227D01*
X0188089Y0116882D01*
X0187474Y0116435D01*
X0186937Y0115898D01*
X0186490Y0115283D01*
X0186145Y0114606D01*
X0185910Y0113883D01*
X0185791Y0113132D01*
X0185791Y0113037D01*
X0190335Y0113037D01*
X0190335Y0112467D01*
X0185791Y0112467D01*
X0185791Y0112372D01*
X0185910Y0111621D01*
X0186145Y0110898D01*
X0186490Y0110221D01*
X0186937Y0109606D01*
X0187474Y0109069D01*
X0188089Y0108622D01*
X0188766Y0108277D01*
X0189489Y0108042D01*
X0190240Y0107923D01*
X0190335Y0107923D01*
X0190335Y0112466D01*
X0190906Y0112466D01*
X0190906Y0112467D02*
X0190906Y0113037D01*
X0190335Y0113037D01*
X0190335Y0117581D01*
X0190335Y0115849D02*
X0190906Y0115849D01*
X0190906Y0114552D02*
X0190335Y0114552D01*
X0190335Y0113254D02*
X0190906Y0113254D01*
X0190906Y0112467D02*
X0195449Y0112467D01*
X0195449Y0112372D01*
X0195330Y0111621D01*
X0195095Y0110898D01*
X0194750Y0110221D01*
X0194303Y0109606D01*
X0193766Y0109069D01*
X0193151Y0108622D01*
X0192474Y0108277D01*
X0191751Y0108042D01*
X0191000Y0107923D01*
X0190906Y0107923D01*
X0190906Y0112466D01*
X0190906Y0111956D02*
X0190335Y0111956D01*
X0190335Y0110658D02*
X0190906Y0110658D01*
X0190906Y0109361D02*
X0190335Y0109361D01*
X0190335Y0108063D02*
X0190906Y0108063D01*
X0191815Y0108063D02*
X0281152Y0108063D01*
X0281152Y0109361D02*
X0194058Y0109361D01*
X0194973Y0110658D02*
X0281152Y0110658D01*
X0281152Y0111956D02*
X0195383Y0111956D01*
X0195430Y0113254D02*
X0281152Y0113254D01*
X0281152Y0114552D02*
X0195113Y0114552D01*
X0194338Y0115849D02*
X0281152Y0115849D01*
X0281152Y0106765D02*
X0186434Y0106765D01*
X0186291Y0106962D02*
X0185716Y0107537D01*
X0185059Y0108015D01*
X0184334Y0108384D01*
X0183561Y0108635D01*
X0182759Y0108762D01*
X0182736Y0108762D01*
X0182736Y0103982D01*
X0187516Y0103982D01*
X0187516Y0104005D01*
X0187389Y0104808D01*
X0187137Y0105580D01*
X0186768Y0106305D01*
X0186291Y0106962D01*
X0184964Y0108063D02*
X0189425Y0108063D01*
X0187182Y0109361D02*
X0170559Y0109361D01*
X0170656Y0108073D02*
X0169979Y0107728D01*
X0169364Y0107282D01*
X0168827Y0106744D01*
X0168380Y0106129D01*
X0168035Y0105452D01*
X0167800Y0104729D01*
X0167681Y0103978D01*
X0167681Y0103884D01*
X0172224Y0103884D01*
X0172224Y0103313D01*
X0167681Y0103313D01*
X0167681Y0103218D01*
X0167800Y0102468D01*
X0168035Y0101745D01*
X0168380Y0101068D01*
X0168827Y0100453D01*
X0169364Y0099915D01*
X0169979Y0099469D01*
X0170656Y0099123D01*
X0171379Y0098889D01*
X0172130Y0098770D01*
X0172224Y0098770D01*
X0172224Y0103313D01*
X0172795Y0103313D01*
X0172795Y0098770D01*
X0172890Y0098770D01*
X0173641Y0098889D01*
X0174363Y0099123D01*
X0175041Y0099469D01*
X0175656Y0099915D01*
X0176193Y0100453D01*
X0176640Y0101068D01*
X0176985Y0101745D01*
X0177220Y0102468D01*
X0177262Y0102733D01*
X0177316Y0102389D01*
X0177567Y0101616D01*
X0177936Y0100892D01*
X0178414Y0100235D01*
X0178989Y0099660D01*
X0179646Y0099182D01*
X0180370Y0098813D01*
X0181143Y0098562D01*
X0181946Y0098435D01*
X0181968Y0098435D01*
X0181968Y0103214D01*
X0182736Y0103214D01*
X0182736Y0098435D01*
X0182759Y0098435D01*
X0183561Y0098562D01*
X0184334Y0098813D01*
X0185059Y0099182D01*
X0185716Y0099660D01*
X0186291Y0100235D01*
X0186768Y0100892D01*
X0187137Y0101616D01*
X0187389Y0102389D01*
X0187516Y0103192D01*
X0187516Y0103215D01*
X0182736Y0103215D01*
X0182736Y0103982D01*
X0181968Y0103982D01*
X0181968Y0103215D01*
X0177338Y0103215D01*
X0177339Y0103218D01*
X0177339Y0103313D01*
X0172795Y0103313D01*
X0172795Y0103884D01*
X0172224Y0103884D01*
X0172224Y0108427D01*
X0172130Y0108427D01*
X0171379Y0108308D01*
X0170656Y0108073D01*
X0170636Y0108063D02*
X0169191Y0108063D01*
X0168848Y0106765D02*
X0156487Y0106765D01*
X0156508Y0106744D02*
X0155971Y0107282D01*
X0155356Y0107728D01*
X0154678Y0108073D01*
X0153956Y0108308D01*
X0153205Y0108427D01*
X0153110Y0108427D01*
X0153110Y0103884D01*
X0152539Y0103884D01*
X0152539Y0103313D01*
X0147996Y0103313D01*
X0147996Y0103218D01*
X0147997Y0103215D01*
X0143366Y0103215D01*
X0143366Y0103982D01*
X0147997Y0103982D01*
X0147996Y0103978D01*
X0147996Y0103884D01*
X0152539Y0103884D01*
X0152539Y0108427D01*
X0152445Y0108427D01*
X0151694Y0108308D01*
X0150971Y0108073D01*
X0150294Y0107728D01*
X0149679Y0107282D01*
X0149142Y0106744D01*
X0148695Y0106129D01*
X0148350Y0105452D01*
X0148115Y0104729D01*
X0148073Y0104464D01*
X0148019Y0104808D01*
X0147767Y0105580D01*
X0147398Y0106305D01*
X0146921Y0106962D01*
X0146346Y0107537D01*
X0145688Y0108015D01*
X0144964Y0108384D01*
X0144191Y0108635D01*
X0143389Y0108762D01*
X0143366Y0108762D01*
X0143366Y0103982D01*
X0142598Y0103982D01*
X0142598Y0103215D01*
X0139149Y0103215D01*
X0139150Y0103218D01*
X0139150Y0103313D01*
X0134606Y0103313D01*
X0134606Y0098770D01*
X0134701Y0098770D01*
X0135452Y0098889D01*
X0136174Y0099123D01*
X0136852Y0099469D01*
X0137467Y0099915D01*
X0138004Y0100453D01*
X0138451Y0101068D01*
X0138464Y0101093D01*
X0138566Y0100892D01*
X0139044Y0100235D01*
X0139619Y0099660D01*
X0140276Y0099182D01*
X0141000Y0098813D01*
X0141773Y0098562D01*
X0142576Y0098435D01*
X0142598Y0098435D01*
X0142598Y0103214D01*
X0143366Y0103214D01*
X0143366Y0098435D01*
X0143389Y0098435D01*
X0144191Y0098562D01*
X0144964Y0098813D01*
X0145688Y0099182D01*
X0146346Y0099660D01*
X0146921Y0100235D01*
X0147398Y0100892D01*
X0147767Y0101616D01*
X0148019Y0102389D01*
X0148073Y0102733D01*
X0148115Y0102468D01*
X0148350Y0101745D01*
X0148695Y0101068D01*
X0149142Y0100453D01*
X0149679Y0099915D01*
X0150294Y0099469D01*
X0150971Y0099123D01*
X0151694Y0098889D01*
X0152445Y0098770D01*
X0152539Y0098770D01*
X0152539Y0103313D01*
X0153110Y0103313D01*
X0153110Y0098770D01*
X0153205Y0098770D01*
X0153956Y0098889D01*
X0154678Y0099123D01*
X0155356Y0099469D01*
X0155971Y0099915D01*
X0156508Y0100453D01*
X0156955Y0101068D01*
X0157300Y0101745D01*
X0157535Y0102468D01*
X0157654Y0103218D01*
X0157654Y0103313D01*
X0153110Y0103313D01*
X0153110Y0103884D01*
X0157654Y0103884D01*
X0157654Y0103978D01*
X0157535Y0104729D01*
X0157300Y0105452D01*
X0156955Y0106129D01*
X0156508Y0106744D01*
X0157292Y0105468D02*
X0168043Y0105468D01*
X0167711Y0104170D02*
X0157623Y0104170D01*
X0157599Y0102872D02*
X0167736Y0102872D01*
X0168122Y0101574D02*
X0157213Y0101574D01*
X0156332Y0100277D02*
X0169003Y0100277D01*
X0171101Y0098979D02*
X0154234Y0098979D01*
X0153110Y0098979D02*
X0152539Y0098979D01*
X0151416Y0098979D02*
X0145289Y0098979D01*
X0143366Y0098979D02*
X0142598Y0098979D01*
X0142598Y0100277D02*
X0143366Y0100277D01*
X0143366Y0101574D02*
X0142598Y0101574D01*
X0142598Y0102872D02*
X0143366Y0102872D01*
X0143366Y0104170D02*
X0142598Y0104170D01*
X0142598Y0103982D02*
X0142598Y0108762D01*
X0142576Y0108762D01*
X0141773Y0108635D01*
X0141000Y0108384D01*
X0140276Y0108015D01*
X0139619Y0107537D01*
X0139044Y0106962D01*
X0138566Y0106305D01*
X0138464Y0106104D01*
X0138451Y0106129D01*
X0138004Y0106744D01*
X0137467Y0107282D01*
X0136852Y0107728D01*
X0136174Y0108073D01*
X0135452Y0108308D01*
X0134701Y0108427D01*
X0134606Y0108427D01*
X0134606Y0103884D01*
X0134035Y0103884D01*
X0134035Y0103313D01*
X0129492Y0103313D01*
X0129492Y0103218D01*
X0129611Y0102468D01*
X0129846Y0101745D01*
X0130191Y0101068D01*
X0130638Y0100453D01*
X0131175Y0099915D01*
X0131790Y0099469D01*
X0132467Y0099123D01*
X0133190Y0098889D01*
X0133941Y0098770D01*
X0134035Y0098770D01*
X0134035Y0103313D01*
X0134606Y0103313D01*
X0134606Y0103884D01*
X0139150Y0103884D01*
X0139150Y0103978D01*
X0139149Y0103982D01*
X0142598Y0103982D01*
X0142598Y0105468D02*
X0143366Y0105468D01*
X0143366Y0106765D02*
X0142598Y0106765D01*
X0142598Y0108063D02*
X0143366Y0108063D01*
X0145593Y0108063D02*
X0150951Y0108063D01*
X0152539Y0108063D02*
X0153110Y0108063D01*
X0153110Y0106765D02*
X0152539Y0106765D01*
X0152539Y0105468D02*
X0153110Y0105468D01*
X0153110Y0104170D02*
X0152539Y0104170D01*
X0152539Y0102872D02*
X0153110Y0102872D01*
X0153110Y0101574D02*
X0152539Y0101574D01*
X0152539Y0100277D02*
X0153110Y0100277D01*
X0149318Y0100277D02*
X0146951Y0100277D01*
X0147746Y0101574D02*
X0148437Y0101574D01*
X0148358Y0105468D02*
X0147804Y0105468D01*
X0147064Y0106765D02*
X0149163Y0106765D01*
X0154699Y0108063D02*
X0163231Y0108063D01*
X0171267Y0110658D02*
X0186267Y0110658D01*
X0185857Y0111956D02*
X0171683Y0111956D01*
X0171683Y0113254D02*
X0185811Y0113254D01*
X0186128Y0114552D02*
X0171389Y0114552D01*
X0170851Y0115849D02*
X0186902Y0115849D01*
X0188610Y0117147D02*
X0169555Y0117147D01*
X0162867Y0117147D02*
X0128359Y0117147D01*
X0124797Y0121040D02*
X0139296Y0121040D01*
X0140371Y0108063D02*
X0136195Y0108063D01*
X0134606Y0108063D02*
X0134035Y0108063D01*
X0134035Y0108427D02*
X0133941Y0108427D01*
X0133190Y0108308D01*
X0132467Y0108073D01*
X0131790Y0107728D01*
X0131175Y0107282D01*
X0130638Y0106744D01*
X0130191Y0106129D01*
X0129846Y0105452D01*
X0129611Y0104729D01*
X0129492Y0103978D01*
X0129492Y0103884D01*
X0134035Y0103884D01*
X0134035Y0108427D01*
X0132447Y0108063D02*
X0106223Y0108063D01*
X0106318Y0108015D02*
X0105594Y0108384D01*
X0104821Y0108635D01*
X0104019Y0108762D01*
X0103996Y0108762D01*
X0103996Y0103982D01*
X0108776Y0103982D01*
X0108776Y0104005D01*
X0108648Y0104808D01*
X0108397Y0105580D01*
X0108028Y0106305D01*
X0107551Y0106962D01*
X0106976Y0107537D01*
X0106318Y0108015D01*
X0107694Y0106765D02*
X0130659Y0106765D01*
X0129854Y0105468D02*
X0108434Y0105468D01*
X0108749Y0104170D02*
X0129522Y0104170D01*
X0129547Y0102872D02*
X0108725Y0102872D01*
X0108776Y0103192D02*
X0108648Y0102389D01*
X0108397Y0101616D01*
X0108028Y0100892D01*
X0107551Y0100235D01*
X0106976Y0099660D01*
X0106318Y0099182D01*
X0105594Y0098813D01*
X0104821Y0098562D01*
X0104019Y0098435D01*
X0103996Y0098435D01*
X0103996Y0103214D01*
X0103228Y0103214D01*
X0103228Y0098435D01*
X0103206Y0098435D01*
X0102403Y0098562D01*
X0101630Y0098813D01*
X0100906Y0099182D01*
X0100248Y0099660D01*
X0099674Y0100235D01*
X0099196Y0100892D01*
X0098827Y0101616D01*
X0098576Y0102389D01*
X0098449Y0103192D01*
X0098449Y0103215D01*
X0103228Y0103215D01*
X0103228Y0103982D01*
X0098449Y0103982D01*
X0098449Y0104005D01*
X0098576Y0104808D01*
X0098827Y0105580D01*
X0099196Y0106305D01*
X0099674Y0106962D01*
X0100248Y0107537D01*
X0100906Y0108015D01*
X0101630Y0108384D01*
X0102403Y0108635D01*
X0103206Y0108762D01*
X0103228Y0108762D01*
X0103228Y0103982D01*
X0103996Y0103982D01*
X0103996Y0103215D01*
X0108776Y0103215D01*
X0108776Y0103192D01*
X0108376Y0101574D02*
X0129933Y0101574D01*
X0130814Y0100277D02*
X0107581Y0100277D01*
X0105919Y0098979D02*
X0132912Y0098979D01*
X0134035Y0098979D02*
X0134606Y0098979D01*
X0135730Y0098979D02*
X0140675Y0098979D01*
X0139013Y0100277D02*
X0137828Y0100277D01*
X0134606Y0100277D02*
X0134035Y0100277D01*
X0134035Y0101574D02*
X0134606Y0101574D01*
X0134606Y0102872D02*
X0134035Y0102872D01*
X0134035Y0104170D02*
X0134606Y0104170D01*
X0134606Y0105468D02*
X0134035Y0105468D01*
X0134035Y0106765D02*
X0134606Y0106765D01*
X0137983Y0106765D02*
X0138901Y0106765D01*
X0127319Y0091120D02*
X0125923Y0091699D01*
X0124412Y0091699D01*
X0123015Y0091120D01*
X0121947Y0090052D01*
X0121368Y0088655D01*
X0121368Y0087144D01*
X0121947Y0085748D01*
X0123015Y0084679D01*
X0124412Y0084100D01*
X0125923Y0084100D01*
X0127319Y0084679D01*
X0128388Y0085748D01*
X0128967Y0087144D01*
X0128967Y0088655D01*
X0128388Y0090052D01*
X0127319Y0091120D01*
X0127145Y0091193D02*
X0153189Y0091193D01*
X0153015Y0091120D02*
X0151947Y0090052D01*
X0151368Y0088655D01*
X0151368Y0087144D01*
X0151947Y0085748D01*
X0153015Y0084679D01*
X0154412Y0084100D01*
X0155923Y0084100D01*
X0157319Y0084679D01*
X0158388Y0085748D01*
X0158967Y0087144D01*
X0158967Y0088655D01*
X0158388Y0090052D01*
X0157319Y0091120D01*
X0155923Y0091699D01*
X0154412Y0091699D01*
X0153015Y0091120D01*
X0151882Y0089895D02*
X0128453Y0089895D01*
X0128967Y0088597D02*
X0151368Y0088597D01*
X0151368Y0087299D02*
X0128967Y0087299D01*
X0128493Y0086002D02*
X0151841Y0086002D01*
X0152990Y0084704D02*
X0127345Y0084704D01*
X0122990Y0084704D02*
X0097345Y0084704D01*
X0098493Y0086002D02*
X0121841Y0086002D01*
X0121368Y0087299D02*
X0098967Y0087299D01*
X0098967Y0088597D02*
X0121368Y0088597D01*
X0121882Y0089895D02*
X0098453Y0089895D01*
X0097145Y0091193D02*
X0123189Y0091193D01*
X0103996Y0098979D02*
X0103228Y0098979D01*
X0103228Y0100277D02*
X0103996Y0100277D01*
X0103996Y0101574D02*
X0103228Y0101574D01*
X0103228Y0102872D02*
X0103996Y0102872D01*
X0103996Y0104170D02*
X0103228Y0104170D01*
X0103228Y0105468D02*
X0103996Y0105468D01*
X0103996Y0106765D02*
X0103228Y0106765D01*
X0103228Y0108063D02*
X0103996Y0108063D01*
X0101001Y0108063D02*
X0066853Y0108063D01*
X0068324Y0106765D02*
X0099531Y0106765D01*
X0098790Y0105468D02*
X0069064Y0105468D01*
X0069379Y0104170D02*
X0098475Y0104170D01*
X0098499Y0102872D02*
X0069355Y0102872D01*
X0069006Y0101574D02*
X0098849Y0101574D01*
X0099643Y0100277D02*
X0068211Y0100277D01*
X0066549Y0098979D02*
X0101305Y0098979D01*
X0104026Y0070429D02*
X0107345Y0070429D01*
X0106030Y0069131D02*
X0104825Y0069131D01*
X0105172Y0067834D02*
X0105416Y0067834D01*
X0105133Y0065238D02*
X0104856Y0065238D01*
X0104077Y0063940D02*
X0105634Y0063940D01*
X0106555Y0062643D02*
X0102445Y0062643D01*
X0108613Y0061345D02*
X0091722Y0061345D01*
X0088613Y0061345D02*
X0030089Y0061345D01*
X0030089Y0062643D02*
X0086555Y0062643D01*
X0085634Y0063940D02*
X0030089Y0063940D01*
X0030089Y0065238D02*
X0085133Y0065238D01*
X0085133Y0066536D02*
X0030089Y0066536D01*
X0030089Y0067834D02*
X0085416Y0067834D01*
X0111722Y0061345D02*
X0128613Y0061345D01*
X0131722Y0061345D02*
X0148613Y0061345D01*
X0146555Y0062643D02*
X0142445Y0062643D01*
X0144077Y0063940D02*
X0145634Y0063940D01*
X0145133Y0065238D02*
X0144856Y0065238D01*
X0145172Y0067834D02*
X0145416Y0067834D01*
X0144825Y0069131D02*
X0146030Y0069131D01*
X0147345Y0070429D02*
X0144026Y0070429D01*
X0162271Y0071727D02*
X0178063Y0071727D01*
X0176328Y0070429D02*
X0172990Y0070429D01*
X0174305Y0069131D02*
X0175540Y0069131D01*
X0175133Y0067834D02*
X0174918Y0067834D01*
X0175201Y0065238D02*
X0175510Y0065238D01*
X0176258Y0063940D02*
X0174701Y0063940D01*
X0173779Y0062643D02*
X0177894Y0062643D01*
X0166555Y0062643D02*
X0162441Y0062643D01*
X0164077Y0063940D02*
X0165634Y0063940D01*
X0165133Y0065238D02*
X0164824Y0065238D01*
X0165201Y0067834D02*
X0165416Y0067834D01*
X0166030Y0069131D02*
X0164795Y0069131D01*
X0164007Y0070429D02*
X0167345Y0070429D01*
X0174240Y0084704D02*
X0157345Y0084704D01*
X0158493Y0086002D02*
X0173091Y0086002D01*
X0172618Y0087299D02*
X0158967Y0087299D01*
X0158967Y0088597D02*
X0172618Y0088597D01*
X0173132Y0089895D02*
X0158453Y0089895D01*
X0157145Y0091193D02*
X0174439Y0091193D01*
X0173919Y0098979D02*
X0180045Y0098979D01*
X0181968Y0098979D02*
X0182736Y0098979D01*
X0182736Y0100277D02*
X0181968Y0100277D01*
X0181968Y0101574D02*
X0182736Y0101574D01*
X0182736Y0102872D02*
X0181968Y0102872D01*
X0181968Y0103982D02*
X0177338Y0103982D01*
X0177339Y0103978D01*
X0177339Y0103884D01*
X0172795Y0103884D01*
X0172795Y0108427D01*
X0172890Y0108427D01*
X0173641Y0108308D01*
X0174363Y0108073D01*
X0175041Y0107728D01*
X0175656Y0107282D01*
X0176193Y0106744D01*
X0176640Y0106129D01*
X0176985Y0105452D01*
X0177220Y0104729D01*
X0177262Y0104464D01*
X0177316Y0104808D01*
X0177567Y0105580D01*
X0177936Y0106305D01*
X0178414Y0106962D01*
X0178989Y0107537D01*
X0179646Y0108015D01*
X0180370Y0108384D01*
X0181143Y0108635D01*
X0181946Y0108762D01*
X0181968Y0108762D01*
X0181968Y0103982D01*
X0181968Y0104170D02*
X0182736Y0104170D01*
X0182736Y0105468D02*
X0181968Y0105468D01*
X0181968Y0106765D02*
X0182736Y0106765D01*
X0182736Y0108063D02*
X0181968Y0108063D01*
X0179741Y0108063D02*
X0174384Y0108063D01*
X0172795Y0108063D02*
X0172224Y0108063D01*
X0172224Y0106765D02*
X0172795Y0106765D01*
X0172795Y0105468D02*
X0172224Y0105468D01*
X0172224Y0104170D02*
X0172795Y0104170D01*
X0172795Y0102872D02*
X0172224Y0102872D01*
X0172224Y0101574D02*
X0172795Y0101574D01*
X0172795Y0100277D02*
X0172224Y0100277D01*
X0172224Y0098979D02*
X0172795Y0098979D01*
X0176017Y0100277D02*
X0178383Y0100277D01*
X0177589Y0101574D02*
X0176898Y0101574D01*
X0176977Y0105468D02*
X0177531Y0105468D01*
X0178271Y0106765D02*
X0176172Y0106765D01*
X0184659Y0098979D02*
X0281152Y0098979D01*
X0281152Y0100277D02*
X0186321Y0100277D01*
X0187116Y0101574D02*
X0281152Y0101574D01*
X0281152Y0102872D02*
X0187465Y0102872D01*
X0187490Y0104170D02*
X0281152Y0104170D01*
X0281152Y0105468D02*
X0187174Y0105468D01*
X0169519Y0130124D02*
X0161332Y0130124D01*
X0161732Y0131422D02*
X0171243Y0131422D01*
X0168801Y0145697D02*
X0281152Y0145697D01*
X0281152Y0141804D02*
X0231198Y0141804D01*
X0231467Y0140506D02*
X0281152Y0140506D01*
X0281152Y0139208D02*
X0231286Y0139208D01*
X0230551Y0137911D02*
X0281152Y0137911D01*
X0281152Y0165163D02*
X0030089Y0165163D01*
X0030089Y0166461D02*
X0281152Y0166461D01*
X0281152Y0167758D02*
X0030089Y0167758D01*
X0030089Y0169056D02*
X0176138Y0169056D01*
X0175697Y0169498D02*
X0176765Y0168429D01*
X0178162Y0167850D01*
X0179673Y0167850D01*
X0181069Y0168429D01*
X0182138Y0169498D01*
X0182717Y0170894D01*
X0182717Y0172405D01*
X0182138Y0173802D01*
X0181069Y0174870D01*
X0179673Y0175449D01*
X0178162Y0175449D01*
X0176765Y0174870D01*
X0175697Y0173802D01*
X0175118Y0172405D01*
X0175118Y0170894D01*
X0175697Y0169498D01*
X0175342Y0170354D02*
X0030089Y0170354D01*
X0030089Y0171651D02*
X0175118Y0171651D01*
X0175343Y0172949D02*
X0030089Y0172949D01*
X0030089Y0174247D02*
X0176142Y0174247D01*
X0181693Y0174247D02*
X0281152Y0174247D01*
X0281152Y0175545D02*
X0030089Y0175545D01*
X0030089Y0176842D02*
X0281152Y0176842D01*
X0281152Y0178140D02*
X0030089Y0178140D01*
X0030089Y0179438D02*
X0281152Y0179438D01*
X0281152Y0180736D02*
X0164136Y0180736D01*
X0164106Y0180720D02*
X0164814Y0181081D01*
X0165457Y0181548D01*
X0166019Y0182110D01*
X0166486Y0182753D01*
X0166847Y0183461D01*
X0167093Y0184217D01*
X0167217Y0185002D01*
X0167217Y0185049D01*
X0162518Y0185049D01*
X0162518Y0185750D01*
X0167217Y0185750D01*
X0167217Y0185797D01*
X0167093Y0186582D01*
X0166847Y0187338D01*
X0166486Y0188046D01*
X0166019Y0188689D01*
X0165457Y0189251D01*
X0164946Y0189622D01*
X0166576Y0190298D01*
X0168269Y0191991D01*
X0169185Y0194203D01*
X0169185Y0196597D01*
X0168269Y0198809D01*
X0166576Y0200502D01*
X0164946Y0201177D01*
X0165457Y0201548D01*
X0166019Y0202110D01*
X0166486Y0202753D01*
X0166847Y0203461D01*
X0167093Y0204217D01*
X0167217Y0205002D01*
X0167217Y0205049D01*
X0162518Y0205049D01*
X0162518Y0205750D01*
X0167217Y0205750D01*
X0167217Y0205797D01*
X0167093Y0206582D01*
X0166847Y0207338D01*
X0166486Y0208046D01*
X0166019Y0208689D01*
X0165457Y0209251D01*
X0164946Y0209622D01*
X0166576Y0210298D01*
X0168269Y0211991D01*
X0169185Y0214203D01*
X0169185Y0216597D01*
X0168269Y0218809D01*
X0166576Y0220502D01*
X0164364Y0221418D01*
X0161970Y0221418D01*
X0159758Y0220502D01*
X0158065Y0218809D01*
X0157149Y0216597D01*
X0157149Y0214203D01*
X0158065Y0211991D01*
X0159758Y0210298D01*
X0160261Y0210090D01*
X0160229Y0210079D01*
X0159521Y0209718D01*
X0158878Y0209251D01*
X0158316Y0208689D01*
X0157849Y0208046D01*
X0157488Y0207338D01*
X0157242Y0206582D01*
X0157118Y0205797D01*
X0157118Y0205750D01*
X0161817Y0205750D01*
X0161817Y0205049D01*
X0157118Y0205049D01*
X0157118Y0205002D01*
X0157242Y0204217D01*
X0157488Y0203461D01*
X0157849Y0202753D01*
X0158316Y0202110D01*
X0158878Y0201548D01*
X0159521Y0201081D01*
X0160229Y0200720D01*
X0160261Y0200710D01*
X0159758Y0200502D01*
X0158065Y0198809D01*
X0157149Y0196597D01*
X0157149Y0194203D01*
X0158065Y0191991D01*
X0159758Y0190298D01*
X0160261Y0190090D01*
X0160229Y0190079D01*
X0159521Y0189718D01*
X0158878Y0189251D01*
X0158316Y0188689D01*
X0157849Y0188046D01*
X0157488Y0187338D01*
X0157242Y0186582D01*
X0157118Y0185797D01*
X0157118Y0185750D01*
X0161817Y0185750D01*
X0161817Y0185049D01*
X0162518Y0185049D01*
X0162518Y0180350D01*
X0162565Y0180350D01*
X0163350Y0180474D01*
X0164106Y0180720D01*
X0162518Y0180736D02*
X0161817Y0180736D01*
X0161817Y0180350D02*
X0161817Y0185049D01*
X0157118Y0185049D01*
X0157118Y0185002D01*
X0157242Y0184217D01*
X0157488Y0183461D01*
X0157849Y0182753D01*
X0158316Y0182110D01*
X0158878Y0181548D01*
X0159521Y0181081D01*
X0160229Y0180720D01*
X0160985Y0180474D01*
X0161770Y0180350D01*
X0161817Y0180350D01*
X0160198Y0180736D02*
X0030089Y0180736D01*
X0030089Y0182033D02*
X0158392Y0182033D01*
X0157554Y0183331D02*
X0030089Y0183331D01*
X0030089Y0184629D02*
X0157177Y0184629D01*
X0157138Y0185926D02*
X0030089Y0185926D01*
X0030089Y0187224D02*
X0157451Y0187224D01*
X0158194Y0188522D02*
X0030089Y0188522D01*
X0030089Y0189820D02*
X0159719Y0189820D01*
X0158939Y0191117D02*
X0030089Y0191117D01*
X0030089Y0192415D02*
X0157890Y0192415D01*
X0157352Y0193713D02*
X0030089Y0193713D01*
X0030089Y0195010D02*
X0157149Y0195010D01*
X0157149Y0196308D02*
X0030089Y0196308D01*
X0030089Y0197606D02*
X0157567Y0197606D01*
X0158160Y0198904D02*
X0030089Y0198904D01*
X0030089Y0200201D02*
X0159458Y0200201D01*
X0158945Y0201499D02*
X0030089Y0201499D01*
X0030089Y0202797D02*
X0157826Y0202797D01*
X0157282Y0204095D02*
X0030089Y0204095D01*
X0030089Y0205392D02*
X0161817Y0205392D01*
X0162518Y0205392D02*
X0281152Y0205392D01*
X0281152Y0204095D02*
X0167053Y0204095D01*
X0166508Y0202797D02*
X0281152Y0202797D01*
X0281152Y0201499D02*
X0165390Y0201499D01*
X0166876Y0200201D02*
X0281152Y0200201D01*
X0281152Y0198904D02*
X0168174Y0198904D01*
X0168767Y0197606D02*
X0281152Y0197606D01*
X0281152Y0196308D02*
X0169185Y0196308D01*
X0169185Y0195010D02*
X0281152Y0195010D01*
X0281152Y0193713D02*
X0168983Y0193713D01*
X0168445Y0192415D02*
X0281152Y0192415D01*
X0281152Y0191117D02*
X0167396Y0191117D01*
X0165422Y0189820D02*
X0281152Y0189820D01*
X0281152Y0188522D02*
X0166141Y0188522D01*
X0166884Y0187224D02*
X0281152Y0187224D01*
X0281152Y0185926D02*
X0167196Y0185926D01*
X0167158Y0184629D02*
X0281152Y0184629D01*
X0281152Y0183331D02*
X0166781Y0183331D01*
X0165942Y0182033D02*
X0281152Y0182033D01*
X0281152Y0172949D02*
X0182491Y0172949D01*
X0182717Y0171651D02*
X0281152Y0171651D01*
X0281152Y0170354D02*
X0182493Y0170354D01*
X0181697Y0169056D02*
X0281152Y0169056D01*
X0281152Y0206690D02*
X0183639Y0206690D01*
X0183423Y0206600D02*
X0184819Y0207179D01*
X0185888Y0208248D01*
X0186467Y0209644D01*
X0186467Y0211155D01*
X0185888Y0212552D01*
X0184915Y0213525D01*
X0185792Y0214402D01*
X0186765Y0213429D01*
X0188162Y0212850D01*
X0189673Y0212850D01*
X0191069Y0213429D01*
X0192138Y0214498D01*
X0192717Y0215894D01*
X0192717Y0217405D01*
X0192138Y0218802D01*
X0191069Y0219870D01*
X0189673Y0220449D01*
X0188162Y0220449D01*
X0186765Y0219870D01*
X0185792Y0218897D01*
X0184819Y0219870D01*
X0183423Y0220449D01*
X0181912Y0220449D01*
X0180515Y0219870D01*
X0179542Y0218897D01*
X0178569Y0219870D01*
X0177173Y0220449D01*
X0175662Y0220449D01*
X0174265Y0219870D01*
X0173197Y0218802D01*
X0172618Y0217405D01*
X0172618Y0215894D01*
X0173197Y0214498D01*
X0174265Y0213429D01*
X0175662Y0212850D01*
X0177173Y0212850D01*
X0178569Y0213429D01*
X0179542Y0214402D01*
X0180419Y0213525D01*
X0179447Y0212552D01*
X0178868Y0211155D01*
X0178868Y0209644D01*
X0179447Y0208248D01*
X0180515Y0207179D01*
X0181912Y0206600D01*
X0183423Y0206600D01*
X0181695Y0206690D02*
X0167058Y0206690D01*
X0166516Y0207988D02*
X0179706Y0207988D01*
X0179017Y0209285D02*
X0165410Y0209285D01*
X0166862Y0210583D02*
X0178868Y0210583D01*
X0179169Y0211881D02*
X0168159Y0211881D01*
X0168761Y0213179D02*
X0174869Y0213179D01*
X0173218Y0214476D02*
X0169185Y0214476D01*
X0169185Y0215774D02*
X0172668Y0215774D01*
X0172618Y0217072D02*
X0168989Y0217072D01*
X0168451Y0218370D02*
X0173017Y0218370D01*
X0174062Y0219667D02*
X0167411Y0219667D01*
X0165457Y0220965D02*
X0281152Y0220965D01*
X0281152Y0222263D02*
X0096920Y0222263D01*
X0096474Y0221184D02*
X0094796Y0219506D01*
X0092604Y0218598D01*
X0090231Y0218598D01*
X0088039Y0219506D01*
X0086361Y0221184D01*
X0085453Y0223377D01*
X0085453Y0225749D01*
X0086361Y0227942D01*
X0088039Y0229620D01*
X0090231Y0230528D01*
X0092604Y0230528D01*
X0094796Y0229620D01*
X0096474Y0227942D01*
X0097382Y0225749D01*
X0097382Y0223377D01*
X0096474Y0221184D01*
X0096254Y0220965D02*
X0160877Y0220965D01*
X0158924Y0219667D02*
X0094957Y0219667D01*
X0097382Y0223560D02*
X0281152Y0223560D01*
X0281152Y0224858D02*
X0097382Y0224858D01*
X0097214Y0226156D02*
X0281152Y0226156D01*
X0281152Y0227454D02*
X0096676Y0227454D01*
X0095664Y0228751D02*
X0240208Y0228751D01*
X0240390Y0228664D02*
X0241444Y0228295D01*
X0242534Y0228046D01*
X0243553Y0227931D01*
X0243553Y0237220D01*
X0244852Y0237220D01*
X0244852Y0227931D01*
X0245872Y0228046D01*
X0246961Y0228295D01*
X0248016Y0228664D01*
X0249023Y0229149D01*
X0249969Y0229743D01*
X0250843Y0230440D01*
X0251633Y0231230D01*
X0252329Y0232104D01*
X0252924Y0233050D01*
X0253409Y0234057D01*
X0253778Y0235112D01*
X0254026Y0236201D01*
X0254141Y0237220D01*
X0244852Y0237220D01*
X0244852Y0238520D01*
X0243553Y0238520D01*
X0243553Y0247809D01*
X0242534Y0247694D01*
X0241444Y0247445D01*
X0240390Y0247076D01*
X0239383Y0246591D01*
X0238437Y0245997D01*
X0237563Y0245300D01*
X0236773Y0244510D01*
X0236076Y0243636D01*
X0235482Y0242690D01*
X0234997Y0241683D01*
X0234628Y0240629D01*
X0234379Y0239539D01*
X0234264Y0238520D01*
X0243553Y0238520D01*
X0243553Y0237220D01*
X0234264Y0237220D01*
X0234379Y0236201D01*
X0234628Y0235112D01*
X0234997Y0234057D01*
X0235482Y0233050D01*
X0236076Y0232104D01*
X0236773Y0231230D01*
X0237563Y0230440D01*
X0238437Y0229743D01*
X0239383Y0229149D01*
X0240390Y0228664D01*
X0238053Y0230049D02*
X0093759Y0230049D01*
X0089076Y0230049D02*
X0053502Y0230049D01*
X0053119Y0229743D02*
X0053992Y0230440D01*
X0054782Y0231230D01*
X0055479Y0232104D01*
X0056074Y0233050D01*
X0056558Y0234057D01*
X0056927Y0235112D01*
X0057176Y0236201D01*
X0057291Y0237220D01*
X0048002Y0237220D01*
X0048002Y0227931D01*
X0049021Y0228046D01*
X0050111Y0228295D01*
X0051166Y0228664D01*
X0052172Y0229149D01*
X0053119Y0229743D01*
X0051347Y0228751D02*
X0087170Y0228751D01*
X0086159Y0227454D02*
X0030089Y0227454D01*
X0030089Y0228751D02*
X0043358Y0228751D01*
X0043539Y0228664D02*
X0044594Y0228295D01*
X0045683Y0228046D01*
X0046703Y0227931D01*
X0046703Y0237220D01*
X0048002Y0237220D01*
X0048002Y0238520D01*
X0046703Y0238520D01*
X0046703Y0247809D01*
X0045683Y0247694D01*
X0044594Y0247445D01*
X0043539Y0247076D01*
X0042532Y0246591D01*
X0041586Y0245997D01*
X0040713Y0245300D01*
X0039922Y0244510D01*
X0039226Y0243636D01*
X0038631Y0242690D01*
X0038146Y0241683D01*
X0037777Y0240629D01*
X0037529Y0239539D01*
X0037414Y0238520D01*
X0046703Y0238520D01*
X0046703Y0237220D01*
X0037414Y0237220D01*
X0037529Y0236201D01*
X0037777Y0235112D01*
X0038146Y0234057D01*
X0038631Y0233050D01*
X0039226Y0232104D01*
X0039922Y0231230D01*
X0040713Y0230440D01*
X0041586Y0229743D01*
X0042532Y0229149D01*
X0043539Y0228664D01*
X0041203Y0230049D02*
X0030089Y0230049D01*
X0030089Y0231347D02*
X0039830Y0231347D01*
X0038886Y0232644D02*
X0030089Y0232644D01*
X0030089Y0233942D02*
X0038202Y0233942D01*
X0037748Y0235240D02*
X0030089Y0235240D01*
X0030089Y0236538D02*
X0037491Y0236538D01*
X0037483Y0239133D02*
X0030089Y0239133D01*
X0030089Y0237835D02*
X0046703Y0237835D01*
X0046703Y0236538D02*
X0048002Y0236538D01*
X0048002Y0237835D02*
X0087983Y0237835D01*
X0088262Y0237557D02*
X0090309Y0236709D01*
X0092525Y0236709D01*
X0094573Y0237557D01*
X0096140Y0239124D01*
X0096988Y0241171D01*
X0096988Y0243388D01*
X0096140Y0245435D01*
X0094573Y0247002D01*
X0092525Y0247850D01*
X0090309Y0247850D01*
X0088262Y0247002D01*
X0086695Y0245435D01*
X0085846Y0243388D01*
X0085846Y0241171D01*
X0086695Y0239124D01*
X0088262Y0237557D01*
X0086691Y0239133D02*
X0057222Y0239133D01*
X0057176Y0239539D02*
X0056927Y0240629D01*
X0056558Y0241683D01*
X0056074Y0242690D01*
X0055479Y0243636D01*
X0054782Y0244510D01*
X0053992Y0245300D01*
X0053119Y0245997D01*
X0052172Y0246591D01*
X0051166Y0247076D01*
X0050111Y0247445D01*
X0049021Y0247694D01*
X0048002Y0247809D01*
X0048002Y0238520D01*
X0057291Y0238520D01*
X0057176Y0239539D01*
X0056973Y0240431D02*
X0086153Y0240431D01*
X0085846Y0241729D02*
X0056537Y0241729D01*
X0055862Y0243026D02*
X0085846Y0243026D01*
X0086234Y0244324D02*
X0054931Y0244324D01*
X0053589Y0245622D02*
X0086881Y0245622D01*
X0088179Y0246919D02*
X0051491Y0246919D01*
X0048002Y0246919D02*
X0046703Y0246919D01*
X0046703Y0245622D02*
X0048002Y0245622D01*
X0048002Y0244324D02*
X0046703Y0244324D01*
X0046703Y0243026D02*
X0048002Y0243026D01*
X0048002Y0241729D02*
X0046703Y0241729D01*
X0046703Y0240431D02*
X0048002Y0240431D01*
X0048002Y0239133D02*
X0046703Y0239133D01*
X0046703Y0235240D02*
X0048002Y0235240D01*
X0048002Y0233942D02*
X0046703Y0233942D01*
X0046703Y0232644D02*
X0048002Y0232644D01*
X0048002Y0231347D02*
X0046703Y0231347D01*
X0046703Y0230049D02*
X0048002Y0230049D01*
X0048002Y0228751D02*
X0046703Y0228751D01*
X0054875Y0231347D02*
X0236680Y0231347D01*
X0235736Y0232644D02*
X0055819Y0232644D01*
X0056503Y0233942D02*
X0235052Y0233942D01*
X0234598Y0235240D02*
X0056957Y0235240D01*
X0057214Y0236538D02*
X0234341Y0236538D01*
X0234333Y0239133D02*
X0096144Y0239133D01*
X0096681Y0240431D02*
X0234583Y0240431D01*
X0235019Y0241729D02*
X0096988Y0241729D01*
X0096988Y0243026D02*
X0235693Y0243026D01*
X0236625Y0244324D02*
X0096600Y0244324D01*
X0095954Y0245622D02*
X0237966Y0245622D01*
X0240064Y0246919D02*
X0094656Y0246919D01*
X0094852Y0237835D02*
X0243553Y0237835D01*
X0243553Y0236538D02*
X0244852Y0236538D01*
X0244852Y0237835D02*
X0281152Y0237835D01*
X0281152Y0236538D02*
X0254064Y0236538D01*
X0253807Y0235240D02*
X0281152Y0235240D01*
X0281152Y0233942D02*
X0253354Y0233942D01*
X0252669Y0232644D02*
X0281152Y0232644D01*
X0281152Y0231347D02*
X0251726Y0231347D01*
X0250352Y0230049D02*
X0281152Y0230049D01*
X0281152Y0228751D02*
X0248197Y0228751D01*
X0244852Y0228751D02*
X0243553Y0228751D01*
X0243553Y0230049D02*
X0244852Y0230049D01*
X0244852Y0231347D02*
X0243553Y0231347D01*
X0243553Y0232644D02*
X0244852Y0232644D01*
X0244852Y0233942D02*
X0243553Y0233942D01*
X0243553Y0235240D02*
X0244852Y0235240D01*
X0244852Y0238520D02*
X0254141Y0238520D01*
X0254026Y0239539D01*
X0253778Y0240629D01*
X0253409Y0241683D01*
X0252924Y0242690D01*
X0252329Y0243636D01*
X0251633Y0244510D01*
X0250843Y0245300D01*
X0249969Y0245997D01*
X0249023Y0246591D01*
X0248016Y0247076D01*
X0246961Y0247445D01*
X0245872Y0247694D01*
X0244852Y0247809D01*
X0244852Y0238520D01*
X0244852Y0239133D02*
X0243553Y0239133D01*
X0243553Y0240431D02*
X0244852Y0240431D01*
X0244852Y0241729D02*
X0243553Y0241729D01*
X0243553Y0243026D02*
X0244852Y0243026D01*
X0244852Y0244324D02*
X0243553Y0244324D01*
X0243553Y0245622D02*
X0244852Y0245622D01*
X0244852Y0246919D02*
X0243553Y0246919D01*
X0248341Y0246919D02*
X0281152Y0246919D01*
X0281152Y0245622D02*
X0250439Y0245622D01*
X0251781Y0244324D02*
X0281152Y0244324D01*
X0281152Y0243026D02*
X0252713Y0243026D01*
X0253387Y0241729D02*
X0281152Y0241729D01*
X0281152Y0240431D02*
X0253823Y0240431D01*
X0254072Y0239133D02*
X0281152Y0239133D01*
X0281152Y0248217D02*
X0030089Y0248217D01*
X0030089Y0246919D02*
X0043214Y0246919D01*
X0041116Y0245622D02*
X0030089Y0245622D01*
X0030089Y0244324D02*
X0039774Y0244324D01*
X0038842Y0243026D02*
X0030089Y0243026D01*
X0030089Y0241729D02*
X0038168Y0241729D01*
X0037732Y0240431D02*
X0030089Y0240431D01*
X0030089Y0249515D02*
X0281152Y0249515D01*
X0281152Y0250813D02*
X0030089Y0250813D01*
X0030089Y0252110D02*
X0281152Y0252110D01*
X0281152Y0253408D02*
X0030089Y0253408D01*
X0030089Y0254706D02*
X0281152Y0254706D01*
X0281152Y0255134D02*
X0030089Y0255134D01*
X0030089Y0004071D01*
X0281152Y0004071D01*
X0281152Y0255134D01*
X0281152Y0219667D02*
X0191273Y0219667D01*
X0192317Y0218370D02*
X0281152Y0218370D01*
X0281152Y0217072D02*
X0192717Y0217072D01*
X0192667Y0215774D02*
X0281152Y0215774D01*
X0281152Y0214476D02*
X0192117Y0214476D01*
X0190465Y0213179D02*
X0281152Y0213179D01*
X0281152Y0211881D02*
X0186166Y0211881D01*
X0186467Y0210583D02*
X0281152Y0210583D01*
X0281152Y0209285D02*
X0186318Y0209285D01*
X0185628Y0207988D02*
X0281152Y0207988D01*
X0187369Y0213179D02*
X0185261Y0213179D01*
X0180073Y0213179D02*
X0177965Y0213179D01*
X0178773Y0219667D02*
X0180312Y0219667D01*
X0185023Y0219667D02*
X0186562Y0219667D01*
X0159473Y0210583D02*
X0030089Y0210583D01*
X0030089Y0209285D02*
X0158925Y0209285D01*
X0157819Y0207988D02*
X0030089Y0207988D01*
X0030089Y0206690D02*
X0157277Y0206690D01*
X0158175Y0211881D02*
X0030089Y0211881D01*
X0030089Y0213179D02*
X0157573Y0213179D01*
X0157149Y0214476D02*
X0030089Y0214476D01*
X0030089Y0215774D02*
X0157149Y0215774D01*
X0157346Y0217072D02*
X0030089Y0217072D01*
X0030089Y0218370D02*
X0157884Y0218370D01*
X0161817Y0184629D02*
X0162518Y0184629D01*
X0162518Y0183331D02*
X0161817Y0183331D01*
X0161817Y0182033D02*
X0162518Y0182033D01*
X0170918Y0153483D02*
X0186785Y0153483D01*
X0186075Y0152186D02*
X0171455Y0152186D01*
X0171683Y0150888D02*
X0185791Y0150888D01*
X0185883Y0149590D02*
X0171683Y0149590D01*
X0171200Y0148292D02*
X0186350Y0148292D01*
X0187344Y0146995D02*
X0170397Y0146995D01*
X0119617Y0156079D02*
X0087607Y0156079D01*
X0088538Y0157376D02*
X0118687Y0157376D01*
X0118232Y0158674D02*
X0088992Y0158674D01*
X0088847Y0161270D02*
X0118378Y0161270D01*
X0118998Y0162567D02*
X0088227Y0162567D01*
X0086980Y0163865D02*
X0120244Y0163865D01*
X0084311Y0163865D02*
X0083543Y0163865D01*
X0083543Y0162567D02*
X0084311Y0162567D01*
X0084311Y0161270D02*
X0083543Y0161270D01*
X0083543Y0158674D02*
X0084311Y0158674D01*
X0084311Y0157376D02*
X0083543Y0157376D01*
X0083543Y0156079D02*
X0084311Y0156079D01*
X0080247Y0156079D02*
X0048237Y0156079D01*
X0049168Y0157376D02*
X0079316Y0157376D01*
X0078862Y0158674D02*
X0049622Y0158674D01*
X0049476Y0161270D02*
X0079008Y0161270D01*
X0079628Y0162567D02*
X0048857Y0162567D01*
X0047610Y0163865D02*
X0080874Y0163865D01*
X0042989Y0154781D02*
X0030089Y0154781D01*
X0030089Y0156079D02*
X0040877Y0156079D01*
X0039946Y0157376D02*
X0030089Y0157376D01*
X0030089Y0158674D02*
X0039492Y0158674D01*
X0030089Y0106765D02*
X0060161Y0106765D01*
X0059420Y0105468D02*
X0030089Y0105468D01*
X0030089Y0104170D02*
X0059105Y0104170D01*
X0059129Y0102872D02*
X0030089Y0102872D01*
X0030089Y0101574D02*
X0059478Y0101574D01*
X0060273Y0100277D02*
X0030089Y0100277D01*
X0051874Y0030200D02*
X0239681Y0030200D01*
X0239383Y0030056D02*
X0238437Y0029461D01*
X0237563Y0028765D01*
X0236773Y0027974D01*
X0236076Y0027101D01*
X0235482Y0026155D01*
X0234997Y0025148D01*
X0234628Y0024093D01*
X0234379Y0023004D01*
X0234264Y0021984D01*
X0243553Y0021984D01*
X0243553Y0031273D01*
X0242534Y0031158D01*
X0241444Y0030910D01*
X0240390Y0030541D01*
X0239383Y0030056D01*
X0237735Y0028902D02*
X0053820Y0028902D01*
X0055078Y0027604D02*
X0236477Y0027604D01*
X0235577Y0026306D02*
X0055978Y0026306D01*
X0056607Y0025009D02*
X0234948Y0025009D01*
X0234540Y0023711D02*
X0057015Y0023711D01*
X0057243Y0022413D02*
X0234313Y0022413D01*
X0234362Y0019818D02*
X0057193Y0019818D01*
X0056908Y0018520D02*
X0234647Y0018520D01*
X0235141Y0017222D02*
X0056414Y0017222D01*
X0055703Y0015925D02*
X0235852Y0015925D01*
X0236841Y0014627D02*
X0054714Y0014627D01*
X0053270Y0013329D02*
X0238285Y0013329D01*
X0240667Y0012031D02*
X0050888Y0012031D01*
X0037462Y0022413D02*
X0030089Y0022413D01*
X0030089Y0023711D02*
X0037690Y0023711D01*
X0038098Y0025009D02*
X0030089Y0025009D01*
X0030089Y0026306D02*
X0038727Y0026306D01*
X0039627Y0027604D02*
X0030089Y0027604D01*
X0030089Y0028902D02*
X0040885Y0028902D01*
X0030089Y0010734D02*
X0281152Y0010734D01*
X0281152Y0009436D02*
X0030089Y0009436D01*
X0030089Y0008138D02*
X0281152Y0008138D01*
X0281152Y0006841D02*
X0030089Y0006841D01*
X0030089Y0005543D02*
X0281152Y0005543D01*
X0281152Y0004245D02*
X0030089Y0004245D01*
X0243553Y0012031D02*
X0244852Y0012031D01*
X0244852Y0013329D02*
X0243553Y0013329D01*
X0243553Y0014627D02*
X0244852Y0014627D01*
X0244852Y0015925D02*
X0243553Y0015925D01*
X0243553Y0017222D02*
X0244852Y0017222D01*
X0244852Y0018520D02*
X0243553Y0018520D01*
X0243553Y0022413D02*
X0244852Y0022413D01*
X0244852Y0023711D02*
X0243553Y0023711D01*
X0243553Y0025009D02*
X0244852Y0025009D01*
X0244852Y0026306D02*
X0243553Y0026306D01*
X0243553Y0027604D02*
X0244852Y0027604D01*
X0244852Y0028902D02*
X0243553Y0028902D01*
X0243553Y0030200D02*
X0244852Y0030200D01*
X0087878Y0219667D02*
X0030089Y0219667D01*
X0030089Y0220965D02*
X0086580Y0220965D01*
X0085914Y0222263D02*
X0030089Y0222263D01*
X0030089Y0223560D02*
X0085453Y0223560D01*
X0085453Y0224858D02*
X0030089Y0224858D01*
X0030089Y0226156D02*
X0085621Y0226156D01*
M02*
