G75*
%MOIN*%
%OFA0B0*%
%FSLAX25Y25*%
%IPPOS*%
%LPD*%
%AMOC8*
5,1,8,0,0,1.08239X$1,22.5*
%
%ADD10C,0.00000*%
%ADD11OC8,0.06378*%
%ADD12C,0.06378*%
%ADD13C,0.01600*%
D10*
X0001407Y0011778D02*
X0001407Y0133826D01*
X0135266Y0133826D01*
X0135266Y0011778D01*
X0001407Y0011778D01*
X0035108Y0046778D02*
X0035110Y0046936D01*
X0035116Y0047094D01*
X0035126Y0047252D01*
X0035140Y0047410D01*
X0035158Y0047567D01*
X0035179Y0047724D01*
X0035205Y0047880D01*
X0035235Y0048036D01*
X0035268Y0048191D01*
X0035306Y0048344D01*
X0035347Y0048497D01*
X0035392Y0048649D01*
X0035441Y0048800D01*
X0035494Y0048949D01*
X0035550Y0049097D01*
X0035610Y0049243D01*
X0035674Y0049388D01*
X0035742Y0049531D01*
X0035813Y0049673D01*
X0035887Y0049813D01*
X0035965Y0049950D01*
X0036047Y0050086D01*
X0036131Y0050220D01*
X0036220Y0050351D01*
X0036311Y0050480D01*
X0036406Y0050607D01*
X0036503Y0050732D01*
X0036604Y0050854D01*
X0036708Y0050973D01*
X0036815Y0051090D01*
X0036925Y0051204D01*
X0037038Y0051315D01*
X0037153Y0051424D01*
X0037271Y0051529D01*
X0037392Y0051631D01*
X0037515Y0051731D01*
X0037641Y0051827D01*
X0037769Y0051920D01*
X0037899Y0052010D01*
X0038032Y0052096D01*
X0038167Y0052180D01*
X0038303Y0052259D01*
X0038442Y0052336D01*
X0038583Y0052408D01*
X0038725Y0052478D01*
X0038869Y0052543D01*
X0039015Y0052605D01*
X0039162Y0052663D01*
X0039311Y0052718D01*
X0039461Y0052769D01*
X0039612Y0052816D01*
X0039764Y0052859D01*
X0039917Y0052898D01*
X0040072Y0052934D01*
X0040227Y0052965D01*
X0040383Y0052993D01*
X0040539Y0053017D01*
X0040696Y0053037D01*
X0040854Y0053053D01*
X0041011Y0053065D01*
X0041170Y0053073D01*
X0041328Y0053077D01*
X0041486Y0053077D01*
X0041644Y0053073D01*
X0041803Y0053065D01*
X0041960Y0053053D01*
X0042118Y0053037D01*
X0042275Y0053017D01*
X0042431Y0052993D01*
X0042587Y0052965D01*
X0042742Y0052934D01*
X0042897Y0052898D01*
X0043050Y0052859D01*
X0043202Y0052816D01*
X0043353Y0052769D01*
X0043503Y0052718D01*
X0043652Y0052663D01*
X0043799Y0052605D01*
X0043945Y0052543D01*
X0044089Y0052478D01*
X0044231Y0052408D01*
X0044372Y0052336D01*
X0044511Y0052259D01*
X0044647Y0052180D01*
X0044782Y0052096D01*
X0044915Y0052010D01*
X0045045Y0051920D01*
X0045173Y0051827D01*
X0045299Y0051731D01*
X0045422Y0051631D01*
X0045543Y0051529D01*
X0045661Y0051424D01*
X0045776Y0051315D01*
X0045889Y0051204D01*
X0045999Y0051090D01*
X0046106Y0050973D01*
X0046210Y0050854D01*
X0046311Y0050732D01*
X0046408Y0050607D01*
X0046503Y0050480D01*
X0046594Y0050351D01*
X0046683Y0050220D01*
X0046767Y0050086D01*
X0046849Y0049950D01*
X0046927Y0049813D01*
X0047001Y0049673D01*
X0047072Y0049531D01*
X0047140Y0049388D01*
X0047204Y0049243D01*
X0047264Y0049097D01*
X0047320Y0048949D01*
X0047373Y0048800D01*
X0047422Y0048649D01*
X0047467Y0048497D01*
X0047508Y0048344D01*
X0047546Y0048191D01*
X0047579Y0048036D01*
X0047609Y0047880D01*
X0047635Y0047724D01*
X0047656Y0047567D01*
X0047674Y0047410D01*
X0047688Y0047252D01*
X0047698Y0047094D01*
X0047704Y0046936D01*
X0047706Y0046778D01*
X0047704Y0046620D01*
X0047698Y0046462D01*
X0047688Y0046304D01*
X0047674Y0046146D01*
X0047656Y0045989D01*
X0047635Y0045832D01*
X0047609Y0045676D01*
X0047579Y0045520D01*
X0047546Y0045365D01*
X0047508Y0045212D01*
X0047467Y0045059D01*
X0047422Y0044907D01*
X0047373Y0044756D01*
X0047320Y0044607D01*
X0047264Y0044459D01*
X0047204Y0044313D01*
X0047140Y0044168D01*
X0047072Y0044025D01*
X0047001Y0043883D01*
X0046927Y0043743D01*
X0046849Y0043606D01*
X0046767Y0043470D01*
X0046683Y0043336D01*
X0046594Y0043205D01*
X0046503Y0043076D01*
X0046408Y0042949D01*
X0046311Y0042824D01*
X0046210Y0042702D01*
X0046106Y0042583D01*
X0045999Y0042466D01*
X0045889Y0042352D01*
X0045776Y0042241D01*
X0045661Y0042132D01*
X0045543Y0042027D01*
X0045422Y0041925D01*
X0045299Y0041825D01*
X0045173Y0041729D01*
X0045045Y0041636D01*
X0044915Y0041546D01*
X0044782Y0041460D01*
X0044647Y0041376D01*
X0044511Y0041297D01*
X0044372Y0041220D01*
X0044231Y0041148D01*
X0044089Y0041078D01*
X0043945Y0041013D01*
X0043799Y0040951D01*
X0043652Y0040893D01*
X0043503Y0040838D01*
X0043353Y0040787D01*
X0043202Y0040740D01*
X0043050Y0040697D01*
X0042897Y0040658D01*
X0042742Y0040622D01*
X0042587Y0040591D01*
X0042431Y0040563D01*
X0042275Y0040539D01*
X0042118Y0040519D01*
X0041960Y0040503D01*
X0041803Y0040491D01*
X0041644Y0040483D01*
X0041486Y0040479D01*
X0041328Y0040479D01*
X0041170Y0040483D01*
X0041011Y0040491D01*
X0040854Y0040503D01*
X0040696Y0040519D01*
X0040539Y0040539D01*
X0040383Y0040563D01*
X0040227Y0040591D01*
X0040072Y0040622D01*
X0039917Y0040658D01*
X0039764Y0040697D01*
X0039612Y0040740D01*
X0039461Y0040787D01*
X0039311Y0040838D01*
X0039162Y0040893D01*
X0039015Y0040951D01*
X0038869Y0041013D01*
X0038725Y0041078D01*
X0038583Y0041148D01*
X0038442Y0041220D01*
X0038303Y0041297D01*
X0038167Y0041376D01*
X0038032Y0041460D01*
X0037899Y0041546D01*
X0037769Y0041636D01*
X0037641Y0041729D01*
X0037515Y0041825D01*
X0037392Y0041925D01*
X0037271Y0042027D01*
X0037153Y0042132D01*
X0037038Y0042241D01*
X0036925Y0042352D01*
X0036815Y0042466D01*
X0036708Y0042583D01*
X0036604Y0042702D01*
X0036503Y0042824D01*
X0036406Y0042949D01*
X0036311Y0043076D01*
X0036220Y0043205D01*
X0036131Y0043336D01*
X0036047Y0043470D01*
X0035965Y0043606D01*
X0035887Y0043743D01*
X0035813Y0043883D01*
X0035742Y0044025D01*
X0035674Y0044168D01*
X0035610Y0044313D01*
X0035550Y0044459D01*
X0035494Y0044607D01*
X0035441Y0044756D01*
X0035392Y0044907D01*
X0035347Y0045059D01*
X0035306Y0045212D01*
X0035268Y0045365D01*
X0035235Y0045520D01*
X0035205Y0045676D01*
X0035179Y0045832D01*
X0035158Y0045989D01*
X0035140Y0046146D01*
X0035126Y0046304D01*
X0035116Y0046462D01*
X0035110Y0046620D01*
X0035108Y0046778D01*
X0035108Y0096778D02*
X0035110Y0096936D01*
X0035116Y0097094D01*
X0035126Y0097252D01*
X0035140Y0097410D01*
X0035158Y0097567D01*
X0035179Y0097724D01*
X0035205Y0097880D01*
X0035235Y0098036D01*
X0035268Y0098191D01*
X0035306Y0098344D01*
X0035347Y0098497D01*
X0035392Y0098649D01*
X0035441Y0098800D01*
X0035494Y0098949D01*
X0035550Y0099097D01*
X0035610Y0099243D01*
X0035674Y0099388D01*
X0035742Y0099531D01*
X0035813Y0099673D01*
X0035887Y0099813D01*
X0035965Y0099950D01*
X0036047Y0100086D01*
X0036131Y0100220D01*
X0036220Y0100351D01*
X0036311Y0100480D01*
X0036406Y0100607D01*
X0036503Y0100732D01*
X0036604Y0100854D01*
X0036708Y0100973D01*
X0036815Y0101090D01*
X0036925Y0101204D01*
X0037038Y0101315D01*
X0037153Y0101424D01*
X0037271Y0101529D01*
X0037392Y0101631D01*
X0037515Y0101731D01*
X0037641Y0101827D01*
X0037769Y0101920D01*
X0037899Y0102010D01*
X0038032Y0102096D01*
X0038167Y0102180D01*
X0038303Y0102259D01*
X0038442Y0102336D01*
X0038583Y0102408D01*
X0038725Y0102478D01*
X0038869Y0102543D01*
X0039015Y0102605D01*
X0039162Y0102663D01*
X0039311Y0102718D01*
X0039461Y0102769D01*
X0039612Y0102816D01*
X0039764Y0102859D01*
X0039917Y0102898D01*
X0040072Y0102934D01*
X0040227Y0102965D01*
X0040383Y0102993D01*
X0040539Y0103017D01*
X0040696Y0103037D01*
X0040854Y0103053D01*
X0041011Y0103065D01*
X0041170Y0103073D01*
X0041328Y0103077D01*
X0041486Y0103077D01*
X0041644Y0103073D01*
X0041803Y0103065D01*
X0041960Y0103053D01*
X0042118Y0103037D01*
X0042275Y0103017D01*
X0042431Y0102993D01*
X0042587Y0102965D01*
X0042742Y0102934D01*
X0042897Y0102898D01*
X0043050Y0102859D01*
X0043202Y0102816D01*
X0043353Y0102769D01*
X0043503Y0102718D01*
X0043652Y0102663D01*
X0043799Y0102605D01*
X0043945Y0102543D01*
X0044089Y0102478D01*
X0044231Y0102408D01*
X0044372Y0102336D01*
X0044511Y0102259D01*
X0044647Y0102180D01*
X0044782Y0102096D01*
X0044915Y0102010D01*
X0045045Y0101920D01*
X0045173Y0101827D01*
X0045299Y0101731D01*
X0045422Y0101631D01*
X0045543Y0101529D01*
X0045661Y0101424D01*
X0045776Y0101315D01*
X0045889Y0101204D01*
X0045999Y0101090D01*
X0046106Y0100973D01*
X0046210Y0100854D01*
X0046311Y0100732D01*
X0046408Y0100607D01*
X0046503Y0100480D01*
X0046594Y0100351D01*
X0046683Y0100220D01*
X0046767Y0100086D01*
X0046849Y0099950D01*
X0046927Y0099813D01*
X0047001Y0099673D01*
X0047072Y0099531D01*
X0047140Y0099388D01*
X0047204Y0099243D01*
X0047264Y0099097D01*
X0047320Y0098949D01*
X0047373Y0098800D01*
X0047422Y0098649D01*
X0047467Y0098497D01*
X0047508Y0098344D01*
X0047546Y0098191D01*
X0047579Y0098036D01*
X0047609Y0097880D01*
X0047635Y0097724D01*
X0047656Y0097567D01*
X0047674Y0097410D01*
X0047688Y0097252D01*
X0047698Y0097094D01*
X0047704Y0096936D01*
X0047706Y0096778D01*
X0047704Y0096620D01*
X0047698Y0096462D01*
X0047688Y0096304D01*
X0047674Y0096146D01*
X0047656Y0095989D01*
X0047635Y0095832D01*
X0047609Y0095676D01*
X0047579Y0095520D01*
X0047546Y0095365D01*
X0047508Y0095212D01*
X0047467Y0095059D01*
X0047422Y0094907D01*
X0047373Y0094756D01*
X0047320Y0094607D01*
X0047264Y0094459D01*
X0047204Y0094313D01*
X0047140Y0094168D01*
X0047072Y0094025D01*
X0047001Y0093883D01*
X0046927Y0093743D01*
X0046849Y0093606D01*
X0046767Y0093470D01*
X0046683Y0093336D01*
X0046594Y0093205D01*
X0046503Y0093076D01*
X0046408Y0092949D01*
X0046311Y0092824D01*
X0046210Y0092702D01*
X0046106Y0092583D01*
X0045999Y0092466D01*
X0045889Y0092352D01*
X0045776Y0092241D01*
X0045661Y0092132D01*
X0045543Y0092027D01*
X0045422Y0091925D01*
X0045299Y0091825D01*
X0045173Y0091729D01*
X0045045Y0091636D01*
X0044915Y0091546D01*
X0044782Y0091460D01*
X0044647Y0091376D01*
X0044511Y0091297D01*
X0044372Y0091220D01*
X0044231Y0091148D01*
X0044089Y0091078D01*
X0043945Y0091013D01*
X0043799Y0090951D01*
X0043652Y0090893D01*
X0043503Y0090838D01*
X0043353Y0090787D01*
X0043202Y0090740D01*
X0043050Y0090697D01*
X0042897Y0090658D01*
X0042742Y0090622D01*
X0042587Y0090591D01*
X0042431Y0090563D01*
X0042275Y0090539D01*
X0042118Y0090519D01*
X0041960Y0090503D01*
X0041803Y0090491D01*
X0041644Y0090483D01*
X0041486Y0090479D01*
X0041328Y0090479D01*
X0041170Y0090483D01*
X0041011Y0090491D01*
X0040854Y0090503D01*
X0040696Y0090519D01*
X0040539Y0090539D01*
X0040383Y0090563D01*
X0040227Y0090591D01*
X0040072Y0090622D01*
X0039917Y0090658D01*
X0039764Y0090697D01*
X0039612Y0090740D01*
X0039461Y0090787D01*
X0039311Y0090838D01*
X0039162Y0090893D01*
X0039015Y0090951D01*
X0038869Y0091013D01*
X0038725Y0091078D01*
X0038583Y0091148D01*
X0038442Y0091220D01*
X0038303Y0091297D01*
X0038167Y0091376D01*
X0038032Y0091460D01*
X0037899Y0091546D01*
X0037769Y0091636D01*
X0037641Y0091729D01*
X0037515Y0091825D01*
X0037392Y0091925D01*
X0037271Y0092027D01*
X0037153Y0092132D01*
X0037038Y0092241D01*
X0036925Y0092352D01*
X0036815Y0092466D01*
X0036708Y0092583D01*
X0036604Y0092702D01*
X0036503Y0092824D01*
X0036406Y0092949D01*
X0036311Y0093076D01*
X0036220Y0093205D01*
X0036131Y0093336D01*
X0036047Y0093470D01*
X0035965Y0093606D01*
X0035887Y0093743D01*
X0035813Y0093883D01*
X0035742Y0094025D01*
X0035674Y0094168D01*
X0035610Y0094313D01*
X0035550Y0094459D01*
X0035494Y0094607D01*
X0035441Y0094756D01*
X0035392Y0094907D01*
X0035347Y0095059D01*
X0035306Y0095212D01*
X0035268Y0095365D01*
X0035235Y0095520D01*
X0035205Y0095676D01*
X0035179Y0095832D01*
X0035158Y0095989D01*
X0035140Y0096146D01*
X0035126Y0096304D01*
X0035116Y0096462D01*
X0035110Y0096620D01*
X0035108Y0096778D01*
X0106879Y0078156D02*
X0106881Y0078290D01*
X0106887Y0078424D01*
X0106897Y0078558D01*
X0106911Y0078692D01*
X0106929Y0078825D01*
X0106950Y0078957D01*
X0106976Y0079089D01*
X0107006Y0079220D01*
X0107039Y0079350D01*
X0107076Y0079478D01*
X0107118Y0079606D01*
X0107162Y0079733D01*
X0107211Y0079858D01*
X0107263Y0079981D01*
X0107319Y0080103D01*
X0107379Y0080224D01*
X0107442Y0080342D01*
X0107508Y0080459D01*
X0107578Y0080573D01*
X0107651Y0080686D01*
X0107728Y0080796D01*
X0107808Y0080904D01*
X0107891Y0081009D01*
X0107977Y0081112D01*
X0108066Y0081212D01*
X0108158Y0081310D01*
X0108253Y0081405D01*
X0108351Y0081497D01*
X0108451Y0081586D01*
X0108554Y0081672D01*
X0108659Y0081755D01*
X0108767Y0081835D01*
X0108877Y0081912D01*
X0108990Y0081985D01*
X0109104Y0082055D01*
X0109221Y0082121D01*
X0109339Y0082184D01*
X0109460Y0082244D01*
X0109582Y0082300D01*
X0109705Y0082352D01*
X0109830Y0082401D01*
X0109957Y0082445D01*
X0110085Y0082487D01*
X0110213Y0082524D01*
X0110343Y0082557D01*
X0110474Y0082587D01*
X0110606Y0082613D01*
X0110738Y0082634D01*
X0110871Y0082652D01*
X0111005Y0082666D01*
X0111139Y0082676D01*
X0111273Y0082682D01*
X0111407Y0082684D01*
X0111541Y0082682D01*
X0111675Y0082676D01*
X0111809Y0082666D01*
X0111943Y0082652D01*
X0112076Y0082634D01*
X0112208Y0082613D01*
X0112340Y0082587D01*
X0112471Y0082557D01*
X0112601Y0082524D01*
X0112729Y0082487D01*
X0112857Y0082445D01*
X0112984Y0082401D01*
X0113109Y0082352D01*
X0113232Y0082300D01*
X0113354Y0082244D01*
X0113475Y0082184D01*
X0113593Y0082121D01*
X0113710Y0082055D01*
X0113824Y0081985D01*
X0113937Y0081912D01*
X0114047Y0081835D01*
X0114155Y0081755D01*
X0114260Y0081672D01*
X0114363Y0081586D01*
X0114463Y0081497D01*
X0114561Y0081405D01*
X0114656Y0081310D01*
X0114748Y0081212D01*
X0114837Y0081112D01*
X0114923Y0081009D01*
X0115006Y0080904D01*
X0115086Y0080796D01*
X0115163Y0080686D01*
X0115236Y0080573D01*
X0115306Y0080459D01*
X0115372Y0080342D01*
X0115435Y0080224D01*
X0115495Y0080103D01*
X0115551Y0079981D01*
X0115603Y0079858D01*
X0115652Y0079733D01*
X0115696Y0079606D01*
X0115738Y0079478D01*
X0115775Y0079350D01*
X0115808Y0079220D01*
X0115838Y0079089D01*
X0115864Y0078957D01*
X0115885Y0078825D01*
X0115903Y0078692D01*
X0115917Y0078558D01*
X0115927Y0078424D01*
X0115933Y0078290D01*
X0115935Y0078156D01*
X0115933Y0078022D01*
X0115927Y0077888D01*
X0115917Y0077754D01*
X0115903Y0077620D01*
X0115885Y0077487D01*
X0115864Y0077355D01*
X0115838Y0077223D01*
X0115808Y0077092D01*
X0115775Y0076962D01*
X0115738Y0076834D01*
X0115696Y0076706D01*
X0115652Y0076579D01*
X0115603Y0076454D01*
X0115551Y0076331D01*
X0115495Y0076209D01*
X0115435Y0076088D01*
X0115372Y0075970D01*
X0115306Y0075853D01*
X0115236Y0075739D01*
X0115163Y0075626D01*
X0115086Y0075516D01*
X0115006Y0075408D01*
X0114923Y0075303D01*
X0114837Y0075200D01*
X0114748Y0075100D01*
X0114656Y0075002D01*
X0114561Y0074907D01*
X0114463Y0074815D01*
X0114363Y0074726D01*
X0114260Y0074640D01*
X0114155Y0074557D01*
X0114047Y0074477D01*
X0113937Y0074400D01*
X0113824Y0074327D01*
X0113710Y0074257D01*
X0113593Y0074191D01*
X0113475Y0074128D01*
X0113354Y0074068D01*
X0113232Y0074012D01*
X0113109Y0073960D01*
X0112984Y0073911D01*
X0112857Y0073867D01*
X0112729Y0073825D01*
X0112601Y0073788D01*
X0112471Y0073755D01*
X0112340Y0073725D01*
X0112208Y0073699D01*
X0112076Y0073678D01*
X0111943Y0073660D01*
X0111809Y0073646D01*
X0111675Y0073636D01*
X0111541Y0073630D01*
X0111407Y0073628D01*
X0111273Y0073630D01*
X0111139Y0073636D01*
X0111005Y0073646D01*
X0110871Y0073660D01*
X0110738Y0073678D01*
X0110606Y0073699D01*
X0110474Y0073725D01*
X0110343Y0073755D01*
X0110213Y0073788D01*
X0110085Y0073825D01*
X0109957Y0073867D01*
X0109830Y0073911D01*
X0109705Y0073960D01*
X0109582Y0074012D01*
X0109460Y0074068D01*
X0109339Y0074128D01*
X0109221Y0074191D01*
X0109104Y0074257D01*
X0108990Y0074327D01*
X0108877Y0074400D01*
X0108767Y0074477D01*
X0108659Y0074557D01*
X0108554Y0074640D01*
X0108451Y0074726D01*
X0108351Y0074815D01*
X0108253Y0074907D01*
X0108158Y0075002D01*
X0108066Y0075100D01*
X0107977Y0075200D01*
X0107891Y0075303D01*
X0107808Y0075408D01*
X0107728Y0075516D01*
X0107651Y0075626D01*
X0107578Y0075739D01*
X0107508Y0075853D01*
X0107442Y0075970D01*
X0107379Y0076088D01*
X0107319Y0076209D01*
X0107263Y0076331D01*
X0107211Y0076454D01*
X0107162Y0076579D01*
X0107118Y0076706D01*
X0107076Y0076834D01*
X0107039Y0076962D01*
X0107006Y0077092D01*
X0106976Y0077223D01*
X0106950Y0077355D01*
X0106929Y0077487D01*
X0106911Y0077620D01*
X0106897Y0077754D01*
X0106887Y0077888D01*
X0106881Y0078022D01*
X0106879Y0078156D01*
X0106879Y0065400D02*
X0106881Y0065534D01*
X0106887Y0065668D01*
X0106897Y0065802D01*
X0106911Y0065936D01*
X0106929Y0066069D01*
X0106950Y0066201D01*
X0106976Y0066333D01*
X0107006Y0066464D01*
X0107039Y0066594D01*
X0107076Y0066722D01*
X0107118Y0066850D01*
X0107162Y0066977D01*
X0107211Y0067102D01*
X0107263Y0067225D01*
X0107319Y0067347D01*
X0107379Y0067468D01*
X0107442Y0067586D01*
X0107508Y0067703D01*
X0107578Y0067817D01*
X0107651Y0067930D01*
X0107728Y0068040D01*
X0107808Y0068148D01*
X0107891Y0068253D01*
X0107977Y0068356D01*
X0108066Y0068456D01*
X0108158Y0068554D01*
X0108253Y0068649D01*
X0108351Y0068741D01*
X0108451Y0068830D01*
X0108554Y0068916D01*
X0108659Y0068999D01*
X0108767Y0069079D01*
X0108877Y0069156D01*
X0108990Y0069229D01*
X0109104Y0069299D01*
X0109221Y0069365D01*
X0109339Y0069428D01*
X0109460Y0069488D01*
X0109582Y0069544D01*
X0109705Y0069596D01*
X0109830Y0069645D01*
X0109957Y0069689D01*
X0110085Y0069731D01*
X0110213Y0069768D01*
X0110343Y0069801D01*
X0110474Y0069831D01*
X0110606Y0069857D01*
X0110738Y0069878D01*
X0110871Y0069896D01*
X0111005Y0069910D01*
X0111139Y0069920D01*
X0111273Y0069926D01*
X0111407Y0069928D01*
X0111541Y0069926D01*
X0111675Y0069920D01*
X0111809Y0069910D01*
X0111943Y0069896D01*
X0112076Y0069878D01*
X0112208Y0069857D01*
X0112340Y0069831D01*
X0112471Y0069801D01*
X0112601Y0069768D01*
X0112729Y0069731D01*
X0112857Y0069689D01*
X0112984Y0069645D01*
X0113109Y0069596D01*
X0113232Y0069544D01*
X0113354Y0069488D01*
X0113475Y0069428D01*
X0113593Y0069365D01*
X0113710Y0069299D01*
X0113824Y0069229D01*
X0113937Y0069156D01*
X0114047Y0069079D01*
X0114155Y0068999D01*
X0114260Y0068916D01*
X0114363Y0068830D01*
X0114463Y0068741D01*
X0114561Y0068649D01*
X0114656Y0068554D01*
X0114748Y0068456D01*
X0114837Y0068356D01*
X0114923Y0068253D01*
X0115006Y0068148D01*
X0115086Y0068040D01*
X0115163Y0067930D01*
X0115236Y0067817D01*
X0115306Y0067703D01*
X0115372Y0067586D01*
X0115435Y0067468D01*
X0115495Y0067347D01*
X0115551Y0067225D01*
X0115603Y0067102D01*
X0115652Y0066977D01*
X0115696Y0066850D01*
X0115738Y0066722D01*
X0115775Y0066594D01*
X0115808Y0066464D01*
X0115838Y0066333D01*
X0115864Y0066201D01*
X0115885Y0066069D01*
X0115903Y0065936D01*
X0115917Y0065802D01*
X0115927Y0065668D01*
X0115933Y0065534D01*
X0115935Y0065400D01*
X0115933Y0065266D01*
X0115927Y0065132D01*
X0115917Y0064998D01*
X0115903Y0064864D01*
X0115885Y0064731D01*
X0115864Y0064599D01*
X0115838Y0064467D01*
X0115808Y0064336D01*
X0115775Y0064206D01*
X0115738Y0064078D01*
X0115696Y0063950D01*
X0115652Y0063823D01*
X0115603Y0063698D01*
X0115551Y0063575D01*
X0115495Y0063453D01*
X0115435Y0063332D01*
X0115372Y0063214D01*
X0115306Y0063097D01*
X0115236Y0062983D01*
X0115163Y0062870D01*
X0115086Y0062760D01*
X0115006Y0062652D01*
X0114923Y0062547D01*
X0114837Y0062444D01*
X0114748Y0062344D01*
X0114656Y0062246D01*
X0114561Y0062151D01*
X0114463Y0062059D01*
X0114363Y0061970D01*
X0114260Y0061884D01*
X0114155Y0061801D01*
X0114047Y0061721D01*
X0113937Y0061644D01*
X0113824Y0061571D01*
X0113710Y0061501D01*
X0113593Y0061435D01*
X0113475Y0061372D01*
X0113354Y0061312D01*
X0113232Y0061256D01*
X0113109Y0061204D01*
X0112984Y0061155D01*
X0112857Y0061111D01*
X0112729Y0061069D01*
X0112601Y0061032D01*
X0112471Y0060999D01*
X0112340Y0060969D01*
X0112208Y0060943D01*
X0112076Y0060922D01*
X0111943Y0060904D01*
X0111809Y0060890D01*
X0111675Y0060880D01*
X0111541Y0060874D01*
X0111407Y0060872D01*
X0111273Y0060874D01*
X0111139Y0060880D01*
X0111005Y0060890D01*
X0110871Y0060904D01*
X0110738Y0060922D01*
X0110606Y0060943D01*
X0110474Y0060969D01*
X0110343Y0060999D01*
X0110213Y0061032D01*
X0110085Y0061069D01*
X0109957Y0061111D01*
X0109830Y0061155D01*
X0109705Y0061204D01*
X0109582Y0061256D01*
X0109460Y0061312D01*
X0109339Y0061372D01*
X0109221Y0061435D01*
X0109104Y0061501D01*
X0108990Y0061571D01*
X0108877Y0061644D01*
X0108767Y0061721D01*
X0108659Y0061801D01*
X0108554Y0061884D01*
X0108451Y0061970D01*
X0108351Y0062059D01*
X0108253Y0062151D01*
X0108158Y0062246D01*
X0108066Y0062344D01*
X0107977Y0062444D01*
X0107891Y0062547D01*
X0107808Y0062652D01*
X0107728Y0062760D01*
X0107651Y0062870D01*
X0107578Y0062983D01*
X0107508Y0063097D01*
X0107442Y0063214D01*
X0107379Y0063332D01*
X0107319Y0063453D01*
X0107263Y0063575D01*
X0107211Y0063698D01*
X0107162Y0063823D01*
X0107118Y0063950D01*
X0107076Y0064078D01*
X0107039Y0064206D01*
X0107006Y0064336D01*
X0106976Y0064467D01*
X0106950Y0064599D01*
X0106929Y0064731D01*
X0106911Y0064864D01*
X0106897Y0064998D01*
X0106887Y0065132D01*
X0106881Y0065266D01*
X0106879Y0065400D01*
X0106879Y0018156D02*
X0106881Y0018290D01*
X0106887Y0018424D01*
X0106897Y0018558D01*
X0106911Y0018692D01*
X0106929Y0018825D01*
X0106950Y0018957D01*
X0106976Y0019089D01*
X0107006Y0019220D01*
X0107039Y0019350D01*
X0107076Y0019478D01*
X0107118Y0019606D01*
X0107162Y0019733D01*
X0107211Y0019858D01*
X0107263Y0019981D01*
X0107319Y0020103D01*
X0107379Y0020224D01*
X0107442Y0020342D01*
X0107508Y0020459D01*
X0107578Y0020573D01*
X0107651Y0020686D01*
X0107728Y0020796D01*
X0107808Y0020904D01*
X0107891Y0021009D01*
X0107977Y0021112D01*
X0108066Y0021212D01*
X0108158Y0021310D01*
X0108253Y0021405D01*
X0108351Y0021497D01*
X0108451Y0021586D01*
X0108554Y0021672D01*
X0108659Y0021755D01*
X0108767Y0021835D01*
X0108877Y0021912D01*
X0108990Y0021985D01*
X0109104Y0022055D01*
X0109221Y0022121D01*
X0109339Y0022184D01*
X0109460Y0022244D01*
X0109582Y0022300D01*
X0109705Y0022352D01*
X0109830Y0022401D01*
X0109957Y0022445D01*
X0110085Y0022487D01*
X0110213Y0022524D01*
X0110343Y0022557D01*
X0110474Y0022587D01*
X0110606Y0022613D01*
X0110738Y0022634D01*
X0110871Y0022652D01*
X0111005Y0022666D01*
X0111139Y0022676D01*
X0111273Y0022682D01*
X0111407Y0022684D01*
X0111541Y0022682D01*
X0111675Y0022676D01*
X0111809Y0022666D01*
X0111943Y0022652D01*
X0112076Y0022634D01*
X0112208Y0022613D01*
X0112340Y0022587D01*
X0112471Y0022557D01*
X0112601Y0022524D01*
X0112729Y0022487D01*
X0112857Y0022445D01*
X0112984Y0022401D01*
X0113109Y0022352D01*
X0113232Y0022300D01*
X0113354Y0022244D01*
X0113475Y0022184D01*
X0113593Y0022121D01*
X0113710Y0022055D01*
X0113824Y0021985D01*
X0113937Y0021912D01*
X0114047Y0021835D01*
X0114155Y0021755D01*
X0114260Y0021672D01*
X0114363Y0021586D01*
X0114463Y0021497D01*
X0114561Y0021405D01*
X0114656Y0021310D01*
X0114748Y0021212D01*
X0114837Y0021112D01*
X0114923Y0021009D01*
X0115006Y0020904D01*
X0115086Y0020796D01*
X0115163Y0020686D01*
X0115236Y0020573D01*
X0115306Y0020459D01*
X0115372Y0020342D01*
X0115435Y0020224D01*
X0115495Y0020103D01*
X0115551Y0019981D01*
X0115603Y0019858D01*
X0115652Y0019733D01*
X0115696Y0019606D01*
X0115738Y0019478D01*
X0115775Y0019350D01*
X0115808Y0019220D01*
X0115838Y0019089D01*
X0115864Y0018957D01*
X0115885Y0018825D01*
X0115903Y0018692D01*
X0115917Y0018558D01*
X0115927Y0018424D01*
X0115933Y0018290D01*
X0115935Y0018156D01*
X0115933Y0018022D01*
X0115927Y0017888D01*
X0115917Y0017754D01*
X0115903Y0017620D01*
X0115885Y0017487D01*
X0115864Y0017355D01*
X0115838Y0017223D01*
X0115808Y0017092D01*
X0115775Y0016962D01*
X0115738Y0016834D01*
X0115696Y0016706D01*
X0115652Y0016579D01*
X0115603Y0016454D01*
X0115551Y0016331D01*
X0115495Y0016209D01*
X0115435Y0016088D01*
X0115372Y0015970D01*
X0115306Y0015853D01*
X0115236Y0015739D01*
X0115163Y0015626D01*
X0115086Y0015516D01*
X0115006Y0015408D01*
X0114923Y0015303D01*
X0114837Y0015200D01*
X0114748Y0015100D01*
X0114656Y0015002D01*
X0114561Y0014907D01*
X0114463Y0014815D01*
X0114363Y0014726D01*
X0114260Y0014640D01*
X0114155Y0014557D01*
X0114047Y0014477D01*
X0113937Y0014400D01*
X0113824Y0014327D01*
X0113710Y0014257D01*
X0113593Y0014191D01*
X0113475Y0014128D01*
X0113354Y0014068D01*
X0113232Y0014012D01*
X0113109Y0013960D01*
X0112984Y0013911D01*
X0112857Y0013867D01*
X0112729Y0013825D01*
X0112601Y0013788D01*
X0112471Y0013755D01*
X0112340Y0013725D01*
X0112208Y0013699D01*
X0112076Y0013678D01*
X0111943Y0013660D01*
X0111809Y0013646D01*
X0111675Y0013636D01*
X0111541Y0013630D01*
X0111407Y0013628D01*
X0111273Y0013630D01*
X0111139Y0013636D01*
X0111005Y0013646D01*
X0110871Y0013660D01*
X0110738Y0013678D01*
X0110606Y0013699D01*
X0110474Y0013725D01*
X0110343Y0013755D01*
X0110213Y0013788D01*
X0110085Y0013825D01*
X0109957Y0013867D01*
X0109830Y0013911D01*
X0109705Y0013960D01*
X0109582Y0014012D01*
X0109460Y0014068D01*
X0109339Y0014128D01*
X0109221Y0014191D01*
X0109104Y0014257D01*
X0108990Y0014327D01*
X0108877Y0014400D01*
X0108767Y0014477D01*
X0108659Y0014557D01*
X0108554Y0014640D01*
X0108451Y0014726D01*
X0108351Y0014815D01*
X0108253Y0014907D01*
X0108158Y0015002D01*
X0108066Y0015100D01*
X0107977Y0015200D01*
X0107891Y0015303D01*
X0107808Y0015408D01*
X0107728Y0015516D01*
X0107651Y0015626D01*
X0107578Y0015739D01*
X0107508Y0015853D01*
X0107442Y0015970D01*
X0107379Y0016088D01*
X0107319Y0016209D01*
X0107263Y0016331D01*
X0107211Y0016454D01*
X0107162Y0016579D01*
X0107118Y0016706D01*
X0107076Y0016834D01*
X0107039Y0016962D01*
X0107006Y0017092D01*
X0106976Y0017223D01*
X0106950Y0017355D01*
X0106929Y0017487D01*
X0106911Y0017620D01*
X0106897Y0017754D01*
X0106887Y0017888D01*
X0106881Y0018022D01*
X0106879Y0018156D01*
X0106879Y0125400D02*
X0106881Y0125534D01*
X0106887Y0125668D01*
X0106897Y0125802D01*
X0106911Y0125936D01*
X0106929Y0126069D01*
X0106950Y0126201D01*
X0106976Y0126333D01*
X0107006Y0126464D01*
X0107039Y0126594D01*
X0107076Y0126722D01*
X0107118Y0126850D01*
X0107162Y0126977D01*
X0107211Y0127102D01*
X0107263Y0127225D01*
X0107319Y0127347D01*
X0107379Y0127468D01*
X0107442Y0127586D01*
X0107508Y0127703D01*
X0107578Y0127817D01*
X0107651Y0127930D01*
X0107728Y0128040D01*
X0107808Y0128148D01*
X0107891Y0128253D01*
X0107977Y0128356D01*
X0108066Y0128456D01*
X0108158Y0128554D01*
X0108253Y0128649D01*
X0108351Y0128741D01*
X0108451Y0128830D01*
X0108554Y0128916D01*
X0108659Y0128999D01*
X0108767Y0129079D01*
X0108877Y0129156D01*
X0108990Y0129229D01*
X0109104Y0129299D01*
X0109221Y0129365D01*
X0109339Y0129428D01*
X0109460Y0129488D01*
X0109582Y0129544D01*
X0109705Y0129596D01*
X0109830Y0129645D01*
X0109957Y0129689D01*
X0110085Y0129731D01*
X0110213Y0129768D01*
X0110343Y0129801D01*
X0110474Y0129831D01*
X0110606Y0129857D01*
X0110738Y0129878D01*
X0110871Y0129896D01*
X0111005Y0129910D01*
X0111139Y0129920D01*
X0111273Y0129926D01*
X0111407Y0129928D01*
X0111541Y0129926D01*
X0111675Y0129920D01*
X0111809Y0129910D01*
X0111943Y0129896D01*
X0112076Y0129878D01*
X0112208Y0129857D01*
X0112340Y0129831D01*
X0112471Y0129801D01*
X0112601Y0129768D01*
X0112729Y0129731D01*
X0112857Y0129689D01*
X0112984Y0129645D01*
X0113109Y0129596D01*
X0113232Y0129544D01*
X0113354Y0129488D01*
X0113475Y0129428D01*
X0113593Y0129365D01*
X0113710Y0129299D01*
X0113824Y0129229D01*
X0113937Y0129156D01*
X0114047Y0129079D01*
X0114155Y0128999D01*
X0114260Y0128916D01*
X0114363Y0128830D01*
X0114463Y0128741D01*
X0114561Y0128649D01*
X0114656Y0128554D01*
X0114748Y0128456D01*
X0114837Y0128356D01*
X0114923Y0128253D01*
X0115006Y0128148D01*
X0115086Y0128040D01*
X0115163Y0127930D01*
X0115236Y0127817D01*
X0115306Y0127703D01*
X0115372Y0127586D01*
X0115435Y0127468D01*
X0115495Y0127347D01*
X0115551Y0127225D01*
X0115603Y0127102D01*
X0115652Y0126977D01*
X0115696Y0126850D01*
X0115738Y0126722D01*
X0115775Y0126594D01*
X0115808Y0126464D01*
X0115838Y0126333D01*
X0115864Y0126201D01*
X0115885Y0126069D01*
X0115903Y0125936D01*
X0115917Y0125802D01*
X0115927Y0125668D01*
X0115933Y0125534D01*
X0115935Y0125400D01*
X0115933Y0125266D01*
X0115927Y0125132D01*
X0115917Y0124998D01*
X0115903Y0124864D01*
X0115885Y0124731D01*
X0115864Y0124599D01*
X0115838Y0124467D01*
X0115808Y0124336D01*
X0115775Y0124206D01*
X0115738Y0124078D01*
X0115696Y0123950D01*
X0115652Y0123823D01*
X0115603Y0123698D01*
X0115551Y0123575D01*
X0115495Y0123453D01*
X0115435Y0123332D01*
X0115372Y0123214D01*
X0115306Y0123097D01*
X0115236Y0122983D01*
X0115163Y0122870D01*
X0115086Y0122760D01*
X0115006Y0122652D01*
X0114923Y0122547D01*
X0114837Y0122444D01*
X0114748Y0122344D01*
X0114656Y0122246D01*
X0114561Y0122151D01*
X0114463Y0122059D01*
X0114363Y0121970D01*
X0114260Y0121884D01*
X0114155Y0121801D01*
X0114047Y0121721D01*
X0113937Y0121644D01*
X0113824Y0121571D01*
X0113710Y0121501D01*
X0113593Y0121435D01*
X0113475Y0121372D01*
X0113354Y0121312D01*
X0113232Y0121256D01*
X0113109Y0121204D01*
X0112984Y0121155D01*
X0112857Y0121111D01*
X0112729Y0121069D01*
X0112601Y0121032D01*
X0112471Y0120999D01*
X0112340Y0120969D01*
X0112208Y0120943D01*
X0112076Y0120922D01*
X0111943Y0120904D01*
X0111809Y0120890D01*
X0111675Y0120880D01*
X0111541Y0120874D01*
X0111407Y0120872D01*
X0111273Y0120874D01*
X0111139Y0120880D01*
X0111005Y0120890D01*
X0110871Y0120904D01*
X0110738Y0120922D01*
X0110606Y0120943D01*
X0110474Y0120969D01*
X0110343Y0120999D01*
X0110213Y0121032D01*
X0110085Y0121069D01*
X0109957Y0121111D01*
X0109830Y0121155D01*
X0109705Y0121204D01*
X0109582Y0121256D01*
X0109460Y0121312D01*
X0109339Y0121372D01*
X0109221Y0121435D01*
X0109104Y0121501D01*
X0108990Y0121571D01*
X0108877Y0121644D01*
X0108767Y0121721D01*
X0108659Y0121801D01*
X0108554Y0121884D01*
X0108451Y0121970D01*
X0108351Y0122059D01*
X0108253Y0122151D01*
X0108158Y0122246D01*
X0108066Y0122344D01*
X0107977Y0122444D01*
X0107891Y0122547D01*
X0107808Y0122652D01*
X0107728Y0122760D01*
X0107651Y0122870D01*
X0107578Y0122983D01*
X0107508Y0123097D01*
X0107442Y0123214D01*
X0107379Y0123332D01*
X0107319Y0123453D01*
X0107263Y0123575D01*
X0107211Y0123698D01*
X0107162Y0123823D01*
X0107118Y0123950D01*
X0107076Y0124078D01*
X0107039Y0124206D01*
X0107006Y0124336D01*
X0106976Y0124467D01*
X0106950Y0124599D01*
X0106929Y0124731D01*
X0106911Y0124864D01*
X0106897Y0124998D01*
X0106887Y0125132D01*
X0106881Y0125266D01*
X0106879Y0125400D01*
D11*
X0092352Y0111818D03*
X0092352Y0051818D03*
X0032156Y0085833D03*
D12*
X0025148Y0081818D03*
X0032156Y0077822D03*
X0025148Y0073806D03*
X0032156Y0069751D03*
X0025148Y0065735D03*
X0032156Y0061739D03*
X0025148Y0057723D03*
X0092352Y0043786D03*
X0092352Y0035755D03*
X0102352Y0039770D03*
X0102352Y0031739D03*
X0102352Y0047802D03*
X0102352Y0091739D03*
X0102352Y0099770D03*
X0102352Y0107802D03*
X0092352Y0103786D03*
X0092352Y0095755D03*
D13*
X0050364Y0077822D02*
X0084400Y0043786D01*
X0092352Y0043786D01*
X0098337Y0043786D01*
X0102352Y0047802D01*
X0102352Y0039770D02*
X0098337Y0035755D01*
X0092352Y0035755D01*
X0022431Y0035755D01*
X0016407Y0041778D01*
X0016407Y0061778D01*
X0020364Y0065735D01*
X0025148Y0065735D01*
X0032156Y0077822D02*
X0050364Y0077822D01*
M02*
