%
M48
M72
T01C0.03543
T02C0.09055
T03C0.12598
%
T01
X32156Y85833
X25148Y81818
X32156Y77822
X25148Y73806
X32156Y69751
X25148Y65735
X32156Y61739
X25148Y57723
X92352Y43786
X92352Y35755
X102352Y39770
X102352Y31739
X102352Y47802
X92352Y51818
X102352Y91739
X102352Y99770
X102352Y107802
X92352Y111818
X92352Y103786
X92352Y95755
T02
X111407Y65400
X111407Y78156
X111407Y125400
X111407Y18156
T03
X41407Y46778
X41407Y96778
M30
