G75*
%MOIN*%
%OFA0B0*%
%FSLAX25Y25*%
%IPPOS*%
%LPD*%
%AMOC8*
5,1,8,0,0,1.08239X$1,22.5*
%
%ADD10C,0.00000*%
%ADD11C,0.02717*%
%ADD12C,0.00787*%
%ADD13C,0.02362*%
%ADD14C,0.02953*%
%ADD15R,0.09843X0.08661*%
%ADD16R,0.01969X0.07874*%
%ADD17R,0.03150X0.03150*%
%ADD18C,0.05600*%
%ADD19C,0.00945*%
%ADD20C,0.01181*%
%ADD21R,0.48031X0.38386*%
%ADD22R,0.06299X0.13780*%
%ADD23C,0.01417*%
%ADD24R,0.07874X0.07874*%
%ADD25R,0.05118X0.12992*%
%ADD26R,0.11024X0.09449*%
%ADD27C,0.00709*%
%ADD28C,0.01890*%
%ADD29OC8,0.06000*%
%ADD30C,0.01200*%
%ADD31C,0.05000*%
%ADD32C,0.04000*%
%ADD33C,0.03600*%
%ADD34C,0.02381*%
%ADD35C,0.01969*%
%ADD36C,0.01600*%
%ADD37C,0.01000*%
D10*
X0002181Y0009243D02*
X0002181Y0284834D01*
X0199031Y0284834D01*
X0199031Y0009243D01*
X0002181Y0009243D01*
X0015613Y0025806D02*
X0015615Y0025918D01*
X0015621Y0026029D01*
X0015631Y0026141D01*
X0015645Y0026252D01*
X0015662Y0026362D01*
X0015684Y0026472D01*
X0015710Y0026581D01*
X0015739Y0026689D01*
X0015772Y0026795D01*
X0015809Y0026901D01*
X0015850Y0027005D01*
X0015895Y0027108D01*
X0015943Y0027209D01*
X0015994Y0027308D01*
X0016049Y0027405D01*
X0016108Y0027500D01*
X0016169Y0027594D01*
X0016234Y0027685D01*
X0016303Y0027773D01*
X0016374Y0027859D01*
X0016448Y0027943D01*
X0016526Y0028023D01*
X0016606Y0028101D01*
X0016689Y0028177D01*
X0016774Y0028249D01*
X0016862Y0028318D01*
X0016952Y0028384D01*
X0017045Y0028446D01*
X0017140Y0028506D01*
X0017237Y0028562D01*
X0017335Y0028614D01*
X0017436Y0028663D01*
X0017538Y0028708D01*
X0017642Y0028750D01*
X0017747Y0028788D01*
X0017854Y0028822D01*
X0017961Y0028852D01*
X0018070Y0028879D01*
X0018179Y0028901D01*
X0018290Y0028920D01*
X0018400Y0028935D01*
X0018512Y0028946D01*
X0018623Y0028953D01*
X0018735Y0028956D01*
X0018847Y0028955D01*
X0018959Y0028950D01*
X0019070Y0028941D01*
X0019181Y0028928D01*
X0019292Y0028911D01*
X0019402Y0028891D01*
X0019511Y0028866D01*
X0019619Y0028838D01*
X0019726Y0028805D01*
X0019832Y0028769D01*
X0019936Y0028729D01*
X0020039Y0028686D01*
X0020141Y0028639D01*
X0020240Y0028588D01*
X0020338Y0028534D01*
X0020434Y0028476D01*
X0020528Y0028415D01*
X0020619Y0028351D01*
X0020708Y0028284D01*
X0020795Y0028213D01*
X0020879Y0028139D01*
X0020961Y0028063D01*
X0021039Y0027983D01*
X0021115Y0027901D01*
X0021188Y0027816D01*
X0021258Y0027729D01*
X0021324Y0027639D01*
X0021388Y0027547D01*
X0021448Y0027453D01*
X0021505Y0027357D01*
X0021558Y0027258D01*
X0021608Y0027158D01*
X0021654Y0027057D01*
X0021697Y0026953D01*
X0021736Y0026848D01*
X0021771Y0026742D01*
X0021802Y0026635D01*
X0021830Y0026526D01*
X0021853Y0026417D01*
X0021873Y0026307D01*
X0021889Y0026196D01*
X0021901Y0026085D01*
X0021909Y0025974D01*
X0021913Y0025862D01*
X0021913Y0025750D01*
X0021909Y0025638D01*
X0021901Y0025527D01*
X0021889Y0025416D01*
X0021873Y0025305D01*
X0021853Y0025195D01*
X0021830Y0025086D01*
X0021802Y0024977D01*
X0021771Y0024870D01*
X0021736Y0024764D01*
X0021697Y0024659D01*
X0021654Y0024555D01*
X0021608Y0024454D01*
X0021558Y0024354D01*
X0021505Y0024255D01*
X0021448Y0024159D01*
X0021388Y0024065D01*
X0021324Y0023973D01*
X0021258Y0023883D01*
X0021188Y0023796D01*
X0021115Y0023711D01*
X0021039Y0023629D01*
X0020961Y0023549D01*
X0020879Y0023473D01*
X0020795Y0023399D01*
X0020708Y0023328D01*
X0020619Y0023261D01*
X0020528Y0023197D01*
X0020434Y0023136D01*
X0020338Y0023078D01*
X0020240Y0023024D01*
X0020141Y0022973D01*
X0020039Y0022926D01*
X0019936Y0022883D01*
X0019832Y0022843D01*
X0019726Y0022807D01*
X0019619Y0022774D01*
X0019511Y0022746D01*
X0019402Y0022721D01*
X0019292Y0022701D01*
X0019181Y0022684D01*
X0019070Y0022671D01*
X0018959Y0022662D01*
X0018847Y0022657D01*
X0018735Y0022656D01*
X0018623Y0022659D01*
X0018512Y0022666D01*
X0018400Y0022677D01*
X0018290Y0022692D01*
X0018179Y0022711D01*
X0018070Y0022733D01*
X0017961Y0022760D01*
X0017854Y0022790D01*
X0017747Y0022824D01*
X0017642Y0022862D01*
X0017538Y0022904D01*
X0017436Y0022949D01*
X0017335Y0022998D01*
X0017237Y0023050D01*
X0017140Y0023106D01*
X0017045Y0023166D01*
X0016952Y0023228D01*
X0016862Y0023294D01*
X0016774Y0023363D01*
X0016689Y0023435D01*
X0016606Y0023511D01*
X0016526Y0023589D01*
X0016448Y0023669D01*
X0016374Y0023753D01*
X0016303Y0023839D01*
X0016234Y0023927D01*
X0016169Y0024018D01*
X0016108Y0024112D01*
X0016049Y0024207D01*
X0015994Y0024304D01*
X0015943Y0024403D01*
X0015895Y0024504D01*
X0015850Y0024607D01*
X0015809Y0024711D01*
X0015772Y0024817D01*
X0015739Y0024923D01*
X0015710Y0025031D01*
X0015684Y0025140D01*
X0015662Y0025250D01*
X0015645Y0025360D01*
X0015631Y0025471D01*
X0015621Y0025583D01*
X0015615Y0025694D01*
X0015613Y0025806D01*
X0111874Y0025806D02*
X0111876Y0025899D01*
X0111882Y0025991D01*
X0111892Y0026083D01*
X0111906Y0026174D01*
X0111923Y0026265D01*
X0111945Y0026355D01*
X0111970Y0026444D01*
X0111999Y0026532D01*
X0112032Y0026618D01*
X0112069Y0026703D01*
X0112109Y0026787D01*
X0112153Y0026868D01*
X0112200Y0026948D01*
X0112250Y0027026D01*
X0112304Y0027101D01*
X0112361Y0027174D01*
X0112421Y0027244D01*
X0112484Y0027312D01*
X0112550Y0027377D01*
X0112618Y0027439D01*
X0112689Y0027499D01*
X0112763Y0027555D01*
X0112839Y0027608D01*
X0112917Y0027657D01*
X0112997Y0027704D01*
X0113079Y0027746D01*
X0113163Y0027786D01*
X0113248Y0027821D01*
X0113335Y0027853D01*
X0113423Y0027882D01*
X0113512Y0027906D01*
X0113602Y0027927D01*
X0113693Y0027943D01*
X0113785Y0027956D01*
X0113877Y0027965D01*
X0113970Y0027970D01*
X0114062Y0027971D01*
X0114155Y0027968D01*
X0114247Y0027961D01*
X0114339Y0027950D01*
X0114430Y0027935D01*
X0114521Y0027917D01*
X0114611Y0027894D01*
X0114699Y0027868D01*
X0114787Y0027838D01*
X0114873Y0027804D01*
X0114957Y0027767D01*
X0115040Y0027725D01*
X0115121Y0027681D01*
X0115201Y0027633D01*
X0115278Y0027582D01*
X0115352Y0027527D01*
X0115425Y0027469D01*
X0115495Y0027409D01*
X0115562Y0027345D01*
X0115626Y0027279D01*
X0115688Y0027209D01*
X0115746Y0027138D01*
X0115801Y0027064D01*
X0115853Y0026987D01*
X0115902Y0026908D01*
X0115948Y0026828D01*
X0115990Y0026745D01*
X0116028Y0026661D01*
X0116063Y0026575D01*
X0116094Y0026488D01*
X0116121Y0026400D01*
X0116144Y0026310D01*
X0116164Y0026220D01*
X0116180Y0026129D01*
X0116192Y0026037D01*
X0116200Y0025945D01*
X0116204Y0025852D01*
X0116204Y0025760D01*
X0116200Y0025667D01*
X0116192Y0025575D01*
X0116180Y0025483D01*
X0116164Y0025392D01*
X0116144Y0025302D01*
X0116121Y0025212D01*
X0116094Y0025124D01*
X0116063Y0025037D01*
X0116028Y0024951D01*
X0115990Y0024867D01*
X0115948Y0024784D01*
X0115902Y0024704D01*
X0115853Y0024625D01*
X0115801Y0024548D01*
X0115746Y0024474D01*
X0115688Y0024403D01*
X0115626Y0024333D01*
X0115562Y0024267D01*
X0115495Y0024203D01*
X0115425Y0024143D01*
X0115352Y0024085D01*
X0115278Y0024030D01*
X0115201Y0023979D01*
X0115122Y0023931D01*
X0115040Y0023887D01*
X0114957Y0023845D01*
X0114873Y0023808D01*
X0114787Y0023774D01*
X0114699Y0023744D01*
X0114611Y0023718D01*
X0114521Y0023695D01*
X0114430Y0023677D01*
X0114339Y0023662D01*
X0114247Y0023651D01*
X0114155Y0023644D01*
X0114062Y0023641D01*
X0113970Y0023642D01*
X0113877Y0023647D01*
X0113785Y0023656D01*
X0113693Y0023669D01*
X0113602Y0023685D01*
X0113512Y0023706D01*
X0113423Y0023730D01*
X0113335Y0023759D01*
X0113248Y0023791D01*
X0113163Y0023826D01*
X0113079Y0023866D01*
X0112997Y0023908D01*
X0112917Y0023955D01*
X0112839Y0024004D01*
X0112763Y0024057D01*
X0112689Y0024113D01*
X0112618Y0024173D01*
X0112550Y0024235D01*
X0112484Y0024300D01*
X0112421Y0024368D01*
X0112361Y0024438D01*
X0112304Y0024511D01*
X0112250Y0024586D01*
X0112200Y0024664D01*
X0112153Y0024744D01*
X0112109Y0024825D01*
X0112069Y0024909D01*
X0112032Y0024994D01*
X0111999Y0025080D01*
X0111970Y0025168D01*
X0111945Y0025257D01*
X0111923Y0025347D01*
X0111906Y0025438D01*
X0111892Y0025529D01*
X0111882Y0025621D01*
X0111876Y0025713D01*
X0111874Y0025806D01*
X0164031Y0028928D02*
X0164033Y0029040D01*
X0164039Y0029151D01*
X0164049Y0029263D01*
X0164063Y0029374D01*
X0164080Y0029484D01*
X0164102Y0029594D01*
X0164128Y0029703D01*
X0164157Y0029811D01*
X0164190Y0029917D01*
X0164227Y0030023D01*
X0164268Y0030127D01*
X0164313Y0030230D01*
X0164361Y0030331D01*
X0164412Y0030430D01*
X0164467Y0030527D01*
X0164526Y0030622D01*
X0164587Y0030716D01*
X0164652Y0030807D01*
X0164721Y0030895D01*
X0164792Y0030981D01*
X0164866Y0031065D01*
X0164944Y0031145D01*
X0165024Y0031223D01*
X0165107Y0031299D01*
X0165192Y0031371D01*
X0165280Y0031440D01*
X0165370Y0031506D01*
X0165463Y0031568D01*
X0165558Y0031628D01*
X0165655Y0031684D01*
X0165753Y0031736D01*
X0165854Y0031785D01*
X0165956Y0031830D01*
X0166060Y0031872D01*
X0166165Y0031910D01*
X0166272Y0031944D01*
X0166379Y0031974D01*
X0166488Y0032001D01*
X0166597Y0032023D01*
X0166708Y0032042D01*
X0166818Y0032057D01*
X0166930Y0032068D01*
X0167041Y0032075D01*
X0167153Y0032078D01*
X0167265Y0032077D01*
X0167377Y0032072D01*
X0167488Y0032063D01*
X0167599Y0032050D01*
X0167710Y0032033D01*
X0167820Y0032013D01*
X0167929Y0031988D01*
X0168037Y0031960D01*
X0168144Y0031927D01*
X0168250Y0031891D01*
X0168354Y0031851D01*
X0168457Y0031808D01*
X0168559Y0031761D01*
X0168658Y0031710D01*
X0168756Y0031656D01*
X0168852Y0031598D01*
X0168946Y0031537D01*
X0169037Y0031473D01*
X0169126Y0031406D01*
X0169213Y0031335D01*
X0169297Y0031261D01*
X0169379Y0031185D01*
X0169457Y0031105D01*
X0169533Y0031023D01*
X0169606Y0030938D01*
X0169676Y0030851D01*
X0169742Y0030761D01*
X0169806Y0030669D01*
X0169866Y0030575D01*
X0169923Y0030479D01*
X0169976Y0030380D01*
X0170026Y0030280D01*
X0170072Y0030179D01*
X0170115Y0030075D01*
X0170154Y0029970D01*
X0170189Y0029864D01*
X0170220Y0029757D01*
X0170248Y0029648D01*
X0170271Y0029539D01*
X0170291Y0029429D01*
X0170307Y0029318D01*
X0170319Y0029207D01*
X0170327Y0029096D01*
X0170331Y0028984D01*
X0170331Y0028872D01*
X0170327Y0028760D01*
X0170319Y0028649D01*
X0170307Y0028538D01*
X0170291Y0028427D01*
X0170271Y0028317D01*
X0170248Y0028208D01*
X0170220Y0028099D01*
X0170189Y0027992D01*
X0170154Y0027886D01*
X0170115Y0027781D01*
X0170072Y0027677D01*
X0170026Y0027576D01*
X0169976Y0027476D01*
X0169923Y0027377D01*
X0169866Y0027281D01*
X0169806Y0027187D01*
X0169742Y0027095D01*
X0169676Y0027005D01*
X0169606Y0026918D01*
X0169533Y0026833D01*
X0169457Y0026751D01*
X0169379Y0026671D01*
X0169297Y0026595D01*
X0169213Y0026521D01*
X0169126Y0026450D01*
X0169037Y0026383D01*
X0168946Y0026319D01*
X0168852Y0026258D01*
X0168756Y0026200D01*
X0168658Y0026146D01*
X0168559Y0026095D01*
X0168457Y0026048D01*
X0168354Y0026005D01*
X0168250Y0025965D01*
X0168144Y0025929D01*
X0168037Y0025896D01*
X0167929Y0025868D01*
X0167820Y0025843D01*
X0167710Y0025823D01*
X0167599Y0025806D01*
X0167488Y0025793D01*
X0167377Y0025784D01*
X0167265Y0025779D01*
X0167153Y0025778D01*
X0167041Y0025781D01*
X0166930Y0025788D01*
X0166818Y0025799D01*
X0166708Y0025814D01*
X0166597Y0025833D01*
X0166488Y0025855D01*
X0166379Y0025882D01*
X0166272Y0025912D01*
X0166165Y0025946D01*
X0166060Y0025984D01*
X0165956Y0026026D01*
X0165854Y0026071D01*
X0165753Y0026120D01*
X0165655Y0026172D01*
X0165558Y0026228D01*
X0165463Y0026288D01*
X0165370Y0026350D01*
X0165280Y0026416D01*
X0165192Y0026485D01*
X0165107Y0026557D01*
X0165024Y0026633D01*
X0164944Y0026711D01*
X0164866Y0026791D01*
X0164792Y0026875D01*
X0164721Y0026961D01*
X0164652Y0027049D01*
X0164587Y0027140D01*
X0164526Y0027234D01*
X0164467Y0027329D01*
X0164412Y0027426D01*
X0164361Y0027525D01*
X0164313Y0027626D01*
X0164268Y0027729D01*
X0164227Y0027833D01*
X0164190Y0027939D01*
X0164157Y0028045D01*
X0164128Y0028153D01*
X0164102Y0028262D01*
X0164080Y0028372D01*
X0164063Y0028482D01*
X0164049Y0028593D01*
X0164039Y0028705D01*
X0164033Y0028816D01*
X0164031Y0028928D01*
X0163638Y0046645D02*
X0163640Y0046763D01*
X0163646Y0046882D01*
X0163656Y0047000D01*
X0163670Y0047117D01*
X0163687Y0047234D01*
X0163709Y0047351D01*
X0163735Y0047466D01*
X0163764Y0047581D01*
X0163797Y0047695D01*
X0163834Y0047807D01*
X0163875Y0047918D01*
X0163919Y0048028D01*
X0163967Y0048136D01*
X0164019Y0048243D01*
X0164074Y0048348D01*
X0164133Y0048451D01*
X0164195Y0048551D01*
X0164260Y0048650D01*
X0164329Y0048747D01*
X0164400Y0048841D01*
X0164475Y0048932D01*
X0164553Y0049022D01*
X0164634Y0049108D01*
X0164718Y0049192D01*
X0164804Y0049273D01*
X0164894Y0049351D01*
X0164985Y0049426D01*
X0165079Y0049497D01*
X0165176Y0049566D01*
X0165275Y0049631D01*
X0165375Y0049693D01*
X0165478Y0049752D01*
X0165583Y0049807D01*
X0165690Y0049859D01*
X0165798Y0049907D01*
X0165908Y0049951D01*
X0166019Y0049992D01*
X0166131Y0050029D01*
X0166245Y0050062D01*
X0166360Y0050091D01*
X0166475Y0050117D01*
X0166592Y0050139D01*
X0166709Y0050156D01*
X0166826Y0050170D01*
X0166944Y0050180D01*
X0167063Y0050186D01*
X0167181Y0050188D01*
X0167299Y0050186D01*
X0167418Y0050180D01*
X0167536Y0050170D01*
X0167653Y0050156D01*
X0167770Y0050139D01*
X0167887Y0050117D01*
X0168002Y0050091D01*
X0168117Y0050062D01*
X0168231Y0050029D01*
X0168343Y0049992D01*
X0168454Y0049951D01*
X0168564Y0049907D01*
X0168672Y0049859D01*
X0168779Y0049807D01*
X0168884Y0049752D01*
X0168987Y0049693D01*
X0169087Y0049631D01*
X0169186Y0049566D01*
X0169283Y0049497D01*
X0169377Y0049426D01*
X0169468Y0049351D01*
X0169558Y0049273D01*
X0169644Y0049192D01*
X0169728Y0049108D01*
X0169809Y0049022D01*
X0169887Y0048932D01*
X0169962Y0048841D01*
X0170033Y0048747D01*
X0170102Y0048650D01*
X0170167Y0048551D01*
X0170229Y0048451D01*
X0170288Y0048348D01*
X0170343Y0048243D01*
X0170395Y0048136D01*
X0170443Y0048028D01*
X0170487Y0047918D01*
X0170528Y0047807D01*
X0170565Y0047695D01*
X0170598Y0047581D01*
X0170627Y0047466D01*
X0170653Y0047351D01*
X0170675Y0047234D01*
X0170692Y0047117D01*
X0170706Y0047000D01*
X0170716Y0046882D01*
X0170722Y0046763D01*
X0170724Y0046645D01*
X0170722Y0046527D01*
X0170716Y0046408D01*
X0170706Y0046290D01*
X0170692Y0046173D01*
X0170675Y0046056D01*
X0170653Y0045939D01*
X0170627Y0045824D01*
X0170598Y0045709D01*
X0170565Y0045595D01*
X0170528Y0045483D01*
X0170487Y0045372D01*
X0170443Y0045262D01*
X0170395Y0045154D01*
X0170343Y0045047D01*
X0170288Y0044942D01*
X0170229Y0044839D01*
X0170167Y0044739D01*
X0170102Y0044640D01*
X0170033Y0044543D01*
X0169962Y0044449D01*
X0169887Y0044358D01*
X0169809Y0044268D01*
X0169728Y0044182D01*
X0169644Y0044098D01*
X0169558Y0044017D01*
X0169468Y0043939D01*
X0169377Y0043864D01*
X0169283Y0043793D01*
X0169186Y0043724D01*
X0169087Y0043659D01*
X0168987Y0043597D01*
X0168884Y0043538D01*
X0168779Y0043483D01*
X0168672Y0043431D01*
X0168564Y0043383D01*
X0168454Y0043339D01*
X0168343Y0043298D01*
X0168231Y0043261D01*
X0168117Y0043228D01*
X0168002Y0043199D01*
X0167887Y0043173D01*
X0167770Y0043151D01*
X0167653Y0043134D01*
X0167536Y0043120D01*
X0167418Y0043110D01*
X0167299Y0043104D01*
X0167181Y0043102D01*
X0167063Y0043104D01*
X0166944Y0043110D01*
X0166826Y0043120D01*
X0166709Y0043134D01*
X0166592Y0043151D01*
X0166475Y0043173D01*
X0166360Y0043199D01*
X0166245Y0043228D01*
X0166131Y0043261D01*
X0166019Y0043298D01*
X0165908Y0043339D01*
X0165798Y0043383D01*
X0165690Y0043431D01*
X0165583Y0043483D01*
X0165478Y0043538D01*
X0165375Y0043597D01*
X0165275Y0043659D01*
X0165176Y0043724D01*
X0165079Y0043793D01*
X0164985Y0043864D01*
X0164894Y0043939D01*
X0164804Y0044017D01*
X0164718Y0044098D01*
X0164634Y0044182D01*
X0164553Y0044268D01*
X0164475Y0044358D01*
X0164400Y0044449D01*
X0164329Y0044543D01*
X0164260Y0044640D01*
X0164195Y0044739D01*
X0164133Y0044839D01*
X0164074Y0044942D01*
X0164019Y0045047D01*
X0163967Y0045154D01*
X0163919Y0045262D01*
X0163875Y0045372D01*
X0163834Y0045483D01*
X0163797Y0045595D01*
X0163764Y0045709D01*
X0163735Y0045824D01*
X0163709Y0045939D01*
X0163687Y0046056D01*
X0163670Y0046173D01*
X0163656Y0046290D01*
X0163646Y0046408D01*
X0163640Y0046527D01*
X0163638Y0046645D01*
X0113449Y0224243D02*
X0113451Y0224336D01*
X0113457Y0224428D01*
X0113467Y0224520D01*
X0113481Y0224611D01*
X0113498Y0224702D01*
X0113520Y0224792D01*
X0113545Y0224881D01*
X0113574Y0224969D01*
X0113607Y0225055D01*
X0113644Y0225140D01*
X0113684Y0225224D01*
X0113728Y0225305D01*
X0113775Y0225385D01*
X0113825Y0225463D01*
X0113879Y0225538D01*
X0113936Y0225611D01*
X0113996Y0225681D01*
X0114059Y0225749D01*
X0114125Y0225814D01*
X0114193Y0225876D01*
X0114264Y0225936D01*
X0114338Y0225992D01*
X0114414Y0226045D01*
X0114492Y0226094D01*
X0114572Y0226141D01*
X0114654Y0226183D01*
X0114738Y0226223D01*
X0114823Y0226258D01*
X0114910Y0226290D01*
X0114998Y0226319D01*
X0115087Y0226343D01*
X0115177Y0226364D01*
X0115268Y0226380D01*
X0115360Y0226393D01*
X0115452Y0226402D01*
X0115545Y0226407D01*
X0115637Y0226408D01*
X0115730Y0226405D01*
X0115822Y0226398D01*
X0115914Y0226387D01*
X0116005Y0226372D01*
X0116096Y0226354D01*
X0116186Y0226331D01*
X0116274Y0226305D01*
X0116362Y0226275D01*
X0116448Y0226241D01*
X0116532Y0226204D01*
X0116615Y0226162D01*
X0116696Y0226118D01*
X0116776Y0226070D01*
X0116853Y0226019D01*
X0116927Y0225964D01*
X0117000Y0225906D01*
X0117070Y0225846D01*
X0117137Y0225782D01*
X0117201Y0225716D01*
X0117263Y0225646D01*
X0117321Y0225575D01*
X0117376Y0225501D01*
X0117428Y0225424D01*
X0117477Y0225345D01*
X0117523Y0225265D01*
X0117565Y0225182D01*
X0117603Y0225098D01*
X0117638Y0225012D01*
X0117669Y0224925D01*
X0117696Y0224837D01*
X0117719Y0224747D01*
X0117739Y0224657D01*
X0117755Y0224566D01*
X0117767Y0224474D01*
X0117775Y0224382D01*
X0117779Y0224289D01*
X0117779Y0224197D01*
X0117775Y0224104D01*
X0117767Y0224012D01*
X0117755Y0223920D01*
X0117739Y0223829D01*
X0117719Y0223739D01*
X0117696Y0223649D01*
X0117669Y0223561D01*
X0117638Y0223474D01*
X0117603Y0223388D01*
X0117565Y0223304D01*
X0117523Y0223221D01*
X0117477Y0223141D01*
X0117428Y0223062D01*
X0117376Y0222985D01*
X0117321Y0222911D01*
X0117263Y0222840D01*
X0117201Y0222770D01*
X0117137Y0222704D01*
X0117070Y0222640D01*
X0117000Y0222580D01*
X0116927Y0222522D01*
X0116853Y0222467D01*
X0116776Y0222416D01*
X0116697Y0222368D01*
X0116615Y0222324D01*
X0116532Y0222282D01*
X0116448Y0222245D01*
X0116362Y0222211D01*
X0116274Y0222181D01*
X0116186Y0222155D01*
X0116096Y0222132D01*
X0116005Y0222114D01*
X0115914Y0222099D01*
X0115822Y0222088D01*
X0115730Y0222081D01*
X0115637Y0222078D01*
X0115545Y0222079D01*
X0115452Y0222084D01*
X0115360Y0222093D01*
X0115268Y0222106D01*
X0115177Y0222122D01*
X0115087Y0222143D01*
X0114998Y0222167D01*
X0114910Y0222196D01*
X0114823Y0222228D01*
X0114738Y0222263D01*
X0114654Y0222303D01*
X0114572Y0222345D01*
X0114492Y0222392D01*
X0114414Y0222441D01*
X0114338Y0222494D01*
X0114264Y0222550D01*
X0114193Y0222610D01*
X0114125Y0222672D01*
X0114059Y0222737D01*
X0113996Y0222805D01*
X0113936Y0222875D01*
X0113879Y0222948D01*
X0113825Y0223023D01*
X0113775Y0223101D01*
X0113728Y0223181D01*
X0113684Y0223262D01*
X0113644Y0223346D01*
X0113607Y0223431D01*
X0113574Y0223517D01*
X0113545Y0223605D01*
X0113520Y0223694D01*
X0113498Y0223784D01*
X0113481Y0223875D01*
X0113467Y0223966D01*
X0113457Y0224058D01*
X0113451Y0224150D01*
X0113449Y0224243D01*
X0164519Y0266243D02*
X0164521Y0266327D01*
X0164527Y0266410D01*
X0164537Y0266493D01*
X0164551Y0266576D01*
X0164568Y0266658D01*
X0164590Y0266739D01*
X0164615Y0266818D01*
X0164644Y0266897D01*
X0164677Y0266974D01*
X0164713Y0267049D01*
X0164753Y0267123D01*
X0164796Y0267195D01*
X0164843Y0267264D01*
X0164893Y0267331D01*
X0164946Y0267396D01*
X0165002Y0267458D01*
X0165060Y0267518D01*
X0165122Y0267575D01*
X0165186Y0267628D01*
X0165253Y0267679D01*
X0165322Y0267726D01*
X0165393Y0267771D01*
X0165466Y0267811D01*
X0165541Y0267848D01*
X0165618Y0267882D01*
X0165696Y0267912D01*
X0165775Y0267938D01*
X0165856Y0267961D01*
X0165938Y0267979D01*
X0166020Y0267994D01*
X0166103Y0268005D01*
X0166186Y0268012D01*
X0166270Y0268015D01*
X0166354Y0268014D01*
X0166437Y0268009D01*
X0166521Y0268000D01*
X0166603Y0267987D01*
X0166685Y0267971D01*
X0166766Y0267950D01*
X0166847Y0267926D01*
X0166925Y0267898D01*
X0167003Y0267866D01*
X0167079Y0267830D01*
X0167153Y0267791D01*
X0167225Y0267749D01*
X0167295Y0267703D01*
X0167363Y0267654D01*
X0167428Y0267602D01*
X0167491Y0267547D01*
X0167551Y0267489D01*
X0167609Y0267428D01*
X0167663Y0267364D01*
X0167715Y0267298D01*
X0167763Y0267230D01*
X0167808Y0267159D01*
X0167849Y0267086D01*
X0167888Y0267012D01*
X0167922Y0266936D01*
X0167953Y0266858D01*
X0167980Y0266779D01*
X0168004Y0266698D01*
X0168023Y0266617D01*
X0168039Y0266535D01*
X0168051Y0266452D01*
X0168059Y0266368D01*
X0168063Y0266285D01*
X0168063Y0266201D01*
X0168059Y0266118D01*
X0168051Y0266034D01*
X0168039Y0265951D01*
X0168023Y0265869D01*
X0168004Y0265788D01*
X0167980Y0265707D01*
X0167953Y0265628D01*
X0167922Y0265550D01*
X0167888Y0265474D01*
X0167849Y0265400D01*
X0167808Y0265327D01*
X0167763Y0265256D01*
X0167715Y0265188D01*
X0167663Y0265122D01*
X0167609Y0265058D01*
X0167551Y0264997D01*
X0167491Y0264939D01*
X0167428Y0264884D01*
X0167363Y0264832D01*
X0167295Y0264783D01*
X0167225Y0264737D01*
X0167153Y0264695D01*
X0167079Y0264656D01*
X0167003Y0264620D01*
X0166925Y0264588D01*
X0166847Y0264560D01*
X0166766Y0264536D01*
X0166685Y0264515D01*
X0166603Y0264499D01*
X0166521Y0264486D01*
X0166437Y0264477D01*
X0166354Y0264472D01*
X0166270Y0264471D01*
X0166186Y0264474D01*
X0166103Y0264481D01*
X0166020Y0264492D01*
X0165938Y0264507D01*
X0165856Y0264525D01*
X0165775Y0264548D01*
X0165696Y0264574D01*
X0165618Y0264604D01*
X0165541Y0264638D01*
X0165466Y0264675D01*
X0165393Y0264715D01*
X0165322Y0264760D01*
X0165253Y0264807D01*
X0165186Y0264858D01*
X0165122Y0264911D01*
X0165060Y0264968D01*
X0165002Y0265028D01*
X0164946Y0265090D01*
X0164893Y0265155D01*
X0164843Y0265222D01*
X0164796Y0265291D01*
X0164753Y0265363D01*
X0164713Y0265437D01*
X0164677Y0265512D01*
X0164644Y0265589D01*
X0164615Y0265668D01*
X0164590Y0265747D01*
X0164568Y0265828D01*
X0164551Y0265910D01*
X0164537Y0265993D01*
X0164527Y0266076D01*
X0164521Y0266159D01*
X0164519Y0266243D01*
X0178299Y0266243D02*
X0178301Y0266327D01*
X0178307Y0266410D01*
X0178317Y0266493D01*
X0178331Y0266576D01*
X0178348Y0266658D01*
X0178370Y0266739D01*
X0178395Y0266818D01*
X0178424Y0266897D01*
X0178457Y0266974D01*
X0178493Y0267049D01*
X0178533Y0267123D01*
X0178576Y0267195D01*
X0178623Y0267264D01*
X0178673Y0267331D01*
X0178726Y0267396D01*
X0178782Y0267458D01*
X0178840Y0267518D01*
X0178902Y0267575D01*
X0178966Y0267628D01*
X0179033Y0267679D01*
X0179102Y0267726D01*
X0179173Y0267771D01*
X0179246Y0267811D01*
X0179321Y0267848D01*
X0179398Y0267882D01*
X0179476Y0267912D01*
X0179555Y0267938D01*
X0179636Y0267961D01*
X0179718Y0267979D01*
X0179800Y0267994D01*
X0179883Y0268005D01*
X0179966Y0268012D01*
X0180050Y0268015D01*
X0180134Y0268014D01*
X0180217Y0268009D01*
X0180301Y0268000D01*
X0180383Y0267987D01*
X0180465Y0267971D01*
X0180546Y0267950D01*
X0180627Y0267926D01*
X0180705Y0267898D01*
X0180783Y0267866D01*
X0180859Y0267830D01*
X0180933Y0267791D01*
X0181005Y0267749D01*
X0181075Y0267703D01*
X0181143Y0267654D01*
X0181208Y0267602D01*
X0181271Y0267547D01*
X0181331Y0267489D01*
X0181389Y0267428D01*
X0181443Y0267364D01*
X0181495Y0267298D01*
X0181543Y0267230D01*
X0181588Y0267159D01*
X0181629Y0267086D01*
X0181668Y0267012D01*
X0181702Y0266936D01*
X0181733Y0266858D01*
X0181760Y0266779D01*
X0181784Y0266698D01*
X0181803Y0266617D01*
X0181819Y0266535D01*
X0181831Y0266452D01*
X0181839Y0266368D01*
X0181843Y0266285D01*
X0181843Y0266201D01*
X0181839Y0266118D01*
X0181831Y0266034D01*
X0181819Y0265951D01*
X0181803Y0265869D01*
X0181784Y0265788D01*
X0181760Y0265707D01*
X0181733Y0265628D01*
X0181702Y0265550D01*
X0181668Y0265474D01*
X0181629Y0265400D01*
X0181588Y0265327D01*
X0181543Y0265256D01*
X0181495Y0265188D01*
X0181443Y0265122D01*
X0181389Y0265058D01*
X0181331Y0264997D01*
X0181271Y0264939D01*
X0181208Y0264884D01*
X0181143Y0264832D01*
X0181075Y0264783D01*
X0181005Y0264737D01*
X0180933Y0264695D01*
X0180859Y0264656D01*
X0180783Y0264620D01*
X0180705Y0264588D01*
X0180627Y0264560D01*
X0180546Y0264536D01*
X0180465Y0264515D01*
X0180383Y0264499D01*
X0180301Y0264486D01*
X0180217Y0264477D01*
X0180134Y0264472D01*
X0180050Y0264471D01*
X0179966Y0264474D01*
X0179883Y0264481D01*
X0179800Y0264492D01*
X0179718Y0264507D01*
X0179636Y0264525D01*
X0179555Y0264548D01*
X0179476Y0264574D01*
X0179398Y0264604D01*
X0179321Y0264638D01*
X0179246Y0264675D01*
X0179173Y0264715D01*
X0179102Y0264760D01*
X0179033Y0264807D01*
X0178966Y0264858D01*
X0178902Y0264911D01*
X0178840Y0264968D01*
X0178782Y0265028D01*
X0178726Y0265090D01*
X0178673Y0265155D01*
X0178623Y0265222D01*
X0178576Y0265291D01*
X0178533Y0265363D01*
X0178493Y0265437D01*
X0178457Y0265512D01*
X0178424Y0265589D01*
X0178395Y0265668D01*
X0178370Y0265747D01*
X0178348Y0265828D01*
X0178331Y0265910D01*
X0178317Y0265993D01*
X0178307Y0266076D01*
X0178301Y0266159D01*
X0178299Y0266243D01*
X0014038Y0224243D02*
X0014040Y0224355D01*
X0014046Y0224466D01*
X0014056Y0224578D01*
X0014070Y0224689D01*
X0014087Y0224799D01*
X0014109Y0224909D01*
X0014135Y0225018D01*
X0014164Y0225126D01*
X0014197Y0225232D01*
X0014234Y0225338D01*
X0014275Y0225442D01*
X0014320Y0225545D01*
X0014368Y0225646D01*
X0014419Y0225745D01*
X0014474Y0225842D01*
X0014533Y0225937D01*
X0014594Y0226031D01*
X0014659Y0226122D01*
X0014728Y0226210D01*
X0014799Y0226296D01*
X0014873Y0226380D01*
X0014951Y0226460D01*
X0015031Y0226538D01*
X0015114Y0226614D01*
X0015199Y0226686D01*
X0015287Y0226755D01*
X0015377Y0226821D01*
X0015470Y0226883D01*
X0015565Y0226943D01*
X0015662Y0226999D01*
X0015760Y0227051D01*
X0015861Y0227100D01*
X0015963Y0227145D01*
X0016067Y0227187D01*
X0016172Y0227225D01*
X0016279Y0227259D01*
X0016386Y0227289D01*
X0016495Y0227316D01*
X0016604Y0227338D01*
X0016715Y0227357D01*
X0016825Y0227372D01*
X0016937Y0227383D01*
X0017048Y0227390D01*
X0017160Y0227393D01*
X0017272Y0227392D01*
X0017384Y0227387D01*
X0017495Y0227378D01*
X0017606Y0227365D01*
X0017717Y0227348D01*
X0017827Y0227328D01*
X0017936Y0227303D01*
X0018044Y0227275D01*
X0018151Y0227242D01*
X0018257Y0227206D01*
X0018361Y0227166D01*
X0018464Y0227123D01*
X0018566Y0227076D01*
X0018665Y0227025D01*
X0018763Y0226971D01*
X0018859Y0226913D01*
X0018953Y0226852D01*
X0019044Y0226788D01*
X0019133Y0226721D01*
X0019220Y0226650D01*
X0019304Y0226576D01*
X0019386Y0226500D01*
X0019464Y0226420D01*
X0019540Y0226338D01*
X0019613Y0226253D01*
X0019683Y0226166D01*
X0019749Y0226076D01*
X0019813Y0225984D01*
X0019873Y0225890D01*
X0019930Y0225794D01*
X0019983Y0225695D01*
X0020033Y0225595D01*
X0020079Y0225494D01*
X0020122Y0225390D01*
X0020161Y0225285D01*
X0020196Y0225179D01*
X0020227Y0225072D01*
X0020255Y0224963D01*
X0020278Y0224854D01*
X0020298Y0224744D01*
X0020314Y0224633D01*
X0020326Y0224522D01*
X0020334Y0224411D01*
X0020338Y0224299D01*
X0020338Y0224187D01*
X0020334Y0224075D01*
X0020326Y0223964D01*
X0020314Y0223853D01*
X0020298Y0223742D01*
X0020278Y0223632D01*
X0020255Y0223523D01*
X0020227Y0223414D01*
X0020196Y0223307D01*
X0020161Y0223201D01*
X0020122Y0223096D01*
X0020079Y0222992D01*
X0020033Y0222891D01*
X0019983Y0222791D01*
X0019930Y0222692D01*
X0019873Y0222596D01*
X0019813Y0222502D01*
X0019749Y0222410D01*
X0019683Y0222320D01*
X0019613Y0222233D01*
X0019540Y0222148D01*
X0019464Y0222066D01*
X0019386Y0221986D01*
X0019304Y0221910D01*
X0019220Y0221836D01*
X0019133Y0221765D01*
X0019044Y0221698D01*
X0018953Y0221634D01*
X0018859Y0221573D01*
X0018763Y0221515D01*
X0018665Y0221461D01*
X0018566Y0221410D01*
X0018464Y0221363D01*
X0018361Y0221320D01*
X0018257Y0221280D01*
X0018151Y0221244D01*
X0018044Y0221211D01*
X0017936Y0221183D01*
X0017827Y0221158D01*
X0017717Y0221138D01*
X0017606Y0221121D01*
X0017495Y0221108D01*
X0017384Y0221099D01*
X0017272Y0221094D01*
X0017160Y0221093D01*
X0017048Y0221096D01*
X0016937Y0221103D01*
X0016825Y0221114D01*
X0016715Y0221129D01*
X0016604Y0221148D01*
X0016495Y0221170D01*
X0016386Y0221197D01*
X0016279Y0221227D01*
X0016172Y0221261D01*
X0016067Y0221299D01*
X0015963Y0221341D01*
X0015861Y0221386D01*
X0015760Y0221435D01*
X0015662Y0221487D01*
X0015565Y0221543D01*
X0015470Y0221603D01*
X0015377Y0221665D01*
X0015287Y0221731D01*
X0015199Y0221800D01*
X0015114Y0221872D01*
X0015031Y0221948D01*
X0014951Y0222026D01*
X0014873Y0222106D01*
X0014799Y0222190D01*
X0014728Y0222276D01*
X0014659Y0222364D01*
X0014594Y0222455D01*
X0014533Y0222549D01*
X0014474Y0222644D01*
X0014419Y0222741D01*
X0014368Y0222840D01*
X0014320Y0222941D01*
X0014275Y0223044D01*
X0014234Y0223148D01*
X0014197Y0223254D01*
X0014164Y0223360D01*
X0014135Y0223468D01*
X0014109Y0223577D01*
X0014087Y0223687D01*
X0014070Y0223797D01*
X0014056Y0223908D01*
X0014046Y0224020D01*
X0014040Y0224131D01*
X0014038Y0224243D01*
D11*
X0011893Y0233082D02*
X0005555Y0233082D01*
X0005555Y0242964D01*
X0011893Y0242964D01*
X0011893Y0233082D01*
X0011893Y0235798D02*
X0005555Y0235798D01*
X0005555Y0238514D02*
X0011893Y0238514D01*
X0011893Y0241230D02*
X0005555Y0241230D01*
X0120909Y0233082D02*
X0127247Y0233082D01*
X0120909Y0233082D02*
X0120909Y0242964D01*
X0127247Y0242964D01*
X0127247Y0233082D01*
X0127247Y0235798D02*
X0120909Y0235798D01*
X0120909Y0238514D02*
X0127247Y0238514D01*
X0127247Y0241230D02*
X0120909Y0241230D01*
D12*
X0111677Y0236841D02*
X0110889Y0236841D01*
X0110889Y0243929D01*
X0111677Y0243929D01*
X0111677Y0236841D01*
X0111677Y0237627D02*
X0110889Y0237627D01*
X0110889Y0238413D02*
X0111677Y0238413D01*
X0111677Y0239199D02*
X0110889Y0239199D01*
X0110889Y0239985D02*
X0111677Y0239985D01*
X0111677Y0240771D02*
X0110889Y0240771D01*
X0110889Y0241557D02*
X0111677Y0241557D01*
X0111677Y0242343D02*
X0110889Y0242343D01*
X0110889Y0243129D02*
X0111677Y0243129D01*
X0111677Y0243915D02*
X0110889Y0243915D01*
X0108527Y0236841D02*
X0107739Y0236841D01*
X0107739Y0243929D01*
X0108527Y0243929D01*
X0108527Y0236841D01*
X0108527Y0237627D02*
X0107739Y0237627D01*
X0107739Y0238413D02*
X0108527Y0238413D01*
X0108527Y0239199D02*
X0107739Y0239199D01*
X0107739Y0239985D02*
X0108527Y0239985D01*
X0108527Y0240771D02*
X0107739Y0240771D01*
X0107739Y0241557D02*
X0108527Y0241557D01*
X0108527Y0242343D02*
X0107739Y0242343D01*
X0107739Y0243129D02*
X0108527Y0243129D01*
X0108527Y0243915D02*
X0107739Y0243915D01*
X0105378Y0236841D02*
X0104590Y0236841D01*
X0104590Y0243929D01*
X0105378Y0243929D01*
X0105378Y0236841D01*
X0105378Y0237627D02*
X0104590Y0237627D01*
X0104590Y0238413D02*
X0105378Y0238413D01*
X0105378Y0239199D02*
X0104590Y0239199D01*
X0104590Y0239985D02*
X0105378Y0239985D01*
X0105378Y0240771D02*
X0104590Y0240771D01*
X0104590Y0241557D02*
X0105378Y0241557D01*
X0105378Y0242343D02*
X0104590Y0242343D01*
X0104590Y0243129D02*
X0105378Y0243129D01*
X0105378Y0243915D02*
X0104590Y0243915D01*
X0102228Y0236841D02*
X0101440Y0236841D01*
X0101440Y0243929D01*
X0102228Y0243929D01*
X0102228Y0236841D01*
X0102228Y0237627D02*
X0101440Y0237627D01*
X0101440Y0238413D02*
X0102228Y0238413D01*
X0102228Y0239199D02*
X0101440Y0239199D01*
X0101440Y0239985D02*
X0102228Y0239985D01*
X0102228Y0240771D02*
X0101440Y0240771D01*
X0101440Y0241557D02*
X0102228Y0241557D01*
X0102228Y0242343D02*
X0101440Y0242343D01*
X0101440Y0243129D02*
X0102228Y0243129D01*
X0102228Y0243915D02*
X0101440Y0243915D01*
X0099079Y0236841D02*
X0098291Y0236841D01*
X0098291Y0243929D01*
X0099079Y0243929D01*
X0099079Y0236841D01*
X0099079Y0237627D02*
X0098291Y0237627D01*
X0098291Y0238413D02*
X0099079Y0238413D01*
X0099079Y0239199D02*
X0098291Y0239199D01*
X0098291Y0239985D02*
X0099079Y0239985D01*
X0099079Y0240771D02*
X0098291Y0240771D01*
X0098291Y0241557D02*
X0099079Y0241557D01*
X0099079Y0242343D02*
X0098291Y0242343D01*
X0098291Y0243129D02*
X0099079Y0243129D01*
X0099079Y0243915D02*
X0098291Y0243915D01*
X0095929Y0236841D02*
X0095141Y0236841D01*
X0095141Y0243929D01*
X0095929Y0243929D01*
X0095929Y0236841D01*
X0095929Y0237627D02*
X0095141Y0237627D01*
X0095141Y0238413D02*
X0095929Y0238413D01*
X0095929Y0239199D02*
X0095141Y0239199D01*
X0095141Y0239985D02*
X0095929Y0239985D01*
X0095929Y0240771D02*
X0095141Y0240771D01*
X0095141Y0241557D02*
X0095929Y0241557D01*
X0095929Y0242343D02*
X0095141Y0242343D01*
X0095141Y0243129D02*
X0095929Y0243129D01*
X0095929Y0243915D02*
X0095141Y0243915D01*
X0092779Y0236841D02*
X0091991Y0236841D01*
X0091991Y0243929D01*
X0092779Y0243929D01*
X0092779Y0236841D01*
X0092779Y0237627D02*
X0091991Y0237627D01*
X0091991Y0238413D02*
X0092779Y0238413D01*
X0092779Y0239199D02*
X0091991Y0239199D01*
X0091991Y0239985D02*
X0092779Y0239985D01*
X0092779Y0240771D02*
X0091991Y0240771D01*
X0091991Y0241557D02*
X0092779Y0241557D01*
X0092779Y0242343D02*
X0091991Y0242343D01*
X0091991Y0243129D02*
X0092779Y0243129D01*
X0092779Y0243915D02*
X0091991Y0243915D01*
X0089630Y0236841D02*
X0088842Y0236841D01*
X0088842Y0243929D01*
X0089630Y0243929D01*
X0089630Y0236841D01*
X0089630Y0237627D02*
X0088842Y0237627D01*
X0088842Y0238413D02*
X0089630Y0238413D01*
X0089630Y0239199D02*
X0088842Y0239199D01*
X0088842Y0239985D02*
X0089630Y0239985D01*
X0089630Y0240771D02*
X0088842Y0240771D01*
X0088842Y0241557D02*
X0089630Y0241557D01*
X0089630Y0242343D02*
X0088842Y0242343D01*
X0088842Y0243129D02*
X0089630Y0243129D01*
X0089630Y0243915D02*
X0088842Y0243915D01*
X0086480Y0236841D02*
X0085692Y0236841D01*
X0085692Y0243929D01*
X0086480Y0243929D01*
X0086480Y0236841D01*
X0086480Y0237627D02*
X0085692Y0237627D01*
X0085692Y0238413D02*
X0086480Y0238413D01*
X0086480Y0239199D02*
X0085692Y0239199D01*
X0085692Y0239985D02*
X0086480Y0239985D01*
X0086480Y0240771D02*
X0085692Y0240771D01*
X0085692Y0241557D02*
X0086480Y0241557D01*
X0086480Y0242343D02*
X0085692Y0242343D01*
X0085692Y0243129D02*
X0086480Y0243129D01*
X0086480Y0243915D02*
X0085692Y0243915D01*
X0083331Y0236841D02*
X0082543Y0236841D01*
X0082543Y0243929D01*
X0083331Y0243929D01*
X0083331Y0236841D01*
X0083331Y0237627D02*
X0082543Y0237627D01*
X0082543Y0238413D02*
X0083331Y0238413D01*
X0083331Y0239199D02*
X0082543Y0239199D01*
X0082543Y0239985D02*
X0083331Y0239985D01*
X0083331Y0240771D02*
X0082543Y0240771D01*
X0082543Y0241557D02*
X0083331Y0241557D01*
X0083331Y0242343D02*
X0082543Y0242343D01*
X0082543Y0243129D02*
X0083331Y0243129D01*
X0083331Y0243915D02*
X0082543Y0243915D01*
X0080181Y0236841D02*
X0079393Y0236841D01*
X0079393Y0243929D01*
X0080181Y0243929D01*
X0080181Y0236841D01*
X0080181Y0237627D02*
X0079393Y0237627D01*
X0079393Y0238413D02*
X0080181Y0238413D01*
X0080181Y0239199D02*
X0079393Y0239199D01*
X0079393Y0239985D02*
X0080181Y0239985D01*
X0080181Y0240771D02*
X0079393Y0240771D01*
X0079393Y0241557D02*
X0080181Y0241557D01*
X0080181Y0242343D02*
X0079393Y0242343D01*
X0079393Y0243129D02*
X0080181Y0243129D01*
X0080181Y0243915D02*
X0079393Y0243915D01*
X0077031Y0236841D02*
X0076243Y0236841D01*
X0076243Y0243929D01*
X0077031Y0243929D01*
X0077031Y0236841D01*
X0077031Y0237627D02*
X0076243Y0237627D01*
X0076243Y0238413D02*
X0077031Y0238413D01*
X0077031Y0239199D02*
X0076243Y0239199D01*
X0076243Y0239985D02*
X0077031Y0239985D01*
X0077031Y0240771D02*
X0076243Y0240771D01*
X0076243Y0241557D02*
X0077031Y0241557D01*
X0077031Y0242343D02*
X0076243Y0242343D01*
X0076243Y0243129D02*
X0077031Y0243129D01*
X0077031Y0243915D02*
X0076243Y0243915D01*
X0073882Y0236841D02*
X0073094Y0236841D01*
X0073094Y0243929D01*
X0073882Y0243929D01*
X0073882Y0236841D01*
X0073882Y0237627D02*
X0073094Y0237627D01*
X0073094Y0238413D02*
X0073882Y0238413D01*
X0073882Y0239199D02*
X0073094Y0239199D01*
X0073094Y0239985D02*
X0073882Y0239985D01*
X0073882Y0240771D02*
X0073094Y0240771D01*
X0073094Y0241557D02*
X0073882Y0241557D01*
X0073882Y0242343D02*
X0073094Y0242343D01*
X0073094Y0243129D02*
X0073882Y0243129D01*
X0073882Y0243915D02*
X0073094Y0243915D01*
X0070732Y0236841D02*
X0069944Y0236841D01*
X0069944Y0243929D01*
X0070732Y0243929D01*
X0070732Y0236841D01*
X0070732Y0237627D02*
X0069944Y0237627D01*
X0069944Y0238413D02*
X0070732Y0238413D01*
X0070732Y0239199D02*
X0069944Y0239199D01*
X0069944Y0239985D02*
X0070732Y0239985D01*
X0070732Y0240771D02*
X0069944Y0240771D01*
X0069944Y0241557D02*
X0070732Y0241557D01*
X0070732Y0242343D02*
X0069944Y0242343D01*
X0069944Y0243129D02*
X0070732Y0243129D01*
X0070732Y0243915D02*
X0069944Y0243915D01*
X0067582Y0236841D02*
X0066794Y0236841D01*
X0066794Y0243929D01*
X0067582Y0243929D01*
X0067582Y0236841D01*
X0067582Y0237627D02*
X0066794Y0237627D01*
X0066794Y0238413D02*
X0067582Y0238413D01*
X0067582Y0239199D02*
X0066794Y0239199D01*
X0066794Y0239985D02*
X0067582Y0239985D01*
X0067582Y0240771D02*
X0066794Y0240771D01*
X0066794Y0241557D02*
X0067582Y0241557D01*
X0067582Y0242343D02*
X0066794Y0242343D01*
X0066794Y0243129D02*
X0067582Y0243129D01*
X0067582Y0243915D02*
X0066794Y0243915D01*
X0064433Y0236841D02*
X0063645Y0236841D01*
X0063645Y0243929D01*
X0064433Y0243929D01*
X0064433Y0236841D01*
X0064433Y0237627D02*
X0063645Y0237627D01*
X0063645Y0238413D02*
X0064433Y0238413D01*
X0064433Y0239199D02*
X0063645Y0239199D01*
X0063645Y0239985D02*
X0064433Y0239985D01*
X0064433Y0240771D02*
X0063645Y0240771D01*
X0063645Y0241557D02*
X0064433Y0241557D01*
X0064433Y0242343D02*
X0063645Y0242343D01*
X0063645Y0243129D02*
X0064433Y0243129D01*
X0064433Y0243915D02*
X0063645Y0243915D01*
X0061283Y0236841D02*
X0060495Y0236841D01*
X0060495Y0243929D01*
X0061283Y0243929D01*
X0061283Y0236841D01*
X0061283Y0237627D02*
X0060495Y0237627D01*
X0060495Y0238413D02*
X0061283Y0238413D01*
X0061283Y0239199D02*
X0060495Y0239199D01*
X0060495Y0239985D02*
X0061283Y0239985D01*
X0061283Y0240771D02*
X0060495Y0240771D01*
X0060495Y0241557D02*
X0061283Y0241557D01*
X0061283Y0242343D02*
X0060495Y0242343D01*
X0060495Y0243129D02*
X0061283Y0243129D01*
X0061283Y0243915D02*
X0060495Y0243915D01*
X0058134Y0236841D02*
X0057346Y0236841D01*
X0057346Y0243929D01*
X0058134Y0243929D01*
X0058134Y0236841D01*
X0058134Y0237627D02*
X0057346Y0237627D01*
X0057346Y0238413D02*
X0058134Y0238413D01*
X0058134Y0239199D02*
X0057346Y0239199D01*
X0057346Y0239985D02*
X0058134Y0239985D01*
X0058134Y0240771D02*
X0057346Y0240771D01*
X0057346Y0241557D02*
X0058134Y0241557D01*
X0058134Y0242343D02*
X0057346Y0242343D01*
X0057346Y0243129D02*
X0058134Y0243129D01*
X0058134Y0243915D02*
X0057346Y0243915D01*
X0042386Y0236841D02*
X0041598Y0236841D01*
X0041598Y0243929D01*
X0042386Y0243929D01*
X0042386Y0236841D01*
X0042386Y0237627D02*
X0041598Y0237627D01*
X0041598Y0238413D02*
X0042386Y0238413D01*
X0042386Y0239199D02*
X0041598Y0239199D01*
X0041598Y0239985D02*
X0042386Y0239985D01*
X0042386Y0240771D02*
X0041598Y0240771D01*
X0041598Y0241557D02*
X0042386Y0241557D01*
X0042386Y0242343D02*
X0041598Y0242343D01*
X0041598Y0243129D02*
X0042386Y0243129D01*
X0042386Y0243915D02*
X0041598Y0243915D01*
X0039236Y0236841D02*
X0038448Y0236841D01*
X0038448Y0243929D01*
X0039236Y0243929D01*
X0039236Y0236841D01*
X0039236Y0237627D02*
X0038448Y0237627D01*
X0038448Y0238413D02*
X0039236Y0238413D01*
X0039236Y0239199D02*
X0038448Y0239199D01*
X0038448Y0239985D02*
X0039236Y0239985D01*
X0039236Y0240771D02*
X0038448Y0240771D01*
X0038448Y0241557D02*
X0039236Y0241557D01*
X0039236Y0242343D02*
X0038448Y0242343D01*
X0038448Y0243129D02*
X0039236Y0243129D01*
X0039236Y0243915D02*
X0038448Y0243915D01*
X0036086Y0236841D02*
X0035298Y0236841D01*
X0035298Y0243929D01*
X0036086Y0243929D01*
X0036086Y0236841D01*
X0036086Y0237627D02*
X0035298Y0237627D01*
X0035298Y0238413D02*
X0036086Y0238413D01*
X0036086Y0239199D02*
X0035298Y0239199D01*
X0035298Y0239985D02*
X0036086Y0239985D01*
X0036086Y0240771D02*
X0035298Y0240771D01*
X0035298Y0241557D02*
X0036086Y0241557D01*
X0036086Y0242343D02*
X0035298Y0242343D01*
X0035298Y0243129D02*
X0036086Y0243129D01*
X0036086Y0243915D02*
X0035298Y0243915D01*
X0032937Y0236841D02*
X0032149Y0236841D01*
X0032149Y0243929D01*
X0032937Y0243929D01*
X0032937Y0236841D01*
X0032937Y0237627D02*
X0032149Y0237627D01*
X0032149Y0238413D02*
X0032937Y0238413D01*
X0032937Y0239199D02*
X0032149Y0239199D01*
X0032149Y0239985D02*
X0032937Y0239985D01*
X0032937Y0240771D02*
X0032149Y0240771D01*
X0032149Y0241557D02*
X0032937Y0241557D01*
X0032937Y0242343D02*
X0032149Y0242343D01*
X0032149Y0243129D02*
X0032937Y0243129D01*
X0032937Y0243915D02*
X0032149Y0243915D01*
X0029787Y0236841D02*
X0028999Y0236841D01*
X0028999Y0243929D01*
X0029787Y0243929D01*
X0029787Y0236841D01*
X0029787Y0237627D02*
X0028999Y0237627D01*
X0028999Y0238413D02*
X0029787Y0238413D01*
X0029787Y0239199D02*
X0028999Y0239199D01*
X0028999Y0239985D02*
X0029787Y0239985D01*
X0029787Y0240771D02*
X0028999Y0240771D01*
X0028999Y0241557D02*
X0029787Y0241557D01*
X0029787Y0242343D02*
X0028999Y0242343D01*
X0028999Y0243129D02*
X0029787Y0243129D01*
X0029787Y0243915D02*
X0028999Y0243915D01*
X0026638Y0236841D02*
X0025850Y0236841D01*
X0025850Y0243929D01*
X0026638Y0243929D01*
X0026638Y0236841D01*
X0026638Y0237627D02*
X0025850Y0237627D01*
X0025850Y0238413D02*
X0026638Y0238413D01*
X0026638Y0239199D02*
X0025850Y0239199D01*
X0025850Y0239985D02*
X0026638Y0239985D01*
X0026638Y0240771D02*
X0025850Y0240771D01*
X0025850Y0241557D02*
X0026638Y0241557D01*
X0026638Y0242343D02*
X0025850Y0242343D01*
X0025850Y0243129D02*
X0026638Y0243129D01*
X0026638Y0243915D02*
X0025850Y0243915D01*
X0023488Y0236841D02*
X0022700Y0236841D01*
X0022700Y0243929D01*
X0023488Y0243929D01*
X0023488Y0236841D01*
X0023488Y0237627D02*
X0022700Y0237627D01*
X0022700Y0238413D02*
X0023488Y0238413D01*
X0023488Y0239199D02*
X0022700Y0239199D01*
X0022700Y0239985D02*
X0023488Y0239985D01*
X0023488Y0240771D02*
X0022700Y0240771D01*
X0022700Y0241557D02*
X0023488Y0241557D01*
X0023488Y0242343D02*
X0022700Y0242343D01*
X0022700Y0243129D02*
X0023488Y0243129D01*
X0023488Y0243915D02*
X0022700Y0243915D01*
X0020338Y0236841D02*
X0019550Y0236841D01*
X0019550Y0243929D01*
X0020338Y0243929D01*
X0020338Y0236841D01*
X0020338Y0237627D02*
X0019550Y0237627D01*
X0019550Y0238413D02*
X0020338Y0238413D01*
X0020338Y0239199D02*
X0019550Y0239199D01*
X0019550Y0239985D02*
X0020338Y0239985D01*
X0020338Y0240771D02*
X0019550Y0240771D01*
X0019550Y0241557D02*
X0020338Y0241557D01*
X0020338Y0242343D02*
X0019550Y0242343D01*
X0019550Y0243129D02*
X0020338Y0243129D01*
X0020338Y0243915D02*
X0019550Y0243915D01*
X0021125Y0204557D02*
X0021913Y0204557D01*
X0021125Y0204557D02*
X0021125Y0211645D01*
X0021913Y0211645D01*
X0021913Y0204557D01*
X0021913Y0205343D02*
X0021125Y0205343D01*
X0021125Y0206129D02*
X0021913Y0206129D01*
X0021913Y0206915D02*
X0021125Y0206915D01*
X0021125Y0207701D02*
X0021913Y0207701D01*
X0021913Y0208487D02*
X0021125Y0208487D01*
X0021125Y0209273D02*
X0021913Y0209273D01*
X0021913Y0210059D02*
X0021125Y0210059D01*
X0021125Y0210845D02*
X0021913Y0210845D01*
X0021913Y0211631D02*
X0021125Y0211631D01*
X0024275Y0204557D02*
X0025063Y0204557D01*
X0024275Y0204557D02*
X0024275Y0211645D01*
X0025063Y0211645D01*
X0025063Y0204557D01*
X0025063Y0205343D02*
X0024275Y0205343D01*
X0024275Y0206129D02*
X0025063Y0206129D01*
X0025063Y0206915D02*
X0024275Y0206915D01*
X0024275Y0207701D02*
X0025063Y0207701D01*
X0025063Y0208487D02*
X0024275Y0208487D01*
X0024275Y0209273D02*
X0025063Y0209273D01*
X0025063Y0210059D02*
X0024275Y0210059D01*
X0024275Y0210845D02*
X0025063Y0210845D01*
X0025063Y0211631D02*
X0024275Y0211631D01*
X0027424Y0204557D02*
X0028212Y0204557D01*
X0027424Y0204557D02*
X0027424Y0211645D01*
X0028212Y0211645D01*
X0028212Y0204557D01*
X0028212Y0205343D02*
X0027424Y0205343D01*
X0027424Y0206129D02*
X0028212Y0206129D01*
X0028212Y0206915D02*
X0027424Y0206915D01*
X0027424Y0207701D02*
X0028212Y0207701D01*
X0028212Y0208487D02*
X0027424Y0208487D01*
X0027424Y0209273D02*
X0028212Y0209273D01*
X0028212Y0210059D02*
X0027424Y0210059D01*
X0027424Y0210845D02*
X0028212Y0210845D01*
X0028212Y0211631D02*
X0027424Y0211631D01*
X0030574Y0204557D02*
X0031362Y0204557D01*
X0030574Y0204557D02*
X0030574Y0211645D01*
X0031362Y0211645D01*
X0031362Y0204557D01*
X0031362Y0205343D02*
X0030574Y0205343D01*
X0030574Y0206129D02*
X0031362Y0206129D01*
X0031362Y0206915D02*
X0030574Y0206915D01*
X0030574Y0207701D02*
X0031362Y0207701D01*
X0031362Y0208487D02*
X0030574Y0208487D01*
X0030574Y0209273D02*
X0031362Y0209273D01*
X0031362Y0210059D02*
X0030574Y0210059D01*
X0030574Y0210845D02*
X0031362Y0210845D01*
X0031362Y0211631D02*
X0030574Y0211631D01*
X0033724Y0204557D02*
X0034512Y0204557D01*
X0033724Y0204557D02*
X0033724Y0211645D01*
X0034512Y0211645D01*
X0034512Y0204557D01*
X0034512Y0205343D02*
X0033724Y0205343D01*
X0033724Y0206129D02*
X0034512Y0206129D01*
X0034512Y0206915D02*
X0033724Y0206915D01*
X0033724Y0207701D02*
X0034512Y0207701D01*
X0034512Y0208487D02*
X0033724Y0208487D01*
X0033724Y0209273D02*
X0034512Y0209273D01*
X0034512Y0210059D02*
X0033724Y0210059D01*
X0033724Y0210845D02*
X0034512Y0210845D01*
X0034512Y0211631D02*
X0033724Y0211631D01*
X0036873Y0204557D02*
X0037661Y0204557D01*
X0036873Y0204557D02*
X0036873Y0211645D01*
X0037661Y0211645D01*
X0037661Y0204557D01*
X0037661Y0205343D02*
X0036873Y0205343D01*
X0036873Y0206129D02*
X0037661Y0206129D01*
X0037661Y0206915D02*
X0036873Y0206915D01*
X0036873Y0207701D02*
X0037661Y0207701D01*
X0037661Y0208487D02*
X0036873Y0208487D01*
X0036873Y0209273D02*
X0037661Y0209273D01*
X0037661Y0210059D02*
X0036873Y0210059D01*
X0036873Y0210845D02*
X0037661Y0210845D01*
X0037661Y0211631D02*
X0036873Y0211631D01*
X0040023Y0204557D02*
X0040811Y0204557D01*
X0040023Y0204557D02*
X0040023Y0211645D01*
X0040811Y0211645D01*
X0040811Y0204557D01*
X0040811Y0205343D02*
X0040023Y0205343D01*
X0040023Y0206129D02*
X0040811Y0206129D01*
X0040811Y0206915D02*
X0040023Y0206915D01*
X0040023Y0207701D02*
X0040811Y0207701D01*
X0040811Y0208487D02*
X0040023Y0208487D01*
X0040023Y0209273D02*
X0040811Y0209273D01*
X0040811Y0210059D02*
X0040023Y0210059D01*
X0040023Y0210845D02*
X0040811Y0210845D01*
X0040811Y0211631D02*
X0040023Y0211631D01*
X0043172Y0204557D02*
X0043960Y0204557D01*
X0043172Y0204557D02*
X0043172Y0211645D01*
X0043960Y0211645D01*
X0043960Y0204557D01*
X0043960Y0205343D02*
X0043172Y0205343D01*
X0043172Y0206129D02*
X0043960Y0206129D01*
X0043960Y0206915D02*
X0043172Y0206915D01*
X0043172Y0207701D02*
X0043960Y0207701D01*
X0043960Y0208487D02*
X0043172Y0208487D01*
X0043172Y0209273D02*
X0043960Y0209273D01*
X0043960Y0210059D02*
X0043172Y0210059D01*
X0043172Y0210845D02*
X0043960Y0210845D01*
X0043960Y0211631D02*
X0043172Y0211631D01*
X0058920Y0204557D02*
X0059708Y0204557D01*
X0058920Y0204557D02*
X0058920Y0211645D01*
X0059708Y0211645D01*
X0059708Y0204557D01*
X0059708Y0205343D02*
X0058920Y0205343D01*
X0058920Y0206129D02*
X0059708Y0206129D01*
X0059708Y0206915D02*
X0058920Y0206915D01*
X0058920Y0207701D02*
X0059708Y0207701D01*
X0059708Y0208487D02*
X0058920Y0208487D01*
X0058920Y0209273D02*
X0059708Y0209273D01*
X0059708Y0210059D02*
X0058920Y0210059D01*
X0058920Y0210845D02*
X0059708Y0210845D01*
X0059708Y0211631D02*
X0058920Y0211631D01*
X0062070Y0204557D02*
X0062858Y0204557D01*
X0062070Y0204557D02*
X0062070Y0211645D01*
X0062858Y0211645D01*
X0062858Y0204557D01*
X0062858Y0205343D02*
X0062070Y0205343D01*
X0062070Y0206129D02*
X0062858Y0206129D01*
X0062858Y0206915D02*
X0062070Y0206915D01*
X0062070Y0207701D02*
X0062858Y0207701D01*
X0062858Y0208487D02*
X0062070Y0208487D01*
X0062070Y0209273D02*
X0062858Y0209273D01*
X0062858Y0210059D02*
X0062070Y0210059D01*
X0062070Y0210845D02*
X0062858Y0210845D01*
X0062858Y0211631D02*
X0062070Y0211631D01*
X0065220Y0204557D02*
X0066008Y0204557D01*
X0065220Y0204557D02*
X0065220Y0211645D01*
X0066008Y0211645D01*
X0066008Y0204557D01*
X0066008Y0205343D02*
X0065220Y0205343D01*
X0065220Y0206129D02*
X0066008Y0206129D01*
X0066008Y0206915D02*
X0065220Y0206915D01*
X0065220Y0207701D02*
X0066008Y0207701D01*
X0066008Y0208487D02*
X0065220Y0208487D01*
X0065220Y0209273D02*
X0066008Y0209273D01*
X0066008Y0210059D02*
X0065220Y0210059D01*
X0065220Y0210845D02*
X0066008Y0210845D01*
X0066008Y0211631D02*
X0065220Y0211631D01*
X0068369Y0204557D02*
X0069157Y0204557D01*
X0068369Y0204557D02*
X0068369Y0211645D01*
X0069157Y0211645D01*
X0069157Y0204557D01*
X0069157Y0205343D02*
X0068369Y0205343D01*
X0068369Y0206129D02*
X0069157Y0206129D01*
X0069157Y0206915D02*
X0068369Y0206915D01*
X0068369Y0207701D02*
X0069157Y0207701D01*
X0069157Y0208487D02*
X0068369Y0208487D01*
X0068369Y0209273D02*
X0069157Y0209273D01*
X0069157Y0210059D02*
X0068369Y0210059D01*
X0068369Y0210845D02*
X0069157Y0210845D01*
X0069157Y0211631D02*
X0068369Y0211631D01*
X0071519Y0204557D02*
X0072307Y0204557D01*
X0071519Y0204557D02*
X0071519Y0211645D01*
X0072307Y0211645D01*
X0072307Y0204557D01*
X0072307Y0205343D02*
X0071519Y0205343D01*
X0071519Y0206129D02*
X0072307Y0206129D01*
X0072307Y0206915D02*
X0071519Y0206915D01*
X0071519Y0207701D02*
X0072307Y0207701D01*
X0072307Y0208487D02*
X0071519Y0208487D01*
X0071519Y0209273D02*
X0072307Y0209273D01*
X0072307Y0210059D02*
X0071519Y0210059D01*
X0071519Y0210845D02*
X0072307Y0210845D01*
X0072307Y0211631D02*
X0071519Y0211631D01*
X0074669Y0204557D02*
X0075457Y0204557D01*
X0074669Y0204557D02*
X0074669Y0211645D01*
X0075457Y0211645D01*
X0075457Y0204557D01*
X0075457Y0205343D02*
X0074669Y0205343D01*
X0074669Y0206129D02*
X0075457Y0206129D01*
X0075457Y0206915D02*
X0074669Y0206915D01*
X0074669Y0207701D02*
X0075457Y0207701D01*
X0075457Y0208487D02*
X0074669Y0208487D01*
X0074669Y0209273D02*
X0075457Y0209273D01*
X0075457Y0210059D02*
X0074669Y0210059D01*
X0074669Y0210845D02*
X0075457Y0210845D01*
X0075457Y0211631D02*
X0074669Y0211631D01*
X0077818Y0204557D02*
X0078606Y0204557D01*
X0077818Y0204557D02*
X0077818Y0211645D01*
X0078606Y0211645D01*
X0078606Y0204557D01*
X0078606Y0205343D02*
X0077818Y0205343D01*
X0077818Y0206129D02*
X0078606Y0206129D01*
X0078606Y0206915D02*
X0077818Y0206915D01*
X0077818Y0207701D02*
X0078606Y0207701D01*
X0078606Y0208487D02*
X0077818Y0208487D01*
X0077818Y0209273D02*
X0078606Y0209273D01*
X0078606Y0210059D02*
X0077818Y0210059D01*
X0077818Y0210845D02*
X0078606Y0210845D01*
X0078606Y0211631D02*
X0077818Y0211631D01*
X0080968Y0204557D02*
X0081756Y0204557D01*
X0080968Y0204557D02*
X0080968Y0211645D01*
X0081756Y0211645D01*
X0081756Y0204557D01*
X0081756Y0205343D02*
X0080968Y0205343D01*
X0080968Y0206129D02*
X0081756Y0206129D01*
X0081756Y0206915D02*
X0080968Y0206915D01*
X0080968Y0207701D02*
X0081756Y0207701D01*
X0081756Y0208487D02*
X0080968Y0208487D01*
X0080968Y0209273D02*
X0081756Y0209273D01*
X0081756Y0210059D02*
X0080968Y0210059D01*
X0080968Y0210845D02*
X0081756Y0210845D01*
X0081756Y0211631D02*
X0080968Y0211631D01*
X0084117Y0204557D02*
X0084905Y0204557D01*
X0084117Y0204557D02*
X0084117Y0211645D01*
X0084905Y0211645D01*
X0084905Y0204557D01*
X0084905Y0205343D02*
X0084117Y0205343D01*
X0084117Y0206129D02*
X0084905Y0206129D01*
X0084905Y0206915D02*
X0084117Y0206915D01*
X0084117Y0207701D02*
X0084905Y0207701D01*
X0084905Y0208487D02*
X0084117Y0208487D01*
X0084117Y0209273D02*
X0084905Y0209273D01*
X0084905Y0210059D02*
X0084117Y0210059D01*
X0084117Y0210845D02*
X0084905Y0210845D01*
X0084905Y0211631D02*
X0084117Y0211631D01*
X0087267Y0204557D02*
X0088055Y0204557D01*
X0087267Y0204557D02*
X0087267Y0211645D01*
X0088055Y0211645D01*
X0088055Y0204557D01*
X0088055Y0205343D02*
X0087267Y0205343D01*
X0087267Y0206129D02*
X0088055Y0206129D01*
X0088055Y0206915D02*
X0087267Y0206915D01*
X0087267Y0207701D02*
X0088055Y0207701D01*
X0088055Y0208487D02*
X0087267Y0208487D01*
X0087267Y0209273D02*
X0088055Y0209273D01*
X0088055Y0210059D02*
X0087267Y0210059D01*
X0087267Y0210845D02*
X0088055Y0210845D01*
X0088055Y0211631D02*
X0087267Y0211631D01*
X0090417Y0204557D02*
X0091205Y0204557D01*
X0090417Y0204557D02*
X0090417Y0211645D01*
X0091205Y0211645D01*
X0091205Y0204557D01*
X0091205Y0205343D02*
X0090417Y0205343D01*
X0090417Y0206129D02*
X0091205Y0206129D01*
X0091205Y0206915D02*
X0090417Y0206915D01*
X0090417Y0207701D02*
X0091205Y0207701D01*
X0091205Y0208487D02*
X0090417Y0208487D01*
X0090417Y0209273D02*
X0091205Y0209273D01*
X0091205Y0210059D02*
X0090417Y0210059D01*
X0090417Y0210845D02*
X0091205Y0210845D01*
X0091205Y0211631D02*
X0090417Y0211631D01*
X0093566Y0204557D02*
X0094354Y0204557D01*
X0093566Y0204557D02*
X0093566Y0211645D01*
X0094354Y0211645D01*
X0094354Y0204557D01*
X0094354Y0205343D02*
X0093566Y0205343D01*
X0093566Y0206129D02*
X0094354Y0206129D01*
X0094354Y0206915D02*
X0093566Y0206915D01*
X0093566Y0207701D02*
X0094354Y0207701D01*
X0094354Y0208487D02*
X0093566Y0208487D01*
X0093566Y0209273D02*
X0094354Y0209273D01*
X0094354Y0210059D02*
X0093566Y0210059D01*
X0093566Y0210845D02*
X0094354Y0210845D01*
X0094354Y0211631D02*
X0093566Y0211631D01*
X0096716Y0204557D02*
X0097504Y0204557D01*
X0096716Y0204557D02*
X0096716Y0211645D01*
X0097504Y0211645D01*
X0097504Y0204557D01*
X0097504Y0205343D02*
X0096716Y0205343D01*
X0096716Y0206129D02*
X0097504Y0206129D01*
X0097504Y0206915D02*
X0096716Y0206915D01*
X0096716Y0207701D02*
X0097504Y0207701D01*
X0097504Y0208487D02*
X0096716Y0208487D01*
X0096716Y0209273D02*
X0097504Y0209273D01*
X0097504Y0210059D02*
X0096716Y0210059D01*
X0096716Y0210845D02*
X0097504Y0210845D01*
X0097504Y0211631D02*
X0096716Y0211631D01*
X0099865Y0204557D02*
X0100653Y0204557D01*
X0099865Y0204557D02*
X0099865Y0211645D01*
X0100653Y0211645D01*
X0100653Y0204557D01*
X0100653Y0205343D02*
X0099865Y0205343D01*
X0099865Y0206129D02*
X0100653Y0206129D01*
X0100653Y0206915D02*
X0099865Y0206915D01*
X0099865Y0207701D02*
X0100653Y0207701D01*
X0100653Y0208487D02*
X0099865Y0208487D01*
X0099865Y0209273D02*
X0100653Y0209273D01*
X0100653Y0210059D02*
X0099865Y0210059D01*
X0099865Y0210845D02*
X0100653Y0210845D01*
X0100653Y0211631D02*
X0099865Y0211631D01*
X0103015Y0204557D02*
X0103803Y0204557D01*
X0103015Y0204557D02*
X0103015Y0211645D01*
X0103803Y0211645D01*
X0103803Y0204557D01*
X0103803Y0205343D02*
X0103015Y0205343D01*
X0103015Y0206129D02*
X0103803Y0206129D01*
X0103803Y0206915D02*
X0103015Y0206915D01*
X0103015Y0207701D02*
X0103803Y0207701D01*
X0103803Y0208487D02*
X0103015Y0208487D01*
X0103015Y0209273D02*
X0103803Y0209273D01*
X0103803Y0210059D02*
X0103015Y0210059D01*
X0103015Y0210845D02*
X0103803Y0210845D01*
X0103803Y0211631D02*
X0103015Y0211631D01*
X0106165Y0204557D02*
X0106953Y0204557D01*
X0106165Y0204557D02*
X0106165Y0211645D01*
X0106953Y0211645D01*
X0106953Y0204557D01*
X0106953Y0205343D02*
X0106165Y0205343D01*
X0106165Y0206129D02*
X0106953Y0206129D01*
X0106953Y0206915D02*
X0106165Y0206915D01*
X0106165Y0207701D02*
X0106953Y0207701D01*
X0106953Y0208487D02*
X0106165Y0208487D01*
X0106165Y0209273D02*
X0106953Y0209273D01*
X0106953Y0210059D02*
X0106165Y0210059D01*
X0106165Y0210845D02*
X0106953Y0210845D01*
X0106953Y0211631D02*
X0106165Y0211631D01*
X0109314Y0204557D02*
X0110102Y0204557D01*
X0109314Y0204557D02*
X0109314Y0211645D01*
X0110102Y0211645D01*
X0110102Y0204557D01*
X0110102Y0205343D02*
X0109314Y0205343D01*
X0109314Y0206129D02*
X0110102Y0206129D01*
X0110102Y0206915D02*
X0109314Y0206915D01*
X0109314Y0207701D02*
X0110102Y0207701D01*
X0110102Y0208487D02*
X0109314Y0208487D01*
X0109314Y0209273D02*
X0110102Y0209273D01*
X0110102Y0210059D02*
X0109314Y0210059D01*
X0109314Y0210845D02*
X0110102Y0210845D01*
X0110102Y0211631D02*
X0109314Y0211631D01*
X0112464Y0204557D02*
X0113252Y0204557D01*
X0112464Y0204557D02*
X0112464Y0211645D01*
X0113252Y0211645D01*
X0113252Y0204557D01*
X0113252Y0205343D02*
X0112464Y0205343D01*
X0112464Y0206129D02*
X0113252Y0206129D01*
X0113252Y0206915D02*
X0112464Y0206915D01*
X0112464Y0207701D02*
X0113252Y0207701D01*
X0113252Y0208487D02*
X0112464Y0208487D01*
X0112464Y0209273D02*
X0113252Y0209273D01*
X0113252Y0210059D02*
X0112464Y0210059D01*
X0112464Y0210845D02*
X0113252Y0210845D01*
X0113252Y0211631D02*
X0112464Y0211631D01*
D13*
X0112858Y0208101D02*
X0116000Y0211243D01*
X0121181Y0211243D01*
X0124059Y0209904D02*
X0132280Y0209904D01*
X0132128Y0209751D02*
X0131400Y0207994D01*
X0131400Y0200492D01*
X0132128Y0198735D01*
X0132620Y0198243D01*
X0132128Y0197751D01*
X0131400Y0195994D01*
X0131400Y0188492D01*
X0132128Y0186735D01*
X0133473Y0185390D01*
X0135230Y0184662D01*
X0137132Y0184662D01*
X0138889Y0185390D01*
X0140234Y0186735D01*
X0140962Y0188492D01*
X0140962Y0195994D01*
X0140234Y0197751D01*
X0139743Y0198243D01*
X0140234Y0198735D01*
X0140962Y0200492D01*
X0140962Y0207994D01*
X0140234Y0209751D01*
X0138889Y0211096D01*
X0137132Y0211824D01*
X0135230Y0211824D01*
X0133473Y0211096D01*
X0132128Y0209751D01*
X0131400Y0207543D02*
X0116772Y0207543D01*
X0116762Y0207534D02*
X0117309Y0208081D01*
X0120527Y0208081D01*
X0120550Y0208071D01*
X0121812Y0208071D01*
X0122978Y0208554D01*
X0123870Y0209446D01*
X0124353Y0210612D01*
X0124353Y0211874D01*
X0123930Y0212893D01*
X0157587Y0212893D01*
X0162277Y0213964D01*
X0162277Y0213964D01*
X0166612Y0216051D01*
X0170373Y0219051D01*
X0170373Y0219051D01*
X0173373Y0222812D01*
X0175460Y0227147D01*
X0176531Y0231837D01*
X0176531Y0236341D01*
X0178401Y0236341D01*
X0179346Y0236732D01*
X0180070Y0237456D01*
X0180461Y0238401D01*
X0180461Y0240605D01*
X0180229Y0241165D01*
X0180346Y0241340D01*
X0180555Y0241844D01*
X0180661Y0242379D01*
X0180661Y0243243D01*
X0180661Y0244107D01*
X0180555Y0244642D01*
X0180442Y0244914D01*
X0180464Y0244936D01*
X0180855Y0245881D01*
X0180855Y0248085D01*
X0180464Y0249030D01*
X0179740Y0249754D01*
X0178795Y0250145D01*
X0177289Y0250145D01*
X0177137Y0250208D01*
X0176409Y0250208D01*
X0176146Y0250471D01*
X0176146Y0251467D01*
X0177565Y0251467D01*
X0177654Y0251415D01*
X0178209Y0251267D01*
X0179480Y0251267D01*
X0179480Y0257385D01*
X0179480Y0257385D01*
X0182646Y0257385D01*
X0182646Y0261609D01*
X0182497Y0262164D01*
X0182210Y0262661D01*
X0182076Y0262795D01*
X0182310Y0262892D01*
X0182814Y0263396D01*
X0182814Y0253218D01*
X0183975Y0252057D01*
X0184124Y0252057D01*
X0183999Y0251932D01*
X0183625Y0251030D01*
X0183625Y0247456D01*
X0183999Y0246554D01*
X0184168Y0246384D01*
X0184018Y0246234D01*
X0183727Y0245799D01*
X0183527Y0245316D01*
X0183425Y0244804D01*
X0183425Y0243243D01*
X0183425Y0241682D01*
X0183527Y0241170D01*
X0183727Y0240687D01*
X0184018Y0240252D01*
X0184387Y0239883D01*
X0184822Y0239592D01*
X0185305Y0239392D01*
X0185817Y0239290D01*
X0187181Y0239290D01*
X0187181Y0243243D01*
X0183425Y0243243D01*
X0187181Y0243243D01*
X0187181Y0243243D01*
X0187181Y0243243D01*
X0187181Y0239290D01*
X0188545Y0239290D01*
X0189057Y0239392D01*
X0189540Y0239592D01*
X0189681Y0239686D01*
X0189822Y0239592D01*
X0190305Y0239392D01*
X0190817Y0239290D01*
X0192181Y0239290D01*
X0192181Y0243243D01*
X0188425Y0243243D01*
X0187181Y0243243D01*
X0187181Y0243243D01*
X0192181Y0243243D01*
X0192181Y0243243D01*
X0192181Y0243243D01*
X0192181Y0239290D01*
X0193545Y0239290D01*
X0194057Y0239392D01*
X0194540Y0239592D01*
X0194975Y0239883D01*
X0195345Y0240252D01*
X0195635Y0240687D01*
X0195835Y0241170D01*
X0195937Y0241682D01*
X0195937Y0243243D01*
X0192181Y0243243D01*
X0192181Y0243243D01*
X0195937Y0243243D01*
X0195937Y0244804D01*
X0195835Y0245316D01*
X0195635Y0245799D01*
X0195345Y0246234D01*
X0195194Y0246384D01*
X0195363Y0246554D01*
X0195737Y0247456D01*
X0195737Y0251030D01*
X0195363Y0251932D01*
X0195238Y0252057D01*
X0195458Y0252057D01*
X0196619Y0253218D01*
X0196619Y0263520D01*
X0195458Y0264681D01*
X0194198Y0264681D01*
X0194198Y0272923D01*
X0195458Y0272923D01*
X0196619Y0274084D01*
X0196619Y0282652D01*
X0196850Y0282652D01*
X0196850Y0222911D01*
X0195719Y0224042D01*
X0194072Y0224724D01*
X0192290Y0224724D01*
X0190643Y0224042D01*
X0189382Y0222781D01*
X0188700Y0221134D01*
X0188700Y0149099D01*
X0188625Y0149024D01*
X0186430Y0149024D01*
X0184673Y0148296D01*
X0183328Y0146951D01*
X0182600Y0145194D01*
X0182600Y0143292D01*
X0183328Y0141535D01*
X0184673Y0140190D01*
X0186430Y0139462D01*
X0193932Y0139462D01*
X0195689Y0140190D01*
X0196850Y0141351D01*
X0196850Y0137135D01*
X0195689Y0138296D01*
X0193932Y0139024D01*
X0186430Y0139024D01*
X0185706Y0138724D01*
X0172312Y0138724D01*
X0172312Y0141331D01*
X0171662Y0141981D01*
X0171662Y0151463D01*
X0172561Y0151463D01*
X0173721Y0152623D01*
X0173721Y0159799D01*
X0173750Y0159945D01*
X0173721Y0160088D01*
X0173721Y0167257D01*
X0172561Y0168417D01*
X0165801Y0168417D01*
X0164641Y0167257D01*
X0164641Y0161208D01*
X0163699Y0159795D01*
X0163382Y0159478D01*
X0163209Y0159060D01*
X0162958Y0158684D01*
X0162871Y0158245D01*
X0162700Y0157831D01*
X0162700Y0157379D01*
X0162612Y0156935D01*
X0162700Y0156496D01*
X0162700Y0150315D01*
X0162677Y0150338D01*
X0162203Y0150654D01*
X0161678Y0150872D01*
X0161119Y0150983D01*
X0159181Y0150983D01*
X0157243Y0150983D01*
X0156685Y0150872D01*
X0156159Y0150654D01*
X0155685Y0150338D01*
X0155283Y0149936D01*
X0154967Y0149462D01*
X0154749Y0148936D01*
X0154638Y0148378D01*
X0154638Y0146243D01*
X0154638Y0144108D01*
X0154749Y0143550D01*
X0154967Y0143024D01*
X0155283Y0142551D01*
X0155685Y0142148D01*
X0156159Y0141832D01*
X0156685Y0141614D01*
X0157243Y0141503D01*
X0159181Y0141503D01*
X0159181Y0146243D01*
X0154638Y0146243D01*
X0159181Y0146243D01*
X0159181Y0146243D01*
X0159181Y0146243D01*
X0159181Y0150983D01*
X0159181Y0146243D01*
X0159181Y0146243D01*
X0159181Y0141503D01*
X0161119Y0141503D01*
X0161678Y0141614D01*
X0162203Y0141832D01*
X0162677Y0142148D01*
X0162700Y0142171D01*
X0162700Y0141981D01*
X0162050Y0141331D01*
X0162050Y0125911D01*
X0163211Y0124750D01*
X0171151Y0124750D01*
X0172312Y0125911D01*
X0172312Y0129762D01*
X0185706Y0129762D01*
X0186430Y0129462D01*
X0193932Y0129462D01*
X0195689Y0130190D01*
X0196850Y0131351D01*
X0196850Y0127135D01*
X0195689Y0128296D01*
X0193932Y0129024D01*
X0186430Y0129024D01*
X0184673Y0128296D01*
X0183328Y0126951D01*
X0182600Y0125194D01*
X0182600Y0123292D01*
X0183328Y0121535D01*
X0184354Y0120509D01*
X0184354Y0059059D01*
X0184077Y0059059D01*
X0182917Y0057898D01*
X0182917Y0048383D01*
X0184077Y0047223D01*
X0184354Y0047223D01*
X0184354Y0034846D01*
X0184077Y0034846D01*
X0182917Y0033686D01*
X0182917Y0024170D01*
X0184077Y0023010D01*
X0193592Y0023010D01*
X0194753Y0024170D01*
X0194753Y0033686D01*
X0193592Y0034846D01*
X0193316Y0034846D01*
X0193316Y0047223D01*
X0193592Y0047223D01*
X0194753Y0048383D01*
X0194753Y0057898D01*
X0193592Y0059059D01*
X0193316Y0059059D01*
X0193316Y0119462D01*
X0193932Y0119462D01*
X0195689Y0120190D01*
X0196850Y0121351D01*
X0196850Y0011424D01*
X0118641Y0011424D01*
X0118973Y0012224D01*
X0118973Y0017733D01*
X0118446Y0019004D01*
X0117474Y0019977D01*
X0116203Y0020503D01*
X0111875Y0020503D01*
X0110604Y0019977D01*
X0109631Y0019004D01*
X0109105Y0017733D01*
X0109105Y0012224D01*
X0109436Y0011424D01*
X0023366Y0011424D01*
X0023697Y0012224D01*
X0023697Y0017733D01*
X0023171Y0019004D01*
X0022198Y0019977D01*
X0020927Y0020503D01*
X0019892Y0020503D01*
X0021783Y0021286D01*
X0023282Y0022786D01*
X0024094Y0024745D01*
X0024094Y0026866D01*
X0023282Y0028825D01*
X0021783Y0030325D01*
X0019824Y0031136D01*
X0017703Y0031136D01*
X0015744Y0030325D01*
X0014244Y0028825D01*
X0013433Y0026866D01*
X0013433Y0024745D01*
X0014244Y0022786D01*
X0015744Y0021286D01*
X0017635Y0020503D01*
X0016599Y0020503D01*
X0015328Y0019977D01*
X0014356Y0019004D01*
X0013829Y0017733D01*
X0013829Y0012224D01*
X0014161Y0011424D01*
X0004362Y0011424D01*
X0004362Y0229961D01*
X0004890Y0229742D01*
X0012557Y0229742D01*
X0013785Y0230251D01*
X0014724Y0231190D01*
X0015233Y0232417D01*
X0015233Y0243628D01*
X0014724Y0244855D01*
X0013785Y0245794D01*
X0012557Y0246303D01*
X0004890Y0246303D01*
X0004362Y0246084D01*
X0004362Y0282652D01*
X0133119Y0282652D01*
X0132407Y0281941D01*
X0132384Y0281932D01*
X0131492Y0281040D01*
X0131009Y0279874D01*
X0131009Y0278612D01*
X0131019Y0278589D01*
X0131019Y0269055D01*
X0127162Y0272912D01*
X0127162Y0276306D01*
X0124244Y0279224D01*
X0120118Y0279224D01*
X0117200Y0276306D01*
X0117200Y0272874D01*
X0117162Y0272912D01*
X0117162Y0276306D01*
X0114244Y0279224D01*
X0110118Y0279224D01*
X0107200Y0276306D01*
X0107200Y0272180D01*
X0110118Y0269262D01*
X0113512Y0269262D01*
X0113550Y0269224D01*
X0110118Y0269224D01*
X0107200Y0266306D01*
X0107200Y0262180D01*
X0109600Y0259780D01*
X0109600Y0251474D01*
X0104762Y0256312D01*
X0104762Y0259780D01*
X0107162Y0262180D01*
X0107162Y0266306D01*
X0104244Y0269224D01*
X0100812Y0269224D01*
X0100850Y0269262D01*
X0104244Y0269262D01*
X0107162Y0272180D01*
X0107162Y0276306D01*
X0104244Y0279224D01*
X0100118Y0279224D01*
X0097200Y0276306D01*
X0097200Y0272912D01*
X0097162Y0272874D01*
X0097162Y0276306D01*
X0094244Y0279224D01*
X0090118Y0279224D01*
X0087200Y0276306D01*
X0087200Y0272912D01*
X0087162Y0272874D01*
X0087162Y0276306D01*
X0084244Y0279224D01*
X0080118Y0279224D01*
X0077200Y0276306D01*
X0077200Y0272912D01*
X0077162Y0272874D01*
X0077162Y0276306D01*
X0074244Y0279224D01*
X0070118Y0279224D01*
X0067200Y0276306D01*
X0067200Y0272180D01*
X0069995Y0269384D01*
X0067040Y0266429D01*
X0064244Y0269224D01*
X0060812Y0269224D01*
X0060850Y0269262D01*
X0064244Y0269262D01*
X0067162Y0272180D01*
X0067162Y0276306D01*
X0064244Y0279224D01*
X0060118Y0279224D01*
X0057200Y0276306D01*
X0057200Y0272912D01*
X0057162Y0272874D01*
X0057162Y0276306D01*
X0054244Y0279224D01*
X0050118Y0279224D01*
X0047200Y0276306D01*
X0047200Y0272912D01*
X0047162Y0272874D01*
X0047162Y0276306D01*
X0044244Y0279224D01*
X0040118Y0279224D01*
X0037200Y0276306D01*
X0037200Y0272912D01*
X0037162Y0272874D01*
X0037162Y0276306D01*
X0034244Y0279224D01*
X0030118Y0279224D01*
X0027200Y0276306D01*
X0027200Y0272912D01*
X0027162Y0272874D01*
X0027162Y0276306D01*
X0024244Y0279224D01*
X0020118Y0279224D01*
X0017200Y0276306D01*
X0017200Y0272912D01*
X0017162Y0272874D01*
X0017162Y0276306D01*
X0014244Y0279224D01*
X0010118Y0279224D01*
X0007200Y0276306D01*
X0007200Y0274912D01*
X0005719Y0273431D01*
X0004993Y0272705D01*
X0004600Y0271756D01*
X0004600Y0259730D01*
X0004993Y0258781D01*
X0017363Y0246411D01*
X0017363Y0245099D01*
X0017176Y0244912D01*
X0017176Y0235858D01*
X0018567Y0234467D01*
X0021322Y0234467D01*
X0021519Y0234664D01*
X0021717Y0234467D01*
X0024471Y0234467D01*
X0024669Y0234664D01*
X0024866Y0234467D01*
X0027621Y0234467D01*
X0027818Y0234664D01*
X0028016Y0234467D01*
X0030771Y0234467D01*
X0030890Y0234586D01*
X0030929Y0234560D01*
X0031398Y0234366D01*
X0031896Y0234267D01*
X0032543Y0234267D01*
X0033190Y0234267D01*
X0033688Y0234366D01*
X0034156Y0234560D01*
X0034196Y0234586D01*
X0034315Y0234467D01*
X0037070Y0234467D01*
X0037267Y0234664D01*
X0037465Y0234467D01*
X0040219Y0234467D01*
X0040339Y0234586D01*
X0040378Y0234560D01*
X0040847Y0234366D01*
X0041344Y0234267D01*
X0041992Y0234267D01*
X0042639Y0234267D01*
X0043136Y0234366D01*
X0043605Y0234560D01*
X0044027Y0234841D01*
X0044385Y0235200D01*
X0044667Y0235622D01*
X0044861Y0236090D01*
X0044960Y0236588D01*
X0044960Y0240385D01*
X0044960Y0244182D01*
X0044861Y0244679D01*
X0044667Y0245148D01*
X0044385Y0245569D01*
X0044027Y0245928D01*
X0043605Y0246210D01*
X0043136Y0246404D01*
X0042639Y0246503D01*
X0041992Y0246503D01*
X0041992Y0240385D01*
X0044960Y0240385D01*
X0041992Y0240385D01*
X0041992Y0240385D01*
X0041992Y0240385D01*
X0041992Y0246503D01*
X0041423Y0246503D01*
X0041423Y0253351D01*
X0054971Y0239803D01*
X0054971Y0235858D01*
X0056362Y0234467D01*
X0059117Y0234467D01*
X0059314Y0234664D01*
X0059512Y0234467D01*
X0062267Y0234467D01*
X0062386Y0234586D01*
X0062426Y0234560D01*
X0062894Y0234366D01*
X0063392Y0234267D01*
X0064039Y0234267D01*
X0064686Y0234267D01*
X0065184Y0234366D01*
X0065652Y0234560D01*
X0065692Y0234586D01*
X0065811Y0234467D01*
X0068566Y0234467D01*
X0068763Y0234664D01*
X0068961Y0234467D01*
X0071715Y0234467D01*
X0071835Y0234586D01*
X0071874Y0234560D01*
X0072343Y0234366D01*
X0072840Y0234267D01*
X0073488Y0234267D01*
X0074135Y0234267D01*
X0074632Y0234366D01*
X0075062Y0234544D01*
X0075493Y0234366D01*
X0075990Y0234267D01*
X0076637Y0234267D01*
X0076637Y0240385D01*
X0076637Y0240385D01*
X0073488Y0240385D01*
X0073488Y0240385D01*
X0073488Y0240385D01*
X0073488Y0246503D01*
X0074135Y0246503D01*
X0074632Y0246404D01*
X0075062Y0246226D01*
X0075493Y0246404D01*
X0075990Y0246503D01*
X0076637Y0246503D01*
X0076637Y0240385D01*
X0076637Y0240385D01*
X0073669Y0240385D01*
X0073488Y0240385D01*
X0073488Y0246503D01*
X0072919Y0246503D01*
X0072919Y0246599D01*
X0072526Y0247548D01*
X0071800Y0248274D01*
X0060812Y0259262D01*
X0064244Y0259262D01*
X0067040Y0262057D01*
X0070035Y0259062D01*
X0072181Y0259062D01*
X0072181Y0264243D01*
X0072181Y0264243D01*
X0072181Y0259062D01*
X0074327Y0259062D01*
X0074600Y0259335D01*
X0074600Y0251730D01*
X0074993Y0250781D01*
X0077206Y0248568D01*
X0077206Y0246503D01*
X0076637Y0246503D01*
X0076637Y0240385D01*
X0076637Y0240385D01*
X0076637Y0234267D01*
X0077285Y0234267D01*
X0077782Y0234366D01*
X0078251Y0234560D01*
X0078290Y0234586D01*
X0078410Y0234467D01*
X0081164Y0234467D01*
X0081362Y0234664D01*
X0081559Y0234467D01*
X0084314Y0234467D01*
X0084433Y0234586D01*
X0084473Y0234560D01*
X0084941Y0234366D01*
X0085439Y0234267D01*
X0086086Y0234267D01*
X0086086Y0240385D01*
X0086086Y0246503D01*
X0085518Y0246503D01*
X0085518Y0259256D01*
X0098271Y0246503D01*
X0098037Y0246503D01*
X0097540Y0246404D01*
X0097071Y0246210D01*
X0097032Y0246183D01*
X0096912Y0246303D01*
X0094158Y0246303D01*
X0093960Y0246105D01*
X0093763Y0246303D01*
X0091008Y0246303D01*
X0090889Y0246183D01*
X0090849Y0246210D01*
X0090380Y0246404D01*
X0089883Y0246503D01*
X0089236Y0246503D01*
X0089236Y0240385D01*
X0089236Y0240385D01*
X0089236Y0246503D01*
X0088588Y0246503D01*
X0088091Y0246404D01*
X0087661Y0246226D01*
X0087231Y0246404D01*
X0086733Y0246503D01*
X0086086Y0246503D01*
X0086086Y0240385D01*
X0086086Y0240385D01*
X0089236Y0240385D01*
X0089236Y0234267D01*
X0089883Y0234267D01*
X0090380Y0234366D01*
X0090849Y0234560D01*
X0090889Y0234586D01*
X0091008Y0234467D01*
X0091009Y0234467D01*
X0091009Y0233612D01*
X0091492Y0232446D01*
X0092384Y0231554D01*
X0093550Y0231071D01*
X0094812Y0231071D01*
X0095978Y0231554D01*
X0096870Y0232446D01*
X0097353Y0233612D01*
X0097353Y0234443D01*
X0097540Y0234366D01*
X0098037Y0234267D01*
X0098684Y0234267D01*
X0098684Y0240385D01*
X0098685Y0240385D01*
X0098685Y0234267D01*
X0099332Y0234267D01*
X0099829Y0234366D01*
X0100298Y0234560D01*
X0100337Y0234586D01*
X0100457Y0234467D01*
X0101755Y0234467D01*
X0097112Y0229824D01*
X0082668Y0229824D01*
X0081719Y0229431D01*
X0080993Y0228705D01*
X0076719Y0224431D01*
X0075993Y0223705D01*
X0075600Y0222756D01*
X0075600Y0214019D01*
X0073685Y0214019D01*
X0073566Y0213900D01*
X0073526Y0213926D01*
X0073058Y0214120D01*
X0072560Y0214219D01*
X0071913Y0214219D01*
X0071913Y0210161D01*
X0071913Y0210162D01*
X0071913Y0214219D01*
X0071266Y0214219D01*
X0070768Y0214120D01*
X0070300Y0213926D01*
X0070260Y0213900D01*
X0070141Y0214019D01*
X0067386Y0214019D01*
X0067188Y0213822D01*
X0066991Y0214019D01*
X0065045Y0214019D01*
X0065045Y0215870D01*
X0065353Y0216612D01*
X0065353Y0217874D01*
X0064870Y0219040D01*
X0063978Y0219932D01*
X0062812Y0220415D01*
X0061550Y0220415D01*
X0060384Y0219932D01*
X0059492Y0219040D01*
X0059009Y0217874D01*
X0059009Y0216612D01*
X0059492Y0215446D01*
X0059883Y0215056D01*
X0059883Y0214219D01*
X0059315Y0214219D01*
X0059315Y0208101D01*
X0059315Y0201983D01*
X0059962Y0201983D01*
X0060459Y0202082D01*
X0060928Y0202276D01*
X0060967Y0202303D01*
X0061087Y0202183D01*
X0061636Y0202183D01*
X0061492Y0202040D01*
X0061009Y0200874D01*
X0061009Y0199612D01*
X0061492Y0198446D01*
X0062384Y0197554D01*
X0063079Y0197267D01*
X0062738Y0197039D01*
X0062385Y0196686D01*
X0062107Y0196271D01*
X0061916Y0195809D01*
X0061819Y0195320D01*
X0061819Y0194243D01*
X0061819Y0193167D01*
X0061890Y0192807D01*
X0061625Y0192697D01*
X0061190Y0192407D01*
X0060821Y0192037D01*
X0060530Y0191602D01*
X0060330Y0191119D01*
X0060228Y0190607D01*
X0060228Y0189243D01*
X0060228Y0187879D01*
X0060330Y0187367D01*
X0060530Y0186884D01*
X0060624Y0186743D01*
X0060530Y0186602D01*
X0060330Y0186119D01*
X0060228Y0185607D01*
X0060228Y0184243D01*
X0060228Y0182879D01*
X0060330Y0182367D01*
X0060530Y0181884D01*
X0060627Y0181739D01*
X0059157Y0181739D01*
X0058553Y0181619D01*
X0057984Y0181383D01*
X0057472Y0181041D01*
X0057036Y0180606D01*
X0056694Y0180094D01*
X0056459Y0179525D01*
X0056339Y0178921D01*
X0056339Y0174637D01*
X0061276Y0174637D01*
X0061276Y0173849D01*
X0062063Y0173849D01*
X0062063Y0166747D01*
X0064182Y0166747D01*
X0064786Y0166867D01*
X0065355Y0167103D01*
X0065600Y0167267D01*
X0065600Y0166730D01*
X0065993Y0165781D01*
X0066719Y0165055D01*
X0072950Y0158824D01*
X0057250Y0158824D01*
X0054762Y0161312D01*
X0054762Y0166756D01*
X0054369Y0167705D01*
X0053643Y0168431D01*
X0051643Y0170431D01*
X0050695Y0170824D01*
X0049250Y0170824D01*
X0048762Y0171312D01*
X0048762Y0199756D01*
X0048369Y0200705D01*
X0047643Y0201431D01*
X0046148Y0202927D01*
X0046148Y0203387D01*
X0046335Y0203574D01*
X0046335Y0211911D01*
X0046870Y0212446D01*
X0047353Y0213612D01*
X0047353Y0214295D01*
X0047978Y0214554D01*
X0048870Y0215446D01*
X0049353Y0216612D01*
X0049353Y0217874D01*
X0048870Y0219040D01*
X0047978Y0219932D01*
X0046812Y0220415D01*
X0045550Y0220415D01*
X0045527Y0220405D01*
X0020890Y0220405D01*
X0020889Y0220405D01*
X0021708Y0221223D01*
X0022519Y0223183D01*
X0022519Y0225303D01*
X0021708Y0227263D01*
X0020208Y0228762D01*
X0018249Y0229574D01*
X0016128Y0229574D01*
X0014169Y0228762D01*
X0012669Y0227263D01*
X0011858Y0225303D01*
X0011858Y0223183D01*
X0012669Y0221223D01*
X0014169Y0219724D01*
X0016128Y0218912D01*
X0018249Y0218912D01*
X0019047Y0219243D01*
X0018838Y0219034D01*
X0018357Y0217872D01*
X0018357Y0207472D01*
X0018751Y0206522D01*
X0018751Y0203574D01*
X0020142Y0202183D01*
X0022897Y0202183D01*
X0023016Y0202303D01*
X0023055Y0202276D01*
X0023524Y0202082D01*
X0024021Y0201983D01*
X0024669Y0201983D01*
X0025316Y0201983D01*
X0025482Y0202016D01*
X0008500Y0185034D01*
X0008019Y0183872D01*
X0008019Y0126614D01*
X0008500Y0125452D01*
X0009390Y0124562D01*
X0015400Y0118552D01*
X0015400Y0118491D01*
X0015976Y0117101D01*
X0017039Y0116038D01*
X0018429Y0115462D01*
X0019933Y0115462D01*
X0021323Y0116038D01*
X0021366Y0116081D01*
X0022472Y0116081D01*
X0022492Y0116061D01*
X0023394Y0115687D01*
X0026968Y0115687D01*
X0027870Y0116061D01*
X0028040Y0116230D01*
X0028190Y0116080D01*
X0028625Y0115789D01*
X0029108Y0115589D01*
X0029621Y0115487D01*
X0031181Y0115487D01*
X0031181Y0119243D01*
X0031181Y0119243D01*
X0031181Y0122999D01*
X0029621Y0122999D01*
X0029108Y0122897D01*
X0028625Y0122697D01*
X0028190Y0122407D01*
X0028040Y0122256D01*
X0027870Y0122425D01*
X0026968Y0122799D01*
X0023394Y0122799D01*
X0022492Y0122425D01*
X0022472Y0122405D01*
X0021366Y0122405D01*
X0021323Y0122448D01*
X0019933Y0123024D01*
X0019872Y0123024D01*
X0014343Y0128553D01*
X0014343Y0181933D01*
X0028625Y0196215D01*
X0028625Y0195456D01*
X0028999Y0194554D01*
X0029310Y0194243D01*
X0028999Y0193932D01*
X0028625Y0193030D01*
X0028625Y0189456D01*
X0028953Y0188665D01*
X0028703Y0188415D01*
X0028550Y0188415D01*
X0027384Y0187932D01*
X0026492Y0187040D01*
X0026009Y0185874D01*
X0026009Y0184612D01*
X0026492Y0183446D01*
X0027384Y0182554D01*
X0028415Y0182127D01*
X0023719Y0177431D01*
X0022993Y0176705D01*
X0022600Y0175756D01*
X0022600Y0141724D01*
X0021185Y0141724D01*
X0020978Y0141932D01*
X0019812Y0142415D01*
X0018550Y0142415D01*
X0017384Y0141932D01*
X0016492Y0141040D01*
X0016009Y0139874D01*
X0016009Y0138612D01*
X0016492Y0137446D01*
X0017384Y0136554D01*
X0018550Y0136071D01*
X0019812Y0136071D01*
X0020978Y0136554D01*
X0021185Y0136762D01*
X0022706Y0136762D01*
X0023387Y0136081D01*
X0025369Y0136081D01*
X0023719Y0134431D01*
X0022993Y0133705D01*
X0022600Y0132756D01*
X0022600Y0131724D01*
X0021185Y0131724D01*
X0020978Y0131932D01*
X0019812Y0132415D01*
X0018550Y0132415D01*
X0017384Y0131932D01*
X0016492Y0131040D01*
X0016009Y0129874D01*
X0016009Y0128612D01*
X0016492Y0127446D01*
X0017384Y0126554D01*
X0018550Y0126071D01*
X0019812Y0126071D01*
X0020978Y0126554D01*
X0021185Y0126762D01*
X0022706Y0126762D01*
X0023387Y0126081D01*
X0026975Y0126081D01*
X0027100Y0126205D01*
X0027153Y0126169D01*
X0027615Y0125978D01*
X0028105Y0125881D01*
X0029181Y0125881D01*
X0029181Y0129243D01*
X0029181Y0129243D01*
X0029181Y0125881D01*
X0030258Y0125881D01*
X0030747Y0125978D01*
X0031209Y0126169D01*
X0031624Y0126447D01*
X0031977Y0126800D01*
X0032255Y0127215D01*
X0032446Y0127677D01*
X0032543Y0128167D01*
X0032543Y0129243D01*
X0029181Y0129243D01*
X0029181Y0129243D01*
X0032543Y0129243D01*
X0032543Y0130320D01*
X0032446Y0130809D01*
X0032255Y0131271D01*
X0031993Y0131662D01*
X0032695Y0131662D01*
X0033643Y0132055D01*
X0034369Y0132781D01*
X0036369Y0134781D01*
X0036762Y0135730D01*
X0036762Y0142756D01*
X0036369Y0143705D01*
X0035643Y0144431D01*
X0030762Y0149312D01*
X0030762Y0155153D01*
X0033776Y0152140D01*
X0034688Y0151762D01*
X0088153Y0151762D01*
X0097019Y0142896D01*
X0097019Y0141449D01*
X0098387Y0140081D01*
X0099834Y0140081D01*
X0101009Y0138906D01*
X0101009Y0138612D01*
X0101492Y0137446D01*
X0102384Y0136554D01*
X0103550Y0136071D01*
X0104812Y0136071D01*
X0105978Y0136554D01*
X0106870Y0137446D01*
X0107353Y0138612D01*
X0107353Y0139874D01*
X0106870Y0141040D01*
X0105978Y0141932D01*
X0104812Y0142415D01*
X0104518Y0142415D01*
X0103343Y0143590D01*
X0103343Y0145037D01*
X0103219Y0145162D01*
X0103255Y0145215D01*
X0103446Y0145677D01*
X0103543Y0146167D01*
X0103543Y0147243D01*
X0100181Y0147243D01*
X0100181Y0150605D01*
X0099105Y0150605D01*
X0098615Y0150508D01*
X0098153Y0150317D01*
X0097738Y0150039D01*
X0097385Y0149686D01*
X0097330Y0149603D01*
X0093862Y0153071D01*
X0094812Y0153071D01*
X0095978Y0153554D01*
X0096870Y0154446D01*
X0097353Y0155612D01*
X0097353Y0156662D01*
X0115112Y0156662D01*
X0124600Y0147174D01*
X0124600Y0074730D01*
X0124993Y0073781D01*
X0125719Y0073055D01*
X0126668Y0072662D01*
X0130364Y0072662D01*
X0129700Y0071060D01*
X0129700Y0067574D01*
X0129641Y0067432D01*
X0129641Y0063054D01*
X0130050Y0062066D01*
X0130780Y0061336D01*
X0130489Y0061141D01*
X0130086Y0060739D01*
X0129770Y0060265D01*
X0129552Y0059739D01*
X0129441Y0059181D01*
X0129441Y0057243D01*
X0129441Y0055305D01*
X0129552Y0054747D01*
X0129770Y0054221D01*
X0130086Y0053747D01*
X0130489Y0053345D01*
X0130962Y0053029D01*
X0131488Y0052811D01*
X0132046Y0052700D01*
X0134181Y0052700D01*
X0134181Y0057243D01*
X0129441Y0057243D01*
X0134181Y0057243D01*
X0134181Y0057243D01*
X0134181Y0057243D01*
X0134181Y0052700D01*
X0136316Y0052700D01*
X0136874Y0052811D01*
X0137400Y0053029D01*
X0137874Y0053345D01*
X0138276Y0053747D01*
X0138592Y0054221D01*
X0138810Y0054747D01*
X0138921Y0055305D01*
X0138921Y0057243D01*
X0134181Y0057243D01*
X0134181Y0057243D01*
X0138921Y0057243D01*
X0138921Y0059181D01*
X0138810Y0059739D01*
X0138592Y0060265D01*
X0138276Y0060739D01*
X0137874Y0061141D01*
X0137582Y0061336D01*
X0138312Y0062066D01*
X0138721Y0063054D01*
X0138721Y0067432D01*
X0138662Y0067574D01*
X0138662Y0068312D01*
X0142344Y0071994D01*
X0182017Y0071994D01*
X0183178Y0073155D01*
X0183178Y0113182D01*
X0182017Y0114342D01*
X0148732Y0114342D01*
X0140762Y0122312D01*
X0140762Y0138174D01*
X0141850Y0139262D01*
X0141850Y0134015D01*
X0146787Y0134015D01*
X0146787Y0142692D01*
X0145280Y0142692D01*
X0148369Y0145781D01*
X0148762Y0146730D01*
X0148762Y0161756D01*
X0148369Y0162705D01*
X0147643Y0163431D01*
X0146695Y0163824D01*
X0134102Y0163824D01*
X0123915Y0172159D01*
X0123762Y0172312D01*
X0123762Y0198756D01*
X0123369Y0199705D01*
X0116762Y0206312D01*
X0116762Y0207534D01*
X0117892Y0205182D02*
X0131400Y0205182D01*
X0131400Y0202822D02*
X0120253Y0202822D01*
X0122613Y0200461D02*
X0131413Y0200461D01*
X0132477Y0198100D02*
X0123762Y0198100D01*
X0123762Y0195740D02*
X0131400Y0195740D01*
X0131400Y0193379D02*
X0123762Y0193379D01*
X0123762Y0191018D02*
X0131400Y0191018D01*
X0131400Y0188657D02*
X0123762Y0188657D01*
X0123762Y0186297D02*
X0132566Y0186297D01*
X0133827Y0183401D02*
X0133330Y0183114D01*
X0132924Y0182708D01*
X0132637Y0182211D01*
X0132488Y0181656D01*
X0132488Y0177826D01*
X0139000Y0177826D01*
X0139000Y0183550D01*
X0134382Y0183550D01*
X0133827Y0183401D01*
X0132488Y0181575D02*
X0123762Y0181575D01*
X0123762Y0179215D02*
X0132488Y0179215D01*
X0132488Y0175464D02*
X0132488Y0171633D01*
X0132637Y0171078D01*
X0132924Y0170581D01*
X0133330Y0170175D01*
X0133827Y0169888D01*
X0134382Y0169739D01*
X0139000Y0169739D01*
X0139000Y0175463D01*
X0141362Y0175463D01*
X0141362Y0169739D01*
X0145980Y0169739D01*
X0146535Y0169888D01*
X0147032Y0170175D01*
X0147438Y0170581D01*
X0147725Y0171078D01*
X0147874Y0171633D01*
X0147874Y0175464D01*
X0141362Y0175464D01*
X0141362Y0177826D01*
X0139000Y0177826D01*
X0139000Y0175464D01*
X0132488Y0175464D01*
X0132488Y0174493D02*
X0123762Y0174493D01*
X0123762Y0176854D02*
X0139000Y0176854D01*
X0139000Y0179215D02*
X0141362Y0179215D01*
X0141362Y0177826D02*
X0141362Y0183550D01*
X0145980Y0183550D01*
X0146535Y0183401D01*
X0147032Y0183114D01*
X0147438Y0182708D01*
X0147725Y0182211D01*
X0147874Y0181656D01*
X0147874Y0177826D01*
X0141362Y0177826D01*
X0141362Y0176854D02*
X0164794Y0176854D01*
X0164877Y0176711D02*
X0165283Y0176305D01*
X0165780Y0176018D01*
X0166335Y0175869D01*
X0169083Y0175869D01*
X0169083Y0184448D01*
X0169280Y0184448D01*
X0169280Y0184645D01*
X0173921Y0184645D01*
X0173921Y0191329D01*
X0173773Y0191884D01*
X0173485Y0192381D01*
X0173079Y0192788D01*
X0172582Y0193075D01*
X0172027Y0193223D01*
X0169280Y0193223D01*
X0169280Y0184645D01*
X0169083Y0184645D01*
X0169083Y0193223D01*
X0166335Y0193223D01*
X0165780Y0193075D01*
X0165283Y0192788D01*
X0164877Y0192381D01*
X0164590Y0191884D01*
X0164441Y0191329D01*
X0164441Y0184645D01*
X0169083Y0184645D01*
X0169083Y0184448D01*
X0164441Y0184448D01*
X0164441Y0177763D01*
X0164590Y0177208D01*
X0164877Y0176711D01*
X0164441Y0179215D02*
X0147874Y0179215D01*
X0147874Y0181575D02*
X0164441Y0181575D01*
X0164441Y0183936D02*
X0123762Y0183936D01*
X0123948Y0172132D02*
X0132488Y0172132D01*
X0134260Y0169772D02*
X0126833Y0169772D01*
X0129718Y0167411D02*
X0164795Y0167411D01*
X0164641Y0165050D02*
X0132604Y0165050D01*
X0139000Y0169772D02*
X0141362Y0169772D01*
X0141362Y0172132D02*
X0139000Y0172132D01*
X0139000Y0174493D02*
X0141362Y0174493D01*
X0146102Y0169772D02*
X0188700Y0169772D01*
X0188700Y0172132D02*
X0147874Y0172132D01*
X0147874Y0174493D02*
X0188700Y0174493D01*
X0188700Y0176854D02*
X0173568Y0176854D01*
X0173485Y0176711D02*
X0173773Y0177208D01*
X0173921Y0177763D01*
X0173921Y0184448D01*
X0169280Y0184448D01*
X0169280Y0175869D01*
X0172027Y0175869D01*
X0172582Y0176018D01*
X0173079Y0176305D01*
X0173485Y0176711D01*
X0173921Y0179215D02*
X0188700Y0179215D01*
X0188700Y0181575D02*
X0173921Y0181575D01*
X0173921Y0183936D02*
X0188700Y0183936D01*
X0188700Y0186297D02*
X0173921Y0186297D01*
X0173921Y0188657D02*
X0188700Y0188657D01*
X0188700Y0191018D02*
X0173921Y0191018D01*
X0169280Y0191018D02*
X0169083Y0191018D01*
X0169083Y0188657D02*
X0169280Y0188657D01*
X0169280Y0186297D02*
X0169083Y0186297D01*
X0169083Y0183936D02*
X0169280Y0183936D01*
X0169280Y0181575D02*
X0169083Y0181575D01*
X0169083Y0179215D02*
X0169280Y0179215D01*
X0169280Y0176854D02*
X0169083Y0176854D01*
X0173567Y0167411D02*
X0188700Y0167411D01*
X0188700Y0165050D02*
X0173721Y0165050D01*
X0173721Y0162690D02*
X0188700Y0162690D01*
X0188700Y0160329D02*
X0173721Y0160329D01*
X0173721Y0157968D02*
X0188700Y0157968D01*
X0188700Y0155607D02*
X0173721Y0155607D01*
X0173721Y0153247D02*
X0188700Y0153247D01*
X0188700Y0150886D02*
X0171662Y0150886D01*
X0171662Y0148525D02*
X0185226Y0148525D01*
X0183002Y0146165D02*
X0171662Y0146165D01*
X0171662Y0143804D02*
X0182600Y0143804D01*
X0183420Y0141443D02*
X0172200Y0141443D01*
X0172312Y0139082D02*
X0196850Y0139082D01*
X0196850Y0129640D02*
X0194361Y0129640D01*
X0196707Y0127279D02*
X0196850Y0127279D01*
X0196850Y0120197D02*
X0195696Y0120197D01*
X0196850Y0117836D02*
X0193316Y0117836D01*
X0193316Y0115475D02*
X0196850Y0115475D01*
X0196850Y0113115D02*
X0193316Y0113115D01*
X0193316Y0110754D02*
X0196850Y0110754D01*
X0196850Y0108393D02*
X0193316Y0108393D01*
X0193316Y0106032D02*
X0196850Y0106032D01*
X0196850Y0103672D02*
X0193316Y0103672D01*
X0193316Y0101311D02*
X0196850Y0101311D01*
X0196850Y0098950D02*
X0193316Y0098950D01*
X0193316Y0096590D02*
X0196850Y0096590D01*
X0196850Y0094229D02*
X0193316Y0094229D01*
X0193316Y0091868D02*
X0196850Y0091868D01*
X0196850Y0089507D02*
X0193316Y0089507D01*
X0193316Y0087147D02*
X0196850Y0087147D01*
X0196850Y0084786D02*
X0193316Y0084786D01*
X0193316Y0082425D02*
X0196850Y0082425D01*
X0196850Y0080065D02*
X0193316Y0080065D01*
X0193316Y0077704D02*
X0196850Y0077704D01*
X0196850Y0075343D02*
X0193316Y0075343D01*
X0193316Y0072982D02*
X0196850Y0072982D01*
X0196850Y0070622D02*
X0193316Y0070622D01*
X0193316Y0068261D02*
X0196850Y0068261D01*
X0196850Y0065900D02*
X0193316Y0065900D01*
X0193316Y0063540D02*
X0196850Y0063540D01*
X0196850Y0061179D02*
X0193316Y0061179D01*
X0193833Y0058818D02*
X0196850Y0058818D01*
X0196850Y0056457D02*
X0194753Y0056457D01*
X0194753Y0054097D02*
X0196850Y0054097D01*
X0196850Y0051736D02*
X0194753Y0051736D01*
X0194753Y0049375D02*
X0196850Y0049375D01*
X0196850Y0047014D02*
X0193316Y0047014D01*
X0193316Y0044654D02*
X0196850Y0044654D01*
X0196850Y0042293D02*
X0193316Y0042293D01*
X0193316Y0039932D02*
X0196850Y0039932D01*
X0196850Y0037572D02*
X0193316Y0037572D01*
X0193316Y0035211D02*
X0196850Y0035211D01*
X0196850Y0032850D02*
X0194753Y0032850D01*
X0194753Y0030489D02*
X0196850Y0030489D01*
X0196850Y0028129D02*
X0194753Y0028129D01*
X0194753Y0025768D02*
X0196850Y0025768D01*
X0196850Y0023407D02*
X0193990Y0023407D01*
X0196850Y0021047D02*
X0021204Y0021047D01*
X0023303Y0018686D02*
X0109500Y0018686D01*
X0109105Y0016325D02*
X0023697Y0016325D01*
X0023697Y0013964D02*
X0109105Y0013964D01*
X0109362Y0011604D02*
X0023440Y0011604D01*
X0016323Y0021047D02*
X0004362Y0021047D01*
X0004362Y0023407D02*
X0013987Y0023407D01*
X0013433Y0025768D02*
X0004362Y0025768D01*
X0004362Y0028129D02*
X0013956Y0028129D01*
X0016142Y0030489D02*
X0004362Y0030489D01*
X0004362Y0032850D02*
X0009745Y0032850D01*
X0009980Y0032282D02*
X0010870Y0031392D01*
X0012032Y0030911D01*
X0015652Y0030911D01*
X0016814Y0031392D01*
X0017704Y0032282D01*
X0018185Y0033444D01*
X0018185Y0042970D01*
X0017704Y0044132D01*
X0016814Y0045022D01*
X0015652Y0045503D01*
X0012032Y0045503D01*
X0010870Y0045022D01*
X0009980Y0044132D01*
X0009499Y0042970D01*
X0009499Y0033444D01*
X0009980Y0032282D01*
X0009499Y0035211D02*
X0004362Y0035211D01*
X0004362Y0037572D02*
X0009499Y0037572D01*
X0009499Y0039932D02*
X0004362Y0039932D01*
X0004362Y0042293D02*
X0009499Y0042293D01*
X0010502Y0044654D02*
X0004362Y0044654D01*
X0004362Y0047014D02*
X0161457Y0047014D01*
X0161457Y0047783D02*
X0161457Y0045506D01*
X0162328Y0043402D01*
X0163938Y0041792D01*
X0166042Y0040920D01*
X0168320Y0040920D01*
X0170424Y0041792D01*
X0172034Y0043402D01*
X0172905Y0045506D01*
X0172905Y0047783D01*
X0172034Y0049887D01*
X0170424Y0051498D01*
X0168320Y0052369D01*
X0166042Y0052369D01*
X0163938Y0051498D01*
X0162328Y0049887D01*
X0161457Y0047783D01*
X0162116Y0049375D02*
X0151646Y0049375D01*
X0151646Y0048917D02*
X0151646Y0052353D01*
X0146315Y0052353D01*
X0146315Y0047023D01*
X0149752Y0047023D01*
X0150306Y0047171D01*
X0150804Y0047458D01*
X0151210Y0047864D01*
X0151497Y0048362D01*
X0151646Y0048917D01*
X0151646Y0051736D02*
X0164514Y0051736D01*
X0161810Y0044654D02*
X0122300Y0044654D01*
X0121932Y0045022D02*
X0122822Y0044132D01*
X0123303Y0042970D01*
X0123303Y0033444D01*
X0122822Y0032282D01*
X0121932Y0031392D01*
X0120770Y0030911D01*
X0117150Y0030911D01*
X0115988Y0031392D01*
X0115098Y0032282D01*
X0114617Y0033444D01*
X0114617Y0042970D01*
X0115098Y0044132D01*
X0115988Y0045022D01*
X0117150Y0045503D01*
X0120770Y0045503D01*
X0121932Y0045022D01*
X0123303Y0042293D02*
X0163437Y0042293D01*
X0170925Y0042293D02*
X0184354Y0042293D01*
X0184354Y0039932D02*
X0123303Y0039932D01*
X0123303Y0037572D02*
X0184354Y0037572D01*
X0184354Y0035211D02*
X0123303Y0035211D01*
X0123057Y0032850D02*
X0139409Y0032850D01*
X0139409Y0033152D02*
X0139409Y0029715D01*
X0144740Y0029715D01*
X0144740Y0028141D01*
X0139409Y0028141D01*
X0139409Y0024704D01*
X0139558Y0024149D01*
X0139845Y0023652D01*
X0140251Y0023246D01*
X0140749Y0022959D01*
X0141303Y0022810D01*
X0144740Y0022810D01*
X0144740Y0028141D01*
X0146315Y0028141D01*
X0146315Y0029715D01*
X0151646Y0029715D01*
X0151646Y0033152D01*
X0151497Y0033707D01*
X0151210Y0034204D01*
X0150804Y0034610D01*
X0150306Y0034898D01*
X0149752Y0035046D01*
X0146315Y0035046D01*
X0146315Y0029716D01*
X0144740Y0029716D01*
X0144740Y0035046D01*
X0141303Y0035046D01*
X0140749Y0034898D01*
X0140251Y0034610D01*
X0139845Y0034204D01*
X0139558Y0033707D01*
X0139409Y0033152D01*
X0139409Y0030489D02*
X0021385Y0030489D01*
X0021874Y0030911D02*
X0025495Y0030911D01*
X0026657Y0031392D01*
X0027546Y0032282D01*
X0028028Y0033444D01*
X0028028Y0042970D01*
X0027546Y0044132D01*
X0026657Y0045022D01*
X0025495Y0045503D01*
X0021874Y0045503D01*
X0020712Y0045022D01*
X0019823Y0044132D01*
X0019341Y0042970D01*
X0019341Y0033444D01*
X0019823Y0032282D01*
X0020712Y0031392D01*
X0021874Y0030911D01*
X0019587Y0032850D02*
X0017939Y0032850D01*
X0018185Y0035211D02*
X0019341Y0035211D01*
X0019341Y0037572D02*
X0018185Y0037572D01*
X0018185Y0039932D02*
X0019341Y0039932D01*
X0019341Y0042293D02*
X0018185Y0042293D01*
X0017182Y0044654D02*
X0020344Y0044654D01*
X0022504Y0034073D02*
X0024866Y0034073D01*
X0022504Y0034073D02*
X0022504Y0042341D01*
X0024866Y0042341D01*
X0024866Y0034073D01*
X0024866Y0036434D02*
X0022504Y0036434D01*
X0022504Y0038795D02*
X0024866Y0038795D01*
X0024866Y0041156D02*
X0022504Y0041156D01*
X0028028Y0042293D02*
X0104774Y0042293D01*
X0104774Y0042970D02*
X0104774Y0033444D01*
X0105256Y0032282D01*
X0106145Y0031392D01*
X0107308Y0030911D01*
X0110928Y0030911D01*
X0112090Y0031392D01*
X0112980Y0032282D01*
X0113461Y0033444D01*
X0113461Y0042970D01*
X0112980Y0044132D01*
X0112090Y0045022D01*
X0110928Y0045503D01*
X0107308Y0045503D01*
X0106145Y0045022D01*
X0105256Y0044132D01*
X0104774Y0042970D01*
X0105777Y0044654D02*
X0027025Y0044654D01*
X0028028Y0039932D02*
X0104774Y0039932D01*
X0104774Y0037572D02*
X0028028Y0037572D01*
X0028028Y0035211D02*
X0104774Y0035211D01*
X0105020Y0032850D02*
X0027782Y0032850D01*
X0023571Y0028129D02*
X0110297Y0028129D01*
X0110354Y0028268D02*
X0109692Y0026670D01*
X0109692Y0024941D01*
X0110354Y0023343D01*
X0111577Y0022121D01*
X0113174Y0021459D01*
X0114903Y0021459D01*
X0116501Y0022121D01*
X0117724Y0023343D01*
X0118385Y0024941D01*
X0118385Y0026670D01*
X0117724Y0028268D01*
X0116501Y0029490D01*
X0114903Y0030152D01*
X0113174Y0030152D01*
X0111577Y0029490D01*
X0110354Y0028268D01*
X0109692Y0025768D02*
X0024094Y0025768D01*
X0023540Y0023407D02*
X0110328Y0023407D01*
X0117750Y0023407D02*
X0140090Y0023407D01*
X0139409Y0025768D02*
X0118385Y0025768D01*
X0117781Y0028129D02*
X0139409Y0028129D01*
X0144740Y0028129D02*
X0146315Y0028129D01*
X0146315Y0028141D02*
X0146315Y0022810D01*
X0149752Y0022810D01*
X0150306Y0022959D01*
X0150804Y0023246D01*
X0151210Y0023652D01*
X0151497Y0024149D01*
X0151646Y0024704D01*
X0151646Y0028141D01*
X0146315Y0028141D01*
X0146315Y0030489D02*
X0144740Y0030489D01*
X0144740Y0032850D02*
X0146315Y0032850D01*
X0151646Y0032850D02*
X0163564Y0032850D01*
X0164161Y0033447D02*
X0162662Y0031948D01*
X0161850Y0029988D01*
X0161850Y0027868D01*
X0162662Y0025908D01*
X0164161Y0024409D01*
X0166121Y0023597D01*
X0168241Y0023597D01*
X0170201Y0024409D01*
X0171700Y0025908D01*
X0172512Y0027868D01*
X0172512Y0029988D01*
X0171700Y0031948D01*
X0170201Y0033447D01*
X0168241Y0034259D01*
X0166121Y0034259D01*
X0164161Y0033447D01*
X0162058Y0030489D02*
X0151646Y0030489D01*
X0151646Y0028129D02*
X0161850Y0028129D01*
X0162802Y0025768D02*
X0151646Y0025768D01*
X0150965Y0023407D02*
X0183680Y0023407D01*
X0182917Y0025768D02*
X0171560Y0025768D01*
X0172512Y0028129D02*
X0182917Y0028129D01*
X0182917Y0030489D02*
X0172304Y0030489D01*
X0170798Y0032850D02*
X0182917Y0032850D01*
X0184354Y0044654D02*
X0172553Y0044654D01*
X0172905Y0047014D02*
X0184354Y0047014D01*
X0182917Y0049375D02*
X0172246Y0049375D01*
X0169848Y0051736D02*
X0182917Y0051736D01*
X0182917Y0054097D02*
X0151646Y0054097D01*
X0151646Y0053928D02*
X0151646Y0057365D01*
X0151497Y0057920D01*
X0151210Y0058417D01*
X0150804Y0058823D01*
X0150306Y0059110D01*
X0149752Y0059259D01*
X0146315Y0059259D01*
X0146315Y0053928D01*
X0151646Y0053928D01*
X0151646Y0056457D02*
X0182917Y0056457D01*
X0183836Y0058818D02*
X0150809Y0058818D01*
X0146315Y0058818D02*
X0144740Y0058818D01*
X0144740Y0059259D02*
X0141303Y0059259D01*
X0140749Y0059110D01*
X0140251Y0058823D01*
X0139845Y0058417D01*
X0139558Y0057920D01*
X0139409Y0057365D01*
X0139409Y0053928D01*
X0144740Y0053928D01*
X0144740Y0052353D01*
X0146315Y0052353D01*
X0146315Y0053928D01*
X0144740Y0053928D01*
X0144740Y0059259D01*
X0144740Y0056457D02*
X0146315Y0056457D01*
X0146315Y0054097D02*
X0144740Y0054097D01*
X0144740Y0052353D02*
X0139409Y0052353D01*
X0139409Y0048917D01*
X0139558Y0048362D01*
X0139845Y0047864D01*
X0140251Y0047458D01*
X0140749Y0047171D01*
X0141303Y0047023D01*
X0144740Y0047023D01*
X0144740Y0052353D01*
X0144740Y0051736D02*
X0146315Y0051736D01*
X0146315Y0049375D02*
X0144740Y0049375D01*
X0139409Y0049375D02*
X0004362Y0049375D01*
X0004362Y0051736D02*
X0139409Y0051736D01*
X0139409Y0054097D02*
X0138509Y0054097D01*
X0138921Y0056457D02*
X0139409Y0056457D01*
X0138921Y0058818D02*
X0140246Y0058818D01*
X0137817Y0061179D02*
X0184354Y0061179D01*
X0184354Y0063540D02*
X0138721Y0063540D01*
X0138721Y0065900D02*
X0184354Y0065900D01*
X0184354Y0068261D02*
X0138662Y0068261D01*
X0140972Y0070622D02*
X0184354Y0070622D01*
X0184354Y0072982D02*
X0183006Y0072982D01*
X0183178Y0075343D02*
X0184354Y0075343D01*
X0184354Y0077704D02*
X0183178Y0077704D01*
X0183178Y0080065D02*
X0184354Y0080065D01*
X0184354Y0082425D02*
X0183178Y0082425D01*
X0183178Y0084786D02*
X0184354Y0084786D01*
X0184354Y0087147D02*
X0183178Y0087147D01*
X0183178Y0089507D02*
X0184354Y0089507D01*
X0184354Y0091868D02*
X0183178Y0091868D01*
X0183178Y0094229D02*
X0184354Y0094229D01*
X0184354Y0096590D02*
X0183178Y0096590D01*
X0183178Y0098950D02*
X0184354Y0098950D01*
X0184354Y0101311D02*
X0183178Y0101311D01*
X0183178Y0103672D02*
X0184354Y0103672D01*
X0184354Y0106032D02*
X0183178Y0106032D01*
X0183178Y0108393D02*
X0184354Y0108393D01*
X0184354Y0110754D02*
X0183178Y0110754D01*
X0183178Y0113115D02*
X0184354Y0113115D01*
X0184354Y0115475D02*
X0147599Y0115475D01*
X0145238Y0117836D02*
X0184354Y0117836D01*
X0184354Y0120197D02*
X0142878Y0120197D01*
X0140762Y0122557D02*
X0182904Y0122557D01*
X0182600Y0124918D02*
X0171319Y0124918D01*
X0172312Y0127279D02*
X0183655Y0127279D01*
X0186001Y0129640D02*
X0172312Y0129640D01*
X0163043Y0124918D02*
X0151553Y0124918D01*
X0151670Y0124986D02*
X0152076Y0125392D01*
X0152363Y0125889D01*
X0152512Y0126444D01*
X0152512Y0133227D01*
X0147575Y0133227D01*
X0147575Y0124550D01*
X0150618Y0124550D01*
X0151173Y0124699D01*
X0151670Y0124986D01*
X0152512Y0127279D02*
X0162050Y0127279D01*
X0162050Y0129640D02*
X0152512Y0129640D01*
X0152512Y0132000D02*
X0162050Y0132000D01*
X0162050Y0134361D02*
X0152512Y0134361D01*
X0152512Y0134015D02*
X0152512Y0140798D01*
X0152363Y0141353D01*
X0152076Y0141850D01*
X0151670Y0142256D01*
X0151173Y0142543D01*
X0150618Y0142692D01*
X0147575Y0142692D01*
X0147575Y0134015D01*
X0146787Y0134015D01*
X0146787Y0133227D01*
X0141850Y0133227D01*
X0141850Y0126444D01*
X0141999Y0125889D01*
X0142286Y0125392D01*
X0142692Y0124986D01*
X0143190Y0124699D01*
X0143744Y0124550D01*
X0146787Y0124550D01*
X0146787Y0133227D01*
X0147575Y0133227D01*
X0147575Y0134015D01*
X0152512Y0134015D01*
X0152512Y0136722D02*
X0162050Y0136722D01*
X0162050Y0139082D02*
X0152512Y0139082D01*
X0152311Y0141443D02*
X0162162Y0141443D01*
X0159181Y0143804D02*
X0159181Y0143804D01*
X0159181Y0146165D02*
X0159181Y0146165D01*
X0159181Y0148525D02*
X0159181Y0148525D01*
X0159181Y0150886D02*
X0159181Y0150886D01*
X0161608Y0150886D02*
X0162700Y0150886D01*
X0162700Y0153247D02*
X0148762Y0153247D01*
X0148762Y0155607D02*
X0162700Y0155607D01*
X0162757Y0157968D02*
X0148762Y0157968D01*
X0148762Y0160329D02*
X0164055Y0160329D01*
X0164641Y0162690D02*
X0148376Y0162690D01*
X0148762Y0150886D02*
X0156754Y0150886D01*
X0154667Y0148525D02*
X0148762Y0148525D01*
X0148528Y0146165D02*
X0154638Y0146165D01*
X0154698Y0143804D02*
X0146392Y0143804D01*
X0146787Y0141443D02*
X0147575Y0141443D01*
X0147575Y0139082D02*
X0146787Y0139082D01*
X0146787Y0136722D02*
X0147575Y0136722D01*
X0147575Y0134361D02*
X0146787Y0134361D01*
X0146787Y0132000D02*
X0147575Y0132000D01*
X0147575Y0129640D02*
X0146787Y0129640D01*
X0146787Y0127279D02*
X0147575Y0127279D01*
X0147575Y0124918D02*
X0146787Y0124918D01*
X0142810Y0124918D02*
X0140762Y0124918D01*
X0140762Y0127279D02*
X0141850Y0127279D01*
X0141850Y0129640D02*
X0140762Y0129640D01*
X0140762Y0132000D02*
X0141850Y0132000D01*
X0141850Y0134361D02*
X0140762Y0134361D01*
X0140762Y0136722D02*
X0141850Y0136722D01*
X0141850Y0139082D02*
X0141671Y0139082D01*
X0124600Y0139082D02*
X0107353Y0139082D01*
X0106466Y0141443D02*
X0124600Y0141443D01*
X0124600Y0143804D02*
X0103343Y0143804D01*
X0103543Y0146165D02*
X0124600Y0146165D01*
X0123249Y0148525D02*
X0103502Y0148525D01*
X0103543Y0148320D02*
X0103446Y0148809D01*
X0103255Y0149271D01*
X0102977Y0149686D01*
X0102624Y0150039D01*
X0102209Y0150317D01*
X0101747Y0150508D01*
X0101258Y0150605D01*
X0100181Y0150605D01*
X0100181Y0147243D01*
X0100181Y0147243D01*
X0100181Y0147243D01*
X0103543Y0147243D01*
X0103543Y0148320D01*
X0100181Y0148525D02*
X0100181Y0148525D01*
X0096047Y0150886D02*
X0120888Y0150886D01*
X0118527Y0153247D02*
X0095235Y0153247D01*
X0097351Y0155607D02*
X0116166Y0155607D01*
X0124600Y0136722D02*
X0106145Y0136722D01*
X0102217Y0136722D02*
X0036762Y0136722D01*
X0036762Y0139082D02*
X0100833Y0139082D01*
X0097025Y0141443D02*
X0036762Y0141443D01*
X0036270Y0143804D02*
X0096111Y0143804D01*
X0093751Y0146165D02*
X0033910Y0146165D01*
X0031549Y0148525D02*
X0091390Y0148525D01*
X0089029Y0150886D02*
X0030762Y0150886D01*
X0030762Y0153247D02*
X0032669Y0153247D01*
X0027762Y0145012D02*
X0030169Y0142605D01*
X0029181Y0142605D01*
X0028105Y0142605D01*
X0027762Y0142537D01*
X0027762Y0145012D01*
X0027762Y0143804D02*
X0028970Y0143804D01*
X0029181Y0142605D02*
X0029181Y0139243D01*
X0029181Y0139243D01*
X0029181Y0142605D01*
X0029181Y0141443D02*
X0029181Y0141443D01*
X0022600Y0143804D02*
X0014343Y0143804D01*
X0014343Y0146165D02*
X0022600Y0146165D01*
X0022600Y0148525D02*
X0014343Y0148525D01*
X0014343Y0150886D02*
X0022600Y0150886D01*
X0022600Y0153247D02*
X0014343Y0153247D01*
X0014343Y0155607D02*
X0022600Y0155607D01*
X0022600Y0157968D02*
X0014343Y0157968D01*
X0014343Y0160329D02*
X0022600Y0160329D01*
X0022600Y0162690D02*
X0014343Y0162690D01*
X0014343Y0165050D02*
X0022600Y0165050D01*
X0022600Y0167411D02*
X0014343Y0167411D01*
X0014343Y0169772D02*
X0022600Y0169772D01*
X0022600Y0172132D02*
X0014343Y0172132D01*
X0014343Y0174493D02*
X0022600Y0174493D01*
X0023142Y0176854D02*
X0014343Y0176854D01*
X0014343Y0179215D02*
X0025502Y0179215D01*
X0027863Y0181575D02*
X0014343Y0181575D01*
X0016346Y0183936D02*
X0026289Y0183936D01*
X0026185Y0186297D02*
X0018707Y0186297D01*
X0021068Y0188657D02*
X0028945Y0188657D01*
X0028625Y0191018D02*
X0023428Y0191018D01*
X0025789Y0193379D02*
X0028770Y0193379D01*
X0028625Y0195740D02*
X0028150Y0195740D01*
X0023927Y0200461D02*
X0004362Y0200461D01*
X0004362Y0198100D02*
X0021566Y0198100D01*
X0019206Y0195740D02*
X0004362Y0195740D01*
X0004362Y0193379D02*
X0016845Y0193379D01*
X0014484Y0191018D02*
X0004362Y0191018D01*
X0004362Y0188657D02*
X0012123Y0188657D01*
X0009763Y0186297D02*
X0004362Y0186297D01*
X0004362Y0183936D02*
X0008045Y0183936D01*
X0008019Y0181575D02*
X0004362Y0181575D01*
X0004362Y0179215D02*
X0008019Y0179215D01*
X0008019Y0176854D02*
X0004362Y0176854D01*
X0004362Y0174493D02*
X0008019Y0174493D01*
X0008019Y0172132D02*
X0004362Y0172132D01*
X0004362Y0169772D02*
X0008019Y0169772D01*
X0008019Y0167411D02*
X0004362Y0167411D01*
X0004362Y0165050D02*
X0008019Y0165050D01*
X0008019Y0162690D02*
X0004362Y0162690D01*
X0004362Y0160329D02*
X0008019Y0160329D01*
X0008019Y0157968D02*
X0004362Y0157968D01*
X0004362Y0155607D02*
X0008019Y0155607D01*
X0008019Y0153247D02*
X0004362Y0153247D01*
X0004362Y0150886D02*
X0008019Y0150886D01*
X0008019Y0148525D02*
X0004362Y0148525D01*
X0004362Y0146165D02*
X0008019Y0146165D01*
X0008019Y0143804D02*
X0004362Y0143804D01*
X0004362Y0141443D02*
X0008019Y0141443D01*
X0008019Y0139082D02*
X0004362Y0139082D01*
X0004362Y0136722D02*
X0008019Y0136722D01*
X0008019Y0134361D02*
X0004362Y0134361D01*
X0004362Y0132000D02*
X0008019Y0132000D01*
X0008019Y0129640D02*
X0004362Y0129640D01*
X0004362Y0127279D02*
X0008019Y0127279D01*
X0009034Y0124918D02*
X0004362Y0124918D01*
X0004362Y0122557D02*
X0011395Y0122557D01*
X0013755Y0120197D02*
X0004362Y0120197D01*
X0004362Y0117836D02*
X0015671Y0117836D01*
X0018397Y0115475D02*
X0004362Y0115475D01*
X0004362Y0113115D02*
X0124600Y0113115D01*
X0124600Y0115475D02*
X0019965Y0115475D01*
X0019181Y0119243D02*
X0025181Y0119243D01*
X0022811Y0122557D02*
X0021060Y0122557D01*
X0019181Y0119243D02*
X0011181Y0127243D01*
X0011181Y0183243D01*
X0030181Y0202243D01*
X0024669Y0201983D02*
X0024669Y0207442D01*
X0024669Y0207442D01*
X0024669Y0207442D01*
X0024669Y0201983D01*
X0024669Y0202822D02*
X0024669Y0202822D01*
X0024669Y0205182D02*
X0024669Y0205182D01*
X0027818Y0208101D02*
X0027818Y0213880D01*
X0028181Y0214243D01*
X0044181Y0214243D01*
X0046688Y0212265D02*
X0056419Y0212265D01*
X0056445Y0212396D02*
X0056346Y0211898D01*
X0056346Y0208101D01*
X0056346Y0204304D01*
X0056445Y0203807D01*
X0056639Y0203338D01*
X0056921Y0202917D01*
X0057279Y0202558D01*
X0057701Y0202276D01*
X0058170Y0202082D01*
X0058667Y0201983D01*
X0059314Y0201983D01*
X0059314Y0208101D01*
X0056346Y0208101D01*
X0059314Y0208101D01*
X0059314Y0208101D01*
X0059315Y0208101D01*
X0059314Y0208101D01*
X0059314Y0214219D01*
X0058667Y0214219D01*
X0058170Y0214120D01*
X0057701Y0213926D01*
X0057279Y0213645D01*
X0056921Y0213286D01*
X0056639Y0212864D01*
X0056445Y0212396D01*
X0056346Y0209904D02*
X0046335Y0209904D01*
X0046335Y0207543D02*
X0056346Y0207543D01*
X0056346Y0205182D02*
X0046335Y0205182D01*
X0046253Y0202822D02*
X0057016Y0202822D01*
X0059314Y0202822D02*
X0059315Y0202822D01*
X0059314Y0205182D02*
X0059315Y0205182D01*
X0059314Y0207543D02*
X0059315Y0207543D01*
X0059314Y0209904D02*
X0059315Y0209904D01*
X0059314Y0212265D02*
X0059315Y0212265D01*
X0059883Y0214625D02*
X0048049Y0214625D01*
X0049353Y0216986D02*
X0059009Y0216986D01*
X0059799Y0219347D02*
X0048563Y0219347D01*
X0046181Y0217243D02*
X0021519Y0217243D01*
X0021519Y0208101D01*
X0018357Y0207543D02*
X0004362Y0207543D01*
X0004362Y0205182D02*
X0018751Y0205182D01*
X0019503Y0202822D02*
X0004362Y0202822D01*
X0004362Y0209904D02*
X0018357Y0209904D01*
X0018357Y0212265D02*
X0004362Y0212265D01*
X0004362Y0214625D02*
X0018357Y0214625D01*
X0018357Y0216986D02*
X0004362Y0216986D01*
X0004362Y0219347D02*
X0015079Y0219347D01*
X0012469Y0221707D02*
X0004362Y0221707D01*
X0004362Y0224068D02*
X0011858Y0224068D01*
X0012324Y0226429D02*
X0004362Y0226429D01*
X0004362Y0228790D02*
X0014235Y0228790D01*
X0014685Y0231150D02*
X0093360Y0231150D01*
X0095003Y0231150D02*
X0098438Y0231150D01*
X0097311Y0233511D02*
X0100799Y0233511D01*
X0098684Y0235872D02*
X0098685Y0235872D01*
X0098684Y0238232D02*
X0098685Y0238232D01*
X0094181Y0240243D02*
X0094181Y0234243D01*
X0091051Y0233511D02*
X0015233Y0233511D01*
X0015233Y0235872D02*
X0017176Y0235872D01*
X0017176Y0238232D02*
X0015233Y0238232D01*
X0015233Y0240593D02*
X0017176Y0240593D01*
X0017176Y0242954D02*
X0015233Y0242954D01*
X0014265Y0245315D02*
X0017363Y0245315D01*
X0016099Y0247675D02*
X0004362Y0247675D01*
X0004362Y0250036D02*
X0013738Y0250036D01*
X0011377Y0252397D02*
X0004362Y0252397D01*
X0004362Y0254758D02*
X0009016Y0254758D01*
X0006656Y0257118D02*
X0004362Y0257118D01*
X0004362Y0259479D02*
X0004704Y0259479D01*
X0004600Y0261840D02*
X0004362Y0261840D01*
X0004362Y0264200D02*
X0004600Y0264200D01*
X0004600Y0266561D02*
X0004362Y0266561D01*
X0004362Y0268922D02*
X0004600Y0268922D01*
X0004600Y0271283D02*
X0004362Y0271283D01*
X0004362Y0273643D02*
X0005931Y0273643D01*
X0007200Y0276004D02*
X0004362Y0276004D01*
X0004362Y0278365D02*
X0009258Y0278365D01*
X0004362Y0280725D02*
X0131362Y0280725D01*
X0131019Y0278365D02*
X0125104Y0278365D01*
X0127162Y0276004D02*
X0131019Y0276004D01*
X0131019Y0273643D02*
X0127162Y0273643D01*
X0128792Y0271283D02*
X0131019Y0271283D01*
X0134181Y0267243D02*
X0135181Y0266243D01*
X0135181Y0225243D01*
X0133181Y0223243D01*
X0140762Y0225147D02*
X0140762Y0258635D01*
X0141018Y0258252D01*
X0141387Y0257883D01*
X0141822Y0257592D01*
X0142305Y0257392D01*
X0142817Y0257290D01*
X0144181Y0257290D01*
X0144181Y0261243D01*
X0144181Y0261243D01*
X0144181Y0257290D01*
X0145545Y0257290D01*
X0146057Y0257392D01*
X0146540Y0257592D01*
X0146975Y0257883D01*
X0147345Y0258252D01*
X0147635Y0258687D01*
X0147835Y0259170D01*
X0147937Y0259682D01*
X0147937Y0261243D01*
X0144181Y0261243D01*
X0144181Y0261243D01*
X0147937Y0261243D01*
X0147937Y0262804D01*
X0147835Y0263316D01*
X0147635Y0263799D01*
X0147345Y0264234D01*
X0147194Y0264384D01*
X0147363Y0264554D01*
X0147737Y0265456D01*
X0147737Y0269030D01*
X0147363Y0269932D01*
X0146762Y0270533D01*
X0146762Y0270920D01*
X0147737Y0271895D01*
X0147737Y0276686D01*
X0147180Y0277243D01*
X0147737Y0277800D01*
X0147737Y0282591D01*
X0147676Y0282652D01*
X0149743Y0282652D01*
X0149743Y0274084D01*
X0150904Y0272923D01*
X0152165Y0272923D01*
X0152165Y0264681D01*
X0150904Y0264681D01*
X0149743Y0263520D01*
X0149743Y0253218D01*
X0150904Y0252057D01*
X0159365Y0252057D01*
X0158806Y0251498D01*
X0158200Y0250035D01*
X0158200Y0242451D01*
X0158806Y0240988D01*
X0159926Y0239868D01*
X0161389Y0239262D01*
X0162973Y0239262D01*
X0163901Y0239646D01*
X0163901Y0238401D01*
X0164292Y0237456D01*
X0165016Y0236732D01*
X0165961Y0236341D01*
X0167831Y0236341D01*
X0167831Y0234243D01*
X0167723Y0232592D01*
X0166869Y0229402D01*
X0165217Y0226542D01*
X0162882Y0224207D01*
X0160022Y0222556D01*
X0156832Y0221701D01*
X0155181Y0221593D01*
X0140930Y0221593D01*
X0141353Y0222612D01*
X0141353Y0223874D01*
X0140870Y0225040D01*
X0140762Y0225147D01*
X0141272Y0224068D02*
X0162642Y0224068D01*
X0165104Y0226429D02*
X0140762Y0226429D01*
X0140762Y0228790D02*
X0166515Y0228790D01*
X0167337Y0231150D02*
X0140762Y0231150D01*
X0140762Y0233511D02*
X0167784Y0233511D01*
X0167831Y0235872D02*
X0140762Y0235872D01*
X0140762Y0238232D02*
X0163970Y0238232D01*
X0162181Y0243243D02*
X0167752Y0243243D01*
X0171603Y0242954D02*
X0172559Y0242954D01*
X0172559Y0243243D02*
X0172559Y0242379D01*
X0172666Y0241844D01*
X0172874Y0241340D01*
X0172922Y0241269D01*
X0172181Y0240529D01*
X0171300Y0241410D01*
X0171603Y0242141D01*
X0171603Y0244345D01*
X0171285Y0245113D01*
X0171603Y0245881D01*
X0171603Y0246627D01*
X0172667Y0245563D01*
X0172958Y0245272D01*
X0172874Y0245146D01*
X0172666Y0244642D01*
X0172559Y0244107D01*
X0172559Y0243243D01*
X0176610Y0243243D01*
X0176610Y0243243D01*
X0172559Y0243243D01*
X0172916Y0245315D02*
X0171368Y0245315D01*
X0172116Y0240593D02*
X0172246Y0240593D01*
X0176610Y0243243D02*
X0176610Y0243243D01*
X0180661Y0243243D01*
X0176610Y0243243D01*
X0180661Y0242954D02*
X0183425Y0242954D01*
X0183527Y0245315D02*
X0180620Y0245315D01*
X0180855Y0247675D02*
X0183625Y0247675D01*
X0183625Y0250036D02*
X0179059Y0250036D01*
X0179480Y0251267D02*
X0180752Y0251267D01*
X0181306Y0251415D01*
X0181804Y0251702D01*
X0182210Y0252109D01*
X0182497Y0252606D01*
X0182646Y0253161D01*
X0182646Y0257385D01*
X0179480Y0257385D01*
X0179480Y0257385D01*
X0179480Y0251267D01*
X0179480Y0252397D02*
X0179480Y0252397D01*
X0179480Y0254758D02*
X0179480Y0254758D01*
X0179480Y0257118D02*
X0179480Y0257118D01*
X0182646Y0257118D02*
X0182814Y0257118D01*
X0182814Y0254758D02*
X0182646Y0254758D01*
X0182376Y0252397D02*
X0183635Y0252397D01*
X0187181Y0249243D02*
X0192181Y0249243D01*
X0189717Y0251708D01*
X0189717Y0258369D01*
X0196619Y0259479D02*
X0196850Y0259479D01*
X0196850Y0261840D02*
X0196619Y0261840D01*
X0196850Y0264200D02*
X0195939Y0264200D01*
X0196850Y0266561D02*
X0194198Y0266561D01*
X0194198Y0268922D02*
X0196850Y0268922D01*
X0196850Y0271283D02*
X0194198Y0271283D01*
X0196178Y0273643D02*
X0196850Y0273643D01*
X0196850Y0276004D02*
X0196619Y0276004D01*
X0196619Y0278365D02*
X0196850Y0278365D01*
X0196850Y0280725D02*
X0196619Y0280725D01*
X0182814Y0261840D02*
X0182584Y0261840D01*
X0182646Y0259479D02*
X0182814Y0259479D01*
X0187181Y0242954D02*
X0187181Y0242954D01*
X0187181Y0240593D02*
X0187181Y0240593D01*
X0183790Y0240593D02*
X0180461Y0240593D01*
X0180392Y0238232D02*
X0196850Y0238232D01*
X0196850Y0235872D02*
X0176531Y0235872D01*
X0176531Y0233511D02*
X0196850Y0233511D01*
X0196850Y0231150D02*
X0176374Y0231150D01*
X0175835Y0228790D02*
X0196850Y0228790D01*
X0196850Y0226429D02*
X0175114Y0226429D01*
X0173977Y0224068D02*
X0190706Y0224068D01*
X0188937Y0221707D02*
X0172491Y0221707D01*
X0173373Y0222812D02*
X0173373Y0222812D01*
X0170609Y0219347D02*
X0188700Y0219347D01*
X0188700Y0216986D02*
X0167784Y0216986D01*
X0166612Y0216051D02*
X0166612Y0216051D01*
X0163650Y0214625D02*
X0188700Y0214625D01*
X0188700Y0212265D02*
X0124191Y0212265D01*
X0109600Y0201983D02*
X0109600Y0199537D01*
X0109258Y0199605D01*
X0108181Y0199605D01*
X0107105Y0199605D01*
X0106615Y0199508D01*
X0106153Y0199317D01*
X0105738Y0199039D01*
X0105385Y0198686D01*
X0105107Y0198271D01*
X0104916Y0197809D01*
X0104819Y0197320D01*
X0104819Y0196243D01*
X0104819Y0195167D01*
X0104890Y0194807D01*
X0104625Y0194697D01*
X0104190Y0194407D01*
X0103821Y0194037D01*
X0103530Y0193602D01*
X0103330Y0193119D01*
X0103228Y0192607D01*
X0103228Y0191243D01*
X0103228Y0189879D01*
X0103330Y0189367D01*
X0103530Y0188884D01*
X0103624Y0188743D01*
X0103530Y0188602D01*
X0103330Y0188119D01*
X0103228Y0187607D01*
X0103228Y0186243D01*
X0103228Y0184879D01*
X0103330Y0184367D01*
X0103530Y0183884D01*
X0103627Y0183739D01*
X0102157Y0183739D01*
X0101553Y0183619D01*
X0100984Y0183383D01*
X0100472Y0183041D01*
X0100036Y0182606D01*
X0099694Y0182094D01*
X0099459Y0181525D01*
X0099339Y0180921D01*
X0099339Y0176637D01*
X0104276Y0176637D01*
X0104276Y0175849D01*
X0099339Y0175849D01*
X0099339Y0171565D01*
X0099459Y0170961D01*
X0099694Y0170392D01*
X0100036Y0169880D01*
X0100093Y0169824D01*
X0091250Y0169824D01*
X0079762Y0181312D01*
X0079762Y0196756D01*
X0079369Y0197705D01*
X0077249Y0199825D01*
X0077870Y0200446D01*
X0078353Y0201612D01*
X0078353Y0202183D01*
X0079589Y0202183D01*
X0079787Y0202381D01*
X0079984Y0202183D01*
X0082739Y0202183D01*
X0082859Y0202303D01*
X0082898Y0202276D01*
X0083367Y0202082D01*
X0083864Y0201983D01*
X0084511Y0201983D01*
X0084511Y0208101D01*
X0084511Y0208101D01*
X0084511Y0201983D01*
X0085159Y0201983D01*
X0085656Y0202082D01*
X0086125Y0202276D01*
X0086164Y0202303D01*
X0086284Y0202183D01*
X0089038Y0202183D01*
X0089236Y0202381D01*
X0089433Y0202183D01*
X0092188Y0202183D01*
X0092307Y0202303D01*
X0092347Y0202276D01*
X0092815Y0202082D01*
X0093313Y0201983D01*
X0093960Y0201983D01*
X0093960Y0208101D01*
X0093960Y0208101D01*
X0093960Y0201983D01*
X0094607Y0201983D01*
X0095105Y0202082D01*
X0095573Y0202276D01*
X0095613Y0202303D01*
X0095732Y0202183D01*
X0098487Y0202183D01*
X0098685Y0202381D01*
X0098882Y0202183D01*
X0099138Y0202183D01*
X0099009Y0201874D01*
X0099009Y0200612D01*
X0099492Y0199446D01*
X0100384Y0198554D01*
X0101550Y0198071D01*
X0102812Y0198071D01*
X0103978Y0198554D01*
X0104870Y0199446D01*
X0104919Y0199565D01*
X0107758Y0201107D01*
X0108134Y0201263D01*
X0108240Y0201369D01*
X0108372Y0201441D01*
X0108628Y0201757D01*
X0108889Y0202017D01*
X0109061Y0201983D01*
X0109600Y0201983D01*
X0109600Y0200461D02*
X0106568Y0200461D01*
X0108181Y0199605D02*
X0108181Y0196243D01*
X0104819Y0196243D01*
X0108181Y0196243D01*
X0108181Y0196243D01*
X0108181Y0196243D01*
X0108181Y0199605D01*
X0108181Y0198100D02*
X0108181Y0198100D01*
X0105037Y0198100D02*
X0102882Y0198100D01*
X0101480Y0198100D02*
X0078974Y0198100D01*
X0079762Y0195740D02*
X0104819Y0195740D01*
X0103438Y0193379D02*
X0079762Y0193379D01*
X0079762Y0191018D02*
X0103228Y0191018D01*
X0103228Y0191243D02*
X0107181Y0191243D01*
X0107181Y0191243D01*
X0103228Y0191243D01*
X0103567Y0188657D02*
X0079762Y0188657D01*
X0079762Y0186297D02*
X0103228Y0186297D01*
X0103228Y0186243D02*
X0107181Y0186243D01*
X0103228Y0186243D01*
X0103509Y0183936D02*
X0079762Y0183936D01*
X0079762Y0181575D02*
X0099480Y0181575D01*
X0099339Y0179215D02*
X0081860Y0179215D01*
X0084220Y0176854D02*
X0099339Y0176854D01*
X0099339Y0174493D02*
X0086581Y0174493D01*
X0088942Y0172132D02*
X0099339Y0172132D01*
X0107181Y0186243D02*
X0107181Y0186243D01*
X0107181Y0187487D01*
X0107181Y0191243D01*
X0107181Y0191243D01*
X0107181Y0186243D01*
X0107181Y0186243D01*
X0107181Y0186297D02*
X0107181Y0186297D01*
X0107181Y0188657D02*
X0107181Y0188657D01*
X0107181Y0191018D02*
X0107181Y0191018D01*
X0099072Y0200461D02*
X0077876Y0200461D01*
X0075181Y0202243D02*
X0075181Y0207983D01*
X0075063Y0208101D01*
X0071913Y0212265D02*
X0071913Y0212265D01*
X0075600Y0214625D02*
X0065045Y0214625D01*
X0065353Y0216986D02*
X0075600Y0216986D01*
X0075600Y0219347D02*
X0064563Y0219347D01*
X0064039Y0234267D02*
X0064039Y0240385D01*
X0064039Y0240385D01*
X0064039Y0234267D01*
X0064039Y0235872D02*
X0064039Y0235872D01*
X0064039Y0238232D02*
X0064039Y0238232D01*
X0072399Y0247675D02*
X0077206Y0247675D01*
X0076637Y0245315D02*
X0076637Y0245315D01*
X0076637Y0242954D02*
X0076637Y0242954D01*
X0076637Y0240593D02*
X0076637Y0240593D01*
X0076637Y0238232D02*
X0076637Y0238232D01*
X0076637Y0235872D02*
X0076637Y0235872D01*
X0073488Y0235872D02*
X0073488Y0235872D01*
X0073488Y0234267D02*
X0073488Y0240385D01*
X0073488Y0240385D01*
X0073488Y0234267D01*
X0073488Y0238232D02*
X0073488Y0238232D01*
X0073488Y0240593D02*
X0073488Y0240593D01*
X0073488Y0242954D02*
X0073488Y0242954D01*
X0073488Y0245315D02*
X0073488Y0245315D01*
X0075738Y0250036D02*
X0070038Y0250036D01*
X0067678Y0252397D02*
X0074600Y0252397D01*
X0074600Y0254758D02*
X0065317Y0254758D01*
X0064461Y0259479D02*
X0069618Y0259479D01*
X0072181Y0259479D02*
X0072181Y0259479D01*
X0072181Y0261840D02*
X0072181Y0261840D01*
X0072181Y0264200D02*
X0072181Y0264200D01*
X0069533Y0268922D02*
X0064547Y0268922D01*
X0066265Y0271283D02*
X0068097Y0271283D01*
X0067200Y0273643D02*
X0067162Y0273643D01*
X0067162Y0276004D02*
X0067200Y0276004D01*
X0069258Y0278365D02*
X0065104Y0278365D01*
X0059258Y0278365D02*
X0055104Y0278365D01*
X0057162Y0276004D02*
X0057200Y0276004D01*
X0057162Y0273643D02*
X0057200Y0273643D01*
X0049258Y0278365D02*
X0045104Y0278365D01*
X0047162Y0276004D02*
X0047200Y0276004D01*
X0047162Y0273643D02*
X0047200Y0273643D01*
X0039258Y0278365D02*
X0035104Y0278365D01*
X0037162Y0276004D02*
X0037200Y0276004D01*
X0037162Y0273643D02*
X0037200Y0273643D01*
X0029258Y0278365D02*
X0025104Y0278365D01*
X0027162Y0276004D02*
X0027200Y0276004D01*
X0027162Y0273643D02*
X0027200Y0273643D01*
X0019258Y0278365D02*
X0015104Y0278365D01*
X0017162Y0276004D02*
X0017200Y0276004D01*
X0017162Y0273643D02*
X0017200Y0273643D01*
X0012181Y0264243D02*
X0012181Y0259062D01*
X0012181Y0264243D01*
X0012181Y0264243D01*
X0012181Y0264200D02*
X0012181Y0264200D01*
X0012181Y0261840D02*
X0012181Y0261840D01*
X0012181Y0259479D02*
X0012181Y0259479D01*
X0012181Y0259062D02*
X0014327Y0259062D01*
X0014600Y0259335D01*
X0014600Y0257730D01*
X0014993Y0256781D01*
X0020513Y0251261D01*
X0020513Y0250561D01*
X0012012Y0259062D01*
X0012181Y0259062D01*
X0013956Y0257118D02*
X0014853Y0257118D01*
X0016317Y0254758D02*
X0017016Y0254758D01*
X0018678Y0252397D02*
X0019377Y0252397D01*
X0031974Y0252397D02*
X0033111Y0252397D01*
X0033111Y0252663D02*
X0033111Y0246503D01*
X0032543Y0246503D01*
X0032543Y0240385D01*
X0032543Y0240385D01*
X0032543Y0246503D01*
X0031974Y0246503D01*
X0031974Y0253800D01*
X0033111Y0252663D01*
X0033111Y0250036D02*
X0031974Y0250036D01*
X0031974Y0247675D02*
X0033111Y0247675D01*
X0032543Y0245315D02*
X0032543Y0245315D01*
X0032543Y0242954D02*
X0032543Y0242954D01*
X0032543Y0240593D02*
X0032543Y0240593D01*
X0032543Y0240385D02*
X0032543Y0234267D01*
X0032543Y0240385D01*
X0032543Y0240385D01*
X0032543Y0238232D02*
X0032543Y0238232D01*
X0032543Y0235872D02*
X0032543Y0235872D01*
X0022519Y0224068D02*
X0076356Y0224068D01*
X0076719Y0224431D02*
X0076719Y0224431D01*
X0078717Y0226429D02*
X0022053Y0226429D01*
X0020142Y0228790D02*
X0081077Y0228790D01*
X0080993Y0228705D02*
X0080993Y0228705D01*
X0085250Y0222662D02*
X0087219Y0222662D01*
X0085624Y0220467D01*
X0084696Y0217609D01*
X0084696Y0214219D01*
X0084511Y0214219D01*
X0083864Y0214219D01*
X0083762Y0214199D01*
X0083762Y0221174D01*
X0085250Y0222662D01*
X0084296Y0221707D02*
X0086525Y0221707D01*
X0085624Y0220467D02*
X0085624Y0220467D01*
X0085260Y0219347D02*
X0083762Y0219347D01*
X0083762Y0216986D02*
X0084696Y0216986D01*
X0084696Y0214625D02*
X0083762Y0214625D01*
X0084511Y0214219D02*
X0084511Y0208101D01*
X0084511Y0208101D01*
X0084511Y0214219D01*
X0084511Y0212265D02*
X0084511Y0212265D01*
X0084511Y0209904D02*
X0084511Y0209904D01*
X0084511Y0207543D02*
X0084511Y0207543D01*
X0084511Y0205182D02*
X0084511Y0205182D01*
X0084511Y0202822D02*
X0084511Y0202822D01*
X0093960Y0202822D02*
X0093960Y0202822D01*
X0093960Y0205182D02*
X0093960Y0205182D01*
X0093960Y0207543D02*
X0093960Y0207543D01*
X0075600Y0221707D02*
X0021908Y0221707D01*
X0041992Y0234267D02*
X0041992Y0240385D01*
X0041992Y0234267D01*
X0041992Y0235872D02*
X0041992Y0235872D01*
X0041992Y0238232D02*
X0041992Y0238232D01*
X0041992Y0240385D02*
X0041992Y0240385D01*
X0041992Y0240593D02*
X0041992Y0240593D01*
X0041992Y0242954D02*
X0041992Y0242954D01*
X0041992Y0245315D02*
X0041992Y0245315D01*
X0041423Y0247675D02*
X0047099Y0247675D01*
X0049459Y0245315D02*
X0044556Y0245315D01*
X0044960Y0242954D02*
X0051820Y0242954D01*
X0054181Y0240593D02*
X0044960Y0240593D01*
X0044960Y0238232D02*
X0054971Y0238232D01*
X0054971Y0235872D02*
X0044771Y0235872D01*
X0044738Y0250036D02*
X0041423Y0250036D01*
X0041423Y0252397D02*
X0042377Y0252397D01*
X0062956Y0257118D02*
X0074600Y0257118D01*
X0067257Y0261840D02*
X0066822Y0261840D01*
X0066907Y0266561D02*
X0067172Y0266561D01*
X0075104Y0278365D02*
X0079258Y0278365D01*
X0077200Y0276004D02*
X0077162Y0276004D01*
X0077162Y0273643D02*
X0077200Y0273643D01*
X0085104Y0278365D02*
X0089258Y0278365D01*
X0087200Y0276004D02*
X0087162Y0276004D01*
X0087162Y0273643D02*
X0087200Y0273643D01*
X0095104Y0278365D02*
X0099258Y0278365D01*
X0097200Y0276004D02*
X0097162Y0276004D01*
X0097162Y0273643D02*
X0097200Y0273643D01*
X0104547Y0268922D02*
X0109816Y0268922D01*
X0108097Y0271283D02*
X0106265Y0271283D01*
X0107162Y0273643D02*
X0107200Y0273643D01*
X0107162Y0276004D02*
X0107200Y0276004D01*
X0109258Y0278365D02*
X0105104Y0278365D01*
X0106907Y0266561D02*
X0107455Y0266561D01*
X0107200Y0264200D02*
X0107162Y0264200D01*
X0106822Y0261840D02*
X0107540Y0261840D01*
X0109600Y0259479D02*
X0104762Y0259479D01*
X0104762Y0257118D02*
X0109600Y0257118D01*
X0109600Y0254758D02*
X0106317Y0254758D01*
X0108678Y0252397D02*
X0109600Y0252397D01*
X0097099Y0247675D02*
X0085518Y0247675D01*
X0085518Y0250036D02*
X0094738Y0250036D01*
X0092377Y0252397D02*
X0085518Y0252397D01*
X0085518Y0254758D02*
X0090016Y0254758D01*
X0087656Y0257118D02*
X0085518Y0257118D01*
X0086086Y0245315D02*
X0086086Y0245315D01*
X0086086Y0242954D02*
X0086086Y0242954D01*
X0086086Y0240593D02*
X0086086Y0240593D01*
X0086086Y0240385D02*
X0086086Y0240385D01*
X0086086Y0240385D01*
X0086267Y0240385D01*
X0089236Y0240385D01*
X0089236Y0240385D01*
X0089236Y0240385D01*
X0089236Y0234267D01*
X0088588Y0234267D01*
X0088091Y0234366D01*
X0087661Y0234544D01*
X0087231Y0234366D01*
X0086733Y0234267D01*
X0086086Y0234267D01*
X0086086Y0240385D01*
X0086086Y0238232D02*
X0086086Y0238232D01*
X0086086Y0235872D02*
X0086086Y0235872D01*
X0089236Y0235872D02*
X0089236Y0235872D01*
X0089236Y0238232D02*
X0089236Y0238232D01*
X0089236Y0240593D02*
X0089236Y0240593D01*
X0089236Y0242954D02*
X0089236Y0242954D01*
X0089236Y0245315D02*
X0089236Y0245315D01*
X0115104Y0278365D02*
X0119258Y0278365D01*
X0117200Y0276004D02*
X0117162Y0276004D01*
X0117162Y0273643D02*
X0117200Y0273643D01*
X0134181Y0278243D02*
X0134181Y0267243D01*
X0135181Y0278243D02*
X0135179Y0278303D01*
X0135174Y0278364D01*
X0135165Y0278423D01*
X0135152Y0278482D01*
X0135136Y0278541D01*
X0135116Y0278598D01*
X0135093Y0278653D01*
X0135066Y0278708D01*
X0135037Y0278760D01*
X0135004Y0278811D01*
X0134968Y0278860D01*
X0134930Y0278906D01*
X0134888Y0278950D01*
X0134844Y0278992D01*
X0134798Y0279030D01*
X0134749Y0279066D01*
X0134698Y0279099D01*
X0134646Y0279128D01*
X0134591Y0279155D01*
X0134536Y0279178D01*
X0134479Y0279198D01*
X0134420Y0279214D01*
X0134361Y0279227D01*
X0134302Y0279236D01*
X0134241Y0279241D01*
X0134181Y0279243D01*
X0135134Y0280196D01*
X0138181Y0280196D01*
X0144181Y0280196D01*
X0147737Y0280725D02*
X0149743Y0280725D01*
X0149743Y0278365D02*
X0147737Y0278365D01*
X0147737Y0276004D02*
X0149743Y0276004D01*
X0150184Y0273643D02*
X0147737Y0273643D01*
X0147125Y0271283D02*
X0152165Y0271283D01*
X0152165Y0268922D02*
X0147737Y0268922D01*
X0147737Y0266561D02*
X0152165Y0266561D01*
X0150423Y0264200D02*
X0147367Y0264200D01*
X0147937Y0261840D02*
X0149743Y0261840D01*
X0149743Y0259479D02*
X0147897Y0259479D01*
X0149743Y0257118D02*
X0140762Y0257118D01*
X0140762Y0254758D02*
X0149743Y0254758D01*
X0150564Y0252397D02*
X0140762Y0252397D01*
X0140762Y0250036D02*
X0158200Y0250036D01*
X0158200Y0247675D02*
X0140762Y0247675D01*
X0140762Y0245315D02*
X0158200Y0245315D01*
X0158200Y0242954D02*
X0140762Y0242954D01*
X0140762Y0240593D02*
X0159201Y0240593D01*
X0166181Y0253243D02*
X0166882Y0253944D01*
X0166882Y0257385D01*
X0144181Y0259479D02*
X0144181Y0259479D01*
X0135181Y0278243D02*
X0134181Y0278243D01*
X0140978Y0221707D02*
X0156857Y0221707D01*
X0149426Y0210842D02*
X0149980Y0210288D01*
X0150441Y0209654D01*
X0150797Y0208955D01*
X0151040Y0208209D01*
X0151162Y0207435D01*
X0151162Y0204243D01*
X0146181Y0204243D01*
X0141200Y0204243D01*
X0141200Y0201051D01*
X0141323Y0200277D01*
X0141565Y0199531D01*
X0141921Y0198832D01*
X0142349Y0198243D01*
X0141921Y0197654D01*
X0141565Y0196955D01*
X0141323Y0196209D01*
X0141200Y0195435D01*
X0141200Y0192243D01*
X0141200Y0189051D01*
X0141323Y0188277D01*
X0141565Y0187531D01*
X0141921Y0186832D01*
X0142382Y0186198D01*
X0142936Y0185644D01*
X0143570Y0185183D01*
X0144269Y0184827D01*
X0145015Y0184585D01*
X0145789Y0184462D01*
X0146181Y0184462D01*
X0146181Y0192243D01*
X0141200Y0192243D01*
X0146181Y0192243D01*
X0146181Y0192243D01*
X0146181Y0192243D01*
X0146181Y0204243D01*
X0146181Y0204243D01*
X0141200Y0204243D01*
X0141200Y0207435D01*
X0141323Y0208209D01*
X0141565Y0208955D01*
X0141921Y0209654D01*
X0142382Y0210288D01*
X0142936Y0210842D01*
X0143570Y0211303D01*
X0144269Y0211659D01*
X0145015Y0211901D01*
X0145789Y0212024D01*
X0146181Y0212024D01*
X0146181Y0204243D01*
X0146181Y0204243D01*
X0146181Y0204243D01*
X0146181Y0196462D01*
X0146181Y0192243D01*
X0146181Y0192243D01*
X0146181Y0184462D01*
X0146573Y0184462D01*
X0147348Y0184585D01*
X0148093Y0184827D01*
X0148792Y0185183D01*
X0149426Y0185644D01*
X0149980Y0186198D01*
X0150441Y0186832D01*
X0150797Y0187531D01*
X0151040Y0188277D01*
X0151162Y0189051D01*
X0151162Y0192243D01*
X0146181Y0192243D01*
X0146181Y0192243D01*
X0151162Y0192243D01*
X0151162Y0195435D01*
X0151040Y0196209D01*
X0150797Y0196955D01*
X0150441Y0197654D01*
X0150013Y0198243D01*
X0150441Y0198832D01*
X0150797Y0199531D01*
X0151040Y0200277D01*
X0151162Y0201051D01*
X0151162Y0204243D01*
X0146181Y0204243D01*
X0146181Y0212024D01*
X0146573Y0212024D01*
X0147348Y0211901D01*
X0148093Y0211659D01*
X0148792Y0211303D01*
X0149426Y0210842D01*
X0150260Y0209904D02*
X0188700Y0209904D01*
X0188700Y0207543D02*
X0151145Y0207543D01*
X0151162Y0205182D02*
X0188700Y0205182D01*
X0188700Y0202822D02*
X0151162Y0202822D01*
X0151069Y0200461D02*
X0188700Y0200461D01*
X0188700Y0198100D02*
X0150117Y0198100D01*
X0151114Y0195740D02*
X0188700Y0195740D01*
X0188700Y0193379D02*
X0151162Y0193379D01*
X0151162Y0191018D02*
X0164441Y0191018D01*
X0164441Y0188657D02*
X0151100Y0188657D01*
X0150052Y0186297D02*
X0164441Y0186297D01*
X0146181Y0186297D02*
X0146181Y0186297D01*
X0146181Y0188657D02*
X0146181Y0188657D01*
X0146181Y0191018D02*
X0146181Y0191018D01*
X0146181Y0193379D02*
X0146181Y0193379D01*
X0146181Y0195740D02*
X0146181Y0195740D01*
X0146181Y0198100D02*
X0146181Y0198100D01*
X0146181Y0200461D02*
X0146181Y0200461D01*
X0146181Y0202822D02*
X0146181Y0202822D01*
X0146181Y0204243D02*
X0146181Y0204243D01*
X0146181Y0205182D02*
X0146181Y0205182D01*
X0146181Y0207543D02*
X0146181Y0207543D01*
X0146181Y0209904D02*
X0146181Y0209904D01*
X0142103Y0209904D02*
X0140082Y0209904D01*
X0140962Y0207543D02*
X0141217Y0207543D01*
X0141200Y0205182D02*
X0140962Y0205182D01*
X0140962Y0202822D02*
X0141200Y0202822D01*
X0141293Y0200461D02*
X0140949Y0200461D01*
X0139885Y0198100D02*
X0142245Y0198100D01*
X0141248Y0195740D02*
X0140962Y0195740D01*
X0140962Y0193379D02*
X0141200Y0193379D01*
X0141200Y0191018D02*
X0140962Y0191018D01*
X0140962Y0188657D02*
X0141262Y0188657D01*
X0142310Y0186297D02*
X0139796Y0186297D01*
X0139000Y0181575D02*
X0141362Y0181575D01*
X0124600Y0134361D02*
X0035949Y0134361D01*
X0033511Y0132000D02*
X0124600Y0132000D01*
X0124600Y0129640D02*
X0032543Y0129640D01*
X0032281Y0127279D02*
X0124600Y0127279D01*
X0124600Y0124918D02*
X0017978Y0124918D01*
X0016660Y0127279D02*
X0015617Y0127279D01*
X0016009Y0129640D02*
X0014343Y0129640D01*
X0014343Y0132000D02*
X0017550Y0132000D01*
X0014343Y0134361D02*
X0023649Y0134361D01*
X0022746Y0136722D02*
X0021145Y0136722D01*
X0020812Y0132000D02*
X0022600Y0132000D01*
X0017217Y0136722D02*
X0014343Y0136722D01*
X0014343Y0139082D02*
X0016009Y0139082D01*
X0016896Y0141443D02*
X0014343Y0141443D01*
X0029181Y0127279D02*
X0029181Y0127279D01*
X0031181Y0122999D02*
X0031181Y0119243D01*
X0031181Y0119243D01*
X0031181Y0115487D01*
X0032742Y0115487D01*
X0033254Y0115589D01*
X0033737Y0115789D01*
X0034172Y0116080D01*
X0034541Y0116449D01*
X0034832Y0116884D01*
X0035032Y0117367D01*
X0035134Y0117879D01*
X0035134Y0119243D01*
X0035134Y0120607D01*
X0035032Y0121119D01*
X0034832Y0121602D01*
X0034541Y0122037D01*
X0034172Y0122407D01*
X0033737Y0122697D01*
X0033254Y0122897D01*
X0032742Y0122999D01*
X0031181Y0122999D01*
X0031181Y0122557D02*
X0031181Y0122557D01*
X0031181Y0120197D02*
X0031181Y0120197D01*
X0031181Y0119243D02*
X0035134Y0119243D01*
X0031181Y0119243D01*
X0031181Y0119243D01*
X0031181Y0117836D02*
X0031181Y0117836D01*
X0033946Y0122557D02*
X0124600Y0122557D01*
X0124600Y0120197D02*
X0035134Y0120197D01*
X0035125Y0117836D02*
X0124600Y0117836D01*
X0124600Y0110754D02*
X0004362Y0110754D01*
X0004362Y0108393D02*
X0124600Y0108393D01*
X0124600Y0106032D02*
X0004362Y0106032D01*
X0004362Y0103672D02*
X0124600Y0103672D01*
X0124600Y0101311D02*
X0004362Y0101311D01*
X0004362Y0098950D02*
X0124600Y0098950D01*
X0124600Y0096590D02*
X0004362Y0096590D01*
X0004362Y0094229D02*
X0124600Y0094229D01*
X0124600Y0091868D02*
X0004362Y0091868D01*
X0004362Y0089507D02*
X0124600Y0089507D01*
X0124600Y0087147D02*
X0004362Y0087147D01*
X0004362Y0084786D02*
X0124600Y0084786D01*
X0124600Y0082425D02*
X0004362Y0082425D01*
X0004362Y0080065D02*
X0124600Y0080065D01*
X0124600Y0077704D02*
X0004362Y0077704D01*
X0004362Y0075343D02*
X0124600Y0075343D01*
X0125894Y0072982D02*
X0004362Y0072982D01*
X0004362Y0070622D02*
X0129700Y0070622D01*
X0129700Y0068261D02*
X0004362Y0068261D01*
X0004362Y0065900D02*
X0129641Y0065900D01*
X0129641Y0063540D02*
X0004362Y0063540D01*
X0004362Y0061179D02*
X0130545Y0061179D01*
X0129441Y0058818D02*
X0004362Y0058818D01*
X0004362Y0056457D02*
X0129441Y0056457D01*
X0129853Y0054097D02*
X0004362Y0054097D01*
X0012661Y0034073D02*
X0015023Y0034073D01*
X0012661Y0034073D02*
X0012661Y0042341D01*
X0015023Y0042341D01*
X0015023Y0034073D01*
X0015023Y0036434D02*
X0012661Y0036434D01*
X0012661Y0038795D02*
X0015023Y0038795D01*
X0015023Y0041156D02*
X0012661Y0041156D01*
X0014224Y0018686D02*
X0004362Y0018686D01*
X0004362Y0016325D02*
X0013829Y0016325D01*
X0013829Y0013964D02*
X0004362Y0013964D01*
X0004362Y0011604D02*
X0014086Y0011604D01*
X0027551Y0122557D02*
X0028416Y0122557D01*
X0055745Y0160329D02*
X0071445Y0160329D01*
X0069084Y0162690D02*
X0054762Y0162690D01*
X0054762Y0165050D02*
X0066724Y0165050D01*
X0062063Y0167411D02*
X0061276Y0167411D01*
X0061276Y0166747D02*
X0061276Y0173849D01*
X0056339Y0173849D01*
X0056339Y0169565D01*
X0056459Y0168961D01*
X0056694Y0168392D01*
X0057036Y0167880D01*
X0057472Y0167445D01*
X0057984Y0167103D01*
X0058553Y0166867D01*
X0059157Y0166747D01*
X0061276Y0166747D01*
X0061276Y0169772D02*
X0062063Y0169772D01*
X0062063Y0172132D02*
X0061276Y0172132D01*
X0061276Y0174493D02*
X0048762Y0174493D01*
X0048762Y0172132D02*
X0056339Y0172132D01*
X0056339Y0169772D02*
X0052303Y0169772D01*
X0054491Y0167411D02*
X0057522Y0167411D01*
X0056339Y0176854D02*
X0048762Y0176854D01*
X0048762Y0179215D02*
X0056397Y0179215D01*
X0058447Y0181575D02*
X0048762Y0181575D01*
X0048762Y0183936D02*
X0060228Y0183936D01*
X0060228Y0184243D02*
X0064181Y0184243D01*
X0064181Y0184243D01*
X0060228Y0184243D01*
X0060404Y0186297D02*
X0048762Y0186297D01*
X0048762Y0188657D02*
X0060228Y0188657D01*
X0060228Y0189243D02*
X0064181Y0189243D01*
X0064181Y0189243D01*
X0060228Y0189243D01*
X0060310Y0191018D02*
X0048762Y0191018D01*
X0048762Y0193379D02*
X0061819Y0193379D01*
X0061819Y0194243D02*
X0065181Y0194243D01*
X0065181Y0194243D01*
X0061819Y0194243D01*
X0061902Y0195740D02*
X0048762Y0195740D01*
X0048762Y0198100D02*
X0061838Y0198100D01*
X0061009Y0200461D02*
X0048470Y0200461D01*
X0064181Y0189243D02*
X0064181Y0189243D01*
X0064181Y0187999D01*
X0064181Y0184243D01*
X0064181Y0184243D01*
X0064181Y0189243D01*
X0064181Y0188657D02*
X0064181Y0188657D01*
X0064181Y0186297D02*
X0064181Y0186297D01*
X0134181Y0056457D02*
X0134181Y0056457D01*
X0134181Y0054097D02*
X0134181Y0054097D01*
X0120141Y0034073D02*
X0117779Y0034073D01*
X0117779Y0042341D01*
X0120141Y0042341D01*
X0120141Y0034073D01*
X0120141Y0036434D02*
X0117779Y0036434D01*
X0117779Y0038795D02*
X0120141Y0038795D01*
X0120141Y0041156D02*
X0117779Y0041156D01*
X0114617Y0042293D02*
X0113461Y0042293D01*
X0113461Y0039932D02*
X0114617Y0039932D01*
X0114617Y0037572D02*
X0113461Y0037572D01*
X0113461Y0035211D02*
X0114617Y0035211D01*
X0114863Y0032850D02*
X0113215Y0032850D01*
X0110299Y0034073D02*
X0107937Y0034073D01*
X0107937Y0042341D01*
X0110299Y0042341D01*
X0110299Y0034073D01*
X0110299Y0036434D02*
X0107937Y0036434D01*
X0107937Y0038795D02*
X0110299Y0038795D01*
X0110299Y0041156D02*
X0107937Y0041156D01*
X0112458Y0044654D02*
X0115620Y0044654D01*
X0118578Y0018686D02*
X0196850Y0018686D01*
X0196850Y0016325D02*
X0118973Y0016325D01*
X0118973Y0013964D02*
X0196850Y0013964D01*
X0196850Y0011604D02*
X0118716Y0011604D01*
X0144740Y0023407D02*
X0146315Y0023407D01*
X0146315Y0025768D02*
X0144740Y0025768D01*
X0195656Y0224068D02*
X0196850Y0224068D01*
X0196850Y0240593D02*
X0195572Y0240593D01*
X0195937Y0242954D02*
X0196850Y0242954D01*
X0196850Y0245315D02*
X0195835Y0245315D01*
X0195737Y0247675D02*
X0196850Y0247675D01*
X0196850Y0250036D02*
X0195737Y0250036D01*
X0195798Y0252397D02*
X0196850Y0252397D01*
X0196850Y0254758D02*
X0196619Y0254758D01*
X0196619Y0257118D02*
X0196850Y0257118D01*
X0192181Y0242954D02*
X0192181Y0242954D01*
X0192181Y0240593D02*
X0192181Y0240593D01*
D14*
X0115516Y0012912D02*
X0112562Y0012912D01*
X0112562Y0017046D01*
X0115516Y0017046D01*
X0115516Y0012912D01*
X0115516Y0015864D02*
X0112562Y0015864D01*
X0020240Y0012912D02*
X0017286Y0012912D01*
X0017286Y0017046D01*
X0020240Y0017046D01*
X0020240Y0012912D01*
X0020240Y0015864D02*
X0017286Y0015864D01*
D15*
X0156646Y0258369D03*
X0156646Y0279235D03*
X0189717Y0279235D03*
X0189717Y0258369D03*
D16*
X0179480Y0257385D03*
X0176331Y0257385D03*
X0173181Y0257385D03*
X0170031Y0257385D03*
X0166882Y0257385D03*
D17*
X0144181Y0274290D03*
X0144181Y0280196D03*
X0138181Y0280196D03*
X0138181Y0274290D03*
D18*
X0136181Y0207043D02*
X0136181Y0201443D01*
X0136181Y0195043D02*
X0136181Y0189443D01*
X0146181Y0189443D02*
X0146181Y0195043D01*
X0146181Y0201443D02*
X0146181Y0207043D01*
X0187381Y0144243D02*
X0192981Y0144243D01*
X0192981Y0134243D02*
X0187381Y0134243D01*
X0187381Y0124243D02*
X0192981Y0124243D01*
D19*
X0114480Y0185140D02*
X0111882Y0185140D01*
X0111882Y0187346D01*
X0114480Y0187346D01*
X0114480Y0185140D01*
X0114480Y0186084D02*
X0111882Y0186084D01*
X0111882Y0187028D02*
X0114480Y0187028D01*
X0114480Y0192346D02*
X0111882Y0192346D01*
X0114480Y0192346D02*
X0114480Y0190140D01*
X0111882Y0190140D01*
X0111882Y0192346D01*
X0111882Y0191084D02*
X0114480Y0191084D01*
X0114480Y0192028D02*
X0111882Y0192028D01*
X0108480Y0192346D02*
X0105882Y0192346D01*
X0108480Y0192346D02*
X0108480Y0190140D01*
X0105882Y0190140D01*
X0105882Y0192346D01*
X0105882Y0191084D02*
X0108480Y0191084D01*
X0108480Y0192028D02*
X0105882Y0192028D01*
X0105882Y0185140D02*
X0108480Y0185140D01*
X0105882Y0185140D02*
X0105882Y0187346D01*
X0108480Y0187346D01*
X0108480Y0185140D01*
X0108480Y0186084D02*
X0105882Y0186084D01*
X0105882Y0187028D02*
X0108480Y0187028D01*
X0071480Y0190346D02*
X0068882Y0190346D01*
X0071480Y0190346D02*
X0071480Y0188140D01*
X0068882Y0188140D01*
X0068882Y0190346D01*
X0068882Y0189084D02*
X0071480Y0189084D01*
X0071480Y0190028D02*
X0068882Y0190028D01*
X0068882Y0183140D02*
X0071480Y0183140D01*
X0068882Y0183140D02*
X0068882Y0185346D01*
X0071480Y0185346D01*
X0071480Y0183140D01*
X0071480Y0184084D02*
X0068882Y0184084D01*
X0068882Y0185028D02*
X0071480Y0185028D01*
X0065480Y0183140D02*
X0062882Y0183140D01*
X0062882Y0185346D01*
X0065480Y0185346D01*
X0065480Y0183140D01*
X0065480Y0184084D02*
X0062882Y0184084D01*
X0062882Y0185028D02*
X0065480Y0185028D01*
X0065480Y0190346D02*
X0062882Y0190346D01*
X0065480Y0190346D02*
X0065480Y0188140D01*
X0062882Y0188140D01*
X0062882Y0190346D01*
X0062882Y0189084D02*
X0065480Y0189084D01*
X0065480Y0190028D02*
X0062882Y0190028D01*
X0041078Y0189944D02*
X0041078Y0192542D01*
X0043284Y0192542D01*
X0043284Y0189944D01*
X0041078Y0189944D01*
X0041078Y0190888D02*
X0043284Y0190888D01*
X0043284Y0191832D02*
X0041078Y0191832D01*
X0036078Y0192542D02*
X0036078Y0189944D01*
X0036078Y0192542D02*
X0038284Y0192542D01*
X0038284Y0189944D01*
X0036078Y0189944D01*
X0036078Y0190888D02*
X0038284Y0190888D01*
X0038284Y0191832D02*
X0036078Y0191832D01*
X0031078Y0192542D02*
X0031078Y0189944D01*
X0031078Y0192542D02*
X0033284Y0192542D01*
X0033284Y0189944D01*
X0031078Y0189944D01*
X0031078Y0190888D02*
X0033284Y0190888D01*
X0033284Y0191832D02*
X0031078Y0191832D01*
X0031078Y0195944D02*
X0031078Y0198542D01*
X0033284Y0198542D01*
X0033284Y0195944D01*
X0031078Y0195944D01*
X0031078Y0196888D02*
X0033284Y0196888D01*
X0033284Y0197832D02*
X0031078Y0197832D01*
X0036078Y0198542D02*
X0036078Y0195944D01*
X0036078Y0198542D02*
X0038284Y0198542D01*
X0038284Y0195944D01*
X0036078Y0195944D01*
X0036078Y0196888D02*
X0038284Y0196888D01*
X0038284Y0197832D02*
X0036078Y0197832D01*
X0041078Y0198542D02*
X0041078Y0195944D01*
X0041078Y0198542D02*
X0043284Y0198542D01*
X0043284Y0195944D01*
X0041078Y0195944D01*
X0041078Y0196888D02*
X0043284Y0196888D01*
X0043284Y0197832D02*
X0041078Y0197832D01*
X0032480Y0120346D02*
X0029882Y0120346D01*
X0032480Y0120346D02*
X0032480Y0118140D01*
X0029882Y0118140D01*
X0029882Y0120346D01*
X0029882Y0119084D02*
X0032480Y0119084D01*
X0032480Y0120028D02*
X0029882Y0120028D01*
X0026480Y0120346D02*
X0023882Y0120346D01*
X0026480Y0120346D02*
X0026480Y0118140D01*
X0023882Y0118140D01*
X0023882Y0120346D01*
X0023882Y0119084D02*
X0026480Y0119084D01*
X0026480Y0120028D02*
X0023882Y0120028D01*
X0145284Y0259944D02*
X0145284Y0262542D01*
X0145284Y0259944D02*
X0143078Y0259944D01*
X0143078Y0262542D01*
X0145284Y0262542D01*
X0145284Y0260888D02*
X0143078Y0260888D01*
X0143078Y0261832D02*
X0145284Y0261832D01*
X0145284Y0265944D02*
X0145284Y0268542D01*
X0145284Y0265944D02*
X0143078Y0265944D01*
X0143078Y0268542D01*
X0145284Y0268542D01*
X0145284Y0266888D02*
X0143078Y0266888D01*
X0143078Y0267832D02*
X0145284Y0267832D01*
X0188284Y0250542D02*
X0188284Y0247944D01*
X0186078Y0247944D01*
X0186078Y0250542D01*
X0188284Y0250542D01*
X0188284Y0248888D02*
X0186078Y0248888D01*
X0186078Y0249832D02*
X0188284Y0249832D01*
X0193284Y0250542D02*
X0193284Y0247944D01*
X0191078Y0247944D01*
X0191078Y0250542D01*
X0193284Y0250542D01*
X0193284Y0248888D02*
X0191078Y0248888D01*
X0191078Y0249832D02*
X0193284Y0249832D01*
X0193284Y0244542D02*
X0193284Y0241944D01*
X0191078Y0241944D01*
X0191078Y0244542D01*
X0193284Y0244542D01*
X0193284Y0242888D02*
X0191078Y0242888D01*
X0191078Y0243832D02*
X0193284Y0243832D01*
X0188284Y0244542D02*
X0188284Y0241944D01*
X0186078Y0241944D01*
X0186078Y0244542D01*
X0188284Y0244542D01*
X0188284Y0242888D02*
X0186078Y0242888D01*
X0186078Y0243832D02*
X0188284Y0243832D01*
D20*
X0175330Y0243834D02*
X0175330Y0242652D01*
X0175330Y0243834D02*
X0177890Y0243834D01*
X0177890Y0242652D01*
X0175330Y0242652D01*
X0175330Y0243832D02*
X0177890Y0243832D01*
X0175330Y0246392D02*
X0175330Y0247574D01*
X0178284Y0247574D01*
X0178284Y0246392D01*
X0175330Y0246392D01*
X0175330Y0247572D02*
X0178284Y0247572D01*
X0175330Y0240094D02*
X0175330Y0238912D01*
X0175330Y0240094D02*
X0177890Y0240094D01*
X0177890Y0238912D01*
X0175330Y0238912D01*
X0175330Y0240092D02*
X0177890Y0240092D01*
X0169032Y0240094D02*
X0169032Y0238912D01*
X0166472Y0238912D01*
X0166472Y0240094D01*
X0169032Y0240094D01*
X0169032Y0240092D02*
X0166472Y0240092D01*
X0169032Y0242652D02*
X0169032Y0243834D01*
X0169032Y0242652D02*
X0166472Y0242652D01*
X0166472Y0243834D01*
X0169032Y0243834D01*
X0169032Y0243832D02*
X0166472Y0243832D01*
X0169032Y0246392D02*
X0169032Y0247574D01*
X0169032Y0246392D02*
X0166472Y0246392D01*
X0166472Y0247574D01*
X0169032Y0247574D01*
X0169032Y0247572D02*
X0166472Y0247572D01*
D21*
X0157181Y0093168D03*
D22*
X0147181Y0133621D03*
X0167181Y0133621D03*
D23*
X0168835Y0144392D02*
X0165527Y0144392D01*
X0165527Y0148094D01*
X0168835Y0148094D01*
X0168835Y0144392D01*
X0168835Y0145808D02*
X0165527Y0145808D01*
X0165527Y0147224D02*
X0168835Y0147224D01*
X0160835Y0144392D02*
X0157527Y0144392D01*
X0157527Y0148094D01*
X0160835Y0148094D01*
X0160835Y0144392D01*
X0160835Y0145808D02*
X0157527Y0145808D01*
X0157527Y0147224D02*
X0160835Y0147224D01*
X0136032Y0066897D02*
X0136032Y0063589D01*
X0132330Y0063589D01*
X0132330Y0066897D01*
X0136032Y0066897D01*
X0136032Y0065005D02*
X0132330Y0065005D01*
X0132330Y0066421D02*
X0136032Y0066421D01*
X0136032Y0058897D02*
X0136032Y0055589D01*
X0132330Y0055589D01*
X0132330Y0058897D01*
X0136032Y0058897D01*
X0136032Y0057005D02*
X0132330Y0057005D01*
X0132330Y0058421D02*
X0136032Y0058421D01*
D24*
X0145528Y0053141D03*
X0145528Y0028928D03*
X0188835Y0028928D03*
X0188835Y0053141D03*
D25*
X0169181Y0159940D03*
X0169181Y0184546D03*
D26*
X0140181Y0176645D03*
X0140181Y0151841D03*
D27*
X0113008Y0197070D02*
X0111354Y0197070D01*
X0113008Y0197070D02*
X0113008Y0195416D01*
X0111354Y0195416D01*
X0111354Y0197070D01*
X0111354Y0196124D02*
X0113008Y0196124D01*
X0113008Y0196832D02*
X0111354Y0196832D01*
X0109008Y0197070D02*
X0107354Y0197070D01*
X0109008Y0197070D02*
X0109008Y0195416D01*
X0107354Y0195416D01*
X0107354Y0197070D01*
X0107354Y0196124D02*
X0109008Y0196124D01*
X0109008Y0196832D02*
X0107354Y0196832D01*
X0101008Y0148070D02*
X0101008Y0146416D01*
X0099354Y0146416D01*
X0099354Y0148070D01*
X0101008Y0148070D01*
X0101008Y0147124D02*
X0099354Y0147124D01*
X0099354Y0147832D02*
X0101008Y0147832D01*
X0101008Y0144070D02*
X0101008Y0142416D01*
X0099354Y0142416D01*
X0099354Y0144070D01*
X0101008Y0144070D01*
X0101008Y0143124D02*
X0099354Y0143124D01*
X0099354Y0143832D02*
X0101008Y0143832D01*
X0070008Y0195070D02*
X0068354Y0195070D01*
X0070008Y0195070D02*
X0070008Y0193416D01*
X0068354Y0193416D01*
X0068354Y0195070D01*
X0068354Y0194124D02*
X0070008Y0194124D01*
X0070008Y0194832D02*
X0068354Y0194832D01*
X0066008Y0195070D02*
X0064354Y0195070D01*
X0066008Y0195070D02*
X0066008Y0193416D01*
X0064354Y0193416D01*
X0064354Y0195070D01*
X0064354Y0194124D02*
X0066008Y0194124D01*
X0066008Y0194832D02*
X0064354Y0194832D01*
X0030008Y0138416D02*
X0028354Y0138416D01*
X0028354Y0140070D01*
X0030008Y0140070D01*
X0030008Y0138416D01*
X0030008Y0139124D02*
X0028354Y0139124D01*
X0028354Y0139832D02*
X0030008Y0139832D01*
X0026008Y0138416D02*
X0024354Y0138416D01*
X0024354Y0140070D01*
X0026008Y0140070D01*
X0026008Y0138416D01*
X0026008Y0139124D02*
X0024354Y0139124D01*
X0024354Y0139832D02*
X0026008Y0139832D01*
X0026008Y0128416D02*
X0024354Y0128416D01*
X0024354Y0130070D01*
X0026008Y0130070D01*
X0026008Y0128416D01*
X0026008Y0129124D02*
X0024354Y0129124D01*
X0024354Y0129832D02*
X0026008Y0129832D01*
X0028354Y0128416D02*
X0030008Y0128416D01*
X0028354Y0128416D02*
X0028354Y0130070D01*
X0030008Y0130070D01*
X0030008Y0128416D01*
X0030008Y0129124D02*
X0028354Y0129124D01*
X0028354Y0129832D02*
X0030008Y0129832D01*
D28*
X0059465Y0169873D02*
X0063873Y0169873D01*
X0059465Y0169873D02*
X0059465Y0178613D01*
X0063873Y0178613D01*
X0063873Y0169873D01*
X0063873Y0171762D02*
X0059465Y0171762D01*
X0059465Y0173651D02*
X0063873Y0173651D01*
X0063873Y0175540D02*
X0059465Y0175540D01*
X0059465Y0177429D02*
X0063873Y0177429D01*
X0070489Y0169873D02*
X0074897Y0169873D01*
X0070489Y0169873D02*
X0070489Y0178613D01*
X0074897Y0178613D01*
X0074897Y0169873D01*
X0074897Y0171762D02*
X0070489Y0171762D01*
X0070489Y0173651D02*
X0074897Y0173651D01*
X0074897Y0175540D02*
X0070489Y0175540D01*
X0070489Y0177429D02*
X0074897Y0177429D01*
X0102465Y0171873D02*
X0106873Y0171873D01*
X0102465Y0171873D02*
X0102465Y0180613D01*
X0106873Y0180613D01*
X0106873Y0171873D01*
X0106873Y0173762D02*
X0102465Y0173762D01*
X0102465Y0175651D02*
X0106873Y0175651D01*
X0106873Y0177540D02*
X0102465Y0177540D01*
X0102465Y0179429D02*
X0106873Y0179429D01*
X0113489Y0171873D02*
X0117897Y0171873D01*
X0113489Y0171873D02*
X0113489Y0180613D01*
X0117897Y0180613D01*
X0117897Y0171873D01*
X0117897Y0173762D02*
X0113489Y0173762D01*
X0113489Y0175651D02*
X0117897Y0175651D01*
X0117897Y0177540D02*
X0113489Y0177540D01*
X0113489Y0179429D02*
X0117897Y0179429D01*
D29*
X0122181Y0264243D03*
X0122181Y0274243D03*
X0112181Y0274243D03*
X0112181Y0264243D03*
X0102181Y0264243D03*
X0102181Y0274243D03*
X0092181Y0274243D03*
X0092181Y0264243D03*
X0082181Y0264243D03*
X0082181Y0274243D03*
X0072181Y0274243D03*
X0072181Y0264243D03*
X0062181Y0264243D03*
X0062181Y0274243D03*
X0052181Y0274243D03*
X0052181Y0264243D03*
X0042181Y0264243D03*
X0042181Y0274243D03*
X0032181Y0274243D03*
X0032181Y0264243D03*
X0022181Y0264243D03*
X0022181Y0274243D03*
X0012181Y0274243D03*
X0012181Y0264243D03*
D30*
X0007181Y0260243D02*
X0019944Y0247480D01*
X0019944Y0240385D01*
X0023094Y0240385D02*
X0023094Y0252330D01*
X0017181Y0258243D01*
X0017181Y0269243D01*
X0022181Y0274243D01*
X0027181Y0269243D02*
X0027181Y0256243D01*
X0029393Y0254031D01*
X0029393Y0240385D01*
X0026244Y0240385D02*
X0026244Y0253181D01*
X0022181Y0257243D01*
X0022181Y0264243D01*
X0027181Y0269243D02*
X0032181Y0274243D01*
X0037181Y0269243D02*
X0037181Y0259243D01*
X0038842Y0257582D01*
X0038842Y0240385D01*
X0035692Y0240385D02*
X0035692Y0253732D01*
X0032181Y0257243D01*
X0032181Y0264243D01*
X0037181Y0269243D02*
X0042181Y0274243D01*
X0047181Y0269243D02*
X0047181Y0258243D01*
X0060889Y0244535D01*
X0060889Y0240385D01*
X0057740Y0240385D02*
X0057740Y0240684D01*
X0042181Y0256243D01*
X0042181Y0264243D01*
X0047181Y0269243D02*
X0052181Y0274243D01*
X0057181Y0269243D02*
X0057181Y0259243D01*
X0070338Y0246086D01*
X0070338Y0240385D01*
X0067188Y0240385D02*
X0067188Y0244236D01*
X0052181Y0259243D01*
X0052181Y0264243D01*
X0057181Y0269243D02*
X0062181Y0274243D01*
X0072181Y0264243D02*
X0073488Y0262936D01*
X0073488Y0240385D01*
X0079787Y0240385D02*
X0079787Y0249637D01*
X0077181Y0252243D01*
X0077181Y0269243D01*
X0082181Y0274243D01*
X0087181Y0269243D02*
X0087181Y0261243D01*
X0101834Y0246590D01*
X0101834Y0240385D01*
X0104984Y0240385D02*
X0104984Y0246440D01*
X0092181Y0259243D01*
X0092181Y0264243D01*
X0097181Y0269243D02*
X0097181Y0257243D01*
X0108181Y0246243D01*
X0108181Y0242243D01*
X0108133Y0242195D01*
X0108133Y0240385D01*
X0111283Y0240385D02*
X0111283Y0246141D01*
X0102181Y0255243D01*
X0102181Y0264243D01*
X0097181Y0269243D02*
X0102181Y0274243D01*
X0092181Y0274243D02*
X0087181Y0269243D01*
X0082181Y0264243D02*
X0082937Y0263488D01*
X0082937Y0240385D01*
X0083181Y0227243D02*
X0098181Y0227243D01*
X0104181Y0233243D01*
X0112181Y0233243D01*
X0114181Y0235243D01*
X0114181Y0246243D01*
X0112181Y0248243D01*
X0112181Y0264243D01*
X0117181Y0261243D02*
X0114181Y0258243D01*
X0114181Y0249243D01*
X0116181Y0247243D01*
X0116181Y0234243D01*
X0113181Y0231243D01*
X0105181Y0231243D01*
X0099181Y0225243D01*
X0084181Y0225243D01*
X0081181Y0222243D01*
X0081181Y0208282D01*
X0081362Y0208101D01*
X0078212Y0208101D02*
X0078181Y0208132D01*
X0078181Y0222243D01*
X0083181Y0227243D01*
X0094181Y0215243D02*
X0097110Y0212314D01*
X0097110Y0208101D01*
X0100259Y0208101D02*
X0100259Y0215165D01*
X0100181Y0215243D01*
X0112181Y0212243D02*
X0114181Y0212243D01*
X0114181Y0205243D01*
X0121181Y0198243D01*
X0121181Y0170243D01*
X0112181Y0170243D01*
X0122181Y0170243D01*
X0133181Y0161243D01*
X0146181Y0161243D01*
X0146181Y0147243D01*
X0138181Y0139243D01*
X0138181Y0121243D01*
X0148181Y0111243D01*
X0180181Y0111243D01*
X0180181Y0075243D01*
X0127181Y0075243D01*
X0127181Y0148243D01*
X0116181Y0159243D01*
X0076181Y0159243D01*
X0068181Y0167243D01*
X0068181Y0179243D01*
X0078181Y0179243D01*
X0090181Y0167243D01*
X0107181Y0167243D01*
X0112181Y0170243D01*
X0112181Y0212243D01*
X0112181Y0211791D02*
X0114181Y0211791D01*
X0114181Y0210593D02*
X0112181Y0210593D01*
X0112181Y0209394D02*
X0114181Y0209394D01*
X0114181Y0208196D02*
X0112181Y0208196D01*
X0112181Y0206997D02*
X0114181Y0206997D01*
X0114181Y0205799D02*
X0112181Y0205799D01*
X0112181Y0204600D02*
X0114824Y0204600D01*
X0116022Y0203402D02*
X0112181Y0203402D01*
X0112181Y0202203D02*
X0117221Y0202203D01*
X0118419Y0201005D02*
X0112181Y0201005D01*
X0112181Y0199806D02*
X0119618Y0199806D01*
X0120816Y0198608D02*
X0112181Y0198608D01*
X0112181Y0197409D02*
X0121181Y0197409D01*
X0121181Y0196211D02*
X0112181Y0196211D01*
X0112181Y0195012D02*
X0121181Y0195012D01*
X0121181Y0193814D02*
X0112181Y0193814D01*
X0112181Y0192615D02*
X0121181Y0192615D01*
X0121181Y0191417D02*
X0112181Y0191417D01*
X0112181Y0190218D02*
X0121181Y0190218D01*
X0121181Y0189020D02*
X0112181Y0189020D01*
X0112181Y0187821D02*
X0121181Y0187821D01*
X0121181Y0186623D02*
X0112181Y0186623D01*
X0112181Y0185424D02*
X0121181Y0185424D01*
X0121181Y0184226D02*
X0112181Y0184226D01*
X0112181Y0183027D02*
X0121181Y0183027D01*
X0121181Y0181829D02*
X0112181Y0181829D01*
X0112181Y0180630D02*
X0121181Y0180630D01*
X0121181Y0179432D02*
X0112181Y0179432D01*
X0112181Y0178233D02*
X0121181Y0178233D01*
X0121181Y0177035D02*
X0112181Y0177035D01*
X0112181Y0175836D02*
X0121181Y0175836D01*
X0121181Y0174638D02*
X0112181Y0174638D01*
X0112181Y0173439D02*
X0121181Y0173439D01*
X0121181Y0172241D02*
X0112181Y0172241D01*
X0112181Y0171042D02*
X0121181Y0171042D01*
X0122669Y0169844D02*
X0111515Y0169844D01*
X0109518Y0168645D02*
X0124134Y0168645D01*
X0125599Y0167447D02*
X0107520Y0167447D01*
X0116367Y0159057D02*
X0146181Y0159057D01*
X0146181Y0160255D02*
X0075169Y0160255D01*
X0073970Y0161454D02*
X0132923Y0161454D01*
X0131458Y0162652D02*
X0072772Y0162652D01*
X0071573Y0163851D02*
X0129994Y0163851D01*
X0128529Y0165050D02*
X0070375Y0165050D01*
X0069176Y0166248D02*
X0127064Y0166248D01*
X0118764Y0156660D02*
X0146181Y0156660D01*
X0146181Y0157858D02*
X0117566Y0157858D01*
X0119963Y0155461D02*
X0146181Y0155461D01*
X0146181Y0154263D02*
X0121161Y0154263D01*
X0122360Y0153064D02*
X0146181Y0153064D01*
X0146181Y0151866D02*
X0123558Y0151866D01*
X0124757Y0150667D02*
X0146181Y0150667D01*
X0146181Y0149469D02*
X0125955Y0149469D01*
X0127154Y0148270D02*
X0146181Y0148270D01*
X0146010Y0147072D02*
X0127181Y0147072D01*
X0127181Y0145873D02*
X0144811Y0145873D01*
X0143613Y0144675D02*
X0127181Y0144675D01*
X0127181Y0143476D02*
X0142414Y0143476D01*
X0141216Y0142278D02*
X0127181Y0142278D01*
X0127181Y0141079D02*
X0140017Y0141079D01*
X0138819Y0139881D02*
X0127181Y0139881D01*
X0127181Y0138682D02*
X0138181Y0138682D01*
X0138181Y0137484D02*
X0127181Y0137484D01*
X0127181Y0136285D02*
X0138181Y0136285D01*
X0138181Y0135087D02*
X0127181Y0135087D01*
X0127181Y0133888D02*
X0138181Y0133888D01*
X0138181Y0132690D02*
X0127181Y0132690D01*
X0127181Y0131491D02*
X0138181Y0131491D01*
X0138181Y0130293D02*
X0127181Y0130293D01*
X0127181Y0129094D02*
X0138181Y0129094D01*
X0138181Y0127896D02*
X0127181Y0127896D01*
X0127181Y0126697D02*
X0138181Y0126697D01*
X0138181Y0125499D02*
X0127181Y0125499D01*
X0127181Y0124300D02*
X0138181Y0124300D01*
X0138181Y0123102D02*
X0127181Y0123102D01*
X0127181Y0121903D02*
X0138181Y0121903D01*
X0138720Y0120705D02*
X0127181Y0120705D01*
X0127181Y0119506D02*
X0139918Y0119506D01*
X0141117Y0118308D02*
X0127181Y0118308D01*
X0127181Y0117109D02*
X0142315Y0117109D01*
X0143514Y0115911D02*
X0127181Y0115911D01*
X0127181Y0114712D02*
X0144712Y0114712D01*
X0145911Y0113514D02*
X0127181Y0113514D01*
X0127181Y0112315D02*
X0147109Y0112315D01*
X0127181Y0111116D02*
X0180181Y0111116D01*
X0180181Y0109918D02*
X0127181Y0109918D01*
X0127181Y0108719D02*
X0180181Y0108719D01*
X0180181Y0107521D02*
X0127181Y0107521D01*
X0127181Y0106322D02*
X0180181Y0106322D01*
X0180181Y0105124D02*
X0127181Y0105124D01*
X0127181Y0103925D02*
X0180181Y0103925D01*
X0180181Y0102727D02*
X0127181Y0102727D01*
X0127181Y0101528D02*
X0180181Y0101528D01*
X0180181Y0100330D02*
X0127181Y0100330D01*
X0127181Y0099131D02*
X0180181Y0099131D01*
X0180181Y0097933D02*
X0127181Y0097933D01*
X0127181Y0096734D02*
X0180181Y0096734D01*
X0180181Y0095536D02*
X0127181Y0095536D01*
X0127181Y0094337D02*
X0180181Y0094337D01*
X0180181Y0093139D02*
X0127181Y0093139D01*
X0127181Y0091940D02*
X0180181Y0091940D01*
X0180181Y0090742D02*
X0127181Y0090742D01*
X0127181Y0089543D02*
X0180181Y0089543D01*
X0180181Y0088345D02*
X0127181Y0088345D01*
X0127181Y0087146D02*
X0180181Y0087146D01*
X0180181Y0085948D02*
X0127181Y0085948D01*
X0127181Y0084749D02*
X0180181Y0084749D01*
X0180181Y0083551D02*
X0127181Y0083551D01*
X0127181Y0082352D02*
X0180181Y0082352D01*
X0180181Y0081154D02*
X0127181Y0081154D01*
X0127181Y0079955D02*
X0180181Y0079955D01*
X0180181Y0078757D02*
X0127181Y0078757D01*
X0127181Y0077558D02*
X0180181Y0077558D01*
X0180181Y0076360D02*
X0127181Y0076360D01*
X0094181Y0156243D02*
X0056181Y0156243D01*
X0052181Y0160243D01*
X0052181Y0166243D01*
X0050181Y0168243D01*
X0048181Y0168243D01*
X0046181Y0170243D01*
X0046181Y0199243D01*
X0043566Y0201858D01*
X0043566Y0208101D01*
X0040417Y0208101D02*
X0040417Y0199007D01*
X0042181Y0197243D01*
X0037267Y0197329D02*
X0037181Y0197243D01*
X0037267Y0197329D02*
X0037267Y0208101D01*
X0034118Y0208101D02*
X0034118Y0199180D01*
X0032181Y0197243D01*
X0032181Y0191243D02*
X0032181Y0188243D01*
X0029181Y0185243D01*
X0037181Y0187243D02*
X0025181Y0175243D01*
X0025181Y0139243D01*
X0027181Y0134243D02*
X0025181Y0132243D01*
X0025181Y0129243D01*
X0027181Y0134243D02*
X0032181Y0134243D01*
X0034181Y0136243D01*
X0034181Y0142243D01*
X0028181Y0148243D01*
X0028181Y0173243D01*
X0040181Y0185243D01*
X0042181Y0185243D01*
X0042181Y0191243D01*
X0037181Y0191243D02*
X0037181Y0187243D01*
X0062464Y0208101D02*
X0062464Y0216960D01*
X0062181Y0217243D01*
X0068181Y0208243D02*
X0069725Y0208243D01*
X0069725Y0203815D01*
X0070181Y0203359D01*
X0070181Y0203243D01*
X0077181Y0196243D01*
X0077181Y0168243D01*
X0068181Y0168243D01*
X0068181Y0208243D01*
X0068181Y0208196D02*
X0069725Y0208196D01*
X0069725Y0206997D02*
X0068181Y0206997D01*
X0068181Y0205799D02*
X0069725Y0205799D01*
X0069725Y0204600D02*
X0068181Y0204600D01*
X0068181Y0203402D02*
X0070139Y0203402D01*
X0071221Y0202203D02*
X0068181Y0202203D01*
X0068181Y0201005D02*
X0072419Y0201005D01*
X0073618Y0199806D02*
X0068181Y0199806D01*
X0068181Y0198608D02*
X0074816Y0198608D01*
X0076015Y0197409D02*
X0068181Y0197409D01*
X0068181Y0196211D02*
X0077181Y0196211D01*
X0077181Y0195012D02*
X0068181Y0195012D01*
X0068181Y0193814D02*
X0077181Y0193814D01*
X0077181Y0192615D02*
X0068181Y0192615D01*
X0068181Y0191417D02*
X0077181Y0191417D01*
X0077181Y0190218D02*
X0068181Y0190218D01*
X0068181Y0189020D02*
X0077181Y0189020D01*
X0077181Y0187821D02*
X0068181Y0187821D01*
X0068181Y0186623D02*
X0077181Y0186623D01*
X0077181Y0185424D02*
X0068181Y0185424D01*
X0068181Y0184226D02*
X0077181Y0184226D01*
X0077181Y0183027D02*
X0068181Y0183027D01*
X0068181Y0181829D02*
X0077181Y0181829D01*
X0077181Y0180630D02*
X0068181Y0180630D01*
X0068181Y0179432D02*
X0077181Y0179432D01*
X0077181Y0178233D02*
X0068181Y0178233D01*
X0079191Y0178233D01*
X0080390Y0177035D02*
X0068181Y0177035D01*
X0077181Y0177035D01*
X0077181Y0175836D02*
X0068181Y0175836D01*
X0081588Y0175836D01*
X0082787Y0174638D02*
X0068181Y0174638D01*
X0077181Y0174638D01*
X0077181Y0173439D02*
X0068181Y0173439D01*
X0083985Y0173439D01*
X0085184Y0172241D02*
X0068181Y0172241D01*
X0077181Y0172241D01*
X0077181Y0171042D02*
X0068181Y0171042D01*
X0086382Y0171042D01*
X0087581Y0169844D02*
X0068181Y0169844D01*
X0077181Y0169844D01*
X0077181Y0168645D02*
X0068181Y0168645D01*
X0088779Y0168645D01*
X0089978Y0167447D02*
X0068181Y0167447D01*
X0126181Y0222243D02*
X0132181Y0228243D01*
X0132181Y0264243D01*
X0122181Y0274243D01*
X0117181Y0269243D02*
X0112181Y0274243D01*
X0117181Y0269243D02*
X0117181Y0261243D01*
X0138181Y0274290D02*
X0138181Y0223243D01*
X0144181Y0267243D02*
X0144181Y0274290D01*
X0012181Y0274243D02*
X0010181Y0274243D01*
X0007181Y0271243D01*
X0007181Y0260243D01*
D31*
X0157181Y0093168D02*
X0134181Y0070168D01*
X0134181Y0065243D01*
X0145528Y0053141D02*
X0145528Y0028928D01*
X0188835Y0028928D02*
X0188835Y0053141D01*
X0188835Y0122897D01*
X0190181Y0124243D01*
X0190181Y0134243D02*
X0167803Y0134243D01*
X0167181Y0133621D01*
X0167181Y0146243D01*
X0167181Y0156940D01*
X0169181Y0159940D01*
X0159181Y0168546D02*
X0159181Y0146243D01*
X0190181Y0144243D02*
X0193181Y0147243D01*
X0193181Y0220243D01*
X0189717Y0258369D02*
X0189717Y0279235D01*
X0156646Y0279235D01*
X0156646Y0258369D01*
D32*
X0162181Y0249243D02*
X0162181Y0243243D01*
X0162181Y0249243D02*
X0166181Y0253243D01*
X0159181Y0146243D02*
X0155181Y0146243D01*
X0147181Y0138243D01*
X0147181Y0133621D01*
D33*
X0118181Y0119243D03*
X0193181Y0220243D03*
X0162181Y0243243D03*
X0019181Y0119243D03*
D34*
X0019181Y0129243D03*
X0019181Y0139243D03*
X0028181Y0143243D03*
X0033181Y0150243D03*
X0017181Y0173243D03*
X0023181Y0186243D03*
X0029181Y0185243D03*
X0038181Y0176243D03*
X0050181Y0187243D03*
X0050181Y0198243D03*
X0053181Y0202243D03*
X0053181Y0208243D03*
X0046181Y0217243D03*
X0044181Y0214243D03*
X0045181Y0221243D03*
X0042181Y0232243D03*
X0048181Y0239243D03*
X0062181Y0217243D03*
X0066181Y0225243D03*
X0063181Y0233243D03*
X0073181Y0225243D03*
X0075181Y0233243D03*
X0074181Y0248243D03*
X0088181Y0248243D03*
X0094181Y0234243D03*
X0085181Y0220243D03*
X0094181Y0215243D03*
X0100181Y0215243D03*
X0105181Y0215243D03*
X0102181Y0201243D03*
X0088181Y0200243D03*
X0088181Y0194243D03*
X0082181Y0194243D03*
X0082181Y0200243D03*
X0075181Y0202243D03*
X0064181Y0200243D03*
X0058181Y0186243D03*
X0052181Y0174243D03*
X0059181Y0162243D03*
X0067181Y0160243D03*
X0059181Y0150243D03*
X0084181Y0150243D03*
X0094181Y0156243D03*
X0095181Y0173243D03*
X0095181Y0178243D03*
X0104181Y0139243D03*
X0120181Y0129243D03*
X0120181Y0124243D03*
X0142181Y0123243D03*
X0149181Y0116243D03*
X0152181Y0123243D03*
X0155181Y0134243D03*
X0151181Y0146243D03*
X0160181Y0195243D03*
X0169181Y0195243D03*
X0178181Y0195243D03*
X0182181Y0243243D03*
X0182181Y0249243D03*
X0150181Y0267243D03*
X0150181Y0272243D03*
X0134181Y0279243D03*
X0126181Y0227243D03*
X0126181Y0222243D03*
X0121181Y0211243D03*
X0133181Y0223243D03*
X0138181Y0223243D03*
X0108181Y0093243D03*
X0099181Y0066243D03*
X0089181Y0091243D03*
X0066181Y0080243D03*
X0062181Y0089243D03*
X0041181Y0066243D03*
X0033181Y0090243D03*
X0010181Y0092243D03*
X0010181Y0078243D03*
X0010181Y0064243D03*
X0010181Y0048243D03*
X0029181Y0016243D03*
X0044181Y0016243D03*
X0051181Y0035243D03*
X0059181Y0016243D03*
X0075181Y0016243D03*
X0085181Y0035243D03*
X0092181Y0016243D03*
X0107181Y0016243D03*
X0136181Y0051243D03*
X0145181Y0045243D03*
X0145181Y0037243D03*
X0137181Y0029243D03*
X0145181Y0021243D03*
X0145181Y0016243D03*
X0145181Y0062243D03*
X0190181Y0019243D03*
X0190181Y0014243D03*
X0032181Y0232243D03*
X0026181Y0224243D03*
X0009181Y0216243D03*
X0009181Y0203243D03*
X0018181Y0199243D03*
X0009181Y0190243D03*
X0006181Y0172243D03*
X0010181Y0107243D03*
X0009181Y0249243D03*
D35*
X0087661Y0216107D02*
X0087661Y0208101D01*
X0090811Y0208101D02*
X0090811Y0216488D01*
X0090810Y0216488D02*
X0090812Y0216603D01*
X0090818Y0216718D01*
X0090828Y0216833D01*
X0090841Y0216947D01*
X0090859Y0217061D01*
X0090881Y0217174D01*
X0090906Y0217286D01*
X0090935Y0217397D01*
X0090968Y0217508D01*
X0091005Y0217617D01*
X0091045Y0217725D01*
X0091089Y0217831D01*
X0091137Y0217936D01*
X0091188Y0218039D01*
X0091243Y0218140D01*
X0091301Y0218240D01*
X0091362Y0218337D01*
X0091427Y0218432D01*
X0091495Y0218525D01*
X0091566Y0218615D01*
X0091640Y0218703D01*
X0091717Y0218789D01*
X0091797Y0218872D01*
X0091880Y0218952D01*
X0091966Y0219029D01*
X0092054Y0219103D01*
X0092144Y0219174D01*
X0092237Y0219242D01*
X0092332Y0219307D01*
X0092429Y0219368D01*
X0092529Y0219426D01*
X0092630Y0219481D01*
X0092733Y0219532D01*
X0092838Y0219580D01*
X0092944Y0219624D01*
X0093052Y0219664D01*
X0093161Y0219701D01*
X0093272Y0219734D01*
X0093383Y0219763D01*
X0093495Y0219788D01*
X0093608Y0219810D01*
X0093722Y0219828D01*
X0093836Y0219841D01*
X0093951Y0219851D01*
X0094066Y0219857D01*
X0094181Y0219859D01*
X0108608Y0219859D01*
X0112608Y0215859D01*
X0155181Y0215859D01*
X0155181Y0218627D02*
X0113754Y0218627D01*
X0109754Y0222627D01*
X0094181Y0222627D01*
X0094021Y0222625D01*
X0093861Y0222619D01*
X0093701Y0222609D01*
X0093542Y0222596D01*
X0093383Y0222578D01*
X0093224Y0222556D01*
X0093066Y0222531D01*
X0092909Y0222502D01*
X0092752Y0222469D01*
X0092597Y0222432D01*
X0092442Y0222391D01*
X0092288Y0222346D01*
X0092136Y0222298D01*
X0091984Y0222246D01*
X0091834Y0222190D01*
X0091686Y0222131D01*
X0091539Y0222068D01*
X0091393Y0222001D01*
X0091250Y0221931D01*
X0091107Y0221857D01*
X0090967Y0221780D01*
X0090829Y0221699D01*
X0090693Y0221615D01*
X0090559Y0221528D01*
X0090427Y0221438D01*
X0090297Y0221344D01*
X0090170Y0221247D01*
X0090045Y0221147D01*
X0089922Y0221044D01*
X0089802Y0220938D01*
X0089685Y0220829D01*
X0089571Y0220717D01*
X0089459Y0220603D01*
X0089350Y0220486D01*
X0089244Y0220366D01*
X0089141Y0220243D01*
X0089041Y0220118D01*
X0088944Y0219991D01*
X0088850Y0219861D01*
X0088760Y0219729D01*
X0088673Y0219595D01*
X0088589Y0219459D01*
X0088508Y0219321D01*
X0088431Y0219181D01*
X0088357Y0219038D01*
X0088287Y0218895D01*
X0088220Y0218749D01*
X0088157Y0218602D01*
X0088098Y0218454D01*
X0088042Y0218304D01*
X0087990Y0218152D01*
X0087942Y0218000D01*
X0087897Y0217846D01*
X0087856Y0217691D01*
X0087819Y0217536D01*
X0087786Y0217379D01*
X0087757Y0217222D01*
X0087732Y0217064D01*
X0087710Y0216905D01*
X0087692Y0216746D01*
X0087679Y0216587D01*
X0087669Y0216427D01*
X0087663Y0216267D01*
X0087661Y0216107D01*
X0109708Y0208101D02*
X0109708Y0202243D01*
X0108181Y0202243D01*
X0108181Y0196243D01*
X0155181Y0215859D02*
X0155625Y0215864D01*
X0156069Y0215880D01*
X0156513Y0215907D01*
X0156955Y0215945D01*
X0157397Y0215993D01*
X0157837Y0216052D01*
X0158276Y0216121D01*
X0158713Y0216201D01*
X0159148Y0216292D01*
X0159581Y0216393D01*
X0160011Y0216505D01*
X0160438Y0216627D01*
X0160862Y0216759D01*
X0161283Y0216901D01*
X0161700Y0217054D01*
X0162114Y0217216D01*
X0162523Y0217389D01*
X0162928Y0217571D01*
X0163329Y0217763D01*
X0163724Y0217965D01*
X0164115Y0218176D01*
X0164501Y0218397D01*
X0164881Y0218626D01*
X0165256Y0218865D01*
X0165624Y0219113D01*
X0165987Y0219370D01*
X0166343Y0219635D01*
X0166693Y0219909D01*
X0167036Y0220192D01*
X0167372Y0220482D01*
X0167701Y0220781D01*
X0168022Y0221087D01*
X0168337Y0221402D01*
X0168643Y0221723D01*
X0168942Y0222052D01*
X0169232Y0222388D01*
X0169515Y0222731D01*
X0169789Y0223081D01*
X0170054Y0223437D01*
X0170311Y0223800D01*
X0170559Y0224168D01*
X0170798Y0224543D01*
X0171027Y0224923D01*
X0171248Y0225309D01*
X0171459Y0225700D01*
X0171661Y0226095D01*
X0171853Y0226496D01*
X0172035Y0226901D01*
X0172208Y0227310D01*
X0172370Y0227724D01*
X0172523Y0228141D01*
X0172665Y0228562D01*
X0172797Y0228986D01*
X0172919Y0229413D01*
X0173031Y0229843D01*
X0173132Y0230276D01*
X0173223Y0230711D01*
X0173303Y0231148D01*
X0173372Y0231587D01*
X0173431Y0232027D01*
X0173479Y0232469D01*
X0173517Y0232911D01*
X0173544Y0233355D01*
X0173560Y0233799D01*
X0173565Y0234243D01*
X0173565Y0236458D01*
X0173567Y0236567D01*
X0173573Y0236675D01*
X0173582Y0236783D01*
X0173596Y0236891D01*
X0173613Y0236999D01*
X0173635Y0237105D01*
X0173660Y0237211D01*
X0173688Y0237316D01*
X0173721Y0237420D01*
X0173757Y0237522D01*
X0173797Y0237623D01*
X0173840Y0237723D01*
X0173887Y0237821D01*
X0173937Y0237917D01*
X0173991Y0238012D01*
X0174048Y0238104D01*
X0174109Y0238195D01*
X0174172Y0238283D01*
X0174239Y0238369D01*
X0174309Y0238452D01*
X0174381Y0238533D01*
X0174457Y0238611D01*
X0174535Y0238687D01*
X0174616Y0238759D01*
X0174699Y0238829D01*
X0174785Y0238896D01*
X0174873Y0238959D01*
X0174964Y0239020D01*
X0175056Y0239077D01*
X0175151Y0239131D01*
X0175247Y0239181D01*
X0175345Y0239228D01*
X0175445Y0239271D01*
X0175546Y0239311D01*
X0175648Y0239347D01*
X0175752Y0239380D01*
X0175857Y0239408D01*
X0175963Y0239433D01*
X0176069Y0239455D01*
X0176177Y0239472D01*
X0176285Y0239486D01*
X0176393Y0239495D01*
X0176501Y0239501D01*
X0176610Y0239503D01*
X0170797Y0236458D02*
X0170797Y0234243D01*
X0170797Y0236458D02*
X0170795Y0236567D01*
X0170789Y0236675D01*
X0170780Y0236783D01*
X0170766Y0236891D01*
X0170749Y0236999D01*
X0170727Y0237105D01*
X0170702Y0237211D01*
X0170674Y0237316D01*
X0170641Y0237420D01*
X0170605Y0237522D01*
X0170565Y0237623D01*
X0170522Y0237723D01*
X0170475Y0237821D01*
X0170425Y0237917D01*
X0170371Y0238012D01*
X0170314Y0238104D01*
X0170253Y0238195D01*
X0170190Y0238283D01*
X0170123Y0238369D01*
X0170053Y0238452D01*
X0169981Y0238533D01*
X0169905Y0238611D01*
X0169827Y0238687D01*
X0169746Y0238759D01*
X0169663Y0238829D01*
X0169577Y0238896D01*
X0169489Y0238959D01*
X0169398Y0239020D01*
X0169306Y0239077D01*
X0169211Y0239131D01*
X0169115Y0239181D01*
X0169017Y0239228D01*
X0168917Y0239271D01*
X0168816Y0239311D01*
X0168714Y0239347D01*
X0168610Y0239380D01*
X0168505Y0239408D01*
X0168399Y0239433D01*
X0168293Y0239455D01*
X0168185Y0239472D01*
X0168077Y0239486D01*
X0167969Y0239495D01*
X0167861Y0239501D01*
X0167752Y0239503D01*
X0167752Y0246983D02*
X0170031Y0249263D01*
X0170031Y0257385D01*
X0173181Y0257385D02*
X0173181Y0249243D01*
X0175181Y0247243D01*
X0176547Y0247243D01*
X0176807Y0246983D01*
X0170797Y0234243D02*
X0170792Y0233866D01*
X0170779Y0233489D01*
X0170756Y0233112D01*
X0170724Y0232736D01*
X0170683Y0232361D01*
X0170633Y0231987D01*
X0170574Y0231614D01*
X0170506Y0231243D01*
X0170429Y0230873D01*
X0170343Y0230506D01*
X0170248Y0230141D01*
X0170145Y0229778D01*
X0170033Y0229417D01*
X0169912Y0229060D01*
X0169782Y0228705D01*
X0169644Y0228354D01*
X0169498Y0228007D01*
X0169343Y0227662D01*
X0169180Y0227322D01*
X0169008Y0226986D01*
X0168829Y0226654D01*
X0168642Y0226326D01*
X0168446Y0226003D01*
X0168243Y0225685D01*
X0168033Y0225372D01*
X0167815Y0225064D01*
X0167589Y0224762D01*
X0167356Y0224464D01*
X0167117Y0224173D01*
X0166870Y0223888D01*
X0166616Y0223608D01*
X0166356Y0223335D01*
X0166089Y0223068D01*
X0165816Y0222808D01*
X0165536Y0222554D01*
X0165251Y0222307D01*
X0164960Y0222068D01*
X0164662Y0221835D01*
X0164360Y0221609D01*
X0164052Y0221391D01*
X0163739Y0221181D01*
X0163421Y0220978D01*
X0163098Y0220782D01*
X0162770Y0220595D01*
X0162438Y0220416D01*
X0162102Y0220244D01*
X0161762Y0220081D01*
X0161417Y0219926D01*
X0161070Y0219780D01*
X0160719Y0219642D01*
X0160364Y0219512D01*
X0160007Y0219391D01*
X0159646Y0219279D01*
X0159283Y0219176D01*
X0158918Y0219081D01*
X0158551Y0218995D01*
X0158181Y0218918D01*
X0157810Y0218850D01*
X0157437Y0218791D01*
X0157063Y0218741D01*
X0156688Y0218700D01*
X0156312Y0218668D01*
X0155935Y0218645D01*
X0155558Y0218632D01*
X0155181Y0218627D01*
D36*
X0106559Y0208101D02*
X0106559Y0203620D01*
X0102181Y0201243D01*
X0095535Y0240243D02*
X0094181Y0240243D01*
X0095535Y0240243D02*
X0095535Y0240385D01*
X0092385Y0240385D01*
X0030968Y0208101D02*
X0030968Y0203030D01*
X0030181Y0202243D01*
D37*
X0035181Y0176243D02*
X0031181Y0172243D01*
X0031181Y0158243D01*
X0035181Y0154243D01*
X0089181Y0154243D01*
X0100181Y0143243D01*
X0104181Y0139243D01*
X0064181Y0200243D02*
X0065614Y0201676D01*
X0065614Y0208101D01*
X0038181Y0176243D02*
X0035181Y0176243D01*
X0025181Y0139243D02*
X0019181Y0139243D01*
X0019181Y0129243D02*
X0025181Y0129243D01*
X0103409Y0208101D02*
X0103409Y0213471D01*
X0105181Y0215243D01*
X0126181Y0227243D02*
X0127181Y0227243D01*
X0130181Y0230243D01*
X0130181Y0256243D01*
X0122181Y0264243D01*
M02*
