G75*
%MOIN*%
%OFA0B0*%
%FSLAX25Y25*%
%IPPOS*%
%LPD*%
%AMOC8*
5,1,8,0,0,1.08239X$1,22.5*
%
%ADD10C,0.00000*%
%ADD11C,0.01299*%
%ADD12C,0.05600*%
%ADD13OC8,0.06000*%
%ADD14C,0.02362*%
%ADD15C,0.03600*%
%ADD16C,0.02381*%
%ADD17C,0.01200*%
%ADD18C,0.01000*%
%ADD19C,0.01600*%
%ADD20C,0.05000*%
D10*
X0002181Y0009243D02*
X0002181Y0284834D01*
X0199031Y0284834D01*
X0199031Y0009243D01*
X0002181Y0009243D01*
X0015613Y0025806D02*
X0015615Y0025918D01*
X0015621Y0026029D01*
X0015631Y0026141D01*
X0015645Y0026252D01*
X0015662Y0026362D01*
X0015684Y0026472D01*
X0015710Y0026581D01*
X0015739Y0026689D01*
X0015772Y0026795D01*
X0015809Y0026901D01*
X0015850Y0027005D01*
X0015895Y0027108D01*
X0015943Y0027209D01*
X0015994Y0027308D01*
X0016049Y0027405D01*
X0016108Y0027500D01*
X0016169Y0027594D01*
X0016234Y0027685D01*
X0016303Y0027773D01*
X0016374Y0027859D01*
X0016448Y0027943D01*
X0016526Y0028023D01*
X0016606Y0028101D01*
X0016689Y0028177D01*
X0016774Y0028249D01*
X0016862Y0028318D01*
X0016952Y0028384D01*
X0017045Y0028446D01*
X0017140Y0028506D01*
X0017237Y0028562D01*
X0017335Y0028614D01*
X0017436Y0028663D01*
X0017538Y0028708D01*
X0017642Y0028750D01*
X0017747Y0028788D01*
X0017854Y0028822D01*
X0017961Y0028852D01*
X0018070Y0028879D01*
X0018179Y0028901D01*
X0018290Y0028920D01*
X0018400Y0028935D01*
X0018512Y0028946D01*
X0018623Y0028953D01*
X0018735Y0028956D01*
X0018847Y0028955D01*
X0018959Y0028950D01*
X0019070Y0028941D01*
X0019181Y0028928D01*
X0019292Y0028911D01*
X0019402Y0028891D01*
X0019511Y0028866D01*
X0019619Y0028838D01*
X0019726Y0028805D01*
X0019832Y0028769D01*
X0019936Y0028729D01*
X0020039Y0028686D01*
X0020141Y0028639D01*
X0020240Y0028588D01*
X0020338Y0028534D01*
X0020434Y0028476D01*
X0020528Y0028415D01*
X0020619Y0028351D01*
X0020708Y0028284D01*
X0020795Y0028213D01*
X0020879Y0028139D01*
X0020961Y0028063D01*
X0021039Y0027983D01*
X0021115Y0027901D01*
X0021188Y0027816D01*
X0021258Y0027729D01*
X0021324Y0027639D01*
X0021388Y0027547D01*
X0021448Y0027453D01*
X0021505Y0027357D01*
X0021558Y0027258D01*
X0021608Y0027158D01*
X0021654Y0027057D01*
X0021697Y0026953D01*
X0021736Y0026848D01*
X0021771Y0026742D01*
X0021802Y0026635D01*
X0021830Y0026526D01*
X0021853Y0026417D01*
X0021873Y0026307D01*
X0021889Y0026196D01*
X0021901Y0026085D01*
X0021909Y0025974D01*
X0021913Y0025862D01*
X0021913Y0025750D01*
X0021909Y0025638D01*
X0021901Y0025527D01*
X0021889Y0025416D01*
X0021873Y0025305D01*
X0021853Y0025195D01*
X0021830Y0025086D01*
X0021802Y0024977D01*
X0021771Y0024870D01*
X0021736Y0024764D01*
X0021697Y0024659D01*
X0021654Y0024555D01*
X0021608Y0024454D01*
X0021558Y0024354D01*
X0021505Y0024255D01*
X0021448Y0024159D01*
X0021388Y0024065D01*
X0021324Y0023973D01*
X0021258Y0023883D01*
X0021188Y0023796D01*
X0021115Y0023711D01*
X0021039Y0023629D01*
X0020961Y0023549D01*
X0020879Y0023473D01*
X0020795Y0023399D01*
X0020708Y0023328D01*
X0020619Y0023261D01*
X0020528Y0023197D01*
X0020434Y0023136D01*
X0020338Y0023078D01*
X0020240Y0023024D01*
X0020141Y0022973D01*
X0020039Y0022926D01*
X0019936Y0022883D01*
X0019832Y0022843D01*
X0019726Y0022807D01*
X0019619Y0022774D01*
X0019511Y0022746D01*
X0019402Y0022721D01*
X0019292Y0022701D01*
X0019181Y0022684D01*
X0019070Y0022671D01*
X0018959Y0022662D01*
X0018847Y0022657D01*
X0018735Y0022656D01*
X0018623Y0022659D01*
X0018512Y0022666D01*
X0018400Y0022677D01*
X0018290Y0022692D01*
X0018179Y0022711D01*
X0018070Y0022733D01*
X0017961Y0022760D01*
X0017854Y0022790D01*
X0017747Y0022824D01*
X0017642Y0022862D01*
X0017538Y0022904D01*
X0017436Y0022949D01*
X0017335Y0022998D01*
X0017237Y0023050D01*
X0017140Y0023106D01*
X0017045Y0023166D01*
X0016952Y0023228D01*
X0016862Y0023294D01*
X0016774Y0023363D01*
X0016689Y0023435D01*
X0016606Y0023511D01*
X0016526Y0023589D01*
X0016448Y0023669D01*
X0016374Y0023753D01*
X0016303Y0023839D01*
X0016234Y0023927D01*
X0016169Y0024018D01*
X0016108Y0024112D01*
X0016049Y0024207D01*
X0015994Y0024304D01*
X0015943Y0024403D01*
X0015895Y0024504D01*
X0015850Y0024607D01*
X0015809Y0024711D01*
X0015772Y0024817D01*
X0015739Y0024923D01*
X0015710Y0025031D01*
X0015684Y0025140D01*
X0015662Y0025250D01*
X0015645Y0025360D01*
X0015631Y0025471D01*
X0015621Y0025583D01*
X0015615Y0025694D01*
X0015613Y0025806D01*
X0111874Y0025806D02*
X0111876Y0025899D01*
X0111882Y0025991D01*
X0111892Y0026083D01*
X0111906Y0026174D01*
X0111923Y0026265D01*
X0111945Y0026355D01*
X0111970Y0026444D01*
X0111999Y0026532D01*
X0112032Y0026618D01*
X0112069Y0026703D01*
X0112109Y0026787D01*
X0112153Y0026868D01*
X0112200Y0026948D01*
X0112250Y0027026D01*
X0112304Y0027101D01*
X0112361Y0027174D01*
X0112421Y0027244D01*
X0112484Y0027312D01*
X0112550Y0027377D01*
X0112618Y0027439D01*
X0112689Y0027499D01*
X0112763Y0027555D01*
X0112839Y0027608D01*
X0112917Y0027657D01*
X0112997Y0027704D01*
X0113079Y0027746D01*
X0113163Y0027786D01*
X0113248Y0027821D01*
X0113335Y0027853D01*
X0113423Y0027882D01*
X0113512Y0027906D01*
X0113602Y0027927D01*
X0113693Y0027943D01*
X0113785Y0027956D01*
X0113877Y0027965D01*
X0113970Y0027970D01*
X0114062Y0027971D01*
X0114155Y0027968D01*
X0114247Y0027961D01*
X0114339Y0027950D01*
X0114430Y0027935D01*
X0114521Y0027917D01*
X0114611Y0027894D01*
X0114699Y0027868D01*
X0114787Y0027838D01*
X0114873Y0027804D01*
X0114957Y0027767D01*
X0115040Y0027725D01*
X0115121Y0027681D01*
X0115201Y0027633D01*
X0115278Y0027582D01*
X0115352Y0027527D01*
X0115425Y0027469D01*
X0115495Y0027409D01*
X0115562Y0027345D01*
X0115626Y0027279D01*
X0115688Y0027209D01*
X0115746Y0027138D01*
X0115801Y0027064D01*
X0115853Y0026987D01*
X0115902Y0026908D01*
X0115948Y0026828D01*
X0115990Y0026745D01*
X0116028Y0026661D01*
X0116063Y0026575D01*
X0116094Y0026488D01*
X0116121Y0026400D01*
X0116144Y0026310D01*
X0116164Y0026220D01*
X0116180Y0026129D01*
X0116192Y0026037D01*
X0116200Y0025945D01*
X0116204Y0025852D01*
X0116204Y0025760D01*
X0116200Y0025667D01*
X0116192Y0025575D01*
X0116180Y0025483D01*
X0116164Y0025392D01*
X0116144Y0025302D01*
X0116121Y0025212D01*
X0116094Y0025124D01*
X0116063Y0025037D01*
X0116028Y0024951D01*
X0115990Y0024867D01*
X0115948Y0024784D01*
X0115902Y0024704D01*
X0115853Y0024625D01*
X0115801Y0024548D01*
X0115746Y0024474D01*
X0115688Y0024403D01*
X0115626Y0024333D01*
X0115562Y0024267D01*
X0115495Y0024203D01*
X0115425Y0024143D01*
X0115352Y0024085D01*
X0115278Y0024030D01*
X0115201Y0023979D01*
X0115122Y0023931D01*
X0115040Y0023887D01*
X0114957Y0023845D01*
X0114873Y0023808D01*
X0114787Y0023774D01*
X0114699Y0023744D01*
X0114611Y0023718D01*
X0114521Y0023695D01*
X0114430Y0023677D01*
X0114339Y0023662D01*
X0114247Y0023651D01*
X0114155Y0023644D01*
X0114062Y0023641D01*
X0113970Y0023642D01*
X0113877Y0023647D01*
X0113785Y0023656D01*
X0113693Y0023669D01*
X0113602Y0023685D01*
X0113512Y0023706D01*
X0113423Y0023730D01*
X0113335Y0023759D01*
X0113248Y0023791D01*
X0113163Y0023826D01*
X0113079Y0023866D01*
X0112997Y0023908D01*
X0112917Y0023955D01*
X0112839Y0024004D01*
X0112763Y0024057D01*
X0112689Y0024113D01*
X0112618Y0024173D01*
X0112550Y0024235D01*
X0112484Y0024300D01*
X0112421Y0024368D01*
X0112361Y0024438D01*
X0112304Y0024511D01*
X0112250Y0024586D01*
X0112200Y0024664D01*
X0112153Y0024744D01*
X0112109Y0024825D01*
X0112069Y0024909D01*
X0112032Y0024994D01*
X0111999Y0025080D01*
X0111970Y0025168D01*
X0111945Y0025257D01*
X0111923Y0025347D01*
X0111906Y0025438D01*
X0111892Y0025529D01*
X0111882Y0025621D01*
X0111876Y0025713D01*
X0111874Y0025806D01*
X0164031Y0028928D02*
X0164033Y0029040D01*
X0164039Y0029151D01*
X0164049Y0029263D01*
X0164063Y0029374D01*
X0164080Y0029484D01*
X0164102Y0029594D01*
X0164128Y0029703D01*
X0164157Y0029811D01*
X0164190Y0029917D01*
X0164227Y0030023D01*
X0164268Y0030127D01*
X0164313Y0030230D01*
X0164361Y0030331D01*
X0164412Y0030430D01*
X0164467Y0030527D01*
X0164526Y0030622D01*
X0164587Y0030716D01*
X0164652Y0030807D01*
X0164721Y0030895D01*
X0164792Y0030981D01*
X0164866Y0031065D01*
X0164944Y0031145D01*
X0165024Y0031223D01*
X0165107Y0031299D01*
X0165192Y0031371D01*
X0165280Y0031440D01*
X0165370Y0031506D01*
X0165463Y0031568D01*
X0165558Y0031628D01*
X0165655Y0031684D01*
X0165753Y0031736D01*
X0165854Y0031785D01*
X0165956Y0031830D01*
X0166060Y0031872D01*
X0166165Y0031910D01*
X0166272Y0031944D01*
X0166379Y0031974D01*
X0166488Y0032001D01*
X0166597Y0032023D01*
X0166708Y0032042D01*
X0166818Y0032057D01*
X0166930Y0032068D01*
X0167041Y0032075D01*
X0167153Y0032078D01*
X0167265Y0032077D01*
X0167377Y0032072D01*
X0167488Y0032063D01*
X0167599Y0032050D01*
X0167710Y0032033D01*
X0167820Y0032013D01*
X0167929Y0031988D01*
X0168037Y0031960D01*
X0168144Y0031927D01*
X0168250Y0031891D01*
X0168354Y0031851D01*
X0168457Y0031808D01*
X0168559Y0031761D01*
X0168658Y0031710D01*
X0168756Y0031656D01*
X0168852Y0031598D01*
X0168946Y0031537D01*
X0169037Y0031473D01*
X0169126Y0031406D01*
X0169213Y0031335D01*
X0169297Y0031261D01*
X0169379Y0031185D01*
X0169457Y0031105D01*
X0169533Y0031023D01*
X0169606Y0030938D01*
X0169676Y0030851D01*
X0169742Y0030761D01*
X0169806Y0030669D01*
X0169866Y0030575D01*
X0169923Y0030479D01*
X0169976Y0030380D01*
X0170026Y0030280D01*
X0170072Y0030179D01*
X0170115Y0030075D01*
X0170154Y0029970D01*
X0170189Y0029864D01*
X0170220Y0029757D01*
X0170248Y0029648D01*
X0170271Y0029539D01*
X0170291Y0029429D01*
X0170307Y0029318D01*
X0170319Y0029207D01*
X0170327Y0029096D01*
X0170331Y0028984D01*
X0170331Y0028872D01*
X0170327Y0028760D01*
X0170319Y0028649D01*
X0170307Y0028538D01*
X0170291Y0028427D01*
X0170271Y0028317D01*
X0170248Y0028208D01*
X0170220Y0028099D01*
X0170189Y0027992D01*
X0170154Y0027886D01*
X0170115Y0027781D01*
X0170072Y0027677D01*
X0170026Y0027576D01*
X0169976Y0027476D01*
X0169923Y0027377D01*
X0169866Y0027281D01*
X0169806Y0027187D01*
X0169742Y0027095D01*
X0169676Y0027005D01*
X0169606Y0026918D01*
X0169533Y0026833D01*
X0169457Y0026751D01*
X0169379Y0026671D01*
X0169297Y0026595D01*
X0169213Y0026521D01*
X0169126Y0026450D01*
X0169037Y0026383D01*
X0168946Y0026319D01*
X0168852Y0026258D01*
X0168756Y0026200D01*
X0168658Y0026146D01*
X0168559Y0026095D01*
X0168457Y0026048D01*
X0168354Y0026005D01*
X0168250Y0025965D01*
X0168144Y0025929D01*
X0168037Y0025896D01*
X0167929Y0025868D01*
X0167820Y0025843D01*
X0167710Y0025823D01*
X0167599Y0025806D01*
X0167488Y0025793D01*
X0167377Y0025784D01*
X0167265Y0025779D01*
X0167153Y0025778D01*
X0167041Y0025781D01*
X0166930Y0025788D01*
X0166818Y0025799D01*
X0166708Y0025814D01*
X0166597Y0025833D01*
X0166488Y0025855D01*
X0166379Y0025882D01*
X0166272Y0025912D01*
X0166165Y0025946D01*
X0166060Y0025984D01*
X0165956Y0026026D01*
X0165854Y0026071D01*
X0165753Y0026120D01*
X0165655Y0026172D01*
X0165558Y0026228D01*
X0165463Y0026288D01*
X0165370Y0026350D01*
X0165280Y0026416D01*
X0165192Y0026485D01*
X0165107Y0026557D01*
X0165024Y0026633D01*
X0164944Y0026711D01*
X0164866Y0026791D01*
X0164792Y0026875D01*
X0164721Y0026961D01*
X0164652Y0027049D01*
X0164587Y0027140D01*
X0164526Y0027234D01*
X0164467Y0027329D01*
X0164412Y0027426D01*
X0164361Y0027525D01*
X0164313Y0027626D01*
X0164268Y0027729D01*
X0164227Y0027833D01*
X0164190Y0027939D01*
X0164157Y0028045D01*
X0164128Y0028153D01*
X0164102Y0028262D01*
X0164080Y0028372D01*
X0164063Y0028482D01*
X0164049Y0028593D01*
X0164039Y0028705D01*
X0164033Y0028816D01*
X0164031Y0028928D01*
X0163638Y0046645D02*
X0163640Y0046763D01*
X0163646Y0046882D01*
X0163656Y0047000D01*
X0163670Y0047117D01*
X0163687Y0047234D01*
X0163709Y0047351D01*
X0163735Y0047466D01*
X0163764Y0047581D01*
X0163797Y0047695D01*
X0163834Y0047807D01*
X0163875Y0047918D01*
X0163919Y0048028D01*
X0163967Y0048136D01*
X0164019Y0048243D01*
X0164074Y0048348D01*
X0164133Y0048451D01*
X0164195Y0048551D01*
X0164260Y0048650D01*
X0164329Y0048747D01*
X0164400Y0048841D01*
X0164475Y0048932D01*
X0164553Y0049022D01*
X0164634Y0049108D01*
X0164718Y0049192D01*
X0164804Y0049273D01*
X0164894Y0049351D01*
X0164985Y0049426D01*
X0165079Y0049497D01*
X0165176Y0049566D01*
X0165275Y0049631D01*
X0165375Y0049693D01*
X0165478Y0049752D01*
X0165583Y0049807D01*
X0165690Y0049859D01*
X0165798Y0049907D01*
X0165908Y0049951D01*
X0166019Y0049992D01*
X0166131Y0050029D01*
X0166245Y0050062D01*
X0166360Y0050091D01*
X0166475Y0050117D01*
X0166592Y0050139D01*
X0166709Y0050156D01*
X0166826Y0050170D01*
X0166944Y0050180D01*
X0167063Y0050186D01*
X0167181Y0050188D01*
X0167299Y0050186D01*
X0167418Y0050180D01*
X0167536Y0050170D01*
X0167653Y0050156D01*
X0167770Y0050139D01*
X0167887Y0050117D01*
X0168002Y0050091D01*
X0168117Y0050062D01*
X0168231Y0050029D01*
X0168343Y0049992D01*
X0168454Y0049951D01*
X0168564Y0049907D01*
X0168672Y0049859D01*
X0168779Y0049807D01*
X0168884Y0049752D01*
X0168987Y0049693D01*
X0169087Y0049631D01*
X0169186Y0049566D01*
X0169283Y0049497D01*
X0169377Y0049426D01*
X0169468Y0049351D01*
X0169558Y0049273D01*
X0169644Y0049192D01*
X0169728Y0049108D01*
X0169809Y0049022D01*
X0169887Y0048932D01*
X0169962Y0048841D01*
X0170033Y0048747D01*
X0170102Y0048650D01*
X0170167Y0048551D01*
X0170229Y0048451D01*
X0170288Y0048348D01*
X0170343Y0048243D01*
X0170395Y0048136D01*
X0170443Y0048028D01*
X0170487Y0047918D01*
X0170528Y0047807D01*
X0170565Y0047695D01*
X0170598Y0047581D01*
X0170627Y0047466D01*
X0170653Y0047351D01*
X0170675Y0047234D01*
X0170692Y0047117D01*
X0170706Y0047000D01*
X0170716Y0046882D01*
X0170722Y0046763D01*
X0170724Y0046645D01*
X0170722Y0046527D01*
X0170716Y0046408D01*
X0170706Y0046290D01*
X0170692Y0046173D01*
X0170675Y0046056D01*
X0170653Y0045939D01*
X0170627Y0045824D01*
X0170598Y0045709D01*
X0170565Y0045595D01*
X0170528Y0045483D01*
X0170487Y0045372D01*
X0170443Y0045262D01*
X0170395Y0045154D01*
X0170343Y0045047D01*
X0170288Y0044942D01*
X0170229Y0044839D01*
X0170167Y0044739D01*
X0170102Y0044640D01*
X0170033Y0044543D01*
X0169962Y0044449D01*
X0169887Y0044358D01*
X0169809Y0044268D01*
X0169728Y0044182D01*
X0169644Y0044098D01*
X0169558Y0044017D01*
X0169468Y0043939D01*
X0169377Y0043864D01*
X0169283Y0043793D01*
X0169186Y0043724D01*
X0169087Y0043659D01*
X0168987Y0043597D01*
X0168884Y0043538D01*
X0168779Y0043483D01*
X0168672Y0043431D01*
X0168564Y0043383D01*
X0168454Y0043339D01*
X0168343Y0043298D01*
X0168231Y0043261D01*
X0168117Y0043228D01*
X0168002Y0043199D01*
X0167887Y0043173D01*
X0167770Y0043151D01*
X0167653Y0043134D01*
X0167536Y0043120D01*
X0167418Y0043110D01*
X0167299Y0043104D01*
X0167181Y0043102D01*
X0167063Y0043104D01*
X0166944Y0043110D01*
X0166826Y0043120D01*
X0166709Y0043134D01*
X0166592Y0043151D01*
X0166475Y0043173D01*
X0166360Y0043199D01*
X0166245Y0043228D01*
X0166131Y0043261D01*
X0166019Y0043298D01*
X0165908Y0043339D01*
X0165798Y0043383D01*
X0165690Y0043431D01*
X0165583Y0043483D01*
X0165478Y0043538D01*
X0165375Y0043597D01*
X0165275Y0043659D01*
X0165176Y0043724D01*
X0165079Y0043793D01*
X0164985Y0043864D01*
X0164894Y0043939D01*
X0164804Y0044017D01*
X0164718Y0044098D01*
X0164634Y0044182D01*
X0164553Y0044268D01*
X0164475Y0044358D01*
X0164400Y0044449D01*
X0164329Y0044543D01*
X0164260Y0044640D01*
X0164195Y0044739D01*
X0164133Y0044839D01*
X0164074Y0044942D01*
X0164019Y0045047D01*
X0163967Y0045154D01*
X0163919Y0045262D01*
X0163875Y0045372D01*
X0163834Y0045483D01*
X0163797Y0045595D01*
X0163764Y0045709D01*
X0163735Y0045824D01*
X0163709Y0045939D01*
X0163687Y0046056D01*
X0163670Y0046173D01*
X0163656Y0046290D01*
X0163646Y0046408D01*
X0163640Y0046527D01*
X0163638Y0046645D01*
X0113449Y0224243D02*
X0113451Y0224336D01*
X0113457Y0224428D01*
X0113467Y0224520D01*
X0113481Y0224611D01*
X0113498Y0224702D01*
X0113520Y0224792D01*
X0113545Y0224881D01*
X0113574Y0224969D01*
X0113607Y0225055D01*
X0113644Y0225140D01*
X0113684Y0225224D01*
X0113728Y0225305D01*
X0113775Y0225385D01*
X0113825Y0225463D01*
X0113879Y0225538D01*
X0113936Y0225611D01*
X0113996Y0225681D01*
X0114059Y0225749D01*
X0114125Y0225814D01*
X0114193Y0225876D01*
X0114264Y0225936D01*
X0114338Y0225992D01*
X0114414Y0226045D01*
X0114492Y0226094D01*
X0114572Y0226141D01*
X0114654Y0226183D01*
X0114738Y0226223D01*
X0114823Y0226258D01*
X0114910Y0226290D01*
X0114998Y0226319D01*
X0115087Y0226343D01*
X0115177Y0226364D01*
X0115268Y0226380D01*
X0115360Y0226393D01*
X0115452Y0226402D01*
X0115545Y0226407D01*
X0115637Y0226408D01*
X0115730Y0226405D01*
X0115822Y0226398D01*
X0115914Y0226387D01*
X0116005Y0226372D01*
X0116096Y0226354D01*
X0116186Y0226331D01*
X0116274Y0226305D01*
X0116362Y0226275D01*
X0116448Y0226241D01*
X0116532Y0226204D01*
X0116615Y0226162D01*
X0116696Y0226118D01*
X0116776Y0226070D01*
X0116853Y0226019D01*
X0116927Y0225964D01*
X0117000Y0225906D01*
X0117070Y0225846D01*
X0117137Y0225782D01*
X0117201Y0225716D01*
X0117263Y0225646D01*
X0117321Y0225575D01*
X0117376Y0225501D01*
X0117428Y0225424D01*
X0117477Y0225345D01*
X0117523Y0225265D01*
X0117565Y0225182D01*
X0117603Y0225098D01*
X0117638Y0225012D01*
X0117669Y0224925D01*
X0117696Y0224837D01*
X0117719Y0224747D01*
X0117739Y0224657D01*
X0117755Y0224566D01*
X0117767Y0224474D01*
X0117775Y0224382D01*
X0117779Y0224289D01*
X0117779Y0224197D01*
X0117775Y0224104D01*
X0117767Y0224012D01*
X0117755Y0223920D01*
X0117739Y0223829D01*
X0117719Y0223739D01*
X0117696Y0223649D01*
X0117669Y0223561D01*
X0117638Y0223474D01*
X0117603Y0223388D01*
X0117565Y0223304D01*
X0117523Y0223221D01*
X0117477Y0223141D01*
X0117428Y0223062D01*
X0117376Y0222985D01*
X0117321Y0222911D01*
X0117263Y0222840D01*
X0117201Y0222770D01*
X0117137Y0222704D01*
X0117070Y0222640D01*
X0117000Y0222580D01*
X0116927Y0222522D01*
X0116853Y0222467D01*
X0116776Y0222416D01*
X0116697Y0222368D01*
X0116615Y0222324D01*
X0116532Y0222282D01*
X0116448Y0222245D01*
X0116362Y0222211D01*
X0116274Y0222181D01*
X0116186Y0222155D01*
X0116096Y0222132D01*
X0116005Y0222114D01*
X0115914Y0222099D01*
X0115822Y0222088D01*
X0115730Y0222081D01*
X0115637Y0222078D01*
X0115545Y0222079D01*
X0115452Y0222084D01*
X0115360Y0222093D01*
X0115268Y0222106D01*
X0115177Y0222122D01*
X0115087Y0222143D01*
X0114998Y0222167D01*
X0114910Y0222196D01*
X0114823Y0222228D01*
X0114738Y0222263D01*
X0114654Y0222303D01*
X0114572Y0222345D01*
X0114492Y0222392D01*
X0114414Y0222441D01*
X0114338Y0222494D01*
X0114264Y0222550D01*
X0114193Y0222610D01*
X0114125Y0222672D01*
X0114059Y0222737D01*
X0113996Y0222805D01*
X0113936Y0222875D01*
X0113879Y0222948D01*
X0113825Y0223023D01*
X0113775Y0223101D01*
X0113728Y0223181D01*
X0113684Y0223262D01*
X0113644Y0223346D01*
X0113607Y0223431D01*
X0113574Y0223517D01*
X0113545Y0223605D01*
X0113520Y0223694D01*
X0113498Y0223784D01*
X0113481Y0223875D01*
X0113467Y0223966D01*
X0113457Y0224058D01*
X0113451Y0224150D01*
X0113449Y0224243D01*
X0164519Y0266243D02*
X0164521Y0266327D01*
X0164527Y0266410D01*
X0164537Y0266493D01*
X0164551Y0266576D01*
X0164568Y0266658D01*
X0164590Y0266739D01*
X0164615Y0266818D01*
X0164644Y0266897D01*
X0164677Y0266974D01*
X0164713Y0267049D01*
X0164753Y0267123D01*
X0164796Y0267195D01*
X0164843Y0267264D01*
X0164893Y0267331D01*
X0164946Y0267396D01*
X0165002Y0267458D01*
X0165060Y0267518D01*
X0165122Y0267575D01*
X0165186Y0267628D01*
X0165253Y0267679D01*
X0165322Y0267726D01*
X0165393Y0267771D01*
X0165466Y0267811D01*
X0165541Y0267848D01*
X0165618Y0267882D01*
X0165696Y0267912D01*
X0165775Y0267938D01*
X0165856Y0267961D01*
X0165938Y0267979D01*
X0166020Y0267994D01*
X0166103Y0268005D01*
X0166186Y0268012D01*
X0166270Y0268015D01*
X0166354Y0268014D01*
X0166437Y0268009D01*
X0166521Y0268000D01*
X0166603Y0267987D01*
X0166685Y0267971D01*
X0166766Y0267950D01*
X0166847Y0267926D01*
X0166925Y0267898D01*
X0167003Y0267866D01*
X0167079Y0267830D01*
X0167153Y0267791D01*
X0167225Y0267749D01*
X0167295Y0267703D01*
X0167363Y0267654D01*
X0167428Y0267602D01*
X0167491Y0267547D01*
X0167551Y0267489D01*
X0167609Y0267428D01*
X0167663Y0267364D01*
X0167715Y0267298D01*
X0167763Y0267230D01*
X0167808Y0267159D01*
X0167849Y0267086D01*
X0167888Y0267012D01*
X0167922Y0266936D01*
X0167953Y0266858D01*
X0167980Y0266779D01*
X0168004Y0266698D01*
X0168023Y0266617D01*
X0168039Y0266535D01*
X0168051Y0266452D01*
X0168059Y0266368D01*
X0168063Y0266285D01*
X0168063Y0266201D01*
X0168059Y0266118D01*
X0168051Y0266034D01*
X0168039Y0265951D01*
X0168023Y0265869D01*
X0168004Y0265788D01*
X0167980Y0265707D01*
X0167953Y0265628D01*
X0167922Y0265550D01*
X0167888Y0265474D01*
X0167849Y0265400D01*
X0167808Y0265327D01*
X0167763Y0265256D01*
X0167715Y0265188D01*
X0167663Y0265122D01*
X0167609Y0265058D01*
X0167551Y0264997D01*
X0167491Y0264939D01*
X0167428Y0264884D01*
X0167363Y0264832D01*
X0167295Y0264783D01*
X0167225Y0264737D01*
X0167153Y0264695D01*
X0167079Y0264656D01*
X0167003Y0264620D01*
X0166925Y0264588D01*
X0166847Y0264560D01*
X0166766Y0264536D01*
X0166685Y0264515D01*
X0166603Y0264499D01*
X0166521Y0264486D01*
X0166437Y0264477D01*
X0166354Y0264472D01*
X0166270Y0264471D01*
X0166186Y0264474D01*
X0166103Y0264481D01*
X0166020Y0264492D01*
X0165938Y0264507D01*
X0165856Y0264525D01*
X0165775Y0264548D01*
X0165696Y0264574D01*
X0165618Y0264604D01*
X0165541Y0264638D01*
X0165466Y0264675D01*
X0165393Y0264715D01*
X0165322Y0264760D01*
X0165253Y0264807D01*
X0165186Y0264858D01*
X0165122Y0264911D01*
X0165060Y0264968D01*
X0165002Y0265028D01*
X0164946Y0265090D01*
X0164893Y0265155D01*
X0164843Y0265222D01*
X0164796Y0265291D01*
X0164753Y0265363D01*
X0164713Y0265437D01*
X0164677Y0265512D01*
X0164644Y0265589D01*
X0164615Y0265668D01*
X0164590Y0265747D01*
X0164568Y0265828D01*
X0164551Y0265910D01*
X0164537Y0265993D01*
X0164527Y0266076D01*
X0164521Y0266159D01*
X0164519Y0266243D01*
X0178299Y0266243D02*
X0178301Y0266327D01*
X0178307Y0266410D01*
X0178317Y0266493D01*
X0178331Y0266576D01*
X0178348Y0266658D01*
X0178370Y0266739D01*
X0178395Y0266818D01*
X0178424Y0266897D01*
X0178457Y0266974D01*
X0178493Y0267049D01*
X0178533Y0267123D01*
X0178576Y0267195D01*
X0178623Y0267264D01*
X0178673Y0267331D01*
X0178726Y0267396D01*
X0178782Y0267458D01*
X0178840Y0267518D01*
X0178902Y0267575D01*
X0178966Y0267628D01*
X0179033Y0267679D01*
X0179102Y0267726D01*
X0179173Y0267771D01*
X0179246Y0267811D01*
X0179321Y0267848D01*
X0179398Y0267882D01*
X0179476Y0267912D01*
X0179555Y0267938D01*
X0179636Y0267961D01*
X0179718Y0267979D01*
X0179800Y0267994D01*
X0179883Y0268005D01*
X0179966Y0268012D01*
X0180050Y0268015D01*
X0180134Y0268014D01*
X0180217Y0268009D01*
X0180301Y0268000D01*
X0180383Y0267987D01*
X0180465Y0267971D01*
X0180546Y0267950D01*
X0180627Y0267926D01*
X0180705Y0267898D01*
X0180783Y0267866D01*
X0180859Y0267830D01*
X0180933Y0267791D01*
X0181005Y0267749D01*
X0181075Y0267703D01*
X0181143Y0267654D01*
X0181208Y0267602D01*
X0181271Y0267547D01*
X0181331Y0267489D01*
X0181389Y0267428D01*
X0181443Y0267364D01*
X0181495Y0267298D01*
X0181543Y0267230D01*
X0181588Y0267159D01*
X0181629Y0267086D01*
X0181668Y0267012D01*
X0181702Y0266936D01*
X0181733Y0266858D01*
X0181760Y0266779D01*
X0181784Y0266698D01*
X0181803Y0266617D01*
X0181819Y0266535D01*
X0181831Y0266452D01*
X0181839Y0266368D01*
X0181843Y0266285D01*
X0181843Y0266201D01*
X0181839Y0266118D01*
X0181831Y0266034D01*
X0181819Y0265951D01*
X0181803Y0265869D01*
X0181784Y0265788D01*
X0181760Y0265707D01*
X0181733Y0265628D01*
X0181702Y0265550D01*
X0181668Y0265474D01*
X0181629Y0265400D01*
X0181588Y0265327D01*
X0181543Y0265256D01*
X0181495Y0265188D01*
X0181443Y0265122D01*
X0181389Y0265058D01*
X0181331Y0264997D01*
X0181271Y0264939D01*
X0181208Y0264884D01*
X0181143Y0264832D01*
X0181075Y0264783D01*
X0181005Y0264737D01*
X0180933Y0264695D01*
X0180859Y0264656D01*
X0180783Y0264620D01*
X0180705Y0264588D01*
X0180627Y0264560D01*
X0180546Y0264536D01*
X0180465Y0264515D01*
X0180383Y0264499D01*
X0180301Y0264486D01*
X0180217Y0264477D01*
X0180134Y0264472D01*
X0180050Y0264471D01*
X0179966Y0264474D01*
X0179883Y0264481D01*
X0179800Y0264492D01*
X0179718Y0264507D01*
X0179636Y0264525D01*
X0179555Y0264548D01*
X0179476Y0264574D01*
X0179398Y0264604D01*
X0179321Y0264638D01*
X0179246Y0264675D01*
X0179173Y0264715D01*
X0179102Y0264760D01*
X0179033Y0264807D01*
X0178966Y0264858D01*
X0178902Y0264911D01*
X0178840Y0264968D01*
X0178782Y0265028D01*
X0178726Y0265090D01*
X0178673Y0265155D01*
X0178623Y0265222D01*
X0178576Y0265291D01*
X0178533Y0265363D01*
X0178493Y0265437D01*
X0178457Y0265512D01*
X0178424Y0265589D01*
X0178395Y0265668D01*
X0178370Y0265747D01*
X0178348Y0265828D01*
X0178331Y0265910D01*
X0178317Y0265993D01*
X0178307Y0266076D01*
X0178301Y0266159D01*
X0178299Y0266243D01*
X0014038Y0224243D02*
X0014040Y0224355D01*
X0014046Y0224466D01*
X0014056Y0224578D01*
X0014070Y0224689D01*
X0014087Y0224799D01*
X0014109Y0224909D01*
X0014135Y0225018D01*
X0014164Y0225126D01*
X0014197Y0225232D01*
X0014234Y0225338D01*
X0014275Y0225442D01*
X0014320Y0225545D01*
X0014368Y0225646D01*
X0014419Y0225745D01*
X0014474Y0225842D01*
X0014533Y0225937D01*
X0014594Y0226031D01*
X0014659Y0226122D01*
X0014728Y0226210D01*
X0014799Y0226296D01*
X0014873Y0226380D01*
X0014951Y0226460D01*
X0015031Y0226538D01*
X0015114Y0226614D01*
X0015199Y0226686D01*
X0015287Y0226755D01*
X0015377Y0226821D01*
X0015470Y0226883D01*
X0015565Y0226943D01*
X0015662Y0226999D01*
X0015760Y0227051D01*
X0015861Y0227100D01*
X0015963Y0227145D01*
X0016067Y0227187D01*
X0016172Y0227225D01*
X0016279Y0227259D01*
X0016386Y0227289D01*
X0016495Y0227316D01*
X0016604Y0227338D01*
X0016715Y0227357D01*
X0016825Y0227372D01*
X0016937Y0227383D01*
X0017048Y0227390D01*
X0017160Y0227393D01*
X0017272Y0227392D01*
X0017384Y0227387D01*
X0017495Y0227378D01*
X0017606Y0227365D01*
X0017717Y0227348D01*
X0017827Y0227328D01*
X0017936Y0227303D01*
X0018044Y0227275D01*
X0018151Y0227242D01*
X0018257Y0227206D01*
X0018361Y0227166D01*
X0018464Y0227123D01*
X0018566Y0227076D01*
X0018665Y0227025D01*
X0018763Y0226971D01*
X0018859Y0226913D01*
X0018953Y0226852D01*
X0019044Y0226788D01*
X0019133Y0226721D01*
X0019220Y0226650D01*
X0019304Y0226576D01*
X0019386Y0226500D01*
X0019464Y0226420D01*
X0019540Y0226338D01*
X0019613Y0226253D01*
X0019683Y0226166D01*
X0019749Y0226076D01*
X0019813Y0225984D01*
X0019873Y0225890D01*
X0019930Y0225794D01*
X0019983Y0225695D01*
X0020033Y0225595D01*
X0020079Y0225494D01*
X0020122Y0225390D01*
X0020161Y0225285D01*
X0020196Y0225179D01*
X0020227Y0225072D01*
X0020255Y0224963D01*
X0020278Y0224854D01*
X0020298Y0224744D01*
X0020314Y0224633D01*
X0020326Y0224522D01*
X0020334Y0224411D01*
X0020338Y0224299D01*
X0020338Y0224187D01*
X0020334Y0224075D01*
X0020326Y0223964D01*
X0020314Y0223853D01*
X0020298Y0223742D01*
X0020278Y0223632D01*
X0020255Y0223523D01*
X0020227Y0223414D01*
X0020196Y0223307D01*
X0020161Y0223201D01*
X0020122Y0223096D01*
X0020079Y0222992D01*
X0020033Y0222891D01*
X0019983Y0222791D01*
X0019930Y0222692D01*
X0019873Y0222596D01*
X0019813Y0222502D01*
X0019749Y0222410D01*
X0019683Y0222320D01*
X0019613Y0222233D01*
X0019540Y0222148D01*
X0019464Y0222066D01*
X0019386Y0221986D01*
X0019304Y0221910D01*
X0019220Y0221836D01*
X0019133Y0221765D01*
X0019044Y0221698D01*
X0018953Y0221634D01*
X0018859Y0221573D01*
X0018763Y0221515D01*
X0018665Y0221461D01*
X0018566Y0221410D01*
X0018464Y0221363D01*
X0018361Y0221320D01*
X0018257Y0221280D01*
X0018151Y0221244D01*
X0018044Y0221211D01*
X0017936Y0221183D01*
X0017827Y0221158D01*
X0017717Y0221138D01*
X0017606Y0221121D01*
X0017495Y0221108D01*
X0017384Y0221099D01*
X0017272Y0221094D01*
X0017160Y0221093D01*
X0017048Y0221096D01*
X0016937Y0221103D01*
X0016825Y0221114D01*
X0016715Y0221129D01*
X0016604Y0221148D01*
X0016495Y0221170D01*
X0016386Y0221197D01*
X0016279Y0221227D01*
X0016172Y0221261D01*
X0016067Y0221299D01*
X0015963Y0221341D01*
X0015861Y0221386D01*
X0015760Y0221435D01*
X0015662Y0221487D01*
X0015565Y0221543D01*
X0015470Y0221603D01*
X0015377Y0221665D01*
X0015287Y0221731D01*
X0015199Y0221800D01*
X0015114Y0221872D01*
X0015031Y0221948D01*
X0014951Y0222026D01*
X0014873Y0222106D01*
X0014799Y0222190D01*
X0014728Y0222276D01*
X0014659Y0222364D01*
X0014594Y0222455D01*
X0014533Y0222549D01*
X0014474Y0222644D01*
X0014419Y0222741D01*
X0014368Y0222840D01*
X0014320Y0222941D01*
X0014275Y0223044D01*
X0014234Y0223148D01*
X0014197Y0223254D01*
X0014164Y0223360D01*
X0014135Y0223468D01*
X0014109Y0223577D01*
X0014087Y0223687D01*
X0014070Y0223797D01*
X0014056Y0223908D01*
X0014046Y0224020D01*
X0014040Y0224131D01*
X0014038Y0224243D01*
D11*
X0013288Y0154263D02*
X0007894Y0154263D01*
X0013288Y0154263D02*
X0013288Y0151231D01*
X0007894Y0151231D01*
X0007894Y0154263D01*
X0007894Y0152529D02*
X0013288Y0152529D01*
X0013288Y0153827D02*
X0007894Y0153827D01*
X0007894Y0140405D02*
X0013288Y0140405D01*
X0013288Y0137373D01*
X0007894Y0137373D01*
X0007894Y0140405D01*
X0007894Y0138671D02*
X0013288Y0138671D01*
X0013288Y0139969D02*
X0007894Y0139969D01*
X0007894Y0130405D02*
X0013288Y0130405D01*
X0013288Y0127373D01*
X0007894Y0127373D01*
X0007894Y0130405D01*
X0007894Y0128671D02*
X0013288Y0128671D01*
X0013288Y0129969D02*
X0007894Y0129969D01*
X0007894Y0120405D02*
X0013288Y0120405D01*
X0013288Y0117373D01*
X0007894Y0117373D01*
X0007894Y0120405D01*
X0007894Y0118671D02*
X0013288Y0118671D01*
X0013288Y0119969D02*
X0007894Y0119969D01*
X0109075Y0120405D02*
X0114469Y0120405D01*
X0114469Y0117373D01*
X0109075Y0117373D01*
X0109075Y0120405D01*
X0109075Y0118671D02*
X0114469Y0118671D01*
X0114469Y0119969D02*
X0109075Y0119969D01*
X0109075Y0130405D02*
X0114469Y0130405D01*
X0114469Y0127373D01*
X0109075Y0127373D01*
X0109075Y0130405D01*
X0109075Y0128671D02*
X0114469Y0128671D01*
X0114469Y0129969D02*
X0109075Y0129969D01*
X0109075Y0140405D02*
X0114469Y0140405D01*
X0114469Y0137373D01*
X0109075Y0137373D01*
X0109075Y0140405D01*
X0109075Y0138671D02*
X0114469Y0138671D01*
X0114469Y0139969D02*
X0109075Y0139969D01*
X0109075Y0149539D02*
X0114469Y0149539D01*
X0114469Y0146507D01*
X0109075Y0146507D01*
X0109075Y0149539D01*
X0109075Y0147805D02*
X0114469Y0147805D01*
X0114469Y0149103D02*
X0109075Y0149103D01*
D12*
X0136181Y0189443D02*
X0136181Y0195043D01*
X0136181Y0201443D02*
X0136181Y0207043D01*
X0146181Y0207043D02*
X0146181Y0201443D01*
X0146181Y0195043D02*
X0146181Y0189443D01*
X0187381Y0144243D02*
X0192981Y0144243D01*
X0192981Y0134243D02*
X0187381Y0134243D01*
X0187381Y0124243D02*
X0192981Y0124243D01*
D13*
X0122181Y0264243D03*
X0122181Y0274243D03*
X0112181Y0274243D03*
X0112181Y0264243D03*
X0102181Y0264243D03*
X0102181Y0274243D03*
X0092181Y0274243D03*
X0092181Y0264243D03*
X0082181Y0264243D03*
X0082181Y0274243D03*
X0072181Y0274243D03*
X0072181Y0264243D03*
X0062181Y0264243D03*
X0062181Y0274243D03*
X0052181Y0274243D03*
X0052181Y0264243D03*
X0042181Y0264243D03*
X0042181Y0274243D03*
X0032181Y0274243D03*
X0032181Y0264243D03*
X0022181Y0264243D03*
X0022181Y0274243D03*
X0012181Y0274243D03*
X0012181Y0264243D03*
D14*
X0007000Y0264243D01*
X0007000Y0262097D01*
X0010035Y0259062D01*
X0012181Y0259062D01*
X0012181Y0264243D01*
X0012181Y0264243D01*
X0007000Y0264243D01*
X0007000Y0266389D01*
X0009995Y0269384D01*
X0007200Y0272180D01*
X0007200Y0276306D01*
X0010118Y0279224D01*
X0014244Y0279224D01*
X0017162Y0276306D01*
X0017162Y0272180D01*
X0014367Y0269384D01*
X0017323Y0266429D01*
X0020118Y0269224D01*
X0024244Y0269224D01*
X0027162Y0266306D01*
X0027162Y0262180D01*
X0024244Y0259262D01*
X0020118Y0259262D01*
X0017323Y0262057D01*
X0014327Y0259062D01*
X0012181Y0259062D01*
X0012181Y0264243D01*
X0012181Y0264243D01*
X0012181Y0264200D02*
X0012181Y0264200D01*
X0012181Y0261840D02*
X0012181Y0261840D01*
X0012181Y0259479D02*
X0012181Y0259479D01*
X0009618Y0259479D02*
X0004362Y0259479D01*
X0004362Y0261840D02*
X0007257Y0261840D01*
X0007000Y0264200D02*
X0004362Y0264200D01*
X0004362Y0266561D02*
X0007172Y0266561D01*
X0009533Y0268922D02*
X0004362Y0268922D01*
X0004362Y0271283D02*
X0008097Y0271283D01*
X0007200Y0273643D02*
X0004362Y0273643D01*
X0004362Y0276004D02*
X0007200Y0276004D01*
X0009258Y0278365D02*
X0004362Y0278365D01*
X0004362Y0280725D02*
X0070191Y0280725D01*
X0069500Y0280034D02*
X0069019Y0278872D01*
X0069019Y0278125D01*
X0067200Y0276306D01*
X0067200Y0272180D01*
X0069995Y0269384D01*
X0067040Y0266429D01*
X0064244Y0269224D01*
X0060118Y0269224D01*
X0057200Y0266306D01*
X0057200Y0262180D01*
X0060118Y0259262D01*
X0064244Y0259262D01*
X0067040Y0262057D01*
X0070035Y0259062D01*
X0072181Y0259062D01*
X0072181Y0264243D01*
X0072181Y0264243D01*
X0072181Y0259062D01*
X0074327Y0259062D01*
X0077323Y0262057D01*
X0080118Y0259262D01*
X0084244Y0259262D01*
X0087162Y0262180D01*
X0087162Y0266306D01*
X0084244Y0269224D01*
X0080118Y0269224D01*
X0077323Y0266429D01*
X0074367Y0269384D01*
X0077162Y0272180D01*
X0077162Y0276306D01*
X0076388Y0277081D01*
X0077975Y0277081D01*
X0077200Y0276306D01*
X0077200Y0272180D01*
X0080118Y0269262D01*
X0084244Y0269262D01*
X0087162Y0272180D01*
X0087162Y0276306D01*
X0086388Y0277081D01*
X0087975Y0277081D01*
X0087200Y0276306D01*
X0087200Y0272180D01*
X0090118Y0269262D01*
X0094244Y0269262D01*
X0097162Y0272180D01*
X0097162Y0276306D01*
X0096388Y0277081D01*
X0097975Y0277081D01*
X0097200Y0276306D01*
X0097200Y0272180D01*
X0100118Y0269262D01*
X0104244Y0269262D01*
X0107162Y0272180D01*
X0107162Y0276306D01*
X0106388Y0277081D01*
X0107975Y0277081D01*
X0107200Y0276306D01*
X0107200Y0272180D01*
X0110118Y0269262D01*
X0114244Y0269262D01*
X0117162Y0272180D01*
X0117162Y0276306D01*
X0116388Y0277081D01*
X0117975Y0277081D01*
X0117200Y0276306D01*
X0117200Y0272180D01*
X0120118Y0269262D01*
X0124244Y0269262D01*
X0127162Y0272180D01*
X0127162Y0276306D01*
X0126388Y0277081D01*
X0131858Y0277081D01*
X0132384Y0276554D01*
X0133550Y0276071D01*
X0134812Y0276071D01*
X0135978Y0276554D01*
X0136870Y0277446D01*
X0137353Y0278612D01*
X0137353Y0279874D01*
X0136870Y0281040D01*
X0135978Y0281932D01*
X0135955Y0281941D01*
X0135244Y0282652D01*
X0196850Y0282652D01*
X0196850Y0222911D01*
X0173980Y0245781D01*
X0172719Y0247042D01*
X0171072Y0247724D01*
X0161290Y0247724D01*
X0159643Y0247042D01*
X0158382Y0245781D01*
X0157700Y0244134D01*
X0157700Y0242352D01*
X0158382Y0240705D01*
X0159643Y0239444D01*
X0161290Y0238762D01*
X0168325Y0238762D01*
X0190643Y0216444D01*
X0192290Y0215762D01*
X0194072Y0215762D01*
X0195719Y0216444D01*
X0196850Y0217575D01*
X0196850Y0147135D01*
X0195689Y0148296D01*
X0193932Y0149024D01*
X0186430Y0149024D01*
X0184673Y0148296D01*
X0183328Y0146951D01*
X0182600Y0145194D01*
X0182600Y0143292D01*
X0183328Y0141535D01*
X0184673Y0140190D01*
X0186430Y0139462D01*
X0193932Y0139462D01*
X0195689Y0140190D01*
X0196850Y0141351D01*
X0196850Y0137135D01*
X0195689Y0138296D01*
X0193932Y0139024D01*
X0186430Y0139024D01*
X0184673Y0138296D01*
X0183328Y0136951D01*
X0182600Y0135194D01*
X0182600Y0133292D01*
X0183328Y0131535D01*
X0184673Y0130190D01*
X0186430Y0129462D01*
X0193932Y0129462D01*
X0195689Y0130190D01*
X0196850Y0131351D01*
X0196850Y0127135D01*
X0195689Y0128296D01*
X0193932Y0129024D01*
X0186430Y0129024D01*
X0184673Y0128296D01*
X0183328Y0126951D01*
X0182600Y0125194D01*
X0182600Y0123292D01*
X0183328Y0121535D01*
X0184673Y0120190D01*
X0186430Y0119462D01*
X0193932Y0119462D01*
X0195689Y0120190D01*
X0196850Y0121351D01*
X0196850Y0011424D01*
X0004362Y0011424D01*
X0004362Y0282652D01*
X0072119Y0282652D01*
X0071500Y0282034D01*
X0069500Y0280034D01*
X0069019Y0278365D02*
X0065104Y0278365D01*
X0064244Y0279224D02*
X0060118Y0279224D01*
X0057200Y0276306D01*
X0057200Y0272180D01*
X0060118Y0269262D01*
X0064244Y0269262D01*
X0067162Y0272180D01*
X0067162Y0276306D01*
X0064244Y0279224D01*
X0067162Y0276004D02*
X0067200Y0276004D01*
X0067162Y0273643D02*
X0067200Y0273643D01*
X0068097Y0271283D02*
X0066265Y0271283D01*
X0064547Y0268922D02*
X0069533Y0268922D01*
X0072181Y0264200D02*
X0072181Y0264200D01*
X0072181Y0261840D02*
X0072181Y0261840D01*
X0072181Y0259479D02*
X0072181Y0259479D01*
X0069618Y0259479D02*
X0064461Y0259479D01*
X0066822Y0261840D02*
X0067257Y0261840D01*
X0067172Y0266561D02*
X0066907Y0266561D01*
X0059816Y0268922D02*
X0054547Y0268922D01*
X0054244Y0269224D02*
X0050118Y0269224D01*
X0047200Y0266306D01*
X0047200Y0262180D01*
X0050118Y0259262D01*
X0054244Y0259262D01*
X0057162Y0262180D01*
X0057162Y0266306D01*
X0054244Y0269224D01*
X0054244Y0269262D02*
X0057162Y0272180D01*
X0057162Y0276306D01*
X0054244Y0279224D01*
X0050118Y0279224D01*
X0047200Y0276306D01*
X0047200Y0272180D01*
X0050118Y0269262D01*
X0054244Y0269262D01*
X0056265Y0271283D02*
X0058097Y0271283D01*
X0057200Y0273643D02*
X0057162Y0273643D01*
X0057162Y0276004D02*
X0057200Y0276004D01*
X0059258Y0278365D02*
X0055104Y0278365D01*
X0049258Y0278365D02*
X0045104Y0278365D01*
X0044244Y0279224D02*
X0047162Y0276306D01*
X0047162Y0272180D01*
X0044244Y0269262D01*
X0040118Y0269262D01*
X0037200Y0272180D01*
X0037200Y0276306D01*
X0040118Y0279224D01*
X0044244Y0279224D01*
X0047162Y0276004D02*
X0047200Y0276004D01*
X0047162Y0273643D02*
X0047200Y0273643D01*
X0048097Y0271283D02*
X0046265Y0271283D01*
X0044244Y0269224D02*
X0047162Y0266306D01*
X0047162Y0262180D01*
X0044244Y0259262D01*
X0040118Y0259262D01*
X0037200Y0262180D01*
X0037200Y0266306D01*
X0040118Y0269224D01*
X0044244Y0269224D01*
X0044547Y0268922D02*
X0049816Y0268922D01*
X0047455Y0266561D02*
X0046907Y0266561D01*
X0047162Y0264200D02*
X0047200Y0264200D01*
X0047540Y0261840D02*
X0046822Y0261840D01*
X0044461Y0259479D02*
X0049901Y0259479D01*
X0054461Y0259479D02*
X0059901Y0259479D01*
X0057540Y0261840D02*
X0056822Y0261840D01*
X0057162Y0264200D02*
X0057200Y0264200D01*
X0057455Y0266561D02*
X0056907Y0266561D01*
X0072181Y0274243D02*
X0072181Y0278243D01*
X0074181Y0280243D01*
X0133181Y0280243D01*
X0134181Y0279243D01*
X0137000Y0280725D02*
X0196850Y0280725D01*
X0196850Y0278365D02*
X0137250Y0278365D01*
X0127162Y0276004D02*
X0196850Y0276004D01*
X0196850Y0273643D02*
X0127162Y0273643D01*
X0126265Y0271283D02*
X0196850Y0271283D01*
X0196850Y0268922D02*
X0182982Y0268922D01*
X0183422Y0268482D02*
X0182310Y0269594D01*
X0180857Y0270196D01*
X0179285Y0270196D01*
X0177832Y0269594D01*
X0176720Y0268482D01*
X0176118Y0267029D01*
X0176118Y0265457D01*
X0176720Y0264004D01*
X0177832Y0262892D01*
X0179285Y0262290D01*
X0180857Y0262290D01*
X0182310Y0262892D01*
X0183422Y0264004D01*
X0184024Y0265457D01*
X0184024Y0267029D01*
X0183422Y0268482D01*
X0184024Y0266561D02*
X0196850Y0266561D01*
X0196850Y0264200D02*
X0183503Y0264200D01*
X0176639Y0264200D02*
X0169724Y0264200D01*
X0169642Y0264004D02*
X0170244Y0265457D01*
X0170244Y0267029D01*
X0169642Y0268482D01*
X0168530Y0269594D01*
X0167078Y0270196D01*
X0165505Y0270196D01*
X0164052Y0269594D01*
X0162940Y0268482D01*
X0162339Y0267029D01*
X0162339Y0265457D01*
X0162940Y0264004D01*
X0164052Y0262892D01*
X0165505Y0262290D01*
X0167078Y0262290D01*
X0168530Y0262892D01*
X0169642Y0264004D01*
X0170244Y0266561D02*
X0176118Y0266561D01*
X0177160Y0268922D02*
X0169203Y0268922D01*
X0163380Y0268922D02*
X0124547Y0268922D01*
X0124244Y0269224D02*
X0120118Y0269224D01*
X0117200Y0266306D01*
X0117200Y0262180D01*
X0120118Y0259262D01*
X0124244Y0259262D01*
X0127162Y0262180D01*
X0127162Y0266306D01*
X0124244Y0269224D01*
X0126907Y0266561D02*
X0162339Y0266561D01*
X0162859Y0264200D02*
X0127162Y0264200D01*
X0126822Y0261840D02*
X0196850Y0261840D01*
X0196850Y0259479D02*
X0124461Y0259479D01*
X0119901Y0259479D02*
X0114461Y0259479D01*
X0114244Y0259262D02*
X0117162Y0262180D01*
X0117162Y0266306D01*
X0114244Y0269224D01*
X0110118Y0269224D01*
X0107200Y0266306D01*
X0107200Y0262180D01*
X0110118Y0259262D01*
X0114244Y0259262D01*
X0116822Y0261840D02*
X0117540Y0261840D01*
X0117200Y0264200D02*
X0117162Y0264200D01*
X0116907Y0266561D02*
X0117455Y0266561D01*
X0119816Y0268922D02*
X0114547Y0268922D01*
X0116265Y0271283D02*
X0118097Y0271283D01*
X0117200Y0273643D02*
X0117162Y0273643D01*
X0117162Y0276004D02*
X0117200Y0276004D01*
X0109816Y0268922D02*
X0104547Y0268922D01*
X0104244Y0269224D02*
X0100118Y0269224D01*
X0097200Y0266306D01*
X0097200Y0262180D01*
X0100118Y0259262D01*
X0104244Y0259262D01*
X0107162Y0262180D01*
X0107162Y0266306D01*
X0104244Y0269224D01*
X0106265Y0271283D02*
X0108097Y0271283D01*
X0107200Y0273643D02*
X0107162Y0273643D01*
X0107162Y0276004D02*
X0107200Y0276004D01*
X0107455Y0266561D02*
X0106907Y0266561D01*
X0107162Y0264200D02*
X0107200Y0264200D01*
X0107540Y0261840D02*
X0106822Y0261840D01*
X0104461Y0259479D02*
X0109901Y0259479D01*
X0099901Y0259479D02*
X0094461Y0259479D01*
X0094244Y0259262D02*
X0097162Y0262180D01*
X0097162Y0266306D01*
X0094244Y0269224D01*
X0090118Y0269224D01*
X0087200Y0266306D01*
X0087200Y0262180D01*
X0090118Y0259262D01*
X0094244Y0259262D01*
X0096822Y0261840D02*
X0097540Y0261840D01*
X0097200Y0264200D02*
X0097162Y0264200D01*
X0096907Y0266561D02*
X0097455Y0266561D01*
X0099816Y0268922D02*
X0094547Y0268922D01*
X0096265Y0271283D02*
X0098097Y0271283D01*
X0097200Y0273643D02*
X0097162Y0273643D01*
X0097162Y0276004D02*
X0097200Y0276004D01*
X0089816Y0268922D02*
X0084547Y0268922D01*
X0086265Y0271283D02*
X0088097Y0271283D01*
X0087200Y0273643D02*
X0087162Y0273643D01*
X0087162Y0276004D02*
X0087200Y0276004D01*
X0087455Y0266561D02*
X0086907Y0266561D01*
X0087162Y0264200D02*
X0087200Y0264200D01*
X0087540Y0261840D02*
X0086822Y0261840D01*
X0084461Y0259479D02*
X0089901Y0259479D01*
X0079901Y0259479D02*
X0074744Y0259479D01*
X0077105Y0261840D02*
X0077540Y0261840D01*
X0077455Y0266561D02*
X0077190Y0266561D01*
X0074829Y0268922D02*
X0079816Y0268922D01*
X0078097Y0271283D02*
X0076265Y0271283D01*
X0077162Y0273643D02*
X0077200Y0273643D01*
X0077162Y0276004D02*
X0077200Y0276004D01*
X0093550Y0237415D02*
X0092384Y0236932D01*
X0091492Y0236040D01*
X0091483Y0236017D01*
X0079871Y0224405D01*
X0060552Y0224405D01*
X0059390Y0223924D01*
X0058500Y0223034D01*
X0055871Y0220405D01*
X0046835Y0220405D01*
X0046812Y0220415D01*
X0045550Y0220415D01*
X0044384Y0219932D01*
X0043492Y0219040D01*
X0043009Y0217874D01*
X0043009Y0217191D01*
X0042384Y0216932D01*
X0041492Y0216040D01*
X0041009Y0214874D01*
X0041009Y0213612D01*
X0041492Y0212446D01*
X0042384Y0211554D01*
X0043550Y0211071D01*
X0044812Y0211071D01*
X0044835Y0211081D01*
X0055871Y0211081D01*
X0057019Y0209933D01*
X0057019Y0198614D01*
X0057500Y0197452D01*
X0059500Y0195452D01*
X0060390Y0194562D01*
X0061552Y0194081D01*
X0066810Y0194081D01*
X0067972Y0194562D01*
X0068972Y0195562D01*
X0069862Y0196452D01*
X0070343Y0197614D01*
X0070343Y0198933D01*
X0070491Y0199081D01*
X0074410Y0199081D01*
X0078606Y0194885D01*
X0079628Y0194462D01*
X0090734Y0194462D01*
X0091756Y0194885D01*
X0092539Y0195668D01*
X0095333Y0198462D01*
X0100607Y0198462D01*
X0101550Y0198071D01*
X0102812Y0198071D01*
X0103978Y0198554D01*
X0104870Y0199446D01*
X0105353Y0200612D01*
X0105353Y0201762D01*
X0128700Y0201762D01*
X0128700Y0197750D01*
X0129078Y0196838D01*
X0129776Y0196140D01*
X0131400Y0194515D01*
X0131400Y0188492D01*
X0132128Y0186735D01*
X0133473Y0185390D01*
X0135230Y0184662D01*
X0137132Y0184662D01*
X0138889Y0185390D01*
X0140234Y0186735D01*
X0140962Y0188492D01*
X0140962Y0195994D01*
X0140234Y0197751D01*
X0139743Y0198243D01*
X0140234Y0198735D01*
X0140962Y0200492D01*
X0140962Y0207994D01*
X0140234Y0209751D01*
X0138889Y0211096D01*
X0137132Y0211824D01*
X0135230Y0211824D01*
X0133473Y0211096D01*
X0132128Y0209751D01*
X0131744Y0208824D01*
X0127412Y0208824D01*
X0138660Y0220071D01*
X0138812Y0220071D01*
X0139978Y0220554D01*
X0140870Y0221446D01*
X0141353Y0222612D01*
X0141353Y0223874D01*
X0140870Y0225040D01*
X0139978Y0225932D01*
X0138812Y0226415D01*
X0137550Y0226415D01*
X0136581Y0226013D01*
X0136560Y0226057D01*
X0136362Y0226534D01*
X0136280Y0226616D01*
X0136228Y0226720D01*
X0135838Y0227058D01*
X0125972Y0236924D01*
X0124810Y0237405D01*
X0094835Y0237405D01*
X0094812Y0237415D01*
X0093550Y0237415D01*
X0091338Y0235872D02*
X0004362Y0235872D01*
X0004362Y0238232D02*
X0168854Y0238232D01*
X0171215Y0235872D02*
X0127024Y0235872D01*
X0129385Y0233511D02*
X0173576Y0233511D01*
X0175937Y0231150D02*
X0131746Y0231150D01*
X0134107Y0228790D02*
X0178297Y0228790D01*
X0180658Y0226429D02*
X0136406Y0226429D01*
X0133681Y0224743D02*
X0133181Y0223243D01*
X0121181Y0211243D01*
X0113153Y0217724D02*
X0115326Y0219897D01*
X0114749Y0219897D01*
X0113152Y0220558D01*
X0111929Y0221781D01*
X0111267Y0223378D01*
X0111267Y0225108D01*
X0111929Y0226705D01*
X0113152Y0227928D01*
X0114749Y0228589D01*
X0116478Y0228589D01*
X0118076Y0227928D01*
X0119298Y0226705D01*
X0119960Y0225108D01*
X0119960Y0224531D01*
X0123009Y0227580D01*
X0123009Y0227874D01*
X0123492Y0229040D01*
X0124202Y0229750D01*
X0122871Y0231081D01*
X0095491Y0231081D01*
X0084234Y0219824D01*
X0086695Y0219824D01*
X0087643Y0219431D01*
X0091065Y0216009D01*
X0091492Y0217040D01*
X0092384Y0217932D01*
X0093550Y0218415D01*
X0094812Y0218415D01*
X0095978Y0217932D01*
X0096870Y0217040D01*
X0097181Y0216288D01*
X0097492Y0217040D01*
X0098384Y0217932D01*
X0099550Y0218415D01*
X0100812Y0218415D01*
X0101978Y0217932D01*
X0102681Y0217228D01*
X0103384Y0217932D01*
X0104550Y0218415D01*
X0105812Y0218415D01*
X0106978Y0217932D01*
X0107185Y0217724D01*
X0113153Y0217724D01*
X0114776Y0219347D02*
X0087728Y0219347D01*
X0086118Y0221707D02*
X0112002Y0221707D01*
X0111267Y0224068D02*
X0088478Y0224068D01*
X0090839Y0226429D02*
X0111815Y0226429D01*
X0119413Y0226429D02*
X0121858Y0226429D01*
X0123389Y0228790D02*
X0093200Y0228790D01*
X0094181Y0234243D02*
X0081181Y0221243D01*
X0061181Y0221243D01*
X0057181Y0217243D01*
X0046181Y0217243D01*
X0043799Y0219347D02*
X0019298Y0219347D01*
X0020208Y0219724D02*
X0021708Y0221223D01*
X0022519Y0223183D01*
X0022519Y0225303D01*
X0021708Y0227263D01*
X0020208Y0228762D01*
X0018249Y0229574D01*
X0016128Y0229574D01*
X0014169Y0228762D01*
X0012669Y0227263D01*
X0011858Y0225303D01*
X0011858Y0223183D01*
X0012669Y0221223D01*
X0014169Y0219724D01*
X0016128Y0218912D01*
X0018249Y0218912D01*
X0020208Y0219724D01*
X0021908Y0221707D02*
X0057174Y0221707D01*
X0059738Y0224068D02*
X0022519Y0224068D01*
X0022053Y0226429D02*
X0081895Y0226429D01*
X0084256Y0228790D02*
X0020142Y0228790D01*
X0014235Y0228790D02*
X0004362Y0228790D01*
X0004362Y0231150D02*
X0086616Y0231150D01*
X0088977Y0233511D02*
X0004362Y0233511D01*
X0004362Y0226429D02*
X0012324Y0226429D01*
X0011858Y0224068D02*
X0004362Y0224068D01*
X0004362Y0221707D02*
X0012469Y0221707D01*
X0015079Y0219347D02*
X0004362Y0219347D01*
X0004362Y0216986D02*
X0042515Y0216986D01*
X0041009Y0214625D02*
X0004362Y0214625D01*
X0004362Y0212265D02*
X0041674Y0212265D01*
X0044181Y0214243D02*
X0057181Y0214243D01*
X0060181Y0211243D01*
X0060181Y0199243D01*
X0062181Y0197243D01*
X0066181Y0197243D01*
X0067181Y0198243D01*
X0067181Y0200243D01*
X0069181Y0202243D01*
X0075181Y0202243D01*
X0076373Y0205182D02*
X0091733Y0205182D01*
X0092606Y0203601D02*
X0089029Y0200024D01*
X0081333Y0200024D01*
X0078260Y0203097D01*
X0077870Y0204040D01*
X0076978Y0204932D01*
X0075812Y0205415D01*
X0074550Y0205415D01*
X0074527Y0205405D01*
X0068552Y0205405D01*
X0067390Y0204924D01*
X0066500Y0204034D01*
X0065662Y0203196D01*
X0065662Y0212215D01*
X0066209Y0212762D01*
X0084153Y0212762D01*
X0093107Y0203808D01*
X0092606Y0203601D01*
X0091827Y0202822D02*
X0078535Y0202822D01*
X0080896Y0200461D02*
X0089466Y0200461D01*
X0092611Y0195740D02*
X0130176Y0195740D01*
X0131400Y0193379D02*
X0004362Y0193379D01*
X0004362Y0195740D02*
X0059212Y0195740D01*
X0057232Y0198100D02*
X0004362Y0198100D01*
X0004362Y0200461D02*
X0057019Y0200461D01*
X0057019Y0202822D02*
X0004362Y0202822D01*
X0004362Y0205182D02*
X0057019Y0205182D01*
X0057019Y0207543D02*
X0004362Y0207543D01*
X0004362Y0209904D02*
X0057019Y0209904D01*
X0065662Y0209904D02*
X0087011Y0209904D01*
X0084651Y0212265D02*
X0065711Y0212265D01*
X0065662Y0207543D02*
X0089372Y0207543D01*
X0094971Y0198100D02*
X0101480Y0198100D01*
X0102882Y0198100D02*
X0128700Y0198100D01*
X0128700Y0200461D02*
X0105290Y0200461D01*
X0092539Y0195668D02*
X0092539Y0195668D01*
X0077751Y0195740D02*
X0069150Y0195740D01*
X0070343Y0198100D02*
X0075391Y0198100D01*
X0068014Y0205182D02*
X0065662Y0205182D01*
X0090088Y0216986D02*
X0091470Y0216986D01*
X0096892Y0216986D02*
X0097470Y0216986D01*
X0094181Y0234243D02*
X0124181Y0234243D01*
X0133681Y0224743D01*
X0137935Y0219347D02*
X0187740Y0219347D01*
X0185379Y0221707D02*
X0140978Y0221707D01*
X0141272Y0224068D02*
X0183019Y0224068D01*
X0188611Y0231150D02*
X0196850Y0231150D01*
X0196850Y0228790D02*
X0190972Y0228790D01*
X0193332Y0226429D02*
X0196850Y0226429D01*
X0196850Y0224068D02*
X0195693Y0224068D01*
X0196261Y0216986D02*
X0196850Y0216986D01*
X0196850Y0214625D02*
X0133214Y0214625D01*
X0135574Y0216986D02*
X0190101Y0216986D01*
X0196850Y0212265D02*
X0130853Y0212265D01*
X0132280Y0209904D02*
X0128492Y0209904D01*
X0140082Y0209904D02*
X0142103Y0209904D01*
X0141921Y0209654D02*
X0141565Y0208955D01*
X0141323Y0208209D01*
X0141200Y0207435D01*
X0141200Y0204243D01*
X0141200Y0201051D01*
X0141323Y0200277D01*
X0141565Y0199531D01*
X0141921Y0198832D01*
X0142349Y0198243D01*
X0141921Y0197654D01*
X0141565Y0196955D01*
X0141323Y0196209D01*
X0141200Y0195435D01*
X0141200Y0192243D01*
X0141200Y0189051D01*
X0141323Y0188277D01*
X0141565Y0187531D01*
X0141921Y0186832D01*
X0142382Y0186198D01*
X0142936Y0185644D01*
X0143570Y0185183D01*
X0144269Y0184827D01*
X0145015Y0184585D01*
X0145789Y0184462D01*
X0146181Y0184462D01*
X0146181Y0192243D01*
X0141200Y0192243D01*
X0146181Y0192243D01*
X0146181Y0192243D01*
X0146181Y0192243D01*
X0146181Y0204243D01*
X0141200Y0204243D01*
X0146181Y0204243D01*
X0146181Y0204243D01*
X0146181Y0204243D01*
X0146181Y0212024D01*
X0145789Y0212024D01*
X0145015Y0211901D01*
X0144269Y0211659D01*
X0143570Y0211303D01*
X0142936Y0210842D01*
X0142382Y0210288D01*
X0141921Y0209654D01*
X0141217Y0207543D02*
X0140962Y0207543D01*
X0140962Y0205182D02*
X0141200Y0205182D01*
X0141200Y0202822D02*
X0140962Y0202822D01*
X0140949Y0200461D02*
X0141293Y0200461D01*
X0142245Y0198100D02*
X0139885Y0198100D01*
X0140962Y0195740D02*
X0141248Y0195740D01*
X0141200Y0193379D02*
X0140962Y0193379D01*
X0140962Y0191018D02*
X0141200Y0191018D01*
X0141262Y0188657D02*
X0140962Y0188657D01*
X0139796Y0186297D02*
X0142310Y0186297D01*
X0146181Y0186297D02*
X0146181Y0186297D01*
X0146181Y0184462D02*
X0146573Y0184462D01*
X0147348Y0184585D01*
X0148093Y0184827D01*
X0148792Y0185183D01*
X0149426Y0185644D01*
X0149980Y0186198D01*
X0150441Y0186832D01*
X0150797Y0187531D01*
X0151040Y0188277D01*
X0151162Y0189051D01*
X0151162Y0192243D01*
X0146181Y0192243D01*
X0146181Y0192243D01*
X0146181Y0184462D01*
X0146181Y0188657D02*
X0146181Y0188657D01*
X0146181Y0191018D02*
X0146181Y0191018D01*
X0146181Y0192243D02*
X0146181Y0192243D01*
X0146181Y0200024D01*
X0146181Y0204243D01*
X0146181Y0204243D01*
X0146181Y0212024D01*
X0146573Y0212024D01*
X0147348Y0211901D01*
X0148093Y0211659D01*
X0148792Y0211303D01*
X0149426Y0210842D01*
X0149980Y0210288D01*
X0150441Y0209654D01*
X0150797Y0208955D01*
X0151040Y0208209D01*
X0151162Y0207435D01*
X0151162Y0204243D01*
X0146181Y0204243D01*
X0146181Y0204243D01*
X0151162Y0204243D01*
X0151162Y0201051D01*
X0151040Y0200277D01*
X0150797Y0199531D01*
X0150441Y0198832D01*
X0150013Y0198243D01*
X0150441Y0197654D01*
X0150797Y0196955D01*
X0151040Y0196209D01*
X0151162Y0195435D01*
X0151162Y0192243D01*
X0146181Y0192243D01*
X0146181Y0193379D02*
X0146181Y0193379D01*
X0146181Y0195740D02*
X0146181Y0195740D01*
X0146181Y0198100D02*
X0146181Y0198100D01*
X0146181Y0200461D02*
X0146181Y0200461D01*
X0146181Y0202822D02*
X0146181Y0202822D01*
X0146181Y0205182D02*
X0146181Y0205182D01*
X0146181Y0207543D02*
X0146181Y0207543D01*
X0146181Y0209904D02*
X0146181Y0209904D01*
X0150260Y0209904D02*
X0196850Y0209904D01*
X0196850Y0207543D02*
X0151145Y0207543D01*
X0151162Y0205182D02*
X0196850Y0205182D01*
X0196850Y0202822D02*
X0151162Y0202822D01*
X0151069Y0200461D02*
X0196850Y0200461D01*
X0196850Y0198100D02*
X0150117Y0198100D01*
X0151114Y0195740D02*
X0196850Y0195740D01*
X0196850Y0193379D02*
X0151162Y0193379D01*
X0151162Y0191018D02*
X0196850Y0191018D01*
X0196850Y0188657D02*
X0151100Y0188657D01*
X0150052Y0186297D02*
X0196850Y0186297D01*
X0196850Y0183936D02*
X0034138Y0183936D01*
X0032353Y0185722D02*
X0032353Y0185874D01*
X0031870Y0187040D01*
X0030978Y0187932D01*
X0029812Y0188415D01*
X0028550Y0188415D01*
X0027384Y0187932D01*
X0026492Y0187040D01*
X0026009Y0185874D01*
X0026009Y0184612D01*
X0026492Y0183446D01*
X0027384Y0182554D01*
X0028550Y0182071D01*
X0028703Y0182071D01*
X0035009Y0175764D01*
X0035009Y0175612D01*
X0035492Y0174446D01*
X0036384Y0173554D01*
X0037550Y0173071D01*
X0038812Y0173071D01*
X0039978Y0173554D01*
X0040870Y0174446D01*
X0041353Y0175612D01*
X0041353Y0176874D01*
X0040870Y0178040D01*
X0039978Y0178932D01*
X0038812Y0179415D01*
X0038660Y0179415D01*
X0032353Y0185722D01*
X0032178Y0186297D02*
X0132566Y0186297D01*
X0131400Y0188657D02*
X0004362Y0188657D01*
X0004362Y0186297D02*
X0026185Y0186297D01*
X0026289Y0183936D02*
X0004362Y0183936D01*
X0004362Y0181575D02*
X0029199Y0181575D01*
X0031559Y0179215D02*
X0004362Y0179215D01*
X0004362Y0176854D02*
X0033920Y0176854D01*
X0035473Y0174493D02*
X0004362Y0174493D01*
X0004362Y0172132D02*
X0196850Y0172132D01*
X0196850Y0169772D02*
X0004362Y0169772D01*
X0004362Y0167411D02*
X0032246Y0167411D01*
X0032047Y0167213D02*
X0032739Y0167904D01*
X0049466Y0167904D01*
X0050157Y0167213D01*
X0050157Y0158163D01*
X0049466Y0157471D01*
X0032739Y0157471D01*
X0032047Y0158163D01*
X0032047Y0167213D01*
X0032047Y0165050D02*
X0004362Y0165050D01*
X0004362Y0162690D02*
X0032047Y0162690D01*
X0032047Y0160329D02*
X0004362Y0160329D01*
X0004362Y0157968D02*
X0032242Y0157968D01*
X0040889Y0174493D02*
X0196850Y0174493D01*
X0196850Y0176854D02*
X0041353Y0176854D01*
X0039295Y0179215D02*
X0196850Y0179215D01*
X0196850Y0181575D02*
X0036499Y0181575D01*
X0049959Y0167411D02*
X0196850Y0167411D01*
X0196850Y0165050D02*
X0050157Y0165050D01*
X0050157Y0162690D02*
X0196850Y0162690D01*
X0196850Y0160329D02*
X0050157Y0160329D01*
X0049962Y0157968D02*
X0091463Y0157968D01*
X0091492Y0158040D02*
X0091009Y0156874D01*
X0091009Y0155612D01*
X0091492Y0154446D01*
X0092384Y0153554D01*
X0093550Y0153071D01*
X0094812Y0153071D01*
X0095978Y0153554D01*
X0096085Y0153662D01*
X0115112Y0153662D01*
X0116600Y0152174D01*
X0116600Y0151127D01*
X0115959Y0151769D01*
X0114992Y0152169D01*
X0108552Y0152169D01*
X0107585Y0151769D01*
X0106845Y0151028D01*
X0106444Y0150062D01*
X0106444Y0145984D01*
X0106845Y0145017D01*
X0107585Y0144277D01*
X0108552Y0143876D01*
X0114992Y0143876D01*
X0115959Y0144277D01*
X0116600Y0144918D01*
X0116600Y0141993D01*
X0115959Y0142635D01*
X0114992Y0143035D01*
X0108552Y0143035D01*
X0107585Y0142635D01*
X0106845Y0141895D01*
X0106774Y0141724D01*
X0106185Y0141724D01*
X0105978Y0141932D01*
X0104812Y0142415D01*
X0103550Y0142415D01*
X0102384Y0141932D01*
X0101492Y0141040D01*
X0101009Y0139874D01*
X0101009Y0138612D01*
X0101492Y0137446D01*
X0102384Y0136554D01*
X0103550Y0136071D01*
X0104812Y0136071D01*
X0105978Y0136554D01*
X0106185Y0136762D01*
X0106480Y0136762D01*
X0106845Y0135883D01*
X0107585Y0135143D01*
X0108552Y0134742D01*
X0113975Y0134742D01*
X0112268Y0133035D01*
X0108552Y0133035D01*
X0107585Y0132635D01*
X0106845Y0131895D01*
X0106444Y0130928D01*
X0106444Y0126850D01*
X0106845Y0125883D01*
X0107585Y0125143D01*
X0108552Y0124742D01*
X0114992Y0124742D01*
X0115959Y0125143D01*
X0116699Y0125883D01*
X0117099Y0126850D01*
X0117099Y0130566D01*
X0121369Y0134836D01*
X0121762Y0135785D01*
X0121762Y0153756D01*
X0121369Y0154705D01*
X0120643Y0155431D01*
X0117643Y0158431D01*
X0116695Y0158824D01*
X0096085Y0158824D01*
X0095978Y0158932D01*
X0094812Y0159415D01*
X0093550Y0159415D01*
X0092384Y0158932D01*
X0091492Y0158040D01*
X0091011Y0155607D02*
X0015578Y0155607D01*
X0015518Y0155753D02*
X0014778Y0156493D01*
X0013811Y0156893D01*
X0007370Y0156893D01*
X0006404Y0156493D01*
X0005663Y0155753D01*
X0005263Y0154786D01*
X0005263Y0150708D01*
X0005663Y0149741D01*
X0006404Y0149001D01*
X0007370Y0148601D01*
X0013811Y0148601D01*
X0014778Y0149001D01*
X0015518Y0149741D01*
X0015918Y0150708D01*
X0015918Y0154786D01*
X0015518Y0155753D01*
X0015918Y0153247D02*
X0093127Y0153247D01*
X0095235Y0153247D02*
X0115527Y0153247D01*
X0118106Y0157968D02*
X0196850Y0157968D01*
X0196850Y0155607D02*
X0120467Y0155607D01*
X0121762Y0153247D02*
X0196850Y0153247D01*
X0196850Y0150886D02*
X0121762Y0150886D01*
X0121762Y0148525D02*
X0185226Y0148525D01*
X0183002Y0146165D02*
X0121762Y0146165D01*
X0121762Y0143804D02*
X0182600Y0143804D01*
X0183420Y0141443D02*
X0121762Y0141443D01*
X0121762Y0139082D02*
X0196850Y0139082D01*
X0196850Y0129640D02*
X0194361Y0129640D01*
X0196707Y0127279D02*
X0196850Y0127279D01*
X0196850Y0120197D02*
X0195696Y0120197D01*
X0196850Y0117836D02*
X0117299Y0117836D01*
X0117299Y0117094D02*
X0117299Y0118889D01*
X0117299Y0120683D01*
X0117190Y0121230D01*
X0116977Y0121745D01*
X0116667Y0122209D01*
X0116273Y0122603D01*
X0115809Y0122913D01*
X0115294Y0123126D01*
X0114747Y0123235D01*
X0111772Y0123235D01*
X0111772Y0118889D01*
X0117299Y0118889D01*
X0111772Y0118889D01*
X0111772Y0118889D01*
X0111772Y0118889D01*
X0111772Y0123235D01*
X0108796Y0123235D01*
X0108249Y0123126D01*
X0107734Y0122913D01*
X0107270Y0122603D01*
X0106876Y0122209D01*
X0106566Y0121745D01*
X0106353Y0121230D01*
X0106244Y0120683D01*
X0106244Y0118889D01*
X0111772Y0118889D01*
X0118827Y0118889D01*
X0118181Y0119243D01*
X0117299Y0120197D02*
X0184666Y0120197D01*
X0182904Y0122557D02*
X0116319Y0122557D01*
X0115416Y0124918D02*
X0182600Y0124918D01*
X0183655Y0127279D02*
X0117099Y0127279D01*
X0117099Y0129640D02*
X0186001Y0129640D01*
X0183135Y0132000D02*
X0118533Y0132000D01*
X0120894Y0134361D02*
X0182600Y0134361D01*
X0183233Y0136722D02*
X0121762Y0136722D01*
X0116600Y0143804D02*
X0004362Y0143804D01*
X0005663Y0141895D02*
X0005263Y0140928D01*
X0005263Y0136850D01*
X0005663Y0135883D01*
X0006404Y0135143D01*
X0007370Y0134742D01*
X0013811Y0134742D01*
X0014778Y0135143D01*
X0015518Y0135883D01*
X0015882Y0136762D01*
X0017177Y0136762D01*
X0017384Y0136554D01*
X0018550Y0136071D01*
X0019812Y0136071D01*
X0020978Y0136554D01*
X0021870Y0137446D01*
X0022353Y0138612D01*
X0022353Y0139874D01*
X0021870Y0141040D01*
X0020978Y0141932D01*
X0019812Y0142415D01*
X0018550Y0142415D01*
X0017384Y0141932D01*
X0017177Y0141724D01*
X0015588Y0141724D01*
X0015518Y0141895D01*
X0014778Y0142635D01*
X0013811Y0143035D01*
X0007370Y0143035D01*
X0006404Y0142635D01*
X0005663Y0141895D01*
X0005476Y0141443D02*
X0004362Y0141443D01*
X0004362Y0139082D02*
X0005263Y0139082D01*
X0005316Y0136722D02*
X0004362Y0136722D01*
X0004362Y0134361D02*
X0113594Y0134361D01*
X0106950Y0132000D02*
X0081112Y0132000D01*
X0081112Y0132232D02*
X0080420Y0132924D01*
X0071568Y0132924D01*
X0070876Y0132232D01*
X0070876Y0125742D01*
X0071568Y0125050D01*
X0080420Y0125050D01*
X0081112Y0125742D01*
X0081112Y0132232D01*
X0081112Y0129640D02*
X0106444Y0129640D01*
X0106444Y0127279D02*
X0081112Y0127279D01*
X0080420Y0122924D02*
X0071568Y0122924D01*
X0070876Y0122232D01*
X0070876Y0115742D01*
X0071568Y0115050D01*
X0080420Y0115050D01*
X0081112Y0115742D01*
X0081112Y0122232D01*
X0080420Y0122924D01*
X0080787Y0122557D02*
X0107225Y0122557D01*
X0108127Y0124918D02*
X0014235Y0124918D01*
X0013811Y0124742D02*
X0014778Y0125143D01*
X0015518Y0125883D01*
X0015882Y0126762D01*
X0017177Y0126762D01*
X0017384Y0126554D01*
X0018550Y0126071D01*
X0019812Y0126071D01*
X0020978Y0126554D01*
X0021870Y0127446D01*
X0022353Y0128612D01*
X0022353Y0129874D01*
X0021870Y0131040D01*
X0020978Y0131932D01*
X0019812Y0132415D01*
X0018550Y0132415D01*
X0017384Y0131932D01*
X0017177Y0131724D01*
X0015588Y0131724D01*
X0015518Y0131895D01*
X0014778Y0132635D01*
X0013811Y0133035D01*
X0007370Y0133035D01*
X0006404Y0132635D01*
X0005663Y0131895D01*
X0005263Y0130928D01*
X0005263Y0126850D01*
X0005663Y0125883D01*
X0006404Y0125143D01*
X0007370Y0124742D01*
X0013811Y0124742D01*
X0013811Y0123035D02*
X0007370Y0123035D01*
X0006404Y0122635D01*
X0005663Y0121895D01*
X0005263Y0120928D01*
X0005263Y0116850D01*
X0005663Y0115883D01*
X0006404Y0115143D01*
X0007370Y0114742D01*
X0013811Y0114742D01*
X0014778Y0115143D01*
X0015361Y0115727D01*
X0017790Y0115727D01*
X0018429Y0115462D01*
X0019933Y0115462D01*
X0021323Y0116038D01*
X0022387Y0117101D01*
X0022962Y0118491D01*
X0022962Y0119995D01*
X0022387Y0121385D01*
X0021323Y0122448D01*
X0019933Y0123024D01*
X0018429Y0123024D01*
X0017039Y0122448D01*
X0016642Y0122051D01*
X0015361Y0122051D01*
X0014778Y0122635D01*
X0013811Y0123035D01*
X0014855Y0122557D02*
X0017302Y0122557D01*
X0019181Y0119243D02*
X0018827Y0118889D01*
X0010591Y0118889D01*
X0006326Y0122557D02*
X0004362Y0122557D01*
X0004362Y0120197D02*
X0005263Y0120197D01*
X0005263Y0117836D02*
X0004362Y0117836D01*
X0004362Y0115475D02*
X0006071Y0115475D01*
X0004362Y0113115D02*
X0196850Y0113115D01*
X0196850Y0115475D02*
X0116574Y0115475D01*
X0116667Y0115568D02*
X0116977Y0116032D01*
X0117190Y0116547D01*
X0117299Y0117094D01*
X0116667Y0115568D02*
X0116273Y0115174D01*
X0115809Y0114864D01*
X0115294Y0114651D01*
X0114747Y0114542D01*
X0111772Y0114542D01*
X0111772Y0118889D01*
X0111772Y0118889D01*
X0111772Y0118889D01*
X0111772Y0114542D01*
X0108796Y0114542D01*
X0108249Y0114651D01*
X0107734Y0114864D01*
X0107270Y0115174D01*
X0106876Y0115568D01*
X0106566Y0116032D01*
X0106353Y0116547D01*
X0106244Y0117094D01*
X0106244Y0118889D01*
X0111772Y0118889D01*
X0111772Y0117836D02*
X0111772Y0117836D01*
X0111772Y0120197D02*
X0111772Y0120197D01*
X0111772Y0122557D02*
X0111772Y0122557D01*
X0106244Y0120197D02*
X0081112Y0120197D01*
X0081112Y0117836D02*
X0106244Y0117836D01*
X0106969Y0115475D02*
X0080845Y0115475D01*
X0071143Y0115475D02*
X0050845Y0115475D01*
X0051112Y0115742D02*
X0050420Y0115050D01*
X0041568Y0115050D01*
X0040876Y0115742D01*
X0040876Y0122232D01*
X0041568Y0122924D01*
X0050420Y0122924D01*
X0051112Y0122232D01*
X0051112Y0115742D01*
X0051112Y0117836D02*
X0070876Y0117836D01*
X0070876Y0120197D02*
X0051112Y0120197D01*
X0050787Y0122557D02*
X0071201Y0122557D01*
X0070876Y0127279D02*
X0051112Y0127279D01*
X0051112Y0125742D02*
X0050420Y0125050D01*
X0041568Y0125050D01*
X0040876Y0125742D01*
X0040876Y0132232D01*
X0041568Y0132924D01*
X0050420Y0132924D01*
X0051112Y0132232D01*
X0051112Y0125742D01*
X0051112Y0129640D02*
X0070876Y0129640D01*
X0070876Y0132000D02*
X0051112Y0132000D01*
X0050420Y0135050D02*
X0051112Y0135742D01*
X0051112Y0142232D01*
X0050420Y0142924D01*
X0041568Y0142924D01*
X0040876Y0142232D01*
X0040876Y0135742D01*
X0041568Y0135050D01*
X0050420Y0135050D01*
X0051112Y0136722D02*
X0070876Y0136722D01*
X0070876Y0135742D02*
X0071568Y0135050D01*
X0080420Y0135050D01*
X0081112Y0135742D01*
X0081112Y0142232D01*
X0080420Y0142924D01*
X0071568Y0142924D01*
X0070876Y0142232D01*
X0070876Y0135742D01*
X0070876Y0139082D02*
X0051112Y0139082D01*
X0051112Y0141443D02*
X0070876Y0141443D01*
X0081112Y0141443D02*
X0101896Y0141443D01*
X0101009Y0139082D02*
X0081112Y0139082D01*
X0081112Y0136722D02*
X0102217Y0136722D01*
X0106145Y0136722D02*
X0106497Y0136722D01*
X0106444Y0146165D02*
X0004362Y0146165D01*
X0004362Y0148525D02*
X0106444Y0148525D01*
X0106786Y0150886D02*
X0015918Y0150886D01*
X0021466Y0141443D02*
X0040876Y0141443D01*
X0040876Y0139082D02*
X0022353Y0139082D01*
X0021145Y0136722D02*
X0040876Y0136722D01*
X0040876Y0132000D02*
X0020812Y0132000D01*
X0022353Y0129640D02*
X0040876Y0129640D01*
X0040876Y0127279D02*
X0021702Y0127279D01*
X0021060Y0122557D02*
X0041201Y0122557D01*
X0040876Y0120197D02*
X0022879Y0120197D01*
X0022691Y0117836D02*
X0040876Y0117836D01*
X0041143Y0115475D02*
X0019965Y0115475D01*
X0018397Y0115475D02*
X0015110Y0115475D01*
X0006946Y0124918D02*
X0004362Y0124918D01*
X0004362Y0127279D02*
X0005263Y0127279D01*
X0005263Y0129640D02*
X0004362Y0129640D01*
X0004362Y0132000D02*
X0005769Y0132000D01*
X0015412Y0132000D02*
X0017550Y0132000D01*
X0017217Y0136722D02*
X0015865Y0136722D01*
X0005263Y0150886D02*
X0004362Y0150886D01*
X0004362Y0153247D02*
X0005263Y0153247D01*
X0005603Y0155607D02*
X0004362Y0155607D01*
X0004362Y0191018D02*
X0131400Y0191018D01*
X0158494Y0240593D02*
X0004362Y0240593D01*
X0004362Y0242954D02*
X0157700Y0242954D01*
X0158189Y0245315D02*
X0004362Y0245315D01*
X0004362Y0247675D02*
X0161172Y0247675D01*
X0171190Y0247675D02*
X0196850Y0247675D01*
X0196850Y0245315D02*
X0174447Y0245315D01*
X0176807Y0242954D02*
X0196850Y0242954D01*
X0196850Y0240593D02*
X0179168Y0240593D01*
X0181529Y0238232D02*
X0196850Y0238232D01*
X0196850Y0235872D02*
X0183890Y0235872D01*
X0186250Y0233511D02*
X0196850Y0233511D01*
X0196850Y0250036D02*
X0004362Y0250036D01*
X0004362Y0252397D02*
X0196850Y0252397D01*
X0196850Y0254758D02*
X0004362Y0254758D01*
X0004362Y0257118D02*
X0196850Y0257118D01*
X0196850Y0148525D02*
X0195136Y0148525D01*
X0196850Y0110754D02*
X0004362Y0110754D01*
X0004362Y0108393D02*
X0196850Y0108393D01*
X0196850Y0106032D02*
X0004362Y0106032D01*
X0004362Y0103672D02*
X0196850Y0103672D01*
X0196850Y0101311D02*
X0004362Y0101311D01*
X0004362Y0098950D02*
X0196850Y0098950D01*
X0196850Y0096590D02*
X0004362Y0096590D01*
X0004362Y0094229D02*
X0196850Y0094229D01*
X0196850Y0091868D02*
X0004362Y0091868D01*
X0004362Y0089507D02*
X0196850Y0089507D01*
X0196850Y0087147D02*
X0004362Y0087147D01*
X0004362Y0084786D02*
X0196850Y0084786D01*
X0196850Y0082425D02*
X0004362Y0082425D01*
X0004362Y0080065D02*
X0196850Y0080065D01*
X0196850Y0077704D02*
X0004362Y0077704D01*
X0004362Y0075343D02*
X0196850Y0075343D01*
X0196850Y0072982D02*
X0004362Y0072982D01*
X0004362Y0070622D02*
X0196850Y0070622D01*
X0196850Y0068261D02*
X0004362Y0068261D01*
X0004362Y0065900D02*
X0196850Y0065900D01*
X0196850Y0063540D02*
X0004362Y0063540D01*
X0004362Y0061179D02*
X0196850Y0061179D01*
X0196850Y0058818D02*
X0004362Y0058818D01*
X0004362Y0056457D02*
X0196850Y0056457D01*
X0196850Y0054097D02*
X0004362Y0054097D01*
X0004362Y0051736D02*
X0164514Y0051736D01*
X0163938Y0051498D02*
X0162328Y0049887D01*
X0161457Y0047783D01*
X0161457Y0045506D01*
X0162328Y0043402D01*
X0163938Y0041792D01*
X0166042Y0040920D01*
X0168320Y0040920D01*
X0170424Y0041792D01*
X0172034Y0043402D01*
X0172905Y0045506D01*
X0172905Y0047783D01*
X0172034Y0049887D01*
X0170424Y0051498D01*
X0168320Y0052369D01*
X0166042Y0052369D01*
X0163938Y0051498D01*
X0162116Y0049375D02*
X0004362Y0049375D01*
X0004362Y0047014D02*
X0161457Y0047014D01*
X0161810Y0044654D02*
X0004362Y0044654D01*
X0004362Y0042293D02*
X0163437Y0042293D01*
X0170925Y0042293D02*
X0196850Y0042293D01*
X0196850Y0039932D02*
X0004362Y0039932D01*
X0004362Y0037572D02*
X0196850Y0037572D01*
X0196850Y0035211D02*
X0004362Y0035211D01*
X0004362Y0032850D02*
X0163564Y0032850D01*
X0164161Y0033447D02*
X0162662Y0031948D01*
X0161850Y0029988D01*
X0161850Y0027868D01*
X0162662Y0025908D01*
X0164161Y0024409D01*
X0166121Y0023597D01*
X0168241Y0023597D01*
X0170201Y0024409D01*
X0171700Y0025908D01*
X0172512Y0027868D01*
X0172512Y0029988D01*
X0171700Y0031948D01*
X0170201Y0033447D01*
X0168241Y0034259D01*
X0166121Y0034259D01*
X0164161Y0033447D01*
X0162058Y0030489D02*
X0021385Y0030489D01*
X0021783Y0030325D02*
X0019824Y0031136D01*
X0017703Y0031136D01*
X0015744Y0030325D01*
X0014244Y0028825D01*
X0013433Y0026866D01*
X0013433Y0024745D01*
X0014244Y0022786D01*
X0015744Y0021286D01*
X0017703Y0020475D01*
X0019824Y0020475D01*
X0021783Y0021286D01*
X0023282Y0022786D01*
X0024094Y0024745D01*
X0024094Y0026866D01*
X0023282Y0028825D01*
X0021783Y0030325D01*
X0023571Y0028129D02*
X0110297Y0028129D01*
X0110354Y0028268D02*
X0109692Y0026670D01*
X0109692Y0024941D01*
X0110354Y0023343D01*
X0111577Y0022121D01*
X0113174Y0021459D01*
X0114903Y0021459D01*
X0116501Y0022121D01*
X0117724Y0023343D01*
X0118385Y0024941D01*
X0118385Y0026670D01*
X0117724Y0028268D01*
X0116501Y0029490D01*
X0114903Y0030152D01*
X0113174Y0030152D01*
X0111577Y0029490D01*
X0110354Y0028268D01*
X0109692Y0025768D02*
X0024094Y0025768D01*
X0023540Y0023407D02*
X0110328Y0023407D01*
X0117750Y0023407D02*
X0196850Y0023407D01*
X0196850Y0021047D02*
X0021204Y0021047D01*
X0016323Y0021047D02*
X0004362Y0021047D01*
X0004362Y0023407D02*
X0013987Y0023407D01*
X0013433Y0025768D02*
X0004362Y0025768D01*
X0004362Y0028129D02*
X0013956Y0028129D01*
X0016142Y0030489D02*
X0004362Y0030489D01*
X0004362Y0018686D02*
X0196850Y0018686D01*
X0196850Y0016325D02*
X0004362Y0016325D01*
X0004362Y0013964D02*
X0196850Y0013964D01*
X0196850Y0011604D02*
X0004362Y0011604D01*
X0111772Y0115475D02*
X0111772Y0115475D01*
X0169848Y0051736D02*
X0196850Y0051736D01*
X0196850Y0049375D02*
X0172246Y0049375D01*
X0172905Y0047014D02*
X0196850Y0047014D01*
X0196850Y0044654D02*
X0172553Y0044654D01*
X0170798Y0032850D02*
X0196850Y0032850D01*
X0196850Y0030489D02*
X0172304Y0030489D01*
X0172512Y0028129D02*
X0196850Y0028129D01*
X0196850Y0025768D02*
X0171560Y0025768D01*
X0162802Y0025768D02*
X0118385Y0025768D01*
X0117781Y0028129D02*
X0161850Y0028129D01*
X0039901Y0259479D02*
X0034461Y0259479D01*
X0034244Y0259262D02*
X0037162Y0262180D01*
X0037162Y0266306D01*
X0034244Y0269224D01*
X0030118Y0269224D01*
X0027200Y0266306D01*
X0027200Y0262180D01*
X0030118Y0259262D01*
X0034244Y0259262D01*
X0036822Y0261840D02*
X0037540Y0261840D01*
X0037200Y0264200D02*
X0037162Y0264200D01*
X0036907Y0266561D02*
X0037455Y0266561D01*
X0039816Y0268922D02*
X0034547Y0268922D01*
X0034244Y0269262D02*
X0037162Y0272180D01*
X0037162Y0276306D01*
X0034244Y0279224D01*
X0030118Y0279224D01*
X0027200Y0276306D01*
X0027200Y0272180D01*
X0030118Y0269262D01*
X0034244Y0269262D01*
X0036265Y0271283D02*
X0038097Y0271283D01*
X0037200Y0273643D02*
X0037162Y0273643D01*
X0037162Y0276004D02*
X0037200Y0276004D01*
X0039258Y0278365D02*
X0035104Y0278365D01*
X0029258Y0278365D02*
X0025104Y0278365D01*
X0024244Y0279224D02*
X0027162Y0276306D01*
X0027162Y0272180D01*
X0024244Y0269262D01*
X0020118Y0269262D01*
X0017200Y0272180D01*
X0017200Y0276306D01*
X0020118Y0279224D01*
X0024244Y0279224D01*
X0027162Y0276004D02*
X0027200Y0276004D01*
X0027162Y0273643D02*
X0027200Y0273643D01*
X0028097Y0271283D02*
X0026265Y0271283D01*
X0024547Y0268922D02*
X0029816Y0268922D01*
X0027455Y0266561D02*
X0026907Y0266561D01*
X0027162Y0264200D02*
X0027200Y0264200D01*
X0027540Y0261840D02*
X0026822Y0261840D01*
X0024461Y0259479D02*
X0029901Y0259479D01*
X0019901Y0259479D02*
X0014744Y0259479D01*
X0017105Y0261840D02*
X0017540Y0261840D01*
X0017455Y0266561D02*
X0017190Y0266561D01*
X0014829Y0268922D02*
X0019816Y0268922D01*
X0018097Y0271283D02*
X0016265Y0271283D01*
X0017162Y0273643D02*
X0017200Y0273643D01*
X0017162Y0276004D02*
X0017200Y0276004D01*
X0019258Y0278365D02*
X0015104Y0278365D01*
D15*
X0019181Y0119243D03*
X0118181Y0119243D03*
X0193181Y0220243D03*
X0162181Y0243243D03*
D16*
X0150181Y0267243D03*
X0150181Y0272243D03*
X0134181Y0279243D03*
X0126181Y0227243D03*
X0126181Y0222243D03*
X0121181Y0211243D03*
X0133181Y0223243D03*
X0138181Y0223243D03*
X0160181Y0195243D03*
X0169181Y0195243D03*
X0178181Y0195243D03*
X0151181Y0146243D03*
X0155181Y0134243D03*
X0152181Y0123243D03*
X0149181Y0116243D03*
X0142181Y0123243D03*
X0120181Y0124243D03*
X0120181Y0129243D03*
X0104181Y0139243D03*
X0094181Y0156243D03*
X0084181Y0150243D03*
X0095181Y0173243D03*
X0095181Y0178243D03*
X0088181Y0194243D03*
X0088181Y0200243D03*
X0082181Y0200243D03*
X0082181Y0194243D03*
X0075181Y0202243D03*
X0064181Y0200243D03*
X0053181Y0202243D03*
X0050181Y0198243D03*
X0050181Y0187243D03*
X0058181Y0186243D03*
X0052181Y0174243D03*
X0059181Y0162243D03*
X0067181Y0160243D03*
X0059181Y0150243D03*
X0038181Y0176243D03*
X0029181Y0185243D03*
X0023181Y0186243D03*
X0017181Y0173243D03*
X0006181Y0172243D03*
X0009181Y0190243D03*
X0018181Y0199243D03*
X0009181Y0203243D03*
X0009181Y0216243D03*
X0026181Y0224243D03*
X0032181Y0232243D03*
X0042181Y0232243D03*
X0048181Y0239243D03*
X0045181Y0221243D03*
X0046181Y0217243D03*
X0044181Y0214243D03*
X0053181Y0208243D03*
X0062181Y0217243D03*
X0066181Y0225243D03*
X0063181Y0233243D03*
X0073181Y0225243D03*
X0075181Y0233243D03*
X0074181Y0248243D03*
X0088181Y0248243D03*
X0094181Y0234243D03*
X0085181Y0220243D03*
X0094181Y0215243D03*
X0100181Y0215243D03*
X0105181Y0215243D03*
X0102181Y0201243D03*
X0033181Y0150243D03*
X0028181Y0143243D03*
X0019181Y0139243D03*
X0019181Y0129243D03*
X0010181Y0107243D03*
X0010181Y0092243D03*
X0010181Y0078243D03*
X0010181Y0064243D03*
X0010181Y0048243D03*
X0029181Y0016243D03*
X0044181Y0016243D03*
X0051181Y0035243D03*
X0059181Y0016243D03*
X0075181Y0016243D03*
X0085181Y0035243D03*
X0092181Y0016243D03*
X0107181Y0016243D03*
X0136181Y0051243D03*
X0145181Y0045243D03*
X0145181Y0037243D03*
X0137181Y0029243D03*
X0145181Y0021243D03*
X0145181Y0016243D03*
X0145181Y0062243D03*
X0108181Y0093243D03*
X0099181Y0066243D03*
X0089181Y0091243D03*
X0066181Y0080243D03*
X0062181Y0089243D03*
X0041181Y0066243D03*
X0033181Y0090243D03*
X0009181Y0249243D03*
X0182181Y0249243D03*
X0182181Y0243243D03*
X0190181Y0019243D03*
X0190181Y0014243D03*
D17*
X0111772Y0128889D02*
X0119181Y0136298D01*
X0119181Y0153243D01*
X0116181Y0156243D01*
X0094181Y0156243D01*
X0097181Y0206243D02*
X0134181Y0206243D01*
X0136181Y0204243D01*
X0123181Y0208243D02*
X0138181Y0223243D01*
X0126181Y0222243D02*
X0115181Y0211243D01*
X0103181Y0211243D01*
X0100181Y0214243D01*
X0100181Y0215243D01*
X0094181Y0212243D02*
X0098181Y0208243D01*
X0123181Y0208243D01*
X0097181Y0206243D02*
X0086181Y0217243D01*
X0062181Y0217243D01*
X0029181Y0185243D02*
X0038181Y0176243D01*
X0094181Y0212243D02*
X0094181Y0215243D01*
D18*
X0085181Y0215243D02*
X0096181Y0204243D01*
X0130181Y0204243D01*
X0131181Y0203243D01*
X0131181Y0198243D01*
X0136181Y0193243D01*
X0136181Y0192243D01*
X0114181Y0215243D02*
X0126181Y0227243D01*
X0114181Y0215243D02*
X0105181Y0215243D01*
X0085181Y0215243D02*
X0065181Y0215243D01*
X0063181Y0213243D01*
X0063181Y0201243D01*
X0064181Y0200243D01*
X0104181Y0139243D02*
X0112417Y0139243D01*
X0111772Y0138889D01*
X0019181Y0139243D02*
X0011945Y0139243D01*
X0010591Y0138889D01*
X0011945Y0129243D02*
X0010591Y0128889D01*
X0011945Y0129243D02*
X0019181Y0129243D01*
D19*
X0080181Y0197243D02*
X0075181Y0202243D01*
X0080181Y0197243D02*
X0090181Y0197243D01*
X0094181Y0201243D01*
X0102181Y0201243D01*
D20*
X0162181Y0243243D02*
X0170181Y0243243D01*
X0193181Y0220243D01*
M02*
