G75*
%MOIN*%
%OFA0B0*%
%FSLAX25Y25*%
%IPPOS*%
%LPD*%
%AMOC8*
5,1,8,0,0,1.08239X$1,22.5*
%
%ADD10C,0.00000*%
%ADD11C,0.00600*%
%ADD12C,0.00500*%
%ADD13C,0.00400*%
%ADD14R,0.00591X0.01181*%
%ADD15R,0.01181X0.01181*%
%ADD16C,0.00800*%
%ADD17C,0.00787*%
%ADD18C,0.01000*%
%ADD19C,0.00300*%
D10*
X0002181Y0009243D02*
X0002181Y0284834D01*
X0199031Y0284834D01*
X0199031Y0009243D01*
X0002181Y0009243D01*
X0015613Y0025806D02*
X0015615Y0025918D01*
X0015621Y0026029D01*
X0015631Y0026141D01*
X0015645Y0026252D01*
X0015662Y0026362D01*
X0015684Y0026472D01*
X0015710Y0026581D01*
X0015739Y0026689D01*
X0015772Y0026795D01*
X0015809Y0026901D01*
X0015850Y0027005D01*
X0015895Y0027108D01*
X0015943Y0027209D01*
X0015994Y0027308D01*
X0016049Y0027405D01*
X0016108Y0027500D01*
X0016169Y0027594D01*
X0016234Y0027685D01*
X0016303Y0027773D01*
X0016374Y0027859D01*
X0016448Y0027943D01*
X0016526Y0028023D01*
X0016606Y0028101D01*
X0016689Y0028177D01*
X0016774Y0028249D01*
X0016862Y0028318D01*
X0016952Y0028384D01*
X0017045Y0028446D01*
X0017140Y0028506D01*
X0017237Y0028562D01*
X0017335Y0028614D01*
X0017436Y0028663D01*
X0017538Y0028708D01*
X0017642Y0028750D01*
X0017747Y0028788D01*
X0017854Y0028822D01*
X0017961Y0028852D01*
X0018070Y0028879D01*
X0018179Y0028901D01*
X0018290Y0028920D01*
X0018400Y0028935D01*
X0018512Y0028946D01*
X0018623Y0028953D01*
X0018735Y0028956D01*
X0018847Y0028955D01*
X0018959Y0028950D01*
X0019070Y0028941D01*
X0019181Y0028928D01*
X0019292Y0028911D01*
X0019402Y0028891D01*
X0019511Y0028866D01*
X0019619Y0028838D01*
X0019726Y0028805D01*
X0019832Y0028769D01*
X0019936Y0028729D01*
X0020039Y0028686D01*
X0020141Y0028639D01*
X0020240Y0028588D01*
X0020338Y0028534D01*
X0020434Y0028476D01*
X0020528Y0028415D01*
X0020619Y0028351D01*
X0020708Y0028284D01*
X0020795Y0028213D01*
X0020879Y0028139D01*
X0020961Y0028063D01*
X0021039Y0027983D01*
X0021115Y0027901D01*
X0021188Y0027816D01*
X0021258Y0027729D01*
X0021324Y0027639D01*
X0021388Y0027547D01*
X0021448Y0027453D01*
X0021505Y0027357D01*
X0021558Y0027258D01*
X0021608Y0027158D01*
X0021654Y0027057D01*
X0021697Y0026953D01*
X0021736Y0026848D01*
X0021771Y0026742D01*
X0021802Y0026635D01*
X0021830Y0026526D01*
X0021853Y0026417D01*
X0021873Y0026307D01*
X0021889Y0026196D01*
X0021901Y0026085D01*
X0021909Y0025974D01*
X0021913Y0025862D01*
X0021913Y0025750D01*
X0021909Y0025638D01*
X0021901Y0025527D01*
X0021889Y0025416D01*
X0021873Y0025305D01*
X0021853Y0025195D01*
X0021830Y0025086D01*
X0021802Y0024977D01*
X0021771Y0024870D01*
X0021736Y0024764D01*
X0021697Y0024659D01*
X0021654Y0024555D01*
X0021608Y0024454D01*
X0021558Y0024354D01*
X0021505Y0024255D01*
X0021448Y0024159D01*
X0021388Y0024065D01*
X0021324Y0023973D01*
X0021258Y0023883D01*
X0021188Y0023796D01*
X0021115Y0023711D01*
X0021039Y0023629D01*
X0020961Y0023549D01*
X0020879Y0023473D01*
X0020795Y0023399D01*
X0020708Y0023328D01*
X0020619Y0023261D01*
X0020528Y0023197D01*
X0020434Y0023136D01*
X0020338Y0023078D01*
X0020240Y0023024D01*
X0020141Y0022973D01*
X0020039Y0022926D01*
X0019936Y0022883D01*
X0019832Y0022843D01*
X0019726Y0022807D01*
X0019619Y0022774D01*
X0019511Y0022746D01*
X0019402Y0022721D01*
X0019292Y0022701D01*
X0019181Y0022684D01*
X0019070Y0022671D01*
X0018959Y0022662D01*
X0018847Y0022657D01*
X0018735Y0022656D01*
X0018623Y0022659D01*
X0018512Y0022666D01*
X0018400Y0022677D01*
X0018290Y0022692D01*
X0018179Y0022711D01*
X0018070Y0022733D01*
X0017961Y0022760D01*
X0017854Y0022790D01*
X0017747Y0022824D01*
X0017642Y0022862D01*
X0017538Y0022904D01*
X0017436Y0022949D01*
X0017335Y0022998D01*
X0017237Y0023050D01*
X0017140Y0023106D01*
X0017045Y0023166D01*
X0016952Y0023228D01*
X0016862Y0023294D01*
X0016774Y0023363D01*
X0016689Y0023435D01*
X0016606Y0023511D01*
X0016526Y0023589D01*
X0016448Y0023669D01*
X0016374Y0023753D01*
X0016303Y0023839D01*
X0016234Y0023927D01*
X0016169Y0024018D01*
X0016108Y0024112D01*
X0016049Y0024207D01*
X0015994Y0024304D01*
X0015943Y0024403D01*
X0015895Y0024504D01*
X0015850Y0024607D01*
X0015809Y0024711D01*
X0015772Y0024817D01*
X0015739Y0024923D01*
X0015710Y0025031D01*
X0015684Y0025140D01*
X0015662Y0025250D01*
X0015645Y0025360D01*
X0015631Y0025471D01*
X0015621Y0025583D01*
X0015615Y0025694D01*
X0015613Y0025806D01*
X0111874Y0025806D02*
X0111876Y0025899D01*
X0111882Y0025991D01*
X0111892Y0026083D01*
X0111906Y0026174D01*
X0111923Y0026265D01*
X0111945Y0026355D01*
X0111970Y0026444D01*
X0111999Y0026532D01*
X0112032Y0026618D01*
X0112069Y0026703D01*
X0112109Y0026787D01*
X0112153Y0026868D01*
X0112200Y0026948D01*
X0112250Y0027026D01*
X0112304Y0027101D01*
X0112361Y0027174D01*
X0112421Y0027244D01*
X0112484Y0027312D01*
X0112550Y0027377D01*
X0112618Y0027439D01*
X0112689Y0027499D01*
X0112763Y0027555D01*
X0112839Y0027608D01*
X0112917Y0027657D01*
X0112997Y0027704D01*
X0113079Y0027746D01*
X0113163Y0027786D01*
X0113248Y0027821D01*
X0113335Y0027853D01*
X0113423Y0027882D01*
X0113512Y0027906D01*
X0113602Y0027927D01*
X0113693Y0027943D01*
X0113785Y0027956D01*
X0113877Y0027965D01*
X0113970Y0027970D01*
X0114062Y0027971D01*
X0114155Y0027968D01*
X0114247Y0027961D01*
X0114339Y0027950D01*
X0114430Y0027935D01*
X0114521Y0027917D01*
X0114611Y0027894D01*
X0114699Y0027868D01*
X0114787Y0027838D01*
X0114873Y0027804D01*
X0114957Y0027767D01*
X0115040Y0027725D01*
X0115121Y0027681D01*
X0115201Y0027633D01*
X0115278Y0027582D01*
X0115352Y0027527D01*
X0115425Y0027469D01*
X0115495Y0027409D01*
X0115562Y0027345D01*
X0115626Y0027279D01*
X0115688Y0027209D01*
X0115746Y0027138D01*
X0115801Y0027064D01*
X0115853Y0026987D01*
X0115902Y0026908D01*
X0115948Y0026828D01*
X0115990Y0026745D01*
X0116028Y0026661D01*
X0116063Y0026575D01*
X0116094Y0026488D01*
X0116121Y0026400D01*
X0116144Y0026310D01*
X0116164Y0026220D01*
X0116180Y0026129D01*
X0116192Y0026037D01*
X0116200Y0025945D01*
X0116204Y0025852D01*
X0116204Y0025760D01*
X0116200Y0025667D01*
X0116192Y0025575D01*
X0116180Y0025483D01*
X0116164Y0025392D01*
X0116144Y0025302D01*
X0116121Y0025212D01*
X0116094Y0025124D01*
X0116063Y0025037D01*
X0116028Y0024951D01*
X0115990Y0024867D01*
X0115948Y0024784D01*
X0115902Y0024704D01*
X0115853Y0024625D01*
X0115801Y0024548D01*
X0115746Y0024474D01*
X0115688Y0024403D01*
X0115626Y0024333D01*
X0115562Y0024267D01*
X0115495Y0024203D01*
X0115425Y0024143D01*
X0115352Y0024085D01*
X0115278Y0024030D01*
X0115201Y0023979D01*
X0115122Y0023931D01*
X0115040Y0023887D01*
X0114957Y0023845D01*
X0114873Y0023808D01*
X0114787Y0023774D01*
X0114699Y0023744D01*
X0114611Y0023718D01*
X0114521Y0023695D01*
X0114430Y0023677D01*
X0114339Y0023662D01*
X0114247Y0023651D01*
X0114155Y0023644D01*
X0114062Y0023641D01*
X0113970Y0023642D01*
X0113877Y0023647D01*
X0113785Y0023656D01*
X0113693Y0023669D01*
X0113602Y0023685D01*
X0113512Y0023706D01*
X0113423Y0023730D01*
X0113335Y0023759D01*
X0113248Y0023791D01*
X0113163Y0023826D01*
X0113079Y0023866D01*
X0112997Y0023908D01*
X0112917Y0023955D01*
X0112839Y0024004D01*
X0112763Y0024057D01*
X0112689Y0024113D01*
X0112618Y0024173D01*
X0112550Y0024235D01*
X0112484Y0024300D01*
X0112421Y0024368D01*
X0112361Y0024438D01*
X0112304Y0024511D01*
X0112250Y0024586D01*
X0112200Y0024664D01*
X0112153Y0024744D01*
X0112109Y0024825D01*
X0112069Y0024909D01*
X0112032Y0024994D01*
X0111999Y0025080D01*
X0111970Y0025168D01*
X0111945Y0025257D01*
X0111923Y0025347D01*
X0111906Y0025438D01*
X0111892Y0025529D01*
X0111882Y0025621D01*
X0111876Y0025713D01*
X0111874Y0025806D01*
X0164031Y0028928D02*
X0164033Y0029040D01*
X0164039Y0029151D01*
X0164049Y0029263D01*
X0164063Y0029374D01*
X0164080Y0029484D01*
X0164102Y0029594D01*
X0164128Y0029703D01*
X0164157Y0029811D01*
X0164190Y0029917D01*
X0164227Y0030023D01*
X0164268Y0030127D01*
X0164313Y0030230D01*
X0164361Y0030331D01*
X0164412Y0030430D01*
X0164467Y0030527D01*
X0164526Y0030622D01*
X0164587Y0030716D01*
X0164652Y0030807D01*
X0164721Y0030895D01*
X0164792Y0030981D01*
X0164866Y0031065D01*
X0164944Y0031145D01*
X0165024Y0031223D01*
X0165107Y0031299D01*
X0165192Y0031371D01*
X0165280Y0031440D01*
X0165370Y0031506D01*
X0165463Y0031568D01*
X0165558Y0031628D01*
X0165655Y0031684D01*
X0165753Y0031736D01*
X0165854Y0031785D01*
X0165956Y0031830D01*
X0166060Y0031872D01*
X0166165Y0031910D01*
X0166272Y0031944D01*
X0166379Y0031974D01*
X0166488Y0032001D01*
X0166597Y0032023D01*
X0166708Y0032042D01*
X0166818Y0032057D01*
X0166930Y0032068D01*
X0167041Y0032075D01*
X0167153Y0032078D01*
X0167265Y0032077D01*
X0167377Y0032072D01*
X0167488Y0032063D01*
X0167599Y0032050D01*
X0167710Y0032033D01*
X0167820Y0032013D01*
X0167929Y0031988D01*
X0168037Y0031960D01*
X0168144Y0031927D01*
X0168250Y0031891D01*
X0168354Y0031851D01*
X0168457Y0031808D01*
X0168559Y0031761D01*
X0168658Y0031710D01*
X0168756Y0031656D01*
X0168852Y0031598D01*
X0168946Y0031537D01*
X0169037Y0031473D01*
X0169126Y0031406D01*
X0169213Y0031335D01*
X0169297Y0031261D01*
X0169379Y0031185D01*
X0169457Y0031105D01*
X0169533Y0031023D01*
X0169606Y0030938D01*
X0169676Y0030851D01*
X0169742Y0030761D01*
X0169806Y0030669D01*
X0169866Y0030575D01*
X0169923Y0030479D01*
X0169976Y0030380D01*
X0170026Y0030280D01*
X0170072Y0030179D01*
X0170115Y0030075D01*
X0170154Y0029970D01*
X0170189Y0029864D01*
X0170220Y0029757D01*
X0170248Y0029648D01*
X0170271Y0029539D01*
X0170291Y0029429D01*
X0170307Y0029318D01*
X0170319Y0029207D01*
X0170327Y0029096D01*
X0170331Y0028984D01*
X0170331Y0028872D01*
X0170327Y0028760D01*
X0170319Y0028649D01*
X0170307Y0028538D01*
X0170291Y0028427D01*
X0170271Y0028317D01*
X0170248Y0028208D01*
X0170220Y0028099D01*
X0170189Y0027992D01*
X0170154Y0027886D01*
X0170115Y0027781D01*
X0170072Y0027677D01*
X0170026Y0027576D01*
X0169976Y0027476D01*
X0169923Y0027377D01*
X0169866Y0027281D01*
X0169806Y0027187D01*
X0169742Y0027095D01*
X0169676Y0027005D01*
X0169606Y0026918D01*
X0169533Y0026833D01*
X0169457Y0026751D01*
X0169379Y0026671D01*
X0169297Y0026595D01*
X0169213Y0026521D01*
X0169126Y0026450D01*
X0169037Y0026383D01*
X0168946Y0026319D01*
X0168852Y0026258D01*
X0168756Y0026200D01*
X0168658Y0026146D01*
X0168559Y0026095D01*
X0168457Y0026048D01*
X0168354Y0026005D01*
X0168250Y0025965D01*
X0168144Y0025929D01*
X0168037Y0025896D01*
X0167929Y0025868D01*
X0167820Y0025843D01*
X0167710Y0025823D01*
X0167599Y0025806D01*
X0167488Y0025793D01*
X0167377Y0025784D01*
X0167265Y0025779D01*
X0167153Y0025778D01*
X0167041Y0025781D01*
X0166930Y0025788D01*
X0166818Y0025799D01*
X0166708Y0025814D01*
X0166597Y0025833D01*
X0166488Y0025855D01*
X0166379Y0025882D01*
X0166272Y0025912D01*
X0166165Y0025946D01*
X0166060Y0025984D01*
X0165956Y0026026D01*
X0165854Y0026071D01*
X0165753Y0026120D01*
X0165655Y0026172D01*
X0165558Y0026228D01*
X0165463Y0026288D01*
X0165370Y0026350D01*
X0165280Y0026416D01*
X0165192Y0026485D01*
X0165107Y0026557D01*
X0165024Y0026633D01*
X0164944Y0026711D01*
X0164866Y0026791D01*
X0164792Y0026875D01*
X0164721Y0026961D01*
X0164652Y0027049D01*
X0164587Y0027140D01*
X0164526Y0027234D01*
X0164467Y0027329D01*
X0164412Y0027426D01*
X0164361Y0027525D01*
X0164313Y0027626D01*
X0164268Y0027729D01*
X0164227Y0027833D01*
X0164190Y0027939D01*
X0164157Y0028045D01*
X0164128Y0028153D01*
X0164102Y0028262D01*
X0164080Y0028372D01*
X0164063Y0028482D01*
X0164049Y0028593D01*
X0164039Y0028705D01*
X0164033Y0028816D01*
X0164031Y0028928D01*
X0163638Y0046645D02*
X0163640Y0046763D01*
X0163646Y0046882D01*
X0163656Y0047000D01*
X0163670Y0047117D01*
X0163687Y0047234D01*
X0163709Y0047351D01*
X0163735Y0047466D01*
X0163764Y0047581D01*
X0163797Y0047695D01*
X0163834Y0047807D01*
X0163875Y0047918D01*
X0163919Y0048028D01*
X0163967Y0048136D01*
X0164019Y0048243D01*
X0164074Y0048348D01*
X0164133Y0048451D01*
X0164195Y0048551D01*
X0164260Y0048650D01*
X0164329Y0048747D01*
X0164400Y0048841D01*
X0164475Y0048932D01*
X0164553Y0049022D01*
X0164634Y0049108D01*
X0164718Y0049192D01*
X0164804Y0049273D01*
X0164894Y0049351D01*
X0164985Y0049426D01*
X0165079Y0049497D01*
X0165176Y0049566D01*
X0165275Y0049631D01*
X0165375Y0049693D01*
X0165478Y0049752D01*
X0165583Y0049807D01*
X0165690Y0049859D01*
X0165798Y0049907D01*
X0165908Y0049951D01*
X0166019Y0049992D01*
X0166131Y0050029D01*
X0166245Y0050062D01*
X0166360Y0050091D01*
X0166475Y0050117D01*
X0166592Y0050139D01*
X0166709Y0050156D01*
X0166826Y0050170D01*
X0166944Y0050180D01*
X0167063Y0050186D01*
X0167181Y0050188D01*
X0167299Y0050186D01*
X0167418Y0050180D01*
X0167536Y0050170D01*
X0167653Y0050156D01*
X0167770Y0050139D01*
X0167887Y0050117D01*
X0168002Y0050091D01*
X0168117Y0050062D01*
X0168231Y0050029D01*
X0168343Y0049992D01*
X0168454Y0049951D01*
X0168564Y0049907D01*
X0168672Y0049859D01*
X0168779Y0049807D01*
X0168884Y0049752D01*
X0168987Y0049693D01*
X0169087Y0049631D01*
X0169186Y0049566D01*
X0169283Y0049497D01*
X0169377Y0049426D01*
X0169468Y0049351D01*
X0169558Y0049273D01*
X0169644Y0049192D01*
X0169728Y0049108D01*
X0169809Y0049022D01*
X0169887Y0048932D01*
X0169962Y0048841D01*
X0170033Y0048747D01*
X0170102Y0048650D01*
X0170167Y0048551D01*
X0170229Y0048451D01*
X0170288Y0048348D01*
X0170343Y0048243D01*
X0170395Y0048136D01*
X0170443Y0048028D01*
X0170487Y0047918D01*
X0170528Y0047807D01*
X0170565Y0047695D01*
X0170598Y0047581D01*
X0170627Y0047466D01*
X0170653Y0047351D01*
X0170675Y0047234D01*
X0170692Y0047117D01*
X0170706Y0047000D01*
X0170716Y0046882D01*
X0170722Y0046763D01*
X0170724Y0046645D01*
X0170722Y0046527D01*
X0170716Y0046408D01*
X0170706Y0046290D01*
X0170692Y0046173D01*
X0170675Y0046056D01*
X0170653Y0045939D01*
X0170627Y0045824D01*
X0170598Y0045709D01*
X0170565Y0045595D01*
X0170528Y0045483D01*
X0170487Y0045372D01*
X0170443Y0045262D01*
X0170395Y0045154D01*
X0170343Y0045047D01*
X0170288Y0044942D01*
X0170229Y0044839D01*
X0170167Y0044739D01*
X0170102Y0044640D01*
X0170033Y0044543D01*
X0169962Y0044449D01*
X0169887Y0044358D01*
X0169809Y0044268D01*
X0169728Y0044182D01*
X0169644Y0044098D01*
X0169558Y0044017D01*
X0169468Y0043939D01*
X0169377Y0043864D01*
X0169283Y0043793D01*
X0169186Y0043724D01*
X0169087Y0043659D01*
X0168987Y0043597D01*
X0168884Y0043538D01*
X0168779Y0043483D01*
X0168672Y0043431D01*
X0168564Y0043383D01*
X0168454Y0043339D01*
X0168343Y0043298D01*
X0168231Y0043261D01*
X0168117Y0043228D01*
X0168002Y0043199D01*
X0167887Y0043173D01*
X0167770Y0043151D01*
X0167653Y0043134D01*
X0167536Y0043120D01*
X0167418Y0043110D01*
X0167299Y0043104D01*
X0167181Y0043102D01*
X0167063Y0043104D01*
X0166944Y0043110D01*
X0166826Y0043120D01*
X0166709Y0043134D01*
X0166592Y0043151D01*
X0166475Y0043173D01*
X0166360Y0043199D01*
X0166245Y0043228D01*
X0166131Y0043261D01*
X0166019Y0043298D01*
X0165908Y0043339D01*
X0165798Y0043383D01*
X0165690Y0043431D01*
X0165583Y0043483D01*
X0165478Y0043538D01*
X0165375Y0043597D01*
X0165275Y0043659D01*
X0165176Y0043724D01*
X0165079Y0043793D01*
X0164985Y0043864D01*
X0164894Y0043939D01*
X0164804Y0044017D01*
X0164718Y0044098D01*
X0164634Y0044182D01*
X0164553Y0044268D01*
X0164475Y0044358D01*
X0164400Y0044449D01*
X0164329Y0044543D01*
X0164260Y0044640D01*
X0164195Y0044739D01*
X0164133Y0044839D01*
X0164074Y0044942D01*
X0164019Y0045047D01*
X0163967Y0045154D01*
X0163919Y0045262D01*
X0163875Y0045372D01*
X0163834Y0045483D01*
X0163797Y0045595D01*
X0163764Y0045709D01*
X0163735Y0045824D01*
X0163709Y0045939D01*
X0163687Y0046056D01*
X0163670Y0046173D01*
X0163656Y0046290D01*
X0163646Y0046408D01*
X0163640Y0046527D01*
X0163638Y0046645D01*
X0113449Y0224243D02*
X0113451Y0224336D01*
X0113457Y0224428D01*
X0113467Y0224520D01*
X0113481Y0224611D01*
X0113498Y0224702D01*
X0113520Y0224792D01*
X0113545Y0224881D01*
X0113574Y0224969D01*
X0113607Y0225055D01*
X0113644Y0225140D01*
X0113684Y0225224D01*
X0113728Y0225305D01*
X0113775Y0225385D01*
X0113825Y0225463D01*
X0113879Y0225538D01*
X0113936Y0225611D01*
X0113996Y0225681D01*
X0114059Y0225749D01*
X0114125Y0225814D01*
X0114193Y0225876D01*
X0114264Y0225936D01*
X0114338Y0225992D01*
X0114414Y0226045D01*
X0114492Y0226094D01*
X0114572Y0226141D01*
X0114654Y0226183D01*
X0114738Y0226223D01*
X0114823Y0226258D01*
X0114910Y0226290D01*
X0114998Y0226319D01*
X0115087Y0226343D01*
X0115177Y0226364D01*
X0115268Y0226380D01*
X0115360Y0226393D01*
X0115452Y0226402D01*
X0115545Y0226407D01*
X0115637Y0226408D01*
X0115730Y0226405D01*
X0115822Y0226398D01*
X0115914Y0226387D01*
X0116005Y0226372D01*
X0116096Y0226354D01*
X0116186Y0226331D01*
X0116274Y0226305D01*
X0116362Y0226275D01*
X0116448Y0226241D01*
X0116532Y0226204D01*
X0116615Y0226162D01*
X0116696Y0226118D01*
X0116776Y0226070D01*
X0116853Y0226019D01*
X0116927Y0225964D01*
X0117000Y0225906D01*
X0117070Y0225846D01*
X0117137Y0225782D01*
X0117201Y0225716D01*
X0117263Y0225646D01*
X0117321Y0225575D01*
X0117376Y0225501D01*
X0117428Y0225424D01*
X0117477Y0225345D01*
X0117523Y0225265D01*
X0117565Y0225182D01*
X0117603Y0225098D01*
X0117638Y0225012D01*
X0117669Y0224925D01*
X0117696Y0224837D01*
X0117719Y0224747D01*
X0117739Y0224657D01*
X0117755Y0224566D01*
X0117767Y0224474D01*
X0117775Y0224382D01*
X0117779Y0224289D01*
X0117779Y0224197D01*
X0117775Y0224104D01*
X0117767Y0224012D01*
X0117755Y0223920D01*
X0117739Y0223829D01*
X0117719Y0223739D01*
X0117696Y0223649D01*
X0117669Y0223561D01*
X0117638Y0223474D01*
X0117603Y0223388D01*
X0117565Y0223304D01*
X0117523Y0223221D01*
X0117477Y0223141D01*
X0117428Y0223062D01*
X0117376Y0222985D01*
X0117321Y0222911D01*
X0117263Y0222840D01*
X0117201Y0222770D01*
X0117137Y0222704D01*
X0117070Y0222640D01*
X0117000Y0222580D01*
X0116927Y0222522D01*
X0116853Y0222467D01*
X0116776Y0222416D01*
X0116697Y0222368D01*
X0116615Y0222324D01*
X0116532Y0222282D01*
X0116448Y0222245D01*
X0116362Y0222211D01*
X0116274Y0222181D01*
X0116186Y0222155D01*
X0116096Y0222132D01*
X0116005Y0222114D01*
X0115914Y0222099D01*
X0115822Y0222088D01*
X0115730Y0222081D01*
X0115637Y0222078D01*
X0115545Y0222079D01*
X0115452Y0222084D01*
X0115360Y0222093D01*
X0115268Y0222106D01*
X0115177Y0222122D01*
X0115087Y0222143D01*
X0114998Y0222167D01*
X0114910Y0222196D01*
X0114823Y0222228D01*
X0114738Y0222263D01*
X0114654Y0222303D01*
X0114572Y0222345D01*
X0114492Y0222392D01*
X0114414Y0222441D01*
X0114338Y0222494D01*
X0114264Y0222550D01*
X0114193Y0222610D01*
X0114125Y0222672D01*
X0114059Y0222737D01*
X0113996Y0222805D01*
X0113936Y0222875D01*
X0113879Y0222948D01*
X0113825Y0223023D01*
X0113775Y0223101D01*
X0113728Y0223181D01*
X0113684Y0223262D01*
X0113644Y0223346D01*
X0113607Y0223431D01*
X0113574Y0223517D01*
X0113545Y0223605D01*
X0113520Y0223694D01*
X0113498Y0223784D01*
X0113481Y0223875D01*
X0113467Y0223966D01*
X0113457Y0224058D01*
X0113451Y0224150D01*
X0113449Y0224243D01*
X0164519Y0266243D02*
X0164521Y0266327D01*
X0164527Y0266410D01*
X0164537Y0266493D01*
X0164551Y0266576D01*
X0164568Y0266658D01*
X0164590Y0266739D01*
X0164615Y0266818D01*
X0164644Y0266897D01*
X0164677Y0266974D01*
X0164713Y0267049D01*
X0164753Y0267123D01*
X0164796Y0267195D01*
X0164843Y0267264D01*
X0164893Y0267331D01*
X0164946Y0267396D01*
X0165002Y0267458D01*
X0165060Y0267518D01*
X0165122Y0267575D01*
X0165186Y0267628D01*
X0165253Y0267679D01*
X0165322Y0267726D01*
X0165393Y0267771D01*
X0165466Y0267811D01*
X0165541Y0267848D01*
X0165618Y0267882D01*
X0165696Y0267912D01*
X0165775Y0267938D01*
X0165856Y0267961D01*
X0165938Y0267979D01*
X0166020Y0267994D01*
X0166103Y0268005D01*
X0166186Y0268012D01*
X0166270Y0268015D01*
X0166354Y0268014D01*
X0166437Y0268009D01*
X0166521Y0268000D01*
X0166603Y0267987D01*
X0166685Y0267971D01*
X0166766Y0267950D01*
X0166847Y0267926D01*
X0166925Y0267898D01*
X0167003Y0267866D01*
X0167079Y0267830D01*
X0167153Y0267791D01*
X0167225Y0267749D01*
X0167295Y0267703D01*
X0167363Y0267654D01*
X0167428Y0267602D01*
X0167491Y0267547D01*
X0167551Y0267489D01*
X0167609Y0267428D01*
X0167663Y0267364D01*
X0167715Y0267298D01*
X0167763Y0267230D01*
X0167808Y0267159D01*
X0167849Y0267086D01*
X0167888Y0267012D01*
X0167922Y0266936D01*
X0167953Y0266858D01*
X0167980Y0266779D01*
X0168004Y0266698D01*
X0168023Y0266617D01*
X0168039Y0266535D01*
X0168051Y0266452D01*
X0168059Y0266368D01*
X0168063Y0266285D01*
X0168063Y0266201D01*
X0168059Y0266118D01*
X0168051Y0266034D01*
X0168039Y0265951D01*
X0168023Y0265869D01*
X0168004Y0265788D01*
X0167980Y0265707D01*
X0167953Y0265628D01*
X0167922Y0265550D01*
X0167888Y0265474D01*
X0167849Y0265400D01*
X0167808Y0265327D01*
X0167763Y0265256D01*
X0167715Y0265188D01*
X0167663Y0265122D01*
X0167609Y0265058D01*
X0167551Y0264997D01*
X0167491Y0264939D01*
X0167428Y0264884D01*
X0167363Y0264832D01*
X0167295Y0264783D01*
X0167225Y0264737D01*
X0167153Y0264695D01*
X0167079Y0264656D01*
X0167003Y0264620D01*
X0166925Y0264588D01*
X0166847Y0264560D01*
X0166766Y0264536D01*
X0166685Y0264515D01*
X0166603Y0264499D01*
X0166521Y0264486D01*
X0166437Y0264477D01*
X0166354Y0264472D01*
X0166270Y0264471D01*
X0166186Y0264474D01*
X0166103Y0264481D01*
X0166020Y0264492D01*
X0165938Y0264507D01*
X0165856Y0264525D01*
X0165775Y0264548D01*
X0165696Y0264574D01*
X0165618Y0264604D01*
X0165541Y0264638D01*
X0165466Y0264675D01*
X0165393Y0264715D01*
X0165322Y0264760D01*
X0165253Y0264807D01*
X0165186Y0264858D01*
X0165122Y0264911D01*
X0165060Y0264968D01*
X0165002Y0265028D01*
X0164946Y0265090D01*
X0164893Y0265155D01*
X0164843Y0265222D01*
X0164796Y0265291D01*
X0164753Y0265363D01*
X0164713Y0265437D01*
X0164677Y0265512D01*
X0164644Y0265589D01*
X0164615Y0265668D01*
X0164590Y0265747D01*
X0164568Y0265828D01*
X0164551Y0265910D01*
X0164537Y0265993D01*
X0164527Y0266076D01*
X0164521Y0266159D01*
X0164519Y0266243D01*
X0178299Y0266243D02*
X0178301Y0266327D01*
X0178307Y0266410D01*
X0178317Y0266493D01*
X0178331Y0266576D01*
X0178348Y0266658D01*
X0178370Y0266739D01*
X0178395Y0266818D01*
X0178424Y0266897D01*
X0178457Y0266974D01*
X0178493Y0267049D01*
X0178533Y0267123D01*
X0178576Y0267195D01*
X0178623Y0267264D01*
X0178673Y0267331D01*
X0178726Y0267396D01*
X0178782Y0267458D01*
X0178840Y0267518D01*
X0178902Y0267575D01*
X0178966Y0267628D01*
X0179033Y0267679D01*
X0179102Y0267726D01*
X0179173Y0267771D01*
X0179246Y0267811D01*
X0179321Y0267848D01*
X0179398Y0267882D01*
X0179476Y0267912D01*
X0179555Y0267938D01*
X0179636Y0267961D01*
X0179718Y0267979D01*
X0179800Y0267994D01*
X0179883Y0268005D01*
X0179966Y0268012D01*
X0180050Y0268015D01*
X0180134Y0268014D01*
X0180217Y0268009D01*
X0180301Y0268000D01*
X0180383Y0267987D01*
X0180465Y0267971D01*
X0180546Y0267950D01*
X0180627Y0267926D01*
X0180705Y0267898D01*
X0180783Y0267866D01*
X0180859Y0267830D01*
X0180933Y0267791D01*
X0181005Y0267749D01*
X0181075Y0267703D01*
X0181143Y0267654D01*
X0181208Y0267602D01*
X0181271Y0267547D01*
X0181331Y0267489D01*
X0181389Y0267428D01*
X0181443Y0267364D01*
X0181495Y0267298D01*
X0181543Y0267230D01*
X0181588Y0267159D01*
X0181629Y0267086D01*
X0181668Y0267012D01*
X0181702Y0266936D01*
X0181733Y0266858D01*
X0181760Y0266779D01*
X0181784Y0266698D01*
X0181803Y0266617D01*
X0181819Y0266535D01*
X0181831Y0266452D01*
X0181839Y0266368D01*
X0181843Y0266285D01*
X0181843Y0266201D01*
X0181839Y0266118D01*
X0181831Y0266034D01*
X0181819Y0265951D01*
X0181803Y0265869D01*
X0181784Y0265788D01*
X0181760Y0265707D01*
X0181733Y0265628D01*
X0181702Y0265550D01*
X0181668Y0265474D01*
X0181629Y0265400D01*
X0181588Y0265327D01*
X0181543Y0265256D01*
X0181495Y0265188D01*
X0181443Y0265122D01*
X0181389Y0265058D01*
X0181331Y0264997D01*
X0181271Y0264939D01*
X0181208Y0264884D01*
X0181143Y0264832D01*
X0181075Y0264783D01*
X0181005Y0264737D01*
X0180933Y0264695D01*
X0180859Y0264656D01*
X0180783Y0264620D01*
X0180705Y0264588D01*
X0180627Y0264560D01*
X0180546Y0264536D01*
X0180465Y0264515D01*
X0180383Y0264499D01*
X0180301Y0264486D01*
X0180217Y0264477D01*
X0180134Y0264472D01*
X0180050Y0264471D01*
X0179966Y0264474D01*
X0179883Y0264481D01*
X0179800Y0264492D01*
X0179718Y0264507D01*
X0179636Y0264525D01*
X0179555Y0264548D01*
X0179476Y0264574D01*
X0179398Y0264604D01*
X0179321Y0264638D01*
X0179246Y0264675D01*
X0179173Y0264715D01*
X0179102Y0264760D01*
X0179033Y0264807D01*
X0178966Y0264858D01*
X0178902Y0264911D01*
X0178840Y0264968D01*
X0178782Y0265028D01*
X0178726Y0265090D01*
X0178673Y0265155D01*
X0178623Y0265222D01*
X0178576Y0265291D01*
X0178533Y0265363D01*
X0178493Y0265437D01*
X0178457Y0265512D01*
X0178424Y0265589D01*
X0178395Y0265668D01*
X0178370Y0265747D01*
X0178348Y0265828D01*
X0178331Y0265910D01*
X0178317Y0265993D01*
X0178307Y0266076D01*
X0178301Y0266159D01*
X0178299Y0266243D01*
X0014038Y0224243D02*
X0014040Y0224355D01*
X0014046Y0224466D01*
X0014056Y0224578D01*
X0014070Y0224689D01*
X0014087Y0224799D01*
X0014109Y0224909D01*
X0014135Y0225018D01*
X0014164Y0225126D01*
X0014197Y0225232D01*
X0014234Y0225338D01*
X0014275Y0225442D01*
X0014320Y0225545D01*
X0014368Y0225646D01*
X0014419Y0225745D01*
X0014474Y0225842D01*
X0014533Y0225937D01*
X0014594Y0226031D01*
X0014659Y0226122D01*
X0014728Y0226210D01*
X0014799Y0226296D01*
X0014873Y0226380D01*
X0014951Y0226460D01*
X0015031Y0226538D01*
X0015114Y0226614D01*
X0015199Y0226686D01*
X0015287Y0226755D01*
X0015377Y0226821D01*
X0015470Y0226883D01*
X0015565Y0226943D01*
X0015662Y0226999D01*
X0015760Y0227051D01*
X0015861Y0227100D01*
X0015963Y0227145D01*
X0016067Y0227187D01*
X0016172Y0227225D01*
X0016279Y0227259D01*
X0016386Y0227289D01*
X0016495Y0227316D01*
X0016604Y0227338D01*
X0016715Y0227357D01*
X0016825Y0227372D01*
X0016937Y0227383D01*
X0017048Y0227390D01*
X0017160Y0227393D01*
X0017272Y0227392D01*
X0017384Y0227387D01*
X0017495Y0227378D01*
X0017606Y0227365D01*
X0017717Y0227348D01*
X0017827Y0227328D01*
X0017936Y0227303D01*
X0018044Y0227275D01*
X0018151Y0227242D01*
X0018257Y0227206D01*
X0018361Y0227166D01*
X0018464Y0227123D01*
X0018566Y0227076D01*
X0018665Y0227025D01*
X0018763Y0226971D01*
X0018859Y0226913D01*
X0018953Y0226852D01*
X0019044Y0226788D01*
X0019133Y0226721D01*
X0019220Y0226650D01*
X0019304Y0226576D01*
X0019386Y0226500D01*
X0019464Y0226420D01*
X0019540Y0226338D01*
X0019613Y0226253D01*
X0019683Y0226166D01*
X0019749Y0226076D01*
X0019813Y0225984D01*
X0019873Y0225890D01*
X0019930Y0225794D01*
X0019983Y0225695D01*
X0020033Y0225595D01*
X0020079Y0225494D01*
X0020122Y0225390D01*
X0020161Y0225285D01*
X0020196Y0225179D01*
X0020227Y0225072D01*
X0020255Y0224963D01*
X0020278Y0224854D01*
X0020298Y0224744D01*
X0020314Y0224633D01*
X0020326Y0224522D01*
X0020334Y0224411D01*
X0020338Y0224299D01*
X0020338Y0224187D01*
X0020334Y0224075D01*
X0020326Y0223964D01*
X0020314Y0223853D01*
X0020298Y0223742D01*
X0020278Y0223632D01*
X0020255Y0223523D01*
X0020227Y0223414D01*
X0020196Y0223307D01*
X0020161Y0223201D01*
X0020122Y0223096D01*
X0020079Y0222992D01*
X0020033Y0222891D01*
X0019983Y0222791D01*
X0019930Y0222692D01*
X0019873Y0222596D01*
X0019813Y0222502D01*
X0019749Y0222410D01*
X0019683Y0222320D01*
X0019613Y0222233D01*
X0019540Y0222148D01*
X0019464Y0222066D01*
X0019386Y0221986D01*
X0019304Y0221910D01*
X0019220Y0221836D01*
X0019133Y0221765D01*
X0019044Y0221698D01*
X0018953Y0221634D01*
X0018859Y0221573D01*
X0018763Y0221515D01*
X0018665Y0221461D01*
X0018566Y0221410D01*
X0018464Y0221363D01*
X0018361Y0221320D01*
X0018257Y0221280D01*
X0018151Y0221244D01*
X0018044Y0221211D01*
X0017936Y0221183D01*
X0017827Y0221158D01*
X0017717Y0221138D01*
X0017606Y0221121D01*
X0017495Y0221108D01*
X0017384Y0221099D01*
X0017272Y0221094D01*
X0017160Y0221093D01*
X0017048Y0221096D01*
X0016937Y0221103D01*
X0016825Y0221114D01*
X0016715Y0221129D01*
X0016604Y0221148D01*
X0016495Y0221170D01*
X0016386Y0221197D01*
X0016279Y0221227D01*
X0016172Y0221261D01*
X0016067Y0221299D01*
X0015963Y0221341D01*
X0015861Y0221386D01*
X0015760Y0221435D01*
X0015662Y0221487D01*
X0015565Y0221543D01*
X0015470Y0221603D01*
X0015377Y0221665D01*
X0015287Y0221731D01*
X0015199Y0221800D01*
X0015114Y0221872D01*
X0015031Y0221948D01*
X0014951Y0222026D01*
X0014873Y0222106D01*
X0014799Y0222190D01*
X0014728Y0222276D01*
X0014659Y0222364D01*
X0014594Y0222455D01*
X0014533Y0222549D01*
X0014474Y0222644D01*
X0014419Y0222741D01*
X0014368Y0222840D01*
X0014320Y0222941D01*
X0014275Y0223044D01*
X0014234Y0223148D01*
X0014197Y0223254D01*
X0014164Y0223360D01*
X0014135Y0223468D01*
X0014109Y0223577D01*
X0014087Y0223687D01*
X0014070Y0223797D01*
X0014056Y0223908D01*
X0014046Y0224020D01*
X0014040Y0224131D01*
X0014038Y0224243D01*
D11*
X0029731Y0183378D02*
X0029731Y0181110D01*
X0029731Y0182244D02*
X0033134Y0182244D01*
X0032000Y0181110D01*
X0032567Y0179695D02*
X0031433Y0179695D01*
X0030865Y0179128D01*
X0030865Y0177427D01*
X0029731Y0177427D02*
X0033134Y0177427D01*
X0033134Y0179128D01*
X0032567Y0179695D01*
X0030865Y0178561D02*
X0029731Y0179695D01*
X0034731Y0179695D02*
X0035865Y0178561D01*
X0035865Y0179128D02*
X0035865Y0177427D01*
X0034731Y0177427D02*
X0038134Y0177427D01*
X0038134Y0179128D01*
X0037567Y0179695D01*
X0036433Y0179695D01*
X0035865Y0179128D01*
X0034731Y0181110D02*
X0037000Y0183378D01*
X0037567Y0183378D01*
X0038134Y0182811D01*
X0038134Y0181677D01*
X0037567Y0181110D01*
X0039731Y0181677D02*
X0040298Y0181110D01*
X0039731Y0181677D02*
X0039731Y0182811D01*
X0040298Y0183378D01*
X0040865Y0183378D01*
X0041433Y0182811D01*
X0041433Y0182244D01*
X0041433Y0182811D02*
X0042000Y0183378D01*
X0042567Y0183378D01*
X0043134Y0182811D01*
X0043134Y0181677D01*
X0042567Y0181110D01*
X0042567Y0179695D02*
X0041433Y0179695D01*
X0040865Y0179128D01*
X0040865Y0177427D01*
X0039731Y0177427D02*
X0043134Y0177427D01*
X0043134Y0179128D01*
X0042567Y0179695D01*
X0040865Y0178561D02*
X0039731Y0179695D01*
X0034731Y0181110D02*
X0034731Y0183378D01*
X0062796Y0167446D02*
X0065064Y0167446D01*
X0065064Y0165744D01*
X0063930Y0166312D01*
X0063363Y0166312D01*
X0062796Y0165744D01*
X0062796Y0164610D01*
X0063363Y0164043D01*
X0064497Y0164043D01*
X0065064Y0164610D01*
X0066479Y0164610D02*
X0066479Y0166879D01*
X0068747Y0164610D01*
X0068180Y0164043D01*
X0067046Y0164043D01*
X0066479Y0164610D01*
X0068747Y0164610D02*
X0068747Y0166879D01*
X0068180Y0167446D01*
X0067046Y0167446D01*
X0066479Y0166879D01*
X0070162Y0164043D02*
X0072431Y0164043D01*
X0071296Y0164043D02*
X0071296Y0167446D01*
X0072431Y0166312D01*
X0073845Y0166879D02*
X0074412Y0167446D01*
X0075547Y0167446D01*
X0076114Y0166879D01*
X0076114Y0164610D01*
X0075547Y0164043D01*
X0074412Y0164043D01*
X0073845Y0164610D01*
X0068684Y0152907D02*
X0067616Y0152907D01*
X0067616Y0148636D01*
X0066549Y0148636D02*
X0068684Y0148636D01*
X0069751Y0149704D01*
X0069751Y0151839D01*
X0068684Y0152907D01*
X0065481Y0151839D02*
X0065481Y0149704D01*
X0066549Y0148636D01*
X0065481Y0146474D02*
X0066549Y0145407D01*
X0070819Y0145407D01*
X0069751Y0146474D02*
X0069751Y0144339D01*
X0071887Y0141110D02*
X0065481Y0141110D01*
X0065481Y0142177D02*
X0065481Y0140042D01*
X0067616Y0137867D02*
X0067616Y0133597D01*
X0066549Y0133597D02*
X0068684Y0133597D01*
X0069751Y0134664D01*
X0069751Y0136799D01*
X0068684Y0137867D01*
X0067616Y0137867D01*
X0065481Y0136799D02*
X0065481Y0134664D01*
X0066549Y0133597D01*
X0065481Y0131422D02*
X0071887Y0131422D01*
X0071887Y0127151D02*
X0065481Y0127151D01*
X0067616Y0129286D01*
X0065481Y0131422D01*
X0061387Y0129300D02*
X0054981Y0129300D01*
X0054981Y0132502D01*
X0056049Y0133570D01*
X0058184Y0133570D01*
X0059251Y0132502D01*
X0059251Y0129300D01*
X0058184Y0127125D02*
X0054981Y0127125D01*
X0054981Y0124989D02*
X0058184Y0124989D01*
X0059251Y0126057D01*
X0058184Y0127125D01*
X0058184Y0124989D02*
X0059251Y0123922D01*
X0059251Y0122854D01*
X0054981Y0122854D01*
X0056049Y0120679D02*
X0058184Y0120679D01*
X0058184Y0118544D01*
X0060319Y0120679D02*
X0061387Y0119611D01*
X0061387Y0117476D01*
X0060319Y0116409D01*
X0056049Y0116409D01*
X0054981Y0117476D01*
X0054981Y0119611D01*
X0056049Y0120679D01*
X0050887Y0123922D02*
X0049819Y0122854D01*
X0048751Y0122854D01*
X0047684Y0123922D01*
X0047684Y0126057D01*
X0046616Y0127125D01*
X0045549Y0127125D01*
X0044481Y0126057D01*
X0044481Y0123922D01*
X0045549Y0122854D01*
X0047684Y0120679D02*
X0047684Y0116409D01*
X0049819Y0114234D02*
X0047684Y0112098D01*
X0044481Y0112098D01*
X0041430Y0116793D02*
X0040296Y0116793D01*
X0039729Y0117360D01*
X0038314Y0117360D02*
X0037747Y0116793D01*
X0036613Y0116793D01*
X0036046Y0117360D01*
X0036046Y0117927D01*
X0036613Y0118494D01*
X0037747Y0118494D01*
X0038314Y0119062D01*
X0038314Y0119629D01*
X0037747Y0120196D01*
X0036613Y0120196D01*
X0036046Y0119629D01*
X0036046Y0119062D01*
X0036613Y0118494D01*
X0037747Y0118494D02*
X0038314Y0117927D01*
X0038314Y0117360D01*
X0039729Y0119629D02*
X0040296Y0120196D01*
X0041430Y0120196D01*
X0041997Y0119629D01*
X0041997Y0117360D01*
X0041430Y0116793D01*
X0047684Y0112098D02*
X0049819Y0109963D01*
X0050887Y0109963D01*
X0049819Y0107788D02*
X0048751Y0107788D01*
X0047684Y0106720D01*
X0047684Y0103518D01*
X0047684Y0101343D02*
X0047684Y0097072D01*
X0049819Y0094897D02*
X0050887Y0093829D01*
X0050887Y0091694D01*
X0049819Y0090627D01*
X0045549Y0090627D01*
X0044481Y0091694D01*
X0044481Y0093829D01*
X0045549Y0094897D01*
X0045549Y0088452D02*
X0044481Y0087384D01*
X0044481Y0085249D01*
X0045549Y0084181D01*
X0049819Y0084181D01*
X0050887Y0085249D01*
X0050887Y0087384D01*
X0049819Y0088452D01*
X0054981Y0087384D02*
X0056049Y0088452D01*
X0058184Y0088452D01*
X0059251Y0087384D01*
X0059251Y0085249D01*
X0058184Y0084181D01*
X0056049Y0084181D01*
X0054981Y0085249D01*
X0054981Y0087384D01*
X0056049Y0090627D02*
X0054981Y0091694D01*
X0054981Y0094897D01*
X0056049Y0097072D02*
X0054981Y0098140D01*
X0054981Y0100275D01*
X0056049Y0101343D01*
X0058184Y0101343D01*
X0059251Y0100275D01*
X0059251Y0098140D01*
X0058184Y0097072D01*
X0056049Y0097072D01*
X0059251Y0094897D02*
X0059251Y0091694D01*
X0058184Y0090627D01*
X0056049Y0090627D01*
X0054981Y0082006D02*
X0058184Y0082006D01*
X0059251Y0080938D01*
X0058184Y0079871D01*
X0054981Y0079871D01*
X0054981Y0077736D02*
X0059251Y0077736D01*
X0059251Y0078803D01*
X0058184Y0079871D01*
X0059251Y0075561D02*
X0059251Y0072358D01*
X0058184Y0071290D01*
X0057116Y0072358D01*
X0057116Y0074493D01*
X0056049Y0075561D01*
X0054981Y0074493D01*
X0054981Y0071290D01*
X0054981Y0069115D02*
X0054981Y0065912D01*
X0056049Y0064845D01*
X0059251Y0064845D01*
X0059251Y0062670D02*
X0059251Y0059467D01*
X0058184Y0058399D01*
X0057116Y0059467D01*
X0057116Y0061602D01*
X0056049Y0062670D01*
X0054981Y0061602D01*
X0054981Y0058399D01*
X0054981Y0049799D02*
X0054981Y0048731D01*
X0056049Y0048731D01*
X0056049Y0049799D01*
X0054981Y0049799D01*
X0058184Y0049799D02*
X0058184Y0048731D01*
X0059251Y0048731D01*
X0059251Y0049799D01*
X0058184Y0049799D01*
X0059251Y0046556D02*
X0053914Y0046556D01*
X0052846Y0045488D01*
X0052846Y0044421D01*
X0054981Y0043353D02*
X0054981Y0046556D01*
X0054981Y0043353D02*
X0056049Y0042286D01*
X0058184Y0042286D01*
X0059251Y0043353D01*
X0059251Y0046556D01*
X0058184Y0040124D02*
X0058184Y0037989D01*
X0060319Y0039056D02*
X0061387Y0040124D01*
X0060319Y0039056D02*
X0054981Y0039056D01*
X0051954Y0039056D02*
X0050887Y0039056D01*
X0048751Y0039056D02*
X0048751Y0037989D01*
X0048751Y0039056D02*
X0044481Y0039056D01*
X0044481Y0037989D02*
X0044481Y0040124D01*
X0045549Y0042286D02*
X0044481Y0043353D01*
X0044481Y0046556D01*
X0045549Y0048731D02*
X0047684Y0048731D01*
X0048751Y0049799D01*
X0048751Y0051934D01*
X0047684Y0053001D01*
X0046616Y0053001D01*
X0046616Y0048731D01*
X0045549Y0048731D02*
X0044481Y0049799D01*
X0044481Y0051934D01*
X0044481Y0055177D02*
X0048751Y0055177D01*
X0048751Y0058379D01*
X0047684Y0059447D01*
X0044481Y0059447D01*
X0044481Y0061622D02*
X0044481Y0064825D01*
X0045549Y0065892D01*
X0046616Y0064825D01*
X0046616Y0062690D01*
X0047684Y0061622D01*
X0048751Y0062690D01*
X0048751Y0065892D01*
X0047684Y0068068D02*
X0045549Y0068068D01*
X0044481Y0069135D01*
X0044481Y0071270D01*
X0046616Y0072338D02*
X0046616Y0068068D01*
X0047684Y0068068D02*
X0048751Y0069135D01*
X0048751Y0071270D01*
X0047684Y0072338D01*
X0046616Y0072338D01*
X0045549Y0074513D02*
X0044481Y0074513D01*
X0044481Y0075581D01*
X0045549Y0075581D01*
X0045549Y0074513D01*
X0047684Y0074513D02*
X0048751Y0074513D01*
X0048751Y0075581D01*
X0047684Y0075581D01*
X0047684Y0074513D01*
X0053914Y0069115D02*
X0052846Y0068048D01*
X0052846Y0066980D01*
X0053914Y0069115D02*
X0059251Y0069115D01*
X0065481Y0068054D02*
X0071887Y0068054D01*
X0069751Y0065919D01*
X0070819Y0063744D02*
X0066549Y0059474D01*
X0065481Y0060541D01*
X0065481Y0062676D01*
X0066549Y0063744D01*
X0070819Y0063744D01*
X0071887Y0062676D01*
X0071887Y0060541D01*
X0070819Y0059474D01*
X0066549Y0059474D01*
X0065481Y0057298D02*
X0065481Y0053028D01*
X0069751Y0057298D01*
X0070819Y0057298D01*
X0071887Y0056231D01*
X0071887Y0054096D01*
X0070819Y0053028D01*
X0076481Y0053028D02*
X0082887Y0053028D01*
X0082887Y0056231D01*
X0081819Y0057298D01*
X0079684Y0057298D01*
X0078616Y0056231D01*
X0078616Y0053028D01*
X0076481Y0050866D02*
X0076481Y0048731D01*
X0076481Y0049799D02*
X0080751Y0049799D01*
X0080751Y0048731D01*
X0082887Y0049799D02*
X0083954Y0049799D01*
X0079684Y0046556D02*
X0076481Y0046556D01*
X0076481Y0042286D02*
X0080751Y0042286D01*
X0080751Y0045488D01*
X0079684Y0046556D01*
X0076481Y0040124D02*
X0076481Y0037989D01*
X0076481Y0039056D02*
X0080751Y0039056D01*
X0080751Y0037989D01*
X0082887Y0039056D02*
X0083954Y0039056D01*
X0079684Y0035813D02*
X0080751Y0034746D01*
X0079684Y0033678D01*
X0076481Y0033678D01*
X0076481Y0031543D02*
X0080751Y0031543D01*
X0080751Y0032611D01*
X0079684Y0033678D01*
X0079684Y0035813D02*
X0076481Y0035813D01*
X0071887Y0036908D02*
X0070819Y0035840D01*
X0066549Y0035840D01*
X0065481Y0036908D01*
X0065481Y0039043D01*
X0066549Y0040110D01*
X0065481Y0042286D02*
X0067616Y0044421D01*
X0069751Y0044421D01*
X0071887Y0042286D01*
X0070819Y0040110D02*
X0071887Y0039043D01*
X0071887Y0036908D01*
X0071887Y0033678D02*
X0069751Y0031543D01*
X0067616Y0031543D01*
X0065481Y0033678D01*
X0061387Y0031543D02*
X0059251Y0033678D01*
X0061387Y0035813D01*
X0054981Y0035813D01*
X0054981Y0031543D02*
X0061387Y0031543D01*
X0050887Y0031543D02*
X0044481Y0031543D01*
X0044481Y0035813D01*
X0045549Y0042286D02*
X0047684Y0042286D01*
X0048751Y0043353D01*
X0048751Y0046556D01*
X0065481Y0065919D02*
X0065481Y0070189D01*
X0066549Y0072365D02*
X0065481Y0073432D01*
X0065481Y0075567D01*
X0066549Y0076635D01*
X0067616Y0076635D01*
X0068684Y0075567D01*
X0068684Y0072365D01*
X0066549Y0072365D01*
X0068684Y0072365D02*
X0070819Y0074500D01*
X0071887Y0076635D01*
X0076481Y0073419D02*
X0076481Y0071284D01*
X0077549Y0070216D01*
X0079684Y0070216D01*
X0080751Y0071284D01*
X0080751Y0073419D01*
X0079684Y0074486D01*
X0078616Y0074486D01*
X0078616Y0070216D01*
X0076481Y0068054D02*
X0076481Y0065919D01*
X0076481Y0066987D02*
X0082887Y0066987D01*
X0082887Y0068054D02*
X0082887Y0065919D01*
X0081819Y0063744D02*
X0082887Y0062676D01*
X0082887Y0060541D01*
X0081819Y0059474D01*
X0077549Y0059474D01*
X0076481Y0060541D01*
X0076481Y0062676D01*
X0077549Y0063744D01*
X0076481Y0083107D02*
X0076481Y0086310D01*
X0077549Y0087377D01*
X0079684Y0087377D01*
X0080751Y0086310D01*
X0080751Y0083107D01*
X0082887Y0083107D02*
X0076481Y0083107D01*
X0071887Y0085256D02*
X0065481Y0085256D01*
X0068684Y0085256D02*
X0068684Y0089526D01*
X0066549Y0091701D02*
X0067616Y0092769D01*
X0067616Y0095971D01*
X0068684Y0095971D02*
X0065481Y0095971D01*
X0065481Y0092769D01*
X0066549Y0091701D01*
X0065481Y0089526D02*
X0071887Y0089526D01*
X0069751Y0092769D02*
X0069751Y0094904D01*
X0068684Y0095971D01*
X0069751Y0098147D02*
X0065481Y0098147D01*
X0067616Y0098147D02*
X0069751Y0100282D01*
X0069751Y0101349D01*
X0069751Y0104585D02*
X0069751Y0106720D01*
X0068684Y0107788D01*
X0065481Y0107788D01*
X0065481Y0104585D01*
X0066549Y0103518D01*
X0067616Y0104585D01*
X0067616Y0107788D01*
X0065481Y0109963D02*
X0065481Y0112098D01*
X0065481Y0111031D02*
X0071887Y0111031D01*
X0071887Y0109963D01*
X0076481Y0111017D02*
X0078616Y0107815D01*
X0080751Y0111017D01*
X0079684Y0113186D02*
X0077549Y0113186D01*
X0076481Y0114254D01*
X0076481Y0116389D01*
X0077549Y0117456D01*
X0079684Y0117456D01*
X0080751Y0116389D01*
X0080751Y0114254D01*
X0079684Y0113186D01*
X0076481Y0107815D02*
X0082887Y0107815D01*
X0079684Y0105640D02*
X0080751Y0104572D01*
X0080751Y0102437D01*
X0078616Y0102437D02*
X0077549Y0101369D01*
X0076481Y0102437D01*
X0076481Y0105640D01*
X0079684Y0105640D01*
X0078616Y0105640D02*
X0078616Y0102437D01*
X0078616Y0099194D02*
X0078616Y0094924D01*
X0077549Y0094924D02*
X0079684Y0094924D01*
X0080751Y0095991D01*
X0080751Y0098126D01*
X0079684Y0099194D01*
X0078616Y0099194D01*
X0076481Y0098126D02*
X0076481Y0095991D01*
X0077549Y0094924D01*
X0080751Y0092755D02*
X0080751Y0091688D01*
X0078616Y0089553D01*
X0076481Y0089553D02*
X0080751Y0089553D01*
X0068684Y0114260D02*
X0066549Y0114260D01*
X0065481Y0115328D01*
X0065481Y0118531D01*
X0071887Y0118531D01*
X0069751Y0118531D02*
X0069751Y0115328D01*
X0068684Y0114260D01*
X0076481Y0120699D02*
X0076481Y0123902D01*
X0080751Y0123902D01*
X0080751Y0126077D02*
X0080751Y0128212D01*
X0081819Y0127145D02*
X0077549Y0127145D01*
X0076481Y0128212D01*
X0076481Y0120699D02*
X0077549Y0119631D01*
X0080751Y0119631D01*
X0080751Y0135543D02*
X0076481Y0137678D01*
X0080751Y0139813D01*
X0080751Y0141989D02*
X0082887Y0144124D01*
X0076481Y0144124D01*
X0076481Y0141989D02*
X0076481Y0146259D01*
X0071887Y0141110D02*
X0071887Y0140042D01*
X0061387Y0140016D02*
X0054981Y0140016D01*
X0054981Y0135745D02*
X0061387Y0135745D01*
X0058184Y0135745D02*
X0058184Y0140016D01*
X0050887Y0131435D02*
X0048751Y0133570D01*
X0044481Y0133570D01*
X0044481Y0129300D02*
X0048751Y0129300D01*
X0050887Y0131435D01*
X0047684Y0129300D02*
X0047684Y0133570D01*
X0049819Y0127125D02*
X0050887Y0126057D01*
X0050887Y0123922D01*
X0050887Y0114234D02*
X0049819Y0114234D01*
X0049819Y0107788D02*
X0050887Y0106720D01*
X0050887Y0103518D01*
X0044481Y0103518D01*
X0044481Y0106720D01*
X0045549Y0107788D01*
X0046616Y0107788D01*
X0047684Y0106720D01*
X0054981Y0105653D02*
X0058184Y0105653D01*
X0059251Y0106720D01*
X0058184Y0107788D01*
X0054981Y0107788D01*
X0054981Y0103518D02*
X0059251Y0103518D01*
X0059251Y0104585D01*
X0058184Y0105653D01*
X0038680Y0127417D02*
X0039247Y0127985D01*
X0039247Y0130253D01*
X0038680Y0130820D01*
X0037546Y0130820D01*
X0036979Y0130253D01*
X0035564Y0129119D02*
X0035564Y0127985D01*
X0034997Y0127417D01*
X0033863Y0127417D01*
X0033296Y0127985D01*
X0033296Y0128552D01*
X0033863Y0129119D01*
X0035564Y0129119D01*
X0034430Y0130253D01*
X0033296Y0130820D01*
X0036979Y0127985D02*
X0037546Y0127417D01*
X0038680Y0127417D01*
X0038680Y0137417D02*
X0037546Y0137417D01*
X0036979Y0137985D01*
X0035564Y0137985D02*
X0034997Y0137417D01*
X0033863Y0137417D01*
X0033296Y0137985D01*
X0033296Y0139119D01*
X0033863Y0139686D01*
X0034430Y0139686D01*
X0035564Y0139119D01*
X0035564Y0140820D01*
X0033296Y0140820D01*
X0036979Y0140253D02*
X0037546Y0140820D01*
X0038680Y0140820D01*
X0039247Y0140253D01*
X0039247Y0137985D01*
X0038680Y0137417D01*
X0074613Y0182793D02*
X0074046Y0183360D01*
X0074046Y0183927D01*
X0074613Y0184494D01*
X0076314Y0184494D01*
X0076314Y0183360D01*
X0075747Y0182793D01*
X0074613Y0182793D01*
X0076314Y0184494D02*
X0075180Y0185629D01*
X0074046Y0186196D01*
X0074613Y0187793D02*
X0075747Y0187793D01*
X0076314Y0188360D01*
X0076314Y0188927D01*
X0075747Y0189494D01*
X0074613Y0189494D01*
X0074046Y0188927D01*
X0074046Y0188360D01*
X0074613Y0187793D01*
X0074613Y0189494D02*
X0074046Y0190062D01*
X0074046Y0190629D01*
X0074613Y0191196D01*
X0075747Y0191196D01*
X0076314Y0190629D01*
X0076314Y0190062D01*
X0075747Y0189494D01*
X0077729Y0190629D02*
X0077729Y0188360D01*
X0078296Y0187793D01*
X0079430Y0187793D01*
X0079997Y0188360D01*
X0077729Y0190629D01*
X0078296Y0191196D01*
X0079430Y0191196D01*
X0079997Y0190629D01*
X0079997Y0188360D01*
X0081412Y0187793D02*
X0083681Y0187793D01*
X0082546Y0187793D02*
X0082546Y0191196D01*
X0083681Y0190062D01*
X0085095Y0190629D02*
X0085662Y0191196D01*
X0086797Y0191196D01*
X0087364Y0190629D01*
X0087364Y0188360D01*
X0086797Y0187793D01*
X0085662Y0187793D01*
X0085095Y0188360D01*
X0085662Y0186196D02*
X0085095Y0185629D01*
X0085662Y0186196D02*
X0086797Y0186196D01*
X0087364Y0185629D01*
X0087364Y0183360D01*
X0086797Y0182793D01*
X0085662Y0182793D01*
X0085095Y0183360D01*
X0083681Y0182793D02*
X0081412Y0182793D01*
X0082546Y0182793D02*
X0082546Y0186196D01*
X0083681Y0185062D01*
X0079997Y0185629D02*
X0079997Y0183360D01*
X0077729Y0185629D01*
X0077729Y0183360D01*
X0078296Y0182793D01*
X0079430Y0182793D01*
X0079997Y0183360D01*
X0079997Y0185629D02*
X0079430Y0186196D01*
X0078296Y0186196D01*
X0077729Y0185629D01*
X0077680Y0192417D02*
X0076546Y0192417D01*
X0075979Y0192985D01*
X0075979Y0195253D01*
X0078247Y0192985D01*
X0077680Y0192417D01*
X0078247Y0192985D02*
X0078247Y0195253D01*
X0077680Y0195820D01*
X0076546Y0195820D01*
X0075979Y0195253D01*
X0074564Y0195820D02*
X0072296Y0195820D01*
X0072296Y0195253D01*
X0074564Y0192985D01*
X0074564Y0192417D01*
X0079662Y0192417D02*
X0081931Y0192417D01*
X0080796Y0192417D02*
X0080796Y0195820D01*
X0081931Y0194686D01*
X0083345Y0195253D02*
X0083912Y0195820D01*
X0085047Y0195820D01*
X0085614Y0195253D01*
X0085614Y0192985D01*
X0085047Y0192417D01*
X0083912Y0192417D01*
X0083345Y0192985D01*
X0089813Y0193129D02*
X0089813Y0192562D01*
X0092082Y0190293D01*
X0089813Y0190293D01*
X0090380Y0188696D02*
X0089813Y0188129D01*
X0092082Y0185860D01*
X0091515Y0185293D01*
X0090380Y0185293D01*
X0089813Y0185860D01*
X0089813Y0188129D01*
X0090380Y0188696D02*
X0091515Y0188696D01*
X0092082Y0188129D01*
X0092082Y0185860D01*
X0093496Y0185293D02*
X0095765Y0185293D01*
X0094631Y0185293D02*
X0094631Y0188696D01*
X0095765Y0187562D01*
X0097179Y0185293D02*
X0099448Y0185293D01*
X0098314Y0185293D02*
X0098314Y0188696D01*
X0099448Y0187562D01*
X0100862Y0188129D02*
X0101430Y0188696D01*
X0102564Y0188696D01*
X0103131Y0188129D01*
X0103131Y0185860D01*
X0102564Y0185293D01*
X0101430Y0185293D01*
X0100862Y0185860D01*
X0101430Y0190293D02*
X0100862Y0190860D01*
X0101430Y0190293D02*
X0102564Y0190293D01*
X0103131Y0190860D01*
X0103131Y0193129D01*
X0102564Y0193696D01*
X0101430Y0193696D01*
X0100862Y0193129D01*
X0099448Y0192562D02*
X0098314Y0193696D01*
X0098314Y0190293D01*
X0099448Y0190293D02*
X0097179Y0190293D01*
X0095765Y0190293D02*
X0093496Y0190293D01*
X0094631Y0190293D02*
X0094631Y0193696D01*
X0095765Y0192562D01*
X0095381Y0194669D02*
X0095381Y0198072D01*
X0096515Y0196937D01*
X0096515Y0194669D02*
X0094246Y0194669D01*
X0092832Y0194669D02*
X0090563Y0194669D01*
X0090380Y0193696D02*
X0091515Y0193696D01*
X0092082Y0193129D01*
X0091697Y0194669D02*
X0091697Y0198072D01*
X0092832Y0196937D01*
X0090380Y0193696D02*
X0089813Y0193129D01*
X0097929Y0194669D02*
X0100198Y0194669D01*
X0099064Y0194669D02*
X0099064Y0198072D01*
X0100198Y0196937D01*
X0101612Y0197504D02*
X0102180Y0198072D01*
X0103314Y0198072D01*
X0103881Y0197504D01*
X0103881Y0195236D01*
X0103314Y0194669D01*
X0102180Y0194669D01*
X0101612Y0195236D01*
X0106363Y0169446D02*
X0105796Y0168879D01*
X0105796Y0166610D01*
X0106363Y0166043D01*
X0107497Y0166043D01*
X0108064Y0166610D01*
X0107497Y0167744D02*
X0105796Y0167744D01*
X0107497Y0167744D02*
X0108064Y0168312D01*
X0108064Y0168879D01*
X0107497Y0169446D01*
X0106363Y0169446D01*
X0109479Y0168879D02*
X0109479Y0166610D01*
X0110046Y0166043D01*
X0111180Y0166043D01*
X0111747Y0166610D01*
X0109479Y0168879D01*
X0110046Y0169446D01*
X0111180Y0169446D01*
X0111747Y0168879D01*
X0111747Y0166610D01*
X0113162Y0166043D02*
X0115431Y0166043D01*
X0114296Y0166043D02*
X0114296Y0169446D01*
X0115431Y0168312D01*
X0116845Y0168879D02*
X0117412Y0169446D01*
X0118547Y0169446D01*
X0119114Y0168879D01*
X0119114Y0166610D01*
X0118547Y0166043D01*
X0117412Y0166043D01*
X0116845Y0166610D01*
X0107010Y0146495D02*
X0106442Y0146495D01*
X0104174Y0144226D01*
X0103607Y0144226D01*
X0104174Y0142812D02*
X0103607Y0142244D01*
X0103607Y0141110D01*
X0104174Y0140543D01*
X0106442Y0140543D01*
X0107010Y0141110D01*
X0107010Y0142244D01*
X0106442Y0142812D01*
X0107010Y0144226D02*
X0107010Y0146495D01*
X0132181Y0187243D02*
X0131181Y0188243D01*
X0131181Y0196243D01*
X0132181Y0197243D01*
X0140181Y0197243D01*
X0141181Y0196243D01*
X0142181Y0197243D01*
X0150181Y0197243D01*
X0151181Y0196243D01*
X0151181Y0188243D01*
X0150181Y0187243D01*
X0142181Y0187243D01*
X0141181Y0188243D01*
X0140181Y0187243D01*
X0132181Y0187243D01*
X0132181Y0199243D02*
X0140181Y0199243D01*
X0141181Y0200243D01*
X0142181Y0199243D01*
X0150181Y0199243D01*
X0151181Y0200243D01*
X0151181Y0208243D01*
X0150181Y0209243D01*
X0142181Y0209243D01*
X0141181Y0208243D01*
X0140181Y0209243D01*
X0132181Y0209243D01*
X0131181Y0208243D01*
X0131181Y0200243D01*
X0132181Y0199243D01*
X0167056Y0228543D02*
X0171327Y0228543D01*
X0169191Y0228543D02*
X0169191Y0234948D01*
X0171327Y0232813D01*
X0173502Y0234948D02*
X0173502Y0229611D01*
X0174569Y0228543D01*
X0176705Y0228543D01*
X0177772Y0229611D01*
X0177772Y0234948D01*
X0184731Y0234695D02*
X0185865Y0233561D01*
X0185865Y0234128D02*
X0185865Y0232427D01*
X0184731Y0232427D02*
X0188134Y0232427D01*
X0188134Y0234128D01*
X0187567Y0234695D01*
X0186433Y0234695D01*
X0185865Y0234128D01*
X0186433Y0236110D02*
X0186433Y0238378D01*
X0188134Y0237811D02*
X0186433Y0236110D01*
X0188134Y0237811D02*
X0184731Y0237811D01*
X0190731Y0237811D02*
X0190731Y0236677D01*
X0191298Y0236110D01*
X0192433Y0236677D02*
X0192433Y0238378D01*
X0193567Y0238378D02*
X0191298Y0238378D01*
X0190731Y0237811D01*
X0192433Y0236677D02*
X0193000Y0236110D01*
X0193567Y0236110D01*
X0194134Y0236677D01*
X0194134Y0237811D01*
X0193567Y0238378D01*
X0193567Y0234695D02*
X0194134Y0234128D01*
X0194134Y0232994D01*
X0193567Y0232427D01*
X0191298Y0232427D01*
X0190731Y0232994D01*
X0190731Y0234128D01*
X0191298Y0234695D01*
X0151634Y0258293D02*
X0151634Y0259994D01*
X0151067Y0260562D01*
X0149933Y0260562D01*
X0149365Y0259994D01*
X0149365Y0258293D01*
X0148231Y0258293D02*
X0151634Y0258293D01*
X0149365Y0259427D02*
X0148231Y0260562D01*
X0148798Y0261976D02*
X0148231Y0262543D01*
X0148231Y0263678D01*
X0148798Y0264245D01*
X0149933Y0264245D01*
X0150500Y0263678D01*
X0150500Y0263110D01*
X0149933Y0261976D01*
X0151634Y0261976D01*
X0151634Y0264245D01*
X0186181Y0149243D02*
X0185181Y0148243D01*
X0185181Y0140243D01*
X0186181Y0139243D01*
X0185181Y0138243D01*
X0185181Y0130243D01*
X0186181Y0129243D01*
X0185181Y0128243D01*
X0185181Y0120243D01*
X0186181Y0119243D01*
X0194181Y0119243D01*
X0195181Y0120243D01*
X0195181Y0128243D01*
X0194181Y0129243D01*
X0195181Y0130243D01*
X0195181Y0138243D01*
X0194181Y0139243D01*
X0195181Y0140243D01*
X0195181Y0148243D01*
X0194181Y0149243D01*
X0186181Y0149243D01*
X0162747Y0140379D02*
X0162747Y0138110D01*
X0162180Y0137543D01*
X0161046Y0137543D01*
X0160479Y0138110D01*
X0159064Y0137543D02*
X0156796Y0137543D01*
X0157930Y0137543D02*
X0157930Y0140946D01*
X0159064Y0139812D01*
X0160479Y0140379D02*
X0161046Y0140946D01*
X0162180Y0140946D01*
X0162747Y0140379D01*
X0142317Y0059995D02*
X0142884Y0059428D01*
X0142884Y0058293D01*
X0142317Y0057726D01*
X0142317Y0056312D02*
X0142884Y0055744D01*
X0142884Y0054610D01*
X0142317Y0054043D01*
X0140048Y0054043D01*
X0139481Y0054610D01*
X0139481Y0055744D01*
X0140048Y0056312D01*
X0139481Y0057726D02*
X0141750Y0059995D01*
X0142317Y0059995D01*
X0139481Y0059995D02*
X0139481Y0057726D01*
D12*
X0179682Y0134681D02*
X0178931Y0135432D01*
X0178931Y0136183D01*
X0179682Y0136933D01*
X0183435Y0136933D01*
X0183435Y0136183D02*
X0183435Y0137684D01*
X0183435Y0139285D02*
X0183435Y0141537D01*
X0182684Y0142288D01*
X0181183Y0142288D01*
X0180432Y0141537D01*
X0180432Y0139285D01*
X0178931Y0139285D02*
X0183435Y0139285D01*
X0182684Y0143889D02*
X0183435Y0144640D01*
X0183435Y0146141D01*
X0182684Y0146892D01*
X0181934Y0146892D01*
X0181183Y0146141D01*
X0180432Y0146892D01*
X0179682Y0146892D01*
X0178931Y0146141D01*
X0178931Y0144640D01*
X0179682Y0143889D01*
X0181183Y0145390D02*
X0181183Y0146141D01*
X0197031Y0143171D02*
X0197031Y0140902D01*
X0197031Y0142036D02*
X0200434Y0142036D01*
X0199300Y0140902D01*
X0199300Y0133171D02*
X0199867Y0133171D01*
X0200434Y0132603D01*
X0200434Y0131469D01*
X0199867Y0130902D01*
X0199300Y0133171D02*
X0197031Y0130902D01*
X0197031Y0133171D01*
X0197598Y0123171D02*
X0197031Y0122603D01*
X0197031Y0121469D01*
X0197598Y0120902D01*
X0198733Y0122036D02*
X0198733Y0122603D01*
X0198165Y0123171D01*
X0197598Y0123171D01*
X0198733Y0122603D02*
X0199300Y0123171D01*
X0199867Y0123171D01*
X0200434Y0122603D01*
X0200434Y0121469D01*
X0199867Y0120902D01*
X0143992Y0180993D02*
X0144743Y0181744D01*
X0143992Y0180993D02*
X0143242Y0180993D01*
X0142491Y0181744D01*
X0142491Y0185497D01*
X0143242Y0185497D02*
X0141740Y0185497D01*
X0140139Y0185497D02*
X0137887Y0185497D01*
X0137136Y0184746D01*
X0137136Y0183245D01*
X0137887Y0182494D01*
X0140139Y0182494D01*
X0140139Y0180993D02*
X0140139Y0185497D01*
X0135535Y0183996D02*
X0134034Y0185497D01*
X0134034Y0180993D01*
X0135535Y0180993D02*
X0132532Y0180993D01*
X0122307Y0204558D02*
X0117582Y0204558D01*
X0117582Y0208101D01*
X0115683Y0208101D01*
X0122307Y0204558D02*
X0122307Y0229686D01*
X0127744Y0221327D02*
X0127744Y0218324D01*
X0127744Y0219825D02*
X0132247Y0219825D01*
X0130746Y0218324D01*
X0132247Y0216723D02*
X0127744Y0213720D01*
X0127744Y0216723D02*
X0132247Y0213720D01*
X0138721Y0213996D02*
X0138721Y0214746D01*
X0139471Y0215497D01*
X0140973Y0215497D01*
X0141723Y0214746D01*
X0143325Y0214746D02*
X0143325Y0213245D01*
X0144075Y0212494D01*
X0146327Y0212494D01*
X0146327Y0210993D02*
X0146327Y0215497D01*
X0144075Y0215497D01*
X0143325Y0214746D01*
X0141723Y0210993D02*
X0138721Y0213996D01*
X0138721Y0210993D02*
X0141723Y0210993D01*
X0148679Y0211744D02*
X0148679Y0215497D01*
X0147929Y0215497D02*
X0149430Y0215497D01*
X0148679Y0211744D02*
X0149430Y0210993D01*
X0150180Y0210993D01*
X0150931Y0211744D01*
X0118138Y0243928D02*
X0117582Y0243928D01*
X0117582Y0240385D01*
X0114108Y0240385D01*
X0129682Y0263681D02*
X0128931Y0264432D01*
X0128931Y0265183D01*
X0129682Y0265933D01*
X0133435Y0265933D01*
X0133435Y0265183D02*
X0133435Y0266684D01*
X0133435Y0268285D02*
X0133435Y0270537D01*
X0132684Y0271288D01*
X0131183Y0271288D01*
X0130432Y0270537D01*
X0130432Y0268285D01*
X0128931Y0268285D02*
X0133435Y0268285D01*
X0131183Y0272889D02*
X0131183Y0275892D01*
X0128931Y0275141D02*
X0133435Y0275141D01*
X0131183Y0272889D01*
X0056490Y0208101D02*
X0046391Y0208101D01*
X0044816Y0240385D02*
X0054915Y0240385D01*
X0018694Y0208101D02*
X0015220Y0208101D01*
X0015220Y0204558D01*
X0010496Y0204558D01*
X0010496Y0229686D01*
X0015220Y0240385D02*
X0017120Y0240385D01*
X0015220Y0240385D02*
X0015220Y0243928D01*
X0014664Y0243928D01*
D13*
X0134881Y0244131D02*
X0134881Y0247201D01*
X0134881Y0248735D02*
X0134881Y0251037D01*
X0135648Y0251804D01*
X0138718Y0251804D01*
X0139485Y0251037D01*
X0139485Y0248735D01*
X0134881Y0248735D01*
X0137183Y0245666D02*
X0137183Y0244131D01*
X0139485Y0244131D02*
X0134881Y0244131D01*
X0134881Y0242597D02*
X0134881Y0239527D01*
X0139485Y0239527D01*
X0141881Y0238527D02*
X0141881Y0241597D01*
X0141881Y0243131D02*
X0141881Y0246201D01*
X0141881Y0247735D02*
X0141881Y0250037D01*
X0142648Y0250804D01*
X0145718Y0250804D01*
X0146485Y0250037D01*
X0146485Y0247735D01*
X0141881Y0247735D01*
X0139485Y0247201D02*
X0139485Y0244131D01*
X0141881Y0243131D02*
X0146485Y0243131D01*
X0146485Y0246201D01*
X0144183Y0244666D02*
X0144183Y0243131D01*
X0146485Y0238527D02*
X0141881Y0238527D01*
X0141881Y0252339D02*
X0144950Y0255408D01*
X0145718Y0255408D01*
X0146485Y0254641D01*
X0146485Y0253106D01*
X0145718Y0252339D01*
X0141881Y0252339D02*
X0141881Y0255408D01*
X0139485Y0254874D02*
X0134881Y0254874D01*
X0134881Y0256408D02*
X0134881Y0253339D01*
X0137950Y0253339D02*
X0139485Y0254874D01*
X0154555Y0256199D02*
X0158253Y0256199D01*
X0158197Y0256199D02*
X0163165Y0256199D01*
X0163237Y0256201D01*
X0163310Y0256206D01*
X0163382Y0256215D01*
X0163454Y0256228D01*
X0163524Y0256245D01*
X0163594Y0256265D01*
X0163663Y0256288D01*
X0163731Y0256315D01*
X0163797Y0256346D01*
X0163861Y0256379D01*
X0163924Y0256416D01*
X0163985Y0256456D01*
X0164043Y0256499D01*
X0164100Y0256545D01*
X0164154Y0256594D01*
X0164205Y0256645D01*
X0164254Y0256699D01*
X0164300Y0256756D01*
X0164343Y0256814D01*
X0164383Y0256875D01*
X0164420Y0256938D01*
X0164453Y0257002D01*
X0164484Y0257068D01*
X0164511Y0257136D01*
X0164534Y0257205D01*
X0164554Y0257275D01*
X0164571Y0257345D01*
X0164584Y0257417D01*
X0164593Y0257489D01*
X0164598Y0257562D01*
X0164600Y0257634D01*
X0164600Y0259732D01*
X0158198Y0260614D02*
X0154500Y0260614D01*
X0154500Y0260615D02*
X0154452Y0260613D01*
X0154404Y0260608D01*
X0154358Y0260598D01*
X0154312Y0260586D01*
X0154267Y0260569D01*
X0154223Y0260549D01*
X0154182Y0260526D01*
X0154142Y0260499D01*
X0154104Y0260470D01*
X0154069Y0260437D01*
X0154037Y0260402D01*
X0154007Y0260365D01*
X0153981Y0260325D01*
X0153958Y0260283D01*
X0153938Y0260240D01*
X0153921Y0260195D01*
X0153908Y0260149D01*
X0153899Y0260102D01*
X0153894Y0260055D01*
X0153892Y0260007D01*
X0153893Y0260007D02*
X0153893Y0260007D01*
X0153895Y0259958D01*
X0153900Y0259908D01*
X0153910Y0259860D01*
X0153922Y0259812D01*
X0153939Y0259765D01*
X0153959Y0259720D01*
X0153982Y0259676D01*
X0154008Y0259634D01*
X0154037Y0259594D01*
X0154070Y0259557D01*
X0154105Y0259522D01*
X0154142Y0259489D01*
X0154182Y0259460D01*
X0154224Y0259434D01*
X0154268Y0259411D01*
X0154313Y0259391D01*
X0154360Y0259374D01*
X0154408Y0259362D01*
X0154456Y0259352D01*
X0154506Y0259347D01*
X0154555Y0259345D01*
X0155162Y0259345D01*
X0155220Y0259343D01*
X0155277Y0259337D01*
X0155334Y0259328D01*
X0155391Y0259315D01*
X0155446Y0259298D01*
X0155500Y0259278D01*
X0155553Y0259254D01*
X0155604Y0259227D01*
X0155653Y0259196D01*
X0155700Y0259163D01*
X0155744Y0259126D01*
X0155786Y0259086D01*
X0155826Y0259044D01*
X0155863Y0259000D01*
X0155896Y0258953D01*
X0155927Y0258904D01*
X0155954Y0258853D01*
X0155978Y0258800D01*
X0155998Y0258746D01*
X0156015Y0258691D01*
X0156028Y0258634D01*
X0156037Y0258577D01*
X0156043Y0258520D01*
X0156045Y0258462D01*
X0156045Y0258351D01*
X0156043Y0258294D01*
X0156037Y0258236D01*
X0156028Y0258179D01*
X0156015Y0258123D01*
X0155998Y0258067D01*
X0155978Y0258013D01*
X0155954Y0257961D01*
X0155927Y0257910D01*
X0155896Y0257861D01*
X0155863Y0257814D01*
X0155826Y0257769D01*
X0155786Y0257727D01*
X0155744Y0257687D01*
X0155699Y0257650D01*
X0155652Y0257617D01*
X0155603Y0257586D01*
X0155552Y0257559D01*
X0155500Y0257535D01*
X0155446Y0257515D01*
X0155390Y0257498D01*
X0155334Y0257485D01*
X0155277Y0257476D01*
X0155219Y0257470D01*
X0155162Y0257468D01*
X0154500Y0257468D01*
X0154452Y0257466D01*
X0154405Y0257461D01*
X0154358Y0257451D01*
X0154312Y0257438D01*
X0154268Y0257422D01*
X0154224Y0257402D01*
X0154183Y0257379D01*
X0154143Y0257352D01*
X0154106Y0257323D01*
X0154071Y0257290D01*
X0154038Y0257255D01*
X0154009Y0257218D01*
X0153982Y0257178D01*
X0153959Y0257137D01*
X0153939Y0257093D01*
X0153923Y0257049D01*
X0153910Y0257003D01*
X0153900Y0256956D01*
X0153895Y0256909D01*
X0153893Y0256861D01*
X0153895Y0256812D01*
X0153900Y0256762D01*
X0153910Y0256714D01*
X0153922Y0256666D01*
X0153939Y0256619D01*
X0153959Y0256574D01*
X0153982Y0256530D01*
X0154008Y0256488D01*
X0154037Y0256448D01*
X0154070Y0256411D01*
X0154105Y0256376D01*
X0154142Y0256343D01*
X0154182Y0256314D01*
X0154224Y0256288D01*
X0154268Y0256265D01*
X0154313Y0256245D01*
X0154360Y0256228D01*
X0154408Y0256216D01*
X0154456Y0256206D01*
X0154506Y0256201D01*
X0154555Y0256199D01*
X0158197Y0256199D02*
X0158197Y0291247D01*
X0188167Y0291247D01*
X0188167Y0277007D01*
X0191865Y0277007D01*
X0191913Y0277009D01*
X0191960Y0277014D01*
X0192007Y0277023D01*
X0192053Y0277036D01*
X0192098Y0277053D01*
X0192141Y0277073D01*
X0192183Y0277096D01*
X0192222Y0277122D01*
X0192260Y0277152D01*
X0192295Y0277184D01*
X0192327Y0277219D01*
X0192357Y0277257D01*
X0192383Y0277297D01*
X0192407Y0277338D01*
X0192426Y0277382D01*
X0192443Y0277426D01*
X0192456Y0277472D01*
X0192465Y0277519D01*
X0192470Y0277567D01*
X0192472Y0277614D01*
X0192472Y0277615D01*
X0192472Y0277614D02*
X0192470Y0277663D01*
X0192465Y0277713D01*
X0192455Y0277761D01*
X0192443Y0277809D01*
X0192426Y0277856D01*
X0192406Y0277901D01*
X0192383Y0277945D01*
X0192357Y0277987D01*
X0192328Y0278027D01*
X0192295Y0278064D01*
X0192260Y0278099D01*
X0192223Y0278132D01*
X0192183Y0278161D01*
X0192141Y0278187D01*
X0192097Y0278210D01*
X0192052Y0278230D01*
X0192005Y0278247D01*
X0191957Y0278259D01*
X0191909Y0278269D01*
X0191859Y0278274D01*
X0191810Y0278276D01*
X0191810Y0278277D02*
X0191203Y0278277D01*
X0191145Y0278279D01*
X0191088Y0278284D01*
X0191031Y0278294D01*
X0190974Y0278307D01*
X0190919Y0278324D01*
X0190865Y0278344D01*
X0190812Y0278368D01*
X0190761Y0278395D01*
X0190712Y0278426D01*
X0190665Y0278459D01*
X0190621Y0278496D01*
X0190578Y0278535D01*
X0190539Y0278578D01*
X0190502Y0278622D01*
X0190469Y0278669D01*
X0190438Y0278718D01*
X0190411Y0278769D01*
X0190387Y0278822D01*
X0190367Y0278876D01*
X0190350Y0278931D01*
X0190337Y0278988D01*
X0190327Y0279045D01*
X0190322Y0279102D01*
X0190320Y0279160D01*
X0190320Y0279270D01*
X0190322Y0279328D01*
X0190328Y0279386D01*
X0190337Y0279443D01*
X0190350Y0279499D01*
X0190367Y0279554D01*
X0190387Y0279608D01*
X0190411Y0279661D01*
X0190438Y0279712D01*
X0190469Y0279761D01*
X0190503Y0279808D01*
X0190539Y0279852D01*
X0190579Y0279894D01*
X0190621Y0279934D01*
X0190665Y0279970D01*
X0190712Y0280004D01*
X0190761Y0280035D01*
X0190812Y0280062D01*
X0190865Y0280086D01*
X0190919Y0280106D01*
X0190974Y0280123D01*
X0191030Y0280136D01*
X0191087Y0280145D01*
X0191145Y0280151D01*
X0191203Y0280153D01*
X0191865Y0280153D01*
X0191913Y0280155D01*
X0191960Y0280160D01*
X0192007Y0280170D01*
X0192053Y0280183D01*
X0192097Y0280199D01*
X0192141Y0280219D01*
X0192182Y0280242D01*
X0192222Y0280269D01*
X0192259Y0280298D01*
X0192294Y0280331D01*
X0192327Y0280366D01*
X0192356Y0280403D01*
X0192383Y0280443D01*
X0192406Y0280484D01*
X0192426Y0280528D01*
X0192442Y0280572D01*
X0192455Y0280618D01*
X0192465Y0280665D01*
X0192470Y0280712D01*
X0192472Y0280760D01*
X0192470Y0280809D01*
X0192465Y0280859D01*
X0192455Y0280907D01*
X0192443Y0280955D01*
X0192426Y0281002D01*
X0192406Y0281047D01*
X0192383Y0281091D01*
X0192357Y0281133D01*
X0192328Y0281173D01*
X0192295Y0281210D01*
X0192260Y0281245D01*
X0192223Y0281278D01*
X0192183Y0281307D01*
X0192141Y0281333D01*
X0192097Y0281356D01*
X0192052Y0281376D01*
X0192005Y0281393D01*
X0191957Y0281405D01*
X0191909Y0281415D01*
X0191859Y0281420D01*
X0191810Y0281422D01*
X0191810Y0281423D02*
X0188388Y0281423D01*
X0187946Y0286555D02*
X0181875Y0286555D01*
X0181876Y0286555D02*
X0181803Y0286553D01*
X0181731Y0286547D01*
X0181660Y0286538D01*
X0181589Y0286525D01*
X0181519Y0286508D01*
X0181449Y0286487D01*
X0181381Y0286463D01*
X0181315Y0286436D01*
X0181249Y0286405D01*
X0181186Y0286370D01*
X0181124Y0286332D01*
X0181065Y0286291D01*
X0181007Y0286247D01*
X0180953Y0286201D01*
X0180900Y0286151D01*
X0180850Y0286098D01*
X0180804Y0286044D01*
X0180760Y0285986D01*
X0180719Y0285927D01*
X0180681Y0285865D01*
X0180646Y0285802D01*
X0180615Y0285736D01*
X0180588Y0285670D01*
X0180564Y0285602D01*
X0180543Y0285532D01*
X0180526Y0285462D01*
X0180513Y0285391D01*
X0180504Y0285320D01*
X0180498Y0285248D01*
X0180496Y0285175D01*
X0180495Y0285175D02*
X0180495Y0285010D01*
X0179833Y0270549D01*
X0179834Y0270549D02*
X0179833Y0270501D01*
X0179837Y0270454D01*
X0179845Y0270407D01*
X0179856Y0270360D01*
X0179872Y0270315D01*
X0179891Y0270271D01*
X0179913Y0270229D01*
X0179939Y0270188D01*
X0179969Y0270150D01*
X0180001Y0270115D01*
X0180036Y0270082D01*
X0180073Y0270053D01*
X0180113Y0270026D01*
X0180155Y0270003D01*
X0180199Y0269984D01*
X0180244Y0269968D01*
X0180291Y0269956D01*
X0180338Y0269948D01*
X0180385Y0269944D01*
X0180433Y0269943D01*
X0180481Y0269947D01*
X0180528Y0269955D01*
X0180575Y0269966D01*
X0180620Y0269981D01*
X0180664Y0270000D01*
X0180706Y0270023D01*
X0180747Y0270049D01*
X0180785Y0270078D01*
X0180820Y0270110D01*
X0180853Y0270145D01*
X0180883Y0270182D01*
X0180909Y0270222D01*
X0180932Y0270264D01*
X0180952Y0270308D01*
X0180968Y0270353D01*
X0180980Y0270399D01*
X0180988Y0270447D01*
X0180992Y0270494D01*
X0181875Y0283851D01*
X0181881Y0283912D01*
X0181891Y0283973D01*
X0181905Y0284033D01*
X0181923Y0284093D01*
X0181944Y0284151D01*
X0181969Y0284207D01*
X0181998Y0284262D01*
X0182030Y0284315D01*
X0182065Y0284365D01*
X0182103Y0284414D01*
X0182145Y0284459D01*
X0182189Y0284502D01*
X0182236Y0284542D01*
X0182286Y0284579D01*
X0182337Y0284613D01*
X0182391Y0284644D01*
X0182447Y0284670D01*
X0182504Y0284694D01*
X0182563Y0284713D01*
X0182622Y0284729D01*
X0182683Y0284741D01*
X0182744Y0284749D01*
X0182806Y0284753D01*
X0182868Y0284754D01*
X0182929Y0284750D01*
X0182991Y0284742D01*
X0183051Y0284731D01*
X0183111Y0284715D01*
X0183170Y0284696D01*
X0183227Y0284673D01*
X0183283Y0284647D01*
X0183337Y0284617D01*
X0183389Y0284583D01*
X0183439Y0284547D01*
X0183486Y0284507D01*
X0183530Y0284464D01*
X0183572Y0284419D01*
X0183611Y0284371D01*
X0183647Y0284320D01*
X0183679Y0284268D01*
X0183708Y0284213D01*
X0183734Y0284157D01*
X0183755Y0284099D01*
X0183773Y0284040D01*
X0183788Y0283980D01*
X0183798Y0283919D01*
X0183804Y0283857D01*
X0183807Y0283796D01*
X0183807Y0283795D02*
X0184690Y0270384D01*
X0184691Y0270384D02*
X0184695Y0270343D01*
X0184703Y0270303D01*
X0184715Y0270264D01*
X0184729Y0270226D01*
X0184747Y0270189D01*
X0184768Y0270154D01*
X0184792Y0270121D01*
X0184819Y0270090D01*
X0184849Y0270062D01*
X0184880Y0270036D01*
X0184914Y0270013D01*
X0184950Y0269993D01*
X0184987Y0269976D01*
X0185025Y0269962D01*
X0185065Y0269952D01*
X0185105Y0269946D01*
X0185146Y0269942D01*
X0185187Y0269943D01*
X0185187Y0269942D02*
X0187946Y0269942D01*
X0190381Y0270047D02*
X0190381Y0273116D01*
X0190381Y0270047D02*
X0193450Y0273116D01*
X0194218Y0273116D01*
X0194985Y0272349D01*
X0194985Y0270814D01*
X0194218Y0270047D01*
X0194985Y0268512D02*
X0190381Y0265443D01*
X0190381Y0268512D02*
X0194985Y0265443D01*
X0191810Y0260615D02*
X0188388Y0260615D01*
X0190320Y0258462D02*
X0190320Y0258352D01*
X0190322Y0258294D01*
X0190327Y0258237D01*
X0190337Y0258180D01*
X0190350Y0258123D01*
X0190367Y0258068D01*
X0190387Y0258014D01*
X0190411Y0257961D01*
X0190438Y0257910D01*
X0190468Y0257861D01*
X0190502Y0257814D01*
X0190539Y0257770D01*
X0190578Y0257727D01*
X0190621Y0257688D01*
X0190665Y0257651D01*
X0190712Y0257617D01*
X0190761Y0257587D01*
X0190812Y0257560D01*
X0190865Y0257536D01*
X0190919Y0257516D01*
X0190974Y0257499D01*
X0191031Y0257486D01*
X0191088Y0257476D01*
X0191145Y0257471D01*
X0191203Y0257469D01*
X0191810Y0257469D01*
X0191810Y0257468D02*
X0191859Y0257466D01*
X0191909Y0257461D01*
X0191957Y0257451D01*
X0192005Y0257439D01*
X0192052Y0257422D01*
X0192097Y0257402D01*
X0192141Y0257379D01*
X0192183Y0257353D01*
X0192223Y0257324D01*
X0192260Y0257291D01*
X0192295Y0257256D01*
X0192328Y0257219D01*
X0192357Y0257179D01*
X0192383Y0257137D01*
X0192406Y0257093D01*
X0192426Y0257048D01*
X0192443Y0257001D01*
X0192455Y0256953D01*
X0192465Y0256905D01*
X0192470Y0256855D01*
X0192472Y0256806D01*
X0192472Y0256807D01*
X0192472Y0256806D02*
X0192470Y0256759D01*
X0192465Y0256711D01*
X0192456Y0256664D01*
X0192443Y0256618D01*
X0192426Y0256574D01*
X0192407Y0256530D01*
X0192383Y0256489D01*
X0192357Y0256449D01*
X0192327Y0256411D01*
X0192295Y0256376D01*
X0192260Y0256344D01*
X0192222Y0256314D01*
X0192183Y0256288D01*
X0192141Y0256265D01*
X0192098Y0256245D01*
X0192053Y0256228D01*
X0192007Y0256215D01*
X0191960Y0256206D01*
X0191913Y0256201D01*
X0191865Y0256199D01*
X0188167Y0256199D01*
X0188167Y0277007D01*
X0177460Y0270218D02*
X0178287Y0285948D01*
X0178287Y0285949D02*
X0178283Y0285995D01*
X0178275Y0286041D01*
X0178263Y0286086D01*
X0178248Y0286130D01*
X0178228Y0286173D01*
X0178205Y0286214D01*
X0178179Y0286252D01*
X0178150Y0286289D01*
X0178117Y0286322D01*
X0178082Y0286353D01*
X0178044Y0286381D01*
X0178005Y0286405D01*
X0177963Y0286426D01*
X0177919Y0286444D01*
X0177875Y0286457D01*
X0177829Y0286467D01*
X0177783Y0286473D01*
X0177736Y0286475D01*
X0177689Y0286473D01*
X0177643Y0286467D01*
X0177597Y0286457D01*
X0177553Y0286444D01*
X0177509Y0286426D01*
X0177467Y0286405D01*
X0177428Y0286381D01*
X0177390Y0286353D01*
X0177355Y0286322D01*
X0177322Y0286289D01*
X0177293Y0286252D01*
X0177267Y0286214D01*
X0177244Y0286173D01*
X0177224Y0286130D01*
X0177209Y0286086D01*
X0177197Y0286041D01*
X0177189Y0285995D01*
X0177185Y0285949D01*
X0177184Y0285948D02*
X0176632Y0273971D01*
X0176632Y0273695D01*
X0176630Y0273616D01*
X0176625Y0273538D01*
X0176615Y0273459D01*
X0176602Y0273382D01*
X0176585Y0273305D01*
X0176565Y0273228D01*
X0176541Y0273153D01*
X0176513Y0273080D01*
X0176482Y0273007D01*
X0176448Y0272936D01*
X0176410Y0272867D01*
X0176369Y0272800D01*
X0176325Y0272734D01*
X0176278Y0272671D01*
X0176228Y0272611D01*
X0176175Y0272552D01*
X0176119Y0272496D01*
X0176060Y0272443D01*
X0176000Y0272393D01*
X0175937Y0272346D01*
X0175871Y0272302D01*
X0175804Y0272261D01*
X0175735Y0272223D01*
X0175664Y0272189D01*
X0175591Y0272158D01*
X0175518Y0272130D01*
X0175443Y0272106D01*
X0175366Y0272086D01*
X0175289Y0272069D01*
X0175212Y0272056D01*
X0175133Y0272046D01*
X0175055Y0272041D01*
X0174976Y0272039D01*
X0171499Y0272039D01*
X0171499Y0272040D02*
X0171418Y0272042D01*
X0171336Y0272048D01*
X0171255Y0272057D01*
X0171175Y0272071D01*
X0171096Y0272088D01*
X0171017Y0272109D01*
X0170939Y0272134D01*
X0170863Y0272163D01*
X0170788Y0272195D01*
X0170715Y0272230D01*
X0170644Y0272269D01*
X0170574Y0272312D01*
X0170507Y0272357D01*
X0170441Y0272406D01*
X0170379Y0272458D01*
X0170318Y0272513D01*
X0170261Y0272570D01*
X0170206Y0272631D01*
X0170154Y0272693D01*
X0170105Y0272759D01*
X0170060Y0272826D01*
X0170017Y0272896D01*
X0169978Y0272967D01*
X0169943Y0273040D01*
X0169911Y0273115D01*
X0169882Y0273191D01*
X0169857Y0273269D01*
X0169836Y0273348D01*
X0169819Y0273427D01*
X0169805Y0273507D01*
X0169796Y0273588D01*
X0169790Y0273670D01*
X0169788Y0273751D01*
X0169126Y0286003D01*
X0169125Y0286004D02*
X0169121Y0286048D01*
X0169113Y0286092D01*
X0169101Y0286135D01*
X0169086Y0286177D01*
X0169067Y0286217D01*
X0169045Y0286256D01*
X0169020Y0286292D01*
X0168992Y0286327D01*
X0168960Y0286359D01*
X0168927Y0286388D01*
X0168891Y0286414D01*
X0168852Y0286437D01*
X0168812Y0286457D01*
X0168771Y0286473D01*
X0168728Y0286485D01*
X0168685Y0286494D01*
X0168640Y0286500D01*
X0168596Y0286501D01*
X0168551Y0286499D01*
X0168507Y0286493D01*
X0168464Y0286483D01*
X0168421Y0286469D01*
X0168380Y0286452D01*
X0168340Y0286432D01*
X0168303Y0286408D01*
X0168267Y0286381D01*
X0168234Y0286351D01*
X0168203Y0286319D01*
X0168176Y0286284D01*
X0168151Y0286247D01*
X0168130Y0286208D01*
X0168112Y0286167D01*
X0168097Y0286125D01*
X0168087Y0286081D01*
X0168080Y0286037D01*
X0168076Y0285993D01*
X0168077Y0285948D01*
X0168905Y0270108D01*
X0168907Y0270036D01*
X0168913Y0269964D01*
X0168923Y0269893D01*
X0168936Y0269823D01*
X0168953Y0269753D01*
X0168974Y0269685D01*
X0168999Y0269617D01*
X0169028Y0269551D01*
X0169059Y0269487D01*
X0169095Y0269425D01*
X0169133Y0269364D01*
X0169175Y0269306D01*
X0169220Y0269250D01*
X0169268Y0269197D01*
X0169319Y0269146D01*
X0169372Y0269098D01*
X0169428Y0269053D01*
X0169486Y0269011D01*
X0169547Y0268973D01*
X0169609Y0268937D01*
X0169673Y0268906D01*
X0169739Y0268877D01*
X0169807Y0268852D01*
X0169875Y0268831D01*
X0169945Y0268814D01*
X0170015Y0268801D01*
X0170086Y0268791D01*
X0170158Y0268785D01*
X0170230Y0268783D01*
X0176025Y0268783D01*
X0176100Y0268785D01*
X0176175Y0268791D01*
X0176249Y0268801D01*
X0176323Y0268814D01*
X0176396Y0268832D01*
X0176468Y0268853D01*
X0176539Y0268878D01*
X0176609Y0268907D01*
X0176676Y0268939D01*
X0176743Y0268975D01*
X0176807Y0269015D01*
X0176868Y0269057D01*
X0176928Y0269103D01*
X0176985Y0269152D01*
X0177040Y0269203D01*
X0177091Y0269258D01*
X0177140Y0269315D01*
X0177186Y0269375D01*
X0177228Y0269436D01*
X0177268Y0269501D01*
X0177304Y0269567D01*
X0177336Y0269634D01*
X0177365Y0269704D01*
X0177390Y0269775D01*
X0177411Y0269847D01*
X0177429Y0269920D01*
X0177442Y0269994D01*
X0177452Y0270068D01*
X0177458Y0270143D01*
X0177460Y0270218D01*
X0181765Y0259897D02*
X0181765Y0257579D01*
X0181764Y0257579D02*
X0181766Y0257507D01*
X0181772Y0257435D01*
X0181781Y0257363D01*
X0181794Y0257292D01*
X0181811Y0257222D01*
X0181831Y0257153D01*
X0181856Y0257085D01*
X0181883Y0257018D01*
X0181914Y0256953D01*
X0181949Y0256889D01*
X0181987Y0256827D01*
X0182028Y0256768D01*
X0182072Y0256711D01*
X0182118Y0256656D01*
X0182168Y0256603D01*
X0182221Y0256553D01*
X0182276Y0256507D01*
X0182333Y0256463D01*
X0182392Y0256422D01*
X0182454Y0256384D01*
X0182518Y0256349D01*
X0182583Y0256318D01*
X0182650Y0256291D01*
X0182718Y0256266D01*
X0182787Y0256246D01*
X0182857Y0256229D01*
X0182928Y0256216D01*
X0183000Y0256207D01*
X0183072Y0256201D01*
X0183144Y0256199D01*
X0188167Y0256199D01*
X0190320Y0258462D02*
X0190322Y0258520D01*
X0190328Y0258577D01*
X0190337Y0258634D01*
X0190350Y0258691D01*
X0190367Y0258746D01*
X0190387Y0258800D01*
X0190411Y0258853D01*
X0190438Y0258904D01*
X0190469Y0258953D01*
X0190502Y0259000D01*
X0190539Y0259044D01*
X0190579Y0259086D01*
X0190621Y0259126D01*
X0190665Y0259163D01*
X0190712Y0259196D01*
X0190762Y0259227D01*
X0190812Y0259254D01*
X0190865Y0259278D01*
X0190919Y0259298D01*
X0190974Y0259315D01*
X0191031Y0259328D01*
X0191088Y0259337D01*
X0191145Y0259343D01*
X0191203Y0259345D01*
X0191865Y0259345D01*
X0191913Y0259347D01*
X0191960Y0259352D01*
X0192007Y0259362D01*
X0192053Y0259375D01*
X0192097Y0259391D01*
X0192141Y0259411D01*
X0192182Y0259434D01*
X0192222Y0259461D01*
X0192259Y0259490D01*
X0192294Y0259523D01*
X0192327Y0259558D01*
X0192356Y0259595D01*
X0192383Y0259635D01*
X0192406Y0259676D01*
X0192426Y0259720D01*
X0192442Y0259764D01*
X0192455Y0259810D01*
X0192465Y0259857D01*
X0192470Y0259904D01*
X0192472Y0259952D01*
X0192470Y0260001D01*
X0192465Y0260051D01*
X0192455Y0260099D01*
X0192443Y0260147D01*
X0192426Y0260194D01*
X0192406Y0260239D01*
X0192383Y0260283D01*
X0192357Y0260325D01*
X0192328Y0260365D01*
X0192295Y0260402D01*
X0192260Y0260437D01*
X0192223Y0260470D01*
X0192183Y0260499D01*
X0192141Y0260525D01*
X0192097Y0260548D01*
X0192052Y0260568D01*
X0192005Y0260585D01*
X0191957Y0260597D01*
X0191909Y0260607D01*
X0191859Y0260612D01*
X0191810Y0260614D01*
X0175331Y0249149D02*
X0169031Y0249149D01*
X0169031Y0237338D02*
X0175331Y0237338D01*
X0166531Y0270549D02*
X0165869Y0285010D01*
X0165869Y0285175D01*
X0165870Y0285176D02*
X0165868Y0285248D01*
X0165862Y0285320D01*
X0165853Y0285392D01*
X0165840Y0285463D01*
X0165823Y0285533D01*
X0165803Y0285602D01*
X0165778Y0285670D01*
X0165751Y0285737D01*
X0165720Y0285802D01*
X0165685Y0285866D01*
X0165647Y0285928D01*
X0165606Y0285987D01*
X0165562Y0286044D01*
X0165516Y0286099D01*
X0165466Y0286152D01*
X0165413Y0286202D01*
X0165358Y0286248D01*
X0165301Y0286292D01*
X0165242Y0286333D01*
X0165180Y0286371D01*
X0165116Y0286406D01*
X0165051Y0286437D01*
X0164984Y0286464D01*
X0164916Y0286489D01*
X0164847Y0286509D01*
X0164777Y0286526D01*
X0164706Y0286539D01*
X0164634Y0286548D01*
X0164562Y0286554D01*
X0164490Y0286556D01*
X0164489Y0286555D02*
X0158418Y0286555D01*
X0158198Y0281422D02*
X0154500Y0281422D01*
X0154452Y0281420D01*
X0154405Y0281415D01*
X0154358Y0281406D01*
X0154312Y0281393D01*
X0154267Y0281376D01*
X0154224Y0281356D01*
X0154182Y0281333D01*
X0154143Y0281307D01*
X0154105Y0281277D01*
X0154070Y0281245D01*
X0154038Y0281210D01*
X0154008Y0281172D01*
X0153982Y0281132D01*
X0153958Y0281091D01*
X0153939Y0281047D01*
X0153922Y0281003D01*
X0153909Y0280957D01*
X0153900Y0280910D01*
X0153895Y0280862D01*
X0153893Y0280815D01*
X0153893Y0280815D01*
X0153895Y0280766D01*
X0153900Y0280716D01*
X0153910Y0280668D01*
X0153922Y0280620D01*
X0153939Y0280573D01*
X0153959Y0280528D01*
X0153982Y0280484D01*
X0154008Y0280442D01*
X0154037Y0280402D01*
X0154070Y0280365D01*
X0154105Y0280330D01*
X0154142Y0280297D01*
X0154182Y0280268D01*
X0154224Y0280242D01*
X0154268Y0280219D01*
X0154313Y0280199D01*
X0154360Y0280182D01*
X0154408Y0280170D01*
X0154456Y0280160D01*
X0154506Y0280155D01*
X0154555Y0280153D01*
X0155162Y0280153D01*
X0155219Y0280151D01*
X0155277Y0280145D01*
X0155334Y0280136D01*
X0155390Y0280123D01*
X0155446Y0280106D01*
X0155500Y0280086D01*
X0155552Y0280062D01*
X0155603Y0280035D01*
X0155652Y0280004D01*
X0155699Y0279971D01*
X0155744Y0279934D01*
X0155786Y0279894D01*
X0155826Y0279852D01*
X0155863Y0279807D01*
X0155896Y0279760D01*
X0155927Y0279711D01*
X0155954Y0279660D01*
X0155978Y0279608D01*
X0155998Y0279554D01*
X0156015Y0279498D01*
X0156028Y0279442D01*
X0156037Y0279385D01*
X0156043Y0279327D01*
X0156045Y0279270D01*
X0156045Y0279159D01*
X0156043Y0279101D01*
X0156038Y0279044D01*
X0156028Y0278987D01*
X0156015Y0278930D01*
X0155998Y0278875D01*
X0155978Y0278821D01*
X0155954Y0278768D01*
X0155927Y0278717D01*
X0155896Y0278668D01*
X0155863Y0278621D01*
X0155826Y0278577D01*
X0155787Y0278534D01*
X0155744Y0278495D01*
X0155700Y0278458D01*
X0155653Y0278425D01*
X0155604Y0278394D01*
X0155553Y0278367D01*
X0155500Y0278343D01*
X0155446Y0278323D01*
X0155391Y0278306D01*
X0155334Y0278293D01*
X0155277Y0278283D01*
X0155220Y0278278D01*
X0155162Y0278276D01*
X0154500Y0278276D01*
X0154452Y0278274D01*
X0154405Y0278269D01*
X0154358Y0278259D01*
X0154312Y0278246D01*
X0154268Y0278230D01*
X0154224Y0278210D01*
X0154183Y0278187D01*
X0154143Y0278160D01*
X0154106Y0278131D01*
X0154071Y0278098D01*
X0154038Y0278063D01*
X0154009Y0278026D01*
X0153982Y0277986D01*
X0153959Y0277945D01*
X0153939Y0277901D01*
X0153923Y0277857D01*
X0153910Y0277811D01*
X0153900Y0277764D01*
X0153895Y0277717D01*
X0153893Y0277669D01*
X0153895Y0277620D01*
X0153900Y0277570D01*
X0153910Y0277522D01*
X0153922Y0277474D01*
X0153939Y0277427D01*
X0153959Y0277382D01*
X0153982Y0277338D01*
X0154008Y0277296D01*
X0154037Y0277256D01*
X0154070Y0277219D01*
X0154105Y0277184D01*
X0154142Y0277151D01*
X0154182Y0277122D01*
X0154224Y0277096D01*
X0154268Y0277073D01*
X0154313Y0277053D01*
X0154360Y0277036D01*
X0154408Y0277024D01*
X0154456Y0277014D01*
X0154506Y0277009D01*
X0154555Y0277007D01*
X0157977Y0277007D01*
X0158418Y0269942D02*
X0161178Y0269942D01*
X0161178Y0269943D02*
X0161219Y0269942D01*
X0161260Y0269946D01*
X0161300Y0269952D01*
X0161340Y0269962D01*
X0161378Y0269976D01*
X0161415Y0269993D01*
X0161451Y0270013D01*
X0161485Y0270036D01*
X0161516Y0270062D01*
X0161546Y0270090D01*
X0161573Y0270121D01*
X0161597Y0270154D01*
X0161618Y0270189D01*
X0161636Y0270226D01*
X0161650Y0270264D01*
X0161662Y0270303D01*
X0161670Y0270343D01*
X0161674Y0270384D01*
X0162557Y0283796D01*
X0162560Y0283857D01*
X0162566Y0283919D01*
X0162576Y0283980D01*
X0162591Y0284040D01*
X0162609Y0284099D01*
X0162630Y0284157D01*
X0162656Y0284213D01*
X0162685Y0284268D01*
X0162717Y0284320D01*
X0162753Y0284371D01*
X0162792Y0284419D01*
X0162834Y0284464D01*
X0162878Y0284507D01*
X0162925Y0284547D01*
X0162975Y0284583D01*
X0163027Y0284617D01*
X0163081Y0284647D01*
X0163137Y0284673D01*
X0163194Y0284696D01*
X0163253Y0284715D01*
X0163313Y0284731D01*
X0163373Y0284742D01*
X0163435Y0284750D01*
X0163496Y0284754D01*
X0163558Y0284753D01*
X0163620Y0284749D01*
X0163681Y0284741D01*
X0163742Y0284729D01*
X0163801Y0284713D01*
X0163860Y0284694D01*
X0163917Y0284670D01*
X0163973Y0284644D01*
X0164027Y0284613D01*
X0164078Y0284579D01*
X0164128Y0284542D01*
X0164175Y0284502D01*
X0164219Y0284459D01*
X0164261Y0284414D01*
X0164299Y0284365D01*
X0164334Y0284315D01*
X0164366Y0284262D01*
X0164395Y0284207D01*
X0164420Y0284151D01*
X0164441Y0284093D01*
X0164459Y0284033D01*
X0164473Y0283973D01*
X0164483Y0283912D01*
X0164489Y0283851D01*
X0165372Y0270494D01*
X0165373Y0270494D02*
X0165377Y0270447D01*
X0165385Y0270399D01*
X0165397Y0270353D01*
X0165413Y0270308D01*
X0165433Y0270264D01*
X0165456Y0270222D01*
X0165482Y0270182D01*
X0165512Y0270145D01*
X0165545Y0270110D01*
X0165580Y0270078D01*
X0165618Y0270049D01*
X0165659Y0270023D01*
X0165701Y0270000D01*
X0165745Y0269981D01*
X0165790Y0269966D01*
X0165837Y0269955D01*
X0165884Y0269947D01*
X0165932Y0269943D01*
X0165980Y0269944D01*
X0166027Y0269948D01*
X0166074Y0269956D01*
X0166121Y0269968D01*
X0166166Y0269984D01*
X0166210Y0270003D01*
X0166252Y0270026D01*
X0166292Y0270053D01*
X0166329Y0270082D01*
X0166364Y0270115D01*
X0166396Y0270150D01*
X0166426Y0270188D01*
X0166452Y0270229D01*
X0166474Y0270271D01*
X0166493Y0270315D01*
X0166509Y0270360D01*
X0166520Y0270407D01*
X0166528Y0270454D01*
X0166532Y0270501D01*
X0166531Y0270549D01*
X0165933Y0188385D02*
X0153039Y0188385D01*
X0153039Y0159251D01*
X0156189Y0156101D01*
X0165737Y0157085D02*
X0165366Y0157174D01*
X0164998Y0157272D01*
X0164632Y0157379D01*
X0164270Y0157494D01*
X0163910Y0157619D01*
X0163553Y0157752D01*
X0163199Y0157894D01*
X0162850Y0158045D01*
X0162504Y0158204D01*
X0162162Y0158372D01*
X0161824Y0158548D01*
X0161490Y0158732D01*
X0161162Y0158924D01*
X0160838Y0159125D01*
X0160519Y0159333D01*
X0160205Y0159549D01*
X0159896Y0159772D01*
X0159594Y0160003D01*
X0159297Y0160242D01*
X0159005Y0160487D01*
X0158720Y0160740D01*
X0158442Y0161000D01*
X0158169Y0161266D01*
X0157904Y0161539D01*
X0157645Y0161818D01*
X0157393Y0162104D01*
X0157148Y0162395D01*
X0156910Y0162693D01*
X0156680Y0162996D01*
X0156457Y0163305D01*
X0156242Y0163620D01*
X0156034Y0163939D01*
X0155835Y0164263D01*
X0155643Y0164593D01*
X0155460Y0164926D01*
X0155285Y0165265D01*
X0155118Y0165607D01*
X0154959Y0165953D01*
X0154810Y0166304D01*
X0154668Y0166657D01*
X0154536Y0167014D01*
X0154412Y0167375D01*
X0154297Y0167738D01*
X0154191Y0168104D01*
X0154094Y0168472D01*
X0154007Y0168843D01*
X0153928Y0169215D01*
X0153858Y0169590D01*
X0153798Y0169966D01*
X0153747Y0170343D01*
X0153705Y0170722D01*
X0153672Y0171101D01*
X0153649Y0171482D01*
X0153635Y0171862D01*
X0153630Y0172243D01*
X0153635Y0172624D01*
X0153649Y0173004D01*
X0153672Y0173385D01*
X0153705Y0173764D01*
X0153747Y0174143D01*
X0153798Y0174520D01*
X0153858Y0174896D01*
X0153928Y0175271D01*
X0154007Y0175643D01*
X0154094Y0176014D01*
X0154191Y0176382D01*
X0154297Y0176748D01*
X0154412Y0177111D01*
X0154536Y0177472D01*
X0154668Y0177829D01*
X0154810Y0178182D01*
X0154959Y0178533D01*
X0155118Y0178879D01*
X0155285Y0179221D01*
X0155460Y0179560D01*
X0155643Y0179893D01*
X0155835Y0180223D01*
X0156034Y0180547D01*
X0156242Y0180866D01*
X0156457Y0181181D01*
X0156680Y0181490D01*
X0156910Y0181793D01*
X0157148Y0182091D01*
X0157393Y0182382D01*
X0157645Y0182668D01*
X0157904Y0182947D01*
X0158169Y0183220D01*
X0158442Y0183486D01*
X0158720Y0183746D01*
X0159005Y0183999D01*
X0159297Y0184244D01*
X0159594Y0184483D01*
X0159896Y0184714D01*
X0160205Y0184937D01*
X0160519Y0185153D01*
X0160838Y0185361D01*
X0161162Y0185562D01*
X0161490Y0185754D01*
X0161824Y0185938D01*
X0162162Y0186114D01*
X0162504Y0186282D01*
X0162850Y0186441D01*
X0163199Y0186592D01*
X0163553Y0186734D01*
X0163910Y0186867D01*
X0164270Y0186992D01*
X0164632Y0187107D01*
X0164998Y0187214D01*
X0165366Y0187312D01*
X0165737Y0187401D01*
X0172528Y0188385D02*
X0185323Y0188385D01*
X0185323Y0159251D01*
X0182173Y0156101D01*
X0172626Y0157085D02*
X0172997Y0157174D01*
X0173365Y0157272D01*
X0173731Y0157379D01*
X0174093Y0157494D01*
X0174453Y0157619D01*
X0174810Y0157752D01*
X0175164Y0157894D01*
X0175513Y0158045D01*
X0175859Y0158204D01*
X0176201Y0158372D01*
X0176539Y0158548D01*
X0176873Y0158732D01*
X0177201Y0158924D01*
X0177525Y0159125D01*
X0177844Y0159333D01*
X0178158Y0159549D01*
X0178467Y0159772D01*
X0178769Y0160003D01*
X0179066Y0160242D01*
X0179358Y0160487D01*
X0179643Y0160740D01*
X0179921Y0161000D01*
X0180194Y0161266D01*
X0180459Y0161539D01*
X0180718Y0161818D01*
X0180970Y0162104D01*
X0181215Y0162395D01*
X0181453Y0162693D01*
X0181683Y0162996D01*
X0181906Y0163305D01*
X0182121Y0163620D01*
X0182329Y0163939D01*
X0182528Y0164263D01*
X0182720Y0164593D01*
X0182903Y0164926D01*
X0183078Y0165265D01*
X0183245Y0165607D01*
X0183404Y0165953D01*
X0183553Y0166304D01*
X0183695Y0166657D01*
X0183827Y0167014D01*
X0183951Y0167375D01*
X0184066Y0167738D01*
X0184172Y0168104D01*
X0184269Y0168472D01*
X0184356Y0168843D01*
X0184435Y0169215D01*
X0184505Y0169590D01*
X0184565Y0169966D01*
X0184616Y0170343D01*
X0184658Y0170722D01*
X0184691Y0171101D01*
X0184714Y0171482D01*
X0184728Y0171862D01*
X0184733Y0172243D01*
X0184728Y0172624D01*
X0184714Y0173004D01*
X0184691Y0173385D01*
X0184658Y0173764D01*
X0184616Y0174143D01*
X0184565Y0174520D01*
X0184505Y0174896D01*
X0184435Y0175271D01*
X0184356Y0175643D01*
X0184269Y0176014D01*
X0184172Y0176382D01*
X0184066Y0176748D01*
X0183951Y0177111D01*
X0183827Y0177472D01*
X0183695Y0177829D01*
X0183553Y0178182D01*
X0183404Y0178533D01*
X0183245Y0178879D01*
X0183078Y0179221D01*
X0182903Y0179560D01*
X0182720Y0179893D01*
X0182528Y0180223D01*
X0182329Y0180547D01*
X0182121Y0180866D01*
X0181906Y0181181D01*
X0181683Y0181490D01*
X0181453Y0181793D01*
X0181215Y0182091D01*
X0180970Y0182382D01*
X0180718Y0182668D01*
X0180459Y0182947D01*
X0180194Y0183220D01*
X0179921Y0183486D01*
X0179643Y0183746D01*
X0179358Y0183999D01*
X0179066Y0184244D01*
X0178769Y0184483D01*
X0178467Y0184714D01*
X0178158Y0184937D01*
X0177844Y0185153D01*
X0177525Y0185361D01*
X0177201Y0185562D01*
X0176873Y0185754D01*
X0176539Y0185938D01*
X0176201Y0186114D01*
X0175859Y0186282D01*
X0175513Y0186441D01*
X0175164Y0186592D01*
X0174810Y0186734D01*
X0174453Y0186867D01*
X0174093Y0186992D01*
X0173731Y0187107D01*
X0173365Y0187214D01*
X0172997Y0187312D01*
X0172626Y0187401D01*
X0183381Y0081616D02*
X0183381Y0078547D01*
X0186450Y0081616D01*
X0187218Y0081616D01*
X0187985Y0080849D01*
X0187985Y0079314D01*
X0187218Y0078547D01*
X0187985Y0077012D02*
X0184148Y0077012D01*
X0183381Y0076245D01*
X0183381Y0074710D01*
X0184148Y0073943D01*
X0187985Y0073943D01*
X0123953Y0039380D02*
X0123953Y0010383D01*
X0008864Y0010383D01*
X0008864Y0039380D01*
X0027966Y0025909D02*
X0031065Y0022810D01*
X0102100Y0022810D01*
X0104677Y0025387D01*
D14*
X0136705Y0276652D03*
X0139657Y0276652D03*
X0142705Y0276652D03*
X0145657Y0276652D03*
D15*
X0144181Y0276652D03*
X0138181Y0276652D03*
D16*
X0141681Y0269993D02*
X0141681Y0258493D01*
X0146681Y0258493D01*
X0146681Y0269993D01*
X0141681Y0269993D01*
X0184681Y0251993D02*
X0184681Y0240493D01*
X0189681Y0240493D01*
X0194681Y0240493D01*
X0194681Y0251993D01*
X0189681Y0251993D01*
X0189681Y0240493D01*
X0189681Y0251993D01*
X0184681Y0251993D01*
X0114344Y0198431D02*
X0114344Y0194055D01*
X0106019Y0194056D01*
X0106019Y0198431D01*
X0114344Y0198431D01*
X0115931Y0193743D02*
X0115931Y0188743D01*
X0104431Y0188743D01*
X0104431Y0183743D01*
X0115931Y0183743D01*
X0115931Y0188743D01*
X0104431Y0188743D01*
X0104431Y0193743D01*
X0115931Y0193743D01*
X0102369Y0149406D02*
X0097994Y0149406D01*
X0097993Y0141080D01*
X0102369Y0141080D01*
X0102369Y0149406D01*
X0072931Y0181743D02*
X0072931Y0186743D01*
X0061431Y0186743D01*
X0061431Y0181743D01*
X0072931Y0181743D01*
X0072931Y0186743D02*
X0072931Y0191743D01*
X0061431Y0191743D01*
X0061431Y0186743D01*
X0072931Y0186743D01*
X0071344Y0192055D02*
X0071344Y0196431D01*
X0063019Y0196431D01*
X0063019Y0192056D01*
X0071344Y0192055D01*
X0044681Y0188493D02*
X0044681Y0199993D01*
X0039681Y0199993D01*
X0039681Y0188493D01*
X0044681Y0188493D01*
X0039681Y0188493D02*
X0039681Y0199993D01*
X0034681Y0199993D01*
X0034681Y0188493D01*
X0039681Y0188493D01*
X0034681Y0188493D02*
X0034681Y0199993D01*
X0029681Y0199993D01*
X0029681Y0188493D01*
X0034681Y0188493D01*
X0031344Y0141430D02*
X0023019Y0141431D01*
X0023019Y0137055D01*
X0031344Y0137055D01*
X0031344Y0141430D01*
X0031344Y0131430D02*
X0023019Y0131431D01*
X0023019Y0127055D01*
X0031344Y0127055D01*
X0031344Y0131430D01*
X0033931Y0121743D02*
X0033931Y0116743D01*
X0022431Y0116743D01*
X0022431Y0121743D01*
X0033931Y0121743D01*
X0130681Y0068743D02*
X0130681Y0053743D01*
X0137681Y0053743D01*
X0137681Y0068743D01*
X0130681Y0068743D01*
X0155681Y0142743D02*
X0155681Y0149743D01*
X0170681Y0149743D01*
X0170681Y0142743D01*
X0155681Y0142743D01*
D17*
X0149465Y0067117D02*
X0149465Y0057078D01*
X0149465Y0049204D02*
X0149465Y0032865D01*
X0149465Y0024991D02*
X0149465Y0009991D01*
X0149464Y0010032D02*
X0149463Y0009979D01*
X0149465Y0009927D01*
X0149471Y0009875D01*
X0149481Y0009823D01*
X0149494Y0009772D01*
X0149511Y0009723D01*
X0149531Y0009674D01*
X0149555Y0009627D01*
X0149582Y0009582D01*
X0149612Y0009539D01*
X0149644Y0009498D01*
X0149680Y0009460D01*
X0149719Y0009424D01*
X0149759Y0009391D01*
X0149802Y0009361D01*
X0149847Y0009334D01*
X0149894Y0009311D01*
X0149942Y0009290D01*
X0149992Y0009273D01*
X0150043Y0009260D01*
X0150094Y0009250D01*
X0150147Y0009244D01*
X0150199Y0009242D01*
X0150251Y0009243D01*
X0150213Y0009243D02*
X0184150Y0009243D01*
X0184109Y0009243D02*
X0184162Y0009242D01*
X0184214Y0009244D01*
X0184266Y0009250D01*
X0184318Y0009260D01*
X0184369Y0009273D01*
X0184418Y0009290D01*
X0184467Y0009310D01*
X0184514Y0009334D01*
X0184559Y0009361D01*
X0184602Y0009391D01*
X0184643Y0009423D01*
X0184681Y0009459D01*
X0184717Y0009498D01*
X0184750Y0009538D01*
X0184780Y0009581D01*
X0184807Y0009626D01*
X0184830Y0009673D01*
X0184851Y0009721D01*
X0184868Y0009771D01*
X0184881Y0009822D01*
X0184891Y0009873D01*
X0184897Y0009926D01*
X0184899Y0009978D01*
X0184898Y0010030D01*
X0184898Y0009991D02*
X0184898Y0024991D01*
X0184898Y0032865D02*
X0184898Y0049204D01*
X0184898Y0057078D02*
X0184898Y0067117D01*
X0149465Y0067117D01*
D18*
X0187872Y0039960D02*
X0187872Y0035289D01*
X0187872Y0037624D02*
X0194878Y0037624D01*
X0192543Y0035289D01*
X0194878Y0032593D02*
X0190208Y0027923D01*
X0191375Y0029090D02*
X0187872Y0032593D01*
X0187872Y0027923D02*
X0194878Y0027923D01*
D19*
X0130417Y0163027D02*
X0127948Y0163027D01*
X0127331Y0163644D01*
X0127331Y0164878D01*
X0127948Y0165496D01*
X0129183Y0166710D02*
X0129183Y0169179D01*
X0131034Y0168561D02*
X0129183Y0166710D01*
X0130417Y0165496D02*
X0131034Y0164878D01*
X0131034Y0163644D01*
X0130417Y0163027D01*
X0131034Y0168561D02*
X0127331Y0168561D01*
X0187831Y0179644D02*
X0187831Y0180878D01*
X0188448Y0181496D01*
X0188448Y0182710D02*
X0187831Y0183327D01*
X0187831Y0184561D01*
X0188448Y0185179D01*
X0189065Y0185179D01*
X0189683Y0184561D01*
X0189683Y0183944D01*
X0189683Y0184561D02*
X0190300Y0185179D01*
X0190917Y0185179D01*
X0191534Y0184561D01*
X0191534Y0183327D01*
X0190917Y0182710D01*
X0190917Y0181496D02*
X0191534Y0180878D01*
X0191534Y0179644D01*
X0190917Y0179027D01*
X0188448Y0179027D01*
X0187831Y0179644D01*
M02*
