%
M48
M72
T01C0.01181
T02C0.02400
T03C0.03543
T04C0.03600
T05C0.04000
T06C0.04331
T07C0.06299
T08C0.07087
%
T01
X29181Y16243
X44181Y16243
X51181Y35243
X59181Y16243
X75181Y16243
X85181Y35243
X92181Y16243
X107181Y16243
X136181Y51243
X145181Y45243
X145181Y37243
X137181Y29243
X145181Y21243
X145181Y16243
X145181Y62243
X108181Y93243
X99181Y66243
X89181Y91243
X66181Y80243
X62181Y89243
X41181Y66243
X33181Y90243
X10181Y92243
X10181Y78243
X10181Y64243
X10181Y48243
X10181Y107243
X19181Y129243
X19181Y139243
X28181Y143243
X33181Y150243
X17181Y173243
X23181Y186243
X29181Y185243
X38181Y176243
X50181Y187243
X50181Y198243
X53181Y202243
X53181Y208243
X46181Y217243
X44181Y214243
X45181Y221243
X42181Y232243
X48181Y239243
X62181Y217243
X66181Y225243
X63181Y233243
X73181Y225243
X75181Y233243
X74181Y248243
X88181Y248243
X94181Y234243
X85181Y220243
X94181Y215243
X100181Y215243
X105181Y215243
X121181Y211243
X126181Y222243
X126181Y227243
X133181Y223243
X138181Y223243
X160181Y195243
X169181Y195243
X178181Y195243
X151181Y146243
X155181Y134243
X152181Y123243
X149181Y116243
X142181Y123243
X120181Y124243
X120181Y129243
X104181Y139243
X94181Y156243
X84181Y150243
X95181Y173243
X95181Y178243
X88181Y194243
X88181Y200243
X82181Y200243
X82181Y194243
X75181Y202243
X64181Y200243
X58181Y186243
X52181Y174243
X59181Y162243
X67181Y160243
X59181Y150243
X18181Y199243
X9181Y203243
X9181Y190243
X6181Y172243
X9181Y216243
X26181Y224243
X32181Y232243
X9181Y249243
X102181Y201243
X150181Y267243
X150181Y272243
X182181Y249243
X182181Y243243
X134181Y279243
X190181Y19243
X190181Y14243
T02
X19181Y119243
X162181Y243243
X193181Y220243
X118181Y119243
T03
X166291Y266243
X180071Y266243
T04
X136181Y204243
X136181Y192243
X146181Y192243
X146181Y204243
X190181Y144243
X190181Y134243
X190181Y124243
T05
X112181Y264243
X112181Y274243
X122181Y274243
X122181Y264243
X102181Y264243
X102181Y274243
X92181Y274243
X92181Y264243
X82181Y264243
X82181Y274243
X72181Y274243
X72181Y264243
X62181Y264243
X62181Y274243
X52181Y274243
X52181Y264243
X42181Y264243
X42181Y274243
X32181Y274243
X32181Y264243
X22181Y264243
X22181Y274243
X12181Y274243
X12181Y264243
T06
X115614Y224243
X114039Y25806
T07
X18763Y25806
X167181Y28928
X17188Y224243
T08
X167181Y46645
M30
