G75*
%MOIN*%
%OFA0B0*%
%FSLAX25Y25*%
%IPPOS*%
%LPD*%
%AMOC8*
5,1,8,0,0,1.08239X$1,22.5*
%
%ADD10C,0.00000*%
%ADD11C,0.01100*%
%ADD12C,0.00800*%
%ADD13C,0.00400*%
%ADD14C,0.00500*%
%ADD15C,0.00600*%
D10*
X0017242Y0036778D02*
X0017242Y0150952D01*
X0202281Y0150952D01*
X0202281Y0036778D01*
X0017242Y0036778D01*
X0050943Y0046778D02*
X0050945Y0046936D01*
X0050951Y0047094D01*
X0050961Y0047252D01*
X0050975Y0047410D01*
X0050993Y0047567D01*
X0051014Y0047724D01*
X0051040Y0047880D01*
X0051070Y0048036D01*
X0051103Y0048191D01*
X0051141Y0048344D01*
X0051182Y0048497D01*
X0051227Y0048649D01*
X0051276Y0048800D01*
X0051329Y0048949D01*
X0051385Y0049097D01*
X0051445Y0049243D01*
X0051509Y0049388D01*
X0051577Y0049531D01*
X0051648Y0049673D01*
X0051722Y0049813D01*
X0051800Y0049950D01*
X0051882Y0050086D01*
X0051966Y0050220D01*
X0052055Y0050351D01*
X0052146Y0050480D01*
X0052241Y0050607D01*
X0052338Y0050732D01*
X0052439Y0050854D01*
X0052543Y0050973D01*
X0052650Y0051090D01*
X0052760Y0051204D01*
X0052873Y0051315D01*
X0052988Y0051424D01*
X0053106Y0051529D01*
X0053227Y0051631D01*
X0053350Y0051731D01*
X0053476Y0051827D01*
X0053604Y0051920D01*
X0053734Y0052010D01*
X0053867Y0052096D01*
X0054002Y0052180D01*
X0054138Y0052259D01*
X0054277Y0052336D01*
X0054418Y0052408D01*
X0054560Y0052478D01*
X0054704Y0052543D01*
X0054850Y0052605D01*
X0054997Y0052663D01*
X0055146Y0052718D01*
X0055296Y0052769D01*
X0055447Y0052816D01*
X0055599Y0052859D01*
X0055752Y0052898D01*
X0055907Y0052934D01*
X0056062Y0052965D01*
X0056218Y0052993D01*
X0056374Y0053017D01*
X0056531Y0053037D01*
X0056689Y0053053D01*
X0056846Y0053065D01*
X0057005Y0053073D01*
X0057163Y0053077D01*
X0057321Y0053077D01*
X0057479Y0053073D01*
X0057638Y0053065D01*
X0057795Y0053053D01*
X0057953Y0053037D01*
X0058110Y0053017D01*
X0058266Y0052993D01*
X0058422Y0052965D01*
X0058577Y0052934D01*
X0058732Y0052898D01*
X0058885Y0052859D01*
X0059037Y0052816D01*
X0059188Y0052769D01*
X0059338Y0052718D01*
X0059487Y0052663D01*
X0059634Y0052605D01*
X0059780Y0052543D01*
X0059924Y0052478D01*
X0060066Y0052408D01*
X0060207Y0052336D01*
X0060346Y0052259D01*
X0060482Y0052180D01*
X0060617Y0052096D01*
X0060750Y0052010D01*
X0060880Y0051920D01*
X0061008Y0051827D01*
X0061134Y0051731D01*
X0061257Y0051631D01*
X0061378Y0051529D01*
X0061496Y0051424D01*
X0061611Y0051315D01*
X0061724Y0051204D01*
X0061834Y0051090D01*
X0061941Y0050973D01*
X0062045Y0050854D01*
X0062146Y0050732D01*
X0062243Y0050607D01*
X0062338Y0050480D01*
X0062429Y0050351D01*
X0062518Y0050220D01*
X0062602Y0050086D01*
X0062684Y0049950D01*
X0062762Y0049813D01*
X0062836Y0049673D01*
X0062907Y0049531D01*
X0062975Y0049388D01*
X0063039Y0049243D01*
X0063099Y0049097D01*
X0063155Y0048949D01*
X0063208Y0048800D01*
X0063257Y0048649D01*
X0063302Y0048497D01*
X0063343Y0048344D01*
X0063381Y0048191D01*
X0063414Y0048036D01*
X0063444Y0047880D01*
X0063470Y0047724D01*
X0063491Y0047567D01*
X0063509Y0047410D01*
X0063523Y0047252D01*
X0063533Y0047094D01*
X0063539Y0046936D01*
X0063541Y0046778D01*
X0063539Y0046620D01*
X0063533Y0046462D01*
X0063523Y0046304D01*
X0063509Y0046146D01*
X0063491Y0045989D01*
X0063470Y0045832D01*
X0063444Y0045676D01*
X0063414Y0045520D01*
X0063381Y0045365D01*
X0063343Y0045212D01*
X0063302Y0045059D01*
X0063257Y0044907D01*
X0063208Y0044756D01*
X0063155Y0044607D01*
X0063099Y0044459D01*
X0063039Y0044313D01*
X0062975Y0044168D01*
X0062907Y0044025D01*
X0062836Y0043883D01*
X0062762Y0043743D01*
X0062684Y0043606D01*
X0062602Y0043470D01*
X0062518Y0043336D01*
X0062429Y0043205D01*
X0062338Y0043076D01*
X0062243Y0042949D01*
X0062146Y0042824D01*
X0062045Y0042702D01*
X0061941Y0042583D01*
X0061834Y0042466D01*
X0061724Y0042352D01*
X0061611Y0042241D01*
X0061496Y0042132D01*
X0061378Y0042027D01*
X0061257Y0041925D01*
X0061134Y0041825D01*
X0061008Y0041729D01*
X0060880Y0041636D01*
X0060750Y0041546D01*
X0060617Y0041460D01*
X0060482Y0041376D01*
X0060346Y0041297D01*
X0060207Y0041220D01*
X0060066Y0041148D01*
X0059924Y0041078D01*
X0059780Y0041013D01*
X0059634Y0040951D01*
X0059487Y0040893D01*
X0059338Y0040838D01*
X0059188Y0040787D01*
X0059037Y0040740D01*
X0058885Y0040697D01*
X0058732Y0040658D01*
X0058577Y0040622D01*
X0058422Y0040591D01*
X0058266Y0040563D01*
X0058110Y0040539D01*
X0057953Y0040519D01*
X0057795Y0040503D01*
X0057638Y0040491D01*
X0057479Y0040483D01*
X0057321Y0040479D01*
X0057163Y0040479D01*
X0057005Y0040483D01*
X0056846Y0040491D01*
X0056689Y0040503D01*
X0056531Y0040519D01*
X0056374Y0040539D01*
X0056218Y0040563D01*
X0056062Y0040591D01*
X0055907Y0040622D01*
X0055752Y0040658D01*
X0055599Y0040697D01*
X0055447Y0040740D01*
X0055296Y0040787D01*
X0055146Y0040838D01*
X0054997Y0040893D01*
X0054850Y0040951D01*
X0054704Y0041013D01*
X0054560Y0041078D01*
X0054418Y0041148D01*
X0054277Y0041220D01*
X0054138Y0041297D01*
X0054002Y0041376D01*
X0053867Y0041460D01*
X0053734Y0041546D01*
X0053604Y0041636D01*
X0053476Y0041729D01*
X0053350Y0041825D01*
X0053227Y0041925D01*
X0053106Y0042027D01*
X0052988Y0042132D01*
X0052873Y0042241D01*
X0052760Y0042352D01*
X0052650Y0042466D01*
X0052543Y0042583D01*
X0052439Y0042702D01*
X0052338Y0042824D01*
X0052241Y0042949D01*
X0052146Y0043076D01*
X0052055Y0043205D01*
X0051966Y0043336D01*
X0051882Y0043470D01*
X0051800Y0043606D01*
X0051722Y0043743D01*
X0051648Y0043883D01*
X0051577Y0044025D01*
X0051509Y0044168D01*
X0051445Y0044313D01*
X0051385Y0044459D01*
X0051329Y0044607D01*
X0051276Y0044756D01*
X0051227Y0044907D01*
X0051182Y0045059D01*
X0051141Y0045212D01*
X0051103Y0045365D01*
X0051070Y0045520D01*
X0051040Y0045676D01*
X0051014Y0045832D01*
X0050993Y0045989D01*
X0050975Y0046146D01*
X0050961Y0046304D01*
X0050951Y0046462D01*
X0050945Y0046620D01*
X0050943Y0046778D01*
X0050943Y0096778D02*
X0050945Y0096936D01*
X0050951Y0097094D01*
X0050961Y0097252D01*
X0050975Y0097410D01*
X0050993Y0097567D01*
X0051014Y0097724D01*
X0051040Y0097880D01*
X0051070Y0098036D01*
X0051103Y0098191D01*
X0051141Y0098344D01*
X0051182Y0098497D01*
X0051227Y0098649D01*
X0051276Y0098800D01*
X0051329Y0098949D01*
X0051385Y0099097D01*
X0051445Y0099243D01*
X0051509Y0099388D01*
X0051577Y0099531D01*
X0051648Y0099673D01*
X0051722Y0099813D01*
X0051800Y0099950D01*
X0051882Y0100086D01*
X0051966Y0100220D01*
X0052055Y0100351D01*
X0052146Y0100480D01*
X0052241Y0100607D01*
X0052338Y0100732D01*
X0052439Y0100854D01*
X0052543Y0100973D01*
X0052650Y0101090D01*
X0052760Y0101204D01*
X0052873Y0101315D01*
X0052988Y0101424D01*
X0053106Y0101529D01*
X0053227Y0101631D01*
X0053350Y0101731D01*
X0053476Y0101827D01*
X0053604Y0101920D01*
X0053734Y0102010D01*
X0053867Y0102096D01*
X0054002Y0102180D01*
X0054138Y0102259D01*
X0054277Y0102336D01*
X0054418Y0102408D01*
X0054560Y0102478D01*
X0054704Y0102543D01*
X0054850Y0102605D01*
X0054997Y0102663D01*
X0055146Y0102718D01*
X0055296Y0102769D01*
X0055447Y0102816D01*
X0055599Y0102859D01*
X0055752Y0102898D01*
X0055907Y0102934D01*
X0056062Y0102965D01*
X0056218Y0102993D01*
X0056374Y0103017D01*
X0056531Y0103037D01*
X0056689Y0103053D01*
X0056846Y0103065D01*
X0057005Y0103073D01*
X0057163Y0103077D01*
X0057321Y0103077D01*
X0057479Y0103073D01*
X0057638Y0103065D01*
X0057795Y0103053D01*
X0057953Y0103037D01*
X0058110Y0103017D01*
X0058266Y0102993D01*
X0058422Y0102965D01*
X0058577Y0102934D01*
X0058732Y0102898D01*
X0058885Y0102859D01*
X0059037Y0102816D01*
X0059188Y0102769D01*
X0059338Y0102718D01*
X0059487Y0102663D01*
X0059634Y0102605D01*
X0059780Y0102543D01*
X0059924Y0102478D01*
X0060066Y0102408D01*
X0060207Y0102336D01*
X0060346Y0102259D01*
X0060482Y0102180D01*
X0060617Y0102096D01*
X0060750Y0102010D01*
X0060880Y0101920D01*
X0061008Y0101827D01*
X0061134Y0101731D01*
X0061257Y0101631D01*
X0061378Y0101529D01*
X0061496Y0101424D01*
X0061611Y0101315D01*
X0061724Y0101204D01*
X0061834Y0101090D01*
X0061941Y0100973D01*
X0062045Y0100854D01*
X0062146Y0100732D01*
X0062243Y0100607D01*
X0062338Y0100480D01*
X0062429Y0100351D01*
X0062518Y0100220D01*
X0062602Y0100086D01*
X0062684Y0099950D01*
X0062762Y0099813D01*
X0062836Y0099673D01*
X0062907Y0099531D01*
X0062975Y0099388D01*
X0063039Y0099243D01*
X0063099Y0099097D01*
X0063155Y0098949D01*
X0063208Y0098800D01*
X0063257Y0098649D01*
X0063302Y0098497D01*
X0063343Y0098344D01*
X0063381Y0098191D01*
X0063414Y0098036D01*
X0063444Y0097880D01*
X0063470Y0097724D01*
X0063491Y0097567D01*
X0063509Y0097410D01*
X0063523Y0097252D01*
X0063533Y0097094D01*
X0063539Y0096936D01*
X0063541Y0096778D01*
X0063539Y0096620D01*
X0063533Y0096462D01*
X0063523Y0096304D01*
X0063509Y0096146D01*
X0063491Y0095989D01*
X0063470Y0095832D01*
X0063444Y0095676D01*
X0063414Y0095520D01*
X0063381Y0095365D01*
X0063343Y0095212D01*
X0063302Y0095059D01*
X0063257Y0094907D01*
X0063208Y0094756D01*
X0063155Y0094607D01*
X0063099Y0094459D01*
X0063039Y0094313D01*
X0062975Y0094168D01*
X0062907Y0094025D01*
X0062836Y0093883D01*
X0062762Y0093743D01*
X0062684Y0093606D01*
X0062602Y0093470D01*
X0062518Y0093336D01*
X0062429Y0093205D01*
X0062338Y0093076D01*
X0062243Y0092949D01*
X0062146Y0092824D01*
X0062045Y0092702D01*
X0061941Y0092583D01*
X0061834Y0092466D01*
X0061724Y0092352D01*
X0061611Y0092241D01*
X0061496Y0092132D01*
X0061378Y0092027D01*
X0061257Y0091925D01*
X0061134Y0091825D01*
X0061008Y0091729D01*
X0060880Y0091636D01*
X0060750Y0091546D01*
X0060617Y0091460D01*
X0060482Y0091376D01*
X0060346Y0091297D01*
X0060207Y0091220D01*
X0060066Y0091148D01*
X0059924Y0091078D01*
X0059780Y0091013D01*
X0059634Y0090951D01*
X0059487Y0090893D01*
X0059338Y0090838D01*
X0059188Y0090787D01*
X0059037Y0090740D01*
X0058885Y0090697D01*
X0058732Y0090658D01*
X0058577Y0090622D01*
X0058422Y0090591D01*
X0058266Y0090563D01*
X0058110Y0090539D01*
X0057953Y0090519D01*
X0057795Y0090503D01*
X0057638Y0090491D01*
X0057479Y0090483D01*
X0057321Y0090479D01*
X0057163Y0090479D01*
X0057005Y0090483D01*
X0056846Y0090491D01*
X0056689Y0090503D01*
X0056531Y0090519D01*
X0056374Y0090539D01*
X0056218Y0090563D01*
X0056062Y0090591D01*
X0055907Y0090622D01*
X0055752Y0090658D01*
X0055599Y0090697D01*
X0055447Y0090740D01*
X0055296Y0090787D01*
X0055146Y0090838D01*
X0054997Y0090893D01*
X0054850Y0090951D01*
X0054704Y0091013D01*
X0054560Y0091078D01*
X0054418Y0091148D01*
X0054277Y0091220D01*
X0054138Y0091297D01*
X0054002Y0091376D01*
X0053867Y0091460D01*
X0053734Y0091546D01*
X0053604Y0091636D01*
X0053476Y0091729D01*
X0053350Y0091825D01*
X0053227Y0091925D01*
X0053106Y0092027D01*
X0052988Y0092132D01*
X0052873Y0092241D01*
X0052760Y0092352D01*
X0052650Y0092466D01*
X0052543Y0092583D01*
X0052439Y0092702D01*
X0052338Y0092824D01*
X0052241Y0092949D01*
X0052146Y0093076D01*
X0052055Y0093205D01*
X0051966Y0093336D01*
X0051882Y0093470D01*
X0051800Y0093606D01*
X0051722Y0093743D01*
X0051648Y0093883D01*
X0051577Y0094025D01*
X0051509Y0094168D01*
X0051445Y0094313D01*
X0051385Y0094459D01*
X0051329Y0094607D01*
X0051276Y0094756D01*
X0051227Y0094907D01*
X0051182Y0095059D01*
X0051141Y0095212D01*
X0051103Y0095365D01*
X0051070Y0095520D01*
X0051040Y0095676D01*
X0051014Y0095832D01*
X0050993Y0095989D01*
X0050975Y0096146D01*
X0050961Y0096304D01*
X0050951Y0096462D01*
X0050945Y0096620D01*
X0050943Y0096778D01*
X0155943Y0096778D02*
X0155945Y0096936D01*
X0155951Y0097094D01*
X0155961Y0097252D01*
X0155975Y0097410D01*
X0155993Y0097567D01*
X0156014Y0097724D01*
X0156040Y0097880D01*
X0156070Y0098036D01*
X0156103Y0098191D01*
X0156141Y0098344D01*
X0156182Y0098497D01*
X0156227Y0098649D01*
X0156276Y0098800D01*
X0156329Y0098949D01*
X0156385Y0099097D01*
X0156445Y0099243D01*
X0156509Y0099388D01*
X0156577Y0099531D01*
X0156648Y0099673D01*
X0156722Y0099813D01*
X0156800Y0099950D01*
X0156882Y0100086D01*
X0156966Y0100220D01*
X0157055Y0100351D01*
X0157146Y0100480D01*
X0157241Y0100607D01*
X0157338Y0100732D01*
X0157439Y0100854D01*
X0157543Y0100973D01*
X0157650Y0101090D01*
X0157760Y0101204D01*
X0157873Y0101315D01*
X0157988Y0101424D01*
X0158106Y0101529D01*
X0158227Y0101631D01*
X0158350Y0101731D01*
X0158476Y0101827D01*
X0158604Y0101920D01*
X0158734Y0102010D01*
X0158867Y0102096D01*
X0159002Y0102180D01*
X0159138Y0102259D01*
X0159277Y0102336D01*
X0159418Y0102408D01*
X0159560Y0102478D01*
X0159704Y0102543D01*
X0159850Y0102605D01*
X0159997Y0102663D01*
X0160146Y0102718D01*
X0160296Y0102769D01*
X0160447Y0102816D01*
X0160599Y0102859D01*
X0160752Y0102898D01*
X0160907Y0102934D01*
X0161062Y0102965D01*
X0161218Y0102993D01*
X0161374Y0103017D01*
X0161531Y0103037D01*
X0161689Y0103053D01*
X0161846Y0103065D01*
X0162005Y0103073D01*
X0162163Y0103077D01*
X0162321Y0103077D01*
X0162479Y0103073D01*
X0162638Y0103065D01*
X0162795Y0103053D01*
X0162953Y0103037D01*
X0163110Y0103017D01*
X0163266Y0102993D01*
X0163422Y0102965D01*
X0163577Y0102934D01*
X0163732Y0102898D01*
X0163885Y0102859D01*
X0164037Y0102816D01*
X0164188Y0102769D01*
X0164338Y0102718D01*
X0164487Y0102663D01*
X0164634Y0102605D01*
X0164780Y0102543D01*
X0164924Y0102478D01*
X0165066Y0102408D01*
X0165207Y0102336D01*
X0165346Y0102259D01*
X0165482Y0102180D01*
X0165617Y0102096D01*
X0165750Y0102010D01*
X0165880Y0101920D01*
X0166008Y0101827D01*
X0166134Y0101731D01*
X0166257Y0101631D01*
X0166378Y0101529D01*
X0166496Y0101424D01*
X0166611Y0101315D01*
X0166724Y0101204D01*
X0166834Y0101090D01*
X0166941Y0100973D01*
X0167045Y0100854D01*
X0167146Y0100732D01*
X0167243Y0100607D01*
X0167338Y0100480D01*
X0167429Y0100351D01*
X0167518Y0100220D01*
X0167602Y0100086D01*
X0167684Y0099950D01*
X0167762Y0099813D01*
X0167836Y0099673D01*
X0167907Y0099531D01*
X0167975Y0099388D01*
X0168039Y0099243D01*
X0168099Y0099097D01*
X0168155Y0098949D01*
X0168208Y0098800D01*
X0168257Y0098649D01*
X0168302Y0098497D01*
X0168343Y0098344D01*
X0168381Y0098191D01*
X0168414Y0098036D01*
X0168444Y0097880D01*
X0168470Y0097724D01*
X0168491Y0097567D01*
X0168509Y0097410D01*
X0168523Y0097252D01*
X0168533Y0097094D01*
X0168539Y0096936D01*
X0168541Y0096778D01*
X0168539Y0096620D01*
X0168533Y0096462D01*
X0168523Y0096304D01*
X0168509Y0096146D01*
X0168491Y0095989D01*
X0168470Y0095832D01*
X0168444Y0095676D01*
X0168414Y0095520D01*
X0168381Y0095365D01*
X0168343Y0095212D01*
X0168302Y0095059D01*
X0168257Y0094907D01*
X0168208Y0094756D01*
X0168155Y0094607D01*
X0168099Y0094459D01*
X0168039Y0094313D01*
X0167975Y0094168D01*
X0167907Y0094025D01*
X0167836Y0093883D01*
X0167762Y0093743D01*
X0167684Y0093606D01*
X0167602Y0093470D01*
X0167518Y0093336D01*
X0167429Y0093205D01*
X0167338Y0093076D01*
X0167243Y0092949D01*
X0167146Y0092824D01*
X0167045Y0092702D01*
X0166941Y0092583D01*
X0166834Y0092466D01*
X0166724Y0092352D01*
X0166611Y0092241D01*
X0166496Y0092132D01*
X0166378Y0092027D01*
X0166257Y0091925D01*
X0166134Y0091825D01*
X0166008Y0091729D01*
X0165880Y0091636D01*
X0165750Y0091546D01*
X0165617Y0091460D01*
X0165482Y0091376D01*
X0165346Y0091297D01*
X0165207Y0091220D01*
X0165066Y0091148D01*
X0164924Y0091078D01*
X0164780Y0091013D01*
X0164634Y0090951D01*
X0164487Y0090893D01*
X0164338Y0090838D01*
X0164188Y0090787D01*
X0164037Y0090740D01*
X0163885Y0090697D01*
X0163732Y0090658D01*
X0163577Y0090622D01*
X0163422Y0090591D01*
X0163266Y0090563D01*
X0163110Y0090539D01*
X0162953Y0090519D01*
X0162795Y0090503D01*
X0162638Y0090491D01*
X0162479Y0090483D01*
X0162321Y0090479D01*
X0162163Y0090479D01*
X0162005Y0090483D01*
X0161846Y0090491D01*
X0161689Y0090503D01*
X0161531Y0090519D01*
X0161374Y0090539D01*
X0161218Y0090563D01*
X0161062Y0090591D01*
X0160907Y0090622D01*
X0160752Y0090658D01*
X0160599Y0090697D01*
X0160447Y0090740D01*
X0160296Y0090787D01*
X0160146Y0090838D01*
X0159997Y0090893D01*
X0159850Y0090951D01*
X0159704Y0091013D01*
X0159560Y0091078D01*
X0159418Y0091148D01*
X0159277Y0091220D01*
X0159138Y0091297D01*
X0159002Y0091376D01*
X0158867Y0091460D01*
X0158734Y0091546D01*
X0158604Y0091636D01*
X0158476Y0091729D01*
X0158350Y0091825D01*
X0158227Y0091925D01*
X0158106Y0092027D01*
X0157988Y0092132D01*
X0157873Y0092241D01*
X0157760Y0092352D01*
X0157650Y0092466D01*
X0157543Y0092583D01*
X0157439Y0092702D01*
X0157338Y0092824D01*
X0157241Y0092949D01*
X0157146Y0093076D01*
X0157055Y0093205D01*
X0156966Y0093336D01*
X0156882Y0093470D01*
X0156800Y0093606D01*
X0156722Y0093743D01*
X0156648Y0093883D01*
X0156577Y0094025D01*
X0156509Y0094168D01*
X0156445Y0094313D01*
X0156385Y0094459D01*
X0156329Y0094607D01*
X0156276Y0094756D01*
X0156227Y0094907D01*
X0156182Y0095059D01*
X0156141Y0095212D01*
X0156103Y0095365D01*
X0156070Y0095520D01*
X0156040Y0095676D01*
X0156014Y0095832D01*
X0155993Y0095989D01*
X0155975Y0096146D01*
X0155961Y0096304D01*
X0155951Y0096462D01*
X0155945Y0096620D01*
X0155943Y0096778D01*
X0155943Y0046778D02*
X0155945Y0046936D01*
X0155951Y0047094D01*
X0155961Y0047252D01*
X0155975Y0047410D01*
X0155993Y0047567D01*
X0156014Y0047724D01*
X0156040Y0047880D01*
X0156070Y0048036D01*
X0156103Y0048191D01*
X0156141Y0048344D01*
X0156182Y0048497D01*
X0156227Y0048649D01*
X0156276Y0048800D01*
X0156329Y0048949D01*
X0156385Y0049097D01*
X0156445Y0049243D01*
X0156509Y0049388D01*
X0156577Y0049531D01*
X0156648Y0049673D01*
X0156722Y0049813D01*
X0156800Y0049950D01*
X0156882Y0050086D01*
X0156966Y0050220D01*
X0157055Y0050351D01*
X0157146Y0050480D01*
X0157241Y0050607D01*
X0157338Y0050732D01*
X0157439Y0050854D01*
X0157543Y0050973D01*
X0157650Y0051090D01*
X0157760Y0051204D01*
X0157873Y0051315D01*
X0157988Y0051424D01*
X0158106Y0051529D01*
X0158227Y0051631D01*
X0158350Y0051731D01*
X0158476Y0051827D01*
X0158604Y0051920D01*
X0158734Y0052010D01*
X0158867Y0052096D01*
X0159002Y0052180D01*
X0159138Y0052259D01*
X0159277Y0052336D01*
X0159418Y0052408D01*
X0159560Y0052478D01*
X0159704Y0052543D01*
X0159850Y0052605D01*
X0159997Y0052663D01*
X0160146Y0052718D01*
X0160296Y0052769D01*
X0160447Y0052816D01*
X0160599Y0052859D01*
X0160752Y0052898D01*
X0160907Y0052934D01*
X0161062Y0052965D01*
X0161218Y0052993D01*
X0161374Y0053017D01*
X0161531Y0053037D01*
X0161689Y0053053D01*
X0161846Y0053065D01*
X0162005Y0053073D01*
X0162163Y0053077D01*
X0162321Y0053077D01*
X0162479Y0053073D01*
X0162638Y0053065D01*
X0162795Y0053053D01*
X0162953Y0053037D01*
X0163110Y0053017D01*
X0163266Y0052993D01*
X0163422Y0052965D01*
X0163577Y0052934D01*
X0163732Y0052898D01*
X0163885Y0052859D01*
X0164037Y0052816D01*
X0164188Y0052769D01*
X0164338Y0052718D01*
X0164487Y0052663D01*
X0164634Y0052605D01*
X0164780Y0052543D01*
X0164924Y0052478D01*
X0165066Y0052408D01*
X0165207Y0052336D01*
X0165346Y0052259D01*
X0165482Y0052180D01*
X0165617Y0052096D01*
X0165750Y0052010D01*
X0165880Y0051920D01*
X0166008Y0051827D01*
X0166134Y0051731D01*
X0166257Y0051631D01*
X0166378Y0051529D01*
X0166496Y0051424D01*
X0166611Y0051315D01*
X0166724Y0051204D01*
X0166834Y0051090D01*
X0166941Y0050973D01*
X0167045Y0050854D01*
X0167146Y0050732D01*
X0167243Y0050607D01*
X0167338Y0050480D01*
X0167429Y0050351D01*
X0167518Y0050220D01*
X0167602Y0050086D01*
X0167684Y0049950D01*
X0167762Y0049813D01*
X0167836Y0049673D01*
X0167907Y0049531D01*
X0167975Y0049388D01*
X0168039Y0049243D01*
X0168099Y0049097D01*
X0168155Y0048949D01*
X0168208Y0048800D01*
X0168257Y0048649D01*
X0168302Y0048497D01*
X0168343Y0048344D01*
X0168381Y0048191D01*
X0168414Y0048036D01*
X0168444Y0047880D01*
X0168470Y0047724D01*
X0168491Y0047567D01*
X0168509Y0047410D01*
X0168523Y0047252D01*
X0168533Y0047094D01*
X0168539Y0046936D01*
X0168541Y0046778D01*
X0168539Y0046620D01*
X0168533Y0046462D01*
X0168523Y0046304D01*
X0168509Y0046146D01*
X0168491Y0045989D01*
X0168470Y0045832D01*
X0168444Y0045676D01*
X0168414Y0045520D01*
X0168381Y0045365D01*
X0168343Y0045212D01*
X0168302Y0045059D01*
X0168257Y0044907D01*
X0168208Y0044756D01*
X0168155Y0044607D01*
X0168099Y0044459D01*
X0168039Y0044313D01*
X0167975Y0044168D01*
X0167907Y0044025D01*
X0167836Y0043883D01*
X0167762Y0043743D01*
X0167684Y0043606D01*
X0167602Y0043470D01*
X0167518Y0043336D01*
X0167429Y0043205D01*
X0167338Y0043076D01*
X0167243Y0042949D01*
X0167146Y0042824D01*
X0167045Y0042702D01*
X0166941Y0042583D01*
X0166834Y0042466D01*
X0166724Y0042352D01*
X0166611Y0042241D01*
X0166496Y0042132D01*
X0166378Y0042027D01*
X0166257Y0041925D01*
X0166134Y0041825D01*
X0166008Y0041729D01*
X0165880Y0041636D01*
X0165750Y0041546D01*
X0165617Y0041460D01*
X0165482Y0041376D01*
X0165346Y0041297D01*
X0165207Y0041220D01*
X0165066Y0041148D01*
X0164924Y0041078D01*
X0164780Y0041013D01*
X0164634Y0040951D01*
X0164487Y0040893D01*
X0164338Y0040838D01*
X0164188Y0040787D01*
X0164037Y0040740D01*
X0163885Y0040697D01*
X0163732Y0040658D01*
X0163577Y0040622D01*
X0163422Y0040591D01*
X0163266Y0040563D01*
X0163110Y0040539D01*
X0162953Y0040519D01*
X0162795Y0040503D01*
X0162638Y0040491D01*
X0162479Y0040483D01*
X0162321Y0040479D01*
X0162163Y0040479D01*
X0162005Y0040483D01*
X0161846Y0040491D01*
X0161689Y0040503D01*
X0161531Y0040519D01*
X0161374Y0040539D01*
X0161218Y0040563D01*
X0161062Y0040591D01*
X0160907Y0040622D01*
X0160752Y0040658D01*
X0160599Y0040697D01*
X0160447Y0040740D01*
X0160296Y0040787D01*
X0160146Y0040838D01*
X0159997Y0040893D01*
X0159850Y0040951D01*
X0159704Y0041013D01*
X0159560Y0041078D01*
X0159418Y0041148D01*
X0159277Y0041220D01*
X0159138Y0041297D01*
X0159002Y0041376D01*
X0158867Y0041460D01*
X0158734Y0041546D01*
X0158604Y0041636D01*
X0158476Y0041729D01*
X0158350Y0041825D01*
X0158227Y0041925D01*
X0158106Y0042027D01*
X0157988Y0042132D01*
X0157873Y0042241D01*
X0157760Y0042352D01*
X0157650Y0042466D01*
X0157543Y0042583D01*
X0157439Y0042702D01*
X0157338Y0042824D01*
X0157241Y0042949D01*
X0157146Y0043076D01*
X0157055Y0043205D01*
X0156966Y0043336D01*
X0156882Y0043470D01*
X0156800Y0043606D01*
X0156722Y0043743D01*
X0156648Y0043883D01*
X0156577Y0044025D01*
X0156509Y0044168D01*
X0156445Y0044313D01*
X0156385Y0044459D01*
X0156329Y0044607D01*
X0156276Y0044756D01*
X0156227Y0044907D01*
X0156182Y0045059D01*
X0156141Y0045212D01*
X0156103Y0045365D01*
X0156070Y0045520D01*
X0156040Y0045676D01*
X0156014Y0045832D01*
X0155993Y0045989D01*
X0155975Y0046146D01*
X0155961Y0046304D01*
X0155951Y0046462D01*
X0155945Y0046620D01*
X0155943Y0046778D01*
D11*
X0097731Y0061328D02*
X0091792Y0067267D01*
X0091792Y0061328D02*
X0097731Y0067267D01*
X0097731Y0083298D02*
X0091792Y0083298D01*
X0091792Y0086267D02*
X0097731Y0086267D01*
D12*
X0134676Y0141178D02*
X0133642Y0142213D01*
X0133642Y0144281D01*
X0134676Y0145315D01*
X0136745Y0145315D01*
X0137779Y0144281D01*
X0137779Y0143247D01*
X0133642Y0143247D01*
X0134676Y0141178D02*
X0136745Y0141178D01*
X0140088Y0141178D02*
X0144224Y0141178D01*
X0142156Y0141178D02*
X0142156Y0147384D01*
X0140088Y0145315D01*
X0146533Y0144281D02*
X0150670Y0144281D01*
X0152979Y0145315D02*
X0157115Y0141178D01*
X0159424Y0142213D02*
X0160458Y0141178D01*
X0162527Y0141178D01*
X0163561Y0142213D01*
X0163561Y0144281D01*
X0162527Y0145315D01*
X0160458Y0145315D01*
X0159424Y0144281D01*
X0159424Y0142213D01*
X0157115Y0145315D02*
X0152979Y0141178D01*
X0165870Y0145315D02*
X0167938Y0141178D01*
X0170006Y0145315D01*
X0172315Y0144281D02*
X0173349Y0145315D01*
X0175418Y0145315D01*
X0176452Y0144281D01*
X0176452Y0143247D01*
X0172315Y0143247D01*
X0172315Y0142213D02*
X0172315Y0144281D01*
X0172315Y0142213D02*
X0173349Y0141178D01*
X0175418Y0141178D01*
X0178761Y0141178D02*
X0178761Y0145315D01*
X0178761Y0143247D02*
X0180829Y0145315D01*
X0181863Y0145315D01*
D13*
X0182551Y0134581D02*
X0184352Y0134581D01*
X0184953Y0133981D01*
X0184953Y0133380D01*
X0184352Y0132780D01*
X0182551Y0132780D01*
X0181270Y0132780D02*
X0178868Y0132780D01*
X0177586Y0133981D02*
X0176986Y0134581D01*
X0175785Y0134581D01*
X0175184Y0133981D01*
X0175184Y0131579D01*
X0175785Y0130978D01*
X0176986Y0130978D01*
X0177586Y0131579D01*
X0173903Y0131579D02*
X0173303Y0130978D01*
X0172102Y0130978D01*
X0171501Y0131579D01*
X0171501Y0133981D01*
X0172102Y0134581D01*
X0173303Y0134581D01*
X0173903Y0133981D01*
X0166537Y0134581D02*
X0164135Y0130978D01*
X0164749Y0128581D02*
X0165349Y0128581D01*
X0165349Y0124978D01*
X0164749Y0124978D02*
X0165950Y0124978D01*
X0167805Y0125579D02*
X0168405Y0124978D01*
X0167805Y0125579D02*
X0167805Y0127981D01*
X0167204Y0127380D02*
X0168405Y0127380D01*
X0169660Y0126780D02*
X0169660Y0125579D01*
X0170260Y0124978D01*
X0171461Y0124978D01*
X0172062Y0126179D02*
X0169660Y0126179D01*
X0169660Y0126780D02*
X0170260Y0127380D01*
X0171461Y0127380D01*
X0172062Y0126780D01*
X0172062Y0126179D01*
X0173329Y0123182D02*
X0173329Y0122581D01*
X0173329Y0121380D02*
X0172729Y0121380D01*
X0173329Y0121380D02*
X0173329Y0118978D01*
X0172729Y0118978D02*
X0173930Y0118978D01*
X0175184Y0118978D02*
X0175184Y0121380D01*
X0176986Y0121380D01*
X0177586Y0120780D01*
X0177586Y0118978D01*
X0178868Y0119579D02*
X0179468Y0118978D01*
X0181270Y0118978D01*
X0181270Y0118378D02*
X0180669Y0117777D01*
X0180069Y0117777D01*
X0181270Y0118378D02*
X0181270Y0121380D01*
X0179468Y0121380D01*
X0178868Y0120780D01*
X0178868Y0119579D01*
X0182551Y0119579D02*
X0183151Y0119579D01*
X0183151Y0118978D01*
X0182551Y0118978D01*
X0182551Y0119579D01*
X0184392Y0119579D02*
X0184392Y0120780D01*
X0184993Y0121380D01*
X0186194Y0121380D01*
X0186794Y0120780D01*
X0186794Y0119579D01*
X0186194Y0118978D01*
X0184993Y0118978D01*
X0184392Y0119579D01*
X0188075Y0120179D02*
X0189276Y0121380D01*
X0189877Y0121380D01*
X0191145Y0120780D02*
X0191145Y0119579D01*
X0191745Y0118978D01*
X0193547Y0118978D01*
X0193547Y0118378D02*
X0192946Y0117777D01*
X0192346Y0117777D01*
X0193547Y0118378D02*
X0193547Y0121380D01*
X0191745Y0121380D01*
X0191145Y0120780D01*
X0188075Y0121380D02*
X0188075Y0118978D01*
X0187435Y0130978D02*
X0187435Y0132780D01*
X0188636Y0133981D01*
X0188636Y0134581D01*
X0187435Y0132780D02*
X0186234Y0133981D01*
X0186234Y0134581D01*
X0184352Y0132780D02*
X0184953Y0132179D01*
X0184953Y0131579D01*
X0184352Y0130978D01*
X0182551Y0130978D01*
X0182551Y0134581D01*
X0189917Y0132780D02*
X0192319Y0132780D01*
X0193600Y0133380D02*
X0193600Y0133981D01*
X0194201Y0134581D01*
X0195402Y0134581D01*
X0196002Y0133981D01*
X0195402Y0132780D02*
X0196002Y0132179D01*
X0196002Y0131579D01*
X0195402Y0130978D01*
X0194201Y0130978D01*
X0193600Y0131579D01*
X0194201Y0132780D02*
X0195402Y0132780D01*
X0194201Y0132780D02*
X0193600Y0133380D01*
X0197283Y0133380D02*
X0197283Y0130978D01*
X0197283Y0132780D02*
X0199685Y0132780D01*
X0199685Y0133380D02*
X0199685Y0130978D01*
X0199685Y0133380D02*
X0198484Y0134581D01*
X0197283Y0133380D01*
X0171461Y0121380D02*
X0169660Y0120179D01*
X0171461Y0118978D01*
X0169660Y0118978D02*
X0169660Y0122581D01*
X0168392Y0121380D02*
X0167791Y0121380D01*
X0166590Y0120179D01*
X0166590Y0118978D02*
X0166590Y0121380D01*
X0165309Y0120780D02*
X0164709Y0121380D01*
X0163508Y0121380D01*
X0162907Y0120780D01*
X0162907Y0119579D01*
X0163508Y0118978D01*
X0164709Y0118978D01*
X0165309Y0119579D01*
X0165309Y0120780D01*
X0161626Y0121380D02*
X0161626Y0119579D01*
X0161026Y0118978D01*
X0160425Y0119579D01*
X0159825Y0118978D01*
X0159224Y0119579D01*
X0159224Y0121380D01*
X0157970Y0121380D02*
X0156769Y0121380D01*
X0157369Y0121981D02*
X0157369Y0119579D01*
X0157970Y0118978D01*
X0155488Y0120179D02*
X0153086Y0120179D01*
X0153086Y0119579D02*
X0153086Y0120780D01*
X0153686Y0121380D01*
X0154887Y0121380D01*
X0155488Y0120780D01*
X0155488Y0120179D01*
X0154887Y0118978D02*
X0153686Y0118978D01*
X0153086Y0119579D01*
X0151804Y0118978D02*
X0151804Y0120780D01*
X0151204Y0121380D01*
X0149402Y0121380D01*
X0149402Y0118978D01*
X0148121Y0119579D02*
X0148121Y0120780D01*
X0147521Y0121380D01*
X0146320Y0121380D01*
X0145719Y0120780D01*
X0145719Y0119579D01*
X0146320Y0118978D01*
X0147521Y0118978D01*
X0148121Y0119579D01*
X0144452Y0121380D02*
X0143851Y0121380D01*
X0142650Y0120179D01*
X0142650Y0118978D02*
X0142650Y0121380D01*
X0141396Y0121380D02*
X0140195Y0121380D01*
X0140795Y0121981D02*
X0140795Y0119579D01*
X0141396Y0118978D01*
X0138913Y0120179D02*
X0136511Y0120179D01*
X0136511Y0119579D02*
X0136511Y0120780D01*
X0137112Y0121380D01*
X0138313Y0121380D01*
X0138913Y0120780D01*
X0138913Y0120179D01*
X0138313Y0118978D02*
X0137112Y0118978D01*
X0136511Y0119579D01*
X0135244Y0121380D02*
X0134643Y0121380D01*
X0133442Y0120179D01*
X0133442Y0118978D02*
X0133442Y0121380D01*
X0133442Y0124978D02*
X0133442Y0128581D01*
X0133442Y0126780D02*
X0135844Y0126780D01*
X0137125Y0125579D02*
X0137726Y0126179D01*
X0139527Y0126179D01*
X0139527Y0126780D02*
X0139527Y0124978D01*
X0137726Y0124978D01*
X0137125Y0125579D01*
X0135844Y0124978D02*
X0135844Y0128581D01*
X0137726Y0127380D02*
X0138927Y0127380D01*
X0139527Y0126780D01*
X0140808Y0127380D02*
X0140808Y0124978D01*
X0140808Y0126179D02*
X0142009Y0127380D01*
X0142610Y0127380D01*
X0144478Y0127380D02*
X0145679Y0127380D01*
X0146280Y0126780D01*
X0146280Y0124978D01*
X0144478Y0124978D01*
X0143878Y0125579D01*
X0144478Y0126179D01*
X0146280Y0126179D01*
X0147561Y0124978D02*
X0148762Y0124978D01*
X0148161Y0124978D02*
X0148161Y0128581D01*
X0147561Y0128581D01*
X0150016Y0126780D02*
X0150617Y0127380D01*
X0152418Y0127380D01*
X0152418Y0128581D02*
X0152418Y0124978D01*
X0150617Y0124978D01*
X0150016Y0125579D01*
X0150016Y0126780D01*
X0150003Y0130978D02*
X0149402Y0131579D01*
X0151804Y0133981D01*
X0151804Y0131579D01*
X0151204Y0130978D01*
X0150003Y0130978D01*
X0149402Y0131579D02*
X0149402Y0133981D01*
X0150003Y0134581D01*
X0151204Y0134581D01*
X0151804Y0133981D01*
X0153086Y0133981D02*
X0153686Y0134581D01*
X0154887Y0134581D01*
X0155488Y0133981D01*
X0155488Y0133380D01*
X0153086Y0130978D01*
X0155488Y0130978D01*
X0156769Y0131579D02*
X0157369Y0130978D01*
X0158570Y0130978D01*
X0159171Y0131579D01*
X0159171Y0132780D01*
X0158570Y0133380D01*
X0157970Y0133380D01*
X0156769Y0132780D01*
X0156769Y0134581D01*
X0159171Y0134581D01*
X0159785Y0128581D02*
X0159785Y0124978D01*
X0158584Y0126179D01*
X0157383Y0124978D01*
X0157383Y0128581D01*
X0161066Y0126780D02*
X0161066Y0125579D01*
X0161666Y0124978D01*
X0162867Y0124978D01*
X0163468Y0126179D02*
X0161066Y0126179D01*
X0161066Y0126780D02*
X0161666Y0127380D01*
X0162867Y0127380D01*
X0163468Y0126780D01*
X0163468Y0126179D01*
X0148121Y0130978D02*
X0145719Y0130978D01*
X0148121Y0133380D01*
X0148121Y0133981D01*
X0147521Y0134581D01*
X0146320Y0134581D01*
X0145719Y0133981D01*
X0140782Y0133380D02*
X0140782Y0132179D01*
X0139581Y0130978D01*
X0138300Y0131579D02*
X0137699Y0130978D01*
X0136498Y0130978D01*
X0135898Y0131579D01*
X0135898Y0133981D01*
X0136498Y0134581D01*
X0137699Y0134581D01*
X0138300Y0133981D01*
X0139581Y0134581D02*
X0140782Y0133380D01*
X0134643Y0134581D02*
X0133442Y0133380D01*
X0133442Y0132179D01*
X0134643Y0130978D01*
D14*
X0128659Y0138196D02*
X0128659Y0115361D01*
X0105825Y0115361D01*
X0105825Y0138196D01*
X0128659Y0138196D01*
X0124329Y0133865D02*
X0124329Y0119692D01*
X0110156Y0119692D01*
X0110156Y0133865D01*
X0124329Y0133865D01*
X0126242Y0141778D02*
X0126244Y0141841D01*
X0126250Y0141903D01*
X0126260Y0141965D01*
X0126273Y0142027D01*
X0126291Y0142087D01*
X0126312Y0142146D01*
X0126337Y0142204D01*
X0126366Y0142260D01*
X0126398Y0142314D01*
X0126433Y0142366D01*
X0126471Y0142415D01*
X0126513Y0142463D01*
X0126557Y0142507D01*
X0126605Y0142549D01*
X0126654Y0142587D01*
X0126706Y0142622D01*
X0126760Y0142654D01*
X0126816Y0142683D01*
X0126874Y0142708D01*
X0126933Y0142729D01*
X0126993Y0142747D01*
X0127055Y0142760D01*
X0127117Y0142770D01*
X0127179Y0142776D01*
X0127242Y0142778D01*
X0127305Y0142776D01*
X0127367Y0142770D01*
X0127429Y0142760D01*
X0127491Y0142747D01*
X0127551Y0142729D01*
X0127610Y0142708D01*
X0127668Y0142683D01*
X0127724Y0142654D01*
X0127778Y0142622D01*
X0127830Y0142587D01*
X0127879Y0142549D01*
X0127927Y0142507D01*
X0127971Y0142463D01*
X0128013Y0142415D01*
X0128051Y0142366D01*
X0128086Y0142314D01*
X0128118Y0142260D01*
X0128147Y0142204D01*
X0128172Y0142146D01*
X0128193Y0142087D01*
X0128211Y0142027D01*
X0128224Y0141965D01*
X0128234Y0141903D01*
X0128240Y0141841D01*
X0128242Y0141778D01*
X0128240Y0141715D01*
X0128234Y0141653D01*
X0128224Y0141591D01*
X0128211Y0141529D01*
X0128193Y0141469D01*
X0128172Y0141410D01*
X0128147Y0141352D01*
X0128118Y0141296D01*
X0128086Y0141242D01*
X0128051Y0141190D01*
X0128013Y0141141D01*
X0127971Y0141093D01*
X0127927Y0141049D01*
X0127879Y0141007D01*
X0127830Y0140969D01*
X0127778Y0140934D01*
X0127724Y0140902D01*
X0127668Y0140873D01*
X0127610Y0140848D01*
X0127551Y0140827D01*
X0127491Y0140809D01*
X0127429Y0140796D01*
X0127367Y0140786D01*
X0127305Y0140780D01*
X0127242Y0140778D01*
X0127179Y0140780D01*
X0127117Y0140786D01*
X0127055Y0140796D01*
X0126993Y0140809D01*
X0126933Y0140827D01*
X0126874Y0140848D01*
X0126816Y0140873D01*
X0126760Y0140902D01*
X0126706Y0140934D01*
X0126654Y0140969D01*
X0126605Y0141007D01*
X0126557Y0141049D01*
X0126513Y0141093D01*
X0126471Y0141141D01*
X0126433Y0141190D01*
X0126398Y0141242D01*
X0126366Y0141296D01*
X0126337Y0141352D01*
X0126312Y0141410D01*
X0126291Y0141469D01*
X0126273Y0141529D01*
X0126260Y0141591D01*
X0126250Y0141653D01*
X0126244Y0141715D01*
X0126242Y0141778D01*
X0119132Y0101109D02*
X0105352Y0101109D01*
X0105352Y0042448D01*
X0119132Y0042448D01*
X0119132Y0101109D01*
X0121242Y0096778D02*
X0121244Y0096841D01*
X0121250Y0096903D01*
X0121260Y0096965D01*
X0121273Y0097027D01*
X0121291Y0097087D01*
X0121312Y0097146D01*
X0121337Y0097204D01*
X0121366Y0097260D01*
X0121398Y0097314D01*
X0121433Y0097366D01*
X0121471Y0097415D01*
X0121513Y0097463D01*
X0121557Y0097507D01*
X0121605Y0097549D01*
X0121654Y0097587D01*
X0121706Y0097622D01*
X0121760Y0097654D01*
X0121816Y0097683D01*
X0121874Y0097708D01*
X0121933Y0097729D01*
X0121993Y0097747D01*
X0122055Y0097760D01*
X0122117Y0097770D01*
X0122179Y0097776D01*
X0122242Y0097778D01*
X0122305Y0097776D01*
X0122367Y0097770D01*
X0122429Y0097760D01*
X0122491Y0097747D01*
X0122551Y0097729D01*
X0122610Y0097708D01*
X0122668Y0097683D01*
X0122724Y0097654D01*
X0122778Y0097622D01*
X0122830Y0097587D01*
X0122879Y0097549D01*
X0122927Y0097507D01*
X0122971Y0097463D01*
X0123013Y0097415D01*
X0123051Y0097366D01*
X0123086Y0097314D01*
X0123118Y0097260D01*
X0123147Y0097204D01*
X0123172Y0097146D01*
X0123193Y0097087D01*
X0123211Y0097027D01*
X0123224Y0096965D01*
X0123234Y0096903D01*
X0123240Y0096841D01*
X0123242Y0096778D01*
X0123240Y0096715D01*
X0123234Y0096653D01*
X0123224Y0096591D01*
X0123211Y0096529D01*
X0123193Y0096469D01*
X0123172Y0096410D01*
X0123147Y0096352D01*
X0123118Y0096296D01*
X0123086Y0096242D01*
X0123051Y0096190D01*
X0123013Y0096141D01*
X0122971Y0096093D01*
X0122927Y0096049D01*
X0122879Y0096007D01*
X0122830Y0095969D01*
X0122778Y0095934D01*
X0122724Y0095902D01*
X0122668Y0095873D01*
X0122610Y0095848D01*
X0122551Y0095827D01*
X0122491Y0095809D01*
X0122429Y0095796D01*
X0122367Y0095786D01*
X0122305Y0095780D01*
X0122242Y0095778D01*
X0122179Y0095780D01*
X0122117Y0095786D01*
X0122055Y0095796D01*
X0121993Y0095809D01*
X0121933Y0095827D01*
X0121874Y0095848D01*
X0121816Y0095873D01*
X0121760Y0095902D01*
X0121706Y0095934D01*
X0121654Y0095969D01*
X0121605Y0096007D01*
X0121557Y0096049D01*
X0121513Y0096093D01*
X0121471Y0096141D01*
X0121433Y0096190D01*
X0121398Y0096242D01*
X0121366Y0096296D01*
X0121337Y0096352D01*
X0121312Y0096410D01*
X0121291Y0096469D01*
X0121273Y0096529D01*
X0121260Y0096591D01*
X0121250Y0096653D01*
X0121244Y0096715D01*
X0121242Y0096778D01*
X0142557Y0101306D02*
X0202400Y0101306D01*
X0202400Y0042251D01*
X0142557Y0042251D01*
X0142557Y0101306D01*
X0076927Y0101306D02*
X0076927Y0042251D01*
X0017085Y0042251D01*
X0017085Y0101306D01*
X0076927Y0101306D01*
X0060502Y0113574D02*
X0060502Y0137983D01*
X0048297Y0137983D01*
X0048297Y0113574D01*
X0060502Y0113574D01*
X0048297Y0113574D02*
X0017195Y0113574D01*
X0017195Y0116330D01*
X0010699Y0116330D01*
X0017195Y0116330D02*
X0017195Y0135227D01*
X0010699Y0135227D01*
X0017195Y0135227D02*
X0017195Y0137983D01*
X0048297Y0137983D01*
X0010699Y0135227D02*
X0010469Y0135224D01*
X0010239Y0135216D01*
X0010009Y0135202D01*
X0009780Y0135182D01*
X0009551Y0135157D01*
X0009323Y0135126D01*
X0009096Y0135090D01*
X0008870Y0135048D01*
X0008645Y0135001D01*
X0008421Y0134948D01*
X0008198Y0134890D01*
X0007977Y0134826D01*
X0007757Y0134757D01*
X0007539Y0134683D01*
X0007324Y0134604D01*
X0007110Y0134519D01*
X0006898Y0134429D01*
X0006688Y0134334D01*
X0006481Y0134233D01*
X0006277Y0134128D01*
X0006074Y0134018D01*
X0005875Y0133903D01*
X0005679Y0133783D01*
X0005485Y0133658D01*
X0005295Y0133529D01*
X0005108Y0133395D01*
X0004924Y0133257D01*
X0004744Y0133114D01*
X0004567Y0132967D01*
X0004394Y0132815D01*
X0004224Y0132660D01*
X0004058Y0132500D01*
X0003897Y0132336D01*
X0003739Y0132169D01*
X0003585Y0131997D01*
X0003436Y0131822D01*
X0003291Y0131644D01*
X0003150Y0131461D01*
X0003014Y0131276D01*
X0002883Y0131087D01*
X0002756Y0130895D01*
X0002633Y0130700D01*
X0002516Y0130502D01*
X0002403Y0130302D01*
X0002296Y0130098D01*
X0002193Y0129893D01*
X0002095Y0129684D01*
X0002003Y0129474D01*
X0001915Y0129261D01*
X0001833Y0129046D01*
X0001756Y0128829D01*
X0001684Y0128610D01*
X0001618Y0128390D01*
X0001557Y0128168D01*
X0001502Y0127945D01*
X0001452Y0127720D01*
X0001407Y0127494D01*
X0001368Y0127268D01*
X0001335Y0127040D01*
X0001307Y0126811D01*
X0001284Y0126582D01*
X0001268Y0126353D01*
X0001256Y0126123D01*
X0001251Y0125893D01*
X0001251Y0125663D01*
X0001256Y0125433D01*
X0001268Y0125203D01*
X0001284Y0124974D01*
X0001307Y0124745D01*
X0001335Y0124516D01*
X0001368Y0124288D01*
X0001407Y0124062D01*
X0001452Y0123836D01*
X0001502Y0123611D01*
X0001557Y0123388D01*
X0001618Y0123166D01*
X0001684Y0122946D01*
X0001756Y0122727D01*
X0001833Y0122510D01*
X0001915Y0122295D01*
X0002003Y0122082D01*
X0002095Y0121872D01*
X0002193Y0121663D01*
X0002296Y0121458D01*
X0002403Y0121254D01*
X0002516Y0121053D01*
X0002633Y0120856D01*
X0002756Y0120661D01*
X0002883Y0120469D01*
X0003014Y0120280D01*
X0003150Y0120095D01*
X0003291Y0119912D01*
X0003436Y0119734D01*
X0003585Y0119559D01*
X0003739Y0119387D01*
X0003897Y0119220D01*
X0004058Y0119056D01*
X0004224Y0118896D01*
X0004394Y0118741D01*
X0004567Y0118589D01*
X0004744Y0118442D01*
X0004924Y0118299D01*
X0005108Y0118161D01*
X0005295Y0118027D01*
X0005485Y0117898D01*
X0005679Y0117773D01*
X0005875Y0117653D01*
X0006074Y0117538D01*
X0006277Y0117428D01*
X0006481Y0117323D01*
X0006688Y0117222D01*
X0006898Y0117127D01*
X0007110Y0117037D01*
X0007324Y0116952D01*
X0007539Y0116873D01*
X0007757Y0116799D01*
X0007977Y0116730D01*
X0008198Y0116666D01*
X0008421Y0116608D01*
X0008645Y0116555D01*
X0008870Y0116508D01*
X0009096Y0116466D01*
X0009323Y0116430D01*
X0009551Y0116399D01*
X0009780Y0116374D01*
X0010009Y0116354D01*
X0010239Y0116340D01*
X0010469Y0116332D01*
X0010699Y0116329D01*
D15*
X0047542Y0139078D02*
X0049811Y0139078D01*
X0051225Y0139078D02*
X0053494Y0139078D01*
X0054908Y0139078D02*
X0056610Y0139078D01*
X0057177Y0139645D01*
X0057177Y0141914D01*
X0056610Y0142481D01*
X0054908Y0142481D01*
X0054908Y0139078D01*
X0052360Y0140780D02*
X0051225Y0140780D01*
X0051225Y0142481D02*
X0051225Y0139078D01*
X0051225Y0142481D02*
X0053494Y0142481D01*
X0058592Y0141347D02*
X0059726Y0142481D01*
X0059726Y0139078D01*
X0058592Y0139078D02*
X0060860Y0139078D01*
X0072742Y0138278D02*
X0072742Y0136778D01*
X0073242Y0136278D01*
X0073242Y0117278D01*
X0072742Y0116778D01*
X0072742Y0115278D01*
X0072744Y0115218D01*
X0072749Y0115157D01*
X0072758Y0115098D01*
X0072771Y0115039D01*
X0072787Y0114980D01*
X0072807Y0114923D01*
X0072830Y0114868D01*
X0072857Y0114813D01*
X0072886Y0114761D01*
X0072919Y0114710D01*
X0072955Y0114661D01*
X0072993Y0114615D01*
X0073035Y0114571D01*
X0073079Y0114529D01*
X0073125Y0114491D01*
X0073174Y0114455D01*
X0073225Y0114422D01*
X0073277Y0114393D01*
X0073332Y0114366D01*
X0073387Y0114343D01*
X0073444Y0114323D01*
X0073503Y0114307D01*
X0073562Y0114294D01*
X0073621Y0114285D01*
X0073682Y0114280D01*
X0073742Y0114278D01*
X0080742Y0114278D02*
X0080802Y0114280D01*
X0080863Y0114285D01*
X0080922Y0114294D01*
X0080981Y0114307D01*
X0081040Y0114323D01*
X0081097Y0114343D01*
X0081152Y0114366D01*
X0081207Y0114393D01*
X0081259Y0114422D01*
X0081310Y0114455D01*
X0081359Y0114491D01*
X0081405Y0114529D01*
X0081449Y0114571D01*
X0081491Y0114615D01*
X0081529Y0114661D01*
X0081565Y0114710D01*
X0081598Y0114761D01*
X0081627Y0114813D01*
X0081654Y0114868D01*
X0081677Y0114923D01*
X0081697Y0114980D01*
X0081713Y0115039D01*
X0081726Y0115098D01*
X0081735Y0115157D01*
X0081740Y0115218D01*
X0081742Y0115278D01*
X0081742Y0116778D01*
X0081242Y0117278D01*
X0081242Y0136278D01*
X0081742Y0136778D01*
X0081742Y0138278D01*
X0081740Y0138338D01*
X0081735Y0138399D01*
X0081726Y0138458D01*
X0081713Y0138517D01*
X0081697Y0138576D01*
X0081677Y0138633D01*
X0081654Y0138688D01*
X0081627Y0138743D01*
X0081598Y0138795D01*
X0081565Y0138846D01*
X0081529Y0138895D01*
X0081491Y0138941D01*
X0081449Y0138985D01*
X0081405Y0139027D01*
X0081359Y0139065D01*
X0081310Y0139101D01*
X0081259Y0139134D01*
X0081207Y0139163D01*
X0081152Y0139190D01*
X0081097Y0139213D01*
X0081040Y0139233D01*
X0080981Y0139249D01*
X0080922Y0139262D01*
X0080863Y0139271D01*
X0080802Y0139276D01*
X0080742Y0139278D01*
X0073742Y0139278D02*
X0073682Y0139276D01*
X0073621Y0139271D01*
X0073562Y0139262D01*
X0073503Y0139249D01*
X0073444Y0139233D01*
X0073387Y0139213D01*
X0073332Y0139190D01*
X0073277Y0139163D01*
X0073225Y0139134D01*
X0073174Y0139101D01*
X0073125Y0139065D01*
X0073079Y0139027D01*
X0073035Y0138985D01*
X0072993Y0138941D01*
X0072955Y0138895D01*
X0072919Y0138846D01*
X0072886Y0138795D01*
X0072857Y0138743D01*
X0072830Y0138688D01*
X0072807Y0138633D01*
X0072787Y0138576D01*
X0072771Y0138517D01*
X0072758Y0138458D01*
X0072749Y0138399D01*
X0072744Y0138338D01*
X0072742Y0138278D01*
X0074542Y0145578D02*
X0074542Y0148981D01*
X0076244Y0148981D01*
X0076811Y0148414D01*
X0076811Y0147280D01*
X0076244Y0146713D01*
X0074542Y0146713D01*
X0075676Y0146713D02*
X0076811Y0145578D01*
X0078225Y0145578D02*
X0080494Y0145578D01*
X0079360Y0145578D02*
X0079360Y0148981D01*
X0078225Y0147847D01*
X0089542Y0148981D02*
X0089542Y0145578D01*
X0089542Y0146713D02*
X0091244Y0146713D01*
X0091811Y0147280D01*
X0091811Y0148414D01*
X0091244Y0148981D01*
X0089542Y0148981D01*
X0090676Y0146713D02*
X0091811Y0145578D01*
X0093225Y0145578D02*
X0095494Y0147847D01*
X0095494Y0148414D01*
X0094927Y0148981D01*
X0093792Y0148981D01*
X0093225Y0148414D01*
X0093225Y0145578D02*
X0095494Y0145578D01*
X0095742Y0139278D02*
X0095802Y0139276D01*
X0095863Y0139271D01*
X0095922Y0139262D01*
X0095981Y0139249D01*
X0096040Y0139233D01*
X0096097Y0139213D01*
X0096152Y0139190D01*
X0096207Y0139163D01*
X0096259Y0139134D01*
X0096310Y0139101D01*
X0096359Y0139065D01*
X0096405Y0139027D01*
X0096449Y0138985D01*
X0096491Y0138941D01*
X0096529Y0138895D01*
X0096565Y0138846D01*
X0096598Y0138795D01*
X0096627Y0138743D01*
X0096654Y0138688D01*
X0096677Y0138633D01*
X0096697Y0138576D01*
X0096713Y0138517D01*
X0096726Y0138458D01*
X0096735Y0138399D01*
X0096740Y0138338D01*
X0096742Y0138278D01*
X0096742Y0136778D01*
X0096242Y0136278D01*
X0096242Y0117278D01*
X0096742Y0116778D01*
X0096742Y0115278D01*
X0096740Y0115218D01*
X0096735Y0115157D01*
X0096726Y0115098D01*
X0096713Y0115039D01*
X0096697Y0114980D01*
X0096677Y0114923D01*
X0096654Y0114868D01*
X0096627Y0114813D01*
X0096598Y0114761D01*
X0096565Y0114710D01*
X0096529Y0114661D01*
X0096491Y0114615D01*
X0096449Y0114571D01*
X0096405Y0114529D01*
X0096359Y0114491D01*
X0096310Y0114455D01*
X0096259Y0114422D01*
X0096207Y0114393D01*
X0096152Y0114366D01*
X0096097Y0114343D01*
X0096040Y0114323D01*
X0095981Y0114307D01*
X0095922Y0114294D01*
X0095863Y0114285D01*
X0095802Y0114280D01*
X0095742Y0114278D01*
X0088742Y0114278D02*
X0088682Y0114280D01*
X0088621Y0114285D01*
X0088562Y0114294D01*
X0088503Y0114307D01*
X0088444Y0114323D01*
X0088387Y0114343D01*
X0088332Y0114366D01*
X0088277Y0114393D01*
X0088225Y0114422D01*
X0088174Y0114455D01*
X0088125Y0114491D01*
X0088079Y0114529D01*
X0088035Y0114571D01*
X0087993Y0114615D01*
X0087955Y0114661D01*
X0087919Y0114710D01*
X0087886Y0114761D01*
X0087857Y0114813D01*
X0087830Y0114868D01*
X0087807Y0114923D01*
X0087787Y0114980D01*
X0087771Y0115039D01*
X0087758Y0115098D01*
X0087749Y0115157D01*
X0087744Y0115218D01*
X0087742Y0115278D01*
X0087742Y0116778D01*
X0088242Y0117278D01*
X0088242Y0136278D01*
X0087742Y0136778D01*
X0087742Y0138278D01*
X0087744Y0138338D01*
X0087749Y0138399D01*
X0087758Y0138458D01*
X0087771Y0138517D01*
X0087787Y0138576D01*
X0087807Y0138633D01*
X0087830Y0138688D01*
X0087857Y0138743D01*
X0087886Y0138795D01*
X0087919Y0138846D01*
X0087955Y0138895D01*
X0087993Y0138941D01*
X0088035Y0138985D01*
X0088079Y0139027D01*
X0088125Y0139065D01*
X0088174Y0139101D01*
X0088225Y0139134D01*
X0088277Y0139163D01*
X0088332Y0139190D01*
X0088387Y0139213D01*
X0088444Y0139233D01*
X0088503Y0139249D01*
X0088562Y0139262D01*
X0088621Y0139271D01*
X0088682Y0139276D01*
X0088742Y0139278D01*
X0106542Y0141078D02*
X0106542Y0144481D01*
X0108244Y0144481D01*
X0108811Y0143914D01*
X0108811Y0142780D01*
X0108244Y0142213D01*
X0106542Y0142213D01*
X0110225Y0142780D02*
X0111927Y0142780D01*
X0112494Y0142213D01*
X0112494Y0141645D01*
X0111927Y0141078D01*
X0110225Y0141078D01*
X0110225Y0144481D01*
X0111927Y0144481D01*
X0112494Y0143914D01*
X0112494Y0143347D01*
X0111927Y0142780D01*
X0113908Y0143347D02*
X0115043Y0144481D01*
X0115043Y0141078D01*
X0116177Y0141078D02*
X0113908Y0141078D01*
X0114169Y0107048D02*
X0114169Y0103645D01*
X0115303Y0103645D02*
X0113034Y0103645D01*
X0111620Y0103645D02*
X0111620Y0107048D01*
X0113034Y0105914D02*
X0114169Y0107048D01*
X0111620Y0103645D02*
X0110486Y0104780D01*
X0109351Y0103645D01*
X0109351Y0107048D01*
X0107937Y0106481D02*
X0107370Y0107048D01*
X0106235Y0107048D01*
X0105668Y0106481D01*
X0105668Y0105914D01*
X0106235Y0105347D01*
X0107370Y0105347D01*
X0107937Y0104780D01*
X0107937Y0104212D01*
X0107370Y0103645D01*
X0106235Y0103645D01*
X0105668Y0104212D01*
X0135354Y0100097D02*
X0135354Y0098962D01*
X0135921Y0098395D01*
X0135354Y0096981D02*
X0138757Y0094712D01*
X0138757Y0096981D02*
X0135354Y0094712D01*
X0138757Y0098395D02*
X0136488Y0100664D01*
X0135921Y0100664D01*
X0135354Y0100097D01*
X0138757Y0100664D02*
X0138757Y0098395D01*
X0084127Y0048030D02*
X0084127Y0045761D01*
X0084127Y0046896D02*
X0080724Y0046896D01*
X0081859Y0045761D01*
X0080724Y0044347D02*
X0084127Y0042078D01*
X0084127Y0044347D02*
X0080724Y0042078D01*
X0047542Y0139078D02*
X0047542Y0142481D01*
M02*
