G75*
%MOIN*%
%OFA0B0*%
%FSLAX25Y25*%
%IPPOS*%
%LPD*%
%AMOC8*
5,1,8,0,0,1.08239X$1,22.5*
%
%ADD10C,0.00000*%
%ADD11C,0.00800*%
%ADD12C,0.00400*%
D10*
X0017242Y0036778D02*
X0017242Y0150952D01*
X0202281Y0150952D01*
X0202281Y0036778D01*
X0017242Y0036778D01*
X0050943Y0046778D02*
X0050945Y0046936D01*
X0050951Y0047094D01*
X0050961Y0047252D01*
X0050975Y0047410D01*
X0050993Y0047567D01*
X0051014Y0047724D01*
X0051040Y0047880D01*
X0051070Y0048036D01*
X0051103Y0048191D01*
X0051141Y0048344D01*
X0051182Y0048497D01*
X0051227Y0048649D01*
X0051276Y0048800D01*
X0051329Y0048949D01*
X0051385Y0049097D01*
X0051445Y0049243D01*
X0051509Y0049388D01*
X0051577Y0049531D01*
X0051648Y0049673D01*
X0051722Y0049813D01*
X0051800Y0049950D01*
X0051882Y0050086D01*
X0051966Y0050220D01*
X0052055Y0050351D01*
X0052146Y0050480D01*
X0052241Y0050607D01*
X0052338Y0050732D01*
X0052439Y0050854D01*
X0052543Y0050973D01*
X0052650Y0051090D01*
X0052760Y0051204D01*
X0052873Y0051315D01*
X0052988Y0051424D01*
X0053106Y0051529D01*
X0053227Y0051631D01*
X0053350Y0051731D01*
X0053476Y0051827D01*
X0053604Y0051920D01*
X0053734Y0052010D01*
X0053867Y0052096D01*
X0054002Y0052180D01*
X0054138Y0052259D01*
X0054277Y0052336D01*
X0054418Y0052408D01*
X0054560Y0052478D01*
X0054704Y0052543D01*
X0054850Y0052605D01*
X0054997Y0052663D01*
X0055146Y0052718D01*
X0055296Y0052769D01*
X0055447Y0052816D01*
X0055599Y0052859D01*
X0055752Y0052898D01*
X0055907Y0052934D01*
X0056062Y0052965D01*
X0056218Y0052993D01*
X0056374Y0053017D01*
X0056531Y0053037D01*
X0056689Y0053053D01*
X0056846Y0053065D01*
X0057005Y0053073D01*
X0057163Y0053077D01*
X0057321Y0053077D01*
X0057479Y0053073D01*
X0057638Y0053065D01*
X0057795Y0053053D01*
X0057953Y0053037D01*
X0058110Y0053017D01*
X0058266Y0052993D01*
X0058422Y0052965D01*
X0058577Y0052934D01*
X0058732Y0052898D01*
X0058885Y0052859D01*
X0059037Y0052816D01*
X0059188Y0052769D01*
X0059338Y0052718D01*
X0059487Y0052663D01*
X0059634Y0052605D01*
X0059780Y0052543D01*
X0059924Y0052478D01*
X0060066Y0052408D01*
X0060207Y0052336D01*
X0060346Y0052259D01*
X0060482Y0052180D01*
X0060617Y0052096D01*
X0060750Y0052010D01*
X0060880Y0051920D01*
X0061008Y0051827D01*
X0061134Y0051731D01*
X0061257Y0051631D01*
X0061378Y0051529D01*
X0061496Y0051424D01*
X0061611Y0051315D01*
X0061724Y0051204D01*
X0061834Y0051090D01*
X0061941Y0050973D01*
X0062045Y0050854D01*
X0062146Y0050732D01*
X0062243Y0050607D01*
X0062338Y0050480D01*
X0062429Y0050351D01*
X0062518Y0050220D01*
X0062602Y0050086D01*
X0062684Y0049950D01*
X0062762Y0049813D01*
X0062836Y0049673D01*
X0062907Y0049531D01*
X0062975Y0049388D01*
X0063039Y0049243D01*
X0063099Y0049097D01*
X0063155Y0048949D01*
X0063208Y0048800D01*
X0063257Y0048649D01*
X0063302Y0048497D01*
X0063343Y0048344D01*
X0063381Y0048191D01*
X0063414Y0048036D01*
X0063444Y0047880D01*
X0063470Y0047724D01*
X0063491Y0047567D01*
X0063509Y0047410D01*
X0063523Y0047252D01*
X0063533Y0047094D01*
X0063539Y0046936D01*
X0063541Y0046778D01*
X0063539Y0046620D01*
X0063533Y0046462D01*
X0063523Y0046304D01*
X0063509Y0046146D01*
X0063491Y0045989D01*
X0063470Y0045832D01*
X0063444Y0045676D01*
X0063414Y0045520D01*
X0063381Y0045365D01*
X0063343Y0045212D01*
X0063302Y0045059D01*
X0063257Y0044907D01*
X0063208Y0044756D01*
X0063155Y0044607D01*
X0063099Y0044459D01*
X0063039Y0044313D01*
X0062975Y0044168D01*
X0062907Y0044025D01*
X0062836Y0043883D01*
X0062762Y0043743D01*
X0062684Y0043606D01*
X0062602Y0043470D01*
X0062518Y0043336D01*
X0062429Y0043205D01*
X0062338Y0043076D01*
X0062243Y0042949D01*
X0062146Y0042824D01*
X0062045Y0042702D01*
X0061941Y0042583D01*
X0061834Y0042466D01*
X0061724Y0042352D01*
X0061611Y0042241D01*
X0061496Y0042132D01*
X0061378Y0042027D01*
X0061257Y0041925D01*
X0061134Y0041825D01*
X0061008Y0041729D01*
X0060880Y0041636D01*
X0060750Y0041546D01*
X0060617Y0041460D01*
X0060482Y0041376D01*
X0060346Y0041297D01*
X0060207Y0041220D01*
X0060066Y0041148D01*
X0059924Y0041078D01*
X0059780Y0041013D01*
X0059634Y0040951D01*
X0059487Y0040893D01*
X0059338Y0040838D01*
X0059188Y0040787D01*
X0059037Y0040740D01*
X0058885Y0040697D01*
X0058732Y0040658D01*
X0058577Y0040622D01*
X0058422Y0040591D01*
X0058266Y0040563D01*
X0058110Y0040539D01*
X0057953Y0040519D01*
X0057795Y0040503D01*
X0057638Y0040491D01*
X0057479Y0040483D01*
X0057321Y0040479D01*
X0057163Y0040479D01*
X0057005Y0040483D01*
X0056846Y0040491D01*
X0056689Y0040503D01*
X0056531Y0040519D01*
X0056374Y0040539D01*
X0056218Y0040563D01*
X0056062Y0040591D01*
X0055907Y0040622D01*
X0055752Y0040658D01*
X0055599Y0040697D01*
X0055447Y0040740D01*
X0055296Y0040787D01*
X0055146Y0040838D01*
X0054997Y0040893D01*
X0054850Y0040951D01*
X0054704Y0041013D01*
X0054560Y0041078D01*
X0054418Y0041148D01*
X0054277Y0041220D01*
X0054138Y0041297D01*
X0054002Y0041376D01*
X0053867Y0041460D01*
X0053734Y0041546D01*
X0053604Y0041636D01*
X0053476Y0041729D01*
X0053350Y0041825D01*
X0053227Y0041925D01*
X0053106Y0042027D01*
X0052988Y0042132D01*
X0052873Y0042241D01*
X0052760Y0042352D01*
X0052650Y0042466D01*
X0052543Y0042583D01*
X0052439Y0042702D01*
X0052338Y0042824D01*
X0052241Y0042949D01*
X0052146Y0043076D01*
X0052055Y0043205D01*
X0051966Y0043336D01*
X0051882Y0043470D01*
X0051800Y0043606D01*
X0051722Y0043743D01*
X0051648Y0043883D01*
X0051577Y0044025D01*
X0051509Y0044168D01*
X0051445Y0044313D01*
X0051385Y0044459D01*
X0051329Y0044607D01*
X0051276Y0044756D01*
X0051227Y0044907D01*
X0051182Y0045059D01*
X0051141Y0045212D01*
X0051103Y0045365D01*
X0051070Y0045520D01*
X0051040Y0045676D01*
X0051014Y0045832D01*
X0050993Y0045989D01*
X0050975Y0046146D01*
X0050961Y0046304D01*
X0050951Y0046462D01*
X0050945Y0046620D01*
X0050943Y0046778D01*
X0050943Y0096778D02*
X0050945Y0096936D01*
X0050951Y0097094D01*
X0050961Y0097252D01*
X0050975Y0097410D01*
X0050993Y0097567D01*
X0051014Y0097724D01*
X0051040Y0097880D01*
X0051070Y0098036D01*
X0051103Y0098191D01*
X0051141Y0098344D01*
X0051182Y0098497D01*
X0051227Y0098649D01*
X0051276Y0098800D01*
X0051329Y0098949D01*
X0051385Y0099097D01*
X0051445Y0099243D01*
X0051509Y0099388D01*
X0051577Y0099531D01*
X0051648Y0099673D01*
X0051722Y0099813D01*
X0051800Y0099950D01*
X0051882Y0100086D01*
X0051966Y0100220D01*
X0052055Y0100351D01*
X0052146Y0100480D01*
X0052241Y0100607D01*
X0052338Y0100732D01*
X0052439Y0100854D01*
X0052543Y0100973D01*
X0052650Y0101090D01*
X0052760Y0101204D01*
X0052873Y0101315D01*
X0052988Y0101424D01*
X0053106Y0101529D01*
X0053227Y0101631D01*
X0053350Y0101731D01*
X0053476Y0101827D01*
X0053604Y0101920D01*
X0053734Y0102010D01*
X0053867Y0102096D01*
X0054002Y0102180D01*
X0054138Y0102259D01*
X0054277Y0102336D01*
X0054418Y0102408D01*
X0054560Y0102478D01*
X0054704Y0102543D01*
X0054850Y0102605D01*
X0054997Y0102663D01*
X0055146Y0102718D01*
X0055296Y0102769D01*
X0055447Y0102816D01*
X0055599Y0102859D01*
X0055752Y0102898D01*
X0055907Y0102934D01*
X0056062Y0102965D01*
X0056218Y0102993D01*
X0056374Y0103017D01*
X0056531Y0103037D01*
X0056689Y0103053D01*
X0056846Y0103065D01*
X0057005Y0103073D01*
X0057163Y0103077D01*
X0057321Y0103077D01*
X0057479Y0103073D01*
X0057638Y0103065D01*
X0057795Y0103053D01*
X0057953Y0103037D01*
X0058110Y0103017D01*
X0058266Y0102993D01*
X0058422Y0102965D01*
X0058577Y0102934D01*
X0058732Y0102898D01*
X0058885Y0102859D01*
X0059037Y0102816D01*
X0059188Y0102769D01*
X0059338Y0102718D01*
X0059487Y0102663D01*
X0059634Y0102605D01*
X0059780Y0102543D01*
X0059924Y0102478D01*
X0060066Y0102408D01*
X0060207Y0102336D01*
X0060346Y0102259D01*
X0060482Y0102180D01*
X0060617Y0102096D01*
X0060750Y0102010D01*
X0060880Y0101920D01*
X0061008Y0101827D01*
X0061134Y0101731D01*
X0061257Y0101631D01*
X0061378Y0101529D01*
X0061496Y0101424D01*
X0061611Y0101315D01*
X0061724Y0101204D01*
X0061834Y0101090D01*
X0061941Y0100973D01*
X0062045Y0100854D01*
X0062146Y0100732D01*
X0062243Y0100607D01*
X0062338Y0100480D01*
X0062429Y0100351D01*
X0062518Y0100220D01*
X0062602Y0100086D01*
X0062684Y0099950D01*
X0062762Y0099813D01*
X0062836Y0099673D01*
X0062907Y0099531D01*
X0062975Y0099388D01*
X0063039Y0099243D01*
X0063099Y0099097D01*
X0063155Y0098949D01*
X0063208Y0098800D01*
X0063257Y0098649D01*
X0063302Y0098497D01*
X0063343Y0098344D01*
X0063381Y0098191D01*
X0063414Y0098036D01*
X0063444Y0097880D01*
X0063470Y0097724D01*
X0063491Y0097567D01*
X0063509Y0097410D01*
X0063523Y0097252D01*
X0063533Y0097094D01*
X0063539Y0096936D01*
X0063541Y0096778D01*
X0063539Y0096620D01*
X0063533Y0096462D01*
X0063523Y0096304D01*
X0063509Y0096146D01*
X0063491Y0095989D01*
X0063470Y0095832D01*
X0063444Y0095676D01*
X0063414Y0095520D01*
X0063381Y0095365D01*
X0063343Y0095212D01*
X0063302Y0095059D01*
X0063257Y0094907D01*
X0063208Y0094756D01*
X0063155Y0094607D01*
X0063099Y0094459D01*
X0063039Y0094313D01*
X0062975Y0094168D01*
X0062907Y0094025D01*
X0062836Y0093883D01*
X0062762Y0093743D01*
X0062684Y0093606D01*
X0062602Y0093470D01*
X0062518Y0093336D01*
X0062429Y0093205D01*
X0062338Y0093076D01*
X0062243Y0092949D01*
X0062146Y0092824D01*
X0062045Y0092702D01*
X0061941Y0092583D01*
X0061834Y0092466D01*
X0061724Y0092352D01*
X0061611Y0092241D01*
X0061496Y0092132D01*
X0061378Y0092027D01*
X0061257Y0091925D01*
X0061134Y0091825D01*
X0061008Y0091729D01*
X0060880Y0091636D01*
X0060750Y0091546D01*
X0060617Y0091460D01*
X0060482Y0091376D01*
X0060346Y0091297D01*
X0060207Y0091220D01*
X0060066Y0091148D01*
X0059924Y0091078D01*
X0059780Y0091013D01*
X0059634Y0090951D01*
X0059487Y0090893D01*
X0059338Y0090838D01*
X0059188Y0090787D01*
X0059037Y0090740D01*
X0058885Y0090697D01*
X0058732Y0090658D01*
X0058577Y0090622D01*
X0058422Y0090591D01*
X0058266Y0090563D01*
X0058110Y0090539D01*
X0057953Y0090519D01*
X0057795Y0090503D01*
X0057638Y0090491D01*
X0057479Y0090483D01*
X0057321Y0090479D01*
X0057163Y0090479D01*
X0057005Y0090483D01*
X0056846Y0090491D01*
X0056689Y0090503D01*
X0056531Y0090519D01*
X0056374Y0090539D01*
X0056218Y0090563D01*
X0056062Y0090591D01*
X0055907Y0090622D01*
X0055752Y0090658D01*
X0055599Y0090697D01*
X0055447Y0090740D01*
X0055296Y0090787D01*
X0055146Y0090838D01*
X0054997Y0090893D01*
X0054850Y0090951D01*
X0054704Y0091013D01*
X0054560Y0091078D01*
X0054418Y0091148D01*
X0054277Y0091220D01*
X0054138Y0091297D01*
X0054002Y0091376D01*
X0053867Y0091460D01*
X0053734Y0091546D01*
X0053604Y0091636D01*
X0053476Y0091729D01*
X0053350Y0091825D01*
X0053227Y0091925D01*
X0053106Y0092027D01*
X0052988Y0092132D01*
X0052873Y0092241D01*
X0052760Y0092352D01*
X0052650Y0092466D01*
X0052543Y0092583D01*
X0052439Y0092702D01*
X0052338Y0092824D01*
X0052241Y0092949D01*
X0052146Y0093076D01*
X0052055Y0093205D01*
X0051966Y0093336D01*
X0051882Y0093470D01*
X0051800Y0093606D01*
X0051722Y0093743D01*
X0051648Y0093883D01*
X0051577Y0094025D01*
X0051509Y0094168D01*
X0051445Y0094313D01*
X0051385Y0094459D01*
X0051329Y0094607D01*
X0051276Y0094756D01*
X0051227Y0094907D01*
X0051182Y0095059D01*
X0051141Y0095212D01*
X0051103Y0095365D01*
X0051070Y0095520D01*
X0051040Y0095676D01*
X0051014Y0095832D01*
X0050993Y0095989D01*
X0050975Y0096146D01*
X0050961Y0096304D01*
X0050951Y0096462D01*
X0050945Y0096620D01*
X0050943Y0096778D01*
X0155943Y0096778D02*
X0155945Y0096936D01*
X0155951Y0097094D01*
X0155961Y0097252D01*
X0155975Y0097410D01*
X0155993Y0097567D01*
X0156014Y0097724D01*
X0156040Y0097880D01*
X0156070Y0098036D01*
X0156103Y0098191D01*
X0156141Y0098344D01*
X0156182Y0098497D01*
X0156227Y0098649D01*
X0156276Y0098800D01*
X0156329Y0098949D01*
X0156385Y0099097D01*
X0156445Y0099243D01*
X0156509Y0099388D01*
X0156577Y0099531D01*
X0156648Y0099673D01*
X0156722Y0099813D01*
X0156800Y0099950D01*
X0156882Y0100086D01*
X0156966Y0100220D01*
X0157055Y0100351D01*
X0157146Y0100480D01*
X0157241Y0100607D01*
X0157338Y0100732D01*
X0157439Y0100854D01*
X0157543Y0100973D01*
X0157650Y0101090D01*
X0157760Y0101204D01*
X0157873Y0101315D01*
X0157988Y0101424D01*
X0158106Y0101529D01*
X0158227Y0101631D01*
X0158350Y0101731D01*
X0158476Y0101827D01*
X0158604Y0101920D01*
X0158734Y0102010D01*
X0158867Y0102096D01*
X0159002Y0102180D01*
X0159138Y0102259D01*
X0159277Y0102336D01*
X0159418Y0102408D01*
X0159560Y0102478D01*
X0159704Y0102543D01*
X0159850Y0102605D01*
X0159997Y0102663D01*
X0160146Y0102718D01*
X0160296Y0102769D01*
X0160447Y0102816D01*
X0160599Y0102859D01*
X0160752Y0102898D01*
X0160907Y0102934D01*
X0161062Y0102965D01*
X0161218Y0102993D01*
X0161374Y0103017D01*
X0161531Y0103037D01*
X0161689Y0103053D01*
X0161846Y0103065D01*
X0162005Y0103073D01*
X0162163Y0103077D01*
X0162321Y0103077D01*
X0162479Y0103073D01*
X0162638Y0103065D01*
X0162795Y0103053D01*
X0162953Y0103037D01*
X0163110Y0103017D01*
X0163266Y0102993D01*
X0163422Y0102965D01*
X0163577Y0102934D01*
X0163732Y0102898D01*
X0163885Y0102859D01*
X0164037Y0102816D01*
X0164188Y0102769D01*
X0164338Y0102718D01*
X0164487Y0102663D01*
X0164634Y0102605D01*
X0164780Y0102543D01*
X0164924Y0102478D01*
X0165066Y0102408D01*
X0165207Y0102336D01*
X0165346Y0102259D01*
X0165482Y0102180D01*
X0165617Y0102096D01*
X0165750Y0102010D01*
X0165880Y0101920D01*
X0166008Y0101827D01*
X0166134Y0101731D01*
X0166257Y0101631D01*
X0166378Y0101529D01*
X0166496Y0101424D01*
X0166611Y0101315D01*
X0166724Y0101204D01*
X0166834Y0101090D01*
X0166941Y0100973D01*
X0167045Y0100854D01*
X0167146Y0100732D01*
X0167243Y0100607D01*
X0167338Y0100480D01*
X0167429Y0100351D01*
X0167518Y0100220D01*
X0167602Y0100086D01*
X0167684Y0099950D01*
X0167762Y0099813D01*
X0167836Y0099673D01*
X0167907Y0099531D01*
X0167975Y0099388D01*
X0168039Y0099243D01*
X0168099Y0099097D01*
X0168155Y0098949D01*
X0168208Y0098800D01*
X0168257Y0098649D01*
X0168302Y0098497D01*
X0168343Y0098344D01*
X0168381Y0098191D01*
X0168414Y0098036D01*
X0168444Y0097880D01*
X0168470Y0097724D01*
X0168491Y0097567D01*
X0168509Y0097410D01*
X0168523Y0097252D01*
X0168533Y0097094D01*
X0168539Y0096936D01*
X0168541Y0096778D01*
X0168539Y0096620D01*
X0168533Y0096462D01*
X0168523Y0096304D01*
X0168509Y0096146D01*
X0168491Y0095989D01*
X0168470Y0095832D01*
X0168444Y0095676D01*
X0168414Y0095520D01*
X0168381Y0095365D01*
X0168343Y0095212D01*
X0168302Y0095059D01*
X0168257Y0094907D01*
X0168208Y0094756D01*
X0168155Y0094607D01*
X0168099Y0094459D01*
X0168039Y0094313D01*
X0167975Y0094168D01*
X0167907Y0094025D01*
X0167836Y0093883D01*
X0167762Y0093743D01*
X0167684Y0093606D01*
X0167602Y0093470D01*
X0167518Y0093336D01*
X0167429Y0093205D01*
X0167338Y0093076D01*
X0167243Y0092949D01*
X0167146Y0092824D01*
X0167045Y0092702D01*
X0166941Y0092583D01*
X0166834Y0092466D01*
X0166724Y0092352D01*
X0166611Y0092241D01*
X0166496Y0092132D01*
X0166378Y0092027D01*
X0166257Y0091925D01*
X0166134Y0091825D01*
X0166008Y0091729D01*
X0165880Y0091636D01*
X0165750Y0091546D01*
X0165617Y0091460D01*
X0165482Y0091376D01*
X0165346Y0091297D01*
X0165207Y0091220D01*
X0165066Y0091148D01*
X0164924Y0091078D01*
X0164780Y0091013D01*
X0164634Y0090951D01*
X0164487Y0090893D01*
X0164338Y0090838D01*
X0164188Y0090787D01*
X0164037Y0090740D01*
X0163885Y0090697D01*
X0163732Y0090658D01*
X0163577Y0090622D01*
X0163422Y0090591D01*
X0163266Y0090563D01*
X0163110Y0090539D01*
X0162953Y0090519D01*
X0162795Y0090503D01*
X0162638Y0090491D01*
X0162479Y0090483D01*
X0162321Y0090479D01*
X0162163Y0090479D01*
X0162005Y0090483D01*
X0161846Y0090491D01*
X0161689Y0090503D01*
X0161531Y0090519D01*
X0161374Y0090539D01*
X0161218Y0090563D01*
X0161062Y0090591D01*
X0160907Y0090622D01*
X0160752Y0090658D01*
X0160599Y0090697D01*
X0160447Y0090740D01*
X0160296Y0090787D01*
X0160146Y0090838D01*
X0159997Y0090893D01*
X0159850Y0090951D01*
X0159704Y0091013D01*
X0159560Y0091078D01*
X0159418Y0091148D01*
X0159277Y0091220D01*
X0159138Y0091297D01*
X0159002Y0091376D01*
X0158867Y0091460D01*
X0158734Y0091546D01*
X0158604Y0091636D01*
X0158476Y0091729D01*
X0158350Y0091825D01*
X0158227Y0091925D01*
X0158106Y0092027D01*
X0157988Y0092132D01*
X0157873Y0092241D01*
X0157760Y0092352D01*
X0157650Y0092466D01*
X0157543Y0092583D01*
X0157439Y0092702D01*
X0157338Y0092824D01*
X0157241Y0092949D01*
X0157146Y0093076D01*
X0157055Y0093205D01*
X0156966Y0093336D01*
X0156882Y0093470D01*
X0156800Y0093606D01*
X0156722Y0093743D01*
X0156648Y0093883D01*
X0156577Y0094025D01*
X0156509Y0094168D01*
X0156445Y0094313D01*
X0156385Y0094459D01*
X0156329Y0094607D01*
X0156276Y0094756D01*
X0156227Y0094907D01*
X0156182Y0095059D01*
X0156141Y0095212D01*
X0156103Y0095365D01*
X0156070Y0095520D01*
X0156040Y0095676D01*
X0156014Y0095832D01*
X0155993Y0095989D01*
X0155975Y0096146D01*
X0155961Y0096304D01*
X0155951Y0096462D01*
X0155945Y0096620D01*
X0155943Y0096778D01*
X0155943Y0046778D02*
X0155945Y0046936D01*
X0155951Y0047094D01*
X0155961Y0047252D01*
X0155975Y0047410D01*
X0155993Y0047567D01*
X0156014Y0047724D01*
X0156040Y0047880D01*
X0156070Y0048036D01*
X0156103Y0048191D01*
X0156141Y0048344D01*
X0156182Y0048497D01*
X0156227Y0048649D01*
X0156276Y0048800D01*
X0156329Y0048949D01*
X0156385Y0049097D01*
X0156445Y0049243D01*
X0156509Y0049388D01*
X0156577Y0049531D01*
X0156648Y0049673D01*
X0156722Y0049813D01*
X0156800Y0049950D01*
X0156882Y0050086D01*
X0156966Y0050220D01*
X0157055Y0050351D01*
X0157146Y0050480D01*
X0157241Y0050607D01*
X0157338Y0050732D01*
X0157439Y0050854D01*
X0157543Y0050973D01*
X0157650Y0051090D01*
X0157760Y0051204D01*
X0157873Y0051315D01*
X0157988Y0051424D01*
X0158106Y0051529D01*
X0158227Y0051631D01*
X0158350Y0051731D01*
X0158476Y0051827D01*
X0158604Y0051920D01*
X0158734Y0052010D01*
X0158867Y0052096D01*
X0159002Y0052180D01*
X0159138Y0052259D01*
X0159277Y0052336D01*
X0159418Y0052408D01*
X0159560Y0052478D01*
X0159704Y0052543D01*
X0159850Y0052605D01*
X0159997Y0052663D01*
X0160146Y0052718D01*
X0160296Y0052769D01*
X0160447Y0052816D01*
X0160599Y0052859D01*
X0160752Y0052898D01*
X0160907Y0052934D01*
X0161062Y0052965D01*
X0161218Y0052993D01*
X0161374Y0053017D01*
X0161531Y0053037D01*
X0161689Y0053053D01*
X0161846Y0053065D01*
X0162005Y0053073D01*
X0162163Y0053077D01*
X0162321Y0053077D01*
X0162479Y0053073D01*
X0162638Y0053065D01*
X0162795Y0053053D01*
X0162953Y0053037D01*
X0163110Y0053017D01*
X0163266Y0052993D01*
X0163422Y0052965D01*
X0163577Y0052934D01*
X0163732Y0052898D01*
X0163885Y0052859D01*
X0164037Y0052816D01*
X0164188Y0052769D01*
X0164338Y0052718D01*
X0164487Y0052663D01*
X0164634Y0052605D01*
X0164780Y0052543D01*
X0164924Y0052478D01*
X0165066Y0052408D01*
X0165207Y0052336D01*
X0165346Y0052259D01*
X0165482Y0052180D01*
X0165617Y0052096D01*
X0165750Y0052010D01*
X0165880Y0051920D01*
X0166008Y0051827D01*
X0166134Y0051731D01*
X0166257Y0051631D01*
X0166378Y0051529D01*
X0166496Y0051424D01*
X0166611Y0051315D01*
X0166724Y0051204D01*
X0166834Y0051090D01*
X0166941Y0050973D01*
X0167045Y0050854D01*
X0167146Y0050732D01*
X0167243Y0050607D01*
X0167338Y0050480D01*
X0167429Y0050351D01*
X0167518Y0050220D01*
X0167602Y0050086D01*
X0167684Y0049950D01*
X0167762Y0049813D01*
X0167836Y0049673D01*
X0167907Y0049531D01*
X0167975Y0049388D01*
X0168039Y0049243D01*
X0168099Y0049097D01*
X0168155Y0048949D01*
X0168208Y0048800D01*
X0168257Y0048649D01*
X0168302Y0048497D01*
X0168343Y0048344D01*
X0168381Y0048191D01*
X0168414Y0048036D01*
X0168444Y0047880D01*
X0168470Y0047724D01*
X0168491Y0047567D01*
X0168509Y0047410D01*
X0168523Y0047252D01*
X0168533Y0047094D01*
X0168539Y0046936D01*
X0168541Y0046778D01*
X0168539Y0046620D01*
X0168533Y0046462D01*
X0168523Y0046304D01*
X0168509Y0046146D01*
X0168491Y0045989D01*
X0168470Y0045832D01*
X0168444Y0045676D01*
X0168414Y0045520D01*
X0168381Y0045365D01*
X0168343Y0045212D01*
X0168302Y0045059D01*
X0168257Y0044907D01*
X0168208Y0044756D01*
X0168155Y0044607D01*
X0168099Y0044459D01*
X0168039Y0044313D01*
X0167975Y0044168D01*
X0167907Y0044025D01*
X0167836Y0043883D01*
X0167762Y0043743D01*
X0167684Y0043606D01*
X0167602Y0043470D01*
X0167518Y0043336D01*
X0167429Y0043205D01*
X0167338Y0043076D01*
X0167243Y0042949D01*
X0167146Y0042824D01*
X0167045Y0042702D01*
X0166941Y0042583D01*
X0166834Y0042466D01*
X0166724Y0042352D01*
X0166611Y0042241D01*
X0166496Y0042132D01*
X0166378Y0042027D01*
X0166257Y0041925D01*
X0166134Y0041825D01*
X0166008Y0041729D01*
X0165880Y0041636D01*
X0165750Y0041546D01*
X0165617Y0041460D01*
X0165482Y0041376D01*
X0165346Y0041297D01*
X0165207Y0041220D01*
X0165066Y0041148D01*
X0164924Y0041078D01*
X0164780Y0041013D01*
X0164634Y0040951D01*
X0164487Y0040893D01*
X0164338Y0040838D01*
X0164188Y0040787D01*
X0164037Y0040740D01*
X0163885Y0040697D01*
X0163732Y0040658D01*
X0163577Y0040622D01*
X0163422Y0040591D01*
X0163266Y0040563D01*
X0163110Y0040539D01*
X0162953Y0040519D01*
X0162795Y0040503D01*
X0162638Y0040491D01*
X0162479Y0040483D01*
X0162321Y0040479D01*
X0162163Y0040479D01*
X0162005Y0040483D01*
X0161846Y0040491D01*
X0161689Y0040503D01*
X0161531Y0040519D01*
X0161374Y0040539D01*
X0161218Y0040563D01*
X0161062Y0040591D01*
X0160907Y0040622D01*
X0160752Y0040658D01*
X0160599Y0040697D01*
X0160447Y0040740D01*
X0160296Y0040787D01*
X0160146Y0040838D01*
X0159997Y0040893D01*
X0159850Y0040951D01*
X0159704Y0041013D01*
X0159560Y0041078D01*
X0159418Y0041148D01*
X0159277Y0041220D01*
X0159138Y0041297D01*
X0159002Y0041376D01*
X0158867Y0041460D01*
X0158734Y0041546D01*
X0158604Y0041636D01*
X0158476Y0041729D01*
X0158350Y0041825D01*
X0158227Y0041925D01*
X0158106Y0042027D01*
X0157988Y0042132D01*
X0157873Y0042241D01*
X0157760Y0042352D01*
X0157650Y0042466D01*
X0157543Y0042583D01*
X0157439Y0042702D01*
X0157338Y0042824D01*
X0157241Y0042949D01*
X0157146Y0043076D01*
X0157055Y0043205D01*
X0156966Y0043336D01*
X0156882Y0043470D01*
X0156800Y0043606D01*
X0156722Y0043743D01*
X0156648Y0043883D01*
X0156577Y0044025D01*
X0156509Y0044168D01*
X0156445Y0044313D01*
X0156385Y0044459D01*
X0156329Y0044607D01*
X0156276Y0044756D01*
X0156227Y0044907D01*
X0156182Y0045059D01*
X0156141Y0045212D01*
X0156103Y0045365D01*
X0156070Y0045520D01*
X0156040Y0045676D01*
X0156014Y0045832D01*
X0155993Y0045989D01*
X0155975Y0046146D01*
X0155961Y0046304D01*
X0155951Y0046462D01*
X0155945Y0046620D01*
X0155943Y0046778D01*
D11*
X0156066Y0141178D02*
X0158135Y0141178D01*
X0159169Y0142213D01*
X0159169Y0144281D01*
X0158135Y0145315D01*
X0156066Y0145315D01*
X0155032Y0144281D01*
X0155032Y0143247D01*
X0159169Y0143247D01*
X0161478Y0145315D02*
X0163546Y0141178D01*
X0165615Y0145315D01*
X0167923Y0144281D02*
X0168957Y0145315D01*
X0171026Y0145315D01*
X0172060Y0144281D01*
X0172060Y0142213D01*
X0171026Y0141178D01*
X0168957Y0141178D01*
X0167923Y0142213D01*
X0167923Y0144281D01*
X0174369Y0145315D02*
X0178506Y0141178D01*
X0180814Y0144281D02*
X0184951Y0144281D01*
X0187260Y0141178D02*
X0191397Y0141178D01*
X0189328Y0141178D02*
X0189328Y0147384D01*
X0191397Y0145315D01*
X0193705Y0144281D02*
X0193705Y0143247D01*
X0197842Y0143247D01*
X0197842Y0144281D02*
X0196808Y0145315D01*
X0194739Y0145315D01*
X0193705Y0144281D01*
X0194739Y0141178D02*
X0196808Y0141178D01*
X0197842Y0142213D01*
X0197842Y0144281D01*
X0178506Y0145315D02*
X0174369Y0141178D01*
X0152724Y0141178D02*
X0152724Y0145315D01*
X0152724Y0143247D02*
X0150655Y0145315D01*
X0149621Y0145315D01*
D12*
X0149934Y0134581D02*
X0148132Y0134581D01*
X0147531Y0133981D01*
X0147531Y0133380D01*
X0148132Y0132780D01*
X0149934Y0132780D01*
X0151215Y0132780D02*
X0153617Y0132780D01*
X0154898Y0133981D02*
X0155498Y0134581D01*
X0156699Y0134581D01*
X0157300Y0133981D01*
X0157300Y0131579D01*
X0156699Y0130978D01*
X0155498Y0130978D01*
X0154898Y0131579D01*
X0158581Y0131579D02*
X0159181Y0130978D01*
X0160382Y0130978D01*
X0160983Y0131579D01*
X0160983Y0133981D01*
X0160382Y0134581D01*
X0159181Y0134581D01*
X0158581Y0133981D01*
X0165947Y0134581D02*
X0168349Y0130978D01*
X0167735Y0128581D02*
X0167135Y0128581D01*
X0167135Y0124978D01*
X0167735Y0124978D02*
X0166534Y0124978D01*
X0164679Y0125579D02*
X0164079Y0124978D01*
X0164679Y0125579D02*
X0164679Y0127981D01*
X0165280Y0127380D02*
X0164079Y0127380D01*
X0162825Y0126780D02*
X0162825Y0125579D01*
X0162224Y0124978D01*
X0161023Y0124978D01*
X0160423Y0126179D02*
X0162825Y0126179D01*
X0162825Y0126780D02*
X0162224Y0127380D01*
X0161023Y0127380D01*
X0160423Y0126780D01*
X0160423Y0126179D01*
X0159155Y0123182D02*
X0159155Y0122581D01*
X0159155Y0121380D02*
X0159155Y0118978D01*
X0159755Y0118978D02*
X0158554Y0118978D01*
X0157300Y0118978D02*
X0157300Y0121380D01*
X0155498Y0121380D01*
X0154898Y0120780D01*
X0154898Y0118978D01*
X0153617Y0119579D02*
X0153617Y0120780D01*
X0153016Y0121380D01*
X0151215Y0121380D01*
X0151215Y0118378D01*
X0151815Y0117777D01*
X0152416Y0117777D01*
X0153016Y0118978D02*
X0151215Y0118978D01*
X0149934Y0118978D02*
X0149333Y0118978D01*
X0149333Y0119579D01*
X0149934Y0119579D01*
X0149934Y0118978D01*
X0148092Y0119579D02*
X0148092Y0120780D01*
X0147491Y0121380D01*
X0146290Y0121380D01*
X0145690Y0120780D01*
X0145690Y0119579D01*
X0146290Y0118978D01*
X0147491Y0118978D01*
X0148092Y0119579D01*
X0144409Y0120179D02*
X0143208Y0121380D01*
X0142607Y0121380D01*
X0141340Y0120780D02*
X0141340Y0119579D01*
X0140739Y0118978D01*
X0138938Y0118978D01*
X0138938Y0118378D02*
X0138938Y0121380D01*
X0140739Y0121380D01*
X0141340Y0120780D01*
X0144409Y0121380D02*
X0144409Y0118978D01*
X0140139Y0117777D02*
X0139538Y0117777D01*
X0138938Y0118378D01*
X0153016Y0118978D02*
X0153617Y0119579D01*
X0159155Y0121380D02*
X0159755Y0121380D01*
X0161023Y0121380D02*
X0162825Y0120179D01*
X0161023Y0118978D01*
X0162825Y0118978D02*
X0162825Y0122581D01*
X0164092Y0121380D02*
X0164693Y0121380D01*
X0165894Y0120179D01*
X0165894Y0118978D02*
X0165894Y0121380D01*
X0167175Y0120780D02*
X0167175Y0119579D01*
X0167775Y0118978D01*
X0168976Y0118978D01*
X0169577Y0119579D01*
X0169577Y0120780D01*
X0168976Y0121380D01*
X0167775Y0121380D01*
X0167175Y0120780D01*
X0170858Y0121380D02*
X0170858Y0119579D01*
X0171459Y0118978D01*
X0172059Y0119579D01*
X0172660Y0118978D01*
X0173260Y0119579D01*
X0173260Y0121380D01*
X0174515Y0121380D02*
X0175716Y0121380D01*
X0175115Y0121981D02*
X0175115Y0119579D01*
X0174515Y0118978D01*
X0176997Y0120179D02*
X0179399Y0120179D01*
X0179399Y0119579D02*
X0179399Y0120780D01*
X0178798Y0121380D01*
X0177597Y0121380D01*
X0176997Y0120780D01*
X0176997Y0120179D01*
X0177597Y0118978D02*
X0178798Y0118978D01*
X0179399Y0119579D01*
X0180680Y0118978D02*
X0180680Y0120780D01*
X0181280Y0121380D01*
X0183082Y0121380D01*
X0183082Y0118978D01*
X0184363Y0119579D02*
X0184363Y0120780D01*
X0184963Y0121380D01*
X0186164Y0121380D01*
X0186765Y0120780D01*
X0186765Y0119579D01*
X0186164Y0118978D01*
X0184963Y0118978D01*
X0184363Y0119579D01*
X0188033Y0121380D02*
X0188633Y0121380D01*
X0189834Y0120179D01*
X0189834Y0118978D02*
X0189834Y0121380D01*
X0191089Y0121380D02*
X0192290Y0121380D01*
X0191689Y0121981D02*
X0191689Y0119579D01*
X0191089Y0118978D01*
X0193571Y0120179D02*
X0195973Y0120179D01*
X0195973Y0119579D02*
X0195973Y0120780D01*
X0195372Y0121380D01*
X0194171Y0121380D01*
X0193571Y0120780D01*
X0193571Y0120179D01*
X0194171Y0118978D02*
X0195372Y0118978D01*
X0195973Y0119579D01*
X0197241Y0121380D02*
X0197841Y0121380D01*
X0199042Y0120179D01*
X0199042Y0118978D02*
X0199042Y0121380D01*
X0199042Y0124978D02*
X0199042Y0128581D01*
X0199042Y0126780D02*
X0196640Y0126780D01*
X0195359Y0125579D02*
X0194758Y0126179D01*
X0192957Y0126179D01*
X0192957Y0126780D02*
X0192957Y0124978D01*
X0194758Y0124978D01*
X0195359Y0125579D01*
X0196640Y0124978D02*
X0196640Y0128581D01*
X0194758Y0127380D02*
X0193557Y0127380D01*
X0192957Y0126780D01*
X0191676Y0127380D02*
X0191676Y0124978D01*
X0191676Y0126179D02*
X0190475Y0127380D01*
X0189874Y0127380D01*
X0188006Y0127380D02*
X0186805Y0127380D01*
X0186205Y0126780D01*
X0186205Y0124978D01*
X0188006Y0124978D01*
X0188607Y0125579D01*
X0188006Y0126179D01*
X0186205Y0126179D01*
X0184923Y0124978D02*
X0183722Y0124978D01*
X0184323Y0124978D02*
X0184323Y0128581D01*
X0184923Y0128581D01*
X0182468Y0126780D02*
X0181867Y0127380D01*
X0180066Y0127380D01*
X0180066Y0128581D02*
X0180066Y0124978D01*
X0181867Y0124978D01*
X0182468Y0125579D01*
X0182468Y0126780D01*
X0182481Y0130978D02*
X0183082Y0131579D01*
X0180680Y0133981D01*
X0180680Y0131579D01*
X0181280Y0130978D01*
X0182481Y0130978D01*
X0183082Y0131579D02*
X0183082Y0133981D01*
X0182481Y0134581D01*
X0181280Y0134581D01*
X0180680Y0133981D01*
X0179399Y0133981D02*
X0178798Y0134581D01*
X0177597Y0134581D01*
X0176997Y0133981D01*
X0176997Y0133380D01*
X0179399Y0130978D01*
X0176997Y0130978D01*
X0175716Y0131579D02*
X0175115Y0130978D01*
X0173914Y0130978D01*
X0173314Y0131579D01*
X0173314Y0132780D01*
X0173914Y0133380D01*
X0174515Y0133380D01*
X0175716Y0132780D01*
X0175716Y0134581D01*
X0173314Y0134581D01*
X0172700Y0128581D02*
X0172700Y0124978D01*
X0173901Y0126179D01*
X0175102Y0124978D01*
X0175102Y0128581D01*
X0171419Y0126780D02*
X0170818Y0127380D01*
X0169617Y0127380D01*
X0169017Y0126780D01*
X0169017Y0126179D01*
X0171419Y0126179D01*
X0171419Y0125579D02*
X0171419Y0126780D01*
X0171419Y0125579D02*
X0170818Y0124978D01*
X0169617Y0124978D01*
X0184363Y0130978D02*
X0186765Y0130978D01*
X0184363Y0133380D01*
X0184363Y0133981D01*
X0184963Y0134581D01*
X0186164Y0134581D01*
X0186765Y0133981D01*
X0191703Y0133380D02*
X0191703Y0132179D01*
X0192904Y0130978D01*
X0194185Y0131579D02*
X0194785Y0130978D01*
X0195986Y0130978D01*
X0196587Y0131579D01*
X0196587Y0133981D01*
X0195986Y0134581D01*
X0194785Y0134581D01*
X0194185Y0133981D01*
X0192904Y0134581D02*
X0191703Y0133380D01*
X0197841Y0134581D02*
X0199042Y0133380D01*
X0199042Y0132179D01*
X0197841Y0130978D01*
X0149934Y0130978D02*
X0148132Y0130978D01*
X0147531Y0131579D01*
X0147531Y0132179D01*
X0148132Y0132780D01*
X0146250Y0133981D02*
X0145049Y0132780D01*
X0145049Y0130978D01*
X0145049Y0132780D02*
X0143848Y0133981D01*
X0143848Y0134581D01*
X0142567Y0132780D02*
X0140165Y0132780D01*
X0138884Y0133380D02*
X0138284Y0132780D01*
X0137083Y0132780D01*
X0136482Y0132179D01*
X0136482Y0131579D01*
X0137083Y0130978D01*
X0138284Y0130978D01*
X0138884Y0131579D01*
X0138884Y0133380D02*
X0138884Y0133981D01*
X0138284Y0134581D01*
X0137083Y0134581D01*
X0136482Y0133981D01*
X0135201Y0133380D02*
X0134000Y0134581D01*
X0132799Y0133380D01*
X0132799Y0130978D01*
X0132799Y0132780D02*
X0135201Y0132780D01*
X0135201Y0133380D02*
X0135201Y0130978D01*
X0146250Y0133981D02*
X0146250Y0134581D01*
X0149934Y0134581D02*
X0149934Y0130978D01*
M02*
