%
M48
M72
T01C0.01181
T02C0.03200
T03C0.03543
T04C0.03937
T05C0.12598
%
T01
X77242Y104778
X125242Y84778
X135242Y78778
X131242Y102778
T02
X77242Y111778
X92242Y111778
X92242Y141778
X77242Y141778
T03
X40982Y57723
X47990Y61739
X40982Y65735
X47990Y69751
X40982Y73806
X47990Y77822
X40982Y81818
X47990Y85833
X105549Y91463
X105549Y83589
X105549Y75715
X105549Y67841
X105549Y59967
X105549Y52093
X118935Y52093
X118935Y59967
X118935Y67841
X118935Y75715
X118935Y83589
X118935Y91463
X117242Y117920
X109368Y117920
X125116Y117920
X125116Y135637
X117242Y135637
X109368Y135637
X171494Y81818
X178502Y77822
X171494Y73806
X178502Y69751
X171494Y65735
X178502Y61739
X171494Y57723
X178502Y85833
T04
X49242Y120778
X39242Y120778
X39242Y130778
X49242Y130778
T05
X57242Y46778
X57242Y96778
X162242Y96778
X162242Y46778
M30
