G75*
%MOIN*%
%OFA0B0*%
%FSLAX25Y25*%
%IPPOS*%
%LPD*%
%AMOC8*
5,1,8,0,0,1.08239X$1,22.5*
%
%ADD10C,0.00000*%
%ADD11C,0.00600*%
%ADD12C,0.00500*%
%ADD13C,0.00800*%
%ADD14C,0.03000*%
%ADD15R,0.02000X0.03000*%
%ADD16R,0.04000X0.03000*%
%ADD17C,0.00400*%
%ADD18C,0.00300*%
%ADD19C,0.00900*%
D10*
X0030000Y0001800D02*
X0030000Y0133650D01*
X0179350Y0133650D01*
X0179350Y0001800D01*
X0030000Y0001800D01*
X0158228Y0074910D02*
X0158230Y0074994D01*
X0158236Y0075077D01*
X0158246Y0075160D01*
X0158260Y0075243D01*
X0158277Y0075325D01*
X0158299Y0075406D01*
X0158324Y0075485D01*
X0158353Y0075564D01*
X0158386Y0075641D01*
X0158422Y0075716D01*
X0158462Y0075790D01*
X0158505Y0075862D01*
X0158552Y0075931D01*
X0158602Y0075998D01*
X0158655Y0076063D01*
X0158711Y0076125D01*
X0158769Y0076185D01*
X0158831Y0076242D01*
X0158895Y0076295D01*
X0158962Y0076346D01*
X0159031Y0076393D01*
X0159102Y0076438D01*
X0159175Y0076478D01*
X0159250Y0076515D01*
X0159327Y0076549D01*
X0159405Y0076579D01*
X0159484Y0076605D01*
X0159565Y0076628D01*
X0159647Y0076646D01*
X0159729Y0076661D01*
X0159812Y0076672D01*
X0159895Y0076679D01*
X0159979Y0076682D01*
X0160063Y0076681D01*
X0160146Y0076676D01*
X0160230Y0076667D01*
X0160312Y0076654D01*
X0160394Y0076638D01*
X0160475Y0076617D01*
X0160556Y0076593D01*
X0160634Y0076565D01*
X0160712Y0076533D01*
X0160788Y0076497D01*
X0160862Y0076458D01*
X0160934Y0076416D01*
X0161004Y0076370D01*
X0161072Y0076321D01*
X0161137Y0076269D01*
X0161200Y0076214D01*
X0161260Y0076156D01*
X0161318Y0076095D01*
X0161372Y0076031D01*
X0161424Y0075965D01*
X0161472Y0075897D01*
X0161517Y0075826D01*
X0161558Y0075753D01*
X0161597Y0075679D01*
X0161631Y0075603D01*
X0161662Y0075525D01*
X0161689Y0075446D01*
X0161713Y0075365D01*
X0161732Y0075284D01*
X0161748Y0075202D01*
X0161760Y0075119D01*
X0161768Y0075035D01*
X0161772Y0074952D01*
X0161772Y0074868D01*
X0161768Y0074785D01*
X0161760Y0074701D01*
X0161748Y0074618D01*
X0161732Y0074536D01*
X0161713Y0074455D01*
X0161689Y0074374D01*
X0161662Y0074295D01*
X0161631Y0074217D01*
X0161597Y0074141D01*
X0161558Y0074067D01*
X0161517Y0073994D01*
X0161472Y0073923D01*
X0161424Y0073855D01*
X0161372Y0073789D01*
X0161318Y0073725D01*
X0161260Y0073664D01*
X0161200Y0073606D01*
X0161137Y0073551D01*
X0161072Y0073499D01*
X0161004Y0073450D01*
X0160934Y0073404D01*
X0160862Y0073362D01*
X0160788Y0073323D01*
X0160712Y0073287D01*
X0160634Y0073255D01*
X0160556Y0073227D01*
X0160475Y0073203D01*
X0160394Y0073182D01*
X0160312Y0073166D01*
X0160230Y0073153D01*
X0160146Y0073144D01*
X0160063Y0073139D01*
X0159979Y0073138D01*
X0159895Y0073141D01*
X0159812Y0073148D01*
X0159729Y0073159D01*
X0159647Y0073174D01*
X0159565Y0073192D01*
X0159484Y0073215D01*
X0159405Y0073241D01*
X0159327Y0073271D01*
X0159250Y0073305D01*
X0159175Y0073342D01*
X0159102Y0073382D01*
X0159031Y0073427D01*
X0158962Y0073474D01*
X0158895Y0073525D01*
X0158831Y0073578D01*
X0158769Y0073635D01*
X0158711Y0073695D01*
X0158655Y0073757D01*
X0158602Y0073822D01*
X0158552Y0073889D01*
X0158505Y0073958D01*
X0158462Y0074030D01*
X0158422Y0074104D01*
X0158386Y0074179D01*
X0158353Y0074256D01*
X0158324Y0074335D01*
X0158299Y0074414D01*
X0158277Y0074495D01*
X0158260Y0074577D01*
X0158246Y0074660D01*
X0158236Y0074743D01*
X0158230Y0074826D01*
X0158228Y0074910D01*
X0158228Y0088690D02*
X0158230Y0088774D01*
X0158236Y0088857D01*
X0158246Y0088940D01*
X0158260Y0089023D01*
X0158277Y0089105D01*
X0158299Y0089186D01*
X0158324Y0089265D01*
X0158353Y0089344D01*
X0158386Y0089421D01*
X0158422Y0089496D01*
X0158462Y0089570D01*
X0158505Y0089642D01*
X0158552Y0089711D01*
X0158602Y0089778D01*
X0158655Y0089843D01*
X0158711Y0089905D01*
X0158769Y0089965D01*
X0158831Y0090022D01*
X0158895Y0090075D01*
X0158962Y0090126D01*
X0159031Y0090173D01*
X0159102Y0090218D01*
X0159175Y0090258D01*
X0159250Y0090295D01*
X0159327Y0090329D01*
X0159405Y0090359D01*
X0159484Y0090385D01*
X0159565Y0090408D01*
X0159647Y0090426D01*
X0159729Y0090441D01*
X0159812Y0090452D01*
X0159895Y0090459D01*
X0159979Y0090462D01*
X0160063Y0090461D01*
X0160146Y0090456D01*
X0160230Y0090447D01*
X0160312Y0090434D01*
X0160394Y0090418D01*
X0160475Y0090397D01*
X0160556Y0090373D01*
X0160634Y0090345D01*
X0160712Y0090313D01*
X0160788Y0090277D01*
X0160862Y0090238D01*
X0160934Y0090196D01*
X0161004Y0090150D01*
X0161072Y0090101D01*
X0161137Y0090049D01*
X0161200Y0089994D01*
X0161260Y0089936D01*
X0161318Y0089875D01*
X0161372Y0089811D01*
X0161424Y0089745D01*
X0161472Y0089677D01*
X0161517Y0089606D01*
X0161558Y0089533D01*
X0161597Y0089459D01*
X0161631Y0089383D01*
X0161662Y0089305D01*
X0161689Y0089226D01*
X0161713Y0089145D01*
X0161732Y0089064D01*
X0161748Y0088982D01*
X0161760Y0088899D01*
X0161768Y0088815D01*
X0161772Y0088732D01*
X0161772Y0088648D01*
X0161768Y0088565D01*
X0161760Y0088481D01*
X0161748Y0088398D01*
X0161732Y0088316D01*
X0161713Y0088235D01*
X0161689Y0088154D01*
X0161662Y0088075D01*
X0161631Y0087997D01*
X0161597Y0087921D01*
X0161558Y0087847D01*
X0161517Y0087774D01*
X0161472Y0087703D01*
X0161424Y0087635D01*
X0161372Y0087569D01*
X0161318Y0087505D01*
X0161260Y0087444D01*
X0161200Y0087386D01*
X0161137Y0087331D01*
X0161072Y0087279D01*
X0161004Y0087230D01*
X0160934Y0087184D01*
X0160862Y0087142D01*
X0160788Y0087103D01*
X0160712Y0087067D01*
X0160634Y0087035D01*
X0160556Y0087007D01*
X0160475Y0086983D01*
X0160394Y0086962D01*
X0160312Y0086946D01*
X0160230Y0086933D01*
X0160146Y0086924D01*
X0160063Y0086919D01*
X0159979Y0086918D01*
X0159895Y0086921D01*
X0159812Y0086928D01*
X0159729Y0086939D01*
X0159647Y0086954D01*
X0159565Y0086972D01*
X0159484Y0086995D01*
X0159405Y0087021D01*
X0159327Y0087051D01*
X0159250Y0087085D01*
X0159175Y0087122D01*
X0159102Y0087162D01*
X0159031Y0087207D01*
X0158962Y0087254D01*
X0158895Y0087305D01*
X0158831Y0087358D01*
X0158769Y0087415D01*
X0158711Y0087475D01*
X0158655Y0087537D01*
X0158602Y0087602D01*
X0158552Y0087669D01*
X0158505Y0087738D01*
X0158462Y0087810D01*
X0158422Y0087884D01*
X0158386Y0087959D01*
X0158353Y0088036D01*
X0158324Y0088115D01*
X0158299Y0088194D01*
X0158277Y0088275D01*
X0158260Y0088357D01*
X0158246Y0088440D01*
X0158236Y0088523D01*
X0158230Y0088606D01*
X0158228Y0088690D01*
D11*
X0142500Y0071800D02*
X0137500Y0071800D01*
X0135000Y0069300D01*
X0135000Y0064300D01*
X0137500Y0061800D01*
X0142500Y0061800D01*
X0145000Y0064300D01*
X0145000Y0069300D01*
X0142500Y0071800D01*
X0140990Y0071505D02*
X0140990Y0065100D01*
X0143125Y0065100D02*
X0138854Y0065100D01*
X0136679Y0066168D02*
X0136679Y0071505D01*
X0135000Y0069300D02*
X0132500Y0071800D01*
X0127500Y0071800D01*
X0125000Y0069300D01*
X0125000Y0064300D01*
X0122500Y0061800D01*
X0117500Y0061800D01*
X0115000Y0064300D01*
X0112500Y0061800D01*
X0107500Y0061800D01*
X0105000Y0064300D01*
X0105000Y0069300D01*
X0107500Y0071800D01*
X0112500Y0071800D01*
X0115000Y0069300D01*
X0117500Y0071800D01*
X0122500Y0071800D01*
X0125000Y0069300D01*
X0125000Y0064300D02*
X0127500Y0061800D01*
X0132500Y0061800D01*
X0135000Y0064300D01*
X0135612Y0065100D02*
X0136679Y0066168D01*
X0135612Y0065100D02*
X0133477Y0065100D01*
X0132409Y0066168D01*
X0132409Y0071505D01*
X0138854Y0069370D02*
X0140990Y0071505D01*
X0134000Y0056800D02*
X0126000Y0056800D01*
X0125000Y0055800D01*
X0124000Y0056800D01*
X0116000Y0056800D01*
X0115000Y0055800D01*
X0115000Y0047800D01*
X0116000Y0046800D01*
X0124000Y0046800D01*
X0125000Y0047800D01*
X0126000Y0046800D01*
X0134000Y0046800D01*
X0135000Y0047800D01*
X0135000Y0055800D01*
X0134000Y0056800D01*
X0133114Y0054235D02*
X0135383Y0051966D01*
X0135950Y0052533D01*
X0135950Y0053668D01*
X0135383Y0054235D01*
X0133114Y0054235D01*
X0132547Y0053668D01*
X0132547Y0052533D01*
X0133114Y0051966D01*
X0135383Y0051966D01*
X0135950Y0050552D02*
X0135950Y0048283D01*
X0135950Y0049417D02*
X0132547Y0049417D01*
X0133681Y0048283D01*
X0133114Y0046869D02*
X0134249Y0046869D01*
X0134816Y0046301D01*
X0134816Y0044600D01*
X0135950Y0044600D02*
X0132547Y0044600D01*
X0132547Y0046301D01*
X0133114Y0046869D01*
X0134816Y0045734D02*
X0135950Y0046869D01*
X0120760Y0037753D02*
X0118492Y0037753D01*
X0118492Y0036051D01*
X0119626Y0036619D01*
X0120193Y0036619D01*
X0120760Y0036051D01*
X0120760Y0034917D01*
X0120193Y0034350D01*
X0119059Y0034350D01*
X0118492Y0034917D01*
X0117077Y0034350D02*
X0115943Y0035484D01*
X0116510Y0035484D02*
X0114809Y0035484D01*
X0114809Y0034350D02*
X0114809Y0037753D01*
X0116510Y0037753D01*
X0117077Y0037186D01*
X0117077Y0036051D01*
X0116510Y0035484D01*
X0116510Y0032753D02*
X0114809Y0032753D01*
X0114809Y0029350D01*
X0114809Y0030484D02*
X0116510Y0030484D01*
X0117077Y0031051D01*
X0117077Y0032186D01*
X0116510Y0032753D01*
X0115943Y0030484D02*
X0117077Y0029350D01*
X0116510Y0027753D02*
X0114809Y0027753D01*
X0114809Y0024350D01*
X0114809Y0025484D02*
X0116510Y0025484D01*
X0117077Y0026051D01*
X0117077Y0027186D01*
X0116510Y0027753D01*
X0118492Y0027186D02*
X0119059Y0027753D01*
X0120193Y0027753D01*
X0120760Y0027186D01*
X0120760Y0026619D01*
X0120193Y0026051D01*
X0120760Y0025484D01*
X0120760Y0024917D01*
X0120193Y0024350D01*
X0119059Y0024350D01*
X0118492Y0024917D01*
X0117077Y0024350D02*
X0115943Y0025484D01*
X0116510Y0022753D02*
X0114809Y0022753D01*
X0114809Y0019350D01*
X0114809Y0020484D02*
X0116510Y0020484D01*
X0117077Y0021051D01*
X0117077Y0022186D01*
X0116510Y0022753D01*
X0115943Y0020484D02*
X0117077Y0019350D01*
X0118492Y0019917D02*
X0118492Y0021051D01*
X0120193Y0021051D01*
X0120760Y0020484D01*
X0120760Y0019917D01*
X0120193Y0019350D01*
X0119059Y0019350D01*
X0118492Y0019917D01*
X0118492Y0021051D02*
X0119626Y0022186D01*
X0120760Y0022753D01*
X0120193Y0026051D02*
X0119626Y0026051D01*
X0120193Y0029350D02*
X0120193Y0032753D01*
X0118492Y0031051D01*
X0120760Y0031051D01*
X0120760Y0017753D02*
X0118492Y0017753D01*
X0117077Y0017186D02*
X0117077Y0016051D01*
X0116510Y0015484D01*
X0114809Y0015484D01*
X0114809Y0014350D02*
X0114809Y0017753D01*
X0116510Y0017753D01*
X0117077Y0017186D01*
X0115943Y0015484D02*
X0117077Y0014350D01*
X0116510Y0013378D02*
X0114809Y0013378D01*
X0114809Y0009975D01*
X0114809Y0011109D02*
X0116510Y0011109D01*
X0117077Y0011676D01*
X0117077Y0012811D01*
X0116510Y0013378D01*
X0118492Y0012811D02*
X0118492Y0012244D01*
X0119059Y0011676D01*
X0120193Y0011676D01*
X0120760Y0011109D01*
X0120760Y0010542D01*
X0120193Y0009975D01*
X0119059Y0009975D01*
X0118492Y0010542D01*
X0118492Y0011109D01*
X0119059Y0011676D01*
X0120193Y0011676D02*
X0120760Y0012244D01*
X0120760Y0012811D01*
X0120193Y0013378D01*
X0119059Y0013378D01*
X0118492Y0012811D01*
X0118492Y0014350D02*
X0118492Y0014917D01*
X0120760Y0017186D01*
X0120760Y0017753D01*
X0115943Y0011109D02*
X0117077Y0009975D01*
X0139672Y0022801D02*
X0140239Y0022234D01*
X0142508Y0022234D01*
X0143075Y0022801D01*
X0143075Y0023935D01*
X0142508Y0024502D01*
X0142508Y0025917D02*
X0143075Y0025917D01*
X0142508Y0025917D02*
X0140239Y0028185D01*
X0139672Y0028185D01*
X0139672Y0025917D01*
X0140239Y0024502D02*
X0139672Y0023935D01*
X0139672Y0022801D01*
X0144402Y0023611D02*
X0144772Y0023611D01*
X0144402Y0023611D02*
X0144402Y0029989D01*
X0144772Y0029989D01*
X0147945Y0029989D02*
X0152055Y0029989D01*
X0155228Y0029989D02*
X0155598Y0029989D01*
X0155598Y0023611D01*
X0155228Y0023611D01*
X0152055Y0023611D02*
X0151685Y0023611D01*
X0148315Y0023611D02*
X0147945Y0023611D01*
X0157742Y0035225D02*
X0158876Y0035225D01*
X0159444Y0035792D01*
X0160858Y0035792D02*
X0161425Y0035225D01*
X0162560Y0035225D01*
X0163127Y0035792D01*
X0163127Y0036359D01*
X0162560Y0036926D01*
X0161425Y0036926D01*
X0160858Y0037494D01*
X0160858Y0038061D01*
X0161425Y0038628D01*
X0162560Y0038628D01*
X0163127Y0038061D01*
X0163127Y0037494D01*
X0162560Y0036926D01*
X0161425Y0036926D02*
X0160858Y0036359D01*
X0160858Y0035792D01*
X0159444Y0038061D02*
X0158876Y0038628D01*
X0157742Y0038628D01*
X0157175Y0038061D01*
X0157175Y0035792D01*
X0157742Y0035225D01*
X0157175Y0041475D02*
X0157175Y0044878D01*
X0158876Y0044878D01*
X0159444Y0044311D01*
X0159444Y0043176D01*
X0158876Y0042609D01*
X0157175Y0042609D01*
X0158309Y0042609D02*
X0159444Y0041475D01*
X0160858Y0041475D02*
X0163127Y0041475D01*
X0161992Y0041475D02*
X0161992Y0044878D01*
X0160858Y0043744D01*
X0160691Y0045984D02*
X0160691Y0047685D01*
X0160124Y0048252D01*
X0158989Y0048252D01*
X0158422Y0047685D01*
X0158422Y0045984D01*
X0161825Y0045984D01*
X0163422Y0045926D02*
X0163422Y0047060D01*
X0163989Y0047627D01*
X0163422Y0045926D02*
X0163989Y0045359D01*
X0166258Y0045359D01*
X0166825Y0045926D01*
X0166825Y0047060D01*
X0166258Y0047627D01*
X0166258Y0049042D02*
X0166825Y0049609D01*
X0166825Y0050743D01*
X0166258Y0051310D01*
X0165124Y0051310D01*
X0164556Y0050743D01*
X0164556Y0050176D01*
X0165124Y0049042D01*
X0163422Y0049042D01*
X0163422Y0051310D01*
X0161825Y0051935D02*
X0161825Y0049667D01*
X0159556Y0051935D01*
X0158989Y0051935D01*
X0158422Y0051368D01*
X0158422Y0050234D01*
X0158989Y0049667D01*
X0160691Y0047118D02*
X0161825Y0048252D01*
X0115000Y0064300D02*
X0115000Y0069300D01*
X0092800Y0074000D02*
X0092800Y0089600D01*
X0077200Y0089600D01*
X0077200Y0074000D01*
X0092800Y0074000D01*
X0090500Y0074000D02*
X0089300Y0074000D01*
X0088600Y0074000D02*
X0087400Y0074000D01*
X0087800Y0074000D02*
X0092800Y0079000D01*
X0092800Y0079400D02*
X0092800Y0078200D01*
X0092800Y0077500D02*
X0092800Y0076300D01*
X0092800Y0080200D02*
X0092800Y0081400D01*
X0092800Y0082200D02*
X0092800Y0083400D01*
X0092800Y0084200D02*
X0092800Y0085400D01*
X0092800Y0086100D02*
X0092800Y0087300D01*
X0090500Y0089600D02*
X0089300Y0089600D01*
X0088600Y0089600D02*
X0087400Y0089600D01*
X0086600Y0089600D02*
X0085400Y0089600D01*
X0082600Y0089600D02*
X0081400Y0089600D01*
X0080700Y0089600D02*
X0079500Y0089600D01*
X0077200Y0087300D02*
X0077200Y0086100D01*
X0077200Y0085400D02*
X0077200Y0084200D01*
X0077200Y0083400D02*
X0077200Y0082200D01*
X0077200Y0081400D02*
X0077200Y0080200D01*
X0077200Y0079400D02*
X0077200Y0078200D01*
X0077200Y0077500D02*
X0077200Y0076300D01*
X0079500Y0074000D02*
X0080700Y0074000D01*
X0080441Y0072985D02*
X0079874Y0072418D01*
X0079874Y0071851D01*
X0079874Y0072418D02*
X0079306Y0072985D01*
X0078739Y0072985D01*
X0078172Y0072418D01*
X0078172Y0071283D01*
X0078739Y0070716D01*
X0081008Y0070716D02*
X0081575Y0071283D01*
X0081575Y0072418D01*
X0081008Y0072985D01*
X0080441Y0072985D01*
X0083400Y0074000D02*
X0084600Y0074000D01*
X0085400Y0074000D02*
X0086600Y0074000D01*
X0081575Y0069302D02*
X0081575Y0067033D01*
X0081575Y0068167D02*
X0078172Y0068167D01*
X0079306Y0067033D01*
X0078739Y0065619D02*
X0079874Y0065619D01*
X0080441Y0065051D01*
X0080441Y0063350D01*
X0081575Y0063350D02*
X0078172Y0063350D01*
X0078172Y0065051D01*
X0078739Y0065619D01*
X0080441Y0064484D02*
X0081575Y0065619D01*
X0076575Y0065619D02*
X0075441Y0064484D01*
X0075441Y0065051D02*
X0075441Y0063350D01*
X0076575Y0063350D02*
X0073172Y0063350D01*
X0073172Y0065051D01*
X0073739Y0065619D01*
X0074874Y0065619D01*
X0075441Y0065051D01*
X0076575Y0067033D02*
X0076575Y0069302D01*
X0076575Y0068167D02*
X0073172Y0068167D01*
X0074306Y0067033D01*
X0074874Y0070716D02*
X0074874Y0072985D01*
X0076575Y0072418D02*
X0073172Y0072418D01*
X0074874Y0070716D01*
X0065950Y0071417D02*
X0065950Y0072551D01*
X0065383Y0073119D01*
X0065383Y0074533D02*
X0065950Y0075100D01*
X0065950Y0076235D01*
X0065383Y0076802D01*
X0063114Y0076802D01*
X0062547Y0076235D01*
X0062547Y0075100D01*
X0063114Y0074533D01*
X0063681Y0074533D01*
X0064249Y0075100D01*
X0064249Y0076802D01*
X0063114Y0073119D02*
X0062547Y0072551D01*
X0062547Y0071417D01*
X0063114Y0070850D01*
X0065383Y0070850D01*
X0065950Y0071417D01*
X0037500Y0071800D02*
X0027500Y0071800D01*
X0027500Y0081800D01*
X0027500Y0091800D01*
X0027500Y0101800D01*
X0027500Y0111800D01*
X0027500Y0121800D01*
X0027500Y0131800D01*
X0037500Y0131800D01*
X0037500Y0121800D01*
X0027500Y0121800D01*
X0037500Y0121800D02*
X0037500Y0111800D01*
X0027500Y0111800D01*
X0037500Y0111800D02*
X0037500Y0101800D01*
X0027500Y0101800D01*
X0037500Y0101800D02*
X0037500Y0091800D01*
X0027500Y0091800D01*
X0037500Y0091800D02*
X0037500Y0081800D01*
X0027500Y0081800D01*
X0037500Y0081800D02*
X0037500Y0071800D01*
X0037500Y0066800D02*
X0027500Y0066800D01*
X0027500Y0056800D01*
X0027500Y0046800D01*
X0027500Y0036800D01*
X0027500Y0026800D01*
X0027500Y0016800D01*
X0027500Y0006800D01*
X0037500Y0006800D01*
X0037500Y0016800D01*
X0037500Y0026800D01*
X0037500Y0036800D01*
X0037500Y0046800D01*
X0037500Y0056800D01*
X0037500Y0066800D01*
X0037500Y0056800D02*
X0027500Y0056800D01*
X0027500Y0046800D02*
X0037500Y0046800D01*
X0037500Y0036800D02*
X0027500Y0036800D01*
X0027500Y0026800D02*
X0037500Y0026800D01*
X0037500Y0016800D02*
X0027500Y0016800D01*
X0062797Y0039801D02*
X0062797Y0041502D01*
X0063364Y0042069D01*
X0064499Y0042069D01*
X0065066Y0041502D01*
X0065066Y0039801D01*
X0065066Y0040935D02*
X0066200Y0042069D01*
X0066200Y0043484D02*
X0066200Y0045752D01*
X0066200Y0044618D02*
X0062797Y0044618D01*
X0063931Y0043484D01*
X0062797Y0039801D02*
X0066200Y0039801D01*
X0068422Y0039801D02*
X0068422Y0041502D01*
X0068989Y0042069D01*
X0070124Y0042069D01*
X0070691Y0041502D01*
X0070691Y0039801D01*
X0070691Y0040935D02*
X0071825Y0042069D01*
X0071825Y0043484D02*
X0071825Y0045752D01*
X0071825Y0044618D02*
X0068422Y0044618D01*
X0069556Y0043484D01*
X0068422Y0039801D02*
X0071825Y0039801D01*
X0071825Y0047167D02*
X0069556Y0049435D01*
X0068989Y0049435D01*
X0068422Y0048868D01*
X0068422Y0047734D01*
X0068989Y0047167D01*
X0071825Y0047167D02*
X0071825Y0049435D01*
X0066200Y0049435D02*
X0066200Y0047167D01*
X0066200Y0048301D02*
X0062797Y0048301D01*
X0063931Y0047167D01*
X0107117Y0090225D02*
X0108251Y0090225D01*
X0108819Y0090792D01*
X0110233Y0090225D02*
X0112502Y0090225D01*
X0111367Y0090225D02*
X0111367Y0093628D01*
X0110233Y0092494D01*
X0108819Y0093061D02*
X0108251Y0093628D01*
X0107117Y0093628D01*
X0106550Y0093061D01*
X0106550Y0090792D01*
X0107117Y0090225D01*
X0085950Y0093917D02*
X0085950Y0095051D01*
X0085383Y0095619D01*
X0085950Y0093917D02*
X0085383Y0093350D01*
X0083114Y0093350D01*
X0082547Y0093917D01*
X0082547Y0095051D01*
X0083114Y0095619D01*
X0084249Y0097033D02*
X0084249Y0099302D01*
X0085950Y0098735D02*
X0082547Y0098735D01*
X0084249Y0097033D01*
X0081443Y0105600D02*
X0082010Y0106167D01*
X0082010Y0106734D01*
X0081443Y0107301D01*
X0079742Y0107301D01*
X0079742Y0106167D01*
X0080309Y0105600D01*
X0081443Y0105600D01*
X0079742Y0107301D02*
X0080876Y0108436D01*
X0082010Y0109003D01*
X0077193Y0109003D02*
X0077193Y0105600D01*
X0076059Y0105600D02*
X0078327Y0105600D01*
X0076059Y0107869D02*
X0077193Y0109003D01*
X0074644Y0108436D02*
X0074644Y0107301D01*
X0074077Y0106734D01*
X0072376Y0106734D01*
X0073510Y0106734D02*
X0074644Y0105600D01*
X0072376Y0105600D02*
X0072376Y0109003D01*
X0074077Y0109003D01*
X0074644Y0108436D01*
X0069510Y0102753D02*
X0067242Y0102753D01*
X0067242Y0101051D01*
X0068376Y0101619D01*
X0068943Y0101619D01*
X0069510Y0101051D01*
X0069510Y0099917D01*
X0068943Y0099350D01*
X0067809Y0099350D01*
X0067242Y0099917D01*
X0065827Y0099350D02*
X0063559Y0099350D01*
X0064693Y0099350D02*
X0064693Y0102753D01*
X0063559Y0101619D01*
X0062144Y0102186D02*
X0062144Y0101051D01*
X0061577Y0100484D01*
X0059876Y0100484D01*
X0061010Y0100484D02*
X0062144Y0099350D01*
X0059876Y0099350D02*
X0059876Y0102753D01*
X0061577Y0102753D01*
X0062144Y0102186D01*
X0088172Y0120225D02*
X0088172Y0121926D01*
X0088739Y0122494D01*
X0089874Y0122494D01*
X0090441Y0121926D01*
X0090441Y0120225D01*
X0091575Y0120225D02*
X0088172Y0120225D01*
X0090441Y0121359D02*
X0091575Y0122494D01*
X0091008Y0123908D02*
X0091575Y0124475D01*
X0091575Y0125610D01*
X0091008Y0126177D01*
X0088739Y0126177D01*
X0088172Y0125610D01*
X0088172Y0124475D01*
X0088739Y0123908D01*
X0089306Y0123908D01*
X0089874Y0124475D01*
X0089874Y0126177D01*
X0083060Y0126244D02*
X0082493Y0125676D01*
X0081358Y0125676D01*
X0080791Y0126244D01*
X0080791Y0126811D01*
X0081358Y0127378D01*
X0082493Y0127378D01*
X0083060Y0126811D01*
X0083060Y0126244D01*
X0082493Y0125676D02*
X0083060Y0125109D01*
X0083060Y0124542D01*
X0082493Y0123975D01*
X0081358Y0123975D01*
X0080791Y0124542D01*
X0080791Y0125109D01*
X0081358Y0125676D01*
X0079377Y0123975D02*
X0077108Y0123975D01*
X0078242Y0123975D02*
X0078242Y0127378D01*
X0077108Y0126244D01*
X0075694Y0126811D02*
X0075694Y0125676D01*
X0075126Y0125109D01*
X0073425Y0125109D01*
X0073425Y0123975D02*
X0073425Y0127378D01*
X0075126Y0127378D01*
X0075694Y0126811D01*
X0074559Y0125109D02*
X0075694Y0123975D01*
X0065560Y0132436D02*
X0063291Y0130167D01*
X0063291Y0129600D01*
X0061877Y0129600D02*
X0059608Y0129600D01*
X0060742Y0129600D02*
X0060742Y0133003D01*
X0059608Y0131869D01*
X0058194Y0132436D02*
X0058194Y0131301D01*
X0057626Y0130734D01*
X0055925Y0130734D01*
X0055925Y0129600D02*
X0055925Y0133003D01*
X0057626Y0133003D01*
X0058194Y0132436D01*
X0057059Y0130734D02*
X0058194Y0129600D01*
X0063291Y0133003D02*
X0065560Y0133003D01*
X0065560Y0132436D01*
X0093797Y0114360D02*
X0093797Y0113225D01*
X0094364Y0112658D01*
X0094364Y0111244D02*
X0093797Y0110676D01*
X0093797Y0109542D01*
X0094364Y0108975D01*
X0096633Y0108975D01*
X0097200Y0109542D01*
X0097200Y0110676D01*
X0096633Y0111244D01*
X0097200Y0112658D02*
X0094931Y0114927D01*
X0094364Y0114927D01*
X0093797Y0114360D01*
X0097200Y0114927D02*
X0097200Y0112658D01*
X0098797Y0113225D02*
X0098797Y0114360D01*
X0099364Y0114927D01*
X0099931Y0114927D01*
X0100499Y0114360D01*
X0101066Y0114927D01*
X0101633Y0114927D01*
X0102200Y0114360D01*
X0102200Y0113225D01*
X0101633Y0112658D01*
X0101633Y0111244D02*
X0102200Y0110676D01*
X0102200Y0109542D01*
X0101633Y0108975D01*
X0099364Y0108975D01*
X0098797Y0109542D01*
X0098797Y0110676D01*
X0099364Y0111244D01*
X0099364Y0112658D02*
X0098797Y0113225D01*
X0100499Y0113792D02*
X0100499Y0114360D01*
X0105300Y0112494D02*
X0105867Y0112494D01*
X0106434Y0111926D01*
X0107001Y0112494D01*
X0107569Y0111926D01*
X0107569Y0110225D01*
X0106434Y0110225D02*
X0106434Y0111926D01*
X0105300Y0112494D02*
X0105300Y0110225D01*
X0108983Y0110792D02*
X0108983Y0112494D01*
X0108983Y0110792D02*
X0109550Y0110225D01*
X0111252Y0110225D01*
X0111252Y0112494D01*
X0112666Y0113628D02*
X0113233Y0113628D01*
X0113233Y0110225D01*
X0112666Y0110225D02*
X0113801Y0110225D01*
X0115689Y0110792D02*
X0116256Y0110225D01*
X0115689Y0110792D02*
X0115689Y0113061D01*
X0115122Y0112494D02*
X0116256Y0112494D01*
X0117577Y0112494D02*
X0118144Y0112494D01*
X0118144Y0110225D01*
X0117577Y0110225D02*
X0118711Y0110225D01*
X0120033Y0111926D02*
X0122301Y0111926D01*
X0123716Y0112494D02*
X0124850Y0110225D01*
X0125984Y0112494D01*
X0127399Y0111926D02*
X0127399Y0110792D01*
X0127966Y0110225D01*
X0129100Y0110225D01*
X0129667Y0110792D01*
X0129667Y0111926D01*
X0129100Y0112494D01*
X0127966Y0112494D01*
X0127399Y0111926D01*
X0131082Y0110225D02*
X0132216Y0110225D01*
X0131649Y0110225D02*
X0131649Y0113628D01*
X0131082Y0113628D01*
X0133537Y0112494D02*
X0134672Y0112494D01*
X0134105Y0113061D02*
X0134105Y0110792D01*
X0134672Y0110225D01*
X0135993Y0110792D02*
X0136560Y0111359D01*
X0138261Y0111359D01*
X0138261Y0111926D02*
X0137694Y0112494D01*
X0136560Y0112494D01*
X0138261Y0111926D02*
X0138261Y0110225D01*
X0136560Y0110225D01*
X0135993Y0110792D01*
X0139676Y0110792D02*
X0140243Y0110225D01*
X0141945Y0110225D01*
X0141945Y0109658D02*
X0141945Y0112494D01*
X0140243Y0112494D01*
X0139676Y0111926D01*
X0139676Y0110792D01*
X0140810Y0109091D02*
X0141377Y0109091D01*
X0141945Y0109658D01*
X0143359Y0110792D02*
X0143359Y0111926D01*
X0143926Y0112494D01*
X0145061Y0112494D01*
X0145628Y0111926D01*
X0145628Y0111359D01*
X0143359Y0111359D01*
X0143359Y0110792D02*
X0143926Y0110225D01*
X0145061Y0110225D01*
X0150725Y0110792D02*
X0150725Y0113628D01*
X0152994Y0113628D02*
X0152994Y0110792D01*
X0152427Y0110225D01*
X0151293Y0110225D01*
X0150725Y0110792D01*
X0154409Y0110225D02*
X0154409Y0112494D01*
X0155543Y0113628D01*
X0156677Y0112494D01*
X0156677Y0110225D01*
X0158092Y0110225D02*
X0158092Y0113628D01*
X0159793Y0113628D01*
X0160360Y0113061D01*
X0160360Y0111926D01*
X0159793Y0111359D01*
X0158092Y0111359D01*
X0159226Y0111359D02*
X0160360Y0110225D01*
X0162909Y0110225D02*
X0162909Y0113628D01*
X0161775Y0113628D02*
X0164043Y0113628D01*
X0162500Y0119300D02*
X0157500Y0119300D01*
X0155000Y0121800D01*
X0155000Y0126800D01*
X0157500Y0129300D01*
X0162500Y0129300D01*
X0165000Y0126800D01*
X0167500Y0129300D01*
X0172500Y0129300D01*
X0175000Y0126800D01*
X0175000Y0121800D01*
X0172500Y0119300D01*
X0167500Y0119300D01*
X0165000Y0121800D01*
X0162500Y0119300D01*
X0165000Y0121800D02*
X0165000Y0126800D01*
X0155000Y0126800D02*
X0152500Y0129300D01*
X0147500Y0129300D01*
X0145000Y0126800D01*
X0142500Y0129300D01*
X0137500Y0129300D01*
X0135000Y0126800D01*
X0132500Y0129300D01*
X0127500Y0129300D01*
X0125000Y0126800D01*
X0125000Y0121800D01*
X0127500Y0119300D01*
X0132500Y0119300D01*
X0135000Y0121800D01*
X0135000Y0126800D01*
X0135000Y0121800D02*
X0137500Y0119300D01*
X0142500Y0119300D01*
X0145000Y0121800D01*
X0145000Y0126800D01*
X0145000Y0121800D02*
X0147500Y0119300D01*
X0152500Y0119300D01*
X0155000Y0121800D01*
X0154409Y0111926D02*
X0156677Y0111926D01*
X0125000Y0121800D02*
X0122500Y0119300D01*
X0117500Y0119300D01*
X0115000Y0121800D01*
X0112500Y0119300D01*
X0107500Y0119300D01*
X0105000Y0121800D01*
X0105000Y0126800D01*
X0107500Y0129300D01*
X0112500Y0129300D01*
X0115000Y0126800D01*
X0117500Y0129300D01*
X0122500Y0129300D01*
X0125000Y0126800D01*
X0115000Y0126800D02*
X0115000Y0121800D01*
X0118144Y0114195D02*
X0118144Y0113628D01*
X0149751Y0009003D02*
X0149184Y0008436D01*
X0149184Y0006167D01*
X0149751Y0005600D01*
X0150885Y0005600D01*
X0151452Y0006167D01*
X0152867Y0006167D02*
X0152867Y0007301D01*
X0154568Y0007301D01*
X0155135Y0006734D01*
X0155135Y0006167D01*
X0154568Y0005600D01*
X0153434Y0005600D01*
X0152867Y0006167D01*
X0152867Y0007301D02*
X0154001Y0008436D01*
X0155135Y0009003D01*
X0151452Y0008436D02*
X0150885Y0009003D01*
X0149751Y0009003D01*
D12*
X0113124Y0045800D02*
X0113875Y0046551D01*
X0113875Y0047301D01*
X0113124Y0048052D01*
X0109371Y0048052D01*
X0109371Y0047301D02*
X0109371Y0048803D01*
X0109371Y0050404D02*
X0109371Y0052656D01*
X0110122Y0053406D01*
X0111623Y0053406D01*
X0112374Y0052656D01*
X0112374Y0050404D01*
X0113875Y0050404D02*
X0109371Y0050404D01*
X0111623Y0055008D02*
X0111623Y0058010D01*
X0109371Y0057260D02*
X0111623Y0055008D01*
X0113875Y0057260D02*
X0109371Y0057260D01*
X0103949Y0061100D02*
X0100946Y0061100D01*
X0102447Y0061100D02*
X0102447Y0065604D01*
X0100946Y0064103D01*
X0099345Y0064853D02*
X0099345Y0063352D01*
X0098594Y0062601D01*
X0096342Y0062601D01*
X0096342Y0061100D02*
X0096342Y0065604D01*
X0098594Y0065604D01*
X0099345Y0064853D01*
X0094741Y0065604D02*
X0093239Y0065604D01*
X0093990Y0065604D02*
X0093990Y0061851D01*
X0093239Y0061100D01*
X0092489Y0061100D01*
X0091738Y0061851D01*
X0092480Y0073926D02*
X0092482Y0073965D01*
X0092488Y0074004D01*
X0092498Y0074042D01*
X0092511Y0074079D01*
X0092528Y0074114D01*
X0092548Y0074148D01*
X0092572Y0074179D01*
X0092599Y0074208D01*
X0092628Y0074234D01*
X0092660Y0074257D01*
X0092694Y0074277D01*
X0092730Y0074293D01*
X0092767Y0074305D01*
X0092806Y0074314D01*
X0092845Y0074319D01*
X0092884Y0074320D01*
X0092923Y0074317D01*
X0092962Y0074310D01*
X0092999Y0074299D01*
X0093036Y0074285D01*
X0093071Y0074267D01*
X0093104Y0074246D01*
X0093135Y0074221D01*
X0093163Y0074194D01*
X0093188Y0074164D01*
X0093210Y0074131D01*
X0093229Y0074097D01*
X0093244Y0074061D01*
X0093256Y0074023D01*
X0093264Y0073985D01*
X0093268Y0073946D01*
X0093268Y0073906D01*
X0093264Y0073867D01*
X0093256Y0073829D01*
X0093244Y0073791D01*
X0093229Y0073755D01*
X0093210Y0073721D01*
X0093188Y0073688D01*
X0093163Y0073658D01*
X0093135Y0073631D01*
X0093104Y0073606D01*
X0093071Y0073585D01*
X0093036Y0073567D01*
X0092999Y0073553D01*
X0092962Y0073542D01*
X0092923Y0073535D01*
X0092884Y0073532D01*
X0092845Y0073533D01*
X0092806Y0073538D01*
X0092767Y0073547D01*
X0092730Y0073559D01*
X0092694Y0073575D01*
X0092660Y0073595D01*
X0092628Y0073618D01*
X0092599Y0073644D01*
X0092572Y0073673D01*
X0092548Y0073704D01*
X0092528Y0073738D01*
X0092511Y0073773D01*
X0092498Y0073810D01*
X0092488Y0073848D01*
X0092482Y0073887D01*
X0092480Y0073926D01*
X0056625Y0074614D02*
X0056625Y0075364D01*
X0055874Y0076115D01*
X0052121Y0076115D01*
X0052121Y0075364D02*
X0052121Y0076866D01*
X0052121Y0078467D02*
X0052121Y0080719D01*
X0052872Y0081470D01*
X0054373Y0081470D01*
X0055124Y0080719D01*
X0055124Y0078467D01*
X0056625Y0078467D02*
X0052121Y0078467D01*
X0056625Y0074614D02*
X0055874Y0073863D01*
X0056625Y0083071D02*
X0053622Y0086074D01*
X0052872Y0086074D01*
X0052121Y0085323D01*
X0052121Y0083822D01*
X0052872Y0083071D01*
X0056625Y0083071D02*
X0056625Y0086074D01*
X0059350Y0111091D02*
X0065650Y0111091D01*
X0060177Y0121564D02*
X0060179Y0121582D01*
X0060185Y0121598D01*
X0060194Y0121613D01*
X0060207Y0121626D01*
X0060222Y0121635D01*
X0060238Y0121641D01*
X0060256Y0121643D01*
X0060274Y0121641D01*
X0060290Y0121635D01*
X0060305Y0121626D01*
X0060318Y0121613D01*
X0060327Y0121598D01*
X0060333Y0121582D01*
X0060335Y0121564D01*
X0060333Y0121546D01*
X0060327Y0121530D01*
X0060318Y0121515D01*
X0060305Y0121502D01*
X0060290Y0121493D01*
X0060274Y0121487D01*
X0060256Y0121485D01*
X0060238Y0121487D01*
X0060222Y0121493D01*
X0060207Y0121502D01*
X0060194Y0121515D01*
X0060185Y0121530D01*
X0060179Y0121546D01*
X0060177Y0121564D01*
X0059350Y0122509D02*
X0065650Y0122509D01*
X0167750Y0112510D02*
X0168918Y0110175D01*
X0170085Y0112510D01*
X0171433Y0112510D02*
X0172601Y0113678D01*
X0172601Y0110175D01*
X0173768Y0110175D02*
X0171433Y0110175D01*
X0063150Y0037509D02*
X0056850Y0037509D01*
X0057677Y0036564D02*
X0057679Y0036582D01*
X0057685Y0036598D01*
X0057694Y0036613D01*
X0057707Y0036626D01*
X0057722Y0036635D01*
X0057738Y0036641D01*
X0057756Y0036643D01*
X0057774Y0036641D01*
X0057790Y0036635D01*
X0057805Y0036626D01*
X0057818Y0036613D01*
X0057827Y0036598D01*
X0057833Y0036582D01*
X0057835Y0036564D01*
X0057833Y0036546D01*
X0057827Y0036530D01*
X0057818Y0036515D01*
X0057805Y0036502D01*
X0057790Y0036493D01*
X0057774Y0036487D01*
X0057756Y0036485D01*
X0057738Y0036487D01*
X0057722Y0036493D01*
X0057707Y0036502D01*
X0057694Y0036515D01*
X0057685Y0036530D01*
X0057679Y0036546D01*
X0057677Y0036564D01*
X0056850Y0026091D02*
X0063150Y0026091D01*
X0051085Y0007804D02*
X0049583Y0007804D01*
X0048833Y0007053D01*
X0047231Y0007053D02*
X0047231Y0005552D01*
X0046481Y0004801D01*
X0044229Y0004801D01*
X0044229Y0003300D02*
X0044229Y0007804D01*
X0046481Y0007804D01*
X0047231Y0007053D01*
X0050334Y0005552D02*
X0051085Y0005552D01*
X0051835Y0004801D01*
X0051835Y0004051D01*
X0051085Y0003300D01*
X0049583Y0003300D01*
X0048833Y0004051D01*
X0051085Y0005552D02*
X0051835Y0006303D01*
X0051835Y0007053D01*
X0051085Y0007804D01*
X0042628Y0007804D02*
X0041126Y0007804D01*
X0041877Y0007804D02*
X0041877Y0004051D01*
X0041126Y0003300D01*
X0040376Y0003300D01*
X0039625Y0004051D01*
D13*
X0062500Y0051050D02*
X0067500Y0051050D01*
X0072500Y0051050D01*
X0077500Y0051050D01*
X0077500Y0062550D01*
X0072500Y0062550D01*
X0072500Y0051050D01*
X0072500Y0062550D01*
X0067500Y0062550D01*
X0067500Y0051050D01*
X0067500Y0062550D01*
X0062500Y0062550D01*
X0062500Y0051050D01*
X0077500Y0051050D02*
X0077500Y0062550D01*
X0082500Y0062550D01*
X0082500Y0051050D01*
X0077500Y0051050D01*
X0072500Y0071050D02*
X0067500Y0071050D01*
X0067500Y0082550D01*
X0072500Y0082550D01*
X0072500Y0071050D01*
X0099250Y0084300D02*
X0099250Y0089300D01*
X0110750Y0089300D01*
X0110750Y0084300D01*
X0099250Y0084300D01*
X0097500Y0093550D02*
X0092500Y0093550D01*
X0087500Y0093550D01*
X0087500Y0105050D01*
X0092500Y0105050D01*
X0092500Y0093550D01*
X0092500Y0105050D01*
X0097500Y0105050D01*
X0102500Y0105050D01*
X0102500Y0093550D01*
X0097500Y0093550D01*
X0097500Y0105050D01*
X0097500Y0093550D01*
X0092500Y0107300D02*
X0087500Y0107300D01*
X0087500Y0118800D01*
X0092500Y0118800D01*
X0092500Y0107300D01*
X0083250Y0110550D02*
X0071750Y0110550D01*
X0071750Y0115550D01*
X0083250Y0115550D01*
X0083250Y0110550D01*
X0083250Y0118050D02*
X0071750Y0118050D01*
X0071750Y0123050D01*
X0083250Y0123050D01*
X0083250Y0118050D01*
X0070750Y0109300D02*
X0070750Y0104300D01*
X0059250Y0104300D01*
X0059250Y0109300D01*
X0070750Y0109300D01*
X0068250Y0124300D02*
X0056750Y0124300D01*
X0056750Y0129300D01*
X0068250Y0129300D01*
X0068250Y0124300D01*
X0157500Y0065050D02*
X0162500Y0065050D01*
X0162500Y0053550D01*
X0157500Y0053550D01*
X0157500Y0065050D01*
X0162500Y0065050D02*
X0167500Y0065050D01*
X0167500Y0053550D01*
X0162500Y0053550D01*
X0162500Y0065050D01*
X0142500Y0056300D02*
X0142500Y0044800D01*
X0137500Y0044800D01*
X0137500Y0056300D01*
X0142500Y0056300D01*
X0144250Y0045550D02*
X0144250Y0040550D01*
X0155750Y0040550D01*
X0155750Y0045550D01*
X0144250Y0045550D01*
X0143750Y0041300D02*
X0138750Y0041300D01*
X0138750Y0029800D01*
X0143750Y0029800D01*
X0143750Y0041300D01*
X0144250Y0039300D02*
X0155750Y0039300D01*
X0155750Y0034300D01*
X0144250Y0034300D01*
X0144250Y0039300D01*
X0133250Y0039300D02*
X0133250Y0034300D01*
X0121750Y0034300D01*
X0121750Y0039300D01*
X0133250Y0039300D01*
X0133250Y0034300D02*
X0133250Y0029300D01*
X0121750Y0029300D01*
X0121750Y0034300D01*
X0133250Y0034300D01*
X0133250Y0029300D02*
X0133250Y0024300D01*
X0133250Y0019300D01*
X0133250Y0014300D01*
X0133250Y0009300D01*
X0121750Y0009300D01*
X0121750Y0014300D01*
X0133250Y0014300D01*
X0121750Y0014300D01*
X0121750Y0019300D01*
X0133250Y0019300D01*
X0121750Y0019300D01*
X0121750Y0024300D01*
X0133250Y0024300D01*
X0121750Y0024300D01*
X0121750Y0029300D01*
X0133250Y0029300D01*
X0144250Y0015550D02*
X0155750Y0015550D01*
X0155750Y0010550D01*
X0144250Y0010550D01*
X0144250Y0015550D01*
D14*
X0025000Y0011800D02*
X0002500Y0011800D01*
X0002500Y0021800D02*
X0025000Y0021800D01*
X0025000Y0031800D02*
X0002500Y0031800D01*
X0002500Y0041800D02*
X0025000Y0041800D01*
X0025000Y0051800D02*
X0002500Y0051800D01*
X0002500Y0061800D02*
X0025000Y0061800D01*
X0025000Y0076800D02*
X0002500Y0076800D01*
X0002500Y0086800D02*
X0025000Y0086800D01*
X0025000Y0096800D02*
X0002500Y0096800D01*
X0002500Y0106800D02*
X0025000Y0106800D01*
X0025000Y0116800D02*
X0002500Y0116800D01*
X0002500Y0126800D02*
X0025000Y0126800D01*
D15*
X0026500Y0126800D03*
X0026500Y0116800D03*
X0026500Y0106800D03*
X0026500Y0096800D03*
X0026500Y0086800D03*
X0026500Y0076800D03*
X0026500Y0061800D03*
X0026500Y0051800D03*
X0026500Y0041800D03*
X0026500Y0031800D03*
X0026500Y0021800D03*
X0026500Y0011800D03*
D16*
X0039500Y0011800D03*
X0039500Y0021800D03*
X0039500Y0031800D03*
X0039500Y0041800D03*
X0039500Y0051800D03*
X0039500Y0061800D03*
X0039500Y0076800D03*
X0039500Y0086800D03*
X0039500Y0096800D03*
X0039500Y0106800D03*
X0039500Y0116800D03*
X0039500Y0126800D03*
D17*
X0057800Y0107965D02*
X0057800Y0104896D01*
X0057800Y0106431D02*
X0053196Y0106431D01*
X0054731Y0104896D01*
X0053963Y0103361D02*
X0053196Y0102594D01*
X0053196Y0100292D01*
X0057800Y0100292D01*
X0057800Y0102594D01*
X0057033Y0103361D01*
X0053963Y0103361D01*
X0099897Y0119952D02*
X0099897Y0121153D01*
X0099897Y0120552D02*
X0102899Y0120552D01*
X0103500Y0119952D01*
X0103500Y0119351D01*
X0102899Y0118751D01*
X0102299Y0122434D02*
X0102299Y0124235D01*
X0101698Y0124836D01*
X0100497Y0124836D01*
X0099897Y0124235D01*
X0099897Y0122434D01*
X0103500Y0122434D01*
X0102899Y0126117D02*
X0103500Y0126717D01*
X0103500Y0127918D01*
X0102899Y0128519D01*
X0101698Y0128519D01*
X0101098Y0127918D01*
X0101098Y0127318D01*
X0101698Y0126117D01*
X0099897Y0126117D01*
X0099897Y0128519D01*
X0149956Y0100484D02*
X0149956Y0096786D01*
X0170764Y0096786D01*
X0170764Y0100484D01*
X0170766Y0100532D01*
X0170771Y0100579D01*
X0170780Y0100626D01*
X0170793Y0100672D01*
X0170810Y0100717D01*
X0170830Y0100760D01*
X0170853Y0100802D01*
X0170879Y0100841D01*
X0170909Y0100879D01*
X0170941Y0100914D01*
X0170976Y0100946D01*
X0171014Y0100976D01*
X0171054Y0101002D01*
X0171095Y0101026D01*
X0171139Y0101045D01*
X0171183Y0101062D01*
X0171229Y0101075D01*
X0171276Y0101084D01*
X0171324Y0101089D01*
X0171371Y0101091D01*
X0171372Y0101091D01*
X0171371Y0101091D02*
X0171420Y0101089D01*
X0171470Y0101084D01*
X0171518Y0101074D01*
X0171566Y0101062D01*
X0171613Y0101045D01*
X0171658Y0101025D01*
X0171702Y0101002D01*
X0171744Y0100976D01*
X0171784Y0100947D01*
X0171821Y0100914D01*
X0171856Y0100879D01*
X0171889Y0100842D01*
X0171918Y0100802D01*
X0171944Y0100760D01*
X0171967Y0100716D01*
X0171987Y0100671D01*
X0172004Y0100624D01*
X0172016Y0100576D01*
X0172026Y0100528D01*
X0172031Y0100478D01*
X0172033Y0100429D01*
X0172033Y0099822D01*
X0172034Y0099822D02*
X0172036Y0099764D01*
X0172041Y0099707D01*
X0172051Y0099650D01*
X0172064Y0099593D01*
X0172081Y0099538D01*
X0172101Y0099484D01*
X0172125Y0099431D01*
X0172152Y0099380D01*
X0172183Y0099331D01*
X0172216Y0099284D01*
X0172253Y0099240D01*
X0172292Y0099197D01*
X0172335Y0099158D01*
X0172379Y0099121D01*
X0172426Y0099088D01*
X0172475Y0099057D01*
X0172526Y0099030D01*
X0172579Y0099006D01*
X0172633Y0098986D01*
X0172688Y0098969D01*
X0172745Y0098956D01*
X0172802Y0098946D01*
X0172859Y0098941D01*
X0172917Y0098939D01*
X0173027Y0098939D01*
X0173085Y0098941D01*
X0173143Y0098947D01*
X0173200Y0098956D01*
X0173256Y0098969D01*
X0173311Y0098986D01*
X0173365Y0099006D01*
X0173418Y0099030D01*
X0173469Y0099057D01*
X0173518Y0099088D01*
X0173565Y0099122D01*
X0173609Y0099158D01*
X0173651Y0099198D01*
X0173691Y0099240D01*
X0173727Y0099284D01*
X0173761Y0099331D01*
X0173792Y0099380D01*
X0173819Y0099431D01*
X0173843Y0099484D01*
X0173863Y0099538D01*
X0173880Y0099593D01*
X0173893Y0099649D01*
X0173902Y0099706D01*
X0173908Y0099764D01*
X0173910Y0099822D01*
X0173910Y0100484D01*
X0173912Y0100532D01*
X0173917Y0100579D01*
X0173927Y0100626D01*
X0173940Y0100672D01*
X0173956Y0100716D01*
X0173976Y0100760D01*
X0173999Y0100801D01*
X0174026Y0100841D01*
X0174055Y0100878D01*
X0174088Y0100913D01*
X0174123Y0100946D01*
X0174160Y0100975D01*
X0174200Y0101002D01*
X0174241Y0101025D01*
X0174285Y0101045D01*
X0174329Y0101061D01*
X0174375Y0101074D01*
X0174422Y0101084D01*
X0174469Y0101089D01*
X0174517Y0101091D01*
X0174566Y0101089D01*
X0174616Y0101084D01*
X0174664Y0101074D01*
X0174712Y0101062D01*
X0174759Y0101045D01*
X0174804Y0101025D01*
X0174848Y0101002D01*
X0174890Y0100976D01*
X0174930Y0100947D01*
X0174967Y0100914D01*
X0175002Y0100879D01*
X0175035Y0100842D01*
X0175064Y0100802D01*
X0175090Y0100760D01*
X0175113Y0100716D01*
X0175133Y0100671D01*
X0175150Y0100624D01*
X0175162Y0100576D01*
X0175172Y0100528D01*
X0175177Y0100478D01*
X0175179Y0100429D01*
X0175180Y0100429D02*
X0175180Y0097007D01*
X0180312Y0096565D02*
X0180312Y0090494D01*
X0180311Y0090494D02*
X0180309Y0090421D01*
X0180303Y0090349D01*
X0180294Y0090278D01*
X0180281Y0090207D01*
X0180264Y0090137D01*
X0180243Y0090067D01*
X0180219Y0089999D01*
X0180192Y0089933D01*
X0180161Y0089867D01*
X0180126Y0089804D01*
X0180088Y0089742D01*
X0180047Y0089683D01*
X0180003Y0089625D01*
X0179957Y0089571D01*
X0179907Y0089518D01*
X0179854Y0089468D01*
X0179800Y0089422D01*
X0179742Y0089378D01*
X0179683Y0089337D01*
X0179621Y0089299D01*
X0179558Y0089264D01*
X0179492Y0089233D01*
X0179426Y0089206D01*
X0179358Y0089182D01*
X0179288Y0089161D01*
X0179218Y0089144D01*
X0179147Y0089131D01*
X0179076Y0089122D01*
X0179004Y0089116D01*
X0178931Y0089114D01*
X0178932Y0089114D02*
X0178767Y0089114D01*
X0164306Y0088452D01*
X0164306Y0088453D02*
X0164258Y0088452D01*
X0164211Y0088456D01*
X0164164Y0088464D01*
X0164117Y0088475D01*
X0164072Y0088491D01*
X0164028Y0088510D01*
X0163986Y0088532D01*
X0163945Y0088558D01*
X0163907Y0088588D01*
X0163872Y0088620D01*
X0163839Y0088655D01*
X0163810Y0088692D01*
X0163783Y0088732D01*
X0163760Y0088774D01*
X0163741Y0088818D01*
X0163725Y0088863D01*
X0163713Y0088910D01*
X0163705Y0088957D01*
X0163701Y0089004D01*
X0163700Y0089052D01*
X0163704Y0089100D01*
X0163712Y0089147D01*
X0163723Y0089194D01*
X0163738Y0089239D01*
X0163757Y0089283D01*
X0163780Y0089325D01*
X0163806Y0089366D01*
X0163835Y0089404D01*
X0163867Y0089439D01*
X0163902Y0089472D01*
X0163939Y0089502D01*
X0163979Y0089528D01*
X0164021Y0089551D01*
X0164065Y0089571D01*
X0164110Y0089587D01*
X0164156Y0089599D01*
X0164204Y0089607D01*
X0164251Y0089611D01*
X0177607Y0090494D01*
X0177608Y0090494D02*
X0177669Y0090500D01*
X0177730Y0090510D01*
X0177790Y0090524D01*
X0177850Y0090542D01*
X0177908Y0090563D01*
X0177964Y0090588D01*
X0178019Y0090617D01*
X0178072Y0090649D01*
X0178122Y0090684D01*
X0178171Y0090722D01*
X0178216Y0090764D01*
X0178259Y0090808D01*
X0178299Y0090855D01*
X0178336Y0090905D01*
X0178370Y0090956D01*
X0178401Y0091010D01*
X0178427Y0091066D01*
X0178451Y0091123D01*
X0178470Y0091182D01*
X0178486Y0091241D01*
X0178498Y0091302D01*
X0178506Y0091363D01*
X0178510Y0091425D01*
X0178511Y0091487D01*
X0178507Y0091548D01*
X0178499Y0091610D01*
X0178488Y0091670D01*
X0178472Y0091730D01*
X0178453Y0091789D01*
X0178430Y0091846D01*
X0178404Y0091902D01*
X0178374Y0091956D01*
X0178340Y0092008D01*
X0178304Y0092058D01*
X0178264Y0092105D01*
X0178221Y0092149D01*
X0178176Y0092191D01*
X0178128Y0092230D01*
X0178077Y0092266D01*
X0178025Y0092298D01*
X0177970Y0092327D01*
X0177914Y0092353D01*
X0177856Y0092374D01*
X0177797Y0092392D01*
X0177737Y0092407D01*
X0177676Y0092417D01*
X0177614Y0092423D01*
X0177553Y0092426D01*
X0177552Y0092426D02*
X0164141Y0093309D01*
X0164100Y0093313D01*
X0164060Y0093321D01*
X0164021Y0093333D01*
X0163983Y0093347D01*
X0163946Y0093365D01*
X0163911Y0093386D01*
X0163878Y0093410D01*
X0163847Y0093437D01*
X0163819Y0093467D01*
X0163793Y0093498D01*
X0163770Y0093532D01*
X0163750Y0093568D01*
X0163733Y0093605D01*
X0163719Y0093643D01*
X0163709Y0093683D01*
X0163703Y0093723D01*
X0163699Y0093764D01*
X0163700Y0093805D01*
X0163699Y0093806D02*
X0163699Y0096565D01*
X0170764Y0096786D02*
X0185004Y0096786D01*
X0185004Y0066816D01*
X0149956Y0066816D01*
X0149956Y0071783D01*
X0149956Y0071784D02*
X0149958Y0071856D01*
X0149963Y0071929D01*
X0149972Y0072001D01*
X0149985Y0072073D01*
X0150002Y0072143D01*
X0150022Y0072213D01*
X0150045Y0072282D01*
X0150072Y0072350D01*
X0150103Y0072416D01*
X0150136Y0072480D01*
X0150173Y0072543D01*
X0150213Y0072604D01*
X0150256Y0072662D01*
X0150302Y0072719D01*
X0150351Y0072773D01*
X0150402Y0072824D01*
X0150456Y0072873D01*
X0150513Y0072919D01*
X0150571Y0072962D01*
X0150632Y0073002D01*
X0150695Y0073039D01*
X0150759Y0073072D01*
X0150825Y0073103D01*
X0150893Y0073130D01*
X0150962Y0073153D01*
X0151032Y0073173D01*
X0151102Y0073190D01*
X0151174Y0073203D01*
X0151246Y0073212D01*
X0151319Y0073217D01*
X0151391Y0073219D01*
X0153489Y0073219D01*
X0154371Y0066817D02*
X0154371Y0063119D01*
X0154372Y0063119D02*
X0154370Y0063071D01*
X0154365Y0063023D01*
X0154355Y0062977D01*
X0154343Y0062931D01*
X0154326Y0062886D01*
X0154306Y0062842D01*
X0154283Y0062801D01*
X0154256Y0062761D01*
X0154227Y0062723D01*
X0154194Y0062688D01*
X0154159Y0062656D01*
X0154122Y0062626D01*
X0154082Y0062600D01*
X0154040Y0062577D01*
X0153997Y0062557D01*
X0153952Y0062540D01*
X0153906Y0062527D01*
X0153859Y0062518D01*
X0153812Y0062513D01*
X0153764Y0062511D01*
X0153764Y0062511D01*
X0153764Y0062512D02*
X0153715Y0062514D01*
X0153665Y0062519D01*
X0153617Y0062529D01*
X0153569Y0062541D01*
X0153522Y0062558D01*
X0153477Y0062578D01*
X0153433Y0062601D01*
X0153391Y0062627D01*
X0153351Y0062656D01*
X0153314Y0062689D01*
X0153279Y0062724D01*
X0153246Y0062761D01*
X0153217Y0062801D01*
X0153191Y0062843D01*
X0153168Y0062887D01*
X0153148Y0062932D01*
X0153131Y0062979D01*
X0153119Y0063027D01*
X0153109Y0063075D01*
X0153104Y0063125D01*
X0153102Y0063174D01*
X0153102Y0063781D01*
X0153100Y0063839D01*
X0153094Y0063896D01*
X0153085Y0063953D01*
X0153072Y0064010D01*
X0153055Y0064065D01*
X0153035Y0064119D01*
X0153011Y0064172D01*
X0152984Y0064223D01*
X0152953Y0064272D01*
X0152920Y0064319D01*
X0152883Y0064363D01*
X0152843Y0064405D01*
X0152801Y0064445D01*
X0152757Y0064482D01*
X0152710Y0064515D01*
X0152661Y0064546D01*
X0152610Y0064573D01*
X0152557Y0064597D01*
X0152503Y0064617D01*
X0152448Y0064634D01*
X0152391Y0064647D01*
X0152334Y0064656D01*
X0152277Y0064662D01*
X0152219Y0064664D01*
X0152108Y0064664D01*
X0152051Y0064662D01*
X0151993Y0064656D01*
X0151936Y0064647D01*
X0151880Y0064634D01*
X0151824Y0064617D01*
X0151770Y0064597D01*
X0151718Y0064573D01*
X0151667Y0064546D01*
X0151618Y0064515D01*
X0151571Y0064482D01*
X0151526Y0064445D01*
X0151484Y0064405D01*
X0151444Y0064363D01*
X0151407Y0064318D01*
X0151374Y0064271D01*
X0151343Y0064222D01*
X0151316Y0064171D01*
X0151292Y0064119D01*
X0151272Y0064065D01*
X0151255Y0064009D01*
X0151242Y0063953D01*
X0151233Y0063896D01*
X0151227Y0063838D01*
X0151225Y0063781D01*
X0151225Y0063119D01*
X0151223Y0063071D01*
X0151218Y0063024D01*
X0151208Y0062977D01*
X0151195Y0062931D01*
X0151179Y0062887D01*
X0151159Y0062843D01*
X0151136Y0062802D01*
X0151109Y0062762D01*
X0151080Y0062725D01*
X0151047Y0062690D01*
X0151012Y0062657D01*
X0150975Y0062628D01*
X0150935Y0062601D01*
X0150894Y0062578D01*
X0150850Y0062558D01*
X0150806Y0062542D01*
X0150760Y0062529D01*
X0150713Y0062519D01*
X0150666Y0062514D01*
X0150618Y0062512D01*
X0150569Y0062514D01*
X0150519Y0062519D01*
X0150471Y0062529D01*
X0150423Y0062541D01*
X0150376Y0062558D01*
X0150331Y0062578D01*
X0150287Y0062601D01*
X0150245Y0062627D01*
X0150205Y0062656D01*
X0150168Y0062689D01*
X0150133Y0062724D01*
X0150100Y0062761D01*
X0150071Y0062801D01*
X0150045Y0062843D01*
X0150022Y0062887D01*
X0150002Y0062932D01*
X0149985Y0062979D01*
X0149973Y0063027D01*
X0149963Y0063075D01*
X0149958Y0063125D01*
X0149956Y0063174D01*
X0149956Y0066872D01*
X0163699Y0067037D02*
X0163699Y0069797D01*
X0163700Y0069797D02*
X0163699Y0069838D01*
X0163703Y0069879D01*
X0163709Y0069919D01*
X0163719Y0069959D01*
X0163733Y0069997D01*
X0163750Y0070034D01*
X0163770Y0070070D01*
X0163793Y0070104D01*
X0163819Y0070135D01*
X0163847Y0070165D01*
X0163878Y0070192D01*
X0163911Y0070216D01*
X0163946Y0070237D01*
X0163983Y0070255D01*
X0164021Y0070269D01*
X0164060Y0070281D01*
X0164100Y0070289D01*
X0164141Y0070293D01*
X0177553Y0071176D01*
X0177614Y0071179D01*
X0177676Y0071185D01*
X0177737Y0071195D01*
X0177797Y0071210D01*
X0177856Y0071228D01*
X0177914Y0071249D01*
X0177970Y0071275D01*
X0178025Y0071304D01*
X0178077Y0071336D01*
X0178128Y0071372D01*
X0178176Y0071411D01*
X0178221Y0071453D01*
X0178264Y0071497D01*
X0178304Y0071544D01*
X0178340Y0071594D01*
X0178374Y0071646D01*
X0178404Y0071700D01*
X0178430Y0071756D01*
X0178453Y0071813D01*
X0178472Y0071872D01*
X0178488Y0071932D01*
X0178499Y0071992D01*
X0178507Y0072054D01*
X0178511Y0072115D01*
X0178510Y0072177D01*
X0178506Y0072239D01*
X0178498Y0072300D01*
X0178486Y0072361D01*
X0178470Y0072420D01*
X0178451Y0072479D01*
X0178427Y0072536D01*
X0178401Y0072592D01*
X0178370Y0072646D01*
X0178336Y0072697D01*
X0178299Y0072747D01*
X0178259Y0072794D01*
X0178216Y0072838D01*
X0178171Y0072880D01*
X0178122Y0072918D01*
X0178072Y0072953D01*
X0178019Y0072985D01*
X0177964Y0073014D01*
X0177908Y0073039D01*
X0177850Y0073060D01*
X0177790Y0073078D01*
X0177730Y0073092D01*
X0177669Y0073102D01*
X0177608Y0073108D01*
X0164251Y0073991D01*
X0164251Y0073992D02*
X0164204Y0073996D01*
X0164156Y0074004D01*
X0164110Y0074016D01*
X0164065Y0074032D01*
X0164021Y0074052D01*
X0163979Y0074075D01*
X0163939Y0074101D01*
X0163902Y0074131D01*
X0163867Y0074164D01*
X0163835Y0074199D01*
X0163806Y0074237D01*
X0163780Y0074278D01*
X0163757Y0074320D01*
X0163738Y0074364D01*
X0163723Y0074409D01*
X0163712Y0074456D01*
X0163704Y0074503D01*
X0163700Y0074551D01*
X0163701Y0074599D01*
X0163705Y0074646D01*
X0163713Y0074693D01*
X0163725Y0074740D01*
X0163741Y0074785D01*
X0163760Y0074829D01*
X0163783Y0074871D01*
X0163810Y0074911D01*
X0163839Y0074948D01*
X0163872Y0074983D01*
X0163907Y0075015D01*
X0163945Y0075045D01*
X0163986Y0075071D01*
X0164028Y0075093D01*
X0164072Y0075112D01*
X0164117Y0075128D01*
X0164164Y0075139D01*
X0164211Y0075147D01*
X0164258Y0075151D01*
X0164306Y0075150D01*
X0178767Y0074488D01*
X0178932Y0074488D01*
X0178933Y0074489D02*
X0179005Y0074487D01*
X0179077Y0074481D01*
X0179149Y0074472D01*
X0179220Y0074459D01*
X0179290Y0074442D01*
X0179359Y0074422D01*
X0179427Y0074397D01*
X0179494Y0074370D01*
X0179559Y0074339D01*
X0179623Y0074304D01*
X0179685Y0074266D01*
X0179744Y0074225D01*
X0179801Y0074181D01*
X0179856Y0074135D01*
X0179909Y0074085D01*
X0179959Y0074032D01*
X0180005Y0073977D01*
X0180049Y0073920D01*
X0180090Y0073861D01*
X0180128Y0073799D01*
X0180163Y0073735D01*
X0180194Y0073670D01*
X0180221Y0073603D01*
X0180246Y0073535D01*
X0180266Y0073466D01*
X0180283Y0073396D01*
X0180296Y0073325D01*
X0180305Y0073253D01*
X0180311Y0073181D01*
X0180313Y0073109D01*
X0180312Y0073108D02*
X0180312Y0067037D01*
X0175179Y0066817D02*
X0175179Y0063119D01*
X0175177Y0063071D01*
X0175172Y0063024D01*
X0175163Y0062977D01*
X0175150Y0062931D01*
X0175133Y0062886D01*
X0175113Y0062843D01*
X0175090Y0062801D01*
X0175064Y0062762D01*
X0175034Y0062724D01*
X0175002Y0062689D01*
X0174967Y0062657D01*
X0174929Y0062627D01*
X0174889Y0062601D01*
X0174848Y0062577D01*
X0174804Y0062558D01*
X0174760Y0062541D01*
X0174714Y0062528D01*
X0174667Y0062519D01*
X0174619Y0062514D01*
X0174572Y0062512D01*
X0174572Y0062511D02*
X0174572Y0062511D01*
X0174572Y0062512D02*
X0174523Y0062514D01*
X0174473Y0062519D01*
X0174425Y0062529D01*
X0174377Y0062541D01*
X0174330Y0062558D01*
X0174285Y0062578D01*
X0174241Y0062601D01*
X0174199Y0062627D01*
X0174159Y0062656D01*
X0174122Y0062689D01*
X0174087Y0062724D01*
X0174054Y0062761D01*
X0174025Y0062801D01*
X0173999Y0062843D01*
X0173976Y0062887D01*
X0173956Y0062932D01*
X0173939Y0062979D01*
X0173927Y0063027D01*
X0173917Y0063075D01*
X0173912Y0063125D01*
X0173910Y0063174D01*
X0173910Y0063781D01*
X0173908Y0063838D01*
X0173902Y0063896D01*
X0173893Y0063953D01*
X0173880Y0064009D01*
X0173863Y0064065D01*
X0173843Y0064119D01*
X0173819Y0064171D01*
X0173792Y0064222D01*
X0173761Y0064271D01*
X0173728Y0064318D01*
X0173691Y0064363D01*
X0173651Y0064405D01*
X0173609Y0064445D01*
X0173564Y0064482D01*
X0173517Y0064515D01*
X0173468Y0064546D01*
X0173417Y0064573D01*
X0173365Y0064597D01*
X0173311Y0064617D01*
X0173255Y0064634D01*
X0173199Y0064647D01*
X0173142Y0064656D01*
X0173084Y0064662D01*
X0173027Y0064664D01*
X0172916Y0064664D01*
X0172916Y0064663D02*
X0172858Y0064661D01*
X0172801Y0064656D01*
X0172744Y0064646D01*
X0172687Y0064633D01*
X0172632Y0064616D01*
X0172578Y0064596D01*
X0172525Y0064572D01*
X0172474Y0064545D01*
X0172425Y0064514D01*
X0172378Y0064481D01*
X0172334Y0064444D01*
X0172291Y0064405D01*
X0172252Y0064362D01*
X0172215Y0064318D01*
X0172182Y0064271D01*
X0172151Y0064222D01*
X0172124Y0064171D01*
X0172100Y0064118D01*
X0172080Y0064064D01*
X0172063Y0064009D01*
X0172050Y0063952D01*
X0172040Y0063895D01*
X0172035Y0063838D01*
X0172033Y0063780D01*
X0172033Y0063781D02*
X0172033Y0063119D01*
X0172031Y0063071D01*
X0172026Y0063024D01*
X0172016Y0062977D01*
X0172003Y0062931D01*
X0171987Y0062887D01*
X0171967Y0062843D01*
X0171944Y0062802D01*
X0171917Y0062762D01*
X0171888Y0062725D01*
X0171855Y0062690D01*
X0171820Y0062657D01*
X0171783Y0062628D01*
X0171743Y0062601D01*
X0171702Y0062578D01*
X0171658Y0062558D01*
X0171614Y0062542D01*
X0171568Y0062529D01*
X0171521Y0062519D01*
X0171474Y0062514D01*
X0171426Y0062512D01*
X0171377Y0062514D01*
X0171327Y0062519D01*
X0171279Y0062529D01*
X0171231Y0062541D01*
X0171184Y0062558D01*
X0171139Y0062578D01*
X0171095Y0062601D01*
X0171053Y0062627D01*
X0171013Y0062656D01*
X0170976Y0062689D01*
X0170941Y0062724D01*
X0170908Y0062761D01*
X0170879Y0062801D01*
X0170853Y0062843D01*
X0170830Y0062887D01*
X0170810Y0062932D01*
X0170793Y0062979D01*
X0170781Y0063027D01*
X0170771Y0063075D01*
X0170766Y0063125D01*
X0170764Y0063174D01*
X0170764Y0066596D01*
X0177300Y0060465D02*
X0177300Y0057396D01*
X0177300Y0055861D02*
X0172696Y0052792D01*
X0172696Y0055861D02*
X0177300Y0052792D01*
X0174231Y0057396D02*
X0172696Y0058931D01*
X0177300Y0058931D01*
X0179705Y0076696D02*
X0163865Y0077524D01*
X0163793Y0077526D01*
X0163721Y0077532D01*
X0163650Y0077542D01*
X0163580Y0077555D01*
X0163510Y0077572D01*
X0163442Y0077593D01*
X0163374Y0077618D01*
X0163308Y0077647D01*
X0163244Y0077678D01*
X0163182Y0077714D01*
X0163121Y0077752D01*
X0163063Y0077794D01*
X0163007Y0077839D01*
X0162954Y0077887D01*
X0162903Y0077938D01*
X0162855Y0077991D01*
X0162810Y0078047D01*
X0162768Y0078105D01*
X0162730Y0078166D01*
X0162694Y0078228D01*
X0162663Y0078292D01*
X0162634Y0078358D01*
X0162609Y0078426D01*
X0162588Y0078494D01*
X0162571Y0078564D01*
X0162558Y0078634D01*
X0162548Y0078705D01*
X0162542Y0078777D01*
X0162540Y0078849D01*
X0162540Y0078848D02*
X0162540Y0084644D01*
X0162542Y0084719D01*
X0162548Y0084794D01*
X0162558Y0084868D01*
X0162571Y0084942D01*
X0162589Y0085015D01*
X0162610Y0085087D01*
X0162635Y0085158D01*
X0162664Y0085228D01*
X0162696Y0085295D01*
X0162732Y0085362D01*
X0162772Y0085426D01*
X0162814Y0085487D01*
X0162860Y0085547D01*
X0162909Y0085604D01*
X0162960Y0085659D01*
X0163015Y0085710D01*
X0163072Y0085759D01*
X0163132Y0085805D01*
X0163193Y0085847D01*
X0163258Y0085887D01*
X0163324Y0085923D01*
X0163391Y0085955D01*
X0163461Y0085984D01*
X0163532Y0086009D01*
X0163604Y0086030D01*
X0163677Y0086048D01*
X0163751Y0086061D01*
X0163825Y0086071D01*
X0163900Y0086077D01*
X0163975Y0086079D01*
X0179705Y0086906D01*
X0179706Y0086906D02*
X0179752Y0086902D01*
X0179798Y0086894D01*
X0179843Y0086882D01*
X0179887Y0086867D01*
X0179930Y0086847D01*
X0179971Y0086824D01*
X0180009Y0086798D01*
X0180046Y0086769D01*
X0180079Y0086736D01*
X0180110Y0086701D01*
X0180138Y0086663D01*
X0180162Y0086624D01*
X0180183Y0086582D01*
X0180201Y0086538D01*
X0180214Y0086494D01*
X0180224Y0086448D01*
X0180230Y0086402D01*
X0180232Y0086355D01*
X0180230Y0086308D01*
X0180224Y0086262D01*
X0180214Y0086216D01*
X0180201Y0086172D01*
X0180183Y0086128D01*
X0180162Y0086086D01*
X0180138Y0086047D01*
X0180110Y0086009D01*
X0180079Y0085974D01*
X0180046Y0085941D01*
X0180009Y0085912D01*
X0179971Y0085886D01*
X0179930Y0085863D01*
X0179887Y0085843D01*
X0179843Y0085828D01*
X0179798Y0085816D01*
X0179752Y0085808D01*
X0179706Y0085804D01*
X0179705Y0085803D02*
X0167728Y0085251D01*
X0167452Y0085251D01*
X0167373Y0085249D01*
X0167295Y0085244D01*
X0167216Y0085234D01*
X0167139Y0085221D01*
X0167062Y0085204D01*
X0166985Y0085184D01*
X0166910Y0085160D01*
X0166837Y0085132D01*
X0166764Y0085101D01*
X0166693Y0085067D01*
X0166624Y0085029D01*
X0166557Y0084988D01*
X0166491Y0084944D01*
X0166428Y0084897D01*
X0166368Y0084847D01*
X0166309Y0084794D01*
X0166253Y0084738D01*
X0166200Y0084679D01*
X0166150Y0084619D01*
X0166103Y0084556D01*
X0166059Y0084490D01*
X0166018Y0084423D01*
X0165980Y0084354D01*
X0165946Y0084283D01*
X0165915Y0084210D01*
X0165887Y0084137D01*
X0165863Y0084062D01*
X0165843Y0083985D01*
X0165826Y0083908D01*
X0165813Y0083831D01*
X0165803Y0083752D01*
X0165798Y0083674D01*
X0165796Y0083595D01*
X0165796Y0080118D01*
X0165798Y0080037D01*
X0165804Y0079955D01*
X0165813Y0079874D01*
X0165827Y0079794D01*
X0165844Y0079715D01*
X0165865Y0079636D01*
X0165890Y0079558D01*
X0165919Y0079482D01*
X0165951Y0079407D01*
X0165986Y0079334D01*
X0166025Y0079263D01*
X0166068Y0079193D01*
X0166113Y0079126D01*
X0166162Y0079060D01*
X0166214Y0078998D01*
X0166269Y0078937D01*
X0166326Y0078880D01*
X0166387Y0078825D01*
X0166449Y0078773D01*
X0166515Y0078724D01*
X0166582Y0078679D01*
X0166652Y0078636D01*
X0166723Y0078597D01*
X0166796Y0078562D01*
X0166871Y0078530D01*
X0166947Y0078501D01*
X0167025Y0078476D01*
X0167104Y0078455D01*
X0167183Y0078438D01*
X0167263Y0078424D01*
X0167344Y0078415D01*
X0167426Y0078409D01*
X0167507Y0078407D01*
X0179760Y0077744D01*
X0179761Y0077744D02*
X0179805Y0077740D01*
X0179849Y0077732D01*
X0179892Y0077720D01*
X0179934Y0077705D01*
X0179974Y0077686D01*
X0180013Y0077664D01*
X0180049Y0077639D01*
X0180084Y0077611D01*
X0180116Y0077579D01*
X0180145Y0077546D01*
X0180171Y0077510D01*
X0180194Y0077471D01*
X0180214Y0077431D01*
X0180230Y0077390D01*
X0180242Y0077347D01*
X0180251Y0077304D01*
X0180257Y0077259D01*
X0180258Y0077215D01*
X0180256Y0077170D01*
X0180250Y0077126D01*
X0180240Y0077083D01*
X0180226Y0077040D01*
X0180209Y0076999D01*
X0180189Y0076959D01*
X0180165Y0076922D01*
X0180138Y0076886D01*
X0180108Y0076853D01*
X0180076Y0076822D01*
X0180041Y0076795D01*
X0180004Y0076770D01*
X0179965Y0076749D01*
X0179924Y0076731D01*
X0179882Y0076716D01*
X0179838Y0076706D01*
X0179794Y0076699D01*
X0179750Y0076695D01*
X0179705Y0076696D01*
X0153654Y0090383D02*
X0151336Y0090383D01*
X0151264Y0090385D01*
X0151192Y0090391D01*
X0151120Y0090400D01*
X0151049Y0090413D01*
X0150979Y0090430D01*
X0150910Y0090450D01*
X0150842Y0090475D01*
X0150775Y0090502D01*
X0150710Y0090533D01*
X0150646Y0090568D01*
X0150584Y0090606D01*
X0150525Y0090647D01*
X0150468Y0090691D01*
X0150413Y0090737D01*
X0150360Y0090787D01*
X0150310Y0090840D01*
X0150264Y0090895D01*
X0150220Y0090952D01*
X0150179Y0091011D01*
X0150141Y0091073D01*
X0150106Y0091137D01*
X0150075Y0091202D01*
X0150048Y0091269D01*
X0150023Y0091337D01*
X0150003Y0091406D01*
X0149986Y0091476D01*
X0149973Y0091547D01*
X0149964Y0091619D01*
X0149958Y0091691D01*
X0149956Y0091763D01*
X0149956Y0096786D01*
X0152109Y0098939D02*
X0152219Y0098939D01*
X0152277Y0098941D01*
X0152334Y0098947D01*
X0152391Y0098956D01*
X0152448Y0098969D01*
X0152503Y0098986D01*
X0152557Y0099006D01*
X0152610Y0099030D01*
X0152661Y0099057D01*
X0152710Y0099088D01*
X0152757Y0099121D01*
X0152801Y0099158D01*
X0152843Y0099198D01*
X0152883Y0099240D01*
X0152920Y0099284D01*
X0152953Y0099331D01*
X0152984Y0099381D01*
X0153011Y0099431D01*
X0153035Y0099484D01*
X0153055Y0099538D01*
X0153072Y0099593D01*
X0153085Y0099650D01*
X0153094Y0099707D01*
X0153100Y0099764D01*
X0153102Y0099822D01*
X0153102Y0100484D01*
X0153104Y0100532D01*
X0153109Y0100579D01*
X0153119Y0100626D01*
X0153132Y0100672D01*
X0153148Y0100716D01*
X0153168Y0100760D01*
X0153191Y0100801D01*
X0153218Y0100841D01*
X0153247Y0100878D01*
X0153280Y0100913D01*
X0153315Y0100946D01*
X0153352Y0100975D01*
X0153392Y0101002D01*
X0153433Y0101025D01*
X0153477Y0101045D01*
X0153521Y0101061D01*
X0153567Y0101074D01*
X0153614Y0101084D01*
X0153661Y0101089D01*
X0153709Y0101091D01*
X0153758Y0101089D01*
X0153808Y0101084D01*
X0153856Y0101074D01*
X0153904Y0101062D01*
X0153951Y0101045D01*
X0153996Y0101025D01*
X0154040Y0101002D01*
X0154082Y0100976D01*
X0154122Y0100947D01*
X0154159Y0100914D01*
X0154194Y0100879D01*
X0154227Y0100842D01*
X0154256Y0100802D01*
X0154282Y0100760D01*
X0154305Y0100716D01*
X0154325Y0100671D01*
X0154342Y0100624D01*
X0154354Y0100576D01*
X0154364Y0100528D01*
X0154369Y0100478D01*
X0154371Y0100429D01*
X0154372Y0100429D02*
X0154372Y0097007D01*
X0152108Y0098938D02*
X0152050Y0098940D01*
X0151993Y0098945D01*
X0151936Y0098955D01*
X0151879Y0098968D01*
X0151824Y0098985D01*
X0151770Y0099005D01*
X0151717Y0099029D01*
X0151666Y0099056D01*
X0151617Y0099086D01*
X0151570Y0099120D01*
X0151526Y0099157D01*
X0151483Y0099196D01*
X0151444Y0099239D01*
X0151407Y0099283D01*
X0151373Y0099330D01*
X0151343Y0099379D01*
X0151316Y0099430D01*
X0151292Y0099483D01*
X0151272Y0099537D01*
X0151255Y0099592D01*
X0151242Y0099649D01*
X0151232Y0099706D01*
X0151227Y0099763D01*
X0151225Y0099821D01*
X0151226Y0099822D02*
X0151226Y0100429D01*
X0151225Y0100429D02*
X0151223Y0100478D01*
X0151218Y0100528D01*
X0151208Y0100576D01*
X0151196Y0100624D01*
X0151179Y0100671D01*
X0151159Y0100716D01*
X0151136Y0100760D01*
X0151110Y0100802D01*
X0151081Y0100842D01*
X0151048Y0100879D01*
X0151013Y0100914D01*
X0150976Y0100947D01*
X0150936Y0100976D01*
X0150894Y0101002D01*
X0150850Y0101025D01*
X0150805Y0101045D01*
X0150758Y0101062D01*
X0150710Y0101074D01*
X0150662Y0101084D01*
X0150612Y0101089D01*
X0150563Y0101091D01*
X0150564Y0101091D01*
X0150563Y0101091D02*
X0150516Y0101089D01*
X0150468Y0101084D01*
X0150421Y0101075D01*
X0150375Y0101062D01*
X0150331Y0101045D01*
X0150287Y0101026D01*
X0150246Y0101002D01*
X0150206Y0100976D01*
X0150168Y0100946D01*
X0150133Y0100914D01*
X0150101Y0100879D01*
X0150071Y0100841D01*
X0150045Y0100802D01*
X0150022Y0100760D01*
X0150002Y0100717D01*
X0149985Y0100672D01*
X0149972Y0100626D01*
X0149963Y0100579D01*
X0149958Y0100532D01*
X0149956Y0100484D01*
X0140906Y0084950D02*
X0140906Y0078650D01*
X0129094Y0078650D02*
X0129094Y0084950D01*
X0101567Y0050979D02*
X0101567Y0046375D01*
X0100033Y0046375D02*
X0103102Y0046375D01*
X0100033Y0049444D02*
X0101567Y0050979D01*
X0098498Y0050979D02*
X0098498Y0046375D01*
X0096964Y0047910D01*
X0095429Y0046375D01*
X0095429Y0050979D01*
X0093894Y0050212D02*
X0093127Y0050979D01*
X0091592Y0050979D01*
X0090825Y0050212D01*
X0090825Y0049444D01*
X0091592Y0048677D01*
X0093127Y0048677D01*
X0093894Y0047910D01*
X0093894Y0047142D01*
X0093127Y0046375D01*
X0091592Y0046375D01*
X0090825Y0047142D01*
X0064123Y0022587D02*
X0063356Y0023354D01*
X0061821Y0023354D01*
X0061054Y0022587D01*
X0059519Y0022587D02*
X0058752Y0023354D01*
X0056450Y0023354D01*
X0056450Y0018750D01*
X0058752Y0018750D01*
X0059519Y0019517D01*
X0059519Y0022587D01*
X0061054Y0018750D02*
X0064123Y0021819D01*
X0064123Y0022587D01*
X0064123Y0018750D02*
X0061054Y0018750D01*
D18*
X0085884Y0066950D02*
X0085100Y0067734D01*
X0085100Y0071654D01*
X0088236Y0071654D02*
X0088236Y0067734D01*
X0087452Y0066950D01*
X0085884Y0066950D01*
X0089704Y0066950D02*
X0092840Y0070086D01*
X0092840Y0070870D01*
X0092056Y0071654D01*
X0090488Y0071654D01*
X0089704Y0070870D01*
X0089704Y0066950D02*
X0092840Y0066950D01*
D19*
X0158571Y0029531D02*
X0158571Y0028163D01*
X0159255Y0027479D01*
X0160623Y0028847D02*
X0160623Y0029531D01*
X0161307Y0030215D01*
X0161991Y0030215D01*
X0162675Y0029531D01*
X0162675Y0028163D01*
X0161991Y0027479D01*
X0160623Y0029531D02*
X0159939Y0030215D01*
X0159255Y0030215D01*
X0158571Y0029531D01*
X0158571Y0025611D02*
X0161991Y0025611D01*
X0162675Y0024927D01*
X0162675Y0023559D01*
X0161991Y0022875D01*
X0158571Y0022875D01*
M02*
