G75*
%MOIN*%
%OFA0B0*%
%FSLAX25Y25*%
%IPPOS*%
%LPD*%
%AMOC8*
5,1,8,0,0,1.08239X$1,22.5*
%
%ADD10C,0.00000*%
%ADD11C,0.01065*%
%ADD12C,0.06400*%
%ADD13C,0.06000*%
%ADD14C,0.05550*%
%ADD15R,0.05550X0.05550*%
%ADD16C,0.01381*%
%ADD17R,0.03156X0.01384*%
%ADD18R,0.01384X0.03156*%
%ADD19R,0.11227X0.11227*%
%ADD20C,0.00770*%
%ADD21R,0.09061X0.10243*%
%ADD22R,0.08274X0.02369*%
%ADD23C,0.03943*%
%ADD24R,0.04731X0.02762*%
D10*
X0030000Y0001800D02*
X0030000Y0133650D01*
X0179350Y0133650D01*
X0179350Y0001800D01*
X0030000Y0001800D01*
X0158228Y0074910D02*
X0158230Y0074994D01*
X0158236Y0075077D01*
X0158246Y0075160D01*
X0158260Y0075243D01*
X0158277Y0075325D01*
X0158299Y0075406D01*
X0158324Y0075485D01*
X0158353Y0075564D01*
X0158386Y0075641D01*
X0158422Y0075716D01*
X0158462Y0075790D01*
X0158505Y0075862D01*
X0158552Y0075931D01*
X0158602Y0075998D01*
X0158655Y0076063D01*
X0158711Y0076125D01*
X0158769Y0076185D01*
X0158831Y0076242D01*
X0158895Y0076295D01*
X0158962Y0076346D01*
X0159031Y0076393D01*
X0159102Y0076438D01*
X0159175Y0076478D01*
X0159250Y0076515D01*
X0159327Y0076549D01*
X0159405Y0076579D01*
X0159484Y0076605D01*
X0159565Y0076628D01*
X0159647Y0076646D01*
X0159729Y0076661D01*
X0159812Y0076672D01*
X0159895Y0076679D01*
X0159979Y0076682D01*
X0160063Y0076681D01*
X0160146Y0076676D01*
X0160230Y0076667D01*
X0160312Y0076654D01*
X0160394Y0076638D01*
X0160475Y0076617D01*
X0160556Y0076593D01*
X0160634Y0076565D01*
X0160712Y0076533D01*
X0160788Y0076497D01*
X0160862Y0076458D01*
X0160934Y0076416D01*
X0161004Y0076370D01*
X0161072Y0076321D01*
X0161137Y0076269D01*
X0161200Y0076214D01*
X0161260Y0076156D01*
X0161318Y0076095D01*
X0161372Y0076031D01*
X0161424Y0075965D01*
X0161472Y0075897D01*
X0161517Y0075826D01*
X0161558Y0075753D01*
X0161597Y0075679D01*
X0161631Y0075603D01*
X0161662Y0075525D01*
X0161689Y0075446D01*
X0161713Y0075365D01*
X0161732Y0075284D01*
X0161748Y0075202D01*
X0161760Y0075119D01*
X0161768Y0075035D01*
X0161772Y0074952D01*
X0161772Y0074868D01*
X0161768Y0074785D01*
X0161760Y0074701D01*
X0161748Y0074618D01*
X0161732Y0074536D01*
X0161713Y0074455D01*
X0161689Y0074374D01*
X0161662Y0074295D01*
X0161631Y0074217D01*
X0161597Y0074141D01*
X0161558Y0074067D01*
X0161517Y0073994D01*
X0161472Y0073923D01*
X0161424Y0073855D01*
X0161372Y0073789D01*
X0161318Y0073725D01*
X0161260Y0073664D01*
X0161200Y0073606D01*
X0161137Y0073551D01*
X0161072Y0073499D01*
X0161004Y0073450D01*
X0160934Y0073404D01*
X0160862Y0073362D01*
X0160788Y0073323D01*
X0160712Y0073287D01*
X0160634Y0073255D01*
X0160556Y0073227D01*
X0160475Y0073203D01*
X0160394Y0073182D01*
X0160312Y0073166D01*
X0160230Y0073153D01*
X0160146Y0073144D01*
X0160063Y0073139D01*
X0159979Y0073138D01*
X0159895Y0073141D01*
X0159812Y0073148D01*
X0159729Y0073159D01*
X0159647Y0073174D01*
X0159565Y0073192D01*
X0159484Y0073215D01*
X0159405Y0073241D01*
X0159327Y0073271D01*
X0159250Y0073305D01*
X0159175Y0073342D01*
X0159102Y0073382D01*
X0159031Y0073427D01*
X0158962Y0073474D01*
X0158895Y0073525D01*
X0158831Y0073578D01*
X0158769Y0073635D01*
X0158711Y0073695D01*
X0158655Y0073757D01*
X0158602Y0073822D01*
X0158552Y0073889D01*
X0158505Y0073958D01*
X0158462Y0074030D01*
X0158422Y0074104D01*
X0158386Y0074179D01*
X0158353Y0074256D01*
X0158324Y0074335D01*
X0158299Y0074414D01*
X0158277Y0074495D01*
X0158260Y0074577D01*
X0158246Y0074660D01*
X0158236Y0074743D01*
X0158230Y0074826D01*
X0158228Y0074910D01*
X0158228Y0088690D02*
X0158230Y0088774D01*
X0158236Y0088857D01*
X0158246Y0088940D01*
X0158260Y0089023D01*
X0158277Y0089105D01*
X0158299Y0089186D01*
X0158324Y0089265D01*
X0158353Y0089344D01*
X0158386Y0089421D01*
X0158422Y0089496D01*
X0158462Y0089570D01*
X0158505Y0089642D01*
X0158552Y0089711D01*
X0158602Y0089778D01*
X0158655Y0089843D01*
X0158711Y0089905D01*
X0158769Y0089965D01*
X0158831Y0090022D01*
X0158895Y0090075D01*
X0158962Y0090126D01*
X0159031Y0090173D01*
X0159102Y0090218D01*
X0159175Y0090258D01*
X0159250Y0090295D01*
X0159327Y0090329D01*
X0159405Y0090359D01*
X0159484Y0090385D01*
X0159565Y0090408D01*
X0159647Y0090426D01*
X0159729Y0090441D01*
X0159812Y0090452D01*
X0159895Y0090459D01*
X0159979Y0090462D01*
X0160063Y0090461D01*
X0160146Y0090456D01*
X0160230Y0090447D01*
X0160312Y0090434D01*
X0160394Y0090418D01*
X0160475Y0090397D01*
X0160556Y0090373D01*
X0160634Y0090345D01*
X0160712Y0090313D01*
X0160788Y0090277D01*
X0160862Y0090238D01*
X0160934Y0090196D01*
X0161004Y0090150D01*
X0161072Y0090101D01*
X0161137Y0090049D01*
X0161200Y0089994D01*
X0161260Y0089936D01*
X0161318Y0089875D01*
X0161372Y0089811D01*
X0161424Y0089745D01*
X0161472Y0089677D01*
X0161517Y0089606D01*
X0161558Y0089533D01*
X0161597Y0089459D01*
X0161631Y0089383D01*
X0161662Y0089305D01*
X0161689Y0089226D01*
X0161713Y0089145D01*
X0161732Y0089064D01*
X0161748Y0088982D01*
X0161760Y0088899D01*
X0161768Y0088815D01*
X0161772Y0088732D01*
X0161772Y0088648D01*
X0161768Y0088565D01*
X0161760Y0088481D01*
X0161748Y0088398D01*
X0161732Y0088316D01*
X0161713Y0088235D01*
X0161689Y0088154D01*
X0161662Y0088075D01*
X0161631Y0087997D01*
X0161597Y0087921D01*
X0161558Y0087847D01*
X0161517Y0087774D01*
X0161472Y0087703D01*
X0161424Y0087635D01*
X0161372Y0087569D01*
X0161318Y0087505D01*
X0161260Y0087444D01*
X0161200Y0087386D01*
X0161137Y0087331D01*
X0161072Y0087279D01*
X0161004Y0087230D01*
X0160934Y0087184D01*
X0160862Y0087142D01*
X0160788Y0087103D01*
X0160712Y0087067D01*
X0160634Y0087035D01*
X0160556Y0087007D01*
X0160475Y0086983D01*
X0160394Y0086962D01*
X0160312Y0086946D01*
X0160230Y0086933D01*
X0160146Y0086924D01*
X0160063Y0086919D01*
X0159979Y0086918D01*
X0159895Y0086921D01*
X0159812Y0086928D01*
X0159729Y0086939D01*
X0159647Y0086954D01*
X0159565Y0086972D01*
X0159484Y0086995D01*
X0159405Y0087021D01*
X0159327Y0087051D01*
X0159250Y0087085D01*
X0159175Y0087122D01*
X0159102Y0087162D01*
X0159031Y0087207D01*
X0158962Y0087254D01*
X0158895Y0087305D01*
X0158831Y0087358D01*
X0158769Y0087415D01*
X0158711Y0087475D01*
X0158655Y0087537D01*
X0158602Y0087602D01*
X0158552Y0087669D01*
X0158505Y0087738D01*
X0158462Y0087810D01*
X0158422Y0087884D01*
X0158386Y0087959D01*
X0158353Y0088036D01*
X0158324Y0088115D01*
X0158299Y0088194D01*
X0158277Y0088275D01*
X0158260Y0088357D01*
X0158246Y0088440D01*
X0158236Y0088523D01*
X0158230Y0088606D01*
X0158228Y0088690D01*
D11*
X0161243Y0063739D02*
X0161243Y0060861D01*
X0158757Y0060861D01*
X0158757Y0063739D01*
X0161243Y0063739D01*
X0161243Y0061925D02*
X0158757Y0061925D01*
X0158757Y0062989D02*
X0161243Y0062989D01*
X0166243Y0063739D02*
X0166243Y0060861D01*
X0163757Y0060861D01*
X0163757Y0063739D01*
X0166243Y0063739D01*
X0166243Y0061925D02*
X0163757Y0061925D01*
X0163757Y0062989D02*
X0166243Y0062989D01*
X0166243Y0057739D02*
X0166243Y0054861D01*
X0163757Y0054861D01*
X0163757Y0057739D01*
X0166243Y0057739D01*
X0166243Y0055925D02*
X0163757Y0055925D01*
X0163757Y0056989D02*
X0166243Y0056989D01*
X0161243Y0057739D02*
X0161243Y0054861D01*
X0158757Y0054861D01*
X0158757Y0057739D01*
X0161243Y0057739D01*
X0161243Y0055925D02*
X0158757Y0055925D01*
X0158757Y0056989D02*
X0161243Y0056989D01*
X0154439Y0041807D02*
X0151561Y0041807D01*
X0151561Y0044293D01*
X0154439Y0044293D01*
X0154439Y0041807D01*
X0154439Y0042871D02*
X0151561Y0042871D01*
X0151561Y0043935D02*
X0154439Y0043935D01*
X0148439Y0041807D02*
X0145561Y0041807D01*
X0145561Y0044293D01*
X0148439Y0044293D01*
X0148439Y0041807D01*
X0148439Y0042871D02*
X0145561Y0042871D01*
X0145561Y0043935D02*
X0148439Y0043935D01*
X0140007Y0039989D02*
X0140007Y0037111D01*
X0140007Y0039989D02*
X0142493Y0039989D01*
X0142493Y0037111D01*
X0140007Y0037111D01*
X0140007Y0038175D02*
X0142493Y0038175D01*
X0142493Y0039239D02*
X0140007Y0039239D01*
X0145561Y0038043D02*
X0148439Y0038043D01*
X0148439Y0035557D01*
X0145561Y0035557D01*
X0145561Y0038043D01*
X0145561Y0036621D02*
X0148439Y0036621D01*
X0148439Y0037685D02*
X0145561Y0037685D01*
X0140007Y0033989D02*
X0140007Y0031111D01*
X0140007Y0033989D02*
X0142493Y0033989D01*
X0142493Y0031111D01*
X0140007Y0031111D01*
X0140007Y0032175D02*
X0142493Y0032175D01*
X0142493Y0033239D02*
X0140007Y0033239D01*
X0131939Y0030557D02*
X0129061Y0030557D01*
X0129061Y0033043D01*
X0131939Y0033043D01*
X0131939Y0030557D01*
X0131939Y0031621D02*
X0129061Y0031621D01*
X0129061Y0032685D02*
X0131939Y0032685D01*
X0131939Y0035557D02*
X0129061Y0035557D01*
X0129061Y0038043D01*
X0131939Y0038043D01*
X0131939Y0035557D01*
X0131939Y0036621D02*
X0129061Y0036621D01*
X0129061Y0037685D02*
X0131939Y0037685D01*
X0125939Y0035557D02*
X0123061Y0035557D01*
X0123061Y0038043D01*
X0125939Y0038043D01*
X0125939Y0035557D01*
X0125939Y0036621D02*
X0123061Y0036621D01*
X0123061Y0037685D02*
X0125939Y0037685D01*
X0125939Y0030557D02*
X0123061Y0030557D01*
X0123061Y0033043D01*
X0125939Y0033043D01*
X0125939Y0030557D01*
X0125939Y0031621D02*
X0123061Y0031621D01*
X0123061Y0032685D02*
X0125939Y0032685D01*
X0125939Y0025557D02*
X0123061Y0025557D01*
X0123061Y0028043D01*
X0125939Y0028043D01*
X0125939Y0025557D01*
X0125939Y0026621D02*
X0123061Y0026621D01*
X0123061Y0027685D02*
X0125939Y0027685D01*
X0129061Y0025557D02*
X0131939Y0025557D01*
X0129061Y0025557D02*
X0129061Y0028043D01*
X0131939Y0028043D01*
X0131939Y0025557D01*
X0131939Y0026621D02*
X0129061Y0026621D01*
X0129061Y0027685D02*
X0131939Y0027685D01*
X0131939Y0020557D02*
X0129061Y0020557D01*
X0129061Y0023043D01*
X0131939Y0023043D01*
X0131939Y0020557D01*
X0131939Y0021621D02*
X0129061Y0021621D01*
X0129061Y0022685D02*
X0131939Y0022685D01*
X0131939Y0015557D02*
X0129061Y0015557D01*
X0129061Y0018043D01*
X0131939Y0018043D01*
X0131939Y0015557D01*
X0131939Y0016621D02*
X0129061Y0016621D01*
X0129061Y0017685D02*
X0131939Y0017685D01*
X0131939Y0010557D02*
X0129061Y0010557D01*
X0129061Y0013043D01*
X0131939Y0013043D01*
X0131939Y0010557D01*
X0131939Y0011621D02*
X0129061Y0011621D01*
X0129061Y0012685D02*
X0131939Y0012685D01*
X0125939Y0010557D02*
X0123061Y0010557D01*
X0123061Y0013043D01*
X0125939Y0013043D01*
X0125939Y0010557D01*
X0125939Y0011621D02*
X0123061Y0011621D01*
X0123061Y0012685D02*
X0125939Y0012685D01*
X0125939Y0015557D02*
X0123061Y0015557D01*
X0123061Y0018043D01*
X0125939Y0018043D01*
X0125939Y0015557D01*
X0125939Y0016621D02*
X0123061Y0016621D01*
X0123061Y0017685D02*
X0125939Y0017685D01*
X0125939Y0020557D02*
X0123061Y0020557D01*
X0123061Y0023043D01*
X0125939Y0023043D01*
X0125939Y0020557D01*
X0125939Y0021621D02*
X0123061Y0021621D01*
X0123061Y0022685D02*
X0125939Y0022685D01*
X0145561Y0014293D02*
X0148439Y0014293D01*
X0148439Y0011807D01*
X0145561Y0011807D01*
X0145561Y0014293D01*
X0145561Y0012871D02*
X0148439Y0012871D01*
X0148439Y0013935D02*
X0145561Y0013935D01*
X0151561Y0014293D02*
X0154439Y0014293D01*
X0154439Y0011807D01*
X0151561Y0011807D01*
X0151561Y0014293D01*
X0151561Y0012871D02*
X0154439Y0012871D01*
X0154439Y0013935D02*
X0151561Y0013935D01*
X0151561Y0038043D02*
X0154439Y0038043D01*
X0154439Y0035557D01*
X0151561Y0035557D01*
X0151561Y0038043D01*
X0151561Y0036621D02*
X0154439Y0036621D01*
X0154439Y0037685D02*
X0151561Y0037685D01*
X0141243Y0046111D02*
X0141243Y0048989D01*
X0141243Y0046111D02*
X0138757Y0046111D01*
X0138757Y0048989D01*
X0141243Y0048989D01*
X0141243Y0047175D02*
X0138757Y0047175D01*
X0138757Y0048239D02*
X0141243Y0048239D01*
X0141243Y0052111D02*
X0141243Y0054989D01*
X0141243Y0052111D02*
X0138757Y0052111D01*
X0138757Y0054989D01*
X0141243Y0054989D01*
X0141243Y0053175D02*
X0138757Y0053175D01*
X0138757Y0054239D02*
X0141243Y0054239D01*
X0109439Y0088043D02*
X0106561Y0088043D01*
X0109439Y0088043D02*
X0109439Y0085557D01*
X0106561Y0085557D01*
X0106561Y0088043D01*
X0106561Y0086621D02*
X0109439Y0086621D01*
X0109439Y0087685D02*
X0106561Y0087685D01*
X0103439Y0088043D02*
X0100561Y0088043D01*
X0103439Y0088043D02*
X0103439Y0085557D01*
X0100561Y0085557D01*
X0100561Y0088043D01*
X0100561Y0086621D02*
X0103439Y0086621D01*
X0103439Y0087685D02*
X0100561Y0087685D01*
X0101243Y0094861D02*
X0101243Y0097739D01*
X0101243Y0094861D02*
X0098757Y0094861D01*
X0098757Y0097739D01*
X0101243Y0097739D01*
X0101243Y0095925D02*
X0098757Y0095925D01*
X0098757Y0096989D02*
X0101243Y0096989D01*
X0096243Y0097739D02*
X0096243Y0094861D01*
X0093757Y0094861D01*
X0093757Y0097739D01*
X0096243Y0097739D01*
X0096243Y0095925D02*
X0093757Y0095925D01*
X0093757Y0096989D02*
X0096243Y0096989D01*
X0091243Y0097739D02*
X0091243Y0094861D01*
X0088757Y0094861D01*
X0088757Y0097739D01*
X0091243Y0097739D01*
X0091243Y0095925D02*
X0088757Y0095925D01*
X0088757Y0096989D02*
X0091243Y0096989D01*
X0091243Y0100861D02*
X0091243Y0103739D01*
X0091243Y0100861D02*
X0088757Y0100861D01*
X0088757Y0103739D01*
X0091243Y0103739D01*
X0091243Y0101925D02*
X0088757Y0101925D01*
X0088757Y0102989D02*
X0091243Y0102989D01*
X0096243Y0103739D02*
X0096243Y0100861D01*
X0093757Y0100861D01*
X0093757Y0103739D01*
X0096243Y0103739D01*
X0096243Y0101925D02*
X0093757Y0101925D01*
X0093757Y0102989D02*
X0096243Y0102989D01*
X0101243Y0103739D02*
X0101243Y0100861D01*
X0098757Y0100861D01*
X0098757Y0103739D01*
X0101243Y0103739D01*
X0101243Y0101925D02*
X0098757Y0101925D01*
X0098757Y0102989D02*
X0101243Y0102989D01*
X0091243Y0108611D02*
X0091243Y0111489D01*
X0091243Y0108611D02*
X0088757Y0108611D01*
X0088757Y0111489D01*
X0091243Y0111489D01*
X0091243Y0109675D02*
X0088757Y0109675D01*
X0088757Y0110739D02*
X0091243Y0110739D01*
X0091243Y0114611D02*
X0091243Y0117489D01*
X0091243Y0114611D02*
X0088757Y0114611D01*
X0088757Y0117489D01*
X0091243Y0117489D01*
X0091243Y0115675D02*
X0088757Y0115675D01*
X0088757Y0116739D02*
X0091243Y0116739D01*
X0081939Y0111807D02*
X0079061Y0111807D01*
X0079061Y0114293D01*
X0081939Y0114293D01*
X0081939Y0111807D01*
X0081939Y0112871D02*
X0079061Y0112871D01*
X0079061Y0113935D02*
X0081939Y0113935D01*
X0075939Y0111807D02*
X0073061Y0111807D01*
X0073061Y0114293D01*
X0075939Y0114293D01*
X0075939Y0111807D01*
X0075939Y0112871D02*
X0073061Y0112871D01*
X0073061Y0113935D02*
X0075939Y0113935D01*
X0075939Y0119307D02*
X0073061Y0119307D01*
X0073061Y0121793D01*
X0075939Y0121793D01*
X0075939Y0119307D01*
X0075939Y0120371D02*
X0073061Y0120371D01*
X0073061Y0121435D02*
X0075939Y0121435D01*
X0079061Y0119307D02*
X0081939Y0119307D01*
X0079061Y0119307D02*
X0079061Y0121793D01*
X0081939Y0121793D01*
X0081939Y0119307D01*
X0081939Y0120371D02*
X0079061Y0120371D01*
X0079061Y0121435D02*
X0081939Y0121435D01*
X0066939Y0125557D02*
X0064061Y0125557D01*
X0064061Y0128043D01*
X0066939Y0128043D01*
X0066939Y0125557D01*
X0066939Y0126621D02*
X0064061Y0126621D01*
X0064061Y0127685D02*
X0066939Y0127685D01*
X0060939Y0125557D02*
X0058061Y0125557D01*
X0058061Y0128043D01*
X0060939Y0128043D01*
X0060939Y0125557D01*
X0060939Y0126621D02*
X0058061Y0126621D01*
X0058061Y0127685D02*
X0060939Y0127685D01*
X0060561Y0105557D02*
X0063439Y0105557D01*
X0060561Y0105557D02*
X0060561Y0108043D01*
X0063439Y0108043D01*
X0063439Y0105557D01*
X0063439Y0106621D02*
X0060561Y0106621D01*
X0060561Y0107685D02*
X0063439Y0107685D01*
X0066561Y0105557D02*
X0069439Y0105557D01*
X0066561Y0105557D02*
X0066561Y0108043D01*
X0069439Y0108043D01*
X0069439Y0105557D01*
X0069439Y0106621D02*
X0066561Y0106621D01*
X0066561Y0107685D02*
X0069439Y0107685D01*
X0071243Y0081239D02*
X0071243Y0078361D01*
X0068757Y0078361D01*
X0068757Y0081239D01*
X0071243Y0081239D01*
X0071243Y0079425D02*
X0068757Y0079425D01*
X0068757Y0080489D02*
X0071243Y0080489D01*
X0071243Y0075239D02*
X0071243Y0072361D01*
X0068757Y0072361D01*
X0068757Y0075239D01*
X0071243Y0075239D01*
X0071243Y0073425D02*
X0068757Y0073425D01*
X0068757Y0074489D02*
X0071243Y0074489D01*
X0071243Y0061239D02*
X0071243Y0058361D01*
X0068757Y0058361D01*
X0068757Y0061239D01*
X0071243Y0061239D01*
X0071243Y0059425D02*
X0068757Y0059425D01*
X0068757Y0060489D02*
X0071243Y0060489D01*
X0076243Y0061239D02*
X0076243Y0058361D01*
X0073757Y0058361D01*
X0073757Y0061239D01*
X0076243Y0061239D01*
X0076243Y0059425D02*
X0073757Y0059425D01*
X0073757Y0060489D02*
X0076243Y0060489D01*
X0081243Y0061239D02*
X0081243Y0058361D01*
X0078757Y0058361D01*
X0078757Y0061239D01*
X0081243Y0061239D01*
X0081243Y0059425D02*
X0078757Y0059425D01*
X0078757Y0060489D02*
X0081243Y0060489D01*
X0081243Y0055239D02*
X0081243Y0052361D01*
X0078757Y0052361D01*
X0078757Y0055239D01*
X0081243Y0055239D01*
X0081243Y0053425D02*
X0078757Y0053425D01*
X0078757Y0054489D02*
X0081243Y0054489D01*
X0076243Y0055239D02*
X0076243Y0052361D01*
X0073757Y0052361D01*
X0073757Y0055239D01*
X0076243Y0055239D01*
X0076243Y0053425D02*
X0073757Y0053425D01*
X0073757Y0054489D02*
X0076243Y0054489D01*
X0071243Y0055239D02*
X0071243Y0052361D01*
X0068757Y0052361D01*
X0068757Y0055239D01*
X0071243Y0055239D01*
X0071243Y0053425D02*
X0068757Y0053425D01*
X0068757Y0054489D02*
X0071243Y0054489D01*
X0066243Y0055239D02*
X0066243Y0052361D01*
X0063757Y0052361D01*
X0063757Y0055239D01*
X0066243Y0055239D01*
X0066243Y0053425D02*
X0063757Y0053425D01*
X0063757Y0054489D02*
X0066243Y0054489D01*
X0066243Y0058361D02*
X0066243Y0061239D01*
X0066243Y0058361D02*
X0063757Y0058361D01*
X0063757Y0061239D01*
X0066243Y0061239D01*
X0066243Y0059425D02*
X0063757Y0059425D01*
X0063757Y0060489D02*
X0066243Y0060489D01*
D12*
X0048000Y0061800D02*
X0042000Y0061800D01*
X0042000Y0051800D02*
X0048000Y0051800D01*
X0048000Y0041800D02*
X0042000Y0041800D01*
X0042000Y0031800D02*
X0048000Y0031800D01*
X0048000Y0021800D02*
X0042000Y0021800D01*
X0042000Y0011800D02*
X0048000Y0011800D01*
X0110000Y0063800D02*
X0110000Y0069800D01*
X0120000Y0069800D02*
X0120000Y0063800D01*
X0130000Y0063800D02*
X0130000Y0069800D01*
X0140000Y0069800D02*
X0140000Y0063800D01*
X0140000Y0121300D02*
X0140000Y0127300D01*
X0150000Y0127300D02*
X0150000Y0121300D01*
X0160000Y0121300D02*
X0160000Y0127300D01*
X0170000Y0127300D02*
X0170000Y0121300D01*
X0130000Y0121300D02*
X0130000Y0127300D01*
X0120000Y0127300D02*
X0120000Y0121300D01*
X0110000Y0121300D02*
X0110000Y0127300D01*
X0048000Y0126800D02*
X0042000Y0126800D01*
X0042000Y0116800D02*
X0048000Y0116800D01*
X0048000Y0106800D02*
X0042000Y0106800D01*
X0042000Y0096800D02*
X0048000Y0096800D01*
X0048000Y0086800D02*
X0042000Y0086800D01*
X0042000Y0076800D02*
X0048000Y0076800D01*
D13*
X0120000Y0054600D02*
X0120000Y0049000D01*
X0130000Y0049000D02*
X0130000Y0054600D01*
D14*
X0107500Y0041800D03*
X0097500Y0041800D03*
X0087500Y0041800D03*
X0087500Y0011800D03*
X0077500Y0011800D03*
X0097500Y0011800D03*
X0107500Y0011800D03*
D15*
X0077500Y0041800D03*
D16*
X0130569Y0075991D02*
X0131951Y0075991D01*
X0130569Y0075991D02*
X0130569Y0078751D01*
X0131951Y0078751D01*
X0131951Y0075991D01*
X0131951Y0077371D02*
X0130569Y0077371D01*
X0130569Y0078751D02*
X0131951Y0078751D01*
X0134309Y0075991D02*
X0135691Y0075991D01*
X0134309Y0075991D02*
X0134309Y0078751D01*
X0135691Y0078751D01*
X0135691Y0075991D01*
X0135691Y0077371D02*
X0134309Y0077371D01*
X0134309Y0078751D02*
X0135691Y0078751D01*
X0138049Y0075991D02*
X0139431Y0075991D01*
X0138049Y0075991D02*
X0138049Y0078751D01*
X0139431Y0078751D01*
X0139431Y0075991D01*
X0139431Y0077371D02*
X0138049Y0077371D01*
X0138049Y0078751D02*
X0139431Y0078751D01*
X0139431Y0088003D02*
X0138049Y0088003D01*
X0139431Y0088003D02*
X0139431Y0084849D01*
X0138049Y0084849D01*
X0138049Y0088003D01*
X0138049Y0086229D02*
X0139431Y0086229D01*
X0139431Y0087609D02*
X0138049Y0087609D01*
X0135691Y0087609D02*
X0134309Y0087609D01*
X0135691Y0087609D02*
X0135691Y0084849D01*
X0134309Y0084849D01*
X0134309Y0087609D01*
X0134309Y0086229D02*
X0135691Y0086229D01*
X0135691Y0087609D02*
X0134309Y0087609D01*
X0131951Y0087609D02*
X0130569Y0087609D01*
X0131951Y0087609D02*
X0131951Y0084849D01*
X0130569Y0084849D01*
X0130569Y0087609D01*
X0130569Y0086229D02*
X0131951Y0086229D01*
X0131951Y0087609D02*
X0130569Y0087609D01*
D17*
X0092776Y0086700D03*
X0092776Y0084800D03*
X0092776Y0082800D03*
X0092776Y0080800D03*
X0092776Y0078800D03*
X0092776Y0076900D03*
X0077224Y0076900D03*
X0077224Y0078800D03*
X0077224Y0080800D03*
X0077224Y0082800D03*
X0077224Y0084800D03*
X0077224Y0086700D03*
D18*
X0080100Y0089576D03*
X0082000Y0089576D03*
X0084000Y0089576D03*
X0086000Y0089576D03*
X0088000Y0089576D03*
X0089900Y0089576D03*
X0089900Y0074024D03*
X0088000Y0074024D03*
X0086000Y0074024D03*
X0084000Y0074024D03*
X0082000Y0074024D03*
X0080100Y0074024D03*
D19*
X0085000Y0081800D03*
D20*
X0145363Y0029741D02*
X0147157Y0029741D01*
X0145363Y0029741D02*
X0145363Y0034095D01*
X0147157Y0034095D01*
X0147157Y0029741D01*
X0147157Y0030510D02*
X0145363Y0030510D01*
X0145363Y0031279D02*
X0147157Y0031279D01*
X0147157Y0032048D02*
X0145363Y0032048D01*
X0145363Y0032817D02*
X0147157Y0032817D01*
X0147157Y0033586D02*
X0145363Y0033586D01*
X0152843Y0029741D02*
X0154637Y0029741D01*
X0152843Y0029741D02*
X0152843Y0034095D01*
X0154637Y0034095D01*
X0154637Y0029741D01*
X0154637Y0030510D02*
X0152843Y0030510D01*
X0152843Y0031279D02*
X0154637Y0031279D01*
X0154637Y0032048D02*
X0152843Y0032048D01*
X0152843Y0032817D02*
X0154637Y0032817D01*
X0154637Y0033586D02*
X0152843Y0033586D01*
X0152843Y0019505D02*
X0154637Y0019505D01*
X0152843Y0019505D02*
X0152843Y0023859D01*
X0154637Y0023859D01*
X0154637Y0019505D01*
X0154637Y0020274D02*
X0152843Y0020274D01*
X0152843Y0021043D02*
X0154637Y0021043D01*
X0154637Y0021812D02*
X0152843Y0021812D01*
X0152843Y0022581D02*
X0154637Y0022581D01*
X0154637Y0023350D02*
X0152843Y0023350D01*
X0150897Y0019505D02*
X0149103Y0019505D01*
X0149103Y0023859D01*
X0150897Y0023859D01*
X0150897Y0019505D01*
X0150897Y0020274D02*
X0149103Y0020274D01*
X0149103Y0021043D02*
X0150897Y0021043D01*
X0150897Y0021812D02*
X0149103Y0021812D01*
X0149103Y0022581D02*
X0150897Y0022581D01*
X0150897Y0023350D02*
X0149103Y0023350D01*
X0147157Y0019505D02*
X0145363Y0019505D01*
X0145363Y0023859D01*
X0147157Y0023859D01*
X0147157Y0019505D01*
X0147157Y0020274D02*
X0145363Y0020274D01*
X0145363Y0021043D02*
X0147157Y0021043D01*
X0147157Y0021812D02*
X0145363Y0021812D01*
X0145363Y0022581D02*
X0147157Y0022581D01*
X0147157Y0023350D02*
X0145363Y0023350D01*
D21*
X0152126Y0065265D03*
X0172992Y0065265D03*
X0172992Y0098335D03*
X0152126Y0098335D03*
D22*
X0151142Y0088099D03*
X0151142Y0084950D03*
X0151142Y0081800D03*
X0151142Y0078650D03*
X0151142Y0075501D03*
D23*
X0160000Y0074910D03*
X0160000Y0088690D03*
D24*
X0067421Y0113060D03*
X0067421Y0116800D03*
X0067421Y0120540D03*
X0057579Y0120540D03*
X0057579Y0116800D03*
X0057579Y0113060D03*
X0055079Y0035540D03*
X0055079Y0031800D03*
X0055079Y0028060D03*
X0064921Y0028060D03*
X0064921Y0031800D03*
X0064921Y0035540D03*
M02*
