%
M48
M72
T01C0.01181
T02C0.03150
T03C0.03543
T04C0.03600
T05C0.04000
%
T01
X36250Y121800
X36250Y111800
X36250Y101800
X36250Y91800
X36250Y81800
X36250Y66800
X36250Y56800
X36250Y46800
X36250Y36800
X36250Y26800
X36250Y16800
X53750Y8050
X61250Y8050
X70000Y8050
X63750Y15550
X55000Y23050
X60000Y31800
X69375Y31800
X78125Y34300
X83125Y47425
X60000Y44300
X58750Y49300
X53750Y39300
X76250Y21175
X115000Y8050
X127500Y8050
X136250Y8050
X150000Y16800
X147500Y26800
X152500Y26800
X136250Y36800
X125000Y43050
X136250Y50550
X151250Y46800
X172500Y50550
X172500Y39300
X172500Y28050
X172500Y18050
X172500Y8050
X135625Y26800
X100625Y68675
X105000Y73050
X115000Y74300
X127500Y78675
X135000Y81800
X127500Y86175
X116875Y86800
X112500Y86800
X98125Y86800
X92500Y89300
X98125Y91800
X103750Y99300
X107500Y101800
X111250Y99300
X115000Y106800
X123125Y115550
X115000Y116175
X126875Y107425
X132500Y104300
X136250Y105550
X140000Y104300
X136250Y95550
X140000Y91800
X143750Y89300
X143750Y85550
X164375Y117425
X100000Y106800
X95000Y106800
X75000Y95550
X75000Y90550
X82500Y84300
X87500Y84300
X87500Y79300
X82500Y79300
X73125Y76800
X63750Y75550
X70000Y68050
X64375Y86175
X72500Y103050
X62500Y113050
X62500Y116800
X62500Y120550
X72500Y116800
X75000Y126800
X67500Y130550
X88750Y128050
X96250Y129300
T02
X77500Y41800
X87500Y41800
X97500Y41800
X107500Y41800
X107500Y11800
X97500Y11800
X87500Y11800
X77500Y11800
T03
X160000Y88690
X160000Y74910
T04
X120000Y51800
X130000Y51800
T05
X45000Y126800
X45000Y116800
X45000Y106800
X45000Y96800
X45000Y86800
X45000Y76800
X45000Y61800
X45000Y51800
X45000Y41800
X45000Y31800
X45000Y21800
X45000Y11800
X110000Y66800
X120000Y66800
X130000Y66800
X140000Y66800
X160000Y124300
X150000Y124300
X140000Y124300
X130000Y124300
X120000Y124300
X110000Y124300
X170000Y124300
M30
