999
dxfrw 0.6.3
  0
SECTION
  2
HEADER
  9
$ACADVER
  1
AC1021
  9
$DWGCODEPAGE
  3
ANSI_1252
  9
$INSBASE
 10
0
 20
0
 30
0
  9
$EXTMIN
 10
-1.110223024625157e-16
 20
0
 30
0
  9
$EXTMAX
 10
25
 20
295
 30
0
  9
$LIMMIN
 10
0
 20
0
  9
$LIMMAX
 10
420
 20
297
  9
$ORTHOMODE
 70
    0
  9
$REGENMODE
 70
    1
  9
$FILLMODE
 70
    1
  9
$QTEXTMODE
 70
    0
  9
$MIRRTEXT
 70
    0
  9
$LTSCALE
 40
1
  9
$ATTMODE
 70
    0
  9
$TEXTSIZE
 40
2.5
  9
$TRACEWID
 40
15.68
  9
$TEXTSTYLE
  7
STANDARD
  9
$CLAYER
  8
measures
  9
$CELTYPE
  6
BYLAYER
  9
$CECOLOR
 62
  256
  9
$CELTSCALE
 40
1
  9
$DISPSILH
 70
    0
  9
$DIMSCALE
 40
2.5
  9
$DIMASZ
 40
2.5
  9
$DIMEXO
 40
0.625
  9
$DIMDLI
 40
3.75
  9
$DIMRND
 40
0
  9
$DIMDLE
 40
0
  9
$DIMEXE
 40
1.25
  9
$DIMTP
 40
0
  9
$DIMTM
 40
0
  9
$DIMTXT
 40
2.5
  9
$DIMCEN
 40
2.5
  9
$DIMTSZ
 40
0
  9
$DIMTOL
 70
    0
  9
$DIMLIM
 70
    0
  9
$DIMTIH
 70
    0
  9
$DIMTOH
 70
    0
  9
$DIMSE1
 70
    0
  9
$DIMSE2
 70
    0
  9
$DIMTAD
 70
    1
  9
$DIMZIN
 70
    8
  9
$DIMBLK
  1

  9
$DIMASO
 70
    1
  9
$DIMSHO
 70
    1
  9
$DIMPOST
  1

  9
$DIMAPOST
  1

  9
$DIMALT
 70
    0
  9
$DIMALTD
 70
    3
  9
$DIMALTF
 40
0.03937
  9
$DIMLFAC
 40
1
  9
$DIMTOFL
 70
    1
  9
$DIMTVP
 40
0
  9
$DIMTIX
 70
    0
  9
$DIMSOXD
 70
    0
  9
$DIMSAH
 70
    0
  9
$DIMBLK1
  1

  9
$DIMBLK2
  1

  9
$DIMSTYLE
  2
STANDARD
  9
$DIMCLRD
 70
    0
  9
$DIMCLRE
 70
    0
  9
$DIMCLRT
 70
    0
  9
$DIMTFAC
 40
1
  9
$DIMGAP
 40
0.625
  9
$DIMJUST
 70
    0
  9
$DIMSD1
 70
    0
  9
$DIMSD2
 70
    0
  9
$DIMTOLJ
 70
    0
  9
$DIMTZIN
 70
    8
  9
$DIMALTZ
 70
    0
  9
$DIMALTTZ
 70
    0
  9
$DIMUPT
 70
    0
  9
$DIMDEC
 70
    2
  9
$DIMTDEC
 70
    2
  9
$DIMALTU
 70
    2
  9
$DIMALTTD
 70
    3
  9
$DIMTXSTY
  7
STANDARD
  9
$DIMAUNIT
 70
    0
  9
$DIMADEC
 70
    0
  9
$DIMALTRND
 40
0
  9
$DIMAZIN
 70
    0
  9
$DIMDSEP
 70
   44
  9
$DIMATFIT
 70
    3
  9
$DIMFRAC
 70
    0
  9
$DIMLDRBLK
  1
STANDARD
  9
$DIMLUNIT
 70
    2
  9
$DIMLWD
 70
   -2
  9
$DIMLWE
 70
   -2
  9
$DIMTMOVE
 70
    0
  9
$DIMFXL
 40
1
  9
$DIMFXLON
 70
    0
  9
$DIMJOGANG
 40
0.7854
  9
$DIMTFILL
 70
    0
  9
$DIMTFILLCLR
 70
    0
  9
$DIMARCSYM
 70
    0
  9
$DIMLTYPE
  6

  9
$DIMLTEX1
  6

  9
$DIMLTEX2
  6

  9
$LUNITS
 70
    2
  9
$LUPREC
 70
    4
  9
$SKETCHINC
 40
1
  9
$FILLETRAD
 40
0
  9
$AUNITS
 70
    0
  9
$AUPREC
 70
    2
  9
$MENU
  1
.
  9
$ELEVATION
 40
0
  9
$PELEVATION
 40
0
  9
$THICKNESS
 40
0
  9
$LIMCHECK
 70
    0
  9
$CHAMFERA
 40
0
  9
$CHAMFERB
 40
0
  9
$CHAMFERC
 40
0
  9
$CHAMFERD
 40
0
  9
$SKPOLY
 70
    0
  9
$USRTIMER
 70
    1
  9
$ANGBASE
 50
0
  9
$ANGDIR
 70
    0
  9
$PDMODE
 70
   34
  9
$PDSIZE
 40
0
  9
$PLINEWID
 40
0
  9
$SPLFRAME
 70
    0
  9
$SPLINETYPE
 70
    2
  9
$SPLINESEGS
 70
    8
  9
$HANDSEED
  5
20000
  9
$SURFTAB1
 70
    6
  9
$SURFTAB2
 70
    6
  9
$SURFTYPE
 70
    6
  9
$SURFU
 70
    6
  9
$SURFV
 70
    6
  9
$UCSBASE
  2

  9
$UCSNAME
  2

  9
$UCSORG
 10
0
 20
0
 30
0
  9
$UCSXDIR
 10
1
 20
0
 30
0
  9
$UCSYDIR
 10
0
 20
1
 30
0
  9
$UCSORTHOREF
  2

  9
$UCSORTHOVIEW
 70
    0
  9
$UCSORGTOP
 10
0
 20
0
 30
0
  9
$UCSORGBOTTOM
 10
0
 20
0
 30
0
  9
$UCSORGLEFT
 10
0
 20
0
 30
0
  9
$UCSORGRIGHT
 10
0
 20
0
 30
0
  9
$UCSORGFRONT
 10
0
 20
0
 30
0
  9
$UCSORGBACK
 10
0
 20
0
 30
0
  9
$PUCSBASE
  2

  9
$PUCSNAME
  2

  9
$PUCSORG
 10
0
 20
0
 30
0
  9
$PUCSXDIR
 10
1
 20
0
 30
0
  9
$PUCSYDIR
 10
0
 20
1
 30
0
  9
$PUCSORTHOREF
  2

  9
$PUCSORTHOVIEW
 70
    0
  9
$PUCSORGTOP
 10
0
 20
0
 30
0
  9
$PUCSORGBOTTOM
 10
0
 20
0
 30
0
  9
$PUCSORGLEFT
 10
0
 20
0
 30
0
  9
$PUCSORGRIGHT
 10
0
 20
0
 30
0
  9
$PUCSORGFRONT
 10
0
 20
0
 30
0
  9
$PUCSORGBACK
 10
0
 20
0
 30
0
  9
$USERI1
 70
    0
  9
$USERI2
 70
    0
  9
$USERI3
 70
    0
  9
$USERI4
 70
    0
  9
$USERI5
 70
    0
  9
$USERR1
 40
0
  9
$USERR2
 40
0
  9
$USERR3
 40
0
  9
$USERR4
 40
0
  9
$USERR5
 40
0
  9
$WORLDVIEW
 70
    1
  9
$SHADEDGE
 70
    3
  9
$SHADEDIF
 70
   70
  9
$TILEMODE
 70
    1
  9
$MAXACTVP
 70
   64
  9
$PINSBASE
 10
0
 20
0
 30
0
  9
$PLIMCHECK
 70
    0
  9
$PEXTMIN
 10
0
 20
0
 30
0
  9
$PEXTMAX
 10
0
 20
0
 30
0
  9
$GRIDMODE
 70
    1
  9
$SNAPSTYLE
 70
    0
  9
$PLIMMIN
 10
0
 20
0
  9
$PLIMMAX
 10
297
 20
210
  9
$UNITMODE
 70
    0
  9
$VISRETAIN
 70
    1
  9
$PLINEGEN
 70
    0
  9
$PSLTSCALE
 70
    1
  9
$TREEDEPTH
 70
 3020
  9
$CMLSTYLE
  2
Standard
  9
$CMLJUST
 70
    0
  9
$CMLSCALE
 40
20
  9
$PROXYGRAPHICS
 70
    1
  9
$MEASUREMENT
 70
    1
  9
$CELWEIGHT
370
   -1
  9
$ENDCAPS
280
    0
  9
$JOINSTYLE
280
    0
  9
$LWDISPLAY
290
    0
  9
$INSUNITS
 70
    4
  9
$HYPERLINKBASE
  1

  9
$STYLESHEET
  1

  9
$XEDIT
290
    1
  9
$CEPSNTYPE
380
    0
  9
$PSTYLEMODE
290
    1
  9
$EXTNAMES
290
    1
  9
$PSVPSCALE
 40
1
  9
$OLESTARTUP
290
    0
  9
$SORTENTS
280
  127
  9
$INDEXCTL
280
    0
  9
$HIDETEXT
280
    1
  9
$XCLIPFRAME
290
    0
  9
$HALOGAP
280
    0
  9
$OBSCOLOR
 70
  257
  9
$OBSLTYPE
280
    0
  9
$INTERSECTIONDISPLAY
280
    0
  9
$INTERSECTIONCOLOR
 70
  257
  9
$DIMASSOC
280
    1
  9
$PROJECTNAME
  1

  9
$CAMERADISPLAY
290
    0
  9
$LENSLENGTH
 40
50
  9
$CAMERAHEIGHT
 40
0
  9
$STEPSPERSEC
 40
2
  9
$STEPSIZE
 40
50
  9
$3DDWFPREC
 40
2
  9
$PSOLWIDTH
 40
5
  9
$PSOLHEIGHT
 40
80
  9
$LOFTANG1
 40
1.570796326794897
  9
$LOFTANG2
 40
1.570796326794897
  9
$LOFTMAG1
 40
0
  9
$LOFTMAG2
 40
0
  9
$LOFTPARAM
 70
    7
  9
$LOFTNORMALS
280
    1
  9
$LATITUDE
 40
1
  9
$LONGITUDE
 40
1
  9
$NORTHDIRECTION
 40
0
  9
$TIMEZONE
 70
-8000
  9
$LIGHTGLYPHDISPLAY
280
    1
  9
$TILEMODELIGHTSYNCH
280
    1
  9
$SOLIDHIST
280
    1
  9
$SHOWHIST
280
    1
  9
$DWFFRAME
280
    2
  9
$DGNFRAME
280
    0
  9
$REALWORLDSCALE
290
    1
  9
$INTERFERECOLOR
 62
    1
  9
$CSHADOW
280
    0
  9
$SHADOWPLANELOCATION
 40
0
  0
ENDSEC
  0
SECTION
  2
CLASSES
  0
ENDSEC
  0
SECTION
  2
TABLES
  0
TABLE
  2
VPORT
  5
8
330
0
100
AcDbSymbolTable
 70
    1
  0
VPORT
  5
31
330
2
100
AcDbSymbolTableRecord
100
AcDbViewportTableRecord
  2
*ACTIVE
 70
    0
 10
0
 20
0
 11
1
 21
1
 12
117.5923478773787
 22
213.727268531034
 13
0
 23
0
 14
10
 24
10
 15
10
 25
10
 16
0
 26
0
 36
1
 17
0
 27
0
 37
0
 40
535.3063423181513
 41
0.7827004219409283
 42
50
 43
0
 44
0
 50
0
 51
0
 71
    0
 72
  100
 73
    1
 74
    3
 75
    0
 76
    1
 77
    0
 78
    0
281
    0
 65
    1
110
0
120
0
130
0
111
1
121
0
131
0
112
0
122
1
132
0
 79
    0
146
0
348
10020
 60
    7
 61
    5
292
1
282
    1
141
0
142
0
 63
  250
421
3358443
  0
ENDTAB
  0
TABLE
  2
LTYPE
  5
5
330
0
100
AcDbSymbolTable
 70
    4
  0
LTYPE
  5
14
330
5
100
AcDbSymbolTableRecord
100
AcDbLinetypeTableRecord
  2
ByBlock
 70
    0
  3

 72
   65
 73
    0
 40
0
  0
LTYPE
  5
15
330
5
100
AcDbSymbolTableRecord
100
AcDbLinetypeTableRecord
  2
ByLayer
 70
    0
  3

 72
   65
 73
    0
 40
0
  0
LTYPE
  5
16
330
5
100
AcDbSymbolTableRecord
100
AcDbLinetypeTableRecord
  2
Continuous
 70
    0
  3
Solid line
 72
   65
 73
    0
 40
0
  0
LTYPE
  5
32
330
5
100
AcDbSymbolTableRecord
100
AcDbLinetypeTableRecord
  2
DOT
 70
    0
  3
Dot . . . . . . . . . . . . . . . . . . . . . .
 72
   65
 73
    2
 40
6.35
 49
0
 74
    0
 49
-6.35
 74
    0
  0
LTYPE
  5
33
330
5
100
AcDbSymbolTableRecord
100
AcDbLinetypeTableRecord
  2
DOTTINY
 70
    0
  3
Dot (.15x) .....................................
 72
   65
 73
    2
 40
0.9525
 49
0
 74
    0
 49
-0.9525
 74
    0
  0
LTYPE
  5
34
330
5
100
AcDbSymbolTableRecord
100
AcDbLinetypeTableRecord
  2
DOT2
 70
    0
  3
Dot (.5x) .....................................
 72
   65
 73
    2
 40
3.175
 49
0
 74
    0
 49
-3.175
 74
    0
  0
LTYPE
  5
35
330
5
100
AcDbSymbolTableRecord
100
AcDbLinetypeTableRecord
  2
DOTX2
 70
    0
  3
Dot (2x) .  .  .  .  .  .  .  .  .  .  .  .  .
 72
   65
 73
    2
 40
12.7
 49
0
 74
    0
 49
-12.7
 74
    0
  0
LTYPE
  5
36
330
5
100
AcDbSymbolTableRecord
100
AcDbLinetypeTableRecord
  2
DASHED
 70
    0
  3
Dashed _ _ _ _ _ _ _ _ _ _ _ _ _ _ _ _ _
 72
   65
 73
    2
 40
19.05
 49
12.7
 74
    0
 49
-6.35
 74
    0
  0
LTYPE
  5
37
330
5
100
AcDbSymbolTableRecord
100
AcDbLinetypeTableRecord
  2
DASHEDTINY
 70
    0
  3
Dashed (.15x) _ _ _ _ _ _ _ _ _ _ _ _ _ _ _ _ _
 72
   65
 73
    2
 40
2.8575
 49
1.905
 74
    0
 49
-0.9525
 74
    0
  0
LTYPE
  5
38
330
5
100
AcDbSymbolTableRecord
100
AcDbLinetypeTableRecord
  2
DASHED2
 70
    0
  3
Dashed (.5x) _ _ _ _ _ _ _ _ _ _ _ _ _ _ _ _ _
 72
   65
 73
    2
 40
9.524999999999999
 49
6.35
 74
    0
 49
-3.175
 74
    0
  0
LTYPE
  5
39
330
5
100
AcDbSymbolTableRecord
100
AcDbLinetypeTableRecord
  2
DASHEDX2
 70
    0
  3
Dashed (2x) ____  ____  ____  ____  ____  ___
 72
   65
 73
    2
 40
38.09999999999999
 49
25.4
 74
    0
 49
-12.7
 74
    0
  0
LTYPE
  5
3A
330
5
100
AcDbSymbolTableRecord
100
AcDbLinetypeTableRecord
  2
DASHDOT
 70
    0
  3
Dash dot __ . __ . __ . __ . __ . __ . __ . __
 72
   65
 73
    4
 40
25.4
 49
12.7
 74
    0
 49
-6.35
 74
    0
 49
0
 74
    0
 49
-6.35
 74
    0
  0
LTYPE
  5
3B
330
5
100
AcDbSymbolTableRecord
100
AcDbLinetypeTableRecord
  2
DASHDOTTINY
 70
    0
  3
Dash dot (.15x) _._._._._._._._._._._._._._._.
 72
   65
 73
    4
 40
3.81
 49
1.905
 74
    0
 49
-0.9525
 74
    0
 49
0
 74
    0
 49
-0.9525
 74
    0
  0
LTYPE
  5
3C
330
5
100
AcDbSymbolTableRecord
100
AcDbLinetypeTableRecord
  2
DASHDOT2
 70
    0
  3
Dash dot (.5x) _._._._._._._._._._._._._._._.
 72
   65
 73
    4
 40
12.7
 49
6.35
 74
    0
 49
-3.175
 74
    0
 49
0
 74
    0
 49
-3.175
 74
    0
  0
LTYPE
  5
3D
330
5
100
AcDbSymbolTableRecord
100
AcDbLinetypeTableRecord
  2
DASHDOTX2
 70
    0
  3
Dash dot (2x) ____  .  ____  .  ____  .  ___
 72
   65
 73
    4
 40
50.8
 49
25.4
 74
    0
 49
-12.7
 74
    0
 49
0
 74
    0
 49
-12.7
 74
    0
  0
LTYPE
  5
3E
330
5
100
AcDbSymbolTableRecord
100
AcDbLinetypeTableRecord
  2
DIVIDE
 70
    0
  3
Divide ____ . . ____ . . ____ . . ____ . . ____
 72
   65
 73
    6
 40
31.75
 49
12.7
 74
    0
 49
-6.35
 74
    0
 49
0
 74
    0
 49
-6.35
 74
    0
 49
0
 74
    0
 49
-6.35
 74
    0
  0
LTYPE
  5
3F
330
5
100
AcDbSymbolTableRecord
100
AcDbLinetypeTableRecord
  2
DIVIDETINY
 70
    0
  3
Divide (.15x) __..__..__..__..__..__..__..__.._
 72
   65
 73
    6
 40
4.7625
 49
1.905
 74
    0
 49
-0.9525
 74
    0
 49
0
 74
    0
 49
-0.9525
 74
    0
 49
0
 74
    0
 49
-0.9525
 74
    0
  0
LTYPE
  5
40
330
5
100
AcDbSymbolTableRecord
100
AcDbLinetypeTableRecord
  2
DIVIDE2
 70
    0
  3
Divide (.5x) __..__..__..__..__..__..__..__.._
 72
   65
 73
    6
 40
15.875
 49
6.35
 74
    0
 49
-3.175
 74
    0
 49
0
 74
    0
 49
-3.175
 74
    0
 49
0
 74
    0
 49
-3.175
 74
    0
  0
LTYPE
  5
41
330
5
100
AcDbSymbolTableRecord
100
AcDbLinetypeTableRecord
  2
DIVIDEX2
 70
    0
  3
Divide (2x) ________  .  .  ________  .  .  _
 72
   65
 73
    6
 40
63.5
 49
25.4
 74
    0
 49
-12.7
 74
    0
 49
0
 74
    0
 49
-12.7
 74
    0
 49
0
 74
    0
 49
-12.7
 74
    0
  0
LTYPE
  5
42
330
5
100
AcDbSymbolTableRecord
100
AcDbLinetypeTableRecord
  2
BORDER
 70
    0
  3
Border __ __ . __ __ . __ __ . __ __ . __ __ .
 72
   65
 73
    6
 40
44.45
 49
12.7
 74
    0
 49
-6.35
 74
    0
 49
12.7
 74
    0
 49
-6.35
 74
    0
 49
0
 74
    0
 49
-6.35
 74
    0
  0
LTYPE
  5
43
330
5
100
AcDbSymbolTableRecord
100
AcDbLinetypeTableRecord
  2
BORDERTINY
 70
    0
  3
Border (.15x) __.__.__.__.__.__.__.__.__.__.__.
 72
   65
 73
    6
 40
6.6675
 49
1.905
 74
    0
 49
-0.9525
 74
    0
 49
1.905
 74
    0
 49
-0.9525
 74
    0
 49
0
 74
    0
 49
-0.9525
 74
    0
  0
LTYPE
  5
44
330
5
100
AcDbSymbolTableRecord
100
AcDbLinetypeTableRecord
  2
BORDER2
 70
    0
  3
Border (.5x) __.__.__.__.__.__.__.__.__.__.__.
 72
   65
 73
    6
 40
22.225
 49
6.35
 74
    0
 49
-3.175
 74
    0
 49
6.35
 74
    0
 49
-3.175
 74
    0
 49
0
 74
    0
 49
-3.175
 74
    0
  0
LTYPE
  5
45
330
5
100
AcDbSymbolTableRecord
100
AcDbLinetypeTableRecord
  2
BORDERX2
 70
    0
  3
Border (2x) ____  ____  .  ____  ____  .  ___
 72
   65
 73
    6
 40
88.89999999999999
 49
25.4
 74
    0
 49
-12.7
 74
    0
 49
25.4
 74
    0
 49
-12.7
 74
    0
 49
0
 74
    0
 49
-12.7
 74
    0
  0
LTYPE
  5
46
330
5
100
AcDbSymbolTableRecord
100
AcDbLinetypeTableRecord
  2
CENTER
 70
    0
  3
Center ____ _ ____ _ ____ _ ____ _ ____ _ ____
 72
   65
 73
    4
 40
50.8
 49
31.75
 74
    0
 49
-6.35
 74
    0
 49
6.35
 74
    0
 49
-6.35
 74
    0
  0
LTYPE
  5
47
330
5
100
AcDbSymbolTableRecord
100
AcDbLinetypeTableRecord
  2
CENTERTINY
 70
    0
  3
Center (.15x) ___ _ ___ _ ___ _ ___ _ ___ _ ___
 72
   65
 73
    4
 40
7.619999999999999
 49
4.7625
 74
    0
 49
-0.9525
 74
    0
 49
0.9525
 74
    0
 49
-0.9525
 74
    0
  0
LTYPE
  5
48
330
5
100
AcDbSymbolTableRecord
100
AcDbLinetypeTableRecord
  2
CENTER2
 70
    0
  3
Center (.5x) ___ _ ___ _ ___ _ ___ _ ___ _ ___
 72
   65
 73
    4
 40
28.575
 49
19.05
 74
    0
 49
-3.175
 74
    0
 49
3.175
 74
    0
 49
-3.175
 74
    0
  0
LTYPE
  5
49
330
5
100
AcDbSymbolTableRecord
100
AcDbLinetypeTableRecord
  2
CENTERX2
 70
    0
  3
Center (2x) ________  __  ________  __  _____
 72
   65
 73
    4
 40
101.6
 49
63.5
 74
    0
 49
-12.7
 74
    0
 49
12.7
 74
    0
 49
-12.7
 74
    0
  0
ENDTAB
  0
TABLE
  2
LAYER
  5
2
330
0
100
AcDbSymbolTable
 70
    1
  0
LAYER
  5
10
330
2
100
AcDbSymbolTableRecord
100
AcDbLayerTableRecord
  2
0
 70
    0
 62
    7
  6
CONTINUOUS
370
    0
390
F
  0
LAYER
  5
4A
330
2
100
AcDbSymbolTableRecord
100
AcDbLayerTableRecord
  2
measures
 70
    1
 62
    6
  6
CONTINUOUS
370
    0
390
F
1001
LibreCad
1070
    1
  0
ENDTAB
  0
TABLE
  2
STYLE
  5
3
330
0
100
AcDbSymbolTable
 70
    3
  0
STYLE
  5
4B
330
2
100
AcDbSymbolTableRecord
100
AcDbTextStyleTableRecord
  2
Standard
 70
    0
 40
0
 41
1
 50
0
 71
    0
 42
1
  3
txt
  4

  0
ENDTAB
  0
TABLE
  2
VIEW
  5
6
330
0
100
AcDbSymbolTable
 70
    0
  0
ENDTAB
  0
TABLE
  2
UCS
  5
7
330
0
100
AcDbSymbolTable
 70
    0
  0
ENDTAB
  0
TABLE
  2
APPID
  5
9
330
0
100
AcDbSymbolTable
 70
    1
  0
APPID
  5
12
330
9
100
AcDbSymbolTableRecord
100
AcDbRegAppTableRecord
  2
ACAD
 70
    0
  0
APPID
  5
4C
330
9
100
AcDbSymbolTableRecord
100
AcDbRegAppTableRecord
  2
LibreCad
 70
    0
  0
ENDTAB
  0
TABLE
  2
DIMSTYLE
  5
A
330
0
100
AcDbSymbolTable
 70
    1
100
AcDbDimStyleTable
 71
    1
  0
DIMSTYLE
105
4D
330
A
100
AcDbSymbolTableRecord
100
AcDbDimStyleTableRecord
  2
Standard
 70
    0
 40
2.5
 41
2.5
 42
0.625
 43
0.38
 44
1.25
 45
0
 46
0
 47
0
 48
0
 49
1
140
2.5
141
0.09
142
0
143
25.4
144
1
145
0
146
1
147
0.625
148
0
 71
    0
 72
    0
 73
    0
 74
    1
 75
    0
 76
    0
 77
    0
 78
    8
 79
    0
170
    0
171
    2
172
    0
173
    0
174
    0
175
    0
176
    0
177
    0
178
    0
179
    0
271
    2
272
    4
273
    2
274
    2
275
    0
276
    0
277
    2
278
   44
279
    0
280
    0
281
    0
282
    0
283
    1
284
    0
285
    0
286
    0
288
    0
289
    3
340
STANDARD
341

371
   -2
372
   -2
  0
ENDTAB
  0
TABLE
  2
BLOCK_RECORD
  5
1
330
0
100
AcDbSymbolTable
 70
    2
  0
BLOCK_RECORD
  5
1F
330
1
100
AcDbSymbolTableRecord
100
AcDbBlockTableRecord
  2
*Model_Space
 70
    0
280
    1
281
    0
  0
BLOCK_RECORD
  5
1E
330
1
100
AcDbSymbolTableRecord
100
AcDbBlockTableRecord
  2
*Paper_Space
 70
    0
280
    1
281
    0
  0
BLOCK_RECORD
  5
4E
330
1
100
AcDbSymbolTableRecord
100
AcDbBlockTableRecord
  2
*D6
 70
    0
280
    1
281
    0
  0
BLOCK_RECORD
  5
51
330
1
100
AcDbSymbolTableRecord
100
AcDbBlockTableRecord
  2
*D3
 70
    0
280
    1
281
    0
  0
BLOCK_RECORD
  5
54
330
1
100
AcDbSymbolTableRecord
100
AcDbBlockTableRecord
  2
*D10
 70
    0
280
    1
281
    0
  0
BLOCK_RECORD
  5
57
330
1
100
AcDbSymbolTableRecord
100
AcDbBlockTableRecord
  2
*D7
 70
    0
280
    1
281
    0
  0
BLOCK_RECORD
  5
5A
330
1
100
AcDbSymbolTableRecord
100
AcDbBlockTableRecord
  2
*D5
 70
    0
280
    1
281
    0
  0
BLOCK_RECORD
  5
5D
330
1
100
AcDbSymbolTableRecord
100
AcDbBlockTableRecord
  2
*D1
 70
    0
280
    1
281
    0
  0
BLOCK_RECORD
  5
60
330
1
100
AcDbSymbolTableRecord
100
AcDbBlockTableRecord
  2
*D2
 70
    0
280
    1
281
    0
  0
BLOCK_RECORD
  5
63
330
1
100
AcDbSymbolTableRecord
100
AcDbBlockTableRecord
  2
*D4
 70
    0
280
    1
281
    0
  0
BLOCK_RECORD
  5
66
330
1
100
AcDbSymbolTableRecord
100
AcDbBlockTableRecord
  2
*D8
 70
    0
280
    1
281
    0
  0
BLOCK_RECORD
  5
69
330
1
100
AcDbSymbolTableRecord
100
AcDbBlockTableRecord
  2
*D9
 70
    0
280
    1
281
    0
  0
ENDTAB
  0
ENDSEC
  0
SECTION
  2
BLOCKS
  0
BLOCK
  5
20
330
1F
100
AcDbEntity
  8
0
100
AcDbBlockBegin
  2
*Model_Space
 70
    0
 10
0
 20
0
 30
0
  3
*Model_Space
  1

  0
ENDBLK
  5
21
330
1F
100
AcDbEntity
  8
0
100
AcDbBlockEnd
  0
BLOCK
  5
1C
330
1B
100
AcDbEntity
  8
0
100
AcDbBlockBegin
  2
*Paper_Space
 70
    0
 10
0
 20
0
 30
0
  3
*Paper_Space
  1

  0
ENDBLK
  5
1D
330
1F
100
AcDbEntity
  8
0
100
AcDbBlockEnd
  0
BLOCK
  5
4F
330
4E
100
AcDbEntity
  8
0
100
AcDbBlockBegin
  2
*D6
 70
    1
 10
0
 20
0
  3
*D6
  1

  0
LINE
  5
6C
100
AcDbEntity
  8
measures
  6
ByBlock
 62
    0
370
   -2
100
AcDbLine
 10
5.500000000000001
 20
288
 11
5.5
 21
267
  0
MTEXT
  5
6D
100
AcDbEntity
  8
measures
  6
CONTINUOUS
 62
    0
370
   -2
100
AcDbMText
 10
0.8125
 20
277.5
 30
0
 40
6.25
 41
6.25
 71
    5
 72
    1
  1
21
  7
STANDARD
210
0
220
0
230
1
 50
90
 73
    2
 44
1
  0
SOLID
  5
6E
100
AcDbEntity
  8
measures
  6
ByBlock
 62
    0
370
   -2
100
AcDbTrace
 10
5.500000000000001
 20
288
 30
0
 11
6.540711644432102
 21
281.75
 31
0
 12
4.459288355567899
 22
281.75
 32
0
 13
4.459288355567899
 23
281.75
 33
0
  0
SOLID
  5
6F
100
AcDbEntity
  8
measures
  6
ByBlock
 62
    0
370
   -2
100
AcDbTrace
 10
5.5
 20
267
 30
0
 11
4.459288355567899
 21
273.25
 31
0
 12
6.540711644432102
 22
273.25
 32
0
 13
6.540711644432102
 23
273.25
 33
0
  0
LINE
  5
70
100
AcDbEntity
  8
measures
  6
ByBlock
 62
    0
370
   -2
100
AcDbLine
 10
10.9375
 20
288
 11
2.375000000000001
 21
288
  0
LINE
  5
71
100
AcDbEntity
  8
measures
  6
ByBlock
 62
    0
370
   -2
100
AcDbLine
 10
3.9375
 20
267
 11
2.375
 21
267
  0
ENDBLK
  5
50
330
4E
100
AcDbEntity
  8
0
100
AcDbBlockEnd
  0
BLOCK
  5
52
330
51
100
AcDbEntity
  8
0
100
AcDbBlockBegin
  2
*D3
 70
    1
 10
0
 20
0
  3
*D3
  1

  0
LINE
  5
72
100
AcDbEntity
  8
measures
  6
ByBlock
 62
    0
370
   -2
100
AcDbLine
 10
20
 20
34.8
 11
20
 21
-5.500000000000001
  0
MTEXT
  5
73
100
AcDbEntity
  8
measures
  6
CONTINUOUS
 62
    0
370
   -2
100
AcDbMText
 10
15.3125
 20
14.65
 30
0
 40
6.25
 41
13.54166666666744
 71
    5
 72
    1
  1
15,3
  7
STANDARD
210
0
220
0
230
1
 50
90
 73
    2
 44
1
  0
SOLID
  5
74
100
AcDbEntity
  8
measures
  6
ByBlock
 62
    0
370
   -2
100
AcDbTrace
 10
20
 20
22.3
 30
0
 11
18.9592883555679
 21
28.55
 31
0
 12
21.0407116444321
 22
28.55
 32
0
 13
21.0407116444321
 23
28.55
 33
0
  0
SOLID
  5
75
100
AcDbEntity
  8
measures
  6
ByBlock
 62
    0
370
   -2
100
AcDbTrace
 10
20
 20
6.999999999999999
 30
0
 11
21.0407116444321
 21
0.7499999999999991
 31
0
 12
18.9592883555679
 22
0.7499999999999991
 32
0
 13
18.9592883555679
 23
0.7499999999999991
 33
0
  0
LINE
  5
76
100
AcDbEntity
  8
measures
  6
ByBlock
 62
    0
370
   -2
100
AcDbLine
 10
17.0625
 20
22.3
 11
23.125
 21
22.3
  0
LINE
  5
77
100
AcDbEntity
  8
measures
  6
ByBlock
 62
    0
370
   -2
100
AcDbLine
 10
14.0625
 20
7
 11
23.125
 21
6.999999999999999
  0
ENDBLK
  5
53
330
51
100
AcDbEntity
  8
0
100
AcDbBlockEnd
  0
BLOCK
  5
55
330
54
100
AcDbEntity
  8
0
100
AcDbBlockBegin
  2
*D10
 70
    1
 10
0
 20
0
  3
*D10
  1

  0
LINE
  5
78
100
AcDbEntity
  8
measures
  6
ByBlock
 62
    0
370
   -2
100
AcDbLine
 10
-29.99999999999998
 20
288
 11
-30
 21
7.000000000000003
  0
MTEXT
  5
79
100
AcDbEntity
  8
measures
  6
CONTINUOUS
 62
    0
370
   -2
100
AcDbMText
 10
-34.68749999999999
 20
147.5
 30
0
 40
6.25
 41
11.11111111111111
 71
    5
 72
    1
  1
281
  7
STANDARD
210
0
220
0
230
1
 50
90
 73
    2
 44
1
  0
SOLID
  5
7A
100
AcDbEntity
  8
measures
  6
ByBlock
 62
    0
370
   -2
100
AcDbTrace
 10
-29.99999999999998
 20
288
 30
0
 11
-28.95928835556788
 21
281.75
 31
0
 12
-31.04071164443208
 22
281.75
 32
0
 13
-31.04071164443208
 23
281.75
 33
0
  0
SOLID
  5
7B
100
AcDbEntity
  8
measures
  6
ByBlock
 62
    0
370
   -2
100
AcDbTrace
 10
-30
 20
7.000000000000003
 30
0
 11
-31.0407116444321
 21
13.25
 31
0
 12
-28.9592883555679
 22
13.25
 32
0
 13
-28.9592883555679
 23
13.25
 33
0
  0
LINE
  5
7C
100
AcDbEntity
  8
measures
  6
ByBlock
 62
    0
370
   -2
100
AcDbLine
 10
10.9375
 20
288
 11
-33.12499999999998
 21
288
  0
LINE
  5
7D
100
AcDbEntity
  8
measures
  6
ByBlock
 62
    0
370
   -2
100
AcDbLine
 10
10.9375
 20
7
 11
-33.125
 21
7.000000000000003
  0
ENDBLK
  5
56
330
54
100
AcDbEntity
  8
0
100
AcDbBlockEnd
  0
BLOCK
  5
58
330
57
100
AcDbEntity
  8
0
100
AcDbBlockBegin
  2
*D7
 70
    1
 10
0
 20
0
  3
*D7
  1

  0
LINE
  5
7E
100
AcDbEntity
  8
measures
  6
ByBlock
 62
    0
370
   -2
100
AcDbLine
 10
-1.999999999999991
 20
288
 11
-2
 21
149.5
  0
MTEXT
  5
7F
100
AcDbEntity
  8
measures
  6
CONTINUOUS
 62
    0
370
   -2
100
AcDbMText
 10
-6.687499999999996
 20
218.75
 30
0
 40
6.25
 41
18.40277777777855
 71
    5
 72
    1
  1
138,5
  7
STANDARD
210
0
220
0
230
1
 50
90
 73
    2
 44
1
  0
SOLID
  5
80
100
AcDbEntity
  8
measures
  6
ByBlock
 62
    0
370
   -2
100
AcDbTrace
 10
-1.999999999999991
 20
288
 30
0
 11
-0.9592883555678904
 21
281.75
 31
0
 12
-3.040711644432093
 22
281.75
 32
0
 13
-3.040711644432093
 23
281.75
 33
0
  0
SOLID
  5
81
100
AcDbEntity
  8
measures
  6
ByBlock
 62
    0
370
   -2
100
AcDbTrace
 10
-2
 20
149.5
 30
0
 11
-3.0407116444321
 21
155.75
 31
0
 12
-0.9592883555678977
 22
155.75
 32
0
 13
-0.9592883555678977
 23
155.75
 33
0
  0
LINE
  5
82
100
AcDbEntity
  8
measures
  6
ByBlock
 62
    0
370
   -2
100
AcDbLine
 10
10.9375
 20
288
 11
-5.124999999999991
 21
288
  0
LINE
  5
83
100
AcDbEntity
  8
measures
  6
ByBlock
 62
    0
370
   -2
100
AcDbLine
 10
4.9375
 20
149.5
 11
-5.125
 21
149.5
  0
ENDBLK
  5
59
330
57
100
AcDbEntity
  8
0
100
AcDbBlockEnd
  0
BLOCK
  5
5B
330
5A
100
AcDbEntity
  8
0
100
AcDbBlockBegin
  2
*D5
 70
    1
 10
0
 20
0
  3
*D5
  1

  0
LINE
  5
84
100
AcDbEntity
  8
measures
  6
ByBlock
 62
    0
370
   -2
100
AcDbLine
 10
25
 20
298
 11
-12.5
 21
298
  0
MTEXT
  5
85
100
AcDbEntity
  8
measures
  6
CONTINUOUS
 62
    0
370
   -2
100
AcDbMText
 10
20.83333333333353
 20
302.6875
 30
0
 40
6.25
 41
13.54166666666706
 71
    5
 72
    1
  1
12,5
  7
STANDARD
210
0
220
0
230
1
 50
0
 73
    2
 44
1
  0
SOLID
  5
86
100
AcDbEntity
  8
measures
  6
ByBlock
 62
    0
370
   -2
100
AcDbTrace
 10
12.5
 20
298
 30
0
 11
18.75
 21
299.0407116444321
 31
0
 12
18.75
 22
296.9592883555679
 32
0
 13
18.75
 23
296.9592883555679
 33
0
  0
SOLID
  5
87
100
AcDbEntity
  8
measures
  6
ByBlock
 62
    0
370
   -2
100
AcDbTrace
 10
-1.086611091803318e-16
 20
298
 30
0
 11
-6.25
 21
296.9592883555679
 31
0
 12
-6.25
 22
299.0407116444321
 32
0
 13
-6.25
 23
299.0407116444321
 33
0
  0
LINE
  5
88
100
AcDbEntity
  8
measures
  6
ByBlock
 62
    0
370
   -2
100
AcDbLine
 10
12.5
 20
289.5625
 11
12.5
 21
301.125
  0
LINE
  5
89
100
AcDbEntity
  8
measures
  6
ByBlock
 62
    0
370
   -2
100
AcDbLine
 10
-1.298557799694476e-17
 20
289.8097849187536
 11
8.268995318644216e-17
 21
301.125
  0
ENDBLK
  5
5C
330
5A
100
AcDbEntity
  8
0
100
AcDbBlockEnd
  0
BLOCK
  5
5E
330
5D
100
AcDbEntity
  8
0
100
AcDbBlockBegin
  2
*D1
 70
    1
 10
0
 20
0
  3
*D1
  1

  0
LINE
  5
8A
100
AcDbEntity
  8
measures
  6
ByBlock
 62
    0
370
   -2
100
AcDbLine
 10
2.000000000000004
 20
268.0867852207057
 11
37.5
 21
268.0867852207057
  0
MTEXT
  5
8B
100
AcDbEntity
  8
measures
  6
CONTINUOUS
 62
    0
370
   -2
100
AcDbMText
 10
33.33333333333353
 20
272.7742852207057
 30
0
 40
6.25
 41
13.54166666666706
 71
    5
 72
    1
  1
10,5
  7
STANDARD
210
0
220
0
230
1
 50
0
 73
    2
 44
1
  0
SOLID
  5
8C
100
AcDbEntity
  8
measures
  6
ByBlock
 62
    0
370
   -2
100
AcDbTrace
 10
14.5
 20
268.0867852207057
 30
0
 11
8.250000000000004
 21
267.0460735762736
 31
0
 12
8.250000000000004
 22
269.1274968651379
 32
0
 13
8.250000000000004
 23
269.1274968651379
 33
0
  0
SOLID
  5
8D
100
AcDbEntity
  8
measures
  6
ByBlock
 62
    0
370
   -2
100
AcDbTrace
 10
25
 20
268.0867852207057
 30
0
 11
31.25
 21
269.1274968651379
 31
0
 12
31.25
 22
267.0460735762736
 32
0
 13
31.25
 23
267.0460735762736
 33
0
  0
LINE
  5
8E
100
AcDbEntity
  8
measures
  6
ByBlock
 62
    0
370
   -2
100
AcDbLine
 10
14.5
 20
270.4374999999999
 11
14.5
 21
264.9617852207057
  0
LINE
  5
8F
100
AcDbEntity
  8
measures
  6
ByBlock
 62
    0
370
   -2
100
AcDbLine
 10
25
 20
270.4438093018808
 11
25
 21
264.9617852207057
  0
ENDBLK
  5
5F
330
5D
100
AcDbEntity
  8
0
100
AcDbBlockEnd
  0
BLOCK
  5
61
330
60
100
AcDbEntity
  8
0
100
AcDbBlockBegin
  2
*D2
 70
    1
 10
0
 20
0
  3
*D2
  1

  0
LINE
  5
90
100
AcDbEntity
  8
measures
  6
ByBlock
 62
    0
370
   -2
100
AcDbLine
 10
70
 20
272.2
 11
70
 21
22.3
  0
MTEXT
  5
91
100
AcDbEntity
  8
measures
  6
CONTINUOUS
 62
    0
370
   -2
100
AcDbMText
 10
65.3125
 20
147.25
 30
0
 40
6.25
 41
20.48611111111111
 71
    5
 72
    1
  1
249,9
  7
STANDARD
210
0
220
0
230
1
 50
90
 73
    2
 44
1
  0
SOLID
  5
92
100
AcDbEntity
  8
measures
  6
ByBlock
 62
    0
370
   -2
100
AcDbTrace
 10
70
 20
272.2
 30
0
 11
71.04071164443211
 21
265.95
 31
0
 12
68.95928835556789
 22
265.95
 32
0
 13
68.95928835556789
 23
265.95
 33
0
  0
SOLID
  5
93
100
AcDbEntity
  8
measures
  6
ByBlock
 62
    0
370
   -2
100
AcDbTrace
 10
70
 20
22.3
 30
0
 11
68.95928835556791
 21
28.55
 31
0
 12
71.04071164443211
 22
28.55
 32
0
 13
71.04071164443211
 23
28.55
 33
0
  0
LINE
  5
94
100
AcDbEntity
  8
measures
  6
ByBlock
 62
    0
370
   -2
100
AcDbLine
 10
16.0625
 20
272.2
 11
73.125
 21
272.2
  0
LINE
  5
95
100
AcDbEntity
  8
measures
  6
ByBlock
 62
    0
370
   -2
100
AcDbLine
 10
17.0625
 20
22.3
 11
73.125
 21
22.3
  0
ENDBLK
  5
62
330
60
100
AcDbEntity
  8
0
100
AcDbBlockEnd
  0
BLOCK
  5
64
330
63
100
AcDbEntity
  8
0
100
AcDbBlockBegin
  2
*D4
 70
    1
 10
0
 20
0
  3
*D4
  1

  0
LINE
  5
96
100
AcDbEntity
  8
measures
  6
ByBlock
 62
    0
370
   -2
100
AcDbLine
 10
2
 20
24.75441814515289
 11
37.5
 21
24.75441814515289
  0
MTEXT
  5
97
100
AcDbEntity
  8
measures
  6
CONTINUOUS
 62
    0
370
   -2
100
AcDbMText
 10
33.33333333333353
 20
29.44191814515289
 30
0
 40
6.25
 41
13.54166666666706
 71
    5
 72
    1
  1
10,5
  7
STANDARD
210
0
220
0
230
1
 50
0
 73
    2
 44
1
  0
SOLID
  5
98
100
AcDbEntity
  8
measures
  6
ByBlock
 62
    0
370
   -2
100
AcDbTrace
 10
14.5
 20
24.75441814515289
 30
0
 11
8.25
 21
23.71370650072079
 31
0
 12
8.25
 22
25.79512978958499
 32
0
 13
8.25
 23
25.79512978958499
 33
0
  0
SOLID
  5
99
100
AcDbEntity
  8
measures
  6
ByBlock
 62
    0
370
   -2
100
AcDbTrace
 10
25
 20
24.75441814515289
 30
0
 11
31.25
 21
25.79512978958499
 31
0
 12
31.25
 22
23.71370650072079
 32
0
 13
31.25
 23
23.71370650072079
 33
0
  0
LINE
  5
9A
100
AcDbEntity
  8
measures
  6
ByBlock
 62
    0
370
   -2
100
AcDbLine
 10
14.5
 20
23.8625
 11
14.5
 21
27.87941814515289
  0
LINE
  5
9B
100
AcDbEntity
  8
measures
  6
ByBlock
 62
    0
370
   -2
100
AcDbLine
 10
25
 20
23.8625
 11
25
 21
27.87941814515289
  0
ENDBLK
  5
65
330
63
100
AcDbEntity
  8
0
100
AcDbBlockEnd
  0
BLOCK
  5
67
330
66
100
AcDbEntity
  8
0
100
AcDbBlockBegin
  2
*D8
 70
    1
 10
0
 20
0
  3
*D8
  1

  0
LINE
  5
9C
100
AcDbEntity
  8
measures
  6
ByBlock
 62
    0
370
   -2
100
AcDbLine
 10
-10.99999999999999
 20
288
 11
-11
 21
144
  0
MTEXT
  5
9D
100
AcDbEntity
  8
measures
  6
CONTINUOUS
 62
    0
370
   -2
100
AcDbMText
 10
-15.6875
 20
216
 30
0
 40
6.25
 41
12.5
 71
    5
 72
    1
  1
144
  7
STANDARD
210
0
220
0
230
1
 50
90
 73
    2
 44
1
  0
SOLID
  5
9E
100
AcDbEntity
  8
measures
  6
ByBlock
 62
    0
370
   -2
100
AcDbTrace
 10
-10.99999999999999
 20
288
 30
0
 11
-9.959288355567892
 21
281.75
 31
0
 12
-12.0407116444321
 22
281.75
 32
0
 13
-12.0407116444321
 23
281.75
 33
0
  0
SOLID
  5
9F
100
AcDbEntity
  8
measures
  6
ByBlock
 62
    0
370
   -2
100
AcDbTrace
 10
-11
 20
144
 30
0
 11
-12.0407116444321
 21
150.25
 31
0
 12
-9.959288355567898
 22
150.25
 32
0
 13
-9.959288355567898
 23
150.25
 33
0
  0
LINE
  5
A0
100
AcDbEntity
  8
measures
  6
ByBlock
 62
    0
370
   -2
100
AcDbLine
 10
10.9375
 20
288
 11
-14.12499999999999
 21
288
  0
LINE
  5
A1
100
AcDbEntity
  8
measures
  6
ByBlock
 62
    0
370
   -2
100
AcDbLine
 10
4.9375
 20
144
 11
-14.125
 21
144
  0
ENDBLK
  5
68
330
66
100
AcDbEntity
  8
0
100
AcDbBlockEnd
  0
BLOCK
  5
6A
330
69
100
AcDbEntity
  8
0
100
AcDbBlockBegin
  2
*D9
 70
    1
 10
0
 20
0
  3
*D9
  1

  0
LINE
  5
A2
100
AcDbEntity
  8
measures
  6
ByBlock
 62
    0
370
   -2
100
AcDbLine
 10
-19.99999999999998
 20
288
 11
-20
 21
28
  0
MTEXT
  5
A3
100
AcDbEntity
  8
measures
  6
CONTINUOUS
 62
    0
370
   -2
100
AcDbMText
 10
-24.68749999999999
 20
158
 30
0
 40
6.25
 41
12.50000000000039
 71
    5
 72
    1
  1
260
  7
STANDARD
210
0
220
0
230
1
 50
90
 73
    2
 44
1
  0
SOLID
  5
A4
100
AcDbEntity
  8
measures
  6
ByBlock
 62
    0
370
   -2
100
AcDbTrace
 10
-19.99999999999998
 20
288
 30
0
 11
-18.95928835556788
 21
281.75
 31
0
 12
-21.04071164443208
 22
281.75
 32
0
 13
-21.04071164443208
 23
281.75
 33
0
  0
SOLID
  5
A5
100
AcDbEntity
  8
measures
  6
ByBlock
 62
    0
370
   -2
100
AcDbTrace
 10
-20
 20
28
 30
0
 11
-21.0407116444321
 21
34.25
 31
0
 12
-18.9592883555679
 22
34.25
 32
0
 13
-18.9592883555679
 23
34.25
 33
0
  0
LINE
  5
A6
100
AcDbEntity
  8
measures
  6
ByBlock
 62
    0
370
   -2
100
AcDbLine
 10
10.9375
 20
288
 11
-23.12499999999998
 21
288
  0
LINE
  5
A7
100
AcDbEntity
  8
measures
  6
ByBlock
 62
    0
370
   -2
100
AcDbLine
 10
4.9375
 20
28
 11
-23.125
 21
28
  0
ENDBLK
  5
6B
330
69
100
AcDbEntity
  8
0
100
AcDbBlockEnd
  0
ENDSEC
  0
SECTION
  2
ENTITIES
  0
CIRCLE
  5
A8
100
AcDbEntity
  8
0
  6
ByLayer
 62
  256
370
   -1
100
AcDbCircle
 10
12.5
 20
7
 40
1.75
  0
CIRCLE
  5
A9
100
AcDbEntity
  8
0
  6
ByLayer
 62
  256
370
   -1
100
AcDbCircle
 10
12.5
 20
288
 40
1.75
  0
DIMENSION
  5
AA
100
AcDbEntity
  8
measures
  6
ByLayer
 62
  256
370
   -1
100
AcDbDimension
  2
*D1
 10
25
 20
268.0867852207057
 30
0
 11
19.75
 21
272.7742852207057
 31
0
 70
   32
 71
    5
  3
Standard
 53
0
210
0
220
0
230
1
100
AcDbAlignedDimension
 13
14.5
 23
271.9999999999999
 33
0
 14
25
 24
272.0063093018808
 34
0
100
AcDbRotatedDimension
  0
LWPOLYLINE
  5
AB
100
AcDbEntity
  8
0
  6
ByLayer
 62
  256
370
   -1
100
AcDbPolyline
 90
    4
 70
    1
 43
0
 10
5.5
 20
267
 10
20.5
 20
267
 10
20.5
 20
149.5
 10
5.5
 20
149.5
  0
LWPOLYLINE
  5
AC
100
AcDbEntity
  8
0
  6
ByLayer
 62
  256
370
   -1
100
AcDbPolyline
 90
    4
 70
    1
 43
0
 10
5.5
 20
144
 10
20.5
 20
144
 10
20.5
 20
28
 10
5.5
 20
28
  0
LINE
  5
AD
100
AcDbEntity
  8
0
  6
ByLayer
 62
  256
370
   -1
100
AcDbLine
 10
0.5
 20
0
 11
24.5
 21
0
  0
ARC
  5
AE
100
AcDbEntity
  8
0
  6
ByLayer
 62
  256
370
   -1
100
AcDbCircle
 10
24.5
 20
0.5000000000000001
 40
0.5000000000000001
100
AcDbArc
 50
270
 51
0
  0
ARC
  5
AF
100
AcDbEntity
  8
0
  6
ByLayer
 62
  256
370
   -1
100
AcDbCircle
 10
24.5
 20
294.5
 40
0.5000000000000001
100
AcDbArc
 50
0
 51
90
  0
LINE
  5
B0
100
AcDbEntity
  8
0
  6
ByLayer
 62
  256
370
   -1
100
AcDbLine
 10
24.5
 20
295
 11
0.5
 21
295
  0
ARC
  5
B1
100
AcDbEntity
  8
0
  6
ByLayer
 62
  256
370
   -1
100
AcDbCircle
 10
0.5
 20
294.5
 40
0.5000000000000001
100
AcDbArc
 50
90
 51
180
  0
LINE
  5
B2
100
AcDbEntity
  8
0
  6
ByLayer
 62
  256
370
   -1
100
AcDbLine
 10
-1.110223024625157e-16
 20
294.5
 11
0
 21
0.5000000000000001
  0
ARC
  5
B3
100
AcDbEntity
  8
0
  6
ByLayer
 62
  256
370
   -1
100
AcDbCircle
 10
0.5000000000000002
 20
0.5000000000000001
 40
0.5000000000000001
100
AcDbArc
 50
180
 51
270
  0
ARC
  5
B4
100
AcDbEntity
  8
0
  6
ByLayer
 62
  256
370
   -1
100
AcDbCircle
 10
24
 20
124
 40
1
100
AcDbArc
 50
270
 51
0
  0
LINE
  5
B5
100
AcDbEntity
  8
0
  6
ByLayer
 62
  256
370
   -1
100
AcDbLine
 10
24
 20
123
 11
24
 21
123
  0
ARC
  5
B6
100
AcDbEntity
  8
0
  6
ByLayer
 62
  256
370
   -1
100
AcDbCircle
 10
24
 20
122
 40
1
100
AcDbArc
 50
90
 51
180
  0
LINE
  5
B7
100
AcDbEntity
  8
0
  6
ByLayer
 62
  256
370
   -1
100
AcDbLine
 10
23
 20
122
 11
23
 21
35
  0
ARC
  5
B8
100
AcDbEntity
  8
0
  6
ByLayer
 62
  256
370
   -1
100
AcDbCircle
 10
24
 20
35
 40
1
100
AcDbArc
 50
180
 51
270
  0
LINE
  5
B9
100
AcDbEntity
  8
0
  6
ByLayer
 62
  256
370
   -1
100
AcDbLine
 10
25
 20
0.5000000000000001
 11
25
 21
33
  0
LINE
  5
BA
100
AcDbEntity
  8
0
  6
ByLayer
 62
  256
370
   -1
100
AcDbLine
 10
24
 20
34
 11
24
 21
34
  0
ARC
  5
BB
100
AcDbEntity
  8
0
  6
ByLayer
 62
  256
370
   -1
100
AcDbCircle
 10
24
 20
33
 40
1
100
AcDbArc
 50
0
 51
90
  0
ARC
  5
BC
100
AcDbEntity
  8
0
  6
ByLayer
 62
  256
370
   -1
100
AcDbCircle
 10
24
 20
175
 40
1
100
AcDbArc
 50
180
 51
270
  0
LINE
  5
BD
100
AcDbEntity
  8
0
  6
ByLayer
 62
  256
370
   -1
100
AcDbLine
 10
24
 20
174
 11
24
 21
174
  0
LINE
  5
BE
100
AcDbEntity
  8
0
  6
ByLayer
 62
  256
370
   -1
100
AcDbLine
 10
25
 20
124
 11
25
 21
173
  0
ARC
  5
BF
100
AcDbEntity
  8
0
  6
ByLayer
 62
  256
370
   -1
100
AcDbCircle
 10
24
 20
173
 40
1
100
AcDbArc
 50
0
 51
90
  0
LINE
  5
C0
100
AcDbEntity
  8
0
  6
ByLayer
 62
  256
370
   -1
100
AcDbLine
 10
25
 20
262
 11
25
 21
294.5
  0
ARC
  5
C1
100
AcDbEntity
  8
0
  6
ByLayer
 62
  256
370
   -1
100
AcDbCircle
 10
24
 20
262
 40
1
100
AcDbArc
 50
270
 51
0
  0
LINE
  5
C2
100
AcDbEntity
  8
0
  6
ByLayer
 62
  256
370
   -1
100
AcDbLine
 10
24
 20
261
 11
24
 21
261
  0
LINE
  5
C3
100
AcDbEntity
  8
0
  6
ByLayer
 62
  256
370
   -1
100
AcDbLine
 10
23
 20
260
 11
23
 21
175
  0
ARC
  5
C4
100
AcDbEntity
  8
0
  6
ByLayer
 62
  256
370
   -1
100
AcDbCircle
 10
24
 20
260
 40
1
100
AcDbArc
 50
90
 51
180
  0
CIRCLE
  5
C5
100
AcDbEntity
  8
0
  6
ByLayer
 62
  256
370
   -1
100
AcDbCircle
 10
14.5
 20
272.2
 40
1.75
  0
DIMENSION
  5
C6
100
AcDbEntity
  8
measures
  6
ByLayer
 62
  256
370
   -1
100
AcDbDimension
  2
*D2
 10
70
 20
22.29999999999999
 30
0
 11
65.3125
 21
147.25
 31
0
 70
   32
 71
    5
  3
Standard
 53
0
210
0
220
0
230
1
100
AcDbAlignedDimension
 13
14.5
 23
272.2
 33
0
 14
15.5
 24
22.3
 34
0
 50
90
100
AcDbRotatedDimension
  0
DIMENSION
  5
C7
100
AcDbEntity
  8
measures
  6
ByLayer
 62
  256
370
   -1
100
AcDbDimension
  2
*D3
 10
20
 20
6.999999999999999
 30
0
 11
15.3125
 21
14.65
 31
0
 70
   32
 71
    5
  3
Standard
 53
0
210
0
220
0
230
1
100
AcDbAlignedDimension
 13
15.5
 23
22.3
 33
0
 14
12.5
 24
7
 34
0
 50
90
100
AcDbRotatedDimension
  0
CIRCLE
  5
C8
100
AcDbEntity
  8
0
  6
ByLayer
 62
  256
370
   -1
100
AcDbCircle
 10
14.5
 20
22.3
 40
1.75
  0
DIMENSION
  5
C9
100
AcDbEntity
  8
measures
  6
ByLayer
 62
  256
370
   -1
100
AcDbDimension
  2
*D4
 10
25
 20
24.75441814515289
 30
0
 11
19.75
 21
29.44191814515289
 31
0
 70
   32
 71
    5
  3
Standard
 53
0
210
0
220
0
230
1
100
AcDbAlignedDimension
 13
14.5
 23
22.3
 33
0
 14
25
 24
22.3
 34
0
100
AcDbRotatedDimension
  0
DIMENSION
  5
CA
100
AcDbEntity
  8
measures
  6
ByLayer
 62
  256
370
   -1
100
AcDbDimension
  2
*D5
 10
4.885204561818967e-16
 20
298
 30
0
 11
6.25
 21
302.6875
 31
0
 70
   32
 71
    5
  3
Standard
 53
0
210
0
220
0
230
1
100
AcDbAlignedDimension
 13
12.5
 23
288
 33
0
 14
-1.086611091803317e-16
 24
288.2472849187536
 34
0
100
AcDbRotatedDimension
  0
DIMENSION
  5
CB
100
AcDbEntity
  8
measures
  6
ByLayer
 62
  256
370
   -1
100
AcDbDimension
  2
*D6
 10
5.5
 20
267
 30
0
 11
0.8125
 21
277.5
 31
0
 70
   32
 71
    5
  3
Standard
 53
0
210
0
220
0
230
1
100
AcDbAlignedDimension
 13
12.5
 23
288
 33
0
 14
5.5
 24
267
 34
0
 50
90
100
AcDbRotatedDimension
  0
DIMENSION
  5
CC
100
AcDbEntity
  8
measures
  6
ByLayer
 62
  256
370
   -1
100
AcDbDimension
  2
*D7
 10
-2
 20
149.5
 30
0
 11
-6.687499999999996
 21
218.75
 31
0
 70
   32
 71
    5
  3
Standard
 53
0
210
0
220
0
230
1
100
AcDbAlignedDimension
 13
12.5
 23
288
 33
0
 14
6.5
 24
149.5
 34
0
 50
90
100
AcDbRotatedDimension
  0
DIMENSION
  5
CD
100
AcDbEntity
  8
measures
  6
ByLayer
 62
  256
370
   -1
100
AcDbDimension
  2
*D8
 10
-11
 20
144
 30
0
 11
-15.6875
 21
216
 31
0
 70
   32
 71
    5
  3
Standard
 53
0
210
0
220
0
230
1
100
AcDbAlignedDimension
 13
12.5
 23
288
 33
0
 14
6.5
 24
144
 34
0
 50
90
100
AcDbRotatedDimension
  0
DIMENSION
  5
CE
100
AcDbEntity
  8
measures
  6
ByLayer
 62
  256
370
   -1
100
AcDbDimension
  2
*D9
 10
-20
 20
28
 30
0
 11
-24.68749999999999
 21
158
 31
0
 70
   32
 71
    5
  3
Standard
 53
0
210
0
220
0
230
1
100
AcDbAlignedDimension
 13
12.5
 23
288
 33
0
 14
6.5
 24
28
 34
0
 50
90
100
AcDbRotatedDimension
  0
DIMENSION
  5
CF
100
AcDbEntity
  8
measures
  6
ByLayer
 62
  256
370
   -1
100
AcDbDimension
  2
*D10
 10
-30
 20
7.000000000000005
 30
0
 11
-34.68749999999999
 21
147.5
 31
0
 70
   32
 71
    5
  3
Standard
 53
0
210
0
220
0
230
1
100
AcDbAlignedDimension
 13
12.5
 23
288
 33
0
 14
12.5
 24
7
 34
0
 50
90
100
AcDbRotatedDimension
  0
ENDSEC
  0
SECTION
  2
OBJECTS
  0
DICTIONARY
  5
C
330
0
100
AcDbDictionary
281
    1
  3
ACAD_GROUP
350
D
  0
DICTIONARY
  5
D
330
C
100
AcDbDictionary
281
    1
  0
PLOTSETTINGS
  5
D0
100
AcDbPlotSettings
  6
1x1
 40
0
 41
0
 42
0
 43
0
  0
ENDSEC
  0
EOF
