G75*
%MOIN*%
%OFA0B0*%
%FSLAX25Y25*%
%IPPOS*%
%LPD*%
%AMOC8*
5,1,8,0,0,1.08239X$1,22.5*
%
%ADD10R,0.07874X0.07874*%
%ADD11C,0.06358*%
%ADD12C,0.06102*%
%ADD13C,0.23000*%
%ADD14C,0.01600*%
%ADD15C,0.06299*%
%ADD16C,0.07087*%
%ADD17C,0.07400*%
%ADD18C,0.02362*%
D10*
X0064242Y0103749D03*
X0044557Y0126091D03*
X0044557Y0159851D03*
X0083927Y0159851D03*
X0123297Y0159851D03*
X0123297Y0137509D03*
X0123297Y0116249D03*
X0103612Y0103749D03*
X0142982Y0103749D03*
X0182352Y0103749D03*
X0162667Y0159851D03*
D11*
X0152825Y0159851D03*
X0134321Y0159851D03*
X0172510Y0159851D03*
X0190620Y0150698D03*
X0190620Y0131800D03*
X0190620Y0112902D03*
X0172510Y0103749D03*
X0152825Y0103749D03*
X0134321Y0103749D03*
D12*
X0166211Y0112902D03*
X0166211Y0150698D03*
D13*
X0047352Y0021485D03*
X0244203Y0021485D03*
X0244203Y0238020D03*
X0047352Y0238020D03*
D14*
X0264717Y0182000D02*
X0281117Y0182000D01*
X0281117Y0173600D01*
X0264717Y0173600D01*
X0264717Y0182000D01*
X0264717Y0175199D02*
X0281117Y0175199D01*
X0281117Y0176798D02*
X0264717Y0176798D01*
X0264717Y0178397D02*
X0281117Y0178397D01*
X0281117Y0179996D02*
X0264717Y0179996D01*
X0264717Y0181595D02*
X0281117Y0181595D01*
X0281117Y0150000D02*
X0264717Y0150000D01*
X0281117Y0150000D02*
X0281117Y0141600D01*
X0264717Y0141600D01*
X0264717Y0150000D01*
X0264717Y0143199D02*
X0281117Y0143199D01*
X0281117Y0144798D02*
X0264717Y0144798D01*
X0264717Y0146397D02*
X0281117Y0146397D01*
X0281117Y0147996D02*
X0264717Y0147996D01*
X0264717Y0149595D02*
X0281117Y0149595D01*
X0281117Y0122000D02*
X0264717Y0122000D01*
X0281117Y0122000D02*
X0281117Y0113600D01*
X0264717Y0113600D01*
X0264717Y0122000D01*
X0264717Y0115199D02*
X0281117Y0115199D01*
X0281117Y0116798D02*
X0264717Y0116798D01*
X0264717Y0118397D02*
X0281117Y0118397D01*
X0281117Y0119996D02*
X0264717Y0119996D01*
X0264717Y0121595D02*
X0281117Y0121595D01*
X0281117Y0090000D02*
X0264717Y0090000D01*
X0281117Y0090000D02*
X0281117Y0081600D01*
X0264717Y0081600D01*
X0264717Y0090000D01*
X0264717Y0083199D02*
X0281117Y0083199D01*
X0281117Y0084798D02*
X0264717Y0084798D01*
X0264717Y0086397D02*
X0281117Y0086397D01*
X0281117Y0087996D02*
X0264717Y0087996D01*
X0264717Y0089595D02*
X0281117Y0089595D01*
D15*
X0091417Y0242430D03*
D16*
X0091417Y0224713D03*
D17*
X0164417Y0213050D03*
X0163417Y0203050D03*
X0164417Y0193050D03*
X0163417Y0183050D03*
X0160167Y0067300D03*
X0150167Y0066300D03*
X0140167Y0067300D03*
X0130167Y0066300D03*
X0120167Y0067300D03*
X0110167Y0066300D03*
X0100167Y0067300D03*
X0090167Y0066300D03*
X0170167Y0066300D03*
X0180167Y0067300D03*
D18*
X0175167Y0074300D03*
X0165167Y0074300D03*
X0175167Y0088050D03*
X0188917Y0095550D03*
X0195792Y0101800D03*
X0206417Y0095550D03*
X0215167Y0099300D03*
X0222667Y0094300D03*
X0233292Y0091175D03*
X0240167Y0101800D03*
X0248917Y0106800D03*
X0253917Y0106800D03*
X0258917Y0106800D03*
X0259542Y0096800D03*
X0253917Y0096800D03*
X0249542Y0094925D03*
X0246417Y0091175D03*
X0232667Y0111800D03*
X0238917Y0114300D03*
X0231417Y0120550D03*
X0222667Y0113050D03*
X0217667Y0119300D03*
X0210167Y0126800D03*
X0200167Y0131800D03*
X0210167Y0136800D03*
X0217667Y0144300D03*
X0223917Y0150550D03*
X0230167Y0154300D03*
X0237667Y0150550D03*
X0243917Y0150550D03*
X0248917Y0154300D03*
X0253917Y0156800D03*
X0258917Y0156800D03*
X0258917Y0166800D03*
X0253917Y0166800D03*
X0248917Y0166800D03*
X0240167Y0161800D03*
X0231417Y0169300D03*
X0223917Y0169300D03*
X0215167Y0164300D03*
X0207667Y0156800D03*
X0200167Y0150550D03*
X0178917Y0171800D03*
X0167667Y0144300D03*
X0172667Y0136800D03*
X0172667Y0128050D03*
X0175792Y0118675D03*
X0158917Y0131800D03*
X0160167Y0135550D03*
X0157667Y0144300D03*
X0142667Y0146800D03*
X0133917Y0141800D03*
X0133917Y0136800D03*
X0141417Y0130550D03*
X0135167Y0129300D03*
X0141417Y0123050D03*
X0142667Y0118050D03*
X0156417Y0121800D03*
X0160792Y0093675D03*
X0150167Y0091800D03*
X0145167Y0088050D03*
X0133917Y0086800D03*
X0127042Y0093675D03*
X0118917Y0086800D03*
X0105167Y0086800D03*
X0100167Y0093050D03*
X0093917Y0083050D03*
X0083917Y0078050D03*
X0078917Y0073050D03*
X0056417Y0083050D03*
X0050167Y0073050D03*
X0132667Y0199300D03*
X0123917Y0208050D03*
X0141417Y0208050D03*
X0157667Y0231800D03*
X0172667Y0231800D03*
X0181417Y0234300D03*
X0197667Y0234300D03*
X0203917Y0234300D03*
X0201417Y0228050D03*
X0206417Y0228050D03*
X0206417Y0223050D03*
X0213917Y0223050D03*
X0218917Y0223050D03*
X0218917Y0218050D03*
X0213917Y0218050D03*
X0223917Y0218050D03*
X0223917Y0223050D03*
X0223917Y0229300D03*
X0223917Y0234300D03*
X0223917Y0239300D03*
X0223917Y0245550D03*
X0218917Y0245550D03*
X0213917Y0245550D03*
X0213917Y0250550D03*
X0218917Y0250550D03*
X0223917Y0250550D03*
X0206417Y0245550D03*
X0206417Y0240550D03*
X0201417Y0240550D03*
X0188917Y0219615D03*
X0182667Y0219615D03*
X0182667Y0214615D03*
X0176417Y0219615D03*
X0211417Y0200550D03*
X0220167Y0209300D03*
X0236417Y0188050D03*
X0231417Y0178050D03*
X0239542Y0172425D03*
X0251417Y0188050D03*
X0258917Y0178050D03*
X0272667Y0170550D03*
X0272667Y0186800D03*
X0272667Y0153050D03*
X0258917Y0145550D03*
X0251417Y0130550D03*
X0236417Y0130550D03*
X0258917Y0118050D03*
X0272667Y0110550D03*
X0272667Y0093050D03*
X0272667Y0131800D03*
X0213917Y0087425D03*
X0206417Y0078050D03*
X0207667Y0106800D03*
X0200167Y0114300D03*
X0071417Y0208050D03*
X0071417Y0230550D03*
X0071417Y0251800D03*
M02*
