G75*
%MOIN*%
%OFA0B0*%
%FSLAX25Y25*%
%IPPOS*%
%LPD*%
%AMOC8*
5,1,8,0,0,1.08239X$1,22.5*
%
%ADD10C,0.07028*%
%ADD11C,0.06358*%
%ADD12C,0.16598*%
%ADD13C,0.06800*%
%ADD14C,0.02362*%
%ADD15C,0.01299*%
D10*
X0064242Y0103749D03*
X0044557Y0126091D03*
X0044557Y0159851D03*
X0083927Y0159851D03*
X0123297Y0159851D03*
X0123297Y0137509D03*
X0123297Y0116249D03*
X0103612Y0103749D03*
X0142982Y0103749D03*
X0182352Y0103749D03*
D11*
X0172510Y0103749D03*
X0152825Y0103749D03*
X0134321Y0103749D03*
X0190620Y0112902D03*
X0190620Y0131800D03*
X0190620Y0150698D03*
X0172510Y0159851D03*
X0162667Y0159851D03*
X0152825Y0159851D03*
X0134321Y0159851D03*
D12*
X0047352Y0238020D03*
X0244203Y0238020D03*
X0244203Y0021485D03*
X0047352Y0021485D03*
D13*
X0090167Y0066300D03*
X0100167Y0067300D03*
X0110167Y0066300D03*
X0120167Y0067300D03*
X0130167Y0066300D03*
X0140167Y0067300D03*
X0150167Y0066300D03*
X0160167Y0067300D03*
X0170167Y0066300D03*
X0180167Y0067300D03*
X0163417Y0183050D03*
X0164417Y0193050D03*
X0163417Y0203050D03*
X0164417Y0213050D03*
D14*
X0176417Y0219615D03*
X0182667Y0219615D03*
X0182667Y0214615D03*
X0188917Y0219615D03*
X0201417Y0228050D03*
X0206417Y0228050D03*
X0206417Y0223050D03*
X0213917Y0223050D03*
X0218917Y0223050D03*
X0218917Y0218050D03*
X0213917Y0218050D03*
X0223917Y0218050D03*
X0223917Y0223050D03*
X0223917Y0229300D03*
X0223917Y0234300D03*
X0223917Y0239300D03*
X0223917Y0245550D03*
X0218917Y0245550D03*
X0213917Y0245550D03*
X0213917Y0250550D03*
X0218917Y0250550D03*
X0223917Y0250550D03*
X0206417Y0245550D03*
X0206417Y0240550D03*
X0201417Y0240550D03*
X0203917Y0234300D03*
X0197667Y0234300D03*
X0181417Y0234300D03*
X0172667Y0231800D03*
X0157667Y0231800D03*
X0141417Y0208050D03*
X0132667Y0199300D03*
X0123917Y0208050D03*
X0071417Y0208050D03*
X0071417Y0230550D03*
X0071417Y0251800D03*
X0178917Y0171800D03*
X0200167Y0150550D03*
X0207667Y0156800D03*
X0215167Y0164300D03*
X0223917Y0169300D03*
X0231417Y0169300D03*
X0239542Y0172425D03*
X0231417Y0178050D03*
X0236417Y0188050D03*
X0251417Y0188050D03*
X0258917Y0178050D03*
X0258917Y0166800D03*
X0253917Y0166800D03*
X0248917Y0166800D03*
X0240167Y0161800D03*
X0248917Y0154300D03*
X0253917Y0156800D03*
X0258917Y0156800D03*
X0258917Y0145550D03*
X0272667Y0153050D03*
X0272667Y0170550D03*
X0272667Y0186800D03*
X0243917Y0150550D03*
X0237667Y0150550D03*
X0230167Y0154300D03*
X0223917Y0150550D03*
X0217667Y0144300D03*
X0210167Y0136800D03*
X0200167Y0131800D03*
X0210167Y0126800D03*
X0217667Y0119300D03*
X0222667Y0113050D03*
X0232667Y0111800D03*
X0238917Y0114300D03*
X0231417Y0120550D03*
X0236417Y0130550D03*
X0251417Y0130550D03*
X0258917Y0118050D03*
X0258917Y0106800D03*
X0253917Y0106800D03*
X0248917Y0106800D03*
X0240167Y0101800D03*
X0249542Y0094925D03*
X0253917Y0096800D03*
X0259542Y0096800D03*
X0272667Y0093050D03*
X0272667Y0110550D03*
X0272667Y0131800D03*
X0246417Y0091175D03*
X0233292Y0091175D03*
X0222667Y0094300D03*
X0215167Y0099300D03*
X0206417Y0095550D03*
X0213917Y0087425D03*
X0206417Y0078050D03*
X0188917Y0095550D03*
X0195792Y0101800D03*
X0207667Y0106800D03*
X0200167Y0114300D03*
X0175792Y0118675D03*
X0172667Y0128050D03*
X0172667Y0136800D03*
X0167667Y0144300D03*
X0157667Y0144300D03*
X0160167Y0135550D03*
X0158917Y0131800D03*
X0156417Y0121800D03*
X0142667Y0118050D03*
X0141417Y0123050D03*
X0135167Y0129300D03*
X0141417Y0130550D03*
X0133917Y0136800D03*
X0133917Y0141800D03*
X0142667Y0146800D03*
X0127042Y0093675D03*
X0133917Y0086800D03*
X0145167Y0088050D03*
X0150167Y0091800D03*
X0160792Y0093675D03*
X0175167Y0088050D03*
X0175167Y0074300D03*
X0165167Y0074300D03*
X0118917Y0086800D03*
X0105167Y0086800D03*
X0100167Y0093050D03*
X0093917Y0083050D03*
X0083917Y0078050D03*
X0078917Y0073050D03*
X0056417Y0083050D03*
X0050167Y0073050D03*
X0211417Y0200550D03*
X0220167Y0209300D03*
D15*
X0030089Y0255284D02*
X0030089Y0004221D01*
X0281152Y0004221D01*
X0281152Y0255284D01*
X0073863Y0255284D01*
X0074972Y0254175D01*
X0075610Y0252634D01*
X0075610Y0250966D01*
X0074972Y0249425D01*
X0073792Y0248245D01*
X0072251Y0247607D01*
X0070583Y0247607D01*
X0069042Y0248245D01*
X0067863Y0249425D01*
X0067224Y0250966D01*
X0067224Y0252634D01*
X0067863Y0254175D01*
X0068972Y0255284D01*
X0030089Y0255284D01*
X0030089Y0254856D02*
X0068544Y0254856D01*
X0067607Y0253558D02*
X0030089Y0253558D01*
X0030089Y0252261D02*
X0067224Y0252261D01*
X0067226Y0250963D02*
X0030089Y0250963D01*
X0030089Y0249665D02*
X0067763Y0249665D01*
X0068920Y0248368D02*
X0052053Y0248368D01*
X0051718Y0248561D02*
X0048841Y0249331D01*
X0045863Y0249331D01*
X0042986Y0248561D01*
X0040407Y0247072D01*
X0038301Y0244966D01*
X0036812Y0242386D01*
X0036041Y0239510D01*
X0036041Y0236531D01*
X0036812Y0233655D01*
X0038301Y0231075D01*
X0040407Y0228969D01*
X0042986Y0227480D01*
X0045863Y0226709D01*
X0048841Y0226709D01*
X0051718Y0227480D01*
X0054297Y0228969D01*
X0056403Y0231075D01*
X0057893Y0233655D01*
X0058663Y0236531D01*
X0058663Y0239510D01*
X0057893Y0242386D01*
X0056403Y0244966D01*
X0054297Y0247072D01*
X0051718Y0248561D01*
X0054299Y0247070D02*
X0088179Y0247070D01*
X0088262Y0247153D02*
X0086695Y0245586D01*
X0085846Y0243538D01*
X0085846Y0241322D01*
X0086695Y0239274D01*
X0088262Y0237707D01*
X0090309Y0236859D01*
X0092525Y0236859D01*
X0094573Y0237707D01*
X0096140Y0239274D01*
X0096988Y0241322D01*
X0096988Y0243538D01*
X0096140Y0245586D01*
X0094573Y0247153D01*
X0092525Y0248001D01*
X0090309Y0248001D01*
X0088262Y0247153D01*
X0086881Y0245772D02*
X0055597Y0245772D01*
X0056687Y0244474D02*
X0086234Y0244474D01*
X0085846Y0243177D02*
X0057436Y0243177D01*
X0058029Y0241879D02*
X0085846Y0241879D01*
X0086153Y0240581D02*
X0058376Y0240581D01*
X0058663Y0239283D02*
X0086691Y0239283D01*
X0087983Y0237986D02*
X0058663Y0237986D01*
X0058663Y0236688D02*
X0177876Y0236688D01*
X0177863Y0236675D02*
X0177224Y0235134D01*
X0177224Y0233466D01*
X0177863Y0231925D01*
X0179042Y0230745D01*
X0180583Y0230107D01*
X0182251Y0230107D01*
X0183792Y0230745D01*
X0184972Y0231925D01*
X0185610Y0233466D01*
X0185610Y0235134D01*
X0184972Y0236675D01*
X0183792Y0237855D01*
X0182251Y0238493D01*
X0180583Y0238493D01*
X0179042Y0237855D01*
X0177863Y0236675D01*
X0177331Y0235390D02*
X0174956Y0235390D01*
X0175042Y0235355D02*
X0173501Y0235993D01*
X0171833Y0235993D01*
X0170292Y0235355D01*
X0169113Y0234175D01*
X0168474Y0232634D01*
X0168474Y0230966D01*
X0169113Y0229425D01*
X0170292Y0228245D01*
X0171833Y0227607D01*
X0173501Y0227607D01*
X0175042Y0228245D01*
X0176222Y0229425D01*
X0176860Y0230966D01*
X0176860Y0232634D01*
X0176222Y0234175D01*
X0175042Y0235355D01*
X0176256Y0234093D02*
X0177224Y0234093D01*
X0177502Y0232795D02*
X0176794Y0232795D01*
X0176860Y0231497D02*
X0178291Y0231497D01*
X0176543Y0230199D02*
X0180360Y0230199D01*
X0182474Y0230199D02*
X0196610Y0230199D01*
X0196833Y0230107D02*
X0195292Y0230745D01*
X0194113Y0231925D01*
X0193474Y0233466D01*
X0193474Y0235134D01*
X0194113Y0236675D01*
X0195292Y0237855D01*
X0196833Y0238493D01*
X0197731Y0238493D01*
X0197224Y0239716D01*
X0197224Y0241384D01*
X0197863Y0242925D01*
X0199042Y0244105D01*
X0200583Y0244743D01*
X0202224Y0244743D01*
X0202224Y0246384D01*
X0202863Y0247925D01*
X0204042Y0249105D01*
X0205583Y0249743D01*
X0207251Y0249743D01*
X0208792Y0249105D01*
X0209972Y0247925D01*
X0210167Y0247453D01*
X0210363Y0247925D01*
X0210488Y0248050D01*
X0210363Y0248175D01*
X0209724Y0249716D01*
X0209724Y0251384D01*
X0210363Y0252925D01*
X0211542Y0254105D01*
X0213083Y0254743D01*
X0214751Y0254743D01*
X0216292Y0254105D01*
X0216417Y0253980D01*
X0216542Y0254105D01*
X0218083Y0254743D01*
X0219751Y0254743D01*
X0221292Y0254105D01*
X0221417Y0253980D01*
X0221542Y0254105D01*
X0223083Y0254743D01*
X0224751Y0254743D01*
X0226292Y0254105D01*
X0227472Y0252925D01*
X0228110Y0251384D01*
X0228110Y0249716D01*
X0227472Y0248175D01*
X0227347Y0248050D01*
X0227472Y0247925D01*
X0228110Y0246384D01*
X0228110Y0244716D01*
X0227472Y0243175D01*
X0226722Y0242425D01*
X0227472Y0241675D01*
X0228110Y0240134D01*
X0228110Y0238466D01*
X0227472Y0236925D01*
X0227347Y0236800D01*
X0227472Y0236675D01*
X0228110Y0235134D01*
X0228110Y0233466D01*
X0227472Y0231925D01*
X0227347Y0231800D01*
X0227472Y0231675D01*
X0228110Y0230134D01*
X0228110Y0228466D01*
X0227472Y0226925D01*
X0226722Y0226175D01*
X0227472Y0225425D01*
X0228110Y0223884D01*
X0228110Y0222216D01*
X0227472Y0220675D01*
X0227347Y0220550D01*
X0227472Y0220425D01*
X0228110Y0218884D01*
X0228110Y0217216D01*
X0227472Y0215675D01*
X0226292Y0214495D01*
X0224751Y0213857D01*
X0223083Y0213857D01*
X0221542Y0214495D01*
X0221417Y0214620D01*
X0221292Y0214495D01*
X0219751Y0213857D01*
X0218083Y0213857D01*
X0216542Y0214495D01*
X0216417Y0214620D01*
X0216292Y0214495D01*
X0214751Y0213857D01*
X0213083Y0213857D01*
X0211542Y0214495D01*
X0210363Y0215675D01*
X0209724Y0217216D01*
X0209724Y0218884D01*
X0210363Y0220425D01*
X0210488Y0220550D01*
X0210363Y0220675D01*
X0210167Y0221147D01*
X0209972Y0220675D01*
X0208792Y0219495D01*
X0207251Y0218857D01*
X0205583Y0218857D01*
X0204042Y0219495D01*
X0202863Y0220675D01*
X0202224Y0222216D01*
X0202224Y0223857D01*
X0200583Y0223857D01*
X0199042Y0224495D01*
X0197863Y0225675D01*
X0197224Y0227216D01*
X0197224Y0228884D01*
X0197731Y0230107D01*
X0196833Y0230107D01*
X0197232Y0228902D02*
X0175699Y0228902D01*
X0169636Y0228902D02*
X0160699Y0228902D01*
X0161222Y0229425D02*
X0160042Y0228245D01*
X0158501Y0227607D01*
X0156833Y0227607D01*
X0155292Y0228245D01*
X0154113Y0229425D01*
X0153474Y0230966D01*
X0153474Y0232634D01*
X0154113Y0234175D01*
X0155292Y0235355D01*
X0156833Y0235993D01*
X0158501Y0235993D01*
X0160042Y0235355D01*
X0161222Y0234175D01*
X0161860Y0232634D01*
X0161860Y0230966D01*
X0161222Y0229425D01*
X0161543Y0230199D02*
X0168792Y0230199D01*
X0168474Y0231497D02*
X0161860Y0231497D01*
X0161794Y0232795D02*
X0168541Y0232795D01*
X0169079Y0234093D02*
X0161256Y0234093D01*
X0159956Y0235390D02*
X0170379Y0235390D01*
X0179359Y0237986D02*
X0094852Y0237986D01*
X0096144Y0239283D02*
X0197404Y0239283D01*
X0197224Y0240581D02*
X0096681Y0240581D01*
X0096988Y0241879D02*
X0197429Y0241879D01*
X0198114Y0243177D02*
X0096988Y0243177D01*
X0096600Y0244474D02*
X0199935Y0244474D01*
X0202224Y0245772D02*
X0095954Y0245772D01*
X0094656Y0247070D02*
X0202508Y0247070D01*
X0203305Y0248368D02*
X0073915Y0248368D01*
X0075071Y0249665D02*
X0205396Y0249665D01*
X0207439Y0249665D02*
X0209745Y0249665D01*
X0209724Y0250963D02*
X0075609Y0250963D01*
X0075610Y0252261D02*
X0210088Y0252261D01*
X0210996Y0253558D02*
X0075227Y0253558D01*
X0074291Y0254856D02*
X0281152Y0254856D01*
X0281152Y0253558D02*
X0226839Y0253558D01*
X0227747Y0252261D02*
X0281152Y0252261D01*
X0281152Y0250963D02*
X0228110Y0250963D01*
X0228089Y0249665D02*
X0281152Y0249665D01*
X0281152Y0248368D02*
X0248903Y0248368D01*
X0248569Y0248561D02*
X0245692Y0249331D01*
X0242714Y0249331D01*
X0239837Y0248561D01*
X0237258Y0247072D01*
X0235152Y0244966D01*
X0233663Y0242386D01*
X0232892Y0239510D01*
X0232892Y0236531D01*
X0233663Y0233655D01*
X0235152Y0231075D01*
X0237258Y0228969D01*
X0239837Y0227480D01*
X0242714Y0226709D01*
X0245692Y0226709D01*
X0248569Y0227480D01*
X0251148Y0228969D01*
X0253254Y0231075D01*
X0254743Y0233655D01*
X0255514Y0236531D01*
X0255514Y0239510D01*
X0254743Y0242386D01*
X0253254Y0244966D01*
X0251148Y0247072D01*
X0248569Y0248561D01*
X0251150Y0247070D02*
X0281152Y0247070D01*
X0281152Y0245772D02*
X0252447Y0245772D01*
X0253537Y0244474D02*
X0281152Y0244474D01*
X0281152Y0243177D02*
X0254287Y0243177D01*
X0254879Y0241879D02*
X0281152Y0241879D01*
X0281152Y0240581D02*
X0255227Y0240581D01*
X0255514Y0239283D02*
X0281152Y0239283D01*
X0281152Y0237986D02*
X0255514Y0237986D01*
X0255514Y0236688D02*
X0281152Y0236688D01*
X0281152Y0235390D02*
X0255208Y0235390D01*
X0254860Y0234093D02*
X0281152Y0234093D01*
X0281152Y0232795D02*
X0254247Y0232795D01*
X0253497Y0231497D02*
X0281152Y0231497D01*
X0281152Y0230199D02*
X0252378Y0230199D01*
X0251031Y0228902D02*
X0281152Y0228902D01*
X0281152Y0227604D02*
X0248783Y0227604D01*
X0239623Y0227604D02*
X0227753Y0227604D01*
X0228110Y0228902D02*
X0237375Y0228902D01*
X0236028Y0230199D02*
X0228083Y0230199D01*
X0227546Y0231497D02*
X0234908Y0231497D01*
X0234159Y0232795D02*
X0227832Y0232795D01*
X0228110Y0234093D02*
X0233545Y0234093D01*
X0233197Y0235390D02*
X0228004Y0235390D01*
X0227459Y0236688D02*
X0232892Y0236688D01*
X0232892Y0237986D02*
X0227911Y0237986D01*
X0228110Y0239283D02*
X0232892Y0239283D01*
X0233179Y0240581D02*
X0227925Y0240581D01*
X0227268Y0241879D02*
X0233527Y0241879D01*
X0234119Y0243177D02*
X0227473Y0243177D01*
X0228010Y0244474D02*
X0234868Y0244474D01*
X0235958Y0245772D02*
X0228110Y0245772D01*
X0227826Y0247070D02*
X0237256Y0247070D01*
X0239502Y0248368D02*
X0227552Y0248368D01*
X0210283Y0248368D02*
X0209529Y0248368D01*
X0195609Y0237986D02*
X0183476Y0237986D01*
X0184959Y0236688D02*
X0194126Y0236688D01*
X0193581Y0235390D02*
X0185504Y0235390D01*
X0185610Y0234093D02*
X0193474Y0234093D01*
X0193752Y0232795D02*
X0185332Y0232795D01*
X0184544Y0231497D02*
X0194541Y0231497D01*
X0197224Y0227604D02*
X0096676Y0227604D01*
X0096474Y0228092D02*
X0094796Y0229770D01*
X0092604Y0230678D01*
X0090231Y0230678D01*
X0088039Y0229770D01*
X0086361Y0228092D01*
X0085453Y0225900D01*
X0085453Y0223527D01*
X0086361Y0221335D01*
X0088039Y0219657D01*
X0090231Y0218749D01*
X0092604Y0218749D01*
X0094796Y0219657D01*
X0096474Y0221335D01*
X0097382Y0223527D01*
X0097382Y0225900D01*
X0096474Y0228092D01*
X0095664Y0228902D02*
X0154636Y0228902D01*
X0153792Y0230199D02*
X0093759Y0230199D01*
X0097214Y0226306D02*
X0197601Y0226306D01*
X0198529Y0225009D02*
X0097382Y0225009D01*
X0097382Y0223711D02*
X0202224Y0223711D01*
X0202224Y0222413D02*
X0096920Y0222413D01*
X0096254Y0221115D02*
X0202680Y0221115D01*
X0203720Y0219818D02*
X0094957Y0219818D01*
X0087878Y0219818D02*
X0030089Y0219818D01*
X0030089Y0221115D02*
X0086580Y0221115D01*
X0085914Y0222413D02*
X0030089Y0222413D01*
X0030089Y0223711D02*
X0085453Y0223711D01*
X0085453Y0225009D02*
X0030089Y0225009D01*
X0030089Y0226306D02*
X0085621Y0226306D01*
X0086159Y0227604D02*
X0074401Y0227604D01*
X0074972Y0228175D02*
X0075610Y0229716D01*
X0075610Y0231384D01*
X0074972Y0232925D01*
X0073792Y0234105D01*
X0072251Y0234743D01*
X0070583Y0234743D01*
X0069042Y0234105D01*
X0067863Y0232925D01*
X0067224Y0231384D01*
X0067224Y0229716D01*
X0067863Y0228175D01*
X0069042Y0226995D01*
X0070583Y0226357D01*
X0072251Y0226357D01*
X0073792Y0226995D01*
X0074972Y0228175D01*
X0075273Y0228902D02*
X0087170Y0228902D01*
X0089076Y0230199D02*
X0075610Y0230199D01*
X0075563Y0231497D02*
X0153474Y0231497D01*
X0153541Y0232795D02*
X0075026Y0232795D01*
X0073804Y0234093D02*
X0154079Y0234093D01*
X0155379Y0235390D02*
X0058358Y0235390D01*
X0058010Y0234093D02*
X0069030Y0234093D01*
X0067809Y0232795D02*
X0057396Y0232795D01*
X0056647Y0231497D02*
X0067271Y0231497D01*
X0067224Y0230199D02*
X0055527Y0230199D01*
X0054180Y0228902D02*
X0067562Y0228902D01*
X0068434Y0227604D02*
X0051932Y0227604D01*
X0042772Y0227604D02*
X0030089Y0227604D01*
X0030089Y0228902D02*
X0040525Y0228902D01*
X0039177Y0230199D02*
X0030089Y0230199D01*
X0030089Y0231497D02*
X0038058Y0231497D01*
X0037309Y0232795D02*
X0030089Y0232795D01*
X0030089Y0234093D02*
X0036695Y0234093D01*
X0036347Y0235390D02*
X0030089Y0235390D01*
X0030089Y0236688D02*
X0036041Y0236688D01*
X0036041Y0237986D02*
X0030089Y0237986D01*
X0030089Y0239283D02*
X0036041Y0239283D01*
X0036328Y0240581D02*
X0030089Y0240581D01*
X0030089Y0241879D02*
X0036676Y0241879D01*
X0037268Y0243177D02*
X0030089Y0243177D01*
X0030089Y0244474D02*
X0038018Y0244474D01*
X0039108Y0245772D02*
X0030089Y0245772D01*
X0030089Y0247070D02*
X0040406Y0247070D01*
X0042652Y0248368D02*
X0030089Y0248368D01*
X0030089Y0218520D02*
X0209724Y0218520D01*
X0209724Y0217222D02*
X0167364Y0217222D01*
X0167269Y0217317D02*
X0165419Y0218084D01*
X0163416Y0218084D01*
X0161566Y0217317D01*
X0160150Y0215901D01*
X0159383Y0214051D01*
X0159383Y0212049D01*
X0160150Y0210199D01*
X0161254Y0209094D01*
X0159785Y0208486D01*
X0157982Y0206682D01*
X0157006Y0204325D01*
X0157006Y0201775D01*
X0157982Y0199418D01*
X0159785Y0197614D01*
X0161265Y0197001D01*
X0161128Y0196902D01*
X0160566Y0196340D01*
X0160099Y0195697D01*
X0159738Y0194988D01*
X0159492Y0194232D01*
X0159368Y0193447D01*
X0159368Y0193400D01*
X0164067Y0193400D01*
X0164067Y0192700D01*
X0159368Y0192700D01*
X0159368Y0192653D01*
X0159492Y0191868D01*
X0159738Y0191112D01*
X0160099Y0190403D01*
X0160566Y0189760D01*
X0161128Y0189198D01*
X0161265Y0189099D01*
X0159785Y0188486D01*
X0157982Y0186682D01*
X0157006Y0184325D01*
X0157006Y0181775D01*
X0157982Y0179418D01*
X0159785Y0177614D01*
X0162142Y0176638D01*
X0164693Y0176638D01*
X0167049Y0177614D01*
X0168853Y0179418D01*
X0169829Y0181775D01*
X0169829Y0184325D01*
X0168853Y0186682D01*
X0167049Y0188486D01*
X0166792Y0188592D01*
X0167064Y0188731D01*
X0167707Y0189198D01*
X0168269Y0189760D01*
X0168736Y0190403D01*
X0169097Y0191112D01*
X0169343Y0191868D01*
X0169467Y0192653D01*
X0169467Y0192700D01*
X0164768Y0192700D01*
X0164768Y0193400D01*
X0169467Y0193400D01*
X0169467Y0193447D01*
X0169343Y0194232D01*
X0169097Y0194988D01*
X0168736Y0195697D01*
X0168269Y0196340D01*
X0167707Y0196902D01*
X0167064Y0197369D01*
X0166792Y0197508D01*
X0167049Y0197614D01*
X0168853Y0199418D01*
X0169829Y0201775D01*
X0169829Y0204325D01*
X0168853Y0206682D01*
X0167049Y0208486D01*
X0166801Y0208589D01*
X0167269Y0208783D01*
X0168685Y0210199D01*
X0169451Y0212049D01*
X0169451Y0214051D01*
X0168685Y0215901D01*
X0167269Y0217317D01*
X0168662Y0215924D02*
X0210259Y0215924D01*
X0211411Y0214627D02*
X0169213Y0214627D01*
X0169451Y0213329D02*
X0218938Y0213329D01*
X0219333Y0213493D02*
X0217792Y0212855D01*
X0216613Y0211675D01*
X0215974Y0210134D01*
X0215974Y0208466D01*
X0216613Y0206925D01*
X0217792Y0205745D01*
X0219333Y0205107D01*
X0221001Y0205107D01*
X0222542Y0205745D01*
X0223722Y0206925D01*
X0224360Y0208466D01*
X0224360Y0210134D01*
X0223722Y0211675D01*
X0222542Y0212855D01*
X0221001Y0213493D01*
X0219333Y0213493D01*
X0221397Y0213329D02*
X0281152Y0213329D01*
X0281152Y0212031D02*
X0223366Y0212031D01*
X0224112Y0210734D02*
X0281152Y0210734D01*
X0281152Y0209436D02*
X0224360Y0209436D01*
X0224224Y0208138D02*
X0281152Y0208138D01*
X0281152Y0206840D02*
X0223637Y0206840D01*
X0222053Y0205543D02*
X0281152Y0205543D01*
X0281152Y0204245D02*
X0213454Y0204245D01*
X0213792Y0204105D02*
X0212251Y0204743D01*
X0210583Y0204743D01*
X0209042Y0204105D01*
X0207863Y0202925D01*
X0207224Y0201384D01*
X0207224Y0199716D01*
X0207863Y0198175D01*
X0209042Y0196995D01*
X0210583Y0196357D01*
X0212251Y0196357D01*
X0213792Y0196995D01*
X0214972Y0198175D01*
X0215610Y0199716D01*
X0215610Y0201384D01*
X0214972Y0202925D01*
X0213792Y0204105D01*
X0214950Y0202947D02*
X0281152Y0202947D01*
X0281152Y0201649D02*
X0215500Y0201649D01*
X0215610Y0200352D02*
X0281152Y0200352D01*
X0281152Y0199054D02*
X0215336Y0199054D01*
X0214553Y0197756D02*
X0281152Y0197756D01*
X0281152Y0196459D02*
X0212496Y0196459D01*
X0210338Y0196459D02*
X0168150Y0196459D01*
X0169009Y0195161D02*
X0281152Y0195161D01*
X0281152Y0193863D02*
X0169401Y0193863D01*
X0169453Y0192565D02*
X0281152Y0192565D01*
X0281152Y0191268D02*
X0254129Y0191268D01*
X0253792Y0191605D02*
X0252251Y0192243D01*
X0250583Y0192243D01*
X0249042Y0191605D01*
X0247863Y0190425D01*
X0247224Y0188884D01*
X0247224Y0187216D01*
X0247863Y0185675D01*
X0249042Y0184495D01*
X0250583Y0183857D01*
X0252251Y0183857D01*
X0253792Y0184495D01*
X0254972Y0185675D01*
X0255610Y0187216D01*
X0255610Y0188884D01*
X0254972Y0190425D01*
X0253792Y0191605D01*
X0255160Y0189970D02*
X0269908Y0189970D01*
X0270292Y0190355D02*
X0269113Y0189175D01*
X0268474Y0187634D01*
X0268474Y0185966D01*
X0269113Y0184425D01*
X0270292Y0183245D01*
X0271833Y0182607D01*
X0273501Y0182607D01*
X0275042Y0183245D01*
X0276222Y0184425D01*
X0276860Y0185966D01*
X0276860Y0187634D01*
X0276222Y0189175D01*
X0275042Y0190355D01*
X0273501Y0190993D01*
X0271833Y0190993D01*
X0270292Y0190355D01*
X0268904Y0188672D02*
X0255610Y0188672D01*
X0255610Y0187375D02*
X0268474Y0187375D01*
X0268474Y0186077D02*
X0255138Y0186077D01*
X0254076Y0184779D02*
X0268966Y0184779D01*
X0270056Y0183481D02*
X0169829Y0183481D01*
X0169829Y0182184D02*
X0257940Y0182184D01*
X0258083Y0182243D02*
X0256542Y0181605D01*
X0255363Y0180425D01*
X0254724Y0178884D01*
X0254724Y0177216D01*
X0255363Y0175675D01*
X0256542Y0174495D01*
X0258083Y0173857D01*
X0259751Y0173857D01*
X0261292Y0174495D01*
X0262472Y0175675D01*
X0263110Y0177216D01*
X0263110Y0178884D01*
X0262472Y0180425D01*
X0261292Y0181605D01*
X0259751Y0182243D01*
X0258083Y0182243D01*
X0259894Y0182184D02*
X0281152Y0182184D01*
X0281152Y0183481D02*
X0275278Y0183481D01*
X0276369Y0184779D02*
X0281152Y0184779D01*
X0281152Y0186077D02*
X0276860Y0186077D01*
X0276860Y0187375D02*
X0281152Y0187375D01*
X0281152Y0188672D02*
X0276430Y0188672D01*
X0275427Y0189970D02*
X0281152Y0189970D01*
X0281152Y0180886D02*
X0262011Y0180886D01*
X0262819Y0179588D02*
X0281152Y0179588D01*
X0281152Y0178290D02*
X0263110Y0178290D01*
X0263018Y0176993D02*
X0281152Y0176993D01*
X0281152Y0175695D02*
X0262480Y0175695D01*
X0261055Y0174397D02*
X0270999Y0174397D01*
X0270292Y0174105D02*
X0271833Y0174743D01*
X0273501Y0174743D01*
X0275042Y0174105D01*
X0276222Y0172925D01*
X0276860Y0171384D01*
X0276860Y0169716D01*
X0276222Y0168175D01*
X0275042Y0166995D01*
X0273501Y0166357D01*
X0271833Y0166357D01*
X0270292Y0166995D01*
X0269113Y0168175D01*
X0268474Y0169716D01*
X0268474Y0171384D01*
X0269113Y0172925D01*
X0270292Y0174105D01*
X0269287Y0173100D02*
X0243735Y0173100D01*
X0243735Y0173259D02*
X0243097Y0174800D01*
X0241917Y0175980D01*
X0240376Y0176618D01*
X0238708Y0176618D01*
X0237167Y0175980D01*
X0235988Y0174800D01*
X0235349Y0173259D01*
X0235349Y0171591D01*
X0235988Y0170050D01*
X0237167Y0168870D01*
X0238708Y0168232D01*
X0240376Y0168232D01*
X0241917Y0168870D01*
X0243097Y0170050D01*
X0243735Y0171591D01*
X0243735Y0173259D01*
X0243264Y0174397D02*
X0256779Y0174397D01*
X0255354Y0175695D02*
X0242202Y0175695D01*
X0243735Y0171802D02*
X0268647Y0171802D01*
X0268474Y0170504D02*
X0260931Y0170504D01*
X0261292Y0170355D02*
X0259751Y0170993D01*
X0258083Y0170993D01*
X0256542Y0170355D01*
X0256417Y0170230D01*
X0256292Y0170355D01*
X0254751Y0170993D01*
X0253083Y0170993D01*
X0251542Y0170355D01*
X0251417Y0170230D01*
X0251292Y0170355D01*
X0249751Y0170993D01*
X0248083Y0170993D01*
X0246542Y0170355D01*
X0245363Y0169175D01*
X0244724Y0167634D01*
X0244724Y0165966D01*
X0245363Y0164425D01*
X0246542Y0163245D01*
X0248083Y0162607D01*
X0249751Y0162607D01*
X0251292Y0163245D01*
X0251417Y0163370D01*
X0251542Y0163245D01*
X0253083Y0162607D01*
X0254751Y0162607D01*
X0256292Y0163245D01*
X0256417Y0163370D01*
X0256542Y0163245D01*
X0258083Y0162607D01*
X0259751Y0162607D01*
X0261292Y0163245D01*
X0262472Y0164425D01*
X0263110Y0165966D01*
X0263110Y0167634D01*
X0262472Y0169175D01*
X0261292Y0170355D01*
X0262441Y0169206D02*
X0268685Y0169206D01*
X0269379Y0167909D02*
X0262996Y0167909D01*
X0263110Y0166611D02*
X0271220Y0166611D01*
X0274114Y0166611D02*
X0281152Y0166611D01*
X0281152Y0167909D02*
X0275956Y0167909D01*
X0276649Y0169206D02*
X0281152Y0169206D01*
X0281152Y0170504D02*
X0276860Y0170504D01*
X0276687Y0171802D02*
X0281152Y0171802D01*
X0281152Y0173100D02*
X0276047Y0173100D01*
X0274336Y0174397D02*
X0281152Y0174397D01*
X0281152Y0165313D02*
X0262840Y0165313D01*
X0262062Y0164015D02*
X0281152Y0164015D01*
X0281152Y0162718D02*
X0260019Y0162718D01*
X0259751Y0160993D02*
X0258083Y0160993D01*
X0256542Y0160355D01*
X0256417Y0160230D01*
X0256292Y0160355D01*
X0254751Y0160993D01*
X0253083Y0160993D01*
X0251542Y0160355D01*
X0250363Y0159175D01*
X0250032Y0158377D01*
X0249751Y0158493D01*
X0248083Y0158493D01*
X0246542Y0157855D01*
X0245363Y0156675D01*
X0244724Y0155134D01*
X0244724Y0154743D01*
X0243083Y0154743D01*
X0241542Y0154105D01*
X0240792Y0153355D01*
X0240042Y0154105D01*
X0238501Y0154743D01*
X0236833Y0154743D01*
X0235292Y0154105D01*
X0234153Y0152965D01*
X0234360Y0153466D01*
X0234360Y0155134D01*
X0233722Y0156675D01*
X0232542Y0157855D01*
X0231001Y0158493D01*
X0229333Y0158493D01*
X0227792Y0157855D01*
X0226613Y0156675D01*
X0225974Y0155134D01*
X0225974Y0154236D01*
X0224751Y0154743D01*
X0223083Y0154743D01*
X0221542Y0154105D01*
X0220363Y0152925D01*
X0219724Y0151384D01*
X0219724Y0149716D01*
X0220363Y0148175D01*
X0221542Y0146995D01*
X0223083Y0146357D01*
X0224751Y0146357D01*
X0226292Y0146995D01*
X0227472Y0148175D01*
X0228110Y0149716D01*
X0228110Y0150614D01*
X0229333Y0150107D01*
X0231001Y0150107D01*
X0232542Y0150745D01*
X0233682Y0151885D01*
X0233474Y0151384D01*
X0233474Y0149716D01*
X0234113Y0148175D01*
X0235292Y0146995D01*
X0236833Y0146357D01*
X0238501Y0146357D01*
X0240042Y0146995D01*
X0240792Y0147745D01*
X0241542Y0146995D01*
X0243083Y0146357D01*
X0244751Y0146357D01*
X0246292Y0146995D01*
X0247472Y0148175D01*
X0248110Y0149716D01*
X0248110Y0150107D01*
X0249751Y0150107D01*
X0251292Y0150745D01*
X0252472Y0151925D01*
X0252803Y0152723D01*
X0253083Y0152607D01*
X0254751Y0152607D01*
X0256292Y0153245D01*
X0256417Y0153370D01*
X0256542Y0153245D01*
X0258083Y0152607D01*
X0259751Y0152607D01*
X0261292Y0153245D01*
X0262472Y0154425D01*
X0263110Y0155966D01*
X0263110Y0157634D01*
X0262472Y0159175D01*
X0261292Y0160355D01*
X0259751Y0160993D01*
X0261525Y0160122D02*
X0281152Y0160122D01*
X0281152Y0158825D02*
X0262617Y0158825D01*
X0263110Y0157527D02*
X0281152Y0157527D01*
X0281152Y0156229D02*
X0275418Y0156229D01*
X0275042Y0156605D02*
X0273501Y0157243D01*
X0271833Y0157243D01*
X0270292Y0156605D01*
X0269113Y0155425D01*
X0268474Y0153884D01*
X0268474Y0152216D01*
X0269113Y0150675D01*
X0270292Y0149495D01*
X0271833Y0148857D01*
X0273501Y0148857D01*
X0275042Y0149495D01*
X0276222Y0150675D01*
X0276860Y0152216D01*
X0276860Y0153884D01*
X0276222Y0155425D01*
X0275042Y0156605D01*
X0276426Y0154931D02*
X0281152Y0154931D01*
X0281152Y0153634D02*
X0276860Y0153634D01*
X0276860Y0152336D02*
X0281152Y0152336D01*
X0281152Y0151038D02*
X0276372Y0151038D01*
X0275288Y0149741D02*
X0281152Y0149741D01*
X0281152Y0148443D02*
X0261954Y0148443D01*
X0262472Y0147925D02*
X0261292Y0149105D01*
X0259751Y0149743D01*
X0258083Y0149743D01*
X0256542Y0149105D01*
X0255363Y0147925D01*
X0254724Y0146384D01*
X0254724Y0144716D01*
X0255363Y0143175D01*
X0256542Y0141995D01*
X0258083Y0141357D01*
X0259751Y0141357D01*
X0261292Y0141995D01*
X0262472Y0143175D01*
X0263110Y0144716D01*
X0263110Y0146384D01*
X0262472Y0147925D01*
X0262795Y0147145D02*
X0281152Y0147145D01*
X0281152Y0145847D02*
X0263110Y0145847D01*
X0263041Y0144550D02*
X0281152Y0144550D01*
X0281152Y0143252D02*
X0262504Y0143252D01*
X0261193Y0141954D02*
X0281152Y0141954D01*
X0281152Y0140656D02*
X0219828Y0140656D01*
X0220042Y0140745D02*
X0221222Y0141925D01*
X0221860Y0143466D01*
X0221860Y0145134D01*
X0221222Y0146675D01*
X0220042Y0147855D01*
X0218501Y0148493D01*
X0216833Y0148493D01*
X0215292Y0147855D01*
X0214113Y0146675D01*
X0213474Y0145134D01*
X0213474Y0143466D01*
X0214113Y0141925D01*
X0215292Y0140745D01*
X0216833Y0140107D01*
X0218501Y0140107D01*
X0220042Y0140745D01*
X0221234Y0141954D02*
X0256642Y0141954D01*
X0255331Y0143252D02*
X0221772Y0143252D01*
X0221860Y0144550D02*
X0254793Y0144550D01*
X0254724Y0145847D02*
X0221565Y0145847D01*
X0221393Y0147145D02*
X0220752Y0147145D01*
X0220252Y0148443D02*
X0218622Y0148443D01*
X0219724Y0149741D02*
X0204360Y0149741D01*
X0204360Y0149716D02*
X0204360Y0151384D01*
X0203722Y0152925D01*
X0202542Y0154105D01*
X0201001Y0154743D01*
X0199333Y0154743D01*
X0197792Y0154105D01*
X0196613Y0152925D01*
X0196506Y0152666D01*
X0195869Y0154205D01*
X0194127Y0155946D01*
X0191852Y0156889D01*
X0189389Y0156889D01*
X0187113Y0155946D01*
X0185372Y0154205D01*
X0184429Y0151929D01*
X0184429Y0149466D01*
X0185372Y0147191D01*
X0187113Y0145449D01*
X0189389Y0144507D01*
X0191852Y0144507D01*
X0194127Y0145449D01*
X0195869Y0147191D01*
X0196444Y0148581D01*
X0196613Y0148175D01*
X0197792Y0146995D01*
X0199333Y0146357D01*
X0201001Y0146357D01*
X0202542Y0146995D01*
X0203722Y0148175D01*
X0204360Y0149716D01*
X0204360Y0151038D02*
X0219724Y0151038D01*
X0220119Y0152336D02*
X0203966Y0152336D01*
X0204904Y0153634D02*
X0203013Y0153634D01*
X0204113Y0154425D02*
X0203474Y0155966D01*
X0203474Y0157634D01*
X0204113Y0159175D01*
X0205292Y0160355D01*
X0206833Y0160993D01*
X0208501Y0160993D01*
X0210042Y0160355D01*
X0211222Y0159175D01*
X0211860Y0157634D01*
X0211860Y0155966D01*
X0211222Y0154425D01*
X0210042Y0153245D01*
X0208501Y0152607D01*
X0206833Y0152607D01*
X0205292Y0153245D01*
X0204113Y0154425D01*
X0203903Y0154931D02*
X0195142Y0154931D01*
X0196105Y0153634D02*
X0197321Y0153634D01*
X0193444Y0156229D02*
X0203474Y0156229D01*
X0203474Y0157527D02*
X0178248Y0157527D01*
X0178701Y0158620D02*
X0178701Y0161083D01*
X0177758Y0163358D01*
X0176017Y0165100D01*
X0173741Y0166042D01*
X0171278Y0166042D01*
X0169003Y0165100D01*
X0167589Y0163685D01*
X0166174Y0165100D01*
X0163899Y0166042D01*
X0161436Y0166042D01*
X0159160Y0165100D01*
X0157746Y0163685D01*
X0156332Y0165100D01*
X0154056Y0166042D01*
X0151593Y0166042D01*
X0149318Y0165100D01*
X0147576Y0163358D01*
X0146634Y0161083D01*
X0146634Y0158620D01*
X0147576Y0156344D01*
X0149318Y0154603D01*
X0151593Y0153660D01*
X0154056Y0153660D01*
X0156332Y0154603D01*
X0157746Y0156017D01*
X0159160Y0154603D01*
X0161436Y0153660D01*
X0161514Y0153660D01*
X0160738Y0151786D01*
X0160738Y0149609D01*
X0161571Y0147598D01*
X0163111Y0146058D01*
X0163748Y0145794D01*
X0163474Y0145134D01*
X0163474Y0143466D01*
X0164113Y0141925D01*
X0165292Y0140745D01*
X0166833Y0140107D01*
X0168501Y0140107D01*
X0170042Y0140745D01*
X0171222Y0141925D01*
X0171860Y0143466D01*
X0171860Y0145134D01*
X0171222Y0146675D01*
X0170575Y0147322D01*
X0170850Y0147598D01*
X0171683Y0149609D01*
X0171683Y0151786D01*
X0170850Y0153798D01*
X0170781Y0153866D01*
X0171278Y0153660D01*
X0173741Y0153660D01*
X0176017Y0154603D01*
X0177758Y0156344D01*
X0178701Y0158620D01*
X0178701Y0158825D02*
X0203968Y0158825D01*
X0205060Y0160122D02*
X0178701Y0160122D01*
X0178561Y0161420D02*
X0212118Y0161420D01*
X0211613Y0161925D02*
X0212792Y0160745D01*
X0214333Y0160107D01*
X0216001Y0160107D01*
X0217542Y0160745D01*
X0218722Y0161925D01*
X0219360Y0163466D01*
X0219360Y0165134D01*
X0218722Y0166675D01*
X0217542Y0167855D01*
X0216001Y0168493D01*
X0214333Y0168493D01*
X0212792Y0167855D01*
X0211613Y0166675D01*
X0210974Y0165134D01*
X0210974Y0163466D01*
X0211613Y0161925D01*
X0211284Y0162718D02*
X0178023Y0162718D01*
X0177101Y0164015D02*
X0210974Y0164015D01*
X0211049Y0165313D02*
X0175501Y0165313D01*
X0177323Y0169414D02*
X0178357Y0168985D01*
X0179477Y0168985D01*
X0180512Y0169414D01*
X0181304Y0170205D01*
X0181732Y0171240D01*
X0181732Y0172360D01*
X0181304Y0173395D01*
X0180512Y0174186D01*
X0179477Y0174615D01*
X0178357Y0174615D01*
X0177323Y0174186D01*
X0176531Y0173395D01*
X0176102Y0172360D01*
X0176102Y0171240D01*
X0176531Y0170205D01*
X0177323Y0169414D01*
X0177823Y0169206D02*
X0030089Y0169206D01*
X0030089Y0167909D02*
X0212923Y0167909D01*
X0211586Y0166611D02*
X0030089Y0166611D01*
X0030089Y0165313D02*
X0040791Y0165313D01*
X0040861Y0165383D02*
X0039025Y0163548D01*
X0038031Y0161149D01*
X0038031Y0158553D01*
X0039025Y0156155D01*
X0040861Y0154319D01*
X0043259Y0153326D01*
X0045855Y0153326D01*
X0048254Y0154319D01*
X0050089Y0156155D01*
X0051083Y0158553D01*
X0051083Y0161149D01*
X0050089Y0163548D01*
X0048254Y0165383D01*
X0045855Y0166377D01*
X0043259Y0166377D01*
X0040861Y0165383D01*
X0039493Y0164015D02*
X0030089Y0164015D01*
X0030089Y0162718D02*
X0038681Y0162718D01*
X0038144Y0161420D02*
X0030089Y0161420D01*
X0030089Y0160122D02*
X0038031Y0160122D01*
X0038031Y0158825D02*
X0030089Y0158825D01*
X0030089Y0157527D02*
X0038457Y0157527D01*
X0038994Y0156229D02*
X0030089Y0156229D01*
X0030089Y0154931D02*
X0040248Y0154931D01*
X0042515Y0153634D02*
X0030089Y0153634D01*
X0030089Y0152336D02*
X0160966Y0152336D01*
X0160738Y0151038D02*
X0030089Y0151038D01*
X0030089Y0149741D02*
X0139678Y0149741D01*
X0139113Y0149175D02*
X0140292Y0150355D01*
X0141833Y0150993D01*
X0143501Y0150993D01*
X0145042Y0150355D01*
X0146222Y0149175D01*
X0146860Y0147634D01*
X0146860Y0145966D01*
X0146222Y0144425D01*
X0145042Y0143245D01*
X0143501Y0142607D01*
X0141833Y0142607D01*
X0140292Y0143245D01*
X0139113Y0144425D01*
X0138474Y0145966D01*
X0138474Y0147634D01*
X0139113Y0149175D01*
X0138809Y0148443D02*
X0030089Y0148443D01*
X0030089Y0147145D02*
X0138474Y0147145D01*
X0138524Y0145847D02*
X0030089Y0145847D01*
X0030089Y0144550D02*
X0133200Y0144550D01*
X0133357Y0144615D02*
X0132323Y0144186D01*
X0131531Y0143395D01*
X0131102Y0142360D01*
X0131102Y0141240D01*
X0131531Y0140205D01*
X0132323Y0139414D01*
X0132597Y0139300D01*
X0132323Y0139186D01*
X0131531Y0138395D01*
X0131102Y0137360D01*
X0131102Y0136240D01*
X0131531Y0135205D01*
X0132323Y0134414D01*
X0133357Y0133985D01*
X0134477Y0133985D01*
X0135512Y0134414D01*
X0136304Y0135205D01*
X0136732Y0136240D01*
X0136732Y0137360D01*
X0136304Y0138395D01*
X0135512Y0139186D01*
X0135238Y0139300D01*
X0135512Y0139414D01*
X0136304Y0140205D01*
X0136732Y0141240D01*
X0136732Y0142360D01*
X0136304Y0143395D01*
X0135512Y0144186D01*
X0134477Y0144615D01*
X0133357Y0144615D01*
X0134635Y0144550D02*
X0139061Y0144550D01*
X0140286Y0143252D02*
X0136363Y0143252D01*
X0136732Y0141954D02*
X0154101Y0141954D01*
X0154113Y0141925D02*
X0155292Y0140745D01*
X0156833Y0140107D01*
X0158501Y0140107D01*
X0160042Y0140745D01*
X0161222Y0141925D01*
X0161860Y0143466D01*
X0161860Y0145134D01*
X0161222Y0146675D01*
X0160042Y0147855D01*
X0158501Y0148493D01*
X0156833Y0148493D01*
X0155292Y0147855D01*
X0154113Y0146675D01*
X0153474Y0145134D01*
X0153474Y0143466D01*
X0154113Y0141925D01*
X0153563Y0143252D02*
X0145049Y0143252D01*
X0146274Y0144550D02*
X0153474Y0144550D01*
X0153770Y0145847D02*
X0146811Y0145847D01*
X0146860Y0147145D02*
X0154583Y0147145D01*
X0156712Y0148443D02*
X0146525Y0148443D01*
X0145656Y0149741D02*
X0160738Y0149741D01*
X0161221Y0148443D02*
X0158622Y0148443D01*
X0160752Y0147145D02*
X0162024Y0147145D01*
X0161565Y0145847D02*
X0163620Y0145847D01*
X0163474Y0144550D02*
X0161860Y0144550D01*
X0161772Y0143252D02*
X0163563Y0143252D01*
X0164101Y0141954D02*
X0161234Y0141954D01*
X0159828Y0140656D02*
X0165507Y0140656D01*
X0169828Y0140656D02*
X0208521Y0140656D01*
X0207792Y0140355D02*
X0206613Y0139175D01*
X0205974Y0137634D01*
X0205974Y0135966D01*
X0206613Y0134425D01*
X0207792Y0133245D01*
X0209333Y0132607D01*
X0211001Y0132607D01*
X0212542Y0133245D01*
X0213722Y0134425D01*
X0214360Y0135966D01*
X0214360Y0137634D01*
X0213722Y0139175D01*
X0212542Y0140355D01*
X0211001Y0140993D01*
X0209333Y0140993D01*
X0207792Y0140355D01*
X0206796Y0139359D02*
X0173846Y0139359D01*
X0174262Y0139186D02*
X0173227Y0139615D01*
X0172107Y0139615D01*
X0171073Y0139186D01*
X0170281Y0138395D01*
X0169852Y0137360D01*
X0169852Y0136240D01*
X0170281Y0135205D01*
X0171073Y0134414D01*
X0172107Y0133985D01*
X0173227Y0133985D01*
X0174262Y0134414D01*
X0175054Y0135205D01*
X0175482Y0136240D01*
X0175482Y0137360D01*
X0175054Y0138395D01*
X0174262Y0139186D01*
X0175192Y0138061D02*
X0206151Y0138061D01*
X0205974Y0136763D02*
X0194412Y0136763D01*
X0194127Y0137048D02*
X0191852Y0137991D01*
X0189389Y0137991D01*
X0187113Y0137048D01*
X0185372Y0135307D01*
X0184429Y0133031D01*
X0184429Y0130569D01*
X0185372Y0128293D01*
X0187113Y0126552D01*
X0189389Y0125609D01*
X0191852Y0125609D01*
X0194127Y0126552D01*
X0195869Y0128293D01*
X0196475Y0129757D01*
X0196613Y0129425D01*
X0197792Y0128245D01*
X0199333Y0127607D01*
X0201001Y0127607D01*
X0202542Y0128245D01*
X0203722Y0129425D01*
X0204360Y0130966D01*
X0204360Y0132634D01*
X0203722Y0134175D01*
X0202542Y0135355D01*
X0201001Y0135993D01*
X0199333Y0135993D01*
X0197792Y0135355D01*
X0196613Y0134175D01*
X0196475Y0133843D01*
X0195869Y0135307D01*
X0194127Y0137048D01*
X0195710Y0135466D02*
X0198060Y0135466D01*
X0196610Y0134168D02*
X0196340Y0134168D01*
X0196152Y0128977D02*
X0197061Y0128977D01*
X0195255Y0127679D02*
X0199159Y0127679D01*
X0201175Y0127679D02*
X0205993Y0127679D01*
X0205974Y0127634D02*
X0205974Y0125966D01*
X0206613Y0124425D01*
X0207792Y0123245D01*
X0209333Y0122607D01*
X0211001Y0122607D01*
X0212542Y0123245D01*
X0213722Y0124425D01*
X0214360Y0125966D01*
X0214360Y0127634D01*
X0213722Y0129175D01*
X0212542Y0130355D01*
X0211001Y0130993D01*
X0209333Y0130993D01*
X0207792Y0130355D01*
X0206613Y0129175D01*
X0205974Y0127634D01*
X0205974Y0126381D02*
X0193716Y0126381D01*
X0187524Y0126381D02*
X0174980Y0126381D01*
X0175054Y0126455D02*
X0175482Y0127490D01*
X0175482Y0128610D01*
X0175054Y0129645D01*
X0174262Y0130436D01*
X0173227Y0130865D01*
X0172107Y0130865D01*
X0171073Y0130436D01*
X0170281Y0129645D01*
X0169852Y0128610D01*
X0169852Y0127490D01*
X0170281Y0126455D01*
X0171073Y0125664D01*
X0172107Y0125235D01*
X0173227Y0125235D01*
X0174262Y0125664D01*
X0175054Y0126455D01*
X0175482Y0127679D02*
X0185986Y0127679D01*
X0185088Y0128977D02*
X0175330Y0128977D01*
X0174424Y0130275D02*
X0184551Y0130275D01*
X0184429Y0131572D02*
X0161732Y0131572D01*
X0161732Y0131240D02*
X0161732Y0132360D01*
X0161452Y0133035D01*
X0161762Y0133164D01*
X0162554Y0133955D01*
X0162982Y0134990D01*
X0162982Y0136110D01*
X0162554Y0137145D01*
X0161762Y0137936D01*
X0160727Y0138365D01*
X0159607Y0138365D01*
X0158573Y0137936D01*
X0157781Y0137145D01*
X0157352Y0136110D01*
X0157352Y0134990D01*
X0157632Y0134315D01*
X0157323Y0134186D01*
X0156531Y0133395D01*
X0156102Y0132360D01*
X0156102Y0131240D01*
X0156531Y0130205D01*
X0157323Y0129414D01*
X0158357Y0128985D01*
X0159477Y0128985D01*
X0160512Y0129414D01*
X0161304Y0130205D01*
X0161732Y0131240D01*
X0161332Y0130275D02*
X0170911Y0130275D01*
X0170004Y0128977D02*
X0143813Y0128977D01*
X0143804Y0128955D02*
X0144232Y0129990D01*
X0144232Y0131110D01*
X0143804Y0132145D01*
X0143012Y0132936D01*
X0141977Y0133365D01*
X0140857Y0133365D01*
X0139823Y0132936D01*
X0139031Y0132145D01*
X0138602Y0131110D01*
X0138602Y0129990D01*
X0139031Y0128955D01*
X0139823Y0128164D01*
X0140857Y0127735D01*
X0141977Y0127735D01*
X0143012Y0128164D01*
X0143804Y0128955D01*
X0144232Y0130275D02*
X0156502Y0130275D01*
X0156102Y0131572D02*
X0144041Y0131572D01*
X0143078Y0132870D02*
X0156314Y0132870D01*
X0157304Y0134168D02*
X0134919Y0134168D01*
X0136411Y0135466D02*
X0157352Y0135466D01*
X0157623Y0136763D02*
X0136732Y0136763D01*
X0136442Y0138061D02*
X0158874Y0138061D01*
X0161461Y0138061D02*
X0170143Y0138061D01*
X0169852Y0136763D02*
X0162712Y0136763D01*
X0162982Y0135466D02*
X0170173Y0135466D01*
X0171666Y0134168D02*
X0162642Y0134168D01*
X0161521Y0132870D02*
X0184429Y0132870D01*
X0184900Y0134168D02*
X0173669Y0134168D01*
X0175161Y0135466D02*
X0185530Y0135466D01*
X0186828Y0136763D02*
X0175482Y0136763D01*
X0171489Y0139359D02*
X0135379Y0139359D01*
X0136491Y0140656D02*
X0155507Y0140656D01*
X0170752Y0147145D02*
X0185417Y0147145D01*
X0184853Y0148443D02*
X0171200Y0148443D01*
X0171683Y0149741D02*
X0184429Y0149741D01*
X0184429Y0151038D02*
X0171683Y0151038D01*
X0171455Y0152336D02*
X0184598Y0152336D01*
X0185135Y0153634D02*
X0170918Y0153634D01*
X0176345Y0154931D02*
X0186099Y0154931D01*
X0187797Y0156229D02*
X0177643Y0156229D01*
X0169519Y0165313D02*
X0165659Y0165313D01*
X0167258Y0164015D02*
X0167919Y0164015D01*
X0176407Y0170504D02*
X0030089Y0170504D01*
X0030089Y0171802D02*
X0176102Y0171802D01*
X0176409Y0173100D02*
X0030089Y0173100D01*
X0030089Y0174397D02*
X0177832Y0174397D01*
X0180003Y0174397D02*
X0235821Y0174397D01*
X0235349Y0173100D02*
X0233201Y0173100D01*
X0233792Y0172855D02*
X0232251Y0173493D01*
X0230583Y0173493D01*
X0229042Y0172855D01*
X0227863Y0171675D01*
X0227667Y0171203D01*
X0227472Y0171675D01*
X0226292Y0172855D01*
X0224751Y0173493D01*
X0223083Y0173493D01*
X0221542Y0172855D01*
X0220363Y0171675D01*
X0219724Y0170134D01*
X0219724Y0168466D01*
X0220363Y0166925D01*
X0221542Y0165745D01*
X0223083Y0165107D01*
X0224751Y0165107D01*
X0226292Y0165745D01*
X0227472Y0166925D01*
X0227667Y0167397D01*
X0227863Y0166925D01*
X0229042Y0165745D01*
X0230583Y0165107D01*
X0232251Y0165107D01*
X0233792Y0165745D01*
X0234972Y0166925D01*
X0235610Y0168466D01*
X0235610Y0170134D01*
X0234972Y0171675D01*
X0233792Y0172855D01*
X0234845Y0171802D02*
X0235349Y0171802D01*
X0235457Y0170504D02*
X0235800Y0170504D01*
X0235610Y0169206D02*
X0236831Y0169206D01*
X0235379Y0167909D02*
X0244838Y0167909D01*
X0244724Y0166611D02*
X0234658Y0166611D01*
X0232749Y0165313D02*
X0237751Y0165313D01*
X0237792Y0165355D02*
X0236613Y0164175D01*
X0235974Y0162634D01*
X0235974Y0160966D01*
X0236613Y0159425D01*
X0237792Y0158245D01*
X0239333Y0157607D01*
X0241001Y0157607D01*
X0242542Y0158245D01*
X0243722Y0159425D01*
X0244360Y0160966D01*
X0244360Y0162634D01*
X0243722Y0164175D01*
X0242542Y0165355D01*
X0241001Y0165993D01*
X0239333Y0165993D01*
X0237792Y0165355D01*
X0236547Y0164015D02*
X0219360Y0164015D01*
X0219286Y0165313D02*
X0222586Y0165313D01*
X0220677Y0166611D02*
X0218748Y0166611D01*
X0219955Y0167909D02*
X0217412Y0167909D01*
X0219724Y0169206D02*
X0180012Y0169206D01*
X0181427Y0170504D02*
X0219878Y0170504D01*
X0220489Y0171802D02*
X0181732Y0171802D01*
X0181426Y0173100D02*
X0222134Y0173100D01*
X0225701Y0173100D02*
X0229634Y0173100D01*
X0227989Y0171802D02*
X0227345Y0171802D01*
X0227158Y0166611D02*
X0228177Y0166611D01*
X0230086Y0165313D02*
X0225249Y0165313D01*
X0219050Y0162718D02*
X0236009Y0162718D01*
X0235974Y0161420D02*
X0218217Y0161420D01*
X0216038Y0160122D02*
X0236324Y0160122D01*
X0237213Y0158825D02*
X0211367Y0158825D01*
X0211860Y0157527D02*
X0227465Y0157527D01*
X0226428Y0156229D02*
X0211860Y0156229D01*
X0211432Y0154931D02*
X0225974Y0154931D01*
X0221071Y0153634D02*
X0210431Y0153634D01*
X0214583Y0147145D02*
X0202692Y0147145D01*
X0203833Y0148443D02*
X0216712Y0148443D01*
X0213770Y0145847D02*
X0194525Y0145847D01*
X0195823Y0147145D02*
X0197643Y0147145D01*
X0196502Y0148443D02*
X0196387Y0148443D01*
X0191955Y0144550D02*
X0213474Y0144550D01*
X0213563Y0143252D02*
X0171772Y0143252D01*
X0171860Y0144550D02*
X0189285Y0144550D01*
X0186715Y0145847D02*
X0171565Y0145847D01*
X0171234Y0141954D02*
X0214101Y0141954D01*
X0215507Y0140656D02*
X0211814Y0140656D01*
X0213538Y0139359D02*
X0281152Y0139359D01*
X0281152Y0138061D02*
X0214183Y0138061D01*
X0214360Y0136763D02*
X0281152Y0136763D01*
X0281152Y0135466D02*
X0274774Y0135466D01*
X0275042Y0135355D02*
X0273501Y0135993D01*
X0271833Y0135993D01*
X0270292Y0135355D01*
X0269113Y0134175D01*
X0268474Y0132634D01*
X0268474Y0130966D01*
X0269113Y0129425D01*
X0270292Y0128245D01*
X0271833Y0127607D01*
X0273501Y0127607D01*
X0275042Y0128245D01*
X0276222Y0129425D01*
X0276860Y0130966D01*
X0276860Y0132634D01*
X0276222Y0134175D01*
X0275042Y0135355D01*
X0276225Y0134168D02*
X0281152Y0134168D01*
X0281152Y0132870D02*
X0276762Y0132870D01*
X0276860Y0131572D02*
X0281152Y0131572D01*
X0281152Y0130275D02*
X0276574Y0130275D01*
X0275774Y0128977D02*
X0281152Y0128977D01*
X0281152Y0127679D02*
X0273675Y0127679D01*
X0271659Y0127679D02*
X0254476Y0127679D01*
X0254972Y0128175D02*
X0253792Y0126995D01*
X0252251Y0126357D01*
X0250583Y0126357D01*
X0249042Y0126995D01*
X0247863Y0128175D01*
X0247224Y0129716D01*
X0247224Y0131384D01*
X0247863Y0132925D01*
X0249042Y0134105D01*
X0250583Y0134743D01*
X0252251Y0134743D01*
X0253792Y0134105D01*
X0254972Y0132925D01*
X0255610Y0131384D01*
X0255610Y0129716D01*
X0254972Y0128175D01*
X0255304Y0128977D02*
X0269561Y0128977D01*
X0268761Y0130275D02*
X0255610Y0130275D01*
X0255532Y0131572D02*
X0268474Y0131572D01*
X0268572Y0132870D02*
X0254995Y0132870D01*
X0253640Y0134168D02*
X0269110Y0134168D01*
X0270560Y0135466D02*
X0214153Y0135466D01*
X0213465Y0134168D02*
X0234195Y0134168D01*
X0234042Y0134105D02*
X0232863Y0132925D01*
X0232224Y0131384D01*
X0232224Y0129716D01*
X0232863Y0128175D01*
X0234042Y0126995D01*
X0235583Y0126357D01*
X0237251Y0126357D01*
X0238792Y0126995D01*
X0239972Y0128175D01*
X0240610Y0129716D01*
X0240610Y0131384D01*
X0239972Y0132925D01*
X0238792Y0134105D01*
X0237251Y0134743D01*
X0235583Y0134743D01*
X0234042Y0134105D01*
X0232840Y0132870D02*
X0211636Y0132870D01*
X0212622Y0130275D02*
X0232224Y0130275D01*
X0232302Y0131572D02*
X0204360Y0131572D01*
X0204262Y0132870D02*
X0208698Y0132870D01*
X0206870Y0134168D02*
X0203725Y0134168D01*
X0202274Y0135466D02*
X0206182Y0135466D01*
X0207712Y0130275D02*
X0204074Y0130275D01*
X0203274Y0128977D02*
X0206531Y0128977D01*
X0206340Y0125084D02*
X0159063Y0125084D01*
X0158792Y0125355D02*
X0157251Y0125993D01*
X0155583Y0125993D01*
X0154042Y0125355D01*
X0152863Y0124175D01*
X0152224Y0122634D01*
X0152224Y0120966D01*
X0152863Y0119425D01*
X0154042Y0118245D01*
X0155583Y0117607D01*
X0157251Y0117607D01*
X0158792Y0118245D01*
X0159972Y0119425D01*
X0160610Y0120966D01*
X0160610Y0122634D01*
X0159972Y0124175D01*
X0158792Y0125355D01*
X0160133Y0123786D02*
X0207252Y0123786D01*
X0213083Y0123786D02*
X0281152Y0123786D01*
X0281152Y0122488D02*
X0220409Y0122488D01*
X0220042Y0122855D02*
X0218501Y0123493D01*
X0216833Y0123493D01*
X0215292Y0122855D01*
X0214113Y0121675D01*
X0213474Y0120134D01*
X0213474Y0118466D01*
X0214113Y0116925D01*
X0215292Y0115745D01*
X0216833Y0115107D01*
X0218501Y0115107D01*
X0219080Y0115347D01*
X0218474Y0113884D01*
X0218474Y0112216D01*
X0219113Y0110675D01*
X0220292Y0109495D01*
X0221833Y0108857D01*
X0223501Y0108857D01*
X0225042Y0109495D01*
X0226222Y0110675D01*
X0226860Y0112216D01*
X0226860Y0113884D01*
X0226222Y0115425D01*
X0225042Y0116605D01*
X0223501Y0117243D01*
X0221833Y0117243D01*
X0221254Y0117003D01*
X0221860Y0118466D01*
X0221860Y0120134D01*
X0221222Y0121675D01*
X0220042Y0122855D01*
X0221423Y0121191D02*
X0256128Y0121191D01*
X0256542Y0121605D02*
X0255363Y0120425D01*
X0254724Y0118884D01*
X0254724Y0117216D01*
X0255363Y0115675D01*
X0256542Y0114495D01*
X0258083Y0113857D01*
X0259751Y0113857D01*
X0261292Y0114495D01*
X0262472Y0115675D01*
X0263110Y0117216D01*
X0263110Y0118884D01*
X0262472Y0120425D01*
X0261292Y0121605D01*
X0259751Y0122243D01*
X0258083Y0122243D01*
X0256542Y0121605D01*
X0255142Y0119893D02*
X0221860Y0119893D01*
X0221860Y0118595D02*
X0254724Y0118595D01*
X0254724Y0117297D02*
X0241850Y0117297D01*
X0241292Y0117855D02*
X0242472Y0116675D01*
X0243110Y0115134D01*
X0243110Y0113466D01*
X0242472Y0111925D01*
X0241292Y0110745D01*
X0239751Y0110107D01*
X0238083Y0110107D01*
X0236736Y0110665D01*
X0236222Y0109425D01*
X0235042Y0108245D01*
X0233501Y0107607D01*
X0231833Y0107607D01*
X0230292Y0108245D01*
X0229113Y0109425D01*
X0228474Y0110966D01*
X0228474Y0112634D01*
X0229113Y0114175D01*
X0230292Y0115355D01*
X0231833Y0115993D01*
X0233501Y0115993D01*
X0234849Y0115435D01*
X0235363Y0116675D01*
X0236542Y0117855D01*
X0238083Y0118493D01*
X0239751Y0118493D01*
X0241292Y0117855D01*
X0242752Y0116000D02*
X0255228Y0116000D01*
X0256336Y0114702D02*
X0243110Y0114702D01*
X0243085Y0113404D02*
X0269592Y0113404D01*
X0269113Y0112925D02*
X0268474Y0111384D01*
X0268474Y0109716D01*
X0269113Y0108175D01*
X0270292Y0106995D01*
X0271833Y0106357D01*
X0273501Y0106357D01*
X0275042Y0106995D01*
X0276222Y0108175D01*
X0276860Y0109716D01*
X0276860Y0111384D01*
X0276222Y0112925D01*
X0275042Y0114105D01*
X0273501Y0114743D01*
X0271833Y0114743D01*
X0270292Y0114105D01*
X0269113Y0112925D01*
X0268774Y0112107D02*
X0242547Y0112107D01*
X0241356Y0110809D02*
X0247639Y0110809D01*
X0248083Y0110993D02*
X0246542Y0110355D01*
X0245363Y0109175D01*
X0244724Y0107634D01*
X0244724Y0105966D01*
X0245363Y0104425D01*
X0246542Y0103245D01*
X0248083Y0102607D01*
X0249751Y0102607D01*
X0251292Y0103245D01*
X0251417Y0103370D01*
X0251542Y0103245D01*
X0253083Y0102607D01*
X0254751Y0102607D01*
X0256292Y0103245D01*
X0256417Y0103370D01*
X0256542Y0103245D01*
X0258083Y0102607D01*
X0259751Y0102607D01*
X0261292Y0103245D01*
X0262472Y0104425D01*
X0263110Y0105966D01*
X0263110Y0107634D01*
X0262472Y0109175D01*
X0261292Y0110355D01*
X0259751Y0110993D01*
X0258083Y0110993D01*
X0256542Y0110355D01*
X0256417Y0110230D01*
X0256292Y0110355D01*
X0254751Y0110993D01*
X0253083Y0110993D01*
X0251542Y0110355D01*
X0251417Y0110230D01*
X0251292Y0110355D01*
X0249751Y0110993D01*
X0248083Y0110993D01*
X0250196Y0110809D02*
X0252639Y0110809D01*
X0255196Y0110809D02*
X0257639Y0110809D01*
X0260196Y0110809D02*
X0268474Y0110809D01*
X0268559Y0109511D02*
X0262136Y0109511D01*
X0262870Y0108213D02*
X0269097Y0108213D01*
X0270485Y0106916D02*
X0263110Y0106916D01*
X0262966Y0105618D02*
X0281152Y0105618D01*
X0281152Y0106916D02*
X0274850Y0106916D01*
X0276238Y0108213D02*
X0281152Y0108213D01*
X0281152Y0109511D02*
X0276775Y0109511D01*
X0276860Y0110809D02*
X0281152Y0110809D01*
X0281152Y0112107D02*
X0276561Y0112107D01*
X0275743Y0113404D02*
X0281152Y0113404D01*
X0281152Y0114702D02*
X0273600Y0114702D01*
X0271735Y0114702D02*
X0261499Y0114702D01*
X0262606Y0116000D02*
X0281152Y0116000D01*
X0281152Y0117297D02*
X0263110Y0117297D01*
X0263110Y0118595D02*
X0281152Y0118595D01*
X0281152Y0119893D02*
X0262692Y0119893D01*
X0261706Y0121191D02*
X0281152Y0121191D01*
X0281152Y0125084D02*
X0213995Y0125084D01*
X0214360Y0126381D02*
X0235524Y0126381D01*
X0237310Y0126381D02*
X0250524Y0126381D01*
X0252310Y0126381D02*
X0281152Y0126381D01*
X0281152Y0104320D02*
X0262367Y0104320D01*
X0260754Y0103022D02*
X0281152Y0103022D01*
X0281152Y0101725D02*
X0244360Y0101725D01*
X0244360Y0100966D02*
X0243722Y0099425D01*
X0242542Y0098245D01*
X0241001Y0097607D01*
X0239333Y0097607D01*
X0237792Y0098245D01*
X0236613Y0099425D01*
X0235974Y0100966D01*
X0235974Y0102634D01*
X0236613Y0104175D01*
X0237792Y0105355D01*
X0239333Y0105993D01*
X0241001Y0105993D01*
X0242542Y0105355D01*
X0243722Y0104175D01*
X0244360Y0102634D01*
X0244360Y0100966D01*
X0244137Y0100427D02*
X0251717Y0100427D01*
X0251542Y0100355D02*
X0253083Y0100993D01*
X0254751Y0100993D01*
X0256292Y0100355D01*
X0256730Y0099917D01*
X0257167Y0100355D01*
X0258708Y0100993D01*
X0260376Y0100993D01*
X0261917Y0100355D01*
X0263097Y0099175D01*
X0263735Y0097634D01*
X0263735Y0095966D01*
X0263097Y0094425D01*
X0261917Y0093245D01*
X0260376Y0092607D01*
X0258708Y0092607D01*
X0257167Y0093245D01*
X0256730Y0093683D01*
X0256292Y0093245D01*
X0254751Y0092607D01*
X0253121Y0092607D01*
X0253097Y0092550D01*
X0251917Y0091370D01*
X0250610Y0090829D01*
X0250610Y0090341D01*
X0249972Y0088800D01*
X0248792Y0087620D01*
X0247251Y0086982D01*
X0245583Y0086982D01*
X0244042Y0087620D01*
X0242863Y0088800D01*
X0242224Y0090341D01*
X0242224Y0092009D01*
X0242863Y0093550D01*
X0244042Y0094730D01*
X0245349Y0095271D01*
X0245349Y0095759D01*
X0245988Y0097300D01*
X0247167Y0098480D01*
X0248708Y0099118D01*
X0250339Y0099118D01*
X0250363Y0099175D01*
X0251542Y0100355D01*
X0250344Y0099129D02*
X0243426Y0099129D01*
X0241543Y0097832D02*
X0246519Y0097832D01*
X0245670Y0096534D02*
X0226280Y0096534D01*
X0226222Y0096675D02*
X0225042Y0097855D01*
X0223501Y0098493D01*
X0221833Y0098493D01*
X0220292Y0097855D01*
X0219113Y0096675D01*
X0218474Y0095134D01*
X0218474Y0093466D01*
X0219113Y0091925D01*
X0220292Y0090745D01*
X0221833Y0090107D01*
X0223501Y0090107D01*
X0225042Y0090745D01*
X0226222Y0091925D01*
X0226860Y0093466D01*
X0226860Y0095134D01*
X0226222Y0096675D01*
X0226818Y0095236D02*
X0232140Y0095236D01*
X0232458Y0095368D02*
X0230917Y0094730D01*
X0229738Y0093550D01*
X0229099Y0092009D01*
X0229099Y0090341D01*
X0229738Y0088800D01*
X0230917Y0087620D01*
X0232458Y0086982D01*
X0234126Y0086982D01*
X0235667Y0087620D01*
X0236847Y0088800D01*
X0237485Y0090341D01*
X0237485Y0092009D01*
X0236847Y0093550D01*
X0235667Y0094730D01*
X0234126Y0095368D01*
X0232458Y0095368D01*
X0234444Y0095236D02*
X0245265Y0095236D01*
X0243251Y0093938D02*
X0236459Y0093938D01*
X0237224Y0092641D02*
X0242486Y0092641D01*
X0242224Y0091343D02*
X0237485Y0091343D01*
X0237363Y0090045D02*
X0242347Y0090045D01*
X0242915Y0088748D02*
X0236794Y0088748D01*
X0235255Y0087450D02*
X0244454Y0087450D01*
X0248380Y0087450D02*
X0281152Y0087450D01*
X0281152Y0088748D02*
X0249919Y0088748D01*
X0250488Y0090045D02*
X0269742Y0090045D01*
X0270292Y0089495D02*
X0269113Y0090675D01*
X0268474Y0092216D01*
X0268474Y0093884D01*
X0269113Y0095425D01*
X0270292Y0096605D01*
X0271833Y0097243D01*
X0273501Y0097243D01*
X0275042Y0096605D01*
X0276222Y0095425D01*
X0276860Y0093884D01*
X0276860Y0092216D01*
X0276222Y0090675D01*
X0275042Y0089495D01*
X0273501Y0088857D01*
X0271833Y0088857D01*
X0270292Y0089495D01*
X0268836Y0091343D02*
X0251851Y0091343D01*
X0254832Y0092641D02*
X0258627Y0092641D01*
X0260457Y0092641D02*
X0268474Y0092641D01*
X0268497Y0093938D02*
X0262610Y0093938D01*
X0263433Y0095236D02*
X0269034Y0095236D01*
X0270222Y0096534D02*
X0263735Y0096534D01*
X0263653Y0097832D02*
X0281152Y0097832D01*
X0281152Y0099129D02*
X0263116Y0099129D01*
X0261742Y0100427D02*
X0281152Y0100427D01*
X0281152Y0096534D02*
X0275113Y0096534D01*
X0276300Y0095236D02*
X0281152Y0095236D01*
X0281152Y0093938D02*
X0276838Y0093938D01*
X0276860Y0092641D02*
X0281152Y0092641D01*
X0281152Y0091343D02*
X0276499Y0091343D01*
X0275592Y0090045D02*
X0281152Y0090045D01*
X0281152Y0086152D02*
X0217928Y0086152D01*
X0218110Y0086591D02*
X0217472Y0085050D01*
X0216292Y0083870D01*
X0214751Y0083232D01*
X0213083Y0083232D01*
X0211542Y0083870D01*
X0210363Y0085050D01*
X0209724Y0086591D01*
X0209724Y0088259D01*
X0210363Y0089800D01*
X0211542Y0090980D01*
X0213083Y0091618D01*
X0214751Y0091618D01*
X0216292Y0090980D01*
X0217472Y0089800D01*
X0218110Y0088259D01*
X0218110Y0086591D01*
X0218110Y0087450D02*
X0231329Y0087450D01*
X0229790Y0088748D02*
X0217908Y0088748D01*
X0217227Y0090045D02*
X0229222Y0090045D01*
X0229099Y0091343D02*
X0225640Y0091343D01*
X0226518Y0092641D02*
X0229361Y0092641D01*
X0230126Y0093938D02*
X0226860Y0093938D01*
X0225065Y0097832D02*
X0238791Y0097832D01*
X0236908Y0099129D02*
X0219360Y0099129D01*
X0219360Y0098466D02*
X0218722Y0096925D01*
X0217542Y0095745D01*
X0216001Y0095107D01*
X0214333Y0095107D01*
X0212792Y0095745D01*
X0211613Y0096925D01*
X0210974Y0098466D01*
X0210974Y0100134D01*
X0211613Y0101675D01*
X0212792Y0102855D01*
X0214333Y0103493D01*
X0216001Y0103493D01*
X0217542Y0102855D01*
X0218722Y0101675D01*
X0219360Y0100134D01*
X0219360Y0098466D01*
X0219097Y0097832D02*
X0220269Y0097832D01*
X0219054Y0096534D02*
X0218331Y0096534D01*
X0218517Y0095236D02*
X0216313Y0095236D01*
X0214022Y0095236D02*
X0210610Y0095236D01*
X0210610Y0094716D02*
X0210610Y0096384D01*
X0209972Y0097925D01*
X0208792Y0099105D01*
X0207251Y0099743D01*
X0205583Y0099743D01*
X0204042Y0099105D01*
X0202863Y0097925D01*
X0202224Y0096384D01*
X0202224Y0094716D01*
X0202863Y0093175D01*
X0204042Y0091995D01*
X0205583Y0091357D01*
X0207251Y0091357D01*
X0208792Y0091995D01*
X0209972Y0093175D01*
X0210610Y0094716D01*
X0210288Y0093938D02*
X0218474Y0093938D01*
X0218816Y0092641D02*
X0209438Y0092641D01*
X0210608Y0090045D02*
X0162986Y0090045D01*
X0163167Y0090120D02*
X0164347Y0091300D01*
X0164985Y0092841D01*
X0164985Y0094509D01*
X0164347Y0096050D01*
X0163167Y0097230D01*
X0161626Y0097868D01*
X0159958Y0097868D01*
X0158417Y0097230D01*
X0157238Y0096050D01*
X0156599Y0094509D01*
X0156599Y0092841D01*
X0157238Y0091300D01*
X0158417Y0090120D01*
X0159958Y0089482D01*
X0161626Y0089482D01*
X0163167Y0090120D01*
X0164365Y0091343D02*
X0212420Y0091343D01*
X0215415Y0091343D02*
X0219695Y0091343D01*
X0217276Y0084854D02*
X0281152Y0084854D01*
X0281152Y0083557D02*
X0215535Y0083557D01*
X0212300Y0083557D02*
X0121604Y0083557D01*
X0121292Y0083245D02*
X0122472Y0084425D01*
X0123110Y0085966D01*
X0123110Y0087634D01*
X0122472Y0089175D01*
X0121292Y0090355D01*
X0119751Y0090993D01*
X0118083Y0090993D01*
X0116542Y0090355D01*
X0115363Y0089175D01*
X0114724Y0087634D01*
X0114724Y0085966D01*
X0115363Y0084425D01*
X0116542Y0083245D01*
X0118083Y0082607D01*
X0119751Y0082607D01*
X0121292Y0083245D01*
X0122650Y0084854D02*
X0142433Y0084854D01*
X0142792Y0084495D02*
X0144333Y0083857D01*
X0146001Y0083857D01*
X0147542Y0084495D01*
X0148722Y0085675D01*
X0149360Y0087216D01*
X0149360Y0088884D01*
X0148722Y0090425D01*
X0147542Y0091605D01*
X0146001Y0092243D01*
X0144333Y0092243D01*
X0142792Y0091605D01*
X0141613Y0090425D01*
X0140974Y0088884D01*
X0140974Y0087216D01*
X0141613Y0085675D01*
X0142792Y0084495D01*
X0141415Y0086152D02*
X0123110Y0086152D01*
X0123110Y0087450D02*
X0140974Y0087450D01*
X0140974Y0088748D02*
X0122649Y0088748D01*
X0121602Y0090045D02*
X0124849Y0090045D01*
X0124667Y0090120D02*
X0126208Y0089482D01*
X0127876Y0089482D01*
X0129417Y0090120D01*
X0130597Y0091300D01*
X0131235Y0092841D01*
X0131235Y0094509D01*
X0130597Y0096050D01*
X0129417Y0097230D01*
X0127876Y0097868D01*
X0126208Y0097868D01*
X0124667Y0097230D01*
X0123488Y0096050D01*
X0122849Y0094509D01*
X0122849Y0092841D01*
X0123488Y0091300D01*
X0124667Y0090120D01*
X0123470Y0091343D02*
X0030089Y0091343D01*
X0030089Y0092641D02*
X0122932Y0092641D01*
X0122849Y0093938D02*
X0030089Y0093938D01*
X0030089Y0095236D02*
X0123151Y0095236D01*
X0123972Y0096534D02*
X0030089Y0096534D01*
X0030089Y0097832D02*
X0061475Y0097832D01*
X0060546Y0098217D02*
X0062944Y0097223D01*
X0065540Y0097223D01*
X0067939Y0098217D01*
X0069774Y0100052D01*
X0070768Y0102451D01*
X0070768Y0105047D01*
X0069774Y0107445D01*
X0067939Y0109281D01*
X0065540Y0110274D01*
X0062944Y0110274D01*
X0060546Y0109281D01*
X0058710Y0107445D01*
X0057717Y0105047D01*
X0057717Y0102451D01*
X0058710Y0100052D01*
X0060546Y0098217D01*
X0059633Y0099129D02*
X0030089Y0099129D01*
X0030089Y0100427D02*
X0058555Y0100427D01*
X0058017Y0101725D02*
X0030089Y0101725D01*
X0030089Y0103022D02*
X0057717Y0103022D01*
X0057717Y0104320D02*
X0030089Y0104320D01*
X0030089Y0105618D02*
X0057953Y0105618D01*
X0058491Y0106916D02*
X0030089Y0106916D01*
X0030089Y0108213D02*
X0059478Y0108213D01*
X0061101Y0109511D02*
X0030089Y0109511D01*
X0030089Y0110809D02*
X0119509Y0110809D01*
X0119601Y0110717D02*
X0121999Y0109723D01*
X0124595Y0109723D01*
X0126994Y0110717D01*
X0128829Y0112552D01*
X0129823Y0114951D01*
X0129823Y0117547D01*
X0128829Y0119945D01*
X0126994Y0121781D01*
X0124595Y0122774D01*
X0121999Y0122774D01*
X0119601Y0121781D01*
X0117765Y0119945D01*
X0116772Y0117547D01*
X0116772Y0114951D01*
X0117765Y0112552D01*
X0119601Y0110717D01*
X0118211Y0112107D02*
X0030089Y0112107D01*
X0030089Y0113404D02*
X0117412Y0113404D01*
X0116875Y0114702D02*
X0030089Y0114702D01*
X0030089Y0116000D02*
X0116772Y0116000D01*
X0116772Y0117297D02*
X0030089Y0117297D01*
X0030089Y0118595D02*
X0117206Y0118595D01*
X0117743Y0119893D02*
X0046645Y0119893D01*
X0045855Y0119566D02*
X0048254Y0120559D01*
X0050089Y0122395D01*
X0051083Y0124793D01*
X0051083Y0127389D01*
X0050089Y0129788D01*
X0048254Y0131623D01*
X0045855Y0132617D01*
X0043259Y0132617D01*
X0040861Y0131623D01*
X0039025Y0129788D01*
X0038031Y0127389D01*
X0038031Y0124793D01*
X0039025Y0122395D01*
X0040861Y0120559D01*
X0043259Y0119566D01*
X0045855Y0119566D01*
X0042469Y0119893D02*
X0030089Y0119893D01*
X0030089Y0121191D02*
X0040229Y0121191D01*
X0038986Y0122488D02*
X0030089Y0122488D01*
X0030089Y0123786D02*
X0038449Y0123786D01*
X0038031Y0125084D02*
X0030089Y0125084D01*
X0030089Y0126381D02*
X0038031Y0126381D01*
X0038152Y0127679D02*
X0030089Y0127679D01*
X0030089Y0128977D02*
X0038689Y0128977D01*
X0039512Y0130275D02*
X0030089Y0130275D01*
X0030089Y0131572D02*
X0040810Y0131572D01*
X0048305Y0131572D02*
X0120576Y0131572D01*
X0119601Y0131977D02*
X0121999Y0130983D01*
X0124595Y0130983D01*
X0126994Y0131977D01*
X0128829Y0133812D01*
X0129823Y0136211D01*
X0129823Y0138807D01*
X0128829Y0141205D01*
X0126994Y0143041D01*
X0124595Y0144034D01*
X0121999Y0144034D01*
X0119601Y0143041D01*
X0117765Y0141205D01*
X0116772Y0138807D01*
X0116772Y0136211D01*
X0117765Y0133812D01*
X0119601Y0131977D01*
X0118707Y0132870D02*
X0030089Y0132870D01*
X0030089Y0134168D02*
X0117618Y0134168D01*
X0117080Y0135466D02*
X0030089Y0135466D01*
X0030089Y0136763D02*
X0116772Y0136763D01*
X0116772Y0138061D02*
X0030089Y0138061D01*
X0030089Y0139359D02*
X0117000Y0139359D01*
X0117538Y0140656D02*
X0030089Y0140656D01*
X0030089Y0141954D02*
X0118514Y0141954D01*
X0120110Y0143252D02*
X0030089Y0143252D01*
X0046599Y0153634D02*
X0081885Y0153634D01*
X0082629Y0153326D02*
X0085225Y0153326D01*
X0087624Y0154319D01*
X0089459Y0156155D01*
X0090453Y0158553D01*
X0090453Y0161149D01*
X0089459Y0163548D01*
X0087624Y0165383D01*
X0085225Y0166377D01*
X0082629Y0166377D01*
X0080231Y0165383D01*
X0078395Y0163548D01*
X0077402Y0161149D01*
X0077402Y0158553D01*
X0078395Y0156155D01*
X0080231Y0154319D01*
X0082629Y0153326D01*
X0085969Y0153634D02*
X0121255Y0153634D01*
X0121999Y0153326D02*
X0124595Y0153326D01*
X0126994Y0154319D01*
X0128829Y0156155D01*
X0128990Y0156543D01*
X0129072Y0156344D01*
X0130814Y0154603D01*
X0133089Y0153660D01*
X0135552Y0153660D01*
X0137828Y0154603D01*
X0139569Y0156344D01*
X0140512Y0158620D01*
X0140512Y0161083D01*
X0139569Y0163358D01*
X0137828Y0165100D01*
X0135552Y0166042D01*
X0133089Y0166042D01*
X0130814Y0165100D01*
X0129072Y0163358D01*
X0128990Y0163159D01*
X0128829Y0163548D01*
X0126994Y0165383D01*
X0124595Y0166377D01*
X0121999Y0166377D01*
X0119601Y0165383D01*
X0117765Y0163548D01*
X0116772Y0161149D01*
X0116772Y0158553D01*
X0117765Y0156155D01*
X0119601Y0154319D01*
X0121999Y0153326D01*
X0125339Y0153634D02*
X0161503Y0153634D01*
X0158832Y0154931D02*
X0156660Y0154931D01*
X0148989Y0154931D02*
X0138156Y0154931D01*
X0139454Y0156229D02*
X0147692Y0156229D01*
X0147087Y0157527D02*
X0140059Y0157527D01*
X0140512Y0158825D02*
X0146634Y0158825D01*
X0146634Y0160122D02*
X0140512Y0160122D01*
X0140372Y0161420D02*
X0146774Y0161420D01*
X0147311Y0162718D02*
X0139835Y0162718D01*
X0138912Y0164015D02*
X0148234Y0164015D01*
X0149834Y0165313D02*
X0137312Y0165313D01*
X0131330Y0165313D02*
X0127064Y0165313D01*
X0128362Y0164015D02*
X0129730Y0164015D01*
X0129188Y0156229D02*
X0128860Y0156229D01*
X0127606Y0154931D02*
X0130485Y0154931D01*
X0119531Y0165313D02*
X0087694Y0165313D01*
X0088991Y0164015D02*
X0118233Y0164015D01*
X0117421Y0162718D02*
X0089803Y0162718D01*
X0090341Y0161420D02*
X0116884Y0161420D01*
X0116772Y0160122D02*
X0090453Y0160122D01*
X0090453Y0158825D02*
X0116772Y0158825D01*
X0117197Y0157527D02*
X0090028Y0157527D01*
X0089490Y0156229D02*
X0117734Y0156229D01*
X0118988Y0154931D02*
X0088236Y0154931D01*
X0079618Y0154931D02*
X0048866Y0154931D01*
X0050120Y0156229D02*
X0078364Y0156229D01*
X0077827Y0157527D02*
X0050658Y0157527D01*
X0051083Y0158825D02*
X0077402Y0158825D01*
X0077402Y0160122D02*
X0051083Y0160122D01*
X0050970Y0161420D02*
X0077514Y0161420D01*
X0078051Y0162718D02*
X0050433Y0162718D01*
X0049621Y0164015D02*
X0078863Y0164015D01*
X0080161Y0165313D02*
X0048324Y0165313D01*
X0030089Y0175695D02*
X0236883Y0175695D01*
X0243285Y0170504D02*
X0246903Y0170504D01*
X0245394Y0169206D02*
X0242253Y0169206D01*
X0242584Y0165313D02*
X0244995Y0165313D01*
X0245772Y0164015D02*
X0243788Y0164015D01*
X0244326Y0162718D02*
X0247816Y0162718D01*
X0250019Y0162718D02*
X0252816Y0162718D01*
X0255019Y0162718D02*
X0257816Y0162718D01*
X0251310Y0160122D02*
X0244011Y0160122D01*
X0244360Y0161420D02*
X0281152Y0161420D01*
X0269917Y0156229D02*
X0263110Y0156229D01*
X0262682Y0154931D02*
X0268908Y0154931D01*
X0268474Y0153634D02*
X0261681Y0153634D01*
X0259757Y0149741D02*
X0270047Y0149741D01*
X0268962Y0151038D02*
X0251585Y0151038D01*
X0252642Y0152336D02*
X0268474Y0152336D01*
X0258078Y0149741D02*
X0248110Y0149741D01*
X0247583Y0148443D02*
X0255880Y0148443D01*
X0255040Y0147145D02*
X0246442Y0147145D01*
X0241393Y0147145D02*
X0240192Y0147145D01*
X0235143Y0147145D02*
X0226442Y0147145D01*
X0227583Y0148443D02*
X0234002Y0148443D01*
X0233474Y0149741D02*
X0228110Y0149741D01*
X0232835Y0151038D02*
X0233474Y0151038D01*
X0234360Y0153634D02*
X0234821Y0153634D01*
X0234360Y0154931D02*
X0244724Y0154931D01*
X0245178Y0156229D02*
X0233907Y0156229D01*
X0232870Y0157527D02*
X0246215Y0157527D01*
X0243122Y0158825D02*
X0250218Y0158825D01*
X0241071Y0153634D02*
X0240513Y0153634D01*
X0250931Y0170504D02*
X0251903Y0170504D01*
X0255931Y0170504D02*
X0256903Y0170504D01*
X0254817Y0176993D02*
X0165549Y0176993D01*
X0167725Y0178290D02*
X0254724Y0178290D01*
X0255016Y0179588D02*
X0168923Y0179588D01*
X0169461Y0180886D02*
X0255824Y0180886D01*
X0248759Y0184779D02*
X0239076Y0184779D01*
X0238792Y0184495D02*
X0239972Y0185675D01*
X0240610Y0187216D01*
X0240610Y0188884D01*
X0239972Y0190425D01*
X0238792Y0191605D01*
X0237251Y0192243D01*
X0235583Y0192243D01*
X0234042Y0191605D01*
X0232863Y0190425D01*
X0232224Y0188884D01*
X0232224Y0187216D01*
X0232863Y0185675D01*
X0234042Y0184495D01*
X0235583Y0183857D01*
X0237251Y0183857D01*
X0238792Y0184495D01*
X0240138Y0186077D02*
X0247696Y0186077D01*
X0247224Y0187375D02*
X0240610Y0187375D01*
X0240610Y0188672D02*
X0247224Y0188672D01*
X0247674Y0189970D02*
X0240160Y0189970D01*
X0239129Y0191268D02*
X0248705Y0191268D01*
X0233705Y0191268D02*
X0169148Y0191268D01*
X0168421Y0189970D02*
X0232674Y0189970D01*
X0232224Y0188672D02*
X0166948Y0188672D01*
X0168160Y0187375D02*
X0232224Y0187375D01*
X0232696Y0186077D02*
X0169104Y0186077D01*
X0169641Y0184779D02*
X0233759Y0184779D01*
X0218282Y0205543D02*
X0169325Y0205543D01*
X0169829Y0204245D02*
X0209381Y0204245D01*
X0207885Y0202947D02*
X0169829Y0202947D01*
X0169777Y0201649D02*
X0207334Y0201649D01*
X0207224Y0200352D02*
X0169240Y0200352D01*
X0168489Y0199054D02*
X0207499Y0199054D01*
X0208281Y0197756D02*
X0167191Y0197756D01*
X0160685Y0196459D02*
X0135756Y0196459D01*
X0136222Y0196925D02*
X0136860Y0198466D01*
X0136860Y0200134D01*
X0136222Y0201675D01*
X0135042Y0202855D01*
X0133501Y0203493D01*
X0131833Y0203493D01*
X0130292Y0202855D01*
X0129113Y0201675D01*
X0128474Y0200134D01*
X0128474Y0198466D01*
X0129113Y0196925D01*
X0130292Y0195745D01*
X0131833Y0195107D01*
X0133501Y0195107D01*
X0135042Y0195745D01*
X0136222Y0196925D01*
X0136566Y0197756D02*
X0159643Y0197756D01*
X0158346Y0199054D02*
X0136860Y0199054D01*
X0136770Y0200352D02*
X0157595Y0200352D01*
X0157057Y0201649D02*
X0136232Y0201649D01*
X0134819Y0202947D02*
X0157006Y0202947D01*
X0157006Y0204245D02*
X0143188Y0204245D01*
X0143792Y0204495D02*
X0144972Y0205675D01*
X0145610Y0207216D01*
X0145610Y0208884D01*
X0144972Y0210425D01*
X0143792Y0211605D01*
X0142251Y0212243D01*
X0140583Y0212243D01*
X0139042Y0211605D01*
X0137863Y0210425D01*
X0137224Y0208884D01*
X0137224Y0207216D01*
X0137863Y0205675D01*
X0139042Y0204495D01*
X0140583Y0203857D01*
X0142251Y0203857D01*
X0143792Y0204495D01*
X0144840Y0205543D02*
X0157510Y0205543D01*
X0158140Y0206840D02*
X0145455Y0206840D01*
X0145610Y0208138D02*
X0159438Y0208138D01*
X0160913Y0209436D02*
X0145382Y0209436D01*
X0144663Y0210734D02*
X0159928Y0210734D01*
X0159391Y0212031D02*
X0142762Y0212031D01*
X0140072Y0212031D02*
X0125262Y0212031D01*
X0124751Y0212243D02*
X0123083Y0212243D01*
X0121542Y0211605D01*
X0120363Y0210425D01*
X0119724Y0208884D01*
X0119724Y0207216D01*
X0120363Y0205675D01*
X0121542Y0204495D01*
X0123083Y0203857D01*
X0124751Y0203857D01*
X0126292Y0204495D01*
X0127472Y0205675D01*
X0128110Y0207216D01*
X0128110Y0208884D01*
X0127472Y0210425D01*
X0126292Y0211605D01*
X0124751Y0212243D01*
X0122572Y0212031D02*
X0072762Y0212031D01*
X0072251Y0212243D02*
X0070583Y0212243D01*
X0069042Y0211605D01*
X0067863Y0210425D01*
X0067224Y0208884D01*
X0067224Y0207216D01*
X0067863Y0205675D01*
X0069042Y0204495D01*
X0070583Y0203857D01*
X0072251Y0203857D01*
X0073792Y0204495D01*
X0074972Y0205675D01*
X0075610Y0207216D01*
X0075610Y0208884D01*
X0074972Y0210425D01*
X0073792Y0211605D01*
X0072251Y0212243D01*
X0070072Y0212031D02*
X0030089Y0212031D01*
X0030089Y0210734D02*
X0068171Y0210734D01*
X0067453Y0209436D02*
X0030089Y0209436D01*
X0030089Y0208138D02*
X0067224Y0208138D01*
X0067380Y0206840D02*
X0030089Y0206840D01*
X0030089Y0205543D02*
X0067995Y0205543D01*
X0069647Y0204245D02*
X0030089Y0204245D01*
X0030089Y0202947D02*
X0130516Y0202947D01*
X0129102Y0201649D02*
X0030089Y0201649D01*
X0030089Y0200352D02*
X0128565Y0200352D01*
X0128474Y0199054D02*
X0030089Y0199054D01*
X0030089Y0197756D02*
X0128768Y0197756D01*
X0129579Y0196459D02*
X0030089Y0196459D01*
X0030089Y0195161D02*
X0131703Y0195161D01*
X0133631Y0195161D02*
X0159826Y0195161D01*
X0159434Y0193863D02*
X0030089Y0193863D01*
X0030089Y0192565D02*
X0159382Y0192565D01*
X0159687Y0191268D02*
X0030089Y0191268D01*
X0030089Y0189970D02*
X0160413Y0189970D01*
X0160236Y0188672D02*
X0030089Y0188672D01*
X0030089Y0187375D02*
X0158674Y0187375D01*
X0157731Y0186077D02*
X0030089Y0186077D01*
X0030089Y0184779D02*
X0157193Y0184779D01*
X0157006Y0183481D02*
X0030089Y0183481D01*
X0030089Y0182184D02*
X0157006Y0182184D01*
X0157374Y0180886D02*
X0030089Y0180886D01*
X0030089Y0179588D02*
X0157911Y0179588D01*
X0159109Y0178290D02*
X0030089Y0178290D01*
X0030089Y0176993D02*
X0161286Y0176993D01*
X0159676Y0165313D02*
X0155816Y0165313D01*
X0157416Y0164015D02*
X0158076Y0164015D01*
X0131472Y0143252D02*
X0126484Y0143252D01*
X0128080Y0141954D02*
X0131102Y0141954D01*
X0131344Y0140656D02*
X0129057Y0140656D01*
X0129594Y0139359D02*
X0132455Y0139359D01*
X0131393Y0138061D02*
X0129823Y0138061D01*
X0129823Y0136763D02*
X0131102Y0136763D01*
X0131423Y0135466D02*
X0129514Y0135466D01*
X0128977Y0134168D02*
X0132916Y0134168D01*
X0133573Y0131686D02*
X0132781Y0130895D01*
X0132352Y0129860D01*
X0132352Y0128740D01*
X0132781Y0127705D01*
X0133573Y0126914D01*
X0134607Y0126485D01*
X0135727Y0126485D01*
X0136762Y0126914D01*
X0137554Y0127705D01*
X0137982Y0128740D01*
X0137982Y0129860D01*
X0137554Y0130895D01*
X0136762Y0131686D01*
X0135727Y0132115D01*
X0134607Y0132115D01*
X0133573Y0131686D01*
X0133459Y0131572D02*
X0126018Y0131572D01*
X0127887Y0132870D02*
X0139756Y0132870D01*
X0138794Y0131572D02*
X0136876Y0131572D01*
X0137810Y0130275D02*
X0138602Y0130275D01*
X0139022Y0128977D02*
X0137982Y0128977D01*
X0137527Y0127679D02*
X0169852Y0127679D01*
X0170355Y0126381D02*
X0051083Y0126381D01*
X0051083Y0125084D02*
X0139470Y0125084D01*
X0139823Y0125436D02*
X0139031Y0124645D01*
X0138602Y0123610D01*
X0138602Y0122490D01*
X0139031Y0121455D01*
X0139587Y0120899D01*
X0139113Y0120425D01*
X0138474Y0118884D01*
X0138474Y0117216D01*
X0139113Y0115675D01*
X0140292Y0114495D01*
X0141833Y0113857D01*
X0143501Y0113857D01*
X0145042Y0114495D01*
X0146222Y0115675D01*
X0146860Y0117216D01*
X0146860Y0118884D01*
X0146222Y0120425D01*
X0145042Y0121605D01*
X0144038Y0122021D01*
X0144232Y0122490D01*
X0144232Y0123610D01*
X0143804Y0124645D01*
X0143012Y0125436D01*
X0141977Y0125865D01*
X0140857Y0125865D01*
X0139823Y0125436D01*
X0138675Y0123786D02*
X0050665Y0123786D01*
X0050128Y0122488D02*
X0121309Y0122488D01*
X0119010Y0121191D02*
X0048885Y0121191D01*
X0050963Y0127679D02*
X0132807Y0127679D01*
X0132352Y0128977D02*
X0050425Y0128977D01*
X0049602Y0130275D02*
X0132524Y0130275D01*
X0138603Y0122488D02*
X0125286Y0122488D01*
X0127584Y0121191D02*
X0139296Y0121191D01*
X0138892Y0119893D02*
X0128851Y0119893D01*
X0129389Y0118595D02*
X0138474Y0118595D01*
X0138474Y0117297D02*
X0129823Y0117297D01*
X0129823Y0116000D02*
X0138978Y0116000D01*
X0140086Y0114702D02*
X0129720Y0114702D01*
X0129182Y0113404D02*
X0160738Y0113404D01*
X0160738Y0113991D02*
X0160738Y0111814D01*
X0161571Y0109802D01*
X0163111Y0108263D01*
X0165122Y0107430D01*
X0167299Y0107430D01*
X0167532Y0107526D01*
X0167261Y0107256D01*
X0166319Y0104980D01*
X0166319Y0102517D01*
X0167261Y0100242D01*
X0169003Y0098500D01*
X0171278Y0097558D01*
X0173741Y0097558D01*
X0176017Y0098500D01*
X0177194Y0099678D01*
X0178656Y0098217D01*
X0181054Y0097223D01*
X0183650Y0097223D01*
X0186049Y0098217D01*
X0187884Y0100052D01*
X0188878Y0102451D01*
X0188878Y0105047D01*
X0187940Y0107312D01*
X0189389Y0106711D01*
X0191852Y0106711D01*
X0194127Y0107654D01*
X0195869Y0109395D01*
X0196811Y0111671D01*
X0196811Y0111727D01*
X0197792Y0110745D01*
X0199333Y0110107D01*
X0201001Y0110107D01*
X0202542Y0110745D01*
X0203722Y0111925D01*
X0204360Y0113466D01*
X0204360Y0115134D01*
X0203722Y0116675D01*
X0202542Y0117855D01*
X0201001Y0118493D01*
X0199333Y0118493D01*
X0197792Y0117855D01*
X0196613Y0116675D01*
X0196186Y0115644D01*
X0195869Y0116409D01*
X0194127Y0118151D01*
X0191852Y0119093D01*
X0189389Y0119093D01*
X0187113Y0118151D01*
X0185372Y0116409D01*
X0184429Y0114134D01*
X0184429Y0111671D01*
X0185289Y0109596D01*
X0183650Y0110274D01*
X0181054Y0110274D01*
X0178656Y0109281D01*
X0177194Y0107819D01*
X0176017Y0108997D01*
X0173741Y0109940D01*
X0171278Y0109940D01*
X0170781Y0109734D01*
X0170850Y0109802D01*
X0171683Y0111814D01*
X0171683Y0113991D01*
X0170850Y0116002D01*
X0169311Y0117542D01*
X0167299Y0118375D01*
X0165122Y0118375D01*
X0163111Y0117542D01*
X0161571Y0116002D01*
X0160738Y0113991D01*
X0161033Y0114702D02*
X0145249Y0114702D01*
X0146356Y0116000D02*
X0161570Y0116000D01*
X0162867Y0117297D02*
X0146860Y0117297D01*
X0146860Y0118595D02*
X0153692Y0118595D01*
X0152669Y0119893D02*
X0146442Y0119893D01*
X0145456Y0121191D02*
X0152224Y0121191D01*
X0152224Y0122488D02*
X0144232Y0122488D01*
X0144159Y0123786D02*
X0152702Y0123786D01*
X0153771Y0125084D02*
X0143364Y0125084D01*
X0159142Y0118595D02*
X0171599Y0118595D01*
X0171599Y0117841D02*
X0172238Y0116300D01*
X0173417Y0115120D01*
X0174958Y0114482D01*
X0176626Y0114482D01*
X0178167Y0115120D01*
X0179347Y0116300D01*
X0179985Y0117841D01*
X0179985Y0119509D01*
X0179347Y0121050D01*
X0178167Y0122230D01*
X0176626Y0122868D01*
X0174958Y0122868D01*
X0173417Y0122230D01*
X0172238Y0121050D01*
X0171599Y0119509D01*
X0171599Y0117841D01*
X0171825Y0117297D02*
X0169555Y0117297D01*
X0170851Y0116000D02*
X0172538Y0116000D01*
X0171389Y0114702D02*
X0174427Y0114702D01*
X0177157Y0114702D02*
X0184664Y0114702D01*
X0184429Y0113404D02*
X0171683Y0113404D01*
X0171683Y0112107D02*
X0184429Y0112107D01*
X0184786Y0110809D02*
X0171267Y0110809D01*
X0174776Y0109511D02*
X0179212Y0109511D01*
X0177588Y0108213D02*
X0176801Y0108213D01*
X0179047Y0116000D02*
X0185202Y0116000D01*
X0186260Y0117297D02*
X0179760Y0117297D01*
X0179985Y0118595D02*
X0188186Y0118595D01*
X0193054Y0118595D02*
X0213474Y0118595D01*
X0213474Y0119893D02*
X0179826Y0119893D01*
X0179206Y0121191D02*
X0213912Y0121191D01*
X0214926Y0122488D02*
X0177543Y0122488D01*
X0174042Y0122488D02*
X0160610Y0122488D01*
X0160610Y0121191D02*
X0172378Y0121191D01*
X0171758Y0119893D02*
X0160166Y0119893D01*
X0160738Y0112107D02*
X0128384Y0112107D01*
X0127086Y0110809D02*
X0161154Y0110809D01*
X0161863Y0109511D02*
X0155091Y0109511D01*
X0154056Y0109940D02*
X0156332Y0108997D01*
X0158073Y0107256D01*
X0159016Y0104980D01*
X0159016Y0102517D01*
X0158073Y0100242D01*
X0156332Y0098500D01*
X0154056Y0097558D01*
X0151593Y0097558D01*
X0149318Y0098500D01*
X0148140Y0099678D01*
X0146679Y0098217D01*
X0144280Y0097223D01*
X0141684Y0097223D01*
X0139286Y0098217D01*
X0138415Y0099088D01*
X0137828Y0098500D01*
X0135552Y0097558D01*
X0133089Y0097558D01*
X0130814Y0098500D01*
X0129072Y0100242D01*
X0128130Y0102517D01*
X0128130Y0104980D01*
X0129072Y0107256D01*
X0130814Y0108997D01*
X0133089Y0109940D01*
X0135552Y0109940D01*
X0137828Y0108997D01*
X0138415Y0108410D01*
X0139286Y0109281D01*
X0141684Y0110274D01*
X0144280Y0110274D01*
X0146679Y0109281D01*
X0148140Y0107819D01*
X0149318Y0108997D01*
X0151593Y0109940D01*
X0154056Y0109940D01*
X0157116Y0108213D02*
X0163231Y0108213D01*
X0167121Y0106916D02*
X0158214Y0106916D01*
X0158752Y0105618D02*
X0166583Y0105618D01*
X0166319Y0104320D02*
X0159016Y0104320D01*
X0159016Y0103022D02*
X0166319Y0103022D01*
X0166647Y0101725D02*
X0158687Y0101725D01*
X0158150Y0100427D02*
X0167185Y0100427D01*
X0168374Y0099129D02*
X0156961Y0099129D01*
X0154717Y0097832D02*
X0159871Y0097832D01*
X0161714Y0097832D02*
X0170618Y0097832D01*
X0164684Y0095236D02*
X0186102Y0095236D01*
X0186102Y0094990D02*
X0186531Y0093955D01*
X0187323Y0093164D01*
X0188357Y0092735D01*
X0189477Y0092735D01*
X0190512Y0093164D01*
X0191304Y0093955D01*
X0191732Y0094990D01*
X0191732Y0096110D01*
X0191304Y0097145D01*
X0190512Y0097936D01*
X0189477Y0098365D01*
X0188357Y0098365D01*
X0187323Y0097936D01*
X0186531Y0097145D01*
X0186102Y0096110D01*
X0186102Y0094990D01*
X0186548Y0093938D02*
X0164985Y0093938D01*
X0164902Y0092641D02*
X0203397Y0092641D01*
X0202546Y0093938D02*
X0191287Y0093938D01*
X0191732Y0095236D02*
X0202224Y0095236D01*
X0202286Y0096534D02*
X0191557Y0096534D01*
X0190617Y0097832D02*
X0194416Y0097832D01*
X0194958Y0097607D02*
X0196626Y0097607D01*
X0198167Y0098245D01*
X0199347Y0099425D01*
X0199985Y0100966D01*
X0199985Y0102634D01*
X0199347Y0104175D01*
X0198167Y0105355D01*
X0196626Y0105993D01*
X0194958Y0105993D01*
X0193417Y0105355D01*
X0192238Y0104175D01*
X0191599Y0102634D01*
X0191599Y0100966D01*
X0192238Y0099425D01*
X0193417Y0098245D01*
X0194958Y0097607D01*
X0197168Y0097832D02*
X0202824Y0097832D01*
X0204102Y0099129D02*
X0199051Y0099129D01*
X0199762Y0100427D02*
X0211096Y0100427D01*
X0210974Y0099129D02*
X0208733Y0099129D01*
X0210011Y0097832D02*
X0211237Y0097832D01*
X0210548Y0096534D02*
X0212004Y0096534D01*
X0211662Y0101725D02*
X0199985Y0101725D01*
X0199824Y0103022D02*
X0205830Y0103022D01*
X0205292Y0103245D02*
X0206833Y0102607D01*
X0208501Y0102607D01*
X0210042Y0103245D01*
X0211222Y0104425D01*
X0211860Y0105966D01*
X0211860Y0107634D01*
X0211222Y0109175D01*
X0210042Y0110355D01*
X0208501Y0110993D01*
X0206833Y0110993D01*
X0205292Y0110355D01*
X0204113Y0109175D01*
X0203474Y0107634D01*
X0203474Y0105966D01*
X0204113Y0104425D01*
X0205292Y0103245D01*
X0204217Y0104320D02*
X0199202Y0104320D01*
X0197532Y0105618D02*
X0203619Y0105618D01*
X0203474Y0106916D02*
X0192345Y0106916D01*
X0194053Y0105618D02*
X0188641Y0105618D01*
X0188878Y0104320D02*
X0192383Y0104320D01*
X0191760Y0103022D02*
X0188878Y0103022D01*
X0188577Y0101725D02*
X0191599Y0101725D01*
X0191823Y0100427D02*
X0188040Y0100427D01*
X0186961Y0099129D02*
X0192533Y0099129D01*
X0187218Y0097832D02*
X0185119Y0097832D01*
X0186278Y0096534D02*
X0163863Y0096534D01*
X0157722Y0096534D02*
X0130113Y0096534D01*
X0130934Y0095236D02*
X0156901Y0095236D01*
X0156599Y0093938D02*
X0131235Y0093938D01*
X0131152Y0092641D02*
X0156682Y0092641D01*
X0157220Y0091343D02*
X0147804Y0091343D01*
X0148879Y0090045D02*
X0158599Y0090045D01*
X0149360Y0088748D02*
X0209927Y0088748D01*
X0209724Y0087450D02*
X0149360Y0087450D01*
X0148920Y0086152D02*
X0209906Y0086152D01*
X0210558Y0084854D02*
X0147901Y0084854D01*
X0141455Y0090045D02*
X0129236Y0090045D01*
X0130615Y0091343D02*
X0142531Y0091343D01*
X0140216Y0097832D02*
X0136213Y0097832D01*
X0132429Y0097832D02*
X0127964Y0097832D01*
X0126121Y0097832D02*
X0106379Y0097832D01*
X0107309Y0098217D02*
X0104910Y0097223D01*
X0102314Y0097223D01*
X0099916Y0098217D01*
X0098080Y0100052D01*
X0097087Y0102451D01*
X0097087Y0105047D01*
X0098080Y0107445D01*
X0099916Y0109281D01*
X0102314Y0110274D01*
X0104910Y0110274D01*
X0107309Y0109281D01*
X0109144Y0107445D01*
X0110138Y0105047D01*
X0110138Y0102451D01*
X0109144Y0100052D01*
X0107309Y0098217D01*
X0108221Y0099129D02*
X0130185Y0099129D01*
X0128996Y0100427D02*
X0109300Y0100427D01*
X0109837Y0101725D02*
X0128458Y0101725D01*
X0128130Y0103022D02*
X0110138Y0103022D01*
X0110138Y0104320D02*
X0128130Y0104320D01*
X0128394Y0105618D02*
X0109901Y0105618D01*
X0109364Y0106916D02*
X0128932Y0106916D01*
X0130030Y0108213D02*
X0108376Y0108213D01*
X0106753Y0109511D02*
X0132055Y0109511D01*
X0136587Y0109511D02*
X0139841Y0109511D01*
X0146123Y0109511D02*
X0150558Y0109511D01*
X0148534Y0108213D02*
X0147746Y0108213D01*
X0147591Y0099129D02*
X0148689Y0099129D01*
X0150933Y0097832D02*
X0145749Y0097832D01*
X0162792Y0077855D02*
X0161613Y0076675D01*
X0160974Y0075134D01*
X0160974Y0073466D01*
X0161500Y0072196D01*
X0161169Y0072334D01*
X0159166Y0072334D01*
X0157316Y0071567D01*
X0155900Y0070151D01*
X0155133Y0068301D01*
X0155133Y0067465D01*
X0154435Y0069151D01*
X0153019Y0070567D01*
X0151169Y0071334D01*
X0149166Y0071334D01*
X0147316Y0070567D01*
X0146211Y0069463D01*
X0145603Y0070932D01*
X0143799Y0072736D01*
X0141443Y0073712D01*
X0138892Y0073712D01*
X0136535Y0072736D01*
X0134732Y0070932D01*
X0134123Y0069463D01*
X0133019Y0070567D01*
X0131169Y0071334D01*
X0129166Y0071334D01*
X0127316Y0070567D01*
X0125900Y0069151D01*
X0125201Y0067465D01*
X0125201Y0068301D01*
X0124435Y0070151D01*
X0123019Y0071567D01*
X0121169Y0072334D01*
X0119166Y0072334D01*
X0117316Y0071567D01*
X0115900Y0070151D01*
X0115133Y0068301D01*
X0115133Y0067465D01*
X0114435Y0069151D01*
X0113019Y0070567D01*
X0111169Y0071334D01*
X0109166Y0071334D01*
X0107316Y0070567D01*
X0106211Y0069463D01*
X0105603Y0070932D01*
X0103799Y0072736D01*
X0101443Y0073712D01*
X0098892Y0073712D01*
X0096535Y0072736D01*
X0094732Y0070932D01*
X0094123Y0069463D01*
X0093019Y0070567D01*
X0091169Y0071334D01*
X0089166Y0071334D01*
X0087316Y0070567D01*
X0085900Y0069151D01*
X0085133Y0067301D01*
X0085133Y0065299D01*
X0085900Y0063449D01*
X0087316Y0062033D01*
X0089166Y0061266D01*
X0091169Y0061266D01*
X0093019Y0062033D01*
X0094435Y0063449D01*
X0094629Y0063917D01*
X0094732Y0063668D01*
X0096535Y0061864D01*
X0098892Y0060888D01*
X0101443Y0060888D01*
X0103799Y0061864D01*
X0105603Y0063668D01*
X0105706Y0063917D01*
X0105900Y0063449D01*
X0107316Y0062033D01*
X0109166Y0061266D01*
X0111169Y0061266D01*
X0113019Y0062033D01*
X0114435Y0063449D01*
X0115201Y0065299D01*
X0115201Y0066135D01*
X0115900Y0064449D01*
X0117316Y0063033D01*
X0119166Y0062266D01*
X0121169Y0062266D01*
X0123019Y0063033D01*
X0124435Y0064449D01*
X0125133Y0066135D01*
X0125133Y0065299D01*
X0125900Y0063449D01*
X0127316Y0062033D01*
X0129166Y0061266D01*
X0131169Y0061266D01*
X0133019Y0062033D01*
X0134435Y0063449D01*
X0134629Y0063917D01*
X0134732Y0063668D01*
X0136535Y0061864D01*
X0138892Y0060888D01*
X0141443Y0060888D01*
X0143799Y0061864D01*
X0145603Y0063668D01*
X0145706Y0063917D01*
X0145900Y0063449D01*
X0147316Y0062033D01*
X0149166Y0061266D01*
X0151169Y0061266D01*
X0153019Y0062033D01*
X0154435Y0063449D01*
X0155201Y0065299D01*
X0155201Y0066135D01*
X0155900Y0064449D01*
X0157316Y0063033D01*
X0159166Y0062266D01*
X0161169Y0062266D01*
X0163019Y0063033D01*
X0164435Y0064449D01*
X0165133Y0066135D01*
X0165133Y0065299D01*
X0165900Y0063449D01*
X0167316Y0062033D01*
X0169166Y0061266D01*
X0171169Y0061266D01*
X0173019Y0062033D01*
X0174435Y0063449D01*
X0175201Y0065299D01*
X0175201Y0066376D01*
X0175242Y0066118D01*
X0175488Y0065362D01*
X0175849Y0064653D01*
X0176316Y0064010D01*
X0176878Y0063448D01*
X0177521Y0062981D01*
X0178229Y0062620D01*
X0178985Y0062375D01*
X0179770Y0062250D01*
X0179817Y0062250D01*
X0179817Y0066950D01*
X0175201Y0066950D01*
X0175201Y0067301D01*
X0174435Y0069151D01*
X0173019Y0070567D01*
X0171169Y0071334D01*
X0169166Y0071334D01*
X0167316Y0070567D01*
X0165900Y0069151D01*
X0165201Y0067465D01*
X0165201Y0068301D01*
X0164453Y0070107D01*
X0166001Y0070107D01*
X0167542Y0070745D01*
X0168722Y0071925D01*
X0169360Y0073466D01*
X0169360Y0075134D01*
X0168722Y0076675D01*
X0167542Y0077855D01*
X0166001Y0078493D01*
X0164333Y0078493D01*
X0162792Y0077855D01*
X0162006Y0077068D02*
X0086557Y0077068D01*
X0086732Y0077490D02*
X0086304Y0076455D01*
X0085512Y0075664D01*
X0084477Y0075235D01*
X0083357Y0075235D01*
X0082323Y0075664D01*
X0081531Y0076455D01*
X0081102Y0077490D01*
X0081102Y0078610D01*
X0081531Y0079645D01*
X0082323Y0080436D01*
X0083357Y0080865D01*
X0084477Y0080865D01*
X0085512Y0080436D01*
X0086304Y0079645D01*
X0086732Y0078610D01*
X0086732Y0077490D01*
X0086732Y0078366D02*
X0164026Y0078366D01*
X0166308Y0078366D02*
X0174026Y0078366D01*
X0174333Y0078493D02*
X0172792Y0077855D01*
X0171613Y0076675D01*
X0170974Y0075134D01*
X0170974Y0073466D01*
X0171613Y0071925D01*
X0172792Y0070745D01*
X0174333Y0070107D01*
X0175965Y0070107D01*
X0175849Y0069947D01*
X0175488Y0069238D01*
X0175242Y0068482D01*
X0175118Y0067697D01*
X0175118Y0067650D01*
X0179817Y0067650D01*
X0179817Y0066950D01*
X0180518Y0066950D01*
X0180518Y0067650D01*
X0185217Y0067650D01*
X0185217Y0067697D01*
X0185093Y0068482D01*
X0184847Y0069238D01*
X0184486Y0069947D01*
X0184019Y0070590D01*
X0183457Y0071152D01*
X0182814Y0071619D01*
X0182106Y0071980D01*
X0181350Y0072225D01*
X0180565Y0072350D01*
X0180518Y0072350D01*
X0180518Y0067650D01*
X0179817Y0067650D01*
X0179817Y0072350D01*
X0179770Y0072350D01*
X0178985Y0072225D01*
X0178825Y0072173D01*
X0179360Y0073466D01*
X0179360Y0075134D01*
X0178722Y0076675D01*
X0177542Y0077855D01*
X0176001Y0078493D01*
X0174333Y0078493D01*
X0176308Y0078366D02*
X0281152Y0078366D01*
X0281152Y0079663D02*
X0086285Y0079663D01*
X0081550Y0079663D02*
X0030089Y0079663D01*
X0030089Y0078366D02*
X0081102Y0078366D01*
X0081277Y0077068D02*
X0030089Y0077068D01*
X0030089Y0075770D02*
X0082216Y0075770D01*
X0085619Y0075770D02*
X0161238Y0075770D01*
X0160974Y0074473D02*
X0030089Y0074473D01*
X0030089Y0073175D02*
X0097596Y0073175D01*
X0095677Y0071877D02*
X0030089Y0071877D01*
X0030089Y0070579D02*
X0087345Y0070579D01*
X0086030Y0069282D02*
X0030089Y0069282D01*
X0030089Y0067984D02*
X0085416Y0067984D01*
X0085133Y0066686D02*
X0030089Y0066686D01*
X0030089Y0065388D02*
X0085133Y0065388D01*
X0085634Y0064091D02*
X0030089Y0064091D01*
X0030089Y0062793D02*
X0086555Y0062793D01*
X0088613Y0061495D02*
X0030089Y0061495D01*
X0030089Y0060198D02*
X0281152Y0060198D01*
X0281152Y0061495D02*
X0171722Y0061495D01*
X0173779Y0062793D02*
X0177890Y0062793D01*
X0179817Y0062793D02*
X0180518Y0062793D01*
X0180518Y0062250D02*
X0180565Y0062250D01*
X0181350Y0062375D01*
X0182106Y0062620D01*
X0182814Y0062981D01*
X0183457Y0063448D01*
X0184019Y0064010D01*
X0184486Y0064653D01*
X0184847Y0065362D01*
X0185093Y0066118D01*
X0185217Y0066903D01*
X0185217Y0066950D01*
X0180518Y0066950D01*
X0180518Y0062250D01*
X0180518Y0064091D02*
X0179817Y0064091D01*
X0179817Y0065388D02*
X0180518Y0065388D01*
X0180518Y0066686D02*
X0179817Y0066686D01*
X0179817Y0067984D02*
X0180518Y0067984D01*
X0180518Y0069282D02*
X0179817Y0069282D01*
X0179817Y0070579D02*
X0180518Y0070579D01*
X0180518Y0071877D02*
X0179817Y0071877D01*
X0179240Y0073175D02*
X0281152Y0073175D01*
X0281152Y0074473D02*
X0179360Y0074473D01*
X0179097Y0075770D02*
X0281152Y0075770D01*
X0281152Y0077068D02*
X0178329Y0077068D01*
X0172006Y0077068D02*
X0168329Y0077068D01*
X0169097Y0075770D02*
X0171238Y0075770D01*
X0170974Y0074473D02*
X0169360Y0074473D01*
X0169240Y0073175D02*
X0171095Y0073175D01*
X0171661Y0071877D02*
X0168674Y0071877D01*
X0167345Y0070579D02*
X0167142Y0070579D01*
X0166030Y0069282D02*
X0164795Y0069282D01*
X0165201Y0067984D02*
X0165416Y0067984D01*
X0165133Y0065388D02*
X0164824Y0065388D01*
X0164077Y0064091D02*
X0165634Y0064091D01*
X0166555Y0062793D02*
X0162441Y0062793D01*
X0157894Y0062793D02*
X0153779Y0062793D01*
X0154701Y0064091D02*
X0156258Y0064091D01*
X0155510Y0065388D02*
X0155201Y0065388D01*
X0155133Y0067984D02*
X0154918Y0067984D01*
X0154305Y0069282D02*
X0155540Y0069282D01*
X0156328Y0070579D02*
X0152990Y0070579D01*
X0158063Y0071877D02*
X0144658Y0071877D01*
X0145749Y0070579D02*
X0147345Y0070579D01*
X0142739Y0073175D02*
X0161095Y0073175D01*
X0172990Y0070579D02*
X0173193Y0070579D01*
X0174305Y0069282D02*
X0175510Y0069282D01*
X0175163Y0067984D02*
X0174918Y0067984D01*
X0175201Y0065388D02*
X0175479Y0065388D01*
X0174701Y0064091D02*
X0176257Y0064091D01*
X0182445Y0062793D02*
X0281152Y0062793D01*
X0281152Y0064091D02*
X0184077Y0064091D01*
X0184856Y0065388D02*
X0281152Y0065388D01*
X0281152Y0066686D02*
X0185183Y0066686D01*
X0185172Y0067984D02*
X0281152Y0067984D01*
X0281152Y0069282D02*
X0184825Y0069282D01*
X0184026Y0070579D02*
X0281152Y0070579D01*
X0281152Y0071877D02*
X0182307Y0071877D01*
X0168613Y0061495D02*
X0151722Y0061495D01*
X0148613Y0061495D02*
X0142908Y0061495D01*
X0144728Y0062793D02*
X0146555Y0062793D01*
X0137426Y0061495D02*
X0131722Y0061495D01*
X0133779Y0062793D02*
X0135607Y0062793D01*
X0128613Y0061495D02*
X0111722Y0061495D01*
X0113779Y0062793D02*
X0117894Y0062793D01*
X0116258Y0064091D02*
X0114701Y0064091D01*
X0115201Y0065388D02*
X0115510Y0065388D01*
X0115133Y0067984D02*
X0114918Y0067984D01*
X0114305Y0069282D02*
X0115540Y0069282D01*
X0116328Y0070579D02*
X0112990Y0070579D01*
X0118063Y0071877D02*
X0104658Y0071877D01*
X0105749Y0070579D02*
X0107345Y0070579D01*
X0102739Y0073175D02*
X0137596Y0073175D01*
X0135677Y0071877D02*
X0122271Y0071877D01*
X0124007Y0070579D02*
X0127345Y0070579D01*
X0126030Y0069282D02*
X0124795Y0069282D01*
X0125201Y0067984D02*
X0125416Y0067984D01*
X0125133Y0065388D02*
X0124824Y0065388D01*
X0124077Y0064091D02*
X0125634Y0064091D01*
X0126555Y0062793D02*
X0122441Y0062793D01*
X0132990Y0070579D02*
X0134586Y0070579D01*
X0116231Y0083557D02*
X0107854Y0083557D01*
X0107542Y0083245D02*
X0108722Y0084425D01*
X0109360Y0085966D01*
X0109360Y0087634D01*
X0108722Y0089175D01*
X0107542Y0090355D01*
X0106001Y0090993D01*
X0104333Y0090993D01*
X0102792Y0090355D01*
X0101613Y0089175D01*
X0100974Y0087634D01*
X0100974Y0085966D01*
X0101613Y0084425D01*
X0102792Y0083245D01*
X0104333Y0082607D01*
X0106001Y0082607D01*
X0107542Y0083245D01*
X0108900Y0084854D02*
X0115185Y0084854D01*
X0114724Y0086152D02*
X0109360Y0086152D01*
X0109360Y0087450D02*
X0114724Y0087450D01*
X0115186Y0088748D02*
X0108899Y0088748D01*
X0107852Y0090045D02*
X0116233Y0090045D01*
X0102483Y0090045D02*
X0030089Y0090045D01*
X0030089Y0088748D02*
X0101436Y0088748D01*
X0100974Y0087450D02*
X0030089Y0087450D01*
X0030089Y0086152D02*
X0100974Y0086152D01*
X0101435Y0084854D02*
X0096094Y0084854D01*
X0096304Y0084645D02*
X0095512Y0085436D01*
X0094477Y0085865D01*
X0093357Y0085865D01*
X0092323Y0085436D01*
X0091531Y0084645D01*
X0091102Y0083610D01*
X0091102Y0082490D01*
X0091531Y0081455D01*
X0092323Y0080664D01*
X0093357Y0080235D01*
X0094477Y0080235D01*
X0095512Y0080664D01*
X0096304Y0081455D01*
X0096732Y0082490D01*
X0096732Y0083610D01*
X0096304Y0084645D01*
X0096732Y0083557D02*
X0102481Y0083557D01*
X0096637Y0082259D02*
X0281152Y0082259D01*
X0281152Y0080961D02*
X0095809Y0080961D01*
X0092025Y0080961D02*
X0058309Y0080961D01*
X0058012Y0080664D02*
X0058804Y0081455D01*
X0059232Y0082490D01*
X0059232Y0083610D01*
X0058804Y0084645D01*
X0058012Y0085436D01*
X0056977Y0085865D01*
X0055857Y0085865D01*
X0054823Y0085436D01*
X0054031Y0084645D01*
X0053602Y0083610D01*
X0053602Y0082490D01*
X0054031Y0081455D01*
X0054823Y0080664D01*
X0055857Y0080235D01*
X0056977Y0080235D01*
X0058012Y0080664D01*
X0059137Y0082259D02*
X0091198Y0082259D01*
X0091102Y0083557D02*
X0059232Y0083557D01*
X0058594Y0084854D02*
X0091741Y0084854D01*
X0092990Y0070579D02*
X0094586Y0070579D01*
X0093779Y0062793D02*
X0095607Y0062793D01*
X0097426Y0061495D02*
X0091722Y0061495D01*
X0102908Y0061495D02*
X0108613Y0061495D01*
X0106555Y0062793D02*
X0104728Y0062793D01*
X0100845Y0097832D02*
X0067009Y0097832D01*
X0068851Y0099129D02*
X0099003Y0099129D01*
X0097925Y0100427D02*
X0069929Y0100427D01*
X0070467Y0101725D02*
X0097387Y0101725D01*
X0097087Y0103022D02*
X0070768Y0103022D01*
X0070768Y0104320D02*
X0097087Y0104320D01*
X0097323Y0105618D02*
X0070531Y0105618D01*
X0069994Y0106916D02*
X0097861Y0106916D01*
X0098848Y0108213D02*
X0069006Y0108213D01*
X0067383Y0109511D02*
X0100471Y0109511D01*
X0054241Y0084854D02*
X0030089Y0084854D01*
X0030089Y0083557D02*
X0053602Y0083557D01*
X0053698Y0082259D02*
X0030089Y0082259D01*
X0030089Y0080961D02*
X0054525Y0080961D01*
X0030089Y0058900D02*
X0281152Y0058900D01*
X0281152Y0057602D02*
X0030089Y0057602D01*
X0030089Y0056304D02*
X0281152Y0056304D01*
X0281152Y0055007D02*
X0030089Y0055007D01*
X0030089Y0053709D02*
X0281152Y0053709D01*
X0281152Y0052411D02*
X0030089Y0052411D01*
X0030089Y0051114D02*
X0281152Y0051114D01*
X0281152Y0049816D02*
X0030089Y0049816D01*
X0030089Y0048518D02*
X0281152Y0048518D01*
X0281152Y0047220D02*
X0030089Y0047220D01*
X0030089Y0045923D02*
X0281152Y0045923D01*
X0281152Y0044625D02*
X0030089Y0044625D01*
X0030089Y0043327D02*
X0281152Y0043327D01*
X0281152Y0042029D02*
X0030089Y0042029D01*
X0030089Y0040732D02*
X0281152Y0040732D01*
X0281152Y0039434D02*
X0030089Y0039434D01*
X0030089Y0038136D02*
X0281152Y0038136D01*
X0281152Y0036839D02*
X0030089Y0036839D01*
X0030089Y0035541D02*
X0281152Y0035541D01*
X0281152Y0034243D02*
X0030089Y0034243D01*
X0030089Y0032945D02*
X0281152Y0032945D01*
X0281152Y0031648D02*
X0249223Y0031648D01*
X0248569Y0032025D02*
X0245692Y0032796D01*
X0242714Y0032796D01*
X0239837Y0032025D01*
X0237258Y0030536D01*
X0235152Y0028430D01*
X0233663Y0025851D01*
X0232892Y0022974D01*
X0232892Y0019996D01*
X0233663Y0017119D01*
X0235152Y0014540D01*
X0237258Y0012434D01*
X0239837Y0010945D01*
X0242714Y0010174D01*
X0245692Y0010174D01*
X0248569Y0010945D01*
X0251148Y0012434D01*
X0253254Y0014540D01*
X0254743Y0017119D01*
X0255514Y0019996D01*
X0255514Y0022974D01*
X0254743Y0025851D01*
X0253254Y0028430D01*
X0251148Y0030536D01*
X0248569Y0032025D01*
X0251334Y0030350D02*
X0281152Y0030350D01*
X0281152Y0029052D02*
X0252632Y0029052D01*
X0253644Y0027754D02*
X0281152Y0027754D01*
X0281152Y0026457D02*
X0254393Y0026457D01*
X0254928Y0025159D02*
X0281152Y0025159D01*
X0281152Y0023861D02*
X0255276Y0023861D01*
X0255514Y0022564D02*
X0281152Y0022564D01*
X0281152Y0021266D02*
X0255514Y0021266D01*
X0255506Y0019968D02*
X0281152Y0019968D01*
X0281152Y0018670D02*
X0255159Y0018670D01*
X0254811Y0017373D02*
X0281152Y0017373D01*
X0281152Y0016075D02*
X0254140Y0016075D01*
X0253391Y0014777D02*
X0281152Y0014777D01*
X0281152Y0013480D02*
X0252193Y0013480D01*
X0250711Y0012182D02*
X0281152Y0012182D01*
X0281152Y0010884D02*
X0248342Y0010884D01*
X0240064Y0010884D02*
X0051491Y0010884D01*
X0051718Y0010945D02*
X0048841Y0010174D01*
X0045863Y0010174D01*
X0042986Y0010945D01*
X0040407Y0012434D01*
X0038301Y0014540D01*
X0036812Y0017119D01*
X0036041Y0019996D01*
X0036041Y0022974D01*
X0036812Y0025851D01*
X0038301Y0028430D01*
X0040407Y0030536D01*
X0042986Y0032025D01*
X0045863Y0032796D01*
X0048841Y0032796D01*
X0051718Y0032025D01*
X0054297Y0030536D01*
X0056403Y0028430D01*
X0057893Y0025851D01*
X0058663Y0022974D01*
X0058663Y0019996D01*
X0057893Y0017119D01*
X0056403Y0014540D01*
X0054297Y0012434D01*
X0051718Y0010945D01*
X0053861Y0012182D02*
X0237694Y0012182D01*
X0236212Y0013480D02*
X0055343Y0013480D01*
X0056540Y0014777D02*
X0235015Y0014777D01*
X0234265Y0016075D02*
X0057290Y0016075D01*
X0057960Y0017373D02*
X0233595Y0017373D01*
X0233247Y0018670D02*
X0058308Y0018670D01*
X0058656Y0019968D02*
X0232899Y0019968D01*
X0232892Y0021266D02*
X0058663Y0021266D01*
X0058663Y0022564D02*
X0232892Y0022564D01*
X0233129Y0023861D02*
X0058426Y0023861D01*
X0058078Y0025159D02*
X0233477Y0025159D01*
X0234012Y0026457D02*
X0057543Y0026457D01*
X0056794Y0027754D02*
X0234762Y0027754D01*
X0235774Y0029052D02*
X0055781Y0029052D01*
X0054484Y0030350D02*
X0237071Y0030350D01*
X0239183Y0031648D02*
X0052372Y0031648D01*
X0042332Y0031648D02*
X0030089Y0031648D01*
X0030089Y0030350D02*
X0040221Y0030350D01*
X0038923Y0029052D02*
X0030089Y0029052D01*
X0030089Y0027754D02*
X0037911Y0027754D01*
X0037162Y0026457D02*
X0030089Y0026457D01*
X0030089Y0025159D02*
X0036627Y0025159D01*
X0036279Y0023861D02*
X0030089Y0023861D01*
X0030089Y0022564D02*
X0036041Y0022564D01*
X0036041Y0021266D02*
X0030089Y0021266D01*
X0030089Y0019968D02*
X0036049Y0019968D01*
X0036396Y0018670D02*
X0030089Y0018670D01*
X0030089Y0017373D02*
X0036744Y0017373D01*
X0037415Y0016075D02*
X0030089Y0016075D01*
X0030089Y0014777D02*
X0038164Y0014777D01*
X0039362Y0013480D02*
X0030089Y0013480D01*
X0030089Y0012182D02*
X0040844Y0012182D01*
X0043213Y0010884D02*
X0030089Y0010884D01*
X0030089Y0009586D02*
X0281152Y0009586D01*
X0281152Y0008289D02*
X0030089Y0008289D01*
X0030089Y0006991D02*
X0281152Y0006991D01*
X0281152Y0005693D02*
X0030089Y0005693D01*
X0030089Y0004395D02*
X0281152Y0004395D01*
X0179586Y0097832D02*
X0174402Y0097832D01*
X0176646Y0099129D02*
X0177743Y0099129D01*
X0188104Y0106916D02*
X0188896Y0106916D01*
X0194686Y0108213D02*
X0203714Y0108213D01*
X0204449Y0109511D02*
X0195916Y0109511D01*
X0196454Y0110809D02*
X0197729Y0110809D01*
X0202606Y0110809D02*
X0206389Y0110809D01*
X0208946Y0110809D02*
X0219057Y0110809D01*
X0218520Y0112107D02*
X0203797Y0112107D01*
X0204335Y0113404D02*
X0218474Y0113404D01*
X0218813Y0114702D02*
X0204360Y0114702D01*
X0204002Y0116000D02*
X0215038Y0116000D01*
X0213958Y0117297D02*
X0203100Y0117297D01*
X0197235Y0117297D02*
X0194980Y0117297D01*
X0196038Y0116000D02*
X0196333Y0116000D01*
X0210886Y0109511D02*
X0220277Y0109511D01*
X0225058Y0109511D02*
X0229077Y0109511D01*
X0228540Y0110809D02*
X0226277Y0110809D01*
X0226815Y0112107D02*
X0228474Y0112107D01*
X0228793Y0113404D02*
X0226860Y0113404D01*
X0226521Y0114702D02*
X0229640Y0114702D01*
X0225647Y0116000D02*
X0235083Y0116000D01*
X0235985Y0117297D02*
X0221376Y0117297D01*
X0214342Y0127679D02*
X0233358Y0127679D01*
X0232531Y0128977D02*
X0213804Y0128977D01*
X0236258Y0109511D02*
X0245699Y0109511D01*
X0244964Y0108213D02*
X0234965Y0108213D01*
X0236758Y0104320D02*
X0211117Y0104320D01*
X0211716Y0105618D02*
X0238428Y0105618D01*
X0236135Y0103022D02*
X0217137Y0103022D01*
X0218672Y0101725D02*
X0235974Y0101725D01*
X0236198Y0100427D02*
X0219239Y0100427D01*
X0213198Y0103022D02*
X0209504Y0103022D01*
X0211860Y0106916D02*
X0244724Y0106916D01*
X0244869Y0105618D02*
X0241907Y0105618D01*
X0243577Y0104320D02*
X0245467Y0104320D01*
X0244199Y0103022D02*
X0247080Y0103022D01*
X0250754Y0103022D02*
X0252080Y0103022D01*
X0255754Y0103022D02*
X0257080Y0103022D01*
X0257342Y0100427D02*
X0256117Y0100427D01*
X0230370Y0108213D02*
X0211620Y0108213D01*
X0239476Y0127679D02*
X0248358Y0127679D01*
X0247531Y0128977D02*
X0240304Y0128977D01*
X0240610Y0130275D02*
X0247224Y0130275D01*
X0247302Y0131572D02*
X0240532Y0131572D01*
X0239995Y0132870D02*
X0247840Y0132870D01*
X0249195Y0134168D02*
X0238640Y0134168D01*
X0214297Y0160122D02*
X0210275Y0160122D01*
X0216697Y0206840D02*
X0168695Y0206840D01*
X0167397Y0208138D02*
X0216110Y0208138D01*
X0215974Y0209436D02*
X0167922Y0209436D01*
X0168906Y0210734D02*
X0216223Y0210734D01*
X0216969Y0212031D02*
X0169444Y0212031D01*
X0161471Y0217222D02*
X0030089Y0217222D01*
X0030089Y0215924D02*
X0160173Y0215924D01*
X0159622Y0214627D02*
X0030089Y0214627D01*
X0030089Y0213329D02*
X0159383Y0213329D01*
X0139647Y0204245D02*
X0125688Y0204245D01*
X0127340Y0205543D02*
X0137995Y0205543D01*
X0137380Y0206840D02*
X0127955Y0206840D01*
X0128110Y0208138D02*
X0137224Y0208138D01*
X0137453Y0209436D02*
X0127882Y0209436D01*
X0127163Y0210734D02*
X0138171Y0210734D01*
X0122147Y0204245D02*
X0073188Y0204245D01*
X0074840Y0205543D02*
X0120495Y0205543D01*
X0119880Y0206840D02*
X0075455Y0206840D01*
X0075610Y0208138D02*
X0119724Y0208138D01*
X0119953Y0209436D02*
X0075382Y0209436D01*
X0074663Y0210734D02*
X0120671Y0210734D01*
X0209115Y0219818D02*
X0210111Y0219818D01*
X0210154Y0221115D02*
X0210180Y0221115D01*
X0226853Y0226306D02*
X0281152Y0226306D01*
X0281152Y0225009D02*
X0227644Y0225009D01*
X0228110Y0223711D02*
X0281152Y0223711D01*
X0281152Y0222413D02*
X0228110Y0222413D01*
X0227654Y0221115D02*
X0281152Y0221115D01*
X0281152Y0219818D02*
X0227724Y0219818D01*
X0228110Y0218520D02*
X0281152Y0218520D01*
X0281152Y0217222D02*
X0228110Y0217222D01*
X0227575Y0215924D02*
X0281152Y0215924D01*
X0281152Y0214627D02*
X0226424Y0214627D01*
M02*
