%
M48
M72
T01C0.0118
T02C0.0374
T03C0.0400
T04C0.0413
T05C0.0610
T06C0.0630
T07C0.0709
T08C0.1260
%
T01
X5017Y7305
X5642Y8305
X7892Y7305
X8392Y7805
X9392Y8305
X10517Y8680
X10017Y9305
X11892Y8680
X12704Y9368
X13392Y8680
X14517Y8805
X15017Y9180
X16079Y9368
X17517Y8805
X18892Y9555
X19579Y10180
X20642Y9555
X21517Y9930
X22267Y9430
X23329Y9118
X24017Y10180
X24892Y10680
X25392Y10680
X25892Y10680
X25954Y9680
X25392Y9680
X24954Y9493
X24642Y9118
X23267Y11180
X23892Y11430
X23142Y12055
X22267Y11305
X21767Y11930
X21017Y12680
X20017Y13180
X21017Y13680
X21767Y14430
X22392Y15055
X23017Y15430
X23767Y15055
X24392Y15055
X24892Y15430
X25392Y15680
X25892Y15680
X25892Y16680
X25392Y16680
X24892Y16680
X24017Y16180
X23142Y16930
X22392Y16930
X21517Y16430
X20767Y15680
X20017Y15055
X17892Y17180
X16767Y14430
X17267Y13680
X17267Y12805
X17579Y11868
X15892Y13180
X16017Y13555
X15767Y14430
X14267Y14680
X13392Y14180
X13392Y13680
X14142Y13055
X13517Y12930
X14142Y12305
X14267Y11805
X15642Y12180
X20017Y11430
X20767Y10680
X21392Y8743
X20642Y7805
X17517Y7430
X16517Y7430
X23642Y13055
X25142Y13055
X25892Y11805
X27267Y11055
X27267Y9305
X27267Y13180
X25892Y14555
X27267Y15305
X27267Y17055
X25892Y17805
X25142Y18805
X23642Y18805
X23142Y17805
X23954Y17243
X27267Y18680
X22392Y21805
X22392Y22305
X21892Y22305
X21392Y22305
X21392Y21805
X21892Y21805
X22017Y20930
X21142Y20055
X18892Y21961
X18267Y21961
X18267Y21461
X17642Y21961
X17267Y23180
X18142Y23430
X19767Y23430
X20392Y23430
X20642Y22805
X20642Y22305
X20142Y22805
X20142Y24055
X20642Y24055
X20642Y24555
X21392Y24555
X21892Y24555
X22392Y24555
X22392Y25055
X21892Y25055
X21392Y25055
X22392Y23930
X22392Y23430
X22392Y22930
X15767Y23180
X14142Y20805
X13267Y19930
X12392Y20805
X7142Y20805
X7142Y23055
X7142Y25180
T02
X13432Y15985
X15282Y15985
X16267Y15985
X17251Y15985
X19062Y15070
X19062Y13180
X19062Y11290
X17251Y10375
X15282Y10375
X13432Y10375
T03
X14017Y6730
X15017Y6630
X16017Y6730
X17017Y6630
X18017Y6730
X13017Y6630
X12017Y6730
X11017Y6630
X10017Y6730
X9017Y6630
X16342Y18305
X16442Y19305
X16342Y20305
X16442Y21305
T04
X12330Y15985
X12330Y13751
X12330Y11625
X14298Y10375
X10361Y10375
X6424Y10375
X4456Y12609
X4456Y15985
X8393Y15985
X18235Y10375
T05
X16621Y11290
X16621Y15070
T06
X9142Y24243
T07
X9142Y22471
T08
X4735Y2149
X24420Y2149
X24420Y23802
X4735Y23802
M30
