G75*
%MOIN*%
%OFA0B0*%
%FSLAX25Y25*%
%IPPOS*%
%LPD*%
%AMOC8*
5,1,8,0,0,1.08239X$1,22.5*
%
%ADD10C,0.01000*%
%ADD11C,0.00800*%
%ADD12C,0.03200*%
%ADD13C,0.00500*%
%ADD14C,0.00600*%
%ADD15C,0.00787*%
%ADD16C,0.00400*%
%ADD17R,0.00591X0.01181*%
%ADD18R,0.01181X0.01181*%
%ADD19C,0.00200*%
D10*
X0033667Y0170800D02*
X0036678Y0170800D01*
X0038743Y0170800D02*
X0040248Y0170800D01*
X0039495Y0170800D02*
X0039495Y0173810D01*
X0038743Y0173810D01*
X0039495Y0175316D02*
X0039495Y0176068D01*
X0039309Y0179068D02*
X0037803Y0179068D01*
X0037051Y0179820D01*
X0037051Y0182831D01*
X0037803Y0183583D01*
X0039309Y0183583D01*
X0040061Y0182831D01*
X0042126Y0183583D02*
X0043631Y0182078D01*
X0043631Y0180573D01*
X0042126Y0179068D01*
X0040061Y0179820D02*
X0039309Y0179068D01*
X0042879Y0173810D02*
X0042126Y0173058D01*
X0042126Y0171553D01*
X0042879Y0170800D01*
X0045136Y0170800D01*
X0047201Y0171553D02*
X0047201Y0173058D01*
X0047954Y0173810D01*
X0049459Y0173810D01*
X0050212Y0173058D01*
X0050212Y0172305D01*
X0047201Y0172305D01*
X0047201Y0171553D02*
X0047954Y0170800D01*
X0049459Y0170800D01*
X0052276Y0170800D02*
X0052276Y0173810D01*
X0054534Y0173810D01*
X0055287Y0173058D01*
X0055287Y0170800D01*
X0057352Y0170800D02*
X0059609Y0170800D01*
X0060362Y0171553D01*
X0059609Y0172305D01*
X0058104Y0172305D01*
X0057352Y0173058D01*
X0058104Y0173810D01*
X0060362Y0173810D01*
X0062427Y0173058D02*
X0063179Y0173810D01*
X0064685Y0173810D01*
X0065437Y0173058D01*
X0065437Y0172305D01*
X0062427Y0172305D01*
X0062427Y0171553D02*
X0062427Y0173058D01*
X0062427Y0171553D02*
X0063179Y0170800D01*
X0064685Y0170800D01*
X0067502Y0170800D02*
X0067502Y0171553D01*
X0068255Y0171553D01*
X0068255Y0170800D01*
X0067502Y0170800D01*
X0067502Y0173058D02*
X0067502Y0173810D01*
X0068255Y0173810D01*
X0068255Y0173058D01*
X0067502Y0173058D01*
X0068068Y0179068D02*
X0066563Y0179068D01*
X0065810Y0179820D01*
X0065810Y0180573D01*
X0066563Y0181326D01*
X0068068Y0181326D01*
X0068821Y0180573D01*
X0068821Y0179820D01*
X0068068Y0179068D01*
X0068068Y0181326D02*
X0068821Y0182078D01*
X0068821Y0182831D01*
X0068068Y0183583D01*
X0066563Y0183583D01*
X0065810Y0182831D01*
X0065810Y0182078D01*
X0066563Y0181326D01*
X0063745Y0179068D02*
X0060735Y0179068D01*
X0062240Y0179068D02*
X0062240Y0183583D01*
X0060735Y0182078D01*
X0058670Y0182831D02*
X0055660Y0179820D01*
X0056412Y0179068D01*
X0057918Y0179068D01*
X0058670Y0179820D01*
X0058670Y0182831D01*
X0057918Y0183583D01*
X0056412Y0183583D01*
X0055660Y0182831D01*
X0055660Y0179820D01*
X0053595Y0179068D02*
X0050585Y0179068D01*
X0053595Y0182078D01*
X0053595Y0182831D01*
X0052842Y0183583D01*
X0051337Y0183583D01*
X0050585Y0182831D01*
X0054721Y0191800D02*
X0053968Y0192553D01*
X0053968Y0194058D01*
X0054721Y0194810D01*
X0056226Y0194810D01*
X0056979Y0194058D01*
X0056979Y0193305D01*
X0053968Y0193305D01*
X0054721Y0191800D02*
X0056226Y0191800D01*
X0059043Y0191800D02*
X0062054Y0194810D01*
X0064119Y0194810D02*
X0066376Y0194810D01*
X0067129Y0194058D01*
X0067129Y0192553D01*
X0066376Y0191800D01*
X0064119Y0191800D01*
X0064119Y0190295D02*
X0064119Y0194810D01*
X0062054Y0191800D02*
X0059043Y0194810D01*
X0069194Y0194058D02*
X0069194Y0192553D01*
X0069946Y0191800D01*
X0071452Y0191800D01*
X0072204Y0193305D02*
X0069194Y0193305D01*
X0069194Y0194058D02*
X0069946Y0194810D01*
X0071452Y0194810D01*
X0072204Y0194058D01*
X0072204Y0193305D01*
X0074269Y0193305D02*
X0075774Y0194810D01*
X0076527Y0194810D01*
X0078498Y0194810D02*
X0079251Y0194810D01*
X0079251Y0191800D01*
X0080003Y0191800D02*
X0078498Y0191800D01*
X0081882Y0191800D02*
X0081882Y0194810D01*
X0082634Y0194810D01*
X0083387Y0194058D01*
X0084140Y0194810D01*
X0084892Y0194058D01*
X0084892Y0191800D01*
X0083387Y0191800D02*
X0083387Y0194058D01*
X0086957Y0194058D02*
X0086957Y0192553D01*
X0087709Y0191800D01*
X0089215Y0191800D01*
X0089967Y0193305D02*
X0086957Y0193305D01*
X0086957Y0194058D02*
X0087709Y0194810D01*
X0089215Y0194810D01*
X0089967Y0194058D01*
X0089967Y0193305D01*
X0092032Y0191800D02*
X0092032Y0194810D01*
X0094290Y0194810D01*
X0095043Y0194058D01*
X0095043Y0191800D01*
X0097860Y0192553D02*
X0098612Y0191800D01*
X0097860Y0192553D02*
X0097860Y0195563D01*
X0097107Y0194810D02*
X0098612Y0194810D01*
X0100491Y0194058D02*
X0100491Y0192553D01*
X0101243Y0191800D01*
X0102749Y0191800D01*
X0103501Y0193305D02*
X0100491Y0193305D01*
X0100491Y0194058D02*
X0101243Y0194810D01*
X0102749Y0194810D01*
X0103501Y0194058D01*
X0103501Y0193305D01*
X0105566Y0193305D02*
X0107071Y0194810D01*
X0107824Y0194810D01*
X0105566Y0194810D02*
X0105566Y0191800D01*
X0104347Y0182078D02*
X0102089Y0182078D01*
X0101337Y0181326D01*
X0101337Y0179820D01*
X0102089Y0179068D01*
X0104347Y0179068D01*
X0106412Y0179820D02*
X0107164Y0179068D01*
X0108670Y0179068D01*
X0109422Y0179820D01*
X0109422Y0181326D01*
X0108670Y0182078D01*
X0107164Y0182078D01*
X0106412Y0181326D01*
X0106412Y0179820D01*
X0111487Y0179068D02*
X0111487Y0182078D01*
X0112240Y0182078D01*
X0112992Y0181326D01*
X0113745Y0182078D01*
X0114497Y0181326D01*
X0114497Y0179068D01*
X0112992Y0179068D02*
X0112992Y0181326D01*
X0112146Y0175316D02*
X0113652Y0173810D01*
X0113652Y0170800D01*
X0113652Y0173058D02*
X0110641Y0173058D01*
X0110641Y0173810D02*
X0110641Y0170800D01*
X0108576Y0171553D02*
X0107824Y0170800D01*
X0106319Y0170800D01*
X0105566Y0171553D01*
X0106319Y0173058D02*
X0107824Y0173058D01*
X0108576Y0172305D01*
X0108576Y0171553D01*
X0106319Y0173058D02*
X0105566Y0173810D01*
X0105566Y0174563D01*
X0106319Y0175316D01*
X0107824Y0175316D01*
X0108576Y0174563D01*
X0110641Y0173810D02*
X0112146Y0175316D01*
X0103501Y0173058D02*
X0100491Y0173058D01*
X0098426Y0174563D02*
X0098426Y0175316D01*
X0098426Y0174563D02*
X0096921Y0173058D01*
X0096921Y0170800D01*
X0096921Y0173058D02*
X0095416Y0174563D01*
X0095416Y0175316D01*
X0093351Y0174563D02*
X0093351Y0173810D01*
X0092598Y0173058D01*
X0090340Y0173058D01*
X0088276Y0173058D02*
X0085265Y0173058D01*
X0083200Y0174563D02*
X0082448Y0175316D01*
X0080943Y0175316D01*
X0080190Y0174563D01*
X0080190Y0171553D01*
X0080943Y0170800D01*
X0082448Y0170800D01*
X0083200Y0171553D01*
X0078125Y0171553D02*
X0077373Y0170800D01*
X0075867Y0170800D01*
X0075115Y0171553D01*
X0075115Y0174563D01*
X0075867Y0175316D01*
X0077373Y0175316D01*
X0078125Y0174563D01*
X0078218Y0179068D02*
X0075961Y0179068D01*
X0076713Y0180573D02*
X0075961Y0181326D01*
X0076713Y0182078D01*
X0078971Y0182078D01*
X0078218Y0180573D02*
X0076713Y0180573D01*
X0078218Y0180573D02*
X0078971Y0179820D01*
X0078218Y0179068D01*
X0081036Y0179820D02*
X0081788Y0179068D01*
X0084046Y0179068D01*
X0084046Y0178315D02*
X0083294Y0177562D01*
X0082541Y0177562D01*
X0084046Y0178315D02*
X0084046Y0182078D01*
X0086111Y0181326D02*
X0086864Y0182078D01*
X0089121Y0182078D01*
X0088369Y0180573D02*
X0086864Y0180573D01*
X0086111Y0181326D01*
X0086111Y0179068D02*
X0088369Y0179068D01*
X0089121Y0179820D01*
X0088369Y0180573D01*
X0091186Y0179068D02*
X0091186Y0182078D01*
X0091939Y0182078D01*
X0092691Y0181326D01*
X0093444Y0182078D01*
X0094197Y0181326D01*
X0094197Y0179068D01*
X0092691Y0179068D02*
X0092691Y0181326D01*
X0096261Y0181326D02*
X0096261Y0179820D01*
X0097014Y0179068D01*
X0098519Y0179068D01*
X0099272Y0179820D01*
X0099272Y0181326D01*
X0098519Y0182078D01*
X0097014Y0182078D01*
X0096261Y0181326D01*
X0092598Y0175316D02*
X0093351Y0174563D01*
X0092598Y0175316D02*
X0090340Y0175316D01*
X0090340Y0170800D01*
X0092598Y0170800D01*
X0093351Y0171553D01*
X0093351Y0172305D01*
X0092598Y0173058D01*
X0081036Y0179820D02*
X0081036Y0182078D01*
X0074269Y0191800D02*
X0074269Y0194810D01*
X0079251Y0196316D02*
X0079251Y0197068D01*
X0046828Y0195563D02*
X0046828Y0194058D01*
X0046076Y0193305D01*
X0043818Y0193305D01*
X0043818Y0191800D02*
X0043818Y0196316D01*
X0046076Y0196316D01*
X0046828Y0195563D01*
X0041753Y0196316D02*
X0038743Y0196316D01*
X0038743Y0191800D01*
X0036678Y0192553D02*
X0036678Y0193305D01*
X0035925Y0194058D01*
X0034420Y0194058D01*
X0033667Y0194810D01*
X0033667Y0195563D01*
X0034420Y0196316D01*
X0035925Y0196316D01*
X0036678Y0195563D01*
X0038743Y0194058D02*
X0040248Y0194058D01*
X0036678Y0192553D02*
X0035925Y0191800D01*
X0034420Y0191800D01*
X0033667Y0192553D01*
X0035173Y0183583D02*
X0033667Y0182078D01*
X0033667Y0180573D01*
X0035173Y0179068D01*
X0033667Y0175316D02*
X0033667Y0170800D01*
X0042879Y0173810D02*
X0045136Y0173810D01*
X0114917Y0194810D02*
X0116423Y0191800D01*
X0117928Y0194810D01*
X0119993Y0195563D02*
X0120745Y0196316D01*
X0122250Y0196316D01*
X0123003Y0195563D01*
X0123003Y0194810D01*
X0119993Y0191800D01*
X0123003Y0191800D01*
X0122390Y0183583D02*
X0121637Y0182831D01*
X0121637Y0179820D01*
X0122390Y0179068D01*
X0123895Y0179068D01*
X0124648Y0179820D01*
X0124648Y0181326D01*
X0123143Y0181326D01*
X0124648Y0182831D02*
X0123895Y0183583D01*
X0122390Y0183583D01*
X0126713Y0182078D02*
X0126713Y0179068D01*
X0128218Y0179068D02*
X0128218Y0181326D01*
X0128970Y0182078D01*
X0129723Y0181326D01*
X0129723Y0179068D01*
X0131788Y0179068D02*
X0134046Y0179068D01*
X0134798Y0179820D01*
X0134798Y0181326D01*
X0134046Y0182078D01*
X0131788Y0182078D01*
X0131788Y0183583D02*
X0131788Y0179068D01*
X0128218Y0181326D02*
X0127465Y0182078D01*
X0126713Y0182078D01*
X0136863Y0181326D02*
X0139873Y0181326D01*
X0139873Y0183583D02*
X0139873Y0179068D01*
X0136863Y0179068D02*
X0136863Y0183583D01*
D11*
X0144517Y0182380D02*
X0145171Y0181726D01*
X0146481Y0181726D01*
X0147135Y0182380D01*
X0147135Y0183689D01*
X0145826Y0183689D01*
X0144517Y0184999D02*
X0144517Y0182380D01*
X0144517Y0184999D02*
X0145171Y0185653D01*
X0146481Y0185653D01*
X0147135Y0184999D01*
X0148867Y0185653D02*
X0151485Y0181726D01*
X0151485Y0185653D01*
X0153217Y0185653D02*
X0155181Y0185653D01*
X0155836Y0184999D01*
X0155836Y0182380D01*
X0155181Y0181726D01*
X0153217Y0181726D01*
X0153217Y0185653D01*
X0148867Y0185653D02*
X0148867Y0181726D01*
X0156817Y0174223D02*
X0156817Y0171605D01*
X0157472Y0170950D01*
X0158781Y0170950D01*
X0159436Y0171605D01*
X0161167Y0171605D02*
X0161822Y0170950D01*
X0163131Y0170950D01*
X0163786Y0171605D01*
X0163786Y0172914D01*
X0163131Y0173569D01*
X0162477Y0173569D01*
X0161167Y0172914D01*
X0161167Y0174878D01*
X0163786Y0174878D01*
X0165667Y0174300D02*
X0177167Y0174300D01*
X0177167Y0169300D01*
X0165667Y0169300D01*
X0165667Y0174300D01*
X0166417Y0178050D02*
X0161417Y0178050D01*
X0158917Y0180550D01*
X0158917Y0185550D01*
X0161417Y0188050D01*
X0158917Y0190550D01*
X0158917Y0195550D01*
X0161417Y0198050D01*
X0158917Y0200550D01*
X0158917Y0205550D01*
X0161417Y0208050D01*
X0158917Y0210550D01*
X0158917Y0215550D01*
X0161417Y0218050D01*
X0166417Y0218050D01*
X0168917Y0215550D01*
X0168917Y0210550D01*
X0166417Y0208050D01*
X0168917Y0205550D01*
X0168917Y0200550D01*
X0166417Y0198050D01*
X0168917Y0195550D01*
X0168917Y0190550D01*
X0166417Y0188050D01*
X0168917Y0185550D01*
X0168917Y0180550D01*
X0166417Y0178050D01*
X0159436Y0174223D02*
X0158781Y0174878D01*
X0157472Y0174878D01*
X0156817Y0174223D01*
X0155181Y0191726D02*
X0153872Y0191726D01*
X0153217Y0192380D01*
X0151485Y0193035D02*
X0151485Y0195653D01*
X0153217Y0194999D02*
X0153872Y0195653D01*
X0155181Y0195653D01*
X0155836Y0194999D01*
X0155836Y0194344D01*
X0155181Y0193689D01*
X0155836Y0193035D01*
X0155836Y0192380D01*
X0155181Y0191726D01*
X0155181Y0193689D02*
X0154526Y0193689D01*
X0151485Y0193035D02*
X0150176Y0191726D01*
X0148867Y0193035D01*
X0148867Y0195653D01*
X0147135Y0194999D02*
X0147135Y0194344D01*
X0146481Y0193689D01*
X0147135Y0193035D01*
X0147135Y0192380D01*
X0146481Y0191726D01*
X0145171Y0191726D01*
X0144517Y0192380D01*
X0145826Y0193689D02*
X0146481Y0193689D01*
X0147135Y0194999D02*
X0146481Y0195653D01*
X0145171Y0195653D01*
X0144517Y0194999D01*
X0137536Y0194819D02*
X0137536Y0195473D01*
X0136881Y0196128D01*
X0135572Y0196128D01*
X0134917Y0195473D01*
X0133186Y0195473D02*
X0132531Y0196128D01*
X0130567Y0196128D01*
X0130567Y0192200D01*
X0132531Y0192200D01*
X0133186Y0192855D01*
X0133186Y0195473D01*
X0134917Y0192200D02*
X0137536Y0194819D01*
X0137536Y0192200D02*
X0134917Y0192200D01*
X0138967Y0202401D02*
X0126368Y0202401D01*
X0126368Y0231092D01*
X0128156Y0231092D01*
X0138967Y0231092D01*
X0138967Y0202401D01*
X0144517Y0202380D02*
X0144517Y0204999D01*
X0145171Y0205653D01*
X0146481Y0205653D01*
X0147135Y0204999D01*
X0147135Y0203689D02*
X0145826Y0203689D01*
X0147135Y0203689D02*
X0147135Y0202380D01*
X0146481Y0201726D01*
X0145171Y0201726D01*
X0144517Y0202380D01*
X0148867Y0201726D02*
X0148867Y0205653D01*
X0151485Y0201726D01*
X0151485Y0205653D01*
X0153217Y0205653D02*
X0153217Y0201726D01*
X0155181Y0201726D01*
X0155836Y0202380D01*
X0155836Y0204999D01*
X0155181Y0205653D01*
X0153217Y0205653D01*
X0153217Y0211726D02*
X0153217Y0214344D01*
X0155181Y0214344D01*
X0155836Y0213689D01*
X0155836Y0211726D01*
X0151626Y0211726D02*
X0150317Y0211726D01*
X0150972Y0211726D02*
X0150972Y0214344D01*
X0150317Y0214344D01*
X0150972Y0215653D02*
X0150972Y0216308D01*
X0148585Y0215653D02*
X0148585Y0213035D01*
X0147276Y0211726D01*
X0145967Y0213035D01*
X0145967Y0215653D01*
X0149667Y0219026D02*
X0152285Y0222953D01*
X0154017Y0222299D02*
X0154672Y0222953D01*
X0155981Y0222953D01*
X0156636Y0222299D01*
X0156636Y0221644D01*
X0155981Y0220989D01*
X0156636Y0220335D01*
X0156636Y0219680D01*
X0155981Y0219026D01*
X0154672Y0219026D01*
X0154017Y0219680D01*
X0152285Y0219026D02*
X0149667Y0222953D01*
X0155326Y0220989D02*
X0155981Y0220989D01*
X0161230Y0228286D02*
X0169104Y0228286D01*
X0169104Y0247184D01*
X0161230Y0247184D01*
X0161230Y0228286D01*
X0166817Y0225473D02*
X0166817Y0222855D01*
X0167472Y0222200D01*
X0168781Y0222200D01*
X0169436Y0222855D01*
X0171167Y0222855D02*
X0171822Y0222200D01*
X0173131Y0222200D01*
X0173786Y0222855D01*
X0173786Y0223509D01*
X0173131Y0224164D01*
X0171822Y0224164D01*
X0171167Y0224819D01*
X0171167Y0225473D01*
X0171822Y0226128D01*
X0173131Y0226128D01*
X0173786Y0225473D01*
X0173786Y0224819D01*
X0173131Y0224164D01*
X0171822Y0224164D02*
X0171167Y0223509D01*
X0171167Y0222855D01*
X0169436Y0225473D02*
X0168781Y0226128D01*
X0167472Y0226128D01*
X0166817Y0225473D01*
X0175167Y0222300D02*
X0175167Y0233800D01*
X0180167Y0233800D01*
X0180167Y0222300D01*
X0175167Y0222300D01*
X0194417Y0221400D02*
X0194417Y0247200D01*
X0208417Y0247200D01*
X0208417Y0221400D01*
X0194417Y0221400D01*
X0180167Y0241365D02*
X0175167Y0241365D01*
X0175167Y0252865D01*
X0180167Y0252865D01*
X0180167Y0241365D01*
X0182157Y0250950D02*
X0183466Y0250950D01*
X0184121Y0251605D01*
X0182157Y0250950D02*
X0181502Y0251605D01*
X0181502Y0254223D01*
X0182157Y0254878D01*
X0183466Y0254878D01*
X0184121Y0254223D01*
X0185853Y0252914D02*
X0188471Y0252914D01*
X0187816Y0254878D02*
X0185853Y0252914D01*
X0187816Y0250950D02*
X0187816Y0254878D01*
X0203067Y0253828D02*
X0203067Y0250555D01*
X0203722Y0249900D01*
X0205031Y0249900D01*
X0205686Y0250555D01*
X0205686Y0253828D01*
X0207417Y0252519D02*
X0208727Y0253828D01*
X0208727Y0249900D01*
X0210036Y0249900D02*
X0207417Y0249900D01*
X0168786Y0250790D02*
X0168131Y0250135D01*
X0166822Y0250135D01*
X0166167Y0250790D01*
X0164436Y0250790D02*
X0163781Y0250135D01*
X0162472Y0250135D01*
X0161817Y0250790D01*
X0161817Y0253408D01*
X0162472Y0254063D01*
X0163781Y0254063D01*
X0164436Y0253408D01*
X0166167Y0253408D02*
X0166822Y0254063D01*
X0168131Y0254063D01*
X0168786Y0253408D01*
X0168786Y0252754D01*
X0168131Y0252099D01*
X0168786Y0251444D01*
X0168786Y0250790D01*
X0168131Y0252099D02*
X0167477Y0252099D01*
X0154460Y0249349D02*
X0154460Y0247562D01*
X0154460Y0236751D01*
X0125769Y0236751D01*
X0125769Y0249349D01*
X0154460Y0249349D01*
X0145036Y0250950D02*
X0142417Y0250950D01*
X0143727Y0250950D02*
X0143727Y0254878D01*
X0142417Y0253569D01*
X0140686Y0254223D02*
X0140686Y0251605D01*
X0140031Y0250950D01*
X0138067Y0250950D01*
X0138067Y0254878D01*
X0140031Y0254878D01*
X0140686Y0254223D01*
X0142167Y0246050D02*
X0142167Y0243050D01*
X0142167Y0240050D01*
X0142167Y0243050D02*
X0139167Y0240050D01*
X0139167Y0246050D01*
X0142167Y0243050D01*
X0135667Y0218800D02*
X0132667Y0218800D01*
X0129667Y0218800D01*
X0129667Y0215800D02*
X0132667Y0218800D01*
X0135667Y0215800D01*
X0129667Y0215800D01*
X0118588Y0205569D02*
X0118588Y0201641D01*
X0119897Y0201641D02*
X0117278Y0201641D01*
X0114892Y0202296D02*
X0114892Y0205569D01*
X0114237Y0205569D02*
X0115547Y0205569D01*
X0117278Y0204260D02*
X0118588Y0205569D01*
X0114892Y0202296D02*
X0114237Y0201641D01*
X0113583Y0201641D01*
X0112928Y0202296D01*
X0058836Y0208130D02*
X0058181Y0207476D01*
X0056872Y0207476D01*
X0056217Y0208130D01*
X0056217Y0210749D01*
X0056872Y0211403D01*
X0058181Y0211403D01*
X0058836Y0210749D01*
X0054485Y0210749D02*
X0054485Y0208130D01*
X0053831Y0207476D01*
X0051867Y0207476D01*
X0051867Y0211403D01*
X0053831Y0211403D01*
X0054485Y0210749D01*
X0045785Y0211403D02*
X0045785Y0208785D01*
X0044476Y0207476D01*
X0043167Y0208785D01*
X0043167Y0211403D01*
X0041435Y0211403D02*
X0038816Y0211403D01*
X0038816Y0209439D01*
X0040126Y0210094D01*
X0040780Y0210094D01*
X0041435Y0209439D01*
X0041435Y0208130D01*
X0040780Y0207476D01*
X0039471Y0207476D01*
X0038816Y0208130D01*
X0041817Y0098628D02*
X0044436Y0098628D01*
X0043127Y0098628D02*
X0043127Y0094700D01*
X0046167Y0094700D02*
X0048786Y0094700D01*
X0047477Y0094700D02*
X0047477Y0098628D01*
X0046167Y0097319D01*
X0051817Y0098628D02*
X0051817Y0094700D01*
X0051817Y0096009D02*
X0053781Y0096009D01*
X0054436Y0096664D01*
X0054436Y0097973D01*
X0053781Y0098628D01*
X0051817Y0098628D01*
X0053127Y0096009D02*
X0054436Y0094700D01*
X0056167Y0095355D02*
X0056167Y0096009D01*
X0056822Y0096664D01*
X0058131Y0096664D01*
X0058786Y0096009D01*
X0058786Y0095355D01*
X0058131Y0094700D01*
X0056822Y0094700D01*
X0056167Y0095355D01*
X0056822Y0096664D02*
X0056167Y0097319D01*
X0056167Y0097973D01*
X0056822Y0098628D01*
X0058131Y0098628D01*
X0058786Y0097973D01*
X0058786Y0097319D01*
X0058131Y0096664D01*
X0055167Y0091300D02*
X0050167Y0091300D01*
X0050167Y0079800D01*
X0055167Y0079800D01*
X0055167Y0091300D01*
X0073067Y0098628D02*
X0075686Y0098628D01*
X0074377Y0098628D02*
X0074377Y0094700D01*
X0077417Y0094700D02*
X0080036Y0097319D01*
X0080036Y0097973D01*
X0079381Y0098628D01*
X0078072Y0098628D01*
X0077417Y0097973D01*
X0077417Y0094700D02*
X0080036Y0094700D01*
X0077667Y0091300D02*
X0082667Y0091300D01*
X0082667Y0079800D01*
X0077667Y0079800D01*
X0077667Y0091300D01*
X0084317Y0094700D02*
X0084317Y0098628D01*
X0086281Y0098628D01*
X0086936Y0097973D01*
X0086936Y0096664D01*
X0086281Y0096009D01*
X0084317Y0096009D01*
X0085627Y0096009D02*
X0086936Y0094700D01*
X0088667Y0094700D02*
X0088667Y0095355D01*
X0091286Y0097973D01*
X0091286Y0098628D01*
X0088667Y0098628D01*
X0097667Y0090050D02*
X0102667Y0090050D01*
X0102667Y0078550D01*
X0097667Y0078550D01*
X0097667Y0090050D01*
X0093131Y0088628D02*
X0091167Y0086664D01*
X0093786Y0086664D01*
X0093131Y0084700D02*
X0093131Y0088628D01*
X0089436Y0087973D02*
X0089436Y0086664D01*
X0088781Y0086009D01*
X0086817Y0086009D01*
X0086817Y0084700D02*
X0086817Y0088628D01*
X0088781Y0088628D01*
X0089436Y0087973D01*
X0088127Y0086009D02*
X0089436Y0084700D01*
X0089017Y0077078D02*
X0091636Y0073150D01*
X0092667Y0071800D02*
X0095167Y0069300D01*
X0097667Y0071800D01*
X0102667Y0071800D01*
X0105167Y0069300D01*
X0107667Y0071800D01*
X0112667Y0071800D01*
X0115167Y0069300D01*
X0117667Y0071800D01*
X0122667Y0071800D01*
X0125167Y0069300D01*
X0127667Y0071800D01*
X0132667Y0071800D01*
X0135167Y0069300D01*
X0135167Y0064300D01*
X0132667Y0061800D01*
X0127667Y0061800D01*
X0125167Y0064300D01*
X0122667Y0061800D01*
X0117667Y0061800D01*
X0115167Y0064300D01*
X0112667Y0061800D01*
X0107667Y0061800D01*
X0105167Y0064300D01*
X0102667Y0061800D01*
X0097667Y0061800D01*
X0095167Y0064300D01*
X0092667Y0061800D01*
X0087667Y0061800D01*
X0085167Y0064300D01*
X0085167Y0069300D01*
X0087667Y0071800D01*
X0092667Y0071800D01*
X0093367Y0073150D02*
X0095986Y0075769D01*
X0095986Y0076423D01*
X0095331Y0077078D01*
X0094022Y0077078D01*
X0093367Y0076423D01*
X0091636Y0077078D02*
X0089017Y0073150D01*
X0093367Y0073150D02*
X0095986Y0073150D01*
X0084332Y0059878D02*
X0083022Y0059878D01*
X0082368Y0059223D01*
X0080636Y0059223D02*
X0079982Y0059878D01*
X0078018Y0059878D01*
X0078018Y0055950D01*
X0079982Y0055950D01*
X0080636Y0056605D01*
X0080636Y0059223D01*
X0082368Y0055950D02*
X0084986Y0058569D01*
X0084986Y0059223D01*
X0084332Y0059878D01*
X0084986Y0055950D02*
X0082368Y0055950D01*
X0088064Y0055409D02*
X0091992Y0055409D01*
X0091992Y0052368D02*
X0091992Y0049750D01*
X0088064Y0049750D01*
X0088064Y0048018D02*
X0091337Y0048018D01*
X0091992Y0047363D01*
X0091992Y0046054D01*
X0091337Y0045399D01*
X0088064Y0045399D01*
X0089373Y0043668D02*
X0091992Y0043668D01*
X0090028Y0043668D02*
X0090028Y0041049D01*
X0089373Y0041049D02*
X0088064Y0042359D01*
X0089373Y0043668D01*
X0089373Y0041049D02*
X0091992Y0041049D01*
X0090028Y0038008D02*
X0090028Y0036699D01*
X0091992Y0036699D02*
X0088064Y0036699D01*
X0088064Y0039318D01*
X0092646Y0034967D02*
X0092646Y0032349D01*
X0091992Y0030617D02*
X0088064Y0027999D01*
X0088064Y0026267D02*
X0088064Y0023649D01*
X0088064Y0024958D02*
X0091992Y0024958D01*
X0091992Y0027999D02*
X0088064Y0030617D01*
X0081258Y0044076D02*
X0080332Y0044076D01*
X0079406Y0045002D01*
X0079406Y0045928D01*
X0080795Y0046391D02*
X0081720Y0045465D01*
X0081720Y0044539D01*
X0081258Y0044076D01*
X0080795Y0046391D02*
X0080795Y0047316D01*
X0081258Y0047779D01*
X0082183Y0047779D01*
X0083109Y0046854D01*
X0083109Y0045928D01*
X0080033Y0049004D02*
X0078182Y0047152D01*
X0077256Y0047152D01*
X0076330Y0048078D01*
X0076330Y0049004D01*
X0078182Y0050855D01*
X0079107Y0050855D01*
X0080033Y0049930D01*
X0080033Y0049004D01*
X0074643Y0049765D02*
X0072791Y0051617D01*
X0075568Y0054394D01*
X0076286Y0055950D02*
X0073667Y0055950D01*
X0073667Y0059878D01*
X0076286Y0059878D01*
X0074977Y0057914D02*
X0073667Y0057914D01*
X0071936Y0055950D02*
X0069317Y0055950D01*
X0069317Y0059878D01*
X0071417Y0061050D02*
X0066417Y0061050D01*
X0066417Y0072550D01*
X0071417Y0072550D01*
X0071417Y0061050D01*
X0065117Y0061024D02*
X0061189Y0061024D01*
X0061189Y0062988D01*
X0061844Y0063643D01*
X0063153Y0063643D01*
X0063807Y0062988D01*
X0063807Y0061024D01*
X0063807Y0062334D02*
X0065117Y0063643D01*
X0065117Y0065375D02*
X0065117Y0067993D01*
X0065117Y0066684D02*
X0061189Y0066684D01*
X0062498Y0065375D01*
X0061844Y0069725D02*
X0061189Y0070379D01*
X0061189Y0071689D01*
X0061844Y0072343D01*
X0064462Y0069725D01*
X0065117Y0070379D01*
X0065117Y0071689D01*
X0064462Y0072343D01*
X0061844Y0072343D01*
X0061844Y0069725D02*
X0064462Y0069725D01*
X0064927Y0059878D02*
X0064927Y0055950D01*
X0063618Y0055950D02*
X0066236Y0055950D01*
X0063618Y0058569D02*
X0064927Y0059878D01*
X0061886Y0059223D02*
X0061232Y0059878D01*
X0059268Y0059878D01*
X0059268Y0055950D01*
X0061232Y0055950D01*
X0061886Y0056605D01*
X0061886Y0059223D01*
X0057536Y0059878D02*
X0054917Y0059878D01*
X0054917Y0055950D01*
X0057536Y0055950D01*
X0056227Y0057914D02*
X0054917Y0057914D01*
X0053186Y0055950D02*
X0050567Y0055950D01*
X0050567Y0059878D01*
X0046010Y0055827D02*
X0047862Y0053976D01*
X0046936Y0054902D02*
X0044159Y0052124D01*
X0046309Y0049974D02*
X0050938Y0050900D01*
X0049086Y0052751D02*
X0048161Y0048122D01*
X0048922Y0046435D02*
X0050774Y0044583D01*
X0052461Y0043822D02*
X0055238Y0046599D01*
X0057090Y0044748D01*
X0057389Y0042597D02*
X0059240Y0042597D01*
X0059240Y0040746D01*
X0057389Y0038894D01*
X0059076Y0038133D02*
X0059076Y0037207D01*
X0060002Y0036281D01*
X0060928Y0036281D01*
X0063242Y0038596D01*
X0064467Y0037371D02*
X0061689Y0034594D01*
X0063541Y0032742D01*
X0065691Y0030592D02*
X0068468Y0033369D01*
X0067543Y0034295D02*
X0069394Y0032443D01*
X0061391Y0040447D02*
X0059076Y0038133D01*
X0058777Y0040283D02*
X0056926Y0042134D01*
X0057389Y0042597D02*
X0055537Y0040746D01*
X0054776Y0044285D02*
X0053850Y0045211D01*
X0042667Y0061050D02*
X0037667Y0061050D01*
X0037667Y0072550D01*
X0042667Y0072550D01*
X0042667Y0061050D01*
X0035742Y0064125D02*
X0031814Y0064125D01*
X0031814Y0066089D01*
X0032469Y0066743D01*
X0033778Y0066743D01*
X0034432Y0066089D01*
X0034432Y0064125D01*
X0034432Y0065434D02*
X0035742Y0066743D01*
X0035087Y0068475D02*
X0035742Y0069129D01*
X0035742Y0070439D01*
X0035087Y0071093D01*
X0032469Y0071093D01*
X0031814Y0070439D01*
X0031814Y0069129D01*
X0032469Y0068475D01*
X0033123Y0068475D01*
X0033778Y0069129D01*
X0033778Y0071093D01*
X0088064Y0056718D02*
X0088064Y0054100D01*
X0098064Y0054100D02*
X0098064Y0056064D01*
X0098719Y0056718D01*
X0101337Y0056718D01*
X0101992Y0056064D01*
X0101992Y0054100D01*
X0098064Y0054100D01*
X0098064Y0052368D02*
X0101992Y0052368D01*
X0098064Y0049750D01*
X0101992Y0049750D01*
X0101337Y0048018D02*
X0100028Y0048018D01*
X0100028Y0046709D01*
X0101337Y0048018D02*
X0101992Y0047363D01*
X0101992Y0046054D01*
X0101337Y0045399D01*
X0098719Y0045399D01*
X0098064Y0046054D01*
X0098064Y0047363D01*
X0098719Y0048018D01*
X0108064Y0047363D02*
X0108064Y0045399D01*
X0111992Y0045399D01*
X0111992Y0047363D01*
X0111337Y0048018D01*
X0110682Y0048018D01*
X0110028Y0047363D01*
X0110028Y0045399D01*
X0110028Y0043668D02*
X0110028Y0041049D01*
X0109373Y0041049D02*
X0111992Y0041049D01*
X0111337Y0039318D02*
X0111992Y0038663D01*
X0111992Y0037354D01*
X0111337Y0036699D01*
X0110028Y0037354D02*
X0110028Y0038663D01*
X0110682Y0039318D01*
X0111337Y0039318D01*
X0110028Y0037354D02*
X0109373Y0036699D01*
X0108719Y0036699D01*
X0108064Y0037354D01*
X0108064Y0038663D01*
X0108719Y0039318D01*
X0109373Y0041049D02*
X0108064Y0042359D01*
X0109373Y0043668D01*
X0111992Y0043668D01*
X0110028Y0047363D02*
X0109373Y0048018D01*
X0108719Y0048018D01*
X0108064Y0047363D01*
X0108064Y0049750D02*
X0111992Y0049750D01*
X0111992Y0052368D01*
X0111992Y0054100D02*
X0111992Y0056718D01*
X0110028Y0055409D02*
X0110028Y0054100D01*
X0108064Y0054100D02*
X0111992Y0054100D01*
X0108064Y0054100D02*
X0108064Y0056718D01*
X0118064Y0054100D02*
X0121992Y0054100D01*
X0121992Y0056718D01*
X0121992Y0052368D02*
X0121992Y0049750D01*
X0118064Y0049750D01*
X0118064Y0052368D01*
X0120028Y0051059D02*
X0120028Y0049750D01*
X0120682Y0048018D02*
X0121337Y0048018D01*
X0121992Y0047363D01*
X0121992Y0046054D01*
X0121337Y0045399D01*
X0120028Y0046054D02*
X0120028Y0047363D01*
X0120682Y0048018D01*
X0118719Y0048018D02*
X0118064Y0047363D01*
X0118064Y0046054D01*
X0118719Y0045399D01*
X0119373Y0045399D01*
X0120028Y0046054D01*
X0122646Y0043668D02*
X0122646Y0041049D01*
X0121992Y0039318D02*
X0121992Y0036699D01*
X0118064Y0036699D01*
X0118064Y0039318D01*
X0120028Y0038008D02*
X0120028Y0036699D01*
X0118064Y0034967D02*
X0118064Y0032349D01*
X0118064Y0033658D02*
X0121992Y0033658D01*
X0121992Y0030617D02*
X0119373Y0030617D01*
X0118064Y0029308D01*
X0119373Y0027999D01*
X0121992Y0027999D01*
X0121992Y0026267D02*
X0120682Y0024958D01*
X0120682Y0025612D02*
X0120682Y0023649D01*
X0121992Y0023649D02*
X0118064Y0023649D01*
X0118064Y0025612D01*
X0118719Y0026267D01*
X0120028Y0026267D01*
X0120682Y0025612D01*
X0120028Y0027999D02*
X0120028Y0030617D01*
X0112646Y0027717D02*
X0112646Y0025099D01*
X0111992Y0023367D02*
X0108064Y0020748D01*
X0108064Y0019017D02*
X0108064Y0016398D01*
X0108064Y0017708D02*
X0111992Y0017708D01*
X0111992Y0020748D02*
X0108064Y0023367D01*
X0108064Y0029449D02*
X0108064Y0031413D01*
X0108719Y0032067D01*
X0111337Y0032067D01*
X0111992Y0031413D01*
X0111992Y0029449D01*
X0108064Y0029449D01*
X0108064Y0033799D02*
X0108064Y0035108D01*
X0108064Y0034454D02*
X0111992Y0034454D01*
X0111992Y0035108D02*
X0111992Y0033799D01*
X0128064Y0045399D02*
X0131992Y0045399D01*
X0131992Y0048018D01*
X0131337Y0049750D02*
X0128719Y0049750D01*
X0128064Y0050404D01*
X0128064Y0051714D01*
X0128719Y0052368D01*
X0131337Y0052368D01*
X0131992Y0051714D01*
X0131992Y0050404D01*
X0131337Y0049750D01*
X0131337Y0054100D02*
X0131992Y0054754D01*
X0131992Y0056064D01*
X0131337Y0056718D01*
X0130682Y0056718D01*
X0130028Y0056064D01*
X0130028Y0054754D01*
X0129373Y0054100D01*
X0128719Y0054100D01*
X0128064Y0054754D01*
X0128064Y0056064D01*
X0128719Y0056718D01*
X0138064Y0056064D02*
X0138064Y0054100D01*
X0141992Y0054100D01*
X0141992Y0056064D01*
X0141337Y0056718D01*
X0138719Y0056718D01*
X0138064Y0056064D01*
X0138064Y0052368D02*
X0141992Y0052368D01*
X0138064Y0049750D01*
X0141992Y0049750D01*
X0141337Y0048018D02*
X0140028Y0048018D01*
X0140028Y0046709D01*
X0141337Y0048018D02*
X0141992Y0047363D01*
X0141992Y0046054D01*
X0141337Y0045399D01*
X0138719Y0045399D01*
X0138064Y0046054D01*
X0138064Y0047363D01*
X0138719Y0048018D01*
X0148064Y0047363D02*
X0148064Y0046054D01*
X0148719Y0045399D01*
X0151337Y0045399D01*
X0151992Y0046054D01*
X0151992Y0047363D01*
X0151337Y0048018D01*
X0150028Y0048018D01*
X0150028Y0046709D01*
X0148719Y0048018D02*
X0148064Y0047363D01*
X0148064Y0049750D02*
X0151992Y0052368D01*
X0148064Y0052368D01*
X0148064Y0054100D02*
X0148064Y0056064D01*
X0148719Y0056718D01*
X0151337Y0056718D01*
X0151992Y0056064D01*
X0151992Y0054100D01*
X0148064Y0054100D01*
X0148064Y0049750D02*
X0151992Y0049750D01*
X0158064Y0050404D02*
X0158719Y0049750D01*
X0161337Y0049750D01*
X0161992Y0050404D01*
X0161992Y0051714D01*
X0161337Y0052368D01*
X0161992Y0054100D02*
X0161992Y0056718D01*
X0161992Y0054100D02*
X0158064Y0054100D01*
X0158719Y0052368D02*
X0158064Y0051714D01*
X0158064Y0050404D01*
X0158719Y0048018D02*
X0158064Y0047363D01*
X0158064Y0046054D01*
X0158719Y0045399D01*
X0159373Y0045399D01*
X0160028Y0046054D01*
X0160028Y0047363D01*
X0160682Y0048018D01*
X0161337Y0048018D01*
X0161992Y0047363D01*
X0161992Y0046054D01*
X0161337Y0045399D01*
X0158064Y0043668D02*
X0161992Y0041049D01*
X0161992Y0039318D02*
X0161992Y0036699D01*
X0161992Y0038008D02*
X0158064Y0038008D01*
X0159373Y0036699D01*
X0158064Y0034967D02*
X0158064Y0032349D01*
X0161992Y0032349D01*
X0161992Y0030617D02*
X0161992Y0027999D01*
X0158064Y0027999D01*
X0158064Y0030617D01*
X0160028Y0029308D02*
X0160028Y0027999D01*
X0161337Y0026267D02*
X0158719Y0026267D01*
X0158064Y0025612D01*
X0158064Y0023649D01*
X0161992Y0023649D01*
X0161992Y0025612D01*
X0161337Y0026267D01*
X0162646Y0021917D02*
X0162646Y0019298D01*
X0161337Y0017567D02*
X0158719Y0017567D01*
X0158064Y0016912D01*
X0158064Y0014948D01*
X0161992Y0014948D01*
X0161992Y0016912D01*
X0161337Y0017567D01*
X0161337Y0013217D02*
X0158719Y0013217D01*
X0158064Y0012562D01*
X0158064Y0011253D01*
X0158719Y0010598D01*
X0161337Y0010598D01*
X0161992Y0011253D01*
X0161992Y0012562D01*
X0161337Y0013217D01*
X0161992Y0008866D02*
X0158064Y0008866D01*
X0159373Y0007557D01*
X0158064Y0006248D01*
X0161992Y0006248D01*
X0168064Y0006248D02*
X0169373Y0007557D01*
X0168064Y0008866D01*
X0171992Y0008866D01*
X0171337Y0010598D02*
X0171992Y0011253D01*
X0171992Y0012562D01*
X0171337Y0013217D01*
X0168719Y0013217D01*
X0168064Y0012562D01*
X0168064Y0011253D01*
X0168719Y0010598D01*
X0171337Y0010598D01*
X0171992Y0006248D02*
X0168064Y0006248D01*
X0168064Y0014948D02*
X0168064Y0016912D01*
X0168719Y0017567D01*
X0171337Y0017567D01*
X0171992Y0016912D01*
X0171992Y0014948D01*
X0168064Y0014948D01*
X0172646Y0019298D02*
X0172646Y0021917D01*
X0171992Y0023649D02*
X0171992Y0025612D01*
X0171337Y0026267D01*
X0168719Y0026267D01*
X0168064Y0025612D01*
X0168064Y0023649D01*
X0171992Y0023649D01*
X0171992Y0027999D02*
X0168064Y0027999D01*
X0168064Y0030617D01*
X0168064Y0032349D02*
X0168064Y0034967D01*
X0168719Y0036699D02*
X0168064Y0037354D01*
X0168064Y0038663D01*
X0168719Y0039318D01*
X0169373Y0039318D01*
X0171992Y0036699D01*
X0171992Y0039318D01*
X0171992Y0041049D02*
X0168064Y0043668D01*
X0168719Y0045399D02*
X0169373Y0045399D01*
X0170028Y0046054D01*
X0170028Y0047363D01*
X0170682Y0048018D01*
X0171337Y0048018D01*
X0171992Y0047363D01*
X0171992Y0046054D01*
X0171337Y0045399D01*
X0168719Y0045399D02*
X0168064Y0046054D01*
X0168064Y0047363D01*
X0168719Y0048018D01*
X0168064Y0049750D02*
X0168064Y0051714D01*
X0168719Y0052368D01*
X0171337Y0052368D01*
X0171992Y0051714D01*
X0171992Y0049750D01*
X0168064Y0049750D01*
X0169373Y0054100D02*
X0168064Y0055409D01*
X0169373Y0056718D01*
X0171992Y0056718D01*
X0170028Y0056718D02*
X0170028Y0054100D01*
X0169373Y0054100D02*
X0171992Y0054100D01*
X0178064Y0054754D02*
X0178719Y0054100D01*
X0178064Y0054754D02*
X0178064Y0056064D01*
X0178719Y0056718D01*
X0179373Y0056718D01*
X0180028Y0056064D01*
X0180682Y0056718D01*
X0181337Y0056718D01*
X0181992Y0056064D01*
X0181992Y0054754D01*
X0181337Y0054100D01*
X0180028Y0055409D02*
X0180028Y0056064D01*
X0180682Y0052368D02*
X0178064Y0052368D01*
X0178064Y0049750D02*
X0180682Y0049750D01*
X0181992Y0051059D01*
X0180682Y0052368D01*
X0180682Y0048018D02*
X0180028Y0047363D01*
X0180028Y0046709D01*
X0180028Y0047363D02*
X0179373Y0048018D01*
X0178719Y0048018D01*
X0178064Y0047363D01*
X0178064Y0046054D01*
X0178719Y0045399D01*
X0181337Y0045399D02*
X0181992Y0046054D01*
X0181992Y0047363D01*
X0181337Y0048018D01*
X0180682Y0048018D01*
X0182646Y0043668D02*
X0182646Y0041049D01*
X0181337Y0039318D02*
X0181992Y0038663D01*
X0181992Y0037354D01*
X0181337Y0036699D01*
X0178719Y0036699D01*
X0178064Y0037354D01*
X0178064Y0038663D01*
X0178719Y0039318D01*
X0178719Y0034967D02*
X0178064Y0034313D01*
X0178064Y0033004D01*
X0178719Y0032349D01*
X0181337Y0032349D01*
X0181992Y0033004D01*
X0181992Y0034313D01*
X0181337Y0034967D01*
X0180682Y0030617D02*
X0178064Y0030617D01*
X0178064Y0027999D02*
X0180682Y0027999D01*
X0181992Y0029308D01*
X0180682Y0030617D01*
X0171992Y0030617D02*
X0171992Y0027999D01*
X0170028Y0027999D02*
X0170028Y0029308D01*
X0170028Y0032349D02*
X0170028Y0033658D01*
X0171992Y0032349D02*
X0168064Y0032349D01*
X0160028Y0032349D02*
X0160028Y0033658D01*
X0151992Y0032349D02*
X0148064Y0032349D01*
X0148064Y0034967D01*
X0148719Y0036699D02*
X0148064Y0037354D01*
X0148064Y0038663D01*
X0148719Y0039318D01*
X0151337Y0036699D01*
X0151992Y0037354D01*
X0151992Y0038663D01*
X0151337Y0039318D01*
X0148719Y0039318D01*
X0148719Y0036699D02*
X0151337Y0036699D01*
X0150028Y0033658D02*
X0150028Y0032349D01*
X0151992Y0030617D02*
X0151992Y0027999D01*
X0148064Y0027999D01*
X0148064Y0030617D01*
X0150028Y0029308D02*
X0150028Y0027999D01*
X0151337Y0026267D02*
X0148719Y0026267D01*
X0148064Y0025612D01*
X0148064Y0023649D01*
X0151992Y0023649D01*
X0151992Y0025612D01*
X0151337Y0026267D01*
X0152646Y0021917D02*
X0152646Y0019298D01*
X0151337Y0017567D02*
X0148719Y0017567D01*
X0148064Y0016912D01*
X0148064Y0014948D01*
X0151992Y0014948D01*
X0151992Y0016912D01*
X0151337Y0017567D01*
X0151337Y0013217D02*
X0148719Y0013217D01*
X0148064Y0012562D01*
X0148064Y0011253D01*
X0148719Y0010598D01*
X0151337Y0010598D01*
X0151992Y0011253D01*
X0151992Y0012562D01*
X0151337Y0013217D01*
X0151992Y0008866D02*
X0148064Y0008866D01*
X0149373Y0007557D01*
X0148064Y0006248D01*
X0151992Y0006248D01*
X0151992Y0041049D02*
X0148064Y0043668D01*
X0147667Y0061800D02*
X0145167Y0064300D01*
X0142667Y0061800D01*
X0137667Y0061800D01*
X0135167Y0064300D01*
X0135167Y0069300D01*
X0137667Y0071800D01*
X0142667Y0071800D01*
X0145167Y0069300D01*
X0147667Y0071800D01*
X0152667Y0071800D01*
X0155167Y0069300D01*
X0157667Y0071800D01*
X0162667Y0071800D01*
X0165167Y0069300D01*
X0167667Y0071800D01*
X0172667Y0071800D01*
X0175167Y0069300D01*
X0177667Y0071800D01*
X0182667Y0071800D01*
X0185167Y0069300D01*
X0185167Y0064300D01*
X0182667Y0061800D01*
X0177667Y0061800D01*
X0175167Y0064300D01*
X0172667Y0061800D01*
X0167667Y0061800D01*
X0165167Y0064300D01*
X0162667Y0061800D01*
X0157667Y0061800D01*
X0155167Y0064300D01*
X0152667Y0061800D01*
X0147667Y0061800D01*
X0147236Y0073150D02*
X0144617Y0073150D01*
X0145927Y0073150D02*
X0145927Y0077078D01*
X0144617Y0075769D01*
X0142886Y0077078D02*
X0140267Y0073150D01*
X0142886Y0073150D02*
X0140267Y0077078D01*
X0140686Y0079700D02*
X0139377Y0081009D01*
X0140031Y0081009D02*
X0138067Y0081009D01*
X0138067Y0079700D02*
X0138067Y0083628D01*
X0140031Y0083628D01*
X0140686Y0082973D01*
X0140686Y0081664D01*
X0140031Y0081009D01*
X0142417Y0080355D02*
X0143072Y0079700D01*
X0144381Y0079700D01*
X0145036Y0080355D01*
X0145036Y0081009D01*
X0144381Y0081664D01*
X0143727Y0081664D01*
X0144381Y0081664D02*
X0145036Y0082319D01*
X0145036Y0082973D01*
X0144381Y0083628D01*
X0143072Y0083628D01*
X0142417Y0082973D01*
X0147667Y0078550D02*
X0152667Y0078550D01*
X0152667Y0090050D01*
X0147667Y0090050D01*
X0147667Y0078550D01*
X0157667Y0078550D02*
X0162667Y0078550D01*
X0162667Y0090050D01*
X0157667Y0090050D01*
X0157667Y0078550D01*
X0167667Y0078550D02*
X0172667Y0078550D01*
X0172667Y0090050D01*
X0167667Y0090050D01*
X0167667Y0078550D01*
X0175567Y0079700D02*
X0175567Y0083628D01*
X0177531Y0083628D01*
X0178186Y0082973D01*
X0178186Y0081664D01*
X0177531Y0081009D01*
X0175567Y0081009D01*
X0176877Y0081009D02*
X0178186Y0079700D01*
X0179917Y0079700D02*
X0182536Y0079700D01*
X0181227Y0079700D02*
X0181227Y0083628D01*
X0179917Y0082319D01*
X0191969Y0083488D02*
X0191969Y0091362D01*
X0210866Y0091362D01*
X0210866Y0083488D01*
X0191969Y0083488D01*
X0191993Y0080806D02*
X0191993Y0075294D01*
X0204592Y0075294D01*
X0204592Y0080806D01*
X0191993Y0080806D01*
X0191917Y0093050D02*
X0191917Y0098050D01*
X0203417Y0098050D01*
X0203417Y0093050D01*
X0191917Y0093050D01*
X0200567Y0100355D02*
X0200567Y0102973D01*
X0201222Y0103628D01*
X0202531Y0103628D01*
X0203186Y0102973D01*
X0204917Y0102973D02*
X0205572Y0103628D01*
X0206881Y0103628D01*
X0207536Y0102973D01*
X0207536Y0102319D01*
X0204917Y0099700D01*
X0207536Y0099700D01*
X0203186Y0100355D02*
X0202531Y0099700D01*
X0201222Y0099700D01*
X0200567Y0100355D01*
X0213067Y0094348D02*
X0213067Y0091730D01*
X0213722Y0091075D01*
X0215031Y0091075D01*
X0215686Y0091730D01*
X0217417Y0091075D02*
X0220036Y0091075D01*
X0218727Y0091075D02*
X0218727Y0095003D01*
X0217417Y0093694D01*
X0215686Y0094348D02*
X0215031Y0095003D01*
X0213722Y0095003D01*
X0213067Y0094348D01*
X0218690Y0099750D02*
X0218690Y0101714D01*
X0219344Y0102368D01*
X0220653Y0102368D01*
X0221308Y0101714D01*
X0221308Y0099750D01*
X0221308Y0101059D02*
X0222617Y0102368D01*
X0221963Y0104100D02*
X0222617Y0104754D01*
X0222617Y0106064D01*
X0221963Y0106718D01*
X0221308Y0106718D01*
X0220653Y0106064D01*
X0220653Y0104100D01*
X0221963Y0104100D01*
X0220653Y0104100D02*
X0219344Y0105409D01*
X0218690Y0106718D01*
X0225167Y0107300D02*
X0225167Y0118800D01*
X0230167Y0118800D01*
X0230167Y0107300D01*
X0225167Y0107300D01*
X0225480Y0105963D02*
X0229855Y0105963D01*
X0229855Y0097637D01*
X0225480Y0097637D01*
X0225480Y0105963D01*
X0222617Y0099750D02*
X0218690Y0099750D01*
X0225167Y0096300D02*
X0230167Y0096300D01*
X0230167Y0084800D01*
X0225167Y0084800D01*
X0225167Y0096300D01*
X0238064Y0087314D02*
X0238064Y0086004D01*
X0238719Y0085350D01*
X0238719Y0083618D02*
X0238064Y0082964D01*
X0238064Y0081654D01*
X0238719Y0081000D01*
X0241337Y0081000D01*
X0241992Y0081654D01*
X0241992Y0082964D01*
X0241337Y0083618D01*
X0241992Y0085350D02*
X0239373Y0087968D01*
X0238719Y0087968D01*
X0238064Y0087314D01*
X0241992Y0087968D02*
X0241992Y0085350D01*
X0241992Y0079409D02*
X0241992Y0078100D01*
X0241992Y0078754D02*
X0238064Y0078754D01*
X0238064Y0078100D02*
X0238064Y0079409D01*
X0229492Y0078618D02*
X0229492Y0076000D01*
X0229492Y0077309D02*
X0225564Y0077309D01*
X0226873Y0076000D01*
X0226219Y0074268D02*
X0225564Y0073613D01*
X0225564Y0071649D01*
X0229492Y0071649D01*
X0228182Y0071649D02*
X0228182Y0073613D01*
X0227528Y0074268D01*
X0226219Y0074268D01*
X0228182Y0072959D02*
X0229492Y0074268D01*
X0229492Y0080350D02*
X0226873Y0082968D01*
X0226219Y0082968D01*
X0225564Y0082314D01*
X0225564Y0081004D01*
X0226219Y0080350D01*
X0229492Y0080350D02*
X0229492Y0082968D01*
X0217196Y0080921D02*
X0217196Y0076993D01*
X0215887Y0076993D02*
X0218505Y0076993D01*
X0215887Y0079612D02*
X0217196Y0080921D01*
X0214155Y0076993D02*
X0211537Y0076993D01*
X0211537Y0080921D01*
X0233917Y0117300D02*
X0238917Y0117300D01*
X0243917Y0117300D01*
X0248917Y0117300D01*
X0248917Y0128800D01*
X0243917Y0128800D01*
X0243917Y0117300D01*
X0243917Y0128800D01*
X0238917Y0128800D01*
X0238917Y0117300D01*
X0238917Y0128800D01*
X0233917Y0128800D01*
X0233917Y0117300D01*
X0226642Y0120950D02*
X0222714Y0120950D01*
X0222714Y0122914D01*
X0223369Y0123569D01*
X0224678Y0123569D01*
X0225332Y0122914D01*
X0225332Y0120950D01*
X0225332Y0122259D02*
X0226642Y0123569D01*
X0226642Y0125300D02*
X0226642Y0127919D01*
X0226642Y0126609D02*
X0222714Y0126609D01*
X0224023Y0125300D01*
X0224023Y0129650D02*
X0222714Y0130960D01*
X0226642Y0130960D01*
X0226642Y0132269D02*
X0226642Y0129650D01*
X0233965Y0133480D02*
X0234619Y0132825D01*
X0237238Y0132825D01*
X0237892Y0133480D01*
X0237892Y0134789D01*
X0237238Y0135444D01*
X0238965Y0134789D02*
X0238965Y0133480D01*
X0239619Y0132825D01*
X0242238Y0132825D01*
X0242892Y0133480D01*
X0242892Y0134789D01*
X0242238Y0135444D01*
X0243965Y0134789D02*
X0243965Y0133480D01*
X0244619Y0132825D01*
X0247238Y0132825D01*
X0247892Y0133480D01*
X0247892Y0134789D01*
X0247238Y0135444D01*
X0248965Y0134789D02*
X0248965Y0133480D01*
X0249619Y0132825D01*
X0252238Y0132825D01*
X0252892Y0133480D01*
X0252892Y0134789D01*
X0252238Y0135444D01*
X0252892Y0137175D02*
X0252892Y0139794D01*
X0252892Y0138484D02*
X0248965Y0138484D01*
X0250274Y0137175D01*
X0249619Y0135444D02*
X0248965Y0134789D01*
X0247892Y0137175D02*
X0247892Y0139794D01*
X0247892Y0138484D02*
X0243965Y0138484D01*
X0245274Y0137175D01*
X0244619Y0135444D02*
X0243965Y0134789D01*
X0242892Y0137175D02*
X0242892Y0139794D01*
X0242892Y0138484D02*
X0238965Y0138484D01*
X0240274Y0137175D01*
X0239619Y0135444D02*
X0238965Y0134789D01*
X0237892Y0137175D02*
X0237892Y0139794D01*
X0237892Y0138484D02*
X0233965Y0138484D01*
X0235274Y0137175D01*
X0234619Y0135444D02*
X0233965Y0134789D01*
X0233965Y0133480D01*
X0235928Y0141525D02*
X0233965Y0143489D01*
X0237892Y0143489D01*
X0238965Y0144144D02*
X0238965Y0141525D01*
X0240928Y0141525D01*
X0240274Y0142835D01*
X0240274Y0143489D01*
X0240928Y0144144D01*
X0242238Y0144144D01*
X0242892Y0143489D01*
X0242892Y0142180D01*
X0242238Y0141525D01*
X0243965Y0141525D02*
X0243965Y0144144D01*
X0244619Y0144144D01*
X0247238Y0141525D01*
X0247892Y0141525D01*
X0249619Y0142835D02*
X0248965Y0144144D01*
X0249619Y0142835D02*
X0250928Y0141525D01*
X0250928Y0143489D01*
X0251583Y0144144D01*
X0252238Y0144144D01*
X0252892Y0143489D01*
X0252892Y0142180D01*
X0252238Y0141525D01*
X0250928Y0141525D01*
X0259367Y0135153D02*
X0261985Y0131226D01*
X0259367Y0131226D02*
X0261985Y0135153D01*
X0263717Y0133189D02*
X0266336Y0133189D01*
X0265681Y0131226D02*
X0265681Y0135153D01*
X0263717Y0133189D01*
X0253917Y0128800D02*
X0253917Y0117300D01*
X0248917Y0117300D01*
X0248917Y0128800D01*
X0253917Y0128800D01*
X0235928Y0141525D02*
X0235928Y0144144D01*
X0211207Y0161915D02*
X0208588Y0161915D01*
X0209898Y0161915D02*
X0209898Y0165842D01*
X0208588Y0164533D01*
X0206857Y0163878D02*
X0206202Y0163224D01*
X0204238Y0163224D01*
X0204238Y0161915D02*
X0204238Y0165842D01*
X0206202Y0165842D01*
X0206857Y0165188D01*
X0206857Y0163878D01*
X0202506Y0165842D02*
X0199888Y0165842D01*
X0199888Y0161915D01*
X0198156Y0162569D02*
X0197502Y0161915D01*
X0196192Y0161915D01*
X0195538Y0162569D01*
X0196192Y0163878D02*
X0197502Y0163878D01*
X0198156Y0163224D01*
X0198156Y0162569D01*
X0199888Y0163878D02*
X0201197Y0163878D01*
X0198156Y0165188D02*
X0197502Y0165842D01*
X0196192Y0165842D01*
X0195538Y0165188D01*
X0195538Y0164533D01*
X0196192Y0163878D01*
X0192717Y0169044D02*
X0192717Y0174556D01*
X0180118Y0174556D01*
X0180118Y0169044D01*
X0192717Y0169044D01*
X0198412Y0170743D02*
X0198412Y0174671D01*
X0198722Y0178450D02*
X0200031Y0178450D01*
X0200686Y0179105D01*
X0202417Y0179105D02*
X0202417Y0178450D01*
X0202417Y0179105D02*
X0205036Y0181723D01*
X0205036Y0182378D01*
X0202417Y0182378D01*
X0200686Y0181723D02*
X0200031Y0182378D01*
X0198722Y0182378D01*
X0198067Y0181723D01*
X0198067Y0179105D01*
X0198722Y0178450D01*
X0202762Y0174016D02*
X0203417Y0174671D01*
X0204726Y0174671D01*
X0205380Y0174016D01*
X0205380Y0173362D01*
X0202762Y0170743D01*
X0205380Y0170743D01*
X0201030Y0170743D02*
X0198412Y0170743D01*
X0192167Y0176800D02*
X0192167Y0181800D01*
X0180667Y0181800D01*
X0180667Y0176800D01*
X0192167Y0176800D01*
X0193366Y0182863D02*
X0174469Y0182863D01*
X0174469Y0190737D01*
X0193366Y0190737D01*
X0193366Y0182863D01*
X0198067Y0186105D02*
X0198067Y0188723D01*
X0198722Y0189378D01*
X0200031Y0189378D01*
X0200686Y0188723D01*
X0202417Y0188723D02*
X0202417Y0188069D01*
X0203072Y0187414D01*
X0205036Y0187414D01*
X0205036Y0188723D02*
X0204381Y0189378D01*
X0203072Y0189378D01*
X0202417Y0188723D01*
X0202417Y0186105D02*
X0203072Y0185450D01*
X0204381Y0185450D01*
X0205036Y0186105D01*
X0205036Y0188723D01*
X0200686Y0186105D02*
X0200031Y0185450D01*
X0198722Y0185450D01*
X0198067Y0186105D01*
X0212752Y0192855D02*
X0212752Y0195473D01*
X0213407Y0196128D01*
X0214716Y0196128D01*
X0215371Y0195473D01*
X0217103Y0194164D02*
X0219066Y0194164D01*
X0219721Y0193509D01*
X0219721Y0192855D01*
X0219066Y0192200D01*
X0217757Y0192200D01*
X0217103Y0192855D01*
X0217103Y0194164D01*
X0218412Y0195473D01*
X0219721Y0196128D01*
X0215371Y0192855D02*
X0214716Y0192200D01*
X0213407Y0192200D01*
X0212752Y0192855D01*
X0215567Y0177378D02*
X0216877Y0177378D01*
X0216222Y0177378D02*
X0216222Y0173450D01*
X0215567Y0173450D02*
X0216877Y0173450D01*
X0218467Y0174105D02*
X0219122Y0173450D01*
X0220431Y0173450D01*
X0221086Y0174105D01*
X0222818Y0173450D02*
X0225436Y0173450D01*
X0224127Y0173450D02*
X0224127Y0177378D01*
X0222818Y0176069D01*
X0221086Y0176723D02*
X0220431Y0177378D01*
X0219122Y0177378D01*
X0218467Y0176723D01*
X0218467Y0174105D01*
X0233917Y0174800D02*
X0238917Y0174800D01*
X0243917Y0174800D01*
X0248917Y0174800D01*
X0248917Y0186300D01*
X0243917Y0186300D01*
X0243917Y0174800D01*
X0243917Y0186300D01*
X0238917Y0186300D01*
X0238917Y0174800D01*
X0238917Y0186300D01*
X0233917Y0186300D01*
X0233917Y0174800D01*
X0248917Y0174800D02*
X0253917Y0174800D01*
X0253917Y0186300D01*
X0248917Y0186300D01*
X0248917Y0174800D01*
X0248994Y0190950D02*
X0251613Y0190950D01*
X0252267Y0191605D01*
X0252267Y0192914D01*
X0251613Y0193569D01*
X0252267Y0195300D02*
X0252267Y0197919D01*
X0252267Y0196609D02*
X0248340Y0196609D01*
X0249649Y0195300D01*
X0248994Y0193569D02*
X0248340Y0192914D01*
X0248340Y0191605D01*
X0248994Y0190950D01*
X0247267Y0191605D02*
X0247267Y0192914D01*
X0246613Y0193569D01*
X0247267Y0195300D02*
X0247267Y0197919D01*
X0247267Y0196609D02*
X0243340Y0196609D01*
X0244649Y0195300D01*
X0243994Y0193569D02*
X0243340Y0192914D01*
X0243340Y0191605D01*
X0243994Y0190950D01*
X0246613Y0190950D01*
X0247267Y0191605D01*
X0242267Y0191605D02*
X0242267Y0192914D01*
X0241613Y0193569D01*
X0242267Y0195300D02*
X0242267Y0197919D01*
X0242267Y0196609D02*
X0238340Y0196609D01*
X0239649Y0195300D01*
X0238994Y0193569D02*
X0238340Y0192914D01*
X0238340Y0191605D01*
X0238994Y0190950D01*
X0241613Y0190950D01*
X0242267Y0191605D01*
X0237267Y0191605D02*
X0237267Y0192914D01*
X0236613Y0193569D01*
X0237267Y0195300D02*
X0237267Y0197919D01*
X0237267Y0196609D02*
X0233340Y0196609D01*
X0234649Y0195300D01*
X0233994Y0193569D02*
X0233340Y0192914D01*
X0233340Y0191605D01*
X0233994Y0190950D01*
X0236613Y0190950D01*
X0237267Y0191605D01*
X0237267Y0199650D02*
X0237267Y0202269D01*
X0238340Y0201614D02*
X0238340Y0200305D01*
X0238994Y0199650D01*
X0238340Y0201614D02*
X0238994Y0202269D01*
X0239649Y0202269D01*
X0242267Y0199650D01*
X0242267Y0202269D01*
X0243340Y0201614D02*
X0243994Y0202269D01*
X0244649Y0202269D01*
X0245303Y0201614D01*
X0245958Y0202269D01*
X0246613Y0202269D01*
X0247267Y0201614D01*
X0247267Y0200305D01*
X0246613Y0199650D01*
X0248340Y0200305D02*
X0248340Y0201614D01*
X0248994Y0202269D01*
X0251613Y0199650D01*
X0252267Y0200305D01*
X0252267Y0201614D01*
X0251613Y0202269D01*
X0248994Y0202269D01*
X0248340Y0200305D02*
X0248994Y0199650D01*
X0251613Y0199650D01*
X0245303Y0200960D02*
X0245303Y0201614D01*
X0243340Y0201614D02*
X0243340Y0200305D01*
X0243994Y0199650D01*
X0237267Y0200960D02*
X0233340Y0200960D01*
X0234649Y0199650D01*
X0263340Y0199050D02*
X0263340Y0201014D01*
X0263994Y0201669D01*
X0265303Y0201669D01*
X0265958Y0201014D01*
X0265958Y0199050D01*
X0267267Y0199050D02*
X0263340Y0199050D01*
X0263340Y0197319D02*
X0263340Y0194700D01*
X0263340Y0196009D02*
X0267267Y0196009D01*
X0265958Y0200359D02*
X0267267Y0201669D01*
X0267267Y0203400D02*
X0264649Y0203400D01*
X0263340Y0204710D01*
X0264649Y0206019D01*
X0267267Y0206019D01*
X0267267Y0207751D02*
X0263340Y0207751D01*
X0267267Y0210369D01*
X0263340Y0210369D01*
X0263994Y0212101D02*
X0264649Y0212101D01*
X0265303Y0212755D01*
X0265303Y0214065D01*
X0265958Y0214719D01*
X0266613Y0214719D01*
X0267267Y0214065D01*
X0267267Y0212755D01*
X0266613Y0212101D01*
X0263994Y0212101D02*
X0263340Y0212755D01*
X0263340Y0214065D01*
X0263994Y0214719D01*
X0263340Y0216451D02*
X0264649Y0217760D01*
X0263340Y0219069D01*
X0267267Y0219069D01*
X0267267Y0220801D02*
X0267267Y0222110D01*
X0267267Y0221456D02*
X0263340Y0221456D01*
X0263340Y0222110D02*
X0263340Y0220801D01*
X0263340Y0223701D02*
X0263340Y0226320D01*
X0263340Y0225010D02*
X0267267Y0225010D01*
X0267267Y0216451D02*
X0263340Y0216451D01*
X0265303Y0206019D02*
X0265303Y0203400D01*
X0167267Y0097919D02*
X0167267Y0095300D01*
X0164649Y0097919D01*
X0163994Y0097919D01*
X0163340Y0097264D01*
X0163340Y0095955D01*
X0163994Y0095300D01*
X0163994Y0093569D02*
X0165303Y0093569D01*
X0165958Y0092914D01*
X0165958Y0090950D01*
X0165958Y0092259D02*
X0167267Y0093569D01*
X0167267Y0090950D02*
X0163340Y0090950D01*
X0163340Y0092914D01*
X0163994Y0093569D01*
X0132667Y0090050D02*
X0132667Y0078550D01*
X0127667Y0078550D01*
X0127667Y0090050D01*
X0132667Y0090050D01*
X0125036Y0083628D02*
X0122417Y0083628D01*
X0122417Y0081664D01*
X0123727Y0082319D01*
X0124381Y0082319D01*
X0125036Y0081664D01*
X0125036Y0080355D01*
X0124381Y0079700D01*
X0123072Y0079700D01*
X0122417Y0080355D01*
X0120686Y0079700D02*
X0119377Y0081009D01*
X0120031Y0081009D02*
X0118067Y0081009D01*
X0118067Y0079700D02*
X0118067Y0083628D01*
X0120031Y0083628D01*
X0120686Y0082973D01*
X0120686Y0081664D01*
X0120031Y0081009D01*
X0260617Y0075153D02*
X0263235Y0071226D01*
X0264967Y0071880D02*
X0265622Y0071226D01*
X0266931Y0071226D01*
X0267586Y0071880D01*
X0267586Y0073189D01*
X0266931Y0073844D01*
X0266276Y0073844D01*
X0264967Y0073189D01*
X0264967Y0075153D01*
X0267586Y0075153D01*
X0263235Y0075153D02*
X0260617Y0071226D01*
X0265564Y0061718D02*
X0265564Y0059100D01*
X0269492Y0059100D01*
X0269492Y0061718D01*
X0267528Y0060409D02*
X0267528Y0059100D01*
X0268182Y0057368D02*
X0265564Y0057368D01*
X0265564Y0054750D02*
X0268182Y0054750D01*
X0269492Y0056059D01*
X0268182Y0057368D01*
X0269492Y0053159D02*
X0269492Y0051850D01*
X0269492Y0052504D02*
X0265564Y0052504D01*
X0265564Y0051850D02*
X0265564Y0053159D01*
X0265564Y0050118D02*
X0265564Y0047499D01*
X0269492Y0047499D01*
X0269492Y0050118D01*
X0267528Y0048809D02*
X0267528Y0047499D01*
X0268837Y0045768D02*
X0269492Y0045113D01*
X0269492Y0043804D01*
X0268837Y0043149D01*
X0266219Y0043149D01*
X0265564Y0043804D01*
X0265564Y0045113D01*
X0266219Y0045768D01*
X0265564Y0041418D02*
X0265564Y0038799D01*
X0269492Y0038799D01*
X0269492Y0041418D01*
X0267528Y0040108D02*
X0267528Y0038799D01*
X0267528Y0037067D02*
X0268182Y0036413D01*
X0268182Y0034449D01*
X0268182Y0035758D02*
X0269492Y0037067D01*
X0267528Y0037067D02*
X0266219Y0037067D01*
X0265564Y0036413D01*
X0265564Y0034449D01*
X0269492Y0034449D01*
D12*
X0255167Y0053050D02*
X0248917Y0046800D01*
X0255167Y0053050D02*
X0248917Y0059300D01*
X0255167Y0053050D02*
X0230167Y0053050D01*
X0236417Y0206800D02*
X0230167Y0213050D01*
X0236417Y0219300D01*
X0230167Y0213050D02*
X0255167Y0213050D01*
D13*
X0191663Y0161328D02*
X0191663Y0154772D01*
X0191663Y0161328D02*
X0176447Y0161328D01*
X0182677Y0153454D02*
X0169754Y0153454D01*
X0162667Y0153454D02*
X0149744Y0153454D01*
X0149744Y0147154D01*
X0148888Y0161328D02*
X0139045Y0161328D01*
X0117392Y0161328D02*
X0089833Y0161328D01*
X0078022Y0161328D02*
X0050463Y0161328D01*
X0038652Y0161328D02*
X0026841Y0161328D01*
X0026841Y0163296D02*
X0026841Y0100304D01*
X0026841Y0102272D02*
X0058337Y0102272D01*
X0070148Y0102272D02*
X0097707Y0102272D01*
X0109518Y0102272D02*
X0129203Y0102272D01*
X0149744Y0110146D02*
X0162667Y0110146D01*
X0169754Y0110146D02*
X0177953Y0110146D01*
X0182677Y0114871D01*
X0182677Y0116446D01*
X0191663Y0117272D02*
X0191663Y0127578D01*
X0191663Y0136022D02*
X0191663Y0146328D01*
X0182677Y0148729D02*
X0182677Y0153454D01*
X0149744Y0114871D02*
X0149744Y0110146D01*
X0156762Y0102272D02*
X0168573Y0102272D01*
X0188258Y0102272D02*
X0191663Y0102272D01*
X0191663Y0108828D01*
X0128156Y0231092D02*
X0127179Y0231092D01*
X0154460Y0247562D02*
X0154460Y0248538D01*
D14*
X0040659Y0021485D02*
X0040661Y0021649D01*
X0040667Y0021813D01*
X0040677Y0021977D01*
X0040691Y0022141D01*
X0040709Y0022304D01*
X0040731Y0022467D01*
X0040758Y0022629D01*
X0040788Y0022791D01*
X0040822Y0022951D01*
X0040860Y0023111D01*
X0040901Y0023270D01*
X0040947Y0023428D01*
X0040997Y0023584D01*
X0041050Y0023740D01*
X0041107Y0023894D01*
X0041168Y0024046D01*
X0041233Y0024197D01*
X0041302Y0024347D01*
X0041374Y0024494D01*
X0041449Y0024640D01*
X0041529Y0024784D01*
X0041611Y0024926D01*
X0041697Y0025066D01*
X0041787Y0025203D01*
X0041880Y0025339D01*
X0041976Y0025472D01*
X0042076Y0025603D01*
X0042178Y0025731D01*
X0042284Y0025857D01*
X0042393Y0025980D01*
X0042505Y0026100D01*
X0042619Y0026218D01*
X0042737Y0026332D01*
X0042857Y0026444D01*
X0042980Y0026553D01*
X0043106Y0026659D01*
X0043234Y0026761D01*
X0043365Y0026861D01*
X0043498Y0026957D01*
X0043634Y0027050D01*
X0043771Y0027140D01*
X0043911Y0027226D01*
X0044053Y0027308D01*
X0044197Y0027388D01*
X0044343Y0027463D01*
X0044490Y0027535D01*
X0044640Y0027604D01*
X0044791Y0027669D01*
X0044943Y0027730D01*
X0045097Y0027787D01*
X0045253Y0027840D01*
X0045409Y0027890D01*
X0045567Y0027936D01*
X0045726Y0027977D01*
X0045886Y0028015D01*
X0046046Y0028049D01*
X0046208Y0028079D01*
X0046370Y0028106D01*
X0046533Y0028128D01*
X0046696Y0028146D01*
X0046860Y0028160D01*
X0047024Y0028170D01*
X0047188Y0028176D01*
X0047352Y0028178D01*
X0047516Y0028176D01*
X0047680Y0028170D01*
X0047844Y0028160D01*
X0048008Y0028146D01*
X0048171Y0028128D01*
X0048334Y0028106D01*
X0048496Y0028079D01*
X0048658Y0028049D01*
X0048818Y0028015D01*
X0048978Y0027977D01*
X0049137Y0027936D01*
X0049295Y0027890D01*
X0049451Y0027840D01*
X0049607Y0027787D01*
X0049761Y0027730D01*
X0049913Y0027669D01*
X0050064Y0027604D01*
X0050214Y0027535D01*
X0050361Y0027463D01*
X0050507Y0027388D01*
X0050651Y0027308D01*
X0050793Y0027226D01*
X0050933Y0027140D01*
X0051070Y0027050D01*
X0051206Y0026957D01*
X0051339Y0026861D01*
X0051470Y0026761D01*
X0051598Y0026659D01*
X0051724Y0026553D01*
X0051847Y0026444D01*
X0051967Y0026332D01*
X0052085Y0026218D01*
X0052199Y0026100D01*
X0052311Y0025980D01*
X0052420Y0025857D01*
X0052526Y0025731D01*
X0052628Y0025603D01*
X0052728Y0025472D01*
X0052824Y0025339D01*
X0052917Y0025203D01*
X0053007Y0025066D01*
X0053093Y0024926D01*
X0053175Y0024784D01*
X0053255Y0024640D01*
X0053330Y0024494D01*
X0053402Y0024347D01*
X0053471Y0024197D01*
X0053536Y0024046D01*
X0053597Y0023894D01*
X0053654Y0023740D01*
X0053707Y0023584D01*
X0053757Y0023428D01*
X0053803Y0023270D01*
X0053844Y0023111D01*
X0053882Y0022951D01*
X0053916Y0022791D01*
X0053946Y0022629D01*
X0053973Y0022467D01*
X0053995Y0022304D01*
X0054013Y0022141D01*
X0054027Y0021977D01*
X0054037Y0021813D01*
X0054043Y0021649D01*
X0054045Y0021485D01*
X0054043Y0021321D01*
X0054037Y0021157D01*
X0054027Y0020993D01*
X0054013Y0020829D01*
X0053995Y0020666D01*
X0053973Y0020503D01*
X0053946Y0020341D01*
X0053916Y0020179D01*
X0053882Y0020019D01*
X0053844Y0019859D01*
X0053803Y0019700D01*
X0053757Y0019542D01*
X0053707Y0019386D01*
X0053654Y0019230D01*
X0053597Y0019076D01*
X0053536Y0018924D01*
X0053471Y0018773D01*
X0053402Y0018623D01*
X0053330Y0018476D01*
X0053255Y0018330D01*
X0053175Y0018186D01*
X0053093Y0018044D01*
X0053007Y0017904D01*
X0052917Y0017767D01*
X0052824Y0017631D01*
X0052728Y0017498D01*
X0052628Y0017367D01*
X0052526Y0017239D01*
X0052420Y0017113D01*
X0052311Y0016990D01*
X0052199Y0016870D01*
X0052085Y0016752D01*
X0051967Y0016638D01*
X0051847Y0016526D01*
X0051724Y0016417D01*
X0051598Y0016311D01*
X0051470Y0016209D01*
X0051339Y0016109D01*
X0051206Y0016013D01*
X0051070Y0015920D01*
X0050933Y0015830D01*
X0050793Y0015744D01*
X0050651Y0015662D01*
X0050507Y0015582D01*
X0050361Y0015507D01*
X0050214Y0015435D01*
X0050064Y0015366D01*
X0049913Y0015301D01*
X0049761Y0015240D01*
X0049607Y0015183D01*
X0049451Y0015130D01*
X0049295Y0015080D01*
X0049137Y0015034D01*
X0048978Y0014993D01*
X0048818Y0014955D01*
X0048658Y0014921D01*
X0048496Y0014891D01*
X0048334Y0014864D01*
X0048171Y0014842D01*
X0048008Y0014824D01*
X0047844Y0014810D01*
X0047680Y0014800D01*
X0047516Y0014794D01*
X0047352Y0014792D01*
X0047188Y0014794D01*
X0047024Y0014800D01*
X0046860Y0014810D01*
X0046696Y0014824D01*
X0046533Y0014842D01*
X0046370Y0014864D01*
X0046208Y0014891D01*
X0046046Y0014921D01*
X0045886Y0014955D01*
X0045726Y0014993D01*
X0045567Y0015034D01*
X0045409Y0015080D01*
X0045253Y0015130D01*
X0045097Y0015183D01*
X0044943Y0015240D01*
X0044791Y0015301D01*
X0044640Y0015366D01*
X0044490Y0015435D01*
X0044343Y0015507D01*
X0044197Y0015582D01*
X0044053Y0015662D01*
X0043911Y0015744D01*
X0043771Y0015830D01*
X0043634Y0015920D01*
X0043498Y0016013D01*
X0043365Y0016109D01*
X0043234Y0016209D01*
X0043106Y0016311D01*
X0042980Y0016417D01*
X0042857Y0016526D01*
X0042737Y0016638D01*
X0042619Y0016752D01*
X0042505Y0016870D01*
X0042393Y0016990D01*
X0042284Y0017113D01*
X0042178Y0017239D01*
X0042076Y0017367D01*
X0041976Y0017498D01*
X0041880Y0017631D01*
X0041787Y0017767D01*
X0041697Y0017904D01*
X0041611Y0018044D01*
X0041529Y0018186D01*
X0041449Y0018330D01*
X0041374Y0018476D01*
X0041302Y0018623D01*
X0041233Y0018773D01*
X0041168Y0018924D01*
X0041107Y0019076D01*
X0041050Y0019230D01*
X0040997Y0019386D01*
X0040947Y0019542D01*
X0040901Y0019700D01*
X0040860Y0019859D01*
X0040822Y0020019D01*
X0040788Y0020179D01*
X0040758Y0020341D01*
X0040731Y0020503D01*
X0040709Y0020666D01*
X0040691Y0020829D01*
X0040677Y0020993D01*
X0040667Y0021157D01*
X0040661Y0021321D01*
X0040659Y0021485D01*
X0033852Y0021485D02*
X0033856Y0021816D01*
X0033868Y0022147D01*
X0033889Y0022478D01*
X0033917Y0022808D01*
X0033954Y0023138D01*
X0033998Y0023466D01*
X0034051Y0023793D01*
X0034111Y0024119D01*
X0034180Y0024443D01*
X0034257Y0024765D01*
X0034341Y0025086D01*
X0034433Y0025404D01*
X0034533Y0025720D01*
X0034641Y0026033D01*
X0034757Y0026344D01*
X0034880Y0026651D01*
X0035010Y0026956D01*
X0035148Y0027257D01*
X0035293Y0027555D01*
X0035446Y0027849D01*
X0035606Y0028139D01*
X0035773Y0028425D01*
X0035946Y0028707D01*
X0036127Y0028985D01*
X0036315Y0029258D01*
X0036509Y0029527D01*
X0036709Y0029791D01*
X0036916Y0030049D01*
X0037130Y0030303D01*
X0037349Y0030551D01*
X0037575Y0030794D01*
X0037806Y0031031D01*
X0038043Y0031262D01*
X0038286Y0031488D01*
X0038534Y0031707D01*
X0038788Y0031921D01*
X0039046Y0032128D01*
X0039310Y0032328D01*
X0039579Y0032522D01*
X0039852Y0032710D01*
X0040130Y0032891D01*
X0040412Y0033064D01*
X0040698Y0033231D01*
X0040988Y0033391D01*
X0041282Y0033544D01*
X0041580Y0033689D01*
X0041881Y0033827D01*
X0042186Y0033957D01*
X0042493Y0034080D01*
X0042804Y0034196D01*
X0043117Y0034304D01*
X0043433Y0034404D01*
X0043751Y0034496D01*
X0044072Y0034580D01*
X0044394Y0034657D01*
X0044718Y0034726D01*
X0045044Y0034786D01*
X0045371Y0034839D01*
X0045699Y0034883D01*
X0046029Y0034920D01*
X0046359Y0034948D01*
X0046690Y0034969D01*
X0047021Y0034981D01*
X0047352Y0034985D01*
X0047683Y0034981D01*
X0048014Y0034969D01*
X0048345Y0034948D01*
X0048675Y0034920D01*
X0049005Y0034883D01*
X0049333Y0034839D01*
X0049660Y0034786D01*
X0049986Y0034726D01*
X0050310Y0034657D01*
X0050632Y0034580D01*
X0050953Y0034496D01*
X0051271Y0034404D01*
X0051587Y0034304D01*
X0051900Y0034196D01*
X0052211Y0034080D01*
X0052518Y0033957D01*
X0052823Y0033827D01*
X0053124Y0033689D01*
X0053422Y0033544D01*
X0053716Y0033391D01*
X0054006Y0033231D01*
X0054292Y0033064D01*
X0054574Y0032891D01*
X0054852Y0032710D01*
X0055125Y0032522D01*
X0055394Y0032328D01*
X0055658Y0032128D01*
X0055916Y0031921D01*
X0056170Y0031707D01*
X0056418Y0031488D01*
X0056661Y0031262D01*
X0056898Y0031031D01*
X0057129Y0030794D01*
X0057355Y0030551D01*
X0057574Y0030303D01*
X0057788Y0030049D01*
X0057995Y0029791D01*
X0058195Y0029527D01*
X0058389Y0029258D01*
X0058577Y0028985D01*
X0058758Y0028707D01*
X0058931Y0028425D01*
X0059098Y0028139D01*
X0059258Y0027849D01*
X0059411Y0027555D01*
X0059556Y0027257D01*
X0059694Y0026956D01*
X0059824Y0026651D01*
X0059947Y0026344D01*
X0060063Y0026033D01*
X0060171Y0025720D01*
X0060271Y0025404D01*
X0060363Y0025086D01*
X0060447Y0024765D01*
X0060524Y0024443D01*
X0060593Y0024119D01*
X0060653Y0023793D01*
X0060706Y0023466D01*
X0060750Y0023138D01*
X0060787Y0022808D01*
X0060815Y0022478D01*
X0060836Y0022147D01*
X0060848Y0021816D01*
X0060852Y0021485D01*
X0060848Y0021154D01*
X0060836Y0020823D01*
X0060815Y0020492D01*
X0060787Y0020162D01*
X0060750Y0019832D01*
X0060706Y0019504D01*
X0060653Y0019177D01*
X0060593Y0018851D01*
X0060524Y0018527D01*
X0060447Y0018205D01*
X0060363Y0017884D01*
X0060271Y0017566D01*
X0060171Y0017250D01*
X0060063Y0016937D01*
X0059947Y0016626D01*
X0059824Y0016319D01*
X0059694Y0016014D01*
X0059556Y0015713D01*
X0059411Y0015415D01*
X0059258Y0015121D01*
X0059098Y0014831D01*
X0058931Y0014545D01*
X0058758Y0014263D01*
X0058577Y0013985D01*
X0058389Y0013712D01*
X0058195Y0013443D01*
X0057995Y0013179D01*
X0057788Y0012921D01*
X0057574Y0012667D01*
X0057355Y0012419D01*
X0057129Y0012176D01*
X0056898Y0011939D01*
X0056661Y0011708D01*
X0056418Y0011482D01*
X0056170Y0011263D01*
X0055916Y0011049D01*
X0055658Y0010842D01*
X0055394Y0010642D01*
X0055125Y0010448D01*
X0054852Y0010260D01*
X0054574Y0010079D01*
X0054292Y0009906D01*
X0054006Y0009739D01*
X0053716Y0009579D01*
X0053422Y0009426D01*
X0053124Y0009281D01*
X0052823Y0009143D01*
X0052518Y0009013D01*
X0052211Y0008890D01*
X0051900Y0008774D01*
X0051587Y0008666D01*
X0051271Y0008566D01*
X0050953Y0008474D01*
X0050632Y0008390D01*
X0050310Y0008313D01*
X0049986Y0008244D01*
X0049660Y0008184D01*
X0049333Y0008131D01*
X0049005Y0008087D01*
X0048675Y0008050D01*
X0048345Y0008022D01*
X0048014Y0008001D01*
X0047683Y0007989D01*
X0047352Y0007985D01*
X0047021Y0007989D01*
X0046690Y0008001D01*
X0046359Y0008022D01*
X0046029Y0008050D01*
X0045699Y0008087D01*
X0045371Y0008131D01*
X0045044Y0008184D01*
X0044718Y0008244D01*
X0044394Y0008313D01*
X0044072Y0008390D01*
X0043751Y0008474D01*
X0043433Y0008566D01*
X0043117Y0008666D01*
X0042804Y0008774D01*
X0042493Y0008890D01*
X0042186Y0009013D01*
X0041881Y0009143D01*
X0041580Y0009281D01*
X0041282Y0009426D01*
X0040988Y0009579D01*
X0040698Y0009739D01*
X0040412Y0009906D01*
X0040130Y0010079D01*
X0039852Y0010260D01*
X0039579Y0010448D01*
X0039310Y0010642D01*
X0039046Y0010842D01*
X0038788Y0011049D01*
X0038534Y0011263D01*
X0038286Y0011482D01*
X0038043Y0011708D01*
X0037806Y0011939D01*
X0037575Y0012176D01*
X0037349Y0012419D01*
X0037130Y0012667D01*
X0036916Y0012921D01*
X0036709Y0013179D01*
X0036509Y0013443D01*
X0036315Y0013712D01*
X0036127Y0013985D01*
X0035946Y0014263D01*
X0035773Y0014545D01*
X0035606Y0014831D01*
X0035446Y0015121D01*
X0035293Y0015415D01*
X0035148Y0015713D01*
X0035010Y0016014D01*
X0034880Y0016319D01*
X0034757Y0016626D01*
X0034641Y0016937D01*
X0034533Y0017250D01*
X0034433Y0017566D01*
X0034341Y0017884D01*
X0034257Y0018205D01*
X0034180Y0018527D01*
X0034111Y0018851D01*
X0034051Y0019177D01*
X0033998Y0019504D01*
X0033954Y0019832D01*
X0033917Y0020162D01*
X0033889Y0020492D01*
X0033868Y0020823D01*
X0033856Y0021154D01*
X0033852Y0021485D01*
X0234569Y0098611D02*
X0234939Y0098611D01*
X0234569Y0098611D02*
X0234569Y0104989D01*
X0234939Y0104989D01*
X0238112Y0104989D02*
X0238482Y0104989D01*
X0241852Y0104989D02*
X0242222Y0104989D01*
X0245396Y0104989D02*
X0245766Y0104989D01*
X0245766Y0098611D01*
X0245396Y0098611D01*
X0242222Y0098611D02*
X0238112Y0098611D01*
X0261870Y0080934D02*
X0261870Y0122666D01*
X0263839Y0124635D01*
X0282736Y0124635D01*
X0282736Y0138965D02*
X0263839Y0138965D01*
X0261870Y0140934D01*
X0261870Y0182666D01*
X0263839Y0184635D01*
X0282736Y0184635D01*
X0245766Y0164989D02*
X0245766Y0158611D01*
X0245396Y0158611D01*
X0242222Y0158611D02*
X0238112Y0158611D01*
X0234939Y0158611D02*
X0234569Y0158611D01*
X0234569Y0164989D01*
X0234939Y0164989D01*
X0238112Y0164989D02*
X0238482Y0164989D01*
X0241852Y0164989D02*
X0242222Y0164989D01*
X0245396Y0164989D02*
X0245766Y0164989D01*
X0237510Y0238020D02*
X0237512Y0238184D01*
X0237518Y0238348D01*
X0237528Y0238512D01*
X0237542Y0238676D01*
X0237560Y0238839D01*
X0237582Y0239002D01*
X0237609Y0239164D01*
X0237639Y0239326D01*
X0237673Y0239486D01*
X0237711Y0239646D01*
X0237752Y0239805D01*
X0237798Y0239963D01*
X0237848Y0240119D01*
X0237901Y0240275D01*
X0237958Y0240429D01*
X0238019Y0240581D01*
X0238084Y0240732D01*
X0238153Y0240882D01*
X0238225Y0241029D01*
X0238300Y0241175D01*
X0238380Y0241319D01*
X0238462Y0241461D01*
X0238548Y0241601D01*
X0238638Y0241738D01*
X0238731Y0241874D01*
X0238827Y0242007D01*
X0238927Y0242138D01*
X0239029Y0242266D01*
X0239135Y0242392D01*
X0239244Y0242515D01*
X0239356Y0242635D01*
X0239470Y0242753D01*
X0239588Y0242867D01*
X0239708Y0242979D01*
X0239831Y0243088D01*
X0239957Y0243194D01*
X0240085Y0243296D01*
X0240216Y0243396D01*
X0240349Y0243492D01*
X0240485Y0243585D01*
X0240622Y0243675D01*
X0240762Y0243761D01*
X0240904Y0243843D01*
X0241048Y0243923D01*
X0241194Y0243998D01*
X0241341Y0244070D01*
X0241491Y0244139D01*
X0241642Y0244204D01*
X0241794Y0244265D01*
X0241948Y0244322D01*
X0242104Y0244375D01*
X0242260Y0244425D01*
X0242418Y0244471D01*
X0242577Y0244512D01*
X0242737Y0244550D01*
X0242897Y0244584D01*
X0243059Y0244614D01*
X0243221Y0244641D01*
X0243384Y0244663D01*
X0243547Y0244681D01*
X0243711Y0244695D01*
X0243875Y0244705D01*
X0244039Y0244711D01*
X0244203Y0244713D01*
X0244367Y0244711D01*
X0244531Y0244705D01*
X0244695Y0244695D01*
X0244859Y0244681D01*
X0245022Y0244663D01*
X0245185Y0244641D01*
X0245347Y0244614D01*
X0245509Y0244584D01*
X0245669Y0244550D01*
X0245829Y0244512D01*
X0245988Y0244471D01*
X0246146Y0244425D01*
X0246302Y0244375D01*
X0246458Y0244322D01*
X0246612Y0244265D01*
X0246764Y0244204D01*
X0246915Y0244139D01*
X0247065Y0244070D01*
X0247212Y0243998D01*
X0247358Y0243923D01*
X0247502Y0243843D01*
X0247644Y0243761D01*
X0247784Y0243675D01*
X0247921Y0243585D01*
X0248057Y0243492D01*
X0248190Y0243396D01*
X0248321Y0243296D01*
X0248449Y0243194D01*
X0248575Y0243088D01*
X0248698Y0242979D01*
X0248818Y0242867D01*
X0248936Y0242753D01*
X0249050Y0242635D01*
X0249162Y0242515D01*
X0249271Y0242392D01*
X0249377Y0242266D01*
X0249479Y0242138D01*
X0249579Y0242007D01*
X0249675Y0241874D01*
X0249768Y0241738D01*
X0249858Y0241601D01*
X0249944Y0241461D01*
X0250026Y0241319D01*
X0250106Y0241175D01*
X0250181Y0241029D01*
X0250253Y0240882D01*
X0250322Y0240732D01*
X0250387Y0240581D01*
X0250448Y0240429D01*
X0250505Y0240275D01*
X0250558Y0240119D01*
X0250608Y0239963D01*
X0250654Y0239805D01*
X0250695Y0239646D01*
X0250733Y0239486D01*
X0250767Y0239326D01*
X0250797Y0239164D01*
X0250824Y0239002D01*
X0250846Y0238839D01*
X0250864Y0238676D01*
X0250878Y0238512D01*
X0250888Y0238348D01*
X0250894Y0238184D01*
X0250896Y0238020D01*
X0250894Y0237856D01*
X0250888Y0237692D01*
X0250878Y0237528D01*
X0250864Y0237364D01*
X0250846Y0237201D01*
X0250824Y0237038D01*
X0250797Y0236876D01*
X0250767Y0236714D01*
X0250733Y0236554D01*
X0250695Y0236394D01*
X0250654Y0236235D01*
X0250608Y0236077D01*
X0250558Y0235921D01*
X0250505Y0235765D01*
X0250448Y0235611D01*
X0250387Y0235459D01*
X0250322Y0235308D01*
X0250253Y0235158D01*
X0250181Y0235011D01*
X0250106Y0234865D01*
X0250026Y0234721D01*
X0249944Y0234579D01*
X0249858Y0234439D01*
X0249768Y0234302D01*
X0249675Y0234166D01*
X0249579Y0234033D01*
X0249479Y0233902D01*
X0249377Y0233774D01*
X0249271Y0233648D01*
X0249162Y0233525D01*
X0249050Y0233405D01*
X0248936Y0233287D01*
X0248818Y0233173D01*
X0248698Y0233061D01*
X0248575Y0232952D01*
X0248449Y0232846D01*
X0248321Y0232744D01*
X0248190Y0232644D01*
X0248057Y0232548D01*
X0247921Y0232455D01*
X0247784Y0232365D01*
X0247644Y0232279D01*
X0247502Y0232197D01*
X0247358Y0232117D01*
X0247212Y0232042D01*
X0247065Y0231970D01*
X0246915Y0231901D01*
X0246764Y0231836D01*
X0246612Y0231775D01*
X0246458Y0231718D01*
X0246302Y0231665D01*
X0246146Y0231615D01*
X0245988Y0231569D01*
X0245829Y0231528D01*
X0245669Y0231490D01*
X0245509Y0231456D01*
X0245347Y0231426D01*
X0245185Y0231399D01*
X0245022Y0231377D01*
X0244859Y0231359D01*
X0244695Y0231345D01*
X0244531Y0231335D01*
X0244367Y0231329D01*
X0244203Y0231327D01*
X0244039Y0231329D01*
X0243875Y0231335D01*
X0243711Y0231345D01*
X0243547Y0231359D01*
X0243384Y0231377D01*
X0243221Y0231399D01*
X0243059Y0231426D01*
X0242897Y0231456D01*
X0242737Y0231490D01*
X0242577Y0231528D01*
X0242418Y0231569D01*
X0242260Y0231615D01*
X0242104Y0231665D01*
X0241948Y0231718D01*
X0241794Y0231775D01*
X0241642Y0231836D01*
X0241491Y0231901D01*
X0241341Y0231970D01*
X0241194Y0232042D01*
X0241048Y0232117D01*
X0240904Y0232197D01*
X0240762Y0232279D01*
X0240622Y0232365D01*
X0240485Y0232455D01*
X0240349Y0232548D01*
X0240216Y0232644D01*
X0240085Y0232744D01*
X0239957Y0232846D01*
X0239831Y0232952D01*
X0239708Y0233061D01*
X0239588Y0233173D01*
X0239470Y0233287D01*
X0239356Y0233405D01*
X0239244Y0233525D01*
X0239135Y0233648D01*
X0239029Y0233774D01*
X0238927Y0233902D01*
X0238827Y0234033D01*
X0238731Y0234166D01*
X0238638Y0234302D01*
X0238548Y0234439D01*
X0238462Y0234579D01*
X0238380Y0234721D01*
X0238300Y0234865D01*
X0238225Y0235011D01*
X0238153Y0235158D01*
X0238084Y0235308D01*
X0238019Y0235459D01*
X0237958Y0235611D01*
X0237901Y0235765D01*
X0237848Y0235921D01*
X0237798Y0236077D01*
X0237752Y0236235D01*
X0237711Y0236394D01*
X0237673Y0236554D01*
X0237639Y0236714D01*
X0237609Y0236876D01*
X0237582Y0237038D01*
X0237560Y0237201D01*
X0237542Y0237364D01*
X0237528Y0237528D01*
X0237518Y0237692D01*
X0237512Y0237856D01*
X0237510Y0238020D01*
X0230703Y0238020D02*
X0230707Y0238351D01*
X0230719Y0238682D01*
X0230740Y0239013D01*
X0230768Y0239343D01*
X0230805Y0239673D01*
X0230849Y0240001D01*
X0230902Y0240328D01*
X0230962Y0240654D01*
X0231031Y0240978D01*
X0231108Y0241300D01*
X0231192Y0241621D01*
X0231284Y0241939D01*
X0231384Y0242255D01*
X0231492Y0242568D01*
X0231608Y0242879D01*
X0231731Y0243186D01*
X0231861Y0243491D01*
X0231999Y0243792D01*
X0232144Y0244090D01*
X0232297Y0244384D01*
X0232457Y0244674D01*
X0232624Y0244960D01*
X0232797Y0245242D01*
X0232978Y0245520D01*
X0233166Y0245793D01*
X0233360Y0246062D01*
X0233560Y0246326D01*
X0233767Y0246584D01*
X0233981Y0246838D01*
X0234200Y0247086D01*
X0234426Y0247329D01*
X0234657Y0247566D01*
X0234894Y0247797D01*
X0235137Y0248023D01*
X0235385Y0248242D01*
X0235639Y0248456D01*
X0235897Y0248663D01*
X0236161Y0248863D01*
X0236430Y0249057D01*
X0236703Y0249245D01*
X0236981Y0249426D01*
X0237263Y0249599D01*
X0237549Y0249766D01*
X0237839Y0249926D01*
X0238133Y0250079D01*
X0238431Y0250224D01*
X0238732Y0250362D01*
X0239037Y0250492D01*
X0239344Y0250615D01*
X0239655Y0250731D01*
X0239968Y0250839D01*
X0240284Y0250939D01*
X0240602Y0251031D01*
X0240923Y0251115D01*
X0241245Y0251192D01*
X0241569Y0251261D01*
X0241895Y0251321D01*
X0242222Y0251374D01*
X0242550Y0251418D01*
X0242880Y0251455D01*
X0243210Y0251483D01*
X0243541Y0251504D01*
X0243872Y0251516D01*
X0244203Y0251520D01*
X0244534Y0251516D01*
X0244865Y0251504D01*
X0245196Y0251483D01*
X0245526Y0251455D01*
X0245856Y0251418D01*
X0246184Y0251374D01*
X0246511Y0251321D01*
X0246837Y0251261D01*
X0247161Y0251192D01*
X0247483Y0251115D01*
X0247804Y0251031D01*
X0248122Y0250939D01*
X0248438Y0250839D01*
X0248751Y0250731D01*
X0249062Y0250615D01*
X0249369Y0250492D01*
X0249674Y0250362D01*
X0249975Y0250224D01*
X0250273Y0250079D01*
X0250567Y0249926D01*
X0250857Y0249766D01*
X0251143Y0249599D01*
X0251425Y0249426D01*
X0251703Y0249245D01*
X0251976Y0249057D01*
X0252245Y0248863D01*
X0252509Y0248663D01*
X0252767Y0248456D01*
X0253021Y0248242D01*
X0253269Y0248023D01*
X0253512Y0247797D01*
X0253749Y0247566D01*
X0253980Y0247329D01*
X0254206Y0247086D01*
X0254425Y0246838D01*
X0254639Y0246584D01*
X0254846Y0246326D01*
X0255046Y0246062D01*
X0255240Y0245793D01*
X0255428Y0245520D01*
X0255609Y0245242D01*
X0255782Y0244960D01*
X0255949Y0244674D01*
X0256109Y0244384D01*
X0256262Y0244090D01*
X0256407Y0243792D01*
X0256545Y0243491D01*
X0256675Y0243186D01*
X0256798Y0242879D01*
X0256914Y0242568D01*
X0257022Y0242255D01*
X0257122Y0241939D01*
X0257214Y0241621D01*
X0257298Y0241300D01*
X0257375Y0240978D01*
X0257444Y0240654D01*
X0257504Y0240328D01*
X0257557Y0240001D01*
X0257601Y0239673D01*
X0257638Y0239343D01*
X0257666Y0239013D01*
X0257687Y0238682D01*
X0257699Y0238351D01*
X0257703Y0238020D01*
X0257699Y0237689D01*
X0257687Y0237358D01*
X0257666Y0237027D01*
X0257638Y0236697D01*
X0257601Y0236367D01*
X0257557Y0236039D01*
X0257504Y0235712D01*
X0257444Y0235386D01*
X0257375Y0235062D01*
X0257298Y0234740D01*
X0257214Y0234419D01*
X0257122Y0234101D01*
X0257022Y0233785D01*
X0256914Y0233472D01*
X0256798Y0233161D01*
X0256675Y0232854D01*
X0256545Y0232549D01*
X0256407Y0232248D01*
X0256262Y0231950D01*
X0256109Y0231656D01*
X0255949Y0231366D01*
X0255782Y0231080D01*
X0255609Y0230798D01*
X0255428Y0230520D01*
X0255240Y0230247D01*
X0255046Y0229978D01*
X0254846Y0229714D01*
X0254639Y0229456D01*
X0254425Y0229202D01*
X0254206Y0228954D01*
X0253980Y0228711D01*
X0253749Y0228474D01*
X0253512Y0228243D01*
X0253269Y0228017D01*
X0253021Y0227798D01*
X0252767Y0227584D01*
X0252509Y0227377D01*
X0252245Y0227177D01*
X0251976Y0226983D01*
X0251703Y0226795D01*
X0251425Y0226614D01*
X0251143Y0226441D01*
X0250857Y0226274D01*
X0250567Y0226114D01*
X0250273Y0225961D01*
X0249975Y0225816D01*
X0249674Y0225678D01*
X0249369Y0225548D01*
X0249062Y0225425D01*
X0248751Y0225309D01*
X0248438Y0225201D01*
X0248122Y0225101D01*
X0247804Y0225009D01*
X0247483Y0224925D01*
X0247161Y0224848D01*
X0246837Y0224779D01*
X0246511Y0224719D01*
X0246184Y0224666D01*
X0245856Y0224622D01*
X0245526Y0224585D01*
X0245196Y0224557D01*
X0244865Y0224536D01*
X0244534Y0224524D01*
X0244203Y0224520D01*
X0243872Y0224524D01*
X0243541Y0224536D01*
X0243210Y0224557D01*
X0242880Y0224585D01*
X0242550Y0224622D01*
X0242222Y0224666D01*
X0241895Y0224719D01*
X0241569Y0224779D01*
X0241245Y0224848D01*
X0240923Y0224925D01*
X0240602Y0225009D01*
X0240284Y0225101D01*
X0239968Y0225201D01*
X0239655Y0225309D01*
X0239344Y0225425D01*
X0239037Y0225548D01*
X0238732Y0225678D01*
X0238431Y0225816D01*
X0238133Y0225961D01*
X0237839Y0226114D01*
X0237549Y0226274D01*
X0237263Y0226441D01*
X0236981Y0226614D01*
X0236703Y0226795D01*
X0236430Y0226983D01*
X0236161Y0227177D01*
X0235897Y0227377D01*
X0235639Y0227584D01*
X0235385Y0227798D01*
X0235137Y0228017D01*
X0234894Y0228243D01*
X0234657Y0228474D01*
X0234426Y0228711D01*
X0234200Y0228954D01*
X0233981Y0229202D01*
X0233767Y0229456D01*
X0233560Y0229714D01*
X0233360Y0229978D01*
X0233166Y0230247D01*
X0232978Y0230520D01*
X0232797Y0230798D01*
X0232624Y0231080D01*
X0232457Y0231366D01*
X0232297Y0231656D01*
X0232144Y0231950D01*
X0231999Y0232248D01*
X0231861Y0232549D01*
X0231731Y0232854D01*
X0231608Y0233161D01*
X0231492Y0233472D01*
X0231384Y0233785D01*
X0231284Y0234101D01*
X0231192Y0234419D01*
X0231108Y0234740D01*
X0231031Y0235062D01*
X0230962Y0235386D01*
X0230902Y0235712D01*
X0230849Y0236039D01*
X0230805Y0236367D01*
X0230768Y0236697D01*
X0230740Y0237027D01*
X0230719Y0237358D01*
X0230707Y0237689D01*
X0230703Y0238020D01*
X0040659Y0238020D02*
X0040661Y0238184D01*
X0040667Y0238348D01*
X0040677Y0238512D01*
X0040691Y0238676D01*
X0040709Y0238839D01*
X0040731Y0239002D01*
X0040758Y0239164D01*
X0040788Y0239326D01*
X0040822Y0239486D01*
X0040860Y0239646D01*
X0040901Y0239805D01*
X0040947Y0239963D01*
X0040997Y0240119D01*
X0041050Y0240275D01*
X0041107Y0240429D01*
X0041168Y0240581D01*
X0041233Y0240732D01*
X0041302Y0240882D01*
X0041374Y0241029D01*
X0041449Y0241175D01*
X0041529Y0241319D01*
X0041611Y0241461D01*
X0041697Y0241601D01*
X0041787Y0241738D01*
X0041880Y0241874D01*
X0041976Y0242007D01*
X0042076Y0242138D01*
X0042178Y0242266D01*
X0042284Y0242392D01*
X0042393Y0242515D01*
X0042505Y0242635D01*
X0042619Y0242753D01*
X0042737Y0242867D01*
X0042857Y0242979D01*
X0042980Y0243088D01*
X0043106Y0243194D01*
X0043234Y0243296D01*
X0043365Y0243396D01*
X0043498Y0243492D01*
X0043634Y0243585D01*
X0043771Y0243675D01*
X0043911Y0243761D01*
X0044053Y0243843D01*
X0044197Y0243923D01*
X0044343Y0243998D01*
X0044490Y0244070D01*
X0044640Y0244139D01*
X0044791Y0244204D01*
X0044943Y0244265D01*
X0045097Y0244322D01*
X0045253Y0244375D01*
X0045409Y0244425D01*
X0045567Y0244471D01*
X0045726Y0244512D01*
X0045886Y0244550D01*
X0046046Y0244584D01*
X0046208Y0244614D01*
X0046370Y0244641D01*
X0046533Y0244663D01*
X0046696Y0244681D01*
X0046860Y0244695D01*
X0047024Y0244705D01*
X0047188Y0244711D01*
X0047352Y0244713D01*
X0047516Y0244711D01*
X0047680Y0244705D01*
X0047844Y0244695D01*
X0048008Y0244681D01*
X0048171Y0244663D01*
X0048334Y0244641D01*
X0048496Y0244614D01*
X0048658Y0244584D01*
X0048818Y0244550D01*
X0048978Y0244512D01*
X0049137Y0244471D01*
X0049295Y0244425D01*
X0049451Y0244375D01*
X0049607Y0244322D01*
X0049761Y0244265D01*
X0049913Y0244204D01*
X0050064Y0244139D01*
X0050214Y0244070D01*
X0050361Y0243998D01*
X0050507Y0243923D01*
X0050651Y0243843D01*
X0050793Y0243761D01*
X0050933Y0243675D01*
X0051070Y0243585D01*
X0051206Y0243492D01*
X0051339Y0243396D01*
X0051470Y0243296D01*
X0051598Y0243194D01*
X0051724Y0243088D01*
X0051847Y0242979D01*
X0051967Y0242867D01*
X0052085Y0242753D01*
X0052199Y0242635D01*
X0052311Y0242515D01*
X0052420Y0242392D01*
X0052526Y0242266D01*
X0052628Y0242138D01*
X0052728Y0242007D01*
X0052824Y0241874D01*
X0052917Y0241738D01*
X0053007Y0241601D01*
X0053093Y0241461D01*
X0053175Y0241319D01*
X0053255Y0241175D01*
X0053330Y0241029D01*
X0053402Y0240882D01*
X0053471Y0240732D01*
X0053536Y0240581D01*
X0053597Y0240429D01*
X0053654Y0240275D01*
X0053707Y0240119D01*
X0053757Y0239963D01*
X0053803Y0239805D01*
X0053844Y0239646D01*
X0053882Y0239486D01*
X0053916Y0239326D01*
X0053946Y0239164D01*
X0053973Y0239002D01*
X0053995Y0238839D01*
X0054013Y0238676D01*
X0054027Y0238512D01*
X0054037Y0238348D01*
X0054043Y0238184D01*
X0054045Y0238020D01*
X0054043Y0237856D01*
X0054037Y0237692D01*
X0054027Y0237528D01*
X0054013Y0237364D01*
X0053995Y0237201D01*
X0053973Y0237038D01*
X0053946Y0236876D01*
X0053916Y0236714D01*
X0053882Y0236554D01*
X0053844Y0236394D01*
X0053803Y0236235D01*
X0053757Y0236077D01*
X0053707Y0235921D01*
X0053654Y0235765D01*
X0053597Y0235611D01*
X0053536Y0235459D01*
X0053471Y0235308D01*
X0053402Y0235158D01*
X0053330Y0235011D01*
X0053255Y0234865D01*
X0053175Y0234721D01*
X0053093Y0234579D01*
X0053007Y0234439D01*
X0052917Y0234302D01*
X0052824Y0234166D01*
X0052728Y0234033D01*
X0052628Y0233902D01*
X0052526Y0233774D01*
X0052420Y0233648D01*
X0052311Y0233525D01*
X0052199Y0233405D01*
X0052085Y0233287D01*
X0051967Y0233173D01*
X0051847Y0233061D01*
X0051724Y0232952D01*
X0051598Y0232846D01*
X0051470Y0232744D01*
X0051339Y0232644D01*
X0051206Y0232548D01*
X0051070Y0232455D01*
X0050933Y0232365D01*
X0050793Y0232279D01*
X0050651Y0232197D01*
X0050507Y0232117D01*
X0050361Y0232042D01*
X0050214Y0231970D01*
X0050064Y0231901D01*
X0049913Y0231836D01*
X0049761Y0231775D01*
X0049607Y0231718D01*
X0049451Y0231665D01*
X0049295Y0231615D01*
X0049137Y0231569D01*
X0048978Y0231528D01*
X0048818Y0231490D01*
X0048658Y0231456D01*
X0048496Y0231426D01*
X0048334Y0231399D01*
X0048171Y0231377D01*
X0048008Y0231359D01*
X0047844Y0231345D01*
X0047680Y0231335D01*
X0047516Y0231329D01*
X0047352Y0231327D01*
X0047188Y0231329D01*
X0047024Y0231335D01*
X0046860Y0231345D01*
X0046696Y0231359D01*
X0046533Y0231377D01*
X0046370Y0231399D01*
X0046208Y0231426D01*
X0046046Y0231456D01*
X0045886Y0231490D01*
X0045726Y0231528D01*
X0045567Y0231569D01*
X0045409Y0231615D01*
X0045253Y0231665D01*
X0045097Y0231718D01*
X0044943Y0231775D01*
X0044791Y0231836D01*
X0044640Y0231901D01*
X0044490Y0231970D01*
X0044343Y0232042D01*
X0044197Y0232117D01*
X0044053Y0232197D01*
X0043911Y0232279D01*
X0043771Y0232365D01*
X0043634Y0232455D01*
X0043498Y0232548D01*
X0043365Y0232644D01*
X0043234Y0232744D01*
X0043106Y0232846D01*
X0042980Y0232952D01*
X0042857Y0233061D01*
X0042737Y0233173D01*
X0042619Y0233287D01*
X0042505Y0233405D01*
X0042393Y0233525D01*
X0042284Y0233648D01*
X0042178Y0233774D01*
X0042076Y0233902D01*
X0041976Y0234033D01*
X0041880Y0234166D01*
X0041787Y0234302D01*
X0041697Y0234439D01*
X0041611Y0234579D01*
X0041529Y0234721D01*
X0041449Y0234865D01*
X0041374Y0235011D01*
X0041302Y0235158D01*
X0041233Y0235308D01*
X0041168Y0235459D01*
X0041107Y0235611D01*
X0041050Y0235765D01*
X0040997Y0235921D01*
X0040947Y0236077D01*
X0040901Y0236235D01*
X0040860Y0236394D01*
X0040822Y0236554D01*
X0040788Y0236714D01*
X0040758Y0236876D01*
X0040731Y0237038D01*
X0040709Y0237201D01*
X0040691Y0237364D01*
X0040677Y0237528D01*
X0040667Y0237692D01*
X0040661Y0237856D01*
X0040659Y0238020D01*
X0033852Y0238020D02*
X0033856Y0238351D01*
X0033868Y0238682D01*
X0033889Y0239013D01*
X0033917Y0239343D01*
X0033954Y0239673D01*
X0033998Y0240001D01*
X0034051Y0240328D01*
X0034111Y0240654D01*
X0034180Y0240978D01*
X0034257Y0241300D01*
X0034341Y0241621D01*
X0034433Y0241939D01*
X0034533Y0242255D01*
X0034641Y0242568D01*
X0034757Y0242879D01*
X0034880Y0243186D01*
X0035010Y0243491D01*
X0035148Y0243792D01*
X0035293Y0244090D01*
X0035446Y0244384D01*
X0035606Y0244674D01*
X0035773Y0244960D01*
X0035946Y0245242D01*
X0036127Y0245520D01*
X0036315Y0245793D01*
X0036509Y0246062D01*
X0036709Y0246326D01*
X0036916Y0246584D01*
X0037130Y0246838D01*
X0037349Y0247086D01*
X0037575Y0247329D01*
X0037806Y0247566D01*
X0038043Y0247797D01*
X0038286Y0248023D01*
X0038534Y0248242D01*
X0038788Y0248456D01*
X0039046Y0248663D01*
X0039310Y0248863D01*
X0039579Y0249057D01*
X0039852Y0249245D01*
X0040130Y0249426D01*
X0040412Y0249599D01*
X0040698Y0249766D01*
X0040988Y0249926D01*
X0041282Y0250079D01*
X0041580Y0250224D01*
X0041881Y0250362D01*
X0042186Y0250492D01*
X0042493Y0250615D01*
X0042804Y0250731D01*
X0043117Y0250839D01*
X0043433Y0250939D01*
X0043751Y0251031D01*
X0044072Y0251115D01*
X0044394Y0251192D01*
X0044718Y0251261D01*
X0045044Y0251321D01*
X0045371Y0251374D01*
X0045699Y0251418D01*
X0046029Y0251455D01*
X0046359Y0251483D01*
X0046690Y0251504D01*
X0047021Y0251516D01*
X0047352Y0251520D01*
X0047683Y0251516D01*
X0048014Y0251504D01*
X0048345Y0251483D01*
X0048675Y0251455D01*
X0049005Y0251418D01*
X0049333Y0251374D01*
X0049660Y0251321D01*
X0049986Y0251261D01*
X0050310Y0251192D01*
X0050632Y0251115D01*
X0050953Y0251031D01*
X0051271Y0250939D01*
X0051587Y0250839D01*
X0051900Y0250731D01*
X0052211Y0250615D01*
X0052518Y0250492D01*
X0052823Y0250362D01*
X0053124Y0250224D01*
X0053422Y0250079D01*
X0053716Y0249926D01*
X0054006Y0249766D01*
X0054292Y0249599D01*
X0054574Y0249426D01*
X0054852Y0249245D01*
X0055125Y0249057D01*
X0055394Y0248863D01*
X0055658Y0248663D01*
X0055916Y0248456D01*
X0056170Y0248242D01*
X0056418Y0248023D01*
X0056661Y0247797D01*
X0056898Y0247566D01*
X0057129Y0247329D01*
X0057355Y0247086D01*
X0057574Y0246838D01*
X0057788Y0246584D01*
X0057995Y0246326D01*
X0058195Y0246062D01*
X0058389Y0245793D01*
X0058577Y0245520D01*
X0058758Y0245242D01*
X0058931Y0244960D01*
X0059098Y0244674D01*
X0059258Y0244384D01*
X0059411Y0244090D01*
X0059556Y0243792D01*
X0059694Y0243491D01*
X0059824Y0243186D01*
X0059947Y0242879D01*
X0060063Y0242568D01*
X0060171Y0242255D01*
X0060271Y0241939D01*
X0060363Y0241621D01*
X0060447Y0241300D01*
X0060524Y0240978D01*
X0060593Y0240654D01*
X0060653Y0240328D01*
X0060706Y0240001D01*
X0060750Y0239673D01*
X0060787Y0239343D01*
X0060815Y0239013D01*
X0060836Y0238682D01*
X0060848Y0238351D01*
X0060852Y0238020D01*
X0060848Y0237689D01*
X0060836Y0237358D01*
X0060815Y0237027D01*
X0060787Y0236697D01*
X0060750Y0236367D01*
X0060706Y0236039D01*
X0060653Y0235712D01*
X0060593Y0235386D01*
X0060524Y0235062D01*
X0060447Y0234740D01*
X0060363Y0234419D01*
X0060271Y0234101D01*
X0060171Y0233785D01*
X0060063Y0233472D01*
X0059947Y0233161D01*
X0059824Y0232854D01*
X0059694Y0232549D01*
X0059556Y0232248D01*
X0059411Y0231950D01*
X0059258Y0231656D01*
X0059098Y0231366D01*
X0058931Y0231080D01*
X0058758Y0230798D01*
X0058577Y0230520D01*
X0058389Y0230247D01*
X0058195Y0229978D01*
X0057995Y0229714D01*
X0057788Y0229456D01*
X0057574Y0229202D01*
X0057355Y0228954D01*
X0057129Y0228711D01*
X0056898Y0228474D01*
X0056661Y0228243D01*
X0056418Y0228017D01*
X0056170Y0227798D01*
X0055916Y0227584D01*
X0055658Y0227377D01*
X0055394Y0227177D01*
X0055125Y0226983D01*
X0054852Y0226795D01*
X0054574Y0226614D01*
X0054292Y0226441D01*
X0054006Y0226274D01*
X0053716Y0226114D01*
X0053422Y0225961D01*
X0053124Y0225816D01*
X0052823Y0225678D01*
X0052518Y0225548D01*
X0052211Y0225425D01*
X0051900Y0225309D01*
X0051587Y0225201D01*
X0051271Y0225101D01*
X0050953Y0225009D01*
X0050632Y0224925D01*
X0050310Y0224848D01*
X0049986Y0224779D01*
X0049660Y0224719D01*
X0049333Y0224666D01*
X0049005Y0224622D01*
X0048675Y0224585D01*
X0048345Y0224557D01*
X0048014Y0224536D01*
X0047683Y0224524D01*
X0047352Y0224520D01*
X0047021Y0224524D01*
X0046690Y0224536D01*
X0046359Y0224557D01*
X0046029Y0224585D01*
X0045699Y0224622D01*
X0045371Y0224666D01*
X0045044Y0224719D01*
X0044718Y0224779D01*
X0044394Y0224848D01*
X0044072Y0224925D01*
X0043751Y0225009D01*
X0043433Y0225101D01*
X0043117Y0225201D01*
X0042804Y0225309D01*
X0042493Y0225425D01*
X0042186Y0225548D01*
X0041881Y0225678D01*
X0041580Y0225816D01*
X0041282Y0225961D01*
X0040988Y0226114D01*
X0040698Y0226274D01*
X0040412Y0226441D01*
X0040130Y0226614D01*
X0039852Y0226795D01*
X0039579Y0226983D01*
X0039310Y0227177D01*
X0039046Y0227377D01*
X0038788Y0227584D01*
X0038534Y0227798D01*
X0038286Y0228017D01*
X0038043Y0228243D01*
X0037806Y0228474D01*
X0037575Y0228711D01*
X0037349Y0228954D01*
X0037130Y0229202D01*
X0036916Y0229456D01*
X0036709Y0229714D01*
X0036509Y0229978D01*
X0036315Y0230247D01*
X0036127Y0230520D01*
X0035946Y0230798D01*
X0035773Y0231080D01*
X0035606Y0231366D01*
X0035446Y0231656D01*
X0035293Y0231950D01*
X0035148Y0232248D01*
X0035010Y0232549D01*
X0034880Y0232854D01*
X0034757Y0233161D01*
X0034641Y0233472D01*
X0034533Y0233785D01*
X0034433Y0234101D01*
X0034341Y0234419D01*
X0034257Y0234740D01*
X0034180Y0235062D01*
X0034111Y0235386D01*
X0034051Y0235712D01*
X0033998Y0236039D01*
X0033954Y0236367D01*
X0033917Y0236697D01*
X0033889Y0237027D01*
X0033868Y0237358D01*
X0033856Y0237689D01*
X0033852Y0238020D01*
X0261870Y0080934D02*
X0263839Y0078965D01*
X0282736Y0078965D01*
X0237510Y0021485D02*
X0237512Y0021649D01*
X0237518Y0021813D01*
X0237528Y0021977D01*
X0237542Y0022141D01*
X0237560Y0022304D01*
X0237582Y0022467D01*
X0237609Y0022629D01*
X0237639Y0022791D01*
X0237673Y0022951D01*
X0237711Y0023111D01*
X0237752Y0023270D01*
X0237798Y0023428D01*
X0237848Y0023584D01*
X0237901Y0023740D01*
X0237958Y0023894D01*
X0238019Y0024046D01*
X0238084Y0024197D01*
X0238153Y0024347D01*
X0238225Y0024494D01*
X0238300Y0024640D01*
X0238380Y0024784D01*
X0238462Y0024926D01*
X0238548Y0025066D01*
X0238638Y0025203D01*
X0238731Y0025339D01*
X0238827Y0025472D01*
X0238927Y0025603D01*
X0239029Y0025731D01*
X0239135Y0025857D01*
X0239244Y0025980D01*
X0239356Y0026100D01*
X0239470Y0026218D01*
X0239588Y0026332D01*
X0239708Y0026444D01*
X0239831Y0026553D01*
X0239957Y0026659D01*
X0240085Y0026761D01*
X0240216Y0026861D01*
X0240349Y0026957D01*
X0240485Y0027050D01*
X0240622Y0027140D01*
X0240762Y0027226D01*
X0240904Y0027308D01*
X0241048Y0027388D01*
X0241194Y0027463D01*
X0241341Y0027535D01*
X0241491Y0027604D01*
X0241642Y0027669D01*
X0241794Y0027730D01*
X0241948Y0027787D01*
X0242104Y0027840D01*
X0242260Y0027890D01*
X0242418Y0027936D01*
X0242577Y0027977D01*
X0242737Y0028015D01*
X0242897Y0028049D01*
X0243059Y0028079D01*
X0243221Y0028106D01*
X0243384Y0028128D01*
X0243547Y0028146D01*
X0243711Y0028160D01*
X0243875Y0028170D01*
X0244039Y0028176D01*
X0244203Y0028178D01*
X0244367Y0028176D01*
X0244531Y0028170D01*
X0244695Y0028160D01*
X0244859Y0028146D01*
X0245022Y0028128D01*
X0245185Y0028106D01*
X0245347Y0028079D01*
X0245509Y0028049D01*
X0245669Y0028015D01*
X0245829Y0027977D01*
X0245988Y0027936D01*
X0246146Y0027890D01*
X0246302Y0027840D01*
X0246458Y0027787D01*
X0246612Y0027730D01*
X0246764Y0027669D01*
X0246915Y0027604D01*
X0247065Y0027535D01*
X0247212Y0027463D01*
X0247358Y0027388D01*
X0247502Y0027308D01*
X0247644Y0027226D01*
X0247784Y0027140D01*
X0247921Y0027050D01*
X0248057Y0026957D01*
X0248190Y0026861D01*
X0248321Y0026761D01*
X0248449Y0026659D01*
X0248575Y0026553D01*
X0248698Y0026444D01*
X0248818Y0026332D01*
X0248936Y0026218D01*
X0249050Y0026100D01*
X0249162Y0025980D01*
X0249271Y0025857D01*
X0249377Y0025731D01*
X0249479Y0025603D01*
X0249579Y0025472D01*
X0249675Y0025339D01*
X0249768Y0025203D01*
X0249858Y0025066D01*
X0249944Y0024926D01*
X0250026Y0024784D01*
X0250106Y0024640D01*
X0250181Y0024494D01*
X0250253Y0024347D01*
X0250322Y0024197D01*
X0250387Y0024046D01*
X0250448Y0023894D01*
X0250505Y0023740D01*
X0250558Y0023584D01*
X0250608Y0023428D01*
X0250654Y0023270D01*
X0250695Y0023111D01*
X0250733Y0022951D01*
X0250767Y0022791D01*
X0250797Y0022629D01*
X0250824Y0022467D01*
X0250846Y0022304D01*
X0250864Y0022141D01*
X0250878Y0021977D01*
X0250888Y0021813D01*
X0250894Y0021649D01*
X0250896Y0021485D01*
X0250894Y0021321D01*
X0250888Y0021157D01*
X0250878Y0020993D01*
X0250864Y0020829D01*
X0250846Y0020666D01*
X0250824Y0020503D01*
X0250797Y0020341D01*
X0250767Y0020179D01*
X0250733Y0020019D01*
X0250695Y0019859D01*
X0250654Y0019700D01*
X0250608Y0019542D01*
X0250558Y0019386D01*
X0250505Y0019230D01*
X0250448Y0019076D01*
X0250387Y0018924D01*
X0250322Y0018773D01*
X0250253Y0018623D01*
X0250181Y0018476D01*
X0250106Y0018330D01*
X0250026Y0018186D01*
X0249944Y0018044D01*
X0249858Y0017904D01*
X0249768Y0017767D01*
X0249675Y0017631D01*
X0249579Y0017498D01*
X0249479Y0017367D01*
X0249377Y0017239D01*
X0249271Y0017113D01*
X0249162Y0016990D01*
X0249050Y0016870D01*
X0248936Y0016752D01*
X0248818Y0016638D01*
X0248698Y0016526D01*
X0248575Y0016417D01*
X0248449Y0016311D01*
X0248321Y0016209D01*
X0248190Y0016109D01*
X0248057Y0016013D01*
X0247921Y0015920D01*
X0247784Y0015830D01*
X0247644Y0015744D01*
X0247502Y0015662D01*
X0247358Y0015582D01*
X0247212Y0015507D01*
X0247065Y0015435D01*
X0246915Y0015366D01*
X0246764Y0015301D01*
X0246612Y0015240D01*
X0246458Y0015183D01*
X0246302Y0015130D01*
X0246146Y0015080D01*
X0245988Y0015034D01*
X0245829Y0014993D01*
X0245669Y0014955D01*
X0245509Y0014921D01*
X0245347Y0014891D01*
X0245185Y0014864D01*
X0245022Y0014842D01*
X0244859Y0014824D01*
X0244695Y0014810D01*
X0244531Y0014800D01*
X0244367Y0014794D01*
X0244203Y0014792D01*
X0244039Y0014794D01*
X0243875Y0014800D01*
X0243711Y0014810D01*
X0243547Y0014824D01*
X0243384Y0014842D01*
X0243221Y0014864D01*
X0243059Y0014891D01*
X0242897Y0014921D01*
X0242737Y0014955D01*
X0242577Y0014993D01*
X0242418Y0015034D01*
X0242260Y0015080D01*
X0242104Y0015130D01*
X0241948Y0015183D01*
X0241794Y0015240D01*
X0241642Y0015301D01*
X0241491Y0015366D01*
X0241341Y0015435D01*
X0241194Y0015507D01*
X0241048Y0015582D01*
X0240904Y0015662D01*
X0240762Y0015744D01*
X0240622Y0015830D01*
X0240485Y0015920D01*
X0240349Y0016013D01*
X0240216Y0016109D01*
X0240085Y0016209D01*
X0239957Y0016311D01*
X0239831Y0016417D01*
X0239708Y0016526D01*
X0239588Y0016638D01*
X0239470Y0016752D01*
X0239356Y0016870D01*
X0239244Y0016990D01*
X0239135Y0017113D01*
X0239029Y0017239D01*
X0238927Y0017367D01*
X0238827Y0017498D01*
X0238731Y0017631D01*
X0238638Y0017767D01*
X0238548Y0017904D01*
X0238462Y0018044D01*
X0238380Y0018186D01*
X0238300Y0018330D01*
X0238225Y0018476D01*
X0238153Y0018623D01*
X0238084Y0018773D01*
X0238019Y0018924D01*
X0237958Y0019076D01*
X0237901Y0019230D01*
X0237848Y0019386D01*
X0237798Y0019542D01*
X0237752Y0019700D01*
X0237711Y0019859D01*
X0237673Y0020019D01*
X0237639Y0020179D01*
X0237609Y0020341D01*
X0237582Y0020503D01*
X0237560Y0020666D01*
X0237542Y0020829D01*
X0237528Y0020993D01*
X0237518Y0021157D01*
X0237512Y0021321D01*
X0237510Y0021485D01*
X0230703Y0021485D02*
X0230707Y0021816D01*
X0230719Y0022147D01*
X0230740Y0022478D01*
X0230768Y0022808D01*
X0230805Y0023138D01*
X0230849Y0023466D01*
X0230902Y0023793D01*
X0230962Y0024119D01*
X0231031Y0024443D01*
X0231108Y0024765D01*
X0231192Y0025086D01*
X0231284Y0025404D01*
X0231384Y0025720D01*
X0231492Y0026033D01*
X0231608Y0026344D01*
X0231731Y0026651D01*
X0231861Y0026956D01*
X0231999Y0027257D01*
X0232144Y0027555D01*
X0232297Y0027849D01*
X0232457Y0028139D01*
X0232624Y0028425D01*
X0232797Y0028707D01*
X0232978Y0028985D01*
X0233166Y0029258D01*
X0233360Y0029527D01*
X0233560Y0029791D01*
X0233767Y0030049D01*
X0233981Y0030303D01*
X0234200Y0030551D01*
X0234426Y0030794D01*
X0234657Y0031031D01*
X0234894Y0031262D01*
X0235137Y0031488D01*
X0235385Y0031707D01*
X0235639Y0031921D01*
X0235897Y0032128D01*
X0236161Y0032328D01*
X0236430Y0032522D01*
X0236703Y0032710D01*
X0236981Y0032891D01*
X0237263Y0033064D01*
X0237549Y0033231D01*
X0237839Y0033391D01*
X0238133Y0033544D01*
X0238431Y0033689D01*
X0238732Y0033827D01*
X0239037Y0033957D01*
X0239344Y0034080D01*
X0239655Y0034196D01*
X0239968Y0034304D01*
X0240284Y0034404D01*
X0240602Y0034496D01*
X0240923Y0034580D01*
X0241245Y0034657D01*
X0241569Y0034726D01*
X0241895Y0034786D01*
X0242222Y0034839D01*
X0242550Y0034883D01*
X0242880Y0034920D01*
X0243210Y0034948D01*
X0243541Y0034969D01*
X0243872Y0034981D01*
X0244203Y0034985D01*
X0244534Y0034981D01*
X0244865Y0034969D01*
X0245196Y0034948D01*
X0245526Y0034920D01*
X0245856Y0034883D01*
X0246184Y0034839D01*
X0246511Y0034786D01*
X0246837Y0034726D01*
X0247161Y0034657D01*
X0247483Y0034580D01*
X0247804Y0034496D01*
X0248122Y0034404D01*
X0248438Y0034304D01*
X0248751Y0034196D01*
X0249062Y0034080D01*
X0249369Y0033957D01*
X0249674Y0033827D01*
X0249975Y0033689D01*
X0250273Y0033544D01*
X0250567Y0033391D01*
X0250857Y0033231D01*
X0251143Y0033064D01*
X0251425Y0032891D01*
X0251703Y0032710D01*
X0251976Y0032522D01*
X0252245Y0032328D01*
X0252509Y0032128D01*
X0252767Y0031921D01*
X0253021Y0031707D01*
X0253269Y0031488D01*
X0253512Y0031262D01*
X0253749Y0031031D01*
X0253980Y0030794D01*
X0254206Y0030551D01*
X0254425Y0030303D01*
X0254639Y0030049D01*
X0254846Y0029791D01*
X0255046Y0029527D01*
X0255240Y0029258D01*
X0255428Y0028985D01*
X0255609Y0028707D01*
X0255782Y0028425D01*
X0255949Y0028139D01*
X0256109Y0027849D01*
X0256262Y0027555D01*
X0256407Y0027257D01*
X0256545Y0026956D01*
X0256675Y0026651D01*
X0256798Y0026344D01*
X0256914Y0026033D01*
X0257022Y0025720D01*
X0257122Y0025404D01*
X0257214Y0025086D01*
X0257298Y0024765D01*
X0257375Y0024443D01*
X0257444Y0024119D01*
X0257504Y0023793D01*
X0257557Y0023466D01*
X0257601Y0023138D01*
X0257638Y0022808D01*
X0257666Y0022478D01*
X0257687Y0022147D01*
X0257699Y0021816D01*
X0257703Y0021485D01*
X0257699Y0021154D01*
X0257687Y0020823D01*
X0257666Y0020492D01*
X0257638Y0020162D01*
X0257601Y0019832D01*
X0257557Y0019504D01*
X0257504Y0019177D01*
X0257444Y0018851D01*
X0257375Y0018527D01*
X0257298Y0018205D01*
X0257214Y0017884D01*
X0257122Y0017566D01*
X0257022Y0017250D01*
X0256914Y0016937D01*
X0256798Y0016626D01*
X0256675Y0016319D01*
X0256545Y0016014D01*
X0256407Y0015713D01*
X0256262Y0015415D01*
X0256109Y0015121D01*
X0255949Y0014831D01*
X0255782Y0014545D01*
X0255609Y0014263D01*
X0255428Y0013985D01*
X0255240Y0013712D01*
X0255046Y0013443D01*
X0254846Y0013179D01*
X0254639Y0012921D01*
X0254425Y0012667D01*
X0254206Y0012419D01*
X0253980Y0012176D01*
X0253749Y0011939D01*
X0253512Y0011708D01*
X0253269Y0011482D01*
X0253021Y0011263D01*
X0252767Y0011049D01*
X0252509Y0010842D01*
X0252245Y0010642D01*
X0251976Y0010448D01*
X0251703Y0010260D01*
X0251425Y0010079D01*
X0251143Y0009906D01*
X0250857Y0009739D01*
X0250567Y0009579D01*
X0250273Y0009426D01*
X0249975Y0009281D01*
X0249674Y0009143D01*
X0249369Y0009013D01*
X0249062Y0008890D01*
X0248751Y0008774D01*
X0248438Y0008666D01*
X0248122Y0008566D01*
X0247804Y0008474D01*
X0247483Y0008390D01*
X0247161Y0008313D01*
X0246837Y0008244D01*
X0246511Y0008184D01*
X0246184Y0008131D01*
X0245856Y0008087D01*
X0245526Y0008050D01*
X0245196Y0008022D01*
X0244865Y0008001D01*
X0244534Y0007989D01*
X0244203Y0007985D01*
X0243872Y0007989D01*
X0243541Y0008001D01*
X0243210Y0008022D01*
X0242880Y0008050D01*
X0242550Y0008087D01*
X0242222Y0008131D01*
X0241895Y0008184D01*
X0241569Y0008244D01*
X0241245Y0008313D01*
X0240923Y0008390D01*
X0240602Y0008474D01*
X0240284Y0008566D01*
X0239968Y0008666D01*
X0239655Y0008774D01*
X0239344Y0008890D01*
X0239037Y0009013D01*
X0238732Y0009143D01*
X0238431Y0009281D01*
X0238133Y0009426D01*
X0237839Y0009579D01*
X0237549Y0009739D01*
X0237263Y0009906D01*
X0236981Y0010079D01*
X0236703Y0010260D01*
X0236430Y0010448D01*
X0236161Y0010642D01*
X0235897Y0010842D01*
X0235639Y0011049D01*
X0235385Y0011263D01*
X0235137Y0011482D01*
X0234894Y0011708D01*
X0234657Y0011939D01*
X0234426Y0012176D01*
X0234200Y0012419D01*
X0233981Y0012667D01*
X0233767Y0012921D01*
X0233560Y0013179D01*
X0233360Y0013443D01*
X0233166Y0013712D01*
X0232978Y0013985D01*
X0232797Y0014263D01*
X0232624Y0014545D01*
X0232457Y0014831D01*
X0232297Y0015121D01*
X0232144Y0015415D01*
X0231999Y0015713D01*
X0231861Y0016014D01*
X0231731Y0016319D01*
X0231608Y0016626D01*
X0231492Y0016937D01*
X0231384Y0017250D01*
X0231284Y0017566D01*
X0231192Y0017884D01*
X0231108Y0018205D01*
X0231031Y0018527D01*
X0230962Y0018851D01*
X0230902Y0019177D01*
X0230849Y0019504D01*
X0230805Y0019832D01*
X0230768Y0020162D01*
X0230740Y0020492D01*
X0230719Y0020823D01*
X0230707Y0021154D01*
X0230703Y0021485D01*
D15*
X0109134Y0204241D02*
X0073701Y0204241D01*
X0073701Y0214280D01*
X0073701Y0222154D02*
X0073701Y0238493D01*
X0073701Y0246367D02*
X0073701Y0261367D01*
X0073700Y0261326D02*
X0073699Y0261379D01*
X0073701Y0261431D01*
X0073707Y0261483D01*
X0073717Y0261535D01*
X0073730Y0261586D01*
X0073747Y0261635D01*
X0073767Y0261684D01*
X0073791Y0261731D01*
X0073818Y0261776D01*
X0073848Y0261819D01*
X0073880Y0261860D01*
X0073916Y0261898D01*
X0073955Y0261934D01*
X0073995Y0261967D01*
X0074038Y0261997D01*
X0074083Y0262024D01*
X0074130Y0262047D01*
X0074178Y0262068D01*
X0074228Y0262085D01*
X0074279Y0262098D01*
X0074330Y0262108D01*
X0074383Y0262114D01*
X0074435Y0262116D01*
X0074487Y0262115D01*
X0074449Y0262115D02*
X0108386Y0262115D01*
X0108345Y0262115D02*
X0108398Y0262116D01*
X0108450Y0262114D01*
X0108502Y0262108D01*
X0108554Y0262098D01*
X0108605Y0262085D01*
X0108654Y0262068D01*
X0108703Y0262048D01*
X0108750Y0262024D01*
X0108795Y0261997D01*
X0108838Y0261967D01*
X0108879Y0261935D01*
X0108917Y0261899D01*
X0108953Y0261860D01*
X0108986Y0261820D01*
X0109016Y0261777D01*
X0109043Y0261732D01*
X0109066Y0261685D01*
X0109087Y0261637D01*
X0109104Y0261587D01*
X0109117Y0261536D01*
X0109127Y0261485D01*
X0109133Y0261432D01*
X0109135Y0261380D01*
X0109134Y0261328D01*
X0109134Y0261367D02*
X0109134Y0246367D01*
X0109134Y0238493D02*
X0109134Y0222154D01*
X0109134Y0214280D02*
X0109134Y0204241D01*
D16*
X0184615Y0228002D02*
X0185082Y0227535D01*
X0184615Y0228002D02*
X0184615Y0228936D01*
X0185082Y0229403D01*
X0185549Y0229403D01*
X0186016Y0228936D01*
X0186483Y0229403D01*
X0186950Y0229403D01*
X0187417Y0228936D01*
X0187417Y0228002D01*
X0186950Y0227535D01*
X0186016Y0228469D02*
X0186016Y0228936D01*
X0185045Y0236635D02*
X0184578Y0237102D01*
X0184578Y0238036D01*
X0185045Y0238503D01*
X0185512Y0238503D01*
X0187380Y0236635D01*
X0187380Y0238503D01*
X0187417Y0245146D02*
X0187417Y0247015D01*
X0187417Y0246081D02*
X0184615Y0246081D01*
X0185549Y0245146D01*
X0211615Y0225455D02*
X0213016Y0224053D01*
X0213016Y0225922D01*
X0214417Y0225455D02*
X0211615Y0225455D01*
X0216790Y0064139D02*
X0217557Y0064139D01*
X0217557Y0061070D01*
X0216790Y0061070D02*
X0216022Y0061837D01*
X0216022Y0063372D01*
X0216790Y0064139D01*
X0219092Y0063372D02*
X0219092Y0061837D01*
X0218324Y0061070D01*
X0216790Y0061070D01*
X0216022Y0059535D02*
X0216022Y0057233D01*
X0216790Y0056466D01*
X0218324Y0056466D01*
X0219092Y0057233D01*
X0219092Y0059535D01*
X0216022Y0054931D02*
X0216022Y0054164D01*
X0217557Y0052629D01*
X0219092Y0052629D02*
X0216022Y0052629D01*
X0216022Y0051094D02*
X0219092Y0051094D01*
X0219092Y0048792D01*
X0218324Y0048025D01*
X0216022Y0048025D01*
X0216790Y0046490D02*
X0216022Y0045723D01*
X0216022Y0044189D01*
X0216790Y0043421D01*
X0218324Y0043421D01*
X0219092Y0044189D01*
X0219092Y0045723D01*
X0218324Y0046490D01*
X0216790Y0046490D01*
X0216022Y0041887D02*
X0216022Y0039585D01*
X0216790Y0038817D01*
X0217557Y0039585D01*
X0217557Y0041119D01*
X0218324Y0041887D01*
X0219092Y0041119D01*
X0219092Y0038817D01*
X0221988Y0041119D02*
X0226592Y0041119D01*
X0226592Y0038817D01*
X0225824Y0038050D01*
X0224290Y0038050D01*
X0223522Y0038817D01*
X0223522Y0041119D01*
X0223522Y0042654D02*
X0225824Y0042654D01*
X0226592Y0043421D01*
X0225824Y0044189D01*
X0226592Y0044956D01*
X0225824Y0045723D01*
X0223522Y0045723D01*
X0223522Y0048025D02*
X0223522Y0049560D01*
X0224290Y0050327D01*
X0226592Y0050327D01*
X0226592Y0048025D01*
X0225824Y0047258D01*
X0225057Y0048025D01*
X0225057Y0050327D01*
X0225057Y0051862D02*
X0223522Y0053396D01*
X0223522Y0054164D01*
X0224290Y0055698D02*
X0223522Y0056466D01*
X0223522Y0058000D01*
X0224290Y0058768D01*
X0225057Y0058768D01*
X0225057Y0055698D01*
X0225824Y0055698D02*
X0224290Y0055698D01*
X0225824Y0055698D02*
X0226592Y0056466D01*
X0226592Y0058000D01*
X0226592Y0051862D02*
X0223522Y0051862D01*
X0223522Y0036515D02*
X0223522Y0035748D01*
X0225057Y0034213D01*
X0225057Y0032679D02*
X0225057Y0030377D01*
X0225824Y0029609D01*
X0226592Y0030377D01*
X0226592Y0032679D01*
X0224290Y0032679D01*
X0223522Y0031911D01*
X0223522Y0030377D01*
X0224290Y0028075D02*
X0226592Y0028075D01*
X0224290Y0028075D02*
X0223522Y0027307D01*
X0223522Y0025773D01*
X0224290Y0025006D01*
X0221988Y0025006D02*
X0226592Y0025006D01*
X0220626Y0020402D02*
X0216022Y0020402D01*
X0216022Y0022704D01*
X0216790Y0023471D01*
X0218324Y0023471D01*
X0219092Y0022704D01*
X0219092Y0020402D01*
X0218324Y0018867D02*
X0216790Y0018867D01*
X0216022Y0018100D01*
X0216022Y0016565D01*
X0216790Y0015798D01*
X0218324Y0015798D01*
X0219092Y0016565D01*
X0219092Y0018100D01*
X0218324Y0018867D01*
X0218324Y0025006D02*
X0216790Y0025006D01*
X0216022Y0025773D01*
X0216022Y0027307D01*
X0216790Y0028075D01*
X0217557Y0028075D01*
X0217557Y0025006D01*
X0218324Y0025006D02*
X0219092Y0025773D01*
X0219092Y0027307D01*
X0219092Y0029609D02*
X0216022Y0029609D01*
X0216022Y0031911D01*
X0216790Y0032679D01*
X0219092Y0032679D01*
X0223522Y0034213D02*
X0226592Y0034213D01*
D17*
X0080394Y0066209D03*
X0077441Y0066209D03*
X0051644Y0066209D03*
X0048691Y0066209D03*
D18*
X0050167Y0066209D03*
X0078917Y0066209D03*
D19*
X0184792Y0048574D02*
X0184792Y0044774D01*
X0188892Y0043974D01*
X0189192Y0042874D01*
X0189592Y0042074D01*
X0190192Y0040874D01*
X0187792Y0037474D01*
X0188392Y0036774D01*
X0189092Y0036074D01*
X0189792Y0035374D01*
X0190492Y0034774D01*
X0193892Y0037074D01*
X0194792Y0036574D01*
X0195692Y0036174D01*
X0196492Y0035874D01*
X0197292Y0035574D01*
X0197892Y0031574D01*
X0199092Y0031474D01*
X0201692Y0031474D01*
X0202392Y0035674D01*
X0203392Y0035874D01*
X0204392Y0036274D01*
X0205292Y0036674D01*
X0206092Y0037074D01*
X0209292Y0034674D01*
X0209992Y0035274D01*
X0210692Y0035974D01*
X0211392Y0036674D01*
X0211892Y0037274D01*
X0209592Y0040674D01*
X0209992Y0041374D01*
X0210292Y0042074D01*
X0210592Y0042674D01*
X0203792Y0045074D01*
X0203456Y0044370D01*
X0202995Y0043741D01*
X0202425Y0043209D01*
X0201766Y0042792D01*
X0201041Y0042504D01*
X0200275Y0042357D01*
X0199496Y0042354D01*
X0198729Y0042496D01*
X0198002Y0042778D01*
X0197340Y0043190D01*
X0196766Y0043718D01*
X0196300Y0044343D01*
X0195959Y0045044D01*
X0195754Y0045796D01*
X0195692Y0046574D01*
X0195717Y0047364D01*
X0195890Y0048136D01*
X0196205Y0048862D01*
X0196650Y0049515D01*
X0197210Y0050074D01*
X0197864Y0050518D01*
X0198590Y0050831D01*
X0199363Y0051003D01*
X0200153Y0051027D01*
X0200934Y0050902D01*
X0201678Y0050633D01*
X0202358Y0050229D01*
X0202950Y0049705D01*
X0203434Y0049079D01*
X0203792Y0048374D01*
X0210492Y0050974D01*
X0210092Y0051674D01*
X0209692Y0052374D01*
X0209292Y0053074D01*
X0211692Y0056374D01*
X0210992Y0057074D01*
X0210392Y0057674D01*
X0209692Y0058274D01*
X0208992Y0058874D01*
X0205392Y0056474D01*
X0204592Y0056974D01*
X0203692Y0057274D01*
X0202792Y0057574D01*
X0202092Y0057774D01*
X0201392Y0061774D01*
X0200292Y0061874D01*
X0199392Y0061874D01*
X0198592Y0061774D01*
X0197592Y0061674D01*
X0196892Y0057574D01*
X0195792Y0057174D01*
X0195192Y0056974D01*
X0194492Y0056574D01*
X0193692Y0056074D01*
X0190492Y0058574D01*
X0189792Y0057974D01*
X0189092Y0057274D01*
X0188392Y0056474D01*
X0187692Y0055674D01*
X0190092Y0052274D01*
X0189692Y0051374D01*
X0189292Y0050574D01*
X0189092Y0049874D01*
X0188892Y0049174D01*
X0184792Y0048574D01*
X0184792Y0048450D02*
X0196026Y0048450D01*
X0195940Y0048252D02*
X0184792Y0048252D01*
X0184792Y0048053D02*
X0195871Y0048053D01*
X0195827Y0047855D02*
X0184792Y0047855D01*
X0184792Y0047656D02*
X0195782Y0047656D01*
X0195738Y0047458D02*
X0184792Y0047458D01*
X0184792Y0047259D02*
X0195714Y0047259D01*
X0195707Y0047061D02*
X0184792Y0047061D01*
X0184792Y0046862D02*
X0195701Y0046862D01*
X0195695Y0046664D02*
X0184792Y0046664D01*
X0184792Y0046465D02*
X0195700Y0046465D01*
X0195716Y0046267D02*
X0184792Y0046267D01*
X0184792Y0046068D02*
X0195732Y0046068D01*
X0195748Y0045870D02*
X0184792Y0045870D01*
X0184792Y0045671D02*
X0195788Y0045671D01*
X0195842Y0045472D02*
X0184792Y0045472D01*
X0184792Y0045274D02*
X0195896Y0045274D01*
X0195950Y0045075D02*
X0184792Y0045075D01*
X0184792Y0044877D02*
X0196040Y0044877D01*
X0196137Y0044678D02*
X0185280Y0044678D01*
X0186297Y0044480D02*
X0196234Y0044480D01*
X0196346Y0044281D02*
X0187314Y0044281D01*
X0188332Y0044083D02*
X0196494Y0044083D01*
X0196642Y0043884D02*
X0188916Y0043884D01*
X0188970Y0043686D02*
X0196801Y0043686D01*
X0197017Y0043487D02*
X0189024Y0043487D01*
X0189078Y0043289D02*
X0197232Y0043289D01*
X0197500Y0043090D02*
X0189133Y0043090D01*
X0189187Y0042892D02*
X0197819Y0042892D01*
X0198219Y0042693D02*
X0189282Y0042693D01*
X0189381Y0042495D02*
X0198734Y0042495D01*
X0200991Y0042495D02*
X0210502Y0042495D01*
X0210536Y0042693D02*
X0201517Y0042693D01*
X0201924Y0042892D02*
X0209973Y0042892D01*
X0209411Y0043090D02*
X0202237Y0043090D01*
X0202510Y0043289D02*
X0208849Y0043289D01*
X0208286Y0043487D02*
X0202723Y0043487D01*
X0202935Y0043686D02*
X0207724Y0043686D01*
X0207161Y0043884D02*
X0203100Y0043884D01*
X0203245Y0044083D02*
X0206599Y0044083D01*
X0206036Y0044281D02*
X0203391Y0044281D01*
X0203508Y0044480D02*
X0205474Y0044480D01*
X0204911Y0044678D02*
X0203603Y0044678D01*
X0203698Y0044877D02*
X0204349Y0044877D01*
X0203989Y0048450D02*
X0203753Y0048450D01*
X0203652Y0048649D02*
X0204501Y0048649D01*
X0205012Y0048847D02*
X0203552Y0048847D01*
X0203451Y0049046D02*
X0205524Y0049046D01*
X0206035Y0049244D02*
X0203306Y0049244D01*
X0203153Y0049443D02*
X0206547Y0049443D01*
X0207058Y0049641D02*
X0203000Y0049641D01*
X0202798Y0049840D02*
X0207570Y0049840D01*
X0208081Y0050038D02*
X0202574Y0050038D01*
X0202345Y0050237D02*
X0208593Y0050237D01*
X0209104Y0050435D02*
X0202011Y0050435D01*
X0201675Y0050634D02*
X0209616Y0050634D01*
X0210128Y0050832D02*
X0201126Y0050832D01*
X0198595Y0050832D02*
X0189421Y0050832D01*
X0189322Y0050634D02*
X0198132Y0050634D01*
X0197742Y0050435D02*
X0189252Y0050435D01*
X0189195Y0050237D02*
X0197449Y0050237D01*
X0197174Y0050038D02*
X0189139Y0050038D01*
X0189082Y0049840D02*
X0196975Y0049840D01*
X0196776Y0049641D02*
X0189025Y0049641D01*
X0188969Y0049443D02*
X0196600Y0049443D01*
X0196465Y0049244D02*
X0188912Y0049244D01*
X0188018Y0049046D02*
X0196330Y0049046D01*
X0196198Y0048847D02*
X0186661Y0048847D01*
X0185305Y0048649D02*
X0196112Y0048649D01*
X0189716Y0051428D02*
X0210232Y0051428D01*
X0210119Y0051626D02*
X0189804Y0051626D01*
X0189892Y0051825D02*
X0210005Y0051825D01*
X0209892Y0052023D02*
X0189981Y0052023D01*
X0190069Y0052222D02*
X0209778Y0052222D01*
X0209665Y0052420D02*
X0189988Y0052420D01*
X0189848Y0052619D02*
X0209552Y0052619D01*
X0209438Y0052817D02*
X0189708Y0052817D01*
X0189568Y0053016D02*
X0209325Y0053016D01*
X0209394Y0053214D02*
X0189428Y0053214D01*
X0189287Y0053413D02*
X0209539Y0053413D01*
X0209683Y0053611D02*
X0189147Y0053611D01*
X0189007Y0053810D02*
X0209827Y0053810D01*
X0209972Y0054008D02*
X0188867Y0054008D01*
X0188727Y0054207D02*
X0210116Y0054207D01*
X0210260Y0054405D02*
X0188587Y0054405D01*
X0188447Y0054604D02*
X0210405Y0054604D01*
X0210549Y0054803D02*
X0188307Y0054803D01*
X0188166Y0055001D02*
X0210693Y0055001D01*
X0210838Y0055200D02*
X0188026Y0055200D01*
X0187886Y0055398D02*
X0210982Y0055398D01*
X0211127Y0055597D02*
X0187746Y0055597D01*
X0187798Y0055795D02*
X0211271Y0055795D01*
X0211415Y0055994D02*
X0187972Y0055994D01*
X0188145Y0056192D02*
X0193540Y0056192D01*
X0193286Y0056391D02*
X0188319Y0056391D01*
X0188493Y0056589D02*
X0193032Y0056589D01*
X0192778Y0056788D02*
X0188666Y0056788D01*
X0188840Y0056986D02*
X0192524Y0056986D01*
X0192270Y0057185D02*
X0189014Y0057185D01*
X0189201Y0057383D02*
X0192016Y0057383D01*
X0191761Y0057582D02*
X0189400Y0057582D01*
X0189598Y0057780D02*
X0191507Y0057780D01*
X0191253Y0057979D02*
X0189798Y0057979D01*
X0190029Y0058177D02*
X0190999Y0058177D01*
X0190745Y0058376D02*
X0190261Y0058376D01*
X0193881Y0056192D02*
X0211560Y0056192D01*
X0211675Y0056391D02*
X0194199Y0056391D01*
X0194519Y0056589D02*
X0205207Y0056589D01*
X0205565Y0056589D02*
X0211476Y0056589D01*
X0211278Y0056788D02*
X0205863Y0056788D01*
X0206161Y0056986D02*
X0211079Y0056986D01*
X0210881Y0057185D02*
X0206458Y0057185D01*
X0206756Y0057383D02*
X0210682Y0057383D01*
X0210484Y0057582D02*
X0207054Y0057582D01*
X0207352Y0057780D02*
X0210267Y0057780D01*
X0210036Y0057979D02*
X0207649Y0057979D01*
X0207947Y0058177D02*
X0209804Y0058177D01*
X0209573Y0058376D02*
X0208245Y0058376D01*
X0208543Y0058574D02*
X0209341Y0058574D01*
X0209109Y0058773D02*
X0208840Y0058773D01*
X0204889Y0056788D02*
X0194866Y0056788D01*
X0195229Y0056986D02*
X0204554Y0056986D01*
X0203959Y0057185D02*
X0195822Y0057185D01*
X0196368Y0057383D02*
X0203363Y0057383D01*
X0202764Y0057582D02*
X0196893Y0057582D01*
X0196927Y0057780D02*
X0202091Y0057780D01*
X0202056Y0057979D02*
X0196961Y0057979D01*
X0196995Y0058177D02*
X0202021Y0058177D01*
X0201986Y0058376D02*
X0197029Y0058376D01*
X0197063Y0058574D02*
X0201952Y0058574D01*
X0201917Y0058773D02*
X0197096Y0058773D01*
X0197130Y0058971D02*
X0201882Y0058971D01*
X0201847Y0059170D02*
X0197164Y0059170D01*
X0197198Y0059368D02*
X0201813Y0059368D01*
X0201778Y0059567D02*
X0197232Y0059567D01*
X0197266Y0059765D02*
X0201743Y0059765D01*
X0201708Y0059964D02*
X0197300Y0059964D01*
X0197334Y0060162D02*
X0201674Y0060162D01*
X0201639Y0060361D02*
X0197368Y0060361D01*
X0197402Y0060559D02*
X0201604Y0060559D01*
X0201570Y0060758D02*
X0197435Y0060758D01*
X0197469Y0060956D02*
X0201535Y0060956D01*
X0201500Y0061155D02*
X0197503Y0061155D01*
X0197537Y0061353D02*
X0201465Y0061353D01*
X0201431Y0061552D02*
X0197571Y0061552D01*
X0198360Y0061750D02*
X0201396Y0061750D01*
X0210346Y0051229D02*
X0189620Y0051229D01*
X0189520Y0051031D02*
X0210459Y0051031D01*
X0210403Y0042296D02*
X0189480Y0042296D01*
X0189580Y0042098D02*
X0210304Y0042098D01*
X0210217Y0041899D02*
X0189679Y0041899D01*
X0189778Y0041701D02*
X0210132Y0041701D01*
X0210047Y0041502D02*
X0189877Y0041502D01*
X0189977Y0041304D02*
X0209952Y0041304D01*
X0209838Y0041105D02*
X0190076Y0041105D01*
X0190175Y0040907D02*
X0209725Y0040907D01*
X0209611Y0040708D02*
X0190075Y0040708D01*
X0189935Y0040510D02*
X0209703Y0040510D01*
X0209837Y0040311D02*
X0189795Y0040311D01*
X0189655Y0040113D02*
X0209971Y0040113D01*
X0210105Y0039914D02*
X0189514Y0039914D01*
X0189374Y0039716D02*
X0210240Y0039716D01*
X0210374Y0039517D02*
X0189234Y0039517D01*
X0189094Y0039319D02*
X0210508Y0039319D01*
X0210643Y0039120D02*
X0188954Y0039120D01*
X0188814Y0038922D02*
X0210777Y0038922D01*
X0210911Y0038723D02*
X0188674Y0038723D01*
X0188534Y0038525D02*
X0211045Y0038525D01*
X0211180Y0038326D02*
X0188393Y0038326D01*
X0188253Y0038128D02*
X0211314Y0038128D01*
X0211448Y0037929D02*
X0188113Y0037929D01*
X0187973Y0037731D02*
X0211583Y0037731D01*
X0211717Y0037532D02*
X0187833Y0037532D01*
X0187912Y0037334D02*
X0211851Y0037334D01*
X0211776Y0037135D02*
X0188082Y0037135D01*
X0188252Y0036937D02*
X0193689Y0036937D01*
X0193396Y0036738D02*
X0188427Y0036738D01*
X0188626Y0036539D02*
X0193102Y0036539D01*
X0192809Y0036341D02*
X0188824Y0036341D01*
X0189023Y0036142D02*
X0192515Y0036142D01*
X0192222Y0035944D02*
X0189221Y0035944D01*
X0189420Y0035745D02*
X0191928Y0035745D01*
X0191635Y0035547D02*
X0189618Y0035547D01*
X0189821Y0035348D02*
X0191341Y0035348D01*
X0191048Y0035150D02*
X0190053Y0035150D01*
X0190284Y0034951D02*
X0190755Y0034951D01*
X0194139Y0036937D02*
X0205817Y0036937D01*
X0205420Y0036738D02*
X0194496Y0036738D01*
X0194869Y0036539D02*
X0204990Y0036539D01*
X0204543Y0036341D02*
X0195315Y0036341D01*
X0195775Y0036142D02*
X0204064Y0036142D01*
X0203568Y0035944D02*
X0196304Y0035944D01*
X0196834Y0035745D02*
X0202751Y0035745D01*
X0202371Y0035547D02*
X0197296Y0035547D01*
X0197326Y0035348D02*
X0202338Y0035348D01*
X0202304Y0035150D02*
X0197355Y0035150D01*
X0197385Y0034951D02*
X0202271Y0034951D01*
X0202238Y0034753D02*
X0197415Y0034753D01*
X0197445Y0034554D02*
X0202205Y0034554D01*
X0202172Y0034356D02*
X0197474Y0034356D01*
X0197504Y0034157D02*
X0202139Y0034157D01*
X0202106Y0033959D02*
X0197534Y0033959D01*
X0197564Y0033760D02*
X0202073Y0033760D01*
X0202040Y0033562D02*
X0197594Y0033562D01*
X0197623Y0033363D02*
X0202007Y0033363D01*
X0201974Y0033165D02*
X0197653Y0033165D01*
X0197683Y0032966D02*
X0201941Y0032966D01*
X0201907Y0032768D02*
X0197713Y0032768D01*
X0197742Y0032569D02*
X0201874Y0032569D01*
X0201841Y0032371D02*
X0197772Y0032371D01*
X0197802Y0032172D02*
X0201808Y0032172D01*
X0201775Y0031974D02*
X0197832Y0031974D01*
X0197861Y0031775D02*
X0201742Y0031775D01*
X0201709Y0031577D02*
X0197891Y0031577D01*
X0206275Y0036937D02*
X0211611Y0036937D01*
X0211445Y0036738D02*
X0206539Y0036738D01*
X0206804Y0036539D02*
X0211258Y0036539D01*
X0211059Y0036341D02*
X0207069Y0036341D01*
X0207333Y0036142D02*
X0210861Y0036142D01*
X0210662Y0035944D02*
X0207598Y0035944D01*
X0207863Y0035745D02*
X0210464Y0035745D01*
X0210265Y0035547D02*
X0208127Y0035547D01*
X0208392Y0035348D02*
X0210067Y0035348D01*
X0209847Y0035150D02*
X0208657Y0035150D01*
X0208921Y0034951D02*
X0209616Y0034951D01*
X0209384Y0034753D02*
X0209186Y0034753D01*
M02*
