%
M48
M72
T01C0.01181
T02C0.03740
T03C0.04000
T04C0.04134
T05C0.06102
T06C0.06299
T07C0.07087
T08C0.12598
%
T01
X50167Y73050
X56417Y83050
X78917Y73050
X83917Y78050
X93917Y83050
X105167Y86800
X100167Y93050
X118917Y86800
X127042Y93675
X133917Y86800
X145167Y88050
X150167Y91800
X160792Y93675
X175167Y88050
X188917Y95550
X195792Y101800
X206417Y95550
X215167Y99300
X223917Y94300
X233292Y91175
X240167Y101800
X248917Y106800
X253917Y106800
X258917Y106800
X259542Y96800
X253917Y96800
X249542Y94925
X246417Y91175
X230167Y109300
X223917Y113050
X217667Y119300
X210167Y126800
X200167Y131800
X210167Y136800
X217667Y144300
X223917Y150550
X230167Y154300
X237667Y150550
X243917Y150550
X248917Y154300
X253917Y156800
X258917Y156800
X258917Y166800
X253917Y166800
X248917Y166800
X240167Y161800
X231417Y169300
X223917Y169300
X215167Y164300
X207667Y156800
X200167Y150550
X178917Y171800
X167667Y144300
X172667Y136800
X172667Y128050
X175792Y118675
X158917Y131800
X160167Y135550
X157667Y144300
X142667Y146800
X133917Y141800
X133917Y136800
X141417Y130550
X135167Y129300
X141417Y123050
X142667Y118050
X156417Y121800
X200167Y114300
X207667Y106800
X213917Y87425
X206417Y78050
X175167Y74300
X165167Y74300
X231417Y120550
X238917Y114300
X236417Y130550
X251417Y130550
X258917Y118050
X272667Y110550
X272667Y93050
X272667Y131800
X258917Y145550
X272667Y153050
X272667Y170550
X258917Y178050
X251417Y188050
X236417Y188050
X231417Y178050
X239542Y172425
X272667Y186800
X223917Y218050
X218917Y218050
X213917Y218050
X213917Y223050
X218917Y223050
X223917Y223050
X223917Y229300
X223917Y234300
X223917Y239300
X223917Y245550
X218917Y245550
X213917Y245550
X213917Y250550
X218917Y250550
X223917Y250550
X206417Y245550
X206417Y240550
X201417Y240550
X203917Y234300
X197667Y234300
X201417Y228050
X206417Y228050
X206417Y223050
X220167Y209300
X211417Y200550
X188917Y219615
X182667Y219615
X182667Y214615
X176417Y219615
X172667Y231800
X181417Y234300
X157667Y231800
X141417Y208050
X132667Y199300
X123917Y208050
X71417Y208050
X71417Y230550
X71417Y251800
T02
X134321Y159851
X152825Y159851
X162667Y159851
X172510Y159851
X190620Y150698
X190620Y131800
X190620Y112902
X172510Y103749
X152825Y103749
X134321Y103749
T03
X140167Y67300
X130167Y66300
X120167Y67300
X110167Y66300
X100167Y67300
X90167Y66300
X150167Y66300
X160167Y67300
X170167Y66300
X180167Y67300
X163417Y183050
X164417Y193050
X163417Y203050
X164417Y213050
T04
X123297Y159851
X123297Y137509
X123297Y116249
X103612Y103749
X142982Y103749
X182352Y103749
X83927Y159851
X44557Y159851
X44557Y126091
X64242Y103749
T05
X166211Y112902
X166211Y150698
T06
X91417Y242430
T07
X91417Y224713
T08
X47352Y21485
X244203Y21485
X244203Y238020
X47352Y238020
M30
