G75*
%MOIN*%
%OFA0B0*%
%FSLAX25Y25*%
%IPPOS*%
%LPD*%
%AMOC8*
5,1,8,0,0,1.08239X$1,22.5*
%
%ADD10C,0.00000*%
%ADD11R,0.07874X0.07874*%
%ADD12C,0.06358*%
%ADD13C,0.23000*%
%ADD14C,0.01600*%
%ADD15C,0.07400*%
%ADD16C,0.02362*%
%ADD17C,0.01969*%
%ADD18C,0.02400*%
%ADD19C,0.01200*%
D10*
X0027667Y0001800D02*
X0027667Y0257706D01*
X0283573Y0257706D01*
X0283573Y0001800D01*
X0027667Y0001800D01*
X0163160Y0112902D02*
X0163162Y0113012D01*
X0163168Y0113122D01*
X0163178Y0113232D01*
X0163192Y0113341D01*
X0163210Y0113450D01*
X0163231Y0113558D01*
X0163257Y0113665D01*
X0163286Y0113771D01*
X0163320Y0113876D01*
X0163357Y0113980D01*
X0163398Y0114082D01*
X0163442Y0114183D01*
X0163490Y0114282D01*
X0163542Y0114380D01*
X0163597Y0114475D01*
X0163655Y0114568D01*
X0163717Y0114659D01*
X0163782Y0114748D01*
X0163850Y0114835D01*
X0163922Y0114919D01*
X0163996Y0115000D01*
X0164073Y0115079D01*
X0164153Y0115155D01*
X0164236Y0115227D01*
X0164321Y0115297D01*
X0164409Y0115364D01*
X0164499Y0115427D01*
X0164591Y0115487D01*
X0164685Y0115544D01*
X0164782Y0115598D01*
X0164880Y0115647D01*
X0164980Y0115694D01*
X0165082Y0115736D01*
X0165185Y0115775D01*
X0165289Y0115810D01*
X0165395Y0115842D01*
X0165501Y0115869D01*
X0165609Y0115893D01*
X0165717Y0115913D01*
X0165826Y0115929D01*
X0165936Y0115941D01*
X0166046Y0115949D01*
X0166156Y0115953D01*
X0166266Y0115953D01*
X0166376Y0115949D01*
X0166486Y0115941D01*
X0166596Y0115929D01*
X0166705Y0115913D01*
X0166813Y0115893D01*
X0166921Y0115869D01*
X0167027Y0115842D01*
X0167133Y0115810D01*
X0167237Y0115775D01*
X0167340Y0115736D01*
X0167442Y0115694D01*
X0167542Y0115647D01*
X0167640Y0115598D01*
X0167736Y0115544D01*
X0167831Y0115487D01*
X0167923Y0115427D01*
X0168013Y0115364D01*
X0168101Y0115297D01*
X0168186Y0115227D01*
X0168269Y0115155D01*
X0168349Y0115079D01*
X0168426Y0115000D01*
X0168500Y0114919D01*
X0168572Y0114835D01*
X0168640Y0114748D01*
X0168705Y0114659D01*
X0168767Y0114568D01*
X0168825Y0114475D01*
X0168880Y0114380D01*
X0168932Y0114282D01*
X0168980Y0114183D01*
X0169024Y0114082D01*
X0169065Y0113980D01*
X0169102Y0113876D01*
X0169136Y0113771D01*
X0169165Y0113665D01*
X0169191Y0113558D01*
X0169212Y0113450D01*
X0169230Y0113341D01*
X0169244Y0113232D01*
X0169254Y0113122D01*
X0169260Y0113012D01*
X0169262Y0112902D01*
X0169260Y0112792D01*
X0169254Y0112682D01*
X0169244Y0112572D01*
X0169230Y0112463D01*
X0169212Y0112354D01*
X0169191Y0112246D01*
X0169165Y0112139D01*
X0169136Y0112033D01*
X0169102Y0111928D01*
X0169065Y0111824D01*
X0169024Y0111722D01*
X0168980Y0111621D01*
X0168932Y0111522D01*
X0168880Y0111424D01*
X0168825Y0111329D01*
X0168767Y0111236D01*
X0168705Y0111145D01*
X0168640Y0111056D01*
X0168572Y0110969D01*
X0168500Y0110885D01*
X0168426Y0110804D01*
X0168349Y0110725D01*
X0168269Y0110649D01*
X0168186Y0110577D01*
X0168101Y0110507D01*
X0168013Y0110440D01*
X0167923Y0110377D01*
X0167831Y0110317D01*
X0167737Y0110260D01*
X0167640Y0110206D01*
X0167542Y0110157D01*
X0167442Y0110110D01*
X0167340Y0110068D01*
X0167237Y0110029D01*
X0167133Y0109994D01*
X0167027Y0109962D01*
X0166921Y0109935D01*
X0166813Y0109911D01*
X0166705Y0109891D01*
X0166596Y0109875D01*
X0166486Y0109863D01*
X0166376Y0109855D01*
X0166266Y0109851D01*
X0166156Y0109851D01*
X0166046Y0109855D01*
X0165936Y0109863D01*
X0165826Y0109875D01*
X0165717Y0109891D01*
X0165609Y0109911D01*
X0165501Y0109935D01*
X0165395Y0109962D01*
X0165289Y0109994D01*
X0165185Y0110029D01*
X0165082Y0110068D01*
X0164980Y0110110D01*
X0164880Y0110157D01*
X0164782Y0110206D01*
X0164685Y0110260D01*
X0164591Y0110317D01*
X0164499Y0110377D01*
X0164409Y0110440D01*
X0164321Y0110507D01*
X0164236Y0110577D01*
X0164153Y0110649D01*
X0164073Y0110725D01*
X0163996Y0110804D01*
X0163922Y0110885D01*
X0163850Y0110969D01*
X0163782Y0111056D01*
X0163717Y0111145D01*
X0163655Y0111236D01*
X0163597Y0111329D01*
X0163542Y0111424D01*
X0163490Y0111522D01*
X0163442Y0111621D01*
X0163398Y0111722D01*
X0163357Y0111824D01*
X0163320Y0111928D01*
X0163286Y0112033D01*
X0163257Y0112139D01*
X0163231Y0112246D01*
X0163210Y0112354D01*
X0163192Y0112463D01*
X0163178Y0112572D01*
X0163168Y0112682D01*
X0163162Y0112792D01*
X0163160Y0112902D01*
X0163160Y0150698D02*
X0163162Y0150808D01*
X0163168Y0150918D01*
X0163178Y0151028D01*
X0163192Y0151137D01*
X0163210Y0151246D01*
X0163231Y0151354D01*
X0163257Y0151461D01*
X0163286Y0151567D01*
X0163320Y0151672D01*
X0163357Y0151776D01*
X0163398Y0151878D01*
X0163442Y0151979D01*
X0163490Y0152078D01*
X0163542Y0152176D01*
X0163597Y0152271D01*
X0163655Y0152364D01*
X0163717Y0152455D01*
X0163782Y0152544D01*
X0163850Y0152631D01*
X0163922Y0152715D01*
X0163996Y0152796D01*
X0164073Y0152875D01*
X0164153Y0152951D01*
X0164236Y0153023D01*
X0164321Y0153093D01*
X0164409Y0153160D01*
X0164499Y0153223D01*
X0164591Y0153283D01*
X0164685Y0153340D01*
X0164782Y0153394D01*
X0164880Y0153443D01*
X0164980Y0153490D01*
X0165082Y0153532D01*
X0165185Y0153571D01*
X0165289Y0153606D01*
X0165395Y0153638D01*
X0165501Y0153665D01*
X0165609Y0153689D01*
X0165717Y0153709D01*
X0165826Y0153725D01*
X0165936Y0153737D01*
X0166046Y0153745D01*
X0166156Y0153749D01*
X0166266Y0153749D01*
X0166376Y0153745D01*
X0166486Y0153737D01*
X0166596Y0153725D01*
X0166705Y0153709D01*
X0166813Y0153689D01*
X0166921Y0153665D01*
X0167027Y0153638D01*
X0167133Y0153606D01*
X0167237Y0153571D01*
X0167340Y0153532D01*
X0167442Y0153490D01*
X0167542Y0153443D01*
X0167640Y0153394D01*
X0167736Y0153340D01*
X0167831Y0153283D01*
X0167923Y0153223D01*
X0168013Y0153160D01*
X0168101Y0153093D01*
X0168186Y0153023D01*
X0168269Y0152951D01*
X0168349Y0152875D01*
X0168426Y0152796D01*
X0168500Y0152715D01*
X0168572Y0152631D01*
X0168640Y0152544D01*
X0168705Y0152455D01*
X0168767Y0152364D01*
X0168825Y0152271D01*
X0168880Y0152176D01*
X0168932Y0152078D01*
X0168980Y0151979D01*
X0169024Y0151878D01*
X0169065Y0151776D01*
X0169102Y0151672D01*
X0169136Y0151567D01*
X0169165Y0151461D01*
X0169191Y0151354D01*
X0169212Y0151246D01*
X0169230Y0151137D01*
X0169244Y0151028D01*
X0169254Y0150918D01*
X0169260Y0150808D01*
X0169262Y0150698D01*
X0169260Y0150588D01*
X0169254Y0150478D01*
X0169244Y0150368D01*
X0169230Y0150259D01*
X0169212Y0150150D01*
X0169191Y0150042D01*
X0169165Y0149935D01*
X0169136Y0149829D01*
X0169102Y0149724D01*
X0169065Y0149620D01*
X0169024Y0149518D01*
X0168980Y0149417D01*
X0168932Y0149318D01*
X0168880Y0149220D01*
X0168825Y0149125D01*
X0168767Y0149032D01*
X0168705Y0148941D01*
X0168640Y0148852D01*
X0168572Y0148765D01*
X0168500Y0148681D01*
X0168426Y0148600D01*
X0168349Y0148521D01*
X0168269Y0148445D01*
X0168186Y0148373D01*
X0168101Y0148303D01*
X0168013Y0148236D01*
X0167923Y0148173D01*
X0167831Y0148113D01*
X0167737Y0148056D01*
X0167640Y0148002D01*
X0167542Y0147953D01*
X0167442Y0147906D01*
X0167340Y0147864D01*
X0167237Y0147825D01*
X0167133Y0147790D01*
X0167027Y0147758D01*
X0166921Y0147731D01*
X0166813Y0147707D01*
X0166705Y0147687D01*
X0166596Y0147671D01*
X0166486Y0147659D01*
X0166376Y0147651D01*
X0166266Y0147647D01*
X0166156Y0147647D01*
X0166046Y0147651D01*
X0165936Y0147659D01*
X0165826Y0147671D01*
X0165717Y0147687D01*
X0165609Y0147707D01*
X0165501Y0147731D01*
X0165395Y0147758D01*
X0165289Y0147790D01*
X0165185Y0147825D01*
X0165082Y0147864D01*
X0164980Y0147906D01*
X0164880Y0147953D01*
X0164782Y0148002D01*
X0164685Y0148056D01*
X0164591Y0148113D01*
X0164499Y0148173D01*
X0164409Y0148236D01*
X0164321Y0148303D01*
X0164236Y0148373D01*
X0164153Y0148445D01*
X0164073Y0148521D01*
X0163996Y0148600D01*
X0163922Y0148681D01*
X0163850Y0148765D01*
X0163782Y0148852D01*
X0163717Y0148941D01*
X0163655Y0149032D01*
X0163597Y0149125D01*
X0163542Y0149220D01*
X0163490Y0149318D01*
X0163442Y0149417D01*
X0163398Y0149518D01*
X0163357Y0149620D01*
X0163320Y0149724D01*
X0163286Y0149829D01*
X0163257Y0149935D01*
X0163231Y0150042D01*
X0163210Y0150150D01*
X0163192Y0150259D01*
X0163178Y0150368D01*
X0163168Y0150478D01*
X0163162Y0150588D01*
X0163160Y0150698D01*
X0087874Y0224713D02*
X0087876Y0224831D01*
X0087882Y0224950D01*
X0087892Y0225068D01*
X0087906Y0225185D01*
X0087923Y0225302D01*
X0087945Y0225419D01*
X0087971Y0225534D01*
X0088000Y0225649D01*
X0088033Y0225763D01*
X0088070Y0225875D01*
X0088111Y0225986D01*
X0088155Y0226096D01*
X0088203Y0226204D01*
X0088255Y0226311D01*
X0088310Y0226416D01*
X0088369Y0226519D01*
X0088431Y0226619D01*
X0088496Y0226718D01*
X0088565Y0226815D01*
X0088636Y0226909D01*
X0088711Y0227000D01*
X0088789Y0227090D01*
X0088870Y0227176D01*
X0088954Y0227260D01*
X0089040Y0227341D01*
X0089130Y0227419D01*
X0089221Y0227494D01*
X0089315Y0227565D01*
X0089412Y0227634D01*
X0089511Y0227699D01*
X0089611Y0227761D01*
X0089714Y0227820D01*
X0089819Y0227875D01*
X0089926Y0227927D01*
X0090034Y0227975D01*
X0090144Y0228019D01*
X0090255Y0228060D01*
X0090367Y0228097D01*
X0090481Y0228130D01*
X0090596Y0228159D01*
X0090711Y0228185D01*
X0090828Y0228207D01*
X0090945Y0228224D01*
X0091062Y0228238D01*
X0091180Y0228248D01*
X0091299Y0228254D01*
X0091417Y0228256D01*
X0091535Y0228254D01*
X0091654Y0228248D01*
X0091772Y0228238D01*
X0091889Y0228224D01*
X0092006Y0228207D01*
X0092123Y0228185D01*
X0092238Y0228159D01*
X0092353Y0228130D01*
X0092467Y0228097D01*
X0092579Y0228060D01*
X0092690Y0228019D01*
X0092800Y0227975D01*
X0092908Y0227927D01*
X0093015Y0227875D01*
X0093120Y0227820D01*
X0093223Y0227761D01*
X0093323Y0227699D01*
X0093422Y0227634D01*
X0093519Y0227565D01*
X0093613Y0227494D01*
X0093704Y0227419D01*
X0093794Y0227341D01*
X0093880Y0227260D01*
X0093964Y0227176D01*
X0094045Y0227090D01*
X0094123Y0227000D01*
X0094198Y0226909D01*
X0094269Y0226815D01*
X0094338Y0226718D01*
X0094403Y0226619D01*
X0094465Y0226519D01*
X0094524Y0226416D01*
X0094579Y0226311D01*
X0094631Y0226204D01*
X0094679Y0226096D01*
X0094723Y0225986D01*
X0094764Y0225875D01*
X0094801Y0225763D01*
X0094834Y0225649D01*
X0094863Y0225534D01*
X0094889Y0225419D01*
X0094911Y0225302D01*
X0094928Y0225185D01*
X0094942Y0225068D01*
X0094952Y0224950D01*
X0094958Y0224831D01*
X0094960Y0224713D01*
X0094958Y0224595D01*
X0094952Y0224476D01*
X0094942Y0224358D01*
X0094928Y0224241D01*
X0094911Y0224124D01*
X0094889Y0224007D01*
X0094863Y0223892D01*
X0094834Y0223777D01*
X0094801Y0223663D01*
X0094764Y0223551D01*
X0094723Y0223440D01*
X0094679Y0223330D01*
X0094631Y0223222D01*
X0094579Y0223115D01*
X0094524Y0223010D01*
X0094465Y0222907D01*
X0094403Y0222807D01*
X0094338Y0222708D01*
X0094269Y0222611D01*
X0094198Y0222517D01*
X0094123Y0222426D01*
X0094045Y0222336D01*
X0093964Y0222250D01*
X0093880Y0222166D01*
X0093794Y0222085D01*
X0093704Y0222007D01*
X0093613Y0221932D01*
X0093519Y0221861D01*
X0093422Y0221792D01*
X0093323Y0221727D01*
X0093223Y0221665D01*
X0093120Y0221606D01*
X0093015Y0221551D01*
X0092908Y0221499D01*
X0092800Y0221451D01*
X0092690Y0221407D01*
X0092579Y0221366D01*
X0092467Y0221329D01*
X0092353Y0221296D01*
X0092238Y0221267D01*
X0092123Y0221241D01*
X0092006Y0221219D01*
X0091889Y0221202D01*
X0091772Y0221188D01*
X0091654Y0221178D01*
X0091535Y0221172D01*
X0091417Y0221170D01*
X0091299Y0221172D01*
X0091180Y0221178D01*
X0091062Y0221188D01*
X0090945Y0221202D01*
X0090828Y0221219D01*
X0090711Y0221241D01*
X0090596Y0221267D01*
X0090481Y0221296D01*
X0090367Y0221329D01*
X0090255Y0221366D01*
X0090144Y0221407D01*
X0090034Y0221451D01*
X0089926Y0221499D01*
X0089819Y0221551D01*
X0089714Y0221606D01*
X0089611Y0221665D01*
X0089511Y0221727D01*
X0089412Y0221792D01*
X0089315Y0221861D01*
X0089221Y0221932D01*
X0089130Y0222007D01*
X0089040Y0222085D01*
X0088954Y0222166D01*
X0088870Y0222250D01*
X0088789Y0222336D01*
X0088711Y0222426D01*
X0088636Y0222517D01*
X0088565Y0222611D01*
X0088496Y0222708D01*
X0088431Y0222807D01*
X0088369Y0222907D01*
X0088310Y0223010D01*
X0088255Y0223115D01*
X0088203Y0223222D01*
X0088155Y0223330D01*
X0088111Y0223440D01*
X0088070Y0223551D01*
X0088033Y0223663D01*
X0088000Y0223777D01*
X0087971Y0223892D01*
X0087945Y0224007D01*
X0087923Y0224124D01*
X0087906Y0224241D01*
X0087892Y0224358D01*
X0087882Y0224476D01*
X0087876Y0224595D01*
X0087874Y0224713D01*
X0088267Y0242430D02*
X0088269Y0242542D01*
X0088275Y0242653D01*
X0088285Y0242765D01*
X0088299Y0242876D01*
X0088316Y0242986D01*
X0088338Y0243096D01*
X0088364Y0243205D01*
X0088393Y0243313D01*
X0088426Y0243419D01*
X0088463Y0243525D01*
X0088504Y0243629D01*
X0088549Y0243732D01*
X0088597Y0243833D01*
X0088648Y0243932D01*
X0088703Y0244029D01*
X0088762Y0244124D01*
X0088823Y0244218D01*
X0088888Y0244309D01*
X0088957Y0244397D01*
X0089028Y0244483D01*
X0089102Y0244567D01*
X0089180Y0244647D01*
X0089260Y0244725D01*
X0089343Y0244801D01*
X0089428Y0244873D01*
X0089516Y0244942D01*
X0089606Y0245008D01*
X0089699Y0245070D01*
X0089794Y0245130D01*
X0089891Y0245186D01*
X0089989Y0245238D01*
X0090090Y0245287D01*
X0090192Y0245332D01*
X0090296Y0245374D01*
X0090401Y0245412D01*
X0090508Y0245446D01*
X0090615Y0245476D01*
X0090724Y0245503D01*
X0090833Y0245525D01*
X0090944Y0245544D01*
X0091054Y0245559D01*
X0091166Y0245570D01*
X0091277Y0245577D01*
X0091389Y0245580D01*
X0091501Y0245579D01*
X0091613Y0245574D01*
X0091724Y0245565D01*
X0091835Y0245552D01*
X0091946Y0245535D01*
X0092056Y0245515D01*
X0092165Y0245490D01*
X0092273Y0245462D01*
X0092380Y0245429D01*
X0092486Y0245393D01*
X0092590Y0245353D01*
X0092693Y0245310D01*
X0092795Y0245263D01*
X0092894Y0245212D01*
X0092992Y0245158D01*
X0093088Y0245100D01*
X0093182Y0245039D01*
X0093273Y0244975D01*
X0093362Y0244908D01*
X0093449Y0244837D01*
X0093533Y0244763D01*
X0093615Y0244687D01*
X0093693Y0244607D01*
X0093769Y0244525D01*
X0093842Y0244440D01*
X0093912Y0244353D01*
X0093978Y0244263D01*
X0094042Y0244171D01*
X0094102Y0244077D01*
X0094159Y0243981D01*
X0094212Y0243882D01*
X0094262Y0243782D01*
X0094308Y0243681D01*
X0094351Y0243577D01*
X0094390Y0243472D01*
X0094425Y0243366D01*
X0094456Y0243259D01*
X0094484Y0243150D01*
X0094507Y0243041D01*
X0094527Y0242931D01*
X0094543Y0242820D01*
X0094555Y0242709D01*
X0094563Y0242598D01*
X0094567Y0242486D01*
X0094567Y0242374D01*
X0094563Y0242262D01*
X0094555Y0242151D01*
X0094543Y0242040D01*
X0094527Y0241929D01*
X0094507Y0241819D01*
X0094484Y0241710D01*
X0094456Y0241601D01*
X0094425Y0241494D01*
X0094390Y0241388D01*
X0094351Y0241283D01*
X0094308Y0241179D01*
X0094262Y0241078D01*
X0094212Y0240978D01*
X0094159Y0240879D01*
X0094102Y0240783D01*
X0094042Y0240689D01*
X0093978Y0240597D01*
X0093912Y0240507D01*
X0093842Y0240420D01*
X0093769Y0240335D01*
X0093693Y0240253D01*
X0093615Y0240173D01*
X0093533Y0240097D01*
X0093449Y0240023D01*
X0093362Y0239952D01*
X0093273Y0239885D01*
X0093182Y0239821D01*
X0093088Y0239760D01*
X0092992Y0239702D01*
X0092894Y0239648D01*
X0092795Y0239597D01*
X0092693Y0239550D01*
X0092590Y0239507D01*
X0092486Y0239467D01*
X0092380Y0239431D01*
X0092273Y0239398D01*
X0092165Y0239370D01*
X0092056Y0239345D01*
X0091946Y0239325D01*
X0091835Y0239308D01*
X0091724Y0239295D01*
X0091613Y0239286D01*
X0091501Y0239281D01*
X0091389Y0239280D01*
X0091277Y0239283D01*
X0091166Y0239290D01*
X0091054Y0239301D01*
X0090944Y0239316D01*
X0090833Y0239335D01*
X0090724Y0239357D01*
X0090615Y0239384D01*
X0090508Y0239414D01*
X0090401Y0239448D01*
X0090296Y0239486D01*
X0090192Y0239528D01*
X0090090Y0239573D01*
X0089989Y0239622D01*
X0089891Y0239674D01*
X0089794Y0239730D01*
X0089699Y0239790D01*
X0089606Y0239852D01*
X0089516Y0239918D01*
X0089428Y0239987D01*
X0089343Y0240059D01*
X0089260Y0240135D01*
X0089180Y0240213D01*
X0089102Y0240293D01*
X0089028Y0240377D01*
X0088957Y0240463D01*
X0088888Y0240551D01*
X0088823Y0240642D01*
X0088762Y0240736D01*
X0088703Y0240831D01*
X0088648Y0240928D01*
X0088597Y0241027D01*
X0088549Y0241128D01*
X0088504Y0241231D01*
X0088463Y0241335D01*
X0088426Y0241441D01*
X0088393Y0241547D01*
X0088364Y0241655D01*
X0088338Y0241764D01*
X0088316Y0241874D01*
X0088299Y0241984D01*
X0088285Y0242095D01*
X0088275Y0242207D01*
X0088269Y0242318D01*
X0088267Y0242430D01*
X0283917Y0186800D02*
X0283917Y0136800D01*
X0283917Y0126800D02*
X0283917Y0076800D01*
D11*
X0182352Y0103749D03*
X0142982Y0103749D03*
X0123297Y0116249D03*
X0103612Y0103749D03*
X0123297Y0137509D03*
X0123297Y0159851D03*
X0083927Y0159851D03*
X0044557Y0159851D03*
X0044557Y0126091D03*
X0064242Y0103749D03*
X0162667Y0159851D03*
D12*
X0152825Y0159851D03*
X0134321Y0159851D03*
X0172510Y0159851D03*
X0190620Y0150698D03*
X0190620Y0131800D03*
X0190620Y0112902D03*
X0172510Y0103749D03*
X0152825Y0103749D03*
X0134321Y0103749D03*
D13*
X0047352Y0021485D03*
X0244203Y0021485D03*
X0244203Y0238020D03*
X0047352Y0238020D03*
D14*
X0046552Y0238380D02*
X0030239Y0238380D01*
X0030239Y0239978D02*
X0034181Y0239978D01*
X0034180Y0239974D02*
X0034067Y0238820D01*
X0046552Y0238820D01*
X0046552Y0237220D01*
X0048152Y0237220D01*
X0048152Y0224735D01*
X0049306Y0224849D01*
X0050588Y0225103D01*
X0051838Y0225483D01*
X0053046Y0225983D01*
X0054198Y0226599D01*
X0055285Y0227325D01*
X0056295Y0228154D01*
X0057219Y0229078D01*
X0058048Y0230088D01*
X0058774Y0231175D01*
X0059390Y0232327D01*
X0059890Y0233534D01*
X0060269Y0234785D01*
X0060524Y0236067D01*
X0060638Y0237220D01*
X0048152Y0237220D01*
X0048152Y0238820D01*
X0060638Y0238820D01*
X0060524Y0239974D01*
X0060269Y0241256D01*
X0059890Y0242507D01*
X0059390Y0243714D01*
X0058774Y0244866D01*
X0058048Y0245953D01*
X0057219Y0246963D01*
X0056295Y0247887D01*
X0055285Y0248716D01*
X0054198Y0249442D01*
X0053046Y0250058D01*
X0051838Y0250558D01*
X0050588Y0250937D01*
X0049306Y0251192D01*
X0048152Y0251306D01*
X0048152Y0238821D01*
X0046552Y0238821D01*
X0046552Y0251306D01*
X0045398Y0251192D01*
X0044117Y0250937D01*
X0042866Y0250558D01*
X0041659Y0250058D01*
X0040507Y0249442D01*
X0039420Y0248716D01*
X0038410Y0247887D01*
X0037486Y0246963D01*
X0036657Y0245953D01*
X0035931Y0244866D01*
X0035315Y0243714D01*
X0034815Y0242507D01*
X0034435Y0241256D01*
X0034180Y0239974D01*
X0034533Y0241577D02*
X0030239Y0241577D01*
X0030239Y0243175D02*
X0035092Y0243175D01*
X0035881Y0244774D02*
X0030239Y0244774D01*
X0030239Y0246372D02*
X0037001Y0246372D01*
X0038512Y0247971D02*
X0030239Y0247971D01*
X0030239Y0249569D02*
X0040745Y0249569D01*
X0045275Y0251168D02*
X0030239Y0251168D01*
X0030239Y0252766D02*
X0278896Y0252766D01*
X0278888Y0251168D02*
X0246280Y0251168D01*
X0246157Y0251192D02*
X0245003Y0251306D01*
X0245003Y0238821D01*
X0243403Y0238821D01*
X0243403Y0251306D01*
X0242249Y0251192D01*
X0240967Y0250937D01*
X0239717Y0250558D01*
X0238509Y0250058D01*
X0237357Y0249442D01*
X0236270Y0248716D01*
X0235260Y0247887D01*
X0234336Y0246963D01*
X0233507Y0245953D01*
X0232781Y0244866D01*
X0232165Y0243714D01*
X0231665Y0242507D01*
X0231286Y0241256D01*
X0231031Y0239974D01*
X0230917Y0238820D01*
X0243403Y0238820D01*
X0243403Y0237220D01*
X0245003Y0237220D01*
X0245003Y0224735D01*
X0246157Y0224849D01*
X0247438Y0225103D01*
X0248689Y0225483D01*
X0249896Y0225983D01*
X0251049Y0226599D01*
X0252135Y0227325D01*
X0253145Y0228154D01*
X0254069Y0229078D01*
X0254898Y0230088D01*
X0255624Y0231175D01*
X0256240Y0232327D01*
X0256740Y0233534D01*
X0257120Y0234785D01*
X0257375Y0236067D01*
X0257488Y0237220D01*
X0245003Y0237220D01*
X0245003Y0238820D01*
X0257488Y0238820D01*
X0257375Y0239974D01*
X0257120Y0241256D01*
X0256740Y0242507D01*
X0256240Y0243714D01*
X0255624Y0244866D01*
X0254898Y0245953D01*
X0254069Y0246963D01*
X0253145Y0247887D01*
X0252135Y0248716D01*
X0251049Y0249442D01*
X0249896Y0250058D01*
X0248689Y0250558D01*
X0247438Y0250937D01*
X0246157Y0251192D01*
X0245003Y0251168D02*
X0243403Y0251168D01*
X0242125Y0251168D02*
X0049430Y0251168D01*
X0048152Y0251168D02*
X0046552Y0251168D01*
X0046552Y0249569D02*
X0048152Y0249569D01*
X0048152Y0247971D02*
X0046552Y0247971D01*
X0046552Y0246372D02*
X0048152Y0246372D01*
X0048152Y0244774D02*
X0046552Y0244774D01*
X0046552Y0243175D02*
X0048152Y0243175D01*
X0048152Y0241577D02*
X0046552Y0241577D01*
X0046552Y0239978D02*
X0048152Y0239978D01*
X0048152Y0238380D02*
X0087376Y0238380D01*
X0088176Y0237580D02*
X0090279Y0236709D01*
X0092555Y0236709D01*
X0094658Y0237580D01*
X0096268Y0239189D01*
X0097139Y0241292D01*
X0097139Y0243568D01*
X0096268Y0245671D01*
X0094658Y0247280D01*
X0092555Y0248151D01*
X0090279Y0248151D01*
X0088176Y0247280D01*
X0086567Y0245671D01*
X0085696Y0243568D01*
X0085696Y0241292D01*
X0086567Y0239189D01*
X0088176Y0237580D01*
X0090104Y0236781D02*
X0060595Y0236781D01*
X0060348Y0235183D02*
X0231207Y0235183D01*
X0231286Y0234785D02*
X0231665Y0233534D01*
X0232165Y0232327D01*
X0232781Y0231175D01*
X0233507Y0230088D01*
X0234336Y0229078D01*
X0235260Y0228154D01*
X0236270Y0227325D01*
X0237357Y0226599D01*
X0238509Y0225983D01*
X0239717Y0225483D01*
X0240967Y0225103D01*
X0242249Y0224849D01*
X0243403Y0224735D01*
X0243403Y0237220D01*
X0230917Y0237220D01*
X0231031Y0236067D01*
X0231286Y0234785D01*
X0231650Y0233584D02*
X0059905Y0233584D01*
X0059207Y0231986D02*
X0232348Y0231986D01*
X0233307Y0230387D02*
X0093699Y0230387D01*
X0092634Y0230828D02*
X0094881Y0229897D01*
X0096601Y0228177D01*
X0097532Y0225930D01*
X0097532Y0223497D01*
X0096601Y0221250D01*
X0094881Y0219529D01*
X0092634Y0218598D01*
X0090201Y0218598D01*
X0087953Y0219529D01*
X0086233Y0221250D01*
X0085302Y0223497D01*
X0085302Y0225930D01*
X0086233Y0228177D01*
X0087953Y0229897D01*
X0090201Y0230828D01*
X0092634Y0230828D01*
X0089136Y0230387D02*
X0058248Y0230387D01*
X0056930Y0228789D02*
X0086845Y0228789D01*
X0085824Y0227190D02*
X0055083Y0227190D01*
X0052101Y0225592D02*
X0085302Y0225592D01*
X0085302Y0223993D02*
X0030239Y0223993D01*
X0030239Y0222395D02*
X0085759Y0222395D01*
X0086687Y0220796D02*
X0030239Y0220796D01*
X0030239Y0219198D02*
X0088755Y0219198D01*
X0094080Y0219198D02*
X0161327Y0219198D01*
X0160530Y0218867D02*
X0158600Y0216937D01*
X0157555Y0214415D01*
X0157555Y0211685D01*
X0158600Y0209163D01*
X0160230Y0207533D01*
X0159834Y0207245D01*
X0159222Y0206633D01*
X0158713Y0205933D01*
X0158320Y0205161D01*
X0158053Y0204338D01*
X0157917Y0203483D01*
X0157917Y0203250D01*
X0163217Y0203250D01*
X0163217Y0202850D01*
X0157917Y0202850D01*
X0157917Y0202617D01*
X0158053Y0201762D01*
X0158320Y0200939D01*
X0158713Y0200167D01*
X0159222Y0199467D01*
X0159834Y0198855D01*
X0160230Y0198567D01*
X0158600Y0196937D01*
X0157555Y0194415D01*
X0157555Y0191685D01*
X0158600Y0189163D01*
X0160230Y0187533D01*
X0159834Y0187245D01*
X0159222Y0186633D01*
X0158713Y0185933D01*
X0158320Y0185161D01*
X0158053Y0184338D01*
X0157917Y0183483D01*
X0157917Y0183250D01*
X0163217Y0183250D01*
X0163217Y0182850D01*
X0157917Y0182850D01*
X0157917Y0182617D01*
X0158053Y0181762D01*
X0158320Y0180939D01*
X0158713Y0180167D01*
X0159222Y0179467D01*
X0159834Y0178855D01*
X0160535Y0178346D01*
X0161306Y0177953D01*
X0162129Y0177685D01*
X0162984Y0177550D01*
X0163217Y0177550D01*
X0163217Y0182850D01*
X0163617Y0182850D01*
X0163617Y0177550D01*
X0163850Y0177550D01*
X0164705Y0177685D01*
X0165529Y0177953D01*
X0166300Y0178346D01*
X0167000Y0178855D01*
X0167612Y0179467D01*
X0168121Y0180167D01*
X0168514Y0180939D01*
X0168782Y0181762D01*
X0168917Y0182617D01*
X0168917Y0182850D01*
X0163617Y0182850D01*
X0163617Y0183250D01*
X0168917Y0183250D01*
X0168917Y0183483D01*
X0168782Y0184338D01*
X0168514Y0185161D01*
X0168121Y0185933D01*
X0167612Y0186633D01*
X0167391Y0186854D01*
X0168304Y0187233D01*
X0170235Y0189163D01*
X0171280Y0191685D01*
X0171280Y0194415D01*
X0170235Y0196937D01*
X0168304Y0198867D01*
X0167391Y0199246D01*
X0167612Y0199467D01*
X0168121Y0200167D01*
X0168514Y0200939D01*
X0168782Y0201762D01*
X0168917Y0202617D01*
X0168917Y0202850D01*
X0163617Y0202850D01*
X0163617Y0203250D01*
X0168917Y0203250D01*
X0168917Y0203483D01*
X0168782Y0204338D01*
X0168514Y0205161D01*
X0168121Y0205933D01*
X0167612Y0206633D01*
X0167391Y0206854D01*
X0168304Y0207233D01*
X0170235Y0209163D01*
X0171280Y0211685D01*
X0171280Y0214415D01*
X0170235Y0216937D01*
X0168304Y0218867D01*
X0165782Y0219912D01*
X0163052Y0219912D01*
X0160530Y0218867D01*
X0159262Y0217599D02*
X0030239Y0217599D01*
X0030239Y0216001D02*
X0158212Y0216001D01*
X0157555Y0214402D02*
X0030239Y0214402D01*
X0030239Y0212803D02*
X0157555Y0212803D01*
X0157754Y0211205D02*
X0030239Y0211205D01*
X0030239Y0209606D02*
X0158416Y0209606D01*
X0159755Y0208008D02*
X0030239Y0208008D01*
X0030239Y0206409D02*
X0159060Y0206409D01*
X0158206Y0204811D02*
X0030239Y0204811D01*
X0030239Y0203212D02*
X0163217Y0203212D01*
X0163617Y0203212D02*
X0278653Y0203212D01*
X0278646Y0201614D02*
X0168734Y0201614D01*
X0168011Y0200015D02*
X0278638Y0200015D01*
X0278630Y0198417D02*
X0168755Y0198417D01*
X0170284Y0196818D02*
X0278622Y0196818D01*
X0278614Y0195220D02*
X0170946Y0195220D01*
X0171280Y0193621D02*
X0278606Y0193621D01*
X0278599Y0192023D02*
X0171280Y0192023D01*
X0170757Y0190424D02*
X0278591Y0190424D01*
X0278583Y0188826D02*
X0169898Y0188826D01*
X0168292Y0187227D02*
X0278575Y0187227D01*
X0278567Y0185629D02*
X0168276Y0185629D01*
X0168831Y0184030D02*
X0263076Y0184030D01*
X0263060Y0184020D02*
X0262698Y0183657D01*
X0262413Y0183232D01*
X0262217Y0182758D01*
X0262117Y0182256D01*
X0262117Y0178600D01*
X0272117Y0178600D01*
X0272117Y0177000D01*
X0262117Y0177000D01*
X0262117Y0173344D01*
X0262217Y0172842D01*
X0262413Y0172368D01*
X0262698Y0171943D01*
X0263060Y0171580D01*
X0263486Y0171296D01*
X0263959Y0171100D01*
X0264461Y0171000D01*
X0272117Y0171000D01*
X0272117Y0177000D01*
X0273717Y0177000D01*
X0273717Y0171000D01*
X0278496Y0171000D01*
X0278406Y0152600D01*
X0273717Y0152600D01*
X0273717Y0146600D01*
X0272117Y0146600D01*
X0272117Y0145000D01*
X0262117Y0145000D01*
X0262117Y0141344D01*
X0262217Y0140842D01*
X0262413Y0140368D01*
X0262698Y0139943D01*
X0263060Y0139580D01*
X0263486Y0139296D01*
X0263959Y0139100D01*
X0264461Y0139000D01*
X0272117Y0139000D01*
X0272117Y0145000D01*
X0273717Y0145000D01*
X0273717Y0139000D01*
X0278339Y0139000D01*
X0278269Y0124600D01*
X0273717Y0124600D01*
X0273717Y0118600D01*
X0272117Y0118600D01*
X0272117Y0117000D01*
X0262117Y0117000D01*
X0262117Y0113344D01*
X0262217Y0112842D01*
X0262413Y0112368D01*
X0262698Y0111943D01*
X0263060Y0111580D01*
X0263486Y0111296D01*
X0263959Y0111100D01*
X0264461Y0111000D01*
X0272117Y0111000D01*
X0272117Y0117000D01*
X0273717Y0117000D01*
X0273717Y0111000D01*
X0278202Y0111000D01*
X0278112Y0092600D01*
X0273717Y0092600D01*
X0273717Y0086600D01*
X0272117Y0086600D01*
X0272117Y0085000D01*
X0262117Y0085000D01*
X0262117Y0081344D01*
X0262217Y0080842D01*
X0262413Y0080368D01*
X0262698Y0079943D01*
X0263060Y0079580D01*
X0263486Y0079296D01*
X0263959Y0079100D01*
X0264461Y0079000D01*
X0272117Y0079000D01*
X0272117Y0085000D01*
X0273717Y0085000D01*
X0273717Y0079000D01*
X0278045Y0079000D01*
X0277680Y0004372D01*
X0030239Y0004372D01*
X0030239Y0255134D01*
X0278908Y0255134D01*
X0278562Y0184600D01*
X0273717Y0184600D01*
X0273717Y0178600D01*
X0272117Y0178600D01*
X0272117Y0184600D01*
X0264461Y0184600D01*
X0263959Y0184500D01*
X0263486Y0184304D01*
X0263060Y0184020D01*
X0262152Y0182432D02*
X0168888Y0182432D01*
X0168461Y0180833D02*
X0228058Y0180833D01*
X0227735Y0180510D02*
X0227074Y0178914D01*
X0227074Y0177186D01*
X0227735Y0175590D01*
X0228957Y0174368D01*
X0230553Y0173707D01*
X0232281Y0173707D01*
X0233878Y0174368D01*
X0235099Y0175590D01*
X0235761Y0177186D01*
X0235761Y0178914D01*
X0235099Y0180510D01*
X0233878Y0181732D01*
X0232281Y0182393D01*
X0230553Y0182393D01*
X0228957Y0181732D01*
X0227735Y0180510D01*
X0227207Y0179235D02*
X0167380Y0179235D01*
X0164395Y0177636D02*
X0227074Y0177636D01*
X0227550Y0176038D02*
X0180036Y0176038D01*
X0179781Y0176143D02*
X0178053Y0176143D01*
X0176457Y0175482D01*
X0175235Y0174260D01*
X0174574Y0172664D01*
X0174574Y0170936D01*
X0174771Y0170461D01*
X0174771Y0164287D01*
X0174421Y0164466D01*
X0173676Y0164708D01*
X0172902Y0164830D01*
X0172645Y0164830D01*
X0172645Y0159986D01*
X0172375Y0159986D01*
X0172375Y0159716D01*
X0172645Y0159716D01*
X0172645Y0154872D01*
X0172902Y0154872D01*
X0173676Y0154995D01*
X0174421Y0155237D01*
X0174771Y0155415D01*
X0174771Y0154767D01*
X0171829Y0151826D01*
X0170977Y0153883D01*
X0169396Y0155464D01*
X0168404Y0155875D01*
X0168404Y0157031D01*
X0168712Y0156607D01*
X0169266Y0156053D01*
X0169900Y0155593D01*
X0170599Y0155237D01*
X0171344Y0154995D01*
X0172118Y0154872D01*
X0172375Y0154872D01*
X0172375Y0159716D01*
X0167531Y0159716D01*
X0162802Y0159716D01*
X0162802Y0159986D01*
X0162532Y0159986D01*
X0162532Y0159716D01*
X0152960Y0159716D01*
X0152960Y0159986D01*
X0157804Y0159986D01*
X0162532Y0159986D01*
X0162532Y0165588D01*
X0158493Y0165588D01*
X0158036Y0165466D01*
X0157625Y0165229D01*
X0157290Y0164893D01*
X0157053Y0164483D01*
X0156930Y0164025D01*
X0156930Y0162671D01*
X0156623Y0163095D01*
X0156068Y0163649D01*
X0155434Y0164110D01*
X0154736Y0164466D01*
X0153991Y0164708D01*
X0153217Y0164830D01*
X0152960Y0164830D01*
X0152960Y0159986D01*
X0152690Y0159986D01*
X0152690Y0159716D01*
X0152960Y0159716D01*
X0152960Y0154872D01*
X0153217Y0154872D01*
X0153991Y0154995D01*
X0154736Y0155237D01*
X0155434Y0155593D01*
X0156068Y0156053D01*
X0156623Y0156607D01*
X0156930Y0157031D01*
X0156930Y0155677D01*
X0157053Y0155219D01*
X0157290Y0154809D01*
X0157625Y0154474D01*
X0158036Y0154237D01*
X0158493Y0154114D01*
X0161675Y0154114D01*
X0161444Y0153883D01*
X0160588Y0151816D01*
X0160588Y0149579D01*
X0161444Y0147513D01*
X0163026Y0145931D01*
X0165092Y0145075D01*
X0167329Y0145075D01*
X0168521Y0145568D01*
X0168521Y0138139D01*
X0168324Y0137664D01*
X0168324Y0135936D01*
X0168985Y0134340D01*
X0170207Y0133118D01*
X0171803Y0132457D01*
X0173531Y0132457D01*
X0175128Y0133118D01*
X0176349Y0134340D01*
X0177011Y0135936D01*
X0177011Y0137664D01*
X0176814Y0138139D01*
X0176814Y0145082D01*
X0181266Y0149535D01*
X0182433Y0150701D01*
X0183064Y0152225D01*
X0183064Y0170461D01*
X0183261Y0170936D01*
X0183261Y0172664D01*
X0182599Y0174260D01*
X0181378Y0175482D01*
X0179781Y0176143D01*
X0177799Y0176038D02*
X0030239Y0176038D01*
X0030239Y0177636D02*
X0162440Y0177636D01*
X0163217Y0177636D02*
X0163617Y0177636D01*
X0163617Y0179235D02*
X0163217Y0179235D01*
X0163217Y0180833D02*
X0163617Y0180833D01*
X0163617Y0182432D02*
X0163217Y0182432D01*
X0159454Y0179235D02*
X0030239Y0179235D01*
X0030239Y0180833D02*
X0158374Y0180833D01*
X0157947Y0182432D02*
X0030239Y0182432D01*
X0030239Y0184030D02*
X0158004Y0184030D01*
X0158559Y0185629D02*
X0030239Y0185629D01*
X0030239Y0187227D02*
X0159816Y0187227D01*
X0158937Y0188826D02*
X0030239Y0188826D01*
X0030239Y0190424D02*
X0158077Y0190424D01*
X0157555Y0192023D02*
X0030239Y0192023D01*
X0030239Y0193621D02*
X0157555Y0193621D01*
X0157889Y0195220D02*
X0030239Y0195220D01*
X0030239Y0196818D02*
X0158551Y0196818D01*
X0160080Y0198417D02*
X0030239Y0198417D01*
X0030239Y0200015D02*
X0158824Y0200015D01*
X0158101Y0201614D02*
X0030239Y0201614D01*
X0042866Y0225483D02*
X0044117Y0225103D01*
X0045398Y0224849D01*
X0046552Y0224735D01*
X0046552Y0237220D01*
X0034067Y0237220D01*
X0034180Y0236067D01*
X0034435Y0234785D01*
X0034815Y0233534D01*
X0035315Y0232327D01*
X0035931Y0231175D01*
X0036657Y0230088D01*
X0037486Y0229078D01*
X0038410Y0228154D01*
X0039420Y0227325D01*
X0040507Y0226599D01*
X0041659Y0225983D01*
X0042866Y0225483D01*
X0042604Y0225592D02*
X0030239Y0225592D01*
X0030239Y0227190D02*
X0039622Y0227190D01*
X0037775Y0228789D02*
X0030239Y0228789D01*
X0030239Y0230387D02*
X0036457Y0230387D01*
X0035497Y0231986D02*
X0030239Y0231986D01*
X0030239Y0233584D02*
X0034800Y0233584D01*
X0034356Y0235183D02*
X0030239Y0235183D01*
X0030239Y0236781D02*
X0034110Y0236781D01*
X0046552Y0236781D02*
X0048152Y0236781D01*
X0048152Y0235183D02*
X0046552Y0235183D01*
X0046552Y0233584D02*
X0048152Y0233584D01*
X0048152Y0231986D02*
X0046552Y0231986D01*
X0046552Y0230387D02*
X0048152Y0230387D01*
X0048152Y0228789D02*
X0046552Y0228789D01*
X0046552Y0227190D02*
X0048152Y0227190D01*
X0048152Y0225592D02*
X0046552Y0225592D01*
X0060523Y0239978D02*
X0086240Y0239978D01*
X0085696Y0241577D02*
X0060172Y0241577D01*
X0059613Y0243175D02*
X0085696Y0243175D01*
X0086196Y0244774D02*
X0058823Y0244774D01*
X0057704Y0246372D02*
X0087269Y0246372D01*
X0089844Y0247971D02*
X0056193Y0247971D01*
X0053960Y0249569D02*
X0237595Y0249569D01*
X0235362Y0247971D02*
X0092991Y0247971D01*
X0095566Y0246372D02*
X0233851Y0246372D01*
X0232732Y0244774D02*
X0096639Y0244774D01*
X0097139Y0243175D02*
X0231942Y0243175D01*
X0231383Y0241577D02*
X0097139Y0241577D01*
X0096594Y0239978D02*
X0231032Y0239978D01*
X0230960Y0236781D02*
X0092730Y0236781D01*
X0095458Y0238380D02*
X0243403Y0238380D01*
X0243403Y0239978D02*
X0245003Y0239978D01*
X0245003Y0238380D02*
X0278826Y0238380D01*
X0278833Y0239978D02*
X0257374Y0239978D01*
X0257022Y0241577D02*
X0278841Y0241577D01*
X0278849Y0243175D02*
X0256463Y0243175D01*
X0255674Y0244774D02*
X0278857Y0244774D01*
X0278865Y0246372D02*
X0254554Y0246372D01*
X0253043Y0247971D02*
X0278873Y0247971D01*
X0278880Y0249569D02*
X0250811Y0249569D01*
X0245003Y0249569D02*
X0243403Y0249569D01*
X0243403Y0247971D02*
X0245003Y0247971D01*
X0245003Y0246372D02*
X0243403Y0246372D01*
X0243403Y0244774D02*
X0245003Y0244774D01*
X0245003Y0243175D02*
X0243403Y0243175D01*
X0243403Y0241577D02*
X0245003Y0241577D01*
X0245003Y0236781D02*
X0243403Y0236781D01*
X0243403Y0235183D02*
X0245003Y0235183D01*
X0245003Y0233584D02*
X0243403Y0233584D01*
X0243403Y0231986D02*
X0245003Y0231986D01*
X0245003Y0230387D02*
X0243403Y0230387D01*
X0243403Y0228789D02*
X0245003Y0228789D01*
X0245003Y0227190D02*
X0243403Y0227190D01*
X0243403Y0225592D02*
X0245003Y0225592D01*
X0239454Y0225592D02*
X0097532Y0225592D01*
X0097532Y0223993D02*
X0278755Y0223993D01*
X0278747Y0222395D02*
X0192280Y0222395D01*
X0192599Y0222075D02*
X0191378Y0223297D01*
X0189781Y0223958D01*
X0188053Y0223958D01*
X0186457Y0223297D01*
X0185792Y0222632D01*
X0185128Y0223297D01*
X0183531Y0223958D01*
X0181803Y0223958D01*
X0180207Y0223297D01*
X0179542Y0222632D01*
X0178878Y0223297D01*
X0177281Y0223958D01*
X0175553Y0223958D01*
X0173957Y0223297D01*
X0172735Y0222075D01*
X0172074Y0220479D01*
X0172074Y0218751D01*
X0172735Y0217155D01*
X0173957Y0215933D01*
X0175553Y0215272D01*
X0177281Y0215272D01*
X0178436Y0215750D01*
X0178324Y0215479D01*
X0178324Y0213751D01*
X0178985Y0212155D01*
X0180207Y0210933D01*
X0181803Y0210272D01*
X0183531Y0210272D01*
X0185128Y0210933D01*
X0186349Y0212155D01*
X0187011Y0213751D01*
X0187011Y0215479D01*
X0186898Y0215750D01*
X0188053Y0215272D01*
X0189781Y0215272D01*
X0191378Y0215933D01*
X0192599Y0217155D01*
X0193261Y0218751D01*
X0193261Y0220479D01*
X0192599Y0222075D01*
X0193129Y0220796D02*
X0278740Y0220796D01*
X0278732Y0219198D02*
X0193261Y0219198D01*
X0192783Y0217599D02*
X0278724Y0217599D01*
X0278716Y0216001D02*
X0191445Y0216001D01*
X0187011Y0214402D02*
X0278708Y0214402D01*
X0278700Y0212803D02*
X0186618Y0212803D01*
X0185400Y0211205D02*
X0278693Y0211205D01*
X0278685Y0209606D02*
X0170419Y0209606D01*
X0171081Y0211205D02*
X0179935Y0211205D01*
X0178716Y0212803D02*
X0171280Y0212803D01*
X0171280Y0214402D02*
X0178324Y0214402D01*
X0173889Y0216001D02*
X0170623Y0216001D01*
X0169573Y0217599D02*
X0172551Y0217599D01*
X0172074Y0219198D02*
X0167508Y0219198D01*
X0172205Y0220796D02*
X0096148Y0220796D01*
X0097076Y0222395D02*
X0173055Y0222395D01*
X0169080Y0208008D02*
X0278677Y0208008D01*
X0278669Y0206409D02*
X0167775Y0206409D01*
X0168628Y0204811D02*
X0278661Y0204811D01*
X0278763Y0225592D02*
X0248951Y0225592D01*
X0251933Y0227190D02*
X0278771Y0227190D01*
X0278779Y0228789D02*
X0253780Y0228789D01*
X0255098Y0230387D02*
X0278786Y0230387D01*
X0278794Y0231986D02*
X0256058Y0231986D01*
X0256755Y0233584D02*
X0278802Y0233584D01*
X0278810Y0235183D02*
X0257199Y0235183D01*
X0257445Y0236781D02*
X0278818Y0236781D01*
X0278904Y0254365D02*
X0030239Y0254365D01*
X0095990Y0228789D02*
X0234626Y0228789D01*
X0236472Y0227190D02*
X0097010Y0227190D01*
X0030239Y0174439D02*
X0175414Y0174439D01*
X0174647Y0172841D02*
X0030239Y0172841D01*
X0030239Y0171242D02*
X0174574Y0171242D01*
X0174771Y0169644D02*
X0030239Y0169644D01*
X0030239Y0168045D02*
X0174771Y0168045D01*
X0174771Y0166447D02*
X0030239Y0166447D01*
X0030239Y0164848D02*
X0039154Y0164848D01*
X0039180Y0164893D02*
X0038943Y0164483D01*
X0038820Y0164025D01*
X0038820Y0160085D01*
X0044324Y0160085D01*
X0044324Y0165588D01*
X0040383Y0165588D01*
X0039925Y0165466D01*
X0039515Y0165229D01*
X0039180Y0164893D01*
X0038820Y0163250D02*
X0030239Y0163250D01*
X0030239Y0161651D02*
X0038820Y0161651D01*
X0038820Y0159618D02*
X0038820Y0155677D01*
X0038943Y0155219D01*
X0039180Y0154809D01*
X0039515Y0154474D01*
X0039925Y0154237D01*
X0040383Y0154114D01*
X0044324Y0154114D01*
X0044324Y0159618D01*
X0044791Y0159618D01*
X0044791Y0160085D01*
X0050294Y0160085D01*
X0050294Y0164025D01*
X0050171Y0164483D01*
X0049934Y0164893D01*
X0049599Y0165229D01*
X0049189Y0165466D01*
X0048731Y0165588D01*
X0044791Y0165588D01*
X0044791Y0160085D01*
X0044324Y0160085D01*
X0044324Y0159618D01*
X0038820Y0159618D01*
X0038820Y0158454D02*
X0030239Y0158454D01*
X0030239Y0156856D02*
X0038820Y0156856D01*
X0038933Y0155257D02*
X0030239Y0155257D01*
X0030239Y0153659D02*
X0161351Y0153659D01*
X0160689Y0152060D02*
X0030239Y0152060D01*
X0030239Y0150462D02*
X0160588Y0150462D01*
X0160884Y0148863D02*
X0030239Y0148863D01*
X0030239Y0147265D02*
X0111982Y0147265D01*
X0111729Y0147012D02*
X0091729Y0127012D01*
X0091336Y0126063D01*
X0091336Y0085831D01*
X0057966Y0085831D01*
X0057046Y0086212D01*
X0055788Y0086212D01*
X0054626Y0085731D01*
X0053737Y0084841D01*
X0053255Y0083679D01*
X0053255Y0082421D01*
X0053737Y0081259D01*
X0054626Y0080369D01*
X0055788Y0079888D01*
X0057046Y0079888D01*
X0057966Y0080269D01*
X0081664Y0080269D01*
X0081237Y0079841D01*
X0080755Y0078679D01*
X0080755Y0077421D01*
X0080971Y0076901D01*
X0079781Y0077393D01*
X0078053Y0077393D01*
X0076457Y0076732D01*
X0075235Y0075510D01*
X0074574Y0073914D01*
X0074574Y0072186D01*
X0075235Y0070590D01*
X0076457Y0069368D01*
X0078053Y0068707D01*
X0079781Y0068707D01*
X0081336Y0069351D01*
X0081336Y0063787D01*
X0081729Y0062838D01*
X0082455Y0062112D01*
X0082455Y0062112D01*
X0090479Y0054088D01*
X0091205Y0053362D01*
X0092154Y0052969D01*
X0120681Y0052969D01*
X0121629Y0053362D01*
X0128136Y0059869D01*
X0128300Y0059869D01*
X0129469Y0060353D01*
X0129735Y0060619D01*
X0131297Y0060619D01*
X0133385Y0061484D01*
X0134984Y0063082D01*
X0135510Y0064353D01*
X0135972Y0063717D01*
X0136584Y0063105D01*
X0137285Y0062596D01*
X0138056Y0062203D01*
X0138879Y0061935D01*
X0139734Y0061800D01*
X0139967Y0061800D01*
X0139967Y0067100D01*
X0140367Y0067100D01*
X0140367Y0061800D01*
X0140600Y0061800D01*
X0141455Y0061935D01*
X0142279Y0062203D01*
X0143050Y0062596D01*
X0143750Y0063105D01*
X0144362Y0063717D01*
X0144825Y0064353D01*
X0145351Y0063082D01*
X0146949Y0061484D01*
X0149037Y0060619D01*
X0151297Y0060619D01*
X0153385Y0061484D01*
X0154984Y0063082D01*
X0155384Y0064049D01*
X0156949Y0062484D01*
X0159037Y0061619D01*
X0161297Y0061619D01*
X0163385Y0062484D01*
X0164951Y0064049D01*
X0165351Y0063082D01*
X0166949Y0061484D01*
X0169037Y0060619D01*
X0171297Y0060619D01*
X0173385Y0061484D01*
X0174832Y0062931D01*
X0176280Y0061483D01*
X0178802Y0060438D01*
X0181532Y0060438D01*
X0184054Y0061483D01*
X0185985Y0063413D01*
X0187030Y0065935D01*
X0187030Y0068665D01*
X0185985Y0071187D01*
X0184054Y0073117D01*
X0181532Y0074162D01*
X0178802Y0074162D01*
X0176280Y0073117D01*
X0174350Y0071187D01*
X0174047Y0070455D01*
X0173385Y0071116D01*
X0173348Y0071132D01*
X0173348Y0072433D01*
X0172864Y0073602D01*
X0172748Y0073718D01*
X0172748Y0084351D01*
X0174303Y0083707D01*
X0176031Y0083707D01*
X0177628Y0084368D01*
X0178849Y0085590D01*
X0179511Y0087186D01*
X0179511Y0088914D01*
X0178849Y0090510D01*
X0177956Y0091404D01*
X0187578Y0091404D01*
X0188053Y0091207D01*
X0189781Y0091207D01*
X0191378Y0091868D01*
X0192599Y0093090D01*
X0193261Y0094686D01*
X0193261Y0096414D01*
X0192599Y0098010D01*
X0191378Y0099232D01*
X0189781Y0099893D01*
X0188089Y0099893D01*
X0188089Y0103515D01*
X0182586Y0103515D01*
X0182586Y0103982D01*
X0188089Y0103982D01*
X0188089Y0107923D01*
X0187967Y0108381D01*
X0187730Y0108791D01*
X0187522Y0108999D01*
X0188010Y0108644D01*
X0188709Y0108288D01*
X0189454Y0108046D01*
X0190228Y0107923D01*
X0190485Y0107923D01*
X0190485Y0112767D01*
X0190755Y0112767D01*
X0190755Y0107923D01*
X0191012Y0107923D01*
X0191786Y0108046D01*
X0192531Y0108288D01*
X0193230Y0108644D01*
X0193864Y0109104D01*
X0194418Y0109659D01*
X0194879Y0110293D01*
X0195234Y0110991D01*
X0195477Y0111736D01*
X0195599Y0112510D01*
X0195599Y0112767D01*
X0190755Y0112767D01*
X0190755Y0113037D01*
X0195599Y0113037D01*
X0195599Y0113294D01*
X0195477Y0114068D01*
X0195234Y0114814D01*
X0194879Y0115512D01*
X0194418Y0116146D01*
X0193864Y0116700D01*
X0193230Y0117161D01*
X0192531Y0117517D01*
X0191786Y0117759D01*
X0191012Y0117881D01*
X0190755Y0117881D01*
X0190755Y0113037D01*
X0190485Y0113037D01*
X0190485Y0112767D01*
X0185641Y0112767D01*
X0185641Y0112510D01*
X0185764Y0111736D01*
X0186006Y0110991D01*
X0186362Y0110293D01*
X0186822Y0109659D01*
X0187300Y0109181D01*
X0186984Y0109363D01*
X0186526Y0109486D01*
X0182586Y0109486D01*
X0182586Y0103982D01*
X0182119Y0103982D01*
X0182119Y0103515D01*
X0177489Y0103515D01*
X0177489Y0103614D01*
X0172645Y0103614D01*
X0172645Y0103884D01*
X0177489Y0103884D01*
X0177489Y0103982D01*
X0182119Y0103982D01*
X0182119Y0109486D01*
X0178178Y0109486D01*
X0177721Y0109363D01*
X0177310Y0109126D01*
X0176975Y0108791D01*
X0176738Y0108381D01*
X0176615Y0107923D01*
X0176615Y0106569D01*
X0176308Y0106992D01*
X0175754Y0107547D01*
X0175623Y0107642D01*
X0176183Y0108201D01*
X0176814Y0109725D01*
X0176814Y0113627D01*
X0176862Y0113771D01*
X0176814Y0114447D01*
X0176814Y0115125D01*
X0176756Y0115265D01*
X0176745Y0115417D01*
X0176442Y0116023D01*
X0176183Y0116649D01*
X0176075Y0116756D01*
X0175564Y0117779D01*
X0175564Y0118321D01*
X0176075Y0119344D01*
X0176183Y0119451D01*
X0176442Y0120077D01*
X0176745Y0120683D01*
X0176756Y0120835D01*
X0176814Y0120975D01*
X0176814Y0121653D01*
X0176862Y0122329D01*
X0176814Y0122473D01*
X0176814Y0126711D01*
X0177011Y0127186D01*
X0177011Y0128914D01*
X0176349Y0130510D01*
X0175128Y0131732D01*
X0173531Y0132393D01*
X0171803Y0132393D01*
X0170207Y0131732D01*
X0168985Y0130510D01*
X0168324Y0128914D01*
X0168324Y0127186D01*
X0168521Y0126711D01*
X0168521Y0122779D01*
X0168010Y0121756D01*
X0167902Y0121649D01*
X0167643Y0121023D01*
X0167621Y0120980D01*
X0167748Y0121287D01*
X0167748Y0121434D01*
X0167789Y0121575D01*
X0167748Y0121943D01*
X0167748Y0129514D01*
X0167948Y0129997D01*
X0167948Y0131103D01*
X0167525Y0132125D01*
X0163229Y0136421D01*
X0162848Y0137341D01*
X0161959Y0138231D01*
X0160796Y0138712D01*
X0159538Y0138712D01*
X0158376Y0138231D01*
X0157487Y0137341D01*
X0157005Y0136179D01*
X0157005Y0134921D01*
X0157178Y0134502D01*
X0157126Y0134481D01*
X0156237Y0133591D01*
X0155755Y0132429D01*
X0155755Y0131171D01*
X0156237Y0130009D01*
X0157126Y0129119D01*
X0158046Y0128738D01*
X0158836Y0127948D01*
X0158836Y0122660D01*
X0155712Y0118495D01*
X0155479Y0118262D01*
X0155407Y0118088D01*
X0155294Y0117938D01*
X0155213Y0117618D01*
X0155086Y0117313D01*
X0155086Y0117125D01*
X0155040Y0116943D01*
X0155086Y0116617D01*
X0155086Y0108185D01*
X0154736Y0108363D01*
X0153991Y0108605D01*
X0153217Y0108728D01*
X0152960Y0108728D01*
X0152960Y0103884D01*
X0152690Y0103884D01*
X0152690Y0108728D01*
X0152433Y0108728D01*
X0151659Y0108605D01*
X0150913Y0108363D01*
X0150215Y0108007D01*
X0149581Y0107547D01*
X0149027Y0106992D01*
X0148719Y0106569D01*
X0148719Y0107923D01*
X0148597Y0108381D01*
X0148360Y0108791D01*
X0148025Y0109126D01*
X0147614Y0109363D01*
X0147156Y0109486D01*
X0146503Y0109486D01*
X0149129Y0112112D01*
X0149855Y0112838D01*
X0150248Y0113787D01*
X0150248Y0124813D01*
X0149855Y0125762D01*
X0144580Y0131038D01*
X0144580Y0131179D01*
X0144098Y0132341D01*
X0143209Y0133231D01*
X0142046Y0133712D01*
X0140788Y0133712D01*
X0139626Y0133231D01*
X0138737Y0132341D01*
X0138255Y0131179D01*
X0138255Y0130109D01*
X0137848Y0131091D01*
X0136959Y0131981D01*
X0135796Y0132462D01*
X0134538Y0132462D01*
X0134438Y0132421D01*
X0135010Y0132992D01*
X0135493Y0133192D01*
X0136275Y0133975D01*
X0136698Y0134997D01*
X0136698Y0135251D01*
X0137080Y0136171D01*
X0137080Y0137429D01*
X0136598Y0138591D01*
X0135889Y0139300D01*
X0136598Y0140009D01*
X0137080Y0141171D01*
X0137080Y0142429D01*
X0136598Y0143591D01*
X0135709Y0144481D01*
X0134788Y0144862D01*
X0131743Y0147908D01*
X0130721Y0148331D01*
X0129614Y0148331D01*
X0129131Y0148131D01*
X0113404Y0148131D01*
X0112455Y0147738D01*
X0111729Y0147012D01*
X0110383Y0145666D02*
X0030239Y0145666D01*
X0030239Y0144068D02*
X0108785Y0144068D01*
X0107186Y0142469D02*
X0030239Y0142469D01*
X0030239Y0140870D02*
X0105588Y0140870D01*
X0103989Y0139272D02*
X0030239Y0139272D01*
X0030239Y0137673D02*
X0102391Y0137673D01*
X0100792Y0136075D02*
X0030239Y0136075D01*
X0030239Y0134476D02*
X0099194Y0134476D01*
X0097595Y0132878D02*
X0030239Y0132878D01*
X0030239Y0131279D02*
X0039326Y0131279D01*
X0039180Y0131134D02*
X0038943Y0130723D01*
X0038820Y0130265D01*
X0038820Y0126325D01*
X0044324Y0126325D01*
X0044324Y0131828D01*
X0040383Y0131828D01*
X0039925Y0131706D01*
X0039515Y0131469D01*
X0039180Y0131134D01*
X0038820Y0129681D02*
X0030239Y0129681D01*
X0030239Y0128082D02*
X0038820Y0128082D01*
X0038820Y0126484D02*
X0030239Y0126484D01*
X0030239Y0124885D02*
X0038820Y0124885D01*
X0038820Y0125858D02*
X0038820Y0121917D01*
X0038943Y0121460D01*
X0039180Y0121049D01*
X0039515Y0120714D01*
X0039925Y0120477D01*
X0040383Y0120354D01*
X0044324Y0120354D01*
X0044324Y0125858D01*
X0044791Y0125858D01*
X0044791Y0126325D01*
X0050294Y0126325D01*
X0050294Y0130265D01*
X0050171Y0130723D01*
X0049934Y0131134D01*
X0049599Y0131469D01*
X0049189Y0131706D01*
X0048731Y0131828D01*
X0044791Y0131828D01*
X0044791Y0126325D01*
X0044324Y0126325D01*
X0044324Y0125858D01*
X0038820Y0125858D01*
X0038820Y0123287D02*
X0030239Y0123287D01*
X0030239Y0121688D02*
X0038881Y0121688D01*
X0044324Y0121688D02*
X0044791Y0121688D01*
X0044791Y0120354D02*
X0048731Y0120354D01*
X0049189Y0120477D01*
X0049599Y0120714D01*
X0049934Y0121049D01*
X0050171Y0121460D01*
X0050294Y0121917D01*
X0050294Y0125858D01*
X0044791Y0125858D01*
X0044791Y0120354D01*
X0044791Y0123287D02*
X0044324Y0123287D01*
X0044324Y0124885D02*
X0044791Y0124885D01*
X0044791Y0126484D02*
X0044324Y0126484D01*
X0044324Y0128082D02*
X0044791Y0128082D01*
X0044791Y0129681D02*
X0044324Y0129681D01*
X0044324Y0131279D02*
X0044791Y0131279D01*
X0049789Y0131279D02*
X0095997Y0131279D01*
X0094398Y0129681D02*
X0050294Y0129681D01*
X0050294Y0128082D02*
X0092799Y0128082D01*
X0091510Y0126484D02*
X0050294Y0126484D01*
X0050294Y0124885D02*
X0091336Y0124885D01*
X0091336Y0123287D02*
X0050294Y0123287D01*
X0050233Y0121688D02*
X0091336Y0121688D01*
X0091336Y0120090D02*
X0030239Y0120090D01*
X0030239Y0118491D02*
X0091336Y0118491D01*
X0091336Y0116893D02*
X0030239Y0116893D01*
X0030239Y0115294D02*
X0091336Y0115294D01*
X0091336Y0113696D02*
X0030239Y0113696D01*
X0030239Y0112097D02*
X0091336Y0112097D01*
X0091336Y0110499D02*
X0030239Y0110499D01*
X0030239Y0108900D02*
X0058974Y0108900D01*
X0058865Y0108791D02*
X0058628Y0108381D01*
X0058505Y0107923D01*
X0058505Y0103982D01*
X0064009Y0103982D01*
X0064009Y0103515D01*
X0064476Y0103515D01*
X0064476Y0103982D01*
X0069979Y0103982D01*
X0069979Y0107923D01*
X0069856Y0108381D01*
X0069619Y0108791D01*
X0069284Y0109126D01*
X0068874Y0109363D01*
X0068416Y0109486D01*
X0064476Y0109486D01*
X0064476Y0103982D01*
X0064009Y0103982D01*
X0064009Y0109486D01*
X0060068Y0109486D01*
X0059610Y0109363D01*
X0059200Y0109126D01*
X0058865Y0108791D01*
X0058505Y0107302D02*
X0030239Y0107302D01*
X0030239Y0105703D02*
X0058505Y0105703D01*
X0058505Y0104105D02*
X0030239Y0104105D01*
X0030239Y0102506D02*
X0058505Y0102506D01*
X0058505Y0103515D02*
X0058505Y0099575D01*
X0058628Y0099117D01*
X0058865Y0098707D01*
X0059200Y0098371D01*
X0059610Y0098134D01*
X0060068Y0098012D01*
X0064009Y0098012D01*
X0064009Y0103515D01*
X0058505Y0103515D01*
X0058505Y0100908D02*
X0030239Y0100908D01*
X0030239Y0099309D02*
X0058576Y0099309D01*
X0064009Y0099309D02*
X0064476Y0099309D01*
X0064476Y0098012D02*
X0068416Y0098012D01*
X0068874Y0098134D01*
X0069284Y0098371D01*
X0069619Y0098707D01*
X0069856Y0099117D01*
X0069979Y0099575D01*
X0069979Y0103515D01*
X0064476Y0103515D01*
X0064476Y0098012D01*
X0064476Y0100908D02*
X0064009Y0100908D01*
X0064009Y0102506D02*
X0064476Y0102506D01*
X0064476Y0104105D02*
X0064009Y0104105D01*
X0064009Y0105703D02*
X0064476Y0105703D01*
X0064476Y0107302D02*
X0064009Y0107302D01*
X0064009Y0108900D02*
X0064476Y0108900D01*
X0069510Y0108900D02*
X0091336Y0108900D01*
X0091336Y0107302D02*
X0069979Y0107302D01*
X0069979Y0105703D02*
X0091336Y0105703D01*
X0091336Y0104105D02*
X0069979Y0104105D01*
X0069979Y0102506D02*
X0091336Y0102506D01*
X0091336Y0100908D02*
X0069979Y0100908D01*
X0069908Y0099309D02*
X0091336Y0099309D01*
X0091336Y0097711D02*
X0030239Y0097711D01*
X0030239Y0096112D02*
X0091336Y0096112D01*
X0091336Y0094514D02*
X0030239Y0094514D01*
X0030239Y0092915D02*
X0091336Y0092915D01*
X0091336Y0091317D02*
X0030239Y0091317D01*
X0030239Y0089718D02*
X0091336Y0089718D01*
X0091336Y0088120D02*
X0030239Y0088120D01*
X0030239Y0086521D02*
X0091336Y0086521D01*
X0093917Y0083050D02*
X0056417Y0083050D01*
X0055211Y0080127D02*
X0030239Y0080127D01*
X0030239Y0078529D02*
X0080755Y0078529D01*
X0080900Y0076930D02*
X0080958Y0076930D01*
X0083917Y0078050D02*
X0083917Y0075550D01*
X0086498Y0074514D02*
X0086698Y0074997D01*
X0086698Y0076501D01*
X0087080Y0077421D01*
X0087080Y0078679D01*
X0086598Y0079841D01*
X0086170Y0080269D01*
X0092368Y0080269D01*
X0093288Y0079888D01*
X0094546Y0079888D01*
X0095709Y0080369D01*
X0096598Y0081259D01*
X0097080Y0082421D01*
X0097080Y0083679D01*
X0096598Y0084841D01*
X0096498Y0084941D01*
X0096498Y0090577D01*
X0097707Y0089368D01*
X0099303Y0088707D01*
X0101031Y0088707D01*
X0102628Y0089368D01*
X0103849Y0090590D01*
X0104511Y0092186D01*
X0104511Y0093914D01*
X0103849Y0095510D01*
X0102628Y0096732D01*
X0101031Y0097393D01*
X0099303Y0097393D01*
X0097707Y0096732D01*
X0096498Y0095523D01*
X0096498Y0124481D01*
X0114986Y0142969D01*
X0118399Y0142969D01*
X0118255Y0142886D01*
X0117920Y0142551D01*
X0117683Y0142140D01*
X0117560Y0141683D01*
X0117560Y0137742D01*
X0123064Y0137742D01*
X0123064Y0137275D01*
X0117560Y0137275D01*
X0117560Y0133335D01*
X0117664Y0132947D01*
X0107979Y0123262D01*
X0107586Y0122313D01*
X0107586Y0109486D01*
X0103846Y0109486D01*
X0103846Y0103982D01*
X0103379Y0103982D01*
X0103379Y0103515D01*
X0103846Y0103515D01*
X0103846Y0098012D01*
X0107586Y0098012D01*
X0107586Y0074968D01*
X0107471Y0074852D01*
X0106986Y0073683D01*
X0106986Y0071132D01*
X0106949Y0071116D01*
X0105351Y0069518D01*
X0105283Y0069354D01*
X0105264Y0069411D01*
X0104871Y0070183D01*
X0104362Y0070883D01*
X0103750Y0071495D01*
X0103050Y0072004D01*
X0102279Y0072397D01*
X0101455Y0072665D01*
X0100600Y0072800D01*
X0100367Y0072800D01*
X0100367Y0067500D01*
X0099967Y0067500D01*
X0099967Y0072800D01*
X0099734Y0072800D01*
X0098879Y0072665D01*
X0098056Y0072397D01*
X0097285Y0072004D01*
X0096584Y0071495D01*
X0095972Y0070883D01*
X0095463Y0070183D01*
X0095070Y0069411D01*
X0095052Y0069354D01*
X0094984Y0069518D01*
X0093385Y0071116D01*
X0091297Y0071981D01*
X0089037Y0071981D01*
X0086949Y0071116D01*
X0086498Y0070665D01*
X0086498Y0074514D01*
X0086498Y0073733D02*
X0107007Y0073733D01*
X0106986Y0072134D02*
X0102794Y0072134D01*
X0104615Y0070536D02*
X0106369Y0070536D01*
X0100367Y0070536D02*
X0099967Y0070536D01*
X0099967Y0072134D02*
X0100367Y0072134D01*
X0097541Y0072134D02*
X0086498Y0072134D01*
X0086698Y0075332D02*
X0107586Y0075332D01*
X0107586Y0076930D02*
X0086876Y0076930D01*
X0087080Y0078529D02*
X0107586Y0078529D01*
X0107586Y0080127D02*
X0095124Y0080127D01*
X0096791Y0081726D02*
X0107586Y0081726D01*
X0107586Y0083324D02*
X0097080Y0083324D01*
X0096517Y0084923D02*
X0107586Y0084923D01*
X0107586Y0086521D02*
X0096498Y0086521D01*
X0096498Y0088120D02*
X0107586Y0088120D01*
X0107586Y0089718D02*
X0102978Y0089718D01*
X0104150Y0091317D02*
X0107586Y0091317D01*
X0107586Y0092915D02*
X0104511Y0092915D01*
X0104262Y0094514D02*
X0107586Y0094514D01*
X0107586Y0096112D02*
X0103247Y0096112D01*
X0103379Y0098012D02*
X0103379Y0103515D01*
X0097875Y0103515D01*
X0097875Y0099575D01*
X0097998Y0099117D01*
X0098235Y0098707D01*
X0098570Y0098371D01*
X0098980Y0098134D01*
X0099438Y0098012D01*
X0103379Y0098012D01*
X0103379Y0099309D02*
X0103846Y0099309D01*
X0103846Y0100908D02*
X0103379Y0100908D01*
X0103379Y0102506D02*
X0103846Y0102506D01*
X0103379Y0103982D02*
X0097875Y0103982D01*
X0097875Y0107923D01*
X0097998Y0108381D01*
X0098235Y0108791D01*
X0098570Y0109126D01*
X0098980Y0109363D01*
X0099438Y0109486D01*
X0103379Y0109486D01*
X0103379Y0103982D01*
X0103379Y0104105D02*
X0103846Y0104105D01*
X0103846Y0105703D02*
X0103379Y0105703D01*
X0103379Y0107302D02*
X0103846Y0107302D01*
X0103846Y0108900D02*
X0103379Y0108900D01*
X0107586Y0110499D02*
X0096498Y0110499D01*
X0096498Y0112097D02*
X0107586Y0112097D01*
X0107586Y0113696D02*
X0096498Y0113696D01*
X0096498Y0115294D02*
X0107586Y0115294D01*
X0107586Y0116893D02*
X0096498Y0116893D01*
X0096498Y0118491D02*
X0107586Y0118491D01*
X0107586Y0120090D02*
X0096498Y0120090D01*
X0096498Y0121688D02*
X0107586Y0121688D01*
X0108004Y0123287D02*
X0096498Y0123287D01*
X0096903Y0124885D02*
X0109602Y0124885D01*
X0111201Y0126484D02*
X0098501Y0126484D01*
X0100100Y0128082D02*
X0112800Y0128082D01*
X0114398Y0129681D02*
X0101698Y0129681D01*
X0103297Y0131279D02*
X0115997Y0131279D01*
X0117595Y0132878D02*
X0104895Y0132878D01*
X0106494Y0134476D02*
X0117560Y0134476D01*
X0117560Y0136075D02*
X0108092Y0136075D01*
X0109691Y0137673D02*
X0123064Y0137673D01*
X0123531Y0137673D02*
X0130856Y0137673D01*
X0130755Y0137429D02*
X0130755Y0136171D01*
X0130794Y0136077D01*
X0129098Y0134381D01*
X0129034Y0134381D01*
X0129034Y0137275D01*
X0123531Y0137275D01*
X0123531Y0137742D01*
X0129034Y0137742D01*
X0129034Y0141683D01*
X0128912Y0142140D01*
X0128675Y0142551D01*
X0128339Y0142886D01*
X0128196Y0142969D01*
X0128815Y0142969D01*
X0130855Y0140929D01*
X0131237Y0140009D01*
X0131945Y0139300D01*
X0131237Y0138591D01*
X0130755Y0137429D01*
X0130792Y0136075D02*
X0129034Y0136075D01*
X0129034Y0134476D02*
X0129194Y0134476D01*
X0133917Y0135550D02*
X0133917Y0136800D01*
X0131917Y0139272D02*
X0129034Y0139272D01*
X0129034Y0140870D02*
X0130880Y0140870D01*
X0129315Y0142469D02*
X0128722Y0142469D01*
X0130167Y0145550D02*
X0133917Y0141800D01*
X0136122Y0144068D02*
X0168521Y0144068D01*
X0168521Y0142469D02*
X0137063Y0142469D01*
X0136955Y0140870D02*
X0168521Y0140870D01*
X0168521Y0139272D02*
X0135917Y0139272D01*
X0136978Y0137673D02*
X0157819Y0137673D01*
X0157005Y0136075D02*
X0137040Y0136075D01*
X0136483Y0134476D02*
X0157122Y0134476D01*
X0155941Y0132878D02*
X0143561Y0132878D01*
X0144538Y0131279D02*
X0155755Y0131279D01*
X0156564Y0129681D02*
X0145937Y0129681D01*
X0147535Y0128082D02*
X0158702Y0128082D01*
X0158836Y0126484D02*
X0149134Y0126484D01*
X0150219Y0124885D02*
X0158836Y0124885D01*
X0158836Y0123287D02*
X0150248Y0123287D01*
X0150248Y0121688D02*
X0158107Y0121688D01*
X0156908Y0120090D02*
X0150248Y0120090D01*
X0150248Y0118491D02*
X0155708Y0118491D01*
X0155047Y0116893D02*
X0150248Y0116893D01*
X0150248Y0115294D02*
X0155086Y0115294D01*
X0155086Y0113696D02*
X0150211Y0113696D01*
X0149115Y0112097D02*
X0155086Y0112097D01*
X0155086Y0110499D02*
X0147516Y0110499D01*
X0148250Y0108900D02*
X0155086Y0108900D01*
X0152960Y0107302D02*
X0152690Y0107302D01*
X0152690Y0105703D02*
X0152960Y0105703D01*
X0152960Y0104105D02*
X0152690Y0104105D01*
X0152690Y0103884D02*
X0152690Y0103614D01*
X0152960Y0103614D01*
X0152960Y0098770D01*
X0153217Y0098770D01*
X0153991Y0098892D01*
X0154736Y0099134D01*
X0155086Y0099313D01*
X0155086Y0072468D01*
X0154971Y0072352D01*
X0154486Y0071183D01*
X0154486Y0070015D01*
X0153385Y0071116D01*
X0153348Y0071132D01*
X0153348Y0073683D01*
X0152864Y0074852D01*
X0152748Y0074968D01*
X0152748Y0076063D01*
X0152355Y0077012D01*
X0130248Y0099119D01*
X0130248Y0100883D01*
X0130523Y0100505D01*
X0131077Y0099951D01*
X0131711Y0099490D01*
X0132410Y0099134D01*
X0133155Y0098892D01*
X0133929Y0098770D01*
X0134186Y0098770D01*
X0134186Y0103614D01*
X0134456Y0103614D01*
X0134456Y0103884D01*
X0139300Y0103884D01*
X0139300Y0103982D01*
X0142749Y0103982D01*
X0142749Y0103515D01*
X0143216Y0103515D01*
X0143216Y0098012D01*
X0147156Y0098012D01*
X0147614Y0098134D01*
X0148025Y0098371D01*
X0148360Y0098707D01*
X0148597Y0099117D01*
X0148719Y0099575D01*
X0148719Y0100929D01*
X0149027Y0100505D01*
X0149581Y0099951D01*
X0150215Y0099490D01*
X0150913Y0099134D01*
X0151659Y0098892D01*
X0152433Y0098770D01*
X0152690Y0098770D01*
X0152690Y0103614D01*
X0147846Y0103614D01*
X0147846Y0103515D01*
X0143216Y0103515D01*
X0143216Y0103982D01*
X0147846Y0103982D01*
X0147846Y0103884D01*
X0152690Y0103884D01*
X0152690Y0102506D02*
X0152960Y0102506D01*
X0152960Y0100908D02*
X0152690Y0100908D01*
X0152690Y0099309D02*
X0152960Y0099309D01*
X0155079Y0099309D02*
X0155086Y0099309D01*
X0155086Y0097711D02*
X0131657Y0097711D01*
X0132067Y0099309D02*
X0130248Y0099309D01*
X0134186Y0099309D02*
X0134456Y0099309D01*
X0134456Y0098770D02*
X0134713Y0098770D01*
X0135487Y0098892D01*
X0136232Y0099134D01*
X0136930Y0099490D01*
X0137245Y0099719D01*
X0137245Y0099575D01*
X0137368Y0099117D01*
X0137605Y0098707D01*
X0137940Y0098371D01*
X0138350Y0098134D01*
X0138808Y0098012D01*
X0142749Y0098012D01*
X0142749Y0103515D01*
X0139300Y0103515D01*
X0139300Y0103614D01*
X0134456Y0103614D01*
X0134456Y0098770D01*
X0134456Y0100908D02*
X0134186Y0100908D01*
X0134186Y0102506D02*
X0134456Y0102506D01*
X0136575Y0099309D02*
X0137316Y0099309D01*
X0133255Y0096112D02*
X0149228Y0096112D01*
X0149303Y0096143D02*
X0147707Y0095482D01*
X0146485Y0094260D01*
X0145824Y0092664D01*
X0145824Y0090936D01*
X0146485Y0089340D01*
X0147707Y0088118D01*
X0149303Y0087457D01*
X0151031Y0087457D01*
X0152628Y0088118D01*
X0153849Y0089340D01*
X0154511Y0090936D01*
X0154511Y0092664D01*
X0153849Y0094260D01*
X0152628Y0095482D01*
X0151031Y0096143D01*
X0149303Y0096143D01*
X0151106Y0096112D02*
X0155086Y0096112D01*
X0155086Y0094514D02*
X0153596Y0094514D01*
X0154407Y0092915D02*
X0155086Y0092915D01*
X0155086Y0091317D02*
X0154511Y0091317D01*
X0154006Y0089718D02*
X0155086Y0089718D01*
X0155086Y0088120D02*
X0152629Y0088120D01*
X0155086Y0086521D02*
X0142846Y0086521D01*
X0141248Y0088120D02*
X0147705Y0088120D01*
X0146328Y0089718D02*
X0139649Y0089718D01*
X0138051Y0091317D02*
X0145824Y0091317D01*
X0145928Y0092915D02*
X0136452Y0092915D01*
X0134854Y0094514D02*
X0146739Y0094514D01*
X0148648Y0099309D02*
X0150571Y0099309D01*
X0148734Y0100908D02*
X0148719Y0100908D01*
X0143216Y0100908D02*
X0142749Y0100908D01*
X0142749Y0102506D02*
X0143216Y0102506D01*
X0143216Y0099309D02*
X0142749Y0099309D01*
X0148719Y0107302D02*
X0149336Y0107302D01*
X0143413Y0113696D02*
X0135713Y0113696D01*
X0135149Y0113131D02*
X0141905Y0119888D01*
X0142046Y0119888D01*
X0143209Y0120369D01*
X0144098Y0121259D01*
X0144580Y0122421D01*
X0144580Y0123679D01*
X0144538Y0123779D01*
X0145086Y0123231D01*
X0145086Y0115369D01*
X0142848Y0113131D01*
X0135149Y0113131D01*
X0137312Y0115294D02*
X0145011Y0115294D01*
X0145086Y0116893D02*
X0138910Y0116893D01*
X0140509Y0118491D02*
X0145086Y0118491D01*
X0145086Y0120090D02*
X0142534Y0120090D01*
X0144276Y0121688D02*
X0145086Y0121688D01*
X0145030Y0123287D02*
X0144580Y0123287D01*
X0142146Y0126171D02*
X0140929Y0127388D01*
X0140788Y0127388D01*
X0139626Y0127869D01*
X0138737Y0128759D01*
X0138330Y0129741D01*
X0138330Y0128671D01*
X0137848Y0127509D01*
X0136959Y0126619D01*
X0135796Y0126138D01*
X0134538Y0126138D01*
X0133376Y0126619D01*
X0133276Y0126719D01*
X0122486Y0126719D01*
X0115248Y0119481D01*
X0115248Y0095369D01*
X0116105Y0094512D01*
X0116498Y0093563D01*
X0116498Y0092537D01*
X0116498Y0075369D01*
X0116886Y0074981D01*
X0117050Y0074981D01*
X0118219Y0074497D01*
X0119735Y0072981D01*
X0121297Y0072981D01*
X0121336Y0072965D01*
X0121336Y0106063D01*
X0121729Y0107012D01*
X0125229Y0110512D01*
X0123531Y0110512D01*
X0123531Y0116015D01*
X0123064Y0116015D01*
X0123064Y0110512D01*
X0119123Y0110512D01*
X0118665Y0110634D01*
X0118255Y0110871D01*
X0117920Y0111207D01*
X0117683Y0111617D01*
X0117560Y0112075D01*
X0117560Y0116015D01*
X0123064Y0116015D01*
X0123064Y0116482D01*
X0117560Y0116482D01*
X0117560Y0120423D01*
X0117683Y0120881D01*
X0117920Y0121291D01*
X0118255Y0121626D01*
X0118665Y0121863D01*
X0119123Y0121986D01*
X0123064Y0121986D01*
X0123064Y0116482D01*
X0123531Y0116482D01*
X0129034Y0116482D01*
X0129034Y0120423D01*
X0128912Y0120881D01*
X0128675Y0121291D01*
X0128339Y0121626D01*
X0127929Y0121863D01*
X0127471Y0121986D01*
X0123531Y0121986D01*
X0123531Y0116482D01*
X0123531Y0116015D01*
X0129034Y0116015D01*
X0129034Y0114317D01*
X0138255Y0123538D01*
X0138255Y0123679D01*
X0138737Y0124841D01*
X0139626Y0125731D01*
X0140788Y0126212D01*
X0142046Y0126212D01*
X0142146Y0126171D01*
X0141833Y0126484D02*
X0136632Y0126484D01*
X0138086Y0128082D02*
X0139413Y0128082D01*
X0138355Y0129681D02*
X0138330Y0129681D01*
X0138297Y0131279D02*
X0137660Y0131279D01*
X0139273Y0132878D02*
X0134895Y0132878D01*
X0133703Y0126484D02*
X0122251Y0126484D01*
X0120653Y0124885D02*
X0138781Y0124885D01*
X0138004Y0123287D02*
X0119054Y0123287D01*
X0118363Y0121688D02*
X0117456Y0121688D01*
X0117560Y0120090D02*
X0115857Y0120090D01*
X0115248Y0118491D02*
X0117560Y0118491D01*
X0117560Y0116893D02*
X0115248Y0116893D01*
X0115248Y0115294D02*
X0117560Y0115294D01*
X0117560Y0113696D02*
X0115248Y0113696D01*
X0115248Y0112097D02*
X0117560Y0112097D01*
X0115248Y0110499D02*
X0125216Y0110499D01*
X0123617Y0108900D02*
X0115248Y0108900D01*
X0115248Y0107302D02*
X0122019Y0107302D01*
X0121336Y0105703D02*
X0115248Y0105703D01*
X0115248Y0104105D02*
X0121336Y0104105D01*
X0121336Y0102506D02*
X0115248Y0102506D01*
X0115248Y0100908D02*
X0121336Y0100908D01*
X0121336Y0099309D02*
X0115248Y0099309D01*
X0115248Y0097711D02*
X0121336Y0097711D01*
X0121336Y0096112D02*
X0115248Y0096112D01*
X0116104Y0094514D02*
X0121336Y0094514D01*
X0121336Y0092915D02*
X0116498Y0092915D01*
X0116498Y0091317D02*
X0121336Y0091317D01*
X0121336Y0089718D02*
X0116498Y0089718D01*
X0116498Y0088120D02*
X0121336Y0088120D01*
X0121336Y0086521D02*
X0116498Y0086521D01*
X0116498Y0084923D02*
X0121336Y0084923D01*
X0121336Y0083324D02*
X0116498Y0083324D01*
X0116498Y0081726D02*
X0121336Y0081726D01*
X0121336Y0080127D02*
X0116498Y0080127D01*
X0116498Y0078529D02*
X0121336Y0078529D01*
X0121336Y0076930D02*
X0116498Y0076930D01*
X0116536Y0075332D02*
X0121336Y0075332D01*
X0121336Y0073733D02*
X0118983Y0073733D01*
X0126498Y0074119D02*
X0126498Y0095569D01*
X0131548Y0090520D01*
X0131457Y0090482D01*
X0130235Y0089260D01*
X0129574Y0087664D01*
X0129574Y0085936D01*
X0130235Y0084340D01*
X0131457Y0083118D01*
X0133053Y0082457D01*
X0134781Y0082457D01*
X0136378Y0083118D01*
X0137599Y0084340D01*
X0137637Y0084430D01*
X0147396Y0074671D01*
X0146986Y0073683D01*
X0146986Y0071132D01*
X0146949Y0071116D01*
X0145351Y0069518D01*
X0145283Y0069354D01*
X0145264Y0069411D01*
X0144871Y0070183D01*
X0144362Y0070883D01*
X0143750Y0071495D01*
X0143050Y0072004D01*
X0142279Y0072397D01*
X0141455Y0072665D01*
X0140600Y0072800D01*
X0140367Y0072800D01*
X0140367Y0067500D01*
X0139967Y0067500D01*
X0139967Y0072800D01*
X0139734Y0072800D01*
X0138879Y0072665D01*
X0138056Y0072397D01*
X0137285Y0072004D01*
X0136584Y0071495D01*
X0135972Y0070883D01*
X0135463Y0070183D01*
X0135070Y0069411D01*
X0135052Y0069354D01*
X0134984Y0069518D01*
X0133385Y0071116D01*
X0131297Y0071981D01*
X0129485Y0071981D01*
X0128219Y0073247D01*
X0127050Y0073731D01*
X0126886Y0073731D01*
X0126498Y0074119D01*
X0126885Y0073733D02*
X0147007Y0073733D01*
X0146986Y0072134D02*
X0142794Y0072134D01*
X0144615Y0070536D02*
X0146369Y0070536D01*
X0146736Y0075332D02*
X0126498Y0075332D01*
X0126498Y0076930D02*
X0145137Y0076930D01*
X0143539Y0078529D02*
X0126498Y0078529D01*
X0126498Y0080127D02*
X0141940Y0080127D01*
X0140342Y0081726D02*
X0126498Y0081726D01*
X0126498Y0083324D02*
X0131251Y0083324D01*
X0129994Y0084923D02*
X0126498Y0084923D01*
X0126498Y0086521D02*
X0129574Y0086521D01*
X0129763Y0088120D02*
X0126498Y0088120D01*
X0126498Y0089718D02*
X0130693Y0089718D01*
X0130750Y0091317D02*
X0126498Y0091317D01*
X0126498Y0092915D02*
X0129152Y0092915D01*
X0127553Y0094514D02*
X0126498Y0094514D01*
X0136584Y0083324D02*
X0138743Y0083324D01*
X0144445Y0084923D02*
X0155086Y0084923D01*
X0155086Y0083324D02*
X0146043Y0083324D01*
X0147642Y0081726D02*
X0155086Y0081726D01*
X0155086Y0080127D02*
X0149240Y0080127D01*
X0150839Y0078529D02*
X0155086Y0078529D01*
X0155086Y0076930D02*
X0152389Y0076930D01*
X0152748Y0075332D02*
X0155086Y0075332D01*
X0155086Y0073733D02*
X0153328Y0073733D01*
X0153348Y0072134D02*
X0154880Y0072134D01*
X0154486Y0070536D02*
X0153966Y0070536D01*
X0160167Y0068050D02*
X0160167Y0067300D01*
X0156890Y0062543D02*
X0154445Y0062543D01*
X0152084Y0060945D02*
X0168250Y0060945D01*
X0165890Y0062543D02*
X0163445Y0062543D01*
X0165384Y0069551D02*
X0164984Y0070518D01*
X0163385Y0072116D01*
X0161297Y0072981D01*
X0160248Y0072981D01*
X0160248Y0095569D01*
X0167586Y0088231D01*
X0167586Y0073718D01*
X0167471Y0073602D01*
X0166986Y0072433D01*
X0166986Y0071132D01*
X0166949Y0071116D01*
X0165384Y0069551D01*
X0164966Y0070536D02*
X0166369Y0070536D01*
X0166986Y0072134D02*
X0163341Y0072134D01*
X0160248Y0073733D02*
X0167586Y0073733D01*
X0167586Y0075332D02*
X0160248Y0075332D01*
X0160248Y0076930D02*
X0167586Y0076930D01*
X0167586Y0078529D02*
X0160248Y0078529D01*
X0160248Y0080127D02*
X0167586Y0080127D01*
X0167586Y0081726D02*
X0160248Y0081726D01*
X0160248Y0083324D02*
X0167586Y0083324D01*
X0167586Y0084923D02*
X0160248Y0084923D01*
X0160248Y0086521D02*
X0167586Y0086521D01*
X0167586Y0088120D02*
X0160248Y0088120D01*
X0160248Y0089718D02*
X0166099Y0089718D01*
X0164500Y0091317D02*
X0160248Y0091317D01*
X0160248Y0092915D02*
X0162902Y0092915D01*
X0161303Y0094514D02*
X0160248Y0094514D01*
X0172748Y0083324D02*
X0262117Y0083324D01*
X0262117Y0081726D02*
X0208884Y0081726D01*
X0208878Y0081732D02*
X0207281Y0082393D01*
X0205553Y0082393D01*
X0203957Y0081732D01*
X0202735Y0080510D01*
X0202074Y0078914D01*
X0202074Y0077186D01*
X0202735Y0075590D01*
X0203957Y0074368D01*
X0205553Y0073707D01*
X0207281Y0073707D01*
X0208878Y0074368D01*
X0210099Y0075590D01*
X0210761Y0077186D01*
X0210761Y0078914D01*
X0210099Y0080510D01*
X0208878Y0081732D01*
X0210258Y0080127D02*
X0262575Y0080127D01*
X0262117Y0084923D02*
X0178182Y0084923D01*
X0179235Y0086521D02*
X0272117Y0086521D01*
X0272117Y0086600D02*
X0262117Y0086600D01*
X0262117Y0090256D01*
X0262217Y0090758D01*
X0262413Y0091232D01*
X0262698Y0091657D01*
X0263060Y0092020D01*
X0263486Y0092304D01*
X0263959Y0092500D01*
X0264461Y0092600D01*
X0272117Y0092600D01*
X0272117Y0086600D01*
X0264717Y0090000D02*
X0281117Y0090000D01*
X0281117Y0081600D01*
X0264717Y0081600D01*
X0264717Y0090000D01*
X0264717Y0083199D02*
X0281117Y0083199D01*
X0281117Y0084798D02*
X0264717Y0084798D01*
X0264717Y0086397D02*
X0281117Y0086397D01*
X0281117Y0087996D02*
X0264717Y0087996D01*
X0264717Y0089595D02*
X0281117Y0089595D01*
X0278113Y0092915D02*
X0192425Y0092915D01*
X0193189Y0094514D02*
X0278121Y0094514D01*
X0278129Y0096112D02*
X0193261Y0096112D01*
X0192723Y0097711D02*
X0278137Y0097711D01*
X0278145Y0099309D02*
X0191191Y0099309D01*
X0188089Y0100908D02*
X0278153Y0100908D01*
X0278160Y0102506D02*
X0188089Y0102506D01*
X0188089Y0104105D02*
X0278168Y0104105D01*
X0278176Y0105703D02*
X0188089Y0105703D01*
X0188089Y0107302D02*
X0278184Y0107302D01*
X0278192Y0108900D02*
X0193583Y0108900D01*
X0194984Y0110499D02*
X0278200Y0110499D01*
X0273717Y0112097D02*
X0272117Y0112097D01*
X0272117Y0113696D02*
X0273717Y0113696D01*
X0273717Y0115294D02*
X0272117Y0115294D01*
X0272117Y0116893D02*
X0273717Y0116893D01*
X0281117Y0122000D02*
X0264717Y0122000D01*
X0281117Y0122000D02*
X0281117Y0113600D01*
X0264717Y0113600D01*
X0264717Y0122000D01*
X0264717Y0115199D02*
X0281117Y0115199D01*
X0281117Y0116798D02*
X0264717Y0116798D01*
X0264717Y0118397D02*
X0281117Y0118397D01*
X0281117Y0119996D02*
X0264717Y0119996D01*
X0264717Y0121595D02*
X0281117Y0121595D01*
X0278270Y0124885D02*
X0232300Y0124885D01*
X0232281Y0124893D02*
X0230553Y0124893D01*
X0228957Y0124232D01*
X0227735Y0123010D01*
X0227074Y0121414D01*
X0227074Y0119686D01*
X0227735Y0118090D01*
X0228957Y0116868D01*
X0230553Y0116207D01*
X0232281Y0116207D01*
X0233878Y0116868D01*
X0235099Y0118090D01*
X0235761Y0119686D01*
X0235761Y0121414D01*
X0235099Y0123010D01*
X0233878Y0124232D01*
X0232281Y0124893D01*
X0230534Y0124885D02*
X0176814Y0124885D01*
X0176814Y0123287D02*
X0228012Y0123287D01*
X0227188Y0121688D02*
X0176816Y0121688D01*
X0176448Y0120090D02*
X0227074Y0120090D01*
X0227569Y0118491D02*
X0175649Y0118491D01*
X0176007Y0116893D02*
X0187641Y0116893D01*
X0187376Y0116700D02*
X0186822Y0116146D01*
X0186362Y0115512D01*
X0186006Y0114814D01*
X0185764Y0114068D01*
X0185641Y0113294D01*
X0185641Y0113037D01*
X0190485Y0113037D01*
X0190485Y0117881D01*
X0190228Y0117881D01*
X0189454Y0117759D01*
X0188709Y0117517D01*
X0188010Y0117161D01*
X0187376Y0116700D01*
X0186251Y0115294D02*
X0176754Y0115294D01*
X0176837Y0113696D02*
X0185705Y0113696D01*
X0185706Y0112097D02*
X0176814Y0112097D01*
X0176814Y0110499D02*
X0186257Y0110499D01*
X0187621Y0108900D02*
X0187657Y0108900D01*
X0190485Y0108900D02*
X0190755Y0108900D01*
X0190755Y0110499D02*
X0190485Y0110499D01*
X0190485Y0112097D02*
X0190755Y0112097D01*
X0190755Y0113696D02*
X0190485Y0113696D01*
X0190485Y0115294D02*
X0190755Y0115294D01*
X0190755Y0116893D02*
X0190485Y0116893D01*
X0193599Y0116893D02*
X0228932Y0116893D01*
X0233902Y0116893D02*
X0262117Y0116893D01*
X0262117Y0115294D02*
X0194990Y0115294D01*
X0195536Y0113696D02*
X0262117Y0113696D01*
X0262594Y0112097D02*
X0195534Y0112097D01*
X0182586Y0108900D02*
X0182119Y0108900D01*
X0182119Y0107302D02*
X0182586Y0107302D01*
X0182586Y0105703D02*
X0182119Y0105703D01*
X0182119Y0104105D02*
X0182586Y0104105D01*
X0176615Y0107302D02*
X0175998Y0107302D01*
X0176472Y0108900D02*
X0177084Y0108900D01*
X0167942Y0121688D02*
X0167777Y0121688D01*
X0167748Y0123287D02*
X0168521Y0123287D01*
X0168521Y0124885D02*
X0167748Y0124885D01*
X0167748Y0126484D02*
X0168521Y0126484D01*
X0168324Y0128082D02*
X0167748Y0128082D01*
X0167818Y0129681D02*
X0168642Y0129681D01*
X0167875Y0131279D02*
X0169754Y0131279D01*
X0170786Y0132878D02*
X0166772Y0132878D01*
X0165174Y0134476D02*
X0168929Y0134476D01*
X0168324Y0136075D02*
X0163575Y0136075D01*
X0162516Y0137673D02*
X0168328Y0137673D01*
X0165167Y0130550D02*
X0160167Y0135550D01*
X0158917Y0131800D02*
X0161417Y0129300D01*
X0174548Y0132878D02*
X0185750Y0132878D01*
X0185764Y0132966D02*
X0185641Y0132192D01*
X0185641Y0131935D01*
X0190485Y0131935D01*
X0190485Y0131665D01*
X0185641Y0131665D01*
X0185641Y0131408D01*
X0185764Y0130634D01*
X0186006Y0129889D01*
X0186362Y0129190D01*
X0186822Y0128556D01*
X0187376Y0128002D01*
X0188010Y0127541D01*
X0188709Y0127186D01*
X0189454Y0126943D01*
X0190228Y0126821D01*
X0190485Y0126821D01*
X0190485Y0131665D01*
X0190755Y0131665D01*
X0190755Y0126821D01*
X0191012Y0126821D01*
X0191786Y0126943D01*
X0192531Y0127186D01*
X0193230Y0127541D01*
X0193864Y0128002D01*
X0194418Y0128556D01*
X0194879Y0129190D01*
X0195234Y0129889D01*
X0195477Y0130634D01*
X0195599Y0131408D01*
X0195599Y0131665D01*
X0190755Y0131665D01*
X0190755Y0131935D01*
X0190485Y0131935D01*
X0190485Y0136779D01*
X0190228Y0136779D01*
X0189454Y0136657D01*
X0188709Y0136414D01*
X0188010Y0136059D01*
X0187376Y0135598D01*
X0186822Y0135044D01*
X0186362Y0134410D01*
X0186006Y0133711D01*
X0185764Y0132966D01*
X0186410Y0134476D02*
X0176406Y0134476D01*
X0177011Y0136075D02*
X0188043Y0136075D01*
X0190485Y0136075D02*
X0190755Y0136075D01*
X0190755Y0136779D02*
X0191012Y0136779D01*
X0191786Y0136657D01*
X0192531Y0136414D01*
X0193230Y0136059D01*
X0193864Y0135598D01*
X0194418Y0135044D01*
X0194879Y0134410D01*
X0195234Y0133711D01*
X0195477Y0132966D01*
X0195599Y0132192D01*
X0195599Y0131935D01*
X0190755Y0131935D01*
X0190755Y0136779D01*
X0190755Y0134476D02*
X0190485Y0134476D01*
X0190485Y0132878D02*
X0190755Y0132878D01*
X0190755Y0131279D02*
X0190485Y0131279D01*
X0190485Y0129681D02*
X0190755Y0129681D01*
X0190755Y0128082D02*
X0190485Y0128082D01*
X0187296Y0128082D02*
X0177011Y0128082D01*
X0176814Y0126484D02*
X0278278Y0126484D01*
X0278286Y0128082D02*
X0193944Y0128082D01*
X0195129Y0129681D02*
X0278293Y0129681D01*
X0278301Y0131279D02*
X0195579Y0131279D01*
X0195491Y0132878D02*
X0278309Y0132878D01*
X0278317Y0134476D02*
X0194830Y0134476D01*
X0193197Y0136075D02*
X0278325Y0136075D01*
X0278333Y0137673D02*
X0177007Y0137673D01*
X0176814Y0139272D02*
X0263544Y0139272D01*
X0262211Y0140870D02*
X0176814Y0140870D01*
X0176814Y0142469D02*
X0262117Y0142469D01*
X0262117Y0144068D02*
X0176814Y0144068D01*
X0177397Y0145666D02*
X0272117Y0145666D01*
X0264717Y0150000D02*
X0281117Y0150000D01*
X0281117Y0141600D01*
X0264717Y0141600D01*
X0264717Y0150000D01*
X0264717Y0143199D02*
X0281117Y0143199D01*
X0281117Y0144798D02*
X0264717Y0144798D01*
X0264717Y0146397D02*
X0281117Y0146397D01*
X0281117Y0147996D02*
X0264717Y0147996D01*
X0264717Y0149595D02*
X0281117Y0149595D01*
X0278411Y0153659D02*
X0194623Y0153659D01*
X0194418Y0153941D02*
X0193864Y0154495D01*
X0193230Y0154956D01*
X0192531Y0155312D01*
X0191786Y0155554D01*
X0191012Y0155677D01*
X0190755Y0155677D01*
X0190755Y0150833D01*
X0190485Y0150833D01*
X0190485Y0155677D01*
X0190228Y0155677D01*
X0189454Y0155554D01*
X0188709Y0155312D01*
X0188010Y0154956D01*
X0187376Y0154495D01*
X0186822Y0153941D01*
X0186362Y0153307D01*
X0186006Y0152609D01*
X0185764Y0151864D01*
X0185641Y0151090D01*
X0185641Y0150833D01*
X0190485Y0150833D01*
X0190485Y0150563D01*
X0185641Y0150563D01*
X0185641Y0150306D01*
X0185764Y0149532D01*
X0186006Y0148786D01*
X0186362Y0148088D01*
X0186822Y0147454D01*
X0187376Y0146900D01*
X0188010Y0146439D01*
X0188709Y0146083D01*
X0189454Y0145841D01*
X0190228Y0145719D01*
X0190485Y0145718D01*
X0190485Y0150563D01*
X0190755Y0150563D01*
X0190755Y0150833D01*
X0195599Y0150833D01*
X0195599Y0151090D01*
X0195477Y0151864D01*
X0195234Y0152609D01*
X0194879Y0153307D01*
X0194418Y0153941D01*
X0195413Y0152060D02*
X0263121Y0152060D01*
X0263060Y0152020D02*
X0262698Y0151657D01*
X0262413Y0151232D01*
X0262217Y0150758D01*
X0262117Y0150256D01*
X0262117Y0146600D01*
X0272117Y0146600D01*
X0272117Y0152600D01*
X0264461Y0152600D01*
X0263959Y0152500D01*
X0263486Y0152304D01*
X0263060Y0152020D01*
X0262158Y0150462D02*
X0195599Y0150462D01*
X0195599Y0150563D02*
X0190755Y0150563D01*
X0190755Y0145719D01*
X0191012Y0145719D01*
X0191786Y0145841D01*
X0192531Y0146083D01*
X0193230Y0146439D01*
X0193864Y0146900D01*
X0194418Y0147454D01*
X0194879Y0148088D01*
X0195234Y0148786D01*
X0195477Y0149532D01*
X0195599Y0150306D01*
X0195599Y0150563D01*
X0195259Y0148863D02*
X0262117Y0148863D01*
X0262117Y0147265D02*
X0194229Y0147265D01*
X0190755Y0147265D02*
X0190485Y0147265D01*
X0190485Y0148863D02*
X0190755Y0148863D01*
X0190755Y0150462D02*
X0190485Y0150462D01*
X0190485Y0152060D02*
X0190755Y0152060D01*
X0190755Y0153659D02*
X0190485Y0153659D01*
X0190485Y0155257D02*
X0190755Y0155257D01*
X0192639Y0155257D02*
X0278419Y0155257D01*
X0278426Y0156856D02*
X0183064Y0156856D01*
X0183064Y0158454D02*
X0278434Y0158454D01*
X0278442Y0160053D02*
X0183064Y0160053D01*
X0183064Y0161651D02*
X0278450Y0161651D01*
X0278458Y0163250D02*
X0183064Y0163250D01*
X0183064Y0164848D02*
X0278466Y0164848D01*
X0278473Y0166447D02*
X0183064Y0166447D01*
X0183064Y0168045D02*
X0278481Y0168045D01*
X0278489Y0169644D02*
X0183064Y0169644D01*
X0183261Y0171242D02*
X0263615Y0171242D01*
X0262218Y0172841D02*
X0183187Y0172841D01*
X0182420Y0174439D02*
X0228886Y0174439D01*
X0233949Y0174439D02*
X0262117Y0174439D01*
X0262117Y0176038D02*
X0235285Y0176038D01*
X0235761Y0177636D02*
X0272117Y0177636D01*
X0264717Y0182000D02*
X0281117Y0182000D01*
X0281117Y0173600D01*
X0264717Y0173600D01*
X0264717Y0182000D01*
X0264717Y0175199D02*
X0281117Y0175199D01*
X0281117Y0176798D02*
X0264717Y0176798D01*
X0264717Y0178397D02*
X0281117Y0178397D01*
X0281117Y0179996D02*
X0264717Y0179996D01*
X0264717Y0181595D02*
X0281117Y0181595D01*
X0273717Y0180833D02*
X0272117Y0180833D01*
X0272117Y0179235D02*
X0273717Y0179235D01*
X0273717Y0182432D02*
X0272117Y0182432D01*
X0272117Y0184030D02*
X0273717Y0184030D01*
X0273717Y0176038D02*
X0272117Y0176038D01*
X0272117Y0174439D02*
X0273717Y0174439D01*
X0273717Y0172841D02*
X0272117Y0172841D01*
X0272117Y0171242D02*
X0273717Y0171242D01*
X0262117Y0179235D02*
X0235628Y0179235D01*
X0234776Y0180833D02*
X0262117Y0180833D01*
X0272117Y0152060D02*
X0273717Y0152060D01*
X0273717Y0150462D02*
X0272117Y0150462D01*
X0272117Y0148863D02*
X0273717Y0148863D01*
X0273717Y0147265D02*
X0272117Y0147265D01*
X0272117Y0144068D02*
X0273717Y0144068D01*
X0273717Y0142469D02*
X0272117Y0142469D01*
X0272117Y0140870D02*
X0273717Y0140870D01*
X0273717Y0139272D02*
X0272117Y0139272D01*
X0272117Y0124600D02*
X0264461Y0124600D01*
X0263959Y0124500D01*
X0263486Y0124304D01*
X0263060Y0124020D01*
X0262698Y0123657D01*
X0262413Y0123232D01*
X0262217Y0122758D01*
X0262117Y0122256D01*
X0262117Y0118600D01*
X0272117Y0118600D01*
X0272117Y0124600D01*
X0272117Y0123287D02*
X0273717Y0123287D01*
X0273717Y0121688D02*
X0272117Y0121688D01*
X0272117Y0120090D02*
X0273717Y0120090D01*
X0272117Y0118491D02*
X0235266Y0118491D01*
X0235761Y0120090D02*
X0262117Y0120090D01*
X0262117Y0121688D02*
X0235647Y0121688D01*
X0234823Y0123287D02*
X0262450Y0123287D01*
X0262470Y0091317D02*
X0190047Y0091317D01*
X0187788Y0091317D02*
X0178043Y0091317D01*
X0179178Y0089718D02*
X0262117Y0089718D01*
X0262117Y0088120D02*
X0179511Y0088120D01*
X0172748Y0081726D02*
X0203951Y0081726D01*
X0202577Y0080127D02*
X0172748Y0080127D01*
X0172748Y0078529D02*
X0202074Y0078529D01*
X0202180Y0076930D02*
X0172748Y0076930D01*
X0172748Y0075332D02*
X0202993Y0075332D01*
X0205490Y0073733D02*
X0182568Y0073733D01*
X0185037Y0072134D02*
X0278012Y0072134D01*
X0278004Y0070536D02*
X0186255Y0070536D01*
X0186917Y0068937D02*
X0277996Y0068937D01*
X0277988Y0067339D02*
X0187030Y0067339D01*
X0186949Y0065740D02*
X0277980Y0065740D01*
X0277973Y0064142D02*
X0186287Y0064142D01*
X0185115Y0062543D02*
X0277965Y0062543D01*
X0277957Y0060945D02*
X0182757Y0060945D01*
X0177578Y0060945D02*
X0172084Y0060945D01*
X0174445Y0062543D02*
X0175219Y0062543D01*
X0174080Y0070536D02*
X0173966Y0070536D01*
X0173348Y0072134D02*
X0175297Y0072134D01*
X0177766Y0073733D02*
X0172748Y0073733D01*
X0148250Y0060945D02*
X0132084Y0060945D01*
X0134445Y0062543D02*
X0137388Y0062543D01*
X0135663Y0064142D02*
X0135423Y0064142D01*
X0139967Y0064142D02*
X0140367Y0064142D01*
X0140367Y0065740D02*
X0139967Y0065740D01*
X0139967Y0062543D02*
X0140367Y0062543D01*
X0142947Y0062543D02*
X0145890Y0062543D01*
X0144912Y0064142D02*
X0144671Y0064142D01*
X0140367Y0068937D02*
X0139967Y0068937D01*
X0139967Y0070536D02*
X0140367Y0070536D01*
X0140367Y0072134D02*
X0139967Y0072134D01*
X0137541Y0072134D02*
X0129332Y0072134D01*
X0133966Y0070536D02*
X0135720Y0070536D01*
X0124486Y0063585D02*
X0124486Y0063519D01*
X0119098Y0058131D01*
X0093736Y0058131D01*
X0091249Y0060619D01*
X0091297Y0060619D01*
X0093385Y0061484D01*
X0094984Y0063082D01*
X0095510Y0064353D01*
X0095972Y0063717D01*
X0096584Y0063105D01*
X0097285Y0062596D01*
X0098056Y0062203D01*
X0098879Y0061935D01*
X0099734Y0061800D01*
X0099967Y0061800D01*
X0099967Y0067100D01*
X0100367Y0067100D01*
X0100367Y0061800D01*
X0100600Y0061800D01*
X0101455Y0061935D01*
X0102279Y0062203D01*
X0103050Y0062596D01*
X0103750Y0063105D01*
X0104362Y0063717D01*
X0104825Y0064353D01*
X0105351Y0063082D01*
X0106949Y0061484D01*
X0109037Y0060619D01*
X0111297Y0060619D01*
X0113385Y0061484D01*
X0114984Y0063082D01*
X0115384Y0064049D01*
X0116949Y0062484D01*
X0119037Y0061619D01*
X0121297Y0061619D01*
X0123385Y0062484D01*
X0124486Y0063585D01*
X0123511Y0062543D02*
X0123445Y0062543D01*
X0121912Y0060945D02*
X0112084Y0060945D01*
X0114445Y0062543D02*
X0116890Y0062543D01*
X0120314Y0059346D02*
X0092521Y0059346D01*
X0092084Y0060945D02*
X0108250Y0060945D01*
X0105890Y0062543D02*
X0102947Y0062543D01*
X0104671Y0064142D02*
X0104912Y0064142D01*
X0100367Y0064142D02*
X0099967Y0064142D01*
X0099967Y0065740D02*
X0100367Y0065740D01*
X0100367Y0062543D02*
X0099967Y0062543D01*
X0097388Y0062543D02*
X0094445Y0062543D01*
X0095423Y0064142D02*
X0095663Y0064142D01*
X0095720Y0070536D02*
X0093966Y0070536D01*
X0099967Y0068937D02*
X0100367Y0068937D01*
X0092711Y0080127D02*
X0086312Y0080127D01*
X0081522Y0080127D02*
X0057624Y0080127D01*
X0053543Y0081726D02*
X0030239Y0081726D01*
X0030239Y0083324D02*
X0053255Y0083324D01*
X0053818Y0084923D02*
X0030239Y0084923D01*
X0030239Y0076930D02*
X0048185Y0076930D01*
X0047707Y0076732D02*
X0046485Y0075510D01*
X0045824Y0073914D01*
X0045824Y0072186D01*
X0046485Y0070590D01*
X0047707Y0069368D01*
X0049303Y0068707D01*
X0051031Y0068707D01*
X0052628Y0069368D01*
X0053849Y0070590D01*
X0054511Y0072186D01*
X0054511Y0073914D01*
X0053849Y0075510D01*
X0052628Y0076732D01*
X0051031Y0077393D01*
X0049303Y0077393D01*
X0047707Y0076732D01*
X0046411Y0075332D02*
X0030239Y0075332D01*
X0030239Y0073733D02*
X0045824Y0073733D01*
X0045845Y0072134D02*
X0030239Y0072134D01*
X0030239Y0070536D02*
X0046539Y0070536D01*
X0048746Y0068937D02*
X0030239Y0068937D01*
X0030239Y0067339D02*
X0081336Y0067339D01*
X0081336Y0068937D02*
X0080338Y0068937D01*
X0077496Y0068937D02*
X0051588Y0068937D01*
X0053796Y0070536D02*
X0075289Y0070536D01*
X0074595Y0072134D02*
X0054489Y0072134D01*
X0054511Y0073733D02*
X0074574Y0073733D01*
X0075161Y0075332D02*
X0053923Y0075332D01*
X0052150Y0076930D02*
X0076935Y0076930D01*
X0081336Y0065740D02*
X0030239Y0065740D01*
X0030239Y0064142D02*
X0081336Y0064142D01*
X0082024Y0062543D02*
X0030239Y0062543D01*
X0030239Y0060945D02*
X0083622Y0060945D01*
X0085221Y0059346D02*
X0030239Y0059346D01*
X0030239Y0057748D02*
X0086819Y0057748D01*
X0088418Y0056149D02*
X0030239Y0056149D01*
X0030239Y0054551D02*
X0090016Y0054551D01*
X0058048Y0029417D02*
X0057219Y0030428D01*
X0056295Y0031352D01*
X0055285Y0032181D01*
X0054198Y0032907D01*
X0053046Y0033523D01*
X0051838Y0034023D01*
X0050588Y0034402D01*
X0049306Y0034657D01*
X0048152Y0034771D01*
X0048152Y0022285D01*
X0046552Y0022285D01*
X0046552Y0020685D01*
X0034067Y0020685D01*
X0034180Y0019531D01*
X0034435Y0018249D01*
X0034815Y0016999D01*
X0035315Y0015792D01*
X0035931Y0014639D01*
X0036657Y0013553D01*
X0037486Y0012543D01*
X0038410Y0011619D01*
X0039420Y0010789D01*
X0040507Y0010063D01*
X0041659Y0009447D01*
X0042866Y0008947D01*
X0044117Y0008568D01*
X0045398Y0008313D01*
X0046552Y0008199D01*
X0046552Y0020685D01*
X0048152Y0020685D01*
X0048152Y0008199D01*
X0049306Y0008313D01*
X0050588Y0008568D01*
X0051838Y0008947D01*
X0053046Y0009447D01*
X0054198Y0010063D01*
X0055285Y0010789D01*
X0056295Y0011619D01*
X0057219Y0012543D01*
X0058048Y0013553D01*
X0058774Y0014639D01*
X0059390Y0015792D01*
X0059890Y0016999D01*
X0060269Y0018249D01*
X0060524Y0019531D01*
X0060638Y0020685D01*
X0048152Y0020685D01*
X0048152Y0022285D01*
X0060638Y0022285D01*
X0060524Y0023439D01*
X0060269Y0024721D01*
X0059890Y0025971D01*
X0059390Y0027178D01*
X0058774Y0028331D01*
X0058048Y0029417D01*
X0058344Y0028975D02*
X0233211Y0028975D01*
X0233507Y0029417D02*
X0232781Y0028331D01*
X0232165Y0027178D01*
X0231665Y0025971D01*
X0231286Y0024721D01*
X0231031Y0023439D01*
X0230917Y0022285D01*
X0243403Y0022285D01*
X0243403Y0034771D01*
X0242249Y0034657D01*
X0240967Y0034402D01*
X0239717Y0034023D01*
X0238509Y0033523D01*
X0237357Y0032907D01*
X0236270Y0032181D01*
X0235260Y0031352D01*
X0234336Y0030428D01*
X0233507Y0029417D01*
X0234482Y0030573D02*
X0057073Y0030573D01*
X0055296Y0032172D02*
X0236260Y0032172D01*
X0239107Y0033770D02*
X0052448Y0033770D01*
X0048152Y0033770D02*
X0046552Y0033770D01*
X0046552Y0034771D02*
X0045398Y0034657D01*
X0044117Y0034402D01*
X0042866Y0034023D01*
X0041659Y0033523D01*
X0040507Y0032907D01*
X0039420Y0032181D01*
X0038410Y0031352D01*
X0037486Y0030428D01*
X0036657Y0029417D01*
X0035931Y0028331D01*
X0035315Y0027178D01*
X0034815Y0025971D01*
X0034435Y0024721D01*
X0034180Y0023439D01*
X0034067Y0022285D01*
X0046552Y0022285D01*
X0046552Y0034771D01*
X0046552Y0032172D02*
X0048152Y0032172D01*
X0048152Y0030573D02*
X0046552Y0030573D01*
X0046552Y0028975D02*
X0048152Y0028975D01*
X0048152Y0027376D02*
X0046552Y0027376D01*
X0046552Y0025778D02*
X0048152Y0025778D01*
X0048152Y0024179D02*
X0046552Y0024179D01*
X0046552Y0022581D02*
X0048152Y0022581D01*
X0048152Y0020982D02*
X0243403Y0020982D01*
X0243403Y0020685D02*
X0230917Y0020685D01*
X0231031Y0019531D01*
X0231286Y0018249D01*
X0231665Y0016999D01*
X0232165Y0015792D01*
X0232781Y0014639D01*
X0233507Y0013553D01*
X0234336Y0012543D01*
X0235260Y0011619D01*
X0236270Y0010789D01*
X0237357Y0010063D01*
X0238509Y0009447D01*
X0239717Y0008947D01*
X0240967Y0008568D01*
X0242249Y0008313D01*
X0243403Y0008199D01*
X0243403Y0020685D01*
X0245003Y0020685D01*
X0245003Y0022285D01*
X0257488Y0022285D01*
X0257375Y0023439D01*
X0257120Y0024721D01*
X0256740Y0025971D01*
X0256240Y0027178D01*
X0255624Y0028331D01*
X0254898Y0029417D01*
X0254069Y0030428D01*
X0253145Y0031352D01*
X0252135Y0032181D01*
X0251049Y0032907D01*
X0249896Y0033523D01*
X0248689Y0034023D01*
X0247438Y0034402D01*
X0246157Y0034657D01*
X0245003Y0034771D01*
X0245003Y0022285D01*
X0243403Y0022285D01*
X0243403Y0020685D01*
X0243403Y0019384D02*
X0245003Y0019384D01*
X0245003Y0020685D02*
X0245003Y0008199D01*
X0246157Y0008313D01*
X0247438Y0008568D01*
X0248689Y0008947D01*
X0249896Y0009447D01*
X0251049Y0010063D01*
X0252135Y0010789D01*
X0253145Y0011619D01*
X0254069Y0012543D01*
X0254898Y0013553D01*
X0255624Y0014639D01*
X0256240Y0015792D01*
X0256740Y0016999D01*
X0257120Y0018249D01*
X0257375Y0019531D01*
X0257488Y0020685D01*
X0245003Y0020685D01*
X0245003Y0020982D02*
X0277761Y0020982D01*
X0277753Y0019384D02*
X0257345Y0019384D01*
X0256979Y0017785D02*
X0277746Y0017785D01*
X0277738Y0016187D02*
X0256404Y0016187D01*
X0255590Y0014588D02*
X0277730Y0014588D01*
X0277722Y0012990D02*
X0254436Y0012990D01*
X0252868Y0011391D02*
X0277714Y0011391D01*
X0277706Y0009793D02*
X0250542Y0009793D01*
X0245003Y0009793D02*
X0243403Y0009793D01*
X0243403Y0011391D02*
X0245003Y0011391D01*
X0245003Y0012990D02*
X0243403Y0012990D01*
X0243403Y0014588D02*
X0245003Y0014588D01*
X0245003Y0016187D02*
X0243403Y0016187D01*
X0243403Y0017785D02*
X0245003Y0017785D01*
X0245003Y0022581D02*
X0243403Y0022581D01*
X0243403Y0024179D02*
X0245003Y0024179D01*
X0245003Y0025778D02*
X0243403Y0025778D01*
X0243403Y0027376D02*
X0245003Y0027376D01*
X0245003Y0028975D02*
X0243403Y0028975D01*
X0243403Y0030573D02*
X0245003Y0030573D01*
X0245003Y0032172D02*
X0243403Y0032172D01*
X0243403Y0033770D02*
X0245003Y0033770D01*
X0249298Y0033770D02*
X0277824Y0033770D01*
X0277816Y0032172D02*
X0252146Y0032172D01*
X0253924Y0030573D02*
X0277808Y0030573D01*
X0277800Y0028975D02*
X0255194Y0028975D01*
X0256135Y0027376D02*
X0277793Y0027376D01*
X0277785Y0025778D02*
X0256799Y0025778D01*
X0257227Y0024179D02*
X0277777Y0024179D01*
X0277769Y0022581D02*
X0257459Y0022581D01*
X0237864Y0009793D02*
X0053691Y0009793D01*
X0056018Y0011391D02*
X0235537Y0011391D01*
X0233969Y0012990D02*
X0057586Y0012990D01*
X0058740Y0014588D02*
X0232815Y0014588D01*
X0232002Y0016187D02*
X0059553Y0016187D01*
X0060128Y0017785D02*
X0231427Y0017785D01*
X0231060Y0019384D02*
X0060495Y0019384D01*
X0060609Y0022581D02*
X0230946Y0022581D01*
X0231178Y0024179D02*
X0060377Y0024179D01*
X0059949Y0025778D02*
X0231606Y0025778D01*
X0232271Y0027376D02*
X0059284Y0027376D01*
X0048152Y0019384D02*
X0046552Y0019384D01*
X0046552Y0020982D02*
X0030239Y0020982D01*
X0030239Y0019384D02*
X0034210Y0019384D01*
X0034576Y0017785D02*
X0030239Y0017785D01*
X0030239Y0016187D02*
X0035151Y0016187D01*
X0035965Y0014588D02*
X0030239Y0014588D01*
X0030239Y0012990D02*
X0037119Y0012990D01*
X0038687Y0011391D02*
X0030239Y0011391D01*
X0030239Y0009793D02*
X0041013Y0009793D01*
X0046552Y0009793D02*
X0048152Y0009793D01*
X0048152Y0011391D02*
X0046552Y0011391D01*
X0046552Y0012990D02*
X0048152Y0012990D01*
X0048152Y0014588D02*
X0046552Y0014588D01*
X0046552Y0016187D02*
X0048152Y0016187D01*
X0048152Y0017785D02*
X0046552Y0017785D01*
X0034096Y0022581D02*
X0030239Y0022581D01*
X0030239Y0024179D02*
X0034328Y0024179D01*
X0034756Y0025778D02*
X0030239Y0025778D01*
X0030239Y0027376D02*
X0035421Y0027376D01*
X0036361Y0028975D02*
X0030239Y0028975D01*
X0030239Y0030573D02*
X0037631Y0030573D01*
X0039409Y0032172D02*
X0030239Y0032172D01*
X0030239Y0033770D02*
X0042257Y0033770D01*
X0030239Y0035369D02*
X0277832Y0035369D01*
X0277839Y0036967D02*
X0030239Y0036967D01*
X0030239Y0038566D02*
X0277847Y0038566D01*
X0277855Y0040164D02*
X0030239Y0040164D01*
X0030239Y0041763D02*
X0277863Y0041763D01*
X0277871Y0043361D02*
X0030239Y0043361D01*
X0030239Y0044960D02*
X0277879Y0044960D01*
X0277886Y0046558D02*
X0030239Y0046558D01*
X0030239Y0048157D02*
X0277894Y0048157D01*
X0277902Y0049755D02*
X0030239Y0049755D01*
X0030239Y0051354D02*
X0277910Y0051354D01*
X0277918Y0052952D02*
X0030239Y0052952D01*
X0030239Y0008194D02*
X0277699Y0008194D01*
X0277691Y0006596D02*
X0030239Y0006596D01*
X0030239Y0004997D02*
X0277683Y0004997D01*
X0277926Y0054551D02*
X0122818Y0054551D01*
X0124417Y0056149D02*
X0277933Y0056149D01*
X0277941Y0057748D02*
X0126015Y0057748D01*
X0127614Y0059346D02*
X0277949Y0059346D01*
X0278020Y0073733D02*
X0207345Y0073733D01*
X0209841Y0075332D02*
X0278027Y0075332D01*
X0278035Y0076930D02*
X0210655Y0076930D01*
X0210761Y0078529D02*
X0278043Y0078529D01*
X0273717Y0080127D02*
X0272117Y0080127D01*
X0272117Y0081726D02*
X0273717Y0081726D01*
X0273717Y0083324D02*
X0272117Y0083324D01*
X0272117Y0084923D02*
X0273717Y0084923D01*
X0273717Y0088120D02*
X0272117Y0088120D01*
X0272117Y0089718D02*
X0273717Y0089718D01*
X0273717Y0091317D02*
X0272117Y0091317D01*
X0187012Y0147265D02*
X0178996Y0147265D01*
X0180594Y0148863D02*
X0185981Y0148863D01*
X0185641Y0150462D02*
X0182193Y0150462D01*
X0181266Y0149535D02*
X0181266Y0149535D01*
X0182995Y0152060D02*
X0185827Y0152060D01*
X0186617Y0153659D02*
X0183064Y0153659D01*
X0183064Y0155257D02*
X0188601Y0155257D01*
X0174771Y0155257D02*
X0174461Y0155257D01*
X0173662Y0153659D02*
X0171070Y0153659D01*
X0170559Y0155257D02*
X0169603Y0155257D01*
X0168532Y0156856D02*
X0168404Y0156856D01*
X0172375Y0156856D02*
X0172645Y0156856D01*
X0172645Y0158454D02*
X0172375Y0158454D01*
X0172375Y0159986D02*
X0162802Y0159986D01*
X0162802Y0165588D01*
X0166841Y0165588D01*
X0167299Y0165466D01*
X0167710Y0165229D01*
X0168045Y0164893D01*
X0168282Y0164483D01*
X0168404Y0164025D01*
X0168404Y0162671D01*
X0168712Y0163095D01*
X0169266Y0163649D01*
X0169900Y0164110D01*
X0170599Y0164466D01*
X0171344Y0164708D01*
X0172118Y0164830D01*
X0172375Y0164830D01*
X0172375Y0159986D01*
X0172375Y0160053D02*
X0172645Y0160053D01*
X0172645Y0161651D02*
X0172375Y0161651D01*
X0172375Y0163250D02*
X0172645Y0163250D01*
X0174771Y0164848D02*
X0168071Y0164848D01*
X0168404Y0163250D02*
X0168867Y0163250D01*
X0162802Y0163250D02*
X0162532Y0163250D01*
X0162532Y0164848D02*
X0162802Y0164848D01*
X0162802Y0161651D02*
X0162532Y0161651D01*
X0162532Y0160053D02*
X0162802Y0160053D01*
X0156930Y0163250D02*
X0156468Y0163250D01*
X0157264Y0164848D02*
X0128701Y0164848D01*
X0128675Y0164893D02*
X0128339Y0165229D01*
X0127929Y0165466D01*
X0127471Y0165588D01*
X0123531Y0165588D01*
X0123531Y0160085D01*
X0123064Y0160085D01*
X0123064Y0165588D01*
X0119123Y0165588D01*
X0118665Y0165466D01*
X0118255Y0165229D01*
X0117920Y0164893D01*
X0117683Y0164483D01*
X0117560Y0164025D01*
X0117560Y0160085D01*
X0123064Y0160085D01*
X0123064Y0159618D01*
X0117560Y0159618D01*
X0117560Y0155677D01*
X0117683Y0155219D01*
X0117920Y0154809D01*
X0118255Y0154474D01*
X0118665Y0154237D01*
X0119123Y0154114D01*
X0123064Y0154114D01*
X0123064Y0159618D01*
X0123531Y0159618D01*
X0123531Y0160085D01*
X0129034Y0160085D01*
X0129034Y0164025D01*
X0128912Y0164483D01*
X0128675Y0164893D01*
X0129034Y0163250D02*
X0130678Y0163250D01*
X0130523Y0163095D02*
X0130062Y0162461D01*
X0129707Y0161763D01*
X0129464Y0161017D01*
X0129342Y0160243D01*
X0129342Y0159986D01*
X0134186Y0159986D01*
X0134186Y0159716D01*
X0134456Y0159716D01*
X0134456Y0154872D01*
X0134713Y0154872D01*
X0135487Y0154995D01*
X0136232Y0155237D01*
X0136930Y0155593D01*
X0137565Y0156053D01*
X0138119Y0156607D01*
X0138579Y0157242D01*
X0138935Y0157940D01*
X0139177Y0158685D01*
X0139300Y0159459D01*
X0139300Y0159716D01*
X0134456Y0159716D01*
X0134456Y0159986D01*
X0139300Y0159986D01*
X0139300Y0160243D01*
X0139177Y0161017D01*
X0138935Y0161763D01*
X0138579Y0162461D01*
X0138119Y0163095D01*
X0137565Y0163649D01*
X0136930Y0164110D01*
X0136232Y0164466D01*
X0135487Y0164708D01*
X0134713Y0164830D01*
X0134456Y0164830D01*
X0134456Y0159986D01*
X0134186Y0159986D01*
X0134186Y0164830D01*
X0133929Y0164830D01*
X0133155Y0164708D01*
X0132410Y0164466D01*
X0131711Y0164110D01*
X0131077Y0163649D01*
X0130523Y0163095D01*
X0129670Y0161651D02*
X0129034Y0161651D01*
X0129342Y0160053D02*
X0123531Y0160053D01*
X0123531Y0159618D02*
X0129034Y0159618D01*
X0129034Y0155677D01*
X0128912Y0155219D01*
X0128675Y0154809D01*
X0128339Y0154474D01*
X0127929Y0154237D01*
X0127471Y0154114D01*
X0123531Y0154114D01*
X0123531Y0159618D01*
X0123064Y0160053D02*
X0084161Y0160053D01*
X0084161Y0160085D02*
X0089664Y0160085D01*
X0089664Y0164025D01*
X0089541Y0164483D01*
X0089305Y0164893D01*
X0088969Y0165229D01*
X0088559Y0165466D01*
X0088101Y0165588D01*
X0084161Y0165588D01*
X0084161Y0160085D01*
X0084161Y0159618D01*
X0089664Y0159618D01*
X0089664Y0155677D01*
X0089541Y0155219D01*
X0089305Y0154809D01*
X0088969Y0154474D01*
X0088559Y0154237D01*
X0088101Y0154114D01*
X0084161Y0154114D01*
X0084161Y0159618D01*
X0083694Y0159618D01*
X0083694Y0154114D01*
X0079753Y0154114D01*
X0079295Y0154237D01*
X0078885Y0154474D01*
X0078550Y0154809D01*
X0078313Y0155219D01*
X0078190Y0155677D01*
X0078190Y0159618D01*
X0083694Y0159618D01*
X0083694Y0160085D01*
X0083694Y0165588D01*
X0079753Y0165588D01*
X0079295Y0165466D01*
X0078885Y0165229D01*
X0078550Y0164893D01*
X0078313Y0164483D01*
X0078190Y0164025D01*
X0078190Y0160085D01*
X0083694Y0160085D01*
X0084161Y0160085D01*
X0083694Y0160053D02*
X0044791Y0160053D01*
X0044791Y0159618D02*
X0050294Y0159618D01*
X0050294Y0155677D01*
X0050171Y0155219D01*
X0049934Y0154809D01*
X0049599Y0154474D01*
X0049189Y0154237D01*
X0048731Y0154114D01*
X0044791Y0154114D01*
X0044791Y0159618D01*
X0044324Y0160053D02*
X0030239Y0160053D01*
X0044324Y0161651D02*
X0044791Y0161651D01*
X0044791Y0163250D02*
X0044324Y0163250D01*
X0044324Y0164848D02*
X0044791Y0164848D01*
X0049961Y0164848D02*
X0078524Y0164848D01*
X0078190Y0163250D02*
X0050294Y0163250D01*
X0050294Y0161651D02*
X0078190Y0161651D01*
X0078190Y0158454D02*
X0050294Y0158454D01*
X0050294Y0156856D02*
X0078190Y0156856D01*
X0078303Y0155257D02*
X0050182Y0155257D01*
X0044791Y0155257D02*
X0044324Y0155257D01*
X0044324Y0156856D02*
X0044791Y0156856D01*
X0044791Y0158454D02*
X0044324Y0158454D01*
X0083694Y0158454D02*
X0084161Y0158454D01*
X0084161Y0156856D02*
X0083694Y0156856D01*
X0083694Y0155257D02*
X0084161Y0155257D01*
X0089552Y0155257D02*
X0117673Y0155257D01*
X0117560Y0156856D02*
X0089664Y0156856D01*
X0089664Y0158454D02*
X0117560Y0158454D01*
X0117560Y0161651D02*
X0089664Y0161651D01*
X0089664Y0163250D02*
X0117560Y0163250D01*
X0117894Y0164848D02*
X0089331Y0164848D01*
X0084161Y0164848D02*
X0083694Y0164848D01*
X0083694Y0163250D02*
X0084161Y0163250D01*
X0084161Y0161651D02*
X0083694Y0161651D01*
X0111290Y0139272D02*
X0117560Y0139272D01*
X0117560Y0140870D02*
X0112888Y0140870D01*
X0114487Y0142469D02*
X0117873Y0142469D01*
X0123064Y0155257D02*
X0123531Y0155257D01*
X0123531Y0156856D02*
X0123064Y0156856D01*
X0123064Y0158454D02*
X0123531Y0158454D01*
X0123531Y0161651D02*
X0123064Y0161651D01*
X0123064Y0163250D02*
X0123531Y0163250D01*
X0123531Y0164848D02*
X0123064Y0164848D01*
X0129342Y0159716D02*
X0129342Y0159459D01*
X0129464Y0158685D01*
X0129707Y0157940D01*
X0130062Y0157242D01*
X0130523Y0156607D01*
X0131077Y0156053D01*
X0131711Y0155593D01*
X0132410Y0155237D01*
X0133155Y0154995D01*
X0133929Y0154872D01*
X0134186Y0154872D01*
X0134186Y0159716D01*
X0129342Y0159716D01*
X0129539Y0158454D02*
X0129034Y0158454D01*
X0129034Y0156856D02*
X0130343Y0156856D01*
X0128922Y0155257D02*
X0132370Y0155257D01*
X0134186Y0155257D02*
X0134456Y0155257D01*
X0134456Y0156856D02*
X0134186Y0156856D01*
X0134186Y0158454D02*
X0134456Y0158454D01*
X0134456Y0160053D02*
X0134186Y0160053D01*
X0134186Y0161651D02*
X0134456Y0161651D01*
X0134456Y0163250D02*
X0134186Y0163250D01*
X0137964Y0163250D02*
X0149182Y0163250D01*
X0149027Y0163095D02*
X0148566Y0162461D01*
X0148210Y0161763D01*
X0147968Y0161017D01*
X0147846Y0160243D01*
X0147846Y0159986D01*
X0152690Y0159986D01*
X0152690Y0164830D01*
X0152433Y0164830D01*
X0151659Y0164708D01*
X0150913Y0164466D01*
X0150215Y0164110D01*
X0149581Y0163649D01*
X0149027Y0163095D01*
X0148174Y0161651D02*
X0138971Y0161651D01*
X0139300Y0160053D02*
X0147846Y0160053D01*
X0147846Y0159716D02*
X0147846Y0159459D01*
X0147968Y0158685D01*
X0148210Y0157940D01*
X0148566Y0157242D01*
X0149027Y0156607D01*
X0149581Y0156053D01*
X0150215Y0155593D01*
X0150913Y0155237D01*
X0151659Y0154995D01*
X0152433Y0154872D01*
X0152690Y0154872D01*
X0152690Y0159716D01*
X0147846Y0159716D01*
X0148043Y0158454D02*
X0139102Y0158454D01*
X0138299Y0156856D02*
X0148847Y0156856D01*
X0150874Y0155257D02*
X0136272Y0155257D01*
X0132386Y0147265D02*
X0161692Y0147265D01*
X0163665Y0145666D02*
X0133984Y0145666D01*
X0152690Y0155257D02*
X0152960Y0155257D01*
X0152960Y0156856D02*
X0152690Y0156856D01*
X0152690Y0158454D02*
X0152960Y0158454D01*
X0152960Y0160053D02*
X0152690Y0160053D01*
X0152690Y0161651D02*
X0152960Y0161651D01*
X0152960Y0163250D02*
X0152690Y0163250D01*
X0156803Y0156856D02*
X0156930Y0156856D01*
X0157043Y0155257D02*
X0154776Y0155257D01*
X0171732Y0152060D02*
X0172063Y0152060D01*
X0172375Y0155257D02*
X0172645Y0155257D01*
X0175580Y0131279D02*
X0185661Y0131279D01*
X0186112Y0129681D02*
X0176693Y0129681D01*
X0136405Y0121688D02*
X0128232Y0121688D01*
X0129034Y0120090D02*
X0134807Y0120090D01*
X0133208Y0118491D02*
X0129034Y0118491D01*
X0129034Y0116893D02*
X0131610Y0116893D01*
X0130011Y0115294D02*
X0129034Y0115294D01*
X0123531Y0115294D02*
X0123064Y0115294D01*
X0123064Y0113696D02*
X0123531Y0113696D01*
X0123531Y0112097D02*
X0123064Y0112097D01*
X0123064Y0116893D02*
X0123531Y0116893D01*
X0123531Y0118491D02*
X0123064Y0118491D01*
X0123064Y0120090D02*
X0123531Y0120090D01*
X0123531Y0121688D02*
X0123064Y0121688D01*
X0098344Y0108900D02*
X0096498Y0108900D01*
X0096498Y0107302D02*
X0097875Y0107302D01*
X0097875Y0105703D02*
X0096498Y0105703D01*
X0096498Y0104105D02*
X0097875Y0104105D01*
X0097875Y0102506D02*
X0096498Y0102506D01*
X0096498Y0100908D02*
X0097875Y0100908D01*
X0097946Y0099309D02*
X0096498Y0099309D01*
X0096498Y0097711D02*
X0107586Y0097711D01*
X0097087Y0096112D02*
X0096498Y0096112D01*
X0096498Y0089718D02*
X0097357Y0089718D01*
D15*
X0100167Y0067300D03*
X0110167Y0066300D03*
X0120167Y0067300D03*
X0130167Y0066300D03*
X0140167Y0067300D03*
X0150167Y0066300D03*
X0160167Y0067300D03*
X0170167Y0066300D03*
X0180167Y0067300D03*
X0090167Y0066300D03*
X0163417Y0183050D03*
X0164417Y0193050D03*
X0163417Y0203050D03*
X0164417Y0213050D03*
D16*
X0176417Y0219615D03*
X0182667Y0219615D03*
X0182667Y0214615D03*
X0188917Y0219615D03*
X0201417Y0228050D03*
X0206417Y0228050D03*
X0206417Y0223050D03*
X0213917Y0223050D03*
X0218917Y0223050D03*
X0218917Y0218050D03*
X0213917Y0218050D03*
X0223917Y0218050D03*
X0223917Y0223050D03*
X0223917Y0229300D03*
X0223917Y0234300D03*
X0223917Y0239300D03*
X0223917Y0245550D03*
X0218917Y0245550D03*
X0213917Y0245550D03*
X0213917Y0250550D03*
X0218917Y0250550D03*
X0223917Y0250550D03*
X0206417Y0245550D03*
X0206417Y0240550D03*
X0201417Y0240550D03*
X0203917Y0234300D03*
X0197667Y0234300D03*
X0181417Y0234300D03*
X0172667Y0231800D03*
X0157667Y0231800D03*
X0141417Y0208050D03*
X0132667Y0199300D03*
X0123917Y0208050D03*
X0071417Y0208050D03*
X0071417Y0230550D03*
X0071417Y0251800D03*
X0178917Y0171800D03*
X0200167Y0150550D03*
X0207667Y0156800D03*
X0215167Y0164300D03*
X0223917Y0169300D03*
X0231417Y0169300D03*
X0239542Y0172425D03*
X0231417Y0178050D03*
X0236417Y0188050D03*
X0251417Y0188050D03*
X0258917Y0178050D03*
X0258917Y0166800D03*
X0253917Y0166800D03*
X0248917Y0166800D03*
X0240167Y0161800D03*
X0248917Y0154300D03*
X0253917Y0156800D03*
X0258917Y0156800D03*
X0258917Y0145550D03*
X0272667Y0153050D03*
X0272667Y0170550D03*
X0272667Y0186800D03*
X0243917Y0150550D03*
X0237667Y0150550D03*
X0230167Y0154300D03*
X0223917Y0150550D03*
X0217667Y0144300D03*
X0210167Y0136800D03*
X0200167Y0131800D03*
X0210167Y0126800D03*
X0217667Y0119300D03*
X0223917Y0113050D03*
X0230167Y0109300D03*
X0238917Y0114300D03*
X0231417Y0120550D03*
X0236417Y0130550D03*
X0251417Y0130550D03*
X0258917Y0118050D03*
X0258917Y0106800D03*
X0253917Y0106800D03*
X0248917Y0106800D03*
X0240167Y0101800D03*
X0249542Y0094925D03*
X0253917Y0096800D03*
X0259542Y0096800D03*
X0272667Y0093050D03*
X0272667Y0110550D03*
X0272667Y0131800D03*
X0246417Y0091175D03*
X0233292Y0091175D03*
X0223917Y0094300D03*
X0215167Y0099300D03*
X0206417Y0095550D03*
X0213917Y0087425D03*
X0206417Y0078050D03*
X0188917Y0095550D03*
X0195792Y0101800D03*
X0207667Y0106800D03*
X0200167Y0114300D03*
X0175792Y0118675D03*
X0172667Y0128050D03*
X0172667Y0136800D03*
X0167667Y0144300D03*
X0157667Y0144300D03*
X0160167Y0135550D03*
X0158917Y0131800D03*
X0156417Y0121800D03*
X0142667Y0118050D03*
X0141417Y0123050D03*
X0135167Y0129300D03*
X0141417Y0130550D03*
X0133917Y0136800D03*
X0133917Y0141800D03*
X0142667Y0146800D03*
X0127042Y0093675D03*
X0133917Y0086800D03*
X0145167Y0088050D03*
X0150167Y0091800D03*
X0160792Y0093675D03*
X0175167Y0088050D03*
X0175167Y0074300D03*
X0165167Y0074300D03*
X0118917Y0086800D03*
X0105167Y0086800D03*
X0100167Y0093050D03*
X0093917Y0083050D03*
X0083917Y0078050D03*
X0078917Y0073050D03*
X0056417Y0083050D03*
X0050167Y0073050D03*
X0211417Y0200550D03*
X0220167Y0209300D03*
D17*
X0178917Y0171800D02*
X0178917Y0153050D01*
X0172667Y0146800D01*
X0172667Y0136800D01*
X0172667Y0128050D02*
X0172667Y0121800D01*
X0171417Y0119300D01*
X0171417Y0116800D01*
X0172667Y0114300D01*
X0172667Y0110550D01*
X0172042Y0109925D01*
X0166417Y0105550D01*
X0166417Y0099300D01*
X0170167Y0095550D01*
X0188917Y0095550D01*
D18*
X0170167Y0071800D02*
X0170167Y0066300D01*
X0160167Y0068050D02*
X0157667Y0070550D01*
X0150167Y0073050D02*
X0150167Y0066300D01*
X0130167Y0066300D02*
X0130167Y0065550D01*
X0127667Y0063050D01*
X0130167Y0066300D02*
X0130167Y0066800D01*
X0126417Y0070550D01*
X0120167Y0068050D02*
X0120167Y0067300D01*
X0120167Y0068050D02*
X0116417Y0071800D01*
X0110167Y0073050D02*
X0110167Y0066300D01*
D19*
X0110167Y0073050D02*
X0110167Y0121800D01*
X0120167Y0131800D01*
X0130167Y0131800D01*
X0133917Y0135550D01*
X0135167Y0129300D02*
X0121417Y0129300D01*
X0112667Y0120550D01*
X0112667Y0094300D01*
X0113917Y0093050D01*
X0113917Y0074300D01*
X0116417Y0071800D01*
X0123917Y0073050D02*
X0126417Y0070550D01*
X0123917Y0073050D02*
X0123917Y0105550D01*
X0141417Y0123050D01*
X0147667Y0124300D02*
X0141417Y0130550D01*
X0147667Y0124300D02*
X0147667Y0114300D01*
X0143917Y0110550D01*
X0133917Y0110550D01*
X0127667Y0104300D01*
X0127667Y0098050D01*
X0150167Y0075550D01*
X0150167Y0073050D01*
X0157667Y0070550D02*
X0157667Y0116800D01*
X0161417Y0121800D01*
X0161417Y0129300D01*
X0165167Y0130550D02*
X0165167Y0121800D01*
X0160167Y0115550D01*
X0160167Y0099300D01*
X0170167Y0089300D01*
X0170167Y0071800D01*
X0127667Y0063050D02*
X0120167Y0055550D01*
X0092667Y0055550D01*
X0083917Y0064300D01*
X0083917Y0075550D01*
X0093917Y0083050D02*
X0093917Y0125550D01*
X0113917Y0145550D01*
X0130167Y0145550D01*
M02*
