G75*
%MOIN*%
%OFA0B0*%
%FSLAX25Y25*%
%IPPOS*%
%LPD*%
%AMOC8*
5,1,8,0,0,1.08239X$1,22.5*
%
%ADD10C,0.00000*%
%ADD11R,0.07874X0.07874*%
%ADD12C,0.06358*%
%ADD13C,0.06102*%
%ADD14C,0.23000*%
%ADD15C,0.01600*%
%ADD16C,0.06299*%
%ADD17C,0.07087*%
%ADD18C,0.07400*%
%ADD19C,0.02362*%
D10*
X0027667Y0001800D02*
X0027667Y0257706D01*
X0283573Y0257706D01*
X0283573Y0001800D01*
X0027667Y0001800D01*
X0163160Y0112902D02*
X0163162Y0113012D01*
X0163168Y0113122D01*
X0163178Y0113232D01*
X0163192Y0113341D01*
X0163210Y0113450D01*
X0163231Y0113558D01*
X0163257Y0113665D01*
X0163286Y0113771D01*
X0163320Y0113876D01*
X0163357Y0113980D01*
X0163398Y0114082D01*
X0163442Y0114183D01*
X0163490Y0114282D01*
X0163542Y0114380D01*
X0163597Y0114475D01*
X0163655Y0114568D01*
X0163717Y0114659D01*
X0163782Y0114748D01*
X0163850Y0114835D01*
X0163922Y0114919D01*
X0163996Y0115000D01*
X0164073Y0115079D01*
X0164153Y0115155D01*
X0164236Y0115227D01*
X0164321Y0115297D01*
X0164409Y0115364D01*
X0164499Y0115427D01*
X0164591Y0115487D01*
X0164685Y0115544D01*
X0164782Y0115598D01*
X0164880Y0115647D01*
X0164980Y0115694D01*
X0165082Y0115736D01*
X0165185Y0115775D01*
X0165289Y0115810D01*
X0165395Y0115842D01*
X0165501Y0115869D01*
X0165609Y0115893D01*
X0165717Y0115913D01*
X0165826Y0115929D01*
X0165936Y0115941D01*
X0166046Y0115949D01*
X0166156Y0115953D01*
X0166266Y0115953D01*
X0166376Y0115949D01*
X0166486Y0115941D01*
X0166596Y0115929D01*
X0166705Y0115913D01*
X0166813Y0115893D01*
X0166921Y0115869D01*
X0167027Y0115842D01*
X0167133Y0115810D01*
X0167237Y0115775D01*
X0167340Y0115736D01*
X0167442Y0115694D01*
X0167542Y0115647D01*
X0167640Y0115598D01*
X0167736Y0115544D01*
X0167831Y0115487D01*
X0167923Y0115427D01*
X0168013Y0115364D01*
X0168101Y0115297D01*
X0168186Y0115227D01*
X0168269Y0115155D01*
X0168349Y0115079D01*
X0168426Y0115000D01*
X0168500Y0114919D01*
X0168572Y0114835D01*
X0168640Y0114748D01*
X0168705Y0114659D01*
X0168767Y0114568D01*
X0168825Y0114475D01*
X0168880Y0114380D01*
X0168932Y0114282D01*
X0168980Y0114183D01*
X0169024Y0114082D01*
X0169065Y0113980D01*
X0169102Y0113876D01*
X0169136Y0113771D01*
X0169165Y0113665D01*
X0169191Y0113558D01*
X0169212Y0113450D01*
X0169230Y0113341D01*
X0169244Y0113232D01*
X0169254Y0113122D01*
X0169260Y0113012D01*
X0169262Y0112902D01*
X0169260Y0112792D01*
X0169254Y0112682D01*
X0169244Y0112572D01*
X0169230Y0112463D01*
X0169212Y0112354D01*
X0169191Y0112246D01*
X0169165Y0112139D01*
X0169136Y0112033D01*
X0169102Y0111928D01*
X0169065Y0111824D01*
X0169024Y0111722D01*
X0168980Y0111621D01*
X0168932Y0111522D01*
X0168880Y0111424D01*
X0168825Y0111329D01*
X0168767Y0111236D01*
X0168705Y0111145D01*
X0168640Y0111056D01*
X0168572Y0110969D01*
X0168500Y0110885D01*
X0168426Y0110804D01*
X0168349Y0110725D01*
X0168269Y0110649D01*
X0168186Y0110577D01*
X0168101Y0110507D01*
X0168013Y0110440D01*
X0167923Y0110377D01*
X0167831Y0110317D01*
X0167737Y0110260D01*
X0167640Y0110206D01*
X0167542Y0110157D01*
X0167442Y0110110D01*
X0167340Y0110068D01*
X0167237Y0110029D01*
X0167133Y0109994D01*
X0167027Y0109962D01*
X0166921Y0109935D01*
X0166813Y0109911D01*
X0166705Y0109891D01*
X0166596Y0109875D01*
X0166486Y0109863D01*
X0166376Y0109855D01*
X0166266Y0109851D01*
X0166156Y0109851D01*
X0166046Y0109855D01*
X0165936Y0109863D01*
X0165826Y0109875D01*
X0165717Y0109891D01*
X0165609Y0109911D01*
X0165501Y0109935D01*
X0165395Y0109962D01*
X0165289Y0109994D01*
X0165185Y0110029D01*
X0165082Y0110068D01*
X0164980Y0110110D01*
X0164880Y0110157D01*
X0164782Y0110206D01*
X0164685Y0110260D01*
X0164591Y0110317D01*
X0164499Y0110377D01*
X0164409Y0110440D01*
X0164321Y0110507D01*
X0164236Y0110577D01*
X0164153Y0110649D01*
X0164073Y0110725D01*
X0163996Y0110804D01*
X0163922Y0110885D01*
X0163850Y0110969D01*
X0163782Y0111056D01*
X0163717Y0111145D01*
X0163655Y0111236D01*
X0163597Y0111329D01*
X0163542Y0111424D01*
X0163490Y0111522D01*
X0163442Y0111621D01*
X0163398Y0111722D01*
X0163357Y0111824D01*
X0163320Y0111928D01*
X0163286Y0112033D01*
X0163257Y0112139D01*
X0163231Y0112246D01*
X0163210Y0112354D01*
X0163192Y0112463D01*
X0163178Y0112572D01*
X0163168Y0112682D01*
X0163162Y0112792D01*
X0163160Y0112902D01*
X0163160Y0150698D02*
X0163162Y0150808D01*
X0163168Y0150918D01*
X0163178Y0151028D01*
X0163192Y0151137D01*
X0163210Y0151246D01*
X0163231Y0151354D01*
X0163257Y0151461D01*
X0163286Y0151567D01*
X0163320Y0151672D01*
X0163357Y0151776D01*
X0163398Y0151878D01*
X0163442Y0151979D01*
X0163490Y0152078D01*
X0163542Y0152176D01*
X0163597Y0152271D01*
X0163655Y0152364D01*
X0163717Y0152455D01*
X0163782Y0152544D01*
X0163850Y0152631D01*
X0163922Y0152715D01*
X0163996Y0152796D01*
X0164073Y0152875D01*
X0164153Y0152951D01*
X0164236Y0153023D01*
X0164321Y0153093D01*
X0164409Y0153160D01*
X0164499Y0153223D01*
X0164591Y0153283D01*
X0164685Y0153340D01*
X0164782Y0153394D01*
X0164880Y0153443D01*
X0164980Y0153490D01*
X0165082Y0153532D01*
X0165185Y0153571D01*
X0165289Y0153606D01*
X0165395Y0153638D01*
X0165501Y0153665D01*
X0165609Y0153689D01*
X0165717Y0153709D01*
X0165826Y0153725D01*
X0165936Y0153737D01*
X0166046Y0153745D01*
X0166156Y0153749D01*
X0166266Y0153749D01*
X0166376Y0153745D01*
X0166486Y0153737D01*
X0166596Y0153725D01*
X0166705Y0153709D01*
X0166813Y0153689D01*
X0166921Y0153665D01*
X0167027Y0153638D01*
X0167133Y0153606D01*
X0167237Y0153571D01*
X0167340Y0153532D01*
X0167442Y0153490D01*
X0167542Y0153443D01*
X0167640Y0153394D01*
X0167736Y0153340D01*
X0167831Y0153283D01*
X0167923Y0153223D01*
X0168013Y0153160D01*
X0168101Y0153093D01*
X0168186Y0153023D01*
X0168269Y0152951D01*
X0168349Y0152875D01*
X0168426Y0152796D01*
X0168500Y0152715D01*
X0168572Y0152631D01*
X0168640Y0152544D01*
X0168705Y0152455D01*
X0168767Y0152364D01*
X0168825Y0152271D01*
X0168880Y0152176D01*
X0168932Y0152078D01*
X0168980Y0151979D01*
X0169024Y0151878D01*
X0169065Y0151776D01*
X0169102Y0151672D01*
X0169136Y0151567D01*
X0169165Y0151461D01*
X0169191Y0151354D01*
X0169212Y0151246D01*
X0169230Y0151137D01*
X0169244Y0151028D01*
X0169254Y0150918D01*
X0169260Y0150808D01*
X0169262Y0150698D01*
X0169260Y0150588D01*
X0169254Y0150478D01*
X0169244Y0150368D01*
X0169230Y0150259D01*
X0169212Y0150150D01*
X0169191Y0150042D01*
X0169165Y0149935D01*
X0169136Y0149829D01*
X0169102Y0149724D01*
X0169065Y0149620D01*
X0169024Y0149518D01*
X0168980Y0149417D01*
X0168932Y0149318D01*
X0168880Y0149220D01*
X0168825Y0149125D01*
X0168767Y0149032D01*
X0168705Y0148941D01*
X0168640Y0148852D01*
X0168572Y0148765D01*
X0168500Y0148681D01*
X0168426Y0148600D01*
X0168349Y0148521D01*
X0168269Y0148445D01*
X0168186Y0148373D01*
X0168101Y0148303D01*
X0168013Y0148236D01*
X0167923Y0148173D01*
X0167831Y0148113D01*
X0167737Y0148056D01*
X0167640Y0148002D01*
X0167542Y0147953D01*
X0167442Y0147906D01*
X0167340Y0147864D01*
X0167237Y0147825D01*
X0167133Y0147790D01*
X0167027Y0147758D01*
X0166921Y0147731D01*
X0166813Y0147707D01*
X0166705Y0147687D01*
X0166596Y0147671D01*
X0166486Y0147659D01*
X0166376Y0147651D01*
X0166266Y0147647D01*
X0166156Y0147647D01*
X0166046Y0147651D01*
X0165936Y0147659D01*
X0165826Y0147671D01*
X0165717Y0147687D01*
X0165609Y0147707D01*
X0165501Y0147731D01*
X0165395Y0147758D01*
X0165289Y0147790D01*
X0165185Y0147825D01*
X0165082Y0147864D01*
X0164980Y0147906D01*
X0164880Y0147953D01*
X0164782Y0148002D01*
X0164685Y0148056D01*
X0164591Y0148113D01*
X0164499Y0148173D01*
X0164409Y0148236D01*
X0164321Y0148303D01*
X0164236Y0148373D01*
X0164153Y0148445D01*
X0164073Y0148521D01*
X0163996Y0148600D01*
X0163922Y0148681D01*
X0163850Y0148765D01*
X0163782Y0148852D01*
X0163717Y0148941D01*
X0163655Y0149032D01*
X0163597Y0149125D01*
X0163542Y0149220D01*
X0163490Y0149318D01*
X0163442Y0149417D01*
X0163398Y0149518D01*
X0163357Y0149620D01*
X0163320Y0149724D01*
X0163286Y0149829D01*
X0163257Y0149935D01*
X0163231Y0150042D01*
X0163210Y0150150D01*
X0163192Y0150259D01*
X0163178Y0150368D01*
X0163168Y0150478D01*
X0163162Y0150588D01*
X0163160Y0150698D01*
X0087874Y0224713D02*
X0087876Y0224831D01*
X0087882Y0224950D01*
X0087892Y0225068D01*
X0087906Y0225185D01*
X0087923Y0225302D01*
X0087945Y0225419D01*
X0087971Y0225534D01*
X0088000Y0225649D01*
X0088033Y0225763D01*
X0088070Y0225875D01*
X0088111Y0225986D01*
X0088155Y0226096D01*
X0088203Y0226204D01*
X0088255Y0226311D01*
X0088310Y0226416D01*
X0088369Y0226519D01*
X0088431Y0226619D01*
X0088496Y0226718D01*
X0088565Y0226815D01*
X0088636Y0226909D01*
X0088711Y0227000D01*
X0088789Y0227090D01*
X0088870Y0227176D01*
X0088954Y0227260D01*
X0089040Y0227341D01*
X0089130Y0227419D01*
X0089221Y0227494D01*
X0089315Y0227565D01*
X0089412Y0227634D01*
X0089511Y0227699D01*
X0089611Y0227761D01*
X0089714Y0227820D01*
X0089819Y0227875D01*
X0089926Y0227927D01*
X0090034Y0227975D01*
X0090144Y0228019D01*
X0090255Y0228060D01*
X0090367Y0228097D01*
X0090481Y0228130D01*
X0090596Y0228159D01*
X0090711Y0228185D01*
X0090828Y0228207D01*
X0090945Y0228224D01*
X0091062Y0228238D01*
X0091180Y0228248D01*
X0091299Y0228254D01*
X0091417Y0228256D01*
X0091535Y0228254D01*
X0091654Y0228248D01*
X0091772Y0228238D01*
X0091889Y0228224D01*
X0092006Y0228207D01*
X0092123Y0228185D01*
X0092238Y0228159D01*
X0092353Y0228130D01*
X0092467Y0228097D01*
X0092579Y0228060D01*
X0092690Y0228019D01*
X0092800Y0227975D01*
X0092908Y0227927D01*
X0093015Y0227875D01*
X0093120Y0227820D01*
X0093223Y0227761D01*
X0093323Y0227699D01*
X0093422Y0227634D01*
X0093519Y0227565D01*
X0093613Y0227494D01*
X0093704Y0227419D01*
X0093794Y0227341D01*
X0093880Y0227260D01*
X0093964Y0227176D01*
X0094045Y0227090D01*
X0094123Y0227000D01*
X0094198Y0226909D01*
X0094269Y0226815D01*
X0094338Y0226718D01*
X0094403Y0226619D01*
X0094465Y0226519D01*
X0094524Y0226416D01*
X0094579Y0226311D01*
X0094631Y0226204D01*
X0094679Y0226096D01*
X0094723Y0225986D01*
X0094764Y0225875D01*
X0094801Y0225763D01*
X0094834Y0225649D01*
X0094863Y0225534D01*
X0094889Y0225419D01*
X0094911Y0225302D01*
X0094928Y0225185D01*
X0094942Y0225068D01*
X0094952Y0224950D01*
X0094958Y0224831D01*
X0094960Y0224713D01*
X0094958Y0224595D01*
X0094952Y0224476D01*
X0094942Y0224358D01*
X0094928Y0224241D01*
X0094911Y0224124D01*
X0094889Y0224007D01*
X0094863Y0223892D01*
X0094834Y0223777D01*
X0094801Y0223663D01*
X0094764Y0223551D01*
X0094723Y0223440D01*
X0094679Y0223330D01*
X0094631Y0223222D01*
X0094579Y0223115D01*
X0094524Y0223010D01*
X0094465Y0222907D01*
X0094403Y0222807D01*
X0094338Y0222708D01*
X0094269Y0222611D01*
X0094198Y0222517D01*
X0094123Y0222426D01*
X0094045Y0222336D01*
X0093964Y0222250D01*
X0093880Y0222166D01*
X0093794Y0222085D01*
X0093704Y0222007D01*
X0093613Y0221932D01*
X0093519Y0221861D01*
X0093422Y0221792D01*
X0093323Y0221727D01*
X0093223Y0221665D01*
X0093120Y0221606D01*
X0093015Y0221551D01*
X0092908Y0221499D01*
X0092800Y0221451D01*
X0092690Y0221407D01*
X0092579Y0221366D01*
X0092467Y0221329D01*
X0092353Y0221296D01*
X0092238Y0221267D01*
X0092123Y0221241D01*
X0092006Y0221219D01*
X0091889Y0221202D01*
X0091772Y0221188D01*
X0091654Y0221178D01*
X0091535Y0221172D01*
X0091417Y0221170D01*
X0091299Y0221172D01*
X0091180Y0221178D01*
X0091062Y0221188D01*
X0090945Y0221202D01*
X0090828Y0221219D01*
X0090711Y0221241D01*
X0090596Y0221267D01*
X0090481Y0221296D01*
X0090367Y0221329D01*
X0090255Y0221366D01*
X0090144Y0221407D01*
X0090034Y0221451D01*
X0089926Y0221499D01*
X0089819Y0221551D01*
X0089714Y0221606D01*
X0089611Y0221665D01*
X0089511Y0221727D01*
X0089412Y0221792D01*
X0089315Y0221861D01*
X0089221Y0221932D01*
X0089130Y0222007D01*
X0089040Y0222085D01*
X0088954Y0222166D01*
X0088870Y0222250D01*
X0088789Y0222336D01*
X0088711Y0222426D01*
X0088636Y0222517D01*
X0088565Y0222611D01*
X0088496Y0222708D01*
X0088431Y0222807D01*
X0088369Y0222907D01*
X0088310Y0223010D01*
X0088255Y0223115D01*
X0088203Y0223222D01*
X0088155Y0223330D01*
X0088111Y0223440D01*
X0088070Y0223551D01*
X0088033Y0223663D01*
X0088000Y0223777D01*
X0087971Y0223892D01*
X0087945Y0224007D01*
X0087923Y0224124D01*
X0087906Y0224241D01*
X0087892Y0224358D01*
X0087882Y0224476D01*
X0087876Y0224595D01*
X0087874Y0224713D01*
X0088267Y0242430D02*
X0088269Y0242542D01*
X0088275Y0242653D01*
X0088285Y0242765D01*
X0088299Y0242876D01*
X0088316Y0242986D01*
X0088338Y0243096D01*
X0088364Y0243205D01*
X0088393Y0243313D01*
X0088426Y0243419D01*
X0088463Y0243525D01*
X0088504Y0243629D01*
X0088549Y0243732D01*
X0088597Y0243833D01*
X0088648Y0243932D01*
X0088703Y0244029D01*
X0088762Y0244124D01*
X0088823Y0244218D01*
X0088888Y0244309D01*
X0088957Y0244397D01*
X0089028Y0244483D01*
X0089102Y0244567D01*
X0089180Y0244647D01*
X0089260Y0244725D01*
X0089343Y0244801D01*
X0089428Y0244873D01*
X0089516Y0244942D01*
X0089606Y0245008D01*
X0089699Y0245070D01*
X0089794Y0245130D01*
X0089891Y0245186D01*
X0089989Y0245238D01*
X0090090Y0245287D01*
X0090192Y0245332D01*
X0090296Y0245374D01*
X0090401Y0245412D01*
X0090508Y0245446D01*
X0090615Y0245476D01*
X0090724Y0245503D01*
X0090833Y0245525D01*
X0090944Y0245544D01*
X0091054Y0245559D01*
X0091166Y0245570D01*
X0091277Y0245577D01*
X0091389Y0245580D01*
X0091501Y0245579D01*
X0091613Y0245574D01*
X0091724Y0245565D01*
X0091835Y0245552D01*
X0091946Y0245535D01*
X0092056Y0245515D01*
X0092165Y0245490D01*
X0092273Y0245462D01*
X0092380Y0245429D01*
X0092486Y0245393D01*
X0092590Y0245353D01*
X0092693Y0245310D01*
X0092795Y0245263D01*
X0092894Y0245212D01*
X0092992Y0245158D01*
X0093088Y0245100D01*
X0093182Y0245039D01*
X0093273Y0244975D01*
X0093362Y0244908D01*
X0093449Y0244837D01*
X0093533Y0244763D01*
X0093615Y0244687D01*
X0093693Y0244607D01*
X0093769Y0244525D01*
X0093842Y0244440D01*
X0093912Y0244353D01*
X0093978Y0244263D01*
X0094042Y0244171D01*
X0094102Y0244077D01*
X0094159Y0243981D01*
X0094212Y0243882D01*
X0094262Y0243782D01*
X0094308Y0243681D01*
X0094351Y0243577D01*
X0094390Y0243472D01*
X0094425Y0243366D01*
X0094456Y0243259D01*
X0094484Y0243150D01*
X0094507Y0243041D01*
X0094527Y0242931D01*
X0094543Y0242820D01*
X0094555Y0242709D01*
X0094563Y0242598D01*
X0094567Y0242486D01*
X0094567Y0242374D01*
X0094563Y0242262D01*
X0094555Y0242151D01*
X0094543Y0242040D01*
X0094527Y0241929D01*
X0094507Y0241819D01*
X0094484Y0241710D01*
X0094456Y0241601D01*
X0094425Y0241494D01*
X0094390Y0241388D01*
X0094351Y0241283D01*
X0094308Y0241179D01*
X0094262Y0241078D01*
X0094212Y0240978D01*
X0094159Y0240879D01*
X0094102Y0240783D01*
X0094042Y0240689D01*
X0093978Y0240597D01*
X0093912Y0240507D01*
X0093842Y0240420D01*
X0093769Y0240335D01*
X0093693Y0240253D01*
X0093615Y0240173D01*
X0093533Y0240097D01*
X0093449Y0240023D01*
X0093362Y0239952D01*
X0093273Y0239885D01*
X0093182Y0239821D01*
X0093088Y0239760D01*
X0092992Y0239702D01*
X0092894Y0239648D01*
X0092795Y0239597D01*
X0092693Y0239550D01*
X0092590Y0239507D01*
X0092486Y0239467D01*
X0092380Y0239431D01*
X0092273Y0239398D01*
X0092165Y0239370D01*
X0092056Y0239345D01*
X0091946Y0239325D01*
X0091835Y0239308D01*
X0091724Y0239295D01*
X0091613Y0239286D01*
X0091501Y0239281D01*
X0091389Y0239280D01*
X0091277Y0239283D01*
X0091166Y0239290D01*
X0091054Y0239301D01*
X0090944Y0239316D01*
X0090833Y0239335D01*
X0090724Y0239357D01*
X0090615Y0239384D01*
X0090508Y0239414D01*
X0090401Y0239448D01*
X0090296Y0239486D01*
X0090192Y0239528D01*
X0090090Y0239573D01*
X0089989Y0239622D01*
X0089891Y0239674D01*
X0089794Y0239730D01*
X0089699Y0239790D01*
X0089606Y0239852D01*
X0089516Y0239918D01*
X0089428Y0239987D01*
X0089343Y0240059D01*
X0089260Y0240135D01*
X0089180Y0240213D01*
X0089102Y0240293D01*
X0089028Y0240377D01*
X0088957Y0240463D01*
X0088888Y0240551D01*
X0088823Y0240642D01*
X0088762Y0240736D01*
X0088703Y0240831D01*
X0088648Y0240928D01*
X0088597Y0241027D01*
X0088549Y0241128D01*
X0088504Y0241231D01*
X0088463Y0241335D01*
X0088426Y0241441D01*
X0088393Y0241547D01*
X0088364Y0241655D01*
X0088338Y0241764D01*
X0088316Y0241874D01*
X0088299Y0241984D01*
X0088285Y0242095D01*
X0088275Y0242207D01*
X0088269Y0242318D01*
X0088267Y0242430D01*
X0283917Y0186800D02*
X0283917Y0136800D01*
X0283917Y0126800D02*
X0283917Y0076800D01*
D11*
X0182352Y0103749D03*
X0142982Y0103749D03*
X0123297Y0116249D03*
X0103612Y0103749D03*
X0123297Y0137509D03*
X0123297Y0159851D03*
X0083927Y0159851D03*
X0044557Y0159851D03*
X0044557Y0126091D03*
X0064242Y0103749D03*
X0162667Y0159851D03*
D12*
X0152825Y0159851D03*
X0134321Y0159851D03*
X0172510Y0159851D03*
X0190620Y0150698D03*
X0190620Y0131800D03*
X0190620Y0112902D03*
X0172510Y0103749D03*
X0152825Y0103749D03*
X0134321Y0103749D03*
D13*
X0166211Y0112902D03*
X0166211Y0150698D03*
D14*
X0244203Y0238020D03*
X0047352Y0238020D03*
X0047352Y0021485D03*
X0244203Y0021485D03*
D15*
X0264717Y0090000D02*
X0281117Y0090000D01*
X0281117Y0081600D01*
X0264717Y0081600D01*
X0264717Y0090000D01*
X0264717Y0083199D02*
X0281117Y0083199D01*
X0281117Y0084798D02*
X0264717Y0084798D01*
X0264717Y0086397D02*
X0281117Y0086397D01*
X0281117Y0087996D02*
X0264717Y0087996D01*
X0264717Y0089595D02*
X0281117Y0089595D01*
X0281117Y0122000D02*
X0264717Y0122000D01*
X0281117Y0122000D02*
X0281117Y0113600D01*
X0264717Y0113600D01*
X0264717Y0122000D01*
X0264717Y0115199D02*
X0281117Y0115199D01*
X0281117Y0116798D02*
X0264717Y0116798D01*
X0264717Y0118397D02*
X0281117Y0118397D01*
X0281117Y0119996D02*
X0264717Y0119996D01*
X0264717Y0121595D02*
X0281117Y0121595D01*
X0281117Y0150000D02*
X0264717Y0150000D01*
X0281117Y0150000D02*
X0281117Y0141600D01*
X0264717Y0141600D01*
X0264717Y0150000D01*
X0264717Y0143199D02*
X0281117Y0143199D01*
X0281117Y0144798D02*
X0264717Y0144798D01*
X0264717Y0146397D02*
X0281117Y0146397D01*
X0281117Y0147996D02*
X0264717Y0147996D01*
X0264717Y0149595D02*
X0281117Y0149595D01*
X0281117Y0182000D02*
X0264717Y0182000D01*
X0281117Y0182000D02*
X0281117Y0173600D01*
X0264717Y0173600D01*
X0264717Y0182000D01*
X0264717Y0175199D02*
X0281117Y0175199D01*
X0281117Y0176798D02*
X0264717Y0176798D01*
X0264717Y0178397D02*
X0281117Y0178397D01*
X0281117Y0179996D02*
X0264717Y0179996D01*
X0264717Y0181595D02*
X0281117Y0181595D01*
D16*
X0091417Y0242430D03*
D17*
X0091417Y0224713D03*
D18*
X0164417Y0213050D03*
X0163417Y0203050D03*
X0164417Y0193050D03*
X0163417Y0183050D03*
X0160167Y0067300D03*
X0150167Y0066300D03*
X0140167Y0067300D03*
X0130167Y0066300D03*
X0120167Y0067300D03*
X0110167Y0066300D03*
X0100167Y0067300D03*
X0090167Y0066300D03*
X0170167Y0066300D03*
X0180167Y0067300D03*
D19*
X0175167Y0074300D03*
X0165167Y0074300D03*
X0175167Y0088050D03*
X0188917Y0095550D03*
X0195792Y0101800D03*
X0206417Y0095550D03*
X0215167Y0099300D03*
X0223917Y0094300D03*
X0233292Y0091175D03*
X0240167Y0101800D03*
X0248917Y0106800D03*
X0253917Y0106800D03*
X0258917Y0106800D03*
X0259542Y0096800D03*
X0253917Y0096800D03*
X0249542Y0094925D03*
X0246417Y0091175D03*
X0230167Y0109300D03*
X0223917Y0113050D03*
X0217667Y0119300D03*
X0210167Y0126800D03*
X0200167Y0131800D03*
X0210167Y0136800D03*
X0217667Y0144300D03*
X0223917Y0150550D03*
X0230167Y0154300D03*
X0237667Y0150550D03*
X0243917Y0150550D03*
X0248917Y0154300D03*
X0253917Y0156800D03*
X0258917Y0156800D03*
X0258917Y0166800D03*
X0253917Y0166800D03*
X0248917Y0166800D03*
X0240167Y0161800D03*
X0231417Y0169300D03*
X0223917Y0169300D03*
X0215167Y0164300D03*
X0207667Y0156800D03*
X0200167Y0150550D03*
X0178917Y0171800D03*
X0167667Y0144300D03*
X0172667Y0136800D03*
X0172667Y0128050D03*
X0175792Y0118675D03*
X0158917Y0131800D03*
X0160167Y0135550D03*
X0157667Y0144300D03*
X0142667Y0146800D03*
X0133917Y0141800D03*
X0133917Y0136800D03*
X0141417Y0130550D03*
X0135167Y0129300D03*
X0141417Y0123050D03*
X0142667Y0118050D03*
X0156417Y0121800D03*
X0160792Y0093675D03*
X0150167Y0091800D03*
X0145167Y0088050D03*
X0133917Y0086800D03*
X0127042Y0093675D03*
X0118917Y0086800D03*
X0105167Y0086800D03*
X0100167Y0093050D03*
X0093917Y0083050D03*
X0083917Y0078050D03*
X0078917Y0073050D03*
X0056417Y0083050D03*
X0050167Y0073050D03*
X0132667Y0199300D03*
X0123917Y0208050D03*
X0141417Y0208050D03*
X0157667Y0231800D03*
X0172667Y0231800D03*
X0181417Y0234300D03*
X0197667Y0234300D03*
X0203917Y0234300D03*
X0201417Y0228050D03*
X0206417Y0228050D03*
X0206417Y0223050D03*
X0213917Y0223050D03*
X0218917Y0223050D03*
X0218917Y0218050D03*
X0213917Y0218050D03*
X0223917Y0218050D03*
X0223917Y0223050D03*
X0223917Y0229300D03*
X0223917Y0234300D03*
X0223917Y0239300D03*
X0223917Y0245550D03*
X0218917Y0245550D03*
X0213917Y0245550D03*
X0213917Y0250550D03*
X0218917Y0250550D03*
X0223917Y0250550D03*
X0206417Y0245550D03*
X0206417Y0240550D03*
X0201417Y0240550D03*
X0188917Y0219615D03*
X0182667Y0219615D03*
X0182667Y0214615D03*
X0176417Y0219615D03*
X0211417Y0200550D03*
X0220167Y0209300D03*
X0236417Y0188050D03*
X0231417Y0178050D03*
X0239542Y0172425D03*
X0251417Y0188050D03*
X0258917Y0178050D03*
X0272667Y0170550D03*
X0272667Y0186800D03*
X0272667Y0153050D03*
X0258917Y0145550D03*
X0251417Y0130550D03*
X0236417Y0130550D03*
X0231417Y0120550D03*
X0238917Y0114300D03*
X0258917Y0118050D03*
X0272667Y0110550D03*
X0272667Y0093050D03*
X0272667Y0131800D03*
X0213917Y0087425D03*
X0206417Y0078050D03*
X0207667Y0106800D03*
X0200167Y0114300D03*
X0071417Y0208050D03*
X0071417Y0230550D03*
X0071417Y0251800D03*
M02*
