G75*
%MOIN*%
%OFA0B0*%
%FSLAX25Y25*%
%IPPOS*%
%LPD*%
%AMOC8*
5,1,8,0,0,1.08239X$1,22.5*
%
%ADD10C,0.00000*%
%ADD11C,0.00984*%
%ADD12R,0.07874X0.07874*%
%ADD13C,0.06358*%
%ADD14C,0.06102*%
%ADD15C,0.23000*%
%ADD16C,0.01600*%
%ADD17C,0.01890*%
%ADD18C,0.00945*%
%ADD19C,0.01181*%
%ADD20C,0.01083*%
%ADD21C,0.01559*%
%ADD22C,0.02362*%
%ADD23C,0.06299*%
%ADD24C,0.07087*%
%ADD25C,0.07400*%
%ADD26C,0.01440*%
%ADD27C,0.02598*%
%ADD28C,0.00803*%
%ADD29C,0.02362*%
D10*
X0027667Y0001800D02*
X0027667Y0257706D01*
X0283573Y0257706D01*
X0283573Y0001800D01*
X0027667Y0001800D01*
X0163160Y0112902D02*
X0163162Y0113012D01*
X0163168Y0113122D01*
X0163178Y0113232D01*
X0163192Y0113341D01*
X0163210Y0113450D01*
X0163231Y0113558D01*
X0163257Y0113665D01*
X0163286Y0113771D01*
X0163320Y0113876D01*
X0163357Y0113980D01*
X0163398Y0114082D01*
X0163442Y0114183D01*
X0163490Y0114282D01*
X0163542Y0114380D01*
X0163597Y0114475D01*
X0163655Y0114568D01*
X0163717Y0114659D01*
X0163782Y0114748D01*
X0163850Y0114835D01*
X0163922Y0114919D01*
X0163996Y0115000D01*
X0164073Y0115079D01*
X0164153Y0115155D01*
X0164236Y0115227D01*
X0164321Y0115297D01*
X0164409Y0115364D01*
X0164499Y0115427D01*
X0164591Y0115487D01*
X0164685Y0115544D01*
X0164782Y0115598D01*
X0164880Y0115647D01*
X0164980Y0115694D01*
X0165082Y0115736D01*
X0165185Y0115775D01*
X0165289Y0115810D01*
X0165395Y0115842D01*
X0165501Y0115869D01*
X0165609Y0115893D01*
X0165717Y0115913D01*
X0165826Y0115929D01*
X0165936Y0115941D01*
X0166046Y0115949D01*
X0166156Y0115953D01*
X0166266Y0115953D01*
X0166376Y0115949D01*
X0166486Y0115941D01*
X0166596Y0115929D01*
X0166705Y0115913D01*
X0166813Y0115893D01*
X0166921Y0115869D01*
X0167027Y0115842D01*
X0167133Y0115810D01*
X0167237Y0115775D01*
X0167340Y0115736D01*
X0167442Y0115694D01*
X0167542Y0115647D01*
X0167640Y0115598D01*
X0167736Y0115544D01*
X0167831Y0115487D01*
X0167923Y0115427D01*
X0168013Y0115364D01*
X0168101Y0115297D01*
X0168186Y0115227D01*
X0168269Y0115155D01*
X0168349Y0115079D01*
X0168426Y0115000D01*
X0168500Y0114919D01*
X0168572Y0114835D01*
X0168640Y0114748D01*
X0168705Y0114659D01*
X0168767Y0114568D01*
X0168825Y0114475D01*
X0168880Y0114380D01*
X0168932Y0114282D01*
X0168980Y0114183D01*
X0169024Y0114082D01*
X0169065Y0113980D01*
X0169102Y0113876D01*
X0169136Y0113771D01*
X0169165Y0113665D01*
X0169191Y0113558D01*
X0169212Y0113450D01*
X0169230Y0113341D01*
X0169244Y0113232D01*
X0169254Y0113122D01*
X0169260Y0113012D01*
X0169262Y0112902D01*
X0169260Y0112792D01*
X0169254Y0112682D01*
X0169244Y0112572D01*
X0169230Y0112463D01*
X0169212Y0112354D01*
X0169191Y0112246D01*
X0169165Y0112139D01*
X0169136Y0112033D01*
X0169102Y0111928D01*
X0169065Y0111824D01*
X0169024Y0111722D01*
X0168980Y0111621D01*
X0168932Y0111522D01*
X0168880Y0111424D01*
X0168825Y0111329D01*
X0168767Y0111236D01*
X0168705Y0111145D01*
X0168640Y0111056D01*
X0168572Y0110969D01*
X0168500Y0110885D01*
X0168426Y0110804D01*
X0168349Y0110725D01*
X0168269Y0110649D01*
X0168186Y0110577D01*
X0168101Y0110507D01*
X0168013Y0110440D01*
X0167923Y0110377D01*
X0167831Y0110317D01*
X0167737Y0110260D01*
X0167640Y0110206D01*
X0167542Y0110157D01*
X0167442Y0110110D01*
X0167340Y0110068D01*
X0167237Y0110029D01*
X0167133Y0109994D01*
X0167027Y0109962D01*
X0166921Y0109935D01*
X0166813Y0109911D01*
X0166705Y0109891D01*
X0166596Y0109875D01*
X0166486Y0109863D01*
X0166376Y0109855D01*
X0166266Y0109851D01*
X0166156Y0109851D01*
X0166046Y0109855D01*
X0165936Y0109863D01*
X0165826Y0109875D01*
X0165717Y0109891D01*
X0165609Y0109911D01*
X0165501Y0109935D01*
X0165395Y0109962D01*
X0165289Y0109994D01*
X0165185Y0110029D01*
X0165082Y0110068D01*
X0164980Y0110110D01*
X0164880Y0110157D01*
X0164782Y0110206D01*
X0164685Y0110260D01*
X0164591Y0110317D01*
X0164499Y0110377D01*
X0164409Y0110440D01*
X0164321Y0110507D01*
X0164236Y0110577D01*
X0164153Y0110649D01*
X0164073Y0110725D01*
X0163996Y0110804D01*
X0163922Y0110885D01*
X0163850Y0110969D01*
X0163782Y0111056D01*
X0163717Y0111145D01*
X0163655Y0111236D01*
X0163597Y0111329D01*
X0163542Y0111424D01*
X0163490Y0111522D01*
X0163442Y0111621D01*
X0163398Y0111722D01*
X0163357Y0111824D01*
X0163320Y0111928D01*
X0163286Y0112033D01*
X0163257Y0112139D01*
X0163231Y0112246D01*
X0163210Y0112354D01*
X0163192Y0112463D01*
X0163178Y0112572D01*
X0163168Y0112682D01*
X0163162Y0112792D01*
X0163160Y0112902D01*
X0163160Y0150698D02*
X0163162Y0150808D01*
X0163168Y0150918D01*
X0163178Y0151028D01*
X0163192Y0151137D01*
X0163210Y0151246D01*
X0163231Y0151354D01*
X0163257Y0151461D01*
X0163286Y0151567D01*
X0163320Y0151672D01*
X0163357Y0151776D01*
X0163398Y0151878D01*
X0163442Y0151979D01*
X0163490Y0152078D01*
X0163542Y0152176D01*
X0163597Y0152271D01*
X0163655Y0152364D01*
X0163717Y0152455D01*
X0163782Y0152544D01*
X0163850Y0152631D01*
X0163922Y0152715D01*
X0163996Y0152796D01*
X0164073Y0152875D01*
X0164153Y0152951D01*
X0164236Y0153023D01*
X0164321Y0153093D01*
X0164409Y0153160D01*
X0164499Y0153223D01*
X0164591Y0153283D01*
X0164685Y0153340D01*
X0164782Y0153394D01*
X0164880Y0153443D01*
X0164980Y0153490D01*
X0165082Y0153532D01*
X0165185Y0153571D01*
X0165289Y0153606D01*
X0165395Y0153638D01*
X0165501Y0153665D01*
X0165609Y0153689D01*
X0165717Y0153709D01*
X0165826Y0153725D01*
X0165936Y0153737D01*
X0166046Y0153745D01*
X0166156Y0153749D01*
X0166266Y0153749D01*
X0166376Y0153745D01*
X0166486Y0153737D01*
X0166596Y0153725D01*
X0166705Y0153709D01*
X0166813Y0153689D01*
X0166921Y0153665D01*
X0167027Y0153638D01*
X0167133Y0153606D01*
X0167237Y0153571D01*
X0167340Y0153532D01*
X0167442Y0153490D01*
X0167542Y0153443D01*
X0167640Y0153394D01*
X0167736Y0153340D01*
X0167831Y0153283D01*
X0167923Y0153223D01*
X0168013Y0153160D01*
X0168101Y0153093D01*
X0168186Y0153023D01*
X0168269Y0152951D01*
X0168349Y0152875D01*
X0168426Y0152796D01*
X0168500Y0152715D01*
X0168572Y0152631D01*
X0168640Y0152544D01*
X0168705Y0152455D01*
X0168767Y0152364D01*
X0168825Y0152271D01*
X0168880Y0152176D01*
X0168932Y0152078D01*
X0168980Y0151979D01*
X0169024Y0151878D01*
X0169065Y0151776D01*
X0169102Y0151672D01*
X0169136Y0151567D01*
X0169165Y0151461D01*
X0169191Y0151354D01*
X0169212Y0151246D01*
X0169230Y0151137D01*
X0169244Y0151028D01*
X0169254Y0150918D01*
X0169260Y0150808D01*
X0169262Y0150698D01*
X0169260Y0150588D01*
X0169254Y0150478D01*
X0169244Y0150368D01*
X0169230Y0150259D01*
X0169212Y0150150D01*
X0169191Y0150042D01*
X0169165Y0149935D01*
X0169136Y0149829D01*
X0169102Y0149724D01*
X0169065Y0149620D01*
X0169024Y0149518D01*
X0168980Y0149417D01*
X0168932Y0149318D01*
X0168880Y0149220D01*
X0168825Y0149125D01*
X0168767Y0149032D01*
X0168705Y0148941D01*
X0168640Y0148852D01*
X0168572Y0148765D01*
X0168500Y0148681D01*
X0168426Y0148600D01*
X0168349Y0148521D01*
X0168269Y0148445D01*
X0168186Y0148373D01*
X0168101Y0148303D01*
X0168013Y0148236D01*
X0167923Y0148173D01*
X0167831Y0148113D01*
X0167737Y0148056D01*
X0167640Y0148002D01*
X0167542Y0147953D01*
X0167442Y0147906D01*
X0167340Y0147864D01*
X0167237Y0147825D01*
X0167133Y0147790D01*
X0167027Y0147758D01*
X0166921Y0147731D01*
X0166813Y0147707D01*
X0166705Y0147687D01*
X0166596Y0147671D01*
X0166486Y0147659D01*
X0166376Y0147651D01*
X0166266Y0147647D01*
X0166156Y0147647D01*
X0166046Y0147651D01*
X0165936Y0147659D01*
X0165826Y0147671D01*
X0165717Y0147687D01*
X0165609Y0147707D01*
X0165501Y0147731D01*
X0165395Y0147758D01*
X0165289Y0147790D01*
X0165185Y0147825D01*
X0165082Y0147864D01*
X0164980Y0147906D01*
X0164880Y0147953D01*
X0164782Y0148002D01*
X0164685Y0148056D01*
X0164591Y0148113D01*
X0164499Y0148173D01*
X0164409Y0148236D01*
X0164321Y0148303D01*
X0164236Y0148373D01*
X0164153Y0148445D01*
X0164073Y0148521D01*
X0163996Y0148600D01*
X0163922Y0148681D01*
X0163850Y0148765D01*
X0163782Y0148852D01*
X0163717Y0148941D01*
X0163655Y0149032D01*
X0163597Y0149125D01*
X0163542Y0149220D01*
X0163490Y0149318D01*
X0163442Y0149417D01*
X0163398Y0149518D01*
X0163357Y0149620D01*
X0163320Y0149724D01*
X0163286Y0149829D01*
X0163257Y0149935D01*
X0163231Y0150042D01*
X0163210Y0150150D01*
X0163192Y0150259D01*
X0163178Y0150368D01*
X0163168Y0150478D01*
X0163162Y0150588D01*
X0163160Y0150698D01*
X0087874Y0224713D02*
X0087876Y0224831D01*
X0087882Y0224950D01*
X0087892Y0225068D01*
X0087906Y0225185D01*
X0087923Y0225302D01*
X0087945Y0225419D01*
X0087971Y0225534D01*
X0088000Y0225649D01*
X0088033Y0225763D01*
X0088070Y0225875D01*
X0088111Y0225986D01*
X0088155Y0226096D01*
X0088203Y0226204D01*
X0088255Y0226311D01*
X0088310Y0226416D01*
X0088369Y0226519D01*
X0088431Y0226619D01*
X0088496Y0226718D01*
X0088565Y0226815D01*
X0088636Y0226909D01*
X0088711Y0227000D01*
X0088789Y0227090D01*
X0088870Y0227176D01*
X0088954Y0227260D01*
X0089040Y0227341D01*
X0089130Y0227419D01*
X0089221Y0227494D01*
X0089315Y0227565D01*
X0089412Y0227634D01*
X0089511Y0227699D01*
X0089611Y0227761D01*
X0089714Y0227820D01*
X0089819Y0227875D01*
X0089926Y0227927D01*
X0090034Y0227975D01*
X0090144Y0228019D01*
X0090255Y0228060D01*
X0090367Y0228097D01*
X0090481Y0228130D01*
X0090596Y0228159D01*
X0090711Y0228185D01*
X0090828Y0228207D01*
X0090945Y0228224D01*
X0091062Y0228238D01*
X0091180Y0228248D01*
X0091299Y0228254D01*
X0091417Y0228256D01*
X0091535Y0228254D01*
X0091654Y0228248D01*
X0091772Y0228238D01*
X0091889Y0228224D01*
X0092006Y0228207D01*
X0092123Y0228185D01*
X0092238Y0228159D01*
X0092353Y0228130D01*
X0092467Y0228097D01*
X0092579Y0228060D01*
X0092690Y0228019D01*
X0092800Y0227975D01*
X0092908Y0227927D01*
X0093015Y0227875D01*
X0093120Y0227820D01*
X0093223Y0227761D01*
X0093323Y0227699D01*
X0093422Y0227634D01*
X0093519Y0227565D01*
X0093613Y0227494D01*
X0093704Y0227419D01*
X0093794Y0227341D01*
X0093880Y0227260D01*
X0093964Y0227176D01*
X0094045Y0227090D01*
X0094123Y0227000D01*
X0094198Y0226909D01*
X0094269Y0226815D01*
X0094338Y0226718D01*
X0094403Y0226619D01*
X0094465Y0226519D01*
X0094524Y0226416D01*
X0094579Y0226311D01*
X0094631Y0226204D01*
X0094679Y0226096D01*
X0094723Y0225986D01*
X0094764Y0225875D01*
X0094801Y0225763D01*
X0094834Y0225649D01*
X0094863Y0225534D01*
X0094889Y0225419D01*
X0094911Y0225302D01*
X0094928Y0225185D01*
X0094942Y0225068D01*
X0094952Y0224950D01*
X0094958Y0224831D01*
X0094960Y0224713D01*
X0094958Y0224595D01*
X0094952Y0224476D01*
X0094942Y0224358D01*
X0094928Y0224241D01*
X0094911Y0224124D01*
X0094889Y0224007D01*
X0094863Y0223892D01*
X0094834Y0223777D01*
X0094801Y0223663D01*
X0094764Y0223551D01*
X0094723Y0223440D01*
X0094679Y0223330D01*
X0094631Y0223222D01*
X0094579Y0223115D01*
X0094524Y0223010D01*
X0094465Y0222907D01*
X0094403Y0222807D01*
X0094338Y0222708D01*
X0094269Y0222611D01*
X0094198Y0222517D01*
X0094123Y0222426D01*
X0094045Y0222336D01*
X0093964Y0222250D01*
X0093880Y0222166D01*
X0093794Y0222085D01*
X0093704Y0222007D01*
X0093613Y0221932D01*
X0093519Y0221861D01*
X0093422Y0221792D01*
X0093323Y0221727D01*
X0093223Y0221665D01*
X0093120Y0221606D01*
X0093015Y0221551D01*
X0092908Y0221499D01*
X0092800Y0221451D01*
X0092690Y0221407D01*
X0092579Y0221366D01*
X0092467Y0221329D01*
X0092353Y0221296D01*
X0092238Y0221267D01*
X0092123Y0221241D01*
X0092006Y0221219D01*
X0091889Y0221202D01*
X0091772Y0221188D01*
X0091654Y0221178D01*
X0091535Y0221172D01*
X0091417Y0221170D01*
X0091299Y0221172D01*
X0091180Y0221178D01*
X0091062Y0221188D01*
X0090945Y0221202D01*
X0090828Y0221219D01*
X0090711Y0221241D01*
X0090596Y0221267D01*
X0090481Y0221296D01*
X0090367Y0221329D01*
X0090255Y0221366D01*
X0090144Y0221407D01*
X0090034Y0221451D01*
X0089926Y0221499D01*
X0089819Y0221551D01*
X0089714Y0221606D01*
X0089611Y0221665D01*
X0089511Y0221727D01*
X0089412Y0221792D01*
X0089315Y0221861D01*
X0089221Y0221932D01*
X0089130Y0222007D01*
X0089040Y0222085D01*
X0088954Y0222166D01*
X0088870Y0222250D01*
X0088789Y0222336D01*
X0088711Y0222426D01*
X0088636Y0222517D01*
X0088565Y0222611D01*
X0088496Y0222708D01*
X0088431Y0222807D01*
X0088369Y0222907D01*
X0088310Y0223010D01*
X0088255Y0223115D01*
X0088203Y0223222D01*
X0088155Y0223330D01*
X0088111Y0223440D01*
X0088070Y0223551D01*
X0088033Y0223663D01*
X0088000Y0223777D01*
X0087971Y0223892D01*
X0087945Y0224007D01*
X0087923Y0224124D01*
X0087906Y0224241D01*
X0087892Y0224358D01*
X0087882Y0224476D01*
X0087876Y0224595D01*
X0087874Y0224713D01*
X0088267Y0242430D02*
X0088269Y0242542D01*
X0088275Y0242653D01*
X0088285Y0242765D01*
X0088299Y0242876D01*
X0088316Y0242986D01*
X0088338Y0243096D01*
X0088364Y0243205D01*
X0088393Y0243313D01*
X0088426Y0243419D01*
X0088463Y0243525D01*
X0088504Y0243629D01*
X0088549Y0243732D01*
X0088597Y0243833D01*
X0088648Y0243932D01*
X0088703Y0244029D01*
X0088762Y0244124D01*
X0088823Y0244218D01*
X0088888Y0244309D01*
X0088957Y0244397D01*
X0089028Y0244483D01*
X0089102Y0244567D01*
X0089180Y0244647D01*
X0089260Y0244725D01*
X0089343Y0244801D01*
X0089428Y0244873D01*
X0089516Y0244942D01*
X0089606Y0245008D01*
X0089699Y0245070D01*
X0089794Y0245130D01*
X0089891Y0245186D01*
X0089989Y0245238D01*
X0090090Y0245287D01*
X0090192Y0245332D01*
X0090296Y0245374D01*
X0090401Y0245412D01*
X0090508Y0245446D01*
X0090615Y0245476D01*
X0090724Y0245503D01*
X0090833Y0245525D01*
X0090944Y0245544D01*
X0091054Y0245559D01*
X0091166Y0245570D01*
X0091277Y0245577D01*
X0091389Y0245580D01*
X0091501Y0245579D01*
X0091613Y0245574D01*
X0091724Y0245565D01*
X0091835Y0245552D01*
X0091946Y0245535D01*
X0092056Y0245515D01*
X0092165Y0245490D01*
X0092273Y0245462D01*
X0092380Y0245429D01*
X0092486Y0245393D01*
X0092590Y0245353D01*
X0092693Y0245310D01*
X0092795Y0245263D01*
X0092894Y0245212D01*
X0092992Y0245158D01*
X0093088Y0245100D01*
X0093182Y0245039D01*
X0093273Y0244975D01*
X0093362Y0244908D01*
X0093449Y0244837D01*
X0093533Y0244763D01*
X0093615Y0244687D01*
X0093693Y0244607D01*
X0093769Y0244525D01*
X0093842Y0244440D01*
X0093912Y0244353D01*
X0093978Y0244263D01*
X0094042Y0244171D01*
X0094102Y0244077D01*
X0094159Y0243981D01*
X0094212Y0243882D01*
X0094262Y0243782D01*
X0094308Y0243681D01*
X0094351Y0243577D01*
X0094390Y0243472D01*
X0094425Y0243366D01*
X0094456Y0243259D01*
X0094484Y0243150D01*
X0094507Y0243041D01*
X0094527Y0242931D01*
X0094543Y0242820D01*
X0094555Y0242709D01*
X0094563Y0242598D01*
X0094567Y0242486D01*
X0094567Y0242374D01*
X0094563Y0242262D01*
X0094555Y0242151D01*
X0094543Y0242040D01*
X0094527Y0241929D01*
X0094507Y0241819D01*
X0094484Y0241710D01*
X0094456Y0241601D01*
X0094425Y0241494D01*
X0094390Y0241388D01*
X0094351Y0241283D01*
X0094308Y0241179D01*
X0094262Y0241078D01*
X0094212Y0240978D01*
X0094159Y0240879D01*
X0094102Y0240783D01*
X0094042Y0240689D01*
X0093978Y0240597D01*
X0093912Y0240507D01*
X0093842Y0240420D01*
X0093769Y0240335D01*
X0093693Y0240253D01*
X0093615Y0240173D01*
X0093533Y0240097D01*
X0093449Y0240023D01*
X0093362Y0239952D01*
X0093273Y0239885D01*
X0093182Y0239821D01*
X0093088Y0239760D01*
X0092992Y0239702D01*
X0092894Y0239648D01*
X0092795Y0239597D01*
X0092693Y0239550D01*
X0092590Y0239507D01*
X0092486Y0239467D01*
X0092380Y0239431D01*
X0092273Y0239398D01*
X0092165Y0239370D01*
X0092056Y0239345D01*
X0091946Y0239325D01*
X0091835Y0239308D01*
X0091724Y0239295D01*
X0091613Y0239286D01*
X0091501Y0239281D01*
X0091389Y0239280D01*
X0091277Y0239283D01*
X0091166Y0239290D01*
X0091054Y0239301D01*
X0090944Y0239316D01*
X0090833Y0239335D01*
X0090724Y0239357D01*
X0090615Y0239384D01*
X0090508Y0239414D01*
X0090401Y0239448D01*
X0090296Y0239486D01*
X0090192Y0239528D01*
X0090090Y0239573D01*
X0089989Y0239622D01*
X0089891Y0239674D01*
X0089794Y0239730D01*
X0089699Y0239790D01*
X0089606Y0239852D01*
X0089516Y0239918D01*
X0089428Y0239987D01*
X0089343Y0240059D01*
X0089260Y0240135D01*
X0089180Y0240213D01*
X0089102Y0240293D01*
X0089028Y0240377D01*
X0088957Y0240463D01*
X0088888Y0240551D01*
X0088823Y0240642D01*
X0088762Y0240736D01*
X0088703Y0240831D01*
X0088648Y0240928D01*
X0088597Y0241027D01*
X0088549Y0241128D01*
X0088504Y0241231D01*
X0088463Y0241335D01*
X0088426Y0241441D01*
X0088393Y0241547D01*
X0088364Y0241655D01*
X0088338Y0241764D01*
X0088316Y0241874D01*
X0088299Y0241984D01*
X0088285Y0242095D01*
X0088275Y0242207D01*
X0088269Y0242318D01*
X0088267Y0242430D01*
X0283917Y0186800D02*
X0283917Y0136800D01*
X0283917Y0126800D02*
X0283917Y0076800D01*
D11*
X0185797Y0117922D02*
X0178907Y0117922D01*
X0178907Y0118906D01*
X0185797Y0118906D01*
X0185797Y0117922D01*
X0185797Y0118905D02*
X0178907Y0118905D01*
X0178907Y0121072D02*
X0185797Y0121072D01*
X0178907Y0121072D02*
X0178907Y0122056D01*
X0185797Y0122056D01*
X0185797Y0121072D01*
X0185797Y0122055D02*
X0178907Y0122055D01*
X0178907Y0124221D02*
X0185797Y0124221D01*
X0178907Y0124221D02*
X0178907Y0125205D01*
X0185797Y0125205D01*
X0185797Y0124221D01*
X0185797Y0125204D02*
X0178907Y0125204D01*
X0178907Y0127371D02*
X0185797Y0127371D01*
X0178907Y0127371D02*
X0178907Y0128355D01*
X0185797Y0128355D01*
X0185797Y0127371D01*
X0185797Y0128354D02*
X0178907Y0128354D01*
X0178907Y0130521D02*
X0185797Y0130521D01*
X0178907Y0130521D02*
X0178907Y0131505D01*
X0185797Y0131505D01*
X0185797Y0130521D01*
X0185797Y0131504D02*
X0178907Y0131504D01*
X0178907Y0133670D02*
X0185797Y0133670D01*
X0178907Y0133670D02*
X0178907Y0134654D01*
X0185797Y0134654D01*
X0185797Y0133670D01*
X0185797Y0134653D02*
X0178907Y0134653D01*
X0178907Y0136820D02*
X0185797Y0136820D01*
X0178907Y0136820D02*
X0178907Y0137804D01*
X0185797Y0137804D01*
X0185797Y0136820D01*
X0185797Y0137803D02*
X0178907Y0137803D01*
X0178907Y0139969D02*
X0185797Y0139969D01*
X0178907Y0139969D02*
X0178907Y0140953D01*
X0185797Y0140953D01*
X0185797Y0139969D01*
X0185797Y0140952D02*
X0178907Y0140952D01*
X0178907Y0143119D02*
X0185797Y0143119D01*
X0178907Y0143119D02*
X0178907Y0144103D01*
X0185797Y0144103D01*
X0185797Y0143119D01*
X0185797Y0144102D02*
X0178907Y0144102D01*
X0178907Y0146269D02*
X0185797Y0146269D01*
X0178907Y0146269D02*
X0178907Y0147253D01*
X0185797Y0147253D01*
X0185797Y0146269D01*
X0185797Y0147252D02*
X0178907Y0147252D01*
X0153514Y0144694D02*
X0146624Y0144694D01*
X0146624Y0145678D01*
X0153514Y0145678D01*
X0153514Y0144694D01*
X0153514Y0145677D02*
X0146624Y0145677D01*
X0146624Y0141544D02*
X0153514Y0141544D01*
X0146624Y0141544D02*
X0146624Y0142528D01*
X0153514Y0142528D01*
X0153514Y0141544D01*
X0153514Y0142527D02*
X0146624Y0142527D01*
X0146624Y0138395D02*
X0153514Y0138395D01*
X0146624Y0138395D02*
X0146624Y0139379D01*
X0153514Y0139379D01*
X0153514Y0138395D01*
X0153514Y0139378D02*
X0146624Y0139378D01*
X0146624Y0135245D02*
X0153514Y0135245D01*
X0146624Y0135245D02*
X0146624Y0136229D01*
X0153514Y0136229D01*
X0153514Y0135245D01*
X0153514Y0136228D02*
X0146624Y0136228D01*
X0146624Y0132095D02*
X0153514Y0132095D01*
X0146624Y0132095D02*
X0146624Y0133079D01*
X0153514Y0133079D01*
X0153514Y0132095D01*
X0153514Y0133078D02*
X0146624Y0133078D01*
X0146624Y0128946D02*
X0153514Y0128946D01*
X0146624Y0128946D02*
X0146624Y0129930D01*
X0153514Y0129930D01*
X0153514Y0128946D01*
X0153514Y0129929D02*
X0146624Y0129929D01*
X0146624Y0125796D02*
X0153514Y0125796D01*
X0146624Y0125796D02*
X0146624Y0126780D01*
X0153514Y0126780D01*
X0153514Y0125796D01*
X0153514Y0126779D02*
X0146624Y0126779D01*
X0146624Y0122647D02*
X0153514Y0122647D01*
X0146624Y0122647D02*
X0146624Y0123631D01*
X0153514Y0123631D01*
X0153514Y0122647D01*
X0153514Y0123630D02*
X0146624Y0123630D01*
X0146624Y0119497D02*
X0153514Y0119497D01*
X0146624Y0119497D02*
X0146624Y0120481D01*
X0153514Y0120481D01*
X0153514Y0119497D01*
X0153514Y0120480D02*
X0146624Y0120480D01*
X0146624Y0116347D02*
X0153514Y0116347D01*
X0146624Y0116347D02*
X0146624Y0117331D01*
X0153514Y0117331D01*
X0153514Y0116347D01*
X0153514Y0117330D02*
X0146624Y0117330D01*
D12*
X0142982Y0103749D03*
X0123297Y0116249D03*
X0103612Y0103749D03*
X0123297Y0137509D03*
X0123297Y0159851D03*
X0083927Y0159851D03*
X0044557Y0159851D03*
X0044557Y0126091D03*
X0064242Y0103749D03*
X0162667Y0159851D03*
X0182352Y0103749D03*
D13*
X0172510Y0103749D03*
X0152825Y0103749D03*
X0134321Y0103749D03*
X0190620Y0112902D03*
X0190620Y0131800D03*
X0190620Y0150698D03*
X0172510Y0159851D03*
X0152825Y0159851D03*
X0134321Y0159851D03*
D14*
X0166211Y0150698D03*
X0166211Y0112902D03*
D15*
X0244203Y0021485D03*
X0047352Y0021485D03*
X0047352Y0238020D03*
X0244203Y0238020D03*
D16*
X0264717Y0182000D02*
X0281117Y0182000D01*
X0281117Y0173600D01*
X0264717Y0173600D01*
X0264717Y0182000D01*
X0264717Y0175199D02*
X0281117Y0175199D01*
X0281117Y0176798D02*
X0264717Y0176798D01*
X0264717Y0178397D02*
X0281117Y0178397D01*
X0281117Y0179996D02*
X0264717Y0179996D01*
X0264717Y0181595D02*
X0281117Y0181595D01*
X0281117Y0166000D02*
X0264717Y0166000D01*
X0281117Y0166000D02*
X0281117Y0157600D01*
X0264717Y0157600D01*
X0264717Y0166000D01*
X0264717Y0159199D02*
X0281117Y0159199D01*
X0281117Y0160798D02*
X0264717Y0160798D01*
X0264717Y0162397D02*
X0281117Y0162397D01*
X0281117Y0163996D02*
X0264717Y0163996D01*
X0264717Y0165595D02*
X0281117Y0165595D01*
X0281117Y0150000D02*
X0264717Y0150000D01*
X0281117Y0150000D02*
X0281117Y0141600D01*
X0264717Y0141600D01*
X0264717Y0150000D01*
X0264717Y0143199D02*
X0281117Y0143199D01*
X0281117Y0144798D02*
X0264717Y0144798D01*
X0264717Y0146397D02*
X0281117Y0146397D01*
X0281117Y0147996D02*
X0264717Y0147996D01*
X0264717Y0149595D02*
X0281117Y0149595D01*
X0281117Y0122000D02*
X0264717Y0122000D01*
X0281117Y0122000D02*
X0281117Y0113600D01*
X0264717Y0113600D01*
X0264717Y0122000D01*
X0264717Y0115199D02*
X0281117Y0115199D01*
X0281117Y0116798D02*
X0264717Y0116798D01*
X0264717Y0118397D02*
X0281117Y0118397D01*
X0281117Y0119996D02*
X0264717Y0119996D01*
X0264717Y0121595D02*
X0281117Y0121595D01*
X0281117Y0106000D02*
X0264717Y0106000D01*
X0281117Y0106000D02*
X0281117Y0097600D01*
X0264717Y0097600D01*
X0264717Y0106000D01*
X0264717Y0099199D02*
X0281117Y0099199D01*
X0281117Y0100798D02*
X0264717Y0100798D01*
X0264717Y0102397D02*
X0281117Y0102397D01*
X0281117Y0103996D02*
X0264717Y0103996D01*
X0264717Y0105595D02*
X0281117Y0105595D01*
X0281117Y0090000D02*
X0264717Y0090000D01*
X0281117Y0090000D02*
X0281117Y0081600D01*
X0264717Y0081600D01*
X0264717Y0090000D01*
X0264717Y0083199D02*
X0281117Y0083199D01*
X0281117Y0084798D02*
X0264717Y0084798D01*
X0264717Y0086397D02*
X0281117Y0086397D01*
X0281117Y0087996D02*
X0264717Y0087996D01*
X0264717Y0089595D02*
X0281117Y0089595D01*
D17*
X0209133Y0090023D02*
X0204725Y0090023D01*
X0209133Y0090023D02*
X0209133Y0084827D01*
X0204725Y0084827D01*
X0204725Y0090023D01*
X0204725Y0086716D02*
X0209133Y0086716D01*
X0209133Y0088605D02*
X0204725Y0088605D01*
X0198110Y0090023D02*
X0193702Y0090023D01*
X0198110Y0090023D02*
X0198110Y0084827D01*
X0193702Y0084827D01*
X0193702Y0090023D01*
X0193702Y0086716D02*
X0198110Y0086716D01*
X0198110Y0088605D02*
X0193702Y0088605D01*
X0191633Y0184202D02*
X0187225Y0184202D01*
X0187225Y0189398D01*
X0191633Y0189398D01*
X0191633Y0184202D01*
X0191633Y0186091D02*
X0187225Y0186091D01*
X0187225Y0187980D02*
X0191633Y0187980D01*
X0180610Y0184202D02*
X0176202Y0184202D01*
X0176202Y0189398D01*
X0180610Y0189398D01*
X0180610Y0184202D01*
X0180610Y0186091D02*
X0176202Y0186091D01*
X0176202Y0187980D02*
X0180610Y0187980D01*
X0167765Y0230019D02*
X0167765Y0234427D01*
X0167765Y0230019D02*
X0162569Y0230019D01*
X0162569Y0234427D01*
X0167765Y0234427D01*
X0167765Y0231908D02*
X0162569Y0231908D01*
X0162569Y0233797D02*
X0167765Y0233797D01*
X0167765Y0241043D02*
X0167765Y0245451D01*
X0167765Y0241043D02*
X0162569Y0241043D01*
X0162569Y0245451D01*
X0167765Y0245451D01*
X0167765Y0242932D02*
X0162569Y0242932D01*
X0162569Y0244821D02*
X0167765Y0244821D01*
D18*
X0178770Y0245414D02*
X0178770Y0242816D01*
X0176564Y0242816D01*
X0176564Y0245414D01*
X0178770Y0245414D01*
X0178770Y0243760D02*
X0176564Y0243760D01*
X0176564Y0244704D02*
X0178770Y0244704D01*
X0178770Y0248816D02*
X0178770Y0251414D01*
X0178770Y0248816D02*
X0176564Y0248816D01*
X0176564Y0251414D01*
X0178770Y0251414D01*
X0178770Y0249760D02*
X0176564Y0249760D01*
X0176564Y0250704D02*
X0178770Y0250704D01*
X0178770Y0232349D02*
X0178770Y0229751D01*
X0176564Y0229751D01*
X0176564Y0232349D01*
X0178770Y0232349D01*
X0178770Y0230695D02*
X0176564Y0230695D01*
X0176564Y0231639D02*
X0178770Y0231639D01*
X0178770Y0226349D02*
X0178770Y0223751D01*
X0176564Y0223751D01*
X0176564Y0226349D01*
X0178770Y0226349D01*
X0178770Y0224695D02*
X0176564Y0224695D01*
X0176564Y0225639D02*
X0178770Y0225639D01*
X0182118Y0180403D02*
X0184716Y0180403D01*
X0184716Y0178197D01*
X0182118Y0178197D01*
X0182118Y0180403D01*
X0182118Y0179141D02*
X0184716Y0179141D01*
X0184716Y0180085D02*
X0182118Y0180085D01*
X0188118Y0180403D02*
X0190716Y0180403D01*
X0190716Y0178197D01*
X0188118Y0178197D01*
X0188118Y0180403D01*
X0188118Y0179141D02*
X0190716Y0179141D01*
X0190716Y0180085D02*
X0188118Y0180085D01*
X0175716Y0172903D02*
X0173118Y0172903D01*
X0175716Y0172903D02*
X0175716Y0170697D01*
X0173118Y0170697D01*
X0173118Y0172903D01*
X0173118Y0171641D02*
X0175716Y0171641D01*
X0175716Y0172585D02*
X0173118Y0172585D01*
X0169716Y0172903D02*
X0167118Y0172903D01*
X0169716Y0172903D02*
X0169716Y0170697D01*
X0167118Y0170697D01*
X0167118Y0172903D01*
X0167118Y0171641D02*
X0169716Y0171641D01*
X0169716Y0172585D02*
X0167118Y0172585D01*
X0237520Y0176251D02*
X0237520Y0178849D01*
X0237520Y0176251D02*
X0235314Y0176251D01*
X0235314Y0178849D01*
X0237520Y0178849D01*
X0237520Y0177195D02*
X0235314Y0177195D01*
X0235314Y0178139D02*
X0237520Y0178139D01*
X0242520Y0178849D02*
X0242520Y0176251D01*
X0240314Y0176251D01*
X0240314Y0178849D01*
X0242520Y0178849D01*
X0242520Y0177195D02*
X0240314Y0177195D01*
X0240314Y0178139D02*
X0242520Y0178139D01*
X0247520Y0178849D02*
X0247520Y0176251D01*
X0245314Y0176251D01*
X0245314Y0178849D01*
X0247520Y0178849D01*
X0247520Y0177195D02*
X0245314Y0177195D01*
X0245314Y0178139D02*
X0247520Y0178139D01*
X0252520Y0178849D02*
X0252520Y0176251D01*
X0250314Y0176251D01*
X0250314Y0178849D01*
X0252520Y0178849D01*
X0252520Y0177195D02*
X0250314Y0177195D01*
X0250314Y0178139D02*
X0252520Y0178139D01*
X0252520Y0182251D02*
X0252520Y0184849D01*
X0252520Y0182251D02*
X0250314Y0182251D01*
X0250314Y0184849D01*
X0252520Y0184849D01*
X0252520Y0183195D02*
X0250314Y0183195D01*
X0250314Y0184139D02*
X0252520Y0184139D01*
X0247520Y0184849D02*
X0247520Y0182251D01*
X0245314Y0182251D01*
X0245314Y0184849D01*
X0247520Y0184849D01*
X0247520Y0183195D02*
X0245314Y0183195D01*
X0245314Y0184139D02*
X0247520Y0184139D01*
X0242520Y0184849D02*
X0242520Y0182251D01*
X0240314Y0182251D01*
X0240314Y0184849D01*
X0242520Y0184849D01*
X0242520Y0183195D02*
X0240314Y0183195D01*
X0240314Y0184139D02*
X0242520Y0184139D01*
X0237520Y0184849D02*
X0237520Y0182251D01*
X0235314Y0182251D01*
X0235314Y0184849D01*
X0237520Y0184849D01*
X0237520Y0183195D02*
X0235314Y0183195D01*
X0235314Y0184139D02*
X0237520Y0184139D01*
X0237520Y0127349D02*
X0237520Y0124751D01*
X0235314Y0124751D01*
X0235314Y0127349D01*
X0237520Y0127349D01*
X0237520Y0125695D02*
X0235314Y0125695D01*
X0235314Y0126639D02*
X0237520Y0126639D01*
X0242520Y0127349D02*
X0242520Y0124751D01*
X0240314Y0124751D01*
X0240314Y0127349D01*
X0242520Y0127349D01*
X0242520Y0125695D02*
X0240314Y0125695D01*
X0240314Y0126639D02*
X0242520Y0126639D01*
X0247520Y0127349D02*
X0247520Y0124751D01*
X0245314Y0124751D01*
X0245314Y0127349D01*
X0247520Y0127349D01*
X0247520Y0125695D02*
X0245314Y0125695D01*
X0245314Y0126639D02*
X0247520Y0126639D01*
X0252520Y0127349D02*
X0252520Y0124751D01*
X0250314Y0124751D01*
X0250314Y0127349D01*
X0252520Y0127349D01*
X0252520Y0125695D02*
X0250314Y0125695D01*
X0250314Y0126639D02*
X0252520Y0126639D01*
X0252520Y0121349D02*
X0252520Y0118751D01*
X0250314Y0118751D01*
X0250314Y0121349D01*
X0252520Y0121349D01*
X0252520Y0119695D02*
X0250314Y0119695D01*
X0250314Y0120639D02*
X0252520Y0120639D01*
X0247520Y0121349D02*
X0247520Y0118751D01*
X0245314Y0118751D01*
X0245314Y0121349D01*
X0247520Y0121349D01*
X0247520Y0119695D02*
X0245314Y0119695D01*
X0245314Y0120639D02*
X0247520Y0120639D01*
X0242520Y0121349D02*
X0242520Y0118751D01*
X0240314Y0118751D01*
X0240314Y0121349D01*
X0242520Y0121349D01*
X0242520Y0119695D02*
X0240314Y0119695D01*
X0240314Y0120639D02*
X0242520Y0120639D01*
X0237520Y0121349D02*
X0237520Y0118751D01*
X0235314Y0118751D01*
X0235314Y0121349D01*
X0237520Y0121349D01*
X0237520Y0119695D02*
X0235314Y0119695D01*
X0235314Y0120639D02*
X0237520Y0120639D01*
X0201966Y0094447D02*
X0199368Y0094447D01*
X0199368Y0096653D01*
X0201966Y0096653D01*
X0201966Y0094447D01*
X0201966Y0095391D02*
X0199368Y0095391D01*
X0199368Y0096335D02*
X0201966Y0096335D01*
X0195966Y0094447D02*
X0193368Y0094447D01*
X0193368Y0096653D01*
X0195966Y0096653D01*
X0195966Y0094447D01*
X0195966Y0095391D02*
X0193368Y0095391D01*
X0193368Y0096335D02*
X0195966Y0096335D01*
X0171270Y0088599D02*
X0171270Y0086001D01*
X0169064Y0086001D01*
X0169064Y0088599D01*
X0171270Y0088599D01*
X0171270Y0086945D02*
X0169064Y0086945D01*
X0169064Y0087889D02*
X0171270Y0087889D01*
X0171270Y0082599D02*
X0171270Y0080001D01*
X0169064Y0080001D01*
X0169064Y0082599D01*
X0171270Y0082599D01*
X0171270Y0080945D02*
X0169064Y0080945D01*
X0169064Y0081889D02*
X0171270Y0081889D01*
X0161270Y0082599D02*
X0161270Y0080001D01*
X0159064Y0080001D01*
X0159064Y0082599D01*
X0161270Y0082599D01*
X0161270Y0080945D02*
X0159064Y0080945D01*
X0159064Y0081889D02*
X0161270Y0081889D01*
X0161270Y0086001D02*
X0161270Y0088599D01*
X0161270Y0086001D02*
X0159064Y0086001D01*
X0159064Y0088599D01*
X0161270Y0088599D01*
X0161270Y0086945D02*
X0159064Y0086945D01*
X0159064Y0087889D02*
X0161270Y0087889D01*
X0151270Y0088599D02*
X0151270Y0086001D01*
X0149064Y0086001D01*
X0149064Y0088599D01*
X0151270Y0088599D01*
X0151270Y0086945D02*
X0149064Y0086945D01*
X0149064Y0087889D02*
X0151270Y0087889D01*
X0151270Y0082599D02*
X0151270Y0080001D01*
X0149064Y0080001D01*
X0149064Y0082599D01*
X0151270Y0082599D01*
X0151270Y0080945D02*
X0149064Y0080945D01*
X0149064Y0081889D02*
X0151270Y0081889D01*
X0131270Y0082599D02*
X0131270Y0080001D01*
X0129064Y0080001D01*
X0129064Y0082599D01*
X0131270Y0082599D01*
X0131270Y0080945D02*
X0129064Y0080945D01*
X0129064Y0081889D02*
X0131270Y0081889D01*
X0131270Y0086001D02*
X0131270Y0088599D01*
X0131270Y0086001D02*
X0129064Y0086001D01*
X0129064Y0088599D01*
X0131270Y0088599D01*
X0131270Y0086945D02*
X0129064Y0086945D01*
X0129064Y0087889D02*
X0131270Y0087889D01*
X0101270Y0088599D02*
X0101270Y0086001D01*
X0099064Y0086001D01*
X0099064Y0088599D01*
X0101270Y0088599D01*
X0101270Y0086945D02*
X0099064Y0086945D01*
X0099064Y0087889D02*
X0101270Y0087889D01*
X0101270Y0082599D02*
X0101270Y0080001D01*
X0099064Y0080001D01*
X0099064Y0082599D01*
X0101270Y0082599D01*
X0101270Y0080945D02*
X0099064Y0080945D01*
X0099064Y0081889D02*
X0101270Y0081889D01*
X0079064Y0081251D02*
X0079064Y0083849D01*
X0081270Y0083849D01*
X0081270Y0081251D01*
X0079064Y0081251D01*
X0079064Y0082195D02*
X0081270Y0082195D01*
X0081270Y0083139D02*
X0079064Y0083139D01*
X0079064Y0087251D02*
X0079064Y0089849D01*
X0081270Y0089849D01*
X0081270Y0087251D01*
X0079064Y0087251D01*
X0079064Y0088195D02*
X0081270Y0088195D01*
X0081270Y0089139D02*
X0079064Y0089139D01*
X0080020Y0070856D02*
X0077814Y0070856D01*
X0080020Y0070856D02*
X0080020Y0068650D01*
X0077814Y0068650D01*
X0077814Y0070856D01*
X0077814Y0069594D02*
X0080020Y0069594D01*
X0080020Y0070538D02*
X0077814Y0070538D01*
X0077814Y0064950D02*
X0080020Y0064950D01*
X0080020Y0062744D01*
X0077814Y0062744D01*
X0077814Y0064950D01*
X0077814Y0063688D02*
X0080020Y0063688D01*
X0080020Y0064632D02*
X0077814Y0064632D01*
X0067814Y0065099D02*
X0067814Y0062501D01*
X0067814Y0065099D02*
X0070020Y0065099D01*
X0070020Y0062501D01*
X0067814Y0062501D01*
X0067814Y0063445D02*
X0070020Y0063445D01*
X0070020Y0064389D02*
X0067814Y0064389D01*
X0067814Y0068501D02*
X0067814Y0071099D01*
X0070020Y0071099D01*
X0070020Y0068501D01*
X0067814Y0068501D01*
X0067814Y0069445D02*
X0070020Y0069445D01*
X0070020Y0070389D02*
X0067814Y0070389D01*
X0051564Y0081251D02*
X0051564Y0083849D01*
X0053770Y0083849D01*
X0053770Y0081251D01*
X0051564Y0081251D01*
X0051564Y0082195D02*
X0053770Y0082195D01*
X0053770Y0083139D02*
X0051564Y0083139D01*
X0051564Y0087251D02*
X0051564Y0089849D01*
X0053770Y0089849D01*
X0053770Y0087251D01*
X0051564Y0087251D01*
X0051564Y0088195D02*
X0053770Y0088195D01*
X0053770Y0089139D02*
X0051564Y0089139D01*
X0051270Y0070856D02*
X0049064Y0070856D01*
X0051270Y0070856D02*
X0051270Y0068650D01*
X0049064Y0068650D01*
X0049064Y0070856D01*
X0049064Y0069594D02*
X0051270Y0069594D01*
X0051270Y0070538D02*
X0049064Y0070538D01*
X0049064Y0064950D02*
X0051270Y0064950D01*
X0051270Y0062744D01*
X0049064Y0062744D01*
X0049064Y0064950D01*
X0049064Y0063688D02*
X0051270Y0063688D01*
X0051270Y0064632D02*
X0049064Y0064632D01*
X0039064Y0065099D02*
X0039064Y0062501D01*
X0039064Y0065099D02*
X0041270Y0065099D01*
X0041270Y0062501D01*
X0039064Y0062501D01*
X0039064Y0063445D02*
X0041270Y0063445D01*
X0041270Y0064389D02*
X0039064Y0064389D01*
X0039064Y0068501D02*
X0039064Y0071099D01*
X0041270Y0071099D01*
X0041270Y0068501D01*
X0039064Y0068501D01*
X0039064Y0069445D02*
X0041270Y0069445D01*
X0041270Y0070389D02*
X0039064Y0070389D01*
D19*
X0038789Y0082135D02*
X0041545Y0082135D01*
X0041545Y0077803D01*
X0038789Y0077803D01*
X0038789Y0082135D01*
X0038789Y0078983D02*
X0041545Y0078983D01*
X0041545Y0080163D02*
X0038789Y0080163D01*
X0038789Y0081343D02*
X0041545Y0081343D01*
X0042529Y0090797D02*
X0045285Y0090797D01*
X0045285Y0086465D01*
X0042529Y0086465D01*
X0042529Y0090797D01*
X0042529Y0087645D02*
X0045285Y0087645D01*
X0045285Y0088825D02*
X0042529Y0088825D01*
X0042529Y0090005D02*
X0045285Y0090005D01*
X0037805Y0090797D02*
X0035049Y0090797D01*
X0037805Y0090797D02*
X0037805Y0086465D01*
X0035049Y0086465D01*
X0035049Y0090797D01*
X0035049Y0087645D02*
X0037805Y0087645D01*
X0037805Y0088825D02*
X0035049Y0088825D01*
X0035049Y0090005D02*
X0037805Y0090005D01*
X0063799Y0090797D02*
X0066555Y0090797D01*
X0066555Y0086465D01*
X0063799Y0086465D01*
X0063799Y0090797D01*
X0063799Y0087645D02*
X0066555Y0087645D01*
X0066555Y0088825D02*
X0063799Y0088825D01*
X0063799Y0090005D02*
X0066555Y0090005D01*
X0071279Y0090797D02*
X0074035Y0090797D01*
X0074035Y0086465D01*
X0071279Y0086465D01*
X0071279Y0090797D01*
X0071279Y0087645D02*
X0074035Y0087645D01*
X0074035Y0088825D02*
X0071279Y0088825D01*
X0071279Y0090005D02*
X0074035Y0090005D01*
X0070295Y0082135D02*
X0067539Y0082135D01*
X0070295Y0082135D02*
X0070295Y0077803D01*
X0067539Y0077803D01*
X0067539Y0082135D01*
X0067539Y0078983D02*
X0070295Y0078983D01*
X0070295Y0080163D02*
X0067539Y0080163D01*
X0067539Y0081343D02*
X0070295Y0081343D01*
X0181496Y0173178D02*
X0184646Y0173178D01*
X0184646Y0170422D01*
X0181496Y0170422D01*
X0181496Y0173178D01*
X0181496Y0171602D02*
X0184646Y0171602D01*
X0184646Y0172782D02*
X0181496Y0172782D01*
X0188189Y0173178D02*
X0191339Y0173178D01*
X0191339Y0170422D01*
X0188189Y0170422D01*
X0188189Y0173178D01*
X0188189Y0171602D02*
X0191339Y0171602D01*
X0191339Y0172782D02*
X0188189Y0172782D01*
X0193371Y0076672D02*
X0196521Y0076672D01*
X0193371Y0076672D02*
X0193371Y0079428D01*
X0196521Y0079428D01*
X0196521Y0076672D01*
X0196521Y0077852D02*
X0193371Y0077852D01*
X0193371Y0079032D02*
X0196521Y0079032D01*
X0200064Y0076672D02*
X0203214Y0076672D01*
X0200064Y0076672D02*
X0200064Y0079428D01*
X0203214Y0079428D01*
X0203214Y0076672D01*
X0203214Y0077852D02*
X0200064Y0077852D01*
X0200064Y0079032D02*
X0203214Y0079032D01*
D20*
X0235886Y0098503D02*
X0236968Y0098503D01*
X0236968Y0094861D01*
X0235886Y0094861D01*
X0235886Y0098503D01*
X0235886Y0095943D02*
X0236968Y0095943D01*
X0236968Y0097025D02*
X0235886Y0097025D01*
X0235886Y0098107D02*
X0236968Y0098107D01*
X0243366Y0098503D02*
X0244448Y0098503D01*
X0244448Y0094861D01*
X0243366Y0094861D01*
X0243366Y0098503D01*
X0243366Y0095943D02*
X0244448Y0095943D01*
X0244448Y0097025D02*
X0243366Y0097025D01*
X0243366Y0098107D02*
X0244448Y0098107D01*
X0244448Y0109133D02*
X0243366Y0109133D01*
X0244448Y0109133D02*
X0244448Y0105097D01*
X0243366Y0105097D01*
X0243366Y0109133D01*
X0243366Y0106179D02*
X0244448Y0106179D01*
X0244448Y0107261D02*
X0243366Y0107261D01*
X0243366Y0108343D02*
X0244448Y0108343D01*
X0240708Y0108739D02*
X0239626Y0108739D01*
X0240708Y0108739D02*
X0240708Y0105097D01*
X0239626Y0105097D01*
X0239626Y0108739D01*
X0239626Y0106179D02*
X0240708Y0106179D01*
X0240708Y0107261D02*
X0239626Y0107261D01*
X0239626Y0108343D02*
X0240708Y0108343D01*
X0236968Y0108739D02*
X0235886Y0108739D01*
X0236968Y0108739D02*
X0236968Y0105097D01*
X0235886Y0105097D01*
X0235886Y0108739D01*
X0235886Y0106179D02*
X0236968Y0106179D01*
X0236968Y0107261D02*
X0235886Y0107261D01*
X0235886Y0108343D02*
X0236968Y0108343D01*
X0236968Y0158503D02*
X0235886Y0158503D01*
X0236968Y0158503D02*
X0236968Y0154861D01*
X0235886Y0154861D01*
X0235886Y0158503D01*
X0235886Y0155943D02*
X0236968Y0155943D01*
X0236968Y0157025D02*
X0235886Y0157025D01*
X0235886Y0158107D02*
X0236968Y0158107D01*
X0243366Y0158503D02*
X0244448Y0158503D01*
X0244448Y0154861D01*
X0243366Y0154861D01*
X0243366Y0158503D01*
X0243366Y0155943D02*
X0244448Y0155943D01*
X0244448Y0157025D02*
X0243366Y0157025D01*
X0243366Y0158107D02*
X0244448Y0158107D01*
X0244448Y0169133D02*
X0243366Y0169133D01*
X0244448Y0169133D02*
X0244448Y0165097D01*
X0243366Y0165097D01*
X0243366Y0169133D01*
X0243366Y0166179D02*
X0244448Y0166179D01*
X0244448Y0167261D02*
X0243366Y0167261D01*
X0243366Y0168343D02*
X0244448Y0168343D01*
X0240708Y0168739D02*
X0239626Y0168739D01*
X0240708Y0168739D02*
X0240708Y0165097D01*
X0239626Y0165097D01*
X0239626Y0168739D01*
X0239626Y0166179D02*
X0240708Y0166179D01*
X0240708Y0167261D02*
X0239626Y0167261D01*
X0239626Y0168343D02*
X0240708Y0168343D01*
X0236968Y0168739D02*
X0235886Y0168739D01*
X0236968Y0168739D02*
X0236968Y0165097D01*
X0235886Y0165097D01*
X0235886Y0168739D01*
X0235886Y0166179D02*
X0236968Y0166179D01*
X0236968Y0167261D02*
X0235886Y0167261D01*
X0235886Y0168343D02*
X0236968Y0168343D01*
D21*
X0215914Y0205749D02*
X0207236Y0205749D01*
X0207236Y0212851D01*
X0215914Y0212851D01*
X0215914Y0205749D01*
X0215914Y0207307D02*
X0207236Y0207307D01*
X0207236Y0208865D02*
X0215914Y0208865D01*
X0215914Y0210423D02*
X0207236Y0210423D01*
X0207236Y0211981D02*
X0215914Y0211981D01*
X0196229Y0205749D02*
X0187551Y0205749D01*
X0187551Y0212851D01*
X0196229Y0212851D01*
X0196229Y0205749D01*
X0196229Y0207307D02*
X0187551Y0207307D01*
X0187551Y0208865D02*
X0196229Y0208865D01*
X0196229Y0210423D02*
X0187551Y0210423D01*
X0187551Y0211981D02*
X0196229Y0211981D01*
D22*
X0151673Y0245806D02*
X0146161Y0245806D01*
X0151673Y0245806D02*
X0151673Y0240294D01*
X0146161Y0240294D01*
X0146161Y0245806D01*
X0146161Y0242655D02*
X0151673Y0242655D01*
X0151673Y0245016D02*
X0146161Y0245016D01*
X0134173Y0245806D02*
X0128661Y0245806D01*
X0134173Y0245806D02*
X0134173Y0240294D01*
X0128661Y0240294D01*
X0128661Y0245806D01*
X0128661Y0242655D02*
X0134173Y0242655D01*
X0134173Y0245016D02*
X0128661Y0245016D01*
X0110315Y0245973D02*
X0110315Y0238887D01*
X0110315Y0245973D02*
X0115827Y0245973D01*
X0115827Y0238887D01*
X0110315Y0238887D01*
X0110315Y0241248D02*
X0115827Y0241248D01*
X0115827Y0243609D02*
X0110315Y0243609D01*
X0110315Y0245970D02*
X0115827Y0245970D01*
X0129911Y0228306D02*
X0129911Y0222794D01*
X0129911Y0228306D02*
X0135423Y0228306D01*
X0135423Y0222794D01*
X0129911Y0222794D01*
X0129911Y0225155D02*
X0135423Y0225155D01*
X0135423Y0227516D02*
X0129911Y0227516D01*
X0110315Y0221760D02*
X0110315Y0214674D01*
X0110315Y0221760D02*
X0115827Y0221760D01*
X0115827Y0214674D01*
X0110315Y0214674D01*
X0110315Y0217035D02*
X0115827Y0217035D01*
X0115827Y0219396D02*
X0110315Y0219396D01*
X0110315Y0221757D02*
X0115827Y0221757D01*
X0129911Y0210806D02*
X0129911Y0205294D01*
X0129911Y0210806D02*
X0135423Y0210806D01*
X0135423Y0205294D01*
X0129911Y0205294D01*
X0129911Y0207655D02*
X0135423Y0207655D01*
X0135423Y0210016D02*
X0129911Y0210016D01*
X0067008Y0214674D02*
X0067008Y0221760D01*
X0072520Y0221760D01*
X0072520Y0214674D01*
X0067008Y0214674D01*
X0067008Y0217035D02*
X0072520Y0217035D01*
X0072520Y0219396D02*
X0067008Y0219396D01*
X0067008Y0221757D02*
X0072520Y0221757D01*
X0067008Y0238887D02*
X0067008Y0245973D01*
X0072520Y0245973D01*
X0072520Y0238887D01*
X0067008Y0238887D01*
X0067008Y0241248D02*
X0072520Y0241248D01*
X0072520Y0243609D02*
X0067008Y0243609D01*
X0067008Y0245970D02*
X0072520Y0245970D01*
D23*
X0091417Y0242430D03*
D24*
X0091417Y0224713D03*
D25*
X0164417Y0213050D03*
X0163417Y0203050D03*
X0164417Y0193050D03*
X0163417Y0183050D03*
X0160167Y0067300D03*
X0150167Y0066300D03*
X0140167Y0067300D03*
X0130167Y0066300D03*
X0120167Y0067300D03*
X0110167Y0066300D03*
X0100167Y0067300D03*
X0090167Y0066300D03*
X0170167Y0066300D03*
X0180167Y0067300D03*
D26*
X0185537Y0223520D02*
X0185537Y0226880D01*
X0192897Y0226880D01*
X0192897Y0223520D01*
X0185537Y0223520D01*
X0185537Y0224959D02*
X0192897Y0224959D01*
X0192897Y0226398D02*
X0185537Y0226398D01*
X0185537Y0232620D02*
X0185537Y0235980D01*
X0192897Y0235980D01*
X0192897Y0232620D01*
X0185537Y0232620D01*
X0185537Y0234059D02*
X0192897Y0234059D01*
X0192897Y0235498D02*
X0185537Y0235498D01*
X0185537Y0241720D02*
X0185537Y0245080D01*
X0192897Y0245080D01*
X0192897Y0241720D01*
X0185537Y0241720D01*
X0185537Y0243159D02*
X0192897Y0243159D01*
X0192897Y0244598D02*
X0185537Y0244598D01*
D27*
X0210587Y0240087D02*
X0210587Y0228513D01*
X0210587Y0240087D02*
X0216649Y0240087D01*
X0216649Y0228513D01*
X0210587Y0228513D01*
X0210587Y0231110D02*
X0216649Y0231110D01*
X0216649Y0233707D02*
X0210587Y0233707D01*
X0210587Y0236304D02*
X0216649Y0236304D01*
X0216649Y0238901D02*
X0210587Y0238901D01*
D28*
X0226887Y0104580D02*
X0226887Y0103020D01*
X0226887Y0104580D02*
X0228447Y0104580D01*
X0228447Y0103020D01*
X0226887Y0103020D01*
X0226887Y0103822D02*
X0228447Y0103822D01*
X0226887Y0100580D02*
X0226887Y0099020D01*
X0226887Y0100580D02*
X0228447Y0100580D01*
X0228447Y0099020D01*
X0226887Y0099020D01*
X0226887Y0099822D02*
X0228447Y0099822D01*
D29*
X0223917Y0094300D03*
X0233292Y0091175D03*
X0240167Y0101800D03*
X0248917Y0106800D03*
X0253917Y0106800D03*
X0258917Y0106800D03*
X0259542Y0096800D03*
X0253917Y0096800D03*
X0249542Y0094925D03*
X0246417Y0091175D03*
X0230167Y0109300D03*
X0223917Y0113050D03*
X0217667Y0119300D03*
X0210167Y0126800D03*
X0200167Y0131800D03*
X0210167Y0136800D03*
X0217667Y0144300D03*
X0223917Y0150550D03*
X0230167Y0154300D03*
X0237667Y0150550D03*
X0243917Y0150550D03*
X0248917Y0154300D03*
X0253917Y0156800D03*
X0258917Y0156800D03*
X0258917Y0166800D03*
X0253917Y0166800D03*
X0248917Y0166800D03*
X0240167Y0161800D03*
X0231417Y0169300D03*
X0223917Y0169300D03*
X0215167Y0164300D03*
X0207667Y0156800D03*
X0200167Y0150550D03*
X0178917Y0171800D03*
X0167667Y0144300D03*
X0172667Y0136800D03*
X0172667Y0128050D03*
X0175792Y0118675D03*
X0158917Y0131800D03*
X0160167Y0135550D03*
X0157667Y0144300D03*
X0142667Y0146800D03*
X0133917Y0141800D03*
X0133917Y0136800D03*
X0141417Y0130550D03*
X0135167Y0129300D03*
X0141417Y0123050D03*
X0142667Y0118050D03*
X0156417Y0121800D03*
X0160792Y0093675D03*
X0150167Y0091800D03*
X0145167Y0088050D03*
X0133917Y0086800D03*
X0127042Y0093675D03*
X0118917Y0086800D03*
X0105167Y0086800D03*
X0100167Y0093050D03*
X0093917Y0083050D03*
X0083917Y0078050D03*
X0078917Y0073050D03*
X0056417Y0083050D03*
X0050167Y0073050D03*
X0165167Y0074300D03*
X0175167Y0074300D03*
X0175167Y0088050D03*
X0188917Y0095550D03*
X0195792Y0101800D03*
X0206417Y0095550D03*
X0215167Y0099300D03*
X0207667Y0106800D03*
X0200167Y0114300D03*
X0231417Y0120550D03*
X0238917Y0114300D03*
X0236417Y0130550D03*
X0251417Y0130550D03*
X0258917Y0118050D03*
X0272667Y0110550D03*
X0272667Y0093050D03*
X0272667Y0131800D03*
X0258917Y0145550D03*
X0272667Y0153050D03*
X0272667Y0170550D03*
X0258917Y0178050D03*
X0251417Y0188050D03*
X0236417Y0188050D03*
X0231417Y0178050D03*
X0239542Y0172425D03*
X0272667Y0186800D03*
X0223917Y0218050D03*
X0218917Y0218050D03*
X0213917Y0218050D03*
X0213917Y0223050D03*
X0218917Y0223050D03*
X0223917Y0223050D03*
X0223917Y0229300D03*
X0223917Y0234300D03*
X0223917Y0239300D03*
X0223917Y0245550D03*
X0218917Y0245550D03*
X0213917Y0245550D03*
X0213917Y0250550D03*
X0218917Y0250550D03*
X0223917Y0250550D03*
X0206417Y0245550D03*
X0206417Y0240550D03*
X0201417Y0240550D03*
X0203917Y0234300D03*
X0197667Y0234300D03*
X0201417Y0228050D03*
X0206417Y0228050D03*
X0206417Y0223050D03*
X0220167Y0209300D03*
X0211417Y0200550D03*
X0188917Y0219615D03*
X0182667Y0219615D03*
X0182667Y0214615D03*
X0176417Y0219615D03*
X0172667Y0231800D03*
X0181417Y0234300D03*
X0157667Y0231800D03*
X0141417Y0208050D03*
X0132667Y0199300D03*
X0123917Y0208050D03*
X0071417Y0208050D03*
X0071417Y0230550D03*
X0071417Y0251800D03*
X0213917Y0087425D03*
X0206417Y0078050D03*
M02*
