G75*
%MOIN*%
%OFA0B0*%
%FSLAX25Y25*%
%IPPOS*%
%LPD*%
%AMOC8*
5,1,8,0,0,1.08239X$1,22.5*
%
%ADD10C,0.00984*%
%ADD11R,0.07874X0.07874*%
%ADD12C,0.06358*%
%ADD13C,0.06102*%
%ADD14C,0.23000*%
%ADD15C,0.01600*%
%ADD16C,0.01890*%
%ADD17C,0.00945*%
%ADD18C,0.01181*%
%ADD19C,0.01083*%
%ADD20C,0.01559*%
%ADD21C,0.02362*%
%ADD22C,0.06299*%
%ADD23C,0.07087*%
%ADD24C,0.07400*%
%ADD25C,0.01440*%
%ADD26C,0.02598*%
%ADD27C,0.00803*%
%ADD28C,0.02362*%
D10*
X0146624Y0116347D02*
X0153514Y0116347D01*
X0146624Y0116347D02*
X0146624Y0117331D01*
X0153514Y0117331D01*
X0153514Y0116347D01*
X0153514Y0117330D02*
X0146624Y0117330D01*
X0146624Y0119497D02*
X0153514Y0119497D01*
X0146624Y0119497D02*
X0146624Y0120481D01*
X0153514Y0120481D01*
X0153514Y0119497D01*
X0153514Y0120480D02*
X0146624Y0120480D01*
X0146624Y0122647D02*
X0153514Y0122647D01*
X0146624Y0122647D02*
X0146624Y0123631D01*
X0153514Y0123631D01*
X0153514Y0122647D01*
X0153514Y0123630D02*
X0146624Y0123630D01*
X0146624Y0125796D02*
X0153514Y0125796D01*
X0146624Y0125796D02*
X0146624Y0126780D01*
X0153514Y0126780D01*
X0153514Y0125796D01*
X0153514Y0126779D02*
X0146624Y0126779D01*
X0146624Y0128946D02*
X0153514Y0128946D01*
X0146624Y0128946D02*
X0146624Y0129930D01*
X0153514Y0129930D01*
X0153514Y0128946D01*
X0153514Y0129929D02*
X0146624Y0129929D01*
X0146624Y0132095D02*
X0153514Y0132095D01*
X0146624Y0132095D02*
X0146624Y0133079D01*
X0153514Y0133079D01*
X0153514Y0132095D01*
X0153514Y0133078D02*
X0146624Y0133078D01*
X0146624Y0135245D02*
X0153514Y0135245D01*
X0146624Y0135245D02*
X0146624Y0136229D01*
X0153514Y0136229D01*
X0153514Y0135245D01*
X0153514Y0136228D02*
X0146624Y0136228D01*
X0146624Y0138395D02*
X0153514Y0138395D01*
X0146624Y0138395D02*
X0146624Y0139379D01*
X0153514Y0139379D01*
X0153514Y0138395D01*
X0153514Y0139378D02*
X0146624Y0139378D01*
X0146624Y0141544D02*
X0153514Y0141544D01*
X0146624Y0141544D02*
X0146624Y0142528D01*
X0153514Y0142528D01*
X0153514Y0141544D01*
X0153514Y0142527D02*
X0146624Y0142527D01*
X0146624Y0144694D02*
X0153514Y0144694D01*
X0146624Y0144694D02*
X0146624Y0145678D01*
X0153514Y0145678D01*
X0153514Y0144694D01*
X0153514Y0145677D02*
X0146624Y0145677D01*
X0178907Y0146269D02*
X0185797Y0146269D01*
X0178907Y0146269D02*
X0178907Y0147253D01*
X0185797Y0147253D01*
X0185797Y0146269D01*
X0185797Y0147252D02*
X0178907Y0147252D01*
X0178907Y0143119D02*
X0185797Y0143119D01*
X0178907Y0143119D02*
X0178907Y0144103D01*
X0185797Y0144103D01*
X0185797Y0143119D01*
X0185797Y0144102D02*
X0178907Y0144102D01*
X0178907Y0139969D02*
X0185797Y0139969D01*
X0178907Y0139969D02*
X0178907Y0140953D01*
X0185797Y0140953D01*
X0185797Y0139969D01*
X0185797Y0140952D02*
X0178907Y0140952D01*
X0178907Y0136820D02*
X0185797Y0136820D01*
X0178907Y0136820D02*
X0178907Y0137804D01*
X0185797Y0137804D01*
X0185797Y0136820D01*
X0185797Y0137803D02*
X0178907Y0137803D01*
X0178907Y0133670D02*
X0185797Y0133670D01*
X0178907Y0133670D02*
X0178907Y0134654D01*
X0185797Y0134654D01*
X0185797Y0133670D01*
X0185797Y0134653D02*
X0178907Y0134653D01*
X0178907Y0130521D02*
X0185797Y0130521D01*
X0178907Y0130521D02*
X0178907Y0131505D01*
X0185797Y0131505D01*
X0185797Y0130521D01*
X0185797Y0131504D02*
X0178907Y0131504D01*
X0178907Y0127371D02*
X0185797Y0127371D01*
X0178907Y0127371D02*
X0178907Y0128355D01*
X0185797Y0128355D01*
X0185797Y0127371D01*
X0185797Y0128354D02*
X0178907Y0128354D01*
X0178907Y0124221D02*
X0185797Y0124221D01*
X0178907Y0124221D02*
X0178907Y0125205D01*
X0185797Y0125205D01*
X0185797Y0124221D01*
X0185797Y0125204D02*
X0178907Y0125204D01*
X0178907Y0121072D02*
X0185797Y0121072D01*
X0178907Y0121072D02*
X0178907Y0122056D01*
X0185797Y0122056D01*
X0185797Y0121072D01*
X0185797Y0122055D02*
X0178907Y0122055D01*
X0178907Y0117922D02*
X0185797Y0117922D01*
X0178907Y0117922D02*
X0178907Y0118906D01*
X0185797Y0118906D01*
X0185797Y0117922D01*
X0185797Y0118905D02*
X0178907Y0118905D01*
D11*
X0182352Y0103749D03*
X0142982Y0103749D03*
X0123297Y0116249D03*
X0103612Y0103749D03*
X0123297Y0137509D03*
X0123297Y0159851D03*
X0083927Y0159851D03*
X0044557Y0159851D03*
X0044557Y0126091D03*
X0064242Y0103749D03*
X0162667Y0159851D03*
D12*
X0152825Y0159851D03*
X0134321Y0159851D03*
X0172510Y0159851D03*
X0190620Y0150698D03*
X0190620Y0131800D03*
X0190620Y0112902D03*
X0172510Y0103749D03*
X0152825Y0103749D03*
X0134321Y0103749D03*
D13*
X0166211Y0112902D03*
X0166211Y0150698D03*
D14*
X0047352Y0021485D03*
X0244203Y0021485D03*
X0244203Y0238020D03*
X0047352Y0238020D03*
D15*
X0264717Y0182000D02*
X0281117Y0182000D01*
X0281117Y0173600D01*
X0264717Y0173600D01*
X0264717Y0182000D01*
X0264717Y0175199D02*
X0281117Y0175199D01*
X0281117Y0176798D02*
X0264717Y0176798D01*
X0264717Y0178397D02*
X0281117Y0178397D01*
X0281117Y0179996D02*
X0264717Y0179996D01*
X0264717Y0181595D02*
X0281117Y0181595D01*
X0281117Y0166000D02*
X0264717Y0166000D01*
X0281117Y0166000D02*
X0281117Y0157600D01*
X0264717Y0157600D01*
X0264717Y0166000D01*
X0264717Y0159199D02*
X0281117Y0159199D01*
X0281117Y0160798D02*
X0264717Y0160798D01*
X0264717Y0162397D02*
X0281117Y0162397D01*
X0281117Y0163996D02*
X0264717Y0163996D01*
X0264717Y0165595D02*
X0281117Y0165595D01*
X0281117Y0150000D02*
X0264717Y0150000D01*
X0281117Y0150000D02*
X0281117Y0141600D01*
X0264717Y0141600D01*
X0264717Y0150000D01*
X0264717Y0143199D02*
X0281117Y0143199D01*
X0281117Y0144798D02*
X0264717Y0144798D01*
X0264717Y0146397D02*
X0281117Y0146397D01*
X0281117Y0147996D02*
X0264717Y0147996D01*
X0264717Y0149595D02*
X0281117Y0149595D01*
X0281117Y0122000D02*
X0264717Y0122000D01*
X0281117Y0122000D02*
X0281117Y0113600D01*
X0264717Y0113600D01*
X0264717Y0122000D01*
X0264717Y0115199D02*
X0281117Y0115199D01*
X0281117Y0116798D02*
X0264717Y0116798D01*
X0264717Y0118397D02*
X0281117Y0118397D01*
X0281117Y0119996D02*
X0264717Y0119996D01*
X0264717Y0121595D02*
X0281117Y0121595D01*
X0281117Y0106000D02*
X0264717Y0106000D01*
X0281117Y0106000D02*
X0281117Y0097600D01*
X0264717Y0097600D01*
X0264717Y0106000D01*
X0264717Y0099199D02*
X0281117Y0099199D01*
X0281117Y0100798D02*
X0264717Y0100798D01*
X0264717Y0102397D02*
X0281117Y0102397D01*
X0281117Y0103996D02*
X0264717Y0103996D01*
X0264717Y0105595D02*
X0281117Y0105595D01*
X0281117Y0090000D02*
X0264717Y0090000D01*
X0281117Y0090000D02*
X0281117Y0081600D01*
X0264717Y0081600D01*
X0264717Y0090000D01*
X0264717Y0083199D02*
X0281117Y0083199D01*
X0281117Y0084798D02*
X0264717Y0084798D01*
X0264717Y0086397D02*
X0281117Y0086397D01*
X0281117Y0087996D02*
X0264717Y0087996D01*
X0264717Y0089595D02*
X0281117Y0089595D01*
D16*
X0209133Y0090023D02*
X0204725Y0090023D01*
X0209133Y0090023D02*
X0209133Y0084827D01*
X0204725Y0084827D01*
X0204725Y0090023D01*
X0204725Y0086716D02*
X0209133Y0086716D01*
X0209133Y0088605D02*
X0204725Y0088605D01*
X0198110Y0090023D02*
X0193702Y0090023D01*
X0198110Y0090023D02*
X0198110Y0084827D01*
X0193702Y0084827D01*
X0193702Y0090023D01*
X0193702Y0086716D02*
X0198110Y0086716D01*
X0198110Y0088605D02*
X0193702Y0088605D01*
X0191633Y0184202D02*
X0187225Y0184202D01*
X0187225Y0189398D01*
X0191633Y0189398D01*
X0191633Y0184202D01*
X0191633Y0186091D02*
X0187225Y0186091D01*
X0187225Y0187980D02*
X0191633Y0187980D01*
X0180610Y0184202D02*
X0176202Y0184202D01*
X0176202Y0189398D01*
X0180610Y0189398D01*
X0180610Y0184202D01*
X0180610Y0186091D02*
X0176202Y0186091D01*
X0176202Y0187980D02*
X0180610Y0187980D01*
X0167765Y0230019D02*
X0167765Y0234427D01*
X0167765Y0230019D02*
X0162569Y0230019D01*
X0162569Y0234427D01*
X0167765Y0234427D01*
X0167765Y0231908D02*
X0162569Y0231908D01*
X0162569Y0233797D02*
X0167765Y0233797D01*
X0167765Y0241043D02*
X0167765Y0245451D01*
X0167765Y0241043D02*
X0162569Y0241043D01*
X0162569Y0245451D01*
X0167765Y0245451D01*
X0167765Y0242932D02*
X0162569Y0242932D01*
X0162569Y0244821D02*
X0167765Y0244821D01*
D17*
X0178770Y0245414D02*
X0178770Y0242816D01*
X0176564Y0242816D01*
X0176564Y0245414D01*
X0178770Y0245414D01*
X0178770Y0243760D02*
X0176564Y0243760D01*
X0176564Y0244704D02*
X0178770Y0244704D01*
X0178770Y0248816D02*
X0178770Y0251414D01*
X0178770Y0248816D02*
X0176564Y0248816D01*
X0176564Y0251414D01*
X0178770Y0251414D01*
X0178770Y0249760D02*
X0176564Y0249760D01*
X0176564Y0250704D02*
X0178770Y0250704D01*
X0178770Y0232349D02*
X0178770Y0229751D01*
X0176564Y0229751D01*
X0176564Y0232349D01*
X0178770Y0232349D01*
X0178770Y0230695D02*
X0176564Y0230695D01*
X0176564Y0231639D02*
X0178770Y0231639D01*
X0178770Y0226349D02*
X0178770Y0223751D01*
X0176564Y0223751D01*
X0176564Y0226349D01*
X0178770Y0226349D01*
X0178770Y0224695D02*
X0176564Y0224695D01*
X0176564Y0225639D02*
X0178770Y0225639D01*
X0182118Y0180403D02*
X0184716Y0180403D01*
X0184716Y0178197D01*
X0182118Y0178197D01*
X0182118Y0180403D01*
X0182118Y0179141D02*
X0184716Y0179141D01*
X0184716Y0180085D02*
X0182118Y0180085D01*
X0188118Y0180403D02*
X0190716Y0180403D01*
X0190716Y0178197D01*
X0188118Y0178197D01*
X0188118Y0180403D01*
X0188118Y0179141D02*
X0190716Y0179141D01*
X0190716Y0180085D02*
X0188118Y0180085D01*
X0175716Y0172903D02*
X0173118Y0172903D01*
X0175716Y0172903D02*
X0175716Y0170697D01*
X0173118Y0170697D01*
X0173118Y0172903D01*
X0173118Y0171641D02*
X0175716Y0171641D01*
X0175716Y0172585D02*
X0173118Y0172585D01*
X0169716Y0172903D02*
X0167118Y0172903D01*
X0169716Y0172903D02*
X0169716Y0170697D01*
X0167118Y0170697D01*
X0167118Y0172903D01*
X0167118Y0171641D02*
X0169716Y0171641D01*
X0169716Y0172585D02*
X0167118Y0172585D01*
X0226564Y0117349D02*
X0226564Y0114751D01*
X0226564Y0117349D02*
X0228770Y0117349D01*
X0228770Y0114751D01*
X0226564Y0114751D01*
X0226564Y0115695D02*
X0228770Y0115695D01*
X0228770Y0116639D02*
X0226564Y0116639D01*
X0226564Y0111349D02*
X0226564Y0108751D01*
X0226564Y0111349D02*
X0228770Y0111349D01*
X0228770Y0108751D01*
X0226564Y0108751D01*
X0226564Y0109695D02*
X0228770Y0109695D01*
X0228770Y0110639D02*
X0226564Y0110639D01*
X0237520Y0118751D02*
X0237520Y0121349D01*
X0237520Y0118751D02*
X0235314Y0118751D01*
X0235314Y0121349D01*
X0237520Y0121349D01*
X0237520Y0119695D02*
X0235314Y0119695D01*
X0235314Y0120639D02*
X0237520Y0120639D01*
X0242520Y0121349D02*
X0242520Y0118751D01*
X0240314Y0118751D01*
X0240314Y0121349D01*
X0242520Y0121349D01*
X0242520Y0119695D02*
X0240314Y0119695D01*
X0240314Y0120639D02*
X0242520Y0120639D01*
X0247520Y0121349D02*
X0247520Y0118751D01*
X0245314Y0118751D01*
X0245314Y0121349D01*
X0247520Y0121349D01*
X0247520Y0119695D02*
X0245314Y0119695D01*
X0245314Y0120639D02*
X0247520Y0120639D01*
X0252520Y0121349D02*
X0252520Y0118751D01*
X0250314Y0118751D01*
X0250314Y0121349D01*
X0252520Y0121349D01*
X0252520Y0119695D02*
X0250314Y0119695D01*
X0250314Y0120639D02*
X0252520Y0120639D01*
X0252520Y0124751D02*
X0252520Y0127349D01*
X0252520Y0124751D02*
X0250314Y0124751D01*
X0250314Y0127349D01*
X0252520Y0127349D01*
X0252520Y0125695D02*
X0250314Y0125695D01*
X0250314Y0126639D02*
X0252520Y0126639D01*
X0247520Y0127349D02*
X0247520Y0124751D01*
X0245314Y0124751D01*
X0245314Y0127349D01*
X0247520Y0127349D01*
X0247520Y0125695D02*
X0245314Y0125695D01*
X0245314Y0126639D02*
X0247520Y0126639D01*
X0242520Y0127349D02*
X0242520Y0124751D01*
X0240314Y0124751D01*
X0240314Y0127349D01*
X0242520Y0127349D01*
X0242520Y0125695D02*
X0240314Y0125695D01*
X0240314Y0126639D02*
X0242520Y0126639D01*
X0237520Y0127349D02*
X0237520Y0124751D01*
X0235314Y0124751D01*
X0235314Y0127349D01*
X0237520Y0127349D01*
X0237520Y0125695D02*
X0235314Y0125695D01*
X0235314Y0126639D02*
X0237520Y0126639D01*
X0201966Y0094447D02*
X0199368Y0094447D01*
X0199368Y0096653D01*
X0201966Y0096653D01*
X0201966Y0094447D01*
X0201966Y0095391D02*
X0199368Y0095391D01*
X0199368Y0096335D02*
X0201966Y0096335D01*
X0195966Y0094447D02*
X0193368Y0094447D01*
X0193368Y0096653D01*
X0195966Y0096653D01*
X0195966Y0094447D01*
X0195966Y0095391D02*
X0193368Y0095391D01*
X0193368Y0096335D02*
X0195966Y0096335D01*
X0171270Y0088599D02*
X0171270Y0086001D01*
X0169064Y0086001D01*
X0169064Y0088599D01*
X0171270Y0088599D01*
X0171270Y0086945D02*
X0169064Y0086945D01*
X0169064Y0087889D02*
X0171270Y0087889D01*
X0171270Y0082599D02*
X0171270Y0080001D01*
X0169064Y0080001D01*
X0169064Y0082599D01*
X0171270Y0082599D01*
X0171270Y0080945D02*
X0169064Y0080945D01*
X0169064Y0081889D02*
X0171270Y0081889D01*
X0161270Y0082599D02*
X0161270Y0080001D01*
X0159064Y0080001D01*
X0159064Y0082599D01*
X0161270Y0082599D01*
X0161270Y0080945D02*
X0159064Y0080945D01*
X0159064Y0081889D02*
X0161270Y0081889D01*
X0161270Y0086001D02*
X0161270Y0088599D01*
X0161270Y0086001D02*
X0159064Y0086001D01*
X0159064Y0088599D01*
X0161270Y0088599D01*
X0161270Y0086945D02*
X0159064Y0086945D01*
X0159064Y0087889D02*
X0161270Y0087889D01*
X0151270Y0088599D02*
X0151270Y0086001D01*
X0149064Y0086001D01*
X0149064Y0088599D01*
X0151270Y0088599D01*
X0151270Y0086945D02*
X0149064Y0086945D01*
X0149064Y0087889D02*
X0151270Y0087889D01*
X0151270Y0082599D02*
X0151270Y0080001D01*
X0149064Y0080001D01*
X0149064Y0082599D01*
X0151270Y0082599D01*
X0151270Y0080945D02*
X0149064Y0080945D01*
X0149064Y0081889D02*
X0151270Y0081889D01*
X0131270Y0082599D02*
X0131270Y0080001D01*
X0129064Y0080001D01*
X0129064Y0082599D01*
X0131270Y0082599D01*
X0131270Y0080945D02*
X0129064Y0080945D01*
X0129064Y0081889D02*
X0131270Y0081889D01*
X0131270Y0086001D02*
X0131270Y0088599D01*
X0131270Y0086001D02*
X0129064Y0086001D01*
X0129064Y0088599D01*
X0131270Y0088599D01*
X0131270Y0086945D02*
X0129064Y0086945D01*
X0129064Y0087889D02*
X0131270Y0087889D01*
X0101270Y0088599D02*
X0101270Y0086001D01*
X0099064Y0086001D01*
X0099064Y0088599D01*
X0101270Y0088599D01*
X0101270Y0086945D02*
X0099064Y0086945D01*
X0099064Y0087889D02*
X0101270Y0087889D01*
X0101270Y0082599D02*
X0101270Y0080001D01*
X0099064Y0080001D01*
X0099064Y0082599D01*
X0101270Y0082599D01*
X0101270Y0080945D02*
X0099064Y0080945D01*
X0099064Y0081889D02*
X0101270Y0081889D01*
X0079064Y0081251D02*
X0079064Y0083849D01*
X0081270Y0083849D01*
X0081270Y0081251D01*
X0079064Y0081251D01*
X0079064Y0082195D02*
X0081270Y0082195D01*
X0081270Y0083139D02*
X0079064Y0083139D01*
X0079064Y0087251D02*
X0079064Y0089849D01*
X0081270Y0089849D01*
X0081270Y0087251D01*
X0079064Y0087251D01*
X0079064Y0088195D02*
X0081270Y0088195D01*
X0081270Y0089139D02*
X0079064Y0089139D01*
X0080020Y0070856D02*
X0077814Y0070856D01*
X0080020Y0070856D02*
X0080020Y0068650D01*
X0077814Y0068650D01*
X0077814Y0070856D01*
X0077814Y0069594D02*
X0080020Y0069594D01*
X0080020Y0070538D02*
X0077814Y0070538D01*
X0077814Y0064950D02*
X0080020Y0064950D01*
X0080020Y0062744D01*
X0077814Y0062744D01*
X0077814Y0064950D01*
X0077814Y0063688D02*
X0080020Y0063688D01*
X0080020Y0064632D02*
X0077814Y0064632D01*
X0067814Y0065099D02*
X0067814Y0062501D01*
X0067814Y0065099D02*
X0070020Y0065099D01*
X0070020Y0062501D01*
X0067814Y0062501D01*
X0067814Y0063445D02*
X0070020Y0063445D01*
X0070020Y0064389D02*
X0067814Y0064389D01*
X0067814Y0068501D02*
X0067814Y0071099D01*
X0070020Y0071099D01*
X0070020Y0068501D01*
X0067814Y0068501D01*
X0067814Y0069445D02*
X0070020Y0069445D01*
X0070020Y0070389D02*
X0067814Y0070389D01*
X0051564Y0081251D02*
X0051564Y0083849D01*
X0053770Y0083849D01*
X0053770Y0081251D01*
X0051564Y0081251D01*
X0051564Y0082195D02*
X0053770Y0082195D01*
X0053770Y0083139D02*
X0051564Y0083139D01*
X0051564Y0087251D02*
X0051564Y0089849D01*
X0053770Y0089849D01*
X0053770Y0087251D01*
X0051564Y0087251D01*
X0051564Y0088195D02*
X0053770Y0088195D01*
X0053770Y0089139D02*
X0051564Y0089139D01*
X0051270Y0070856D02*
X0049064Y0070856D01*
X0051270Y0070856D02*
X0051270Y0068650D01*
X0049064Y0068650D01*
X0049064Y0070856D01*
X0049064Y0069594D02*
X0051270Y0069594D01*
X0051270Y0070538D02*
X0049064Y0070538D01*
X0049064Y0064950D02*
X0051270Y0064950D01*
X0051270Y0062744D01*
X0049064Y0062744D01*
X0049064Y0064950D01*
X0049064Y0063688D02*
X0051270Y0063688D01*
X0051270Y0064632D02*
X0049064Y0064632D01*
X0039064Y0065099D02*
X0039064Y0062501D01*
X0039064Y0065099D02*
X0041270Y0065099D01*
X0041270Y0062501D01*
X0039064Y0062501D01*
X0039064Y0063445D02*
X0041270Y0063445D01*
X0041270Y0064389D02*
X0039064Y0064389D01*
X0039064Y0068501D02*
X0039064Y0071099D01*
X0041270Y0071099D01*
X0041270Y0068501D01*
X0039064Y0068501D01*
X0039064Y0069445D02*
X0041270Y0069445D01*
X0041270Y0070389D02*
X0039064Y0070389D01*
X0226564Y0086251D02*
X0226564Y0088849D01*
X0228770Y0088849D01*
X0228770Y0086251D01*
X0226564Y0086251D01*
X0226564Y0087195D02*
X0228770Y0087195D01*
X0228770Y0088139D02*
X0226564Y0088139D01*
X0226564Y0092251D02*
X0226564Y0094849D01*
X0228770Y0094849D01*
X0228770Y0092251D01*
X0226564Y0092251D01*
X0226564Y0093195D02*
X0228770Y0093195D01*
X0228770Y0094139D02*
X0226564Y0094139D01*
X0237520Y0176251D02*
X0237520Y0178849D01*
X0237520Y0176251D02*
X0235314Y0176251D01*
X0235314Y0178849D01*
X0237520Y0178849D01*
X0237520Y0177195D02*
X0235314Y0177195D01*
X0235314Y0178139D02*
X0237520Y0178139D01*
X0242520Y0178849D02*
X0242520Y0176251D01*
X0240314Y0176251D01*
X0240314Y0178849D01*
X0242520Y0178849D01*
X0242520Y0177195D02*
X0240314Y0177195D01*
X0240314Y0178139D02*
X0242520Y0178139D01*
X0247520Y0178849D02*
X0247520Y0176251D01*
X0245314Y0176251D01*
X0245314Y0178849D01*
X0247520Y0178849D01*
X0247520Y0177195D02*
X0245314Y0177195D01*
X0245314Y0178139D02*
X0247520Y0178139D01*
X0252520Y0178849D02*
X0252520Y0176251D01*
X0250314Y0176251D01*
X0250314Y0178849D01*
X0252520Y0178849D01*
X0252520Y0177195D02*
X0250314Y0177195D01*
X0250314Y0178139D02*
X0252520Y0178139D01*
X0252520Y0182251D02*
X0252520Y0184849D01*
X0252520Y0182251D02*
X0250314Y0182251D01*
X0250314Y0184849D01*
X0252520Y0184849D01*
X0252520Y0183195D02*
X0250314Y0183195D01*
X0250314Y0184139D02*
X0252520Y0184139D01*
X0247520Y0184849D02*
X0247520Y0182251D01*
X0245314Y0182251D01*
X0245314Y0184849D01*
X0247520Y0184849D01*
X0247520Y0183195D02*
X0245314Y0183195D01*
X0245314Y0184139D02*
X0247520Y0184139D01*
X0242520Y0184849D02*
X0242520Y0182251D01*
X0240314Y0182251D01*
X0240314Y0184849D01*
X0242520Y0184849D01*
X0242520Y0183195D02*
X0240314Y0183195D01*
X0240314Y0184139D02*
X0242520Y0184139D01*
X0237520Y0184849D02*
X0237520Y0182251D01*
X0235314Y0182251D01*
X0235314Y0184849D01*
X0237520Y0184849D01*
X0237520Y0183195D02*
X0235314Y0183195D01*
X0235314Y0184139D02*
X0237520Y0184139D01*
D18*
X0191339Y0173178D02*
X0188189Y0173178D01*
X0191339Y0173178D02*
X0191339Y0170422D01*
X0188189Y0170422D01*
X0188189Y0173178D01*
X0188189Y0171602D02*
X0191339Y0171602D01*
X0191339Y0172782D02*
X0188189Y0172782D01*
X0184646Y0173178D02*
X0181496Y0173178D01*
X0184646Y0173178D02*
X0184646Y0170422D01*
X0181496Y0170422D01*
X0181496Y0173178D01*
X0181496Y0171602D02*
X0184646Y0171602D01*
X0184646Y0172782D02*
X0181496Y0172782D01*
X0074035Y0090797D02*
X0071279Y0090797D01*
X0074035Y0090797D02*
X0074035Y0086465D01*
X0071279Y0086465D01*
X0071279Y0090797D01*
X0071279Y0087645D02*
X0074035Y0087645D01*
X0074035Y0088825D02*
X0071279Y0088825D01*
X0071279Y0090005D02*
X0074035Y0090005D01*
X0066555Y0090797D02*
X0063799Y0090797D01*
X0066555Y0090797D02*
X0066555Y0086465D01*
X0063799Y0086465D01*
X0063799Y0090797D01*
X0063799Y0087645D02*
X0066555Y0087645D01*
X0066555Y0088825D02*
X0063799Y0088825D01*
X0063799Y0090005D02*
X0066555Y0090005D01*
X0067539Y0082135D02*
X0070295Y0082135D01*
X0070295Y0077803D01*
X0067539Y0077803D01*
X0067539Y0082135D01*
X0067539Y0078983D02*
X0070295Y0078983D01*
X0070295Y0080163D02*
X0067539Y0080163D01*
X0067539Y0081343D02*
X0070295Y0081343D01*
X0045285Y0090797D02*
X0042529Y0090797D01*
X0045285Y0090797D02*
X0045285Y0086465D01*
X0042529Y0086465D01*
X0042529Y0090797D01*
X0042529Y0087645D02*
X0045285Y0087645D01*
X0045285Y0088825D02*
X0042529Y0088825D01*
X0042529Y0090005D02*
X0045285Y0090005D01*
X0037805Y0090797D02*
X0035049Y0090797D01*
X0037805Y0090797D02*
X0037805Y0086465D01*
X0035049Y0086465D01*
X0035049Y0090797D01*
X0035049Y0087645D02*
X0037805Y0087645D01*
X0037805Y0088825D02*
X0035049Y0088825D01*
X0035049Y0090005D02*
X0037805Y0090005D01*
X0038789Y0082135D02*
X0041545Y0082135D01*
X0041545Y0077803D01*
X0038789Y0077803D01*
X0038789Y0082135D01*
X0038789Y0078983D02*
X0041545Y0078983D01*
X0041545Y0080163D02*
X0038789Y0080163D01*
X0038789Y0081343D02*
X0041545Y0081343D01*
X0193371Y0076672D02*
X0196521Y0076672D01*
X0193371Y0076672D02*
X0193371Y0079428D01*
X0196521Y0079428D01*
X0196521Y0076672D01*
X0196521Y0077852D02*
X0193371Y0077852D01*
X0193371Y0079032D02*
X0196521Y0079032D01*
X0200064Y0076672D02*
X0203214Y0076672D01*
X0200064Y0076672D02*
X0200064Y0079428D01*
X0203214Y0079428D01*
X0203214Y0076672D01*
X0203214Y0077852D02*
X0200064Y0077852D01*
X0200064Y0079032D02*
X0203214Y0079032D01*
D19*
X0235886Y0098503D02*
X0236968Y0098503D01*
X0236968Y0094861D01*
X0235886Y0094861D01*
X0235886Y0098503D01*
X0235886Y0095943D02*
X0236968Y0095943D01*
X0236968Y0097025D02*
X0235886Y0097025D01*
X0235886Y0098107D02*
X0236968Y0098107D01*
X0243366Y0098503D02*
X0244448Y0098503D01*
X0244448Y0094861D01*
X0243366Y0094861D01*
X0243366Y0098503D01*
X0243366Y0095943D02*
X0244448Y0095943D01*
X0244448Y0097025D02*
X0243366Y0097025D01*
X0243366Y0098107D02*
X0244448Y0098107D01*
X0244448Y0109133D02*
X0243366Y0109133D01*
X0244448Y0109133D02*
X0244448Y0105097D01*
X0243366Y0105097D01*
X0243366Y0109133D01*
X0243366Y0106179D02*
X0244448Y0106179D01*
X0244448Y0107261D02*
X0243366Y0107261D01*
X0243366Y0108343D02*
X0244448Y0108343D01*
X0240708Y0108739D02*
X0239626Y0108739D01*
X0240708Y0108739D02*
X0240708Y0105097D01*
X0239626Y0105097D01*
X0239626Y0108739D01*
X0239626Y0106179D02*
X0240708Y0106179D01*
X0240708Y0107261D02*
X0239626Y0107261D01*
X0239626Y0108343D02*
X0240708Y0108343D01*
X0236968Y0108739D02*
X0235886Y0108739D01*
X0236968Y0108739D02*
X0236968Y0105097D01*
X0235886Y0105097D01*
X0235886Y0108739D01*
X0235886Y0106179D02*
X0236968Y0106179D01*
X0236968Y0107261D02*
X0235886Y0107261D01*
X0235886Y0108343D02*
X0236968Y0108343D01*
X0236968Y0158503D02*
X0235886Y0158503D01*
X0236968Y0158503D02*
X0236968Y0154861D01*
X0235886Y0154861D01*
X0235886Y0158503D01*
X0235886Y0155943D02*
X0236968Y0155943D01*
X0236968Y0157025D02*
X0235886Y0157025D01*
X0235886Y0158107D02*
X0236968Y0158107D01*
X0243366Y0158503D02*
X0244448Y0158503D01*
X0244448Y0154861D01*
X0243366Y0154861D01*
X0243366Y0158503D01*
X0243366Y0155943D02*
X0244448Y0155943D01*
X0244448Y0157025D02*
X0243366Y0157025D01*
X0243366Y0158107D02*
X0244448Y0158107D01*
X0244448Y0169133D02*
X0243366Y0169133D01*
X0244448Y0169133D02*
X0244448Y0165097D01*
X0243366Y0165097D01*
X0243366Y0169133D01*
X0243366Y0166179D02*
X0244448Y0166179D01*
X0244448Y0167261D02*
X0243366Y0167261D01*
X0243366Y0168343D02*
X0244448Y0168343D01*
X0240708Y0168739D02*
X0239626Y0168739D01*
X0240708Y0168739D02*
X0240708Y0165097D01*
X0239626Y0165097D01*
X0239626Y0168739D01*
X0239626Y0166179D02*
X0240708Y0166179D01*
X0240708Y0167261D02*
X0239626Y0167261D01*
X0239626Y0168343D02*
X0240708Y0168343D01*
X0236968Y0168739D02*
X0235886Y0168739D01*
X0236968Y0168739D02*
X0236968Y0165097D01*
X0235886Y0165097D01*
X0235886Y0168739D01*
X0235886Y0166179D02*
X0236968Y0166179D01*
X0236968Y0167261D02*
X0235886Y0167261D01*
X0235886Y0168343D02*
X0236968Y0168343D01*
D20*
X0215914Y0205749D02*
X0207236Y0205749D01*
X0207236Y0212851D01*
X0215914Y0212851D01*
X0215914Y0205749D01*
X0215914Y0207307D02*
X0207236Y0207307D01*
X0207236Y0208865D02*
X0215914Y0208865D01*
X0215914Y0210423D02*
X0207236Y0210423D01*
X0207236Y0211981D02*
X0215914Y0211981D01*
X0196229Y0205749D02*
X0187551Y0205749D01*
X0187551Y0212851D01*
X0196229Y0212851D01*
X0196229Y0205749D01*
X0196229Y0207307D02*
X0187551Y0207307D01*
X0187551Y0208865D02*
X0196229Y0208865D01*
X0196229Y0210423D02*
X0187551Y0210423D01*
X0187551Y0211981D02*
X0196229Y0211981D01*
D21*
X0151673Y0245806D02*
X0146161Y0245806D01*
X0151673Y0245806D02*
X0151673Y0240294D01*
X0146161Y0240294D01*
X0146161Y0245806D01*
X0146161Y0242655D02*
X0151673Y0242655D01*
X0151673Y0245016D02*
X0146161Y0245016D01*
X0134173Y0245806D02*
X0128661Y0245806D01*
X0134173Y0245806D02*
X0134173Y0240294D01*
X0128661Y0240294D01*
X0128661Y0245806D01*
X0128661Y0242655D02*
X0134173Y0242655D01*
X0134173Y0245016D02*
X0128661Y0245016D01*
X0110315Y0245973D02*
X0110315Y0238887D01*
X0110315Y0245973D02*
X0115827Y0245973D01*
X0115827Y0238887D01*
X0110315Y0238887D01*
X0110315Y0241248D02*
X0115827Y0241248D01*
X0115827Y0243609D02*
X0110315Y0243609D01*
X0110315Y0245970D02*
X0115827Y0245970D01*
X0129911Y0228306D02*
X0129911Y0222794D01*
X0129911Y0228306D02*
X0135423Y0228306D01*
X0135423Y0222794D01*
X0129911Y0222794D01*
X0129911Y0225155D02*
X0135423Y0225155D01*
X0135423Y0227516D02*
X0129911Y0227516D01*
X0110315Y0221760D02*
X0110315Y0214674D01*
X0110315Y0221760D02*
X0115827Y0221760D01*
X0115827Y0214674D01*
X0110315Y0214674D01*
X0110315Y0217035D02*
X0115827Y0217035D01*
X0115827Y0219396D02*
X0110315Y0219396D01*
X0110315Y0221757D02*
X0115827Y0221757D01*
X0129911Y0210806D02*
X0129911Y0205294D01*
X0129911Y0210806D02*
X0135423Y0210806D01*
X0135423Y0205294D01*
X0129911Y0205294D01*
X0129911Y0207655D02*
X0135423Y0207655D01*
X0135423Y0210016D02*
X0129911Y0210016D01*
X0067008Y0214674D02*
X0067008Y0221760D01*
X0072520Y0221760D01*
X0072520Y0214674D01*
X0067008Y0214674D01*
X0067008Y0217035D02*
X0072520Y0217035D01*
X0072520Y0219396D02*
X0067008Y0219396D01*
X0067008Y0221757D02*
X0072520Y0221757D01*
X0067008Y0238887D02*
X0067008Y0245973D01*
X0072520Y0245973D01*
X0072520Y0238887D01*
X0067008Y0238887D01*
X0067008Y0241248D02*
X0072520Y0241248D01*
X0072520Y0243609D02*
X0067008Y0243609D01*
X0067008Y0245970D02*
X0072520Y0245970D01*
D22*
X0091417Y0242430D03*
D23*
X0091417Y0224713D03*
D24*
X0164417Y0213050D03*
X0163417Y0203050D03*
X0164417Y0193050D03*
X0163417Y0183050D03*
X0160167Y0067300D03*
X0150167Y0066300D03*
X0140167Y0067300D03*
X0130167Y0066300D03*
X0120167Y0067300D03*
X0110167Y0066300D03*
X0100167Y0067300D03*
X0090167Y0066300D03*
X0170167Y0066300D03*
X0180167Y0067300D03*
D25*
X0185537Y0223520D02*
X0185537Y0226880D01*
X0192897Y0226880D01*
X0192897Y0223520D01*
X0185537Y0223520D01*
X0185537Y0224959D02*
X0192897Y0224959D01*
X0192897Y0226398D02*
X0185537Y0226398D01*
X0185537Y0232620D02*
X0185537Y0235980D01*
X0192897Y0235980D01*
X0192897Y0232620D01*
X0185537Y0232620D01*
X0185537Y0234059D02*
X0192897Y0234059D01*
X0192897Y0235498D02*
X0185537Y0235498D01*
X0185537Y0241720D02*
X0185537Y0245080D01*
X0192897Y0245080D01*
X0192897Y0241720D01*
X0185537Y0241720D01*
X0185537Y0243159D02*
X0192897Y0243159D01*
X0192897Y0244598D02*
X0185537Y0244598D01*
D26*
X0210587Y0240087D02*
X0210587Y0228513D01*
X0210587Y0240087D02*
X0216649Y0240087D01*
X0216649Y0228513D01*
X0210587Y0228513D01*
X0210587Y0231110D02*
X0216649Y0231110D01*
X0216649Y0233707D02*
X0210587Y0233707D01*
X0210587Y0236304D02*
X0216649Y0236304D01*
X0216649Y0238901D02*
X0210587Y0238901D01*
D27*
X0226887Y0104580D02*
X0226887Y0103020D01*
X0226887Y0104580D02*
X0228447Y0104580D01*
X0228447Y0103020D01*
X0226887Y0103020D01*
X0226887Y0103822D02*
X0228447Y0103822D01*
X0226887Y0100580D02*
X0226887Y0099020D01*
X0226887Y0100580D02*
X0228447Y0100580D01*
X0228447Y0099020D01*
X0226887Y0099020D01*
X0226887Y0099822D02*
X0228447Y0099822D01*
D28*
X0222667Y0094300D03*
X0215167Y0099300D03*
X0206417Y0095550D03*
X0213917Y0087425D03*
X0206417Y0078050D03*
X0188917Y0095550D03*
X0195792Y0101800D03*
X0207667Y0106800D03*
X0200167Y0114300D03*
X0210167Y0126800D03*
X0217667Y0119300D03*
X0222667Y0113050D03*
X0232667Y0111800D03*
X0238917Y0114300D03*
X0231417Y0120550D03*
X0236417Y0130550D03*
X0251417Y0130550D03*
X0258917Y0118050D03*
X0258917Y0106800D03*
X0253917Y0106800D03*
X0248917Y0106800D03*
X0240167Y0101800D03*
X0249542Y0094925D03*
X0253917Y0096800D03*
X0259542Y0096800D03*
X0272667Y0093050D03*
X0272667Y0110550D03*
X0272667Y0131800D03*
X0258917Y0145550D03*
X0248917Y0154300D03*
X0253917Y0156800D03*
X0258917Y0156800D03*
X0258917Y0166800D03*
X0253917Y0166800D03*
X0248917Y0166800D03*
X0240167Y0161800D03*
X0231417Y0169300D03*
X0223917Y0169300D03*
X0215167Y0164300D03*
X0207667Y0156800D03*
X0200167Y0150550D03*
X0210167Y0136800D03*
X0217667Y0144300D03*
X0223917Y0150550D03*
X0230167Y0154300D03*
X0237667Y0150550D03*
X0243917Y0150550D03*
X0239542Y0172425D03*
X0231417Y0178050D03*
X0236417Y0188050D03*
X0251417Y0188050D03*
X0258917Y0178050D03*
X0272667Y0170550D03*
X0272667Y0186800D03*
X0272667Y0153050D03*
X0211417Y0200550D03*
X0220167Y0209300D03*
X0218917Y0218050D03*
X0213917Y0218050D03*
X0213917Y0223050D03*
X0218917Y0223050D03*
X0223917Y0223050D03*
X0223917Y0218050D03*
X0223917Y0229300D03*
X0223917Y0234300D03*
X0223917Y0239300D03*
X0223917Y0245550D03*
X0218917Y0245550D03*
X0213917Y0245550D03*
X0213917Y0250550D03*
X0218917Y0250550D03*
X0223917Y0250550D03*
X0206417Y0245550D03*
X0206417Y0240550D03*
X0201417Y0240550D03*
X0203917Y0234300D03*
X0197667Y0234300D03*
X0201417Y0228050D03*
X0206417Y0228050D03*
X0206417Y0223050D03*
X0188917Y0219615D03*
X0182667Y0219615D03*
X0182667Y0214615D03*
X0176417Y0219615D03*
X0172667Y0231800D03*
X0181417Y0234300D03*
X0157667Y0231800D03*
X0141417Y0208050D03*
X0132667Y0199300D03*
X0123917Y0208050D03*
X0071417Y0208050D03*
X0071417Y0230550D03*
X0071417Y0251800D03*
X0178917Y0171800D03*
X0167667Y0144300D03*
X0172667Y0136800D03*
X0172667Y0128050D03*
X0175792Y0118675D03*
X0158917Y0131800D03*
X0160167Y0135550D03*
X0157667Y0144300D03*
X0142667Y0146800D03*
X0133917Y0141800D03*
X0133917Y0136800D03*
X0141417Y0130550D03*
X0135167Y0129300D03*
X0141417Y0123050D03*
X0142667Y0118050D03*
X0156417Y0121800D03*
X0160792Y0093675D03*
X0150167Y0091800D03*
X0145167Y0088050D03*
X0133917Y0086800D03*
X0127042Y0093675D03*
X0118917Y0086800D03*
X0105167Y0086800D03*
X0100167Y0093050D03*
X0093917Y0083050D03*
X0083917Y0078050D03*
X0078917Y0073050D03*
X0056417Y0083050D03*
X0050167Y0073050D03*
X0165167Y0074300D03*
X0175167Y0074300D03*
X0175167Y0088050D03*
X0200167Y0131800D03*
X0233292Y0091175D03*
X0246417Y0091175D03*
M02*
